%TF.GenerationSoftware,KiCad,Pcbnew,9.0.0-rc1*%
%TF.CreationDate,2025-03-26T15:14:04+01:00*%
%TF.ProjectId,Robobuoy-Sub-Round-v2_0,526f626f-6275-46f7-992d-5375622d526f,2.0*%
%TF.SameCoordinates,Original*%
%TF.FileFunction,Copper,L4,Bot*%
%TF.FilePolarity,Positive*%
%FSLAX46Y46*%
G04 Gerber Fmt 4.6, Leading zero omitted, Abs format (unit mm)*
G04 Created by KiCad (PCBNEW 9.0.0-rc1) date 2025-03-26 15:14:04*
%MOMM*%
%LPD*%
G01*
G04 APERTURE LIST*
G04 Aperture macros list*
%AMRoundRect*
0 Rectangle with rounded corners*
0 $1 Rounding radius*
0 $2 $3 $4 $5 $6 $7 $8 $9 X,Y pos of 4 corners*
0 Add a 4 corners polygon primitive as box body*
4,1,4,$2,$3,$4,$5,$6,$7,$8,$9,$2,$3,0*
0 Add four circle primitives for the rounded corners*
1,1,$1+$1,$2,$3*
1,1,$1+$1,$4,$5*
1,1,$1+$1,$6,$7*
1,1,$1+$1,$8,$9*
0 Add four rect primitives between the rounded corners*
20,1,$1+$1,$2,$3,$4,$5,0*
20,1,$1+$1,$4,$5,$6,$7,0*
20,1,$1+$1,$6,$7,$8,$9,0*
20,1,$1+$1,$8,$9,$2,$3,0*%
%AMHorizOval*
0 Thick line with rounded ends*
0 $1 width*
0 $2 $3 position (X,Y) of the first rounded end (center of the circle)*
0 $4 $5 position (X,Y) of the second rounded end (center of the circle)*
0 Add line between two ends*
20,1,$1,$2,$3,$4,$5,0*
0 Add two circle primitives to create the rounded ends*
1,1,$1,$2,$3*
1,1,$1,$4,$5*%
G04 Aperture macros list end*
%TA.AperFunction,ComponentPad*%
%ADD10R,1.700000X1.700000*%
%TD*%
%TA.AperFunction,ComponentPad*%
%ADD11O,1.700000X1.700000*%
%TD*%
%TA.AperFunction,ComponentPad*%
%ADD12RoundRect,0.249999X-1.025001X-1.025001X1.025001X-1.025001X1.025001X1.025001X-1.025001X1.025001X0*%
%TD*%
%TA.AperFunction,ComponentPad*%
%ADD13C,2.550000*%
%TD*%
%TA.AperFunction,ComponentPad*%
%ADD14RoundRect,0.206250X0.618750X0.618750X-0.618750X0.618750X-0.618750X-0.618750X0.618750X-0.618750X0*%
%TD*%
%TA.AperFunction,ComponentPad*%
%ADD15C,1.700000*%
%TD*%
%TA.AperFunction,ComponentPad*%
%ADD16R,1.650000X1.650000*%
%TD*%
%TA.AperFunction,ComponentPad*%
%ADD17C,3.000000*%
%TD*%
%TA.AperFunction,ComponentPad*%
%ADD18RoundRect,0.249999X1.025001X-1.025001X1.025001X1.025001X-1.025001X1.025001X-1.025001X-1.025001X0*%
%TD*%
%TA.AperFunction,HeatsinkPad*%
%ADD19C,0.500000*%
%TD*%
%TA.AperFunction,HeatsinkPad*%
%ADD20R,2.400000X3.200000*%
%TD*%
%TA.AperFunction,ComponentPad*%
%ADD21RoundRect,0.250000X-0.157115X-0.927868X0.882115X-0.327868X0.157115X0.927868X-0.882115X0.327868X0*%
%TD*%
%TA.AperFunction,ComponentPad*%
%ADD22HorizOval,1.700000X-0.062500X0.108253X0.062500X-0.108253X0*%
%TD*%
%TA.AperFunction,ComponentPad*%
%ADD23RoundRect,0.250000X0.882115X0.327868X-0.157115X0.927868X-0.882115X-0.327868X0.157115X-0.927868X0*%
%TD*%
%TA.AperFunction,ComponentPad*%
%ADD24HorizOval,1.700000X0.062500X0.108253X-0.062500X-0.108253X0*%
%TD*%
%TA.AperFunction,ComponentPad*%
%ADD25RoundRect,0.250000X0.600000X-0.600000X0.600000X0.600000X-0.600000X0.600000X-0.600000X-0.600000X0*%
%TD*%
%TA.AperFunction,ViaPad*%
%ADD26C,0.900000*%
%TD*%
%TA.AperFunction,ViaPad*%
%ADD27C,0.450000*%
%TD*%
%TA.AperFunction,ViaPad*%
%ADD28C,0.600000*%
%TD*%
%TA.AperFunction,ViaPad*%
%ADD29C,0.800000*%
%TD*%
%TA.AperFunction,Conductor*%
%ADD30C,0.200000*%
%TD*%
%TA.AperFunction,Conductor*%
%ADD31C,2.500000*%
%TD*%
%TA.AperFunction,Conductor*%
%ADD32C,0.250000*%
%TD*%
G04 APERTURE END LIST*
D10*
%TO.P,SW101,1,1*%
%TO.N,GND*%
X-17539000Y22172000D03*
D11*
%TO.P,SW101,2,2*%
%TO.N,EN*%
X-20079000Y22172000D03*
%TD*%
D12*
%TO.P,J402,1,Pin_1*%
%TO.N,Net-(J402-Pin_1)*%
X19825000Y-17960000D03*
D13*
%TO.P,J402,2,Pin_2*%
%TO.N,GND*%
X24625000Y-17960000D03*
%TD*%
D14*
%TO.P,SW201,1*%
%TO.N,Vbatt*%
X14206000Y-11864000D03*
D15*
%TO.P,SW201,2*%
%TO.N,Net-(R205-Pad1)*%
X11666000Y-11864000D03*
%TO.P,SW201,3*%
%TO.N,unconnected-(SW201-Pad3)*%
X9126000Y-11864000D03*
%TD*%
D16*
%TO.P,BZ101,1,+*%
%TO.N,+3.3V*%
X-9372600Y-21184800D03*
D15*
%TO.P,BZ101,2,-*%
%TO.N,Net-(BZ101--)*%
X-9372600Y-27684800D03*
%TD*%
D12*
%TO.P,J201,1,Pin_1*%
%TO.N,Vbatt*%
X19685000Y0D03*
D13*
%TO.P,J201,2,Pin_2*%
%TO.N,GND*%
X24485000Y0D03*
%TD*%
D17*
%TO.P,TP203,1,1*%
%TO.N,GND*%
X15214600Y-17830800D03*
%TD*%
D18*
%TO.P,J202,1,Pin_1*%
%TO.N,Vbatt*%
X29845000Y-4800000D03*
D13*
%TO.P,J202,2,Pin_2*%
%TO.N,/CPU/COM*%
X29845000Y0D03*
%TO.P,J202,3,Pin_3*%
%TO.N,GND*%
X29845000Y4800000D03*
%TD*%
D19*
%TO.P,U201,9,PAD*%
%TO.N,GND*%
X5400000Y-4650000D03*
X5400000Y-6000000D03*
X5400000Y-7350000D03*
D20*
X6350000Y-6000000D03*
D19*
X7300000Y-4650000D03*
X7300000Y-6000000D03*
X7300000Y-7350000D03*
%TD*%
D12*
%TO.P,J302,1,Pin_1*%
%TO.N,Net-(J302-Pin_1)*%
X20170000Y17600000D03*
D13*
%TO.P,J302,2,Pin_2*%
%TO.N,GND*%
X24970001Y17600000D03*
%TD*%
D21*
%TO.P,J401,1,Pin_1*%
%TO.N,Net-(J401-Pin_1)*%
X12032437Y-25867337D03*
D22*
%TO.P,J401,2,Pin_2*%
%TO.N,Net-(J401-Pin_2)*%
X14197501Y-24617337D03*
%TO.P,J401,3,Pin_3*%
%TO.N,GND*%
X16362564Y-23367337D03*
%TD*%
D23*
%TO.P,J301,1,Pin_1*%
%TO.N,Net-(J301-Pin_1)*%
X16746000Y23188000D03*
D24*
%TO.P,J301,2,Pin_2*%
%TO.N,Net-(J301-Pin_2)*%
X14580936Y24438000D03*
%TO.P,J301,3,Pin_3*%
%TO.N,GND*%
X12415873Y25688000D03*
%TD*%
D25*
%TO.P,J101,1,Pin_1*%
%TO.N,EN*%
X-19835000Y13672500D03*
D15*
%TO.P,J101,2,Pin_2*%
%TO.N,+3.3V*%
X-19835000Y16212500D03*
%TO.P,J101,3,Pin_3*%
%TO.N,TX*%
X-17295000Y13672500D03*
%TO.P,J101,4,Pin_4*%
%TO.N,GND*%
X-17295000Y16212500D03*
%TO.P,J101,5,Pin_5*%
%TO.N,RX*%
X-14755000Y13672500D03*
%TO.P,J101,6,Pin_6*%
%TO.N,DR0*%
X-14755000Y16212500D03*
%TD*%
D26*
%TO.N,+3.3V*%
X-3950000Y-4175000D03*
X4724400Y12483400D03*
D27*
X4368800Y15976600D03*
D26*
X-22733000Y-7112000D03*
X-3944400Y-9141262D03*
D27*
%TO.N,EN*%
X-21480000Y1960000D03*
%TO.N,GND*%
X3708400Y-11582400D03*
D26*
X1066800Y8280400D03*
D27*
X10910000Y-14000000D03*
X-4267200Y28524200D03*
X24970001Y11300000D03*
X-5606000Y-13528500D03*
X-16900000Y-11040000D03*
X-24890000Y5170000D03*
D28*
X13030200Y1244600D03*
D27*
X1830000Y-7790000D03*
X24970001Y4920000D03*
X-24890000Y-5240000D03*
D28*
X-7493000Y-5715000D03*
D27*
X-24890000Y-4020000D03*
X-24890000Y6000000D03*
X15250000Y-13590000D03*
D29*
X22098000Y508000D03*
D28*
X-24257000Y-14681200D03*
X-13970000Y1828800D03*
D27*
X27330000Y-1710000D03*
X-24890000Y-2000000D03*
X1260000Y-10670000D03*
X16020000Y-14530000D03*
D28*
X-16557800Y-962200D03*
D27*
X6470000Y-8380000D03*
X-1295400Y3276600D03*
X-24890000Y-1000000D03*
X6040000Y-18480000D03*
X-24930000Y12000000D03*
D26*
X3657600Y30911800D03*
D27*
X6780000Y-10710000D03*
X-1980000Y-7710000D03*
D26*
X-1524000Y12420600D03*
X3530600Y8255000D03*
D27*
X-24910000Y7000000D03*
X-24890000Y4000000D03*
X17272000Y-16256000D03*
D26*
X11480800Y8255000D03*
D27*
X14490000Y2600000D03*
D29*
X13311000Y-6905000D03*
D27*
X11404600Y-22733000D03*
X10970000Y-17210000D03*
X20210000Y-7100000D03*
X-5410200Y28397200D03*
X-24920000Y-7360000D03*
X-15036800Y-18491200D03*
X28280000Y-2330000D03*
D26*
X-5562600Y14681200D03*
D27*
X-22140000Y-15300000D03*
X-24890000Y3000000D03*
X-24900000Y8000000D03*
X24970001Y-7950000D03*
X-8788400Y-13589000D03*
D29*
X15730000Y17219000D03*
D27*
X-457200Y-3708400D03*
D28*
X-20345400Y-14300200D03*
D29*
X15730000Y-3228000D03*
D27*
X-20517000Y-10769600D03*
X20210000Y-5910000D03*
D28*
X-17043400Y-14300200D03*
D27*
X-24890000Y0D03*
D28*
X-24003000Y7239000D03*
D27*
X-24890000Y-6300000D03*
D28*
X-24003000Y10363200D03*
D27*
X24970001Y-12660000D03*
D26*
X11506200Y5715000D03*
D27*
X12940000Y-10990000D03*
D28*
X-19456400Y-3632200D03*
D27*
X12850000Y-9220000D03*
X6490000Y860000D03*
X4826000Y-16560800D03*
X-11900000Y-14500000D03*
D29*
X15748000Y-4318000D03*
X3030000Y4900000D03*
D27*
X-2565400Y-11734800D03*
X1240000Y-9270000D03*
X-24960000Y-8770000D03*
X-24930000Y11000000D03*
X-24930000Y10000000D03*
X-24930000Y8940000D03*
X-9525000Y27762200D03*
D28*
X-24028400Y-7416800D03*
D27*
X24970001Y13830000D03*
D29*
X18288000Y-4318000D03*
D27*
X-24890000Y2000000D03*
X-24890000Y-3000000D03*
D28*
X-19354800Y1828800D03*
D27*
X-24890000Y1000000D03*
X-21620000Y-13740000D03*
D26*
X9245600Y8255000D03*
D27*
X-25000000Y13000000D03*
D28*
X-13970000Y-3556000D03*
D27*
X-4876800Y29057600D03*
X28280000Y-2330000D03*
%TO.N,/CPU/Vsamp*%
X-14884400Y-11684000D03*
X-14757400Y-13106400D03*
%TO.N,/CPU/COM*%
X15113000Y-8407400D03*
X-5475000Y-8350000D03*
X15900400Y-6527800D03*
%TO.N,Net-(Q302-G)*%
X1270000Y-15240000D03*
X20167600Y2489200D03*
X22625000Y2500000D03*
%TO.N,Net-(Q402-G)*%
X19253200Y-14681200D03*
X1917700Y-16573500D03*
X22925000Y-14450000D03*
%TO.N,BUZZER*%
X-13843000Y-10795000D03*
X-13157200Y-17246600D03*
%TO.N,/CPU/VbatEn*%
X-13690600Y-7137400D03*
X-11582400Y-7137400D03*
%TO.N,/CPU/ESC_BB*%
X-10439400Y-17780000D03*
X-10591800Y-12369800D03*
%TD*%
D30*
%TO.N,EN*%
X-19835000Y3605000D02*
X-21480000Y1960000D01*
X-19835000Y13672500D02*
X-19835000Y3605000D01*
D31*
%TO.N,Vbatt*%
X29845000Y-4800000D02*
X24485000Y-4800000D01*
X24485000Y-4800000D02*
X19685000Y0D01*
D30*
%TO.N,/CPU/Vsamp*%
X-14884400Y-12979400D02*
X-14757400Y-13106400D01*
X-14884400Y-11684000D02*
X-14884400Y-12979400D01*
D32*
%TO.N,/CPU/COM*%
X-350000Y-10000000D02*
X-2000000Y-8350000D01*
X13520400Y-10000000D02*
X-350000Y-10000000D01*
X15113000Y-8407400D02*
X13520400Y-10000000D01*
D30*
X-5475000Y-8350000D02*
X-2000000Y-8350000D01*
%TO.N,Net-(Q302-G)*%
X20178400Y2500000D02*
X20167600Y2489200D01*
X16916400Y1778000D02*
X17627600Y2489200D01*
X1270000Y-15240000D02*
X1981200Y-14528800D01*
X16916400Y-12750800D02*
X16916400Y1778000D01*
X17627600Y2489200D02*
X20167600Y2489200D01*
X22625000Y2500000D02*
X20178400Y2500000D01*
X15138400Y-14528800D02*
X16916400Y-12750800D01*
X1981200Y-14528800D02*
X15138400Y-14528800D01*
%TO.N,Net-(Q402-G)*%
X2997200Y-15494000D02*
X18440400Y-15494000D01*
X19253200Y-14681200D02*
X22693800Y-14681200D01*
X1917700Y-16573500D02*
X2997200Y-15494000D01*
X22693800Y-14681200D02*
X22925000Y-14450000D01*
X18440400Y-15494000D02*
X19253200Y-14681200D01*
%TO.N,BUZZER*%
X-13208000Y-11430000D02*
X-13208000Y-17195800D01*
X-13843000Y-10795000D02*
X-13208000Y-11430000D01*
X-13208000Y-17195800D02*
X-13157200Y-17246600D01*
%TO.N,/CPU/VbatEn*%
X-11582400Y-7137400D02*
X-13690600Y-7137400D01*
%TO.N,/CPU/ESC_BB*%
X-10439400Y-17780000D02*
X-10439400Y-12522200D01*
X-10439400Y-12522200D02*
X-10591800Y-12369800D01*
%TD*%
%TA.AperFunction,Conductor*%
%TO.N,GND*%
G36*
X503462Y33092021D02*
G01*
X1642699Y33055058D01*
X1646926Y33054848D01*
X2784206Y32978532D01*
X2788418Y32978176D01*
X3922393Y32862595D01*
X3926549Y32862099D01*
X5055897Y32707389D01*
X5060067Y32706744D01*
X6183294Y32513108D01*
X6187481Y32512312D01*
X7303363Y32279966D01*
X7307491Y32279032D01*
X8108877Y32083044D01*
X8414674Y32008257D01*
X8418819Y32007167D01*
X8547603Y31970911D01*
X9515998Y31698283D01*
X9520026Y31697073D01*
X10605896Y31350444D01*
X10609866Y31349101D01*
X11683106Y30965148D01*
X11687060Y30963656D01*
X12576667Y30610259D01*
X12746348Y30542853D01*
X12750304Y30541202D01*
X13794399Y30084046D01*
X13798295Y30082259D01*
X13919791Y30023978D01*
X14825959Y29589293D01*
X14829753Y29587392D01*
X15282462Y29350645D01*
X15839785Y29059189D01*
X15843549Y29057137D01*
X15961337Y28990256D01*
X16834727Y28494339D01*
X16838382Y28492178D01*
X17809505Y27895463D01*
X17813088Y27893176D01*
X18763020Y27263243D01*
X18766499Y27260849D01*
X19694108Y26598448D01*
X19697518Y26595923D01*
X20520265Y25964353D01*
X20601650Y25901879D01*
X20604995Y25899218D01*
X20918677Y25640713D01*
X21484596Y25174340D01*
X21487856Y25171557D01*
X21757090Y24933589D01*
X22341866Y24416723D01*
X22344987Y24413867D01*
X23016931Y23777257D01*
X23172420Y23629944D01*
X23175480Y23626943D01*
X23975304Y22814910D01*
X23978258Y22811805D01*
X24743660Y21979007D01*
X24749530Y21972621D01*
X24752367Y21969425D01*
X25494211Y21104042D01*
X25496912Y21100777D01*
X25837245Y20674814D01*
X26208356Y20210328D01*
X26210974Y20206934D01*
X26891248Y19292383D01*
X26893746Y19288900D01*
X27541980Y18351421D01*
X27544357Y18347853D01*
X28159800Y17388528D01*
X28162052Y17384881D01*
X28743986Y16404833D01*
X28746110Y16401110D01*
X29293800Y15401575D01*
X29295794Y15397781D01*
X29808632Y14379871D01*
X29810495Y14376010D01*
X30287840Y13340992D01*
X30289567Y13337069D01*
X30730841Y12286199D01*
X30732432Y12282219D01*
X31137125Y11216716D01*
X31138578Y11212683D01*
X31506209Y10133807D01*
X31507521Y10129727D01*
X31837644Y9038788D01*
X31838814Y9034664D01*
X32131021Y7933015D01*
X32132049Y7928853D01*
X32386021Y6817692D01*
X32386903Y6813498D01*
X32602304Y5694296D01*
X32603042Y5690073D01*
X32779644Y4564017D01*
X32780234Y4559772D01*
X32917801Y3428353D01*
X32918245Y3424089D01*
X33016629Y2288556D01*
X33016925Y2284280D01*
X33076002Y1146032D01*
X33076150Y1141748D01*
X33095849Y2143D01*
X33095849Y-2143D01*
X33076150Y-1141747D01*
X33076002Y-1146031D01*
X33016925Y-2284279D01*
X33016629Y-2288555D01*
X32918245Y-3424088D01*
X32917801Y-3428352D01*
X32780234Y-4559771D01*
X32779644Y-4564016D01*
X32603042Y-5690072D01*
X32602304Y-5694295D01*
X32386903Y-6813497D01*
X32386021Y-6817691D01*
X32132049Y-7928852D01*
X32131021Y-7933014D01*
X31838814Y-9034663D01*
X31837644Y-9038787D01*
X31507521Y-10129726D01*
X31506209Y-10133806D01*
X31138578Y-11212682D01*
X31137125Y-11216715D01*
X30732432Y-12282218D01*
X30730841Y-12286198D01*
X30289567Y-13337068D01*
X30287840Y-13340991D01*
X29810495Y-14376009D01*
X29808632Y-14379870D01*
X29295794Y-15397780D01*
X29293800Y-15401574D01*
X28746110Y-16401109D01*
X28743986Y-16404832D01*
X28162052Y-17384880D01*
X28159800Y-17388527D01*
X27544357Y-18347852D01*
X27541980Y-18351420D01*
X26893746Y-19288899D01*
X26891248Y-19292382D01*
X26210974Y-20206933D01*
X26208356Y-20210327D01*
X25496928Y-21100757D01*
X25494195Y-21104060D01*
X24752375Y-21969415D01*
X24749530Y-21972620D01*
X23978259Y-22811803D01*
X23975304Y-22814909D01*
X23175480Y-23626942D01*
X23172420Y-23629943D01*
X22345008Y-24413847D01*
X22341845Y-24416741D01*
X21487856Y-25171556D01*
X21484596Y-25174339D01*
X20605004Y-25899210D01*
X20601650Y-25901878D01*
X19697535Y-26595909D01*
X19694090Y-26598460D01*
X18766525Y-27260830D01*
X18762994Y-27263260D01*
X17813103Y-27893165D01*
X17809490Y-27895472D01*
X16838399Y-28492167D01*
X16834709Y-28494348D01*
X15843549Y-29057136D01*
X15839785Y-29059188D01*
X14829771Y-29587382D01*
X14825939Y-29589302D01*
X13798295Y-30082258D01*
X13794399Y-30084045D01*
X12750304Y-30541201D01*
X12746348Y-30542852D01*
X11687088Y-30963644D01*
X11683078Y-30965157D01*
X10609911Y-31349084D01*
X10605850Y-31350458D01*
X9520064Y-31697060D01*
X9515959Y-31698293D01*
X8418819Y-32007166D01*
X8414674Y-32008256D01*
X7307517Y-32279025D01*
X7303336Y-32279971D01*
X6187493Y-32512308D01*
X6183282Y-32513109D01*
X5060100Y-32706737D01*
X5055864Y-32707393D01*
X3926599Y-32862092D01*
X3922343Y-32862600D01*
X2788448Y-32978172D01*
X2784176Y-32978533D01*
X1646953Y-33054845D01*
X1642672Y-33055058D01*
X503495Y-33092019D01*
X499209Y-33092084D01*
X-640591Y-33089650D01*
X-644877Y-33089566D01*
X-1783858Y-33047739D01*
X-1788138Y-33047508D01*
X-2925030Y-32966338D01*
X-2929299Y-32965959D01*
X-4062688Y-32845544D01*
X-4066942Y-32845018D01*
X-5195536Y-32685497D01*
X-5199770Y-32684823D01*
X-6322123Y-32486398D01*
X-6326330Y-32485579D01*
X-7441171Y-32248476D01*
X-7445348Y-32247512D01*
X-8551337Y-31972018D01*
X-8555478Y-31970910D01*
X-9651269Y-31657357D01*
X-9655369Y-31656107D01*
X-10739682Y-31304864D01*
X-10743736Y-31303473D01*
X-11815270Y-30914959D01*
X-11819274Y-30913428D01*
X-12876710Y-30488122D01*
X-12880659Y-30486454D01*
X-13922779Y-30024848D01*
X-13926667Y-30023045D01*
X-14952220Y-29525691D01*
X-14956044Y-29523754D01*
X-15835223Y-29059188D01*
X-15963790Y-28991252D01*
X-15967536Y-28989189D01*
X-16956261Y-28422183D01*
X-16959942Y-28419987D01*
X-17928488Y-27819141D01*
X-17932091Y-27816819D01*
X-18112059Y-27696366D01*
X-18258745Y-27598189D01*
X-10473100Y-27598189D01*
X-10473100Y-27771410D01*
X-10453629Y-27894350D01*
X-10446002Y-27942501D01*
X-10392473Y-28107245D01*
X-10313832Y-28261588D01*
X-10212014Y-28401728D01*
X-10089528Y-28524214D01*
X-9949388Y-28626032D01*
X-9795045Y-28704673D01*
X-9630301Y-28758202D01*
X-9459211Y-28785300D01*
X-9459210Y-28785300D01*
X-9285990Y-28785300D01*
X-9285989Y-28785300D01*
X-9114899Y-28758202D01*
X-8950155Y-28704673D01*
X-8795812Y-28626032D01*
X-8655672Y-28524214D01*
X-8533186Y-28401728D01*
X-8431368Y-28261588D01*
X-8352727Y-28107245D01*
X-8299198Y-27942501D01*
X-8272100Y-27771411D01*
X-8272100Y-27598189D01*
X-8299198Y-27427099D01*
X-8352727Y-27262355D01*
X-8431368Y-27108012D01*
X-8533186Y-26967872D01*
X-8655672Y-26845386D01*
X-8795812Y-26743568D01*
X-8950155Y-26664927D01*
X-9114899Y-26611398D01*
X-9114901Y-26611397D01*
X-9114902Y-26611397D01*
X-9246329Y-26590581D01*
X-9285989Y-26584300D01*
X-9459211Y-26584300D01*
X-9498872Y-26590581D01*
X-9630298Y-26611397D01*
X-9795048Y-26664928D01*
X-9949389Y-26743568D01*
X-10029344Y-26801659D01*
X-10089528Y-26845386D01*
X-10089530Y-26845388D01*
X-10089531Y-26845388D01*
X-10212012Y-26967869D01*
X-10212012Y-26967870D01*
X-10212014Y-26967872D01*
X-10255741Y-27028056D01*
X-10313832Y-27108011D01*
X-10392472Y-27262352D01*
X-10446003Y-27427102D01*
X-10473100Y-27598189D01*
X-18258745Y-27598189D01*
X-18879315Y-27182840D01*
X-18882835Y-27180394D01*
X-19177773Y-26967872D01*
X-19807548Y-26514077D01*
X-19810938Y-26511545D01*
X-20712118Y-25813629D01*
X-20715461Y-25810946D01*
X-21591932Y-25082339D01*
X-21595180Y-25079542D01*
X-21721176Y-24967216D01*
X-21721182Y-24967211D01*
X-21820452Y-24878711D01*
X-1850500Y-24878711D01*
X-1850500Y-25121288D01*
X-1818839Y-25361785D01*
X-1756053Y-25596104D01*
X-1663227Y-25820205D01*
X-1663223Y-25820214D01*
X-1658084Y-25829115D01*
X-1541936Y-26030289D01*
X-1541934Y-26030292D01*
X-1541933Y-26030293D01*
X-1394267Y-26222736D01*
X-1394261Y-26222743D01*
X-1222744Y-26394260D01*
X-1222738Y-26394265D01*
X-1030289Y-26541936D01*
X-820212Y-26663224D01*
X-596100Y-26756054D01*
X-361789Y-26818838D01*
X-181414Y-26842584D01*
X-121289Y-26850500D01*
X-121288Y-26850500D01*
X121289Y-26850500D01*
X169388Y-26844167D01*
X361789Y-26818838D01*
X596100Y-26756054D01*
X820212Y-26663224D01*
X1030289Y-26541936D01*
X1222738Y-26394265D01*
X1394265Y-26222738D01*
X1541936Y-26030289D01*
X1663224Y-25820212D01*
X1756054Y-25596100D01*
X1768004Y-25551501D01*
X10644817Y-25551501D01*
X10644818Y-25551503D01*
X10668683Y-25693426D01*
X10692942Y-25748263D01*
X11465812Y-27086912D01*
X11465814Y-27086916D01*
X11501167Y-27135333D01*
X11501173Y-27135339D01*
X11612146Y-27226966D01*
X11612147Y-27226966D01*
X11612149Y-27226968D01*
X11744451Y-27283622D01*
X11887355Y-27300710D01*
X12029284Y-27276842D01*
X12084113Y-27252588D01*
X13206260Y-26604714D01*
X13254681Y-26569359D01*
X13346315Y-26458379D01*
X13402969Y-26326076D01*
X13420056Y-26183172D01*
X13396189Y-26041243D01*
X13371934Y-25986415D01*
X12599061Y-24647761D01*
X12599059Y-24647757D01*
X12563706Y-24599340D01*
X12563705Y-24599339D01*
X12557557Y-24594263D01*
X12452725Y-24507706D01*
X12388459Y-24480186D01*
X13031476Y-24480186D01*
X13031476Y-24480193D01*
X13040542Y-24653168D01*
X13040542Y-24653172D01*
X13040543Y-24653173D01*
X13066224Y-24773998D01*
X13076557Y-24822609D01*
X13138634Y-24984326D01*
X13138637Y-24984331D01*
X13350244Y-25350845D01*
X13350249Y-25350852D01*
X13459260Y-25485468D01*
X13582129Y-25596100D01*
X13587988Y-25601375D01*
X13733265Y-25695720D01*
X13733268Y-25695721D01*
X13733271Y-25695723D01*
X13785645Y-25719040D01*
X13891512Y-25766175D01*
X14058831Y-25811008D01*
X14231105Y-25829115D01*
X14404090Y-25820049D01*
X14573527Y-25784034D01*
X14735245Y-25721956D01*
X14885259Y-25635345D01*
X15019878Y-25526333D01*
X15135786Y-25397603D01*
X15230131Y-25252326D01*
X15300586Y-25094079D01*
X15345419Y-24926760D01*
X15363526Y-24754487D01*
X15356195Y-24614626D01*
X15372343Y-24546649D01*
X15422680Y-24498193D01*
X15491223Y-24484643D01*
X15556211Y-24510301D01*
X15562997Y-24515986D01*
X15600693Y-24549928D01*
X15600698Y-24549932D01*
X15778904Y-24665659D01*
X15973036Y-24752092D01*
X16178281Y-24807087D01*
X16389618Y-24829299D01*
X16601815Y-24818179D01*
X16601824Y-24818178D01*
X16809675Y-24773998D01*
X16872172Y-24750006D01*
X16872172Y-24750005D01*
X16348131Y-23842337D01*
X16425099Y-23842337D01*
X16545907Y-23809967D01*
X16654221Y-23747432D01*
X16742659Y-23658994D01*
X16781142Y-23592338D01*
X17305184Y-24500005D01*
X17305185Y-24500005D01*
X17357219Y-24457870D01*
X17499401Y-24299961D01*
X17499405Y-24299956D01*
X17615133Y-24121749D01*
X17701565Y-23927620D01*
X17756561Y-23722372D01*
X17778773Y-23511041D01*
X17778773Y-23511032D01*
X17767653Y-23298838D01*
X17767652Y-23298829D01*
X17723473Y-23090984D01*
X17654126Y-22910328D01*
X17654125Y-22910327D01*
X16837564Y-23381768D01*
X16837564Y-23304802D01*
X16805194Y-23183994D01*
X16742659Y-23075680D01*
X16654221Y-22987242D01*
X16587563Y-22948757D01*
X17404124Y-22477316D01*
X17404124Y-22477315D01*
X17282344Y-22326929D01*
X17124434Y-22184747D01*
X17124429Y-22184742D01*
X16946222Y-22069014D01*
X16752094Y-21982582D01*
X16752095Y-21982582D01*
X16546840Y-21927584D01*
X16335509Y-21905374D01*
X16123312Y-21916494D01*
X16123303Y-21916495D01*
X15915460Y-21960674D01*
X15852953Y-21984667D01*
X16376997Y-22892337D01*
X16300029Y-22892337D01*
X16179221Y-22924707D01*
X16070907Y-22987242D01*
X15982469Y-23075680D01*
X15943985Y-23142336D01*
X15419942Y-22234667D01*
X15419941Y-22234666D01*
X15367912Y-22276800D01*
X15225726Y-22434713D01*
X15225722Y-22434718D01*
X15109994Y-22612925D01*
X15023562Y-22807053D01*
X14968564Y-23012307D01*
X14946354Y-23223633D01*
X14946354Y-23223642D01*
X14957474Y-23435835D01*
X14968022Y-23485458D01*
X14962705Y-23555125D01*
X14920567Y-23610858D01*
X14854987Y-23634963D01*
X14786786Y-23619786D01*
X14779196Y-23615233D01*
X14661741Y-23538957D01*
X14660409Y-23538364D01*
X14503490Y-23468499D01*
X14503488Y-23468498D01*
X14503489Y-23468498D01*
X14336175Y-23423667D01*
X14336174Y-23423666D01*
X14336171Y-23423666D01*
X14163897Y-23405559D01*
X14163895Y-23405559D01*
X13990916Y-23414625D01*
X13990907Y-23414627D01*
X13821475Y-23450640D01*
X13659758Y-23512717D01*
X13659753Y-23512720D01*
X13509745Y-23599327D01*
X13509738Y-23599332D01*
X13375122Y-23708343D01*
X13259218Y-23837068D01*
X13259213Y-23837073D01*
X13164874Y-23982344D01*
X13094415Y-24140596D01*
X13065008Y-24250347D01*
X13049583Y-24307914D01*
X13039495Y-24403895D01*
X13031476Y-24480186D01*
X12388459Y-24480186D01*
X12320423Y-24451052D01*
X12320420Y-24451051D01*
X12320421Y-24451051D01*
X12177518Y-24433963D01*
X12177517Y-24433964D01*
X12035593Y-24457831D01*
X12035591Y-24457831D01*
X12035590Y-24457832D01*
X12017313Y-24465916D01*
X11980755Y-24482088D01*
X10858614Y-25129959D01*
X10858610Y-25129961D01*
X10810194Y-25165314D01*
X10810190Y-25165318D01*
X10718560Y-25276292D01*
X10661905Y-25408598D01*
X10644817Y-25551501D01*
X1768004Y-25551501D01*
X1818838Y-25361789D01*
X1850500Y-25121288D01*
X1850500Y-24878712D01*
X1818838Y-24638211D01*
X1756054Y-24403900D01*
X1663224Y-24179788D01*
X1541936Y-23969711D01*
X1444199Y-23842337D01*
X1394266Y-23777263D01*
X1394260Y-23777256D01*
X1222743Y-23605739D01*
X1222736Y-23605733D01*
X1030293Y-23458067D01*
X1030292Y-23458066D01*
X1030289Y-23458064D01*
X820212Y-23336776D01*
X743020Y-23304802D01*
X596104Y-23243947D01*
X361785Y-23181161D01*
X121289Y-23149500D01*
X121288Y-23149500D01*
X-121288Y-23149500D01*
X-121289Y-23149500D01*
X-361786Y-23181161D01*
X-596105Y-23243947D01*
X-820206Y-23336773D01*
X-820215Y-23336777D01*
X-1030294Y-23458067D01*
X-1222737Y-23605733D01*
X-1222744Y-23605739D01*
X-1394261Y-23777256D01*
X-1394267Y-23777263D01*
X-1541933Y-23969706D01*
X-1663223Y-24179785D01*
X-1663227Y-24179794D01*
X-1756053Y-24403895D01*
X-1818839Y-24638214D01*
X-1850500Y-24878711D01*
X-21820452Y-24878711D01*
X-22445964Y-24321061D01*
X-22449113Y-24318154D01*
X-23273156Y-23530735D01*
X-23276204Y-23527720D01*
X-24072552Y-22712277D01*
X-24075493Y-22709159D01*
X-24737568Y-21982582D01*
X-24843164Y-21866698D01*
X-24845989Y-21863489D01*
X-25553605Y-21030861D01*
X-25582019Y-20967030D01*
X-25583118Y-20950579D01*
X-25583212Y-20335121D01*
X-10448100Y-20335121D01*
X-10448100Y-22034478D01*
X-10433568Y-22107535D01*
X-10433567Y-22107539D01*
X-10433566Y-22107540D01*
X-10378201Y-22190401D01*
X-10311951Y-22234667D01*
X-10295340Y-22245766D01*
X-10295336Y-22245767D01*
X-10222279Y-22260299D01*
X-10222276Y-22260300D01*
X-10222274Y-22260300D01*
X-8522924Y-22260300D01*
X-8522923Y-22260299D01*
X-8449860Y-22245766D01*
X-8366999Y-22190401D01*
X-8311634Y-22107540D01*
X-8297100Y-22034474D01*
X-8297100Y-20335126D01*
X-8297100Y-20335123D01*
X-8297101Y-20335121D01*
X-8311633Y-20262064D01*
X-8311634Y-20262060D01*
X-8366999Y-20179199D01*
X-8449860Y-20123834D01*
X-8449861Y-20123833D01*
X-8449865Y-20123832D01*
X-8522923Y-20109300D01*
X-8522926Y-20109300D01*
X-10222274Y-20109300D01*
X-10222277Y-20109300D01*
X-10295336Y-20123832D01*
X-10295340Y-20123833D01*
X-10378201Y-20179199D01*
X-10433567Y-20262060D01*
X-10433568Y-20262064D01*
X-10448100Y-20335121D01*
X-25583212Y-20335121D01*
X-25584538Y-11621399D01*
X-15359900Y-11621399D01*
X-15359900Y-11746601D01*
X-15327495Y-11867536D01*
X-15264895Y-11975964D01*
X-15264893Y-11975966D01*
X-15260526Y-11981657D01*
X-15235330Y-12046825D01*
X-15234900Y-12057146D01*
X-15234900Y-13025545D01*
X-15233961Y-13032679D01*
X-15232900Y-13048863D01*
X-15232900Y-13169001D01*
X-15200495Y-13289936D01*
X-15137895Y-13398364D01*
X-15049364Y-13486895D01*
X-14940936Y-13549495D01*
X-14820001Y-13581900D01*
X-14819999Y-13581900D01*
X-14694801Y-13581900D01*
X-14694799Y-13581900D01*
X-14573864Y-13549495D01*
X-14465436Y-13486895D01*
X-14376905Y-13398364D01*
X-14314305Y-13289936D01*
X-14281900Y-13169001D01*
X-14281900Y-13043799D01*
X-14314305Y-12922864D01*
X-14376905Y-12814436D01*
X-14465436Y-12725905D01*
X-14465438Y-12725904D01*
X-14465440Y-12725902D01*
X-14471906Y-12722169D01*
X-14520119Y-12671599D01*
X-14533900Y-12614785D01*
X-14533900Y-12057146D01*
X-14514215Y-11990107D01*
X-14508274Y-11981657D01*
X-14503912Y-11975970D01*
X-14503905Y-11975964D01*
X-14441305Y-11867536D01*
X-14408900Y-11746601D01*
X-14408900Y-11621399D01*
X-14441305Y-11500464D01*
X-14503905Y-11392036D01*
X-14592436Y-11303505D01*
X-14700864Y-11240905D01*
X-14700863Y-11240905D01*
X-14741176Y-11230103D01*
X-14821799Y-11208500D01*
X-14947001Y-11208500D01*
X-15027625Y-11230103D01*
X-15067937Y-11240905D01*
X-15176363Y-11303504D01*
X-15176366Y-11303506D01*
X-15264894Y-11392034D01*
X-15264896Y-11392037D01*
X-15327495Y-11500463D01*
X-15327495Y-11500464D01*
X-15359900Y-11621399D01*
X-25584538Y-11621399D01*
X-25584673Y-10732399D01*
X-14318500Y-10732399D01*
X-14318500Y-10857601D01*
X-14286095Y-10978536D01*
X-14223495Y-11086964D01*
X-14134964Y-11175495D01*
X-14026536Y-11238095D01*
X-13905601Y-11270500D01*
X-13905599Y-11270500D01*
X-13898483Y-11271437D01*
X-13834587Y-11299703D01*
X-13826987Y-11306695D01*
X-13594819Y-11538863D01*
X-13561334Y-11600186D01*
X-13558500Y-11626544D01*
X-13558500Y-16957445D01*
X-13575112Y-17019443D01*
X-13600293Y-17063059D01*
X-13600295Y-17063062D01*
X-13621899Y-17143687D01*
X-13632700Y-17183999D01*
X-13632700Y-17309201D01*
X-13600295Y-17430136D01*
X-13537695Y-17538564D01*
X-13449164Y-17627095D01*
X-13340736Y-17689695D01*
X-13219801Y-17722100D01*
X-13219799Y-17722100D01*
X-13094601Y-17722100D01*
X-13094599Y-17722100D01*
X-12973664Y-17689695D01*
X-12865236Y-17627095D01*
X-12776705Y-17538564D01*
X-12714105Y-17430136D01*
X-12681700Y-17309201D01*
X-12681700Y-17183999D01*
X-12714105Y-17063064D01*
X-12776705Y-16954636D01*
X-12821181Y-16910160D01*
X-12854666Y-16848837D01*
X-12857500Y-16822479D01*
X-12857500Y-12307199D01*
X-11067300Y-12307199D01*
X-11067300Y-12432401D01*
X-11034895Y-12553336D01*
X-10972295Y-12661764D01*
X-10883764Y-12750295D01*
X-10883763Y-12750296D01*
X-10883761Y-12750297D01*
X-10851902Y-12768690D01*
X-10803686Y-12819256D01*
X-10789900Y-12876078D01*
X-10789900Y-17406853D01*
X-10809585Y-17473892D01*
X-10815523Y-17482338D01*
X-10819895Y-17488034D01*
X-10882495Y-17596463D01*
X-10882495Y-17596464D01*
X-10914900Y-17717399D01*
X-10914900Y-17842601D01*
X-10882495Y-17963536D01*
X-10819895Y-18071964D01*
X-10731364Y-18160495D01*
X-10622936Y-18223095D01*
X-10502001Y-18255500D01*
X-10501999Y-18255500D01*
X-10376801Y-18255500D01*
X-10376799Y-18255500D01*
X-10255864Y-18223095D01*
X-10147436Y-18160495D01*
X-10058905Y-18071964D01*
X-9996305Y-17963536D01*
X-9963900Y-17842601D01*
X-9963900Y-17717399D01*
X-9996305Y-17596464D01*
X-10058905Y-17488036D01*
X-10058906Y-17488034D01*
X-10063277Y-17482338D01*
X-10088470Y-17417169D01*
X-10088900Y-17406853D01*
X-10088900Y-16510899D01*
X1442200Y-16510899D01*
X1442200Y-16636101D01*
X1474605Y-16757036D01*
X1537205Y-16865464D01*
X1625736Y-16953995D01*
X1734164Y-17016595D01*
X1855099Y-17049000D01*
X1855101Y-17049000D01*
X1980299Y-17049000D01*
X1980301Y-17049000D01*
X2101236Y-17016595D01*
X2209664Y-16953995D01*
X2298195Y-16865464D01*
X2360795Y-16757036D01*
X2393200Y-16636101D01*
X2393200Y-16636096D01*
X2394137Y-16628984D01*
X2422402Y-16565087D01*
X2429383Y-16557498D01*
X3106063Y-15880819D01*
X3167386Y-15847334D01*
X3193744Y-15844500D01*
X14192199Y-15844500D01*
X14259238Y-15864185D01*
X14304993Y-15916989D01*
X14314937Y-15986147D01*
X14285912Y-16049703D01*
X14254200Y-16075887D01*
X14101068Y-16164298D01*
X13988233Y-16250879D01*
X13988233Y-16250880D01*
X14890574Y-17153221D01*
X14859342Y-17166159D01*
X14736503Y-17248237D01*
X14632037Y-17352703D01*
X14549959Y-17475542D01*
X14537021Y-17506774D01*
X13634680Y-16604433D01*
X13634679Y-16604433D01*
X13548096Y-16717271D01*
X13417009Y-16944317D01*
X13417004Y-16944328D01*
X13316675Y-17186544D01*
X13248822Y-17439779D01*
X13248820Y-17439790D01*
X13214600Y-17699705D01*
X13214600Y-17961894D01*
X13248820Y-18221809D01*
X13248822Y-18221820D01*
X13316675Y-18475055D01*
X13417004Y-18717271D01*
X13417009Y-18717282D01*
X13548088Y-18944316D01*
X13548094Y-18944324D01*
X13634680Y-19057165D01*
X14537021Y-18154824D01*
X14549959Y-18186058D01*
X14632037Y-18308897D01*
X14736503Y-18413363D01*
X14859342Y-18495441D01*
X14890574Y-18508377D01*
X13988233Y-19410717D01*
X13988233Y-19410718D01*
X14101075Y-19497305D01*
X14101083Y-19497311D01*
X14328117Y-19628390D01*
X14328128Y-19628395D01*
X14570344Y-19728724D01*
X14823579Y-19796577D01*
X14823590Y-19796579D01*
X15083505Y-19830799D01*
X15083520Y-19830800D01*
X15345680Y-19830800D01*
X15345694Y-19830799D01*
X15605609Y-19796579D01*
X15605620Y-19796577D01*
X15858855Y-19728724D01*
X16101071Y-19628395D01*
X16101082Y-19628390D01*
X16328116Y-19497311D01*
X16328134Y-19497299D01*
X16440965Y-19410719D01*
X16440965Y-19410717D01*
X15538625Y-18508378D01*
X15569858Y-18495441D01*
X15692697Y-18413363D01*
X15797163Y-18308897D01*
X15879241Y-18186058D01*
X15892177Y-18154825D01*
X16794517Y-19057165D01*
X16794519Y-19057165D01*
X16881099Y-18944334D01*
X16881111Y-18944316D01*
X17012190Y-18717282D01*
X17012195Y-18717271D01*
X17112524Y-18475055D01*
X17180377Y-18221820D01*
X17180379Y-18221809D01*
X17214599Y-17961894D01*
X17214600Y-17961880D01*
X17214600Y-17699719D01*
X17214599Y-17699705D01*
X17180379Y-17439790D01*
X17180377Y-17439779D01*
X17112524Y-17186544D01*
X17012195Y-16944328D01*
X17012190Y-16944318D01*
X16979175Y-16887134D01*
X18299500Y-16887134D01*
X18299500Y-19032865D01*
X18299501Y-19032884D01*
X18305908Y-19092481D01*
X18305910Y-19092488D01*
X18356202Y-19227328D01*
X18356203Y-19227330D01*
X18356204Y-19227331D01*
X18442453Y-19342547D01*
X18533521Y-19410719D01*
X18557669Y-19428796D01*
X18557671Y-19428797D01*
X18645696Y-19461628D01*
X18692516Y-19479091D01*
X18752126Y-19485500D01*
X18752135Y-19485500D01*
X20897865Y-19485500D01*
X20897874Y-19485500D01*
X20957484Y-19479091D01*
X21092331Y-19428796D01*
X21207547Y-19342547D01*
X21247707Y-19288899D01*
X21271449Y-19257184D01*
X21280566Y-19245003D01*
X21293796Y-19227331D01*
X21344091Y-19092484D01*
X21350500Y-19032874D01*
X21350500Y-17843659D01*
X22850000Y-17843659D01*
X22850000Y-18076340D01*
X22880369Y-18307024D01*
X22940592Y-18531779D01*
X23029632Y-18746740D01*
X23029636Y-18746750D01*
X23145970Y-18948248D01*
X23205551Y-19025894D01*
X23928287Y-18303158D01*
X23938204Y-18327100D01*
X24023018Y-18454034D01*
X24130966Y-18561982D01*
X24257900Y-18646796D01*
X24281839Y-18656712D01*
X23559104Y-19379446D01*
X23559104Y-19379447D01*
X23636752Y-19439029D01*
X23838249Y-19555363D01*
X23838259Y-19555367D01*
X24053220Y-19644407D01*
X24277975Y-19704630D01*
X24508659Y-19735000D01*
X24741341Y-19735000D01*
X24972024Y-19704630D01*
X25196779Y-19644407D01*
X25411740Y-19555367D01*
X25411750Y-19555363D01*
X25613255Y-19439024D01*
X25690894Y-19379447D01*
X25690894Y-19379446D01*
X24968159Y-18656712D01*
X24992100Y-18646796D01*
X25119034Y-18561982D01*
X25226982Y-18454034D01*
X25311796Y-18327100D01*
X25321712Y-18303159D01*
X26044446Y-19025894D01*
X26044447Y-19025894D01*
X26104024Y-18948255D01*
X26220363Y-18746750D01*
X26220367Y-18746740D01*
X26309407Y-18531779D01*
X26369630Y-18307024D01*
X26400000Y-18076340D01*
X26400000Y-17843659D01*
X26369630Y-17612975D01*
X26309407Y-17388220D01*
X26220367Y-17173259D01*
X26220363Y-17173249D01*
X26104029Y-16971752D01*
X26044447Y-16894104D01*
X26044446Y-16894104D01*
X25321711Y-17616839D01*
X25311796Y-17592900D01*
X25226982Y-17465966D01*
X25119034Y-17358018D01*
X24992100Y-17273204D01*
X24968158Y-17263286D01*
X25690894Y-16540551D01*
X25613248Y-16480970D01*
X25411750Y-16364636D01*
X25411740Y-16364632D01*
X25196779Y-16275592D01*
X24972024Y-16215369D01*
X24741341Y-16185000D01*
X24508659Y-16185000D01*
X24277975Y-16215369D01*
X24053220Y-16275592D01*
X23838259Y-16364632D01*
X23838249Y-16364636D01*
X23636747Y-16480973D01*
X23559104Y-16540550D01*
X23559104Y-16540551D01*
X24281840Y-17263287D01*
X24257900Y-17273204D01*
X24130966Y-17358018D01*
X24023018Y-17465966D01*
X23938204Y-17592900D01*
X23928287Y-17616840D01*
X23205551Y-16894104D01*
X23205550Y-16894104D01*
X23145973Y-16971747D01*
X23029636Y-17173249D01*
X23029632Y-17173259D01*
X22940592Y-17388220D01*
X22880369Y-17612975D01*
X22850000Y-17843659D01*
X21350500Y-17843659D01*
X21350500Y-16887126D01*
X21344091Y-16827516D01*
X21326628Y-16780696D01*
X21293797Y-16692671D01*
X21293796Y-16692669D01*
X21271447Y-16662814D01*
X21251450Y-16636101D01*
X21207547Y-16577453D01*
X21092331Y-16491204D01*
X21092330Y-16491203D01*
X21092328Y-16491202D01*
X20957488Y-16440910D01*
X20957481Y-16440908D01*
X20897884Y-16434501D01*
X20897882Y-16434500D01*
X20897874Y-16434500D01*
X18752126Y-16434500D01*
X18752118Y-16434500D01*
X18752115Y-16434501D01*
X18692518Y-16440908D01*
X18692511Y-16440910D01*
X18557671Y-16491202D01*
X18557669Y-16491203D01*
X18442453Y-16577453D01*
X18356203Y-16692669D01*
X18356202Y-16692671D01*
X18305910Y-16827511D01*
X18305908Y-16827518D01*
X18299501Y-16887115D01*
X18299500Y-16887134D01*
X16979175Y-16887134D01*
X16881111Y-16717283D01*
X16881105Y-16717275D01*
X16794518Y-16604433D01*
X16794517Y-16604433D01*
X15892177Y-17506773D01*
X15879241Y-17475542D01*
X15797163Y-17352703D01*
X15692697Y-17248237D01*
X15569858Y-17166159D01*
X15538623Y-17153221D01*
X16440965Y-16250880D01*
X16328124Y-16164294D01*
X16328116Y-16164288D01*
X16175001Y-16075887D01*
X16126785Y-16025320D01*
X16113563Y-15956713D01*
X16139531Y-15891848D01*
X16196445Y-15851320D01*
X16237001Y-15844500D01*
X18486542Y-15844500D01*
X18486544Y-15844500D01*
X18575688Y-15820614D01*
X18655612Y-15774470D01*
X19237188Y-15192893D01*
X19298509Y-15159410D01*
X19308684Y-15157637D01*
X19315796Y-15156700D01*
X19315801Y-15156700D01*
X19436736Y-15124295D01*
X19545164Y-15061695D01*
X19545170Y-15061688D01*
X19550857Y-15057326D01*
X19616025Y-15032130D01*
X19626346Y-15031700D01*
X22739942Y-15031700D01*
X22739944Y-15031700D01*
X22829088Y-15007814D01*
X22909012Y-14961670D01*
X22909016Y-14961665D01*
X22915457Y-14956724D01*
X22916235Y-14957738D01*
X22970298Y-14928212D01*
X22980484Y-14926437D01*
X22987596Y-14925500D01*
X22987601Y-14925500D01*
X23108536Y-14893095D01*
X23216964Y-14830495D01*
X23305495Y-14741964D01*
X23368095Y-14633536D01*
X23400500Y-14512601D01*
X23400500Y-14387399D01*
X23368095Y-14266464D01*
X23305495Y-14158036D01*
X23216964Y-14069505D01*
X23108536Y-14006905D01*
X23108537Y-14006905D01*
X23068224Y-13996103D01*
X22987601Y-13974500D01*
X22862399Y-13974500D01*
X22781775Y-13996103D01*
X22741463Y-14006905D01*
X22633037Y-14069504D01*
X22633034Y-14069506D01*
X22544506Y-14158034D01*
X22544504Y-14158037D01*
X22480615Y-14268699D01*
X22430048Y-14316915D01*
X22373227Y-14330700D01*
X19626346Y-14330700D01*
X19559307Y-14311015D01*
X19550857Y-14305074D01*
X19545165Y-14300706D01*
X19545164Y-14300705D01*
X19436736Y-14238105D01*
X19436737Y-14238105D01*
X19396424Y-14227303D01*
X19315801Y-14205700D01*
X19190599Y-14205700D01*
X19109975Y-14227303D01*
X19069663Y-14238105D01*
X18961237Y-14300704D01*
X18961234Y-14300706D01*
X18872706Y-14389234D01*
X18872704Y-14389237D01*
X18810105Y-14497663D01*
X18777698Y-14618606D01*
X18776761Y-14625724D01*
X18748491Y-14689619D01*
X18741504Y-14697213D01*
X18331537Y-15107181D01*
X18270214Y-15140666D01*
X18243856Y-15143500D01*
X2951054Y-15143500D01*
X2901791Y-15156700D01*
X2901790Y-15156699D01*
X2861916Y-15167384D01*
X2861909Y-15167387D01*
X2781991Y-15213527D01*
X2781986Y-15213531D01*
X1933713Y-16061804D01*
X1872390Y-16095289D01*
X1862224Y-16097061D01*
X1855106Y-16097998D01*
X1734163Y-16130405D01*
X1625737Y-16193004D01*
X1625734Y-16193006D01*
X1537206Y-16281534D01*
X1537204Y-16281537D01*
X1474605Y-16389963D01*
X1471112Y-16403000D01*
X1442200Y-16510899D01*
X-10088900Y-16510899D01*
X-10088900Y-15177399D01*
X794500Y-15177399D01*
X794500Y-15302601D01*
X826905Y-15423536D01*
X889505Y-15531964D01*
X978036Y-15620495D01*
X1086464Y-15683095D01*
X1207399Y-15715500D01*
X1207401Y-15715500D01*
X1332599Y-15715500D01*
X1332601Y-15715500D01*
X1453536Y-15683095D01*
X1561964Y-15620495D01*
X1650495Y-15531964D01*
X1713095Y-15423536D01*
X1745500Y-15302601D01*
X1745500Y-15302596D01*
X1746437Y-15295484D01*
X1774702Y-15231587D01*
X1781683Y-15223998D01*
X2090063Y-14915619D01*
X2151386Y-14882134D01*
X2177744Y-14879300D01*
X15184542Y-14879300D01*
X15184544Y-14879300D01*
X15273688Y-14855414D01*
X15353612Y-14809270D01*
X17196870Y-12966012D01*
X17243014Y-12886088D01*
X17266900Y-12796944D01*
X17266900Y-9878711D01*
X26649500Y-9878711D01*
X26649500Y-10121288D01*
X26681161Y-10361785D01*
X26743947Y-10596104D01*
X26824839Y-10791393D01*
X26836776Y-10820212D01*
X26958064Y-11030289D01*
X26958066Y-11030292D01*
X26958067Y-11030293D01*
X27105733Y-11222736D01*
X27105739Y-11222743D01*
X27277256Y-11394260D01*
X27277262Y-11394265D01*
X27469711Y-11541936D01*
X27679788Y-11663224D01*
X27903900Y-11756054D01*
X28138211Y-11818838D01*
X28318586Y-11842584D01*
X28378711Y-11850500D01*
X28378712Y-11850500D01*
X28621289Y-11850500D01*
X28669388Y-11844167D01*
X28861789Y-11818838D01*
X29096100Y-11756054D01*
X29320212Y-11663224D01*
X29530289Y-11541936D01*
X29722738Y-11394265D01*
X29894265Y-11222738D01*
X30041936Y-11030289D01*
X30163224Y-10820212D01*
X30256054Y-10596100D01*
X30318838Y-10361789D01*
X30350500Y-10121288D01*
X30350500Y-9878712D01*
X30318838Y-9638211D01*
X30256054Y-9403900D01*
X30163224Y-9179788D01*
X30041936Y-8969711D01*
X29931279Y-8825500D01*
X29894266Y-8777263D01*
X29894260Y-8777256D01*
X29722743Y-8605739D01*
X29722736Y-8605733D01*
X29530293Y-8458067D01*
X29530292Y-8458066D01*
X29530289Y-8458064D01*
X29358661Y-8358974D01*
X29320214Y-8336777D01*
X29320205Y-8336773D01*
X29096104Y-8243947D01*
X28861785Y-8181161D01*
X28621289Y-8149500D01*
X28621288Y-8149500D01*
X28378712Y-8149500D01*
X28378711Y-8149500D01*
X28138214Y-8181161D01*
X27903895Y-8243947D01*
X27679794Y-8336773D01*
X27679785Y-8336777D01*
X27469706Y-8458067D01*
X27277263Y-8605733D01*
X27277256Y-8605739D01*
X27105739Y-8777256D01*
X27105733Y-8777263D01*
X26958067Y-8969706D01*
X26836777Y-9179785D01*
X26836773Y-9179794D01*
X26743947Y-9403895D01*
X26681161Y-9638214D01*
X26649500Y-9878711D01*
X17266900Y-9878711D01*
X17266900Y1072866D01*
X18159500Y1072866D01*
X18159500Y-1072865D01*
X18159501Y-1072884D01*
X18165908Y-1132481D01*
X18165910Y-1132488D01*
X18216202Y-1267328D01*
X18216203Y-1267330D01*
X18216204Y-1267331D01*
X18302453Y-1382547D01*
X18417669Y-1468796D01*
X18417671Y-1468797D01*
X18468988Y-1487937D01*
X18552516Y-1519091D01*
X18612126Y-1525500D01*
X19037111Y-1525500D01*
X19104150Y-1545185D01*
X19124792Y-1561819D01*
X23507490Y-5944517D01*
X23698566Y-6083343D01*
X23909008Y-6190568D01*
X24133631Y-6263553D01*
X24221109Y-6277408D01*
X24366903Y-6300500D01*
X24366908Y-6300500D01*
X24603092Y-6300500D01*
X28640299Y-6300500D01*
X28683631Y-6308317D01*
X28712516Y-6319091D01*
X28772126Y-6325500D01*
X28772135Y-6325500D01*
X30917865Y-6325500D01*
X30917874Y-6325500D01*
X30977484Y-6319091D01*
X31112331Y-6268796D01*
X31227547Y-6182547D01*
X31313796Y-6067331D01*
X31364091Y-5932484D01*
X31370500Y-5872874D01*
X31370500Y-3727126D01*
X31364091Y-3667516D01*
X31321836Y-3554225D01*
X31313797Y-3532671D01*
X31313796Y-3532669D01*
X31290402Y-3501418D01*
X31227547Y-3417453D01*
X31112331Y-3331204D01*
X31112330Y-3331203D01*
X31112328Y-3331202D01*
X30977488Y-3280910D01*
X30977481Y-3280908D01*
X30917884Y-3274501D01*
X30917882Y-3274500D01*
X30917874Y-3274500D01*
X28772126Y-3274500D01*
X28772118Y-3274500D01*
X28772115Y-3274501D01*
X28712517Y-3280908D01*
X28693546Y-3287984D01*
X28683631Y-3291682D01*
X28640299Y-3299500D01*
X25157889Y-3299500D01*
X25090850Y-3279815D01*
X25070208Y-3263181D01*
X23633989Y-1826962D01*
X23600504Y-1765639D01*
X23605488Y-1695947D01*
X23647360Y-1640014D01*
X23712824Y-1615597D01*
X23769123Y-1624720D01*
X23913220Y-1684407D01*
X24137975Y-1744630D01*
X24368659Y-1775000D01*
X24601341Y-1775000D01*
X24832024Y-1744630D01*
X25056779Y-1684407D01*
X25271740Y-1595367D01*
X25271750Y-1595363D01*
X25473255Y-1479024D01*
X25550894Y-1419447D01*
X25550894Y-1419446D01*
X24828159Y-696712D01*
X24852100Y-686796D01*
X24979034Y-601982D01*
X25086982Y-494034D01*
X25171796Y-367100D01*
X25181712Y-343159D01*
X25904446Y-1065894D01*
X25904447Y-1065894D01*
X25964024Y-988255D01*
X26080363Y-786750D01*
X26080367Y-786740D01*
X26169407Y-571779D01*
X26229630Y-347024D01*
X26260000Y-116340D01*
X26260000Y116334D01*
X26259999Y116348D01*
X26259510Y120059D01*
X28319500Y120059D01*
X28319500Y-120058D01*
X28357063Y-357222D01*
X28431265Y-585593D01*
X28512599Y-745217D01*
X28540276Y-799536D01*
X28681414Y-993796D01*
X28851204Y-1163586D01*
X29045464Y-1304724D01*
X29146543Y-1356226D01*
X29259406Y-1413734D01*
X29259408Y-1413734D01*
X29259411Y-1413736D01*
X29487778Y-1487937D01*
X29724941Y-1525500D01*
X29724942Y-1525500D01*
X29965058Y-1525500D01*
X29965059Y-1525500D01*
X30202222Y-1487937D01*
X30430589Y-1413736D01*
X30644536Y-1304724D01*
X30838796Y-1163586D01*
X31008586Y-993796D01*
X31149724Y-799536D01*
X31258736Y-585589D01*
X31332937Y-357222D01*
X31370500Y-120059D01*
X31370500Y120059D01*
X31332937Y357222D01*
X31258736Y585589D01*
X31258734Y585592D01*
X31258734Y585594D01*
X31177401Y745217D01*
X31149724Y799536D01*
X31008586Y993796D01*
X30838796Y1163586D01*
X30644536Y1304724D01*
X30430593Y1413735D01*
X30202222Y1487937D01*
X29965059Y1525500D01*
X29724941Y1525500D01*
X29606359Y1506719D01*
X29487777Y1487937D01*
X29259406Y1413735D01*
X29045463Y1304724D01*
X28851201Y1163584D01*
X28681416Y993799D01*
X28540276Y799537D01*
X28431265Y585594D01*
X28357063Y357223D01*
X28319500Y120059D01*
X26259510Y120059D01*
X26229630Y347025D01*
X26169407Y571780D01*
X26080367Y786741D01*
X26080363Y786751D01*
X25964029Y988248D01*
X25904447Y1065896D01*
X25904446Y1065896D01*
X25181711Y343161D01*
X25171796Y367100D01*
X25086982Y494034D01*
X24979034Y601982D01*
X24852100Y686796D01*
X24828158Y696714D01*
X25550894Y1419449D01*
X25473248Y1479030D01*
X25271750Y1595364D01*
X25271740Y1595368D01*
X25056779Y1684408D01*
X24832024Y1744631D01*
X24601341Y1775000D01*
X24368659Y1775000D01*
X24137975Y1744631D01*
X23913220Y1684408D01*
X23698259Y1595368D01*
X23698249Y1595364D01*
X23496747Y1479027D01*
X23419104Y1419450D01*
X23419104Y1419449D01*
X24141840Y696713D01*
X24117900Y686796D01*
X23990966Y601982D01*
X23883018Y494034D01*
X23798204Y367100D01*
X23788287Y343160D01*
X23065551Y1065896D01*
X23065550Y1065896D01*
X23005973Y988253D01*
X22889636Y786751D01*
X22889632Y786741D01*
X22800592Y571780D01*
X22740369Y347025D01*
X22710000Y116341D01*
X22710000Y-116340D01*
X22740369Y-347024D01*
X22800592Y-571779D01*
X22860279Y-715876D01*
X22867748Y-785346D01*
X22836473Y-847825D01*
X22776384Y-883477D01*
X22706559Y-880983D01*
X22658037Y-851010D01*
X21246819Y560208D01*
X21213334Y621531D01*
X21210500Y647889D01*
X21210500Y1072866D01*
X21210500Y1072874D01*
X21204091Y1132484D01*
X21153796Y1267331D01*
X21067547Y1382547D01*
X20952331Y1468796D01*
X20952330Y1468797D01*
X20952328Y1468798D01*
X20817488Y1519090D01*
X20817481Y1519092D01*
X20757884Y1525499D01*
X20757882Y1525500D01*
X20757874Y1525500D01*
X18612126Y1525500D01*
X18612118Y1525500D01*
X18612115Y1525499D01*
X18552518Y1519092D01*
X18552511Y1519090D01*
X18417671Y1468798D01*
X18417669Y1468797D01*
X18302453Y1382547D01*
X18216203Y1267331D01*
X18216202Y1267329D01*
X18165910Y1132489D01*
X18165908Y1132482D01*
X18159501Y1072885D01*
X18159500Y1072866D01*
X17266900Y1072866D01*
X17266900Y1581456D01*
X17286585Y1648495D01*
X17303219Y1669137D01*
X17736463Y2102381D01*
X17797786Y2135866D01*
X17824144Y2138700D01*
X19794454Y2138700D01*
X19861493Y2119015D01*
X19869943Y2113074D01*
X19875632Y2108709D01*
X19875636Y2108705D01*
X19984064Y2046105D01*
X20104999Y2013700D01*
X20105001Y2013700D01*
X20230199Y2013700D01*
X20230201Y2013700D01*
X20351136Y2046105D01*
X20459564Y2108705D01*
X20464040Y2113181D01*
X20525363Y2146666D01*
X20551721Y2149500D01*
X22251854Y2149500D01*
X22318893Y2129815D01*
X22327343Y2123874D01*
X22333032Y2119509D01*
X22333036Y2119505D01*
X22441464Y2056905D01*
X22562399Y2024500D01*
X22562401Y2024500D01*
X22687599Y2024500D01*
X22687601Y2024500D01*
X22808536Y2056905D01*
X22916964Y2119505D01*
X23005495Y2208036D01*
X23068095Y2316464D01*
X23100500Y2437399D01*
X23100500Y2562601D01*
X23068095Y2683536D01*
X23005495Y2791964D01*
X22916964Y2880495D01*
X22808536Y2943095D01*
X22808537Y2943095D01*
X22768224Y2953897D01*
X22687601Y2975500D01*
X22562399Y2975500D01*
X22481775Y2953897D01*
X22441463Y2943095D01*
X22333037Y2880496D01*
X22327343Y2876126D01*
X22262175Y2850930D01*
X22251854Y2850500D01*
X20526037Y2850500D01*
X20464038Y2867112D01*
X20351136Y2932295D01*
X20351137Y2932295D01*
X20310824Y2943097D01*
X20230201Y2964700D01*
X20104999Y2964700D01*
X20024375Y2943097D01*
X19984063Y2932295D01*
X19875637Y2869696D01*
X19869943Y2865326D01*
X19804775Y2840130D01*
X19794454Y2839700D01*
X17581456Y2839700D01*
X17492312Y2815814D01*
X17492309Y2815813D01*
X17412391Y2769673D01*
X17412386Y2769669D01*
X16635931Y1993214D01*
X16635927Y1993209D01*
X16590119Y1913865D01*
X16590116Y1913860D01*
X16589788Y1913293D01*
X16589783Y1913282D01*
X16565900Y1824144D01*
X16565900Y-6266706D01*
X16546215Y-6333745D01*
X16493411Y-6379500D01*
X16424253Y-6389444D01*
X16360697Y-6360419D01*
X16334512Y-6328705D01*
X16332662Y-6325500D01*
X16280895Y-6235836D01*
X16192364Y-6147305D01*
X16083936Y-6084705D01*
X16083937Y-6084705D01*
X16019096Y-6067331D01*
X15963001Y-6052300D01*
X15837799Y-6052300D01*
X15781704Y-6067331D01*
X15716863Y-6084705D01*
X15608437Y-6147304D01*
X15608434Y-6147306D01*
X15519906Y-6235834D01*
X15519904Y-6235837D01*
X15457305Y-6344263D01*
X15452976Y-6360419D01*
X15424900Y-6465199D01*
X15424900Y-6590401D01*
X15457305Y-6711336D01*
X15519905Y-6819764D01*
X15608436Y-6908295D01*
X15716864Y-6970895D01*
X15837799Y-7003300D01*
X15837801Y-7003300D01*
X15962999Y-7003300D01*
X15963001Y-7003300D01*
X16083936Y-6970895D01*
X16192364Y-6908295D01*
X16280895Y-6819764D01*
X16334513Y-6726892D01*
X16385079Y-6678678D01*
X16453686Y-6665454D01*
X16518551Y-6691422D01*
X16559080Y-6748335D01*
X16565900Y-6788893D01*
X16565900Y-12554256D01*
X16546215Y-12621295D01*
X16529581Y-12641937D01*
X15029537Y-14141981D01*
X14968214Y-14175466D01*
X14941856Y-14178300D01*
X1935056Y-14178300D01*
X1845912Y-14202186D01*
X1845909Y-14202187D01*
X1765991Y-14248327D01*
X1765986Y-14248331D01*
X1286013Y-14728304D01*
X1224690Y-14761789D01*
X1214524Y-14763561D01*
X1207406Y-14764498D01*
X1086463Y-14796905D01*
X978037Y-14859504D01*
X978034Y-14859506D01*
X889506Y-14948034D01*
X889504Y-14948037D01*
X826905Y-15056463D01*
X826905Y-15056464D01*
X794500Y-15177399D01*
X-10088900Y-15177399D01*
X-10088900Y-12476058D01*
X-10088900Y-12476056D01*
X-10112075Y-12389564D01*
X-10116300Y-12357471D01*
X-10116300Y-12307200D01*
X-10121861Y-12286445D01*
X-10148705Y-12186264D01*
X-10211305Y-12077836D01*
X-10299836Y-11989305D01*
X-10408264Y-11926705D01*
X-10408263Y-11926705D01*
X-10468732Y-11910502D01*
X-10529199Y-11894300D01*
X-10654401Y-11894300D01*
X-10735025Y-11915903D01*
X-10775337Y-11926705D01*
X-10883763Y-11989304D01*
X-10883766Y-11989306D01*
X-10972294Y-12077834D01*
X-10972296Y-12077837D01*
X-11034895Y-12186263D01*
X-11034895Y-12186264D01*
X-11067300Y-12307199D01*
X-12857500Y-12307199D01*
X-12857500Y-11777389D01*
X8025500Y-11777389D01*
X8025500Y-11950610D01*
X8045650Y-12077837D01*
X8052598Y-12121701D01*
X8106127Y-12286445D01*
X8184768Y-12440788D01*
X8286586Y-12580928D01*
X8409072Y-12703414D01*
X8549212Y-12805232D01*
X8703555Y-12883873D01*
X8868299Y-12937402D01*
X9039389Y-12964500D01*
X9039390Y-12964500D01*
X9212610Y-12964500D01*
X9212611Y-12964500D01*
X9383701Y-12937402D01*
X9548445Y-12883873D01*
X9702788Y-12805232D01*
X9842928Y-12703414D01*
X9965414Y-12580928D01*
X10067232Y-12440788D01*
X10145873Y-12286445D01*
X10199402Y-12121701D01*
X10226500Y-11950611D01*
X10226500Y-11777389D01*
X10565500Y-11777389D01*
X10565500Y-11950610D01*
X10585650Y-12077837D01*
X10592598Y-12121701D01*
X10646127Y-12286445D01*
X10724768Y-12440788D01*
X10826586Y-12580928D01*
X10949072Y-12703414D01*
X11089212Y-12805232D01*
X11243555Y-12883873D01*
X11408299Y-12937402D01*
X11579389Y-12964500D01*
X11579390Y-12964500D01*
X11752610Y-12964500D01*
X11752611Y-12964500D01*
X11923701Y-12937402D01*
X12088445Y-12883873D01*
X12242788Y-12805232D01*
X12382928Y-12703414D01*
X12505414Y-12580928D01*
X12607232Y-12440788D01*
X12685873Y-12286445D01*
X12739402Y-12121701D01*
X12766500Y-11950611D01*
X12766500Y-11777389D01*
X12739402Y-11606299D01*
X12685873Y-11441555D01*
X12607232Y-11287212D01*
X12536772Y-11190232D01*
X13130500Y-11190232D01*
X13130500Y-12537767D01*
X13133393Y-12568619D01*
X13133393Y-12568623D01*
X13178868Y-12698585D01*
X13260630Y-12809369D01*
X13279906Y-12823595D01*
X13371414Y-12891131D01*
X13501376Y-12936606D01*
X13509864Y-12937402D01*
X13532232Y-12939500D01*
X13532236Y-12939500D01*
X14879768Y-12939500D01*
X14893479Y-12938213D01*
X14910624Y-12936606D01*
X15040586Y-12891131D01*
X15151369Y-12809369D01*
X15233131Y-12698586D01*
X15278606Y-12568624D01*
X15281500Y-12537764D01*
X15281500Y-11190236D01*
X15278606Y-11159376D01*
X15233131Y-11029414D01*
X15195581Y-10978536D01*
X15151369Y-10918630D01*
X15040585Y-10836868D01*
X14910621Y-10791393D01*
X14879768Y-10788500D01*
X14879764Y-10788500D01*
X13532236Y-10788500D01*
X13532232Y-10788500D01*
X13501380Y-10791393D01*
X13501376Y-10791393D01*
X13371414Y-10836868D01*
X13260630Y-10918630D01*
X13178868Y-11029414D01*
X13133393Y-11159376D01*
X13133393Y-11159380D01*
X13130500Y-11190232D01*
X12536772Y-11190232D01*
X12505414Y-11147072D01*
X12382928Y-11024586D01*
X12242788Y-10922768D01*
X12088445Y-10844127D01*
X11923701Y-10790598D01*
X11923699Y-10790597D01*
X11923698Y-10790597D01*
X11792271Y-10769781D01*
X11752611Y-10763500D01*
X11579389Y-10763500D01*
X11539728Y-10769781D01*
X11408302Y-10790597D01*
X11243552Y-10844128D01*
X11089211Y-10922768D01*
X11012454Y-10978536D01*
X10949072Y-11024586D01*
X10949070Y-11024588D01*
X10949069Y-11024588D01*
X10826588Y-11147069D01*
X10826588Y-11147070D01*
X10826586Y-11147072D01*
X10782859Y-11207256D01*
X10724768Y-11287211D01*
X10646128Y-11441552D01*
X10592597Y-11606302D01*
X10565500Y-11777389D01*
X10226500Y-11777389D01*
X10199402Y-11606299D01*
X10145873Y-11441555D01*
X10067232Y-11287212D01*
X9965414Y-11147072D01*
X9842928Y-11024586D01*
X9702788Y-10922768D01*
X9548445Y-10844127D01*
X9383701Y-10790598D01*
X9383699Y-10790597D01*
X9383698Y-10790597D01*
X9252271Y-10769781D01*
X9212611Y-10763500D01*
X9039389Y-10763500D01*
X8999728Y-10769781D01*
X8868302Y-10790597D01*
X8703552Y-10844128D01*
X8549211Y-10922768D01*
X8472454Y-10978536D01*
X8409072Y-11024586D01*
X8409070Y-11024588D01*
X8409069Y-11024588D01*
X8286588Y-11147069D01*
X8286588Y-11147070D01*
X8286586Y-11147072D01*
X8242859Y-11207256D01*
X8184768Y-11287211D01*
X8106128Y-11441552D01*
X8052597Y-11606302D01*
X8025500Y-11777389D01*
X-12857500Y-11777389D01*
X-12857500Y-11383858D01*
X-12857500Y-11383856D01*
X-12881386Y-11294712D01*
X-12895365Y-11270500D01*
X-12927530Y-11214788D01*
X-13331305Y-10811013D01*
X-13364790Y-10749690D01*
X-13366563Y-10739517D01*
X-13367500Y-10732401D01*
X-13367500Y-10732400D01*
X-13367500Y-10732399D01*
X-13399905Y-10611464D01*
X-13462505Y-10503036D01*
X-13551036Y-10414505D01*
X-13659464Y-10351905D01*
X-13659463Y-10351905D01*
X-13699776Y-10341103D01*
X-13780399Y-10319500D01*
X-13905601Y-10319500D01*
X-13986225Y-10341103D01*
X-14026537Y-10351905D01*
X-14134963Y-10414504D01*
X-14134966Y-10414506D01*
X-14223494Y-10503034D01*
X-14223496Y-10503037D01*
X-14286095Y-10611463D01*
X-14286095Y-10611464D01*
X-14318500Y-10732399D01*
X-25584673Y-10732399D01*
X-25585045Y-8287399D01*
X-5950500Y-8287399D01*
X-5950500Y-8412601D01*
X-5918095Y-8533536D01*
X-5855495Y-8641964D01*
X-5766964Y-8730495D01*
X-5658536Y-8793095D01*
X-5537601Y-8825500D01*
X-5537599Y-8825500D01*
X-5412401Y-8825500D01*
X-5412399Y-8825500D01*
X-5291464Y-8793095D01*
X-5183036Y-8730495D01*
X-5183030Y-8730488D01*
X-5177343Y-8726126D01*
X-5112175Y-8700930D01*
X-5101854Y-8700500D01*
X-4705625Y-8700500D01*
X-4638586Y-8720185D01*
X-4592831Y-8772989D01*
X-4582887Y-8842147D01*
X-4591064Y-8871952D01*
X-4617979Y-8936929D01*
X-4617982Y-8936939D01*
X-4644900Y-9072266D01*
X-4644900Y-9072269D01*
X-4644900Y-9210255D01*
X-4644900Y-9210257D01*
X-4644901Y-9210257D01*
X-4617982Y-9345584D01*
X-4617979Y-9345594D01*
X-4565179Y-9473066D01*
X-4565172Y-9473079D01*
X-4488515Y-9587803D01*
X-4488512Y-9587807D01*
X-4390946Y-9685373D01*
X-4390942Y-9685376D01*
X-4276218Y-9762033D01*
X-4276205Y-9762040D01*
X-4148733Y-9814840D01*
X-4148728Y-9814842D01*
X-4148724Y-9814842D01*
X-4148723Y-9814843D01*
X-4013396Y-9841762D01*
X-4013393Y-9841762D01*
X-3875405Y-9841762D01*
X-3784359Y-9823651D01*
X-3740072Y-9814842D01*
X-3612589Y-9762037D01*
X-3497858Y-9685376D01*
X-3400286Y-9587804D01*
X-3323625Y-9473073D01*
X-3270820Y-9345590D01*
X-3243900Y-9210255D01*
X-3243900Y-9072269D01*
X-3243900Y-9072266D01*
X-3270819Y-8936939D01*
X-3270820Y-8936938D01*
X-3270820Y-8936934D01*
X-3282399Y-8908979D01*
X-3297736Y-8871952D01*
X-3305205Y-8802483D01*
X-3273930Y-8740004D01*
X-3213841Y-8704352D01*
X-3183175Y-8700500D01*
X-2231899Y-8700500D01*
X-2164860Y-8720185D01*
X-2144218Y-8736819D01*
X-650475Y-10230562D01*
X-580562Y-10300475D01*
X-494938Y-10349910D01*
X-494934Y-10349911D01*
X-450607Y-10361789D01*
X-450606Y-10361789D01*
X-436895Y-10365462D01*
X-399436Y-10375500D01*
X-399435Y-10375500D01*
X13569835Y-10375500D01*
X13569836Y-10375500D01*
X13610192Y-10364686D01*
X13621006Y-10361789D01*
X13640550Y-10356551D01*
X13665338Y-10349910D01*
X13750962Y-10300475D01*
X13820875Y-10230562D01*
X15142459Y-8908977D01*
X15198041Y-8876886D01*
X15296536Y-8850495D01*
X15404964Y-8787895D01*
X15493495Y-8699364D01*
X15556095Y-8590936D01*
X15588500Y-8470001D01*
X15588500Y-8344799D01*
X15556095Y-8223864D01*
X15493495Y-8115436D01*
X15404964Y-8026905D01*
X15296536Y-7964305D01*
X15296537Y-7964305D01*
X15256224Y-7953503D01*
X15175601Y-7931900D01*
X15050399Y-7931900D01*
X14969775Y-7953503D01*
X14929463Y-7964305D01*
X14821037Y-8026904D01*
X14821034Y-8026906D01*
X14732506Y-8115434D01*
X14732504Y-8115437D01*
X14669906Y-8223862D01*
X14669905Y-8223864D01*
X14643514Y-8322356D01*
X14611420Y-8377942D01*
X13401182Y-9588181D01*
X13339859Y-9621666D01*
X13313501Y-9624500D01*
X-143101Y-9624500D01*
X-210140Y-9604815D01*
X-230782Y-9588181D01*
X-1769436Y-8049527D01*
X-1769441Y-8049523D01*
X-1807453Y-8027577D01*
X5075975Y-8027577D01*
X5181236Y-8071178D01*
X5181240Y-8071179D01*
X5326126Y-8099999D01*
X5326129Y-8100000D01*
X5473871Y-8100000D01*
X5473873Y-8099999D01*
X5618760Y-8071179D01*
X5618775Y-8071175D01*
X5724024Y-8027578D01*
X5724024Y-8027577D01*
X6975975Y-8027577D01*
X7081236Y-8071178D01*
X7081240Y-8071179D01*
X7226126Y-8099999D01*
X7226129Y-8100000D01*
X7373871Y-8100000D01*
X7373873Y-8099999D01*
X7518760Y-8071179D01*
X7518775Y-8071175D01*
X7624024Y-8027578D01*
X7624024Y-8027577D01*
X7300001Y-7703554D01*
X7300000Y-7703554D01*
X6975975Y-8027577D01*
X5724024Y-8027577D01*
X5400001Y-7703554D01*
X5400000Y-7703554D01*
X5075975Y-8027577D01*
X-1807453Y-8027577D01*
X-1855061Y-8000091D01*
X-1855062Y-8000090D01*
X-1886897Y-7991560D01*
X-1950564Y-7974500D01*
X-2049436Y-7974500D01*
X-2126967Y-7995275D01*
X-2159061Y-7999500D01*
X-5101854Y-7999500D01*
X-5168893Y-7979815D01*
X-5177343Y-7973874D01*
X-5183035Y-7969506D01*
X-5183036Y-7969505D01*
X-5291464Y-7906905D01*
X-5291463Y-7906905D01*
X-5331776Y-7896103D01*
X-5412399Y-7874500D01*
X-5537601Y-7874500D01*
X-5618225Y-7896103D01*
X-5658537Y-7906905D01*
X-5766963Y-7969504D01*
X-5766966Y-7969506D01*
X-5855494Y-8058034D01*
X-5855496Y-8058037D01*
X-5918095Y-8166463D01*
X-5933475Y-8223862D01*
X-5950500Y-8287399D01*
X-25585045Y-8287399D01*
X-25585213Y-7180995D01*
X-23433501Y-7180995D01*
X-23406582Y-7316322D01*
X-23406579Y-7316332D01*
X-23353779Y-7443804D01*
X-23353772Y-7443817D01*
X-23277115Y-7558541D01*
X-23277112Y-7558545D01*
X-23179546Y-7656111D01*
X-23179542Y-7656114D01*
X-23064818Y-7732771D01*
X-23064805Y-7732778D01*
X-22937333Y-7785578D01*
X-22937328Y-7785580D01*
X-22937324Y-7785580D01*
X-22937323Y-7785581D01*
X-22801996Y-7812500D01*
X-22801993Y-7812500D01*
X-22664005Y-7812500D01*
X-22572959Y-7794389D01*
X-22528672Y-7785580D01*
X-22401189Y-7732775D01*
X-22286458Y-7656114D01*
X-22188886Y-7558542D01*
X-22112225Y-7443811D01*
X-22059420Y-7316328D01*
X-22046226Y-7250000D01*
X-22032500Y-7180995D01*
X-22032500Y-7074799D01*
X-14166100Y-7074799D01*
X-14166100Y-7200001D01*
X-14133695Y-7320936D01*
X-14071095Y-7429364D01*
X-13982564Y-7517895D01*
X-13874136Y-7580495D01*
X-13753201Y-7612900D01*
X-13753199Y-7612900D01*
X-13628001Y-7612900D01*
X-13627999Y-7612900D01*
X-13507064Y-7580495D01*
X-13398636Y-7517895D01*
X-13398630Y-7517888D01*
X-13392943Y-7513526D01*
X-13327775Y-7488330D01*
X-13317454Y-7487900D01*
X-11955546Y-7487900D01*
X-11888507Y-7507585D01*
X-11880057Y-7513526D01*
X-11874368Y-7517891D01*
X-11874364Y-7517895D01*
X-11765936Y-7580495D01*
X-11645001Y-7612900D01*
X-11644999Y-7612900D01*
X-11519801Y-7612900D01*
X-11519799Y-7612900D01*
X-11398864Y-7580495D01*
X-11290436Y-7517895D01*
X-11201905Y-7429364D01*
X-11139305Y-7320936D01*
X-11127298Y-7276126D01*
X4650000Y-7276126D01*
X4650000Y-7423873D01*
X4678820Y-7568759D01*
X4678822Y-7568767D01*
X4722421Y-7674024D01*
X5046446Y-7350000D01*
X5046446Y-7349999D01*
X5026556Y-7330109D01*
X5300000Y-7330109D01*
X5300000Y-7369891D01*
X5315224Y-7406645D01*
X5343355Y-7434776D01*
X5380109Y-7450000D01*
X5419891Y-7450000D01*
X5456645Y-7434776D01*
X5484776Y-7406645D01*
X5500000Y-7369891D01*
X5500000Y-7349999D01*
X5753554Y-7349999D01*
X5753554Y-7350001D01*
X6077577Y-7674024D01*
X6077578Y-7674024D01*
X6121175Y-7568775D01*
X6121179Y-7568760D01*
X6149999Y-7423873D01*
X6150000Y-7423871D01*
X6150000Y-7276128D01*
X6149999Y-7276126D01*
X6550000Y-7276126D01*
X6550000Y-7423873D01*
X6578820Y-7568759D01*
X6578822Y-7568767D01*
X6622421Y-7674024D01*
X6946446Y-7350000D01*
X6946446Y-7349999D01*
X6926556Y-7330109D01*
X7200000Y-7330109D01*
X7200000Y-7369891D01*
X7215224Y-7406645D01*
X7243355Y-7434776D01*
X7280109Y-7450000D01*
X7319891Y-7450000D01*
X7356645Y-7434776D01*
X7384776Y-7406645D01*
X7400000Y-7369891D01*
X7400000Y-7349999D01*
X7653554Y-7349999D01*
X7653554Y-7350001D01*
X7977577Y-7674024D01*
X7977578Y-7674024D01*
X8021175Y-7568775D01*
X8021179Y-7568760D01*
X8049999Y-7423873D01*
X8050000Y-7423871D01*
X8050000Y-7276128D01*
X8049999Y-7276126D01*
X8021179Y-7131240D01*
X8021178Y-7131236D01*
X7977577Y-7025975D01*
X7653554Y-7349999D01*
X7400000Y-7349999D01*
X7400000Y-7330109D01*
X7384776Y-7293355D01*
X7356645Y-7265224D01*
X7319891Y-7250000D01*
X7280109Y-7250000D01*
X7243355Y-7265224D01*
X7215224Y-7293355D01*
X7200000Y-7330109D01*
X6926556Y-7330109D01*
X6622421Y-7025974D01*
X6622420Y-7025974D01*
X6578823Y-7131228D01*
X6578820Y-7131240D01*
X6550000Y-7276126D01*
X6149999Y-7276126D01*
X6121179Y-7131240D01*
X6121178Y-7131236D01*
X6077577Y-7025975D01*
X5753554Y-7349999D01*
X5500000Y-7349999D01*
X5500000Y-7330109D01*
X5484776Y-7293355D01*
X5456645Y-7265224D01*
X5419891Y-7250000D01*
X5380109Y-7250000D01*
X5343355Y-7265224D01*
X5315224Y-7293355D01*
X5300000Y-7330109D01*
X5026556Y-7330109D01*
X4722421Y-7025974D01*
X4722420Y-7025974D01*
X4678823Y-7131228D01*
X4678820Y-7131240D01*
X4650000Y-7276126D01*
X-11127298Y-7276126D01*
X-11106900Y-7200001D01*
X-11106900Y-7074799D01*
X-11139305Y-6953864D01*
X-11201905Y-6845436D01*
X-11290436Y-6756905D01*
X-11290437Y-6756904D01*
X-11315302Y-6742549D01*
X-11398864Y-6694305D01*
X-11398863Y-6694305D01*
X-11457184Y-6678678D01*
X-11470910Y-6675000D01*
X5078554Y-6675000D01*
X5400000Y-6996446D01*
X5721446Y-6675000D01*
X6978554Y-6675000D01*
X7300000Y-6996446D01*
X7621446Y-6675000D01*
X7300000Y-6353554D01*
X6978554Y-6675000D01*
X5721446Y-6675000D01*
X5400000Y-6353554D01*
X5078554Y-6675000D01*
X-11470910Y-6675000D01*
X-11519799Y-6661900D01*
X-11645001Y-6661900D01*
X-11707616Y-6678678D01*
X-11765937Y-6694305D01*
X-11874363Y-6756904D01*
X-11880057Y-6761274D01*
X-11945225Y-6786470D01*
X-11955546Y-6786900D01*
X-13317454Y-6786900D01*
X-13384493Y-6767215D01*
X-13392943Y-6761274D01*
X-13398635Y-6756906D01*
X-13398636Y-6756905D01*
X-13507064Y-6694305D01*
X-13507063Y-6694305D01*
X-13565384Y-6678678D01*
X-13627999Y-6661900D01*
X-13753201Y-6661900D01*
X-13815816Y-6678678D01*
X-13874137Y-6694305D01*
X-13982563Y-6756904D01*
X-13982566Y-6756906D01*
X-14071094Y-6845434D01*
X-14071096Y-6845437D01*
X-14133695Y-6953863D01*
X-14133695Y-6953864D01*
X-14166100Y-7074799D01*
X-22032500Y-7074799D01*
X-22032500Y-7043004D01*
X-22059419Y-6907677D01*
X-22059420Y-6907676D01*
X-22059420Y-6907672D01*
X-22085199Y-6845436D01*
X-22112222Y-6780195D01*
X-22112229Y-6780182D01*
X-22188886Y-6665458D01*
X-22188889Y-6665454D01*
X-22286455Y-6567888D01*
X-22286459Y-6567885D01*
X-22401183Y-6491228D01*
X-22401196Y-6491221D01*
X-22528668Y-6438421D01*
X-22528678Y-6438418D01*
X-22664005Y-6411500D01*
X-22664007Y-6411500D01*
X-22801993Y-6411500D01*
X-22801995Y-6411500D01*
X-22937323Y-6438418D01*
X-22937333Y-6438421D01*
X-23064805Y-6491221D01*
X-23064818Y-6491228D01*
X-23179542Y-6567885D01*
X-23179546Y-6567888D01*
X-23277112Y-6665454D01*
X-23277115Y-6665458D01*
X-23353772Y-6780182D01*
X-23353779Y-6780195D01*
X-23406579Y-6907667D01*
X-23406582Y-6907677D01*
X-23433500Y-7043004D01*
X-23433500Y-7043007D01*
X-23433500Y-7180993D01*
X-23433500Y-7180995D01*
X-23433501Y-7180995D01*
X-25585213Y-7180995D01*
X-25585404Y-5926126D01*
X4650000Y-5926126D01*
X4650000Y-6073873D01*
X4678820Y-6218759D01*
X4678822Y-6218767D01*
X4722421Y-6324024D01*
X5046446Y-6000000D01*
X5046446Y-5999999D01*
X5026556Y-5980109D01*
X5300000Y-5980109D01*
X5300000Y-6019891D01*
X5315224Y-6056645D01*
X5343355Y-6084776D01*
X5380109Y-6100000D01*
X5419891Y-6100000D01*
X5456645Y-6084776D01*
X5484776Y-6056645D01*
X5500000Y-6019891D01*
X5500000Y-5999999D01*
X5753554Y-5999999D01*
X5753554Y-6000001D01*
X6077577Y-6324024D01*
X6077578Y-6324024D01*
X6121175Y-6218775D01*
X6121179Y-6218760D01*
X6149999Y-6073873D01*
X6150000Y-6073871D01*
X6150000Y-5926128D01*
X6149999Y-5926126D01*
X6550000Y-5926126D01*
X6550000Y-6073873D01*
X6578820Y-6218759D01*
X6578822Y-6218767D01*
X6622421Y-6324024D01*
X6946446Y-6000000D01*
X6946446Y-5999999D01*
X6926556Y-5980109D01*
X7200000Y-5980109D01*
X7200000Y-6019891D01*
X7215224Y-6056645D01*
X7243355Y-6084776D01*
X7280109Y-6100000D01*
X7319891Y-6100000D01*
X7356645Y-6084776D01*
X7384776Y-6056645D01*
X7400000Y-6019891D01*
X7400000Y-5999999D01*
X7653554Y-5999999D01*
X7653554Y-6000001D01*
X7977577Y-6324024D01*
X7977578Y-6324024D01*
X8021175Y-6218775D01*
X8021179Y-6218760D01*
X8049999Y-6073873D01*
X8050000Y-6073871D01*
X8050000Y-5926128D01*
X8049999Y-5926126D01*
X8021179Y-5781240D01*
X8021178Y-5781236D01*
X7977577Y-5675975D01*
X7653554Y-5999999D01*
X7400000Y-5999999D01*
X7400000Y-5980109D01*
X7384776Y-5943355D01*
X7356645Y-5915224D01*
X7319891Y-5900000D01*
X7280109Y-5900000D01*
X7243355Y-5915224D01*
X7215224Y-5943355D01*
X7200000Y-5980109D01*
X6926556Y-5980109D01*
X6622421Y-5675974D01*
X6622420Y-5675974D01*
X6578823Y-5781228D01*
X6578820Y-5781240D01*
X6550000Y-5926126D01*
X6149999Y-5926126D01*
X6121179Y-5781240D01*
X6121178Y-5781236D01*
X6077577Y-5675975D01*
X5753554Y-5999999D01*
X5500000Y-5999999D01*
X5500000Y-5980109D01*
X5484776Y-5943355D01*
X5456645Y-5915224D01*
X5419891Y-5900000D01*
X5380109Y-5900000D01*
X5343355Y-5915224D01*
X5315224Y-5943355D01*
X5300000Y-5980109D01*
X5026556Y-5980109D01*
X4722421Y-5675974D01*
X4722420Y-5675974D01*
X4678823Y-5781228D01*
X4678820Y-5781240D01*
X4650000Y-5926126D01*
X-25585404Y-5926126D01*
X-25585495Y-5325000D01*
X5078554Y-5325000D01*
X5400000Y-5646446D01*
X5721446Y-5325000D01*
X6978554Y-5325000D01*
X7300000Y-5646446D01*
X7621446Y-5325000D01*
X7300000Y-5003554D01*
X6978554Y-5325000D01*
X5721446Y-5325000D01*
X5400000Y-5003554D01*
X5078554Y-5325000D01*
X-25585495Y-5325000D01*
X-25585660Y-4243995D01*
X-4650501Y-4243995D01*
X-4623582Y-4379322D01*
X-4623579Y-4379332D01*
X-4570779Y-4506804D01*
X-4570772Y-4506817D01*
X-4494115Y-4621541D01*
X-4494112Y-4621545D01*
X-4396546Y-4719111D01*
X-4396542Y-4719114D01*
X-4281818Y-4795771D01*
X-4281805Y-4795778D01*
X-4154333Y-4848578D01*
X-4154328Y-4848580D01*
X-4154324Y-4848580D01*
X-4154323Y-4848581D01*
X-4018996Y-4875500D01*
X-4018993Y-4875500D01*
X-3881005Y-4875500D01*
X-3789959Y-4857389D01*
X-3745672Y-4848580D01*
X-3618189Y-4795775D01*
X-3503458Y-4719114D01*
X-3405886Y-4621542D01*
X-3375540Y-4576126D01*
X4650000Y-4576126D01*
X4650000Y-4723873D01*
X4678820Y-4868759D01*
X4678822Y-4868767D01*
X4722421Y-4974024D01*
X5046446Y-4650000D01*
X5046446Y-4649999D01*
X5026556Y-4630109D01*
X5300000Y-4630109D01*
X5300000Y-4669891D01*
X5315224Y-4706645D01*
X5343355Y-4734776D01*
X5380109Y-4750000D01*
X5419891Y-4750000D01*
X5456645Y-4734776D01*
X5484776Y-4706645D01*
X5500000Y-4669891D01*
X5500000Y-4649999D01*
X5753554Y-4649999D01*
X5753554Y-4650001D01*
X6077577Y-4974024D01*
X6077578Y-4974024D01*
X6121175Y-4868775D01*
X6121179Y-4868760D01*
X6149999Y-4723873D01*
X6150000Y-4723871D01*
X6150000Y-4576128D01*
X6149999Y-4576126D01*
X6550000Y-4576126D01*
X6550000Y-4723873D01*
X6578820Y-4868759D01*
X6578822Y-4868767D01*
X6622421Y-4974024D01*
X6946446Y-4650000D01*
X6946446Y-4649999D01*
X6926556Y-4630109D01*
X7200000Y-4630109D01*
X7200000Y-4669891D01*
X7215224Y-4706645D01*
X7243355Y-4734776D01*
X7280109Y-4750000D01*
X7319891Y-4750000D01*
X7356645Y-4734776D01*
X7384776Y-4706645D01*
X7400000Y-4669891D01*
X7400000Y-4649999D01*
X7653554Y-4649999D01*
X7653554Y-4650001D01*
X7977577Y-4974024D01*
X7977578Y-4974024D01*
X8021175Y-4868775D01*
X8021179Y-4868760D01*
X8049999Y-4723873D01*
X8050000Y-4723871D01*
X8050000Y-4576128D01*
X8049999Y-4576126D01*
X8021179Y-4431240D01*
X8021178Y-4431236D01*
X7977577Y-4325975D01*
X7653554Y-4649999D01*
X7400000Y-4649999D01*
X7400000Y-4630109D01*
X7384776Y-4593355D01*
X7356645Y-4565224D01*
X7319891Y-4550000D01*
X7280109Y-4550000D01*
X7243355Y-4565224D01*
X7215224Y-4593355D01*
X7200000Y-4630109D01*
X6926556Y-4630109D01*
X6622421Y-4325974D01*
X6622420Y-4325974D01*
X6578823Y-4431228D01*
X6578820Y-4431240D01*
X6550000Y-4576126D01*
X6149999Y-4576126D01*
X6121179Y-4431240D01*
X6121178Y-4431236D01*
X6077577Y-4325975D01*
X5753554Y-4649999D01*
X5500000Y-4649999D01*
X5500000Y-4630109D01*
X5484776Y-4593355D01*
X5456645Y-4565224D01*
X5419891Y-4550000D01*
X5380109Y-4550000D01*
X5343355Y-4565224D01*
X5315224Y-4593355D01*
X5300000Y-4630109D01*
X5026556Y-4630109D01*
X4722421Y-4325974D01*
X4722420Y-4325974D01*
X4678823Y-4431228D01*
X4678820Y-4431240D01*
X4650000Y-4576126D01*
X-3375540Y-4576126D01*
X-3329225Y-4506811D01*
X-3276420Y-4379328D01*
X-3265807Y-4325974D01*
X-3249500Y-4243995D01*
X-3249500Y-4106004D01*
X-3263141Y-4037428D01*
X-3263141Y-4037427D01*
X-3276072Y-3972421D01*
X-3276072Y-3972420D01*
X5075974Y-3972420D01*
X5075974Y-3972421D01*
X5400000Y-4296446D01*
X5400001Y-4296446D01*
X5724024Y-3972421D01*
X5724022Y-3972420D01*
X6975974Y-3972420D01*
X6975974Y-3972421D01*
X7300000Y-4296446D01*
X7300001Y-4296446D01*
X7624024Y-3972421D01*
X7518767Y-3928822D01*
X7518759Y-3928820D01*
X7373872Y-3900000D01*
X7226128Y-3900000D01*
X7081240Y-3928820D01*
X7081228Y-3928823D01*
X6975974Y-3972420D01*
X5724022Y-3972420D01*
X5618767Y-3928822D01*
X5618759Y-3928820D01*
X5473872Y-3900000D01*
X5326128Y-3900000D01*
X5181240Y-3928820D01*
X5181228Y-3928823D01*
X5075974Y-3972420D01*
X-3276072Y-3972420D01*
X-3276420Y-3970672D01*
X-3293755Y-3928822D01*
X-3329222Y-3843195D01*
X-3329229Y-3843182D01*
X-3405886Y-3728458D01*
X-3405889Y-3728454D01*
X-3503455Y-3630888D01*
X-3503459Y-3630885D01*
X-3618183Y-3554228D01*
X-3618196Y-3554221D01*
X-3745668Y-3501421D01*
X-3745678Y-3501418D01*
X-3881005Y-3474500D01*
X-3881007Y-3474500D01*
X-4018993Y-3474500D01*
X-4018995Y-3474500D01*
X-4154323Y-3501418D01*
X-4154333Y-3501421D01*
X-4281805Y-3554221D01*
X-4281818Y-3554228D01*
X-4396542Y-3630885D01*
X-4396546Y-3630888D01*
X-4494112Y-3728454D01*
X-4494115Y-3728458D01*
X-4570772Y-3843182D01*
X-4570779Y-3843195D01*
X-4623579Y-3970667D01*
X-4623582Y-3970677D01*
X-4650500Y-4106004D01*
X-4650500Y-4106007D01*
X-4650500Y-4243993D01*
X-4650500Y-4243995D01*
X-4650501Y-4243995D01*
X-25585660Y-4243995D01*
X-25586380Y494034D01*
X-25586613Y2022601D01*
X-21955500Y2022601D01*
X-21955500Y1897399D01*
X-21923095Y1776464D01*
X-21860495Y1668036D01*
X-21771964Y1579505D01*
X-21663536Y1516905D01*
X-21542601Y1484500D01*
X-21542599Y1484500D01*
X-21417401Y1484500D01*
X-21417399Y1484500D01*
X-21296464Y1516905D01*
X-21188036Y1579505D01*
X-21099505Y1668036D01*
X-21036905Y1776464D01*
X-21004500Y1897399D01*
X-21004500Y1897413D01*
X-21003564Y1904516D01*
X-20975298Y1968414D01*
X-20968317Y1976003D01*
X-19554531Y3389788D01*
X-19508386Y3469712D01*
X-19484500Y3558856D01*
X-19484500Y4916341D01*
X28070000Y4916341D01*
X28070000Y4683660D01*
X28100369Y4452976D01*
X28160592Y4228221D01*
X28249632Y4013260D01*
X28249636Y4013250D01*
X28365970Y3811752D01*
X28425551Y3734106D01*
X29148287Y4456842D01*
X29158204Y4432900D01*
X29243018Y4305966D01*
X29350966Y4198018D01*
X29477900Y4113204D01*
X29501839Y4103288D01*
X28779104Y3380554D01*
X28779104Y3380553D01*
X28856752Y3320971D01*
X29058249Y3204637D01*
X29058259Y3204633D01*
X29273220Y3115593D01*
X29497975Y3055370D01*
X29728659Y3025000D01*
X29961341Y3025000D01*
X30192024Y3055370D01*
X30416779Y3115593D01*
X30631740Y3204633D01*
X30631750Y3204637D01*
X30833255Y3320976D01*
X30910894Y3380553D01*
X30910894Y3380554D01*
X30188159Y4103288D01*
X30212100Y4113204D01*
X30339034Y4198018D01*
X30446982Y4305966D01*
X30531796Y4432900D01*
X30541712Y4456841D01*
X31264446Y3734106D01*
X31264447Y3734106D01*
X31324024Y3811745D01*
X31440363Y4013250D01*
X31440367Y4013260D01*
X31529407Y4228221D01*
X31589630Y4452976D01*
X31620000Y4683660D01*
X31620000Y4916341D01*
X31589630Y5147025D01*
X31529407Y5371780D01*
X31440367Y5586741D01*
X31440363Y5586751D01*
X31324029Y5788248D01*
X31264447Y5865896D01*
X31264446Y5865896D01*
X30541711Y5143161D01*
X30531796Y5167100D01*
X30446982Y5294034D01*
X30339034Y5401982D01*
X30212100Y5486796D01*
X30188158Y5496714D01*
X30910894Y6219449D01*
X30833248Y6279030D01*
X30631750Y6395364D01*
X30631740Y6395368D01*
X30416779Y6484408D01*
X30192024Y6544631D01*
X29961341Y6575000D01*
X29728659Y6575000D01*
X29497975Y6544631D01*
X29273220Y6484408D01*
X29058259Y6395368D01*
X29058249Y6395364D01*
X28856747Y6279027D01*
X28779104Y6219450D01*
X28779104Y6219449D01*
X29501840Y5496713D01*
X29477900Y5486796D01*
X29350966Y5401982D01*
X29243018Y5294034D01*
X29158204Y5167100D01*
X29148287Y5143160D01*
X28425551Y5865896D01*
X28425550Y5865896D01*
X28365973Y5788253D01*
X28249636Y5586751D01*
X28249632Y5586741D01*
X28160592Y5371780D01*
X28100369Y5147025D01*
X28070000Y4916341D01*
X-19484500Y4916341D01*
X-19484500Y10121289D01*
X26649500Y10121289D01*
X26649500Y9878712D01*
X26681161Y9638215D01*
X26743947Y9403896D01*
X26836773Y9179795D01*
X26836776Y9179788D01*
X26958064Y8969711D01*
X26958066Y8969708D01*
X26958067Y8969707D01*
X27105733Y8777264D01*
X27105739Y8777257D01*
X27277256Y8605740D01*
X27277262Y8605735D01*
X27469711Y8458064D01*
X27679788Y8336776D01*
X27903900Y8243946D01*
X28138211Y8181162D01*
X28318586Y8157416D01*
X28378711Y8149500D01*
X28378712Y8149500D01*
X28621289Y8149500D01*
X28669388Y8155833D01*
X28861789Y8181162D01*
X29096100Y8243946D01*
X29320212Y8336776D01*
X29530289Y8458064D01*
X29722738Y8605735D01*
X29894265Y8777262D01*
X30041936Y8969711D01*
X30163224Y9179788D01*
X30256054Y9403900D01*
X30318838Y9638211D01*
X30350500Y9878712D01*
X30350500Y10121288D01*
X30318838Y10361789D01*
X30256054Y10596100D01*
X30163224Y10820212D01*
X30041936Y11030289D01*
X29981018Y11109679D01*
X29894266Y11222737D01*
X29894260Y11222744D01*
X29722743Y11394261D01*
X29722736Y11394267D01*
X29530293Y11541933D01*
X29530292Y11541934D01*
X29530289Y11541936D01*
X29320212Y11663224D01*
X29320205Y11663227D01*
X29096104Y11756053D01*
X28861785Y11818839D01*
X28621289Y11850500D01*
X28621288Y11850500D01*
X28378712Y11850500D01*
X28378711Y11850500D01*
X28138214Y11818839D01*
X27903895Y11756053D01*
X27679794Y11663227D01*
X27679785Y11663223D01*
X27469706Y11541933D01*
X27277263Y11394267D01*
X27277256Y11394261D01*
X27105739Y11222744D01*
X27105733Y11222737D01*
X26958067Y11030294D01*
X26836777Y10820215D01*
X26836773Y10820206D01*
X26743947Y10596105D01*
X26681161Y10361786D01*
X26649500Y10121289D01*
X-19484500Y10121289D01*
X-19484500Y12414405D01*
X4023899Y12414405D01*
X4050818Y12279078D01*
X4050821Y12279068D01*
X4103621Y12151596D01*
X4103628Y12151583D01*
X4180285Y12036859D01*
X4180288Y12036855D01*
X4277854Y11939289D01*
X4277858Y11939286D01*
X4392582Y11862629D01*
X4392595Y11862622D01*
X4520067Y11809822D01*
X4520072Y11809820D01*
X4520076Y11809820D01*
X4520077Y11809819D01*
X4655404Y11782900D01*
X4655407Y11782900D01*
X4793395Y11782900D01*
X4884441Y11801011D01*
X4928728Y11809820D01*
X5056211Y11862625D01*
X5170942Y11939286D01*
X5268514Y12036858D01*
X5345175Y12151589D01*
X5397980Y12279072D01*
X5424900Y12414407D01*
X5424900Y12552393D01*
X5424900Y12552396D01*
X5397981Y12687723D01*
X5397980Y12687724D01*
X5397980Y12687728D01*
X5379945Y12731269D01*
X5345178Y12815205D01*
X5345171Y12815218D01*
X5268514Y12929942D01*
X5268511Y12929946D01*
X5170945Y13027512D01*
X5170941Y13027515D01*
X5056217Y13104172D01*
X5056204Y13104179D01*
X4928732Y13156979D01*
X4928722Y13156982D01*
X4793395Y13183900D01*
X4793393Y13183900D01*
X4655407Y13183900D01*
X4655405Y13183900D01*
X4520077Y13156982D01*
X4520067Y13156979D01*
X4392595Y13104179D01*
X4392582Y13104172D01*
X4277858Y13027515D01*
X4277854Y13027512D01*
X4180288Y12929946D01*
X4180285Y12929942D01*
X4103628Y12815218D01*
X4103621Y12815205D01*
X4050821Y12687733D01*
X4050818Y12687723D01*
X4023900Y12552396D01*
X4023900Y12552393D01*
X4023900Y12414407D01*
X4023900Y12414405D01*
X4023899Y12414405D01*
X-19484500Y12414405D01*
X-19484500Y12448001D01*
X-19464815Y12515040D01*
X-19412011Y12560795D01*
X-19360500Y12572001D01*
X-19187129Y12572001D01*
X-19187128Y12572001D01*
X-19127517Y12578409D01*
X-18992669Y12628704D01*
X-18877454Y12714954D01*
X-18791204Y12830169D01*
X-18740909Y12965017D01*
X-18734500Y13024627D01*
X-18734501Y14320372D01*
X-18740909Y14379983D01*
X-18744432Y14389428D01*
X-18791203Y14514829D01*
X-18791207Y14514836D01*
X-18877453Y14630045D01*
X-18877456Y14630048D01*
X-18992665Y14716294D01*
X-18992672Y14716298D01*
X-19127518Y14766592D01*
X-19127517Y14766592D01*
X-19187117Y14772999D01*
X-19187119Y14773000D01*
X-19187127Y14773000D01*
X-19187136Y14773000D01*
X-20482871Y14773000D01*
X-20482877Y14772999D01*
X-20542484Y14766592D01*
X-20677329Y14716298D01*
X-20677336Y14716294D01*
X-20792545Y14630048D01*
X-20792548Y14630045D01*
X-20878794Y14514836D01*
X-20878798Y14514829D01*
X-20929092Y14379983D01*
X-20935499Y14320384D01*
X-20935499Y14320377D01*
X-20935500Y14320365D01*
X-20935500Y13024630D01*
X-20935499Y13024624D01*
X-20929092Y12965017D01*
X-20878798Y12830172D01*
X-20878794Y12830165D01*
X-20792548Y12714956D01*
X-20792545Y12714953D01*
X-20677336Y12628707D01*
X-20677329Y12628703D01*
X-20632382Y12611939D01*
X-20542483Y12578409D01*
X-20482873Y12572000D01*
X-20309500Y12572001D01*
X-20242461Y12552317D01*
X-20196706Y12499513D01*
X-20185500Y12448001D01*
X-20185500Y3801544D01*
X-20205185Y3734505D01*
X-20221819Y3713863D01*
X-21463987Y2471696D01*
X-21525310Y2438211D01*
X-21535476Y2436439D01*
X-21542594Y2435502D01*
X-21663537Y2403095D01*
X-21771963Y2340496D01*
X-21771966Y2340494D01*
X-21860494Y2251966D01*
X-21860496Y2251963D01*
X-21923095Y2143537D01*
X-21932428Y2108707D01*
X-21955500Y2022601D01*
X-25586613Y2022601D01*
X-25586614Y2030710D01*
X-25587741Y9436460D01*
X-25587739Y9437264D01*
X-25583330Y10133807D01*
X-25567858Y12578411D01*
X-25544310Y16299111D01*
X-20935500Y16299111D01*
X-20935500Y16125889D01*
X-20908402Y15954799D01*
X-20854873Y15790055D01*
X-20776232Y15635712D01*
X-20674414Y15495572D01*
X-20551928Y15373086D01*
X-20411788Y15271268D01*
X-20257445Y15192627D01*
X-20092701Y15139098D01*
X-19921611Y15112000D01*
X-19921610Y15112000D01*
X-19748390Y15112000D01*
X-19748389Y15112000D01*
X-19577299Y15139098D01*
X-19412555Y15192627D01*
X-19258212Y15271268D01*
X-19118072Y15373086D01*
X-18995586Y15495572D01*
X-18893768Y15635712D01*
X-18815127Y15790055D01*
X-18814104Y15793206D01*
X-18813390Y15794250D01*
X-18813266Y15794548D01*
X-18813204Y15794523D01*
X-18774673Y15850882D01*
X-18710317Y15878085D01*
X-18641470Y15866177D01*
X-18589989Y15818938D01*
X-18578240Y15793213D01*
X-18546096Y15694283D01*
X-18449625Y15504950D01*
X-18410272Y15450784D01*
X-17777963Y16083092D01*
X-17760925Y16019507D01*
X-17695099Y15905493D01*
X-17602007Y15812401D01*
X-17487993Y15746575D01*
X-17424410Y15729538D01*
X-18056718Y15097231D01*
X-18056718Y15097230D01*
X-18002551Y15057876D01*
X-17813216Y14961404D01*
X-17714289Y14929261D01*
X-17656613Y14889824D01*
X-17629414Y14825466D01*
X-17641328Y14756619D01*
X-17688572Y14705143D01*
X-17714278Y14693403D01*
X-17715478Y14693013D01*
X-17717450Y14692372D01*
X-17871789Y14613732D01*
X-17951744Y14555641D01*
X-18011928Y14511914D01*
X-18011930Y14511912D01*
X-18011931Y14511912D01*
X-18134412Y14389431D01*
X-18134412Y14389430D01*
X-18134414Y14389428D01*
X-18178141Y14329244D01*
X-18236232Y14249289D01*
X-18314872Y14094948D01*
X-18368403Y13930198D01*
X-18395500Y13759111D01*
X-18395500Y13585889D01*
X-18368402Y13414799D01*
X-18314873Y13250055D01*
X-18236232Y13095712D01*
X-18134414Y12955572D01*
X-18011928Y12833086D01*
X-17871788Y12731268D01*
X-17717445Y12652627D01*
X-17552701Y12599098D01*
X-17381611Y12572000D01*
X-17381610Y12572000D01*
X-17208390Y12572000D01*
X-17208389Y12572000D01*
X-17037299Y12599098D01*
X-16872555Y12652627D01*
X-16718212Y12731268D01*
X-16578072Y12833086D01*
X-16455586Y12955572D01*
X-16353768Y13095712D01*
X-16275127Y13250055D01*
X-16221598Y13414799D01*
X-16194500Y13585889D01*
X-16194500Y13759111D01*
X-15855500Y13759111D01*
X-15855500Y13585889D01*
X-15828402Y13414799D01*
X-15774873Y13250055D01*
X-15696232Y13095712D01*
X-15594414Y12955572D01*
X-15471928Y12833086D01*
X-15331788Y12731268D01*
X-15177445Y12652627D01*
X-15012701Y12599098D01*
X-14841611Y12572000D01*
X-14841610Y12572000D01*
X-14668390Y12572000D01*
X-14668389Y12572000D01*
X-14497299Y12599098D01*
X-14332555Y12652627D01*
X-14178212Y12731268D01*
X-14038072Y12833086D01*
X-13915586Y12955572D01*
X-13813768Y13095712D01*
X-13735127Y13250055D01*
X-13681598Y13414799D01*
X-13654500Y13585889D01*
X-13654500Y13759111D01*
X-13681598Y13930201D01*
X-13735127Y14094945D01*
X-13813768Y14249288D01*
X-13915586Y14389428D01*
X-14038072Y14511914D01*
X-14178212Y14613732D01*
X-14332555Y14692373D01*
X-14497299Y14745902D01*
X-14497301Y14745903D01*
X-14497302Y14745903D01*
X-14628729Y14766719D01*
X-14668389Y14773000D01*
X-14841611Y14773000D01*
X-14881272Y14766719D01*
X-15012698Y14745903D01*
X-15012701Y14745902D01*
X-15172077Y14694117D01*
X-15177448Y14692372D01*
X-15331789Y14613732D01*
X-15411744Y14555641D01*
X-15471928Y14511914D01*
X-15471930Y14511912D01*
X-15471931Y14511912D01*
X-15594412Y14389431D01*
X-15594412Y14389430D01*
X-15594414Y14389428D01*
X-15638141Y14329244D01*
X-15696232Y14249289D01*
X-15774872Y14094948D01*
X-15828403Y13930198D01*
X-15855500Y13759111D01*
X-16194500Y13759111D01*
X-16221598Y13930201D01*
X-16275127Y14094945D01*
X-16353768Y14249288D01*
X-16455586Y14389428D01*
X-16578072Y14511914D01*
X-16718212Y14613732D01*
X-16750234Y14630048D01*
X-16872554Y14692373D01*
X-16875716Y14693400D01*
X-16876764Y14694117D01*
X-16877048Y14694234D01*
X-16877024Y14694294D01*
X-16933391Y14732839D01*
X-16960587Y14797198D01*
X-16948671Y14866044D01*
X-16901426Y14917519D01*
X-16875712Y14929261D01*
X-16776785Y14961404D01*
X-16587446Y15057878D01*
X-16533284Y15097230D01*
X-16533283Y15097230D01*
X-17165592Y15729538D01*
X-17102007Y15746575D01*
X-16987993Y15812401D01*
X-16894901Y15905493D01*
X-16829075Y16019507D01*
X-16812038Y16083092D01*
X-16179730Y15450783D01*
X-16179730Y15450784D01*
X-16140378Y15504946D01*
X-16043904Y15694285D01*
X-16011761Y15793212D01*
X-15972324Y15850888D01*
X-15907966Y15878087D01*
X-15839120Y15866173D01*
X-15787643Y15818929D01*
X-15775900Y15793216D01*
X-15774873Y15790054D01*
X-15752719Y15746575D01*
X-15696232Y15635712D01*
X-15594414Y15495572D01*
X-15471928Y15373086D01*
X-15331788Y15271268D01*
X-15177445Y15192627D01*
X-15012701Y15139098D01*
X-14841611Y15112000D01*
X-14841610Y15112000D01*
X-14668390Y15112000D01*
X-14668389Y15112000D01*
X-14497299Y15139098D01*
X-14332555Y15192627D01*
X-14178212Y15271268D01*
X-14038072Y15373086D01*
X-13915586Y15495572D01*
X-13813768Y15635712D01*
X-13735127Y15790055D01*
X-13681598Y15954799D01*
X-13668230Y16039201D01*
X3893300Y16039201D01*
X3893300Y15913999D01*
X3925705Y15793064D01*
X3988305Y15684636D01*
X4076836Y15596105D01*
X4185264Y15533505D01*
X4306199Y15501100D01*
X4306201Y15501100D01*
X4431399Y15501100D01*
X4431401Y15501100D01*
X4552336Y15533505D01*
X4660764Y15596105D01*
X4749295Y15684636D01*
X4811895Y15793064D01*
X4844300Y15913999D01*
X4844300Y16039201D01*
X4811895Y16160136D01*
X4749295Y16268564D01*
X4660764Y16357095D01*
X4552336Y16419695D01*
X4552337Y16419695D01*
X4512024Y16430497D01*
X4431401Y16452100D01*
X4306199Y16452100D01*
X4225575Y16430497D01*
X4185263Y16419695D01*
X4076837Y16357096D01*
X4076834Y16357094D01*
X3988306Y16268566D01*
X3988304Y16268563D01*
X3925705Y16160137D01*
X3909502Y16099669D01*
X3893300Y16039201D01*
X-13668230Y16039201D01*
X-13654500Y16125889D01*
X-13654500Y16299111D01*
X-13681598Y16470201D01*
X-13735127Y16634945D01*
X-13813768Y16789288D01*
X-13915586Y16929428D01*
X-14038072Y17051914D01*
X-14178212Y17153732D01*
X-14332555Y17232373D01*
X-14497299Y17285902D01*
X-14497301Y17285903D01*
X-14497302Y17285903D01*
X-14628729Y17306719D01*
X-14668389Y17313000D01*
X-14841611Y17313000D01*
X-14881272Y17306719D01*
X-15012698Y17285903D01*
X-15177448Y17232372D01*
X-15331789Y17153732D01*
X-15397532Y17105966D01*
X-15471928Y17051914D01*
X-15471930Y17051912D01*
X-15471931Y17051912D01*
X-15594412Y16929431D01*
X-15594412Y16929430D01*
X-15594414Y16929428D01*
X-15606201Y16913204D01*
X-15696232Y16789289D01*
X-15774872Y16634950D01*
X-15775513Y16632978D01*
X-15775898Y16631788D01*
X-15775901Y16631780D01*
X-15776619Y16630731D01*
X-15776734Y16630452D01*
X-15776793Y16630477D01*
X-15815343Y16574107D01*
X-15879703Y16546913D01*
X-15948549Y16558832D01*
X-16000021Y16606080D01*
X-16011761Y16631789D01*
X-16043904Y16730716D01*
X-16140376Y16920051D01*
X-16179730Y16974218D01*
X-16179731Y16974218D01*
X-16812038Y16341910D01*
X-16829075Y16405493D01*
X-16894901Y16519507D01*
X-16987993Y16612599D01*
X-17102007Y16678425D01*
X-17165591Y16695463D01*
X-16533284Y17327772D01*
X-16587450Y17367125D01*
X-16776783Y17463596D01*
X-16978871Y17529258D01*
X-17188754Y17562500D01*
X-17401246Y17562500D01*
X-17611128Y17529258D01*
X-17611131Y17529258D01*
X-17813218Y17463596D01*
X-18002561Y17367120D01*
X-18056718Y17327773D01*
X-18056718Y17327772D01*
X-17424409Y16695463D01*
X-17487993Y16678425D01*
X-17602007Y16612599D01*
X-17695099Y16519507D01*
X-17760925Y16405493D01*
X-17777963Y16341909D01*
X-18410272Y16974218D01*
X-18410273Y16974218D01*
X-18449620Y16920061D01*
X-18546096Y16730717D01*
X-18578240Y16631788D01*
X-18617678Y16574112D01*
X-18682036Y16546914D01*
X-18750883Y16558829D01*
X-18802358Y16606073D01*
X-18814102Y16631789D01*
X-18815127Y16634945D01*
X-18893768Y16789288D01*
X-18995586Y16929428D01*
X-19118072Y17051914D01*
X-19258212Y17153732D01*
X-19412555Y17232373D01*
X-19577299Y17285902D01*
X-19577301Y17285903D01*
X-19577302Y17285903D01*
X-19708729Y17306719D01*
X-19748389Y17313000D01*
X-19921611Y17313000D01*
X-19961272Y17306719D01*
X-20092698Y17285903D01*
X-20257448Y17232372D01*
X-20411789Y17153732D01*
X-20477532Y17105966D01*
X-20551928Y17051914D01*
X-20551930Y17051912D01*
X-20551931Y17051912D01*
X-20674412Y16929431D01*
X-20674412Y16929430D01*
X-20674414Y16929428D01*
X-20686201Y16913204D01*
X-20776232Y16789289D01*
X-20854872Y16634948D01*
X-20908403Y16470198D01*
X-20930185Y16332670D01*
X-20935500Y16299111D01*
X-25544310Y16299111D01*
X-25544274Y16304768D01*
X-25529286Y18672866D01*
X18644500Y18672866D01*
X18644500Y16527135D01*
X18644501Y16527116D01*
X18650908Y16467519D01*
X18650910Y16467512D01*
X18701202Y16332672D01*
X18701203Y16332670D01*
X18701204Y16332669D01*
X18787453Y16217453D01*
X18902669Y16131204D01*
X18902671Y16131203D01*
X18990696Y16098372D01*
X19037516Y16080909D01*
X19097126Y16074500D01*
X19097135Y16074500D01*
X21242865Y16074500D01*
X21242874Y16074500D01*
X21302484Y16080909D01*
X21437331Y16131204D01*
X21552547Y16217453D01*
X21613675Y16299111D01*
X21616449Y16302816D01*
X21625566Y16314997D01*
X21638796Y16332669D01*
X21689091Y16467516D01*
X21695500Y16527126D01*
X21695500Y17716341D01*
X23195001Y17716341D01*
X23195001Y17483660D01*
X23225370Y17252976D01*
X23285593Y17028221D01*
X23374633Y16813260D01*
X23374637Y16813250D01*
X23490971Y16611752D01*
X23550552Y16534106D01*
X24273288Y17256842D01*
X24283205Y17232900D01*
X24368019Y17105966D01*
X24475967Y16998018D01*
X24602901Y16913204D01*
X24626840Y16903288D01*
X23904105Y16180554D01*
X23904105Y16180553D01*
X23981753Y16120971D01*
X24183250Y16004637D01*
X24183260Y16004633D01*
X24398221Y15915593D01*
X24622976Y15855370D01*
X24853660Y15825000D01*
X25086342Y15825000D01*
X25317025Y15855370D01*
X25541780Y15915593D01*
X25756741Y16004633D01*
X25756751Y16004637D01*
X25958256Y16120976D01*
X26035895Y16180553D01*
X26035895Y16180554D01*
X25313160Y16903288D01*
X25337101Y16913204D01*
X25464035Y16998018D01*
X25571983Y17105966D01*
X25656797Y17232900D01*
X25666713Y17256841D01*
X26389447Y16534106D01*
X26389448Y16534106D01*
X26449025Y16611745D01*
X26565364Y16813250D01*
X26565368Y16813260D01*
X26654408Y17028221D01*
X26714631Y17252976D01*
X26745001Y17483660D01*
X26745001Y17716341D01*
X26714631Y17947025D01*
X26654408Y18171780D01*
X26565368Y18386741D01*
X26565364Y18386751D01*
X26449030Y18588248D01*
X26389448Y18665896D01*
X26389447Y18665896D01*
X25666712Y17943161D01*
X25656797Y17967100D01*
X25571983Y18094034D01*
X25464035Y18201982D01*
X25337101Y18286796D01*
X25313159Y18296714D01*
X26035895Y19019449D01*
X25958249Y19079030D01*
X25756751Y19195364D01*
X25756741Y19195368D01*
X25541780Y19284408D01*
X25317025Y19344631D01*
X25086342Y19375000D01*
X24853660Y19375000D01*
X24622976Y19344631D01*
X24398221Y19284408D01*
X24183260Y19195368D01*
X24183250Y19195364D01*
X23981748Y19079027D01*
X23904105Y19019450D01*
X23904105Y19019449D01*
X24626841Y18296713D01*
X24602901Y18286796D01*
X24475967Y18201982D01*
X24368019Y18094034D01*
X24283205Y17967100D01*
X24273288Y17943160D01*
X23550552Y18665896D01*
X23550551Y18665896D01*
X23490974Y18588253D01*
X23374637Y18386751D01*
X23374633Y18386741D01*
X23285593Y18171780D01*
X23225370Y17947025D01*
X23195001Y17716341D01*
X21695500Y17716341D01*
X21695500Y18672874D01*
X21689091Y18732484D01*
X21638796Y18867331D01*
X21552547Y18982547D01*
X21437331Y19068796D01*
X21437330Y19068797D01*
X21437328Y19068798D01*
X21302488Y19119090D01*
X21302481Y19119092D01*
X21242884Y19125499D01*
X21242882Y19125500D01*
X21242874Y19125500D01*
X19097126Y19125500D01*
X19097118Y19125500D01*
X19097115Y19125499D01*
X19037518Y19119092D01*
X19037511Y19119090D01*
X18902671Y19068798D01*
X18902669Y19068797D01*
X18787453Y18982547D01*
X18701203Y18867331D01*
X18701202Y18867329D01*
X18650910Y18732489D01*
X18650908Y18732482D01*
X18644501Y18672885D01*
X18644500Y18672866D01*
X-25529286Y18672866D01*
X-25529260Y18676980D01*
X-25519577Y20206934D01*
X-25514354Y21032260D01*
X-25494245Y21099171D01*
X-25484850Y21111766D01*
X-24845958Y21863526D01*
X-24843190Y21866671D01*
X-24486045Y22258611D01*
X-21179500Y22258611D01*
X-21179500Y22085390D01*
X-21153306Y21920003D01*
X-21152402Y21914299D01*
X-21098873Y21749555D01*
X-21020232Y21595212D01*
X-20918414Y21455072D01*
X-20795928Y21332586D01*
X-20655788Y21230768D01*
X-20501445Y21152127D01*
X-20336701Y21098598D01*
X-20165611Y21071500D01*
X-20165610Y21071500D01*
X-19992390Y21071500D01*
X-19992389Y21071500D01*
X-19821299Y21098598D01*
X-19656555Y21152127D01*
X-19502212Y21230768D01*
X-19362072Y21332586D01*
X-19239586Y21455072D01*
X-19137768Y21595212D01*
X-19123485Y21623244D01*
X-19075511Y21674040D01*
X-19007691Y21690836D01*
X-18941555Y21668299D01*
X-18898103Y21613585D01*
X-18889000Y21566950D01*
X-18889000Y21274156D01*
X-18882599Y21214628D01*
X-18882597Y21214621D01*
X-18832355Y21079914D01*
X-18832351Y21079907D01*
X-18746191Y20964813D01*
X-18746188Y20964810D01*
X-18631094Y20878650D01*
X-18631087Y20878646D01*
X-18496380Y20828404D01*
X-18496373Y20828402D01*
X-18436845Y20822001D01*
X-18436828Y20822000D01*
X-17789000Y20822000D01*
X-17789000Y21738988D01*
X-17731993Y21706075D01*
X-17604826Y21672000D01*
X-17473174Y21672000D01*
X-17346007Y21706075D01*
X-17289000Y21738988D01*
X-17289000Y20822000D01*
X-16641172Y20822000D01*
X-16641156Y20822001D01*
X-16581628Y20828402D01*
X-16581621Y20828404D01*
X-16446914Y20878646D01*
X-16446907Y20878650D01*
X-16331813Y20964810D01*
X-16331810Y20964813D01*
X-16245650Y21079907D01*
X-16245646Y21079914D01*
X-16195404Y21214621D01*
X-16195402Y21214628D01*
X-16189001Y21274156D01*
X-16189000Y21274173D01*
X-16189000Y21922000D01*
X-17105988Y21922000D01*
X-17073075Y21979007D01*
X-17039000Y22106174D01*
X-17039000Y22237826D01*
X-17073075Y22364993D01*
X-17105988Y22422000D01*
X-16189000Y22422000D01*
X-16189000Y22872165D01*
X15358380Y22872165D01*
X15365409Y22813386D01*
X15375468Y22729261D01*
X15432122Y22596958D01*
X15432123Y22596956D01*
X15523754Y22485979D01*
X15523756Y22485978D01*
X15572176Y22450622D01*
X15572178Y22450621D01*
X15572182Y22450618D01*
X15940750Y22237826D01*
X16694324Y21802751D01*
X16749153Y21778495D01*
X16891080Y21754628D01*
X16891081Y21754627D01*
X16891081Y21754628D01*
X16891082Y21754627D01*
X17033986Y21771715D01*
X17166288Y21828369D01*
X17277269Y21920003D01*
X17312624Y21968422D01*
X18085496Y23307077D01*
X18109752Y23361906D01*
X18133619Y23503835D01*
X18116532Y23646739D01*
X18059878Y23779042D01*
X18040090Y23803008D01*
X17968245Y23890022D01*
X17968243Y23890023D01*
X17919817Y23925383D01*
X17115631Y24389678D01*
X16797676Y24573249D01*
X16742847Y24597505D01*
X16742844Y24597506D01*
X16742843Y24597506D01*
X16600919Y24621373D01*
X16600918Y24621374D01*
X16458016Y24604286D01*
X16325712Y24547631D01*
X16214728Y24455995D01*
X16179381Y24407587D01*
X16179371Y24407572D01*
X15406504Y23068923D01*
X15382247Y23014092D01*
X15358381Y22872167D01*
X15358380Y22872165D01*
X-16189000Y22872165D01*
X-16189000Y23069828D01*
X-16189001Y23069845D01*
X-16195402Y23129373D01*
X-16195404Y23129380D01*
X-16245646Y23264087D01*
X-16245650Y23264094D01*
X-16331810Y23379188D01*
X-16331813Y23379191D01*
X-16446907Y23465351D01*
X-16446914Y23465355D01*
X-16581621Y23515597D01*
X-16581628Y23515599D01*
X-16641156Y23522000D01*
X-17289000Y23522000D01*
X-17289000Y22605012D01*
X-17346007Y22637925D01*
X-17473174Y22672000D01*
X-17604826Y22672000D01*
X-17731993Y22637925D01*
X-17789000Y22605012D01*
X-17789000Y23522000D01*
X-18436845Y23522000D01*
X-18496373Y23515599D01*
X-18496380Y23515597D01*
X-18631087Y23465355D01*
X-18631094Y23465351D01*
X-18746188Y23379191D01*
X-18746191Y23379188D01*
X-18832351Y23264094D01*
X-18832355Y23264087D01*
X-18882597Y23129380D01*
X-18882599Y23129373D01*
X-18889000Y23069845D01*
X-18889000Y22777051D01*
X-18908685Y22710012D01*
X-18961489Y22664257D01*
X-19030647Y22654313D01*
X-19094203Y22683338D01*
X-19123485Y22720756D01*
X-19137769Y22748789D01*
X-19239586Y22888928D01*
X-19362072Y23011414D01*
X-19502212Y23113232D01*
X-19656555Y23191873D01*
X-19821299Y23245402D01*
X-19821301Y23245403D01*
X-19821302Y23245403D01*
X-19952729Y23266219D01*
X-19992389Y23272500D01*
X-20165611Y23272500D01*
X-20205272Y23266219D01*
X-20336698Y23245403D01*
X-20501448Y23191872D01*
X-20655789Y23113232D01*
X-20716774Y23068923D01*
X-20795928Y23011414D01*
X-20795930Y23011412D01*
X-20795931Y23011412D01*
X-20918412Y22888931D01*
X-20918412Y22888930D01*
X-20918414Y22888928D01*
X-20930593Y22872165D01*
X-21020232Y22748789D01*
X-21098872Y22594448D01*
X-21152403Y22429698D01*
X-21179500Y22258611D01*
X-24486045Y22258611D01*
X-24075486Y22709168D01*
X-24072552Y22712278D01*
X-23276178Y23527748D01*
X-23273183Y23530710D01*
X-22449087Y24318180D01*
X-22445991Y24321038D01*
X-21595157Y25079564D01*
X-21591956Y25082320D01*
X-21545079Y25121289D01*
X-1850500Y25121289D01*
X-1850500Y24878712D01*
X-1818839Y24638215D01*
X-1756053Y24403896D01*
X-1663227Y24179795D01*
X-1663224Y24179788D01*
X-1541936Y23969711D01*
X-1541934Y23969708D01*
X-1541933Y23969707D01*
X-1394267Y23777264D01*
X-1394261Y23777257D01*
X-1222744Y23605740D01*
X-1222737Y23605734D01*
X-1124997Y23530736D01*
X-1030289Y23458064D01*
X-820212Y23336776D01*
X-662148Y23271304D01*
X-597030Y23244331D01*
X-596100Y23243946D01*
X-361789Y23181162D01*
X-181414Y23157416D01*
X-121289Y23149500D01*
X-121288Y23149500D01*
X121289Y23149500D01*
X169388Y23155833D01*
X361789Y23181162D01*
X596100Y23243946D01*
X820212Y23336776D01*
X1030289Y23458064D01*
X1222738Y23605735D01*
X1394265Y23777262D01*
X1541936Y23969711D01*
X1663224Y24179788D01*
X1756054Y24403900D01*
X1818838Y24638211D01*
X1850500Y24878712D01*
X1850500Y25121288D01*
X1818838Y25361789D01*
X1769932Y25544306D01*
X10999663Y25544306D01*
X10999663Y25544297D01*
X11021873Y25332971D01*
X11076871Y25127717D01*
X11163303Y24933589D01*
X11279031Y24755382D01*
X11279036Y24755377D01*
X11421218Y24597467D01*
X11473250Y24555332D01*
X11473251Y24555332D01*
X11997293Y25463001D01*
X12035778Y25396343D01*
X12124216Y25307905D01*
X12232530Y25245370D01*
X12353338Y25213000D01*
X12430306Y25213000D01*
X11906263Y24305331D01*
X11968765Y24281339D01*
X12176612Y24237159D01*
X12176621Y24237158D01*
X12388814Y24226038D01*
X12388823Y24226038D01*
X12600149Y24248248D01*
X12805403Y24303246D01*
X12999531Y24389678D01*
X13177737Y24505406D01*
X13215437Y24539351D01*
X13278429Y24569581D01*
X13347764Y24560957D01*
X13401430Y24516217D01*
X13422388Y24449565D01*
X13422241Y24440712D01*
X13414911Y24300858D01*
X13414911Y24300851D01*
X13433018Y24128577D01*
X13433018Y24128574D01*
X13433019Y24128573D01*
X13455598Y24044305D01*
X13477851Y23961258D01*
X13548307Y23803011D01*
X13548309Y23803008D01*
X13642648Y23657737D01*
X13642651Y23657734D01*
X13758559Y23529005D01*
X13893178Y23419992D01*
X14043193Y23333381D01*
X14204910Y23271303D01*
X14374347Y23235289D01*
X14547332Y23226222D01*
X14719606Y23244329D01*
X14886925Y23289162D01*
X15045172Y23359618D01*
X15190449Y23453962D01*
X15319178Y23569870D01*
X15428191Y23704489D01*
X15639802Y24071010D01*
X15701880Y24232727D01*
X15737894Y24402164D01*
X15746961Y24575150D01*
X15728854Y24747423D01*
X15684021Y24914742D01*
X15613566Y25072989D01*
X15519221Y25218266D01*
X15403313Y25346996D01*
X15403311Y25346998D01*
X15403308Y25347001D01*
X15268702Y25456002D01*
X15268698Y25456005D01*
X15268694Y25456008D01*
X15250958Y25466248D01*
X15118684Y25542617D01*
X15118679Y25542620D01*
X14956960Y25604698D01*
X14787529Y25640712D01*
X14787522Y25640713D01*
X14614545Y25649778D01*
X14614538Y25649778D01*
X14561645Y25644219D01*
X14442266Y25631671D01*
X14442263Y25631671D01*
X14442261Y25631670D01*
X14274948Y25586839D01*
X14274944Y25586837D01*
X14116706Y25516387D01*
X14116693Y25516379D01*
X13999240Y25440104D01*
X13932295Y25420100D01*
X13865163Y25439466D01*
X13819157Y25492051D01*
X13808885Y25561162D01*
X13810415Y25569881D01*
X13820961Y25619496D01*
X13820962Y25619502D01*
X13832082Y25831696D01*
X13832082Y25831705D01*
X13809870Y26043036D01*
X13754874Y26248284D01*
X13668442Y26442413D01*
X13552714Y26620620D01*
X13552710Y26620625D01*
X13410527Y26778534D01*
X13358494Y26820670D01*
X13358493Y26820670D01*
X12834451Y25913002D01*
X12795968Y25979657D01*
X12707530Y26068095D01*
X12599216Y26130630D01*
X12478408Y26163000D01*
X12401438Y26163000D01*
X12925482Y27070670D01*
X12862979Y27094662D01*
X12655133Y27138842D01*
X12655124Y27138843D01*
X12442931Y27149963D01*
X12442922Y27149963D01*
X12231590Y27127751D01*
X12026345Y27072756D01*
X11832213Y26986323D01*
X11654007Y26870596D01*
X11654002Y26870592D01*
X11496092Y26728408D01*
X11374310Y26578022D01*
X11374310Y26578021D01*
X12190872Y26106579D01*
X12124216Y26068095D01*
X12035778Y25979657D01*
X11973243Y25871343D01*
X11940873Y25750535D01*
X11940873Y25673568D01*
X11124311Y26145010D01*
X11124310Y26145009D01*
X11054963Y25964353D01*
X11010784Y25756508D01*
X11010783Y25756499D01*
X10999663Y25544306D01*
X1769932Y25544306D01*
X1756054Y25596100D01*
X1663224Y25820212D01*
X1541936Y26030289D01*
X1464942Y26130630D01*
X1394266Y26222737D01*
X1394260Y26222744D01*
X1222743Y26394261D01*
X1222736Y26394267D01*
X1067666Y26513256D01*
X1030293Y26541933D01*
X1030292Y26541934D01*
X1030289Y26541936D01*
X820212Y26663224D01*
X820205Y26663227D01*
X596104Y26756053D01*
X361785Y26818839D01*
X121289Y26850500D01*
X121288Y26850500D01*
X-121288Y26850500D01*
X-121289Y26850500D01*
X-361786Y26818839D01*
X-596105Y26756053D01*
X-820206Y26663227D01*
X-820215Y26663223D01*
X-1030294Y26541933D01*
X-1222737Y26394267D01*
X-1222744Y26394261D01*
X-1394261Y26222744D01*
X-1394267Y26222737D01*
X-1541933Y26030294D01*
X-1663223Y25820215D01*
X-1663227Y25820206D01*
X-1756053Y25596105D01*
X-1818839Y25361786D01*
X-1850500Y25121289D01*
X-21545079Y25121289D01*
X-20715428Y25810974D01*
X-20712153Y25813603D01*
X-19810902Y26511575D01*
X-19807586Y26514051D01*
X-18882795Y27180423D01*
X-18879355Y27182814D01*
X-17932051Y27816847D01*
X-17928529Y27819116D01*
X-16959929Y28419997D01*
X-16956276Y28422176D01*
X-15967482Y28989220D01*
X-15963835Y28991229D01*
X-14956000Y29523778D01*
X-14952264Y29525671D01*
X-13926617Y30023070D01*
X-13922830Y30024826D01*
X-12880640Y30486464D01*
X-12876731Y30488115D01*
X-11819254Y30913437D01*
X-11815290Y30914953D01*
X-10743692Y31303490D01*
X-10739727Y31304850D01*
X-9679163Y31648400D01*
X-8178801Y31648400D01*
X-8162801Y29154301D01*
X-8162800Y29154300D01*
X-5662800Y29154300D01*
X-5662800Y31654300D01*
X-5676429Y31651300D01*
X-5703087Y31648400D01*
X-8178801Y31648400D01*
X-9679163Y31648400D01*
X-9655340Y31656117D01*
X-9651298Y31657350D01*
X-8555431Y31970924D01*
X-8551385Y31972007D01*
X-7445315Y32247521D01*
X-7441204Y32248470D01*
X-6326276Y32485591D01*
X-6322177Y32486389D01*
X-5199718Y32684833D01*
X-5195586Y32685491D01*
X-4066929Y32845021D01*
X-4062701Y32845544D01*
X-2929282Y32965962D01*
X-2925047Y32966338D01*
X-1788134Y33047510D01*
X-1783861Y33047740D01*
X-644848Y33089568D01*
X-640618Y33089651D01*
X499242Y33092085D01*
X503462Y33092021D01*
G37*
%TD.AperFunction*%
%TD*%
M02*
