ISO-10303-21;
HEADER;
/* Generated by software containing ST-Developer
 * from STEP Tools, Inc. (www.steptools.com) 
 */

FILE_DESCRIPTION(
/* description */ (''),
/* implementation_level */ '2;1');

FILE_NAME(
/* name */ 'CameraCasingFIT0729Outside.step',
/* time_stamp */ '2026-08-11T14:43:02+02:00',
/* author */ (''),
/* organization */ (''),
/* preprocessor_version */ 'ST-DEVELOPER v20.1',
/* originating_system */ 'Autodesk Translation Framework v15.8.0.0',
/* authorisation */ '');

FILE_SCHEMA (('AUTOMOTIVE_DESIGN { 1 0 10303 214 3 1 1 }'));
ENDSEC;

DATA;
#10=MECHANICAL_DESIGN_GEOMETRIC_PRESENTATION_REPRESENTATION('',(#15,#16,
#17),#1197);
#11=SHAPE_REPRESENTATION_RELATIONSHIP('SRR','None',#1204,#12);
#12=ADVANCED_BREP_SHAPE_REPRESENTATION('',(#18,#19,#20),#1196);
#13=(
BOUNDED_SURFACE()
B_SPLINE_SURFACE(2,2,((#1118,#1119,#1120,#1121,#1122,#1123,#1124,#1125,
#1126),(#1127,#1128,#1129,#1130,#1131,#1132,#1133,#1134,#1135),(#1136,#1137,
#1138,#1139,#1140,#1141,#1142,#1143,#1144)),.UNSPECIFIED.,.F.,.T.,.F.)
B_SPLINE_SURFACE_WITH_KNOTS((3,3),(3,2,2,2,3),(0.,1.5707963267949),(-3.14159265358979,
-1.5707963267949,0.,1.5707963267949,3.14159265358979),.UNSPECIFIED.)
GEOMETRIC_REPRESENTATION_ITEM()
RATIONAL_B_SPLINE_SURFACE(((1.,0.707106781186548,1.,0.707106781186548,1.,
0.707106781186548,1.,0.707106781186548,1.),(0.707106781186542,0.499999999999996,
0.707106781186542,0.499999999999996,0.707106781186542,0.499999999999996,
0.707106781186542,0.499999999999996,0.707106781186542),(1.,0.707106781186548,
1.,0.707106781186548,1.,0.707106781186548,1.,0.707106781186548,1.)))
REPRESENTATION_ITEM('')
SURFACE()
);
#14=(
BOUNDED_SURFACE()
B_SPLINE_SURFACE(2,2,((#1156,#1157,#1158,#1159,#1160,#1161,#1162,#1163,
#1164),(#1165,#1166,#1167,#1168,#1169,#1170,#1171,#1172,#1173),(#1174,#1175,
#1176,#1177,#1178,#1179,#1180,#1181,#1182)),.UNSPECIFIED.,.F.,.T.,.F.)
B_SPLINE_SURFACE_WITH_KNOTS((3,3),(3,2,2,2,3),(0.,1.5707963267949),(-3.14159265358979,
-1.5707963267949,0.,1.5707963267949,3.14159265358979),.UNSPECIFIED.)
GEOMETRIC_REPRESENTATION_ITEM()
RATIONAL_B_SPLINE_SURFACE(((1.,0.707106781186548,1.,0.707106781186548,1.,
0.707106781186548,1.,0.707106781186548,1.),(0.707106781186542,0.499999999999996,
0.707106781186542,0.499999999999996,0.707106781186542,0.499999999999996,
0.707106781186542,0.499999999999996,0.707106781186542),(1.,0.707106781186548,
1.,0.707106781186548,1.,0.707106781186548,1.,0.707106781186548,1.)))
REPRESENTATION_ITEM('')
SURFACE()
);
#15=STYLED_ITEM('',(#1213),#18);
#16=STYLED_ITEM('',(#1213),#19);
#17=STYLED_ITEM('',(#1213),#20);
#18=MANIFOLD_SOLID_BREP('Body1',#691);
#19=MANIFOLD_SOLID_BREP('Body6',#692);
#20=MANIFOLD_SOLID_BREP('Body7',#693);
#21=CYLINDRICAL_SURFACE('',#737,1.15);
#22=CYLINDRICAL_SURFACE('',#740,1.15);
#23=CYLINDRICAL_SURFACE('',#743,1.15);
#24=CYLINDRICAL_SURFACE('',#746,1.15);
#25=CYLINDRICAL_SURFACE('',#752,1.00000001490116);
#26=CYLINDRICAL_SURFACE('',#759,1.00000001490116);
#27=CIRCLE('',#733,1.15);
#28=CIRCLE('',#734,1.15);
#29=CIRCLE('',#735,1.15);
#30=CIRCLE('',#736,1.15);
#31=CIRCLE('',#738,1.15);
#32=CIRCLE('',#741,1.15);
#33=CIRCLE('',#744,1.15);
#34=CIRCLE('',#747,1.15);
#35=CIRCLE('',#749,0.500000014901161);
#36=CIRCLE('',#750,0.5);
#37=CIRCLE('',#751,1.00000001490116);
#38=CIRCLE('',#753,1.00000001490116);
#39=CIRCLE('',#756,0.500000014901161);
#40=CIRCLE('',#757,0.5);
#41=CIRCLE('',#758,1.00000001490116);
#42=CIRCLE('',#760,1.00000001490116);
#43=FACE_BOUND('',#102,.T.);
#44=FACE_BOUND('',#118,.T.);
#45=FACE_BOUND('',#119,.T.);
#46=FACE_BOUND('',#120,.T.);
#47=FACE_BOUND('',#121,.T.);
#48=FACE_BOUND('',#122,.T.);
#49=FACE_OUTER_BOUND('',#91,.T.);
#50=FACE_OUTER_BOUND('',#92,.T.);
#51=FACE_OUTER_BOUND('',#93,.T.);
#52=FACE_OUTER_BOUND('',#94,.T.);
#53=FACE_OUTER_BOUND('',#95,.T.);
#54=FACE_OUTER_BOUND('',#96,.T.);
#55=FACE_OUTER_BOUND('',#97,.T.);
#56=FACE_OUTER_BOUND('',#98,.T.);
#57=FACE_OUTER_BOUND('',#99,.T.);
#58=FACE_OUTER_BOUND('',#100,.T.);
#59=FACE_OUTER_BOUND('',#101,.T.);
#60=FACE_OUTER_BOUND('',#103,.T.);
#61=FACE_OUTER_BOUND('',#104,.T.);
#62=FACE_OUTER_BOUND('',#105,.T.);
#63=FACE_OUTER_BOUND('',#106,.T.);
#64=FACE_OUTER_BOUND('',#107,.T.);
#65=FACE_OUTER_BOUND('',#108,.T.);
#66=FACE_OUTER_BOUND('',#109,.T.);
#67=FACE_OUTER_BOUND('',#110,.T.);
#68=FACE_OUTER_BOUND('',#111,.T.);
#69=FACE_OUTER_BOUND('',#112,.T.);
#70=FACE_OUTER_BOUND('',#113,.T.);
#71=FACE_OUTER_BOUND('',#114,.T.);
#72=FACE_OUTER_BOUND('',#115,.T.);
#73=FACE_OUTER_BOUND('',#116,.T.);
#74=FACE_OUTER_BOUND('',#117,.T.);
#75=FACE_OUTER_BOUND('',#123,.T.);
#76=FACE_OUTER_BOUND('',#124,.T.);
#77=FACE_OUTER_BOUND('',#125,.T.);
#78=FACE_OUTER_BOUND('',#126,.T.);
#79=FACE_OUTER_BOUND('',#127,.T.);
#80=FACE_OUTER_BOUND('',#128,.T.);
#81=FACE_OUTER_BOUND('',#129,.T.);
#82=FACE_OUTER_BOUND('',#130,.T.);
#83=FACE_OUTER_BOUND('',#131,.T.);
#84=FACE_OUTER_BOUND('',#132,.T.);
#85=FACE_OUTER_BOUND('',#133,.T.);
#86=FACE_OUTER_BOUND('',#134,.T.);
#87=FACE_OUTER_BOUND('',#135,.T.);
#88=FACE_OUTER_BOUND('',#136,.T.);
#89=FACE_OUTER_BOUND('',#137,.T.);
#90=FACE_OUTER_BOUND('',#138,.T.);
#91=EDGE_LOOP('',(#435,#436,#437,#438));
#92=EDGE_LOOP('',(#439,#440,#441,#442));
#93=EDGE_LOOP('',(#443,#444,#445,#446));
#94=EDGE_LOOP('',(#447,#448,#449,#450));
#95=EDGE_LOOP('',(#451,#452,#453,#454));
#96=EDGE_LOOP('',(#455,#456,#457,#458));
#97=EDGE_LOOP('',(#459,#460,#461,#462,#463,#464,#465,#466));
#98=EDGE_LOOP('',(#467,#468,#469,#470,#471,#472,#473,#474));
#99=EDGE_LOOP('',(#475,#476,#477,#478,#479,#480,#481,#482));
#100=EDGE_LOOP('',(#483,#484,#485,#486,#487,#488,#489,#490));
#101=EDGE_LOOP('',(#491,#492,#493,#494));
#102=EDGE_LOOP('',(#495,#496,#497,#498));
#103=EDGE_LOOP('',(#499,#500,#501,#502));
#104=EDGE_LOOP('',(#503,#504,#505,#506));
#105=EDGE_LOOP('',(#507,#508,#509,#510,#511,#512,#513,#514));
#106=EDGE_LOOP('',(#515,#516,#517,#518));
#107=EDGE_LOOP('',(#519,#520,#521,#522));
#108=EDGE_LOOP('',(#523,#524,#525,#526,#527,#528,#529,#530));
#109=EDGE_LOOP('',(#531,#532,#533,#534));
#110=EDGE_LOOP('',(#535,#536,#537,#538));
#111=EDGE_LOOP('',(#539,#540,#541,#542));
#112=EDGE_LOOP('',(#543,#544,#545,#546));
#113=EDGE_LOOP('',(#547,#548,#549,#550));
#114=EDGE_LOOP('',(#551,#552,#553,#554));
#115=EDGE_LOOP('',(#555,#556,#557,#558));
#116=EDGE_LOOP('',(#559,#560,#561,#562));
#117=EDGE_LOOP('',(#563,#564,#565,#566));
#118=EDGE_LOOP('',(#567,#568,#569,#570));
#119=EDGE_LOOP('',(#571));
#120=EDGE_LOOP('',(#572));
#121=EDGE_LOOP('',(#573));
#122=EDGE_LOOP('',(#574));
#123=EDGE_LOOP('',(#575,#576,#577,#578));
#124=EDGE_LOOP('',(#579));
#125=EDGE_LOOP('',(#580,#581,#582,#583));
#126=EDGE_LOOP('',(#584));
#127=EDGE_LOOP('',(#585,#586,#587,#588));
#128=EDGE_LOOP('',(#589));
#129=EDGE_LOOP('',(#590,#591,#592,#593));
#130=EDGE_LOOP('',(#594));
#131=EDGE_LOOP('',(#595,#596,#597,#598));
#132=EDGE_LOOP('',(#599,#600,#601,#602));
#133=EDGE_LOOP('',(#603));
#134=EDGE_LOOP('',(#604));
#135=EDGE_LOOP('',(#605,#606,#607,#608));
#136=EDGE_LOOP('',(#609,#610,#611,#612));
#137=EDGE_LOOP('',(#613));
#138=EDGE_LOOP('',(#614));
#139=LINE('',#955,#213);
#140=LINE('',#957,#214);
#141=LINE('',#959,#215);
#142=LINE('',#960,#216);
#143=LINE('',#964,#217);
#144=LINE('',#966,#218);
#145=LINE('',#968,#219);
#146=LINE('',#969,#220);
#147=LINE('',#972,#221);
#148=LINE('',#974,#222);
#149=LINE('',#975,#223);
#150=LINE('',#978,#224);
#151=LINE('',#980,#225);
#152=LINE('',#981,#226);
#153=LINE('',#985,#227);
#154=LINE('',#987,#228);
#155=LINE('',#989,#229);
#156=LINE('',#990,#230);
#157=LINE('',#992,#231);
#158=LINE('',#993,#232);
#159=LINE('',#996,#233);
#160=LINE('',#998,#234);
#161=LINE('',#1000,#235);
#162=LINE('',#1002,#236);
#163=LINE('',#1003,#237);
#164=LINE('',#1006,#238);
#165=LINE('',#1008,#239);
#166=LINE('',#1010,#240);
#167=LINE('',#1012,#241);
#168=LINE('',#1013,#242);
#169=LINE('',#1016,#243);
#170=LINE('',#1017,#244);
#171=LINE('',#1019,#245);
#172=LINE('',#1020,#246);
#173=LINE('',#1023,#247);
#174=LINE('',#1024,#248);
#175=LINE('',#1026,#249);
#176=LINE('',#1027,#250);
#177=LINE('',#1030,#251);
#178=LINE('',#1032,#252);
#179=LINE('',#1033,#253);
#180=LINE('',#1036,#254);
#181=LINE('',#1038,#255);
#182=LINE('',#1040,#256);
#183=LINE('',#1041,#257);
#184=LINE('',#1043,#258);
#185=LINE('',#1045,#259);
#186=LINE('',#1049,#260);
#187=LINE('',#1050,#261);
#188=LINE('',#1053,#262);
#189=LINE('',#1054,#263);
#190=LINE('',#1056,#264);
#191=LINE('',#1059,#265);
#192=LINE('',#1061,#266);
#193=LINE('',#1062,#267);
#194=LINE('',#1065,#268);
#195=LINE('',#1066,#269);
#196=LINE('',#1069,#270);
#197=LINE('',#1070,#271);
#198=LINE('',#1072,#272);
#199=LINE('',#1075,#273);
#200=LINE('',#1077,#274);
#201=LINE('',#1078,#275);
#202=LINE('',#1081,#276);
#203=LINE('',#1082,#277);
#204=LINE('',#1085,#278);
#205=LINE('',#1086,#279);
#206=LINE('',#1088,#280);
#207=LINE('',#1101,#281);
#208=LINE('',#1106,#282);
#209=LINE('',#1111,#283);
#210=LINE('',#1116,#284);
#211=LINE('',#1152,#285);
#212=LINE('',#1190,#286);
#213=VECTOR('',#767,10.);
#214=VECTOR('',#768,10.);
#215=VECTOR('',#769,10.);
#216=VECTOR('',#770,10.);
#217=VECTOR('',#773,10.);
#218=VECTOR('',#774,10.);
#219=VECTOR('',#775,10.);
#220=VECTOR('',#776,10.);
#221=VECTOR('',#779,10.);
#222=VECTOR('',#780,10.);
#223=VECTOR('',#781,10.);
#224=VECTOR('',#784,10.);
#225=VECTOR('',#785,10.);
#226=VECTOR('',#786,10.);
#227=VECTOR('',#789,10.);
#228=VECTOR('',#790,10.);
#229=VECTOR('',#791,10.);
#230=VECTOR('',#792,10.);
#231=VECTOR('',#795,10.);
#232=VECTOR('',#796,10.);
#233=VECTOR('',#799,10.);
#234=VECTOR('',#800,10.);
#235=VECTOR('',#801,10.);
#236=VECTOR('',#802,10.);
#237=VECTOR('',#803,10.);
#238=VECTOR('',#806,10.);
#239=VECTOR('',#807,10.);
#240=VECTOR('',#808,10.);
#241=VECTOR('',#809,10.);
#242=VECTOR('',#810,10.);
#243=VECTOR('',#813,10.);
#244=VECTOR('',#814,10.);
#245=VECTOR('',#815,10.);
#246=VECTOR('',#816,10.);
#247=VECTOR('',#819,10.);
#248=VECTOR('',#820,10.);
#249=VECTOR('',#821,10.);
#250=VECTOR('',#822,10.);
#251=VECTOR('',#825,10.);
#252=VECTOR('',#826,10.);
#253=VECTOR('',#827,10.);
#254=VECTOR('',#828,10.);
#255=VECTOR('',#829,10.);
#256=VECTOR('',#830,10.);
#257=VECTOR('',#831,10.);
#258=VECTOR('',#834,10.);
#259=VECTOR('',#837,10.);
#260=VECTOR('',#842,10.);
#261=VECTOR('',#843,10.);
#262=VECTOR('',#846,10.);
#263=VECTOR('',#847,10.);
#264=VECTOR('',#850,10.);
#265=VECTOR('',#853,10.);
#266=VECTOR('',#854,10.);
#267=VECTOR('',#855,10.);
#268=VECTOR('',#858,10.);
#269=VECTOR('',#859,10.);
#270=VECTOR('',#862,10.);
#271=VECTOR('',#863,10.);
#272=VECTOR('',#866,10.);
#273=VECTOR('',#869,10.);
#274=VECTOR('',#870,10.);
#275=VECTOR('',#871,10.);
#276=VECTOR('',#874,10.);
#277=VECTOR('',#875,10.);
#278=VECTOR('',#878,10.);
#279=VECTOR('',#879,10.);
#280=VECTOR('',#882,10.);
#281=VECTOR('',#897,1.15);
#282=VECTOR('',#904,1.15);
#283=VECTOR('',#911,1.15);
#284=VECTOR('',#918,1.15);
#285=VECTOR('',#929,1.00000001490116);
#286=VECTOR('',#944,1.00000001490116);
#287=VERTEX_POINT('',#953);
#288=VERTEX_POINT('',#954);
#289=VERTEX_POINT('',#956);
#290=VERTEX_POINT('',#958);
#291=VERTEX_POINT('',#962);
#292=VERTEX_POINT('',#963);
#293=VERTEX_POINT('',#965);
#294=VERTEX_POINT('',#967);
#295=VERTEX_POINT('',#971);
#296=VERTEX_POINT('',#973);
#297=VERTEX_POINT('',#977);
#298=VERTEX_POINT('',#979);
#299=VERTEX_POINT('',#983);
#300=VERTEX_POINT('',#984);
#301=VERTEX_POINT('',#986);
#302=VERTEX_POINT('',#988);
#303=VERTEX_POINT('',#995);
#304=VERTEX_POINT('',#997);
#305=VERTEX_POINT('',#999);
#306=VERTEX_POINT('',#1001);
#307=VERTEX_POINT('',#1005);
#308=VERTEX_POINT('',#1007);
#309=VERTEX_POINT('',#1009);
#310=VERTEX_POINT('',#1011);
#311=VERTEX_POINT('',#1015);
#312=VERTEX_POINT('',#1018);
#313=VERTEX_POINT('',#1022);
#314=VERTEX_POINT('',#1025);
#315=VERTEX_POINT('',#1029);
#316=VERTEX_POINT('',#1031);
#317=VERTEX_POINT('',#1034);
#318=VERTEX_POINT('',#1035);
#319=VERTEX_POINT('',#1037);
#320=VERTEX_POINT('',#1039);
#321=VERTEX_POINT('',#1048);
#322=VERTEX_POINT('',#1052);
#323=VERTEX_POINT('',#1058);
#324=VERTEX_POINT('',#1060);
#325=VERTEX_POINT('',#1064);
#326=VERTEX_POINT('',#1068);
#327=VERTEX_POINT('',#1074);
#328=VERTEX_POINT('',#1076);
#329=VERTEX_POINT('',#1080);
#330=VERTEX_POINT('',#1084);
#331=VERTEX_POINT('',#1090);
#332=VERTEX_POINT('',#1092);
#333=VERTEX_POINT('',#1094);
#334=VERTEX_POINT('',#1096);
#335=VERTEX_POINT('',#1099);
#336=VERTEX_POINT('',#1104);
#337=VERTEX_POINT('',#1109);
#338=VERTEX_POINT('',#1114);
#339=VERTEX_POINT('',#1145);
#340=VERTEX_POINT('',#1147);
#341=VERTEX_POINT('',#1151);
#342=VERTEX_POINT('',#1183);
#343=VERTEX_POINT('',#1185);
#344=VERTEX_POINT('',#1189);
#345=EDGE_CURVE('',#287,#288,#139,.T.);
#346=EDGE_CURVE('',#289,#287,#140,.T.);
#347=EDGE_CURVE('',#290,#289,#141,.T.);
#348=EDGE_CURVE('',#290,#288,#142,.T.);
#349=EDGE_CURVE('',#291,#292,#143,.T.);
#350=EDGE_CURVE('',#291,#293,#144,.T.);
#351=EDGE_CURVE('',#294,#293,#145,.T.);
#352=EDGE_CURVE('',#292,#294,#146,.T.);
#353=EDGE_CURVE('',#288,#295,#147,.T.);
#354=EDGE_CURVE('',#296,#290,#148,.T.);
#355=EDGE_CURVE('',#295,#296,#149,.T.);
#356=EDGE_CURVE('',#295,#297,#150,.T.);
#357=EDGE_CURVE('',#298,#296,#151,.T.);
#358=EDGE_CURVE('',#297,#298,#152,.T.);
#359=EDGE_CURVE('',#299,#300,#153,.T.);
#360=EDGE_CURVE('',#301,#299,#154,.T.);
#361=EDGE_CURVE('',#302,#301,#155,.T.);
#362=EDGE_CURVE('',#302,#300,#156,.T.);
#363=EDGE_CURVE('',#300,#291,#157,.T.);
#364=EDGE_CURVE('',#293,#302,#158,.T.);
#365=EDGE_CURVE('',#303,#301,#159,.T.);
#366=EDGE_CURVE('',#303,#304,#160,.T.);
#367=EDGE_CURVE('',#304,#305,#161,.T.);
#368=EDGE_CURVE('',#306,#305,#162,.T.);
#369=EDGE_CURVE('',#294,#306,#163,.T.);
#370=EDGE_CURVE('',#297,#307,#164,.T.);
#371=EDGE_CURVE('',#307,#308,#165,.T.);
#372=EDGE_CURVE('',#308,#309,#166,.T.);
#373=EDGE_CURVE('',#310,#309,#167,.T.);
#374=EDGE_CURVE('',#310,#287,#168,.T.);
#375=EDGE_CURVE('',#311,#299,#169,.T.);
#376=EDGE_CURVE('',#307,#311,#170,.T.);
#377=EDGE_CURVE('',#298,#312,#171,.T.);
#378=EDGE_CURVE('',#312,#303,#172,.T.);
#379=EDGE_CURVE('',#306,#313,#173,.T.);
#380=EDGE_CURVE('',#313,#289,#174,.T.);
#381=EDGE_CURVE('',#314,#310,#175,.T.);
#382=EDGE_CURVE('',#292,#314,#176,.T.);
#383=EDGE_CURVE('',#315,#304,#177,.T.);
#384=EDGE_CURVE('',#316,#315,#178,.T.);
#385=EDGE_CURVE('',#305,#316,#179,.T.);
#386=EDGE_CURVE('',#317,#318,#180,.T.);
#387=EDGE_CURVE('',#319,#317,#181,.T.);
#388=EDGE_CURVE('',#320,#319,#182,.T.);
#389=EDGE_CURVE('',#318,#320,#183,.T.);
#390=EDGE_CURVE('',#312,#315,#184,.T.);
#391=EDGE_CURVE('',#313,#316,#185,.T.);
#392=EDGE_CURVE('',#309,#321,#186,.T.);
#393=EDGE_CURVE('',#314,#321,#187,.T.);
#394=EDGE_CURVE('',#311,#322,#188,.T.);
#395=EDGE_CURVE('',#322,#308,#189,.T.);
#396=EDGE_CURVE('',#321,#322,#190,.T.);
#397=EDGE_CURVE('',#322,#323,#191,.T.);
#398=EDGE_CURVE('',#324,#323,#192,.T.);
#399=EDGE_CURVE('',#308,#324,#193,.T.);
#400=EDGE_CURVE('',#325,#324,#194,.T.);
#401=EDGE_CURVE('',#309,#325,#195,.T.);
#402=EDGE_CURVE('',#326,#325,#196,.T.);
#403=EDGE_CURVE('',#321,#326,#197,.T.);
#404=EDGE_CURVE('',#323,#326,#198,.T.);
#405=EDGE_CURVE('',#318,#327,#199,.T.);
#406=EDGE_CURVE('',#328,#327,#200,.T.);
#407=EDGE_CURVE('',#317,#328,#201,.T.);
#408=EDGE_CURVE('',#329,#328,#202,.T.);
#409=EDGE_CURVE('',#319,#329,#203,.T.);
#410=EDGE_CURVE('',#330,#329,#204,.T.);
#411=EDGE_CURVE('',#320,#330,#205,.T.);
#412=EDGE_CURVE('',#327,#330,#206,.T.);
#413=EDGE_CURVE('',#331,#331,#27,.T.);
#414=EDGE_CURVE('',#332,#332,#28,.T.);
#415=EDGE_CURVE('',#333,#333,#29,.T.);
#416=EDGE_CURVE('',#334,#334,#30,.T.);
#417=EDGE_CURVE('',#335,#335,#31,.T.);
#418=EDGE_CURVE('',#335,#331,#207,.T.);
#419=EDGE_CURVE('',#336,#336,#32,.T.);
#420=EDGE_CURVE('',#336,#332,#208,.T.);
#421=EDGE_CURVE('',#337,#337,#33,.T.);
#422=EDGE_CURVE('',#337,#333,#209,.T.);
#423=EDGE_CURVE('',#338,#338,#34,.T.);
#424=EDGE_CURVE('',#338,#334,#210,.T.);
#425=EDGE_CURVE('',#339,#339,#35,.T.);
#426=EDGE_CURVE('',#339,#340,#36,.T.);
#427=EDGE_CURVE('',#340,#340,#37,.T.);
#428=EDGE_CURVE('',#340,#341,#211,.T.);
#429=EDGE_CURVE('',#341,#341,#38,.T.);
#430=EDGE_CURVE('',#342,#342,#39,.T.);
#431=EDGE_CURVE('',#342,#343,#40,.T.);
#432=EDGE_CURVE('',#343,#343,#41,.T.);
#433=EDGE_CURVE('',#343,#344,#212,.T.);
#434=EDGE_CURVE('',#344,#344,#42,.T.);
#435=ORIENTED_EDGE('',*,*,#345,.F.);
#436=ORIENTED_EDGE('',*,*,#346,.F.);
#437=ORIENTED_EDGE('',*,*,#347,.F.);
#438=ORIENTED_EDGE('',*,*,#348,.T.);
#439=ORIENTED_EDGE('',*,*,#349,.F.);
#440=ORIENTED_EDGE('',*,*,#350,.T.);
#441=ORIENTED_EDGE('',*,*,#351,.F.);
#442=ORIENTED_EDGE('',*,*,#352,.F.);
#443=ORIENTED_EDGE('',*,*,#353,.F.);
#444=ORIENTED_EDGE('',*,*,#348,.F.);
#445=ORIENTED_EDGE('',*,*,#354,.F.);
#446=ORIENTED_EDGE('',*,*,#355,.F.);
#447=ORIENTED_EDGE('',*,*,#356,.F.);
#448=ORIENTED_EDGE('',*,*,#355,.T.);
#449=ORIENTED_EDGE('',*,*,#357,.F.);
#450=ORIENTED_EDGE('',*,*,#358,.F.);
#451=ORIENTED_EDGE('',*,*,#359,.F.);
#452=ORIENTED_EDGE('',*,*,#360,.F.);
#453=ORIENTED_EDGE('',*,*,#361,.F.);
#454=ORIENTED_EDGE('',*,*,#362,.T.);
#455=ORIENTED_EDGE('',*,*,#363,.F.);
#456=ORIENTED_EDGE('',*,*,#362,.F.);
#457=ORIENTED_EDGE('',*,*,#364,.F.);
#458=ORIENTED_EDGE('',*,*,#350,.F.);
#459=ORIENTED_EDGE('',*,*,#351,.T.);
#460=ORIENTED_EDGE('',*,*,#364,.T.);
#461=ORIENTED_EDGE('',*,*,#361,.T.);
#462=ORIENTED_EDGE('',*,*,#365,.F.);
#463=ORIENTED_EDGE('',*,*,#366,.T.);
#464=ORIENTED_EDGE('',*,*,#367,.T.);
#465=ORIENTED_EDGE('',*,*,#368,.F.);
#466=ORIENTED_EDGE('',*,*,#369,.F.);
#467=ORIENTED_EDGE('',*,*,#345,.T.);
#468=ORIENTED_EDGE('',*,*,#353,.T.);
#469=ORIENTED_EDGE('',*,*,#356,.T.);
#470=ORIENTED_EDGE('',*,*,#370,.T.);
#471=ORIENTED_EDGE('',*,*,#371,.T.);
#472=ORIENTED_EDGE('',*,*,#372,.T.);
#473=ORIENTED_EDGE('',*,*,#373,.F.);
#474=ORIENTED_EDGE('',*,*,#374,.T.);
#475=ORIENTED_EDGE('',*,*,#360,.T.);
#476=ORIENTED_EDGE('',*,*,#375,.F.);
#477=ORIENTED_EDGE('',*,*,#376,.F.);
#478=ORIENTED_EDGE('',*,*,#370,.F.);
#479=ORIENTED_EDGE('',*,*,#358,.T.);
#480=ORIENTED_EDGE('',*,*,#377,.T.);
#481=ORIENTED_EDGE('',*,*,#378,.T.);
#482=ORIENTED_EDGE('',*,*,#365,.T.);
#483=ORIENTED_EDGE('',*,*,#352,.T.);
#484=ORIENTED_EDGE('',*,*,#369,.T.);
#485=ORIENTED_EDGE('',*,*,#379,.T.);
#486=ORIENTED_EDGE('',*,*,#380,.T.);
#487=ORIENTED_EDGE('',*,*,#346,.T.);
#488=ORIENTED_EDGE('',*,*,#374,.F.);
#489=ORIENTED_EDGE('',*,*,#381,.F.);
#490=ORIENTED_EDGE('',*,*,#382,.F.);
#491=ORIENTED_EDGE('',*,*,#383,.F.);
#492=ORIENTED_EDGE('',*,*,#384,.F.);
#493=ORIENTED_EDGE('',*,*,#385,.F.);
#494=ORIENTED_EDGE('',*,*,#367,.F.);
#495=ORIENTED_EDGE('',*,*,#386,.F.);
#496=ORIENTED_EDGE('',*,*,#387,.F.);
#497=ORIENTED_EDGE('',*,*,#388,.F.);
#498=ORIENTED_EDGE('',*,*,#389,.F.);
#499=ORIENTED_EDGE('',*,*,#378,.F.);
#500=ORIENTED_EDGE('',*,*,#390,.T.);
#501=ORIENTED_EDGE('',*,*,#383,.T.);
#502=ORIENTED_EDGE('',*,*,#366,.F.);
#503=ORIENTED_EDGE('',*,*,#379,.F.);
#504=ORIENTED_EDGE('',*,*,#368,.T.);
#505=ORIENTED_EDGE('',*,*,#385,.T.);
#506=ORIENTED_EDGE('',*,*,#391,.F.);
#507=ORIENTED_EDGE('',*,*,#347,.T.);
#508=ORIENTED_EDGE('',*,*,#380,.F.);
#509=ORIENTED_EDGE('',*,*,#391,.T.);
#510=ORIENTED_EDGE('',*,*,#384,.T.);
#511=ORIENTED_EDGE('',*,*,#390,.F.);
#512=ORIENTED_EDGE('',*,*,#377,.F.);
#513=ORIENTED_EDGE('',*,*,#357,.T.);
#514=ORIENTED_EDGE('',*,*,#354,.T.);
#515=ORIENTED_EDGE('',*,*,#381,.T.);
#516=ORIENTED_EDGE('',*,*,#373,.T.);
#517=ORIENTED_EDGE('',*,*,#392,.T.);
#518=ORIENTED_EDGE('',*,*,#393,.F.);
#519=ORIENTED_EDGE('',*,*,#376,.T.);
#520=ORIENTED_EDGE('',*,*,#394,.T.);
#521=ORIENTED_EDGE('',*,*,#395,.T.);
#522=ORIENTED_EDGE('',*,*,#371,.F.);
#523=ORIENTED_EDGE('',*,*,#349,.T.);
#524=ORIENTED_EDGE('',*,*,#382,.T.);
#525=ORIENTED_EDGE('',*,*,#393,.T.);
#526=ORIENTED_EDGE('',*,*,#396,.T.);
#527=ORIENTED_EDGE('',*,*,#394,.F.);
#528=ORIENTED_EDGE('',*,*,#375,.T.);
#529=ORIENTED_EDGE('',*,*,#359,.T.);
#530=ORIENTED_EDGE('',*,*,#363,.T.);
#531=ORIENTED_EDGE('',*,*,#395,.F.);
#532=ORIENTED_EDGE('',*,*,#397,.T.);
#533=ORIENTED_EDGE('',*,*,#398,.F.);
#534=ORIENTED_EDGE('',*,*,#399,.F.);
#535=ORIENTED_EDGE('',*,*,#372,.F.);
#536=ORIENTED_EDGE('',*,*,#399,.T.);
#537=ORIENTED_EDGE('',*,*,#400,.F.);
#538=ORIENTED_EDGE('',*,*,#401,.F.);
#539=ORIENTED_EDGE('',*,*,#392,.F.);
#540=ORIENTED_EDGE('',*,*,#401,.T.);
#541=ORIENTED_EDGE('',*,*,#402,.F.);
#542=ORIENTED_EDGE('',*,*,#403,.F.);
#543=ORIENTED_EDGE('',*,*,#396,.F.);
#544=ORIENTED_EDGE('',*,*,#403,.T.);
#545=ORIENTED_EDGE('',*,*,#404,.F.);
#546=ORIENTED_EDGE('',*,*,#397,.F.);
#547=ORIENTED_EDGE('',*,*,#386,.T.);
#548=ORIENTED_EDGE('',*,*,#405,.T.);
#549=ORIENTED_EDGE('',*,*,#406,.F.);
#550=ORIENTED_EDGE('',*,*,#407,.F.);
#551=ORIENTED_EDGE('',*,*,#387,.T.);
#552=ORIENTED_EDGE('',*,*,#407,.T.);
#553=ORIENTED_EDGE('',*,*,#408,.F.);
#554=ORIENTED_EDGE('',*,*,#409,.F.);
#555=ORIENTED_EDGE('',*,*,#388,.T.);
#556=ORIENTED_EDGE('',*,*,#409,.T.);
#557=ORIENTED_EDGE('',*,*,#410,.F.);
#558=ORIENTED_EDGE('',*,*,#411,.F.);
#559=ORIENTED_EDGE('',*,*,#389,.T.);
#560=ORIENTED_EDGE('',*,*,#411,.T.);
#561=ORIENTED_EDGE('',*,*,#412,.F.);
#562=ORIENTED_EDGE('',*,*,#405,.F.);
#563=ORIENTED_EDGE('',*,*,#404,.T.);
#564=ORIENTED_EDGE('',*,*,#402,.T.);
#565=ORIENTED_EDGE('',*,*,#400,.T.);
#566=ORIENTED_EDGE('',*,*,#398,.T.);
#567=ORIENTED_EDGE('',*,*,#412,.T.);
#568=ORIENTED_EDGE('',*,*,#410,.T.);
#569=ORIENTED_EDGE('',*,*,#408,.T.);
#570=ORIENTED_EDGE('',*,*,#406,.T.);
#571=ORIENTED_EDGE('',*,*,#413,.F.);
#572=ORIENTED_EDGE('',*,*,#414,.F.);
#573=ORIENTED_EDGE('',*,*,#415,.F.);
#574=ORIENTED_EDGE('',*,*,#416,.F.);
#575=ORIENTED_EDGE('',*,*,#417,.F.);
#576=ORIENTED_EDGE('',*,*,#418,.T.);
#577=ORIENTED_EDGE('',*,*,#413,.T.);
#578=ORIENTED_EDGE('',*,*,#418,.F.);
#579=ORIENTED_EDGE('',*,*,#417,.T.);
#580=ORIENTED_EDGE('',*,*,#419,.F.);
#581=ORIENTED_EDGE('',*,*,#420,.T.);
#582=ORIENTED_EDGE('',*,*,#414,.T.);
#583=ORIENTED_EDGE('',*,*,#420,.F.);
#584=ORIENTED_EDGE('',*,*,#419,.T.);
#585=ORIENTED_EDGE('',*,*,#421,.F.);
#586=ORIENTED_EDGE('',*,*,#422,.T.);
#587=ORIENTED_EDGE('',*,*,#415,.T.);
#588=ORIENTED_EDGE('',*,*,#422,.F.);
#589=ORIENTED_EDGE('',*,*,#421,.T.);
#590=ORIENTED_EDGE('',*,*,#423,.F.);
#591=ORIENTED_EDGE('',*,*,#424,.T.);
#592=ORIENTED_EDGE('',*,*,#416,.T.);
#593=ORIENTED_EDGE('',*,*,#424,.F.);
#594=ORIENTED_EDGE('',*,*,#423,.T.);
#595=ORIENTED_EDGE('',*,*,#425,.T.);
#596=ORIENTED_EDGE('',*,*,#426,.T.);
#597=ORIENTED_EDGE('',*,*,#427,.T.);
#598=ORIENTED_EDGE('',*,*,#426,.F.);
#599=ORIENTED_EDGE('',*,*,#427,.F.);
#600=ORIENTED_EDGE('',*,*,#428,.T.);
#601=ORIENTED_EDGE('',*,*,#429,.T.);
#602=ORIENTED_EDGE('',*,*,#428,.F.);
#603=ORIENTED_EDGE('',*,*,#425,.F.);
#604=ORIENTED_EDGE('',*,*,#429,.F.);
#605=ORIENTED_EDGE('',*,*,#430,.T.);
#606=ORIENTED_EDGE('',*,*,#431,.T.);
#607=ORIENTED_EDGE('',*,*,#432,.T.);
#608=ORIENTED_EDGE('',*,*,#431,.F.);
#609=ORIENTED_EDGE('',*,*,#432,.F.);
#610=ORIENTED_EDGE('',*,*,#433,.T.);
#611=ORIENTED_EDGE('',*,*,#434,.T.);
#612=ORIENTED_EDGE('',*,*,#433,.F.);
#613=ORIENTED_EDGE('',*,*,#430,.F.);
#614=ORIENTED_EDGE('',*,*,#434,.F.);
#615=PLANE('',#707);
#616=PLANE('',#708);
#617=PLANE('',#709);
#618=PLANE('',#710);
#619=PLANE('',#711);
#620=PLANE('',#712);
#621=PLANE('',#713);
#622=PLANE('',#714);
#623=PLANE('',#715);
#624=PLANE('',#716);
#625=PLANE('',#717);
#626=PLANE('',#718);
#627=PLANE('',#719);
#628=PLANE('',#720);
#629=PLANE('',#721);
#630=PLANE('',#722);
#631=PLANE('',#723);
#632=PLANE('',#724);
#633=PLANE('',#725);
#634=PLANE('',#726);
#635=PLANE('',#727);
#636=PLANE('',#728);
#637=PLANE('',#729);
#638=PLANE('',#730);
#639=PLANE('',#731);
#640=PLANE('',#732);
#641=PLANE('',#739);
#642=PLANE('',#742);
#643=PLANE('',#745);
#644=PLANE('',#748);
#645=PLANE('',#754);
#646=PLANE('',#755);
#647=PLANE('',#761);
#648=PLANE('',#762);
#649=ADVANCED_FACE('',(#49),#615,.F.);
#650=ADVANCED_FACE('',(#50),#616,.F.);
#651=ADVANCED_FACE('',(#51),#617,.F.);
#652=ADVANCED_FACE('',(#52),#618,.F.);
#653=ADVANCED_FACE('',(#53),#619,.F.);
#654=ADVANCED_FACE('',(#54),#620,.F.);
#655=ADVANCED_FACE('',(#55),#621,.F.);
#656=ADVANCED_FACE('',(#56),#622,.T.);
#657=ADVANCED_FACE('',(#57),#623,.F.);
#658=ADVANCED_FACE('',(#58),#624,.F.);
#659=ADVANCED_FACE('',(#59,#43),#625,.F.);
#660=ADVANCED_FACE('',(#60),#626,.F.);
#661=ADVANCED_FACE('',(#61),#627,.F.);
#662=ADVANCED_FACE('',(#62),#628,.F.);
#663=ADVANCED_FACE('',(#63),#629,.T.);
#664=ADVANCED_FACE('',(#64),#630,.T.);
#665=ADVANCED_FACE('',(#65),#631,.T.);
#666=ADVANCED_FACE('',(#66),#632,.T.);
#667=ADVANCED_FACE('',(#67),#633,.T.);
#668=ADVANCED_FACE('',(#68),#634,.T.);
#669=ADVANCED_FACE('',(#69),#635,.T.);
#670=ADVANCED_FACE('',(#70),#636,.T.);
#671=ADVANCED_FACE('',(#71),#637,.T.);
#672=ADVANCED_FACE('',(#72),#638,.T.);
#673=ADVANCED_FACE('',(#73),#639,.T.);
#674=ADVANCED_FACE('',(#74,#44,#45,#46,#47,#48),#640,.T.);
#675=ADVANCED_FACE('',(#75),#21,.T.);
#676=ADVANCED_FACE('',(#76),#641,.T.);
#677=ADVANCED_FACE('',(#77),#22,.T.);
#678=ADVANCED_FACE('',(#78),#642,.T.);
#679=ADVANCED_FACE('',(#79),#23,.T.);
#680=ADVANCED_FACE('',(#80),#643,.T.);
#681=ADVANCED_FACE('',(#81),#24,.T.);
#682=ADVANCED_FACE('',(#82),#644,.T.);
#683=ADVANCED_FACE('',(#83),#13,.F.);
#684=ADVANCED_FACE('',(#84),#25,.T.);
#685=ADVANCED_FACE('',(#85),#645,.T.);
#686=ADVANCED_FACE('',(#86),#646,.F.);
#687=ADVANCED_FACE('',(#87),#14,.F.);
#688=ADVANCED_FACE('',(#88),#26,.T.);
#689=ADVANCED_FACE('',(#89),#647,.T.);
#690=ADVANCED_FACE('',(#90),#648,.F.);
#691=CLOSED_SHELL('',(#649,#650,#651,#652,#653,#654,#655,#656,#657,#658,
#659,#660,#661,#662,#663,#664,#665,#666,#667,#668,#669,#670,#671,#672,#673,
#674,#675,#676,#677,#678,#679,#680,#681,#682));
#692=CLOSED_SHELL('',(#683,#684,#685,#686));
#693=CLOSED_SHELL('',(#687,#688,#689,#690));
#694=DERIVED_UNIT_ELEMENT(#696,1.);
#695=DERIVED_UNIT_ELEMENT(#1199,-3.);
#696=(
MASS_UNIT()
NAMED_UNIT(*)
SI_UNIT(.KILO.,.GRAM.)
);
#697=DERIVED_UNIT((#694,#695));
#698=MEASURE_REPRESENTATION_ITEM('density measure',
POSITIVE_RATIO_MEASURE(7850.),#697);
#699=PROPERTY_DEFINITION_REPRESENTATION(#704,#701);
#700=PROPERTY_DEFINITION_REPRESENTATION(#705,#702);
#701=REPRESENTATION('material name',(#703),#1196);
#702=REPRESENTATION('density',(#698),#1196);
#703=DESCRIPTIVE_REPRESENTATION_ITEM('Steel','Steel');
#704=PROPERTY_DEFINITION('material property','material name',#1206);
#705=PROPERTY_DEFINITION('material property','density of part',#1206);
#706=AXIS2_PLACEMENT_3D('',#951,#763,#764);
#707=AXIS2_PLACEMENT_3D('',#952,#765,#766);
#708=AXIS2_PLACEMENT_3D('',#961,#771,#772);
#709=AXIS2_PLACEMENT_3D('',#970,#777,#778);
#710=AXIS2_PLACEMENT_3D('',#976,#782,#783);
#711=AXIS2_PLACEMENT_3D('',#982,#787,#788);
#712=AXIS2_PLACEMENT_3D('',#991,#793,#794);
#713=AXIS2_PLACEMENT_3D('',#994,#797,#798);
#714=AXIS2_PLACEMENT_3D('',#1004,#804,#805);
#715=AXIS2_PLACEMENT_3D('',#1014,#811,#812);
#716=AXIS2_PLACEMENT_3D('',#1021,#817,#818);
#717=AXIS2_PLACEMENT_3D('',#1028,#823,#824);
#718=AXIS2_PLACEMENT_3D('',#1042,#832,#833);
#719=AXIS2_PLACEMENT_3D('',#1044,#835,#836);
#720=AXIS2_PLACEMENT_3D('',#1046,#838,#839);
#721=AXIS2_PLACEMENT_3D('',#1047,#840,#841);
#722=AXIS2_PLACEMENT_3D('',#1051,#844,#845);
#723=AXIS2_PLACEMENT_3D('',#1055,#848,#849);
#724=AXIS2_PLACEMENT_3D('',#1057,#851,#852);
#725=AXIS2_PLACEMENT_3D('',#1063,#856,#857);
#726=AXIS2_PLACEMENT_3D('',#1067,#860,#861);
#727=AXIS2_PLACEMENT_3D('',#1071,#864,#865);
#728=AXIS2_PLACEMENT_3D('',#1073,#867,#868);
#729=AXIS2_PLACEMENT_3D('',#1079,#872,#873);
#730=AXIS2_PLACEMENT_3D('',#1083,#876,#877);
#731=AXIS2_PLACEMENT_3D('',#1087,#880,#881);
#732=AXIS2_PLACEMENT_3D('',#1089,#883,#884);
#733=AXIS2_PLACEMENT_3D('',#1091,#885,#886);
#734=AXIS2_PLACEMENT_3D('',#1093,#887,#888);
#735=AXIS2_PLACEMENT_3D('',#1095,#889,#890);
#736=AXIS2_PLACEMENT_3D('',#1097,#891,#892);
#737=AXIS2_PLACEMENT_3D('',#1098,#893,#894);
#738=AXIS2_PLACEMENT_3D('',#1100,#895,#896);
#739=AXIS2_PLACEMENT_3D('',#1102,#898,#899);
#740=AXIS2_PLACEMENT_3D('',#1103,#900,#901);
#741=AXIS2_PLACEMENT_3D('',#1105,#902,#903);
#742=AXIS2_PLACEMENT_3D('',#1107,#905,#906);
#743=AXIS2_PLACEMENT_3D('',#1108,#907,#908);
#744=AXIS2_PLACEMENT_3D('',#1110,#909,#910);
#745=AXIS2_PLACEMENT_3D('',#1112,#912,#913);
#746=AXIS2_PLACEMENT_3D('',#1113,#914,#915);
#747=AXIS2_PLACEMENT_3D('',#1115,#916,#917);
#748=AXIS2_PLACEMENT_3D('',#1117,#919,#920);
#749=AXIS2_PLACEMENT_3D('',#1146,#921,#922);
#750=AXIS2_PLACEMENT_3D('',#1148,#923,#924);
#751=AXIS2_PLACEMENT_3D('',#1149,#925,#926);
#752=AXIS2_PLACEMENT_3D('',#1150,#927,#928);
#753=AXIS2_PLACEMENT_3D('',#1153,#930,#931);
#754=AXIS2_PLACEMENT_3D('',#1154,#932,#933);
#755=AXIS2_PLACEMENT_3D('',#1155,#934,#935);
#756=AXIS2_PLACEMENT_3D('',#1184,#936,#937);
#757=AXIS2_PLACEMENT_3D('',#1186,#938,#939);
#758=AXIS2_PLACEMENT_3D('',#1187,#940,#941);
#759=AXIS2_PLACEMENT_3D('',#1188,#942,#943);
#760=AXIS2_PLACEMENT_3D('',#1191,#945,#946);
#761=AXIS2_PLACEMENT_3D('',#1192,#947,#948);
#762=AXIS2_PLACEMENT_3D('',#1193,#949,#950);
#763=DIRECTION('axis',(0.,0.,1.));
#764=DIRECTION('refdir',(1.,0.,0.));
#765=DIRECTION('center_axis',(-1.,0.,0.));
#766=DIRECTION('ref_axis',(0.,-1.,0.));
#767=DIRECTION('',(0.,0.178741131509145,0.983896136747589));
#768=DIRECTION('',(0.,-1.,0.));
#769=DIRECTION('',(0.,-0.178741131509145,-0.983896136747589));
#770=DIRECTION('',(0.,-1.,0.));
#771=DIRECTION('center_axis',(-1.,0.,0.));
#772=DIRECTION('ref_axis',(0.,-1.,0.));
#773=DIRECTION('',(0.,0.178741131509145,-0.983896136747589));
#774=DIRECTION('',(0.,-1.,0.));
#775=DIRECTION('',(0.,-0.178741131509145,0.983896136747589));
#776=DIRECTION('',(0.,-1.,0.));
#777=DIRECTION('center_axis',(0.,0.,1.));
#778=DIRECTION('ref_axis',(1.,0.,0.));
#779=DIRECTION('',(1.,0.,0.));
#780=DIRECTION('',(-1.,0.,0.));
#781=DIRECTION('',(0.,1.,0.));
#782=DIRECTION('center_axis',(1.,0.,0.));
#783=DIRECTION('ref_axis',(0.,1.,0.));
#784=DIRECTION('',(0.,-0.178741131509145,-0.983896136747589));
#785=DIRECTION('',(0.,0.178741131509145,0.983896136747589));
#786=DIRECTION('',(0.,1.,0.));
#787=DIRECTION('center_axis',(1.,0.,0.));
#788=DIRECTION('ref_axis',(0.,1.,0.));
#789=DIRECTION('',(0.,-0.178741131509145,0.983896136747589));
#790=DIRECTION('',(0.,1.,0.));
#791=DIRECTION('',(0.,0.178741131509145,-0.983896136747589));
#792=DIRECTION('',(0.,1.,0.));
#793=DIRECTION('center_axis',(0.,0.,1.));
#794=DIRECTION('ref_axis',(1.,0.,0.));
#795=DIRECTION('',(-1.,0.,0.));
#796=DIRECTION('',(1.,0.,0.));
#797=DIRECTION('center_axis',(0.,0.983896136747589,0.178741131509145));
#798=DIRECTION('ref_axis',(0.,-0.178741131509145,0.983896136747589));
#799=DIRECTION('',(-1.,0.,0.));
#800=DIRECTION('',(-0.390918569719336,-0.164517853665667,0.905602864214679));
#801=DIRECTION('',(-1.,-1.16253719856037E-16,0.));
#802=DIRECTION('',(0.390918569719336,-0.164517853665667,0.905602864214679));
#803=DIRECTION('',(-1.,0.,0.));
#804=DIRECTION('center_axis',(0.,-0.983896136747589,0.178741131509145));
#805=DIRECTION('ref_axis',(0.,-0.178741131509145,-0.983896136747589));
#806=DIRECTION('',(1.,0.,0.));
#807=DIRECTION('',(-0.390918569719336,0.164517853665667,0.905602864214679));
#808=DIRECTION('',(-1.,0.,0.));
#809=DIRECTION('',(0.390918569719336,0.164517853665667,0.905602864214679));
#810=DIRECTION('',(1.,0.,0.));
#811=DIRECTION('center_axis',(0.,0.,1.));
#812=DIRECTION('ref_axis',(1.,0.,0.));
#813=DIRECTION('',(-1.,0.,0.));
#814=DIRECTION('',(0.,1.,0.));
#815=DIRECTION('',(1.,0.,0.));
#816=DIRECTION('',(0.,1.,0.));
#817=DIRECTION('center_axis',(0.,0.,1.));
#818=DIRECTION('ref_axis',(1.,0.,0.));
#819=DIRECTION('',(0.,-1.,0.));
#820=DIRECTION('',(1.,0.,0.));
#821=DIRECTION('',(0.,-1.,0.));
#822=DIRECTION('',(-1.,0.,0.));
#823=DIRECTION('center_axis',(0.,0.,1.));
#824=DIRECTION('ref_axis',(1.,0.,0.));
#825=DIRECTION('',(-2.90634299640093E-16,1.,0.));
#826=DIRECTION('',(1.,0.,0.));
#827=DIRECTION('',(0.,-1.,0.));
#828=DIRECTION('',(0.,-1.,0.));
#829=DIRECTION('',(1.,0.,0.));
#830=DIRECTION('',(0.,1.,0.));
#831=DIRECTION('',(-1.,0.,0.));
#832=DIRECTION('center_axis',(0.918112974830564,0.,0.396318767468527));
#833=DIRECTION('ref_axis',(0.396318767468527,0.,-0.918112974830564));
#834=DIRECTION('',(-0.390918569719336,0.164517853665667,0.905602864214679));
#835=DIRECTION('center_axis',(-0.918112974830564,0.,0.396318767468527));
#836=DIRECTION('ref_axis',(0.396318767468527,0.,0.918112974830564));
#837=DIRECTION('',(0.390918569719336,0.164517853665667,0.905602864214679));
#838=DIRECTION('center_axis',(0.,-0.983896136747589,0.178741131509145));
#839=DIRECTION('ref_axis',(0.,-0.178741131509145,-0.983896136747589));
#840=DIRECTION('center_axis',(-0.918112974830564,0.,0.396318767468527));
#841=DIRECTION('ref_axis',(0.396318767468527,0.,0.918112974830564));
#842=DIRECTION('',(1.00472671911779E-16,1.,0.));
#843=DIRECTION('',(0.390918569719336,-0.164517853665667,0.905602864214679));
#844=DIRECTION('center_axis',(0.918112974830564,0.,0.396318767468527));
#845=DIRECTION('ref_axis',(0.396318767468527,0.,-0.918112974830564));
#846=DIRECTION('',(-0.390918569719336,-0.164517853665667,0.905602864214679));
#847=DIRECTION('',(3.01418015735337E-16,-1.,0.));
#848=DIRECTION('center_axis',(0.,0.983896136747589,0.178741131509145));
#849=DIRECTION('ref_axis',(0.,-0.178741131509145,0.983896136747589));
#850=DIRECTION('',(1.,1.00472671911779E-16,0.));
#851=DIRECTION('center_axis',(1.,3.01418015735337E-16,0.));
#852=DIRECTION('ref_axis',(-3.01418015735337E-16,1.,0.));
#853=DIRECTION('',(0.,0.,1.));
#854=DIRECTION('',(-3.01418015735337E-16,1.,0.));
#855=DIRECTION('',(0.,0.,1.));
#856=DIRECTION('center_axis',(0.,-1.,0.));
#857=DIRECTION('ref_axis',(1.,0.,0.));
#858=DIRECTION('',(1.,0.,0.));
#859=DIRECTION('',(0.,0.,1.));
#860=DIRECTION('center_axis',(-1.,1.00472671911779E-16,0.));
#861=DIRECTION('ref_axis',(-1.00472671911779E-16,-1.,0.));
#862=DIRECTION('',(-1.00472671911779E-16,-1.,0.));
#863=DIRECTION('',(0.,0.,1.));
#864=DIRECTION('center_axis',(-1.00472671911779E-16,1.,0.));
#865=DIRECTION('ref_axis',(-1.,-1.00472671911779E-16,0.));
#866=DIRECTION('',(-1.,-1.00472671911779E-16,0.));
#867=DIRECTION('center_axis',(-1.,0.,0.));
#868=DIRECTION('ref_axis',(0.,-1.,0.));
#869=DIRECTION('',(0.,0.,1.));
#870=DIRECTION('',(0.,-1.,0.));
#871=DIRECTION('',(0.,0.,1.));
#872=DIRECTION('center_axis',(0.,-1.,0.));
#873=DIRECTION('ref_axis',(1.,0.,0.));
#874=DIRECTION('',(1.,0.,0.));
#875=DIRECTION('',(0.,0.,1.));
#876=DIRECTION('center_axis',(1.,0.,0.));
#877=DIRECTION('ref_axis',(0.,1.,0.));
#878=DIRECTION('',(0.,1.,0.));
#879=DIRECTION('',(0.,0.,1.));
#880=DIRECTION('center_axis',(0.,1.,0.));
#881=DIRECTION('ref_axis',(-1.,0.,0.));
#882=DIRECTION('',(-1.,0.,0.));
#883=DIRECTION('center_axis',(0.,0.,1.));
#884=DIRECTION('ref_axis',(1.,0.,0.));
#885=DIRECTION('center_axis',(0.,0.,1.));
#886=DIRECTION('ref_axis',(1.,0.,0.));
#887=DIRECTION('center_axis',(0.,0.,1.));
#888=DIRECTION('ref_axis',(1.,0.,0.));
#889=DIRECTION('center_axis',(0.,0.,1.));
#890=DIRECTION('ref_axis',(1.,0.,0.));
#891=DIRECTION('center_axis',(0.,0.,1.));
#892=DIRECTION('ref_axis',(1.,0.,0.));
#893=DIRECTION('center_axis',(0.,0.,1.));
#894=DIRECTION('ref_axis',(1.,0.,0.));
#895=DIRECTION('center_axis',(0.,0.,1.));
#896=DIRECTION('ref_axis',(1.,0.,0.));
#897=DIRECTION('',(0.,0.,-1.));
#898=DIRECTION('center_axis',(0.,0.,1.));
#899=DIRECTION('ref_axis',(1.,0.,0.));
#900=DIRECTION('center_axis',(0.,0.,1.));
#901=DIRECTION('ref_axis',(1.,0.,0.));
#902=DIRECTION('center_axis',(0.,0.,1.));
#903=DIRECTION('ref_axis',(1.,0.,0.));
#904=DIRECTION('',(0.,0.,-1.));
#905=DIRECTION('center_axis',(0.,0.,1.));
#906=DIRECTION('ref_axis',(1.,0.,0.));
#907=DIRECTION('center_axis',(0.,0.,1.));
#908=DIRECTION('ref_axis',(1.,0.,0.));
#909=DIRECTION('center_axis',(0.,0.,1.));
#910=DIRECTION('ref_axis',(1.,0.,0.));
#911=DIRECTION('',(0.,0.,-1.));
#912=DIRECTION('center_axis',(0.,0.,1.));
#913=DIRECTION('ref_axis',(1.,0.,0.));
#914=DIRECTION('center_axis',(0.,0.,1.));
#915=DIRECTION('ref_axis',(1.,0.,0.));
#916=DIRECTION('center_axis',(0.,0.,1.));
#917=DIRECTION('ref_axis',(1.,0.,0.));
#918=DIRECTION('',(0.,0.,-1.));
#919=DIRECTION('center_axis',(0.,0.,1.));
#920=DIRECTION('ref_axis',(1.,0.,0.));
#921=DIRECTION('center_axis',(0.,0.,-1.));
#922=DIRECTION('ref_axis',(1.,0.,0.));
#923=DIRECTION('center_axis',(1.22464679914735E-16,-1.,0.));
#924=DIRECTION('ref_axis',(-1.,-1.22464679914735E-16,0.));
#925=DIRECTION('center_axis',(0.,0.,1.));
#926=DIRECTION('ref_axis',(1.,0.,0.));
#927=DIRECTION('center_axis',(0.,0.,1.));
#928=DIRECTION('ref_axis',(1.,0.,0.));
#929=DIRECTION('',(0.,0.,-1.));
#930=DIRECTION('center_axis',(0.,0.,1.));
#931=DIRECTION('ref_axis',(1.,0.,0.));
#932=DIRECTION('center_axis',(0.,0.,1.));
#933=DIRECTION('ref_axis',(1.,0.,0.));
#934=DIRECTION('center_axis',(0.,0.,1.));
#935=DIRECTION('ref_axis',(1.,0.,0.));
#936=DIRECTION('center_axis',(0.,0.,-1.));
#937=DIRECTION('ref_axis',(1.,0.,0.));
#938=DIRECTION('center_axis',(1.22464679914735E-16,-1.,0.));
#939=DIRECTION('ref_axis',(-1.,-1.22464679914735E-16,0.));
#940=DIRECTION('center_axis',(0.,0.,1.));
#941=DIRECTION('ref_axis',(1.,0.,0.));
#942=DIRECTION('center_axis',(0.,0.,1.));
#943=DIRECTION('ref_axis',(1.,0.,0.));
#944=DIRECTION('',(0.,0.,-1.));
#945=DIRECTION('center_axis',(0.,0.,1.));
#946=DIRECTION('ref_axis',(1.,0.,0.));
#947=DIRECTION('center_axis',(0.,0.,1.));
#948=DIRECTION('ref_axis',(1.,0.,0.));
#949=DIRECTION('center_axis',(0.,0.,1.));
#950=DIRECTION('ref_axis',(1.,0.,0.));
#951=CARTESIAN_POINT('',(0.,0.,0.));
#952=CARTESIAN_POINT('Origin',(23.,33.,-60.));
#953=CARTESIAN_POINT('',(23.,-33.,-60.));
#954=CARTESIAN_POINT('',(23.,-30.275,-45.));
#955=CARTESIAN_POINT('',(23.,-31.9457030609254,-54.1965306105986));
#956=CARTESIAN_POINT('',(23.,-30.,-60.));
#957=CARTESIAN_POINT('',(23.,16.5,-60.));
#958=CARTESIAN_POINT('',(23.,-27.275,-45.));
#959=CARTESIAN_POINT('',(23.,-28.9936256490652,-54.4603246737532));
#960=CARTESIAN_POINT('',(23.,-33.,-45.));
#961=CARTESIAN_POINT('Origin',(23.,33.,-60.));
#962=CARTESIAN_POINT('',(23.,30.275,-45.));
#963=CARTESIAN_POINT('',(23.,33.,-60.));
#964=CARTESIAN_POINT('',(23.,33.,-60.));
#965=CARTESIAN_POINT('',(23.,27.275,-45.));
#966=CARTESIAN_POINT('',(23.,-33.,-45.));
#967=CARTESIAN_POINT('',(23.,30.,-60.));
#968=CARTESIAN_POINT('',(23.,30.0479225881397,-60.2637940631546));
#969=CARTESIAN_POINT('',(23.,16.5,-60.));
#970=CARTESIAN_POINT('Origin',(28.,0.,-45.));
#971=CARTESIAN_POINT('',(33.,-30.275,-45.));
#972=CARTESIAN_POINT('',(-10.,-30.275,-45.));
#973=CARTESIAN_POINT('',(33.,-27.275,-45.));
#974=CARTESIAN_POINT('',(-8.5,-27.275,-45.));
#975=CARTESIAN_POINT('',(33.,33.,-45.));
#976=CARTESIAN_POINT('Origin',(33.,-33.,-60.));
#977=CARTESIAN_POINT('',(33.,-33.,-60.));
#978=CARTESIAN_POINT('',(33.,-33.,-60.));
#979=CARTESIAN_POINT('',(33.,-30.,-60.));
#980=CARTESIAN_POINT('',(33.,-30.0479225881397,-60.2637940631546));
#981=CARTESIAN_POINT('',(33.,-16.5,-60.));
#982=CARTESIAN_POINT('Origin',(33.,-33.,-60.));
#983=CARTESIAN_POINT('',(33.,33.,-60.));
#984=CARTESIAN_POINT('',(33.,30.275,-45.));
#985=CARTESIAN_POINT('',(33.,31.9457030609254,-54.1965306105986));
#986=CARTESIAN_POINT('',(33.,30.,-60.));
#987=CARTESIAN_POINT('',(33.,-16.5,-60.));
#988=CARTESIAN_POINT('',(33.,27.275,-45.));
#989=CARTESIAN_POINT('',(33.,28.9936256490652,-54.4603246737532));
#990=CARTESIAN_POINT('',(33.,33.,-45.));
#991=CARTESIAN_POINT('Origin',(28.,0.,-45.));
#992=CARTESIAN_POINT('',(38.,30.275,-45.));
#993=CARTESIAN_POINT('',(36.5,27.275,-45.));
#994=CARTESIAN_POINT('Origin',(45.,30.,-60.));
#995=CARTESIAN_POINT('',(45.,30.,-60.));
#996=CARTESIAN_POINT('',(22.5,30.,-60.));
#997=CARTESIAN_POINT('',(19.1,19.1,0.));
#998=CARTESIAN_POINT('',(45.,30.,-60.));
#999=CARTESIAN_POINT('',(-19.1,19.1,0.));
#1000=CARTESIAN_POINT('',(-19.1,19.1,0.));
#1001=CARTESIAN_POINT('',(-45.,30.,-60.));
#1002=CARTESIAN_POINT('',(-45.,30.,-60.));
#1003=CARTESIAN_POINT('',(22.5,30.,-60.));
#1004=CARTESIAN_POINT('Origin',(-48.,-33.,-60.));
#1005=CARTESIAN_POINT('',(48.,-33.,-60.));
#1006=CARTESIAN_POINT('',(-48.,-33.,-60.));
#1007=CARTESIAN_POINT('',(22.1,-22.1,0.));
#1008=CARTESIAN_POINT('',(48.,-33.,-60.));
#1009=CARTESIAN_POINT('',(-22.1,-22.1,0.));
#1010=CARTESIAN_POINT('',(22.1,-22.1,0.));
#1011=CARTESIAN_POINT('',(-48.,-33.,-60.));
#1012=CARTESIAN_POINT('',(-48.,-33.,-60.));
#1013=CARTESIAN_POINT('',(-48.,-33.,-60.));
#1014=CARTESIAN_POINT('Origin',(-1.5326311114354E-16,0.,-60.));
#1015=CARTESIAN_POINT('',(48.,33.,-60.));
#1016=CARTESIAN_POINT('',(48.,33.,-60.));
#1017=CARTESIAN_POINT('',(48.,-33.,-60.));
#1018=CARTESIAN_POINT('',(45.,-30.,-60.));
#1019=CARTESIAN_POINT('',(-22.5,-30.,-60.));
#1020=CARTESIAN_POINT('',(45.,-15.,-60.));
#1021=CARTESIAN_POINT('Origin',(-1.5326311114354E-16,0.,-60.));
#1022=CARTESIAN_POINT('',(-45.,-30.,-60.));
#1023=CARTESIAN_POINT('',(-45.,15.,-60.));
#1024=CARTESIAN_POINT('',(-22.5,-30.,-60.));
#1025=CARTESIAN_POINT('',(-48.,33.,-60.));
#1026=CARTESIAN_POINT('',(-48.,33.,-60.));
#1027=CARTESIAN_POINT('',(48.,33.,-60.));
#1028=CARTESIAN_POINT('Origin',(2.77555756156289E-15,-3.88578058618805E-15,
0.));
#1029=CARTESIAN_POINT('',(19.1,-19.1,0.));
#1030=CARTESIAN_POINT('',(19.1,19.1,0.));
#1031=CARTESIAN_POINT('',(-19.1,-19.1,0.));
#1032=CARTESIAN_POINT('',(19.1,-19.1,0.));
#1033=CARTESIAN_POINT('',(-19.1,-19.1,0.));
#1034=CARTESIAN_POINT('',(5.,5.,0.));
#1035=CARTESIAN_POINT('',(5.,-5.,0.));
#1036=CARTESIAN_POINT('',(5.,5.,0.));
#1037=CARTESIAN_POINT('',(-5.,5.,0.));
#1038=CARTESIAN_POINT('',(-5.,5.,0.));
#1039=CARTESIAN_POINT('',(-5.,-5.,0.));
#1040=CARTESIAN_POINT('',(-5.,-5.,0.));
#1041=CARTESIAN_POINT('',(5.,-5.,0.));
#1042=CARTESIAN_POINT('Origin',(45.,-30.,-60.));
#1043=CARTESIAN_POINT('',(45.,-30.,-60.));
#1044=CARTESIAN_POINT('Origin',(-45.,30.,-60.));
#1045=CARTESIAN_POINT('',(-45.,-30.,-60.));
#1046=CARTESIAN_POINT('Origin',(-45.,-30.,-60.));
#1047=CARTESIAN_POINT('Origin',(-48.,33.,-60.));
#1048=CARTESIAN_POINT('',(-22.1,22.1,0.));
#1049=CARTESIAN_POINT('',(-22.1,-22.1,0.));
#1050=CARTESIAN_POINT('',(-48.,33.,-60.));
#1051=CARTESIAN_POINT('Origin',(48.,-33.,-60.));
#1052=CARTESIAN_POINT('',(22.1,22.1,0.));
#1053=CARTESIAN_POINT('',(48.,33.,-60.));
#1054=CARTESIAN_POINT('',(22.1,22.1,0.));
#1055=CARTESIAN_POINT('Origin',(48.,33.,-60.));
#1056=CARTESIAN_POINT('',(-22.1,22.1,0.));
#1057=CARTESIAN_POINT('Origin',(22.1,-22.1,0.));
#1058=CARTESIAN_POINT('',(22.1,22.1,2.));
#1059=CARTESIAN_POINT('',(22.1,22.1,0.));
#1060=CARTESIAN_POINT('',(22.1,-22.1,2.));
#1061=CARTESIAN_POINT('',(22.1,22.1,2.));
#1062=CARTESIAN_POINT('',(22.1,-22.1,0.));
#1063=CARTESIAN_POINT('Origin',(-22.1,-22.1,0.));
#1064=CARTESIAN_POINT('',(-22.1,-22.1,2.));
#1065=CARTESIAN_POINT('',(22.1,-22.1,2.));
#1066=CARTESIAN_POINT('',(-22.1,-22.1,0.));
#1067=CARTESIAN_POINT('Origin',(-22.1,22.1,0.));
#1068=CARTESIAN_POINT('',(-22.1,22.1,2.));
#1069=CARTESIAN_POINT('',(-22.1,-22.1,2.));
#1070=CARTESIAN_POINT('',(-22.1,22.1,0.));
#1071=CARTESIAN_POINT('Origin',(22.1,22.1,0.));
#1072=CARTESIAN_POINT('',(-22.1,22.1,2.));
#1073=CARTESIAN_POINT('Origin',(5.,5.,0.));
#1074=CARTESIAN_POINT('',(5.,-5.,2.));
#1075=CARTESIAN_POINT('',(5.,-5.,0.));
#1076=CARTESIAN_POINT('',(5.,5.,2.));
#1077=CARTESIAN_POINT('',(5.,5.,2.));
#1078=CARTESIAN_POINT('',(5.,5.,0.));
#1079=CARTESIAN_POINT('Origin',(-5.,5.,0.));
#1080=CARTESIAN_POINT('',(-5.,5.,2.));
#1081=CARTESIAN_POINT('',(-5.,5.,2.));
#1082=CARTESIAN_POINT('',(-5.,5.,0.));
#1083=CARTESIAN_POINT('Origin',(-5.,-5.,0.));
#1084=CARTESIAN_POINT('',(-5.,-5.,2.));
#1085=CARTESIAN_POINT('',(-5.,-5.,2.));
#1086=CARTESIAN_POINT('',(-5.,-5.,0.));
#1087=CARTESIAN_POINT('Origin',(5.,-5.,0.));
#1088=CARTESIAN_POINT('',(5.,-5.,2.));
#1089=CARTESIAN_POINT('Origin',(4.44089209850063E-15,-2.22044604925031E-15,
2.));
#1090=CARTESIAN_POINT('',(-15.15,-14.,2.));
#1091=CARTESIAN_POINT('Origin',(-14.,-14.,2.));
#1092=CARTESIAN_POINT('',(12.85,-14.,2.));
#1093=CARTESIAN_POINT('Origin',(14.,-14.,2.));
#1094=CARTESIAN_POINT('',(12.85,14.,2.));
#1095=CARTESIAN_POINT('Origin',(14.,14.,2.));
#1096=CARTESIAN_POINT('',(-15.15,14.,2.));
#1097=CARTESIAN_POINT('Origin',(-14.,14.,2.));
#1098=CARTESIAN_POINT('Origin',(-14.,-14.,0.));
#1099=CARTESIAN_POINT('',(-15.15,-14.,5.));
#1100=CARTESIAN_POINT('Origin',(-14.,-14.,5.));
#1101=CARTESIAN_POINT('',(-15.15,-14.,0.));
#1102=CARTESIAN_POINT('Origin',(-14.,-14.,5.));
#1103=CARTESIAN_POINT('Origin',(14.,-14.,0.));
#1104=CARTESIAN_POINT('',(12.85,-14.,5.));
#1105=CARTESIAN_POINT('Origin',(14.,-14.,5.));
#1106=CARTESIAN_POINT('',(12.85,-14.,0.));
#1107=CARTESIAN_POINT('Origin',(14.,-14.,5.));
#1108=CARTESIAN_POINT('Origin',(14.,14.,0.));
#1109=CARTESIAN_POINT('',(12.85,14.,5.));
#1110=CARTESIAN_POINT('Origin',(14.,14.,5.));
#1111=CARTESIAN_POINT('',(12.85,14.,0.));
#1112=CARTESIAN_POINT('Origin',(14.,14.,5.));
#1113=CARTESIAN_POINT('Origin',(-14.,14.,0.));
#1114=CARTESIAN_POINT('',(-15.15,14.,5.));
#1115=CARTESIAN_POINT('Origin',(-14.,14.,5.));
#1116=CARTESIAN_POINT('',(-15.15,14.,0.));
#1117=CARTESIAN_POINT('Origin',(-14.,14.,5.));
#1118=CARTESIAN_POINT('Ctrl Pts',(-12.0000000149012,-2.22044604925031E-15,
6.));
#1119=CARTESIAN_POINT('Ctrl Pts',(-12.0000000149012,-1.00000001490116,6.));
#1120=CARTESIAN_POINT('Ctrl Pts',(-11.,-1.00000001490116,6.));
#1121=CARTESIAN_POINT('Ctrl Pts',(-9.99999998509884,-1.00000001490116,6.));
#1122=CARTESIAN_POINT('Ctrl Pts',(-9.99999998509884,-2.22044604925031E-15,
6.));
#1123=CARTESIAN_POINT('Ctrl Pts',(-9.99999998509884,1.00000001490116,6.));
#1124=CARTESIAN_POINT('Ctrl Pts',(-11.,1.00000001490116,6.));
#1125=CARTESIAN_POINT('Ctrl Pts',(-12.0000000149012,1.00000001490116,6.));
#1126=CARTESIAN_POINT('Ctrl Pts',(-12.0000000149012,-2.22044604925031E-15,
6.));
#1127=CARTESIAN_POINT('Ctrl Pts',(-12.0000000149012,-2.22044604925031E-15,
6.5));
#1128=CARTESIAN_POINT('Ctrl Pts',(-12.0000000149012,-1.00000001490116,6.5));
#1129=CARTESIAN_POINT('Ctrl Pts',(-11.,-1.00000001490116,6.5));
#1130=CARTESIAN_POINT('Ctrl Pts',(-9.99999998509884,-1.00000001490116,6.5));
#1131=CARTESIAN_POINT('Ctrl Pts',(-9.99999998509884,-2.22044604925031E-15,
6.5));
#1132=CARTESIAN_POINT('Ctrl Pts',(-9.99999998509884,1.00000001490116,6.5));
#1133=CARTESIAN_POINT('Ctrl Pts',(-11.,1.00000001490116,6.5));
#1134=CARTESIAN_POINT('Ctrl Pts',(-12.0000000149012,1.00000001490116,6.5));
#1135=CARTESIAN_POINT('Ctrl Pts',(-12.0000000149012,-2.22044604925031E-15,
6.5));
#1136=CARTESIAN_POINT('Ctrl Pts',(-11.5000000149012,-2.22044604925031E-15,
6.5));
#1137=CARTESIAN_POINT('Ctrl Pts',(-11.5000000149012,-0.500000014901163,
6.5));
#1138=CARTESIAN_POINT('Ctrl Pts',(-11.,-0.500000014901163,6.5));
#1139=CARTESIAN_POINT('Ctrl Pts',(-10.4999999850988,-0.500000014901163,
6.5));
#1140=CARTESIAN_POINT('Ctrl Pts',(-10.4999999850988,-2.22044604925031E-15,
6.5));
#1141=CARTESIAN_POINT('Ctrl Pts',(-10.4999999850988,0.500000014901158,6.5));
#1142=CARTESIAN_POINT('Ctrl Pts',(-11.,0.500000014901159,6.5));
#1143=CARTESIAN_POINT('Ctrl Pts',(-11.5000000149012,0.500000014901158,6.5));
#1144=CARTESIAN_POINT('Ctrl Pts',(-11.5000000149012,-2.22044604925031E-15,
6.5));
#1145=CARTESIAN_POINT('',(-11.5000000149012,-2.15921370746808E-15,6.5));
#1146=CARTESIAN_POINT('Origin',(-11.,-2.22044604925031E-15,6.5));
#1147=CARTESIAN_POINT('',(-12.0000000149012,-2.34291073098991E-15,6.));
#1148=CARTESIAN_POINT('Origin',(-11.5000000149012,-2.28167839103255E-15,
6.));
#1149=CARTESIAN_POINT('Origin',(-11.,-2.22044604925031E-15,6.));
#1150=CARTESIAN_POINT('Origin',(-11.,-2.22044604925031E-15,0.));
#1151=CARTESIAN_POINT('',(-12.0000000149012,-2.34291073098991E-15,0.));
#1152=CARTESIAN_POINT('',(-12.0000000149012,-2.34291073098991E-15,0.));
#1153=CARTESIAN_POINT('Origin',(-11.,-2.22044604925031E-15,0.));
#1154=CARTESIAN_POINT('Origin',(-11.,-2.22044604925031E-15,6.5));
#1155=CARTESIAN_POINT('Origin',(-11.,-2.22044604925031E-15,0.));
#1156=CARTESIAN_POINT('Ctrl Pts',(9.99999998509884,-2.22044604925031E-15,
6.));
#1157=CARTESIAN_POINT('Ctrl Pts',(9.99999998509884,-1.00000001490116,6.));
#1158=CARTESIAN_POINT('Ctrl Pts',(11.,-1.00000001490116,6.));
#1159=CARTESIAN_POINT('Ctrl Pts',(12.0000000149012,-1.00000001490116,6.));
#1160=CARTESIAN_POINT('Ctrl Pts',(12.0000000149012,-2.22044604925031E-15,
6.));
#1161=CARTESIAN_POINT('Ctrl Pts',(12.0000000149012,1.00000001490116,6.));
#1162=CARTESIAN_POINT('Ctrl Pts',(11.,1.00000001490116,6.));
#1163=CARTESIAN_POINT('Ctrl Pts',(9.99999998509884,1.00000001490116,6.));
#1164=CARTESIAN_POINT('Ctrl Pts',(9.99999998509884,-2.22044604925031E-15,
6.));
#1165=CARTESIAN_POINT('Ctrl Pts',(9.99999998509884,-2.22044604925031E-15,
6.5));
#1166=CARTESIAN_POINT('Ctrl Pts',(9.99999998509884,-1.00000001490116,6.5));
#1167=CARTESIAN_POINT('Ctrl Pts',(11.,-1.00000001490116,6.5));
#1168=CARTESIAN_POINT('Ctrl Pts',(12.0000000149012,-1.00000001490116,6.5));
#1169=CARTESIAN_POINT('Ctrl Pts',(12.0000000149012,-2.22044604925031E-15,
6.5));
#1170=CARTESIAN_POINT('Ctrl Pts',(12.0000000149012,1.00000001490116,6.5));
#1171=CARTESIAN_POINT('Ctrl Pts',(11.,1.00000001490116,6.5));
#1172=CARTESIAN_POINT('Ctrl Pts',(9.99999998509884,1.00000001490116,6.5));
#1173=CARTESIAN_POINT('Ctrl Pts',(9.99999998509884,-2.22044604925031E-15,
6.5));
#1174=CARTESIAN_POINT('Ctrl Pts',(10.4999999850988,-2.22044604925031E-15,
6.5));
#1175=CARTESIAN_POINT('Ctrl Pts',(10.4999999850988,-0.500000014901163,6.5));
#1176=CARTESIAN_POINT('Ctrl Pts',(11.,-0.500000014901163,6.5));
#1177=CARTESIAN_POINT('Ctrl Pts',(11.5000000149012,-0.500000014901163,6.5));
#1178=CARTESIAN_POINT('Ctrl Pts',(11.5000000149012,-2.22044604925031E-15,
6.5));
#1179=CARTESIAN_POINT('Ctrl Pts',(11.5000000149012,0.500000014901158,6.5));
#1180=CARTESIAN_POINT('Ctrl Pts',(11.,0.500000014901159,6.5));
#1181=CARTESIAN_POINT('Ctrl Pts',(10.4999999850988,0.500000014901158,6.5));
#1182=CARTESIAN_POINT('Ctrl Pts',(10.4999999850988,-2.22044604925031E-15,
6.5));
#1183=CARTESIAN_POINT('',(10.4999999850988,-2.15921370746808E-15,6.5));
#1184=CARTESIAN_POINT('Origin',(11.,-2.22044604925031E-15,6.5));
#1185=CARTESIAN_POINT('',(9.99999998509884,-2.34291073098991E-15,6.));
#1186=CARTESIAN_POINT('Origin',(10.4999999850988,-2.28167839103255E-15,
6.));
#1187=CARTESIAN_POINT('Origin',(11.,-2.22044604925031E-15,6.));
#1188=CARTESIAN_POINT('Origin',(11.,-2.22044604925031E-15,0.));
#1189=CARTESIAN_POINT('',(9.99999998509884,-2.34291073098991E-15,0.));
#1190=CARTESIAN_POINT('',(9.99999998509884,-2.34291073098991E-15,0.));
#1191=CARTESIAN_POINT('Origin',(11.,-2.22044604925031E-15,0.));
#1192=CARTESIAN_POINT('Origin',(11.,-2.22044604925031E-15,6.5));
#1193=CARTESIAN_POINT('Origin',(11.,-2.22044604925031E-15,0.));
#1194=UNCERTAINTY_MEASURE_WITH_UNIT(LENGTH_MEASURE(0.01),#1198,
'DISTANCE_ACCURACY_VALUE',
'Maximum model space distance between geometric entities at asserted c
onnectivities');
#1195=UNCERTAINTY_MEASURE_WITH_UNIT(LENGTH_MEASURE(0.01),#1198,
'DISTANCE_ACCURACY_VALUE',
'Maximum model space distance between geometric entities at asserted c
onnectivities');
#1196=(
GEOMETRIC_REPRESENTATION_CONTEXT(3)
GLOBAL_UNCERTAINTY_ASSIGNED_CONTEXT((#1194))
GLOBAL_UNIT_ASSIGNED_CONTEXT((#1198,#1200,#1201))
REPRESENTATION_CONTEXT('','3D')
);
#1197=(
GEOMETRIC_REPRESENTATION_CONTEXT(3)
GLOBAL_UNCERTAINTY_ASSIGNED_CONTEXT((#1195))
GLOBAL_UNIT_ASSIGNED_CONTEXT((#1198,#1200,#1201))
REPRESENTATION_CONTEXT('','3D')
);
#1198=(
LENGTH_UNIT()
NAMED_UNIT(*)
SI_UNIT(.MILLI.,.METRE.)
);
#1199=(
LENGTH_UNIT()
NAMED_UNIT(*)
SI_UNIT($,.METRE.)
);
#1200=(
NAMED_UNIT(*)
PLANE_ANGLE_UNIT()
SI_UNIT($,.RADIAN.)
);
#1201=(
NAMED_UNIT(*)
SI_UNIT($,.STERADIAN.)
SOLID_ANGLE_UNIT()
);
#1202=SHAPE_DEFINITION_REPRESENTATION(#1203,#1204);
#1203=PRODUCT_DEFINITION_SHAPE('',$,#1206);
#1204=SHAPE_REPRESENTATION('',(#706),#1196);
#1205=PRODUCT_DEFINITION_CONTEXT('part definition',#1210,'design');
#1206=PRODUCT_DEFINITION('CameraCasingFIT0729Outside',
'CameraCasingFIT0729Outside',#1207,#1205);
#1207=PRODUCT_DEFINITION_FORMATION('',$,#1212);
#1208=PRODUCT_RELATED_PRODUCT_CATEGORY('CameraCasingFIT0729Outside',
'CameraCasingFIT0729Outside',(#1212));
#1209=APPLICATION_PROTOCOL_DEFINITION('international standard',
'automotive_design',2009,#1210);
#1210=APPLICATION_CONTEXT(
'Core Data for Automotive Mechanical Design Process');
#1211=PRODUCT_CONTEXT('part definition',#1210,'mechanical');
#1212=PRODUCT('CameraCasingFIT0729Outside','CameraCasingFIT0729Outside',
$,(#1211));
#1213=PRESENTATION_STYLE_ASSIGNMENT((#1214));
#1214=SURFACE_STYLE_USAGE(.BOTH.,#1215);
#1215=SURFACE_SIDE_STYLE('',(#1216));
#1216=SURFACE_STYLE_FILL_AREA(#1217);
#1217=FILL_AREA_STYLE('Steel - Satin',(#1218));
#1218=FILL_AREA_STYLE_COLOUR('Steel - Satin',#1219);
#1219=COLOUR_RGB('Steel - Satin',0.627450980392157,0.627450980392157,0.627450980392157);
ENDSEC;
END-ISO-10303-21;
