G04 #@! TF.GenerationSoftware,KiCad,Pcbnew,9.0.7*
G04 #@! TF.CreationDate,2026-02-28T17:22:56+01:00*
G04 #@! TF.ProjectId,Robobuoy_BMS_S6_V1_0,526f626f-6275-46f7-995f-424d535f5336,rev?*
G04 #@! TF.SameCoordinates,Original*
G04 #@! TF.FileFunction,Paste,Top*
G04 #@! TF.FilePolarity,Positive*
%FSLAX46Y46*%
G04 Gerber Fmt 4.6, Leading zero omitted, Abs format (unit mm)*
G04 Created by KiCad (PCBNEW 9.0.7) date 2026-02-28 17:22:56*
%MOMM*%
%LPD*%
G01*
G04 APERTURE LIST*
G04 Aperture macros list*
%AMRoundRect*
0 Rectangle with rounded corners*
0 $1 Rounding radius*
0 $2 $3 $4 $5 $6 $7 $8 $9 X,Y pos of 4 corners*
0 Add a 4 corners polygon primitive as box body*
4,1,4,$2,$3,$4,$5,$6,$7,$8,$9,$2,$3,0*
0 Add four circle primitives for the rounded corners*
1,1,$1+$1,$2,$3*
1,1,$1+$1,$4,$5*
1,1,$1+$1,$6,$7*
1,1,$1+$1,$8,$9*
0 Add four rect primitives between the rounded corners*
20,1,$1+$1,$2,$3,$4,$5,0*
20,1,$1+$1,$4,$5,$6,$7,0*
20,1,$1+$1,$6,$7,$8,$9,0*
20,1,$1+$1,$8,$9,$2,$3,0*%
G04 Aperture macros list end*
%ADD10C,0.100000*%
%ADD11RoundRect,0.150000X-0.590000X-0.150000X0.590000X-0.150000X0.590000X0.150000X-0.590000X0.150000X0*%
%ADD12RoundRect,0.150000X0.150000X-0.512500X0.150000X0.512500X-0.150000X0.512500X-0.150000X-0.512500X0*%
%ADD13RoundRect,0.230769X-1.519231X0.969231X-1.519231X-0.969231X1.519231X-0.969231X1.519231X0.969231X0*%
%ADD14RoundRect,0.225000X0.425000X-0.225000X0.425000X0.225000X-0.425000X0.225000X-0.425000X-0.225000X0*%
%ADD15R,0.600000X0.900000*%
%ADD16R,0.900000X0.600000*%
%ADD17RoundRect,0.150000X-0.375000X0.150000X-0.375000X-0.150000X0.375000X-0.150000X0.375000X0.150000X0*%
%ADD18RoundRect,0.200000X-0.200000X-0.250000X0.200000X-0.250000X0.200000X0.250000X-0.200000X0.250000X0*%
%ADD19RoundRect,0.600000X-2.400000X-1.400000X2.400000X-1.400000X2.400000X1.400000X-2.400000X1.400000X0*%
%ADD20RoundRect,0.200000X0.250000X-0.200000X0.250000X0.200000X-0.250000X0.200000X-0.250000X-0.200000X0*%
%ADD21RoundRect,0.200000X0.200000X0.250000X-0.200000X0.250000X-0.200000X-0.250000X0.200000X-0.250000X0*%
%ADD22RoundRect,0.150000X0.150000X0.375000X-0.150000X0.375000X-0.150000X-0.375000X0.150000X-0.375000X0*%
%ADD23RoundRect,1.050000X-2.950000X-2.450000X2.950000X-2.450000X2.950000X2.450000X-2.950000X2.450000X0*%
%ADD24RoundRect,0.060000X0.060000X0.180000X-0.060000X0.180000X-0.060000X-0.180000X0.060000X-0.180000X0*%
%ADD25RoundRect,0.062500X0.325000X0.062500X-0.325000X0.062500X-0.325000X-0.062500X0.325000X-0.062500X0*%
%ADD26RoundRect,0.200000X-0.250000X0.200000X-0.250000X-0.200000X0.250000X-0.200000X0.250000X0.200000X0*%
%ADD27RoundRect,0.112500X-0.187500X-0.112500X0.187500X-0.112500X0.187500X0.112500X-0.187500X0.112500X0*%
%ADD28RoundRect,0.150000X0.590000X0.150000X-0.590000X0.150000X-0.590000X-0.150000X0.590000X-0.150000X0*%
%ADD29RoundRect,0.249999X-0.450001X-1.425001X0.450001X-1.425001X0.450001X1.425001X-0.450001X1.425001X0*%
%ADD30RoundRect,0.150000X-0.150000X0.590000X-0.150000X-0.590000X0.150000X-0.590000X0.150000X0.590000X0*%
G04 APERTURE END LIST*
D10*
X91496309Y-126866542D02*
X91901071Y-126866542D01*
X91901071Y-126866542D02*
X91948690Y-126842732D01*
X91948690Y-126842732D02*
X91972500Y-126818923D01*
X91972500Y-126818923D02*
X91996309Y-126771304D01*
X91996309Y-126771304D02*
X91996309Y-126676066D01*
X91996309Y-126676066D02*
X91972500Y-126628447D01*
X91972500Y-126628447D02*
X91948690Y-126604637D01*
X91948690Y-126604637D02*
X91901071Y-126580828D01*
X91901071Y-126580828D02*
X91496309Y-126580828D01*
X91996309Y-126080827D02*
X91996309Y-126366541D01*
X91996309Y-126223684D02*
X91496309Y-126223684D01*
X91496309Y-126223684D02*
X91567738Y-126271303D01*
X91567738Y-126271303D02*
X91615357Y-126318922D01*
X91615357Y-126318922D02*
X91639166Y-126366541D01*
X91996309Y-125604637D02*
X91996309Y-125890351D01*
X91996309Y-125747494D02*
X91496309Y-125747494D01*
X91496309Y-125747494D02*
X91567738Y-125795113D01*
X91567738Y-125795113D02*
X91615357Y-125842732D01*
X91615357Y-125842732D02*
X91639166Y-125890351D01*
X91496309Y-125295114D02*
X91496309Y-125247495D01*
X91496309Y-125247495D02*
X91520119Y-125199876D01*
X91520119Y-125199876D02*
X91543928Y-125176066D01*
X91543928Y-125176066D02*
X91591547Y-125152257D01*
X91591547Y-125152257D02*
X91686785Y-125128447D01*
X91686785Y-125128447D02*
X91805833Y-125128447D01*
X91805833Y-125128447D02*
X91901071Y-125152257D01*
X91901071Y-125152257D02*
X91948690Y-125176066D01*
X91948690Y-125176066D02*
X91972500Y-125199876D01*
X91972500Y-125199876D02*
X91996309Y-125247495D01*
X91996309Y-125247495D02*
X91996309Y-125295114D01*
X91996309Y-125295114D02*
X91972500Y-125342733D01*
X91972500Y-125342733D02*
X91948690Y-125366542D01*
X91948690Y-125366542D02*
X91901071Y-125390352D01*
X91901071Y-125390352D02*
X91805833Y-125414161D01*
X91805833Y-125414161D02*
X91686785Y-125414161D01*
X91686785Y-125414161D02*
X91591547Y-125390352D01*
X91591547Y-125390352D02*
X91543928Y-125366542D01*
X91543928Y-125366542D02*
X91520119Y-125342733D01*
X91520119Y-125342733D02*
X91496309Y-125295114D01*
X104602709Y-126841142D02*
X105007471Y-126841142D01*
X105007471Y-126841142D02*
X105055090Y-126817332D01*
X105055090Y-126817332D02*
X105078900Y-126793523D01*
X105078900Y-126793523D02*
X105102709Y-126745904D01*
X105102709Y-126745904D02*
X105102709Y-126650666D01*
X105102709Y-126650666D02*
X105078900Y-126603047D01*
X105078900Y-126603047D02*
X105055090Y-126579237D01*
X105055090Y-126579237D02*
X105007471Y-126555428D01*
X105007471Y-126555428D02*
X104602709Y-126555428D01*
X105102709Y-126055427D02*
X105102709Y-126341141D01*
X105102709Y-126198284D02*
X104602709Y-126198284D01*
X104602709Y-126198284D02*
X104674138Y-126245903D01*
X104674138Y-126245903D02*
X104721757Y-126293522D01*
X104721757Y-126293522D02*
X104745566Y-126341141D01*
X104602709Y-125745904D02*
X104602709Y-125698285D01*
X104602709Y-125698285D02*
X104626519Y-125650666D01*
X104626519Y-125650666D02*
X104650328Y-125626856D01*
X104650328Y-125626856D02*
X104697947Y-125603047D01*
X104697947Y-125603047D02*
X104793185Y-125579237D01*
X104793185Y-125579237D02*
X104912233Y-125579237D01*
X104912233Y-125579237D02*
X105007471Y-125603047D01*
X105007471Y-125603047D02*
X105055090Y-125626856D01*
X105055090Y-125626856D02*
X105078900Y-125650666D01*
X105078900Y-125650666D02*
X105102709Y-125698285D01*
X105102709Y-125698285D02*
X105102709Y-125745904D01*
X105102709Y-125745904D02*
X105078900Y-125793523D01*
X105078900Y-125793523D02*
X105055090Y-125817332D01*
X105055090Y-125817332D02*
X105007471Y-125841142D01*
X105007471Y-125841142D02*
X104912233Y-125864951D01*
X104912233Y-125864951D02*
X104793185Y-125864951D01*
X104793185Y-125864951D02*
X104697947Y-125841142D01*
X104697947Y-125841142D02*
X104650328Y-125817332D01*
X104650328Y-125817332D02*
X104626519Y-125793523D01*
X104626519Y-125793523D02*
X104602709Y-125745904D01*
X105102709Y-125341142D02*
X105102709Y-125245904D01*
X105102709Y-125245904D02*
X105078900Y-125198285D01*
X105078900Y-125198285D02*
X105055090Y-125174476D01*
X105055090Y-125174476D02*
X104983661Y-125126857D01*
X104983661Y-125126857D02*
X104888423Y-125103047D01*
X104888423Y-125103047D02*
X104697947Y-125103047D01*
X104697947Y-125103047D02*
X104650328Y-125126857D01*
X104650328Y-125126857D02*
X104626519Y-125150666D01*
X104626519Y-125150666D02*
X104602709Y-125198285D01*
X104602709Y-125198285D02*
X104602709Y-125293523D01*
X104602709Y-125293523D02*
X104626519Y-125341142D01*
X104626519Y-125341142D02*
X104650328Y-125364952D01*
X104650328Y-125364952D02*
X104697947Y-125388761D01*
X104697947Y-125388761D02*
X104816995Y-125388761D01*
X104816995Y-125388761D02*
X104864614Y-125364952D01*
X104864614Y-125364952D02*
X104888423Y-125341142D01*
X104888423Y-125341142D02*
X104912233Y-125293523D01*
X104912233Y-125293523D02*
X104912233Y-125198285D01*
X104912233Y-125198285D02*
X104888423Y-125150666D01*
X104888423Y-125150666D02*
X104864614Y-125126857D01*
X104864614Y-125126857D02*
X104816995Y-125103047D01*
D11*
X107518000Y-114670800D03*
X107518000Y-116570800D03*
X109398000Y-115620800D03*
D12*
X100686700Y-112897500D03*
X101636700Y-112897500D03*
X102586700Y-112897500D03*
X102586700Y-110622500D03*
X101636700Y-110622500D03*
X100686700Y-110622500D03*
D13*
X126486000Y-123752000D03*
X126486000Y-129752000D03*
D14*
X135122000Y-126736000D03*
X135122000Y-124736000D03*
D15*
X66844000Y-108084000D03*
X66844000Y-106934000D03*
X66844000Y-105784000D03*
X65994000Y-108084000D03*
X65994000Y-106934000D03*
X65994000Y-105784000D03*
X65144000Y-108084000D03*
X65144000Y-106934000D03*
X65144000Y-105784000D03*
X64294000Y-108084000D03*
X64294000Y-106934000D03*
X64294000Y-105784000D03*
D16*
X63294000Y-108839000D03*
X63294000Y-107569000D03*
X63294000Y-106299000D03*
X63294000Y-105029000D03*
D17*
X69019000Y-108839000D03*
X69019000Y-107569000D03*
X69019000Y-106299000D03*
X69019000Y-105029000D03*
D18*
X105924000Y-122434000D03*
X107424000Y-122434000D03*
D11*
X134924600Y-114656700D03*
X134924600Y-116556700D03*
X136804600Y-115606700D03*
D19*
X160000000Y-140000000D03*
D20*
X123190000Y-119469600D03*
X123190000Y-117969600D03*
X117543200Y-123973400D03*
X117543200Y-122473400D03*
X91180000Y-123946000D03*
X91180000Y-122446000D03*
X130550000Y-123946000D03*
X130550000Y-122446000D03*
X134950200Y-119469600D03*
X134950200Y-117969600D03*
D11*
X66878000Y-116652000D03*
X66878000Y-118552000D03*
X68758000Y-117602000D03*
D13*
X100324000Y-123752000D03*
X100324000Y-129752000D03*
D21*
X110173200Y-109016800D03*
X108673200Y-109016800D03*
D16*
X58159000Y-108246000D03*
X59309000Y-108246000D03*
X60459000Y-108246000D03*
X58159000Y-107396000D03*
X59309000Y-107396000D03*
X60459000Y-107396000D03*
X58159000Y-106546000D03*
X59309000Y-106546000D03*
X60459000Y-106546000D03*
X58159000Y-105696000D03*
X59309000Y-105696000D03*
X60459000Y-105696000D03*
D15*
X57404000Y-104696000D03*
X58674000Y-104696000D03*
X59944000Y-104696000D03*
X61214000Y-104696000D03*
D22*
X57404000Y-110421000D03*
X58674000Y-110421000D03*
X59944000Y-110421000D03*
X61214000Y-110421000D03*
D18*
X88505600Y-116586000D03*
X90005600Y-116586000D03*
X74815000Y-111633000D03*
X76315000Y-111633000D03*
D15*
X66844000Y-114053000D03*
X66844000Y-112903000D03*
X66844000Y-111753000D03*
X65994000Y-114053000D03*
X65994000Y-112903000D03*
X65994000Y-111753000D03*
X65144000Y-114053000D03*
X65144000Y-112903000D03*
X65144000Y-111753000D03*
X64294000Y-114053000D03*
X64294000Y-112903000D03*
X64294000Y-111753000D03*
D16*
X63294000Y-114808000D03*
X63294000Y-113538000D03*
X63294000Y-112268000D03*
X63294000Y-110998000D03*
D17*
X69019000Y-114808000D03*
X69019000Y-113538000D03*
X69019000Y-112268000D03*
X69019000Y-110998000D03*
D23*
X60000000Y-100000000D03*
D14*
X96006000Y-126736000D03*
X96006000Y-124736000D03*
D18*
X92716000Y-122434000D03*
X94216000Y-122434000D03*
D21*
X82532000Y-131070000D03*
X81032000Y-131070000D03*
D12*
X116347200Y-112948300D03*
X117297200Y-112948300D03*
X118247200Y-112948300D03*
X118247200Y-110673300D03*
X117297200Y-110673300D03*
X116347200Y-110673300D03*
D24*
X119778000Y-126290000D03*
X119778000Y-125690000D03*
X119478000Y-126290000D03*
X119478000Y-125690000D03*
D25*
X120590500Y-126740000D03*
X120590500Y-126240000D03*
X120590500Y-125740000D03*
X120590500Y-125240000D03*
X118665500Y-125240000D03*
X118665500Y-125740000D03*
X118665500Y-126240000D03*
X118665500Y-126740000D03*
D18*
X118878000Y-128022000D03*
X120378000Y-128022000D03*
D26*
X111861600Y-111010000D03*
X111861600Y-112510000D03*
D23*
X165000000Y-107500000D03*
D19*
X140000000Y-100000000D03*
D18*
X70420800Y-117602000D03*
X71920800Y-117602000D03*
D19*
X120000000Y-100000000D03*
D18*
X118878000Y-122434000D03*
X120378000Y-122434000D03*
D11*
X119278200Y-114670800D03*
X119278200Y-116570800D03*
X121158200Y-115620800D03*
D20*
X99669600Y-119520400D03*
X99669600Y-118020400D03*
D18*
X118878000Y-123958000D03*
X120378000Y-123958000D03*
D26*
X135122000Y-128034000D03*
X135122000Y-129534000D03*
D27*
X85157600Y-116586000D03*
X87257600Y-116586000D03*
D26*
X65024000Y-117106000D03*
X65024000Y-118606000D03*
X127533400Y-111010000D03*
X127533400Y-112510000D03*
D23*
X165000000Y-115000000D03*
D11*
X103606400Y-114670800D03*
X103606400Y-116570800D03*
X105486400Y-115620800D03*
D18*
X77863000Y-107823000D03*
X79363000Y-107823000D03*
D26*
X96266000Y-111060800D03*
X96266000Y-112560800D03*
D12*
X131942800Y-112897500D03*
X132892800Y-112897500D03*
X133842800Y-112897500D03*
X133842800Y-110622500D03*
X132892800Y-110622500D03*
X131942800Y-110622500D03*
D14*
X122168000Y-126736000D03*
X122168000Y-124736000D03*
D11*
X91871600Y-114670800D03*
X91871600Y-116570800D03*
X93751600Y-115620800D03*
D20*
X107492800Y-119520400D03*
X107492800Y-118020400D03*
D24*
X132732000Y-126290000D03*
X132732000Y-125690000D03*
X132432000Y-126290000D03*
X132432000Y-125690000D03*
D25*
X133544500Y-126740000D03*
X133544500Y-126240000D03*
X133544500Y-125740000D03*
X133544500Y-125240000D03*
X131619500Y-125240000D03*
X131619500Y-125740000D03*
X131619500Y-126240000D03*
X131619500Y-126740000D03*
D11*
X115366600Y-114670800D03*
X115366600Y-116570800D03*
X117246600Y-115620800D03*
D27*
X91355200Y-118465600D03*
X93455200Y-118465600D03*
D26*
X109214000Y-128034000D03*
X109214000Y-129534000D03*
D11*
X131013000Y-114656700D03*
X131013000Y-116556700D03*
X132893000Y-115606700D03*
D18*
X92716000Y-123958000D03*
X94216000Y-123958000D03*
X105918000Y-128016000D03*
X107418000Y-128016000D03*
D19*
X120000000Y-140000000D03*
D21*
X102400800Y-108966000D03*
X100900800Y-108966000D03*
D28*
X76759000Y-105979000D03*
X76759000Y-104079000D03*
X74879000Y-105029000D03*
D23*
X55000000Y-115000000D03*
D18*
X74815000Y-107823000D03*
X76315000Y-107823000D03*
D24*
X93616000Y-126290000D03*
X93616000Y-125690000D03*
X93316000Y-126290000D03*
X93316000Y-125690000D03*
D25*
X94428500Y-126740000D03*
X94428500Y-126240000D03*
X94428500Y-125740000D03*
X94428500Y-125240000D03*
X92503500Y-125240000D03*
X92503500Y-125740000D03*
X92503500Y-126240000D03*
X92503500Y-126740000D03*
D18*
X79508000Y-122434000D03*
X81008000Y-122434000D03*
D23*
X165000000Y-125000000D03*
D13*
X139440000Y-123752000D03*
X139440000Y-129752000D03*
D18*
X92716000Y-128022000D03*
X94216000Y-128022000D03*
D26*
X96006000Y-128034000D03*
X96006000Y-129534000D03*
X80010000Y-104279000D03*
X80010000Y-105779000D03*
D19*
X60000000Y-140000000D03*
D29*
X65530000Y-102108000D03*
X71630000Y-102108000D03*
D20*
X111404400Y-119520400D03*
X111404400Y-118020400D03*
D18*
X77863000Y-109347000D03*
X79363000Y-109347000D03*
D24*
X106824000Y-126290000D03*
X106824000Y-125690000D03*
X106524000Y-126290000D03*
X106524000Y-125690000D03*
D25*
X107636500Y-126740000D03*
X107636500Y-126240000D03*
X107636500Y-125740000D03*
X107636500Y-125240000D03*
X105711500Y-125240000D03*
X105711500Y-125740000D03*
X105711500Y-126240000D03*
X105711500Y-126740000D03*
D30*
X63434000Y-116916000D03*
X61534000Y-116916000D03*
X62484000Y-118796000D03*
D23*
X160000000Y-100000000D03*
D11*
X127101400Y-114656700D03*
X127101400Y-116556700D03*
X128981400Y-115606700D03*
X95783200Y-114670800D03*
X95783200Y-116570800D03*
X97663200Y-115620800D03*
D14*
X82798000Y-126736000D03*
X82798000Y-124736000D03*
D21*
X133642800Y-108966000D03*
X132142800Y-108966000D03*
D16*
X52190000Y-108246000D03*
X53340000Y-108246000D03*
X54490000Y-108246000D03*
X52190000Y-107396000D03*
X53340000Y-107396000D03*
X54490000Y-107396000D03*
X52190000Y-106546000D03*
X53340000Y-106546000D03*
X54490000Y-106546000D03*
X52190000Y-105696000D03*
X53340000Y-105696000D03*
X54490000Y-105696000D03*
D15*
X51435000Y-104696000D03*
X52705000Y-104696000D03*
X53975000Y-104696000D03*
X55245000Y-104696000D03*
D22*
X51435000Y-110421000D03*
X52705000Y-110421000D03*
X53975000Y-110421000D03*
X55245000Y-110421000D03*
D26*
X122168000Y-128034000D03*
X122168000Y-129534000D03*
D20*
X115366800Y-119520400D03*
X115366800Y-118020400D03*
X103581200Y-119520400D03*
X103581200Y-118020400D03*
D12*
X108473200Y-112948300D03*
X109423200Y-112948300D03*
X110373200Y-112948300D03*
X110373200Y-110673300D03*
X109423200Y-110673300D03*
X108473200Y-110673300D03*
D21*
X125845000Y-108966000D03*
X124345000Y-108966000D03*
D13*
X113532000Y-123752000D03*
X113532000Y-129752000D03*
D19*
X100000000Y-140000000D03*
D18*
X131832000Y-122434000D03*
X133332000Y-122434000D03*
D20*
X131038600Y-119469600D03*
X131038600Y-117969600D03*
D11*
X123189800Y-114656700D03*
X123189800Y-116556700D03*
X125069800Y-115606700D03*
D26*
X119786400Y-111010000D03*
X119786400Y-112510000D03*
D18*
X118878000Y-129546000D03*
X120378000Y-129546000D03*
X92716000Y-129546000D03*
X94216000Y-129546000D03*
D20*
X77972000Y-123946000D03*
X77972000Y-122446000D03*
D23*
X55000000Y-125000000D03*
D26*
X82798000Y-128034000D03*
X82798000Y-129534000D03*
X135305800Y-110959200D03*
X135305800Y-112459200D03*
D21*
X61595000Y-112395000D03*
X60095000Y-112395000D03*
D24*
X80408000Y-126290000D03*
X80408000Y-125690000D03*
X80108000Y-126290000D03*
X80108000Y-125690000D03*
D25*
X81220500Y-126740000D03*
X81220500Y-126240000D03*
X81220500Y-125740000D03*
X81220500Y-125240000D03*
X79295500Y-125240000D03*
X79295500Y-125740000D03*
X79295500Y-126240000D03*
X79295500Y-126740000D03*
D18*
X131826000Y-129540000D03*
X133326000Y-129540000D03*
D19*
X140000000Y-140000000D03*
D18*
X89928000Y-111810800D03*
X91428000Y-111810800D03*
X131832000Y-123958000D03*
X133332000Y-123958000D03*
X105924000Y-123958000D03*
X107424000Y-123958000D03*
D23*
X165000000Y-132500000D03*
D20*
X127076200Y-119469600D03*
X127076200Y-117969600D03*
D18*
X79508000Y-128022000D03*
X81008000Y-128022000D03*
X79508000Y-129546000D03*
X81008000Y-129546000D03*
D21*
X86957600Y-118414800D03*
X85457600Y-118414800D03*
D26*
X61595000Y-113792000D03*
X61595000Y-115292000D03*
D29*
X65530000Y-98171000D03*
X71630000Y-98171000D03*
D21*
X94577600Y-109016800D03*
X93077600Y-109016800D03*
D20*
X104388000Y-123946000D03*
X104388000Y-122446000D03*
D13*
X87116000Y-123752000D03*
X87116000Y-129752000D03*
D21*
X118047200Y-109016800D03*
X116547200Y-109016800D03*
D26*
X78486000Y-104279000D03*
X78486000Y-105779000D03*
D11*
X99694800Y-114670800D03*
X99694800Y-116570800D03*
X101574800Y-115620800D03*
X111429600Y-114670800D03*
X111429600Y-116570800D03*
X113309600Y-115620800D03*
D20*
X119278400Y-119520400D03*
X119278400Y-118020400D03*
D12*
X124145000Y-112897500D03*
X125095000Y-112897500D03*
X126045000Y-112897500D03*
X126045000Y-110622500D03*
X125095000Y-110622500D03*
X124145000Y-110622500D03*
D26*
X104089200Y-111010000D03*
X104089200Y-112510000D03*
D18*
X79508000Y-123958000D03*
X81008000Y-123958000D03*
D19*
X80000000Y-140000000D03*
X100000000Y-100000000D03*
D18*
X105942000Y-129540000D03*
X107442000Y-129540000D03*
D12*
X92877600Y-112948300D03*
X93827600Y-112948300D03*
X94777600Y-112948300D03*
X94777600Y-110673300D03*
X93827600Y-110673300D03*
X92877600Y-110673300D03*
D11*
X66878000Y-120081000D03*
X66878000Y-121981000D03*
X68758000Y-121031000D03*
D18*
X131826000Y-128016000D03*
X133326000Y-128016000D03*
D19*
X80000000Y-100000000D03*
D14*
X109214000Y-126736000D03*
X109214000Y-124736000D03*
M02*
