M48
; DRILL file {KiCad 9.0.0-rc1} date 2025-03-26T15:14:04+0100
; FORMAT={-:-/ absolute / inch / decimal}
; #@! TF.CreationDate,2025-03-26T15:14:04+01:00
; #@! TF.GenerationSoftware,Kicad,Pcbnew,9.0.0-rc1
; #@! TF.FileFunction,Plated,1,4,PTH
FMAT,2
INCH
; #@! TA.AperFunction,Plated,PTH,ComponentDrill
T1C0.0079
; #@! TA.AperFunction,Plated,PTH,ViaDrill
T2C0.0098
; #@! TA.AperFunction,Plated,PTH,ViaDrill
T3C0.0118
; #@! TA.AperFunction,Plated,PTH,ViaDrill
T4C0.0157
; #@! TA.AperFunction,Plated,PTH,ComponentDrill
T5C0.0315
; #@! TA.AperFunction,Plated,PTH,ComponentDrill
T6C0.0374
; #@! TA.AperFunction,Plated,PTH,ComponentDrill
T7C0.0394
; #@! TA.AperFunction,Plated,PTH,ComponentDrill
T8C0.0591
; #@! TA.AperFunction,Plated,PTH,ComponentDrill
T9C0.0610
%
G90
G05
T1
X0.2126Y-0.1831
X0.2126Y-0.2362
X0.2126Y-0.2894
X0.2874Y-0.1831
X0.2874Y-0.2362
X0.2874Y-0.2894
T2
X-0.9843Y0.5118
X-0.9827Y-0.3453
X-0.9815Y0.4724
X-0.9815Y0.4331
X-0.9815Y0.3937
X-0.9815Y0.352
X-0.9811Y-0.2898
X-0.9807Y0.2756
X-0.9803Y0.315
X-0.9799Y0.2362
X-0.9799Y0.2035
X-0.9799Y0.1575
X-0.9799Y0.1181
X-0.9799Y0.0787
X-0.9799Y0.0394
X-0.9799Y0.0
X-0.9799Y-0.0394
X-0.9799Y-0.0787
X-0.9799Y-0.1181
X-0.9799Y-0.1583
X-0.9799Y-0.2063
X-0.9799Y-0.248
X-0.8717Y-0.6024
X-0.8512Y-0.5409
X-0.8457Y0.0772
X-0.8078Y-0.424
X-0.6654Y-0.4346
X-0.592Y-0.728
X-0.586Y-0.46
X-0.581Y-0.516
X-0.545Y-0.425
X-0.539Y-0.281
X-0.518Y-0.679
X-0.4685Y-0.5709
X-0.456Y-0.281
X-0.417Y-0.487
X-0.411Y-0.7
X-0.375Y1.093
X-0.346Y-0.535
X-0.2207Y-0.5326
X-0.2156Y-0.3287
X-0.213Y1.118
X-0.192Y1.144
X-0.168Y1.123
X-0.101Y-0.462
X-0.078Y-0.3035
X-0.051Y0.129
X-0.018Y-0.146
X0.0488Y-0.365
X0.0496Y-0.4201
X0.05Y-0.6
X0.072Y-0.3067
X0.0755Y-0.6525
X0.146Y-0.456
X0.172Y0.629
X0.19Y-0.652
X0.2378Y-0.7276
X0.2547Y-0.3299
X0.2555Y0.0339
X0.2669Y-0.4217
X0.4295Y-0.5512
X0.4319Y-0.6776
X0.449Y-0.895
X0.5059Y-0.363
X0.5094Y-0.4327
X0.5705Y0.1024
X0.595Y-0.331
X0.6004Y-0.535
X0.626Y-0.257
X0.6307Y-0.572
X0.68Y-0.64
X0.758Y-0.578
X0.794Y0.098
X0.7957Y-0.2327
X0.7957Y-0.2795
X0.8907Y0.0984
X0.9026Y-0.5689
X0.9831Y0.5445
X0.9831Y0.4449
X0.9831Y0.1937
X0.9831Y-0.313
X0.9831Y-0.4984
X1.076Y-0.0673
X1.1134Y-0.0917
X1.1134Y-0.0917
T3
X-0.955Y-0.578
X-0.946Y-0.292
X-0.945Y0.408
X-0.945Y0.285
X-0.801Y-0.563
X-0.766Y-0.143
X-0.762Y0.072
X-0.671Y-0.563
X-0.6519Y-0.0379
X-0.55Y0.072
X-0.55Y-0.14
X-0.295Y-0.225
X0.513Y0.049
T4
X-0.895Y-0.28
X-0.219Y0.578
X-0.1555Y-0.1644
X-0.1553Y-0.3599
X-0.06Y0.489
X0.042Y0.326
X0.1193Y0.1929
X0.139Y0.325
X0.144Y1.217
X0.186Y0.4915
X0.364Y0.325
X0.452Y0.325
X0.453Y0.225
X0.5241Y-0.2719
X0.6193Y0.6779
X0.6193Y-0.1271
X0.62Y-0.17
X0.72Y-0.17
X0.87Y0.02
T5
X-0.369Y-0.834
X-0.369Y-1.09
T6
X0.4737Y-1.0184
X0.4888Y1.0113
X0.559Y-0.9692
X0.5741Y0.9621
X0.6442Y-0.92
X0.6593Y0.9129
T7
X-0.7905Y0.8729
X-0.7809Y0.6383
X-0.7809Y0.5383
X-0.6905Y0.8729
X-0.6809Y0.6383
X-0.6809Y0.5383
X-0.5809Y0.6383
X-0.5809Y0.5383
X0.3593Y-0.4671
X0.4593Y-0.4671
X0.5593Y-0.4671
T8
X0.599Y-0.702
T9
X0.775Y0.0
X0.7805Y-0.7071
X0.7941Y0.6929
X0.964Y0.0
X0.9695Y-0.7071
X0.9831Y0.6929
X1.175Y0.189
X1.175Y0.0
X1.175Y-0.189
M30
