%TF.GenerationSoftware,KiCad,Pcbnew,9.0.0-rc1*%
%TF.CreationDate,2025-03-26T15:14:04+01:00*%
%TF.ProjectId,Robobuoy-Sub-Round-v2_0,526f626f-6275-46f7-992d-5375622d526f,2.0*%
%TF.SameCoordinates,Original*%
%TF.FileFunction,Soldermask,Top*%
%TF.FilePolarity,Negative*%
%FSLAX46Y46*%
G04 Gerber Fmt 4.6, Leading zero omitted, Abs format (unit mm)*
G04 Created by KiCad (PCBNEW 9.0.0-rc1) date 2025-03-26 15:14:04*
%MOMM*%
%LPD*%
G01*
G04 APERTURE LIST*
G04 Aperture macros list*
%AMRoundRect*
0 Rectangle with rounded corners*
0 $1 Rounding radius*
0 $2 $3 $4 $5 $6 $7 $8 $9 X,Y pos of 4 corners*
0 Add a 4 corners polygon primitive as box body*
4,1,4,$2,$3,$4,$5,$6,$7,$8,$9,$2,$3,0*
0 Add four circle primitives for the rounded corners*
1,1,$1+$1,$2,$3*
1,1,$1+$1,$4,$5*
1,1,$1+$1,$6,$7*
1,1,$1+$1,$8,$9*
0 Add four rect primitives between the rounded corners*
20,1,$1+$1,$2,$3,$4,$5,0*
20,1,$1+$1,$4,$5,$6,$7,0*
20,1,$1+$1,$6,$7,$8,$9,0*
20,1,$1+$1,$8,$9,$2,$3,0*%
%AMHorizOval*
0 Thick line with rounded ends*
0 $1 width*
0 $2 $3 position (X,Y) of the first rounded end (center of the circle)*
0 $4 $5 position (X,Y) of the second rounded end (center of the circle)*
0 Add line between two ends*
20,1,$1,$2,$3,$4,$5,0*
0 Add two circle primitives to create the rounded ends*
1,1,$1,$2,$3*
1,1,$1,$4,$5*%
G04 Aperture macros list end*
%ADD10RoundRect,0.150000X-0.150000X0.587500X-0.150000X-0.587500X0.150000X-0.587500X0.150000X0.587500X0*%
%ADD11C,1.000000*%
%ADD12RoundRect,0.200000X-0.250000X0.200000X-0.250000X-0.200000X0.250000X-0.200000X0.250000X0.200000X0*%
%ADD13RoundRect,0.200000X-0.200000X-0.250000X0.200000X-0.250000X0.200000X0.250000X-0.200000X0.250000X0*%
%ADD14RoundRect,0.112500X0.112500X-0.187500X0.112500X0.187500X-0.112500X0.187500X-0.112500X-0.187500X0*%
%ADD15RoundRect,0.112500X-0.187500X-0.112500X0.187500X-0.112500X0.187500X0.112500X-0.187500X0.112500X0*%
%ADD16R,1.700000X1.700000*%
%ADD17O,1.700000X1.700000*%
%ADD18RoundRect,0.090000X0.360000X-0.660000X0.360000X0.660000X-0.360000X0.660000X-0.360000X-0.660000X0*%
%ADD19RoundRect,0.249999X-1.025001X-1.025001X1.025001X-1.025001X1.025001X1.025001X-1.025001X1.025001X0*%
%ADD20C,2.550000*%
%ADD21RoundRect,0.250000X-1.100000X0.325000X-1.100000X-0.325000X1.100000X-0.325000X1.100000X0.325000X0*%
%ADD22RoundRect,0.250000X-0.650000X1.000000X-0.650000X-1.000000X0.650000X-1.000000X0.650000X1.000000X0*%
%ADD23RoundRect,0.200000X0.250000X-0.200000X0.250000X0.200000X-0.250000X0.200000X-0.250000X-0.200000X0*%
%ADD24R,0.375000X0.350000*%
%ADD25R,0.350000X0.375000*%
%ADD26RoundRect,0.200000X0.200000X0.250000X-0.200000X0.250000X-0.200000X-0.250000X0.200000X-0.250000X0*%
%ADD27RoundRect,0.150000X0.587500X0.150000X-0.587500X0.150000X-0.587500X-0.150000X0.587500X-0.150000X0*%
%ADD28RoundRect,0.275000X0.375000X-0.275000X0.375000X0.275000X-0.375000X0.275000X-0.375000X-0.275000X0*%
%ADD29RoundRect,0.300000X0.400000X-0.300000X0.400000X0.300000X-0.400000X0.300000X-0.400000X-0.300000X0*%
%ADD30RoundRect,0.250000X-0.325000X-1.100000X0.325000X-1.100000X0.325000X1.100000X-0.325000X1.100000X0*%
%ADD31RoundRect,0.225000X-0.425000X0.225000X-0.425000X-0.225000X0.425000X-0.225000X0.425000X0.225000X0*%
%ADD32RoundRect,0.206250X0.618750X0.618750X-0.618750X0.618750X-0.618750X-0.618750X0.618750X-0.618750X0*%
%ADD33C,1.700000*%
%ADD34RoundRect,0.218750X0.218750X0.256250X-0.218750X0.256250X-0.218750X-0.256250X0.218750X-0.256250X0*%
%ADD35R,1.650000X1.650000*%
%ADD36RoundRect,0.230769X1.519231X-0.969231X1.519231X0.969231X-1.519231X0.969231X-1.519231X-0.969231X0*%
%ADD37RoundRect,0.150000X0.150000X-0.512500X0.150000X0.512500X-0.150000X0.512500X-0.150000X-0.512500X0*%
%ADD38RoundRect,0.112500X-0.112500X0.187500X-0.112500X-0.187500X0.112500X-0.187500X0.112500X0.187500X0*%
%ADD39C,3.000000*%
%ADD40RoundRect,0.249999X1.025001X-1.025001X1.025001X1.025001X-1.025001X1.025001X-1.025001X-1.025001X0*%
%ADD41RoundRect,0.150000X-0.587500X-0.150000X0.587500X-0.150000X0.587500X0.150000X-0.587500X0.150000X0*%
%ADD42RoundRect,0.225000X0.225000X-0.525000X0.225000X0.525000X-0.225000X0.525000X-0.225000X-0.525000X0*%
%ADD43RoundRect,0.225000X0.525000X0.225000X-0.525000X0.225000X-0.525000X-0.225000X0.525000X-0.225000X0*%
%ADD44RoundRect,0.250000X2.250000X-2.250000X2.250000X2.250000X-2.250000X2.250000X-2.250000X-2.250000X0*%
%ADD45RoundRect,0.375000X-0.375000X-0.475000X0.375000X-0.475000X0.375000X0.475000X-0.375000X0.475000X0*%
%ADD46RoundRect,0.150000X-0.512500X-0.150000X0.512500X-0.150000X0.512500X0.150000X-0.512500X0.150000X0*%
%ADD47RoundRect,0.150000X-0.650000X-0.150000X0.650000X-0.150000X0.650000X0.150000X-0.650000X0.150000X0*%
%ADD48R,2.400000X3.200000*%
%ADD49RoundRect,0.375000X0.375000X0.475000X-0.375000X0.475000X-0.375000X-0.475000X0.375000X-0.475000X0*%
%ADD50RoundRect,0.250000X-0.157115X-0.927868X0.882115X-0.327868X0.157115X0.927868X-0.882115X0.327868X0*%
%ADD51HorizOval,1.700000X-0.062500X0.108253X0.062500X-0.108253X0*%
%ADD52RoundRect,0.250000X0.325000X1.100000X-0.325000X1.100000X-0.325000X-1.100000X0.325000X-1.100000X0*%
%ADD53RoundRect,0.250000X0.882115X0.327868X-0.157115X0.927868X-0.882115X-0.327868X0.157115X-0.927868X0*%
%ADD54HorizOval,1.700000X0.062500X0.108253X-0.062500X-0.108253X0*%
%ADD55R,1.700000X1.000000*%
%ADD56RoundRect,0.250000X0.600000X-0.600000X0.600000X0.600000X-0.600000X0.600000X-0.600000X-0.600000X0*%
G04 APERTURE END LIST*
D10*
%TO.C,Q402*%
X22996273Y-8761636D03*
X21096273Y-8761636D03*
X22046273Y-10636636D03*
%TD*%
D11*
%TO.C,TP202*%
X-11353800Y-15595600D03*
%TD*%
D12*
%TO.C,R211*%
X1905000Y3750000D03*
X1905000Y2250000D03*
%TD*%
D13*
%TO.C,R102*%
X-18834800Y-20447000D03*
X-17334800Y-20447000D03*
%TD*%
D14*
%TO.C,D203*%
X15113000Y-9635200D03*
X15113000Y-7535200D03*
%TD*%
D15*
%TO.C,D202*%
X-14816800Y-15595600D03*
X-12716800Y-15595600D03*
%TD*%
D10*
%TO.C,Q404*%
X19205916Y-13187035D03*
X17305916Y-13187035D03*
X18255916Y-15062035D03*
%TD*%
D16*
%TO.C,SW101*%
X-17539000Y22172000D03*
D17*
X-20079000Y22172000D03*
%TD*%
D10*
%TO.C,Q405*%
X19205916Y-8742035D03*
X17305916Y-8742035D03*
X18255916Y-10617035D03*
%TD*%
D18*
%TO.C,D102*%
X-3700000Y-1614000D03*
X-400000Y-1614000D03*
X-400000Y3286000D03*
X-3700000Y3286000D03*
%TD*%
%TO.C,D103*%
X-3700000Y-10758000D03*
X-400000Y-10758000D03*
X-400000Y-5858000D03*
X-3700000Y-5858000D03*
%TD*%
D19*
%TO.C,J402*%
X19825000Y-17960000D03*
D20*
X24625000Y-17960000D03*
%TD*%
D13*
%TO.C,R404*%
X17843516Y-2516735D03*
X19343516Y-2516735D03*
%TD*%
D21*
%TO.C,C114*%
X-2463800Y31472400D03*
X-2463800Y28522400D03*
%TD*%
D22*
%TO.C,D204*%
X11920000Y-3260000D03*
X11920000Y-7260000D03*
%TD*%
D23*
%TO.C,R213*%
X10515600Y2907600D03*
X10515600Y4407600D03*
%TD*%
D12*
%TO.C,C113*%
X-9474200Y30112400D03*
X-9474200Y28612400D03*
%TD*%
%TO.C,C401*%
X11412000Y-20258000D03*
X11412000Y-21758000D03*
%TD*%
D13*
%TO.C,R209*%
X-6000Y-13134000D03*
X1494000Y-13134000D03*
%TD*%
D24*
%TO.C,U102*%
X-7675300Y31154300D03*
X-7675300Y30654300D03*
X-7675300Y30154300D03*
X-7675300Y29654300D03*
D25*
X-7162800Y29641800D03*
X-6662800Y29641800D03*
D24*
X-6150300Y29654300D03*
X-6150300Y30154300D03*
X-6150300Y30654300D03*
X-6150300Y31154300D03*
D25*
X-6662800Y31166800D03*
X-7162800Y31166800D03*
%TD*%
D26*
%TO.C,R205*%
X7082000Y-13134000D03*
X5582000Y-13134000D03*
%TD*%
%TO.C,R206*%
X-14413800Y-17551400D03*
X-15913800Y-17551400D03*
%TD*%
D23*
%TO.C,C110*%
X2514600Y29399800D03*
X2514600Y30899800D03*
%TD*%
D27*
%TO.C,Q101*%
X-20652500Y-19480700D03*
X-20652500Y-17580700D03*
X-22527500Y-18530700D03*
%TD*%
D28*
%TO.C,FB101*%
X152400Y29075200D03*
X152400Y31275200D03*
%TD*%
D12*
%TO.C,R301*%
X-5606000Y-10860000D03*
X-5606000Y-12360000D03*
%TD*%
D13*
%TO.C,C108*%
X-4070000Y-12626000D03*
X-2570000Y-12626000D03*
%TD*%
D26*
%TO.C,C103*%
X-22745000Y-12118000D03*
X-24245000Y-12118000D03*
%TD*%
D29*
%TO.C,D205*%
X10718800Y-704600D03*
X10718800Y1295400D03*
%TD*%
D21*
%TO.C,C105*%
X-20338000Y-12421000D03*
X-20338000Y-15371000D03*
%TD*%
D30*
%TO.C,C209*%
X7415000Y8255000D03*
X10365000Y8255000D03*
%TD*%
D13*
%TO.C,C101*%
X-21342000Y-10795000D03*
X-19842000Y-10795000D03*
%TD*%
D23*
%TO.C,R105*%
X2755900Y15976600D03*
X2755900Y17476600D03*
%TD*%
D31*
%TO.C,C206*%
X6586000Y-9594000D03*
X6586000Y-11594000D03*
%TD*%
D11*
%TO.C,TP204*%
X1506000Y-6276000D03*
%TD*%
D26*
%TO.C,C102*%
X-22745000Y-10795000D03*
X-24245000Y-10795000D03*
%TD*%
D18*
%TO.C,D101*%
X-3700000Y7530000D03*
X-400000Y7530000D03*
X-400000Y12430000D03*
X-3700000Y12430000D03*
%TD*%
D32*
%TO.C,SW201*%
X14206000Y-11864000D03*
D33*
X11666000Y-11864000D03*
X9126000Y-11864000D03*
%TD*%
D11*
%TO.C,TP201*%
X8364000Y-9578000D03*
%TD*%
D10*
%TO.C,Q407*%
X22996273Y-13206636D03*
X21096273Y-13206636D03*
X22046273Y-15081636D03*
%TD*%
D12*
%TO.C,R212*%
X1905000Y750000D03*
X1905000Y-750000D03*
%TD*%
D34*
%TO.C,D401*%
X23883500Y-20500000D03*
X22308500Y-20500000D03*
%TD*%
D10*
%TO.C,Q401*%
X-6847800Y-14937500D03*
X-8747800Y-14937500D03*
X-7797800Y-16812500D03*
%TD*%
D12*
%TO.C,C202*%
X14460000Y-4510000D03*
X14460000Y-6010000D03*
%TD*%
D13*
%TO.C,C116*%
X-7608000Y28397200D03*
X-6108000Y28397200D03*
%TD*%
D23*
%TO.C,R101*%
X-22878000Y20914000D03*
X-22878000Y22414000D03*
%TD*%
D35*
%TO.C,BZ101*%
X-9372600Y-21184800D03*
D33*
X-9372600Y-27684800D03*
%TD*%
D13*
%TO.C,C203*%
X14472000Y-2212000D03*
X15972000Y-2212000D03*
%TD*%
D36*
%TO.C,L201*%
X6350000Y-2000000D03*
X6350000Y4000000D03*
%TD*%
D11*
%TO.C,TP301*%
X11412000Y20648000D03*
%TD*%
D13*
%TO.C,R303*%
X-1512000Y-16129000D03*
X-12000Y-16129000D03*
%TD*%
D26*
%TO.C,R207*%
X4288000Y-13134000D03*
X2788000Y-13134000D03*
%TD*%
D19*
%TO.C,J201*%
X19685000Y0D03*
D20*
X24485000Y0D03*
%TD*%
D37*
%TO.C,U103*%
X-12652000Y-13509500D03*
X-11702000Y-13509500D03*
X-10752000Y-13509500D03*
X-10752000Y-11234500D03*
X-11702000Y-11234500D03*
X-12652000Y-11234500D03*
%TD*%
D10*
%TO.C,Q304*%
X19220000Y10282500D03*
X17320000Y10282500D03*
X18270000Y8407500D03*
%TD*%
D13*
%TO.C,R104*%
X-14821600Y22758400D03*
X-13321600Y22758400D03*
%TD*%
%TO.C,C107*%
X-2800000Y-3736000D03*
X-1300000Y-3736000D03*
%TD*%
D21*
%TO.C,C106*%
X-17036000Y-12421000D03*
X-17036000Y-15371000D03*
%TD*%
D38*
%TO.C,D104*%
X-17145000Y-22495800D03*
X-17145000Y-24595800D03*
%TD*%
D13*
%TO.C,C111*%
X8775000Y5715000D03*
X10275000Y5715000D03*
%TD*%
D39*
%TO.C,TP203*%
X15214600Y-17830800D03*
%TD*%
D12*
%TO.C,C207*%
X1905000Y-2250000D03*
X1905000Y-3750000D03*
%TD*%
D26*
%TO.C,R405*%
X20798000Y-20500000D03*
X19298000Y-20500000D03*
%TD*%
D40*
%TO.C,J202*%
X29845000Y-4800000D03*
D20*
X29845000Y0D03*
X29845000Y4800000D03*
%TD*%
D10*
%TO.C,Q406*%
X19205916Y-4297035D03*
X17305916Y-4297035D03*
X18255916Y-6172035D03*
%TD*%
%TO.C,Q403*%
X22996273Y-4316636D03*
X21096273Y-4316636D03*
X22046273Y-6191636D03*
%TD*%
%TO.C,Q306*%
X19220000Y6091500D03*
X17320000Y6091500D03*
X18270000Y4216500D03*
%TD*%
D41*
%TO.C,Q202*%
X8968500Y-14682300D03*
X8968500Y-16582300D03*
X10843500Y-15632300D03*
%TD*%
D42*
%TO.C,U101*%
X-24005000Y-8750000D03*
X-22735000Y-8750000D03*
X-21465000Y-8750000D03*
X-20195000Y-8750000D03*
X-18925000Y-8750000D03*
X-17655000Y-8750000D03*
X-16385000Y-8750000D03*
X-15115000Y-8750000D03*
X-13845000Y-8750000D03*
X-12575000Y-8750000D03*
X-11305000Y-8750000D03*
X-10035000Y-8750000D03*
X-8765000Y-8750000D03*
X-7495000Y-8750000D03*
D43*
X-6245000Y-5715000D03*
X-6245000Y-4445000D03*
X-6245000Y-3175000D03*
X-6245000Y-1905000D03*
X-6245000Y-635000D03*
X-6245000Y635000D03*
X-6245000Y1905000D03*
X-6245000Y3175000D03*
X-6245000Y4445000D03*
X-6245000Y5715000D03*
D42*
X-7495000Y8750000D03*
X-8765000Y8750000D03*
X-10035000Y8750000D03*
X-11305000Y8750000D03*
X-12575000Y8750000D03*
X-13845000Y8750000D03*
X-15115000Y8750000D03*
X-16385000Y8750000D03*
X-17655000Y8750000D03*
X-18925000Y8750000D03*
X-20195000Y8750000D03*
X-21465000Y8750000D03*
X-22735000Y8750000D03*
X-24005000Y8750000D03*
D44*
X-16660000Y-860000D03*
%TD*%
D26*
%TO.C,R305*%
X21306000Y20140000D03*
X19806000Y20140000D03*
%TD*%
D10*
%TO.C,Q305*%
X23030000Y6091500D03*
X21130000Y6091500D03*
X22080000Y4216500D03*
%TD*%
%TO.C,Q301*%
X-3164800Y-14962900D03*
X-5064800Y-14962900D03*
X-4114800Y-16837900D03*
%TD*%
D11*
%TO.C,TP102*%
X-12293600Y-17780000D03*
%TD*%
%TO.C,TP101*%
X-5715000Y12420600D03*
%TD*%
D26*
%TO.C,R208*%
X-17309400Y-18973800D03*
X-18809400Y-18973800D03*
%TD*%
D23*
%TO.C,C115*%
X-4876800Y29755400D03*
X-4876800Y31255400D03*
%TD*%
D34*
%TO.C,D301*%
X24391500Y20394000D03*
X22816500Y20394000D03*
%TD*%
D10*
%TO.C,Q307*%
X23030000Y14727500D03*
X21130000Y14727500D03*
X22080000Y12852500D03*
%TD*%
D13*
%TO.C,R103*%
X-14821600Y21234400D03*
X-13321600Y21234400D03*
%TD*%
D23*
%TO.C,R203*%
X7162800Y-16421800D03*
X7162800Y-14921800D03*
%TD*%
D10*
%TO.C,Q302*%
X23030000Y10282500D03*
X21130000Y10282500D03*
X22080000Y8407500D03*
%TD*%
D13*
%TO.C,C204*%
X-15900400Y-18976000D03*
X-14400400Y-18976000D03*
%TD*%
D45*
%TO.C,C211*%
X4726200Y11125200D03*
X8126200Y11125200D03*
%TD*%
D11*
%TO.C,TP104*%
X-13258800Y24358600D03*
%TD*%
D13*
%TO.C,R304*%
X17875600Y2512400D03*
X19375600Y2512400D03*
%TD*%
D41*
%TO.C,Q201*%
X3507500Y-14656900D03*
X3507500Y-16556900D03*
X5382500Y-15606900D03*
%TD*%
D11*
%TO.C,TP401*%
X13190000Y-20246000D03*
%TD*%
D10*
%TO.C,Q303*%
X19220000Y14727500D03*
X17320000Y14727500D03*
X18270000Y12852500D03*
%TD*%
D13*
%TO.C,C109*%
X-2800000Y5408000D03*
X-1300000Y5408000D03*
%TD*%
%TO.C,R210*%
X9900000Y-9578000D03*
X11400000Y-9578000D03*
%TD*%
D23*
%TO.C,R402*%
X5824000Y-21758000D03*
X5824000Y-20258000D03*
%TD*%
D26*
%TO.C,C104*%
X-22745000Y-13642000D03*
X-24245000Y-13642000D03*
%TD*%
D37*
%TO.C,U301*%
X13002000Y17224500D03*
X13952000Y17224500D03*
X14902000Y17224500D03*
X14902000Y19499500D03*
X13002000Y19499500D03*
%TD*%
D11*
%TO.C,TP402*%
X9430800Y-28983600D03*
%TD*%
D46*
%TO.C,U401*%
X7480500Y-20312000D03*
X7480500Y-21262000D03*
X7480500Y-22212000D03*
X9755500Y-22212000D03*
X9755500Y-20312000D03*
%TD*%
D14*
%TO.C,D201*%
X2776000Y-11644000D03*
X2776000Y-9544000D03*
%TD*%
D12*
%TO.C,R202*%
X12700000Y-14871000D03*
X12700000Y-16371000D03*
%TD*%
D26*
%TO.C,R204*%
X-17334800Y-17551400D03*
X-18834800Y-17551400D03*
%TD*%
D47*
%TO.C,U201*%
X3700000Y-4095000D03*
X3700000Y-5365000D03*
X3700000Y-6635000D03*
X3700000Y-7905000D03*
X9000000Y-7905000D03*
X9000000Y-6635000D03*
X9000000Y-5365000D03*
X9000000Y-4095000D03*
D48*
X6350000Y-6000000D03*
%TD*%
D11*
%TO.C,TP302*%
X20302000Y21918000D03*
%TD*%
D49*
%TO.C,C201*%
X16414000Y-180000D03*
X13014000Y-180000D03*
%TD*%
D13*
%TO.C,R403*%
X-1512000Y-17576800D03*
X-12000Y-17576800D03*
%TD*%
D31*
%TO.C,C205*%
X4808000Y-9594000D03*
X4808000Y-11594000D03*
%TD*%
D26*
%TO.C,R302*%
X14448000Y15568000D03*
X12948000Y15568000D03*
%TD*%
D12*
%TO.C,C301*%
X11412000Y19112000D03*
X11412000Y17612000D03*
%TD*%
D19*
%TO.C,J302*%
X20170000Y17600000D03*
D20*
X24970001Y17600000D03*
%TD*%
D50*
%TO.C,J401*%
X12032437Y-25867337D03*
D51*
X14197501Y-24617337D03*
X16362564Y-23367337D03*
%TD*%
D12*
%TO.C,C112*%
X1104900Y17476600D03*
X1104900Y15976600D03*
%TD*%
D52*
%TO.C,C208*%
X5285000Y8255000D03*
X2335000Y8255000D03*
%TD*%
D26*
%TO.C,R201*%
X-37400Y-14706600D03*
X-1537400Y-14706600D03*
%TD*%
D53*
%TO.C,J301*%
X16746000Y23188000D03*
D54*
X14580936Y24438000D03*
X12415873Y25688000D03*
%TD*%
D55*
%TO.C,SW102*%
X-932000Y14684000D03*
X-7232000Y14684000D03*
X-932000Y18484000D03*
X-7232000Y18484000D03*
%TD*%
D56*
%TO.C,J101*%
X-19835000Y13672500D03*
D33*
X-19835000Y16212500D03*
X-17295000Y13672500D03*
X-17295000Y16212500D03*
X-14755000Y13672500D03*
X-14755000Y16212500D03*
%TD*%
D11*
%TO.C,TP103*%
X-11785600Y21234400D03*
%TD*%
D12*
%TO.C,R401*%
X-8788400Y-10832400D03*
X-8788400Y-12332400D03*
%TD*%
D26*
%TO.C,C210*%
X3925000Y5715000D03*
X2425000Y5715000D03*
%TD*%
M02*
