%TF.GenerationSoftware,KiCad,Pcbnew,10.0.1*%
%TF.CreationDate,2026-09-20T12:30:31+02:00*%
%TF.ProjectId,Robobouoy-V4.0,526f626f-626f-4756-9f79-2d56342e302e,rev?*%
%TF.SameCoordinates,Original*%
%TF.FileFunction,Profile,NP*%
%FSLAX46Y46*%
G04 Gerber Fmt 4.6, Leading zero omitted, Abs format (unit mm)*
G04 Created by KiCad (PCBNEW 10.0.1) date 2026-09-20 12:30:31*
%MOMM*%
%LPD*%
G01*
G04 APERTURE LIST*
%TA.AperFunction,Profile*%
%ADD10C,0.050000*%
%TD*%
G04 APERTURE END LIST*
D10*
X30000000Y-80515000D02*
X30000000Y-85515000D01*
X30000000Y-80515000D02*
G75*
G02*
X30500000Y-80015000I500000J0D01*
G01*
X30000000Y-114515000D02*
G75*
G02*
X30500000Y-114015000I500000J0D01*
G01*
X30000000Y-119515000D02*
X30000000Y-114515000D01*
X30500000Y-80015000D02*
X173000000Y-80015000D01*
X30500000Y-86015000D02*
G75*
G02*
X30000000Y-85515000I0J500000D01*
G01*
X30500000Y-86015000D02*
X35500000Y-86015000D01*
X30500000Y-120015000D02*
G75*
G02*
X30000000Y-119515000I0J500000D01*
G01*
X35500000Y-86015000D02*
G75*
G02*
X36000000Y-86515000I0J-500000D01*
G01*
X35500000Y-114015000D02*
X30500000Y-114015000D01*
X36000000Y-86515000D02*
X36000000Y-113515000D01*
X36000000Y-113515000D02*
G75*
G02*
X35500000Y-114015000I-500000J0D01*
G01*
X104994670Y-104004340D02*
X104994670Y-117004340D01*
X104994670Y-104004340D02*
G75*
G02*
X105994670Y-104004340I500000J0D01*
G01*
X105000000Y-83015000D02*
X105000000Y-96015000D01*
X105000000Y-83015000D02*
G75*
G02*
X106000000Y-83015000I500000J0D01*
G01*
X106000000Y-98015000D02*
G75*
G02*
X105000000Y-98015000I-500000J0D01*
G01*
X105000000Y-98015000D02*
G75*
G02*
X106000000Y-98015000I500000J0D01*
G01*
X106000000Y-100015000D02*
G75*
G02*
X105000000Y-100015000I-500000J0D01*
G01*
X105000000Y-100015000D02*
G75*
G02*
X106000000Y-100015000I500000J0D01*
G01*
X106000000Y-102015000D02*
G75*
G02*
X105000000Y-102015000I-500000J0D01*
G01*
X105000000Y-102015000D02*
G75*
G02*
X106000000Y-102015000I500000J0D01*
G01*
X105994670Y-104004340D02*
X105994670Y-117004340D01*
X105994670Y-117004340D02*
G75*
G02*
X104994670Y-117004340I-500000J0D01*
G01*
X106000000Y-83015000D02*
X106000000Y-96015000D01*
X106000000Y-96015000D02*
G75*
G02*
X105000000Y-96015000I-500000J0D01*
G01*
X173000000Y-80015000D02*
G75*
G02*
X173500000Y-80515000I0J-500000D01*
G01*
X173500000Y-80515000D02*
X173500000Y-85515000D01*
X174000000Y-86015000D02*
G75*
G02*
X173500000Y-85515000I0J500000D01*
G01*
X174000000Y-86015000D02*
X201000000Y-86015000D01*
X201500000Y-80515000D02*
G75*
G02*
X202000000Y-80015000I500000J0D01*
G01*
X201500000Y-85515000D02*
G75*
G02*
X201000000Y-86015000I-500000J0D01*
G01*
X201500000Y-85515000D02*
X201500000Y-80515000D01*
X202000000Y-80015000D02*
X223500000Y-80015000D01*
X208000000Y-83015000D02*
X208000000Y-96015000D01*
X208000000Y-83015000D02*
G75*
G02*
X209000000Y-83015000I500000J0D01*
G01*
X208000000Y-104015000D02*
X208000000Y-117015000D01*
X208000000Y-104015000D02*
G75*
G02*
X209000000Y-104015000I500000J0D01*
G01*
X209000000Y-98015000D02*
G75*
G02*
X208000000Y-98015000I-500000J0D01*
G01*
X208000000Y-98015000D02*
G75*
G02*
X209000000Y-98015000I500000J0D01*
G01*
X209000000Y-100015000D02*
G75*
G02*
X208000000Y-100015000I-500000J0D01*
G01*
X208000000Y-100015000D02*
G75*
G02*
X209000000Y-100015000I500000J0D01*
G01*
X209000000Y-102015000D02*
G75*
G02*
X208000000Y-102015000I-500000J0D01*
G01*
X208000000Y-102015000D02*
G75*
G02*
X209000000Y-102015000I500000J0D01*
G01*
X209000000Y-83015000D02*
X209000000Y-96015000D01*
X209000000Y-96015000D02*
G75*
G02*
X208000000Y-96015000I-500000J0D01*
G01*
X209000000Y-104015000D02*
X209000000Y-117015000D01*
X209000000Y-117015000D02*
G75*
G02*
X208000000Y-117015000I-500000J0D01*
G01*
X223500000Y-80015000D02*
G75*
G02*
X224000000Y-80515000I0J-500000D01*
G01*
X223500000Y-120015000D02*
X30500000Y-120015000D01*
X224000000Y-80515000D02*
X224000000Y-119515000D01*
X224000000Y-119515000D02*
G75*
G02*
X223500000Y-120015000I-500000J0D01*
G01*
M02*
