%TF.GenerationSoftware,KiCad,Pcbnew,10.0.1*%
%TF.CreationDate,2026-09-20T12:30:31+02:00*%
%TF.ProjectId,Robobouoy-V4.0,526f626f-626f-4756-9f79-2d56342e302e,rev?*%
%TF.SameCoordinates,Original*%
%TF.FileFunction,Soldermask,Top*%
%TF.FilePolarity,Negative*%
%FSLAX46Y46*%
G04 Gerber Fmt 4.6, Leading zero omitted, Abs format (unit mm)*
G04 Created by KiCad (PCBNEW 10.0.1) date 2026-09-20 12:30:31*
%MOMM*%
%LPD*%
G01*
G04 APERTURE LIST*
G04 Aperture macros list*
%AMRoundRect*
0 Rectangle with rounded corners*
0 $1 Rounding radius*
0 $2 $3 $4 $5 $6 $7 $8 $9 X,Y pos of 4 corners*
0 Add a 4 corners polygon primitive as box body*
4,1,4,$2,$3,$4,$5,$6,$7,$8,$9,$2,$3,0*
0 Add four circle primitives for the rounded corners*
1,1,$1+$1,$2,$3*
1,1,$1+$1,$4,$5*
1,1,$1+$1,$6,$7*
1,1,$1+$1,$8,$9*
0 Add four rect primitives between the rounded corners*
20,1,$1+$1,$2,$3,$4,$5,0*
20,1,$1+$1,$4,$5,$6,$7,0*
20,1,$1+$1,$6,$7,$8,$9,0*
20,1,$1+$1,$8,$9,$2,$3,0*%
%AMRotRect*
0 Rectangle, with rotation*
0 The origin of the aperture is its center*
0 $1 length*
0 $2 width*
0 $3 Rotation angle, in degrees counterclockwise*
0 Add horizontal line*
21,1,$1,$2,0,0,$3*%
%AMFreePoly0*
4,1,15,0.287856,0.135279,0.302500,0.100178,0.303008,0.000178,0.288543,-0.035251,0.288351,-0.035445,0.188352,-0.135369,0.153010,-0.150000,-0.252501,-0.150000,-0.287856,-0.135355,-0.302501,-0.100000,-0.302501,0.099924,-0.287856,0.135279,-0.252501,0.149924,0.252501,0.149924,0.287856,0.135279,0.287856,0.135279,$1*%
%AMFreePoly1*
4,1,15,0.188365,0.135355,0.188366,0.135355,0.288365,0.035355,0.303009,0.000000,0.302500,-0.100254,0.287676,-0.135534,0.252501,-0.150000,-0.252501,-0.150000,-0.287856,-0.135355,-0.302501,-0.100000,-0.302501,0.100000,-0.287856,0.135355,-0.252501,0.150000,0.153010,0.150000,0.188365,0.135355,0.188365,0.135355,$1*%
%AMFreePoly2*
4,1,15,0.135355,0.287856,0.150000,0.252501,0.150000,-0.252501,0.135355,-0.287856,0.100254,-0.302500,0.000254,-0.303008,-0.035175,-0.288543,-0.035355,-0.288365,-0.135355,-0.188366,-0.150000,-0.153010,-0.150000,0.252501,-0.135355,0.287856,-0.100000,0.302501,0.100000,0.302501,0.135355,0.287856,0.135355,0.287856,$1*%
%AMFreePoly3*
4,1,14,0.135406,0.287806,0.150051,0.252451,0.150051,-0.153060,0.135415,-0.188406,0.035415,-0.288457,0.000064,-0.303111,-0.100215,-0.302577,-0.135492,-0.287744,-0.149949,-0.252578,-0.149949,0.252451,-0.135304,0.287806,-0.099949,0.302451,0.100051,0.302451,0.135406,0.287806,0.135406,0.287806,$1*%
%AMFreePoly4*
4,1,15,0.287831,0.135228,0.302476,0.099873,0.302476,-0.100051,0.287831,-0.135406,0.252476,-0.150051,-0.252527,-0.150051,-0.287882,-0.135406,-0.302526,-0.100318,-0.303059,-0.000369,-0.288603,0.035064,-0.288406,0.035262,-0.188381,0.135237,-0.153035,0.149873,0.252476,0.149873,0.287831,0.135228,0.287831,0.135228,$1*%
%AMFreePoly5*
4,1,15,0.287907,0.135253,0.302552,0.099898,0.302552,-0.100076,0.287907,-0.135431,0.252552,-0.150076,-0.152959,-0.150076,-0.188314,-0.135431,-0.188319,-0.135427,-0.288293,-0.035427,-0.302933,-0.000069,-0.302450,0.100139,-0.287635,0.135423,-0.252451,0.149898,0.252552,0.149898,0.287907,0.135253,0.287907,0.135253,$1*%
%AMFreePoly6*
4,1,14,0.035226,0.288493,0.135406,0.188314,0.150051,0.152959,0.150051,-0.252527,0.135406,-0.287882,0.100051,-0.302527,-0.099949,-0.302527,-0.135304,-0.287882,-0.149949,-0.252527,-0.149949,0.252451,-0.135304,0.287806,-0.100203,0.302450,-0.000203,0.302958,0.035226,0.288493,0.035226,0.288493,$1*%
%AMFreePoly7*
4,1,15,0.000190,0.302983,0.100165,0.302399,0.135434,0.287548,0.149873,0.252400,0.149873,-0.252628,0.135228,-0.287983,0.099873,-0.302628,-0.100101,-0.302628,-0.135456,-0.287983,-0.150101,-0.252628,-0.150101,0.152883,-0.135474,0.188220,-0.035475,0.288321,-0.000127,0.302984,0.000190,0.302983,0.000190,0.302983,$1*%
G04 Aperture macros list end*
%ADD10C,1.778000*%
%ADD11RoundRect,0.218750X-0.218750X-0.256250X0.218750X-0.256250X0.218750X0.256250X-0.218750X0.256250X0*%
%ADD12RoundRect,0.218750X0.218750X0.256250X-0.218750X0.256250X-0.218750X-0.256250X0.218750X-0.256250X0*%
%ADD13RoundRect,0.150000X0.590000X0.150000X-0.590000X0.150000X-0.590000X-0.150000X0.590000X-0.150000X0*%
%ADD14RotRect,0.500000X0.550000X225.000000*%
%ADD15RotRect,4.600000X4.120000X225.000000*%
%ADD16RotRect,0.500000X0.650000X225.000000*%
%ADD17RotRect,0.500000X0.550000X315.000000*%
%ADD18RotRect,4.600000X4.120000X315.000000*%
%ADD19RotRect,0.500000X0.650000X315.000000*%
%ADD20RoundRect,0.150000X-0.590000X-0.150000X0.590000X-0.150000X0.590000X0.150000X-0.590000X0.150000X0*%
%ADD21RoundRect,0.250000X-2.250000X-2.250000X2.250000X-2.250000X2.250000X2.250000X-2.250000X2.250000X0*%
%ADD22RoundRect,0.225000X-0.525000X-0.225000X0.525000X-0.225000X0.525000X0.225000X-0.525000X0.225000X0*%
%ADD23RoundRect,0.225000X0.225000X-0.525000X0.225000X0.525000X-0.225000X0.525000X-0.225000X-0.525000X0*%
%ADD24R,3.810000X2.410000*%
%ADD25RoundRect,0.150000X0.150000X-0.825000X0.150000X0.825000X-0.150000X0.825000X-0.150000X-0.825000X0*%
%ADD26R,1.700000X1.700000*%
%ADD27FreePoly0,270.000000*%
%ADD28R,0.200000X0.505000*%
%ADD29FreePoly1,270.000000*%
%ADD30FreePoly2,270.000000*%
%ADD31R,0.505000X0.200000*%
%ADD32FreePoly3,270.000000*%
%ADD33FreePoly4,270.000000*%
%ADD34FreePoly5,270.000000*%
%ADD35FreePoly6,270.000000*%
%ADD36FreePoly7,270.000000*%
%ADD37RoundRect,0.250000X2.250000X-2.250000X2.250000X2.250000X-2.250000X2.250000X-2.250000X-2.250000X0*%
%ADD38RoundRect,0.225000X0.525000X0.225000X-0.525000X0.225000X-0.525000X-0.225000X0.525000X-0.225000X0*%
%ADD39C,1.000000*%
%ADD40RoundRect,0.112500X0.187500X0.112500X-0.187500X0.112500X-0.187500X-0.112500X0.187500X-0.112500X0*%
%ADD41RoundRect,0.200000X0.250000X-0.200000X0.250000X0.200000X-0.250000X0.200000X-0.250000X-0.200000X0*%
%ADD42RoundRect,0.200000X-0.250000X0.200000X-0.250000X-0.200000X0.250000X-0.200000X0.250000X0.200000X0*%
%ADD43RoundRect,0.200000X-0.200000X-0.250000X0.200000X-0.250000X0.200000X0.250000X-0.200000X0.250000X0*%
%ADD44RoundRect,0.090000X0.660000X0.360000X-0.660000X0.360000X-0.660000X-0.360000X0.660000X-0.360000X0*%
%ADD45RoundRect,0.200000X0.200000X0.250000X-0.200000X0.250000X-0.200000X-0.250000X0.200000X-0.250000X0*%
%ADD46RoundRect,0.250000X0.650000X-0.325000X0.650000X0.325000X-0.650000X0.325000X-0.650000X-0.325000X0*%
%ADD47RoundRect,1.500000X2.121320X0.000000X0.000000X2.121320X-2.121320X0.000000X0.000000X-2.121320X0*%
%ADD48C,6.000000*%
%ADD49RoundRect,0.150000X-0.150000X0.512500X-0.150000X-0.512500X0.150000X-0.512500X0.150000X0.512500X0*%
%ADD50RoundRect,0.112500X-0.112500X0.187500X-0.112500X-0.187500X0.112500X-0.187500X0.112500X0.187500X0*%
%ADD51RoundRect,0.150000X-0.150000X0.150000X-0.150000X-0.150000X0.150000X-0.150000X0.150000X0.150000X0*%
%ADD52RoundRect,0.250000X0.725000X-0.600000X0.725000X0.600000X-0.725000X0.600000X-0.725000X-0.600000X0*%
%ADD53O,1.950000X1.700000*%
%ADD54RoundRect,0.150000X0.350000X0.350000X-0.350000X0.350000X-0.350000X-0.350000X0.350000X-0.350000X0*%
%ADD55RoundRect,0.250000X0.300000X-0.300000X0.300000X0.300000X-0.300000X0.300000X-0.300000X-0.300000X0*%
%ADD56C,1.100000*%
%ADD57RoundRect,0.250000X-0.325000X-0.650000X0.325000X-0.650000X0.325000X0.650000X-0.325000X0.650000X0*%
%ADD58RoundRect,0.112500X0.112500X-0.187500X0.112500X0.187500X-0.112500X0.187500X-0.112500X-0.187500X0*%
%ADD59RoundRect,0.150000X0.150000X-0.587500X0.150000X0.587500X-0.150000X0.587500X-0.150000X-0.587500X0*%
%ADD60RoundRect,0.225000X-0.225000X-0.425000X0.225000X-0.425000X0.225000X0.425000X-0.225000X0.425000X0*%
%ADD61RoundRect,0.250000X0.325000X0.650000X-0.325000X0.650000X-0.325000X-0.650000X0.325000X-0.650000X0*%
%ADD62RoundRect,1.500000X1.500000X1.500000X-1.500000X1.500000X-1.500000X-1.500000X1.500000X-1.500000X0*%
%ADD63RoundRect,0.150000X-0.150000X-0.150000X0.150000X-0.150000X0.150000X0.150000X-0.150000X0.150000X0*%
%ADD64RoundRect,0.206250X-0.618750X-0.618750X0.618750X-0.618750X0.618750X0.618750X-0.618750X0.618750X0*%
%ADD65C,1.700000*%
%ADD66RoundRect,0.150000X-0.150000X0.587500X-0.150000X-0.587500X0.150000X-0.587500X0.150000X0.587500X0*%
%ADD67RoundRect,0.090000X-0.660000X-0.360000X0.660000X-0.360000X0.660000X0.360000X-0.660000X0.360000X0*%
%ADD68RoundRect,0.150000X0.587500X0.150000X-0.587500X0.150000X-0.587500X-0.150000X0.587500X-0.150000X0*%
%ADD69RoundRect,1.500000X0.000000X2.121320X-2.121320X0.000000X0.000000X-2.121320X2.121320X0.000000X0*%
%ADD70RoundRect,0.230769X0.969231X1.519231X-0.969231X1.519231X-0.969231X-1.519231X0.969231X-1.519231X0*%
%ADD71O,7.000000X5.000000*%
%ADD72RoundRect,0.250000X-0.300000X-0.300000X0.300000X-0.300000X0.300000X0.300000X-0.300000X0.300000X0*%
%ADD73RoundRect,0.206250X0.618750X-0.618750X0.618750X0.618750X-0.618750X0.618750X-0.618750X-0.618750X0*%
%ADD74RoundRect,0.206250X0.618750X0.618750X-0.618750X0.618750X-0.618750X-0.618750X0.618750X-0.618750X0*%
%ADD75C,1.500000*%
%ADD76RoundRect,0.150000X0.150000X-0.150000X0.150000X0.150000X-0.150000X0.150000X-0.150000X-0.150000X0*%
%ADD77RoundRect,0.250000X-0.600000X-0.725000X0.600000X-0.725000X0.600000X0.725000X-0.600000X0.725000X0*%
%ADD78O,1.700000X1.950000*%
%ADD79RoundRect,0.275000X0.275000X0.575000X-0.275000X0.575000X-0.275000X-0.575000X0.275000X-0.575000X0*%
%ADD80RoundRect,0.250000X-0.650000X0.325000X-0.650000X-0.325000X0.650000X-0.325000X0.650000X0.325000X0*%
%ADD81RoundRect,0.300000X-0.700000X-0.300000X0.700000X-0.300000X0.700000X0.300000X-0.700000X0.300000X0*%
%ADD82RoundRect,0.317500X-0.698500X-0.317500X0.698500X-0.317500X0.698500X0.317500X-0.698500X0.317500X0*%
%ADD83RoundRect,0.500000X-0.500000X-1.100000X0.500000X-1.100000X0.500000X1.100000X-0.500000X1.100000X0*%
%ADD84RoundRect,0.250000X-0.650000X1.000000X-0.650000X-1.000000X0.650000X-1.000000X0.650000X1.000000X0*%
%ADD85RoundRect,0.150000X-0.350000X-0.350000X0.350000X-0.350000X0.350000X0.350000X-0.350000X0.350000X0*%
%ADD86RoundRect,0.150000X-0.587500X-0.150000X0.587500X-0.150000X0.587500X0.150000X-0.587500X0.150000X0*%
%ADD87R,1.500000X2.000000*%
%ADD88RoundRect,0.112500X-0.187500X-0.112500X0.187500X-0.112500X0.187500X0.112500X-0.187500X0.112500X0*%
%ADD89RoundRect,0.250000X-0.725000X0.600000X-0.725000X-0.600000X0.725000X-0.600000X0.725000X0.600000X0*%
G04 APERTURE END LIST*
D10*
%TO.C,BUZZER501*%
X91875000Y-108515000D03*
X85375000Y-108515000D03*
%TD*%
D11*
%TO.C,D201*%
X162994500Y-81981000D03*
X161419500Y-81981000D03*
%TD*%
%TO.C,D304*%
X152787500Y-107015000D03*
X151212500Y-107015000D03*
%TD*%
%TO.C,D305*%
X152787500Y-93015000D03*
X151212500Y-93015000D03*
%TD*%
D12*
%TO.C,D309*%
X149075099Y-97729000D03*
X150650101Y-97729000D03*
%TD*%
%TO.C,D605*%
X82683899Y-85935800D03*
X84258901Y-85935800D03*
%TD*%
D13*
%TO.C,Q301*%
X113032401Y-86451400D03*
X114912400Y-85501400D03*
X114912400Y-87401400D03*
%TD*%
D14*
%TO.C,Q307*%
X127258094Y-112744988D03*
X128156119Y-111846963D03*
X129054145Y-110948937D03*
X129952170Y-110050912D03*
D15*
X126954038Y-109746856D03*
D16*
X123333651Y-108820546D03*
X124231677Y-107922520D03*
X125129702Y-107024495D03*
X126027728Y-106126469D03*
%TD*%
D17*
%TO.C,Q308*%
X129952170Y-89979088D03*
X129054145Y-89081063D03*
X128156119Y-88183037D03*
X127258094Y-87285012D03*
D18*
X126954038Y-90283144D03*
D19*
X126027728Y-93903531D03*
X125129702Y-93005505D03*
X124231677Y-92107480D03*
X123333651Y-91209454D03*
%TD*%
D20*
%TO.C,Q605*%
X80368399Y-86132499D03*
X78488400Y-87082499D03*
X78488400Y-85182499D03*
%TD*%
D21*
%TO.C,U202*%
X186587674Y-95013485D03*
D22*
X196197674Y-87668485D03*
X196197674Y-88938485D03*
X196197674Y-90208485D03*
X196197674Y-91478485D03*
X196197674Y-92748485D03*
X196197674Y-94018485D03*
X196197674Y-95288485D03*
X196197674Y-96558485D03*
X196197674Y-97828485D03*
X196197674Y-99098485D03*
X196197674Y-100368485D03*
X196197674Y-101638485D03*
X196197674Y-102908485D03*
X196197674Y-104178485D03*
D23*
X193162674Y-105428485D03*
X191892675Y-105428485D03*
X190622674Y-105428485D03*
X189352674Y-105428486D03*
X188082674Y-105428485D03*
X186812674Y-105428485D03*
X185542674Y-105428486D03*
X184272674Y-105428485D03*
X183002673Y-105428485D03*
X181732674Y-105428485D03*
D22*
X178697674Y-104178485D03*
X178697674Y-102908485D03*
X178697674Y-101638485D03*
X178697674Y-100368485D03*
X178697674Y-99098485D03*
X178697674Y-97828485D03*
X178697674Y-96558485D03*
X178697674Y-95288485D03*
X178697674Y-94018485D03*
X178697674Y-92748485D03*
X178697674Y-91478485D03*
X178697674Y-90208485D03*
X178697674Y-88938485D03*
X178697674Y-87668485D03*
%TD*%
D24*
%TO.C,U303*%
X163858000Y-104206000D03*
D25*
X161953000Y-101731000D03*
X163223000Y-101731000D03*
X164493000Y-101731000D03*
X165763000Y-101731000D03*
X165763000Y-106681000D03*
X164493000Y-106681000D03*
X163223000Y-106681000D03*
X161953000Y-106681000D03*
%TD*%
D26*
%TO.C,U402*%
X216563000Y-109807600D03*
D27*
X215563000Y-108377600D03*
D28*
X215963000Y-108377600D03*
X216363000Y-108377600D03*
X216763000Y-108377600D03*
X217163000Y-108377600D03*
D29*
X217563000Y-108377600D03*
D30*
X217993000Y-108807600D03*
D31*
X217993000Y-109207600D03*
X217993000Y-109607600D03*
X217993000Y-110007600D03*
X217993000Y-110407600D03*
D32*
X217993000Y-110807600D03*
D33*
X217563000Y-111237600D03*
D28*
X217163000Y-111237600D03*
X216763000Y-111237600D03*
X216363000Y-111237600D03*
X215963000Y-111237600D03*
D34*
X215563000Y-111237600D03*
D35*
X215133000Y-110807600D03*
D31*
X215133000Y-110407600D03*
X215133000Y-110007600D03*
X215133000Y-109607600D03*
X215133000Y-109207600D03*
D36*
X215133000Y-108807600D03*
%TD*%
D37*
%TO.C,U501*%
X45088000Y-100860000D03*
D23*
X37743000Y-91250000D03*
X39013000Y-91250000D03*
X40283000Y-91250000D03*
X41553000Y-91250000D03*
X42823000Y-91250000D03*
X44093000Y-91250000D03*
X45363000Y-91250000D03*
X46633000Y-91250000D03*
X47903000Y-91250000D03*
X49173000Y-91250000D03*
X50443000Y-91250000D03*
X51713000Y-91250000D03*
X52983000Y-91250000D03*
X54253000Y-91250000D03*
D38*
X55503000Y-94285000D03*
X55503000Y-95555000D03*
X55503000Y-96825000D03*
X55503000Y-98095000D03*
X55503000Y-99365000D03*
X55503000Y-100635000D03*
X55503000Y-101905000D03*
X55503000Y-103175000D03*
X55503000Y-104445000D03*
X55503000Y-105715000D03*
D23*
X54253000Y-108750000D03*
X52983000Y-108750000D03*
X51713000Y-108750000D03*
X50443000Y-108750000D03*
X49173000Y-108750000D03*
X47903000Y-108750000D03*
X46633000Y-108750000D03*
X45363000Y-108750000D03*
X44093000Y-108750000D03*
X42823000Y-108750000D03*
X41553000Y-108750000D03*
X40283000Y-108750000D03*
X39013000Y-108750000D03*
X37743000Y-108750000D03*
%TD*%
D24*
%TO.C,U602*%
X96551000Y-90664000D03*
D25*
X94646000Y-88189000D03*
X95916000Y-88189000D03*
X97186000Y-88189000D03*
X98456000Y-88189000D03*
X98456000Y-93139000D03*
X97186000Y-93139000D03*
X95916000Y-93139000D03*
X94646000Y-93139000D03*
%TD*%
D39*
%TO.C,TP311*%
X111280000Y-86426000D03*
%TD*%
D40*
%TO.C,D603*%
X91409000Y-100889000D03*
X89309000Y-100889000D03*
%TD*%
D41*
%TO.C,C609*%
X72291000Y-114466000D03*
X72291000Y-112966000D03*
%TD*%
D42*
%TO.C,C212*%
X169319000Y-103202000D03*
X169319000Y-104702000D03*
%TD*%
D43*
%TO.C,R203*%
X169305600Y-89093000D03*
X170805600Y-89093000D03*
%TD*%
D44*
%TO.C,D502*%
X81097028Y-108542385D03*
X81097028Y-105242385D03*
X76197028Y-105242385D03*
X76197028Y-108542385D03*
%TD*%
D45*
%TO.C,R506*%
X79518000Y-89078000D03*
X78018000Y-89078000D03*
%TD*%
D46*
%TO.C,C209*%
X169827000Y-87266000D03*
X169827000Y-84316000D03*
%TD*%
D43*
%TO.C,R317*%
X141899000Y-85537000D03*
X143399000Y-85537000D03*
%TD*%
%TO.C,R620*%
X82717000Y-84379000D03*
X84217000Y-84379000D03*
%TD*%
%TO.C,C308*%
X164378000Y-110048000D03*
X165878000Y-110048000D03*
%TD*%
D39*
%TO.C,TP605*%
X93042800Y-115305800D03*
%TD*%
D47*
%TO.C,J305*%
X141000000Y-93015000D03*
D48*
X135908831Y-87923831D03*
%TD*%
D49*
%TO.C,U301*%
X160326299Y-114955700D03*
X159376300Y-114955700D03*
X158426301Y-114955700D03*
X158426301Y-117230700D03*
X160326299Y-117230700D03*
%TD*%
D44*
%TO.C,D503*%
X81097028Y-101414385D03*
X81097028Y-98114385D03*
X76197028Y-98114385D03*
X76197028Y-101414385D03*
%TD*%
D13*
%TO.C,Q303*%
X121999000Y-87630000D03*
X121999000Y-85730000D03*
X120119001Y-86680000D03*
%TD*%
D50*
%TO.C,D601*%
X90960000Y-97045000D03*
X90960000Y-99145000D03*
%TD*%
D51*
%TO.C,R405*%
X216309000Y-100912001D03*
X216309000Y-101911999D03*
%TD*%
D52*
%TO.C,J202*%
X203500000Y-98265000D03*
D53*
X203500000Y-95765000D03*
X203500000Y-93265000D03*
X203500000Y-90765000D03*
%TD*%
D42*
%TO.C,C211*%
X169319000Y-97868000D03*
X169319000Y-99368000D03*
%TD*%
D54*
%TO.C,JP205*%
X210024000Y-101015000D03*
X206976000Y-101015000D03*
%TD*%
D55*
%TO.C,J201*%
X204500000Y-108555000D03*
D56*
X203230000Y-108555000D03*
X204500000Y-107285000D03*
X203230000Y-107285000D03*
X203230000Y-106015000D03*
X204500000Y-106015000D03*
%TD*%
D42*
%TO.C,R313*%
X123853000Y-85930000D03*
X123853000Y-87430000D03*
%TD*%
D41*
%TO.C,R606*%
X100434200Y-101730200D03*
X100434200Y-100230200D03*
%TD*%
D39*
%TO.C,TP307*%
X121287600Y-93461800D03*
%TD*%
D45*
%TO.C,C513*%
X62754000Y-113121400D03*
X61254000Y-113121400D03*
%TD*%
%TO.C,R613*%
X76724000Y-84644998D03*
X75224000Y-84644998D03*
%TD*%
D57*
%TO.C,C502*%
X39955000Y-111684000D03*
X42905000Y-111684000D03*
%TD*%
D45*
%TO.C,R616*%
X97936000Y-86157000D03*
X96436000Y-86157000D03*
%TD*%
D58*
%TO.C,D307*%
X167033000Y-99414000D03*
X167033000Y-97314000D03*
%TD*%
D43*
%TO.C,C613*%
X93007000Y-95174000D03*
X94507000Y-95174000D03*
%TD*%
D59*
%TO.C,Q302*%
X125824000Y-83553500D03*
X127724000Y-83553500D03*
X126774000Y-81678499D03*
%TD*%
D41*
%TO.C,R205*%
X199367200Y-95024600D03*
X199367200Y-93524600D03*
%TD*%
%TO.C,C317*%
X147094000Y-116259000D03*
X147094000Y-114759000D03*
%TD*%
D43*
%TO.C,R344*%
X149138000Y-96205000D03*
X150638000Y-96205000D03*
%TD*%
D45*
%TO.C,C605*%
X95904000Y-96698000D03*
X94404000Y-96698000D03*
%TD*%
%TO.C,R323*%
X121428000Y-107635000D03*
X119928000Y-107635000D03*
%TD*%
D60*
%TO.C,C610*%
X97440000Y-97206000D03*
X99440000Y-97206000D03*
%TD*%
D61*
%TO.C,C301*%
X162793001Y-111953000D03*
X159842999Y-111953000D03*
%TD*%
D43*
%TO.C,R321*%
X119928000Y-109159000D03*
X121428000Y-109159000D03*
%TD*%
D45*
%TO.C,R208*%
X199787000Y-98872000D03*
X198287000Y-98872000D03*
%TD*%
D41*
%TO.C,R209*%
X198402000Y-105845000D03*
X198402000Y-104345000D03*
%TD*%
D62*
%TO.C,J306*%
X133000000Y-100015000D03*
D48*
X125800000Y-100015000D03*
%TD*%
D42*
%TO.C,C311*%
X156746000Y-101424000D03*
X156746000Y-102924000D03*
%TD*%
D58*
%TO.C,D205*%
X181892000Y-113565000D03*
X181892000Y-111465000D03*
%TD*%
D45*
%TO.C,C606*%
X95904000Y-99492000D03*
X94404000Y-99492000D03*
%TD*%
%TO.C,R301*%
X158639000Y-81346000D03*
X157139000Y-81346000D03*
%TD*%
D43*
%TO.C,R607*%
X97576000Y-100269000D03*
X99076000Y-100269000D03*
%TD*%
D10*
%TO.C,BUZZER201*%
X190125000Y-116854000D03*
X190125000Y-110354000D03*
%TD*%
D41*
%TO.C,R310*%
X167414000Y-102162000D03*
X167414000Y-100662000D03*
%TD*%
D43*
%TO.C,C303*%
X161584000Y-110048000D03*
X163084000Y-110048000D03*
%TD*%
D60*
%TO.C,C611*%
X97456000Y-95428000D03*
X99456000Y-95428000D03*
%TD*%
D63*
%TO.C,R401*%
X215428001Y-112435600D03*
X216427999Y-112435600D03*
%TD*%
D43*
%TO.C,C307*%
X164378000Y-111445000D03*
X165878000Y-111445000D03*
%TD*%
D45*
%TO.C,C501*%
X39386000Y-89078000D03*
X37886000Y-89078000D03*
%TD*%
D42*
%TO.C,R302*%
X162562600Y-114911400D03*
X162562600Y-116411400D03*
%TD*%
D41*
%TO.C,R609*%
X73434000Y-86272000D03*
X73434000Y-84772000D03*
%TD*%
D58*
%TO.C,D501*%
X83467000Y-102828000D03*
X83467000Y-100728000D03*
%TD*%
D45*
%TO.C,R619*%
X93081600Y-118150600D03*
X91581600Y-118150600D03*
%TD*%
%TO.C,R501*%
X44750000Y-87554000D03*
X43250000Y-87554000D03*
%TD*%
D39*
%TO.C,TP304*%
X148089523Y-86484928D03*
%TD*%
D59*
%TO.C,Q305*%
X141668749Y-83795500D03*
X143568749Y-83795500D03*
X142618749Y-81920499D03*
%TD*%
D64*
%TO.C,SW201*%
X197385998Y-117795000D03*
D65*
X199926000Y-117795000D03*
%TD*%
D66*
%TO.C,Q604*%
X97955200Y-116349500D03*
X96055200Y-116349500D03*
X97005200Y-118224501D03*
%TD*%
D43*
%TO.C,C602*%
X94404000Y-98095000D03*
X95904000Y-98095000D03*
%TD*%
D67*
%TO.C,D204*%
X171060000Y-104366000D03*
X171060000Y-107666000D03*
X175960000Y-107666000D03*
X175960000Y-104366000D03*
%TD*%
D43*
%TO.C,R305*%
X154218000Y-93030000D03*
X155718000Y-93030000D03*
%TD*%
D68*
%TO.C,Q304*%
X120726500Y-112522000D03*
X120726500Y-110622000D03*
X118851499Y-111572000D03*
%TD*%
D57*
%TO.C,C512*%
X64339000Y-114224000D03*
X67289000Y-114224000D03*
%TD*%
D41*
%TO.C,C304*%
X156873000Y-116741600D03*
X156873000Y-115241600D03*
%TD*%
D43*
%TO.C,R508*%
X71312400Y-110175000D03*
X72812400Y-110175000D03*
%TD*%
D63*
%TO.C,C404*%
X217460000Y-112435600D03*
X218460000Y-112435600D03*
%TD*%
D59*
%TO.C,Q603*%
X88079600Y-118021300D03*
X89979600Y-118021300D03*
X89029600Y-116146299D03*
%TD*%
D42*
%TO.C,C315*%
X123726000Y-116029000D03*
X123726000Y-117529000D03*
%TD*%
D41*
%TO.C,C309*%
X167287000Y-107750000D03*
X167287000Y-106250000D03*
%TD*%
%TO.C,R336*%
X117630000Y-117529000D03*
X117630000Y-116029000D03*
%TD*%
D42*
%TO.C,R346*%
X140490000Y-116791000D03*
X140490000Y-118291000D03*
%TD*%
D45*
%TO.C,C614*%
X86379000Y-89078000D03*
X84879000Y-89078000D03*
%TD*%
D41*
%TO.C,R320*%
X168684000Y-107750000D03*
X168684000Y-106250000D03*
%TD*%
D39*
%TO.C,TP305*%
X172417800Y-110784600D03*
%TD*%
D69*
%TO.C,J304*%
X140545584Y-107015000D03*
D48*
X135454415Y-112106169D03*
%TD*%
D39*
%TO.C,TP312*%
X152301000Y-96205000D03*
%TD*%
D60*
%TO.C,C406*%
X212642000Y-100269000D03*
X214642000Y-100269000D03*
%TD*%
D70*
%TO.C,L301*%
X160762000Y-97348000D03*
X154762000Y-97348000D03*
%TD*%
D39*
%TO.C,TP306*%
X164747000Y-96713000D03*
%TD*%
D45*
%TO.C,C504*%
X38370000Y-112192000D03*
X36870000Y-112192000D03*
%TD*%
%TO.C,R315*%
X168799000Y-111445000D03*
X167299000Y-111445000D03*
%TD*%
%TO.C,R335*%
X116856000Y-111699000D03*
X115356000Y-111699000D03*
%TD*%
D71*
%TO.C,J301*%
X113218000Y-105515000D03*
X113218000Y-100015000D03*
X113218000Y-94515000D03*
%TD*%
D45*
%TO.C,R324*%
X129683000Y-94681000D03*
X128183000Y-94681000D03*
%TD*%
D59*
%TO.C,Q402*%
X216883000Y-97269500D03*
X218783000Y-97269500D03*
X217833000Y-95394499D03*
%TD*%
D72*
%TO.C,J501*%
X40668000Y-84252000D03*
D56*
X40668000Y-82982000D03*
X41938000Y-84252000D03*
X41938000Y-82982000D03*
X43208000Y-82982000D03*
X43208000Y-84252000D03*
%TD*%
D73*
%TO.C,SW601*%
X88547000Y-98476000D03*
D65*
X88547000Y-95936000D03*
X88547000Y-93396000D03*
%TD*%
D41*
%TO.C,R314*%
X118265000Y-88446000D03*
X118265000Y-86946000D03*
%TD*%
%TO.C,R307*%
X124234000Y-83747000D03*
X124234000Y-82247000D03*
%TD*%
D42*
%TO.C,C313*%
X155349000Y-101424000D03*
X155349000Y-102924000D03*
%TD*%
D39*
%TO.C,TP201*%
X199824400Y-104333000D03*
%TD*%
D59*
%TO.C,Q401*%
X220439000Y-97269500D03*
X222339000Y-97269500D03*
X221389000Y-95394499D03*
%TD*%
D46*
%TO.C,C612*%
X69878000Y-114683000D03*
X69878000Y-111733000D03*
%TD*%
D39*
%TO.C,TP602*%
X90579000Y-95697000D03*
%TD*%
D49*
%TO.C,U302*%
X160032799Y-83256500D03*
X159082800Y-83256500D03*
X158132801Y-83256500D03*
X158132801Y-85531500D03*
X160032799Y-85531500D03*
%TD*%
D39*
%TO.C,TP601*%
X102517000Y-101031000D03*
%TD*%
D61*
%TO.C,C601*%
X95740001Y-101397000D03*
X92789999Y-101397000D03*
%TD*%
D66*
%TO.C,Q501*%
X48476000Y-114810500D03*
X46576000Y-114810500D03*
X47526000Y-116685501D03*
%TD*%
D39*
%TO.C,TP301*%
X148110000Y-112842000D03*
%TD*%
D74*
%TO.C,SW301*%
X170843000Y-114366000D03*
D65*
X168303000Y-114366000D03*
X165763000Y-114366000D03*
%TD*%
D43*
%TO.C,R328*%
X163235000Y-98110000D03*
X164735000Y-98110000D03*
%TD*%
D63*
%TO.C,R403*%
X220381001Y-93792000D03*
X221380999Y-93792000D03*
%TD*%
D75*
%TO.C,TP606*%
X85626000Y-93411000D03*
%TD*%
D63*
%TO.C,R404*%
X216825001Y-93814000D03*
X217824999Y-93814000D03*
%TD*%
D42*
%TO.C,R504*%
X48542000Y-111454000D03*
X48542000Y-112954000D03*
%TD*%
D43*
%TO.C,R345*%
X145531200Y-117693400D03*
X147031200Y-117693400D03*
%TD*%
D66*
%TO.C,Q502*%
X86322000Y-98300500D03*
X84422000Y-98300500D03*
X85372000Y-100175501D03*
%TD*%
D41*
%TO.C,R602*%
X77244000Y-82982000D03*
X77244000Y-81482000D03*
%TD*%
D54*
%TO.C,JP201*%
X210024000Y-99015000D03*
X206976000Y-99015000D03*
%TD*%
D41*
%TO.C,R308*%
X116741000Y-88446000D03*
X116741000Y-86946000D03*
%TD*%
D76*
%TO.C,C403*%
X221516000Y-110268599D03*
X221516000Y-109268601D03*
%TD*%
D77*
%TO.C,J502*%
X52392000Y-112937000D03*
D78*
X54892000Y-112937000D03*
X57392000Y-112937000D03*
%TD*%
D75*
%TO.C,TP313*%
X148364000Y-100015000D03*
%TD*%
D41*
%TO.C,R621*%
X92865000Y-99468000D03*
X92865000Y-97968000D03*
%TD*%
D39*
%TO.C,TP308*%
X119154000Y-114493000D03*
%TD*%
D79*
%TO.C,R319*%
X142498000Y-101158000D03*
X139498000Y-101158000D03*
%TD*%
D42*
%TO.C,R322*%
X139951749Y-81854000D03*
X139951749Y-83354000D03*
%TD*%
D41*
%TO.C,R604*%
X96548000Y-107227000D03*
X96548000Y-105727000D03*
%TD*%
%TO.C,C608*%
X72164000Y-117895000D03*
X72164000Y-116395000D03*
%TD*%
D63*
%TO.C,R402*%
X220994001Y-98909000D03*
X221993999Y-98909000D03*
%TD*%
D44*
%TO.C,D504*%
X81097028Y-94286385D03*
X81097028Y-90986385D03*
X76197028Y-90986385D03*
X76197028Y-94286385D03*
%TD*%
D45*
%TO.C,R605*%
X76724000Y-86157000D03*
X75224000Y-86157000D03*
%TD*%
D41*
%TO.C,R306*%
X119611200Y-100307800D03*
X119611200Y-98807800D03*
%TD*%
%TO.C,C207*%
X175161000Y-88765000D03*
X175161000Y-87265000D03*
%TD*%
D70*
%TO.C,L601*%
X93455000Y-83744000D03*
X87455000Y-83744000D03*
%TD*%
D45*
%TO.C,R601*%
X97806000Y-114594600D03*
X96306000Y-114594600D03*
%TD*%
D42*
%TO.C,R340*%
X122175999Y-116029000D03*
X122175999Y-117529000D03*
%TD*%
D41*
%TO.C,C305*%
X156644400Y-85296400D03*
X156644400Y-83796400D03*
%TD*%
D42*
%TO.C,R342*%
X120678001Y-116029000D03*
X120678001Y-117529000D03*
%TD*%
D43*
%TO.C,R304*%
X154345000Y-107000000D03*
X155845000Y-107000000D03*
%TD*%
D41*
%TO.C,R206*%
X199367200Y-91925800D03*
X199367200Y-90425800D03*
%TD*%
D45*
%TO.C,C507*%
X79484406Y-103320385D03*
X77984406Y-103320385D03*
%TD*%
D57*
%TO.C,C511*%
X64339000Y-111000000D03*
X67289000Y-111000000D03*
%TD*%
D45*
%TO.C,R201*%
X199863200Y-107228600D03*
X198363200Y-107228600D03*
%TD*%
D43*
%TO.C,R615*%
X96436000Y-84760000D03*
X97936000Y-84760000D03*
%TD*%
%TO.C,C310*%
X160441000Y-108651000D03*
X161941000Y-108651000D03*
%TD*%
D45*
%TO.C,R617*%
X93081600Y-116779000D03*
X91581600Y-116779000D03*
%TD*%
%TO.C,R610*%
X76724000Y-87681000D03*
X75224000Y-87681000D03*
%TD*%
D43*
%TO.C,R502*%
X37886000Y-87554000D03*
X39386000Y-87554000D03*
%TD*%
D80*
%TO.C,C615*%
X88677000Y-87984000D03*
X88677000Y-90934000D03*
%TD*%
D45*
%TO.C,R207*%
X179594000Y-107635000D03*
X178094000Y-107635000D03*
%TD*%
D41*
%TO.C,C201*%
X157381000Y-92637000D03*
X157381000Y-91137000D03*
%TD*%
D45*
%TO.C,C619*%
X44415200Y-117337800D03*
X42915200Y-117337800D03*
%TD*%
D77*
%TO.C,J401*%
X212750000Y-89015000D03*
D78*
X215250000Y-89015000D03*
X217750000Y-89015000D03*
X220250000Y-89015000D03*
%TD*%
D77*
%TO.C,J504*%
X64584000Y-83219000D03*
D78*
X67084000Y-83219000D03*
X69584000Y-83219000D03*
%TD*%
D41*
%TO.C,R618*%
X94490600Y-118214800D03*
X94490600Y-116714800D03*
%TD*%
D81*
%TO.C,U601*%
X74323000Y-112686000D03*
D82*
X74323001Y-114986000D03*
D83*
X80371000Y-114986000D03*
D81*
X74323000Y-117286000D03*
%TD*%
D43*
%TO.C,R327*%
X120309000Y-83378000D03*
X121809000Y-83378000D03*
%TD*%
D13*
%TO.C,Q602*%
X75466000Y-83115999D03*
X75466000Y-81215999D03*
X73586001Y-82165999D03*
%TD*%
D42*
%TO.C,C510*%
X46560800Y-111442000D03*
X46560800Y-112942000D03*
%TD*%
D41*
%TO.C,R612*%
X86540400Y-117833800D03*
X86540400Y-116333800D03*
%TD*%
D66*
%TO.C,Q311*%
X117056000Y-113555500D03*
X115156000Y-113555500D03*
X116106000Y-115430501D03*
%TD*%
D45*
%TO.C,C509*%
X79484405Y-96208385D03*
X77984405Y-96208385D03*
%TD*%
D42*
%TO.C,C206*%
X173764000Y-87265000D03*
X173764000Y-88765000D03*
%TD*%
D39*
%TO.C,TP309*%
X118265000Y-85410000D03*
%TD*%
D43*
%TO.C,C515*%
X36870000Y-110668000D03*
X38370000Y-110668000D03*
%TD*%
D46*
%TO.C,C607*%
X84152800Y-118304800D03*
X84152800Y-115354800D03*
%TD*%
D43*
%TO.C,C514*%
X61254000Y-111684000D03*
X62754000Y-111684000D03*
%TD*%
D84*
%TO.C,D604*%
X92106000Y-88601999D03*
X92106000Y-92602001D03*
%TD*%
D51*
%TO.C,C407*%
X219230000Y-109268601D03*
X219230000Y-110268599D03*
%TD*%
D43*
%TO.C,R608*%
X97579000Y-98857000D03*
X99079000Y-98857000D03*
%TD*%
%TO.C,R603*%
X97576000Y-101691400D03*
X99076000Y-101691400D03*
%TD*%
D52*
%TO.C,J303*%
X152000000Y-89015000D03*
D53*
X152000000Y-86515000D03*
X152000000Y-84015000D03*
%TD*%
D45*
%TO.C,R311*%
X169053000Y-116398000D03*
X167553000Y-116398000D03*
%TD*%
%TO.C,C508*%
X79010000Y-110414000D03*
X77510000Y-110414000D03*
%TD*%
D84*
%TO.C,D308*%
X159286000Y-102205999D03*
X159286000Y-106206001D03*
%TD*%
D81*
%TO.C,U201*%
X159540000Y-87809000D03*
D82*
X159540001Y-90109000D03*
D83*
X165588000Y-90109000D03*
D81*
X159540000Y-92409000D03*
%TD*%
D43*
%TO.C,C204*%
X198414000Y-108651000D03*
X199914000Y-108651000D03*
%TD*%
D41*
%TO.C,R312*%
X130584000Y-83747000D03*
X130584000Y-82247000D03*
%TD*%
D45*
%TO.C,C506*%
X38370000Y-113602000D03*
X36870000Y-113602000D03*
%TD*%
D43*
%TO.C,C213*%
X198287000Y-97348000D03*
X199787000Y-97348000D03*
%TD*%
D66*
%TO.C,Q201*%
X179921000Y-109364500D03*
X178021000Y-109364500D03*
X178971000Y-111239501D03*
%TD*%
D41*
%TO.C,C205*%
X176558000Y-88765000D03*
X176558000Y-87265000D03*
%TD*%
D79*
%TO.C,R325*%
X142500000Y-98872000D03*
X139500000Y-98872000D03*
%TD*%
D41*
%TO.C,D602*%
X78883000Y-82982000D03*
X78883000Y-81482000D03*
%TD*%
D85*
%TO.C,JP102*%
X103976000Y-101015000D03*
X107024000Y-101015000D03*
%TD*%
D45*
%TO.C,R329*%
X164735000Y-99634000D03*
X163235000Y-99634000D03*
%TD*%
D41*
%TO.C,R326*%
X167414000Y-104956000D03*
X167414000Y-103456000D03*
%TD*%
D58*
%TO.C,D306*%
X170462000Y-111733000D03*
X170462000Y-109633000D03*
%TD*%
D43*
%TO.C,R614*%
X94832800Y-112867400D03*
X96332800Y-112867400D03*
%TD*%
D41*
%TO.C,R309*%
X129187000Y-83747000D03*
X129187000Y-82247000D03*
%TD*%
D80*
%TO.C,C312*%
X152428000Y-100064000D03*
X152428000Y-103014000D03*
%TD*%
D86*
%TO.C,Q310*%
X113390500Y-116591000D03*
X113390500Y-118491000D03*
X115265500Y-117541000D03*
%TD*%
D41*
%TO.C,R316*%
X122583000Y-112322000D03*
X122583000Y-110822000D03*
%TD*%
%TO.C,R503*%
X45087600Y-112942000D03*
X45087600Y-111442000D03*
%TD*%
D49*
%TO.C,U305*%
X143979999Y-114371500D03*
X143030000Y-114371500D03*
X142080001Y-114371500D03*
X142080001Y-116646500D03*
X143030000Y-116646500D03*
X143979999Y-116646500D03*
%TD*%
D42*
%TO.C,R505*%
X45087600Y-114251000D03*
X45087600Y-115751000D03*
%TD*%
D41*
%TO.C,R331*%
X113058000Y-114989000D03*
X113058000Y-113489000D03*
%TD*%
D87*
%TO.C,U502*%
X59000000Y-108000000D03*
X61000000Y-108000000D03*
X63000000Y-108000000D03*
X65000000Y-108000000D03*
X67000000Y-108000000D03*
X69000000Y-108000000D03*
X71000000Y-108000000D03*
X73000000Y-108000000D03*
X73000000Y-92000000D03*
X71000000Y-92000000D03*
X69000000Y-92000000D03*
X67000000Y-92000000D03*
X65000000Y-92000000D03*
X63000000Y-92000000D03*
X61000000Y-92000000D03*
X59000000Y-92000000D03*
%TD*%
D42*
%TO.C,C210*%
X169141200Y-91238600D03*
X169141200Y-92738600D03*
%TD*%
D49*
%TO.C,U401*%
X214591999Y-96083500D03*
X213642000Y-96083500D03*
X212692001Y-96083500D03*
X212692001Y-98358500D03*
X214591999Y-98358500D03*
%TD*%
D43*
%TO.C,C516*%
X61254000Y-110276600D03*
X62754000Y-110276600D03*
%TD*%
D51*
%TO.C,C409*%
X220373000Y-109268601D03*
X220373000Y-110268599D03*
%TD*%
D45*
%TO.C,C517*%
X62754000Y-114543800D03*
X61254000Y-114543800D03*
%TD*%
D39*
%TO.C,TP604*%
X97665600Y-83236000D03*
%TD*%
D45*
%TO.C,R318*%
X168799000Y-110048000D03*
X167299000Y-110048000D03*
%TD*%
D57*
%TO.C,C503*%
X39955000Y-114986000D03*
X42905000Y-114986000D03*
%TD*%
D41*
%TO.C,R341*%
X119154000Y-117529000D03*
X119154000Y-116029000D03*
%TD*%
D45*
%TO.C,C505*%
X38370000Y-114986000D03*
X36870000Y-114986000D03*
%TD*%
D11*
%TO.C,D302*%
X116969500Y-83378000D03*
X118544500Y-83378000D03*
%TD*%
D42*
%TO.C,C319*%
X145570000Y-114759000D03*
X145570000Y-116259000D03*
%TD*%
D85*
%TO.C,JP104*%
X103976000Y-99015000D03*
X107024000Y-99015000D03*
%TD*%
D41*
%TO.C,C316*%
X139067600Y-118291000D03*
X139067600Y-116791000D03*
%TD*%
D67*
%TO.C,D203*%
X171060000Y-97746000D03*
X171060000Y-101046000D03*
X175960000Y-101046000D03*
X175960000Y-97746000D03*
%TD*%
D39*
%TO.C,TP302*%
X148110000Y-88966000D03*
%TD*%
D52*
%TO.C,J302*%
X152000000Y-116015000D03*
D53*
X152000000Y-113515000D03*
X152000000Y-111015000D03*
%TD*%
D60*
%TO.C,C603*%
X84375000Y-90602001D03*
X86375000Y-90602001D03*
%TD*%
D61*
%TO.C,C203*%
X165079000Y-84775000D03*
X162129000Y-84775000D03*
%TD*%
D41*
%TO.C,C208*%
X172367000Y-88765000D03*
X172367000Y-87265000D03*
%TD*%
D39*
%TO.C,TP303*%
X148110000Y-110175000D03*
%TD*%
%TO.C,TP603*%
X102517000Y-98999000D03*
%TD*%
D60*
%TO.C,C405*%
X212642000Y-94173000D03*
X214642000Y-94173000D03*
%TD*%
D45*
%TO.C,C618*%
X86350600Y-87681000D03*
X84850600Y-87681000D03*
%TD*%
D77*
%TO.C,J503*%
X50908000Y-83236000D03*
D78*
X53408000Y-83236000D03*
X55908000Y-83236000D03*
X58408000Y-83236000D03*
%TD*%
D45*
%TO.C,R507*%
X86122000Y-96444000D03*
X84622000Y-96444000D03*
%TD*%
D39*
%TO.C,TP310*%
X116741000Y-85410000D03*
%TD*%
D45*
%TO.C,R202*%
X166005000Y-81981000D03*
X164505000Y-81981000D03*
%TD*%
D88*
%TO.C,D311*%
X113151000Y-83378000D03*
X115251000Y-83378000D03*
%TD*%
D40*
%TO.C,D606*%
X83170800Y-81701600D03*
X81070800Y-81701600D03*
%TD*%
D75*
%TO.C,TP505*%
X74500800Y-110378200D03*
%TD*%
D41*
%TO.C,R611*%
X100107000Y-91491000D03*
X100107000Y-89991000D03*
%TD*%
D89*
%TO.C,J601*%
X101247000Y-105588000D03*
D53*
X101247000Y-108088000D03*
X101247000Y-110588000D03*
%TD*%
D67*
%TO.C,D202*%
X171059874Y-91122437D03*
X171059874Y-94422437D03*
X175959874Y-94422437D03*
X175959874Y-91122437D03*
%TD*%
D63*
%TO.C,R406*%
X217333001Y-98872000D03*
X218332999Y-98872000D03*
%TD*%
D41*
%TO.C,C202*%
X157381000Y-89589000D03*
X157381000Y-88089000D03*
%TD*%
M02*
