%TF.GenerationSoftware,KiCad,Pcbnew,10.0.1*%
%TF.CreationDate,2026-09-20T12:30:31+02:00*%
%TF.ProjectId,Robobouoy-V4.0,526f626f-626f-4756-9f79-2d56342e302e,rev?*%
%TF.SameCoordinates,Original*%
%TF.FileFunction,Copper,L1,Top*%
%TF.FilePolarity,Positive*%
%FSLAX46Y46*%
G04 Gerber Fmt 4.6, Leading zero omitted, Abs format (unit mm)*
G04 Created by KiCad (PCBNEW 10.0.1) date 2026-09-20 12:30:31*
%MOMM*%
%LPD*%
G01*
G04 APERTURE LIST*
G04 Aperture macros list*
%AMRoundRect*
0 Rectangle with rounded corners*
0 $1 Rounding radius*
0 $2 $3 $4 $5 $6 $7 $8 $9 X,Y pos of 4 corners*
0 Add a 4 corners polygon primitive as box body*
4,1,4,$2,$3,$4,$5,$6,$7,$8,$9,$2,$3,0*
0 Add four circle primitives for the rounded corners*
1,1,$1+$1,$2,$3*
1,1,$1+$1,$4,$5*
1,1,$1+$1,$6,$7*
1,1,$1+$1,$8,$9*
0 Add four rect primitives between the rounded corners*
20,1,$1+$1,$2,$3,$4,$5,0*
20,1,$1+$1,$4,$5,$6,$7,0*
20,1,$1+$1,$6,$7,$8,$9,0*
20,1,$1+$1,$8,$9,$2,$3,0*%
%AMRotRect*
0 Rectangle, with rotation*
0 The origin of the aperture is its center*
0 $1 length*
0 $2 width*
0 $3 Rotation angle, in degrees counterclockwise*
0 Add horizontal line*
21,1,$1,$2,0,0,$3*%
%AMFreePoly0*
4,1,15,0.287856,0.135279,0.302500,0.100178,0.303008,0.000178,0.288543,-0.035251,0.288351,-0.035445,0.188352,-0.135369,0.153010,-0.150000,-0.252501,-0.150000,-0.287856,-0.135355,-0.302501,-0.100000,-0.302501,0.099924,-0.287856,0.135279,-0.252501,0.149924,0.252501,0.149924,0.287856,0.135279,0.287856,0.135279,$1*%
%AMFreePoly1*
4,1,15,0.188365,0.135355,0.188366,0.135355,0.288365,0.035355,0.303009,0.000000,0.302500,-0.100254,0.287676,-0.135534,0.252501,-0.150000,-0.252501,-0.150000,-0.287856,-0.135355,-0.302501,-0.100000,-0.302501,0.100000,-0.287856,0.135355,-0.252501,0.150000,0.153010,0.150000,0.188365,0.135355,0.188365,0.135355,$1*%
%AMFreePoly2*
4,1,15,0.135355,0.287856,0.150000,0.252501,0.150000,-0.252501,0.135355,-0.287856,0.100254,-0.302500,0.000254,-0.303008,-0.035175,-0.288543,-0.035355,-0.288365,-0.135355,-0.188366,-0.150000,-0.153010,-0.150000,0.252501,-0.135355,0.287856,-0.100000,0.302501,0.100000,0.302501,0.135355,0.287856,0.135355,0.287856,$1*%
%AMFreePoly3*
4,1,14,0.135406,0.287806,0.150051,0.252451,0.150051,-0.153060,0.135415,-0.188406,0.035415,-0.288457,0.000064,-0.303111,-0.100215,-0.302577,-0.135492,-0.287744,-0.149949,-0.252578,-0.149949,0.252451,-0.135304,0.287806,-0.099949,0.302451,0.100051,0.302451,0.135406,0.287806,0.135406,0.287806,$1*%
%AMFreePoly4*
4,1,15,0.287831,0.135228,0.302476,0.099873,0.302476,-0.100051,0.287831,-0.135406,0.252476,-0.150051,-0.252527,-0.150051,-0.287882,-0.135406,-0.302526,-0.100318,-0.303059,-0.000369,-0.288603,0.035064,-0.288406,0.035262,-0.188381,0.135237,-0.153035,0.149873,0.252476,0.149873,0.287831,0.135228,0.287831,0.135228,$1*%
%AMFreePoly5*
4,1,15,0.287907,0.135253,0.302552,0.099898,0.302552,-0.100076,0.287907,-0.135431,0.252552,-0.150076,-0.152959,-0.150076,-0.188314,-0.135431,-0.188319,-0.135427,-0.288293,-0.035427,-0.302933,-0.000069,-0.302450,0.100139,-0.287635,0.135423,-0.252451,0.149898,0.252552,0.149898,0.287907,0.135253,0.287907,0.135253,$1*%
%AMFreePoly6*
4,1,14,0.035226,0.288493,0.135406,0.188314,0.150051,0.152959,0.150051,-0.252527,0.135406,-0.287882,0.100051,-0.302527,-0.099949,-0.302527,-0.135304,-0.287882,-0.149949,-0.252527,-0.149949,0.252451,-0.135304,0.287806,-0.100203,0.302450,-0.000203,0.302958,0.035226,0.288493,0.035226,0.288493,$1*%
%AMFreePoly7*
4,1,15,0.000190,0.302983,0.100165,0.302399,0.135434,0.287548,0.149873,0.252400,0.149873,-0.252628,0.135228,-0.287983,0.099873,-0.302628,-0.100101,-0.302628,-0.135456,-0.287983,-0.150101,-0.252628,-0.150101,0.152883,-0.135474,0.188220,-0.035475,0.288321,-0.000127,0.302984,0.000190,0.302983,0.000190,0.302983,$1*%
G04 Aperture macros list end*
%TA.AperFunction,ComponentPad*%
%ADD10C,1.778000*%
%TD*%
%TA.AperFunction,SMDPad,CuDef*%
%ADD11RoundRect,0.218750X-0.218750X-0.256250X0.218750X-0.256250X0.218750X0.256250X-0.218750X0.256250X0*%
%TD*%
%TA.AperFunction,SMDPad,CuDef*%
%ADD12RoundRect,0.218750X0.218750X0.256250X-0.218750X0.256250X-0.218750X-0.256250X0.218750X-0.256250X0*%
%TD*%
%TA.AperFunction,SMDPad,CuDef*%
%ADD13RoundRect,0.150000X0.590000X0.150000X-0.590000X0.150000X-0.590000X-0.150000X0.590000X-0.150000X0*%
%TD*%
%TA.AperFunction,SMDPad,CuDef*%
%ADD14RotRect,0.500000X0.550000X225.000000*%
%TD*%
%TA.AperFunction,SMDPad,CuDef*%
%ADD15RotRect,4.600000X4.120000X225.000000*%
%TD*%
%TA.AperFunction,SMDPad,CuDef*%
%ADD16RotRect,0.500000X0.650000X225.000000*%
%TD*%
%TA.AperFunction,SMDPad,CuDef*%
%ADD17RotRect,0.500000X0.550000X315.000000*%
%TD*%
%TA.AperFunction,SMDPad,CuDef*%
%ADD18RotRect,4.600000X4.120000X315.000000*%
%TD*%
%TA.AperFunction,SMDPad,CuDef*%
%ADD19RotRect,0.500000X0.650000X315.000000*%
%TD*%
%TA.AperFunction,SMDPad,CuDef*%
%ADD20RoundRect,0.150000X-0.590000X-0.150000X0.590000X-0.150000X0.590000X0.150000X-0.590000X0.150000X0*%
%TD*%
%TA.AperFunction,SMDPad,CuDef*%
%ADD21RoundRect,0.250000X-2.250000X-2.250000X2.250000X-2.250000X2.250000X2.250000X-2.250000X2.250000X0*%
%TD*%
%TA.AperFunction,SMDPad,CuDef*%
%ADD22RoundRect,0.225000X-0.525000X-0.225000X0.525000X-0.225000X0.525000X0.225000X-0.525000X0.225000X0*%
%TD*%
%TA.AperFunction,SMDPad,CuDef*%
%ADD23RoundRect,0.225000X0.225000X-0.525000X0.225000X0.525000X-0.225000X0.525000X-0.225000X-0.525000X0*%
%TD*%
%TA.AperFunction,HeatsinkPad*%
%ADD24C,0.500000*%
%TD*%
%TA.AperFunction,HeatsinkPad*%
%ADD25R,3.810000X2.410000*%
%TD*%
%TA.AperFunction,SMDPad,CuDef*%
%ADD26RoundRect,0.150000X0.150000X-0.825000X0.150000X0.825000X-0.150000X0.825000X-0.150000X-0.825000X0*%
%TD*%
%TA.AperFunction,SMDPad,CuDef*%
%ADD27R,1.700000X1.700000*%
%TD*%
%TA.AperFunction,SMDPad,CuDef*%
%ADD28FreePoly0,270.000000*%
%TD*%
%TA.AperFunction,SMDPad,CuDef*%
%ADD29R,0.200000X0.505000*%
%TD*%
%TA.AperFunction,SMDPad,CuDef*%
%ADD30FreePoly1,270.000000*%
%TD*%
%TA.AperFunction,SMDPad,CuDef*%
%ADD31FreePoly2,270.000000*%
%TD*%
%TA.AperFunction,SMDPad,CuDef*%
%ADD32R,0.505000X0.200000*%
%TD*%
%TA.AperFunction,SMDPad,CuDef*%
%ADD33FreePoly3,270.000000*%
%TD*%
%TA.AperFunction,SMDPad,CuDef*%
%ADD34FreePoly4,270.000000*%
%TD*%
%TA.AperFunction,SMDPad,CuDef*%
%ADD35FreePoly5,270.000000*%
%TD*%
%TA.AperFunction,SMDPad,CuDef*%
%ADD36FreePoly6,270.000000*%
%TD*%
%TA.AperFunction,SMDPad,CuDef*%
%ADD37FreePoly7,270.000000*%
%TD*%
%TA.AperFunction,SMDPad,CuDef*%
%ADD38RoundRect,0.250000X2.250000X-2.250000X2.250000X2.250000X-2.250000X2.250000X-2.250000X-2.250000X0*%
%TD*%
%TA.AperFunction,SMDPad,CuDef*%
%ADD39RoundRect,0.225000X0.525000X0.225000X-0.525000X0.225000X-0.525000X-0.225000X0.525000X-0.225000X0*%
%TD*%
%TA.AperFunction,SMDPad,CuDef*%
%ADD40C,1.000000*%
%TD*%
%TA.AperFunction,SMDPad,CuDef*%
%ADD41RoundRect,0.112500X0.187500X0.112500X-0.187500X0.112500X-0.187500X-0.112500X0.187500X-0.112500X0*%
%TD*%
%TA.AperFunction,SMDPad,CuDef*%
%ADD42RoundRect,0.200000X0.250000X-0.200000X0.250000X0.200000X-0.250000X0.200000X-0.250000X-0.200000X0*%
%TD*%
%TA.AperFunction,SMDPad,CuDef*%
%ADD43RoundRect,0.200000X-0.250000X0.200000X-0.250000X-0.200000X0.250000X-0.200000X0.250000X0.200000X0*%
%TD*%
%TA.AperFunction,SMDPad,CuDef*%
%ADD44RoundRect,0.200000X-0.200000X-0.250000X0.200000X-0.250000X0.200000X0.250000X-0.200000X0.250000X0*%
%TD*%
%TA.AperFunction,SMDPad,CuDef*%
%ADD45RoundRect,0.090000X0.660000X0.360000X-0.660000X0.360000X-0.660000X-0.360000X0.660000X-0.360000X0*%
%TD*%
%TA.AperFunction,SMDPad,CuDef*%
%ADD46RoundRect,0.200000X0.200000X0.250000X-0.200000X0.250000X-0.200000X-0.250000X0.200000X-0.250000X0*%
%TD*%
%TA.AperFunction,SMDPad,CuDef*%
%ADD47RoundRect,0.250000X0.650000X-0.325000X0.650000X0.325000X-0.650000X0.325000X-0.650000X-0.325000X0*%
%TD*%
%TA.AperFunction,ComponentPad*%
%ADD48RoundRect,1.500000X2.121320X0.000000X0.000000X2.121320X-2.121320X0.000000X0.000000X-2.121320X0*%
%TD*%
%TA.AperFunction,ComponentPad*%
%ADD49C,6.000000*%
%TD*%
%TA.AperFunction,SMDPad,CuDef*%
%ADD50RoundRect,0.150000X-0.150000X0.512500X-0.150000X-0.512500X0.150000X-0.512500X0.150000X0.512500X0*%
%TD*%
%TA.AperFunction,SMDPad,CuDef*%
%ADD51RoundRect,0.112500X-0.112500X0.187500X-0.112500X-0.187500X0.112500X-0.187500X0.112500X0.187500X0*%
%TD*%
%TA.AperFunction,SMDPad,CuDef*%
%ADD52RoundRect,0.150000X-0.150000X0.150000X-0.150000X-0.150000X0.150000X-0.150000X0.150000X0.150000X0*%
%TD*%
%TA.AperFunction,ComponentPad*%
%ADD53RoundRect,0.250000X0.725000X-0.600000X0.725000X0.600000X-0.725000X0.600000X-0.725000X-0.600000X0*%
%TD*%
%TA.AperFunction,ComponentPad*%
%ADD54O,1.950000X1.700000*%
%TD*%
%TA.AperFunction,ConnectorPad*%
%ADD55RoundRect,0.150000X0.350000X0.350000X-0.350000X0.350000X-0.350000X-0.350000X0.350000X-0.350000X0*%
%TD*%
%TA.AperFunction,ComponentPad*%
%ADD56RoundRect,0.250000X0.300000X-0.300000X0.300000X0.300000X-0.300000X0.300000X-0.300000X-0.300000X0*%
%TD*%
%TA.AperFunction,ComponentPad*%
%ADD57C,1.100000*%
%TD*%
%TA.AperFunction,SMDPad,CuDef*%
%ADD58RoundRect,0.250000X-0.325000X-0.650000X0.325000X-0.650000X0.325000X0.650000X-0.325000X0.650000X0*%
%TD*%
%TA.AperFunction,SMDPad,CuDef*%
%ADD59RoundRect,0.112500X0.112500X-0.187500X0.112500X0.187500X-0.112500X0.187500X-0.112500X-0.187500X0*%
%TD*%
%TA.AperFunction,SMDPad,CuDef*%
%ADD60RoundRect,0.150000X0.150000X-0.587500X0.150000X0.587500X-0.150000X0.587500X-0.150000X-0.587500X0*%
%TD*%
%TA.AperFunction,SMDPad,CuDef*%
%ADD61RoundRect,0.225000X-0.225000X-0.425000X0.225000X-0.425000X0.225000X0.425000X-0.225000X0.425000X0*%
%TD*%
%TA.AperFunction,SMDPad,CuDef*%
%ADD62RoundRect,0.250000X0.325000X0.650000X-0.325000X0.650000X-0.325000X-0.650000X0.325000X-0.650000X0*%
%TD*%
%TA.AperFunction,ComponentPad*%
%ADD63RoundRect,1.500000X1.500000X1.500000X-1.500000X1.500000X-1.500000X-1.500000X1.500000X-1.500000X0*%
%TD*%
%TA.AperFunction,SMDPad,CuDef*%
%ADD64RoundRect,0.150000X-0.150000X-0.150000X0.150000X-0.150000X0.150000X0.150000X-0.150000X0.150000X0*%
%TD*%
%TA.AperFunction,ComponentPad*%
%ADD65RoundRect,0.206250X-0.618750X-0.618750X0.618750X-0.618750X0.618750X0.618750X-0.618750X0.618750X0*%
%TD*%
%TA.AperFunction,ComponentPad*%
%ADD66C,1.700000*%
%TD*%
%TA.AperFunction,SMDPad,CuDef*%
%ADD67RoundRect,0.150000X-0.150000X0.587500X-0.150000X-0.587500X0.150000X-0.587500X0.150000X0.587500X0*%
%TD*%
%TA.AperFunction,SMDPad,CuDef*%
%ADD68RoundRect,0.090000X-0.660000X-0.360000X0.660000X-0.360000X0.660000X0.360000X-0.660000X0.360000X0*%
%TD*%
%TA.AperFunction,SMDPad,CuDef*%
%ADD69RoundRect,0.150000X0.587500X0.150000X-0.587500X0.150000X-0.587500X-0.150000X0.587500X-0.150000X0*%
%TD*%
%TA.AperFunction,ComponentPad*%
%ADD70RoundRect,1.500000X0.000000X2.121320X-2.121320X0.000000X0.000000X-2.121320X2.121320X0.000000X0*%
%TD*%
%TA.AperFunction,SMDPad,CuDef*%
%ADD71RoundRect,0.230769X0.969231X1.519231X-0.969231X1.519231X-0.969231X-1.519231X0.969231X-1.519231X0*%
%TD*%
%TA.AperFunction,ComponentPad*%
%ADD72O,7.000000X5.000000*%
%TD*%
%TA.AperFunction,ComponentPad*%
%ADD73RoundRect,0.250000X-0.300000X-0.300000X0.300000X-0.300000X0.300000X0.300000X-0.300000X0.300000X0*%
%TD*%
%TA.AperFunction,ComponentPad*%
%ADD74RoundRect,0.206250X0.618750X-0.618750X0.618750X0.618750X-0.618750X0.618750X-0.618750X-0.618750X0*%
%TD*%
%TA.AperFunction,ComponentPad*%
%ADD75RoundRect,0.206250X0.618750X0.618750X-0.618750X0.618750X-0.618750X-0.618750X0.618750X-0.618750X0*%
%TD*%
%TA.AperFunction,ComponentPad*%
%ADD76C,1.500000*%
%TD*%
%TA.AperFunction,SMDPad,CuDef*%
%ADD77RoundRect,0.150000X0.150000X-0.150000X0.150000X0.150000X-0.150000X0.150000X-0.150000X-0.150000X0*%
%TD*%
%TA.AperFunction,ComponentPad*%
%ADD78RoundRect,0.250000X-0.600000X-0.725000X0.600000X-0.725000X0.600000X0.725000X-0.600000X0.725000X0*%
%TD*%
%TA.AperFunction,ComponentPad*%
%ADD79O,1.700000X1.950000*%
%TD*%
%TA.AperFunction,SMDPad,CuDef*%
%ADD80RoundRect,0.275000X0.275000X0.575000X-0.275000X0.575000X-0.275000X-0.575000X0.275000X-0.575000X0*%
%TD*%
%TA.AperFunction,SMDPad,CuDef*%
%ADD81RoundRect,0.250000X-0.650000X0.325000X-0.650000X-0.325000X0.650000X-0.325000X0.650000X0.325000X0*%
%TD*%
%TA.AperFunction,SMDPad,CuDef*%
%ADD82RoundRect,0.300000X-0.700000X-0.300000X0.700000X-0.300000X0.700000X0.300000X-0.700000X0.300000X0*%
%TD*%
%TA.AperFunction,SMDPad,CuDef*%
%ADD83RoundRect,0.317500X-0.698500X-0.317500X0.698500X-0.317500X0.698500X0.317500X-0.698500X0.317500X0*%
%TD*%
%TA.AperFunction,SMDPad,CuDef*%
%ADD84RoundRect,0.500000X-0.500000X-1.100000X0.500000X-1.100000X0.500000X1.100000X-0.500000X1.100000X0*%
%TD*%
%TA.AperFunction,SMDPad,CuDef*%
%ADD85RoundRect,0.250000X-0.650000X1.000000X-0.650000X-1.000000X0.650000X-1.000000X0.650000X1.000000X0*%
%TD*%
%TA.AperFunction,ConnectorPad*%
%ADD86RoundRect,0.150000X-0.350000X-0.350000X0.350000X-0.350000X0.350000X0.350000X-0.350000X0.350000X0*%
%TD*%
%TA.AperFunction,SMDPad,CuDef*%
%ADD87RoundRect,0.150000X-0.587500X-0.150000X0.587500X-0.150000X0.587500X0.150000X-0.587500X0.150000X0*%
%TD*%
%TA.AperFunction,SMDPad,CuDef*%
%ADD88R,1.500000X2.000000*%
%TD*%
%TA.AperFunction,SMDPad,CuDef*%
%ADD89RoundRect,0.112500X-0.187500X-0.112500X0.187500X-0.112500X0.187500X0.112500X-0.187500X0.112500X0*%
%TD*%
%TA.AperFunction,ComponentPad*%
%ADD90RoundRect,0.250000X-0.725000X0.600000X-0.725000X-0.600000X0.725000X-0.600000X0.725000X0.600000X0*%
%TD*%
%TA.AperFunction,ViaPad*%
%ADD91C,0.800000*%
%TD*%
%TA.AperFunction,ViaPad*%
%ADD92C,0.450000*%
%TD*%
%TA.AperFunction,ViaPad*%
%ADD93C,0.900000*%
%TD*%
%TA.AperFunction,ViaPad*%
%ADD94C,0.600000*%
%TD*%
%TA.AperFunction,Conductor*%
%ADD95C,0.200000*%
%TD*%
%TA.AperFunction,Conductor*%
%ADD96C,0.400000*%
%TD*%
%TA.AperFunction,Conductor*%
%ADD97C,0.600000*%
%TD*%
%TA.AperFunction,Conductor*%
%ADD98C,0.250000*%
%TD*%
%TA.AperFunction,Conductor*%
%ADD99C,5.000000*%
%TD*%
%TA.AperFunction,Conductor*%
%ADD100C,1.500000*%
%TD*%
%TA.AperFunction,Conductor*%
%ADD101C,1.000000*%
%TD*%
%TA.AperFunction,Conductor*%
%ADD102C,0.800000*%
%TD*%
%TA.AperFunction,Conductor*%
%ADD103C,0.700000*%
%TD*%
%TA.AperFunction,Conductor*%
%ADD104C,2.500000*%
%TD*%
%TA.AperFunction,Conductor*%
%ADD105C,2.000000*%
%TD*%
%TA.AperFunction,Conductor*%
%ADD106C,4.000000*%
%TD*%
%TA.AperFunction,Conductor*%
%ADD107C,0.127000*%
%TD*%
%TA.AperFunction,Conductor*%
%ADD108C,3.000000*%
%TD*%
G04 APERTURE END LIST*
D10*
%TO.P,BUZZER501,2,2_2*%
%TO.N,Net-(D501-A)*%
X91875000Y-108515000D03*
%TO.P,BUZZER501,1,1_1*%
%TO.N,+5V_TOP*%
X85375000Y-108515000D03*
%TD*%
D11*
%TO.P,D201,2,A_2*%
%TO.N,Net-(D201-A)*%
X162994500Y-81981000D03*
%TO.P,D201,1,K_1*%
%TO.N,GND*%
X161419500Y-81981000D03*
%TD*%
%TO.P,D304,2,A_2*%
%TO.N,Net-(D304-A)*%
X152787500Y-107015000D03*
%TO.P,D304,1,K_1*%
%TO.N,GND*%
X151212500Y-107015000D03*
%TD*%
%TO.P,D305,2,A_2*%
%TO.N,Net-(D305-A)*%
X152787500Y-93015000D03*
%TO.P,D305,1,K_1*%
%TO.N,GND*%
X151212500Y-93015000D03*
%TD*%
D12*
%TO.P,D309,2,A_2*%
%TO.N,Net-(D309-A)*%
X149075099Y-97729000D03*
%TO.P,D309,1,K_1*%
%TO.N,GND*%
X150650101Y-97729000D03*
%TD*%
%TO.P,D605,2,A_2*%
%TO.N,Net-(D605-A)*%
X82683899Y-85935800D03*
%TO.P,D605,1,K_1*%
%TO.N,GND*%
X84258901Y-85935800D03*
%TD*%
D13*
%TO.P,Q301,3,C_3*%
%TO.N,COM*%
X113032401Y-86451400D03*
%TO.P,Q301,2,E_2*%
%TO.N,GND*%
X114912400Y-85501400D03*
%TO.P,Q301,1,B_1*%
%TO.N,Net-(Q301-B)*%
X114912400Y-87401400D03*
%TD*%
D14*
%TO.P,Q307,5,D_5*%
%TO.N,Net-(J304-Pin_2)*%
X127258094Y-112744988D03*
X128156119Y-111846963D03*
X129054145Y-110948937D03*
X129952170Y-110050912D03*
D15*
X126954038Y-109746856D03*
D16*
%TO.P,Q307,4,G_4*%
%TO.N,Net-(Q307-G)*%
X123333651Y-108820546D03*
%TO.P,Q307,3,S_3*%
%TO.N,Vbatt*%
X124231677Y-107922520D03*
%TO.P,Q307,2,S_2*%
X125129702Y-107024495D03*
%TO.P,Q307,1,S_1*%
X126027728Y-106126469D03*
%TD*%
D17*
%TO.P,Q308,5,D_5*%
%TO.N,Net-(J305-Pin_2)*%
X129952170Y-89979088D03*
X129054145Y-89081063D03*
X128156119Y-88183037D03*
X127258094Y-87285012D03*
D18*
X126954038Y-90283144D03*
D19*
%TO.P,Q308,4,G_4*%
%TO.N,Net-(Q308-G)*%
X126027728Y-93903531D03*
%TO.P,Q308,3,S_3*%
%TO.N,Vbatt*%
X125129702Y-93005505D03*
%TO.P,Q308,2,S_2*%
X124231677Y-92107480D03*
%TO.P,Q308,1,S_1*%
X123333651Y-91209454D03*
%TD*%
D20*
%TO.P,Q605,3,C_3*%
%TO.N,COM*%
X80368399Y-86132499D03*
%TO.P,Q605,2,E_2*%
%TO.N,GND*%
X78488400Y-87082499D03*
%TO.P,Q605,1,B_1*%
%TO.N,Net-(Q605-B)*%
X78488400Y-85182499D03*
%TD*%
D21*
%TO.P,U202,39,GND_39*%
%TO.N,GND*%
X186587674Y-95013485D03*
D22*
%TO.P,U202,38,GND_38*%
X196197674Y-87668485D03*
%TO.P,U202,37,MOSI/GPIO23_37*%
%TO.N,unconnected-(U202-MOSI{slash}GPIO23-Pad37)*%
X196197674Y-88938485D03*
%TO.P,U202,36,SCL/GPIO22_36*%
%TO.N,/Suv-CPU-V4.0/SCL_SUB*%
X196197674Y-90208485D03*
%TO.P,U202,35,TXD/GPIO1_35*%
%TO.N,TX_SUB_PROG*%
X196197674Y-91478485D03*
%TO.P,U202,34,RXD/GPIO3_34*%
%TO.N,RX_SUB_PROG*%
X196197674Y-92748485D03*
%TO.P,U202,33,SDA/GPIO21_33*%
%TO.N,/Suv-CPU-V4.0/SDA_SUB*%
X196197674Y-94018485D03*
%TO.P,U202,32,NC_32*%
%TO.N,unconnected-(U202-NC-Pad32)*%
X196197674Y-95288485D03*
%TO.P,U202,31,MISO/GPIO19_31*%
%TO.N,unconnected-(U202-MISO{slash}GPIO19-Pad31)*%
X196197674Y-96558485D03*
%TO.P,U202,30,SCK/GPIO18_30*%
%TO.N,/Sub-PSU-V4_0/TX_SUB*%
X196197674Y-97828485D03*
%TO.P,U202,29,CS/GPIO5_29*%
%TO.N,/Sub-PSU-V4_0/RX_SUB*%
X196197674Y-99098485D03*
%TO.P,U202,28,TXD/GPIO17_28*%
%TO.N,SWITCH_SUB*%
X196197674Y-100368485D03*
%TO.P,U202,27,RXD/GPIO16_27*%
%TO.N,/Sub-PSU-V4_0/ESC_SB_PWR*%
X196197674Y-101638485D03*
%TO.P,U202,26,D1/GPIO4_26*%
%TO.N,unconnected-(U202-D1{slash}GPIO4-Pad26)*%
X196197674Y-102908485D03*
%TO.P,U202,25,BOOT/GPIO0_25*%
%TO.N,DR0_SUB*%
X196197674Y-104178485D03*
D23*
%TO.P,U202,24,D0/GPIO2_24*%
%TO.N,unconnected-(U202-D0{slash}GPIO2-Pad24)*%
X193162674Y-105428485D03*
%TO.P,U202,23,MTDO/CS/CMD/GPIO15_23*%
%TO.N,unconnected-(U202-MTDO{slash}CS{slash}CMD{slash}GPIO15-Pad23)*%
X191892675Y-105428485D03*
%TO.P,U202,22,NC_22*%
%TO.N,unconnected-(U202-NC-Pad22)*%
X190622674Y-105428485D03*
%TO.P,U202,21,NC_21*%
%TO.N,unconnected-(U202-NC-Pad21)*%
X189352674Y-105428486D03*
%TO.P,U202,20,NC_20*%
%TO.N,unconnected-(U202-NC-Pad20)*%
X188082674Y-105428485D03*
%TO.P,U202,19,NC_19*%
%TO.N,unconnected-(U202-NC-Pad19)*%
X186812674Y-105428485D03*
%TO.P,U202,18,NC_18*%
%TO.N,unconnected-(U202-NC-Pad18)*%
X185542674Y-105428486D03*
%TO.P,U202,17,NC_17*%
%TO.N,unconnected-(U202-NC-Pad17)*%
X184272674Y-105428485D03*
%TO.P,U202,16,MTCK/MOSI/D3/GPIO13_16*%
%TO.N,unconnected-(U202-MTCK{slash}MOSI{slash}D3{slash}GPIO13-Pad16)*%
X183002673Y-105428485D03*
%TO.P,U202,15,GND_15*%
%TO.N,GND*%
X181732674Y-105428485D03*
D22*
%TO.P,U202,14,MTDI/MISO/D2/GPIO12_14*%
%TO.N,BUZZER_SUB*%
X178697674Y-104178485D03*
%TO.P,U202,13,MTMS/SCK/CLK/GPIO14_13*%
%TO.N,/Sub-PSU-V4_0/ESC_SB*%
X178697674Y-102908485D03*
%TO.P,U202,12,GPIO27_12*%
%TO.N,unconnected-(U202-GPIO27-Pad12)*%
X178697674Y-101638485D03*
%TO.P,U202,11,GPIO26_11*%
%TO.N,/Sub-PSU-V4_0/ON_SUB*%
X178697674Y-100368485D03*
%TO.P,U202,10,GPIO25_10*%
%TO.N,/Sub-PSU-V4_0/ESC_BB_PWR*%
X178697674Y-99098485D03*
%TO.P,U202,9,GPIO33_9*%
%TO.N,/Sub-PSU-V4_0/ESC_BB*%
X178697674Y-97828485D03*
%TO.P,U202,8,GPIO32_8*%
%TO.N,LEDS_SUB*%
X178697674Y-96558485D03*
%TO.P,U202,7,GPIO35_7*%
%TO.N,/Sub-PSU-V4_0/VSAMP_SUB*%
X178697674Y-95288485D03*
%TO.P,U202,6,GPIO34_6*%
%TO.N,unconnected-(U202-GPIO34-Pad6)*%
X178697674Y-94018485D03*
%TO.P,U202,5,GPIO39_5*%
%TO.N,unconnected-(U202-GPIO39-Pad5)*%
X178697674Y-92748485D03*
%TO.P,U202,4,GPIO36_4*%
%TO.N,/Sub-PSU-V4_0/Imon*%
X178697674Y-91478485D03*
%TO.P,U202,3,CHIP_PU/EN_3*%
%TO.N,EN_SUB*%
X178697674Y-90208485D03*
%TO.P,U202,2,VDD_2*%
%TO.N,+3.3V*%
X178697674Y-88938485D03*
%TO.P,U202,1,GND_1*%
%TO.N,GND*%
X178697674Y-87668485D03*
%TD*%
D24*
%TO.P,U303,9,Thermal_Pad_9*%
%TO.N,GND*%
X165258000Y-103506000D03*
X163858000Y-103506000D03*
X162458000Y-103506000D03*
D25*
X163858000Y-104206000D03*
D24*
X165258000Y-104906000D03*
X163858000Y-104906000D03*
X162458000Y-104906000D03*
D26*
%TO.P,U303,8,SW_8*%
%TO.N,/Sub-PSU-V4_0/buck_sw*%
X161953000Y-101731000D03*
%TO.P,U303,7,GND_7*%
%TO.N,GND*%
X163223000Y-101731000D03*
%TO.P,U303,6,PGOOD_6*%
%TO.N,unconnected-(U303-PGOOD-Pad6)*%
X164493000Y-101731000D03*
%TO.P,U303,5,FB_5*%
%TO.N,Net-(U303-FB)*%
X165763000Y-101731000D03*
%TO.P,U303,4,RT/SYNC_4*%
%TO.N,Net-(U303-RT{slash}SYNC)*%
X165763000Y-106681000D03*
%TO.P,U303,3,EN_3*%
%TO.N,Net-(D306-A)*%
X164493000Y-106681000D03*
%TO.P,U303,2,Vin_2*%
%TO.N,Vbatt*%
X163223000Y-106681000D03*
%TO.P,U303,1,BOOT_1*%
%TO.N,Net-(U303-BOOT)*%
X161953000Y-106681000D03*
%TD*%
D27*
%TO.P,U402,25*%
%TO.N,N/C*%
X216563000Y-109807600D03*
D28*
%TO.P,U402,24,SDA/SDI_24*%
%TO.N,SDA_LV*%
X215563000Y-108377600D03*
D29*
%TO.P,U402,23,SCL/SCLK_23*%
%TO.N,SCL_LV*%
X215963000Y-108377600D03*
%TO.P,U402,22,~{CS}_22*%
%TO.N,Net-(U402-~{CS})*%
X216363000Y-108377600D03*
%TO.P,U402,21,AUX_DA_21*%
%TO.N,unconnected-(U402-AUX_DA-Pad21)*%
X216763000Y-108377600D03*
%TO.P,U402,20,GND_20*%
%TO.N,GND*%
X217163000Y-108377600D03*
D30*
%TO.P,U402,19,RESV_19*%
%TO.N,unconnected-(U402-RESV-Pad19)*%
X217563000Y-108377600D03*
D31*
%TO.P,U402,18,GND_18*%
%TO.N,GND*%
X217993000Y-108807600D03*
D32*
%TO.P,U402,17,NC_17*%
%TO.N,unconnected-(U402-NC-Pad17)*%
X217993000Y-109207600D03*
%TO.P,U402,16,NC_16*%
%TO.N,unconnected-(U402-NC-Pad16)*%
X217993000Y-109607600D03*
%TO.P,U402,15,NC_15*%
%TO.N,unconnected-(U402-NC-Pad15)*%
X217993000Y-110007600D03*
%TO.P,U402,14,NC_14*%
%TO.N,unconnected-(U402-NC-Pad14)*%
X217993000Y-110407600D03*
D33*
%TO.P,U402,13,VDD_13*%
%TO.N,Compass+1.8V*%
X217993000Y-110807600D03*
D34*
%TO.P,U402,12,INT1_12*%
%TO.N,unconnected-(U402-INT1-Pad12)*%
X217563000Y-111237600D03*
D29*
%TO.P,U402,11,FSYNC_11*%
%TO.N,unconnected-(U402-FSYNC-Pad11)*%
X217163000Y-111237600D03*
%TO.P,U402,10,REGOUT_10*%
%TO.N,Net-(U402-REGOUT)*%
X216763000Y-111237600D03*
%TO.P,U402,9,SDO/AD0_9*%
%TO.N,Net-(U402-SDO{slash}AD0)*%
X216363000Y-111237600D03*
%TO.P,U402,8,VDDIO_8*%
%TO.N,Compass+1.8V*%
X215963000Y-111237600D03*
D35*
%TO.P,U402,7,AUX_CL_7*%
%TO.N,unconnected-(U402-AUX_CL-Pad7)*%
X215563000Y-111237600D03*
D36*
%TO.P,U402,6,NC_6*%
%TO.N,unconnected-(U402-NC-Pad6)*%
X215133000Y-110807600D03*
D32*
%TO.P,U402,5,NC_5*%
%TO.N,unconnected-(U402-NC-Pad5)*%
X215133000Y-110407600D03*
%TO.P,U402,4,NC_4*%
%TO.N,unconnected-(U402-NC-Pad4)*%
X215133000Y-110007600D03*
%TO.P,U402,3,NC_3*%
%TO.N,unconnected-(U402-NC-Pad3)*%
X215133000Y-109607600D03*
%TO.P,U402,2,NC_2*%
%TO.N,unconnected-(U402-NC-Pad2)*%
X215133000Y-109207600D03*
D37*
%TO.P,U402,1,NC_1*%
%TO.N,unconnected-(U402-NC-Pad1)*%
X215133000Y-108807600D03*
%TD*%
D38*
%TO.P,U501,39,GND_39*%
%TO.N,GND*%
X45088000Y-100860000D03*
D23*
%TO.P,U501,38,GND_38*%
X37743000Y-91250000D03*
%TO.P,U501,37,MOSI/GPIO23_37*%
%TO.N,/Top-CPU-V4.0/RADIO_1*%
X39013000Y-91250000D03*
%TO.P,U501,36,SCL/GPIO22_36*%
%TO.N,/Top-CPU-V4.0/TX_TOP*%
X40283000Y-91250000D03*
%TO.P,U501,35,TXD/GPIO1_35*%
%TO.N,TX_TOP_PROG*%
X41553000Y-91250000D03*
%TO.P,U501,34,RXD/GPIO3_34*%
%TO.N,RX_TOP_PROG*%
X42823000Y-91250000D03*
%TO.P,U501,33,SDA/GPIO21_33*%
%TO.N,/Top-CPU-V4.0/RX_TOP*%
X44093000Y-91250000D03*
%TO.P,U501,32,NC_32*%
%TO.N,unconnected-(U501-NC-Pad32)*%
X45363000Y-91250000D03*
%TO.P,U501,31,MISO/GPIO19_31*%
%TO.N,/Top-CPU-V4.0/RADIO_2*%
X46633000Y-91250000D03*
%TO.P,U501,30,SCK/GPIO18_30*%
%TO.N,/Top-CPU-V4.0/RADIO_3*%
X47903000Y-91250000D03*
%TO.P,U501,29,CS/GPIO5_29*%
%TO.N,/Top-CPU-V4.0/RADIO_4*%
X49173000Y-91250000D03*
%TO.P,U501,28,TXD/GPIO17_28*%
%TO.N,/Top-CPU-V4.0/TX_GPS*%
X50443000Y-91250000D03*
%TO.P,U501,27,RXD/GPIO16_27*%
%TO.N,/Top-CPU-V4.0/RX_GPS*%
X51713000Y-91250000D03*
%TO.P,U501,26,D1/GPIO4_26*%
%TO.N,BUZZER_TOP*%
X52983000Y-91250000D03*
%TO.P,U501,25,BOOT/GPIO0_25*%
%TO.N,DR0_TOP*%
X54253000Y-91250000D03*
D39*
%TO.P,U501,24,D0/GPIO2_24*%
%TO.N,unconnected-(U501-D0{slash}GPIO2-Pad24)*%
X55503000Y-94285000D03*
%TO.P,U501,23,MTDO/CS/CMD/GPIO15_23*%
%TO.N,/Top-CPU-V4.0/RADIO_6*%
X55503000Y-95555000D03*
%TO.P,U501,22,NC_22*%
%TO.N,unconnected-(U501-NC-Pad22)*%
X55503000Y-96825000D03*
%TO.P,U501,21,NC_21*%
%TO.N,unconnected-(U501-NC-Pad21)*%
X55503000Y-98095000D03*
%TO.P,U501,20,NC_20*%
%TO.N,unconnected-(U501-NC-Pad20)*%
X55503000Y-99365000D03*
%TO.P,U501,19,NC_19*%
%TO.N,unconnected-(U501-NC-Pad19)*%
X55503000Y-100635000D03*
%TO.P,U501,18,NC_18*%
%TO.N,unconnected-(U501-NC-Pad18)*%
X55503000Y-101905000D03*
%TO.P,U501,17,NC_17*%
%TO.N,unconnected-(U501-NC-Pad17)*%
X55503000Y-103175000D03*
%TO.P,U501,16,MTCK/MOSI/D3/GPIO13_16*%
%TO.N,/Top-CPU-V4.0/RADIO_5*%
X55503000Y-104445000D03*
%TO.P,U501,15,GND_15*%
%TO.N,GND*%
X55503000Y-105715000D03*
D23*
%TO.P,U501,14,MTDI/MISO/D2/GPIO12_14*%
%TO.N,unconnected-(U501-MTDI{slash}MISO{slash}D2{slash}GPIO12-Pad14)*%
X54253000Y-108750000D03*
%TO.P,U501,13,MTMS/SCK/CLK/GPIO14_13*%
%TO.N,unconnected-(U501-MTMS{slash}SCK{slash}CLK{slash}GPIO14-Pad13)*%
X52983000Y-108750000D03*
%TO.P,U501,12,GPIO27_12*%
%TO.N,unconnected-(U501-GPIO27-Pad12)*%
X51713000Y-108750000D03*
%TO.P,U501,11,GPIO26_11*%
%TO.N,LEDS_TOP*%
X50443000Y-108750000D03*
%TO.P,U501,10,GPIO25_10*%
%TO.N,BUTTON_LIGHT_TOP*%
X49173000Y-108750000D03*
%TO.P,U501,9,GPIO33_9*%
%TO.N,unconnected-(U501-GPIO33-Pad9)*%
X47903000Y-108750000D03*
%TO.P,U501,8,GPIO32_8*%
%TO.N,/Top-CPU-V4.0/ON_TOP*%
X46633000Y-108750000D03*
%TO.P,U501,7,GPIO35_7*%
%TO.N,/Top-CPU-V4.0/VSAMP_TOP*%
X45363000Y-108750000D03*
%TO.P,U501,6,GPIO34_6*%
%TO.N,unconnected-(U501-GPIO34-Pad6)*%
X44093000Y-108750000D03*
%TO.P,U501,5,GPIO39_5*%
%TO.N,BUTTON_TOP*%
X42823000Y-108750000D03*
%TO.P,U501,4,GPIO36_4*%
%TO.N,unconnected-(U501-GPIO36-Pad4)*%
X41553000Y-108750000D03*
%TO.P,U501,3,CHIP_PU/EN_3*%
%TO.N,EN_TOP*%
X40283000Y-108750000D03*
%TO.P,U501,2,VDD_2*%
%TO.N,+3.3V_TOP*%
X39013000Y-108750000D03*
%TO.P,U501,1,GND_1*%
%TO.N,GND*%
X37743000Y-108750000D03*
%TD*%
D24*
%TO.P,U602,9,Thermal_Pad_9*%
%TO.N,GND*%
X97951000Y-89964000D03*
X96551000Y-89964000D03*
X95151000Y-89964000D03*
D25*
X96551000Y-90664000D03*
D24*
X97951000Y-91364000D03*
X96551000Y-91364000D03*
X95151000Y-91364000D03*
D26*
%TO.P,U602,8,SW_8*%
%TO.N,Net-(D604-K)*%
X94646000Y-88189000D03*
%TO.P,U602,7,GND_7*%
%TO.N,GND*%
X95916000Y-88189000D03*
%TO.P,U602,6,PGOOD_6*%
%TO.N,unconnected-(U602-PGOOD-Pad6)*%
X97186000Y-88189000D03*
%TO.P,U602,5,FB_5*%
%TO.N,Net-(U602-FB)*%
X98456000Y-88189000D03*
%TO.P,U602,4,RT/SYNC_4*%
%TO.N,Net-(U602-RT{slash}SYNC)*%
X98456000Y-93139000D03*
%TO.P,U602,3,EN_3*%
%TO.N,Net-(D601-A)*%
X97186000Y-93139000D03*
%TO.P,U602,2,Vin_2*%
%TO.N,Vbatt*%
X95916000Y-93139000D03*
%TO.P,U602,1,BOOT_1*%
%TO.N,Net-(U602-BOOT)*%
X94646000Y-93139000D03*
%TD*%
D40*
%TO.P,TP311,1,1_1*%
%TO.N,COM*%
X111280000Y-86426000D03*
%TD*%
D41*
%TO.P,D603,1,K_1*%
%TO.N,Net-(D603-K)*%
X91409000Y-100889000D03*
%TO.P,D603,2,A_2*%
%TO.N,/Top-CPU-V4.0/ON_TOP*%
X89309000Y-100889000D03*
%TD*%
D42*
%TO.P,C609,1*%
%TO.N,+3.3V_TOP*%
X72291000Y-114466000D03*
%TO.P,C609,2*%
%TO.N,GND*%
X72291000Y-112966000D03*
%TD*%
D43*
%TO.P,C212,1*%
%TO.N,+5V*%
X169319000Y-103202000D03*
%TO.P,C212,2*%
%TO.N,GND*%
X169319000Y-104702000D03*
%TD*%
D44*
%TO.P,R203,1*%
%TO.N,Net-(D202-DIN)*%
X169305600Y-89093000D03*
%TO.P,R203,2*%
%TO.N,LEDS_SUB*%
X170805600Y-89093000D03*
%TD*%
D45*
%TO.P,D502,1,VDD_1*%
%TO.N,+5V_TOP*%
X81097028Y-108542385D03*
%TO.P,D502,2,DOUT_2*%
%TO.N,Net-(D502-DOUT)*%
X81097028Y-105242385D03*
%TO.P,D502,3,VSS_3*%
%TO.N,GND*%
X76197028Y-105242385D03*
%TO.P,D502,4,DIN_4*%
%TO.N,Net-(D502-DIN)*%
X76197028Y-108542385D03*
%TD*%
D46*
%TO.P,R506,1*%
%TO.N,Net-(D504-DOUT)*%
X79518000Y-89078000D03*
%TO.P,R506,2*%
%TO.N,Net-(J504-Pin_2)*%
X78018000Y-89078000D03*
%TD*%
D47*
%TO.P,C209,1*%
%TO.N,+3.3V*%
X169827000Y-87266000D03*
%TO.P,C209,2*%
%TO.N,GND*%
X169827000Y-84316000D03*
%TD*%
D44*
%TO.P,R317,1*%
%TO.N,/Sub-PSU-V4_0/ESC_SB_PWR*%
X141899000Y-85537000D03*
%TO.P,R317,2*%
%TO.N,GND*%
X143399000Y-85537000D03*
%TD*%
%TO.P,R620,1*%
%TO.N,Net-(D605-A)*%
X82717000Y-84379000D03*
%TO.P,R620,2*%
%TO.N,+5V_TOP*%
X84217000Y-84379000D03*
%TD*%
%TO.P,C308,1*%
%TO.N,Vbatt*%
X164378000Y-110048000D03*
%TO.P,C308,2*%
%TO.N,GND*%
X165878000Y-110048000D03*
%TD*%
D40*
%TO.P,TP605,1,1_1*%
%TO.N,/Top-CPU-V4.0/VSAMP_TOP*%
X93042800Y-115305800D03*
%TD*%
D48*
%TO.P,J305,1,Pin_1_1*%
%TO.N,GND*%
X141000000Y-93015000D03*
D49*
%TO.P,J305,2,Pin_2_2*%
%TO.N,Net-(J305-Pin_2)*%
X135908831Y-87923831D03*
%TD*%
D50*
%TO.P,U301,1,NC_1*%
%TO.N,unconnected-(U301-NC-Pad1)*%
X160326299Y-114955700D03*
%TO.P,U301,2,A_2*%
%TO.N,Net-(U301-A)*%
X159376300Y-114955700D03*
%TO.P,U301,3,GND_3*%
%TO.N,GND*%
X158426301Y-114955700D03*
%TO.P,U301,4,Y_4*%
%TO.N,Net-(J302-Pin_1)*%
X158426301Y-117230700D03*
%TO.P,U301,5,VCC_5*%
%TO.N,Net-(J302-Pin_2)*%
X160326299Y-117230700D03*
%TD*%
D45*
%TO.P,D503,1,VDD_1*%
%TO.N,+5V_TOP*%
X81097028Y-101414385D03*
%TO.P,D503,2,DOUT_2*%
%TO.N,Net-(D503-DOUT)*%
X81097028Y-98114385D03*
%TO.P,D503,3,VSS_3*%
%TO.N,GND*%
X76197028Y-98114385D03*
%TO.P,D503,4,DIN_4*%
%TO.N,Net-(D502-DOUT)*%
X76197028Y-101414385D03*
%TD*%
D13*
%TO.P,Q303,1,B_1*%
%TO.N,Net-(Q303-B)*%
X121999000Y-87630000D03*
%TO.P,Q303,2,E_2*%
%TO.N,+3.3V*%
X121999000Y-85730000D03*
%TO.P,Q303,3,C_3*%
%TO.N,/Sub-PSU-V4_0/RX_SUB*%
X120119001Y-86680000D03*
%TD*%
D51*
%TO.P,D601,1,K_1*%
%TO.N,Net-(D601-K)*%
X90960000Y-97045000D03*
%TO.P,D601,2,A_2*%
%TO.N,Net-(D601-A)*%
X90960000Y-99145000D03*
%TD*%
D52*
%TO.P,R405,1*%
%TO.N,Compass+1.8V*%
X216309000Y-100912001D03*
%TO.P,R405,2*%
%TO.N,Net-(U402-~{CS})*%
X216309000Y-101911999D03*
%TD*%
D53*
%TO.P,J202,1,Pin_1_1*%
%TO.N,GND*%
X203500000Y-98265000D03*
D54*
%TO.P,J202,2,Pin_2_2*%
%TO.N,+3.3V*%
X203500000Y-95765000D03*
%TO.P,J202,3,Pin_3_3*%
%TO.N,/Suv-CPU-V4.0/SDA_SUB*%
X203500000Y-93265000D03*
%TO.P,J202,4,Pin_4_4*%
%TO.N,/Suv-CPU-V4.0/SCL_SUB*%
X203500000Y-90765000D03*
%TD*%
D43*
%TO.P,C211,1*%
%TO.N,+5V*%
X169319000Y-97868000D03*
%TO.P,C211,2*%
%TO.N,GND*%
X169319000Y-99368000D03*
%TD*%
D55*
%TO.P,JP205,1,A_1*%
%TO.N,/Suv-CPU-V4.0/SCL_SUB*%
X210024000Y-101015000D03*
%TO.P,JP205,2,B_2*%
X206976000Y-101015000D03*
%TD*%
D56*
%TO.P,J201,1,Pin_1_1*%
%TO.N,EN_SUB*%
X204500000Y-108555000D03*
D57*
%TO.P,J201,2,Pin_2_2*%
%TO.N,+3.3V*%
X203230000Y-108555000D03*
%TO.P,J201,3,Pin_3_3*%
%TO.N,TX_SUB_PROG*%
X204500000Y-107285000D03*
%TO.P,J201,4,Pin_4_4*%
%TO.N,GND*%
X203230000Y-107285000D03*
%TO.P,J201,5,Pin_5_5*%
%TO.N,RX_SUB_PROG*%
X203230000Y-106015000D03*
%TO.P,J201,6,Pin_6_6*%
%TO.N,DR0_SUB*%
X204500000Y-106015000D03*
%TD*%
D43*
%TO.P,R313,1*%
%TO.N,Net-(D302-K)*%
X123853000Y-85930000D03*
%TO.P,R313,2*%
%TO.N,Net-(Q303-B)*%
X123853000Y-87430000D03*
%TD*%
D42*
%TO.P,R606,1*%
%TO.N,Net-(R603-Pad2)*%
X100434200Y-101730200D03*
%TO.P,R606,2*%
%TO.N,Net-(R606-Pad2)*%
X100434200Y-100230200D03*
%TD*%
D40*
%TO.P,TP307,1,1_1*%
%TO.N,Vbatt*%
X121287600Y-93461800D03*
%TD*%
D46*
%TO.P,C513,1*%
%TO.N,+3.3V_TOP*%
X62754000Y-113121400D03*
%TO.P,C513,2*%
%TO.N,GND*%
X61254000Y-113121400D03*
%TD*%
%TO.P,R613,1*%
%TO.N,Net-(D602-K)*%
X76724000Y-84644998D03*
%TO.P,R613,2*%
%TO.N,Net-(Q602-B)*%
X75224000Y-84644998D03*
%TD*%
D58*
%TO.P,C502,1*%
%TO.N,+3.3V_TOP*%
X39955000Y-111684000D03*
%TO.P,C502,2*%
%TO.N,GND*%
X42905000Y-111684000D03*
%TD*%
D46*
%TO.P,R616,1*%
%TO.N,Net-(U602-FB)*%
X97936000Y-86157000D03*
%TO.P,R616,2*%
%TO.N,GND*%
X96436000Y-86157000D03*
%TD*%
D59*
%TO.P,D307,1,K_1*%
%TO.N,Net-(D307-K)*%
X167033000Y-99414000D03*
%TO.P,D307,2,A_2*%
%TO.N,/Sub-PSU-V4_0/ON_SUB*%
X167033000Y-97314000D03*
%TD*%
D44*
%TO.P,C613,1*%
%TO.N,Net-(D604-K)*%
X93007000Y-95174000D03*
%TO.P,C613,2*%
%TO.N,Net-(U602-BOOT)*%
X94507000Y-95174000D03*
%TD*%
D60*
%TO.P,Q302,1,G_1*%
%TO.N,Net-(Q302-G)*%
X125824000Y-83553500D03*
%TO.P,Q302,2,S_2*%
%TO.N,Vbatt*%
X127724000Y-83553500D03*
%TO.P,Q302,3,D_3*%
%TO.N,Net-(Q302-D)*%
X126774000Y-81678499D03*
%TD*%
D42*
%TO.P,R205,1*%
%TO.N,+3.3V*%
X199367200Y-95024600D03*
%TO.P,R205,2*%
%TO.N,/Suv-CPU-V4.0/SDA_SUB*%
X199367200Y-93524600D03*
%TD*%
%TO.P,C317,1*%
%TO.N,+3.3V*%
X147094000Y-116259000D03*
%TO.P,C317,2*%
%TO.N,GND*%
X147094000Y-114759000D03*
%TD*%
D44*
%TO.P,R344,1*%
%TO.N,Net-(D309-A)*%
X149138000Y-96205000D03*
%TO.P,R344,2*%
%TO.N,+5V*%
X150638000Y-96205000D03*
%TD*%
D46*
%TO.P,C605,1*%
%TO.N,Vbatt*%
X95904000Y-96698000D03*
%TO.P,C605,2*%
%TO.N,GND*%
X94404000Y-96698000D03*
%TD*%
%TO.P,R323,1*%
%TO.N,Vbatt*%
X121428000Y-107635000D03*
%TO.P,R323,2*%
%TO.N,Net-(Q307-G)*%
X119928000Y-107635000D03*
%TD*%
D61*
%TO.P,C610,1*%
%TO.N,Net-(D601-A)*%
X97440000Y-97206000D03*
%TO.P,C610,2*%
%TO.N,GND*%
X99440000Y-97206000D03*
%TD*%
D62*
%TO.P,C301,1*%
%TO.N,Vbatt*%
X162793001Y-111953000D03*
%TO.P,C301,2*%
%TO.N,GND*%
X159842999Y-111953000D03*
%TD*%
D44*
%TO.P,R321,1*%
%TO.N,Net-(Q304-D)*%
X119928000Y-109159000D03*
%TO.P,R321,2*%
%TO.N,Net-(Q307-G)*%
X121428000Y-109159000D03*
%TD*%
D46*
%TO.P,R208,1*%
%TO.N,+3.3V*%
X199787000Y-98872000D03*
%TO.P,R208,2*%
%TO.N,SWITCH_SUB*%
X198287000Y-98872000D03*
%TD*%
D42*
%TO.P,R209,1*%
%TO.N,+3.3V*%
X198402000Y-105845000D03*
%TO.P,R209,2*%
%TO.N,DR0_SUB*%
X198402000Y-104345000D03*
%TD*%
D63*
%TO.P,J306,1,-_1*%
%TO.N,Net-(J306--)*%
X133000000Y-100015000D03*
D49*
%TO.P,J306,2,+_2*%
%TO.N,Vbatt*%
X125800000Y-100015000D03*
%TD*%
D43*
%TO.P,C311,1*%
%TO.N,+5V*%
X156746000Y-101424000D03*
%TO.P,C311,2*%
%TO.N,GND*%
X156746000Y-102924000D03*
%TD*%
D59*
%TO.P,D205,1,K_1*%
%TO.N,+5V*%
X181892000Y-113565000D03*
%TO.P,D205,2,A_2*%
%TO.N,Net-(D205-A)*%
X181892000Y-111465000D03*
%TD*%
D46*
%TO.P,C606,1*%
%TO.N,Vbatt*%
X95904000Y-99492000D03*
%TO.P,C606,2*%
%TO.N,GND*%
X94404000Y-99492000D03*
%TD*%
%TO.P,R301,1*%
%TO.N,Net-(U302-A)*%
X158639000Y-81346000D03*
%TO.P,R301,2*%
%TO.N,/Sub-PSU-V4_0/ESC_SB*%
X157139000Y-81346000D03*
%TD*%
D44*
%TO.P,R607,1*%
%TO.N,Net-(D601-A)*%
X97576000Y-100269000D03*
%TO.P,R607,2*%
%TO.N,Net-(R606-Pad2)*%
X99076000Y-100269000D03*
%TD*%
D10*
%TO.P,BUZZER201,1,1_1*%
%TO.N,+5V*%
X190125000Y-116854000D03*
%TO.P,BUZZER201,2,2_2*%
%TO.N,Net-(D205-A)*%
X190125000Y-110354000D03*
%TD*%
D42*
%TO.P,R310,1*%
%TO.N,Net-(D306-A)*%
X167414000Y-102162000D03*
%TO.P,R310,2*%
%TO.N,Net-(D307-K)*%
X167414000Y-100662000D03*
%TD*%
D44*
%TO.P,C303,1*%
%TO.N,GND*%
X161584000Y-110048000D03*
%TO.P,C303,2*%
%TO.N,Vbatt*%
X163084000Y-110048000D03*
%TD*%
D61*
%TO.P,C611,1*%
%TO.N,Net-(D601-A)*%
X97456000Y-95428000D03*
%TO.P,C611,2*%
%TO.N,GND*%
X99456000Y-95428000D03*
%TD*%
D64*
%TO.P,R401,1*%
%TO.N,Compass+1.8V*%
X215428001Y-112435600D03*
%TO.P,R401,2*%
%TO.N,Net-(U402-SDO{slash}AD0)*%
X216427999Y-112435600D03*
%TD*%
D44*
%TO.P,C307,1*%
%TO.N,Vbatt*%
X164378000Y-111445000D03*
%TO.P,C307,2*%
%TO.N,GND*%
X165878000Y-111445000D03*
%TD*%
D46*
%TO.P,C501,1*%
%TO.N,EN_TOP*%
X39386000Y-89078000D03*
%TO.P,C501,2*%
%TO.N,GND*%
X37886000Y-89078000D03*
%TD*%
D43*
%TO.P,R302,1*%
%TO.N,Net-(U301-A)*%
X162562600Y-114911400D03*
%TO.P,R302,2*%
%TO.N,/Sub-PSU-V4_0/ESC_BB*%
X162562600Y-116411400D03*
%TD*%
D42*
%TO.P,R609,1*%
%TO.N,GND*%
X73434000Y-86272000D03*
%TO.P,R609,2*%
%TO.N,/Top-CPU-V4.0/RX_TOP*%
X73434000Y-84772000D03*
%TD*%
D59*
%TO.P,D501,1,K_1*%
%TO.N,+5V_TOP*%
X83467000Y-102828000D03*
%TO.P,D501,2,A_2*%
%TO.N,Net-(D501-A)*%
X83467000Y-100728000D03*
%TD*%
D46*
%TO.P,R619,1*%
%TO.N,/Top-CPU-V4.0/VSAMP_TOP*%
X93081600Y-118150600D03*
%TO.P,R619,2*%
%TO.N,GND*%
X91581600Y-118150600D03*
%TD*%
%TO.P,R501,1*%
%TO.N,+3.3V_TOP*%
X44750000Y-87554000D03*
%TO.P,R501,2*%
%TO.N,DR0_TOP*%
X43250000Y-87554000D03*
%TD*%
D40*
%TO.P,TP304,1,1_1*%
%TO.N,Net-(J303-Pin_2)*%
X148089523Y-86484928D03*
%TD*%
D60*
%TO.P,Q305,1,G_1*%
%TO.N,/Sub-PSU-V4_0/ESC_SB_PWR*%
X141668749Y-83795500D03*
%TO.P,Q305,2,S_2*%
%TO.N,GND*%
X143568749Y-83795500D03*
%TO.P,Q305,3,D_3*%
%TO.N,Net-(Q305-D)*%
X142618749Y-81920499D03*
%TD*%
D65*
%TO.P,SW201,1,1_1*%
%TO.N,GND*%
X197385998Y-117795000D03*
D66*
%TO.P,SW201,2,2_2*%
%TO.N,SWITCH_SUB*%
X199926000Y-117795000D03*
%TD*%
D67*
%TO.P,Q604,1,G_1*%
%TO.N,Net-(Q604-G)*%
X97955200Y-116349500D03*
%TO.P,Q604,2,S_2*%
%TO.N,Vbatt*%
X96055200Y-116349500D03*
%TO.P,Q604,3,D_3*%
%TO.N,Net-(Q604-D)*%
X97005200Y-118224501D03*
%TD*%
D44*
%TO.P,C602,1*%
%TO.N,GND*%
X94404000Y-98095000D03*
%TO.P,C602,2*%
%TO.N,Vbatt*%
X95904000Y-98095000D03*
%TD*%
D68*
%TO.P,D204,1,VDD_1*%
%TO.N,+5V*%
X171060000Y-104366000D03*
%TO.P,D204,2,DOUT_2*%
%TO.N,unconnected-(D204-DOUT-Pad2)*%
X171060000Y-107666000D03*
%TO.P,D204,3,VSS_3*%
%TO.N,GND*%
X175960000Y-107666000D03*
%TO.P,D204,4,DIN_4*%
%TO.N,Net-(D203-DOUT)*%
X175960000Y-104366000D03*
%TD*%
D44*
%TO.P,R305,1*%
%TO.N,Net-(D305-A)*%
X154218000Y-93030000D03*
%TO.P,R305,2*%
%TO.N,Net-(J303-Pin_2)*%
X155718000Y-93030000D03*
%TD*%
D69*
%TO.P,Q304,1,G_1*%
%TO.N,/Sub-PSU-V4_0/ESC_BB_PWR*%
X120726500Y-112522000D03*
%TO.P,Q304,2,S_2*%
%TO.N,GND*%
X120726500Y-110622000D03*
%TO.P,Q304,3,D_3*%
%TO.N,Net-(Q304-D)*%
X118851499Y-111572000D03*
%TD*%
D58*
%TO.P,C512,1*%
%TO.N,+3.3V_TOP*%
X64339000Y-114224000D03*
%TO.P,C512,2*%
%TO.N,GND*%
X67289000Y-114224000D03*
%TD*%
D42*
%TO.P,C304,1*%
%TO.N,Net-(J302-Pin_2)*%
X156873000Y-116741600D03*
%TO.P,C304,2*%
%TO.N,GND*%
X156873000Y-115241600D03*
%TD*%
D44*
%TO.P,R508,1*%
%TO.N,LEDS_TOP*%
X71312400Y-110175000D03*
%TO.P,R508,2*%
%TO.N,Net-(D502-DIN)*%
X72812400Y-110175000D03*
%TD*%
D64*
%TO.P,C404,1*%
%TO.N,Net-(U402-REGOUT)*%
X217460000Y-112435600D03*
%TO.P,C404,2*%
%TO.N,GND*%
X218460000Y-112435600D03*
%TD*%
D60*
%TO.P,Q603,1,G_1*%
%TO.N,Net-(Q603-G)*%
X88079600Y-118021300D03*
%TO.P,Q603,2,S_2*%
%TO.N,GND*%
X89979600Y-118021300D03*
%TO.P,Q603,3,D_3*%
%TO.N,Net-(Q603-D)*%
X89029600Y-116146299D03*
%TD*%
D43*
%TO.P,C315,1*%
%TO.N,/Sub-PSU-V4_0/VSAMP_SUB*%
X123726000Y-116029000D03*
%TO.P,C315,2*%
%TO.N,GND*%
X123726000Y-117529000D03*
%TD*%
D42*
%TO.P,C309,1*%
%TO.N,Net-(D306-A)*%
X167287000Y-107750000D03*
%TO.P,C309,2*%
%TO.N,GND*%
X167287000Y-106250000D03*
%TD*%
%TO.P,R336,1*%
%TO.N,Net-(Q310-D)*%
X117630000Y-117529000D03*
%TO.P,R336,2*%
%TO.N,Net-(Q311-G)*%
X117630000Y-116029000D03*
%TD*%
D43*
%TO.P,R346,1*%
%TO.N,GND*%
X140490000Y-116791000D03*
%TO.P,R346,2*%
%TO.N,Net-(U305-REF)*%
X140490000Y-118291000D03*
%TD*%
D46*
%TO.P,C614,1*%
%TO.N,+5V_TOP*%
X86379000Y-89078000D03*
%TO.P,C614,2*%
%TO.N,GND*%
X84879000Y-89078000D03*
%TD*%
D42*
%TO.P,R320,1*%
%TO.N,Net-(D306-A)*%
X168684000Y-107750000D03*
%TO.P,R320,2*%
%TO.N,GND*%
X168684000Y-106250000D03*
%TD*%
D40*
%TO.P,TP305,1,1_1*%
%TO.N,Net-(D306-A)*%
X172417800Y-110784600D03*
%TD*%
D70*
%TO.P,J304,1,Pin_1_1*%
%TO.N,GND*%
X140545584Y-107015000D03*
D49*
%TO.P,J304,2,Pin_2_2*%
%TO.N,Net-(J304-Pin_2)*%
X135454415Y-112106169D03*
%TD*%
D40*
%TO.P,TP312,1,1_1*%
%TO.N,+5V*%
X152301000Y-96205000D03*
%TD*%
D61*
%TO.P,C406,1*%
%TO.N,GND*%
X212642000Y-100269000D03*
%TO.P,C406,2*%
%TO.N,Compass+1.8V*%
X214642000Y-100269000D03*
%TD*%
D71*
%TO.P,L301,1*%
%TO.N,/Sub-PSU-V4_0/buck_sw*%
X160762000Y-97348000D03*
%TO.P,L301,2*%
%TO.N,+5V*%
X154762000Y-97348000D03*
%TD*%
D40*
%TO.P,TP306,1,1_1*%
%TO.N,Net-(U303-FB)*%
X164747000Y-96713000D03*
%TD*%
D46*
%TO.P,C504,1*%
%TO.N,+3.3V_TOP*%
X38370000Y-112192000D03*
%TO.P,C504,2*%
%TO.N,GND*%
X36870000Y-112192000D03*
%TD*%
%TO.P,R315,1*%
%TO.N,Net-(D306-K)*%
X168799000Y-111445000D03*
%TO.P,R315,2*%
%TO.N,Net-(R315-Pad2)*%
X167299000Y-111445000D03*
%TD*%
%TO.P,R335,1*%
%TO.N,Net-(Q311-G)*%
X116856000Y-111699000D03*
%TO.P,R335,2*%
%TO.N,Vbatt*%
X115356000Y-111699000D03*
%TD*%
D72*
%TO.P,J301,1,Pin_1_1*%
%TO.N,GND*%
X113218000Y-105515000D03*
%TO.P,J301,2,Pin_2_2*%
%TO.N,COM*%
X113218000Y-100015000D03*
%TO.P,J301,3,Pin_3_3*%
%TO.N,Vbatt*%
X113218000Y-94515000D03*
%TD*%
D46*
%TO.P,R324,1*%
%TO.N,Vbatt*%
X129683000Y-94681000D03*
%TO.P,R324,2*%
%TO.N,Net-(Q308-G)*%
X128183000Y-94681000D03*
%TD*%
D60*
%TO.P,Q402,1,G_1*%
%TO.N,Compass+1.8V*%
X216883000Y-97269500D03*
%TO.P,Q402,2,S_2*%
%TO.N,SCL_LV*%
X218783000Y-97269500D03*
%TO.P,Q402,3,D_3*%
%TO.N,/Suv-CPU-V4.0/SCL_SUB*%
X217833000Y-95394499D03*
%TD*%
D73*
%TO.P,J501,1,Pin_1_1*%
%TO.N,EN_TOP*%
X40668000Y-84252000D03*
D57*
%TO.P,J501,2,Pin_2_2*%
%TO.N,+3.3V_TOP*%
X40668000Y-82982000D03*
%TO.P,J501,3,Pin_3_3*%
%TO.N,TX_TOP_PROG*%
X41938000Y-84252000D03*
%TO.P,J501,4,Pin_4_4*%
%TO.N,GND*%
X41938000Y-82982000D03*
%TO.P,J501,5,Pin_5_5*%
%TO.N,RX_TOP_PROG*%
X43208000Y-82982000D03*
%TO.P,J501,6,Pin_6_6*%
%TO.N,DR0_TOP*%
X43208000Y-84252000D03*
%TD*%
D74*
%TO.P,SW601,1*%
%TO.N,Vbatt*%
X88547000Y-98476000D03*
D66*
%TO.P,SW601,2*%
%TO.N,Net-(D601-K)*%
X88547000Y-95936000D03*
%TO.P,SW601,3*%
%TO.N,GND*%
X88547000Y-93396000D03*
%TD*%
D42*
%TO.P,R314,1*%
%TO.N,GND*%
X118265000Y-88446000D03*
%TO.P,R314,2*%
%TO.N,/Sub-PSU-V4_0/RX_SUB*%
X118265000Y-86946000D03*
%TD*%
%TO.P,R307,1*%
%TO.N,COM*%
X124234000Y-83747000D03*
%TO.P,R307,2*%
%TO.N,Net-(Q302-G)*%
X124234000Y-82247000D03*
%TD*%
D43*
%TO.P,C313,1*%
%TO.N,+5V*%
X155349000Y-101424000D03*
%TO.P,C313,2*%
%TO.N,GND*%
X155349000Y-102924000D03*
%TD*%
D40*
%TO.P,TP201,1,1_1*%
%TO.N,DR0_SUB*%
X199824400Y-104333000D03*
%TD*%
D60*
%TO.P,Q401,1,G_1*%
%TO.N,Compass+1.8V*%
X220439000Y-97269500D03*
%TO.P,Q401,2,S_2*%
%TO.N,SDA_LV*%
X222339000Y-97269500D03*
%TO.P,Q401,3,D_3*%
%TO.N,/Suv-CPU-V4.0/SDA_SUB*%
X221389000Y-95394499D03*
%TD*%
D47*
%TO.P,C612,1*%
%TO.N,+3.3V_TOP*%
X69878000Y-114683000D03*
%TO.P,C612,2*%
%TO.N,GND*%
X69878000Y-111733000D03*
%TD*%
D40*
%TO.P,TP602,1,1_1*%
%TO.N,Net-(D601-A)*%
X90579000Y-95697000D03*
%TD*%
D50*
%TO.P,U302,1,NC_1*%
%TO.N,unconnected-(U302-NC-Pad1)*%
X160032799Y-83256500D03*
%TO.P,U302,2,A_2*%
%TO.N,Net-(U302-A)*%
X159082800Y-83256500D03*
%TO.P,U302,3,GND_3*%
%TO.N,GND*%
X158132801Y-83256500D03*
%TO.P,U302,4,Y_4*%
%TO.N,Net-(J303-Pin_1)*%
X158132801Y-85531500D03*
%TO.P,U302,5,VCC_5*%
%TO.N,Net-(J303-Pin_2)*%
X160032799Y-85531500D03*
%TD*%
D40*
%TO.P,TP601,1,1_1*%
%TO.N,COM*%
X102517000Y-101031000D03*
%TD*%
D62*
%TO.P,C601,1*%
%TO.N,Vbatt*%
X95740001Y-101397000D03*
%TO.P,C601,2*%
%TO.N,GND*%
X92789999Y-101397000D03*
%TD*%
D67*
%TO.P,Q501,1,G_1*%
%TO.N,Net-(Q501-G)*%
X48476000Y-114810500D03*
%TO.P,Q501,2,S_2*%
%TO.N,GND*%
X46576000Y-114810500D03*
%TO.P,Q501,3,D_3*%
%TO.N,Net-(J502-Pin_3)*%
X47526000Y-116685501D03*
%TD*%
D40*
%TO.P,TP301,1,1_1*%
%TO.N,Net-(J302-Pin_1)*%
X148110000Y-112842000D03*
%TD*%
D75*
%TO.P,SW301,1*%
%TO.N,Net-(R311-Pad1)*%
X170843000Y-114366000D03*
D66*
%TO.P,SW301,2*%
%TO.N,Net-(D306-K)*%
X168303000Y-114366000D03*
%TO.P,SW301,3*%
%TO.N,GND*%
X165763000Y-114366000D03*
%TD*%
D44*
%TO.P,R328,1*%
%TO.N,+5V*%
X163235000Y-98110000D03*
%TO.P,R328,2*%
%TO.N,Net-(U303-FB)*%
X164735000Y-98110000D03*
%TD*%
D64*
%TO.P,R403,1*%
%TO.N,+3.3V*%
X220381001Y-93792000D03*
%TO.P,R403,2*%
%TO.N,/Suv-CPU-V4.0/SDA_SUB*%
X221380999Y-93792000D03*
%TD*%
D76*
%TO.P,TP606,1,1_1*%
%TO.N,GND*%
X85626000Y-93411000D03*
%TD*%
D64*
%TO.P,R404,1*%
%TO.N,+3.3V*%
X216825001Y-93814000D03*
%TO.P,R404,2*%
%TO.N,/Suv-CPU-V4.0/SCL_SUB*%
X217824999Y-93814000D03*
%TD*%
D43*
%TO.P,R504,1*%
%TO.N,BUTTON_LIGHT_TOP*%
X48542000Y-111454000D03*
%TO.P,R504,2*%
%TO.N,Net-(Q501-G)*%
X48542000Y-112954000D03*
%TD*%
D44*
%TO.P,R345,1*%
%TO.N,Net-(U305-REF)*%
X145531200Y-117693400D03*
%TO.P,R345,2*%
%TO.N,+3.3V*%
X147031200Y-117693400D03*
%TD*%
D67*
%TO.P,Q502,1,G_1*%
%TO.N,Net-(Q502-G)*%
X86322000Y-98300500D03*
%TO.P,Q502,2,S_2*%
%TO.N,GND*%
X84422000Y-98300500D03*
%TO.P,Q502,3,D_3*%
%TO.N,Net-(D501-A)*%
X85372000Y-100175501D03*
%TD*%
D42*
%TO.P,R602,1*%
%TO.N,Net-(D602-A)*%
X77244000Y-82982000D03*
%TO.P,R602,2*%
%TO.N,+3.3V_TOP*%
X77244000Y-81482000D03*
%TD*%
D55*
%TO.P,JP201,1,A_1*%
%TO.N,/Suv-CPU-V4.0/SDA_SUB*%
X210024000Y-99015000D03*
%TO.P,JP201,2,B_2*%
X206976000Y-99015000D03*
%TD*%
D42*
%TO.P,R308,1*%
%TO.N,Net-(Q301-B)*%
X116741000Y-88446000D03*
%TO.P,R308,2*%
%TO.N,/Sub-PSU-V4_0/TX_SUB*%
X116741000Y-86946000D03*
%TD*%
D77*
%TO.P,C403,1*%
%TO.N,Compass+1.8V*%
X221516000Y-110268599D03*
%TO.P,C403,2*%
%TO.N,GND*%
X221516000Y-109268601D03*
%TD*%
D78*
%TO.P,J502,1,Pin_1_1*%
%TO.N,+3.3V_TOP*%
X52392000Y-112937000D03*
D79*
%TO.P,J502,2,Pin_2_2*%
%TO.N,Net-(J502-Pin_2)*%
X54892000Y-112937000D03*
%TO.P,J502,3,Pin_3_3*%
%TO.N,Net-(J502-Pin_3)*%
X57392000Y-112937000D03*
%TD*%
D76*
%TO.P,TP313,1,1_1*%
%TO.N,GND*%
X148364000Y-100015000D03*
%TD*%
D42*
%TO.P,R621,1*%
%TO.N,Net-(D603-K)*%
X92865000Y-99468000D03*
%TO.P,R621,2*%
%TO.N,Net-(D601-A)*%
X92865000Y-97968000D03*
%TD*%
D40*
%TO.P,TP308,1,1_1*%
%TO.N,/Sub-PSU-V4_0/VSAMP_SUB*%
X119154000Y-114493000D03*
%TD*%
D80*
%TO.P,R319,1*%
%TO.N,GND*%
X142498000Y-101158000D03*
%TO.P,R319,2*%
%TO.N,Net-(J306--)*%
X139498000Y-101158000D03*
%TD*%
D43*
%TO.P,R322,1*%
%TO.N,Net-(Q305-D)*%
X139951749Y-81854000D03*
%TO.P,R322,2*%
%TO.N,Net-(Q308-G)*%
X139951749Y-83354000D03*
%TD*%
D42*
%TO.P,R604,1*%
%TO.N,COM*%
X96548000Y-107227000D03*
%TO.P,R604,2*%
%TO.N,Vbatt*%
X96548000Y-105727000D03*
%TD*%
%TO.P,C608,1*%
%TO.N,+5V_TOP*%
X72164000Y-117895000D03*
%TO.P,C608,2*%
%TO.N,GND*%
X72164000Y-116395000D03*
%TD*%
D64*
%TO.P,R402,1*%
%TO.N,Compass+1.8V*%
X220994001Y-98909000D03*
%TO.P,R402,2*%
%TO.N,SDA_LV*%
X221993999Y-98909000D03*
%TD*%
D45*
%TO.P,D504,1,VDD_1*%
%TO.N,+5V_TOP*%
X81097028Y-94286385D03*
%TO.P,D504,2,DOUT_2*%
%TO.N,Net-(D504-DOUT)*%
X81097028Y-90986385D03*
%TO.P,D504,3,VSS_3*%
%TO.N,GND*%
X76197028Y-90986385D03*
%TO.P,D504,4,DIN_4*%
%TO.N,Net-(D503-DOUT)*%
X76197028Y-94286385D03*
%TD*%
D46*
%TO.P,R605,1*%
%TO.N,Net-(Q605-B)*%
X76724000Y-86157000D03*
%TO.P,R605,2*%
%TO.N,/Top-CPU-V4.0/TX_TOP*%
X75224000Y-86157000D03*
%TD*%
D42*
%TO.P,R306,1*%
%TO.N,COM*%
X119611200Y-100307800D03*
%TO.P,R306,2*%
%TO.N,Vbatt*%
X119611200Y-98807800D03*
%TD*%
%TO.P,C207,1*%
%TO.N,+3.3V*%
X175161000Y-88765000D03*
%TO.P,C207,2*%
%TO.N,GND*%
X175161000Y-87265000D03*
%TD*%
D71*
%TO.P,L601,1*%
%TO.N,Net-(D604-K)*%
X93455000Y-83744000D03*
%TO.P,L601,2*%
%TO.N,+5V_TOP*%
X87455000Y-83744000D03*
%TD*%
D46*
%TO.P,R601,1*%
%TO.N,Net-(Q604-G)*%
X97806000Y-114594600D03*
%TO.P,R601,2*%
%TO.N,Vbatt*%
X96306000Y-114594600D03*
%TD*%
D43*
%TO.P,R340,1*%
%TO.N,/Sub-PSU-V4_0/VSAMP_SUB*%
X122175999Y-116029000D03*
%TO.P,R340,2*%
%TO.N,GND*%
X122175999Y-117529000D03*
%TD*%
D42*
%TO.P,C305,1*%
%TO.N,Net-(J303-Pin_2)*%
X156644400Y-85296400D03*
%TO.P,C305,2*%
%TO.N,GND*%
X156644400Y-83796400D03*
%TD*%
D43*
%TO.P,R342,1*%
%TO.N,/Sub-PSU-V4_0/VSAMP_SUB*%
X120678001Y-116029000D03*
%TO.P,R342,2*%
%TO.N,GND*%
X120678001Y-117529000D03*
%TD*%
D44*
%TO.P,R304,1*%
%TO.N,Net-(D304-A)*%
X154345000Y-107000000D03*
%TO.P,R304,2*%
%TO.N,Net-(J302-Pin_2)*%
X155845000Y-107000000D03*
%TD*%
D42*
%TO.P,R206,1*%
%TO.N,+3.3V*%
X199367200Y-91925800D03*
%TO.P,R206,2*%
%TO.N,/Suv-CPU-V4.0/SCL_SUB*%
X199367200Y-90425800D03*
%TD*%
D46*
%TO.P,C507,1*%
%TO.N,+5V_TOP*%
X79484406Y-103320385D03*
%TO.P,C507,2*%
%TO.N,GND*%
X77984406Y-103320385D03*
%TD*%
D58*
%TO.P,C511,1*%
%TO.N,+3.3V_TOP*%
X64339000Y-111000000D03*
%TO.P,C511,2*%
%TO.N,GND*%
X67289000Y-111000000D03*
%TD*%
D46*
%TO.P,R201,1*%
%TO.N,+3.3V*%
X199863200Y-107228600D03*
%TO.P,R201,2*%
%TO.N,EN_SUB*%
X198363200Y-107228600D03*
%TD*%
D44*
%TO.P,R615,1*%
%TO.N,+5V_TOP*%
X96436000Y-84760000D03*
%TO.P,R615,2*%
%TO.N,Net-(U602-FB)*%
X97936000Y-84760000D03*
%TD*%
%TO.P,C310,1*%
%TO.N,/Sub-PSU-V4_0/buck_sw*%
X160441000Y-108651000D03*
%TO.P,C310,2*%
%TO.N,Net-(U303-BOOT)*%
X161941000Y-108651000D03*
%TD*%
D46*
%TO.P,R617,1*%
%TO.N,/Top-CPU-V4.0/VSAMP_TOP*%
X93081600Y-116779000D03*
%TO.P,R617,2*%
%TO.N,GND*%
X91581600Y-116779000D03*
%TD*%
%TO.P,R610,1*%
%TO.N,GND*%
X76724000Y-87681000D03*
%TO.P,R610,2*%
%TO.N,/Top-CPU-V4.0/TX_TOP*%
X75224000Y-87681000D03*
%TD*%
D44*
%TO.P,R502,1*%
%TO.N,+3.3V_TOP*%
X37886000Y-87554000D03*
%TO.P,R502,2*%
%TO.N,EN_TOP*%
X39386000Y-87554000D03*
%TD*%
D81*
%TO.P,C615,1*%
%TO.N,+5V_TOP*%
X88677000Y-87984000D03*
%TO.P,C615,2*%
%TO.N,GND*%
X88677000Y-90934000D03*
%TD*%
D46*
%TO.P,R207,1*%
%TO.N,Net-(Q201-G)*%
X179594000Y-107635000D03*
%TO.P,R207,2*%
%TO.N,BUZZER_SUB*%
X178094000Y-107635000D03*
%TD*%
D42*
%TO.P,C201,1*%
%TO.N,+5V*%
X157381000Y-92637000D03*
%TO.P,C201,2*%
%TO.N,GND*%
X157381000Y-91137000D03*
%TD*%
D46*
%TO.P,C619,1*%
%TO.N,/Top-CPU-V4.0/VSAMP_TOP*%
X44415200Y-117337800D03*
%TO.P,C619,2*%
%TO.N,GND*%
X42915200Y-117337800D03*
%TD*%
D78*
%TO.P,J401,1,Pin_1_1*%
%TO.N,GND*%
X212750000Y-89015000D03*
D79*
%TO.P,J401,2,Pin_2_2*%
%TO.N,+3.3V*%
X215250000Y-89015000D03*
%TO.P,J401,3,Pin_3_3*%
%TO.N,/Suv-CPU-V4.0/SCL_SUB*%
X217750000Y-89015000D03*
%TO.P,J401,4,Pin_4_4*%
%TO.N,/Suv-CPU-V4.0/SDA_SUB*%
X220250000Y-89015000D03*
%TD*%
D78*
%TO.P,J504,1,Pin_1_1*%
%TO.N,+5V_TOP*%
X64584000Y-83219000D03*
D79*
%TO.P,J504,2,Pin_2_2*%
%TO.N,Net-(J504-Pin_2)*%
X67084000Y-83219000D03*
%TO.P,J504,3,Pin_3_3*%
%TO.N,GND*%
X69584000Y-83219000D03*
%TD*%
D42*
%TO.P,R618,1*%
%TO.N,Net-(Q604-D)*%
X94490600Y-118214800D03*
%TO.P,R618,2*%
%TO.N,/Top-CPU-V4.0/VSAMP_TOP*%
X94490600Y-116714800D03*
%TD*%
D82*
%TO.P,U601,1,GND_1*%
%TO.N,GND*%
X74323000Y-112686000D03*
D83*
%TO.P,U601,2,VO_2*%
%TO.N,+3.3V_TOP*%
X74323001Y-114986000D03*
D84*
X80371000Y-114986000D03*
D82*
%TO.P,U601,3,VI_3*%
%TO.N,+5V_TOP*%
X74323000Y-117286000D03*
%TD*%
D44*
%TO.P,R327,1*%
%TO.N,Net-(D302-A)*%
X120309000Y-83378000D03*
%TO.P,R327,2*%
%TO.N,+3.3V*%
X121809000Y-83378000D03*
%TD*%
D13*
%TO.P,Q602,1,B_1*%
%TO.N,Net-(Q602-B)*%
X75466000Y-83115999D03*
%TO.P,Q602,2,E_2*%
%TO.N,+3.3V_TOP*%
X75466000Y-81215999D03*
%TO.P,Q602,3,C_3*%
%TO.N,/Top-CPU-V4.0/RX_TOP*%
X73586001Y-82165999D03*
%TD*%
D43*
%TO.P,C510,1*%
%TO.N,GND*%
X46560800Y-111442000D03*
%TO.P,C510,2*%
%TO.N,BUTTON_TOP*%
X46560800Y-112942000D03*
%TD*%
D42*
%TO.P,R612,1*%
%TO.N,Net-(Q603-G)*%
X86540400Y-117833800D03*
%TO.P,R612,2*%
%TO.N,+3.3V_TOP*%
X86540400Y-116333800D03*
%TD*%
D67*
%TO.P,Q311,1,G_1*%
%TO.N,Net-(Q311-G)*%
X117056000Y-113555500D03*
%TO.P,Q311,2,S_2*%
%TO.N,Vbatt*%
X115156000Y-113555500D03*
%TO.P,Q311,3,D_3*%
%TO.N,Net-(Q311-D)*%
X116106000Y-115430501D03*
%TD*%
D46*
%TO.P,C509,1*%
%TO.N,+5V_TOP*%
X79484405Y-96208385D03*
%TO.P,C509,2*%
%TO.N,GND*%
X77984405Y-96208385D03*
%TD*%
D43*
%TO.P,C206,1*%
%TO.N,GND*%
X173764000Y-87265000D03*
%TO.P,C206,2*%
%TO.N,+3.3V*%
X173764000Y-88765000D03*
%TD*%
D40*
%TO.P,TP309,1,1_1*%
%TO.N,/Sub-PSU-V4_0/RX_SUB*%
X118265000Y-85410000D03*
%TD*%
D44*
%TO.P,C515,1*%
%TO.N,GND*%
X36870000Y-110668000D03*
%TO.P,C515,2*%
%TO.N,+3.3V_TOP*%
X38370000Y-110668000D03*
%TD*%
D47*
%TO.P,C607,1*%
%TO.N,+5V_TOP*%
X84152800Y-118304800D03*
%TO.P,C607,2*%
%TO.N,GND*%
X84152800Y-115354800D03*
%TD*%
D44*
%TO.P,C514,1*%
%TO.N,GND*%
X61254000Y-111684000D03*
%TO.P,C514,2*%
%TO.N,+3.3V_TOP*%
X62754000Y-111684000D03*
%TD*%
D85*
%TO.P,D604,1,K_1*%
%TO.N,Net-(D604-K)*%
X92106000Y-88601999D03*
%TO.P,D604,2,A_2*%
%TO.N,GND*%
X92106000Y-92602001D03*
%TD*%
D52*
%TO.P,C407,1*%
%TO.N,GND*%
X219230000Y-109268601D03*
%TO.P,C407,2*%
%TO.N,Compass+1.8V*%
X219230000Y-110268599D03*
%TD*%
D44*
%TO.P,R608,1*%
%TO.N,Net-(D601-A)*%
X97579000Y-98857000D03*
%TO.P,R608,2*%
%TO.N,GND*%
X99079000Y-98857000D03*
%TD*%
%TO.P,R603,1*%
%TO.N,Net-(D601-K)*%
X97576000Y-101691400D03*
%TO.P,R603,2*%
%TO.N,Net-(R603-Pad2)*%
X99076000Y-101691400D03*
%TD*%
D53*
%TO.P,J303,1,Pin_1_1*%
%TO.N,Net-(J303-Pin_1)*%
X152000000Y-89015000D03*
D54*
%TO.P,J303,2,Pin_2_2*%
%TO.N,Net-(J303-Pin_2)*%
X152000000Y-86515000D03*
%TO.P,J303,3,Pin_3_3*%
%TO.N,GND*%
X152000000Y-84015000D03*
%TD*%
D46*
%TO.P,R311,1*%
%TO.N,Net-(R311-Pad1)*%
X169053000Y-116398000D03*
%TO.P,R311,2*%
%TO.N,Vbatt*%
X167553000Y-116398000D03*
%TD*%
%TO.P,C508,1*%
%TO.N,+5V_TOP*%
X79010000Y-110414000D03*
%TO.P,C508,2*%
%TO.N,GND*%
X77510000Y-110414000D03*
%TD*%
D85*
%TO.P,D308,1,K_1*%
%TO.N,/Sub-PSU-V4_0/buck_sw*%
X159286000Y-102205999D03*
%TO.P,D308,2,A_2*%
%TO.N,GND*%
X159286000Y-106206001D03*
%TD*%
D82*
%TO.P,U201,1,GND_1*%
%TO.N,GND*%
X159540000Y-87809000D03*
D83*
%TO.P,U201,2,VO_2*%
%TO.N,+3.3V*%
X159540001Y-90109000D03*
D84*
X165588000Y-90109000D03*
D82*
%TO.P,U201,3,VI_3*%
%TO.N,+5V*%
X159540000Y-92409000D03*
%TD*%
D44*
%TO.P,C204,1*%
%TO.N,EN_SUB*%
X198414000Y-108651000D03*
%TO.P,C204,2*%
%TO.N,GND*%
X199914000Y-108651000D03*
%TD*%
D42*
%TO.P,R312,1*%
%TO.N,Net-(D306-K)*%
X130584000Y-83747000D03*
%TO.P,R312,2*%
%TO.N,Net-(Q302-D)*%
X130584000Y-82247000D03*
%TD*%
D46*
%TO.P,C506,1*%
%TO.N,+3.3V_TOP*%
X38370000Y-113602000D03*
%TO.P,C506,2*%
%TO.N,GND*%
X36870000Y-113602000D03*
%TD*%
D44*
%TO.P,C213,1*%
%TO.N,SWITCH_SUB*%
X198287000Y-97348000D03*
%TO.P,C213,2*%
%TO.N,+3.3V*%
X199787000Y-97348000D03*
%TD*%
D67*
%TO.P,Q201,1,G_1*%
%TO.N,Net-(Q201-G)*%
X179921000Y-109364500D03*
%TO.P,Q201,2,S_2*%
%TO.N,GND*%
X178021000Y-109364500D03*
%TO.P,Q201,3,D_3*%
%TO.N,Net-(D205-A)*%
X178971000Y-111239501D03*
%TD*%
D42*
%TO.P,C205,1*%
%TO.N,+3.3V*%
X176558000Y-88765000D03*
%TO.P,C205,2*%
%TO.N,GND*%
X176558000Y-87265000D03*
%TD*%
D80*
%TO.P,R325,1*%
%TO.N,GND*%
X142500000Y-98872000D03*
%TO.P,R325,2*%
%TO.N,Net-(J306--)*%
X139500000Y-98872000D03*
%TD*%
D42*
%TO.P,D602,1,K_1*%
%TO.N,Net-(D602-K)*%
X78883000Y-82982000D03*
%TO.P,D602,2,A_2*%
%TO.N,Net-(D602-A)*%
X78883000Y-81482000D03*
%TD*%
D86*
%TO.P,JP102,1,A_1*%
%TO.N,COM*%
X103976000Y-101015000D03*
%TO.P,JP102,2,B_2*%
X107024000Y-101015000D03*
%TD*%
D46*
%TO.P,R329,1*%
%TO.N,Net-(U303-FB)*%
X164735000Y-99634000D03*
%TO.P,R329,2*%
%TO.N,GND*%
X163235000Y-99634000D03*
%TD*%
D42*
%TO.P,R326,1*%
%TO.N,Net-(U303-RT{slash}SYNC)*%
X167414000Y-104956000D03*
%TO.P,R326,2*%
%TO.N,GND*%
X167414000Y-103456000D03*
%TD*%
D59*
%TO.P,D306,1,K_1*%
%TO.N,Net-(D306-K)*%
X170462000Y-111733000D03*
%TO.P,D306,2,A_2*%
%TO.N,Net-(D306-A)*%
X170462000Y-109633000D03*
%TD*%
D44*
%TO.P,R614,1*%
%TO.N,Net-(Q603-D)*%
X94832800Y-112867400D03*
%TO.P,R614,2*%
%TO.N,Net-(Q604-G)*%
X96332800Y-112867400D03*
%TD*%
D42*
%TO.P,R309,1*%
%TO.N,Vbatt*%
X129187000Y-83747000D03*
%TO.P,R309,2*%
%TO.N,Net-(Q302-G)*%
X129187000Y-82247000D03*
%TD*%
D81*
%TO.P,C312,1*%
%TO.N,+5V*%
X152428000Y-100064000D03*
%TO.P,C312,2*%
%TO.N,GND*%
X152428000Y-103014000D03*
%TD*%
D87*
%TO.P,Q310,1,G_1*%
%TO.N,Net-(Q310-G)*%
X113390500Y-116591000D03*
%TO.P,Q310,2,S_2*%
%TO.N,GND*%
X113390500Y-118491000D03*
%TO.P,Q310,3,D_3*%
%TO.N,Net-(Q310-D)*%
X115265500Y-117541000D03*
%TD*%
D42*
%TO.P,R316,1*%
%TO.N,/Sub-PSU-V4_0/ESC_BB_PWR*%
X122583000Y-112322000D03*
%TO.P,R316,2*%
%TO.N,GND*%
X122583000Y-110822000D03*
%TD*%
%TO.P,R503,1*%
%TO.N,BUTTON_TOP*%
X45087600Y-112942000D03*
%TO.P,R503,2*%
%TO.N,GND*%
X45087600Y-111442000D03*
%TD*%
D50*
%TO.P,U305,1*%
%TO.N,/Sub-PSU-V4_0/Imon*%
X143979999Y-114371500D03*
%TO.P,U305,2,GND_2*%
%TO.N,GND*%
X143030000Y-114371500D03*
%TO.P,U305,3,+_3*%
%TO.N,Net-(J306--)*%
X142080001Y-114371500D03*
%TO.P,U305,4,-_4*%
%TO.N,GND*%
X142080001Y-116646500D03*
%TO.P,U305,5,REF_5*%
%TO.N,Net-(U305-REF)*%
X143030000Y-116646500D03*
%TO.P,U305,6,V+_6*%
%TO.N,+3.3V*%
X143979999Y-116646500D03*
%TD*%
D43*
%TO.P,R505,1*%
%TO.N,BUTTON_TOP*%
X45087600Y-114251000D03*
%TO.P,R505,2*%
%TO.N,Net-(J502-Pin_2)*%
X45087600Y-115751000D03*
%TD*%
D42*
%TO.P,R331,1*%
%TO.N,Net-(Q310-G)*%
X113058000Y-114989000D03*
%TO.P,R331,2*%
%TO.N,+3.3V*%
X113058000Y-113489000D03*
%TD*%
D88*
%TO.P,U502,1,GND_1*%
%TO.N,GND*%
X59000000Y-108000000D03*
%TO.P,U502,2,GND_2*%
X61000000Y-108000000D03*
%TO.P,U502,3,VDD_3*%
%TO.N,+3.3V_TOP*%
X63000000Y-108000000D03*
%TO.P,U502,4,~{RESET}_4*%
%TO.N,/Top-CPU-V4.0/RADIO_5*%
X65000000Y-108000000D03*
%TO.P,U502,5,DIO0_5*%
%TO.N,/Top-CPU-V4.0/RADIO_6*%
X67000000Y-108000000D03*
%TO.P,U502,6,DIO1_6*%
%TO.N,unconnected-(U502-DIO1-Pad6)*%
X69000000Y-108000000D03*
%TO.P,U502,7,DIO2_7*%
%TO.N,unconnected-(U502-DIO2-Pad7)*%
X71000000Y-108000000D03*
%TO.P,U502,8,DIO3_8*%
%TO.N,unconnected-(U502-DIO3-Pad8)*%
X73000000Y-108000000D03*
%TO.P,U502,9,GND_9*%
%TO.N,GND*%
X73000000Y-92000000D03*
%TO.P,U502,10,DIO4_10*%
%TO.N,unconnected-(U502-DIO4-Pad10)*%
X71000000Y-92000000D03*
%TO.P,U502,11,DIO5_11*%
%TO.N,unconnected-(U502-DIO5-Pad11)*%
X69000000Y-92000000D03*
%TO.P,U502,12,SCK_12*%
%TO.N,/Top-CPU-V4.0/RADIO_3*%
X67000000Y-92000000D03*
%TO.P,U502,13,MISO_13*%
%TO.N,/Top-CPU-V4.0/RADIO_2*%
X65000000Y-92000000D03*
%TO.P,U502,14,MOSI_14*%
%TO.N,/Top-CPU-V4.0/RADIO_1*%
X63000000Y-92000000D03*
%TO.P,U502,15,~{NSS}_15*%
%TO.N,/Top-CPU-V4.0/RADIO_4*%
X61000000Y-92000000D03*
%TO.P,U502,16,GND_16*%
%TO.N,GND*%
X59000000Y-92000000D03*
%TD*%
D43*
%TO.P,C210,1*%
%TO.N,+5V*%
X169141200Y-91238600D03*
%TO.P,C210,2*%
%TO.N,GND*%
X169141200Y-92738600D03*
%TD*%
D50*
%TO.P,U401,1,IN_1*%
%TO.N,+3.3V*%
X214591999Y-96083500D03*
%TO.P,U401,2,GND_2*%
%TO.N,GND*%
X213642000Y-96083500D03*
%TO.P,U401,3,EN_3*%
%TO.N,+3.3V*%
X212692001Y-96083500D03*
%TO.P,U401,4,NC_4*%
%TO.N,unconnected-(U401-NC-Pad4)*%
X212692001Y-98358500D03*
%TO.P,U401,5,OUT_5*%
%TO.N,Compass+1.8V*%
X214591999Y-98358500D03*
%TD*%
D44*
%TO.P,C516,1*%
%TO.N,GND*%
X61254000Y-110276600D03*
%TO.P,C516,2*%
%TO.N,+3.3V_TOP*%
X62754000Y-110276600D03*
%TD*%
D52*
%TO.P,C409,1*%
%TO.N,GND*%
X220373000Y-109268601D03*
%TO.P,C409,2*%
%TO.N,Compass+1.8V*%
X220373000Y-110268599D03*
%TD*%
D46*
%TO.P,C517,1*%
%TO.N,+3.3V_TOP*%
X62754000Y-114543800D03*
%TO.P,C517,2*%
%TO.N,GND*%
X61254000Y-114543800D03*
%TD*%
D40*
%TO.P,TP604,1,1_1*%
%TO.N,Net-(U602-FB)*%
X97665600Y-83236000D03*
%TD*%
D46*
%TO.P,R318,1*%
%TO.N,Net-(D306-A)*%
X168799000Y-110048000D03*
%TO.P,R318,2*%
%TO.N,Net-(R315-Pad2)*%
X167299000Y-110048000D03*
%TD*%
D58*
%TO.P,C503,1*%
%TO.N,+3.3V_TOP*%
X39955000Y-114986000D03*
%TO.P,C503,2*%
%TO.N,GND*%
X42905000Y-114986000D03*
%TD*%
D42*
%TO.P,R341,1*%
%TO.N,Net-(Q311-D)*%
X119154000Y-117529000D03*
%TO.P,R341,2*%
%TO.N,/Sub-PSU-V4_0/VSAMP_SUB*%
X119154000Y-116029000D03*
%TD*%
D46*
%TO.P,C505,1*%
%TO.N,+3.3V_TOP*%
X38370000Y-114986000D03*
%TO.P,C505,2*%
%TO.N,GND*%
X36870000Y-114986000D03*
%TD*%
D11*
%TO.P,D302,1,K_1*%
%TO.N,Net-(D302-K)*%
X116969500Y-83378000D03*
%TO.P,D302,2,A_2*%
%TO.N,Net-(D302-A)*%
X118544500Y-83378000D03*
%TD*%
D43*
%TO.P,C319,1*%
%TO.N,GND*%
X145570000Y-114759000D03*
%TO.P,C319,2*%
%TO.N,+3.3V*%
X145570000Y-116259000D03*
%TD*%
D86*
%TO.P,JP104,1,A_1*%
%TO.N,Vbatt*%
X103976000Y-99015000D03*
%TO.P,JP104,2,B_2*%
X107024000Y-99015000D03*
%TD*%
D42*
%TO.P,C316,1*%
%TO.N,Net-(U305-REF)*%
X139067600Y-118291000D03*
%TO.P,C316,2*%
%TO.N,GND*%
X139067600Y-116791000D03*
%TD*%
D68*
%TO.P,D203,1,VDD_1*%
%TO.N,+5V*%
X171060000Y-97746000D03*
%TO.P,D203,2,DOUT_2*%
%TO.N,Net-(D203-DOUT)*%
X171060000Y-101046000D03*
%TO.P,D203,3,VSS_3*%
%TO.N,GND*%
X175960000Y-101046000D03*
%TO.P,D203,4,DIN_4*%
%TO.N,Net-(D202-DOUT)*%
X175960000Y-97746000D03*
%TD*%
D40*
%TO.P,TP302,1,1_1*%
%TO.N,Net-(J303-Pin_1)*%
X148110000Y-88966000D03*
%TD*%
D53*
%TO.P,J302,1,Pin_1_1*%
%TO.N,Net-(J302-Pin_1)*%
X152000000Y-116015000D03*
D54*
%TO.P,J302,2,Pin_2_2*%
%TO.N,Net-(J302-Pin_2)*%
X152000000Y-113515000D03*
%TO.P,J302,3,Pin_3_3*%
%TO.N,GND*%
X152000000Y-111015000D03*
%TD*%
D61*
%TO.P,C603,1*%
%TO.N,GND*%
X84375000Y-90602001D03*
%TO.P,C603,2*%
%TO.N,+5V_TOP*%
X86375000Y-90602001D03*
%TD*%
D62*
%TO.P,C203,1*%
%TO.N,+3.3V*%
X165079000Y-84775000D03*
%TO.P,C203,2*%
%TO.N,GND*%
X162129000Y-84775000D03*
%TD*%
D42*
%TO.P,C208,1*%
%TO.N,+3.3V*%
X172367000Y-88765000D03*
%TO.P,C208,2*%
%TO.N,GND*%
X172367000Y-87265000D03*
%TD*%
D40*
%TO.P,TP303,1,1_1*%
%TO.N,Net-(J302-Pin_2)*%
X148110000Y-110175000D03*
%TD*%
%TO.P,TP603,1,1_1*%
%TO.N,Vbatt*%
X102517000Y-98999000D03*
%TD*%
D61*
%TO.P,C405,1*%
%TO.N,GND*%
X212642000Y-94173000D03*
%TO.P,C405,2*%
%TO.N,+3.3V*%
X214642000Y-94173000D03*
%TD*%
D46*
%TO.P,C618,1*%
%TO.N,+5V_TOP*%
X86350600Y-87681000D03*
%TO.P,C618,2*%
%TO.N,GND*%
X84850600Y-87681000D03*
%TD*%
D78*
%TO.P,J503,1,Pin_1_1*%
%TO.N,/Top-CPU-V4.0/TX_GPS*%
X50908000Y-83236000D03*
D79*
%TO.P,J503,2,Pin_2_2*%
%TO.N,/Top-CPU-V4.0/RX_GPS*%
X53408000Y-83236000D03*
%TO.P,J503,3,Pin_3_3*%
%TO.N,+5V_TOP*%
X55908000Y-83236000D03*
%TO.P,J503,4,Pin_4_4*%
%TO.N,GND*%
X58408000Y-83236000D03*
%TD*%
D46*
%TO.P,R507,1*%
%TO.N,Net-(Q502-G)*%
X86122000Y-96444000D03*
%TO.P,R507,2*%
%TO.N,BUZZER_TOP*%
X84622000Y-96444000D03*
%TD*%
D40*
%TO.P,TP310,1,1_1*%
%TO.N,/Sub-PSU-V4_0/TX_SUB*%
X116741000Y-85410000D03*
%TD*%
D46*
%TO.P,R202,1*%
%TO.N,+3.3V*%
X166005000Y-81981000D03*
%TO.P,R202,2*%
%TO.N,Net-(D201-A)*%
X164505000Y-81981000D03*
%TD*%
D89*
%TO.P,D311,1,K_1*%
%TO.N,COM*%
X113151000Y-83378000D03*
%TO.P,D311,2,A_2*%
%TO.N,Net-(D302-K)*%
X115251000Y-83378000D03*
%TD*%
D41*
%TO.P,D606,1,K_1*%
%TO.N,COM*%
X83170800Y-81701600D03*
%TO.P,D606,2,A_2*%
%TO.N,Net-(D602-K)*%
X81070800Y-81701600D03*
%TD*%
D76*
%TO.P,TP505,1,1_1*%
%TO.N,Net-(D502-DIN)*%
X74500800Y-110378200D03*
%TD*%
D42*
%TO.P,R611,1*%
%TO.N,Net-(U602-RT{slash}SYNC)*%
X100107000Y-91491000D03*
%TO.P,R611,2*%
%TO.N,GND*%
X100107000Y-89991000D03*
%TD*%
D90*
%TO.P,J601,1,Pin_1_1*%
%TO.N,Vbatt*%
X101247000Y-105588000D03*
D54*
%TO.P,J601,2,Pin_2_2*%
%TO.N,COM*%
X101247000Y-108088000D03*
%TO.P,J601,3,Pin_3_3*%
%TO.N,GND*%
X101247000Y-110588000D03*
%TD*%
D68*
%TO.P,D202,1,VDD_1*%
%TO.N,+5V*%
X171059874Y-91122437D03*
%TO.P,D202,2,DOUT_2*%
%TO.N,Net-(D202-DOUT)*%
X171059874Y-94422437D03*
%TO.P,D202,3,VSS_3*%
%TO.N,GND*%
X175959874Y-94422437D03*
%TO.P,D202,4,DIN_4*%
%TO.N,Net-(D202-DIN)*%
X175959874Y-91122437D03*
%TD*%
D64*
%TO.P,R406,1*%
%TO.N,Compass+1.8V*%
X217333001Y-98872000D03*
%TO.P,R406,2*%
%TO.N,SCL_LV*%
X218332999Y-98872000D03*
%TD*%
D42*
%TO.P,C202,1*%
%TO.N,+3.3V*%
X157381000Y-89589000D03*
%TO.P,C202,2*%
%TO.N,GND*%
X157381000Y-88089000D03*
%TD*%
D91*
%TO.N,GND*%
X60988000Y-106263400D03*
D92*
%TO.N,/Top-CPU-V4.0/RADIO_4*%
X59464000Y-95189000D03*
%TO.N,/Top-CPU-V4.0/RADIO_3*%
X60480000Y-96459000D03*
%TO.N,/Top-CPU-V4.0/RADIO_2*%
X63528000Y-95443000D03*
%TO.N,/Top-CPU-V4.0/RADIO_5*%
X56924000Y-104445000D03*
%TO.N,/Top-CPU-V4.0/RADIO_6*%
X53622000Y-96459000D03*
D93*
%TO.N,GND*%
X72164000Y-102301000D03*
X70640000Y-100015000D03*
X69370000Y-102301000D03*
%TO.N,+3.3V_TOP*%
X63528000Y-105857000D03*
D91*
%TO.N,/Top-CPU-V4.0/ON_TOP*%
X46764000Y-107127000D03*
%TO.N,LEDS_TOP*%
X56416000Y-110175000D03*
%TO.N,GND*%
X59000000Y-90363000D03*
%TO.N,/Top-CPU-V4.0/RADIO_2*%
X63528000Y-89347000D03*
D92*
%TO.N,COM*%
X109857600Y-86654600D03*
X102542400Y-101031000D03*
X102593200Y-96865400D03*
D94*
%TO.N,Vbatt*%
X143500000Y-110515000D03*
X161000000Y-112515000D03*
X155861200Y-110153800D03*
D93*
X164000000Y-115015000D03*
D94*
X140000000Y-114015000D03*
D91*
X164010400Y-112511800D03*
X164061200Y-113781800D03*
D94*
X136956600Y-117058400D03*
D92*
X90858400Y-98033800D03*
X95278000Y-97424200D03*
D94*
X150500000Y-107939800D03*
D92*
%TO.N,Net-(D601-A)*%
X97005200Y-98237000D03*
X93398400Y-98643400D03*
%TO.N,GND*%
X168259000Y-82152000D03*
D94*
X76748700Y-111991100D03*
X111000000Y-113015000D03*
X151183400Y-98719600D03*
D91*
X37670800Y-92852200D03*
D94*
X185500000Y-112815000D03*
X86388000Y-106619000D03*
D92*
X186587674Y-95013485D03*
X218849000Y-111673600D03*
D91*
X155323600Y-104180600D03*
X159794000Y-110581400D03*
D94*
X196500000Y-109515000D03*
X202669200Y-99989600D03*
X36500000Y-96515000D03*
D92*
X172494000Y-85029000D03*
D94*
X36500000Y-84515000D03*
D92*
X83492400Y-98287800D03*
X194693600Y-87721400D03*
D94*
X49000000Y-96015000D03*
D91*
X72265600Y-112003800D03*
D94*
X87505600Y-92217200D03*
X155000000Y-113515000D03*
X207000000Y-103015000D03*
X38000000Y-118515000D03*
X36870000Y-111419600D03*
X180000000Y-86515000D03*
D92*
X191500000Y-99015000D03*
X160962400Y-87809000D03*
D94*
X207000000Y-106015000D03*
X103500000Y-119015000D03*
X44000000Y-106515000D03*
X107024000Y-100015000D03*
X201500000Y-97515000D03*
D91*
X69878000Y-112969000D03*
D92*
X77297998Y-87107001D03*
D94*
X36500000Y-105515000D03*
X104000000Y-96015000D03*
X41000000Y-101015000D03*
X202500000Y-87515000D03*
X93423800Y-96698000D03*
X191500000Y-86515000D03*
X63563092Y-86005000D03*
D91*
X37772400Y-107228600D03*
X152834400Y-104180600D03*
X83594000Y-114086600D03*
D94*
X61254000Y-113832600D03*
X71000000Y-86015000D03*
X52500000Y-103515000D03*
D91*
X41734800Y-111648200D03*
D94*
X61254000Y-112410200D03*
X94500000Y-114515000D03*
D92*
X168684000Y-80711000D03*
X120000000Y-90015000D03*
D94*
X65000000Y-81015000D03*
X101500000Y-86015000D03*
D91*
X159032000Y-104688600D03*
D94*
X175500000Y-114015000D03*
X184457400Y-97170200D03*
X104000000Y-103015000D03*
D92*
X186500000Y-110015000D03*
D94*
X100000000Y-84015000D03*
X101000000Y-96015000D03*
X100500000Y-87515000D03*
D92*
X145000000Y-88515000D03*
D94*
X112500000Y-110515000D03*
X181000000Y-86515000D03*
X36870000Y-114264400D03*
X151208800Y-105526800D03*
D92*
X116614000Y-80965000D03*
D94*
X108500000Y-109515000D03*
D91*
X41734800Y-114950200D03*
D92*
X166488000Y-106212600D03*
X189500000Y-89515000D03*
D91*
X74348400Y-91988600D03*
X36870000Y-116106600D03*
D94*
X188500000Y-86515000D03*
X36617088Y-86499176D03*
X55000000Y-118515000D03*
X99500000Y-114515000D03*
X103500000Y-86515000D03*
X185000000Y-89515000D03*
D92*
X130838000Y-80457000D03*
D94*
X100000000Y-80515000D03*
D93*
X47170400Y-102910600D03*
D94*
X195500000Y-86515000D03*
X104000000Y-85015000D03*
X36500000Y-99515000D03*
X39000000Y-84515000D03*
X194000000Y-116015000D03*
X188673800Y-92852200D03*
X106500000Y-80515000D03*
X107080000Y-103435000D03*
X71561711Y-81509197D03*
X48500000Y-106515000D03*
X189500000Y-100015000D03*
X37162800Y-109819400D03*
D92*
X165890000Y-109032000D03*
D94*
X173500000Y-101515000D03*
X91164557Y-104009725D03*
D91*
X59057600Y-93665000D03*
D92*
X177447187Y-101767787D03*
X160556000Y-80457000D03*
X113362800Y-117591800D03*
X182288000Y-103203733D03*
D94*
X47565916Y-86005000D03*
X51500000Y-98015000D03*
X191000000Y-103515000D03*
D92*
X91581600Y-115813800D03*
D94*
X51500000Y-105491000D03*
D92*
X145000000Y-84015000D03*
X123218000Y-80711000D03*
X185500000Y-108515000D03*
D94*
X36870000Y-112892800D03*
X206000000Y-89515000D03*
D92*
X73434000Y-87162600D03*
D94*
X36500000Y-81015000D03*
X56000000Y-91015000D03*
D92*
X175843171Y-93719429D03*
D94*
X201500000Y-86515000D03*
X185500000Y-118015000D03*
X111000000Y-89515000D03*
D91*
X71097200Y-116423400D03*
X145697000Y-94884200D03*
D94*
X201000000Y-101015000D03*
X205666400Y-101031000D03*
X36500000Y-100515000D03*
X130500000Y-116015000D03*
D92*
X219792272Y-109661793D03*
D94*
X206500000Y-87015000D03*
D92*
X197487600Y-87670600D03*
D94*
X61000000Y-83015000D03*
X103536922Y-113493903D03*
X41000000Y-104515000D03*
X112000000Y-82015000D03*
X44000000Y-93515000D03*
D92*
X180114000Y-87670600D03*
X188000000Y-89015000D03*
D94*
X182500000Y-86515000D03*
D92*
X213642000Y-95173000D03*
D94*
X206500000Y-119515000D03*
D92*
X171732000Y-80965000D03*
D94*
X84879000Y-89804200D03*
D91*
X154053600Y-104180600D03*
D94*
X45297114Y-105616618D03*
X36500000Y-103515000D03*
D92*
X165791000Y-112461000D03*
D94*
X172000000Y-105515000D03*
X37500000Y-101015000D03*
D93*
X43030200Y-102910600D03*
D94*
X103976000Y-100015000D03*
X37500000Y-117515000D03*
X200000000Y-112015000D03*
X71500000Y-84515000D03*
X90833000Y-91509001D03*
X77000000Y-118515000D03*
X36500000Y-95515000D03*
D91*
X156441200Y-104383800D03*
D92*
X150192800Y-93055400D03*
D94*
X175796000Y-87265000D03*
X109500000Y-97515000D03*
X160886200Y-83378000D03*
X37000000Y-83015000D03*
X68000000Y-118015000D03*
D92*
X193000000Y-89515000D03*
X158320800Y-91226600D03*
D94*
X40000000Y-81515000D03*
X154500000Y-105515000D03*
D92*
X162128999Y-86603800D03*
D91*
X159387600Y-109565400D03*
D94*
X49500000Y-100515000D03*
D92*
X150000000Y-85515000D03*
D94*
X116000000Y-90015000D03*
X36731000Y-118176000D03*
X42000000Y-106015000D03*
D91*
X73027600Y-93715800D03*
D92*
X199926000Y-109463800D03*
D94*
X176000000Y-105515000D03*
X104000000Y-110015000D03*
X117785955Y-103800955D03*
X186500000Y-103515000D03*
X42500000Y-86515000D03*
D91*
X66093400Y-114224000D03*
D94*
X39500000Y-119015000D03*
D92*
X184435917Y-102499178D03*
D94*
X201000000Y-114515000D03*
D92*
X172240000Y-83505000D03*
D94*
X51844000Y-101285000D03*
X191500000Y-113015000D03*
X94078200Y-100821800D03*
X36500000Y-102515000D03*
X91725000Y-94325400D03*
X131000000Y-105515000D03*
X107000000Y-88515000D03*
D92*
X191553269Y-95996013D03*
D94*
X176000000Y-110015000D03*
X36500000Y-107515000D03*
X153000000Y-105515000D03*
X36500000Y-104515000D03*
D91*
X154256800Y-102910600D03*
D94*
X36500000Y-106515000D03*
D92*
X169293600Y-104028200D03*
D94*
X107000000Y-113015000D03*
D91*
X213592000Y-100269000D03*
D94*
X136500000Y-93623831D03*
X47000000Y-84015000D03*
D92*
X183500000Y-87515000D03*
X170943899Y-84942304D03*
X76197028Y-104109972D03*
D94*
X61254000Y-111013200D03*
X37000000Y-119015000D03*
X61000000Y-118515000D03*
D92*
X113500000Y-90015000D03*
D94*
X186500000Y-99015000D03*
D92*
X167500000Y-95515000D03*
X54028400Y-105704600D03*
D94*
X205500000Y-112515000D03*
X86000000Y-112515000D03*
X184000000Y-86515000D03*
X101374000Y-93919000D03*
D91*
X66068000Y-110987800D03*
D94*
X133000000Y-105515000D03*
X103304400Y-89515000D03*
X99087554Y-118021330D03*
D91*
X145697000Y-105857000D03*
D94*
X36500000Y-98515000D03*
D91*
X57533600Y-91887000D03*
D94*
X188775400Y-97221000D03*
D93*
X42979400Y-98795800D03*
D94*
X36500000Y-97515000D03*
X41500000Y-119515000D03*
D92*
X46560800Y-110581400D03*
D94*
X185500000Y-86515000D03*
X60000000Y-86015000D03*
X202500000Y-102515000D03*
X106860400Y-94122200D03*
X193500000Y-86515000D03*
X84771400Y-92030400D03*
X90500000Y-111515000D03*
X173002000Y-87265000D03*
D91*
X157254000Y-105095000D03*
D92*
X41836400Y-117337800D03*
D94*
X155914216Y-82296405D03*
X197500000Y-86515000D03*
X42905000Y-113299200D03*
X87000000Y-111015000D03*
D92*
X175948400Y-106720600D03*
X158168400Y-87809000D03*
D94*
X157500000Y-97015000D03*
X170000000Y-108515000D03*
X46500000Y-81515000D03*
D92*
X138000000Y-83015000D03*
D94*
X119285955Y-102300955D03*
D91*
X145697000Y-102504200D03*
D92*
X134500000Y-82515000D03*
D94*
X99000000Y-104015000D03*
X104000000Y-80515000D03*
D92*
X177320000Y-87668485D03*
D94*
X101000002Y-98467530D03*
D92*
X149000000Y-82515000D03*
X132006400Y-84394000D03*
D94*
X171500000Y-112015000D03*
D92*
X113616800Y-85486200D03*
D94*
X61089600Y-109514600D03*
D92*
X217452000Y-102682000D03*
D94*
X187000000Y-86515000D03*
X190000000Y-86515000D03*
D91*
X159235200Y-108498600D03*
D94*
X104000000Y-108015000D03*
X200000000Y-89015000D03*
D92*
X76278800Y-97017800D03*
D94*
X122000000Y-114015000D03*
X99000000Y-107015000D03*
X47000000Y-93515000D03*
X36494217Y-101509217D03*
D91*
X59006800Y-106365000D03*
X145697000Y-97881400D03*
D94*
X40500000Y-86515000D03*
X87048400Y-93868200D03*
X194000000Y-119015000D03*
X198500000Y-87668485D03*
D92*
X189500000Y-88015000D03*
D93*
X56873200Y-105730000D03*
D92*
X182500000Y-89015000D03*
X61242000Y-115559800D03*
D91*
X76228000Y-92141000D03*
D94*
X106500000Y-119515000D03*
X52500000Y-96015000D03*
D92*
X150650000Y-80457000D03*
X220373000Y-102682000D03*
D94*
X90227849Y-108888417D03*
X109000000Y-102515000D03*
D92*
X119204800Y-88483400D03*
D94*
X201450000Y-94376200D03*
D91*
X45088000Y-100860000D03*
X145697000Y-100015000D03*
D92*
X132000000Y-82515000D03*
D94*
X96921415Y-110996013D03*
X157500000Y-107515000D03*
D93*
X47145000Y-98821200D03*
D94*
X84879000Y-88407200D03*
D91*
X58199513Y-109400000D03*
D94*
X184406600Y-92801400D03*
X188500000Y-98515000D03*
D92*
X119458800Y-110632200D03*
D94*
X45500000Y-86515000D03*
X88500000Y-103515000D03*
X43500000Y-96515000D03*
X199500000Y-86515000D03*
D92*
X124659613Y-117407813D03*
D94*
X201500000Y-109515000D03*
D92*
%TO.N,Net-(D604-K)*%
X93503000Y-94158000D03*
X93503000Y-88697000D03*
%TO.N,+3.3V_TOP*%
X70690800Y-93868200D03*
X70690800Y-113578600D03*
X74196000Y-83860600D03*
X83136800Y-117134600D03*
X68100000Y-96713000D03*
X80371000Y-117162800D03*
D91*
%TO.N,+5V_TOP*%
X85575200Y-91125000D03*
X81155600Y-93106200D03*
D92*
%TO.N,+3.3V*%
X217058000Y-95316000D03*
X218976000Y-95316000D03*
D94*
X156085600Y-89956600D03*
X122608400Y-86629200D03*
D92*
X211737000Y-98999000D03*
D94*
X150345200Y-101691400D03*
%TO.N,/Sub-PSU-V4_0/ESC_SB_PWR*%
X193508400Y-101437400D03*
X142522000Y-86502200D03*
D92*
%TO.N,SCL_LV*%
X215420000Y-101666000D03*
X217198000Y-101666000D03*
%TO.N,SDA_LV*%
X217833000Y-100396000D03*
X214658000Y-101793000D03*
%TO.N,/Top-CPU-V4.0/VSAMP_TOP*%
X45363000Y-117337800D03*
X45363000Y-110378200D03*
X45392400Y-119268202D03*
%TO.N,/Sub-PSU-V4_0/RX_SUB*%
X193358444Y-94528600D03*
X121236800Y-86705400D03*
%TO.N,Net-(D601-K)*%
X94770000Y-102961400D03*
X96598800Y-102961400D03*
D94*
%TO.N,/Suv-CPU-V4.0/SDA_SUB*%
X206936400Y-93360200D03*
%TO.N,TX_SUB_PROG*%
X196878000Y-105653800D03*
D92*
%TO.N,/Sub-PSU-V4_0/buck_sw*%
X160683000Y-102809000D03*
X160810000Y-107762000D03*
D94*
%TO.N,/Sub-PSU-V4_0/ON_SUB*%
X173306800Y-97983000D03*
X169293600Y-96459000D03*
%TO.N,SWITCH_SUB*%
X194287200Y-100370600D03*
%TO.N,/Sub-PSU-V4_0/ESC_SB*%
X181282400Y-92699800D03*
X156720600Y-82565200D03*
D92*
%TO.N,EN_TOP*%
X38737600Y-89093000D03*
X38890000Y-93411000D03*
D94*
%TO.N,/Sub-PSU-V4_0/ESC_BB*%
X173662400Y-107889000D03*
X177050470Y-98581798D03*
D92*
%TO.N,/Top-CPU-V4.0/RX_TOP*%
X72164000Y-88483400D03*
X45900400Y-88585000D03*
D91*
%TO.N,DR0_TOP*%
X53876000Y-85130600D03*
D94*
%TO.N,/Sub-PSU-V4_0/ESC_BB_PWR*%
X130025200Y-117896600D03*
X180571200Y-99507000D03*
D92*
%TO.N,LEDS_TOP*%
X69624000Y-110175000D03*
D94*
%TO.N,/Sub-PSU-V4_0/VSAMP_SUB*%
X180317200Y-95341400D03*
X128856800Y-117693400D03*
D92*
%TO.N,/Top-CPU-V4.0/RADIO_2*%
X47018000Y-89194600D03*
%TO.N,Net-(D306-K)*%
X152123200Y-94223800D03*
D94*
%TO.N,/Sub-PSU-V4_0/TX_SUB*%
X116741000Y-85410000D03*
D92*
X194009934Y-94071400D03*
%TO.N,/Top-CPU-V4.0/TX_TOP*%
X40312400Y-87873800D03*
X73027600Y-87873800D03*
D94*
%TO.N,/Sub-PSU-V4_0/Imon*%
X180368000Y-94274600D03*
X150548400Y-94985800D03*
D92*
%TO.N,/Top-CPU-V4.0/RADIO_1*%
X63020000Y-94427000D03*
X53368000Y-94427000D03*
%TO.N,BUZZER_TOP*%
X52961600Y-89905800D03*
X83441600Y-96255800D03*
%TO.N,/Top-CPU-V4.0/ON_TOP*%
X87150000Y-102809000D03*
%TD*%
%TO.N,+3.3V_TOP*%
D95*
X68100000Y-96459000D02*
X68100000Y-96713000D01*
X70690800Y-93868200D02*
X68100000Y-96459000D01*
%TO.N,/Top-CPU-V4.0/RX_TOP*%
X44093000Y-90392400D02*
X45900400Y-88585000D01*
X44093000Y-91250000D02*
X44093000Y-90392400D01*
%TO.N,GND*%
D96*
X59000000Y-92000000D02*
X59000000Y-90363000D01*
%TO.N,/Top-CPU-V4.0/RADIO_1*%
D95*
X63000000Y-92000000D02*
X63000000Y-94407000D01*
X63000000Y-94407000D02*
X63020000Y-94427000D01*
X39013000Y-92264000D02*
X41176000Y-94427000D01*
X39013000Y-91250000D02*
X39013000Y-92264000D01*
X41176000Y-94427000D02*
X53368000Y-94427000D01*
%TO.N,EN_TOP*%
X40283000Y-94804000D02*
X38890000Y-93411000D01*
X40283000Y-108750000D02*
X40283000Y-94804000D01*
%TO.N,/Top-CPU-V4.0/RADIO_4*%
X59464000Y-95189000D02*
X59464000Y-94376200D01*
X59464000Y-94376200D02*
X60327600Y-94376200D01*
%TO.N,/Top-CPU-V4.0/RADIO_2*%
X65000000Y-93971000D02*
X65000000Y-92000000D01*
X63528000Y-95443000D02*
X65000000Y-93971000D01*
%TO.N,/Top-CPU-V4.0/RADIO_3*%
X67033200Y-92033200D02*
X67000000Y-92000000D01*
X67033200Y-94274600D02*
X67033200Y-92033200D01*
X59616400Y-96459000D02*
X64848800Y-96459000D01*
X56517600Y-93360200D02*
X59616400Y-96459000D01*
X47903000Y-91857600D02*
X49405600Y-93360200D01*
X49405600Y-93360200D02*
X56517600Y-93360200D01*
X64848800Y-96459000D02*
X67033200Y-94274600D01*
X47903000Y-91250000D02*
X47903000Y-91857600D01*
%TO.N,/Top-CPU-V4.0/RADIO_6*%
X54526000Y-95555000D02*
X53622000Y-96459000D01*
X55503000Y-95555000D02*
X54526000Y-95555000D01*
%TO.N,+3.3V_TOP*%
D97*
X63000000Y-106385000D02*
X63528000Y-105857000D01*
X63000000Y-108000000D02*
X63000000Y-106385000D01*
%TO.N,/Top-CPU-V4.0/ON_TOP*%
D95*
X46633000Y-107889000D02*
X46633000Y-107258000D01*
X46633000Y-107258000D02*
X46764000Y-107127000D01*
%TO.N,LEDS_TOP*%
D98*
X50443000Y-109790000D02*
X50443000Y-108750000D01*
X50828000Y-110175000D02*
X50443000Y-109790000D01*
X56416000Y-110175000D02*
X50828000Y-110175000D01*
%TO.N,GND*%
D97*
X58552129Y-109752616D02*
X58199513Y-109400000D01*
X59000000Y-109600000D02*
X58847384Y-109752616D01*
X58847384Y-109752616D02*
X58552129Y-109752616D01*
X59000000Y-108000000D02*
X59000000Y-109600000D01*
%TO.N,/Top-CPU-V4.0/ON_TOP*%
D95*
X89309000Y-100889000D02*
X89070000Y-100889000D01*
X89070000Y-100889000D02*
X87150000Y-102809000D01*
X46633000Y-108750000D02*
X46633000Y-107889000D01*
%TO.N,/Top-CPU-V4.0/RADIO_2*%
D98*
X65000000Y-90819000D02*
X63528000Y-89347000D01*
X65000000Y-92000000D02*
X65000000Y-90819000D01*
%TO.N,COM*%
X113009499Y-86426000D02*
X113009499Y-83519501D01*
D95*
X107740000Y-101015000D02*
X108740000Y-100015000D01*
X108689200Y-100319800D02*
X107876400Y-101132600D01*
X103761600Y-101183400D02*
X103930000Y-101015000D01*
D96*
X108740000Y-100015000D02*
X113218000Y-100015000D01*
D98*
X124234000Y-83708200D02*
X124234000Y-83747000D01*
D95*
X84965600Y-81701600D02*
X83170800Y-81701600D01*
X107673200Y-100878600D02*
X108536800Y-100015000D01*
D98*
X122100400Y-81574600D02*
X124234000Y-83708200D01*
D95*
X111280000Y-86426000D02*
X110086200Y-86426000D01*
X97409000Y-108088000D02*
X96548000Y-107227000D01*
X107024000Y-101015000D02*
X107740000Y-101015000D01*
X82425600Y-81701600D02*
X83170800Y-81701600D01*
D96*
X103868000Y-101031000D02*
X103884000Y-101015000D01*
X103976000Y-101015000D02*
X107024000Y-101015000D01*
D95*
X103930000Y-101015000D02*
X103976000Y-101015000D01*
D98*
X111280000Y-86426000D02*
X113009499Y-86426000D01*
D95*
X107282800Y-101015000D02*
X107419200Y-100878600D01*
X103976000Y-101015000D02*
X103847200Y-101015000D01*
X102694800Y-100878600D02*
X102542400Y-101031000D01*
X103847200Y-101015000D02*
X103710800Y-100878600D01*
X102542400Y-101031000D02*
X102694800Y-101183400D01*
D98*
X113009499Y-83519501D02*
X113151000Y-83378000D01*
D95*
X102558400Y-101015000D02*
X102542400Y-101031000D01*
X107024000Y-101015000D02*
X107282800Y-101015000D01*
X102593200Y-96865400D02*
X102593200Y-88254552D01*
D96*
X103101200Y-106568200D02*
X101581400Y-108088000D01*
X102517000Y-101031000D02*
X102517000Y-103139200D01*
D95*
X97614800Y-80609400D02*
X86057800Y-80609400D01*
X110086200Y-86426000D02*
X109857600Y-86654600D01*
X102593200Y-88254552D02*
X98580000Y-84241352D01*
X98580000Y-81574600D02*
X97614800Y-80609400D01*
X107419200Y-100878600D02*
X107673200Y-100878600D01*
X103976000Y-101015000D02*
X102558400Y-101015000D01*
X103710800Y-100878600D02*
X102694800Y-100878600D01*
X118481600Y-100307800D02*
X118188800Y-100015000D01*
X107266800Y-101132600D02*
X107165200Y-101031000D01*
X80340501Y-86157000D02*
X80340501Y-83786699D01*
X86057800Y-80609400D02*
X84965600Y-81701600D01*
D98*
X114954400Y-81574600D02*
X122100400Y-81574600D01*
D95*
X101247000Y-108088000D02*
X97409000Y-108088000D01*
D96*
X103101200Y-103723400D02*
X103101200Y-106568200D01*
D95*
X119611200Y-100307800D02*
X118481600Y-100307800D01*
X107876400Y-101132600D02*
X107266800Y-101132600D01*
X98580000Y-84241352D02*
X98580000Y-81574600D01*
D98*
X113151000Y-83378000D02*
X114954400Y-81574600D01*
D96*
X101581400Y-108088000D02*
X101247000Y-108088000D01*
D95*
X102694800Y-101183400D02*
X103761600Y-101183400D01*
X80340501Y-83786699D02*
X82425600Y-81701600D01*
X118188800Y-100015000D02*
X113218000Y-100015000D01*
X108689200Y-100015000D02*
X108689200Y-100319800D01*
X108536800Y-100015000D02*
X108689200Y-100015000D01*
D96*
X102517000Y-103139200D02*
X103101200Y-103723400D01*
%TO.N,Net-(U602-BOOT)*%
D95*
X94646000Y-95035000D02*
X94507000Y-95174000D01*
X94646001Y-93139000D02*
X94646000Y-95035000D01*
%TO.N,Vbatt*%
D96*
X108956800Y-94515000D02*
X107116000Y-96355800D01*
D99*
X125129702Y-104587000D02*
X125129702Y-98370702D01*
D95*
X129683000Y-94681000D02*
X129683000Y-96132000D01*
D100*
X123091000Y-96332000D02*
X123091000Y-97306000D01*
X123333651Y-91209454D02*
X123091000Y-91452105D01*
D95*
X103745600Y-99015000D02*
X103609200Y-99151400D01*
D99*
X120300000Y-94515000D02*
X125800000Y-100015000D01*
D95*
X124592800Y-98807800D02*
X125800000Y-100015000D01*
X88547000Y-98476000D02*
X90416200Y-98476000D01*
D101*
X164000000Y-111714000D02*
X163791000Y-111505000D01*
X164378000Y-110048000D02*
X164378000Y-111445000D01*
D95*
X122081702Y-107635000D02*
X125129702Y-104587000D01*
D96*
X103868000Y-98999000D02*
X103884000Y-99015000D01*
D100*
X124064093Y-107754936D02*
X125800000Y-106019029D01*
D95*
X103976000Y-99015000D02*
X103745600Y-99015000D01*
X115156000Y-111899000D02*
X115356000Y-111699000D01*
D100*
X125129702Y-100685298D02*
X125800000Y-100015000D01*
D99*
X125800000Y-100015000D02*
X124234000Y-101581000D01*
D95*
X121428000Y-107635000D02*
X122081702Y-107635000D01*
D102*
X95904000Y-101233001D02*
X95740001Y-101397000D01*
D101*
X163362000Y-111076000D02*
X163731000Y-111445000D01*
D95*
X129683000Y-96132000D02*
X125800000Y-100015000D01*
D103*
X95916000Y-93139000D02*
X95916000Y-97424200D01*
X95916000Y-97424200D02*
X95916000Y-98016999D01*
D99*
X125800000Y-103916702D02*
X125129702Y-104587000D01*
X125800000Y-100015000D02*
X125800000Y-103916702D01*
D101*
X164000000Y-115015000D02*
X164000000Y-111714000D01*
D100*
X124064093Y-107754936D02*
X125692560Y-106126469D01*
D95*
X117274400Y-108701800D02*
X117223600Y-108701800D01*
D102*
X95904000Y-98095000D02*
X95903999Y-99492000D01*
D96*
X107116000Y-96355800D02*
X107116000Y-99015000D01*
D100*
X124064092Y-98279092D02*
X125800000Y-100015000D01*
D103*
X95740001Y-104919001D02*
X95740001Y-101397000D01*
D100*
X123333651Y-91544623D02*
X124962117Y-93173089D01*
D95*
X90416200Y-98476000D02*
X90858400Y-98033800D01*
D96*
X101247000Y-102986800D02*
X101247000Y-105588000D01*
D95*
X115356000Y-110569400D02*
X115356000Y-111699000D01*
D98*
X127724000Y-84942600D02*
X123333651Y-89332949D01*
D95*
X120982800Y-106568200D02*
X119408000Y-106568200D01*
X119611200Y-98807800D02*
X124592800Y-98807800D01*
D101*
X162920001Y-111953000D02*
X162920001Y-110211999D01*
D95*
X102644000Y-99100600D02*
X102644000Y-98846600D01*
D103*
X96548000Y-105727000D02*
X95740001Y-104919001D01*
D101*
X163362000Y-110048000D02*
X163223000Y-109909000D01*
D99*
X113218000Y-94515000D02*
X120300000Y-94515000D01*
D101*
X164378000Y-111445000D02*
X163731000Y-111445000D01*
D95*
X95582800Y-106692200D02*
X96548000Y-105727000D01*
D100*
X122800000Y-97015000D02*
X125800000Y-100015000D01*
X124962118Y-106856911D02*
X125129702Y-106689327D01*
X124064092Y-92275064D02*
X124064092Y-98279092D01*
D101*
X163362000Y-110048000D02*
X163362000Y-111076000D01*
D98*
X127724000Y-83553500D02*
X127724000Y-84942600D01*
D104*
X163362000Y-111076000D02*
X163791000Y-111505000D01*
D95*
X121428000Y-107013400D02*
X120982800Y-106568200D01*
D100*
X126027728Y-100242728D02*
X125800000Y-100015000D01*
D101*
X163223000Y-106681000D02*
X163223000Y-109909000D01*
D95*
X121428000Y-107635000D02*
X121428000Y-107013400D01*
X102644000Y-98846600D02*
X103812400Y-98846600D01*
D98*
X123333651Y-89332949D02*
X123333651Y-91209454D01*
D95*
X96055200Y-116349500D02*
X96055200Y-114845400D01*
X165383000Y-116398000D02*
X164000000Y-115015000D01*
D102*
X95903999Y-99492000D02*
X95904000Y-101233001D01*
D95*
X102694800Y-99151400D02*
X102644000Y-99100600D01*
D96*
X102517000Y-98999000D02*
X101501000Y-100015000D01*
D100*
X122800000Y-95335207D02*
X122800000Y-97015000D01*
D97*
X101247000Y-105588000D02*
X99367400Y-105588000D01*
D95*
X115156000Y-113555500D02*
X115156000Y-111899000D01*
X117223600Y-108701800D02*
X115356000Y-110569400D01*
X103976000Y-99015000D02*
X102533000Y-99015000D01*
X103812400Y-98846600D02*
X103964800Y-98999000D01*
X95582800Y-113578600D02*
X95582800Y-106692200D01*
D98*
X128993500Y-83553500D02*
X129187000Y-83747000D01*
X119281000Y-93496000D02*
X120300000Y-94515000D01*
D96*
X101501000Y-100015000D02*
X101501000Y-102732800D01*
D100*
X126027728Y-106126469D02*
X126027728Y-100242728D01*
X123091000Y-91452105D02*
X123091000Y-96332000D01*
D95*
X107024000Y-99015000D02*
X107024000Y-98733800D01*
D100*
X124962117Y-93173089D02*
X122800000Y-95335207D01*
X125692560Y-106126469D02*
X126027728Y-106126469D01*
X123091000Y-97306000D02*
X125800000Y-100015000D01*
D101*
X163223000Y-109909000D02*
X163084000Y-110048000D01*
D99*
X122696149Y-95937149D02*
X122696149Y-93381993D01*
D95*
X95916000Y-97424200D02*
X95278000Y-97424200D01*
D98*
X127724000Y-83553500D02*
X128993500Y-83553500D01*
D95*
X102533000Y-99015000D02*
X102517000Y-98999000D01*
X96055200Y-114845400D02*
X96306000Y-114594600D01*
D96*
X101501000Y-102732800D02*
X101247000Y-102986800D01*
D95*
X96306000Y-114301800D02*
X95582800Y-113578600D01*
X96306000Y-114594600D02*
X96306000Y-114301800D01*
D100*
X123333651Y-91209454D02*
X123333651Y-91544623D01*
D97*
X96687000Y-105588000D02*
X96548000Y-105727000D01*
D95*
X119408000Y-106568200D02*
X117274400Y-108701800D01*
X167553000Y-116398000D02*
X165383000Y-116398000D01*
D100*
X125129702Y-104587000D02*
X125129702Y-100685298D01*
D96*
X113218000Y-94515000D02*
X108956800Y-94515000D01*
D99*
X125129702Y-98370702D02*
X123091000Y-96332000D01*
D100*
X125129702Y-106689327D02*
X125129702Y-104587000D01*
D96*
X107024000Y-99015000D02*
X103976000Y-99015000D01*
D101*
X163428001Y-111445000D02*
X162920001Y-111953000D01*
X162920001Y-110211999D02*
X163084000Y-110048000D01*
D99*
X124234000Y-101581000D02*
X124234000Y-105222000D01*
D100*
X125800000Y-106019029D02*
X125800000Y-100015000D01*
D99*
X123091000Y-96332000D02*
X122696149Y-95937149D01*
D97*
X99367400Y-105588000D02*
X96687000Y-105588000D01*
D95*
X103609200Y-99151400D02*
X102694800Y-99151400D01*
D101*
X163731000Y-111445000D02*
X163428001Y-111445000D01*
X164378000Y-110048000D02*
X163362000Y-110048000D01*
%TO.N,Net-(D601-A)*%
D95*
X97186000Y-94252200D02*
X97456000Y-94522200D01*
X97456000Y-94522200D02*
X97456000Y-95428000D01*
X92865000Y-97968000D02*
X92137000Y-97968000D01*
X97005200Y-98237000D02*
X97579000Y-98810800D01*
X92865000Y-97968000D02*
X92865000Y-98110000D01*
X90579000Y-95697000D02*
X90579000Y-95722400D01*
X92865000Y-98110000D02*
X93398400Y-98643400D01*
X97456000Y-100131000D02*
X97579000Y-100254000D01*
X97456000Y-95428000D02*
X97456000Y-100131000D01*
X97579000Y-98810800D02*
X97579000Y-98857000D01*
X90579000Y-95722400D02*
X92824600Y-97968000D01*
X92824600Y-97968000D02*
X92865000Y-97968000D01*
X97186000Y-93139000D02*
X97186000Y-94252200D01*
X92137000Y-97968000D02*
X90960000Y-99145000D01*
%TO.N,Net-(U602-RT{slash}SYNC)*%
X100107000Y-92380000D02*
X100107000Y-91491000D01*
X98455999Y-93139000D02*
X99348000Y-93139000D01*
X99348000Y-93139000D02*
X100107000Y-92380000D01*
%TO.N,Net-(U602-FB)*%
X98456000Y-88189000D02*
X98455999Y-87173000D01*
X97936000Y-83506400D02*
X97665600Y-83236000D01*
X98455999Y-87173000D02*
X97935999Y-86653000D01*
X97935999Y-86653000D02*
X97936000Y-84760000D01*
X97936000Y-84760000D02*
X97936000Y-83506400D01*
%TO.N,GND*%
D98*
X140634500Y-116646500D02*
X140490000Y-116791000D01*
D97*
X59000000Y-108000000D02*
X59000000Y-106371800D01*
D95*
X46560800Y-111442000D02*
X46560800Y-110581400D01*
D105*
X157904999Y-104825001D02*
X160667000Y-104825001D01*
D98*
X144706400Y-115559800D02*
X143792000Y-115559800D01*
D97*
X68021999Y-111732999D02*
X67289000Y-111000000D01*
X72164000Y-116395000D02*
X71125600Y-116395000D01*
D106*
X141000000Y-93015000D02*
X144666000Y-93015000D01*
D96*
X169827000Y-84315999D02*
X169827000Y-83720000D01*
D102*
X159540000Y-87809000D02*
X158168400Y-87809000D01*
D97*
X41770600Y-114986000D02*
X41734800Y-114950200D01*
D96*
X74013615Y-90986385D02*
X73000000Y-92000000D01*
D97*
X172367000Y-87265000D02*
X173002000Y-87265000D01*
D95*
X143568749Y-90446251D02*
X141000000Y-93015000D01*
D98*
X37886000Y-89690600D02*
X37743000Y-89833600D01*
D95*
X73000000Y-92000000D02*
X74337000Y-92000000D01*
X217163000Y-107736600D02*
X217448000Y-107736600D01*
D101*
X178697674Y-87668485D02*
X176961485Y-87668485D01*
D95*
X155000000Y-113890000D02*
X155000000Y-113515000D01*
X175960000Y-107666000D02*
X175960000Y-106732200D01*
X95916000Y-86677000D02*
X96436000Y-86157000D01*
D103*
X91725000Y-94325400D02*
X91725000Y-92983001D01*
D95*
X59000000Y-92000000D02*
X57646600Y-92000000D01*
D98*
X119167400Y-88446000D02*
X119204800Y-88483400D01*
D104*
X142498000Y-105062584D02*
X140545584Y-107015000D01*
D95*
X120726500Y-110622000D02*
X119469000Y-110622000D01*
D105*
X90833000Y-91509001D02*
X89891953Y-91509001D01*
D95*
X73434000Y-86272000D02*
X73434000Y-87162600D01*
X123726000Y-117529000D02*
X120678001Y-117529000D01*
D97*
X42905000Y-111684000D02*
X41770600Y-111684000D01*
D102*
X170943899Y-85268899D02*
X170943899Y-84942304D01*
D97*
X157381000Y-91137000D02*
X158231200Y-91137000D01*
D95*
X163223000Y-99646000D02*
X163235000Y-99634000D01*
X95916000Y-88189000D02*
X95916000Y-90029000D01*
X143030000Y-114371500D02*
X143030000Y-112022314D01*
X122383000Y-110622000D02*
X122583000Y-110822000D01*
X166525400Y-106250000D02*
X166488000Y-106212600D01*
D96*
X176202587Y-100523187D02*
X177447187Y-101767787D01*
X175047400Y-99368000D02*
X177447187Y-101767787D01*
D103*
X91725000Y-92983001D02*
X92106000Y-92602001D01*
D95*
X155000000Y-113515000D02*
X152500000Y-111015000D01*
X156873000Y-115241600D02*
X156351600Y-115241600D01*
D96*
X212642000Y-92411000D02*
X212642000Y-94173000D01*
D95*
X217452000Y-107732600D02*
X217452000Y-102682000D01*
X157756500Y-83256500D02*
X158132801Y-83256500D01*
X202875000Y-98872000D02*
X203482000Y-98265000D01*
X150650101Y-97729000D02*
X150650101Y-98186301D01*
D96*
X77037415Y-96208385D02*
X76278800Y-96967000D01*
D102*
X180111885Y-87668485D02*
X180114000Y-87670600D01*
D98*
X146332000Y-94681000D02*
X145697000Y-94046000D01*
D97*
X37743000Y-109239200D02*
X37162800Y-109819400D01*
X77510000Y-111229800D02*
X76748700Y-111991100D01*
D101*
X86983499Y-91952001D02*
X86989382Y-91952001D01*
D95*
X174862342Y-92738600D02*
X175843171Y-93719429D01*
D100*
X87505600Y-92105401D02*
X87505600Y-92217200D01*
D97*
X198497885Y-87670600D02*
X198500000Y-87668485D01*
D95*
X157158900Y-114955700D02*
X156873000Y-115241600D01*
D97*
X194746515Y-87668485D02*
X194693600Y-87721400D01*
D100*
X87505600Y-92293400D02*
X88547000Y-93334800D01*
D107*
X219792272Y-109341329D02*
X219865000Y-109268601D01*
D106*
X145697000Y-97881400D02*
X145697000Y-100015000D01*
D97*
X59000000Y-106371800D02*
X59006800Y-106365000D01*
D96*
X162128999Y-83299999D02*
X162128999Y-84775000D01*
D95*
X74311002Y-85394998D02*
X75730398Y-85394998D01*
D103*
X94404000Y-96698000D02*
X93423800Y-96698000D01*
D101*
X84879000Y-88407200D02*
X84879000Y-89078000D01*
D96*
X167072000Y-80965000D02*
X162435500Y-80965000D01*
X175944770Y-93719430D02*
X175843171Y-93719429D01*
D95*
X175960000Y-108510200D02*
X176814300Y-109364500D01*
D104*
X142500000Y-98872000D02*
X142500000Y-101156000D01*
D95*
X77298000Y-87107000D02*
X76724000Y-87681000D01*
X119469000Y-110622000D02*
X119458800Y-110632200D01*
D97*
X41770600Y-111684000D02*
X41734800Y-111648200D01*
D98*
X123726000Y-117529000D02*
X124538426Y-117529000D01*
D95*
X97977999Y-89991000D02*
X97950999Y-89964000D01*
D96*
X161419500Y-81981000D02*
X161419500Y-82590500D01*
D101*
X88001499Y-90934001D02*
X88677000Y-90934001D01*
D97*
X61254000Y-111013200D02*
X61254000Y-109679000D01*
D95*
X175960000Y-106732200D02*
X175948400Y-106720600D01*
D96*
X55503000Y-105715000D02*
X54038800Y-105715000D01*
D98*
X37886000Y-89078000D02*
X37886000Y-89690600D01*
D97*
X61089600Y-109514600D02*
X61000000Y-109425000D01*
X37162800Y-109819400D02*
X36870000Y-110112200D01*
D95*
X169141200Y-92738600D02*
X174862342Y-92738600D01*
D97*
X197487600Y-87670600D02*
X198497885Y-87670600D01*
D95*
X150650101Y-98186301D02*
X151183400Y-98719600D01*
D96*
X169827000Y-83720000D02*
X167072000Y-80965000D01*
X175960000Y-100596001D02*
X176032814Y-100523187D01*
D97*
X37743000Y-108750000D02*
X37743000Y-109239200D01*
D106*
X145697000Y-102504200D02*
X145697000Y-105857000D01*
D101*
X159842999Y-110126001D02*
X159921000Y-110048000D01*
D105*
X89891953Y-91509001D02*
X89753952Y-91371000D01*
D97*
X69878000Y-112969000D02*
X69878000Y-111732999D01*
D95*
X218768999Y-108807600D02*
X219230000Y-109268601D01*
D102*
X161179600Y-87809000D02*
X160962400Y-87809000D01*
D95*
X152500000Y-111015000D02*
X152000000Y-111015000D01*
X84258901Y-85935800D02*
X84258901Y-85998701D01*
D97*
X170943899Y-85268899D02*
X172367000Y-86692000D01*
D95*
X167414000Y-103456000D02*
X167364000Y-103506000D01*
X151212500Y-107015000D02*
X151212500Y-105530500D01*
X167364000Y-103506000D02*
X165258000Y-103506000D01*
D96*
X76228000Y-92141000D02*
X76101000Y-92141000D01*
D95*
X78465500Y-87107000D02*
X77297998Y-87107001D01*
D96*
X58356800Y-105715000D02*
X59006800Y-106365000D01*
D95*
X47627600Y-112508800D02*
X46560800Y-111442000D01*
D97*
X158231200Y-91137000D02*
X158320800Y-91226600D01*
D101*
X86989382Y-91952001D02*
X87525000Y-91416383D01*
X165878000Y-111191000D02*
X165878000Y-110048000D01*
D103*
X91725000Y-95750800D02*
X91725000Y-94325400D01*
D105*
X96551000Y-90664000D02*
X93751537Y-90664000D01*
D95*
X100107000Y-89991000D02*
X97977999Y-89991000D01*
D101*
X165878000Y-111445000D02*
X165878000Y-111191000D01*
D97*
X76197028Y-105242385D02*
X77510000Y-106555357D01*
D101*
X159286000Y-106206001D02*
X159286000Y-109413000D01*
D95*
X95916000Y-90029000D02*
X96551000Y-90664000D01*
D100*
X88547000Y-91064001D02*
X88547000Y-93396000D01*
D102*
X178697674Y-87668485D02*
X180111885Y-87668485D01*
D106*
X144539000Y-107015000D02*
X140545584Y-107015000D01*
D100*
X88677000Y-90934001D02*
X87505600Y-92105401D01*
D101*
X165878000Y-109044000D02*
X165890000Y-109032000D01*
D97*
X70673999Y-111732999D02*
X69878000Y-111732999D01*
D102*
X162128999Y-84775000D02*
X162128999Y-86603800D01*
D96*
X175960000Y-101046000D02*
X175960000Y-100596001D01*
D101*
X165878000Y-111191000D02*
X165791000Y-111278000D01*
D95*
X156644400Y-83796400D02*
X152218600Y-83796400D01*
D96*
X76197028Y-98114385D02*
X74953615Y-98114385D01*
D95*
X95916000Y-88189000D02*
X95916000Y-86677000D01*
D107*
X218460000Y-112435600D02*
X218460000Y-112062600D01*
D96*
X76101000Y-92141000D02*
X74704000Y-93538000D01*
X74953615Y-98114385D02*
X74627800Y-98440200D01*
D98*
X76197028Y-92110028D02*
X76228000Y-92141000D01*
D101*
X84879000Y-90098000D02*
X84375000Y-90602000D01*
D95*
X217448000Y-107736600D02*
X217452000Y-107732600D01*
D97*
X76748700Y-111991100D02*
X76053800Y-112686000D01*
D96*
X77984405Y-96208385D02*
X77037415Y-96208385D01*
D95*
X148237000Y-100142000D02*
X148364000Y-100015000D01*
X84258901Y-85998701D02*
X84879000Y-86618800D01*
D101*
X84375000Y-90602001D02*
X84375000Y-91634000D01*
D96*
X213642000Y-95173000D02*
X212642000Y-94173000D01*
D97*
X76197028Y-104109972D02*
X76197028Y-105242385D01*
D101*
X84879000Y-89078000D02*
X84879000Y-89804200D01*
D98*
X37743000Y-92780000D02*
X37670800Y-92852200D01*
D97*
X76053800Y-112686000D02*
X74323000Y-112686000D01*
D98*
X113390500Y-118491000D02*
X113390500Y-117619500D01*
D97*
X67289000Y-111000000D02*
X66080200Y-111000000D01*
D95*
X176814300Y-109364500D02*
X178021000Y-109364500D01*
D96*
X212750000Y-92271000D02*
X212626000Y-92395000D01*
D98*
X37743000Y-91250000D02*
X37743000Y-92780000D01*
D101*
X84879000Y-89804200D02*
X84879000Y-90098000D01*
D96*
X212642000Y-100269000D02*
X213592000Y-100269000D01*
D97*
X61000000Y-109425000D02*
X61000000Y-108000000D01*
X77510000Y-110414000D02*
X77510000Y-111229800D01*
D95*
X217163000Y-107736600D02*
X217167000Y-107732600D01*
D97*
X61254000Y-113832600D02*
X61254000Y-115547800D01*
D98*
X113390500Y-117619500D02*
X113362800Y-117591800D01*
D101*
X87525000Y-91410500D02*
X88001499Y-90934001D01*
D95*
X42905000Y-117327600D02*
X42915200Y-117337800D01*
X75974000Y-85638600D02*
X75974000Y-86931000D01*
D101*
X165791000Y-111278000D02*
X165791000Y-112461000D01*
D95*
X199914000Y-109451800D02*
X199926000Y-109463800D01*
D97*
X94404000Y-96698000D02*
X94404000Y-98095000D01*
X72571000Y-112686000D02*
X72291000Y-112966000D01*
D102*
X158168400Y-87809000D02*
X157661000Y-87809000D01*
D95*
X163223000Y-101731000D02*
X163223000Y-99646000D01*
X73000000Y-92000000D02*
X73000000Y-93688200D01*
D107*
X219792272Y-109661793D02*
X219792272Y-109341329D01*
D97*
X37743000Y-107258000D02*
X37772400Y-107228600D01*
X181732674Y-105428485D02*
X181732674Y-103759059D01*
D100*
X87505600Y-92217200D02*
X87505600Y-92293400D01*
D105*
X160667000Y-104825001D02*
X159286000Y-106206001D01*
D95*
X99456000Y-95428000D02*
X99456000Y-94617800D01*
X217167000Y-107732600D02*
X217956000Y-107732600D01*
D97*
X42905000Y-111684000D02*
X42905000Y-113299200D01*
D98*
X145570000Y-114759000D02*
X147094000Y-114759000D01*
D102*
X94404000Y-100496000D02*
X94404000Y-99492000D01*
D96*
X74704000Y-93538000D02*
X74704000Y-97864770D01*
D105*
X96551000Y-90664000D02*
X94044001Y-90664000D01*
D96*
X54038800Y-105715000D02*
X54028400Y-105704600D01*
X169319000Y-99368000D02*
X175047400Y-99368000D01*
D106*
X145697000Y-100015000D02*
X145697000Y-102504200D01*
D101*
X159921000Y-110048000D02*
X161584000Y-110048000D01*
D95*
X57646600Y-92000000D02*
X57533600Y-91887000D01*
D102*
X169827000Y-84315999D02*
X170453305Y-84942304D01*
D95*
X156644400Y-83796400D02*
X157216600Y-83796400D01*
D97*
X36870000Y-112892800D02*
X36870000Y-114264400D01*
D96*
X212626000Y-92395000D02*
X212642000Y-92411000D01*
D97*
X61254000Y-115547800D02*
X61242000Y-115559800D01*
D108*
X142498000Y-101158000D02*
X142498000Y-105062584D01*
D98*
X145570000Y-114759000D02*
X145507200Y-114759000D01*
D101*
X159286000Y-109413000D02*
X159921000Y-110048000D01*
D95*
X157216600Y-83796400D02*
X157756500Y-83256500D01*
D106*
X144666000Y-93015000D02*
X145697000Y-94046000D01*
D95*
X89979600Y-118021300D02*
X91452300Y-118021300D01*
X83505100Y-98300500D02*
X83492400Y-98287800D01*
D107*
X218460000Y-112062600D02*
X218849000Y-111673600D01*
D95*
X59000000Y-92000000D02*
X59000000Y-93607400D01*
D97*
X72291000Y-112029200D02*
X72265600Y-112003800D01*
D105*
X92906536Y-91509001D02*
X90833000Y-91509001D01*
D95*
X163223000Y-103571000D02*
X163858000Y-104206000D01*
X151212500Y-93015000D02*
X150233200Y-93015000D01*
D97*
X69878000Y-111732999D02*
X68021999Y-111732999D01*
D96*
X175959874Y-94473237D02*
X175959874Y-93734534D01*
D95*
X42915200Y-117337800D02*
X41836400Y-117337800D01*
X199914000Y-108651000D02*
X199914000Y-109451800D01*
X169319000Y-104053600D02*
X169293600Y-104028200D01*
D97*
X36870000Y-110112200D02*
X36870000Y-110668000D01*
D102*
X157661000Y-87809000D02*
X157381000Y-88089000D01*
D97*
X66080200Y-111000000D02*
X66068000Y-110987800D01*
D96*
X76197028Y-98114385D02*
X76197028Y-97099572D01*
D95*
X84422000Y-98300500D02*
X83505100Y-98300500D01*
D97*
X76986615Y-103320385D02*
X76197028Y-104109972D01*
X173002000Y-87265000D02*
X175796000Y-87265000D01*
X67289000Y-111000000D02*
X67289000Y-114224000D01*
D104*
X142500000Y-101156000D02*
X142498000Y-101158000D01*
D95*
X143568749Y-83795500D02*
X143568749Y-90446251D01*
D98*
X37743000Y-89833600D02*
X37743000Y-91250000D01*
D97*
X77510000Y-106555357D02*
X77510000Y-110414000D01*
X61254000Y-111684000D02*
X61254000Y-111013200D01*
D105*
X156619000Y-103539001D02*
X157904999Y-104825001D01*
D100*
X88547000Y-93396000D02*
X85641000Y-93396000D01*
D98*
X143792000Y-115559800D02*
X143030000Y-114797800D01*
D96*
X212750000Y-89015000D02*
X212750000Y-92271000D01*
D95*
X219865000Y-109268601D02*
X221516000Y-109268601D01*
D101*
X85248000Y-92507001D02*
X86428499Y-92507001D01*
D95*
X175960000Y-107666000D02*
X175960000Y-108510200D01*
D97*
X72291000Y-112966000D02*
X71907000Y-112966000D01*
D95*
X148237000Y-106815314D02*
X148237000Y-100142000D01*
D106*
X145697000Y-105857000D02*
X144539000Y-107015000D01*
D97*
X71907000Y-112966000D02*
X70673999Y-111732999D01*
D95*
X59000000Y-93607400D02*
X59057600Y-93665000D01*
X91452300Y-118021300D02*
X91581600Y-118150600D01*
X46576000Y-114810500D02*
X47106900Y-114810500D01*
D105*
X94044001Y-90664000D02*
X92106000Y-92602001D01*
D102*
X162128999Y-86859601D02*
X161179600Y-87809000D01*
D97*
X175796000Y-87265000D02*
X176558000Y-87265000D01*
D98*
X142080001Y-116646500D02*
X140634500Y-116646500D01*
D97*
X196197674Y-87668485D02*
X194746515Y-87668485D01*
D105*
X89113999Y-91371000D02*
X88677000Y-90934001D01*
D102*
X94404000Y-98095000D02*
X94404000Y-99492000D01*
D101*
X178697674Y-87668485D02*
X196197674Y-87668485D01*
D96*
X176032814Y-100523187D02*
X176202587Y-100523187D01*
D97*
X37743000Y-108750000D02*
X37743000Y-107258000D01*
D103*
X93423800Y-96698000D02*
X92672202Y-96698000D01*
D102*
X92789999Y-101397000D02*
X93503000Y-101397000D01*
D95*
X78465500Y-87107000D02*
X77298000Y-87107000D01*
X99456000Y-98123000D02*
X99456000Y-95428000D01*
D96*
X74627800Y-102540744D02*
X76197028Y-104109972D01*
X74627800Y-98440200D02*
X74627800Y-102540744D01*
D102*
X93503000Y-101397000D02*
X94078200Y-100821800D01*
D97*
X172367000Y-86692000D02*
X172367000Y-87265000D01*
D95*
X218063000Y-108807600D02*
X218768999Y-108807600D01*
D105*
X152428000Y-103014001D02*
X152857999Y-103444000D01*
D95*
X163223000Y-101731000D02*
X163223000Y-103571000D01*
D102*
X170453305Y-84942304D02*
X170943899Y-84942304D01*
D101*
X165878000Y-110048000D02*
X165878000Y-109044000D01*
D95*
X169319000Y-104702000D02*
X169319000Y-104053600D01*
D98*
X145507200Y-114759000D02*
X144706400Y-115559800D01*
X76197028Y-90986385D02*
X76197028Y-92110028D01*
D97*
X66093400Y-114224000D02*
X67289000Y-114224000D01*
D102*
X162128999Y-86603800D02*
X162128999Y-86859601D01*
D96*
X175959874Y-93734534D02*
X175944770Y-93719430D01*
D95*
X158426301Y-114955700D02*
X157158900Y-114955700D01*
D102*
X160962400Y-87809000D02*
X159540000Y-87809000D01*
D97*
X36870000Y-116106600D02*
X36858000Y-116118600D01*
D108*
X142500000Y-98872000D02*
X142500000Y-94515000D01*
D101*
X87525000Y-91416383D02*
X87525000Y-91410500D01*
D95*
X143030000Y-112022314D02*
X148237000Y-106815314D01*
X156351600Y-115241600D02*
X155000000Y-113890000D01*
D97*
X36870000Y-114264400D02*
X36870000Y-116106600D01*
D96*
X76197028Y-90986385D02*
X74013615Y-90986385D01*
D105*
X161286001Y-104206000D02*
X160667000Y-104825001D01*
D97*
X61254000Y-112410200D02*
X61254000Y-113832600D01*
X42905000Y-113299200D02*
X42905000Y-114986000D01*
D95*
X91581600Y-115813800D02*
X91581600Y-118150600D01*
X218063000Y-107839600D02*
X217956000Y-107732600D01*
X45087600Y-111442000D02*
X46560800Y-111442000D01*
X101221600Y-91105600D02*
X100107000Y-89991000D01*
D101*
X84771400Y-92030400D02*
X85248000Y-92507001D01*
D95*
X142080001Y-115823999D02*
X142080001Y-116646500D01*
D100*
X88547000Y-93334800D02*
X88547000Y-93396000D01*
D95*
X150233200Y-93015000D02*
X150192800Y-93055400D01*
D103*
X92672202Y-96698000D02*
X92672201Y-96698001D01*
D95*
X120726500Y-110622000D02*
X122383000Y-110622000D01*
D97*
X42905000Y-114986000D02*
X41770600Y-114986000D01*
X61254000Y-109679000D02*
X61089600Y-109514600D01*
D96*
X74704000Y-97864770D02*
X74953615Y-98114385D01*
D95*
X84879000Y-86618800D02*
X84879000Y-87681000D01*
X99456000Y-94617800D02*
X101221600Y-92852200D01*
X217163000Y-108307600D02*
X217163000Y-107736600D01*
X73000000Y-92000000D02*
X73000001Y-92000002D01*
D97*
X36870000Y-111419600D02*
X36870000Y-112892800D01*
D95*
X99079000Y-98857000D02*
X99079000Y-98500000D01*
X143030000Y-114874000D02*
X142080001Y-115823999D01*
D97*
X71125600Y-116395000D02*
X71097200Y-116423400D01*
D96*
X55503000Y-105715000D02*
X58356800Y-105715000D01*
D97*
X59000000Y-108000000D02*
X61000000Y-108000000D01*
D95*
X219230000Y-109268601D02*
X219865000Y-109268601D01*
D97*
X181732674Y-103759059D02*
X182288000Y-103203733D01*
D96*
X213642000Y-96083500D02*
X213642000Y-95173000D01*
D105*
X93751537Y-90664000D02*
X92906536Y-91509001D01*
D98*
X114884500Y-85476000D02*
X113627000Y-85476000D01*
X139067600Y-116791000D02*
X140490000Y-116791000D01*
D105*
X156619000Y-103444000D02*
X156619000Y-103539001D01*
D97*
X83594000Y-115161999D02*
X83594000Y-114086600D01*
D106*
X145697000Y-94884200D02*
X145697000Y-97881400D01*
D96*
X76278800Y-96967000D02*
X76278800Y-97017800D01*
D98*
X118265000Y-88446000D02*
X119167400Y-88446000D01*
D95*
X73000000Y-93688200D02*
X73027600Y-93715800D01*
X47627600Y-114289800D02*
X47627600Y-112508800D01*
D101*
X84375000Y-91634000D02*
X84771400Y-92030400D01*
D100*
X88677000Y-90934001D02*
X88547000Y-91064001D01*
D95*
X101221600Y-92852200D02*
X101221600Y-91105600D01*
D98*
X143030000Y-114797800D02*
X143030000Y-114371500D01*
D105*
X89753952Y-91371000D02*
X89113999Y-91371000D01*
D98*
X124538426Y-117529000D02*
X124659613Y-117407813D01*
D101*
X86428499Y-92507001D02*
X86983499Y-91952001D01*
X176961485Y-87668485D02*
X176558000Y-87265000D01*
D105*
X152857999Y-103444000D02*
X156619000Y-103444000D01*
D103*
X92672201Y-96698001D02*
X91725000Y-95750800D01*
D95*
X75730398Y-85394998D02*
X75974000Y-85638600D01*
X152218600Y-83796400D02*
X152000000Y-84015000D01*
D101*
X159842999Y-111953000D02*
X159842999Y-110126001D01*
D96*
X162435500Y-80965000D02*
X161419500Y-81981000D01*
D101*
X84879000Y-87681000D02*
X84879000Y-88407200D01*
D97*
X61254000Y-111684000D02*
X61254000Y-112410200D01*
X72291000Y-112966000D02*
X72291000Y-112029200D01*
D104*
X142500000Y-94515000D02*
X141000000Y-93015000D01*
D95*
X73434000Y-86272000D02*
X74311002Y-85394998D01*
D97*
X36870000Y-110668000D02*
X36870000Y-111419600D01*
D100*
X85641000Y-93396000D02*
X85626000Y-93411000D01*
D105*
X157904999Y-104825001D02*
X159286000Y-106206001D01*
D96*
X76197028Y-97099572D02*
X76278800Y-97017800D01*
D97*
X198500000Y-87668485D02*
X196197674Y-87668485D01*
D95*
X167287000Y-106250000D02*
X166525400Y-106250000D01*
D97*
X77984406Y-103320385D02*
X76986615Y-103320385D01*
D95*
X75974000Y-86931000D02*
X76724000Y-87681000D01*
X47106900Y-114810500D02*
X47627600Y-114289800D01*
X218063000Y-108807600D02*
X218063000Y-107839600D01*
X220373000Y-109268601D02*
X220373000Y-102682000D01*
D98*
X113627000Y-85476000D02*
X113616800Y-85486200D01*
D95*
X151212500Y-105530500D02*
X151208800Y-105526800D01*
D102*
X94078200Y-100821800D02*
X94404000Y-100496000D01*
D106*
X145697000Y-94046000D02*
X145697000Y-94884200D01*
D95*
X167287000Y-106250000D02*
X168684000Y-106250000D01*
X99079000Y-98500000D02*
X99456000Y-98123000D01*
D96*
X161419500Y-82590500D02*
X162128999Y-83299999D01*
D95*
X143030000Y-114371500D02*
X143030000Y-114874000D01*
X74337000Y-92000000D02*
X74348400Y-91988600D01*
D97*
X74323000Y-112686000D02*
X72571000Y-112686000D01*
D105*
X163858000Y-104206000D02*
X161286001Y-104206000D01*
%TO.N,Net-(D604-K)*%
D95*
X93007000Y-94654000D02*
X93503000Y-94158000D01*
D100*
X93455000Y-87252999D02*
X92106000Y-88601999D01*
X94646000Y-88189000D02*
X92518999Y-88189000D01*
X94646001Y-84935000D02*
X93455000Y-83744000D01*
X92518999Y-88189000D02*
X92106000Y-88601999D01*
X94646000Y-88189000D02*
X94646001Y-84935000D01*
X93455000Y-83744000D02*
X93455000Y-87252999D01*
D95*
X93007000Y-95174000D02*
X93007000Y-94654000D01*
%TO.N,Net-(D603-K)*%
X91409000Y-100889000D02*
X91409000Y-100124800D01*
X92065800Y-99468000D02*
X92865000Y-99468000D01*
X91409000Y-100124800D02*
X92065800Y-99468000D01*
%TO.N,+3.3V_TOP*%
D97*
X62754000Y-114543800D02*
X64019200Y-114543800D01*
X38370000Y-111699000D02*
X38370000Y-114986000D01*
D95*
X74196000Y-83860600D02*
X74196000Y-82946200D01*
D96*
X70690800Y-113870201D02*
X70690800Y-113578600D01*
D97*
X39955000Y-118101600D02*
X39906000Y-118150600D01*
D98*
X44260000Y-82031800D02*
X44750000Y-82521800D01*
D97*
X52392000Y-112937000D02*
X52392000Y-116789800D01*
X62754000Y-111684000D02*
X62754000Y-110886200D01*
X52377400Y-116804400D02*
X62766000Y-116804400D01*
D95*
X76377399Y-81215999D02*
X75466000Y-81215999D01*
D97*
X52392000Y-116789800D02*
X52377400Y-116804400D01*
X67756602Y-116804400D02*
X68347401Y-116213601D01*
D95*
X76634400Y-81473000D02*
X76377399Y-81215999D01*
D97*
X62754000Y-116792400D02*
X62766000Y-116804400D01*
X40210800Y-118455400D02*
X49024600Y-118455400D01*
D96*
X36756400Y-88178600D02*
X37381000Y-87554000D01*
X37381000Y-87554000D02*
X37886000Y-87554000D01*
X63000000Y-109661000D02*
X64339000Y-111000000D01*
D97*
X64339000Y-114224000D02*
X64339000Y-116751800D01*
D95*
X74196000Y-82946200D02*
X75466000Y-81676200D01*
D97*
X39955000Y-114986000D02*
X39955000Y-111684000D01*
X39955000Y-114986000D02*
X38370000Y-114986000D01*
D96*
X69878000Y-114683001D02*
X70690800Y-113870201D01*
D98*
X44750000Y-82521800D02*
X44750000Y-87554000D01*
D97*
X63000000Y-108000000D02*
X63000000Y-109914000D01*
X63000000Y-109914000D02*
X62754000Y-110160000D01*
D98*
X40668000Y-82982000D02*
X41618200Y-82031800D01*
D95*
X77244000Y-81482000D02*
X77235000Y-81473000D01*
D97*
X50675600Y-116804400D02*
X52377400Y-116804400D01*
X38385000Y-111684000D02*
X38370000Y-111699000D01*
X64339000Y-111000000D02*
X62867800Y-111000000D01*
D98*
X41618200Y-82031800D02*
X44260000Y-82031800D01*
D97*
X64339000Y-116751800D02*
X64391600Y-116804400D01*
X74323001Y-114986000D02*
X72811000Y-114986000D01*
D95*
X77235000Y-81473000D02*
X76634400Y-81473000D01*
D97*
X49024600Y-118455400D02*
X50675600Y-116804400D01*
X39013000Y-108750000D02*
X39013000Y-110025000D01*
X62867800Y-111000000D02*
X62754000Y-110886200D01*
X38370000Y-114986000D02*
X38370000Y-116614600D01*
X62754000Y-110886200D02*
X62754000Y-110160000D01*
X64391600Y-116804400D02*
X67756602Y-116804400D01*
D95*
X80371000Y-114986000D02*
X80371000Y-117162800D01*
D96*
X36756400Y-94771400D02*
X36756400Y-88178600D01*
D95*
X80371000Y-117162800D02*
X80393600Y-117185400D01*
D96*
X37886000Y-87554000D02*
X37886000Y-83848600D01*
D97*
X72811000Y-114986000D02*
X72291000Y-114466000D01*
X72291000Y-114466000D02*
X70095001Y-114466000D01*
X64019200Y-114543800D02*
X64339000Y-114224000D01*
X68347401Y-116213601D02*
X69878000Y-114683001D01*
X70095001Y-114466000D02*
X69878000Y-114683001D01*
D96*
X38752600Y-82982000D02*
X40668000Y-82982000D01*
D97*
X38370000Y-110668000D02*
X38370000Y-111699000D01*
D95*
X75466000Y-81676200D02*
X75466000Y-81215999D01*
D97*
X38370000Y-116614600D02*
X39906000Y-118150600D01*
D96*
X39013000Y-108750000D02*
X39013000Y-97028000D01*
D97*
X80371000Y-114986000D02*
X74323001Y-114986000D01*
X62754000Y-111684000D02*
X62754000Y-114543800D01*
X39955000Y-114986000D02*
X39955000Y-118101600D01*
X62754000Y-114543800D02*
X62754000Y-116792400D01*
X64339000Y-111000000D02*
X64339000Y-114224000D01*
D95*
X83937600Y-116333800D02*
X83136800Y-117134600D01*
D97*
X39955000Y-111684000D02*
X38385000Y-111684000D01*
D96*
X37886000Y-83848600D02*
X38752600Y-82982000D01*
D97*
X62766000Y-116804400D02*
X64391600Y-116804400D01*
D96*
X39013000Y-97028000D02*
X36756400Y-94771400D01*
X63000000Y-108000000D02*
X63000000Y-109661000D01*
D97*
X39906000Y-118150600D02*
X40210800Y-118455400D01*
X39013000Y-110025000D02*
X38370000Y-110668000D01*
D95*
X86540400Y-116333800D02*
X83937600Y-116333800D01*
%TO.N,+5V*%
D96*
X174424402Y-110621402D02*
X177368000Y-113565000D01*
D102*
X159540000Y-92409000D02*
X157609000Y-92409000D01*
D97*
X168175000Y-91126000D02*
X171060000Y-91126000D01*
D96*
X169319000Y-103202000D02*
X170702600Y-103202000D01*
X168379200Y-98745000D02*
X168379200Y-99761000D01*
X172781003Y-104366000D02*
X174424402Y-106009399D01*
D97*
X157381000Y-92637000D02*
X157381000Y-93233200D01*
D96*
X187050000Y-113565000D02*
X190125000Y-116640000D01*
D97*
X167185400Y-92115600D02*
X168175000Y-91126000D01*
D96*
X167185400Y-92522000D02*
X167185400Y-92115600D01*
X174424402Y-106009398D02*
X174424402Y-110621402D01*
X170702600Y-103202000D02*
X171060000Y-103559400D01*
X177368000Y-113565000D02*
X187050000Y-113565000D01*
D98*
X150638000Y-96205000D02*
X152301000Y-96205000D01*
D105*
X154762000Y-97348000D02*
X154762000Y-99174000D01*
D95*
X154762000Y-97348000D02*
X154762000Y-95268000D01*
D105*
X155069600Y-100777000D02*
X156365000Y-100777000D01*
X153141001Y-100777000D02*
X155069600Y-100777000D01*
D97*
X166892000Y-92409000D02*
X167185400Y-92115600D01*
D96*
X168379200Y-99761000D02*
X169319000Y-100700800D01*
D97*
X153596400Y-94122200D02*
X152301000Y-95417600D01*
D105*
X154762000Y-100469400D02*
X155069600Y-100777000D01*
D95*
X155145800Y-94884200D02*
X162791200Y-94884200D01*
D105*
X154762000Y-97729999D02*
X152428000Y-100063999D01*
D97*
X157381000Y-93233200D02*
X156492000Y-94122200D01*
X152301000Y-96205000D02*
X152301000Y-99936999D01*
X152301000Y-99936999D02*
X152428000Y-100063999D01*
D105*
X154762000Y-99174000D02*
X156365000Y-100777000D01*
D97*
X156492000Y-94122200D02*
X153596400Y-94122200D01*
D95*
X154762000Y-95268000D02*
X155145800Y-94884200D01*
X163235000Y-95328000D02*
X163235000Y-98110000D01*
D96*
X190125000Y-116640000D02*
X190125000Y-116854000D01*
D97*
X152301000Y-95417600D02*
X152301000Y-96205000D01*
D96*
X169319000Y-97868000D02*
X170938000Y-97868000D01*
X171060000Y-96396600D02*
X167185400Y-92522000D01*
X169256200Y-97868000D02*
X168379200Y-98745000D01*
X171060000Y-103559400D02*
X171060000Y-104366000D01*
D95*
X162791200Y-94884200D02*
X163235000Y-95328000D01*
D96*
X171060000Y-97746000D02*
X171060000Y-96396600D01*
X171060000Y-104366000D02*
X172781003Y-104366000D01*
X169319000Y-97868000D02*
X169256200Y-97868000D01*
D105*
X154762000Y-97348000D02*
X154762000Y-100469400D01*
D102*
X157609000Y-92409000D02*
X157381000Y-92637000D01*
D97*
X159540000Y-92409000D02*
X166892000Y-92409000D01*
D96*
X169319000Y-100700800D02*
X169319000Y-103202000D01*
D105*
X154762000Y-97348000D02*
X154762000Y-97729999D01*
D96*
X170938000Y-97868000D02*
X171060000Y-97746000D01*
D105*
X152428000Y-100063999D02*
X153141001Y-100777000D01*
%TO.N,Net-(D202-DIN)*%
D95*
X169305600Y-89093000D02*
X170270800Y-90058200D01*
X175491200Y-90058200D02*
X175959874Y-90526874D01*
X175959874Y-90526874D02*
X175959874Y-91122437D01*
X170270800Y-90058200D02*
X175491200Y-90058200D01*
%TO.N,LEDS_SUB*%
X177370800Y-96205000D02*
X177370800Y-90959327D01*
X177724285Y-96558485D02*
X177370800Y-96205000D01*
X177370800Y-90959327D02*
X175926473Y-89515000D01*
X175926473Y-89515000D02*
X171227600Y-89515000D01*
X178697674Y-96558485D02*
X177724285Y-96558485D01*
X171227600Y-89515000D02*
X170805600Y-89093000D01*
%TO.N,+5V_TOP*%
D97*
X81155600Y-94227813D02*
X81097028Y-94286385D01*
D105*
X87455000Y-86761999D02*
X87455000Y-83744000D01*
D97*
X81097028Y-108542385D02*
X81097028Y-110479800D01*
X77903400Y-117286000D02*
X74323000Y-117286000D01*
X81097028Y-101414385D02*
X81097028Y-103320385D01*
X81097028Y-110878428D02*
X82070000Y-111851400D01*
X70152600Y-90028000D02*
X64584000Y-84459400D01*
D101*
X86681999Y-87983998D02*
X86379000Y-87681000D01*
D97*
X86375000Y-90602001D02*
X86098199Y-90602001D01*
X81097028Y-94286385D02*
X81097028Y-94595762D01*
X81097028Y-108542385D02*
X80881615Y-108542385D01*
X81097028Y-94595762D02*
X81236095Y-94734829D01*
X81971785Y-103320385D02*
X82679600Y-104028200D01*
X82070000Y-111851400D02*
X82070000Y-118203201D01*
X82171600Y-118304801D02*
X78922201Y-118304801D01*
D95*
X85499000Y-83744000D02*
X87455000Y-83744000D01*
X87455000Y-83744000D02*
X87455000Y-81664000D01*
D97*
X81097028Y-103320385D02*
X79484406Y-103320385D01*
D95*
X95408000Y-81077000D02*
X96436000Y-82105000D01*
D97*
X82425600Y-100085813D02*
X81097028Y-101414385D01*
D95*
X84217000Y-84379000D02*
X84864000Y-84379000D01*
X96436000Y-82105000D02*
X96436000Y-84760000D01*
D97*
X82679600Y-106959813D02*
X81097028Y-108542385D01*
D96*
X57671000Y-81473000D02*
X55908000Y-83236000D01*
D97*
X78922201Y-118304801D02*
X77903400Y-117286000D01*
D95*
X87455000Y-81664000D02*
X88041999Y-81077000D01*
D101*
X86375000Y-90602001D02*
X86375000Y-87841999D01*
D97*
X86098199Y-90602001D02*
X85575200Y-91125000D01*
D95*
X82453385Y-101414385D02*
X83467000Y-102428000D01*
D97*
X79010000Y-110414000D02*
X81031228Y-110414000D01*
X84152800Y-118304801D02*
X82171600Y-118304801D01*
X81236095Y-96133095D02*
X82425600Y-97322600D01*
X78158400Y-90028000D02*
X70152600Y-90028000D01*
D95*
X84864000Y-84379000D02*
X85499000Y-83744000D01*
D97*
X82070000Y-118203201D02*
X82171600Y-118304801D01*
D101*
X88677000Y-87983999D02*
X86681999Y-87983998D01*
X86375000Y-87841999D02*
X87455000Y-86761999D01*
D97*
X82425600Y-97322600D02*
X82425600Y-100085813D01*
D95*
X81097028Y-108542385D02*
X85263615Y-108542385D01*
D97*
X79484405Y-96208385D02*
X79559695Y-96133095D01*
D95*
X81097028Y-101414385D02*
X82453385Y-101414385D01*
D97*
X81097028Y-110479800D02*
X81097028Y-110878428D01*
D96*
X64584000Y-83219000D02*
X62838000Y-81473000D01*
D97*
X82679600Y-104028200D02*
X82679600Y-106959813D01*
X79559695Y-96133095D02*
X81236095Y-96133095D01*
X72773000Y-117286000D02*
X72164000Y-117895000D01*
X64584000Y-84459400D02*
X64584000Y-83219000D01*
D95*
X85297000Y-108509000D02*
X85551000Y-108509000D01*
X88041999Y-81077000D02*
X95408000Y-81077000D01*
D97*
X81155600Y-93106200D02*
X81155600Y-94227813D01*
D105*
X88677000Y-87983999D02*
X87455000Y-86761999D01*
D96*
X62838000Y-81473000D02*
X57671000Y-81473000D01*
D95*
X83467000Y-102428000D02*
X83467000Y-102828000D01*
D97*
X81031228Y-110414000D02*
X81097028Y-110479800D01*
X74323000Y-117286000D02*
X72773000Y-117286000D01*
X81236095Y-94734829D02*
X81236095Y-96133095D01*
X78158400Y-90109000D02*
X78158400Y-90028000D01*
X81097028Y-103320385D02*
X81971785Y-103320385D01*
X81155600Y-93106200D02*
X78158400Y-90109000D01*
D95*
X85263615Y-108542385D02*
X85297000Y-108509000D01*
%TO.N,Net-(D502-DOUT)*%
X76197028Y-101414385D02*
X77652785Y-101414385D01*
X77652785Y-101414385D02*
X78717200Y-102478800D01*
X78717200Y-102478800D02*
X78717200Y-104206000D01*
X78717200Y-104206000D02*
X79753585Y-105242385D01*
X79753585Y-105242385D02*
X81097028Y-105242385D01*
%TO.N,Net-(D502-DIN)*%
X76197028Y-108542385D02*
X74500800Y-110238613D01*
X72812400Y-110175000D02*
X74297600Y-110175000D01*
X74297600Y-110175000D02*
X74500800Y-110378200D01*
X74500800Y-110238613D02*
X74500800Y-110378200D01*
%TO.N,Net-(D504-DOUT)*%
X80226200Y-89078000D02*
X81097028Y-89948828D01*
X81097028Y-89948828D02*
X81097028Y-90986385D01*
X79518000Y-89078000D02*
X80226200Y-89078000D01*
%TO.N,Net-(J504-Pin_2)*%
X71691800Y-89078000D02*
X67084000Y-84470200D01*
X78018000Y-89078000D02*
X71691800Y-89078000D01*
X67084000Y-84470200D02*
X67084000Y-83219000D01*
%TO.N,+3.3V*%
D97*
X180469600Y-103589534D02*
X180469600Y-106161800D01*
D96*
X198479600Y-105845000D02*
X199863200Y-107228600D01*
X121999000Y-85730000D02*
X121999000Y-86019800D01*
D98*
X144432500Y-116646500D02*
X144820000Y-116259000D01*
D95*
X199787000Y-97348000D02*
X199787000Y-98872000D01*
D98*
X121809000Y-84432800D02*
X121897200Y-84521000D01*
D95*
X199367200Y-95024600D02*
X202759600Y-95024600D01*
D96*
X214591999Y-90683001D02*
X214591999Y-96083500D01*
D97*
X180619885Y-88938485D02*
X182501600Y-90820200D01*
D102*
X159020001Y-89589000D02*
X159540001Y-90109000D01*
D96*
X121999000Y-86019800D02*
X122608400Y-86629200D01*
D98*
X121809000Y-83378000D02*
X121809000Y-84432800D01*
D96*
X147614000Y-116259000D02*
X148211600Y-115661400D01*
D98*
X165079001Y-83096799D02*
X165079001Y-84775000D01*
D96*
X215250000Y-90025000D02*
X214591999Y-90683001D01*
D98*
X121897200Y-84521000D02*
X121999000Y-84622800D01*
X147031200Y-118416600D02*
X147031200Y-117693400D01*
D96*
X157381000Y-89589000D02*
X156453200Y-89589000D01*
D97*
X178697674Y-88938485D02*
X177423485Y-88938485D01*
D95*
X202759600Y-95024600D02*
X203500000Y-95765000D01*
D102*
X157381000Y-89589000D02*
X159020001Y-89589000D01*
D95*
X199367200Y-95646200D02*
X199926000Y-96205000D01*
D96*
X213167002Y-97221000D02*
X212692001Y-96745999D01*
D95*
X205158400Y-92699800D02*
X205158400Y-94579400D01*
D96*
X202065200Y-108555000D02*
X203230000Y-108555000D01*
X147094000Y-116259000D02*
X147614000Y-116259000D01*
D97*
X170868001Y-87266001D02*
X172367000Y-88765000D01*
D95*
X220381001Y-93792000D02*
X219484000Y-93792000D01*
D98*
X166005000Y-81981000D02*
X166005000Y-82170800D01*
X112957492Y-119471400D02*
X145976400Y-119471400D01*
D96*
X156453200Y-89589000D02*
X156085600Y-89956600D01*
X214150000Y-97221000D02*
X213167002Y-97221000D01*
X198402000Y-105845000D02*
X198479600Y-105845000D01*
D95*
X199367200Y-91925800D02*
X204384400Y-91925800D01*
X215001000Y-93814000D02*
X214642000Y-94173000D01*
D96*
X214591999Y-96083500D02*
X214591999Y-96779001D01*
X200738800Y-107228600D02*
X202065200Y-108555000D01*
D97*
X180469600Y-106161800D02*
X181180800Y-106873000D01*
D96*
X212692001Y-96083500D02*
X212239500Y-96083500D01*
D98*
X145976400Y-119471400D02*
X147031200Y-118416600D01*
D95*
X205158400Y-94579400D02*
X203972800Y-95765000D01*
D97*
X197952000Y-105845000D02*
X198402000Y-105845000D01*
D96*
X150345200Y-106019800D02*
X150345200Y-101691400D01*
X148211600Y-115661400D02*
X148211600Y-114416800D01*
D95*
X216825001Y-93814000D02*
X215001000Y-93814000D01*
D97*
X178697674Y-88938485D02*
X180619885Y-88938485D01*
D96*
X148211600Y-114416800D02*
X146967000Y-113172200D01*
X146967000Y-109398000D02*
X150345200Y-106019800D01*
D102*
X165079001Y-86859601D02*
X165079001Y-84775000D01*
D98*
X112283000Y-118796908D02*
X112957492Y-119471400D01*
D96*
X215250000Y-89015000D02*
X215250000Y-90025000D01*
D102*
X165690599Y-87266001D02*
X165588000Y-87368600D01*
D98*
X147094000Y-116259000D02*
X147094000Y-117630600D01*
D95*
X219484000Y-93792000D02*
X218976000Y-94300000D01*
X217058000Y-95316000D02*
X217058000Y-94046999D01*
D98*
X121999000Y-84622800D02*
X121999000Y-85730000D01*
D95*
X217058000Y-94046999D02*
X216825001Y-93814000D01*
X203972800Y-95765000D02*
X203500000Y-95765000D01*
D98*
X147094000Y-117630600D02*
X147031200Y-117693400D01*
D97*
X181180800Y-106873000D02*
X196924000Y-106873000D01*
D98*
X112283000Y-114264000D02*
X112283000Y-118796908D01*
D97*
X182501600Y-90820200D02*
X182501600Y-101557534D01*
D98*
X166005000Y-82170800D02*
X165079001Y-83096799D01*
D102*
X165588000Y-90109000D02*
X165588000Y-87368600D01*
D96*
X146967000Y-113172200D02*
X146967000Y-109398000D01*
D98*
X144820000Y-116259000D02*
X147094000Y-116259000D01*
D96*
X199863200Y-107228600D02*
X200738800Y-107228600D01*
D95*
X218976000Y-94300000D02*
X218976000Y-95316000D01*
D97*
X177423485Y-88938485D02*
X177250000Y-88765000D01*
D95*
X204384400Y-91925800D02*
X205158400Y-92699800D01*
D97*
X182501600Y-101557534D02*
X180469600Y-103589534D01*
D95*
X199926000Y-97209000D02*
X199787000Y-97348000D01*
D97*
X169827000Y-87266001D02*
X170868001Y-87266001D01*
D102*
X159540001Y-90109000D02*
X165588000Y-90109000D01*
D97*
X196924000Y-106873000D02*
X197952000Y-105845000D01*
D96*
X214591999Y-96779001D02*
X214150000Y-97221000D01*
X212692001Y-96745999D02*
X212692001Y-96083500D01*
X212239500Y-96083500D02*
X211737000Y-96586000D01*
D102*
X169827000Y-87266001D02*
X165690599Y-87266001D01*
D95*
X199926000Y-96205000D02*
X199926000Y-97209000D01*
D97*
X172367000Y-88765000D02*
X177250000Y-88765000D01*
D102*
X165588000Y-87368600D02*
X165079001Y-86859601D01*
D98*
X113058000Y-113489000D02*
X112283000Y-114264000D01*
D96*
X211737000Y-96586000D02*
X211737000Y-98999000D01*
D98*
X143979999Y-116646500D02*
X144432500Y-116646500D01*
D95*
X199367200Y-95024600D02*
X199367200Y-95646200D01*
%TO.N,/Sub-PSU-V4_0/ESC_SB_PWR*%
X141668749Y-83795500D02*
X141668749Y-85306749D01*
X193709485Y-101638485D02*
X193508400Y-101437400D01*
X141899000Y-85537000D02*
X141899000Y-85879200D01*
X141899000Y-85879200D02*
X142522000Y-86502200D01*
X196197674Y-101638485D02*
X193709485Y-101638485D01*
X141668749Y-85306749D02*
X141899000Y-85537000D01*
%TO.N,Net-(D605-A)*%
X82717000Y-84379000D02*
X82717000Y-85780000D01*
X82717000Y-85780000D02*
X82467000Y-86030000D01*
%TO.N,Compass+1.8V*%
D107*
X215963000Y-111900601D02*
X215428001Y-112435600D01*
D95*
X216883000Y-97269500D02*
X216883000Y-98421999D01*
D107*
X215963000Y-111307600D02*
X215963000Y-111900601D01*
D95*
X216309000Y-99507000D02*
X216944000Y-98872000D01*
X222025448Y-96205000D02*
X220960948Y-97269500D01*
X220246000Y-96205000D02*
X218400551Y-96205000D01*
D107*
X216063001Y-113070600D02*
X215428001Y-112435600D01*
D95*
X221516000Y-110268599D02*
X222159001Y-110268599D01*
X220960948Y-97269500D02*
X220439000Y-97269500D01*
D107*
X219357000Y-112427534D02*
X218713934Y-113070600D01*
D95*
X220439000Y-96398000D02*
X220246000Y-96205000D01*
X216309000Y-100912001D02*
X215285001Y-100912001D01*
X222159001Y-110268599D02*
X222659000Y-109768600D01*
X219230000Y-110268599D02*
X221516000Y-110268599D01*
X215285001Y-100912001D02*
X214642000Y-100269000D01*
X218690999Y-110807600D02*
X219230000Y-110268599D01*
D107*
X219230000Y-110268599D02*
X219230000Y-110784600D01*
D95*
X220439000Y-97269500D02*
X220439000Y-96398000D01*
D107*
X219230000Y-110784600D02*
X219357000Y-110911600D01*
D95*
X217336051Y-97269500D02*
X216883000Y-97269500D01*
X220439000Y-98353999D02*
X220994001Y-98909000D01*
D96*
X214591999Y-98358500D02*
X214591999Y-100218999D01*
D95*
X218063000Y-110807600D02*
X218690999Y-110807600D01*
X216883000Y-98421999D02*
X217333001Y-98872000D01*
X223167000Y-96459000D02*
X222913000Y-96205000D01*
X216309000Y-100912001D02*
X216309000Y-99507000D01*
X222659000Y-109768600D02*
X222659000Y-100142000D01*
D107*
X219357000Y-110911600D02*
X219357000Y-112427534D01*
D95*
X222913000Y-96205000D02*
X222025448Y-96205000D01*
X223167000Y-99634000D02*
X223167000Y-96459000D01*
D96*
X214591999Y-100218999D02*
X214642000Y-100269000D01*
D95*
X222659000Y-100142000D02*
X223167000Y-99634000D01*
X218400551Y-96205000D02*
X217336051Y-97269500D01*
D107*
X218713934Y-113070600D02*
X216063001Y-113070600D01*
D95*
X216944000Y-98872000D02*
X217333001Y-98872000D01*
X220439000Y-97269500D02*
X220439000Y-98353999D01*
%TO.N,Net-(U402-SDO{slash}AD0)*%
D107*
X216363000Y-112370601D02*
X216427999Y-112435600D01*
X216363000Y-111307600D02*
X216363000Y-112370601D01*
%TO.N,Net-(U402-REGOUT)*%
X216763000Y-111307600D02*
X216763000Y-111627342D01*
X217460000Y-112324342D02*
X217460000Y-112435600D01*
X216763000Y-111627342D02*
X217460000Y-112324342D01*
%TO.N,Net-(U402-~{CS})*%
D95*
X216363000Y-108307600D02*
X216363000Y-107359286D01*
X216363000Y-107359286D02*
X216363000Y-101965999D01*
X216363000Y-101965999D02*
X216309000Y-101911999D01*
%TO.N,SCL_LV*%
X215963000Y-108307600D02*
X215963000Y-102913314D01*
X218783000Y-97269500D02*
X218783000Y-98421999D01*
X215963000Y-102913314D02*
X215420000Y-102370314D01*
X218332999Y-98872000D02*
X217198000Y-100006999D01*
X215420000Y-102370314D02*
X215420000Y-101666000D01*
X218783000Y-98421999D02*
X218332999Y-98872000D01*
X217198000Y-100006999D02*
X217198000Y-101666000D01*
%TO.N,SDA_LV*%
X214658000Y-102174000D02*
X215563000Y-103079000D01*
X214658000Y-101793000D02*
X214658000Y-102174000D01*
X222339000Y-97269500D02*
X222339000Y-98563999D01*
X215563000Y-103079000D02*
X215563000Y-108307600D01*
X222339000Y-98563999D02*
X221993999Y-98909000D01*
X221993999Y-98909000D02*
X220506999Y-100396000D01*
X220506999Y-100396000D02*
X217833000Y-100396000D01*
%TO.N,/Top-CPU-V4.0/VSAMP_TOP*%
X94324800Y-116779000D02*
X94414400Y-116689400D01*
X44415200Y-117337800D02*
X45363000Y-117337800D01*
X93081600Y-116779000D02*
X94324800Y-116779000D01*
X92413998Y-119268202D02*
X45392400Y-119268202D01*
X45363000Y-108750000D02*
X45363000Y-110378200D01*
X93081600Y-118150600D02*
X93081600Y-118600600D01*
X93042800Y-115368600D02*
X93081600Y-115407400D01*
X93042800Y-115305800D02*
X93042800Y-115368600D01*
X93081600Y-115407400D02*
X93081600Y-118150600D01*
X93081600Y-118600600D02*
X92413998Y-119268202D01*
%TO.N,Net-(J305-Pin_2)*%
D99*
X135908831Y-87923831D02*
X129313351Y-87923831D01*
X129313351Y-87923831D02*
X126954038Y-90283144D01*
X133549518Y-90283144D02*
X135908831Y-87923831D01*
X126954038Y-90283144D02*
X133549518Y-90283144D01*
%TO.N,Net-(U301-A)*%
D95*
X159376300Y-114955700D02*
X159376300Y-114021700D01*
X161382200Y-113731000D02*
X162562600Y-114911400D01*
X159376300Y-114021700D02*
X159667000Y-113731000D01*
X159667000Y-113731000D02*
X161382200Y-113731000D01*
%TO.N,Net-(J302-Pin_1)*%
X153957800Y-117972800D02*
X152000000Y-116015000D01*
X158426301Y-117613299D02*
X158066800Y-117972800D01*
X148827000Y-112842000D02*
X152000000Y-116015000D01*
X148110000Y-112842000D02*
X148827000Y-112842000D01*
X158066800Y-117972800D02*
X153957800Y-117972800D01*
X158426301Y-117230700D02*
X158426301Y-117613299D01*
%TO.N,Net-(J302-Pin_2)*%
X148973600Y-109311400D02*
X148110000Y-110175000D01*
X160326299Y-117230700D02*
X160326299Y-116346099D01*
X155845000Y-107000000D02*
X155845000Y-107266000D01*
X155845000Y-107266000D02*
X153799600Y-109311400D01*
X148110000Y-110175000D02*
X151450000Y-113515000D01*
X157470600Y-116144000D02*
X156873000Y-116741600D01*
X160124200Y-116144000D02*
X157470600Y-116144000D01*
X155540200Y-116741600D02*
X152313600Y-113515000D01*
X152313600Y-113515000D02*
X152000000Y-113515000D01*
X151450000Y-113515000D02*
X152000000Y-113515000D01*
X160326299Y-116346099D02*
X160124200Y-116144000D01*
X156873000Y-116741600D02*
X155540200Y-116741600D01*
X153799600Y-109311400D02*
X148973600Y-109311400D01*
%TO.N,Net-(D503-DOUT)*%
X78742600Y-95214400D02*
X78742600Y-97119400D01*
X77814585Y-94286385D02*
X78742600Y-95214400D01*
X76197028Y-94286385D02*
X77814585Y-94286385D01*
X79737585Y-98114385D02*
X81097028Y-98114385D01*
X78742600Y-97119400D02*
X79737585Y-98114385D01*
%TO.N,Net-(Q303-B)*%
D98*
X121999000Y-87630000D02*
X123653000Y-87630000D01*
X123653000Y-87630000D02*
X123853000Y-87430000D01*
%TO.N,/Sub-PSU-V4_0/RX_SUB*%
D95*
X193980285Y-99098485D02*
X193358444Y-98476644D01*
D98*
X120119001Y-86680000D02*
X118531000Y-86680000D01*
D95*
X120119001Y-86680000D02*
X121211400Y-86680000D01*
D98*
X118265000Y-86946000D02*
X118265000Y-85410000D01*
X118531000Y-86680000D02*
X118265000Y-86946000D01*
D95*
X193358444Y-98476644D02*
X193358444Y-94528600D01*
X121211400Y-86680000D02*
X121236800Y-86705400D01*
X196197674Y-99098485D02*
X193980285Y-99098485D01*
%TO.N,Net-(D601-K)*%
X88547000Y-95936000D02*
X88913000Y-95936000D01*
X92433200Y-102961400D02*
X94770000Y-102961400D01*
X97579000Y-101981200D02*
X96598800Y-102961400D01*
X90022000Y-97045000D02*
X90960000Y-97045000D01*
X89486800Y-100015000D02*
X92433200Y-102961400D01*
X97579000Y-101651000D02*
X97579000Y-101981200D01*
X88547000Y-95936000D02*
X87302400Y-97180600D01*
X87302400Y-99608600D02*
X87708800Y-100015000D01*
X87302400Y-97180600D02*
X87302400Y-99608600D01*
X87708800Y-100015000D02*
X89486800Y-100015000D01*
X88913000Y-95936000D02*
X90022000Y-97045000D01*
%TO.N,/Suv-CPU-V4.0/SDA_SUB*%
X210024000Y-99015000D02*
X210024000Y-88012000D01*
X201596000Y-93265000D02*
X201336400Y-93524600D01*
X219611000Y-86553000D02*
X220313000Y-87255000D01*
X198048515Y-94018485D02*
X196197674Y-94018485D01*
X221389000Y-92395000D02*
X221389000Y-95394499D01*
X210024000Y-88012000D02*
X211483000Y-86553000D01*
X206976000Y-93399800D02*
X206936400Y-93360200D01*
X203482000Y-93265000D02*
X201596000Y-93265000D01*
X220313000Y-91319000D02*
X221389000Y-92395000D01*
X220313000Y-89203000D02*
X220313000Y-91319000D01*
X199367200Y-93524600D02*
X198542400Y-93524600D01*
X211483000Y-86553000D02*
X219611000Y-86553000D01*
X198542400Y-93524600D02*
X198048515Y-94018485D01*
X220313000Y-87255000D02*
X220313000Y-89203000D01*
X206976000Y-99015000D02*
X210024000Y-99015000D01*
X206976000Y-99015000D02*
X206976000Y-93399800D01*
X201336400Y-93524600D02*
X199367200Y-93524600D01*
%TO.N,/Suv-CPU-V4.0/SCL_SUB*%
X211991000Y-87315000D02*
X217452000Y-87315000D01*
X198261600Y-90425800D02*
X198044285Y-90208485D01*
X206072800Y-100269000D02*
X206818800Y-101015000D01*
X211102000Y-100142000D02*
X211102000Y-88204000D01*
X201360400Y-90425800D02*
X199367200Y-90425800D01*
X203482000Y-90765000D02*
X201699600Y-90765000D01*
X199367200Y-90425800D02*
X198261600Y-90425800D01*
X198044285Y-90208485D02*
X196197674Y-90208485D01*
X211102000Y-88204000D02*
X211991000Y-87315000D01*
X217813000Y-87676000D02*
X217813000Y-89203000D01*
X203482000Y-90765000D02*
X204747600Y-90765000D01*
X201699600Y-90765000D02*
X201360400Y-90425800D01*
X217813000Y-95374499D02*
X217833000Y-95394499D01*
X204747600Y-90765000D02*
X206072800Y-92090200D01*
X210024000Y-101015000D02*
X210229000Y-101015000D01*
X217452000Y-87315000D02*
X217813000Y-87676000D01*
X210229000Y-101015000D02*
X211102000Y-100142000D01*
X206072800Y-92090200D02*
X206072800Y-100269000D01*
X206976000Y-101015000D02*
X210024000Y-101015000D01*
X206818800Y-101015000D02*
X206976000Y-101015000D01*
X217813000Y-89203000D02*
X217813000Y-95374499D01*
%TO.N,EN_SUB*%
X179869600Y-106628600D02*
X180774400Y-107533400D01*
X198363200Y-108600200D02*
X198414000Y-108651000D01*
X198503600Y-108740600D02*
X198414000Y-108651000D01*
X204500000Y-109258600D02*
X203532800Y-110225800D01*
X198046400Y-107533400D02*
X198351200Y-107228600D01*
X198910000Y-110225800D02*
X198503600Y-109819400D01*
X203532800Y-110225800D02*
X198910000Y-110225800D01*
X181892000Y-101318606D02*
X179869600Y-103341006D01*
X198363200Y-107228600D02*
X198363200Y-108600200D01*
X180774400Y-107533400D02*
X198046400Y-107533400D01*
X179654685Y-90208485D02*
X181892000Y-92445800D01*
X179869600Y-103341006D02*
X179869600Y-106628600D01*
X181892000Y-92445800D02*
X181892000Y-101318606D01*
X204500000Y-108555000D02*
X204500000Y-109258600D01*
X198503600Y-109819400D02*
X198503600Y-108740600D01*
X178697674Y-90208485D02*
X179654685Y-90208485D01*
%TO.N,TX_SUB_PROG*%
X192383444Y-102436130D02*
X192458400Y-102511086D01*
X196197674Y-91478485D02*
X193273315Y-91478485D01*
X192458400Y-102511086D02*
X192458400Y-102605800D01*
X193273315Y-91478485D02*
X192383444Y-92368356D01*
X195354000Y-105501400D02*
X196725600Y-105501400D01*
X196725600Y-105501400D02*
X196878000Y-105653800D01*
X192458400Y-102605800D02*
X195354000Y-105501400D01*
X192383444Y-92368356D02*
X192383444Y-102436130D01*
%TO.N,RX_SUB_PROG*%
X192783444Y-93187556D02*
X193222515Y-92748485D01*
X192783444Y-102270444D02*
X192783444Y-93187556D01*
X200384706Y-106015000D02*
X199414706Y-105045000D01*
X195558000Y-105045000D02*
X192783444Y-102270444D01*
X203230000Y-106015000D02*
X200384706Y-106015000D01*
X199414706Y-105045000D02*
X195558000Y-105045000D01*
X193222515Y-92748485D02*
X196197674Y-92748485D01*
%TO.N,DR0_SUB*%
X197448800Y-104345000D02*
X198402000Y-104345000D01*
X203939200Y-104333000D02*
X204500000Y-104893800D01*
X204500000Y-104893800D02*
X204500000Y-106015000D01*
X197282285Y-104178485D02*
X197448800Y-104345000D01*
X198529000Y-104218000D02*
X198402000Y-104345000D01*
X199709400Y-104218000D02*
X198529000Y-104218000D01*
X199824400Y-104333000D02*
X203939200Y-104333000D01*
X199824400Y-104333000D02*
X199709400Y-104218000D01*
X196197674Y-104178485D02*
X197282285Y-104178485D01*
%TO.N,Net-(D302-K)*%
D98*
X115251000Y-83378000D02*
X116757000Y-83378000D01*
X121762404Y-82133400D02*
X117122000Y-82133400D01*
X123853000Y-85930000D02*
X123091000Y-85168000D01*
X123091000Y-85168000D02*
X123091000Y-83461996D01*
X123091000Y-83461996D02*
X121762404Y-82133400D01*
X117122000Y-82133400D02*
X116757000Y-82498400D01*
X116757000Y-82498400D02*
X116757000Y-83378000D01*
%TO.N,Net-(R603-Pad2)*%
D95*
X99076000Y-101691400D02*
X100395400Y-101691400D01*
X100395400Y-101691400D02*
X100434200Y-101730200D01*
X99091000Y-101639000D02*
X99079000Y-101651000D01*
%TO.N,Net-(R606-Pad2)*%
X99079000Y-100254000D02*
X100246000Y-100254000D01*
X100246000Y-100254000D02*
X100361000Y-100139000D01*
%TO.N,Net-(U303-BOOT)*%
X161953000Y-108639000D02*
X161941000Y-108651000D01*
X161953000Y-106681000D02*
X161953000Y-108639000D01*
%TO.N,Net-(D306-A)*%
X168955752Y-105501400D02*
X169098048Y-105501400D01*
X168684000Y-107750000D02*
X168684000Y-109933000D01*
X168353800Y-104899448D02*
X168955752Y-105501400D01*
X168353800Y-103037600D02*
X168353800Y-104899448D01*
X168684000Y-107750000D02*
X167287000Y-107750000D01*
X164493000Y-107508000D02*
X164975600Y-107990600D01*
X169471400Y-110048000D02*
X168799000Y-110048000D01*
X169098048Y-105501400D02*
X169496800Y-105900152D01*
X171190000Y-109633000D02*
X172341600Y-110784600D01*
X167414000Y-102162000D02*
X167478200Y-102162000D01*
X169886400Y-109633000D02*
X169471400Y-110048000D01*
X172341600Y-110784600D02*
X172417800Y-110784600D01*
X170462000Y-109633000D02*
X169886400Y-109633000D01*
X167478200Y-102162000D02*
X168353800Y-103037600D01*
X169496800Y-105900152D02*
X169496800Y-106937200D01*
X170462000Y-109633000D02*
X171190000Y-109633000D01*
X164493000Y-106681000D02*
X164493000Y-107508000D01*
X167046400Y-107990600D02*
X167287000Y-107750000D01*
X169496800Y-106937200D02*
X168684000Y-107750000D01*
X168684000Y-109933000D02*
X168799000Y-110048000D01*
X164975600Y-107990600D02*
X167046400Y-107990600D01*
%TO.N,Net-(U303-RT{slash}SYNC)*%
X167414000Y-104956000D02*
X166841800Y-104956000D01*
X165763000Y-106034800D02*
X165763000Y-106681000D01*
X166841800Y-104956000D02*
X165763000Y-106034800D01*
%TO.N,Net-(U303-FB)*%
X164735000Y-96725000D02*
X164747000Y-96713000D01*
X164735000Y-98110000D02*
X164735000Y-96725000D01*
X164735000Y-98110000D02*
X164735000Y-99634000D01*
X165763000Y-99888000D02*
X165509000Y-99634000D01*
X165763000Y-101731000D02*
X165763000Y-99888000D01*
X165509000Y-99634000D02*
X164735000Y-99634000D01*
%TO.N,/Sub-PSU-V4_0/buck_sw*%
X160683000Y-102809000D02*
X159746499Y-101872499D01*
D105*
X160762000Y-100729999D02*
X159746499Y-101745499D01*
X160762000Y-97348000D02*
X160762000Y-100729999D01*
D95*
X160441000Y-108131000D02*
X160810000Y-107762000D01*
D101*
X159760999Y-101731000D02*
X159286000Y-102205999D01*
X161953000Y-101731000D02*
X160762000Y-100540000D01*
X161953000Y-101731000D02*
X159760999Y-101731000D01*
D105*
X159746499Y-101745499D02*
X159286000Y-102205999D01*
D95*
X159746499Y-101872499D02*
X159746499Y-101745499D01*
X160441000Y-108651000D02*
X160441000Y-108131000D01*
D101*
X160762000Y-100540000D02*
X160762000Y-97348000D01*
%TO.N,Net-(D602-K)*%
D95*
X80163400Y-81701600D02*
X78883000Y-82982000D01*
X76724000Y-84644998D02*
X77220002Y-84644998D01*
X81070800Y-81701600D02*
X80163400Y-81701600D01*
X77220002Y-84644998D02*
X78883000Y-82982000D01*
%TO.N,Net-(Q602-B)*%
X75224000Y-83797800D02*
X75224000Y-84644998D01*
X75466000Y-83115999D02*
X75466000Y-83555800D01*
X75466000Y-83555800D02*
X75224000Y-83797800D01*
%TO.N,Net-(D307-K)*%
X167414000Y-100662000D02*
X167414000Y-99795000D01*
X167414000Y-99795000D02*
X167033000Y-99414000D01*
%TO.N,/Sub-PSU-V4_0/ON_SUB*%
X177470285Y-100368485D02*
X175796000Y-98694200D01*
X175796000Y-98694200D02*
X174018000Y-98694200D01*
X178697674Y-100368485D02*
X177470285Y-100368485D01*
X167033000Y-97314000D02*
X168438600Y-97314000D01*
X174018000Y-98694200D02*
X173306800Y-97983000D01*
X168438600Y-97314000D02*
X169293600Y-96459000D01*
%TO.N,Net-(Q302-G)*%
D98*
X124234000Y-82247000D02*
X124234000Y-81727000D01*
X125402400Y-80558600D02*
X128247200Y-80558600D01*
X129187000Y-81498400D02*
X129187000Y-82247000D01*
X125363600Y-82247000D02*
X125824000Y-82707400D01*
X125824000Y-82707400D02*
X125824000Y-83553500D01*
X124234000Y-82247000D02*
X125363600Y-82247000D01*
X128247200Y-80558600D02*
X129187000Y-81498400D01*
X124234000Y-81727000D02*
X125402400Y-80558600D01*
%TO.N,Net-(Q302-D)*%
X129859000Y-82972000D02*
X130584000Y-82247000D01*
X128713996Y-82972000D02*
X129859000Y-82972000D01*
X127420495Y-81678499D02*
X128713996Y-82972000D01*
X126774000Y-81678499D02*
X127420495Y-81678499D01*
%TO.N,Net-(Q301-B)*%
X115306600Y-88446000D02*
X116741000Y-88446000D01*
X114884500Y-87376000D02*
X114884500Y-88023900D01*
X114884500Y-88023900D02*
X115306600Y-88446000D01*
%TO.N,Net-(D309-A)*%
D95*
X149138000Y-97666099D02*
X149075099Y-97729000D01*
D98*
X149138000Y-96205000D02*
X149151500Y-96205000D01*
D95*
X149138000Y-96205000D02*
X149138000Y-97666099D01*
%TO.N,Net-(Q307-G)*%
X119928000Y-107659000D02*
X121428000Y-109159000D01*
X122995197Y-109159000D02*
X121428000Y-109159000D01*
X123333651Y-108820546D02*
X122995197Y-109159000D01*
X119928000Y-107635000D02*
X119928000Y-107659000D01*
%TO.N,Net-(Q304-D)*%
X119356000Y-109159000D02*
X118851499Y-109663501D01*
X119928000Y-109159000D02*
X119356000Y-109159000D01*
X118851499Y-109663501D02*
X118851499Y-111572000D01*
%TO.N,SWITCH_SUB*%
X196197674Y-100368485D02*
X194289315Y-100368485D01*
X194289315Y-100368485D02*
X194287200Y-100370600D01*
X196197674Y-100368485D02*
X197438915Y-100368485D01*
X198287000Y-99520400D02*
X198287000Y-97348000D01*
X197438915Y-100368485D02*
X198287000Y-99520400D01*
%TO.N,Net-(J306--)*%
X142080001Y-114371500D02*
X142080001Y-113670001D01*
X135667000Y-102682000D02*
X135667000Y-107257000D01*
D104*
X139500000Y-98872000D02*
X139500000Y-101156000D01*
D108*
X139296000Y-101158000D02*
X134143000Y-101158000D01*
D104*
X139498000Y-101158000D02*
X138077000Y-102579000D01*
X135667000Y-102682000D02*
X133000000Y-100015000D01*
X138077000Y-102682000D02*
X135667000Y-102682000D01*
D95*
X142080001Y-113390601D02*
X142080001Y-114371500D01*
X140871000Y-112461000D02*
X141150400Y-112461000D01*
D104*
X139500000Y-98872000D02*
X137976000Y-97348000D01*
D95*
X141150400Y-112461000D02*
X142080001Y-113390601D01*
D104*
X137976000Y-97348000D02*
X135667000Y-97348000D01*
D108*
X139298000Y-98872000D02*
X134143000Y-98872000D01*
D104*
X135667000Y-97348000D02*
X133000000Y-100015000D01*
X139500000Y-101156000D02*
X139498000Y-101158000D01*
X138077000Y-102579000D02*
X138077000Y-102682000D01*
D95*
X135667000Y-107257000D02*
X140871000Y-112461000D01*
%TO.N,Net-(D205-A)*%
X181892000Y-111465000D02*
X188800000Y-111465000D01*
X189911000Y-110354000D02*
X190125000Y-110354000D01*
X180319499Y-111239501D02*
X180544998Y-111465000D01*
X180544998Y-111465000D02*
X181892000Y-111465000D01*
X178971000Y-111239501D02*
X180319499Y-111239501D01*
X188800000Y-111465000D02*
X189911000Y-110354000D01*
%TO.N,Net-(U302-A)*%
X159082800Y-83256500D02*
X159082800Y-81789800D01*
X159082800Y-81789800D02*
X158639000Y-81346000D01*
%TO.N,/Sub-PSU-V4_0/ESC_SB*%
X157139000Y-81346000D02*
X157139000Y-81383400D01*
X157100200Y-81422200D02*
X156720600Y-81801800D01*
X181282400Y-101073759D02*
X181282400Y-92699800D01*
X157139000Y-81383400D02*
X157177800Y-81422200D01*
X179447674Y-102908485D02*
X181282400Y-101073759D01*
X157177800Y-81422200D02*
X157100200Y-81422200D01*
X156720600Y-81801800D02*
X156720600Y-82565200D01*
X178697674Y-102908485D02*
X179447674Y-102908485D01*
%TO.N,EN_TOP*%
D98*
X40668000Y-84927400D02*
X39386000Y-86209400D01*
X39386000Y-86209400D02*
X39386000Y-88381800D01*
D95*
X39386000Y-89078000D02*
X38752600Y-89078000D01*
X38752600Y-89078000D02*
X38737600Y-89093000D01*
D98*
X40668000Y-84252000D02*
X40668000Y-84927400D01*
X39386000Y-88381800D02*
X39386000Y-89078000D01*
%TO.N,/Sub-PSU-V4_0/ESC_BB*%
D95*
X170055600Y-117947400D02*
X163146800Y-117947400D01*
X162562600Y-117363200D02*
X162562600Y-116411400D01*
X173675000Y-114328000D02*
X170055600Y-117947400D01*
X173662400Y-107889000D02*
X173675000Y-107901600D01*
X163146800Y-117947400D02*
X162562600Y-117363200D01*
X178697674Y-97828485D02*
X177803783Y-97828485D01*
X173675000Y-107901600D02*
X173675000Y-114328000D01*
X177803783Y-97828485D02*
X177050470Y-98581798D01*
%TO.N,Net-(Q308-G)*%
X134890000Y-93931000D02*
X128933000Y-93931000D01*
X139951749Y-88869251D02*
X134890000Y-93931000D01*
X139951749Y-83354000D02*
X139951749Y-88869251D01*
X126805197Y-94681000D02*
X128183000Y-94681000D01*
X126027728Y-93903531D02*
X126805197Y-94681000D01*
X128933000Y-93931000D02*
X128183000Y-94681000D01*
%TO.N,/Top-CPU-V4.0/RX_TOP*%
X73586001Y-83200599D02*
X73434000Y-83352600D01*
X72164000Y-86042000D02*
X72164000Y-88483400D01*
X73434000Y-84772000D02*
X72164000Y-86042000D01*
X73586001Y-82165999D02*
X73586001Y-83200599D01*
X73434000Y-83352600D02*
X73434000Y-84772000D01*
%TO.N,Net-(D501-A)*%
X84049400Y-100728000D02*
X84601899Y-100175501D01*
X85372000Y-102084000D02*
X91797000Y-108509000D01*
X83467000Y-100728000D02*
X84049400Y-100728000D01*
X85372000Y-100175501D02*
X85372000Y-102084000D01*
X84601899Y-100175501D02*
X85372000Y-100175501D01*
X91797000Y-108509000D02*
X92051000Y-108509000D01*
%TO.N,DR0_TOP*%
D98*
X53876000Y-88889800D02*
X54253000Y-89266800D01*
X53876000Y-85130600D02*
X53876000Y-88889800D01*
X43208000Y-84252000D02*
X43208000Y-87512000D01*
X54253000Y-89266800D02*
X54253000Y-91250000D01*
X43208000Y-87512000D02*
X43250000Y-87554000D01*
%TO.N,Net-(J303-Pin_2)*%
D95*
X155718000Y-91316200D02*
X155718000Y-93030000D01*
X159692400Y-84394000D02*
X157546800Y-84394000D01*
X147957600Y-90312200D02*
X154714000Y-90312200D01*
X152000000Y-86515000D02*
X155425800Y-86515000D01*
X154714000Y-90312200D02*
X155718000Y-91316200D01*
X157546800Y-84394000D02*
X156644400Y-85296400D01*
X160032799Y-84734399D02*
X159692400Y-84394000D01*
X147094000Y-87480451D02*
X147094000Y-89448600D01*
X160032799Y-85531500D02*
X160032799Y-84734399D01*
X147094000Y-89448600D02*
X147957600Y-90312200D01*
X148089523Y-86484928D02*
X147094000Y-87480451D01*
X155425800Y-86515000D02*
X156644400Y-85296400D01*
X151969928Y-86484928D02*
X148089523Y-86484928D01*
X152000000Y-86515000D02*
X151969928Y-86484928D01*
%TO.N,Net-(Q305-D)*%
X139951749Y-81854000D02*
X142552250Y-81854000D01*
X142552250Y-81854000D02*
X142618749Y-81920499D01*
%TO.N,Net-(Q604-G)*%
X97056000Y-112867400D02*
X97806000Y-113617400D01*
X96332800Y-112867400D02*
X97056000Y-112867400D01*
X97955200Y-114743800D02*
X97806000Y-114594600D01*
X97955200Y-116349500D02*
X97955200Y-114743800D01*
X97806000Y-113617400D02*
X97806000Y-114594600D01*
%TO.N,Net-(Q604-D)*%
X96970099Y-118189400D02*
X97005200Y-118224501D01*
X94414400Y-118189400D02*
X96970099Y-118189400D01*
%TO.N,Net-(D203-DOUT)*%
X171060000Y-101046000D02*
X171060000Y-101756000D01*
X173670000Y-104366000D02*
X175960000Y-104366000D01*
X171060000Y-101756000D02*
X173670000Y-104366000D01*
%TO.N,Net-(D305-A)*%
X154218000Y-93030000D02*
X152802500Y-93030000D01*
X152802500Y-93030000D02*
X152787500Y-93015000D01*
%TO.N,/Sub-PSU-V4_0/ESC_BB_PWR*%
X178697674Y-99098485D02*
X180162685Y-99098485D01*
X180162685Y-99098485D02*
X180571200Y-99507000D01*
X124450600Y-112322000D02*
X130025200Y-117896600D01*
X122383000Y-112522000D02*
X122583000Y-112322000D01*
X128450400Y-116321800D02*
X130025200Y-117896600D01*
X120726500Y-112522000D02*
X122383000Y-112522000D01*
X122583000Y-112322000D02*
X124450600Y-112322000D01*
%TO.N,LEDS_TOP*%
X71312400Y-110175000D02*
X69624000Y-110175000D01*
%TO.N,Net-(Q603-G)*%
X87528700Y-118021300D02*
X87341200Y-117833800D01*
X88079600Y-118021300D02*
X87528700Y-118021300D01*
X87341200Y-117833800D02*
X86540400Y-117833800D01*
%TO.N,Net-(Q603-D)*%
X90119501Y-116146299D02*
X89029600Y-116146299D01*
X94832800Y-112867400D02*
X93398400Y-112867400D01*
X93398400Y-112867400D02*
X90119501Y-116146299D01*
%TO.N,/Sub-PSU-V4_0/VSAMP_SUB*%
X119154000Y-116029000D02*
X119154000Y-114493000D01*
X123726000Y-116029000D02*
X127192400Y-116029000D01*
X127192400Y-116029000D02*
X128856800Y-117693400D01*
X180264285Y-95288485D02*
X180317200Y-95341400D01*
X178697674Y-95288485D02*
X180264285Y-95288485D01*
X119154000Y-116029000D02*
X123726000Y-116029000D01*
%TO.N,Net-(Q605-B)*%
X78465500Y-85207000D02*
X77674000Y-85207000D01*
X77674000Y-85207000D02*
X76724000Y-86157000D01*
%TO.N,Net-(Q310-D)*%
D98*
X115265500Y-117541000D02*
X117618000Y-117541000D01*
X117618000Y-117541000D02*
X117630000Y-117529000D01*
%TO.N,Net-(Q311-G)*%
D95*
X117056000Y-111899000D02*
X116856000Y-111699000D01*
X117056000Y-113555500D02*
X117056000Y-114376200D01*
X117056000Y-113555500D02*
X117056000Y-111899000D01*
X117630000Y-114950200D02*
X117630000Y-116029000D01*
X117056000Y-114376200D02*
X117630000Y-114950200D01*
%TO.N,Net-(U305-REF)*%
D98*
X143030000Y-117541000D02*
X143030000Y-116646500D01*
X142280000Y-118291000D02*
X143030000Y-117541000D01*
X143414401Y-117693400D02*
X143030000Y-117308999D01*
X139067600Y-118291000D02*
X142280000Y-118291000D01*
X145531200Y-117693400D02*
X143414401Y-117693400D01*
X143030000Y-117308999D02*
X143030000Y-116646500D01*
%TO.N,Net-(J304-Pin_2)*%
D99*
X126954038Y-109746856D02*
X133095102Y-109746856D01*
X129313351Y-112106169D02*
X135454415Y-112106169D01*
X126954038Y-109746856D02*
X129313351Y-112106169D01*
X133095102Y-109746856D02*
X135454415Y-112106169D01*
%TO.N,/Top-CPU-V4.0/RADIO_2*%
D95*
X46633000Y-91250000D02*
X46633000Y-89579600D01*
X46633000Y-89579600D02*
X47018000Y-89194600D01*
%TO.N,Net-(D306-K)*%
X168799000Y-111445000D02*
X168303000Y-111941000D01*
X131510400Y-83747000D02*
X134444800Y-80812600D01*
X168799000Y-111445000D02*
X170174000Y-111445000D01*
X146078000Y-90058200D02*
X150243600Y-94223800D01*
X168303000Y-111941000D02*
X168303000Y-114366000D01*
X150243600Y-94223800D02*
X152123200Y-94223800D01*
X170174000Y-111445000D02*
X170462000Y-111733000D01*
X134444800Y-80812600D02*
X144503200Y-80812600D01*
X146078000Y-82387400D02*
X146078000Y-90058200D01*
X130584000Y-83747000D02*
X131510400Y-83747000D01*
X144503200Y-80812600D02*
X146078000Y-82387400D01*
%TO.N,Net-(R315-Pad2)*%
X167299000Y-110048000D02*
X167299000Y-111445000D01*
%TO.N,TX_TOP_PROG*%
D98*
X41553000Y-86125200D02*
X41938000Y-85740200D01*
X41553000Y-91250000D02*
X41553000Y-86125200D01*
X41938000Y-85740200D02*
X41938000Y-84252000D01*
%TO.N,RX_TOP_PROG*%
X43975000Y-87130996D02*
X43975000Y-88580000D01*
X44274800Y-86831196D02*
X43975000Y-87130996D01*
X44274800Y-83454200D02*
X44274800Y-86831196D01*
X43802600Y-82982000D02*
X44274800Y-83454200D01*
X42823000Y-89732000D02*
X42823000Y-91250000D01*
X43208000Y-82982000D02*
X43802600Y-82982000D01*
X43975000Y-88580000D02*
X42823000Y-89732000D01*
%TO.N,Net-(J303-Pin_1)*%
D96*
X158132801Y-85531500D02*
X158132801Y-86055199D01*
D95*
X148110000Y-88966000D02*
X151951000Y-88966000D01*
D96*
X157330200Y-86857800D02*
X156771400Y-86857800D01*
X154614200Y-89015000D02*
X152000000Y-89015000D01*
D95*
X151951000Y-88966000D02*
X152000000Y-89015000D01*
D96*
X156771400Y-86857800D02*
X154614200Y-89015000D01*
X158132801Y-86055199D02*
X157330200Y-86857800D01*
%TO.N,Net-(Q501-G)*%
D95*
X48476000Y-113020000D02*
X48542000Y-112954000D01*
X48476000Y-114810500D02*
X48476000Y-113020000D01*
%TO.N,Net-(J502-Pin_3)*%
X48838699Y-116685501D02*
X50523200Y-115001000D01*
X53672800Y-111749800D02*
X53672800Y-113934200D01*
X50523200Y-115001000D02*
X50523200Y-111851400D01*
X51031200Y-111343400D02*
X53266400Y-111343400D01*
X55886800Y-114442200D02*
X57392000Y-112937000D01*
X54180800Y-114442200D02*
X55886800Y-114442200D01*
X53672800Y-113934200D02*
X54180800Y-114442200D01*
X47526000Y-116685501D02*
X48838699Y-116685501D01*
X50523200Y-111851400D02*
X51031200Y-111343400D01*
X53266400Y-111343400D02*
X53672800Y-111749800D01*
%TO.N,Net-(R311-Pad1)*%
X170233400Y-116398000D02*
X169053000Y-116398000D01*
X170843000Y-114366000D02*
X170843000Y-115788400D01*
X170843000Y-115788400D02*
X170233400Y-116398000D01*
%TO.N,BUTTON_LIGHT_TOP*%
X48542000Y-110683000D02*
X48542000Y-111454000D01*
X49173000Y-108750000D02*
X49173000Y-110052000D01*
X49173000Y-110052000D02*
X48542000Y-110683000D01*
%TO.N,Net-(Q502-G)*%
X86322000Y-96644000D02*
X86122000Y-96444000D01*
X86322000Y-98300500D02*
X86322000Y-96644000D01*
%TO.N,Net-(D602-A)*%
X78883000Y-81343000D02*
X77244000Y-82982000D01*
X78883000Y-81232000D02*
X78883000Y-81343000D01*
%TO.N,/Sub-PSU-V4_0/TX_SUB*%
X194035315Y-97828485D02*
X194009934Y-97803104D01*
X194009934Y-97803104D02*
X194009934Y-94071400D01*
X196197674Y-97828485D02*
X194035315Y-97828485D01*
D98*
X116741000Y-86946000D02*
X116741000Y-85410000D01*
%TO.N,Net-(J502-Pin_2)*%
D95*
X46985449Y-115848000D02*
X45184600Y-115848000D01*
X50675600Y-110886200D02*
X49812000Y-111749800D01*
X47244897Y-115588552D02*
X46985449Y-115848000D01*
X45184600Y-115848000D02*
X45087600Y-115751000D01*
X48816552Y-115848000D02*
X48135448Y-115848000D01*
X48135448Y-115848000D02*
X47876000Y-115588552D01*
X53571200Y-110886200D02*
X50675600Y-110886200D01*
X54892000Y-112937000D02*
X54892000Y-112207000D01*
X49812000Y-114852552D02*
X48816552Y-115848000D01*
X54892000Y-112207000D02*
X53571200Y-110886200D01*
X49812000Y-111749800D02*
X49812000Y-114852552D01*
X47876000Y-115588552D02*
X47244897Y-115588552D01*
%TO.N,/Top-CPU-V4.0/TX_TOP*%
X73027600Y-87873800D02*
X75031200Y-87873800D01*
X75031200Y-87873800D02*
X75224000Y-87681000D01*
X40283000Y-88512800D02*
X40283000Y-91250000D01*
X40312400Y-87873800D02*
X40312400Y-88483400D01*
X75224000Y-86157000D02*
X75224000Y-87681000D01*
X40312400Y-88483400D02*
X40283000Y-88512800D01*
%TO.N,Net-(D304-A)*%
X154345000Y-107000000D02*
X152802500Y-107000000D01*
X152802500Y-107000000D02*
X152787500Y-107015000D01*
%TO.N,Net-(Q201-G)*%
X179921000Y-107962000D02*
X179594000Y-107635000D01*
X179921000Y-109364500D02*
X179921000Y-107962000D01*
%TO.N,BUZZER_SUB*%
X178697674Y-104178485D02*
X178697674Y-105241326D01*
X178094000Y-105845000D02*
X178094000Y-107635000D01*
X178697674Y-105241326D02*
X178094000Y-105845000D01*
%TO.N,Net-(D201-A)*%
D98*
X164505000Y-81981000D02*
X162994500Y-81981000D01*
%TO.N,Net-(D302-A)*%
X118757000Y-83378000D02*
X120309000Y-83378000D01*
%TO.N,BUTTON_TOP*%
D95*
X42823000Y-109028000D02*
X44071600Y-110276600D01*
X44071600Y-110276600D02*
X44071600Y-112613400D01*
X42823000Y-108750000D02*
X42823000Y-109028000D01*
X45087600Y-114251000D02*
X45087600Y-112942000D01*
X44071600Y-112613400D02*
X44400200Y-112942000D01*
X44400200Y-112942000D02*
X46560800Y-112942000D01*
%TO.N,Net-(Q311-D)*%
X117274400Y-116728200D02*
X116664800Y-116728200D01*
X119154000Y-117529000D02*
X118354000Y-116729000D01*
X118354000Y-116729000D02*
X117275200Y-116729000D01*
X117275200Y-116729000D02*
X117274400Y-116728200D01*
X116106000Y-116169400D02*
X116106000Y-115430501D01*
X116664800Y-116728200D02*
X116106000Y-116169400D01*
%TO.N,Net-(Q310-G)*%
D98*
X113390500Y-116591000D02*
X113390500Y-115993900D01*
X113390500Y-115993900D02*
X113058000Y-115661400D01*
X113058000Y-115661400D02*
X113058000Y-114989000D01*
%TO.N,/Sub-PSU-V4_0/Imon*%
D95*
X143979999Y-111638001D02*
X148745000Y-106873000D01*
X179654685Y-91478485D02*
X180368000Y-92191800D01*
X143979999Y-114371500D02*
X143979999Y-111638001D01*
X149838000Y-95696200D02*
X150548400Y-94985800D01*
X149838000Y-101279361D02*
X149838000Y-95696200D01*
X178697674Y-91478485D02*
X179654685Y-91478485D01*
X148745000Y-106873000D02*
X148745000Y-102372361D01*
X180368000Y-92191800D02*
X180368000Y-94274600D01*
X148745000Y-102372361D02*
X149838000Y-101279361D01*
%TO.N,/Top-CPU-V4.0/RADIO_5*%
X55503000Y-104445000D02*
X56924000Y-104445000D01*
%TO.N,/Top-CPU-V4.0/RADIO_4*%
X49761200Y-92699800D02*
X56619200Y-92699800D01*
X60886400Y-93817400D02*
X60886400Y-92113600D01*
X60327600Y-94376200D02*
X60886400Y-93817400D01*
X49173000Y-92111600D02*
X49761200Y-92699800D01*
X49173000Y-91250000D02*
X49173000Y-92111600D01*
X58295600Y-94376200D02*
X59464000Y-94376200D01*
X56619200Y-92699800D02*
X58295600Y-94376200D01*
X60886400Y-92113600D02*
X61000000Y-92000000D01*
%TO.N,Net-(D202-DOUT)*%
X172636437Y-94422437D02*
X175960000Y-97746000D01*
X171059874Y-94422437D02*
X172636437Y-94422437D01*
%TO.N,/Top-CPU-V4.0/TX_GPS*%
D98*
X50908000Y-85101400D02*
X50443000Y-85566400D01*
X50908000Y-83236000D02*
X50908000Y-85101400D01*
X50443000Y-85566400D02*
X50443000Y-91250000D01*
%TO.N,/Top-CPU-V4.0/RX_GPS*%
D95*
X53408000Y-83236000D02*
X53408000Y-84176200D01*
X51713000Y-85871200D02*
X51713000Y-91250000D01*
X53408000Y-84176200D02*
X51713000Y-85871200D01*
%TO.N,BUZZER_TOP*%
X84622000Y-96444000D02*
X83629800Y-96444000D01*
X52983000Y-91250000D02*
X52983000Y-89927200D01*
X52983000Y-89927200D02*
X52961600Y-89905800D01*
X83629800Y-96444000D02*
X83441600Y-96255800D01*
%TO.N,/Top-CPU-V4.0/RADIO_6*%
X67000000Y-106027000D02*
X67000000Y-108000000D01*
X56528000Y-95555000D02*
X67000000Y-106027000D01*
%TO.N,/Top-CPU-V4.0/RADIO_5*%
X65000000Y-105246200D02*
X65000000Y-108000000D01*
%TO.N,/Top-CPU-V4.0/RADIO_6*%
X55503000Y-95555000D02*
X56528000Y-95555000D01*
%TO.N,/Top-CPU-V4.0/RADIO_5*%
X64198800Y-104445000D02*
X65000000Y-105246200D01*
X56924000Y-104445000D02*
X64198800Y-104445000D01*
%TO.N,GND*%
D97*
X61000000Y-108000000D02*
X61000000Y-106275400D01*
X61000000Y-106275400D02*
X60988000Y-106263400D01*
%TD*%
M02*
