M48
; DRILL file KiCad 10.0.1 date 2026-09-20T12:30:31
; FORMAT={-:-/ absolute / inch / decimal}
; #@! TF.CreationDate,2026-09-20T12:30:31+02:00
; #@! TF.GenerationSoftware,Kicad,Pcbnew,10.0.1
; #@! TF.FileFunction,Plated,1,4,PTH
FMAT,2
INCH
; #@! TA.AperFunction,Plated,PTH,ComponentDrill
T1C0.0079
; #@! TA.AperFunction,Plated,PTH,ViaDrill
T2C0.0098
; #@! TA.AperFunction,Plated,PTH,ViaDrill
T3C0.0118
; #@! TA.AperFunction,Plated,PTH,ViaDrill
T4C0.0157
; #@! TA.AperFunction,Plated,PTH,ComponentDrill
T5C0.0256
; #@! TA.AperFunction,Plated,PTH,ComponentDrill
T6C0.0354
; #@! TA.AperFunction,Plated,PTH,ComponentDrill
T7C0.0354
; #@! TA.AperFunction,Plated,PTH,ComponentDrill
T8C0.0374
; #@! TA.AperFunction,Plated,PTH,ComponentDrill
T9C0.0394
; #@! TA.AperFunction,Plated,PTH,ComponentDrill
T10C0.1299
; #@! TA.AperFunction,Plated,PTH,ComponentDrill
T11C0.1772
%
G90
G05
T1
X3.7461Y-3.5419
X3.7461Y-3.597
X3.8012Y-3.5419
X3.8012Y-3.597
X3.8563Y-3.5419
X3.8563Y-3.597
X6.396Y-4.075
X6.396Y-4.1302
X6.4511Y-4.075
X6.4511Y-4.1302
X6.5062Y-4.075
X6.5062Y-4.1302
T2
X1.5251Y-3.5076
X1.5311Y-3.6776
X1.5871Y-3.4596
X1.6471Y-4.6196
X1.7859Y-4.3456
X1.7859Y-4.6196
X1.7871Y-4.6956
X1.8071Y-3.4876
X1.8331Y-4.3536
X1.8511Y-3.5116
X2.0851Y-3.5396
X2.1011Y-3.7176
X2.1111Y-3.7976
X2.1271Y-4.1616
X2.2411Y-4.112
X2.3411Y-3.7476
X2.3811Y-3.7976
X2.4111Y-4.5496
X2.4811Y-3.7176
X2.5011Y-3.7576
X2.6811Y-3.8076
X2.7411Y-4.3376
X2.7831Y-3.6956
X2.7831Y-4.4716
X2.8411Y-3.4836
X2.8751Y-3.4596
X2.8911Y-3.4316
X2.9211Y-3.3016
X2.9999Y-4.0988
X3.0031Y-3.8196
X3.0432Y-3.4294
X3.1642Y-4.6127
X3.2731Y-4.6116
X3.2851Y-3.7896
X3.2871Y-3.8696
X3.4311Y-4.0476
X3.5771Y-3.8596
X3.6056Y-4.5596
X3.6771Y-3.8836
X3.6812Y-3.492
X3.6812Y-3.707
X3.7311Y-4.0536
X3.7511Y-3.8356
X3.8031Y-4.0536
X3.8191Y-3.8676
X4.0371Y-3.9776
X4.0391Y-3.8136
X4.3251Y-3.4116
X4.4631Y-4.6296
X4.4685Y-3.5439
X4.4731Y-3.3656
X4.5911Y-3.1876
X4.6931Y-3.4836
X4.7031Y-4.3556
X4.7244Y-3.5439
X4.7731Y-3.4136
X4.8511Y-3.1776
X4.9079Y-4.6224
X5.1511Y-3.1676
X5.1969Y-3.2486
X5.1971Y-3.3226
X5.2953Y-3.2486
X5.4331Y-3.2683
X5.7087Y-3.3077
X5.7087Y-3.4848
X5.8661Y-3.2486
X5.9055Y-3.3667
X5.9131Y-3.6636
X5.9311Y-3.1676
X5.9891Y-3.7096
X6.2271Y-3.457
X6.2331Y-3.5916
X6.3211Y-3.1676
X6.3261Y-4.0476
X6.3311Y-4.2426
X6.3371Y-3.457
X6.383Y-3.4096
X6.5272Y-4.4276
X6.5311Y-4.2926
X6.5546Y-4.1816
X6.5945Y-3.7604
X6.6244Y-3.2343
X6.6411Y-3.1776
X6.6651Y-4.0956
X6.7301Y-3.3442
X6.7611Y-3.1876
X6.7811Y-3.2876
X6.7911Y-3.3476
X6.923Y-3.6897
X6.9271Y-4.2016
X6.9811Y-3.4515
X6.9861Y-4.0066
X7.0911Y-3.4516
X7.1767Y-4.0631
X7.185Y-3.5045
X7.2244Y-3.4455
X7.2613Y-4.0354
X7.3031Y-4.2722
X7.3425Y-4.3313
X7.346Y-3.7407
X7.4016Y-3.5045
X7.4606Y-3.4652
X7.4606Y-3.5242
X7.5394Y-3.8982
X7.5415Y-3.7794
X7.5984Y-3.5242
X7.6125Y-3.7216
X7.6382Y-3.7036
X7.6651Y-3.4536
X7.7751Y-3.4516
X7.8711Y-4.3096
X8.3361Y-3.8976
X8.4111Y-3.747
X8.4511Y-4.0076
X8.4811Y-4.0026
X8.5456Y-3.7526
X8.5511Y-4.0026
X8.5611Y-4.0426
X8.5761Y-3.9526
X8.6161Y-4.3966
X8.6211Y-3.7526
X8.6532Y-4.3174
X8.6761Y-4.0426
T3
X1.4368Y-3.9964
X1.437Y-3.1896
X1.437Y-3.3274
X1.437Y-3.7604
X1.437Y-3.7998
X1.437Y-3.8392
X1.437Y-3.8785
X1.437Y-3.9179
X1.437Y-3.9573
X1.437Y-4.036
X1.437Y-4.0754
X1.437Y-4.1148
X1.437Y-4.1541
X1.437Y-4.1935
X1.437Y-4.2329
X1.4416Y-3.4055
X1.4461Y-4.6526
X1.4516Y-4.3866
X1.4516Y-4.4446
X1.4516Y-4.4986
X1.4567Y-3.2683
X1.4567Y-4.6856
X1.4631Y-4.3236
X1.4764Y-3.977
X1.4764Y-4.6266
X1.4961Y-4.6659
X1.5354Y-3.3274
X1.5551Y-4.6856
X1.5748Y-3.2093
X1.5945Y-3.4061
X1.6142Y-3.977
X1.6142Y-4.1148
X1.6339Y-4.7053
X1.6535Y-4.1738
X1.6732Y-3.4061
X1.6892Y-4.4606
X1.7126Y-3.7998
X1.7323Y-3.6817
X1.7323Y-4.1935
X1.7834Y-4.1581
X1.7913Y-3.4061
X1.8307Y-3.2093
X1.8504Y-3.3077
X1.8504Y-3.6817
X1.8727Y-3.386
X1.9094Y-4.1935
X1.9291Y-3.7801
X1.9488Y-3.9573
X2.0276Y-3.8589
X2.0276Y-4.1532
X2.0411Y-3.9876
X2.0669Y-3.7801
X2.0669Y-4.0754
X2.1654Y-4.6659
X2.2047Y-3.5833
X2.3622Y-3.3864
X2.4016Y-3.2683
X2.4016Y-4.6659
X2.4051Y-4.3116
X2.4116Y-4.3706
X2.4116Y-4.4256
X2.4116Y-4.4816
X2.5025Y-3.386
X2.5591Y-3.1896
X2.6772Y-4.6463
X2.7953Y-3.3864
X2.815Y-3.3274
X2.8174Y-3.209
X3.0216Y-4.4091
X3.0315Y-4.6659
X3.3375Y-3.6232
X3.3417Y-3.4806
X3.3417Y-3.5356
X3.3858Y-4.4297
X3.4011Y-4.1976
X3.4252Y-4.3707
X3.4271Y-3.6956
X3.4451Y-3.6306
X3.4843Y-4.0754
X3.5523Y-4.2869
X3.563Y-4.3904
X3.5761Y-3.6027
X3.5892Y-4.0949
X3.6112Y-3.7136
X3.6781Y-3.807
X3.7039Y-3.9694
X3.7205Y-4.5085
X3.8158Y-4.3699
X3.8976Y-4.0951
X3.8976Y-4.2132
X3.9011Y-4.6465
X3.9173Y-4.5085
X3.937Y-3.1699
X3.937Y-3.3077
X3.9567Y-3.4455
X3.9764Y-3.7801
X3.9764Y-3.8767
X3.9911Y-3.6976
X3.9961Y-3.3864
X4.0671Y-3.5242
X4.0748Y-3.4061
X4.0748Y-4.6856
X4.0763Y-4.4683
X4.0935Y-3.9376
X4.0945Y-3.1699
X4.0945Y-3.347
X4.0945Y-3.7801
X4.0945Y-4.0557
X4.0945Y-4.2526
X4.0945Y-4.3313
X4.1929Y-3.1699
X4.1929Y-4.7053
X4.2071Y-3.7056
X4.2126Y-3.4848
X4.2126Y-4.4494
X4.2135Y-3.9376
X4.2157Y-4.0722
X4.2717Y-4.3116
X4.2913Y-4.036
X4.311Y-3.8392
X4.3701Y-3.5242
X4.3701Y-4.4494
X4.4094Y-3.2289
X4.4291Y-4.351
X4.5669Y-3.5439
X4.5961Y-3.3626
X4.6372Y-4.0867
X4.6963Y-4.0276
X4.8031Y-4.4888
X4.8271Y-3.4106
X5.0731Y-4.6336
X5.1191Y-4.6416
X5.1378Y-4.5675
X5.1575Y-4.1541
X5.2362Y-4.1541
X5.374Y-3.686
X5.392Y-4.6086
X5.5118Y-4.4888
X5.6111Y-3.4056
X5.6496Y-4.351
X5.9191Y-4.0036
X5.9252Y-4.2496
X5.9271Y-3.7396
X5.9521Y-3.8866
X5.9531Y-4.1546
X6.0236Y-4.1541
X6.0827Y-4.1541
X6.1024Y-4.4691
X6.1363Y-4.3368
X6.1384Y-3.24
X6.1451Y-3.5416
X6.1701Y-3.2506
X6.2008Y-3.8195
X6.2008Y-4.2329
X6.3341Y-3.2826
X6.3386Y-4.4297
X6.6651Y-3.7976
X6.6929Y-4.2722
X6.752Y-4.41
X6.7717Y-4.1541
X6.8111Y-3.4356
X6.8231Y-3.8576
X6.8307Y-3.9967
X6.8371Y-4.2476
X6.9094Y-4.4888
X6.9211Y-3.4356
X6.9291Y-4.1541
X6.9291Y-4.3313
X6.9705Y-3.8812
X7.0866Y-3.4061
X7.0991Y-3.7536
X7.1011Y-3.7116
X7.1091Y-3.9176
X7.126Y-3.4061
X7.1371Y-3.6496
X7.185Y-3.4061
X7.2441Y-3.4061
X7.2601Y-3.6536
X7.2621Y-3.8256
X7.2835Y-3.5242
X7.3031Y-3.4061
X7.3031Y-4.4415
X7.3031Y-4.6463
X7.3425Y-3.8982
X7.3425Y-4.0754
X7.3622Y-3.4061
X7.4213Y-3.4061
X7.4213Y-3.8785
X7.4281Y-3.6556
X7.4321Y-3.8276
X7.4606Y-3.9376
X7.4803Y-3.4061
X7.5197Y-4.0754
X7.5394Y-3.4061
X7.5394Y-4.4494
X7.6181Y-3.4061
X7.6184Y-3.9936
X7.6378Y-4.5675
X7.6378Y-4.6856
X7.6491Y-3.9516
X7.6969Y-3.4061
X7.7362Y-4.3116
X7.7511Y-4.1596
X7.7756Y-3.4061
X7.815Y-3.4515
X7.8543Y-3.4061
X7.874Y-3.5045
X7.874Y-4.41
X7.9134Y-3.977
X7.9134Y-4.5085
X7.9311Y-3.7156
X7.9331Y-3.4061
X7.9331Y-3.8392
X7.9331Y-4.3116
X7.9724Y-3.4455
X7.9724Y-4.036
X7.9791Y-3.9366
X8.0906Y-4.4297
X8.0971Y-3.9776
X8.1102Y-3.5242
X8.1299Y-3.4258
X8.1299Y-4.7053
X8.1471Y-3.6756
X8.1496Y-4.0557
X8.1496Y-4.1738
T4
X1.4516Y-4.5711
X1.4831Y-3.6556
X1.4871Y-4.2216
X1.6431Y-4.3956
X1.6431Y-4.5256
X1.6921Y-3.8896
X1.6941Y-4.0516
X1.7751Y-3.9709
X1.8411Y-4.2176
X1.8561Y-3.8906
X1.8571Y-4.0516
X2.1211Y-3.3516
X2.2211Y-4.3376
X2.2391Y-4.1626
X2.2651Y-3.6176
X2.2913Y-4.3071
X2.3228Y-3.5576
X2.3231Y-4.1876
X2.3251Y-3.6876
X2.4011Y-4.1836
X2.5011Y-3.5176
X2.5011Y-4.1676
X2.6011Y-4.3696
X2.6021Y-4.497
X2.7311Y-4.0276
X2.7511Y-4.4476
X2.7811Y-3.9376
X2.7991Y-4.5836
X2.8411Y-4.0276
X2.8451Y-4.4096
X2.8751Y-3.6896
X2.9271Y-3.6216
X3.0011Y-3.6276
X3.1951Y-3.6656
X3.2911Y-4.4916
X3.3691Y-3.5876
X5.7361Y-3.7356
X5.7361Y-3.8536
X5.7361Y-3.9376
X5.7361Y-4.0356
X5.7361Y-4.1676
X6.0171Y-4.1016
X6.0651Y-4.1016
X6.0731Y-4.0516
X6.1151Y-4.1016
X6.1591Y-4.1096
X6.1911Y-4.1376
X6.2611Y-4.1216
X6.2691Y-4.2716
X6.2751Y-4.3136
X6.2911Y-4.3536
X6.4567Y-4.5281
X6.4571Y-4.4296
X6.4591Y-4.4796
X8.4091Y-3.9476
T5
X1.6011Y-3.267
X1.6011Y-3.317
X1.6511Y-3.267
X1.6511Y-3.317
X1.7011Y-3.267
X1.7011Y-3.317
X8.0012Y-4.1738
X8.0012Y-4.2238
X8.0012Y-4.2738
X8.0512Y-4.1738
X8.0512Y-4.2238
X8.0512Y-4.2738
T6
X2.9331Y-4.3456
X3.3711Y-3.6776
X5.8411Y-3.9376
T7
X3.3612Y-4.2722
X3.6171Y-4.2722
X7.4852Y-4.3446
X7.4852Y-4.6006
T8
X2.0043Y-3.277
X2.0627Y-4.4463
X2.1027Y-3.277
X2.1611Y-4.4463
X2.2011Y-3.277
X2.2595Y-4.4463
X2.2995Y-3.277
X2.5427Y-3.2763
X2.6411Y-3.2763
X2.7395Y-3.2763
X3.9861Y-4.157
X3.9861Y-4.2554
X3.9861Y-4.3539
X5.9843Y-3.3077
X5.9843Y-3.4061
X5.9843Y-3.5045
X5.9843Y-4.3707
X5.9843Y-4.4691
X5.9843Y-4.5675
X8.0118Y-3.5734
X8.0118Y-3.6719
X8.0118Y-3.7703
X8.0118Y-3.8687
X8.376Y-3.5045
X8.4744Y-3.5045
X8.5728Y-3.5045
X8.6713Y-3.5045
T9
X3.4861Y-3.677
X3.4861Y-3.777
X3.4861Y-3.877
X6.5261Y-4.5026
X6.6261Y-4.5026
X6.7261Y-4.5026
X7.7711Y-4.6376
X7.8711Y-4.6376
T10
X4.4574Y-3.7211
X4.4574Y-3.9376
X4.4574Y-4.1541
T11
X4.9528Y-3.9376
X5.2362Y-3.9376
X5.3329Y-4.4136
X5.3507Y-3.4616
X5.5333Y-4.2132
X5.5512Y-3.662
M30
