%TF.GenerationSoftware,KiCad,Pcbnew,9.0.5*%
%TF.CreationDate,2025-11-15T15:40:49+01:00*%
%TF.ProjectId,Robobuoy-Sub-v3_0,526f626f-6275-46f7-992d-5375622d7633,rev?*%
%TF.SameCoordinates,Original*%
%TF.FileFunction,Copper,L4,Bot*%
%TF.FilePolarity,Positive*%
%FSLAX46Y46*%
G04 Gerber Fmt 4.6, Leading zero omitted, Abs format (unit mm)*
G04 Created by KiCad (PCBNEW 9.0.5) date 2025-11-15 15:40:49*
%MOMM*%
%LPD*%
G01*
G04 APERTURE LIST*
G04 Aperture macros list*
%AMRoundRect*
0 Rectangle with rounded corners*
0 $1 Rounding radius*
0 $2 $3 $4 $5 $6 $7 $8 $9 X,Y pos of 4 corners*
0 Add a 4 corners polygon primitive as box body*
4,1,4,$2,$3,$4,$5,$6,$7,$8,$9,$2,$3,0*
0 Add four circle primitives for the rounded corners*
1,1,$1+$1,$2,$3*
1,1,$1+$1,$4,$5*
1,1,$1+$1,$6,$7*
1,1,$1+$1,$8,$9*
0 Add four rect primitives between the rounded corners*
20,1,$1+$1,$2,$3,$4,$5,0*
20,1,$1+$1,$4,$5,$6,$7,0*
20,1,$1+$1,$6,$7,$8,$9,0*
20,1,$1+$1,$8,$9,$2,$3,0*%
G04 Aperture macros list end*
%TA.AperFunction,ComponentPad*%
%ADD10RoundRect,1.125000X-1.125000X1.125000X-1.125000X-1.125000X1.125000X-1.125000X1.125000X1.125000X0*%
%TD*%
%TA.AperFunction,ComponentPad*%
%ADD11C,4.500000*%
%TD*%
%TA.AperFunction,ComponentPad*%
%ADD12RoundRect,0.250000X0.600000X-0.600000X0.600000X0.600000X-0.600000X0.600000X-0.600000X-0.600000X0*%
%TD*%
%TA.AperFunction,ComponentPad*%
%ADD13C,1.700000*%
%TD*%
%TA.AperFunction,ComponentPad*%
%ADD14RoundRect,0.760000X-1.140000X-1.140000X1.140000X-1.140000X1.140000X1.140000X-1.140000X1.140000X0*%
%TD*%
%TA.AperFunction,ComponentPad*%
%ADD15C,3.800000*%
%TD*%
%TA.AperFunction,ComponentPad*%
%ADD16RoundRect,0.206250X-0.618750X-0.618750X0.618750X-0.618750X0.618750X0.618750X-0.618750X0.618750X0*%
%TD*%
%TA.AperFunction,ComponentPad*%
%ADD17RoundRect,0.206250X0.618750X-0.618750X0.618750X0.618750X-0.618750X0.618750X-0.618750X-0.618750X0*%
%TD*%
%TA.AperFunction,ComponentPad*%
%ADD18RoundRect,0.206250X-0.618750X0.618750X-0.618750X-0.618750X0.618750X-0.618750X0.618750X0.618750X0*%
%TD*%
%TA.AperFunction,HeatsinkPad*%
%ADD19C,0.500000*%
%TD*%
%TA.AperFunction,HeatsinkPad*%
%ADD20R,1.900000X3.300000*%
%TD*%
%TA.AperFunction,ComponentPad*%
%ADD21RoundRect,0.206250X0.618750X0.618750X-0.618750X0.618750X-0.618750X-0.618750X0.618750X-0.618750X0*%
%TD*%
%TA.AperFunction,ComponentPad*%
%ADD22RoundRect,0.250000X0.600000X0.725000X-0.600000X0.725000X-0.600000X-0.725000X0.600000X-0.725000X0*%
%TD*%
%TA.AperFunction,ComponentPad*%
%ADD23O,1.700000X1.950000*%
%TD*%
%TA.AperFunction,ComponentPad*%
%ADD24RoundRect,0.250000X-0.600000X-0.725000X0.600000X-0.725000X0.600000X0.725000X-0.600000X0.725000X0*%
%TD*%
%TA.AperFunction,ViaPad*%
%ADD25C,0.450000*%
%TD*%
%TA.AperFunction,ViaPad*%
%ADD26C,0.600000*%
%TD*%
%TA.AperFunction,ViaPad*%
%ADD27C,0.800000*%
%TD*%
%TA.AperFunction,Conductor*%
%ADD28C,0.200000*%
%TD*%
%TA.AperFunction,Conductor*%
%ADD29C,3.500000*%
%TD*%
%TA.AperFunction,Conductor*%
%ADD30C,2.000000*%
%TD*%
%TA.AperFunction,Conductor*%
%ADD31C,2.500000*%
%TD*%
%TA.AperFunction,Conductor*%
%ADD32C,0.600000*%
%TD*%
%TA.AperFunction,Conductor*%
%ADD33C,0.400000*%
%TD*%
%TA.AperFunction,Conductor*%
%ADD34C,4.000000*%
%TD*%
%TA.AperFunction,Conductor*%
%ADD35C,3.000000*%
%TD*%
%TA.AperFunction,Conductor*%
%ADD36C,0.250000*%
%TD*%
%TA.AperFunction,Conductor*%
%ADD37C,5.000000*%
%TD*%
G04 APERTURE END LIST*
D10*
%TO.P,J301,1,Pin_1*%
%TO.N,GND*%
X61807259Y-46527436D03*
D11*
%TO.P,J301,2,Pin_2*%
%TO.N,/Robobuoy-Sub-PSU-v3_0/COMM*%
X67807259Y-49991436D03*
%TO.P,J301,3,Pin_3*%
%TO.N,Vbatt*%
X61807259Y-53455436D03*
%TD*%
D12*
%TO.P,J201,1,Pin_1*%
%TO.N,EN*%
X91516400Y-64468500D03*
D13*
%TO.P,J201,2,Pin_2*%
%TO.N,+3.3V*%
X91516400Y-61928500D03*
%TO.P,J201,3,Pin_3*%
%TO.N,TX*%
X94056400Y-64468500D03*
%TO.P,J201,4,Pin_4*%
%TO.N,GND*%
X94056400Y-61928500D03*
%TO.P,J201,5,Pin_5*%
%TO.N,RX*%
X96596400Y-64468500D03*
%TO.P,J201,6,Pin_6*%
%TO.N,DR0*%
X96596400Y-61928500D03*
%TD*%
D14*
%TO.P,J306,1,-*%
%TO.N,Net-(J306--)*%
X24734000Y-50000000D03*
D15*
%TO.P,J306,2,+*%
%TO.N,Vbatt*%
X29734000Y-50000000D03*
%TD*%
D16*
%TO.P,SW301,1*%
%TO.N,Vbatt*%
X42982000Y-60160000D03*
D13*
%TO.P,SW301,2*%
%TO.N,Net-(D301-K)*%
X45522000Y-60160000D03*
%TO.P,SW301,3*%
%TO.N,GND*%
X48062000Y-60160000D03*
%TD*%
D17*
%TO.P,J401,1,Pin_1*%
%TO.N,GND*%
X104704000Y-53810000D03*
D13*
%TO.P,J401,2,Pin_2*%
%TO.N,+3.3V*%
X104704000Y-51270000D03*
%TO.P,J401,3,Pin_3*%
%TO.N,/CPU/SCL*%
X104704000Y-48730000D03*
%TO.P,J401,4,Pin_4*%
%TO.N,/CPU/SDA*%
X104704000Y-46190000D03*
%TD*%
D18*
%TO.P,SW202,1,1*%
%TO.N,GND*%
X104450000Y-60160000D03*
D13*
%TO.P,SW202,2,2*%
%TO.N,SWITCH*%
X104450000Y-62700000D03*
%TD*%
D19*
%TO.P,U303,9,Thermal_Pad*%
%TO.N,GND*%
X47863200Y-51140900D03*
X47863200Y-52540900D03*
X47863200Y-53940900D03*
D20*
X48563200Y-52540900D03*
D19*
X49263200Y-51140900D03*
X49263200Y-52540900D03*
X49263200Y-53940900D03*
%TD*%
D14*
%TO.P,J305,1,Pin_1*%
%TO.N,GND*%
X25100000Y-65000000D03*
D15*
%TO.P,J305,2,Pin_2*%
%TO.N,Net-(J305-Pin_2)*%
X30100000Y-65000000D03*
%TD*%
D17*
%TO.P,J102,1,Pin_1*%
%TO.N,GND*%
X110292000Y-53810000D03*
D13*
%TO.P,J102,2,Pin_2*%
%TO.N,+3.3V*%
X110292000Y-51270000D03*
%TO.P,J102,3,Pin_3*%
%TO.N,/CPU/SCL*%
X110292000Y-48730000D03*
%TO.P,J102,4,Pin_4*%
%TO.N,/CPU/SDA*%
X110292000Y-46190000D03*
%TD*%
D21*
%TO.P,BZ201,1,+*%
%TO.N,+5V*%
X84384000Y-65240000D03*
D13*
%TO.P,BZ201,2,-*%
%TO.N,Net-(BZ201--)*%
X81844000Y-65240000D03*
%TD*%
D22*
%TO.P,J302,1,Pin_1*%
%TO.N,Net-(J302-Pin_1)*%
X42900000Y-36000000D03*
D23*
%TO.P,J302,2,Pin_2*%
%TO.N,Net-(J302-Pin_2)*%
X40400000Y-36000000D03*
%TO.P,J302,3,Pin_3*%
%TO.N,GND*%
X37900000Y-36000000D03*
%TD*%
D18*
%TO.P,J203,1,Pin_1*%
%TO.N,+5V*%
X78796000Y-60160000D03*
D13*
%TO.P,J203,2,Pin_2*%
%TO.N,Net-(J203-Pin_2)*%
X78796000Y-62700000D03*
%TO.P,J203,3,Pin_3*%
%TO.N,GND*%
X78796000Y-65240000D03*
%TD*%
D24*
%TO.P,J303,1,Pin_1*%
%TO.N,Net-(J303-Pin_1)*%
X37900000Y-64275000D03*
D23*
%TO.P,J303,2,Pin_2*%
%TO.N,Net-(J303-Pin_2)*%
X40400000Y-64275000D03*
%TO.P,J303,3,Pin_3*%
%TO.N,GND*%
X42900000Y-64275000D03*
%TD*%
D14*
%TO.P,J304,1,Pin_1*%
%TO.N,GND*%
X25100000Y-35000000D03*
D15*
%TO.P,J304,2,Pin_2*%
%TO.N,Net-(J304-Pin_2)*%
X30100000Y-35000000D03*
%TD*%
D25*
%TO.N,GND*%
X32669600Y-32499400D03*
X35082600Y-32575600D03*
X102545000Y-67221200D03*
X102595800Y-65468600D03*
X86212800Y-66586200D03*
X85273000Y-60210800D03*
X92943800Y-67043400D03*
X35997000Y-41414800D03*
D26*
%TO.N,*%
X112324000Y-56858000D03*
X115880000Y-56858000D03*
D25*
%TO.N,+5V*%
X44531400Y-53784600D03*
X44511945Y-50720786D03*
D27*
%TO.N,GND*%
X91636981Y-47186111D03*
D26*
X109276000Y-66764000D03*
X18725000Y-60160000D03*
X49027200Y-47612400D03*
X21265000Y-55080000D03*
D25*
X33838000Y-48730000D03*
D26*
X77780000Y-38570000D03*
D25*
X76637000Y-50508000D03*
D26*
X91750000Y-49238000D03*
X81742400Y-44462800D03*
X118547000Y-44412000D03*
X112832000Y-54699000D03*
X43794800Y-49339600D03*
X114229000Y-51016000D03*
X41305600Y-41033800D03*
D25*
X115424288Y-60106270D03*
D26*
X81336000Y-58549000D03*
D25*
X37495600Y-42405400D03*
D26*
X105720000Y-38570000D03*
X42321600Y-51016000D03*
D25*
X56063000Y-67272000D03*
D26*
X58145800Y-45682000D03*
X99573200Y-54622800D03*
X74452600Y-36792000D03*
X34549200Y-58915400D03*
D25*
X44150400Y-42634000D03*
D26*
X58120400Y-50406400D03*
X105974000Y-67272000D03*
X21265000Y-61430000D03*
D27*
X36361600Y-48060400D03*
D26*
X42829600Y-49365000D03*
D25*
X59365000Y-67272000D03*
X116835556Y-61077678D03*
X117150000Y-66510000D03*
D26*
X18725000Y-57620000D03*
X18725000Y-39205000D03*
X73639800Y-38443000D03*
D25*
X91242000Y-59398000D03*
D26*
X18725000Y-41110000D03*
X21265000Y-39205000D03*
X85400000Y-38570000D03*
X18725000Y-55080000D03*
X112451000Y-61938000D03*
X77526000Y-32474000D03*
X66350000Y-35268000D03*
X96830000Y-38570000D03*
D25*
X95306000Y-65621000D03*
D26*
X99649400Y-39841111D03*
X18725000Y-42380000D03*
X89464000Y-47206000D03*
X105974000Y-39332000D03*
X82733000Y-39586000D03*
X109149000Y-33109000D03*
X68890000Y-41872000D03*
X112451000Y-64351000D03*
D25*
X55859800Y-53632200D03*
D26*
X84892000Y-39841111D03*
D25*
X97084000Y-59271000D03*
D26*
X21265000Y-42380000D03*
D25*
X48747800Y-49771400D03*
D26*
X18725000Y-44920000D03*
X65080000Y-48222000D03*
X64495800Y-52260600D03*
X18725000Y-53810000D03*
X67874000Y-34238000D03*
D25*
X90480000Y-39841111D03*
D26*
X73335000Y-34074200D03*
X114356000Y-52667000D03*
X93020000Y-38570000D03*
X70337800Y-53987800D03*
D25*
X36428800Y-50558800D03*
D26*
X109149000Y-44158000D03*
X65130800Y-54953000D03*
X41661200Y-49010300D03*
D25*
X42372400Y-55080000D03*
D26*
X18725000Y-46190000D03*
X76510000Y-38316000D03*
X36327200Y-56781800D03*
X38333800Y-49060200D03*
X80320000Y-45682000D03*
X40238800Y-49010300D03*
D25*
X63048000Y-34506000D03*
X35362000Y-49746000D03*
D26*
X101910000Y-38570000D03*
D25*
X61016000Y-40094000D03*
D26*
X70312400Y-52133600D03*
D25*
X87051000Y-42253000D03*
X112578000Y-66002000D03*
D26*
X117785000Y-56604000D03*
X18598000Y-66764000D03*
D25*
X112324000Y-44920000D03*
X52151400Y-39992400D03*
D26*
X66350000Y-33236000D03*
D25*
X99370000Y-65494000D03*
X34600000Y-39078000D03*
X117658000Y-62192000D03*
X61879787Y-62649387D03*
D26*
X118547000Y-33109000D03*
X91750000Y-45174000D03*
D25*
X69702800Y-66281400D03*
D26*
X82860000Y-38570000D03*
X21265000Y-60160000D03*
X93782000Y-45174000D03*
D25*
X55834400Y-52387600D03*
X49611400Y-49873000D03*
X70007600Y-38189000D03*
D26*
X18725000Y-48730000D03*
X104450000Y-38570000D03*
X46106200Y-48984000D03*
D25*
X72954000Y-48984000D03*
D26*
X79050000Y-38570000D03*
X38867200Y-51168400D03*
D25*
X55478800Y-39382800D03*
X87571700Y-58953500D03*
D26*
X87940000Y-38570000D03*
D25*
X94163000Y-42253000D03*
D26*
X72192000Y-46799600D03*
D25*
X41254800Y-46926600D03*
D26*
X21265000Y-44920000D03*
X54057802Y-42991000D03*
D25*
X61016000Y-40094000D03*
X35235000Y-48730000D03*
X52684800Y-52032000D03*
D26*
X62032000Y-32474000D03*
X90480000Y-38570000D03*
X21265000Y-51270000D03*
X21265000Y-53810000D03*
X118851800Y-66789400D03*
X18725000Y-52540000D03*
D25*
X91216600Y-54521200D03*
D26*
X118801000Y-51016000D03*
D25*
X47325400Y-49822200D03*
X116302600Y-47316798D03*
D26*
X98100000Y-38570000D03*
X80320000Y-38570000D03*
X48824000Y-44158000D03*
X78770600Y-51524000D03*
X89464000Y-49238000D03*
X70515600Y-44234200D03*
D25*
X38435400Y-46952000D03*
D26*
X103992800Y-44056400D03*
X36428800Y-45631200D03*
D25*
X71176000Y-51778000D03*
D26*
X89464000Y-45174000D03*
X76954500Y-38887500D03*
D25*
X99751000Y-42253000D03*
D26*
X28148400Y-61506200D03*
X93782000Y-49238000D03*
X93782000Y-47206000D03*
D25*
X80955000Y-60922000D03*
X97338000Y-54521200D03*
X55834400Y-51066800D03*
D26*
X54031000Y-45199400D03*
D25*
X100081200Y-57696200D03*
D26*
X72192000Y-43396000D03*
X18725000Y-51270000D03*
X105237400Y-39814600D03*
X84130000Y-38570000D03*
X34041200Y-66586200D03*
X18725000Y-50000000D03*
X116515000Y-54699000D03*
D25*
X110491844Y-58447849D03*
X110546000Y-62446000D03*
D26*
X81488400Y-55715000D03*
X103180000Y-38570000D03*
X114229000Y-39078000D03*
X18598000Y-33490000D03*
X76510000Y-36309400D03*
X91750000Y-38570000D03*
X18725000Y-58890000D03*
X86822400Y-52946400D03*
X100640000Y-38570000D03*
D25*
X42448600Y-43523000D03*
D26*
X81590000Y-38570000D03*
D25*
X66578600Y-67475200D03*
D26*
X102976800Y-51422400D03*
X34142800Y-44107200D03*
D25*
X110546000Y-60347000D03*
D26*
X18725000Y-56350000D03*
X21265000Y-46190000D03*
X41458000Y-50965200D03*
X89210000Y-38570000D03*
X21265000Y-57620000D03*
X86670000Y-38570000D03*
X21265000Y-56350000D03*
X18725000Y-47460000D03*
X21265000Y-41110000D03*
D25*
X60711200Y-35115600D03*
D26*
X66604000Y-41872000D03*
X110419000Y-56223000D03*
D25*
X86771600Y-55715000D03*
D26*
X114102000Y-56731000D03*
X61854200Y-43396000D03*
X40137200Y-50991500D03*
X101935400Y-57569200D03*
D25*
X88575000Y-65367000D03*
D27*
X52761000Y-53606800D03*
D26*
X21265000Y-47460000D03*
D25*
X43134400Y-48145800D03*
X51364000Y-66408400D03*
D26*
X94290000Y-38570000D03*
X18725000Y-61430000D03*
X21265000Y-52540000D03*
X80320000Y-51524000D03*
X99370000Y-38570000D03*
X18725000Y-43650000D03*
D27*
X39131652Y-58334212D03*
D25*
X36124000Y-67399000D03*
D26*
X21265000Y-50000000D03*
D25*
X70947400Y-64935200D03*
X41585000Y-66256000D03*
D26*
X95560000Y-38570000D03*
X21265000Y-58890000D03*
X47858800Y-43040400D03*
X21265000Y-48730000D03*
D25*
X93909000Y-39841111D03*
D26*
X21265000Y-43650000D03*
D25*
X73970000Y-55842000D03*
X76764000Y-44539000D03*
X112965000Y-48851000D03*
%TO.N,+3.3V*%
X103942000Y-41364000D03*
D27*
X85146000Y-41364000D03*
D25*
%TO.N,/CPU/VSAMP*%
X76078200Y-55486400D03*
X80574000Y-47460000D03*
D26*
%TO.N,Vbatt*%
X30790000Y-54445000D03*
D25*
X55783600Y-57035800D03*
D26*
X29520000Y-45555000D03*
X31425000Y-54445000D03*
X30790000Y-45555000D03*
X31425000Y-45555000D03*
X32035000Y-54445000D03*
X32060000Y-45555000D03*
X30155000Y-45555000D03*
X32720000Y-54420000D03*
D25*
%TO.N,/CPU/ON*%
X78034000Y-52540000D03*
X43236000Y-55334000D03*
D27*
%TO.N,RX*%
X98862000Y-48349000D03*
%TO.N,TX*%
X95306000Y-48222000D03*
D26*
%TO.N,Net-(J304-Pin_2)*%
X30790000Y-39840000D03*
X30790000Y-42380000D03*
X33330000Y-41110000D03*
X32060000Y-42380000D03*
X32060000Y-41110000D03*
X33330000Y-39840000D03*
X30790000Y-41110000D03*
X29520000Y-42380000D03*
X29520000Y-39840000D03*
X29520000Y-41110000D03*
X32060000Y-39840000D03*
X33330000Y-42380000D03*
%TO.N,Net-(J305-Pin_2)*%
X30790000Y-58890000D03*
X29520000Y-57620000D03*
X32060000Y-58890000D03*
X29520000Y-60160000D03*
X29520000Y-58890000D03*
X33330000Y-57620000D03*
X32060000Y-57620000D03*
X30790000Y-57620000D03*
X33330000Y-60160000D03*
X33330000Y-58890000D03*
X32060000Y-60160000D03*
X30790000Y-60160000D03*
D25*
%TO.N,/CPU/RX_SUB*%
X71658600Y-63233400D03*
X92186370Y-53236111D03*
%TO.N,/CPU/ESC_SB_PWR*%
X41204000Y-60414000D03*
X87686000Y-53810000D03*
%TO.N,/CPU/ESC_BB_PWR*%
X77526000Y-49746000D03*
X63302000Y-40602000D03*
%TO.N,Net-(Q306-G)*%
X34590403Y-56876780D03*
X28830500Y-55914500D03*
%TO.N,/CPU/TX_SUB*%
X90784800Y-52565400D03*
X60762000Y-65494000D03*
%TO.N,/CPU/ESC_BB*%
X72954000Y-45809000D03*
X78542000Y-49238000D03*
X53142000Y-35268000D03*
X63632200Y-42430800D03*
%TO.N,/CPU/ESC_SB*%
X79227800Y-57112000D03*
X57460000Y-62700000D03*
%TO.N,Net-(U304B-+)*%
X36124000Y-33236000D03*
X56190000Y-33236000D03*
%TO.N,Net-(U304B--)*%
X36124000Y-34506000D03*
X54412000Y-34506000D03*
%TO.N,/CPU/Imon*%
X59238000Y-37808000D03*
X80370800Y-43651111D03*
D27*
%TO.N,/CPU/SCL*%
X103268000Y-45428000D03*
D25*
X115727600Y-52819400D03*
X115727600Y-46977400D03*
%TO.N,/CPU/SDA*%
X113559031Y-45845000D03*
X115321200Y-54064000D03*
D26*
%TO.N,Net-(J306--)*%
X25710000Y-53175000D03*
X24440000Y-42380000D03*
X24440000Y-55080000D03*
X25710000Y-46825000D03*
X24440000Y-56350000D03*
X26980000Y-44920000D03*
X26980000Y-57620000D03*
X26980000Y-41110000D03*
X24440000Y-43650000D03*
X26980000Y-56350000D03*
X24440000Y-57620000D03*
X26980000Y-43650000D03*
X26980000Y-42380000D03*
X24440000Y-46190000D03*
X24440000Y-53810000D03*
X24440000Y-41110000D03*
X26980000Y-58890000D03*
X24440000Y-44920000D03*
X24440000Y-58890000D03*
X26980000Y-55080000D03*
%TD*%
D28*
%TO.N,+5V*%
X44531400Y-53784600D02*
X44511945Y-53765145D01*
X44511945Y-53765145D02*
X44511945Y-50720786D01*
D29*
%TO.N,GND*%
X24962000Y-65000000D02*
X22662000Y-62700000D01*
D30*
X20374000Y-46698000D02*
X19866000Y-46190000D01*
D31*
X55936000Y-52794000D02*
X47300000Y-52794000D01*
X61807259Y-47362259D02*
X63175000Y-48730000D01*
X61807259Y-46527436D02*
X61607436Y-46527436D01*
D32*
X36261600Y-47960400D02*
X36361600Y-48060400D01*
D29*
X20699000Y-39401000D02*
X19868000Y-40232000D01*
X25100000Y-65000000D02*
X24962000Y-65000000D01*
D30*
X19866000Y-46190000D02*
X19866000Y-53810000D01*
D31*
X61807259Y-46527436D02*
X61807259Y-43747741D01*
X47300000Y-52794000D02*
X47300000Y-50762000D01*
X61807259Y-43747741D02*
X61905000Y-43650000D01*
X61807259Y-46287741D02*
X63810000Y-44285000D01*
D33*
X40188000Y-50991500D02*
X40137200Y-50991500D01*
D29*
X25100000Y-35000000D02*
X20699000Y-39401000D01*
D33*
X42321600Y-51016000D02*
X42321600Y-50812800D01*
X42321600Y-50812800D02*
X43794800Y-49339600D01*
X40137200Y-49213500D02*
X39934000Y-49010300D01*
D29*
X19868000Y-59906000D02*
X22662000Y-62700000D01*
D31*
X61807259Y-46922741D02*
X55936000Y-52794000D01*
X47300000Y-50762000D02*
X45268000Y-48730000D01*
X57162436Y-46527436D02*
X56825000Y-46190000D01*
X61807259Y-46527436D02*
X61807259Y-47362259D01*
D29*
X19868000Y-40232000D02*
X19868000Y-59906000D01*
D33*
X40137200Y-50991500D02*
X40137200Y-49213500D01*
D31*
X61807259Y-46527436D02*
X61807259Y-46922741D01*
X45268000Y-48730000D02*
X35235000Y-48730000D01*
X61807259Y-46527436D02*
X57162436Y-46527436D01*
X61807259Y-46527436D02*
X61807259Y-46287741D01*
X61607436Y-46527436D02*
X60000000Y-44920000D01*
X61807259Y-46527436D02*
X64107564Y-46527436D01*
X64107564Y-46527436D02*
X64445000Y-46190000D01*
D33*
%TO.N,+3.3V*%
X102418000Y-41364000D02*
X85146000Y-41364000D01*
X102418000Y-41364000D02*
X103942000Y-41364000D01*
X102418000Y-48984000D02*
X102418000Y-41364000D01*
X104704000Y-51270000D02*
X102418000Y-48984000D01*
D28*
%TO.N,/CPU/VSAMP*%
X80574000Y-47460000D02*
X79558000Y-48476000D01*
X77094200Y-55486400D02*
X76078200Y-55486400D01*
X79558000Y-48476000D02*
X79558000Y-53022600D01*
X79558000Y-53022600D02*
X77094200Y-55486400D01*
D34*
%TO.N,Vbatt*%
X30790000Y-48944000D02*
X30790000Y-46190000D01*
D35*
X41147000Y-57309000D02*
X36338000Y-52500000D01*
X32194000Y-52500000D02*
X29694000Y-50000000D01*
X36338000Y-52500000D02*
X32194000Y-52500000D01*
D34*
X29734000Y-50000000D02*
X30790000Y-48944000D01*
X32060000Y-51905000D02*
X32060000Y-53175000D01*
X29734000Y-50000000D02*
X30155000Y-50000000D01*
D35*
X57953695Y-57309000D02*
X41147000Y-57309000D01*
D34*
X30155000Y-50000000D02*
X32060000Y-51905000D01*
D28*
X42982000Y-57101440D02*
X43361440Y-56722000D01*
D35*
X61807259Y-53455436D02*
X57953695Y-57309000D01*
D28*
X42982000Y-60160000D02*
X42982000Y-57101440D01*
%TO.N,/CPU/ON*%
X55936000Y-55334000D02*
X60635000Y-50635000D01*
X66477000Y-53175000D02*
X77399000Y-53175000D01*
X77399000Y-53175000D02*
X78034000Y-52540000D01*
X63937000Y-50635000D02*
X66477000Y-53175000D01*
X60635000Y-50635000D02*
X63937000Y-50635000D01*
X43236000Y-55334000D02*
X55936000Y-55334000D01*
%TO.N,RX*%
X97592000Y-64478000D02*
X98862000Y-63208000D01*
X96576000Y-64478000D02*
X97592000Y-64478000D01*
X98862000Y-63208000D02*
X98862000Y-48349000D01*
%TO.N,TX*%
X95306000Y-48222000D02*
X95306000Y-63208000D01*
X95306000Y-63208000D02*
X94036000Y-64478000D01*
D34*
%TO.N,Net-(J304-Pin_2)*%
X31425000Y-36325000D02*
X31425000Y-41618000D01*
X30100000Y-35000000D02*
X31425000Y-36325000D01*
%TO.N,Net-(J305-Pin_2)*%
X30100000Y-65000000D02*
X31298000Y-63802000D01*
X31298000Y-63802000D02*
X31298000Y-62192000D01*
X31298000Y-62192000D02*
X31298000Y-58382000D01*
D28*
%TO.N,/CPU/RX_SUB*%
X74338300Y-59029700D02*
X74338300Y-60553700D01*
X86974802Y-57874000D02*
X91597602Y-53251200D01*
X80193000Y-58509000D02*
X80828000Y-57874000D01*
X74338300Y-59029700D02*
X74859000Y-58509000D01*
X91597602Y-53251200D02*
X92171281Y-53251200D01*
X74859000Y-58509000D02*
X80193000Y-58509000D01*
X80828000Y-57874000D02*
X86974802Y-57874000D01*
X92171281Y-53251200D02*
X92186370Y-53236111D01*
X74338300Y-60553700D02*
X71658600Y-63233400D01*
%TO.N,/CPU/ESC_SB_PWR*%
X41712000Y-61430000D02*
X61270000Y-61430000D01*
X82225000Y-56477000D02*
X84892000Y-53810000D01*
X41204000Y-60414000D02*
X41204000Y-60922000D01*
X61270000Y-61430000D02*
X66223000Y-56477000D01*
X66223000Y-56477000D02*
X82225000Y-56477000D01*
X84892000Y-53810000D02*
X87686000Y-53810000D01*
X41204000Y-60922000D02*
X41712000Y-61430000D01*
%TO.N,/CPU/ESC_BB_PWR*%
X70439400Y-47739400D02*
X73004800Y-47739400D01*
X73004800Y-47739400D02*
X75011400Y-49746000D01*
X63302000Y-40602000D02*
X70439400Y-47739400D01*
X75011400Y-49746000D02*
X77526000Y-49746000D01*
%TO.N,Net-(Q306-G)*%
X34590403Y-56876780D02*
X33628123Y-55914500D01*
X33628123Y-55914500D02*
X28830500Y-55914500D01*
%TO.N,/CPU/TX_SUB*%
X79991960Y-58109000D02*
X80734960Y-57366000D01*
X80734960Y-57366000D02*
X85984200Y-57366000D01*
X60762000Y-65494000D02*
X68147000Y-58109000D01*
X85984200Y-57366000D02*
X90784800Y-52565400D01*
X68147000Y-58109000D02*
X79991960Y-58109000D01*
%TO.N,/CPU/ESC_BB*%
X75113000Y-45809000D02*
X72954000Y-45809000D01*
D36*
X62565400Y-41364000D02*
X63632200Y-42430800D01*
X53142000Y-35268000D02*
X53142000Y-40144800D01*
X54361200Y-41364000D02*
X62565400Y-41364000D01*
X53142000Y-40144800D02*
X54361200Y-41364000D01*
D28*
X53142000Y-35268000D02*
X53142000Y-35522000D01*
X78542000Y-49238000D02*
X75113000Y-45809000D01*
%TO.N,/CPU/ESC_SB*%
X60762000Y-62700000D02*
X66350000Y-57112000D01*
X66350000Y-57112000D02*
X79227800Y-57112000D01*
X57460000Y-62700000D02*
X60762000Y-62700000D01*
%TO.N,Net-(U304B-+)*%
X36124000Y-33236000D02*
X56190000Y-33236000D01*
%TO.N,Net-(U304B--)*%
X36505000Y-34125000D02*
X54031000Y-34125000D01*
X36124000Y-34506000D02*
X36505000Y-34125000D01*
X54031000Y-34125000D02*
X54412000Y-34506000D01*
%TO.N,/CPU/Imon*%
X73894911Y-43651111D02*
X69194800Y-38951000D01*
X69194800Y-38951000D02*
X60381000Y-38951000D01*
X60381000Y-38951000D02*
X59238000Y-37808000D01*
X80370800Y-43651111D02*
X73894911Y-43651111D01*
%TO.N,/CPU/SCL*%
X115676800Y-49492000D02*
X115727600Y-49441200D01*
X115372000Y-49492000D02*
X111054000Y-49492000D01*
D36*
X104704000Y-48730000D02*
X103268000Y-47294000D01*
D28*
X111054000Y-49492000D02*
X110292000Y-48730000D01*
D36*
X103268000Y-47294000D02*
X103268000Y-45428000D01*
D28*
X115372000Y-49492000D02*
X115676800Y-49492000D01*
X115727600Y-49441200D02*
X115727600Y-46977400D01*
X115727600Y-49441200D02*
X115727600Y-52819400D01*
%TO.N,/CPU/SDA*%
X116877600Y-52507600D02*
X115321200Y-54064000D01*
X116877600Y-46425600D02*
X116877600Y-52507600D01*
X116297000Y-45845000D02*
X116877600Y-46425600D01*
X113559031Y-45845000D02*
X116297000Y-45845000D01*
D34*
%TO.N,Net-(J306--)*%
X25075000Y-58255000D02*
X25710000Y-58890000D01*
X25075000Y-45555000D02*
X25075000Y-58255000D01*
D37*
X25710000Y-44920000D02*
X25075000Y-45555000D01*
X25710000Y-58890000D02*
X25710000Y-55080000D01*
D34*
X24734000Y-50000000D02*
X24734000Y-46825000D01*
X25710000Y-41110000D02*
X25075000Y-41745000D01*
X24734000Y-46825000D02*
X24734000Y-42086000D01*
X24734000Y-42086000D02*
X25710000Y-41110000D01*
X25075000Y-41745000D02*
X25075000Y-45555000D01*
D37*
X25710000Y-41110000D02*
X25710000Y-44920000D01*
%TD*%
%TA.AperFunction,Conductor*%
%TO.N,GND*%
G36*
X47351440Y-59029185D02*
G01*
X47372082Y-59045819D01*
X47988358Y-59662094D01*
X47869007Y-59694075D01*
X47754993Y-59759901D01*
X47661901Y-59852993D01*
X47596075Y-59967007D01*
X47564094Y-60086358D01*
X46916973Y-59439237D01*
X46916972Y-59439237D01*
X46907375Y-59452448D01*
X46810905Y-59641781D01*
X46753656Y-59817974D01*
X46714218Y-59875649D01*
X46649859Y-59902847D01*
X46581013Y-59890932D01*
X46529537Y-59843688D01*
X46521164Y-59827107D01*
X46452943Y-59662405D01*
X46337975Y-59490342D01*
X46191657Y-59344024D01*
X46049846Y-59249270D01*
X46030887Y-59236602D01*
X45986082Y-59182990D01*
X45977375Y-59113666D01*
X46007529Y-59050638D01*
X46066972Y-59013918D01*
X46099778Y-59009500D01*
X47284401Y-59009500D01*
X47351440Y-59029185D01*
G37*
%TD.AperFunction*%
%TA.AperFunction,Conductor*%
G36*
X77977039Y-32030185D02*
G01*
X78022794Y-32082989D01*
X78034000Y-32134500D01*
X78034000Y-38316000D01*
X106315500Y-38316000D01*
X106382539Y-38335685D01*
X106428294Y-38388489D01*
X106439500Y-38440000D01*
X106439500Y-47496588D01*
X106439500Y-47500000D01*
X106439500Y-47593637D01*
X106473911Y-47777721D01*
X106482729Y-47800482D01*
X106541561Y-47952347D01*
X106541562Y-47952349D01*
X106608429Y-48060342D01*
X106640149Y-48111571D01*
X106766314Y-48249968D01*
X106850726Y-48313713D01*
X106892362Y-48369819D01*
X106900000Y-48412666D01*
X106900000Y-51587332D01*
X106880315Y-51654371D01*
X106850727Y-51686286D01*
X106775226Y-51743302D01*
X106766314Y-51750032D01*
X106640149Y-51888429D01*
X106640147Y-51888431D01*
X106640146Y-51888433D01*
X106541562Y-52047650D01*
X106541561Y-52047652D01*
X106473912Y-52222276D01*
X106473911Y-52222279D01*
X106439500Y-52406363D01*
X106439500Y-52495651D01*
X106439500Y-65996588D01*
X106439500Y-66000000D01*
X106439500Y-66093637D01*
X106473911Y-66277721D01*
X106473912Y-66277723D01*
X106541561Y-66452347D01*
X106541562Y-66452349D01*
X106606873Y-66557829D01*
X106640149Y-66611571D01*
X106766314Y-66749968D01*
X106850726Y-66813713D01*
X106892362Y-66869819D01*
X106900000Y-66912666D01*
X106900000Y-67865500D01*
X106880315Y-67932539D01*
X106827511Y-67978294D01*
X106776000Y-67989500D01*
X18904067Y-67989500D01*
X18895957Y-67989235D01*
X18648422Y-67973011D01*
X18632340Y-67970893D01*
X18393048Y-67923294D01*
X18377382Y-67919096D01*
X18146349Y-67840671D01*
X18131363Y-67834464D01*
X17912539Y-67726552D01*
X17898492Y-67718442D01*
X17695626Y-67582891D01*
X17682758Y-67573017D01*
X17499321Y-67412147D01*
X17487852Y-67400678D01*
X17326982Y-67217241D01*
X17317108Y-67204373D01*
X17314520Y-67200500D01*
X17181557Y-67001507D01*
X17173447Y-66987460D01*
X17097561Y-66833578D01*
X17065532Y-66768629D01*
X17059331Y-66753657D01*
X16980900Y-66522606D01*
X16976708Y-66506963D01*
X16929104Y-66267647D01*
X16926989Y-66251586D01*
X16910765Y-66004042D01*
X16910500Y-65995933D01*
X16910500Y-63795280D01*
X22700000Y-63795280D01*
X22700000Y-64750000D01*
X23772769Y-64750000D01*
X23750000Y-64893753D01*
X23750000Y-65106247D01*
X23772769Y-65250000D01*
X22700000Y-65250000D01*
X22700000Y-66204719D01*
X22710482Y-66337906D01*
X22710483Y-66337912D01*
X22765898Y-66557829D01*
X22765899Y-66557832D01*
X22859695Y-66764330D01*
X22859698Y-66764336D01*
X22988851Y-66950758D01*
X22988861Y-66950770D01*
X23149229Y-67111138D01*
X23149241Y-67111148D01*
X23335663Y-67240301D01*
X23335669Y-67240304D01*
X23542167Y-67334100D01*
X23542170Y-67334101D01*
X23762087Y-67389516D01*
X23762093Y-67389517D01*
X23895280Y-67399999D01*
X23895294Y-67400000D01*
X24850000Y-67400000D01*
X24850000Y-66327231D01*
X24993753Y-66350000D01*
X25206247Y-66350000D01*
X25350000Y-66327231D01*
X25350000Y-67400000D01*
X26304706Y-67400000D01*
X26304719Y-67399999D01*
X26437906Y-67389517D01*
X26437912Y-67389516D01*
X26657829Y-67334101D01*
X26657832Y-67334100D01*
X26864330Y-67240304D01*
X26864336Y-67240301D01*
X27050758Y-67111148D01*
X27050770Y-67111138D01*
X27211138Y-66950770D01*
X27211148Y-66950758D01*
X27340301Y-66764336D01*
X27340304Y-66764330D01*
X27434100Y-66557832D01*
X27434101Y-66557829D01*
X27489516Y-66337912D01*
X27489517Y-66337906D01*
X27499999Y-66204719D01*
X27500000Y-66204706D01*
X27500000Y-65250000D01*
X26427231Y-65250000D01*
X26450000Y-65106247D01*
X26450000Y-64893753D01*
X26427231Y-64750000D01*
X27500000Y-64750000D01*
X27500000Y-63795293D01*
X27499999Y-63795280D01*
X27489517Y-63662093D01*
X27489516Y-63662087D01*
X27434101Y-63442170D01*
X27434100Y-63442167D01*
X27340304Y-63235669D01*
X27340301Y-63235663D01*
X27211148Y-63049241D01*
X27211138Y-63049229D01*
X27050770Y-62888861D01*
X27050758Y-62888851D01*
X26864336Y-62759698D01*
X26864330Y-62759695D01*
X26657832Y-62665899D01*
X26657829Y-62665898D01*
X26437912Y-62610483D01*
X26437906Y-62610482D01*
X26304719Y-62600000D01*
X25350000Y-62600000D01*
X25350000Y-63672768D01*
X25206247Y-63650000D01*
X24993753Y-63650000D01*
X24850000Y-63672768D01*
X24850000Y-62600000D01*
X23895280Y-62600000D01*
X23762093Y-62610482D01*
X23762087Y-62610483D01*
X23542170Y-62665898D01*
X23542167Y-62665899D01*
X23335669Y-62759695D01*
X23335663Y-62759698D01*
X23149241Y-62888851D01*
X23149229Y-62888861D01*
X22988861Y-63049229D01*
X22988851Y-63049241D01*
X22859698Y-63235663D01*
X22859695Y-63235669D01*
X22765899Y-63442167D01*
X22765898Y-63442170D01*
X22710483Y-63662087D01*
X22710482Y-63662093D01*
X22700000Y-63795280D01*
X16910500Y-63795280D01*
X16910500Y-45403336D01*
X22374501Y-45403336D01*
X22374501Y-45706663D01*
X22408459Y-46008055D01*
X22408459Y-46008056D01*
X22475953Y-46303769D01*
X22526542Y-46448344D01*
X22533500Y-46489299D01*
X22533500Y-50144221D01*
X22533501Y-50144238D01*
X22571149Y-50430206D01*
X22571150Y-50430211D01*
X22571151Y-50430217D01*
X22616736Y-50600342D01*
X22629275Y-50647139D01*
X22633500Y-50679232D01*
X22633500Y-51195710D01*
X22635549Y-51218753D01*
X22643689Y-51310320D01*
X22697428Y-51498133D01*
X22787875Y-51671284D01*
X22787874Y-51671284D01*
X22819740Y-51710362D01*
X22846600Y-51743303D01*
X22873711Y-51807698D01*
X22874500Y-51821665D01*
X22874500Y-58106898D01*
X22874499Y-58106932D01*
X22874499Y-58399236D01*
X22912151Y-58685215D01*
X22912151Y-58685217D01*
X22984676Y-58955891D01*
X22986808Y-58963846D01*
X22986811Y-58963853D01*
X23000061Y-58995841D01*
X23008493Y-59038231D01*
X23009305Y-59038186D01*
X23009500Y-59041663D01*
X23043457Y-59343048D01*
X23043459Y-59343060D01*
X23043460Y-59343063D01*
X23046502Y-59356392D01*
X23110953Y-59638771D01*
X23110957Y-59638783D01*
X23211133Y-59925068D01*
X23342733Y-60198338D01*
X23342735Y-60198341D01*
X23504108Y-60455164D01*
X23588111Y-60560500D01*
X23681338Y-60677404D01*
X23693221Y-60692304D01*
X23907696Y-60906779D01*
X24144836Y-61095892D01*
X24401659Y-61257265D01*
X24674935Y-61388868D01*
X24885578Y-61462575D01*
X24961216Y-61489042D01*
X24961228Y-61489046D01*
X25256937Y-61556540D01*
X25256946Y-61556541D01*
X25256951Y-61556542D01*
X25457874Y-61579180D01*
X25558337Y-61590499D01*
X25558340Y-61590500D01*
X25558343Y-61590500D01*
X25861660Y-61590500D01*
X25861661Y-61590499D01*
X26015694Y-61573144D01*
X26163048Y-61556542D01*
X26163051Y-61556541D01*
X26163063Y-61556540D01*
X26458772Y-61489046D01*
X26745065Y-61388868D01*
X27018341Y-61257265D01*
X27275164Y-61095892D01*
X27512304Y-60906779D01*
X27726779Y-60692304D01*
X27915892Y-60455164D01*
X28077265Y-60198341D01*
X28208868Y-59925065D01*
X28309046Y-59638772D01*
X28376540Y-59343063D01*
X28381484Y-59299188D01*
X28397823Y-59154171D01*
X28410500Y-59041657D01*
X28410500Y-56378112D01*
X28430185Y-56311073D01*
X28482989Y-56265318D01*
X28552147Y-56255374D01*
X28596498Y-56270724D01*
X28666263Y-56311003D01*
X28774482Y-56340000D01*
X28774484Y-56340000D01*
X28886516Y-56340000D01*
X28886518Y-56340000D01*
X28994737Y-56311003D01*
X29091763Y-56254985D01*
X29095429Y-56251319D01*
X29156752Y-56217834D01*
X29183110Y-56215000D01*
X30187578Y-56215000D01*
X30254617Y-56234685D01*
X30300372Y-56287489D01*
X30310316Y-56356647D01*
X30281291Y-56420203D01*
X30249578Y-56446387D01*
X30072851Y-56548420D01*
X30072835Y-56548431D01*
X29843997Y-56724024D01*
X29843990Y-56724030D01*
X29640030Y-56927990D01*
X29640024Y-56927997D01*
X29528726Y-57073044D01*
X29472298Y-57114247D01*
X29461796Y-57116796D01*
X29461958Y-57117397D01*
X29454109Y-57119500D01*
X29454108Y-57119500D01*
X29431559Y-57125542D01*
X29326812Y-57153608D01*
X29212686Y-57219500D01*
X29212683Y-57219502D01*
X29119502Y-57312683D01*
X29119500Y-57312686D01*
X29053608Y-57426812D01*
X29023950Y-57537499D01*
X29019500Y-57554108D01*
X29019500Y-57685892D01*
X29052352Y-57808500D01*
X29053609Y-57813188D01*
X29053609Y-57813189D01*
X29113821Y-57917478D01*
X29130294Y-57985378D01*
X29129373Y-57995663D01*
X29097501Y-58237761D01*
X29097500Y-58237778D01*
X29097500Y-58587565D01*
X29080887Y-58649565D01*
X29053609Y-58696811D01*
X29053609Y-58696812D01*
X29053608Y-58696814D01*
X29019500Y-58824108D01*
X29019500Y-58955892D01*
X29053287Y-59081989D01*
X29053609Y-59083188D01*
X29053610Y-59083191D01*
X29080886Y-59130433D01*
X29097500Y-59192434D01*
X29097500Y-59857565D01*
X29080887Y-59919565D01*
X29053609Y-59966811D01*
X29053609Y-59966812D01*
X29053608Y-59966814D01*
X29019500Y-60094108D01*
X29019500Y-60225892D01*
X29053556Y-60352993D01*
X29053609Y-60353188D01*
X29053610Y-60353191D01*
X29080886Y-60400433D01*
X29097500Y-60462434D01*
X29097500Y-62839160D01*
X29077815Y-62906199D01*
X29061181Y-62926841D01*
X28442031Y-63545990D01*
X28266421Y-63774848D01*
X28122201Y-64024646D01*
X28122200Y-64024647D01*
X28094443Y-64091657D01*
X28013081Y-64288082D01*
X28011811Y-64291147D01*
X28011806Y-64291160D01*
X27937153Y-64569772D01*
X27937151Y-64569781D01*
X27937151Y-64569783D01*
X27937077Y-64570345D01*
X27899499Y-64855763D01*
X27899499Y-65144236D01*
X27925730Y-65343466D01*
X27937086Y-65429727D01*
X27937151Y-65430215D01*
X27937153Y-65430227D01*
X28011025Y-65705925D01*
X28011808Y-65708846D01*
X28122197Y-65975345D01*
X28122200Y-65975352D01*
X28122201Y-65975353D01*
X28266421Y-66225151D01*
X28285588Y-66250130D01*
X28396464Y-66394626D01*
X28442031Y-66454009D01*
X28645990Y-66657968D01*
X28645994Y-66657971D01*
X28645996Y-66657973D01*
X28848957Y-66813711D01*
X28874848Y-66833578D01*
X29124646Y-66977798D01*
X29124647Y-66977799D01*
X29124650Y-66977800D01*
X29124655Y-66977803D01*
X29391154Y-67088192D01*
X29669783Y-67162849D01*
X29955771Y-67200501D01*
X29955778Y-67200501D01*
X30244222Y-67200501D01*
X30244229Y-67200501D01*
X30530217Y-67162849D01*
X30808846Y-67088192D01*
X31075345Y-66977803D01*
X31325156Y-66833575D01*
X31554004Y-66657973D01*
X32156000Y-66055977D01*
X32547712Y-65664264D01*
X32746622Y-65465353D01*
X32746640Y-65465338D01*
X32955969Y-65256009D01*
X32955974Y-65256004D01*
X33131575Y-65027156D01*
X33275804Y-64777345D01*
X33275808Y-64777336D01*
X33351752Y-64593990D01*
X33351752Y-64593989D01*
X33361778Y-64569784D01*
X33386192Y-64510845D01*
X33460850Y-64232217D01*
X33498501Y-63946228D01*
X33498501Y-63657771D01*
X33498501Y-63653932D01*
X33498500Y-63653898D01*
X33498500Y-63495730D01*
X36849500Y-63495730D01*
X36849500Y-65054269D01*
X36852353Y-65084699D01*
X36852353Y-65084701D01*
X36897206Y-65212880D01*
X36897207Y-65212882D01*
X36977850Y-65322150D01*
X37087118Y-65402793D01*
X37108089Y-65410131D01*
X37215299Y-65447646D01*
X37245730Y-65450500D01*
X37245734Y-65450500D01*
X38554270Y-65450500D01*
X38584699Y-65447646D01*
X38584701Y-65447646D01*
X38648790Y-65425219D01*
X38712882Y-65402793D01*
X38822150Y-65322150D01*
X38902793Y-65212882D01*
X38939648Y-65107557D01*
X38947646Y-65084701D01*
X38947646Y-65084699D01*
X38950500Y-65054269D01*
X38950500Y-64046530D01*
X39349500Y-64046530D01*
X39349500Y-64503469D01*
X39389868Y-64706412D01*
X39389870Y-64706420D01*
X39451733Y-64855771D01*
X39469059Y-64897598D01*
X39482836Y-64918217D01*
X39584024Y-65069657D01*
X39730342Y-65215975D01*
X39730345Y-65215977D01*
X39902402Y-65330941D01*
X40093580Y-65410130D01*
X40282187Y-65447646D01*
X40296530Y-65450499D01*
X40296534Y-65450500D01*
X40296535Y-65450500D01*
X40503466Y-65450500D01*
X40503467Y-65450499D01*
X40706420Y-65410130D01*
X40897598Y-65330941D01*
X41069655Y-65215977D01*
X41215977Y-65069655D01*
X41330941Y-64897598D01*
X41376748Y-64787009D01*
X41420589Y-64732606D01*
X41486883Y-64710541D01*
X41554582Y-64727820D01*
X41602193Y-64778957D01*
X41609240Y-64796144D01*
X41648904Y-64918216D01*
X41745379Y-65107557D01*
X41870272Y-65279459D01*
X41870276Y-65279464D01*
X42020535Y-65429723D01*
X42020540Y-65429727D01*
X42192442Y-65554620D01*
X42381782Y-65651095D01*
X42583871Y-65716757D01*
X42650000Y-65727231D01*
X42650000Y-64679145D01*
X42716657Y-64717630D01*
X42837465Y-64750000D01*
X42962535Y-64750000D01*
X43083343Y-64717630D01*
X43150000Y-64679145D01*
X43150000Y-65727230D01*
X43216126Y-65716757D01*
X43216129Y-65716757D01*
X43418217Y-65651095D01*
X43607557Y-65554620D01*
X43768097Y-65437982D01*
X60336500Y-65437982D01*
X60336500Y-65550018D01*
X60365497Y-65658237D01*
X60421515Y-65755263D01*
X60500737Y-65834485D01*
X60597763Y-65890503D01*
X60705982Y-65919500D01*
X60705984Y-65919500D01*
X60818016Y-65919500D01*
X60818018Y-65919500D01*
X60926237Y-65890503D01*
X61023263Y-65834485D01*
X61102485Y-65755263D01*
X61158503Y-65658237D01*
X61187500Y-65550018D01*
X61187500Y-65544833D01*
X61207185Y-65477794D01*
X61223819Y-65457152D01*
X61547218Y-65133753D01*
X77446000Y-65133753D01*
X77446000Y-65346246D01*
X77479242Y-65556127D01*
X77479242Y-65556130D01*
X77544904Y-65758217D01*
X77641375Y-65947550D01*
X77650973Y-65960761D01*
X78298094Y-65313641D01*
X78330075Y-65432993D01*
X78395901Y-65547007D01*
X78488993Y-65640099D01*
X78603007Y-65705925D01*
X78722358Y-65737905D01*
X78075236Y-66385025D01*
X78088440Y-66394618D01*
X78088453Y-66394626D01*
X78277782Y-66491095D01*
X78479870Y-66556757D01*
X78689754Y-66590000D01*
X78902246Y-66590000D01*
X79112127Y-66556757D01*
X79112130Y-66556757D01*
X79314217Y-66491095D01*
X79503556Y-66394620D01*
X79503563Y-66394617D01*
X79516761Y-66385026D01*
X79516762Y-66385025D01*
X78869641Y-65737905D01*
X78988993Y-65705925D01*
X79103007Y-65640099D01*
X79196099Y-65547007D01*
X79261925Y-65432993D01*
X79293905Y-65313641D01*
X79941025Y-65960762D01*
X79941026Y-65960761D01*
X79950617Y-65947563D01*
X79950620Y-65947556D01*
X80047095Y-65758217D01*
X80112757Y-65556130D01*
X80112757Y-65556127D01*
X80146000Y-65346246D01*
X80146000Y-65136530D01*
X80793500Y-65136530D01*
X80793500Y-65343469D01*
X80833868Y-65546412D01*
X80833870Y-65546420D01*
X80901146Y-65708839D01*
X80913059Y-65737598D01*
X80924864Y-65755265D01*
X81028024Y-65909657D01*
X81174342Y-66055975D01*
X81174345Y-66055977D01*
X81346402Y-66170941D01*
X81537580Y-66250130D01*
X81740530Y-66290499D01*
X81740534Y-66290500D01*
X81740535Y-66290500D01*
X81947466Y-66290500D01*
X81947467Y-66290499D01*
X82150420Y-66250130D01*
X82341598Y-66170941D01*
X82513655Y-66055977D01*
X82659977Y-65909655D01*
X82672602Y-65890760D01*
X83358499Y-65890760D01*
X83373584Y-65986004D01*
X83373585Y-65986007D01*
X83373586Y-65986009D01*
X83432081Y-66100812D01*
X83432082Y-66100813D01*
X83432085Y-66100817D01*
X83523182Y-66191914D01*
X83523186Y-66191917D01*
X83523188Y-66191919D01*
X83637991Y-66250414D01*
X83637993Y-66250414D01*
X83637995Y-66250415D01*
X83733239Y-66265500D01*
X83733240Y-66265500D01*
X85034760Y-66265500D01*
X85130004Y-66250415D01*
X85130004Y-66250414D01*
X85130009Y-66250414D01*
X85244812Y-66191919D01*
X85335919Y-66100812D01*
X85394414Y-65986009D01*
X85409500Y-65890760D01*
X85409500Y-64589240D01*
X85406764Y-64571965D01*
X85394415Y-64493995D01*
X85394414Y-64493993D01*
X85394414Y-64493991D01*
X85335919Y-64379188D01*
X85335917Y-64379186D01*
X85335914Y-64379182D01*
X85244817Y-64288085D01*
X85244813Y-64288082D01*
X85244812Y-64288081D01*
X85130009Y-64229586D01*
X85130007Y-64229585D01*
X85130004Y-64229584D01*
X85034760Y-64214500D01*
X83733240Y-64214500D01*
X83637995Y-64229584D01*
X83637991Y-64229585D01*
X83637991Y-64229586D01*
X83561455Y-64268582D01*
X83523186Y-64288082D01*
X83523182Y-64288085D01*
X83432085Y-64379182D01*
X83432082Y-64379186D01*
X83373584Y-64493995D01*
X83358500Y-64589239D01*
X83358500Y-65890760D01*
X83358499Y-65890760D01*
X82672602Y-65890760D01*
X82774941Y-65737598D01*
X82854130Y-65546420D01*
X82894500Y-65343465D01*
X82894500Y-65136535D01*
X82854130Y-64933580D01*
X82774941Y-64742402D01*
X82774940Y-64742400D01*
X82774940Y-64742399D01*
X82715379Y-64653260D01*
X82715377Y-64653258D01*
X82659975Y-64570342D01*
X82513657Y-64424024D01*
X82425365Y-64365030D01*
X82341598Y-64309059D01*
X82298386Y-64291160D01*
X82150420Y-64229870D01*
X82150412Y-64229868D01*
X81947469Y-64189500D01*
X81947465Y-64189500D01*
X81740535Y-64189500D01*
X81740530Y-64189500D01*
X81537587Y-64229868D01*
X81537579Y-64229870D01*
X81346403Y-64309058D01*
X81174342Y-64424024D01*
X81028024Y-64570342D01*
X80913058Y-64742403D01*
X80833870Y-64933579D01*
X80833868Y-64933587D01*
X80793500Y-65136530D01*
X80146000Y-65136530D01*
X80146000Y-65133753D01*
X80112757Y-64923872D01*
X80112757Y-64923869D01*
X80047095Y-64721782D01*
X79950626Y-64532453D01*
X79950618Y-64532440D01*
X79941025Y-64519237D01*
X79941025Y-64519236D01*
X79293905Y-65166357D01*
X79261925Y-65047007D01*
X79196099Y-64932993D01*
X79103007Y-64839901D01*
X78988993Y-64774075D01*
X78869642Y-64742094D01*
X79516761Y-64094973D01*
X79503550Y-64085375D01*
X79314216Y-63988904D01*
X79138026Y-63931656D01*
X79115862Y-63916500D01*
X79091848Y-63904480D01*
X79087455Y-63897076D01*
X79080350Y-63892218D01*
X79069896Y-63867482D01*
X79056196Y-63844391D01*
X79056503Y-63835789D01*
X79053152Y-63827860D01*
X79055511Y-63814230D01*
X90465900Y-63814230D01*
X90465900Y-65122769D01*
X90468753Y-65153199D01*
X90468753Y-65153201D01*
X90512934Y-65279459D01*
X90513607Y-65281382D01*
X90594250Y-65390650D01*
X90703518Y-65471293D01*
X90724489Y-65478631D01*
X90831699Y-65516146D01*
X90862130Y-65519000D01*
X90862134Y-65519000D01*
X92170670Y-65519000D01*
X92201099Y-65516146D01*
X92201101Y-65516146D01*
X92265901Y-65493471D01*
X92329282Y-65471293D01*
X92438550Y-65390650D01*
X92519193Y-65281382D01*
X92563935Y-65153517D01*
X92564046Y-65153201D01*
X92564046Y-65153199D01*
X92566900Y-65122769D01*
X92566900Y-63814230D01*
X92564046Y-63783800D01*
X92564046Y-63783798D01*
X92528859Y-63683242D01*
X92519193Y-63655618D01*
X92438550Y-63546350D01*
X92329282Y-63465707D01*
X92329280Y-63465706D01*
X92201100Y-63420853D01*
X92170670Y-63418000D01*
X92170666Y-63418000D01*
X90862134Y-63418000D01*
X90862130Y-63418000D01*
X90831700Y-63420853D01*
X90831698Y-63420853D01*
X90703519Y-63465706D01*
X90703517Y-63465707D01*
X90594250Y-63546350D01*
X90513607Y-63655617D01*
X90513606Y-63655619D01*
X90468753Y-63783798D01*
X90468753Y-63783800D01*
X90465900Y-63814230D01*
X79055511Y-63814230D01*
X79057731Y-63801398D01*
X79058690Y-63774566D01*
X79063598Y-63767495D01*
X79065067Y-63759013D01*
X79083223Y-63739230D01*
X79086210Y-63734927D01*
X79088401Y-63730132D01*
X79090683Y-63728486D01*
X79098538Y-63717173D01*
X79109362Y-63710750D01*
X79112311Y-63707538D01*
X79128876Y-63699171D01*
X79293598Y-63630941D01*
X79465655Y-63515977D01*
X79611977Y-63369655D01*
X79726941Y-63197598D01*
X79806130Y-63006420D01*
X79846500Y-62803465D01*
X79846500Y-62596535D01*
X79806130Y-62393580D01*
X79726941Y-62202402D01*
X79611977Y-62030345D01*
X79611975Y-62030342D01*
X79465657Y-61884024D01*
X79377365Y-61825030D01*
X90465900Y-61825030D01*
X90465900Y-62031969D01*
X90506268Y-62234912D01*
X90506270Y-62234920D01*
X90572339Y-62394425D01*
X90585459Y-62426098D01*
X90636684Y-62502762D01*
X90700424Y-62598157D01*
X90846742Y-62744475D01*
X90846745Y-62744477D01*
X91018802Y-62859441D01*
X91209980Y-62938630D01*
X91412930Y-62978999D01*
X91412934Y-62979000D01*
X91412935Y-62979000D01*
X91619866Y-62979000D01*
X91619867Y-62978999D01*
X91822820Y-62938630D01*
X92013998Y-62859441D01*
X92186055Y-62744477D01*
X92332377Y-62598155D01*
X92447341Y-62426098D01*
X92515565Y-62261389D01*
X92559404Y-62206988D01*
X92625698Y-62184923D01*
X92693398Y-62202202D01*
X92741009Y-62253339D01*
X92748056Y-62270526D01*
X92805304Y-62446716D01*
X92901775Y-62636050D01*
X92941128Y-62690216D01*
X93573437Y-62057908D01*
X93590475Y-62121493D01*
X93656301Y-62235507D01*
X93749393Y-62328599D01*
X93863407Y-62394425D01*
X93926989Y-62411462D01*
X93294682Y-63043769D01*
X93294682Y-63043770D01*
X93348849Y-63083124D01*
X93538182Y-63179595D01*
X93714373Y-63236843D01*
X93772048Y-63276280D01*
X93799247Y-63340639D01*
X93787332Y-63409485D01*
X93740088Y-63460961D01*
X93723508Y-63469335D01*
X93558803Y-63537557D01*
X93386742Y-63652524D01*
X93240424Y-63798842D01*
X93125458Y-63970903D01*
X93046270Y-64162079D01*
X93046268Y-64162087D01*
X93005900Y-64365030D01*
X93005900Y-64571969D01*
X93046268Y-64774912D01*
X93046270Y-64774920D01*
X93125458Y-64966096D01*
X93240424Y-65138157D01*
X93386742Y-65284475D01*
X93386745Y-65284477D01*
X93558802Y-65399441D01*
X93749980Y-65478630D01*
X93938587Y-65516146D01*
X93952930Y-65518999D01*
X93952934Y-65519000D01*
X93952935Y-65519000D01*
X94159866Y-65519000D01*
X94159867Y-65518999D01*
X94362820Y-65478630D01*
X94553998Y-65399441D01*
X94726055Y-65284477D01*
X94872377Y-65138155D01*
X94987341Y-64966098D01*
X95066530Y-64774920D01*
X95106900Y-64571965D01*
X95106900Y-64365035D01*
X95106899Y-64365030D01*
X95545900Y-64365030D01*
X95545900Y-64571969D01*
X95586268Y-64774912D01*
X95586270Y-64774920D01*
X95665458Y-64966096D01*
X95780424Y-65138157D01*
X95926742Y-65284475D01*
X95926745Y-65284477D01*
X96098802Y-65399441D01*
X96289980Y-65478630D01*
X96478587Y-65516146D01*
X96492930Y-65518999D01*
X96492934Y-65519000D01*
X96492935Y-65519000D01*
X96699866Y-65519000D01*
X96699867Y-65518999D01*
X96902820Y-65478630D01*
X97093998Y-65399441D01*
X97266055Y-65284477D01*
X97412377Y-65138155D01*
X97527341Y-64966098D01*
X97578335Y-64842985D01*
X97622175Y-64788583D01*
X97660799Y-64770665D01*
X97707989Y-64758021D01*
X97776511Y-64718460D01*
X97832460Y-64662511D01*
X99102460Y-63392511D01*
X99134441Y-63337118D01*
X99142021Y-63323989D01*
X99162500Y-63247562D01*
X99162500Y-59484170D01*
X103125000Y-59484170D01*
X103125000Y-59860000D01*
X104045856Y-59860000D01*
X103984075Y-59967007D01*
X103950000Y-60094174D01*
X103950000Y-60225826D01*
X103984075Y-60352993D01*
X104045856Y-60460000D01*
X103125000Y-60460000D01*
X103125000Y-60835829D01*
X103131465Y-60906987D01*
X103131467Y-60906994D01*
X103182489Y-61070729D01*
X103182491Y-61070734D01*
X103271216Y-61217504D01*
X103271219Y-61217508D01*
X103392491Y-61338780D01*
X103392495Y-61338783D01*
X103539265Y-61427508D01*
X103539270Y-61427510D01*
X103703005Y-61478532D01*
X103703012Y-61478534D01*
X103774171Y-61485000D01*
X104014790Y-61485000D01*
X104081829Y-61504685D01*
X104127584Y-61557489D01*
X104137528Y-61626647D01*
X104108503Y-61690203D01*
X104062243Y-61723561D01*
X103952403Y-61769057D01*
X103780342Y-61884024D01*
X103634024Y-62030342D01*
X103519058Y-62202403D01*
X103439870Y-62393579D01*
X103439868Y-62393587D01*
X103399500Y-62596530D01*
X103399500Y-62803469D01*
X103438692Y-63000500D01*
X103439870Y-63006420D01*
X103519059Y-63197598D01*
X103552442Y-63247560D01*
X103634024Y-63369657D01*
X103780342Y-63515975D01*
X103780345Y-63515977D01*
X103952402Y-63630941D01*
X104143580Y-63710130D01*
X104289877Y-63739230D01*
X104346530Y-63750499D01*
X104346534Y-63750500D01*
X104346535Y-63750500D01*
X104553466Y-63750500D01*
X104553467Y-63750499D01*
X104756420Y-63710130D01*
X104947598Y-63630941D01*
X105119655Y-63515977D01*
X105265977Y-63369655D01*
X105380941Y-63197598D01*
X105460130Y-63006420D01*
X105500500Y-62803465D01*
X105500500Y-62596535D01*
X105460130Y-62393580D01*
X105380941Y-62202402D01*
X105265977Y-62030345D01*
X105265975Y-62030342D01*
X105119657Y-61884024D01*
X104947596Y-61769057D01*
X104837757Y-61723561D01*
X104783354Y-61679720D01*
X104761289Y-61613426D01*
X104778568Y-61545726D01*
X104829706Y-61498116D01*
X104885210Y-61485000D01*
X105125829Y-61485000D01*
X105196987Y-61478534D01*
X105196994Y-61478532D01*
X105360729Y-61427510D01*
X105360734Y-61427508D01*
X105507504Y-61338783D01*
X105507508Y-61338780D01*
X105628780Y-61217508D01*
X105628783Y-61217504D01*
X105717508Y-61070734D01*
X105717510Y-61070729D01*
X105768532Y-60906994D01*
X105768534Y-60906987D01*
X105775000Y-60835829D01*
X105775000Y-60460000D01*
X104854144Y-60460000D01*
X104915925Y-60352993D01*
X104950000Y-60225826D01*
X104950000Y-60094174D01*
X104915925Y-59967007D01*
X104854144Y-59860000D01*
X105775000Y-59860000D01*
X105775000Y-59484170D01*
X105768534Y-59413012D01*
X105768532Y-59413005D01*
X105717510Y-59249270D01*
X105717508Y-59249265D01*
X105628783Y-59102495D01*
X105628780Y-59102491D01*
X105507508Y-58981219D01*
X105507504Y-58981216D01*
X105360734Y-58892491D01*
X105360729Y-58892489D01*
X105196994Y-58841467D01*
X105196987Y-58841465D01*
X105125829Y-58835000D01*
X104750000Y-58835000D01*
X104750000Y-59755855D01*
X104642993Y-59694075D01*
X104515826Y-59660000D01*
X104384174Y-59660000D01*
X104257007Y-59694075D01*
X104150000Y-59755855D01*
X104150000Y-58835000D01*
X103774171Y-58835000D01*
X103703012Y-58841465D01*
X103703005Y-58841467D01*
X103539270Y-58892489D01*
X103539265Y-58892491D01*
X103392495Y-58981216D01*
X103392491Y-58981219D01*
X103271219Y-59102491D01*
X103271216Y-59102495D01*
X103182491Y-59249265D01*
X103182489Y-59249270D01*
X103131467Y-59413005D01*
X103131465Y-59413012D01*
X103125000Y-59484170D01*
X99162500Y-59484170D01*
X99162500Y-48940496D01*
X99182185Y-48873457D01*
X99224501Y-48833108D01*
X99230716Y-48829520D01*
X99342520Y-48717716D01*
X99421577Y-48580784D01*
X99462500Y-48428057D01*
X99462500Y-48269943D01*
X99421577Y-48117216D01*
X99388304Y-48059585D01*
X99342524Y-47980290D01*
X99342518Y-47980282D01*
X99230717Y-47868481D01*
X99230709Y-47868475D01*
X99093790Y-47789426D01*
X99093786Y-47789424D01*
X99093784Y-47789423D01*
X98941057Y-47748500D01*
X98782943Y-47748500D01*
X98630216Y-47789423D01*
X98630209Y-47789426D01*
X98493290Y-47868475D01*
X98493282Y-47868481D01*
X98381481Y-47980282D01*
X98381475Y-47980290D01*
X98302426Y-48117209D01*
X98302423Y-48117216D01*
X98261500Y-48269943D01*
X98261500Y-48428057D01*
X98299847Y-48571168D01*
X98302423Y-48580783D01*
X98302426Y-48580790D01*
X98381475Y-48717709D01*
X98381481Y-48717717D01*
X98493284Y-48829520D01*
X98499499Y-48833108D01*
X98547715Y-48883675D01*
X98561500Y-48940496D01*
X98561500Y-63032166D01*
X98541815Y-63099205D01*
X98525181Y-63119847D01*
X97692974Y-63952053D01*
X97631651Y-63985538D01*
X97561959Y-63980554D01*
X97506026Y-63938682D01*
X97502206Y-63933285D01*
X97412377Y-63798845D01*
X97412375Y-63798842D01*
X97266057Y-63652524D01*
X97180026Y-63595041D01*
X97093998Y-63537559D01*
X97093993Y-63537557D01*
X96902820Y-63458370D01*
X96902812Y-63458368D01*
X96699869Y-63418000D01*
X96699865Y-63418000D01*
X96492935Y-63418000D01*
X96492930Y-63418000D01*
X96289987Y-63458368D01*
X96289979Y-63458370D01*
X96098803Y-63537558D01*
X95926742Y-63652524D01*
X95780424Y-63798842D01*
X95665458Y-63970903D01*
X95586270Y-64162079D01*
X95586268Y-64162087D01*
X95545900Y-64365030D01*
X95106899Y-64365030D01*
X95066530Y-64162080D01*
X95013401Y-64033817D01*
X95005933Y-63964352D01*
X95037207Y-63901873D01*
X95040251Y-63898718D01*
X95546460Y-63392511D01*
X95578441Y-63337118D01*
X95586021Y-63323989D01*
X95606500Y-63247562D01*
X95606500Y-62723595D01*
X95626185Y-62656556D01*
X95678989Y-62610801D01*
X95748147Y-62600857D01*
X95811703Y-62629882D01*
X95818181Y-62635914D01*
X95926742Y-62744475D01*
X95926745Y-62744477D01*
X96098802Y-62859441D01*
X96289980Y-62938630D01*
X96492930Y-62978999D01*
X96492934Y-62979000D01*
X96492935Y-62979000D01*
X96699866Y-62979000D01*
X96699867Y-62978999D01*
X96902820Y-62938630D01*
X97093998Y-62859441D01*
X97266055Y-62744477D01*
X97412377Y-62598155D01*
X97527341Y-62426098D01*
X97606530Y-62234920D01*
X97646900Y-62031965D01*
X97646900Y-61825035D01*
X97606530Y-61622080D01*
X97527341Y-61430902D01*
X97412377Y-61258845D01*
X97412375Y-61258842D01*
X97266057Y-61112524D01*
X97095288Y-60998421D01*
X97093998Y-60997559D01*
X96902820Y-60918370D01*
X96902812Y-60918368D01*
X96699869Y-60878000D01*
X96699865Y-60878000D01*
X96492935Y-60878000D01*
X96492930Y-60878000D01*
X96289987Y-60918368D01*
X96289979Y-60918370D01*
X96098803Y-60997558D01*
X95926742Y-61112524D01*
X95926741Y-61112525D01*
X95818181Y-61221086D01*
X95756858Y-61254571D01*
X95687166Y-61249587D01*
X95631233Y-61207715D01*
X95606816Y-61142251D01*
X95606500Y-61133405D01*
X95606500Y-48813496D01*
X95626185Y-48746457D01*
X95668501Y-48706108D01*
X95674716Y-48702520D01*
X95786520Y-48590716D01*
X95865577Y-48453784D01*
X95906500Y-48301057D01*
X95906500Y-48142943D01*
X95865577Y-47990216D01*
X95827296Y-47923911D01*
X95786524Y-47853290D01*
X95786518Y-47853282D01*
X95674717Y-47741481D01*
X95674709Y-47741475D01*
X95537790Y-47662426D01*
X95537786Y-47662424D01*
X95537784Y-47662423D01*
X95385057Y-47621500D01*
X95226943Y-47621500D01*
X95074216Y-47662423D01*
X95074209Y-47662426D01*
X94937290Y-47741475D01*
X94937282Y-47741481D01*
X94825481Y-47853282D01*
X94825475Y-47853290D01*
X94746426Y-47990209D01*
X94746423Y-47990216D01*
X94705500Y-48142943D01*
X94705500Y-48301057D01*
X94741776Y-48436439D01*
X94746423Y-48453783D01*
X94746426Y-48453790D01*
X94825475Y-48590709D01*
X94825481Y-48590717D01*
X94937284Y-48702520D01*
X94943499Y-48706108D01*
X94991715Y-48756675D01*
X95005500Y-48813496D01*
X95005500Y-60706006D01*
X94985815Y-60773045D01*
X94933011Y-60818800D01*
X94863853Y-60828744D01*
X94808615Y-60806325D01*
X94763953Y-60773876D01*
X94574617Y-60677404D01*
X94372529Y-60611742D01*
X94162646Y-60578500D01*
X93950154Y-60578500D01*
X93740272Y-60611742D01*
X93740269Y-60611742D01*
X93538182Y-60677404D01*
X93348839Y-60773880D01*
X93294682Y-60813227D01*
X93294682Y-60813228D01*
X93926991Y-61445537D01*
X93863407Y-61462575D01*
X93749393Y-61528401D01*
X93656301Y-61621493D01*
X93590475Y-61735507D01*
X93573437Y-61799091D01*
X92941128Y-61166782D01*
X92941127Y-61166782D01*
X92901780Y-61220939D01*
X92805305Y-61410281D01*
X92748056Y-61586474D01*
X92708618Y-61644149D01*
X92644259Y-61671347D01*
X92575413Y-61659432D01*
X92523937Y-61612188D01*
X92515564Y-61595607D01*
X92513448Y-61590499D01*
X92475182Y-61498116D01*
X92447343Y-61430905D01*
X92332375Y-61258842D01*
X92186057Y-61112524D01*
X92015288Y-60998421D01*
X92013998Y-60997559D01*
X91822820Y-60918370D01*
X91822812Y-60918368D01*
X91619869Y-60878000D01*
X91619865Y-60878000D01*
X91412935Y-60878000D01*
X91412930Y-60878000D01*
X91209987Y-60918368D01*
X91209979Y-60918370D01*
X91018803Y-60997558D01*
X90846742Y-61112524D01*
X90700424Y-61258842D01*
X90585458Y-61430903D01*
X90506270Y-61622079D01*
X90506268Y-61622087D01*
X90465900Y-61825030D01*
X79377365Y-61825030D01*
X79332507Y-61795057D01*
X79293598Y-61769059D01*
X79293593Y-61769057D01*
X79102420Y-61689870D01*
X79102412Y-61689868D01*
X78899469Y-61649500D01*
X78899465Y-61649500D01*
X78692535Y-61649500D01*
X78692530Y-61649500D01*
X78489587Y-61689868D01*
X78489579Y-61689870D01*
X78298403Y-61769058D01*
X78126342Y-61884024D01*
X77980024Y-62030342D01*
X77865058Y-62202403D01*
X77785870Y-62393579D01*
X77785868Y-62393587D01*
X77745500Y-62596530D01*
X77745500Y-62803469D01*
X77784692Y-63000500D01*
X77785870Y-63006420D01*
X77865059Y-63197598D01*
X77898442Y-63247560D01*
X77980024Y-63369657D01*
X78126342Y-63515975D01*
X78298405Y-63630943D01*
X78373609Y-63662093D01*
X78463108Y-63699164D01*
X78517511Y-63743005D01*
X78539576Y-63809299D01*
X78522297Y-63876998D01*
X78471160Y-63924609D01*
X78453974Y-63931656D01*
X78277781Y-63988905D01*
X78088448Y-64085375D01*
X78075237Y-64094972D01*
X78075237Y-64094973D01*
X78722358Y-64742094D01*
X78603007Y-64774075D01*
X78488993Y-64839901D01*
X78395901Y-64932993D01*
X78330075Y-65047007D01*
X78298094Y-65166358D01*
X77650973Y-64519237D01*
X77650972Y-64519237D01*
X77641375Y-64532448D01*
X77544904Y-64721782D01*
X77479242Y-64923869D01*
X77479242Y-64923872D01*
X77446000Y-65133753D01*
X61547218Y-65133753D01*
X68235152Y-58445819D01*
X68296475Y-58412334D01*
X68322833Y-58409500D01*
X74234167Y-58409500D01*
X74301206Y-58429185D01*
X74346961Y-58481989D01*
X74356905Y-58551147D01*
X74327880Y-58614703D01*
X74321848Y-58621181D01*
X74097841Y-58845187D01*
X74097835Y-58845195D01*
X74058282Y-58913704D01*
X74058279Y-58913709D01*
X74037800Y-58990139D01*
X74037800Y-60377867D01*
X74018115Y-60444906D01*
X74001481Y-60465548D01*
X71695448Y-62771581D01*
X71634125Y-62805066D01*
X71607767Y-62807900D01*
X71602582Y-62807900D01*
X71494363Y-62836897D01*
X71494360Y-62836898D01*
X71397340Y-62892913D01*
X71397334Y-62892917D01*
X71318117Y-62972134D01*
X71318113Y-62972140D01*
X71262098Y-63069160D01*
X71262097Y-63069163D01*
X71233100Y-63177382D01*
X71233100Y-63289418D01*
X71262097Y-63397637D01*
X71318115Y-63494663D01*
X71397337Y-63573885D01*
X71494363Y-63629903D01*
X71602582Y-63658900D01*
X71602584Y-63658900D01*
X71714616Y-63658900D01*
X71714618Y-63658900D01*
X71822837Y-63629903D01*
X71919863Y-63573885D01*
X71999085Y-63494663D01*
X72055103Y-63397637D01*
X72084100Y-63289418D01*
X72084100Y-63284233D01*
X72103785Y-63217194D01*
X72120419Y-63196552D01*
X72814209Y-62502762D01*
X73695478Y-61621493D01*
X74506211Y-60810760D01*
X77770499Y-60810760D01*
X77785584Y-60906004D01*
X77785585Y-60906007D01*
X77785586Y-60906009D01*
X77844081Y-61020812D01*
X77844082Y-61020813D01*
X77844085Y-61020817D01*
X77935182Y-61111914D01*
X77935186Y-61111917D01*
X77935188Y-61111919D01*
X78049991Y-61170414D01*
X78049993Y-61170414D01*
X78049995Y-61170415D01*
X78145239Y-61185500D01*
X78145240Y-61185500D01*
X79446760Y-61185500D01*
X79542004Y-61170415D01*
X79542004Y-61170414D01*
X79542009Y-61170414D01*
X79656812Y-61111919D01*
X79747919Y-61020812D01*
X79806414Y-60906009D01*
X79817530Y-60835829D01*
X79821500Y-60810760D01*
X79821500Y-59509239D01*
X79806415Y-59413995D01*
X79806414Y-59413993D01*
X79806414Y-59413991D01*
X79747919Y-59299188D01*
X79747917Y-59299186D01*
X79747914Y-59299182D01*
X79656817Y-59208085D01*
X79656813Y-59208082D01*
X79656812Y-59208081D01*
X79542009Y-59149586D01*
X79542007Y-59149585D01*
X79542004Y-59149584D01*
X79446760Y-59134500D01*
X78145240Y-59134500D01*
X78049995Y-59149584D01*
X77935186Y-59208082D01*
X77935182Y-59208085D01*
X77844085Y-59299182D01*
X77844082Y-59299186D01*
X77785584Y-59413995D01*
X77770500Y-59509239D01*
X77770500Y-60810760D01*
X77770499Y-60810760D01*
X74506211Y-60810760D01*
X74578760Y-60738211D01*
X74588008Y-60722192D01*
X74605264Y-60692305D01*
X74613397Y-60678217D01*
X74618321Y-60669689D01*
X74638800Y-60593262D01*
X74638800Y-59205533D01*
X74658485Y-59138494D01*
X74675119Y-59117852D01*
X74947152Y-58845819D01*
X75008475Y-58812334D01*
X75034833Y-58809500D01*
X80232560Y-58809500D01*
X80232562Y-58809500D01*
X80308989Y-58789021D01*
X80377511Y-58749460D01*
X80433460Y-58693511D01*
X80916152Y-58210819D01*
X80977475Y-58177334D01*
X81003833Y-58174500D01*
X87014362Y-58174500D01*
X87014364Y-58174500D01*
X87090791Y-58154021D01*
X87159313Y-58114460D01*
X87215262Y-58058511D01*
X91685754Y-53588019D01*
X91712681Y-53573315D01*
X91738500Y-53556723D01*
X91744700Y-53555831D01*
X91747077Y-53554534D01*
X91773435Y-53551700D01*
X91850570Y-53551700D01*
X91917609Y-53571385D01*
X91924624Y-53576317D01*
X91925106Y-53576595D01*
X91925107Y-53576596D01*
X92022133Y-53632614D01*
X92130352Y-53661611D01*
X92130354Y-53661611D01*
X92242386Y-53661611D01*
X92242388Y-53661611D01*
X92350607Y-53632614D01*
X92447633Y-53576596D01*
X92526855Y-53497374D01*
X92582873Y-53400348D01*
X92611870Y-53292129D01*
X92611870Y-53180093D01*
X92582873Y-53071874D01*
X92526855Y-52974848D01*
X92447633Y-52895626D01*
X92350607Y-52839608D01*
X92242388Y-52810611D01*
X92130352Y-52810611D01*
X92022133Y-52839608D01*
X92022130Y-52839609D01*
X91925110Y-52895624D01*
X91925104Y-52895628D01*
X91906352Y-52914381D01*
X91845029Y-52947866D01*
X91818671Y-52950700D01*
X91558040Y-52950700D01*
X91519826Y-52960939D01*
X91481611Y-52971179D01*
X91481610Y-52971180D01*
X91447457Y-52990899D01*
X91439226Y-52995651D01*
X91431460Y-53000134D01*
X91413091Y-53010739D01*
X91413089Y-53010741D01*
X86886650Y-57537181D01*
X86825327Y-57570666D01*
X86798969Y-57573500D01*
X86501033Y-57573500D01*
X86433994Y-57553815D01*
X86388239Y-57501011D01*
X86378295Y-57431853D01*
X86407320Y-57368297D01*
X86413352Y-57361819D01*
X90747952Y-53027219D01*
X90809275Y-52993734D01*
X90835633Y-52990900D01*
X90840816Y-52990900D01*
X90840818Y-52990900D01*
X90949037Y-52961903D01*
X91046063Y-52905885D01*
X91125285Y-52826663D01*
X91181303Y-52729637D01*
X91210300Y-52621418D01*
X91210300Y-52509382D01*
X91181303Y-52401163D01*
X91125285Y-52304137D01*
X91046063Y-52224915D01*
X90949037Y-52168897D01*
X90840818Y-52139900D01*
X90728782Y-52139900D01*
X90620563Y-52168897D01*
X90620560Y-52168898D01*
X90523540Y-52224913D01*
X90523534Y-52224917D01*
X90444317Y-52304134D01*
X90444313Y-52304140D01*
X90388298Y-52401160D01*
X90388297Y-52401163D01*
X90359300Y-52509382D01*
X90359300Y-52514567D01*
X90339615Y-52581606D01*
X90322981Y-52602248D01*
X85896048Y-57029181D01*
X85834725Y-57062666D01*
X85808367Y-57065500D01*
X80695398Y-57065500D01*
X80618970Y-57085978D01*
X80550449Y-57125540D01*
X80550446Y-57125542D01*
X79903808Y-57772181D01*
X79842485Y-57805666D01*
X79816127Y-57808500D01*
X68107438Y-57808500D01*
X68069224Y-57818739D01*
X68031009Y-57828979D01*
X68031008Y-57828980D01*
X67967039Y-57865912D01*
X67967039Y-57865913D01*
X67964074Y-57867624D01*
X67962485Y-57868542D01*
X60798848Y-65032181D01*
X60737525Y-65065666D01*
X60711167Y-65068500D01*
X60705982Y-65068500D01*
X60597763Y-65097497D01*
X60597760Y-65097498D01*
X60500740Y-65153513D01*
X60500734Y-65153517D01*
X60421517Y-65232734D01*
X60421513Y-65232740D01*
X60365498Y-65329760D01*
X60365497Y-65329763D01*
X60336500Y-65437982D01*
X43768097Y-65437982D01*
X43779459Y-65429727D01*
X43779464Y-65429723D01*
X43867014Y-65342174D01*
X43929723Y-65279464D01*
X43929727Y-65279459D01*
X44054620Y-65107557D01*
X44151095Y-64918217D01*
X44216757Y-64716130D01*
X44216757Y-64716127D01*
X44247030Y-64525000D01*
X43304146Y-64525000D01*
X43342630Y-64458343D01*
X43375000Y-64337535D01*
X43375000Y-64212465D01*
X43342630Y-64091657D01*
X43304146Y-64025000D01*
X44247030Y-64025000D01*
X44216757Y-63833872D01*
X44216757Y-63833869D01*
X44151095Y-63631782D01*
X44054620Y-63442442D01*
X43929727Y-63270540D01*
X43929723Y-63270535D01*
X43779464Y-63120276D01*
X43779459Y-63120272D01*
X43607557Y-62995379D01*
X43418215Y-62898903D01*
X43216124Y-62833241D01*
X43150000Y-62822768D01*
X43150000Y-63870854D01*
X43083343Y-63832370D01*
X42962535Y-63800000D01*
X42837465Y-63800000D01*
X42716657Y-63832370D01*
X42650000Y-63870854D01*
X42650000Y-62822768D01*
X42649999Y-62822768D01*
X42583875Y-62833241D01*
X42381784Y-62898903D01*
X42192442Y-62995379D01*
X42020540Y-63120272D01*
X42020535Y-63120276D01*
X41870276Y-63270535D01*
X41870272Y-63270540D01*
X41745379Y-63442442D01*
X41648905Y-63631781D01*
X41609240Y-63753856D01*
X41569802Y-63811531D01*
X41505443Y-63838729D01*
X41436597Y-63826814D01*
X41385121Y-63779570D01*
X41376748Y-63762990D01*
X41372965Y-63753856D01*
X41330941Y-63652402D01*
X41215977Y-63480345D01*
X41215975Y-63480342D01*
X41069657Y-63334024D01*
X40940253Y-63247560D01*
X40897598Y-63219059D01*
X40796981Y-63177382D01*
X40706420Y-63139870D01*
X40706412Y-63139868D01*
X40503469Y-63099500D01*
X40503465Y-63099500D01*
X40296535Y-63099500D01*
X40296530Y-63099500D01*
X40093587Y-63139868D01*
X40093579Y-63139870D01*
X39902403Y-63219058D01*
X39730342Y-63334024D01*
X39584024Y-63480342D01*
X39469058Y-63652403D01*
X39389870Y-63843579D01*
X39389868Y-63843587D01*
X39349500Y-64046530D01*
X38950500Y-64046530D01*
X38950500Y-63495730D01*
X38947646Y-63465300D01*
X38947646Y-63465298D01*
X38902793Y-63337118D01*
X38902792Y-63337117D01*
X38822150Y-63227850D01*
X38712882Y-63147207D01*
X38712880Y-63147206D01*
X38584700Y-63102353D01*
X38554270Y-63099500D01*
X38554266Y-63099500D01*
X37245734Y-63099500D01*
X37245730Y-63099500D01*
X37215300Y-63102353D01*
X37215298Y-63102353D01*
X37087119Y-63147206D01*
X37087117Y-63147207D01*
X36977850Y-63227850D01*
X36897207Y-63337117D01*
X36897207Y-63337118D01*
X36852353Y-63465298D01*
X36852353Y-63465300D01*
X36849500Y-63495730D01*
X33498500Y-63495730D01*
X33498500Y-60712235D01*
X33518185Y-60645196D01*
X33560501Y-60604848D01*
X33637314Y-60560500D01*
X33730500Y-60467314D01*
X33796392Y-60353186D01*
X33830500Y-60225892D01*
X33830500Y-60094108D01*
X33796392Y-59966814D01*
X33730500Y-59852686D01*
X33637314Y-59759500D01*
X33637311Y-59759498D01*
X33637307Y-59759495D01*
X33560499Y-59715149D01*
X33552216Y-59706462D01*
X33541297Y-59701476D01*
X33528550Y-59681642D01*
X33512284Y-59664582D01*
X33509068Y-59651326D01*
X33503523Y-59642698D01*
X33498500Y-59607763D01*
X33498500Y-59442235D01*
X33518185Y-59375196D01*
X33560501Y-59334848D01*
X33637314Y-59290500D01*
X33730500Y-59197314D01*
X33796392Y-59083186D01*
X33830500Y-58955892D01*
X33830500Y-58824108D01*
X33796392Y-58696814D01*
X33730500Y-58582686D01*
X33637314Y-58489500D01*
X33637311Y-58489498D01*
X33637307Y-58489495D01*
X33560499Y-58445149D01*
X33554076Y-58438412D01*
X33545447Y-58434917D01*
X33530348Y-58413527D01*
X33512284Y-58394582D01*
X33509451Y-58383924D01*
X33505154Y-58377836D01*
X33500690Y-58350956D01*
X33498617Y-58343153D01*
X33498500Y-58340463D01*
X33498500Y-58237772D01*
X33491827Y-58187089D01*
X33491592Y-58181681D01*
X33498720Y-58152814D01*
X33503301Y-58123443D01*
X33507005Y-58119269D01*
X33508344Y-58113849D01*
X33529946Y-58093420D01*
X33549680Y-58071186D01*
X33553450Y-58068918D01*
X33637314Y-58020500D01*
X33730500Y-57927314D01*
X33796392Y-57813186D01*
X33830500Y-57685892D01*
X33830500Y-57554108D01*
X33796392Y-57426814D01*
X33730500Y-57312686D01*
X33637314Y-57219500D01*
X33548145Y-57168018D01*
X33523187Y-57153608D01*
X33418441Y-57125542D01*
X33395892Y-57119500D01*
X33264108Y-57119500D01*
X33264106Y-57119500D01*
X33210438Y-57133880D01*
X33140588Y-57132217D01*
X33082726Y-57093053D01*
X33079970Y-57089591D01*
X32955975Y-56927997D01*
X32955969Y-56927990D01*
X32752009Y-56724030D01*
X32752002Y-56724024D01*
X32523164Y-56548431D01*
X32523162Y-56548429D01*
X32523156Y-56548425D01*
X32523151Y-56548422D01*
X32523148Y-56548420D01*
X32346422Y-56446387D01*
X32298206Y-56395820D01*
X32284984Y-56327213D01*
X32310952Y-56262348D01*
X32367866Y-56221820D01*
X32408422Y-56215000D01*
X33452290Y-56215000D01*
X33519329Y-56234685D01*
X33539971Y-56251319D01*
X34128584Y-56839932D01*
X34162069Y-56901255D01*
X34164903Y-56927613D01*
X34164903Y-56932798D01*
X34193900Y-57041017D01*
X34249918Y-57138043D01*
X34329140Y-57217265D01*
X34426166Y-57273283D01*
X34534385Y-57302280D01*
X34534387Y-57302280D01*
X34646419Y-57302280D01*
X34646421Y-57302280D01*
X34754640Y-57273283D01*
X34851666Y-57217265D01*
X34930888Y-57138043D01*
X34986906Y-57041017D01*
X35015903Y-56932798D01*
X35015903Y-56820762D01*
X34986906Y-56712543D01*
X34930888Y-56615517D01*
X34851666Y-56536295D01*
X34754640Y-56480277D01*
X34646421Y-56451280D01*
X34646420Y-56451280D01*
X34641236Y-56451280D01*
X34574197Y-56431595D01*
X34553555Y-56414961D01*
X33812637Y-55674042D01*
X33812634Y-55674040D01*
X33807219Y-55670913D01*
X33807214Y-55670908D01*
X33807213Y-55670910D01*
X33744112Y-55634479D01*
X33667685Y-55614000D01*
X33667683Y-55614000D01*
X32284515Y-55614000D01*
X32217476Y-55594315D01*
X32171721Y-55541511D01*
X32161777Y-55472353D01*
X32190802Y-55408797D01*
X32249580Y-55371023D01*
X32268330Y-55367061D01*
X32324291Y-55359693D01*
X32490217Y-55337849D01*
X32768845Y-55263191D01*
X32768857Y-55263185D01*
X32768860Y-55263185D01*
X33035336Y-55152808D01*
X33035339Y-55152806D01*
X33035345Y-55152804D01*
X33285156Y-55008575D01*
X33514004Y-54832974D01*
X33717974Y-54629004D01*
X33893575Y-54400156D01*
X33973051Y-54262499D01*
X34023618Y-54214284D01*
X34080438Y-54200500D01*
X35582268Y-54200500D01*
X35649307Y-54220185D01*
X35669949Y-54236819D01*
X39863308Y-58430178D01*
X39863345Y-58430217D01*
X40023370Y-58590242D01*
X40023376Y-58590247D01*
X40147144Y-58685217D01*
X40200226Y-58725948D01*
X40393274Y-58837405D01*
X40523140Y-58891197D01*
X40577488Y-58913709D01*
X40599219Y-58922710D01*
X40814537Y-58980404D01*
X41035544Y-59009501D01*
X41035551Y-59009501D01*
X41262296Y-59009501D01*
X41262328Y-59009500D01*
X42020406Y-59009500D01*
X42087445Y-59029185D01*
X42133200Y-59081989D01*
X42143144Y-59151147D01*
X42114119Y-59214703D01*
X42108087Y-59221181D01*
X42030085Y-59299182D01*
X42030082Y-59299186D01*
X41971584Y-59413995D01*
X41956500Y-59509239D01*
X41956500Y-60810760D01*
X41956499Y-60810760D01*
X41971584Y-60906004D01*
X41971585Y-60906007D01*
X41971586Y-60906009D01*
X41988691Y-60939580D01*
X42001587Y-61008248D01*
X41975310Y-61072988D01*
X41918204Y-61113245D01*
X41848398Y-61116237D01*
X41790525Y-61083554D01*
X41550934Y-60843963D01*
X41517449Y-60782640D01*
X41522433Y-60712948D01*
X41540241Y-60680793D01*
X41544479Y-60675268D01*
X41544485Y-60675263D01*
X41600503Y-60578237D01*
X41629500Y-60470018D01*
X41629500Y-60357982D01*
X41600503Y-60249763D01*
X41544485Y-60152737D01*
X41465263Y-60073515D01*
X41368237Y-60017497D01*
X41260018Y-59988500D01*
X41147982Y-59988500D01*
X41039763Y-60017497D01*
X41039760Y-60017498D01*
X40942740Y-60073513D01*
X40942734Y-60073517D01*
X40863517Y-60152734D01*
X40863513Y-60152740D01*
X40807498Y-60249760D01*
X40807497Y-60249763D01*
X40778500Y-60357982D01*
X40778500Y-60470018D01*
X40802745Y-60560500D01*
X40807497Y-60578236D01*
X40807498Y-60578239D01*
X40816172Y-60593262D01*
X40863515Y-60675263D01*
X40863517Y-60675265D01*
X40867181Y-60678929D01*
X40900666Y-60740252D01*
X40903500Y-60766610D01*
X40903500Y-60961562D01*
X40923979Y-61037989D01*
X40932559Y-61052850D01*
X40963540Y-61106511D01*
X41471540Y-61614511D01*
X41527489Y-61670460D01*
X41527491Y-61670461D01*
X41527495Y-61670464D01*
X41561108Y-61689870D01*
X41596011Y-61710021D01*
X41672438Y-61730500D01*
X41751562Y-61730500D01*
X61007167Y-61730500D01*
X61074206Y-61750185D01*
X61119961Y-61802989D01*
X61129905Y-61872147D01*
X61100880Y-61935703D01*
X61094848Y-61942181D01*
X60673848Y-62363181D01*
X60612525Y-62396666D01*
X60586167Y-62399500D01*
X57812610Y-62399500D01*
X57745571Y-62379815D01*
X57724929Y-62363181D01*
X57721265Y-62359517D01*
X57721263Y-62359515D01*
X57624237Y-62303497D01*
X57516018Y-62274500D01*
X57403982Y-62274500D01*
X57295763Y-62303497D01*
X57295760Y-62303498D01*
X57198740Y-62359513D01*
X57198734Y-62359517D01*
X57119517Y-62438734D01*
X57119513Y-62438740D01*
X57063498Y-62535760D01*
X57063497Y-62535763D01*
X57034500Y-62643982D01*
X57034500Y-62756018D01*
X57063497Y-62864237D01*
X57119515Y-62961263D01*
X57198737Y-63040485D01*
X57295763Y-63096503D01*
X57403982Y-63125500D01*
X57403984Y-63125500D01*
X57516016Y-63125500D01*
X57516018Y-63125500D01*
X57624237Y-63096503D01*
X57721263Y-63040485D01*
X57724929Y-63036819D01*
X57786252Y-63003334D01*
X57812610Y-63000500D01*
X60801560Y-63000500D01*
X60801562Y-63000500D01*
X60877989Y-62980021D01*
X60946511Y-62940460D01*
X61002460Y-62884511D01*
X66438152Y-57448819D01*
X66499475Y-57415334D01*
X66525833Y-57412500D01*
X78875190Y-57412500D01*
X78942229Y-57432185D01*
X78962871Y-57448819D01*
X78966537Y-57452485D01*
X79063563Y-57508503D01*
X79171782Y-57537500D01*
X79171784Y-57537500D01*
X79283816Y-57537500D01*
X79283818Y-57537500D01*
X79392037Y-57508503D01*
X79489063Y-57452485D01*
X79568285Y-57373263D01*
X79624303Y-57276237D01*
X79653300Y-57168018D01*
X79653300Y-57055982D01*
X79624303Y-56947763D01*
X79624302Y-56947761D01*
X79622199Y-56939912D01*
X79623776Y-56939489D01*
X79617328Y-56879477D01*
X79648607Y-56816999D01*
X79708698Y-56781350D01*
X79739357Y-56777500D01*
X82264560Y-56777500D01*
X82264562Y-56777500D01*
X82340989Y-56757021D01*
X82409511Y-56717460D01*
X82465460Y-56661511D01*
X84980152Y-54146819D01*
X85041475Y-54113334D01*
X85067833Y-54110500D01*
X87333390Y-54110500D01*
X87400429Y-54130185D01*
X87421071Y-54146819D01*
X87424737Y-54150485D01*
X87521763Y-54206503D01*
X87629982Y-54235500D01*
X87629984Y-54235500D01*
X87742016Y-54235500D01*
X87742018Y-54235500D01*
X87850237Y-54206503D01*
X87947263Y-54150485D01*
X88026485Y-54071263D01*
X88082503Y-53974237D01*
X88111500Y-53866018D01*
X88111500Y-53753982D01*
X88082503Y-53645763D01*
X88026485Y-53548737D01*
X87947263Y-53469515D01*
X87850237Y-53413497D01*
X87742018Y-53384500D01*
X87629982Y-53384500D01*
X87521763Y-53413497D01*
X87521760Y-53413498D01*
X87424740Y-53469513D01*
X87424734Y-53469517D01*
X87421071Y-53473181D01*
X87359748Y-53506666D01*
X87333390Y-53509500D01*
X84852438Y-53509500D01*
X84776010Y-53529978D01*
X84707489Y-53569540D01*
X84707486Y-53569542D01*
X82136848Y-56140181D01*
X82075525Y-56173666D01*
X82049167Y-56176500D01*
X66183438Y-56176500D01*
X66107010Y-56196978D01*
X66038489Y-56236540D01*
X66038486Y-56236542D01*
X61181848Y-61093181D01*
X61120525Y-61126666D01*
X61094167Y-61129500D01*
X49269672Y-61129500D01*
X49202633Y-61109815D01*
X49156878Y-61057011D01*
X49146934Y-60987853D01*
X49169354Y-60932615D01*
X49216620Y-60867557D01*
X49313095Y-60678217D01*
X49378757Y-60476130D01*
X49378757Y-60476127D01*
X49412000Y-60266246D01*
X49412000Y-60053753D01*
X49378757Y-59843872D01*
X49378757Y-59843869D01*
X49313095Y-59641782D01*
X49216626Y-59452453D01*
X49216618Y-59452440D01*
X49207025Y-59439237D01*
X49207025Y-59439236D01*
X48559905Y-60086356D01*
X48527925Y-59967007D01*
X48462099Y-59852993D01*
X48369007Y-59759901D01*
X48254993Y-59694075D01*
X48135642Y-59662094D01*
X48751916Y-59045819D01*
X48813239Y-59012334D01*
X48839597Y-59009500D01*
X57838367Y-59009500D01*
X57838399Y-59009501D01*
X57842239Y-59009501D01*
X58065144Y-59009501D01*
X58065151Y-59009501D01*
X58286158Y-58980404D01*
X58501476Y-58922710D01*
X58707421Y-58837405D01*
X58900469Y-58725948D01*
X58953551Y-58685217D01*
X59077319Y-58590247D01*
X59234942Y-58432624D01*
X59240306Y-58427260D01*
X59240321Y-58427242D01*
X61725310Y-55942255D01*
X61786633Y-55908770D01*
X61812991Y-55905936D01*
X61944880Y-55905936D01*
X61944880Y-55905935D01*
X62218380Y-55875119D01*
X62486713Y-55813874D01*
X62746502Y-55722970D01*
X62994480Y-55603550D01*
X63227527Y-55457117D01*
X63261051Y-55430382D01*
X75652700Y-55430382D01*
X75652700Y-55542418D01*
X75671484Y-55612519D01*
X75681697Y-55650636D01*
X75681698Y-55650639D01*
X75695209Y-55674040D01*
X75737715Y-55747663D01*
X75816937Y-55826885D01*
X75913963Y-55882903D01*
X76022182Y-55911900D01*
X76022184Y-55911900D01*
X76134216Y-55911900D01*
X76134218Y-55911900D01*
X76242437Y-55882903D01*
X76339463Y-55826885D01*
X76343129Y-55823219D01*
X76404452Y-55789734D01*
X76430810Y-55786900D01*
X77133760Y-55786900D01*
X77133762Y-55786900D01*
X77210189Y-55766421D01*
X77278711Y-55726860D01*
X77334660Y-55670911D01*
X79798460Y-53207111D01*
X79814059Y-53180093D01*
X79838021Y-53138589D01*
X79858500Y-53062162D01*
X79858500Y-48651833D01*
X79878185Y-48584794D01*
X79894819Y-48564152D01*
X80537152Y-47921819D01*
X80598475Y-47888334D01*
X80624833Y-47885500D01*
X80630016Y-47885500D01*
X80630018Y-47885500D01*
X80738237Y-47856503D01*
X80835263Y-47800485D01*
X80914485Y-47721263D01*
X80970503Y-47624237D01*
X80999500Y-47516018D01*
X80999500Y-47403982D01*
X80970503Y-47295763D01*
X80914485Y-47198737D01*
X80835263Y-47119515D01*
X80738237Y-47063497D01*
X80630018Y-47034500D01*
X80517982Y-47034500D01*
X80409763Y-47063497D01*
X80409760Y-47063498D01*
X80312740Y-47119513D01*
X80312734Y-47119517D01*
X80233517Y-47198734D01*
X80233513Y-47198740D01*
X80177498Y-47295760D01*
X80177497Y-47295763D01*
X80148500Y-47403982D01*
X80148500Y-47409167D01*
X80128815Y-47476206D01*
X80112181Y-47496848D01*
X79317541Y-48291487D01*
X79317535Y-48291495D01*
X79277982Y-48360004D01*
X79277979Y-48360009D01*
X79264326Y-48410962D01*
X79260944Y-48423587D01*
X79257500Y-48436439D01*
X79257500Y-52846767D01*
X79237815Y-52913806D01*
X79221181Y-52934448D01*
X77006048Y-55149581D01*
X76944725Y-55183066D01*
X76918367Y-55185900D01*
X76430810Y-55185900D01*
X76363771Y-55166215D01*
X76343129Y-55149581D01*
X76339465Y-55145917D01*
X76339463Y-55145915D01*
X76242437Y-55089897D01*
X76134218Y-55060900D01*
X76022182Y-55060900D01*
X75913963Y-55089897D01*
X75913960Y-55089898D01*
X75816940Y-55145913D01*
X75816934Y-55145917D01*
X75737717Y-55225134D01*
X75737713Y-55225140D01*
X75681698Y-55322160D01*
X75681697Y-55322163D01*
X75652700Y-55430382D01*
X63261051Y-55430382D01*
X63392810Y-55325307D01*
X63392812Y-55325307D01*
X63442707Y-55285517D01*
X63442709Y-55285514D01*
X63442714Y-55285511D01*
X63637334Y-55090891D01*
X63808940Y-54875704D01*
X63955373Y-54642657D01*
X64074793Y-54394679D01*
X64165697Y-54134890D01*
X64226942Y-53866557D01*
X64257759Y-53593053D01*
X64257759Y-53317819D01*
X64226942Y-53044315D01*
X64165697Y-52775982D01*
X64074793Y-52516193D01*
X63955373Y-52268215D01*
X63808940Y-52035168D01*
X63637334Y-51819981D01*
X63442714Y-51625361D01*
X63227527Y-51453755D01*
X62994480Y-51307322D01*
X62994477Y-51307320D01*
X62746505Y-51187903D01*
X62714034Y-51176541D01*
X62657258Y-51135819D01*
X62631511Y-51070867D01*
X62644967Y-51002305D01*
X62693355Y-50951902D01*
X62754989Y-50935500D01*
X63761167Y-50935500D01*
X63828206Y-50955185D01*
X63848848Y-50971819D01*
X66236540Y-53359511D01*
X66292489Y-53415460D01*
X66292491Y-53415461D01*
X66292495Y-53415464D01*
X66360199Y-53454552D01*
X66361011Y-53455021D01*
X66437438Y-53475500D01*
X66437440Y-53475500D01*
X77438560Y-53475500D01*
X77438562Y-53475500D01*
X77514989Y-53455021D01*
X77583511Y-53415460D01*
X77639460Y-53359511D01*
X77997152Y-53001819D01*
X78058475Y-52968334D01*
X78084833Y-52965500D01*
X78090016Y-52965500D01*
X78090018Y-52965500D01*
X78198237Y-52936503D01*
X78295263Y-52880485D01*
X78374485Y-52801263D01*
X78430503Y-52704237D01*
X78459500Y-52596018D01*
X78459500Y-52483982D01*
X78430503Y-52375763D01*
X78374485Y-52278737D01*
X78295263Y-52199515D01*
X78198237Y-52143497D01*
X78090018Y-52114500D01*
X77977982Y-52114500D01*
X77869763Y-52143497D01*
X77869760Y-52143498D01*
X77772740Y-52199513D01*
X77772734Y-52199517D01*
X77693517Y-52278734D01*
X77693513Y-52278740D01*
X77637498Y-52375760D01*
X77637497Y-52375763D01*
X77608500Y-52483982D01*
X77608500Y-52489167D01*
X77588815Y-52556206D01*
X77572181Y-52576848D01*
X77310848Y-52838181D01*
X77249525Y-52871666D01*
X77223167Y-52874500D01*
X66652833Y-52874500D01*
X66585794Y-52854815D01*
X66565152Y-52838181D01*
X64121510Y-50394539D01*
X64104402Y-50384662D01*
X64087294Y-50374785D01*
X64087293Y-50374784D01*
X64052994Y-50354981D01*
X64052993Y-50354980D01*
X64043960Y-50352559D01*
X63976562Y-50334500D01*
X60674562Y-50334500D01*
X60595438Y-50334500D01*
X60519010Y-50354978D01*
X60450489Y-50394540D01*
X60450486Y-50394542D01*
X55847848Y-54997181D01*
X55786525Y-55030666D01*
X55760167Y-55033500D01*
X43588610Y-55033500D01*
X43521571Y-55013815D01*
X43500929Y-54997181D01*
X43497265Y-54993517D01*
X43497263Y-54993515D01*
X43432579Y-54956169D01*
X43400239Y-54937498D01*
X43400238Y-54937497D01*
X43400237Y-54937497D01*
X43292018Y-54908500D01*
X43179982Y-54908500D01*
X43071763Y-54937497D01*
X43071760Y-54937498D01*
X42974740Y-54993513D01*
X42974734Y-54993517D01*
X42895517Y-55072734D01*
X42895513Y-55072740D01*
X42839498Y-55169760D01*
X42839497Y-55169763D01*
X42810500Y-55277982D01*
X42810500Y-55390018D01*
X42826810Y-55450887D01*
X42827217Y-55452407D01*
X42825554Y-55522257D01*
X42786391Y-55580119D01*
X42722162Y-55607623D01*
X42707442Y-55608500D01*
X41902732Y-55608500D01*
X41835693Y-55588815D01*
X41815051Y-55572181D01*
X40861347Y-54618477D01*
X47539175Y-54618477D01*
X47644436Y-54662078D01*
X47644440Y-54662079D01*
X47789326Y-54690899D01*
X47789329Y-54690900D01*
X47937071Y-54690900D01*
X47937073Y-54690899D01*
X48081960Y-54662079D01*
X48081975Y-54662075D01*
X48187224Y-54618478D01*
X48187224Y-54618477D01*
X48939175Y-54618477D01*
X49044436Y-54662078D01*
X49044440Y-54662079D01*
X49189326Y-54690899D01*
X49189329Y-54690900D01*
X49337071Y-54690900D01*
X49337073Y-54690899D01*
X49481960Y-54662079D01*
X49481975Y-54662075D01*
X49587224Y-54618478D01*
X49587224Y-54618477D01*
X49263201Y-54294454D01*
X49263200Y-54294454D01*
X48939175Y-54618477D01*
X48187224Y-54618477D01*
X47863201Y-54294454D01*
X47863200Y-54294454D01*
X47539175Y-54618477D01*
X40861347Y-54618477D01*
X37622372Y-51379502D01*
X37622344Y-51379472D01*
X37461629Y-51218757D01*
X37461622Y-51218751D01*
X37284782Y-51083058D01*
X37284780Y-51083057D01*
X37284774Y-51083052D01*
X37091726Y-50971595D01*
X37091722Y-50971593D01*
X36885790Y-50886293D01*
X36885783Y-50886291D01*
X36885781Y-50886290D01*
X36670463Y-50828596D01*
X36621350Y-50822130D01*
X36449463Y-50799499D01*
X36449456Y-50799499D01*
X36226544Y-50799499D01*
X36222704Y-50799499D01*
X36222672Y-50799500D01*
X34034250Y-50799500D01*
X34022732Y-50796117D01*
X34010782Y-50797259D01*
X33989827Y-50786456D01*
X33967211Y-50779815D01*
X33957798Y-50769943D01*
X33948679Y-50765242D01*
X33926862Y-50737499D01*
X33915974Y-50718640D01*
X33910315Y-50708839D01*
X33893575Y-50679844D01*
X33882007Y-50664768D01*
X44086445Y-50664768D01*
X44086445Y-50776804D01*
X44097088Y-50816522D01*
X44115442Y-50885022D01*
X44115443Y-50885025D01*
X44116175Y-50886293D01*
X44171460Y-50982049D01*
X44171462Y-50982051D01*
X44175126Y-50985715D01*
X44208611Y-51047038D01*
X44211445Y-51073396D01*
X44211445Y-53454552D01*
X44194832Y-53516552D01*
X44134898Y-53620360D01*
X44134897Y-53620363D01*
X44105900Y-53728582D01*
X44105900Y-53840618D01*
X44134897Y-53948837D01*
X44190915Y-54045863D01*
X44270137Y-54125085D01*
X44367163Y-54181103D01*
X44475382Y-54210100D01*
X44475384Y-54210100D01*
X44587416Y-54210100D01*
X44587418Y-54210100D01*
X44695637Y-54181103D01*
X44792663Y-54125085D01*
X44871885Y-54045863D01*
X44927903Y-53948837D01*
X44949824Y-53867026D01*
X47113200Y-53867026D01*
X47113200Y-54014773D01*
X47142020Y-54159659D01*
X47142022Y-54159667D01*
X47185621Y-54264924D01*
X47509646Y-53940900D01*
X47509646Y-53940899D01*
X47489756Y-53921009D01*
X47763200Y-53921009D01*
X47763200Y-53960791D01*
X47778424Y-53997545D01*
X47806555Y-54025676D01*
X47843309Y-54040900D01*
X47883091Y-54040900D01*
X47919845Y-54025676D01*
X47947976Y-53997545D01*
X47963200Y-53960791D01*
X47963200Y-53940899D01*
X48216754Y-53940899D01*
X48216754Y-53940901D01*
X48541129Y-54265276D01*
X48585269Y-54265276D01*
X48909646Y-53940900D01*
X48889755Y-53921009D01*
X49163200Y-53921009D01*
X49163200Y-53960791D01*
X49178424Y-53997545D01*
X49206555Y-54025676D01*
X49243309Y-54040900D01*
X49283091Y-54040900D01*
X49319845Y-54025676D01*
X49347976Y-53997545D01*
X49363200Y-53960791D01*
X49363200Y-53940899D01*
X49616754Y-53940899D01*
X49616754Y-53940901D01*
X49940777Y-54264924D01*
X49940778Y-54264924D01*
X49984375Y-54159675D01*
X49984379Y-54159660D01*
X50013199Y-54014773D01*
X50013200Y-54014771D01*
X50013200Y-53867028D01*
X50013199Y-53867026D01*
X49984379Y-53722140D01*
X49984378Y-53722136D01*
X49940777Y-53616875D01*
X49616754Y-53940899D01*
X49363200Y-53940899D01*
X49363200Y-53921009D01*
X49347976Y-53884255D01*
X49319845Y-53856124D01*
X49283091Y-53840900D01*
X49243309Y-53840900D01*
X49206555Y-53856124D01*
X49178424Y-53884255D01*
X49163200Y-53921009D01*
X48889755Y-53921009D01*
X48585268Y-53616522D01*
X48541130Y-53616522D01*
X48216754Y-53940899D01*
X47963200Y-53940899D01*
X47963200Y-53921009D01*
X47947976Y-53884255D01*
X47919845Y-53856124D01*
X47883091Y-53840900D01*
X47843309Y-53840900D01*
X47806555Y-53856124D01*
X47778424Y-53884255D01*
X47763200Y-53921009D01*
X47489756Y-53921009D01*
X47185621Y-53616874D01*
X47185620Y-53616874D01*
X47142023Y-53722128D01*
X47142020Y-53722140D01*
X47113200Y-53867026D01*
X44949824Y-53867026D01*
X44956900Y-53840618D01*
X44956900Y-53728582D01*
X44927903Y-53620363D01*
X44871885Y-53523337D01*
X44848764Y-53500216D01*
X44834060Y-53473288D01*
X44817468Y-53447470D01*
X44816576Y-53441269D01*
X44815279Y-53438893D01*
X44812445Y-53412535D01*
X44812445Y-53218830D01*
X47538822Y-53218830D01*
X47538822Y-53262968D01*
X47863200Y-53587346D01*
X47863201Y-53587346D01*
X48187576Y-53262969D01*
X48187576Y-53256752D01*
X48185686Y-53251949D01*
X48187461Y-53218830D01*
X48938822Y-53218830D01*
X48938822Y-53262968D01*
X49263200Y-53587346D01*
X49263201Y-53587346D01*
X49587576Y-53262969D01*
X49587576Y-53218829D01*
X49263201Y-52894454D01*
X49263200Y-52894454D01*
X48938822Y-53218830D01*
X48187461Y-53218830D01*
X48187467Y-53218720D01*
X47863201Y-52894454D01*
X47863200Y-52894454D01*
X47538822Y-53218830D01*
X44812445Y-53218830D01*
X44812445Y-52467026D01*
X47113200Y-52467026D01*
X47113200Y-52614773D01*
X47142020Y-52759659D01*
X47142022Y-52759667D01*
X47185621Y-52864924D01*
X47509646Y-52540900D01*
X47509646Y-52540899D01*
X47489756Y-52521009D01*
X47763200Y-52521009D01*
X47763200Y-52560791D01*
X47778424Y-52597545D01*
X47806555Y-52625676D01*
X47843309Y-52640900D01*
X47883091Y-52640900D01*
X47919845Y-52625676D01*
X47947976Y-52597545D01*
X47963200Y-52560791D01*
X47963200Y-52540899D01*
X48216754Y-52540899D01*
X48216754Y-52540901D01*
X48541129Y-52865276D01*
X48585269Y-52865276D01*
X48909646Y-52540900D01*
X48889755Y-52521009D01*
X49163200Y-52521009D01*
X49163200Y-52560791D01*
X49178424Y-52597545D01*
X49206555Y-52625676D01*
X49243309Y-52640900D01*
X49283091Y-52640900D01*
X49319845Y-52625676D01*
X49347976Y-52597545D01*
X49363200Y-52560791D01*
X49363200Y-52540899D01*
X49616754Y-52540899D01*
X49616754Y-52540901D01*
X49940777Y-52864924D01*
X49940778Y-52864924D01*
X49984375Y-52759675D01*
X49984379Y-52759660D01*
X50013199Y-52614773D01*
X50013200Y-52614771D01*
X50013200Y-52467028D01*
X50013199Y-52467026D01*
X49984379Y-52322140D01*
X49984378Y-52322136D01*
X49940777Y-52216875D01*
X49616754Y-52540899D01*
X49363200Y-52540899D01*
X49363200Y-52521009D01*
X49347976Y-52484255D01*
X49319845Y-52456124D01*
X49283091Y-52440900D01*
X49243309Y-52440900D01*
X49206555Y-52456124D01*
X49178424Y-52484255D01*
X49163200Y-52521009D01*
X48889755Y-52521009D01*
X48585268Y-52216522D01*
X48541130Y-52216522D01*
X48216754Y-52540899D01*
X47963200Y-52540899D01*
X47963200Y-52521009D01*
X47947976Y-52484255D01*
X47919845Y-52456124D01*
X47883091Y-52440900D01*
X47843309Y-52440900D01*
X47806555Y-52456124D01*
X47778424Y-52484255D01*
X47763200Y-52521009D01*
X47489756Y-52521009D01*
X47185621Y-52216874D01*
X47185620Y-52216874D01*
X47142023Y-52322128D01*
X47142020Y-52322140D01*
X47113200Y-52467026D01*
X44812445Y-52467026D01*
X44812445Y-51818830D01*
X47538822Y-51818830D01*
X47538822Y-51862968D01*
X47863200Y-52187346D01*
X47863201Y-52187346D01*
X48187576Y-51862969D01*
X48187576Y-51856752D01*
X48185686Y-51851949D01*
X48187461Y-51818830D01*
X48938822Y-51818830D01*
X48938822Y-51862968D01*
X49263200Y-52187346D01*
X49263201Y-52187346D01*
X49587576Y-51862969D01*
X49587576Y-51818829D01*
X49263201Y-51494454D01*
X49263200Y-51494454D01*
X48938822Y-51818830D01*
X48187461Y-51818830D01*
X48187467Y-51818720D01*
X47863201Y-51494454D01*
X47863200Y-51494454D01*
X47538822Y-51818830D01*
X44812445Y-51818830D01*
X44812445Y-51073396D01*
X44814315Y-51067026D01*
X47113200Y-51067026D01*
X47113200Y-51214773D01*
X47142020Y-51359659D01*
X47142022Y-51359667D01*
X47185621Y-51464924D01*
X47509646Y-51140900D01*
X47509646Y-51140899D01*
X47489756Y-51121009D01*
X47763200Y-51121009D01*
X47763200Y-51160791D01*
X47778424Y-51197545D01*
X47806555Y-51225676D01*
X47843309Y-51240900D01*
X47883091Y-51240900D01*
X47919845Y-51225676D01*
X47947976Y-51197545D01*
X47963200Y-51160791D01*
X47963200Y-51140899D01*
X48216754Y-51140899D01*
X48216754Y-51140901D01*
X48541129Y-51465276D01*
X48585269Y-51465276D01*
X48909646Y-51140900D01*
X48889755Y-51121009D01*
X49163200Y-51121009D01*
X49163200Y-51160791D01*
X49178424Y-51197545D01*
X49206555Y-51225676D01*
X49243309Y-51240900D01*
X49283091Y-51240900D01*
X49319845Y-51225676D01*
X49347976Y-51197545D01*
X49363200Y-51160791D01*
X49363200Y-51140899D01*
X49616754Y-51140899D01*
X49616754Y-51140901D01*
X49940777Y-51464924D01*
X49940778Y-51464924D01*
X49984375Y-51359675D01*
X49984379Y-51359660D01*
X50013199Y-51214773D01*
X50013200Y-51214771D01*
X50013200Y-51067028D01*
X50013199Y-51067026D01*
X49984379Y-50922140D01*
X49984378Y-50922136D01*
X49940777Y-50816875D01*
X49616754Y-51140899D01*
X49363200Y-51140899D01*
X49363200Y-51121009D01*
X49347976Y-51084255D01*
X49319845Y-51056124D01*
X49283091Y-51040900D01*
X49243309Y-51040900D01*
X49206555Y-51056124D01*
X49178424Y-51084255D01*
X49163200Y-51121009D01*
X48889755Y-51121009D01*
X48585268Y-50816522D01*
X48541130Y-50816522D01*
X48216754Y-51140899D01*
X47963200Y-51140899D01*
X47963200Y-51121009D01*
X47947976Y-51084255D01*
X47919845Y-51056124D01*
X47883091Y-51040900D01*
X47843309Y-51040900D01*
X47806555Y-51056124D01*
X47778424Y-51084255D01*
X47763200Y-51121009D01*
X47489756Y-51121009D01*
X47185621Y-50816874D01*
X47185620Y-50816874D01*
X47142023Y-50922128D01*
X47142020Y-50922140D01*
X47113200Y-51067026D01*
X44814315Y-51067026D01*
X44820598Y-51045629D01*
X44825922Y-51017176D01*
X44831011Y-51010166D01*
X44832130Y-51006357D01*
X44846238Y-50988316D01*
X44847478Y-50987000D01*
X44852430Y-50982049D01*
X44908448Y-50885023D01*
X44937445Y-50776804D01*
X44937445Y-50664768D01*
X44908448Y-50556549D01*
X44854622Y-50463320D01*
X47539174Y-50463320D01*
X47539174Y-50463321D01*
X47863200Y-50787346D01*
X47863201Y-50787346D01*
X48187224Y-50463321D01*
X48187222Y-50463320D01*
X48939174Y-50463320D01*
X48939174Y-50463321D01*
X49263200Y-50787346D01*
X49263201Y-50787346D01*
X49587224Y-50463321D01*
X49481967Y-50419722D01*
X49481959Y-50419720D01*
X49337072Y-50390900D01*
X49189328Y-50390900D01*
X49044440Y-50419720D01*
X49044428Y-50419723D01*
X48939174Y-50463320D01*
X48187222Y-50463320D01*
X48081967Y-50419722D01*
X48081959Y-50419720D01*
X47937072Y-50390900D01*
X47789328Y-50390900D01*
X47644440Y-50419720D01*
X47644428Y-50419723D01*
X47539174Y-50463320D01*
X44854622Y-50463320D01*
X44852430Y-50459523D01*
X44773208Y-50380301D01*
X44676182Y-50324283D01*
X44567963Y-50295286D01*
X44455927Y-50295286D01*
X44347708Y-50324283D01*
X44347705Y-50324284D01*
X44250685Y-50380299D01*
X44250679Y-50380303D01*
X44171462Y-50459520D01*
X44171458Y-50459526D01*
X44115443Y-50556546D01*
X44115442Y-50556549D01*
X44086445Y-50664768D01*
X33882007Y-50664768D01*
X33798963Y-50556543D01*
X33717975Y-50450997D01*
X33717969Y-50450990D01*
X33511597Y-50244618D01*
X33511558Y-50244581D01*
X33120791Y-49853814D01*
X65356759Y-49853814D01*
X65356759Y-50129057D01*
X65387574Y-50402544D01*
X65387576Y-50402560D01*
X65448820Y-50670889D01*
X65448824Y-50670901D01*
X65539726Y-50930682D01*
X65659143Y-51178654D01*
X65669860Y-51195710D01*
X65805578Y-51411704D01*
X65977184Y-51626891D01*
X66171804Y-51821511D01*
X66386991Y-51993117D01*
X66620038Y-52139550D01*
X66868016Y-52258970D01*
X67048534Y-52322136D01*
X67127793Y-52349870D01*
X67127805Y-52349874D01*
X67396138Y-52411119D01*
X67669637Y-52441935D01*
X67669638Y-52441936D01*
X67669642Y-52441936D01*
X67944880Y-52441936D01*
X67944880Y-52441935D01*
X68218380Y-52411119D01*
X68486713Y-52349874D01*
X68746502Y-52258970D01*
X68994480Y-52139550D01*
X69227527Y-51993117D01*
X69442714Y-51821511D01*
X69637334Y-51626891D01*
X69808940Y-51411704D01*
X69955373Y-51178657D01*
X70074793Y-50930679D01*
X70165697Y-50670890D01*
X70226942Y-50402557D01*
X70257759Y-50129053D01*
X70257759Y-49853819D01*
X70226942Y-49580315D01*
X70165697Y-49311982D01*
X70159410Y-49294016D01*
X70143064Y-49247301D01*
X70074793Y-49052193D01*
X69962063Y-48818107D01*
X69955374Y-48804217D01*
X69955373Y-48804215D01*
X69808940Y-48571168D01*
X69637334Y-48355981D01*
X69442714Y-48161361D01*
X69227527Y-47989755D01*
X69016963Y-47857449D01*
X68994477Y-47843320D01*
X68746505Y-47723903D01*
X68486724Y-47633001D01*
X68486712Y-47632997D01*
X68218383Y-47571753D01*
X68218367Y-47571751D01*
X67944880Y-47540936D01*
X67944876Y-47540936D01*
X67669642Y-47540936D01*
X67669638Y-47540936D01*
X67396150Y-47571751D01*
X67396134Y-47571753D01*
X67127805Y-47632997D01*
X67127793Y-47633001D01*
X66868012Y-47723903D01*
X66620040Y-47843320D01*
X66386992Y-47989754D01*
X66171804Y-48161360D01*
X65977183Y-48355981D01*
X65805577Y-48571169D01*
X65659143Y-48804217D01*
X65539726Y-49052189D01*
X65448824Y-49311970D01*
X65448820Y-49311982D01*
X65387576Y-49580311D01*
X65387574Y-49580327D01*
X65356759Y-49853814D01*
X33120791Y-49853814D01*
X32937612Y-49670635D01*
X32904127Y-49609312D01*
X32905518Y-49550860D01*
X32952850Y-49374217D01*
X32990501Y-49088228D01*
X32990501Y-48799771D01*
X32990501Y-48795932D01*
X32990500Y-48795898D01*
X32990500Y-46045778D01*
X32990500Y-46045772D01*
X32952849Y-45759783D01*
X32878191Y-45481155D01*
X32878186Y-45481145D01*
X32878185Y-45481139D01*
X32837785Y-45383603D01*
X32819136Y-45338580D01*
X59057259Y-45338580D01*
X59057259Y-46277436D01*
X60353469Y-46277436D01*
X60332259Y-46411351D01*
X60332259Y-46643521D01*
X60353469Y-46777436D01*
X59057259Y-46777436D01*
X59057259Y-47716291D01*
X59072301Y-47907424D01*
X59132011Y-48156138D01*
X59229893Y-48392448D01*
X59229895Y-48392451D01*
X59363537Y-48610536D01*
X59363538Y-48610538D01*
X59529657Y-48805037D01*
X59724156Y-48971156D01*
X59724158Y-48971157D01*
X59942243Y-49104799D01*
X59942246Y-49104801D01*
X60178556Y-49202683D01*
X60427270Y-49262393D01*
X60427269Y-49262393D01*
X60618403Y-49277435D01*
X60618417Y-49277436D01*
X61557259Y-49277436D01*
X61557259Y-47981226D01*
X61691174Y-48002436D01*
X61923344Y-48002436D01*
X62057259Y-47981226D01*
X62057259Y-49277436D01*
X62996101Y-49277436D01*
X62996114Y-49277435D01*
X63187247Y-49262393D01*
X63435961Y-49202683D01*
X63672271Y-49104801D01*
X63672274Y-49104799D01*
X63890359Y-48971157D01*
X63890361Y-48971156D01*
X64084860Y-48805037D01*
X64250979Y-48610538D01*
X64250980Y-48610536D01*
X64384622Y-48392451D01*
X64384624Y-48392448D01*
X64482506Y-48156138D01*
X64542216Y-47907424D01*
X64557258Y-47716291D01*
X64557259Y-47716278D01*
X64557259Y-46777436D01*
X63261049Y-46777436D01*
X63282259Y-46643521D01*
X63282259Y-46411351D01*
X63261049Y-46277436D01*
X64557259Y-46277436D01*
X64557259Y-45338593D01*
X64557258Y-45338580D01*
X64542216Y-45147447D01*
X64482506Y-44898733D01*
X64384624Y-44662423D01*
X64384622Y-44662420D01*
X64250980Y-44444335D01*
X64250979Y-44444333D01*
X64084860Y-44249834D01*
X63890361Y-44083715D01*
X63890359Y-44083714D01*
X63672274Y-43950072D01*
X63672271Y-43950070D01*
X63435961Y-43852188D01*
X63187247Y-43792478D01*
X63187248Y-43792478D01*
X62996114Y-43777436D01*
X62057259Y-43777436D01*
X62057259Y-45073645D01*
X61923344Y-45052436D01*
X61691174Y-45052436D01*
X61557259Y-45073645D01*
X61557259Y-43777436D01*
X60618403Y-43777436D01*
X60427270Y-43792478D01*
X60178556Y-43852188D01*
X59942246Y-43950070D01*
X59942243Y-43950072D01*
X59724158Y-44083714D01*
X59724156Y-44083715D01*
X59529657Y-44249834D01*
X59363538Y-44444333D01*
X59363537Y-44444335D01*
X59229895Y-44662420D01*
X59229893Y-44662423D01*
X59132011Y-44898733D01*
X59072301Y-45147447D01*
X59057259Y-45338580D01*
X32819136Y-45338580D01*
X32767805Y-45214658D01*
X32767800Y-45214647D01*
X32623579Y-44964851D01*
X32623575Y-44964844D01*
X32447974Y-44735996D01*
X32447969Y-44735990D01*
X32244009Y-44532030D01*
X32244002Y-44532024D01*
X32015164Y-44356431D01*
X32015162Y-44356429D01*
X32015156Y-44356425D01*
X32015151Y-44356422D01*
X32015148Y-44356420D01*
X31765352Y-44212199D01*
X31765336Y-44212191D01*
X31498860Y-44101814D01*
X31498848Y-44101810D01*
X31498845Y-44101809D01*
X31351298Y-44062274D01*
X31291639Y-44025910D01*
X31261110Y-43963063D01*
X31269405Y-43893688D01*
X31313890Y-43839810D01*
X31380442Y-43818535D01*
X31383393Y-43818500D01*
X31569221Y-43818500D01*
X31569228Y-43818500D01*
X31855217Y-43780849D01*
X32133845Y-43706191D01*
X32133857Y-43706185D01*
X32133860Y-43706185D01*
X32400336Y-43595808D01*
X32400339Y-43595806D01*
X32400345Y-43595804D01*
X32401577Y-43595093D01*
X32416039Y-43586742D01*
X32650156Y-43451575D01*
X32879004Y-43275974D01*
X33082974Y-43072004D01*
X33192693Y-42929013D01*
X33249120Y-42887811D01*
X33291069Y-42880500D01*
X33395890Y-42880500D01*
X33395892Y-42880500D01*
X33523186Y-42846392D01*
X33637314Y-42780500D01*
X33730500Y-42687314D01*
X33796392Y-42573186D01*
X33830500Y-42445892D01*
X33830500Y-42314108D01*
X33796392Y-42186814D01*
X33730500Y-42072686D01*
X33644837Y-41987023D01*
X33611352Y-41925700D01*
X33609579Y-41883156D01*
X33622609Y-41784185D01*
X33625500Y-41762228D01*
X33625500Y-41573676D01*
X33645185Y-41506637D01*
X33661819Y-41485995D01*
X33730500Y-41417314D01*
X33796392Y-41303186D01*
X33830500Y-41175892D01*
X33830500Y-41044108D01*
X33796392Y-40916814D01*
X33730500Y-40802686D01*
X33661818Y-40734004D01*
X33628334Y-40672680D01*
X33625500Y-40646323D01*
X33625500Y-40303676D01*
X33645185Y-40236637D01*
X33661819Y-40215995D01*
X33690162Y-40187652D01*
X33730500Y-40147314D01*
X33796392Y-40033186D01*
X33830500Y-39905892D01*
X33830500Y-39774108D01*
X33796392Y-39646814D01*
X33730500Y-39532686D01*
X33661818Y-39464004D01*
X33628334Y-39402680D01*
X33625500Y-39376323D01*
X33625500Y-36473644D01*
X33625501Y-36473615D01*
X33625501Y-36180777D01*
X33625500Y-36180763D01*
X33611245Y-36072489D01*
X33587849Y-35894783D01*
X33513192Y-35616154D01*
X33437010Y-35432237D01*
X33437010Y-35432236D01*
X33402809Y-35349666D01*
X33402806Y-35349660D01*
X33402804Y-35349655D01*
X33258575Y-35099844D01*
X33126344Y-34927517D01*
X33082975Y-34870997D01*
X33082969Y-34870990D01*
X32876597Y-34664618D01*
X32876558Y-34664581D01*
X32661959Y-34449982D01*
X35698500Y-34449982D01*
X35698500Y-34562018D01*
X35727497Y-34670237D01*
X35783515Y-34767263D01*
X35862737Y-34846485D01*
X35959763Y-34902503D01*
X36067982Y-34931500D01*
X36067984Y-34931500D01*
X36180016Y-34931500D01*
X36180018Y-34931500D01*
X36288237Y-34902503D01*
X36385263Y-34846485D01*
X36464485Y-34767263D01*
X36520503Y-34670237D01*
X36549500Y-34562018D01*
X36549500Y-34556833D01*
X36558144Y-34527392D01*
X36564668Y-34497406D01*
X36568422Y-34492390D01*
X36569185Y-34489794D01*
X36585819Y-34469152D01*
X36593152Y-34461819D01*
X36654475Y-34428334D01*
X36680833Y-34425500D01*
X37254676Y-34425500D01*
X37321715Y-34445185D01*
X37367470Y-34497989D01*
X37377414Y-34567147D01*
X37348389Y-34630703D01*
X37310971Y-34659985D01*
X37192442Y-34720379D01*
X37020540Y-34845272D01*
X37020535Y-34845276D01*
X36870276Y-34995535D01*
X36870272Y-34995540D01*
X36745379Y-35167442D01*
X36648904Y-35356782D01*
X36583242Y-35558869D01*
X36583242Y-35558872D01*
X36552970Y-35750000D01*
X37495854Y-35750000D01*
X37457370Y-35816657D01*
X37425000Y-35937465D01*
X37425000Y-36062535D01*
X37457370Y-36183343D01*
X37495854Y-36250000D01*
X36552970Y-36250000D01*
X36583242Y-36441127D01*
X36583242Y-36441130D01*
X36648904Y-36643217D01*
X36745379Y-36832557D01*
X36870272Y-37004459D01*
X36870276Y-37004464D01*
X37020535Y-37154723D01*
X37020540Y-37154727D01*
X37192442Y-37279620D01*
X37381782Y-37376095D01*
X37583871Y-37441757D01*
X37650000Y-37452231D01*
X37650000Y-36404145D01*
X37716657Y-36442630D01*
X37837465Y-36475000D01*
X37962535Y-36475000D01*
X38083343Y-36442630D01*
X38150000Y-36404145D01*
X38150000Y-37452230D01*
X38216126Y-37441757D01*
X38216129Y-37441757D01*
X38418217Y-37376095D01*
X38607557Y-37279620D01*
X38779459Y-37154727D01*
X38779464Y-37154723D01*
X38929723Y-37004464D01*
X38929727Y-37004459D01*
X39054620Y-36832557D01*
X39151095Y-36643217D01*
X39190759Y-36521144D01*
X39230196Y-36463469D01*
X39294555Y-36436270D01*
X39363401Y-36448184D01*
X39414877Y-36495428D01*
X39423251Y-36512009D01*
X39469057Y-36622596D01*
X39584024Y-36794657D01*
X39730342Y-36940975D01*
X39730345Y-36940977D01*
X39902402Y-37055941D01*
X40093580Y-37135130D01*
X40282187Y-37172646D01*
X40296530Y-37175499D01*
X40296534Y-37175500D01*
X40296535Y-37175500D01*
X40503466Y-37175500D01*
X40503467Y-37175499D01*
X40706420Y-37135130D01*
X40897598Y-37055941D01*
X41069655Y-36940977D01*
X41215977Y-36794655D01*
X41330941Y-36622598D01*
X41410130Y-36431420D01*
X41450500Y-36228465D01*
X41450500Y-35771535D01*
X41410130Y-35568580D01*
X41330941Y-35377402D01*
X41270353Y-35286725D01*
X41270352Y-35286722D01*
X41226257Y-35220730D01*
X41849500Y-35220730D01*
X41849500Y-36779269D01*
X41852353Y-36809699D01*
X41852353Y-36809701D01*
X41897206Y-36937880D01*
X41897207Y-36937882D01*
X41977850Y-37047150D01*
X42087118Y-37127793D01*
X42108089Y-37135131D01*
X42215299Y-37172646D01*
X42245730Y-37175500D01*
X42245734Y-37175500D01*
X43554270Y-37175500D01*
X43584699Y-37172646D01*
X43584701Y-37172646D01*
X43648790Y-37150219D01*
X43712882Y-37127793D01*
X43822150Y-37047150D01*
X43902793Y-36937882D01*
X43939648Y-36832557D01*
X43947646Y-36809701D01*
X43947646Y-36809699D01*
X43950500Y-36779269D01*
X43950500Y-35220733D01*
X43950003Y-35215435D01*
X43950003Y-35215432D01*
X43949679Y-35211982D01*
X52716500Y-35211982D01*
X52716500Y-35324018D01*
X52744959Y-35430227D01*
X52745497Y-35432236D01*
X52745497Y-35432237D01*
X52799887Y-35526443D01*
X52816500Y-35588443D01*
X52816500Y-40101947D01*
X52816500Y-40187653D01*
X52824094Y-40215995D01*
X52838682Y-40270440D01*
X52860108Y-40307550D01*
X52881535Y-40344662D01*
X54161338Y-41624465D01*
X54235561Y-41667318D01*
X54318347Y-41689500D01*
X54404053Y-41689500D01*
X62379211Y-41689500D01*
X62446250Y-41709185D01*
X62466892Y-41725819D01*
X63175449Y-42434376D01*
X63207543Y-42489963D01*
X63235697Y-42595038D01*
X63235698Y-42595039D01*
X63291715Y-42692063D01*
X63370937Y-42771285D01*
X63467963Y-42827303D01*
X63576182Y-42856300D01*
X63576184Y-42856300D01*
X63688216Y-42856300D01*
X63688218Y-42856300D01*
X63796437Y-42827303D01*
X63893463Y-42771285D01*
X63972685Y-42692063D01*
X64028703Y-42595037D01*
X64057700Y-42486818D01*
X64057700Y-42374782D01*
X64028703Y-42266563D01*
X63972685Y-42169537D01*
X63893463Y-42090315D01*
X63796439Y-42034298D01*
X63796438Y-42034297D01*
X63747333Y-42021139D01*
X63691362Y-42006142D01*
X63635776Y-41974049D01*
X62765264Y-41103537D01*
X62765262Y-41103535D01*
X62728150Y-41082108D01*
X62691040Y-41060682D01*
X62649646Y-41049591D01*
X62608253Y-41038500D01*
X62608252Y-41038500D01*
X54547389Y-41038500D01*
X54480350Y-41018815D01*
X54459708Y-41002181D01*
X54003509Y-40545982D01*
X62876500Y-40545982D01*
X62876500Y-40658018D01*
X62905497Y-40766237D01*
X62961515Y-40863263D01*
X63040737Y-40942485D01*
X63137763Y-40998503D01*
X63245982Y-41027500D01*
X63251167Y-41027500D01*
X63318206Y-41047185D01*
X63338848Y-41063819D01*
X70198940Y-47923911D01*
X70254889Y-47979860D01*
X70254891Y-47979861D01*
X70254895Y-47979864D01*
X70272826Y-47990216D01*
X70323411Y-48019421D01*
X70399838Y-48039900D01*
X70478962Y-48039900D01*
X72828967Y-48039900D01*
X72896006Y-48059585D01*
X72916648Y-48076219D01*
X74770940Y-49930511D01*
X74826889Y-49986460D01*
X74826891Y-49986461D01*
X74826895Y-49986464D01*
X74862914Y-50007259D01*
X74895411Y-50026021D01*
X74971838Y-50046500D01*
X77173390Y-50046500D01*
X77240429Y-50066185D01*
X77261071Y-50082819D01*
X77264737Y-50086485D01*
X77361763Y-50142503D01*
X77469982Y-50171500D01*
X77469984Y-50171500D01*
X77582016Y-50171500D01*
X77582018Y-50171500D01*
X77690237Y-50142503D01*
X77787263Y-50086485D01*
X77866485Y-50007263D01*
X77922503Y-49910237D01*
X77951500Y-49802018D01*
X77951500Y-49689982D01*
X77922503Y-49581763D01*
X77866485Y-49484737D01*
X77787263Y-49405515D01*
X77690237Y-49349497D01*
X77582018Y-49320500D01*
X77469982Y-49320500D01*
X77361763Y-49349497D01*
X77361760Y-49349498D01*
X77264740Y-49405513D01*
X77264734Y-49405517D01*
X77261071Y-49409181D01*
X77199748Y-49442666D01*
X77173390Y-49445500D01*
X75187233Y-49445500D01*
X75120194Y-49425815D01*
X75099552Y-49409181D01*
X73189313Y-47498941D01*
X73189311Y-47498939D01*
X73185236Y-47496587D01*
X73185236Y-47496586D01*
X73185234Y-47496586D01*
X73120792Y-47459380D01*
X73120793Y-47459380D01*
X73111760Y-47456959D01*
X73044362Y-47438900D01*
X73044360Y-47438900D01*
X70615233Y-47438900D01*
X70548194Y-47419215D01*
X70527552Y-47402581D01*
X68877953Y-45752982D01*
X72528500Y-45752982D01*
X72528500Y-45865018D01*
X72557497Y-45973237D01*
X72613515Y-46070263D01*
X72692737Y-46149485D01*
X72789763Y-46205503D01*
X72897982Y-46234500D01*
X72897984Y-46234500D01*
X73010016Y-46234500D01*
X73010018Y-46234500D01*
X73118237Y-46205503D01*
X73215263Y-46149485D01*
X73218929Y-46145819D01*
X73280252Y-46112334D01*
X73306610Y-46109500D01*
X74937167Y-46109500D01*
X75004206Y-46129185D01*
X75024848Y-46145819D01*
X78080181Y-49201152D01*
X78113666Y-49262475D01*
X78116500Y-49288833D01*
X78116500Y-49294018D01*
X78131366Y-49349497D01*
X78145497Y-49402236D01*
X78145498Y-49402239D01*
X78147391Y-49405517D01*
X78201515Y-49499263D01*
X78280737Y-49578485D01*
X78377763Y-49634503D01*
X78485982Y-49663500D01*
X78485984Y-49663500D01*
X78598016Y-49663500D01*
X78598018Y-49663500D01*
X78706237Y-49634503D01*
X78803263Y-49578485D01*
X78882485Y-49499263D01*
X78938503Y-49402237D01*
X78967500Y-49294018D01*
X78967500Y-49181982D01*
X78938503Y-49073763D01*
X78882485Y-48976737D01*
X78803263Y-48897515D01*
X78706237Y-48841497D01*
X78598018Y-48812500D01*
X78598017Y-48812500D01*
X78592833Y-48812500D01*
X78525794Y-48792815D01*
X78505152Y-48776181D01*
X75297512Y-45568541D01*
X75297504Y-45568535D01*
X75228995Y-45528982D01*
X75228990Y-45528979D01*
X75196756Y-45520342D01*
X75152562Y-45508500D01*
X75152560Y-45508500D01*
X73306610Y-45508500D01*
X73239571Y-45488815D01*
X73218929Y-45472181D01*
X73215265Y-45468517D01*
X73215263Y-45468515D01*
X73118237Y-45412497D01*
X73010018Y-45383500D01*
X72897982Y-45383500D01*
X72789763Y-45412497D01*
X72789760Y-45412498D01*
X72692740Y-45468513D01*
X72692734Y-45468517D01*
X72613517Y-45547734D01*
X72613513Y-45547740D01*
X72557498Y-45644760D01*
X72557497Y-45644763D01*
X72528500Y-45752982D01*
X68877953Y-45752982D01*
X63763819Y-40638848D01*
X63730334Y-40577525D01*
X63727500Y-40551167D01*
X63727500Y-40545984D01*
X63727500Y-40545982D01*
X63698503Y-40437763D01*
X63642485Y-40340737D01*
X63563263Y-40261515D01*
X63466237Y-40205497D01*
X63358018Y-40176500D01*
X63245982Y-40176500D01*
X63137763Y-40205497D01*
X63137760Y-40205498D01*
X63040740Y-40261513D01*
X63040734Y-40261517D01*
X62961517Y-40340734D01*
X62961513Y-40340740D01*
X62905498Y-40437760D01*
X62905497Y-40437763D01*
X62876500Y-40545982D01*
X54003509Y-40545982D01*
X53503819Y-40046292D01*
X53470334Y-39984969D01*
X53467500Y-39958611D01*
X53467500Y-37751982D01*
X58812500Y-37751982D01*
X58812500Y-37864018D01*
X58841497Y-37972237D01*
X58897515Y-38069263D01*
X58976737Y-38148485D01*
X59073763Y-38204503D01*
X59181982Y-38233500D01*
X59187167Y-38233500D01*
X59254206Y-38253185D01*
X59274848Y-38269819D01*
X60140540Y-39135511D01*
X60196489Y-39191460D01*
X60196491Y-39191461D01*
X60196495Y-39191464D01*
X60265004Y-39231017D01*
X60265011Y-39231021D01*
X60341438Y-39251500D01*
X60420562Y-39251500D01*
X69018967Y-39251500D01*
X69086006Y-39271185D01*
X69106648Y-39287819D01*
X73710400Y-43891571D01*
X73778923Y-43931133D01*
X73855349Y-43951611D01*
X80018190Y-43951611D01*
X80085229Y-43971296D01*
X80105871Y-43987930D01*
X80109537Y-43991596D01*
X80206563Y-44047614D01*
X80314782Y-44076611D01*
X80314784Y-44076611D01*
X80426816Y-44076611D01*
X80426818Y-44076611D01*
X80535037Y-44047614D01*
X80632063Y-43991596D01*
X80711285Y-43912374D01*
X80767303Y-43815348D01*
X80796300Y-43707129D01*
X80796300Y-43595093D01*
X80767303Y-43486874D01*
X80711285Y-43389848D01*
X80632063Y-43310626D01*
X80535037Y-43254608D01*
X80426818Y-43225611D01*
X80314782Y-43225611D01*
X80206563Y-43254608D01*
X80206560Y-43254609D01*
X80109540Y-43310624D01*
X80109534Y-43310628D01*
X80105871Y-43314292D01*
X80044548Y-43347777D01*
X80018190Y-43350611D01*
X74070744Y-43350611D01*
X74003705Y-43330926D01*
X73983063Y-43314292D01*
X71953714Y-41284943D01*
X84545500Y-41284943D01*
X84545500Y-41443057D01*
X84568325Y-41528239D01*
X84586423Y-41595783D01*
X84586426Y-41595790D01*
X84665475Y-41732709D01*
X84665479Y-41732714D01*
X84665480Y-41732716D01*
X84777284Y-41844520D01*
X84777286Y-41844521D01*
X84777290Y-41844524D01*
X84844204Y-41883156D01*
X84914216Y-41923577D01*
X85066943Y-41964500D01*
X85066945Y-41964500D01*
X85225055Y-41964500D01*
X85225057Y-41964500D01*
X85377784Y-41923577D01*
X85514716Y-41844520D01*
X85558417Y-41800819D01*
X85619740Y-41767334D01*
X85646098Y-41764500D01*
X101893500Y-41764500D01*
X101960539Y-41784185D01*
X102006294Y-41836989D01*
X102017500Y-41888500D01*
X102017500Y-49036726D01*
X102044793Y-49138589D01*
X102069847Y-49181982D01*
X102097520Y-49229913D01*
X102097522Y-49229915D01*
X103675502Y-50807895D01*
X103708987Y-50869218D01*
X103704003Y-50938910D01*
X103702384Y-50943025D01*
X103693871Y-50963579D01*
X103693869Y-50963583D01*
X103693867Y-50963587D01*
X103653500Y-51166530D01*
X103653500Y-51373469D01*
X103693868Y-51576412D01*
X103693870Y-51576420D01*
X103726158Y-51654371D01*
X103773059Y-51767598D01*
X103817143Y-51833575D01*
X103888024Y-51939657D01*
X104034342Y-52085975D01*
X104206403Y-52200942D01*
X104316243Y-52246439D01*
X104370646Y-52290280D01*
X104392711Y-52356574D01*
X104375432Y-52424274D01*
X104324294Y-52471884D01*
X104268790Y-52485000D01*
X104028171Y-52485000D01*
X103957012Y-52491465D01*
X103957005Y-52491467D01*
X103793270Y-52542489D01*
X103793265Y-52542491D01*
X103646495Y-52631216D01*
X103646491Y-52631219D01*
X103525219Y-52752491D01*
X103525216Y-52752495D01*
X103436491Y-52899265D01*
X103436489Y-52899270D01*
X103385467Y-53063005D01*
X103385465Y-53063012D01*
X103379000Y-53134170D01*
X103379000Y-53510000D01*
X104299856Y-53510000D01*
X104238075Y-53617007D01*
X104204000Y-53744174D01*
X104204000Y-53875826D01*
X104238075Y-54002993D01*
X104299856Y-54110000D01*
X103379000Y-54110000D01*
X103379000Y-54485829D01*
X103385465Y-54556987D01*
X103385467Y-54556994D01*
X103436489Y-54720729D01*
X103436491Y-54720734D01*
X103525216Y-54867504D01*
X103525219Y-54867508D01*
X103646491Y-54988780D01*
X103646495Y-54988783D01*
X103793265Y-55077508D01*
X103793270Y-55077510D01*
X103957005Y-55128532D01*
X103957012Y-55128534D01*
X104028171Y-55135000D01*
X104404000Y-55135000D01*
X104404000Y-54214144D01*
X104511007Y-54275925D01*
X104638174Y-54310000D01*
X104769826Y-54310000D01*
X104896993Y-54275925D01*
X105004000Y-54214144D01*
X105004000Y-55135000D01*
X105379829Y-55135000D01*
X105450987Y-55128534D01*
X105450994Y-55128532D01*
X105614729Y-55077510D01*
X105614734Y-55077508D01*
X105761504Y-54988783D01*
X105761508Y-54988780D01*
X105882780Y-54867508D01*
X105882783Y-54867504D01*
X105971508Y-54720734D01*
X105971510Y-54720729D01*
X106022532Y-54556994D01*
X106022534Y-54556987D01*
X106029000Y-54485829D01*
X106029000Y-54110000D01*
X105108144Y-54110000D01*
X105169925Y-54002993D01*
X105204000Y-53875826D01*
X105204000Y-53744174D01*
X105169925Y-53617007D01*
X105108144Y-53510000D01*
X106029000Y-53510000D01*
X106029000Y-53134170D01*
X106022534Y-53063012D01*
X106022532Y-53063005D01*
X105971510Y-52899270D01*
X105971508Y-52899265D01*
X105882783Y-52752495D01*
X105882780Y-52752491D01*
X105761508Y-52631219D01*
X105761504Y-52631216D01*
X105614734Y-52542491D01*
X105614729Y-52542489D01*
X105450994Y-52491467D01*
X105450987Y-52491465D01*
X105379829Y-52485000D01*
X105139210Y-52485000D01*
X105072171Y-52465315D01*
X105026416Y-52412511D01*
X105016472Y-52343353D01*
X105045497Y-52279797D01*
X105091757Y-52246439D01*
X105201596Y-52200942D01*
X105201596Y-52200941D01*
X105201598Y-52200941D01*
X105373655Y-52085977D01*
X105519977Y-51939655D01*
X105634941Y-51767598D01*
X105714130Y-51576420D01*
X105754500Y-51373465D01*
X105754500Y-51166535D01*
X105714130Y-50963580D01*
X105634941Y-50772402D01*
X105519977Y-50600345D01*
X105519975Y-50600342D01*
X105373657Y-50454024D01*
X105263318Y-50380299D01*
X105201598Y-50339059D01*
X105165928Y-50324284D01*
X105010420Y-50259870D01*
X105010412Y-50259868D01*
X104807469Y-50219500D01*
X104807465Y-50219500D01*
X104600535Y-50219500D01*
X104600530Y-50219500D01*
X104397587Y-50259867D01*
X104397583Y-50259869D01*
X104397581Y-50259869D01*
X104397580Y-50259870D01*
X104382786Y-50265997D01*
X104377025Y-50268384D01*
X104307555Y-50275850D01*
X104245077Y-50244573D01*
X104241895Y-50241502D01*
X102854819Y-48854426D01*
X102821334Y-48793103D01*
X102818500Y-48766745D01*
X102818500Y-47604189D01*
X102838185Y-47537150D01*
X102890989Y-47491395D01*
X102960147Y-47481451D01*
X103023703Y-47510476D01*
X103030181Y-47516508D01*
X103706568Y-48192895D01*
X103740053Y-48254218D01*
X103735069Y-48323910D01*
X103733448Y-48328028D01*
X103693871Y-48423575D01*
X103693868Y-48423587D01*
X103653500Y-48626530D01*
X103653500Y-48833469D01*
X103693868Y-49036412D01*
X103693870Y-49036420D01*
X103762104Y-49201152D01*
X103773059Y-49227598D01*
X103817439Y-49294018D01*
X103888024Y-49399657D01*
X104034342Y-49545975D01*
X104034345Y-49545977D01*
X104206402Y-49660941D01*
X104397580Y-49740130D01*
X104600530Y-49780499D01*
X104600534Y-49780500D01*
X104600535Y-49780500D01*
X104807466Y-49780500D01*
X104807467Y-49780499D01*
X105010420Y-49740130D01*
X105201598Y-49660941D01*
X105373655Y-49545977D01*
X105519977Y-49399655D01*
X105634941Y-49227598D01*
X105714130Y-49036420D01*
X105754500Y-48833465D01*
X105754500Y-48626535D01*
X105714130Y-48423580D01*
X105634941Y-48232402D01*
X105519977Y-48060345D01*
X105519975Y-48060342D01*
X105373657Y-47914024D01*
X105267840Y-47843320D01*
X105201598Y-47799059D01*
X105182516Y-47791155D01*
X105010420Y-47719870D01*
X105010412Y-47719868D01*
X104807469Y-47679500D01*
X104807465Y-47679500D01*
X104600535Y-47679500D01*
X104600530Y-47679500D01*
X104397587Y-47719868D01*
X104397575Y-47719871D01*
X104302028Y-47759448D01*
X104232559Y-47766917D01*
X104170080Y-47735641D01*
X104166895Y-47732568D01*
X103629819Y-47195492D01*
X103596334Y-47134169D01*
X103593500Y-47107811D01*
X103593500Y-46827642D01*
X103613185Y-46760603D01*
X103665989Y-46714848D01*
X103735147Y-46704904D01*
X103798703Y-46733929D01*
X103820599Y-46758748D01*
X103866633Y-46827642D01*
X103888024Y-46859657D01*
X104034342Y-47005975D01*
X104034345Y-47005977D01*
X104206402Y-47120941D01*
X104397580Y-47200130D01*
X104600530Y-47240499D01*
X104600534Y-47240500D01*
X104600535Y-47240500D01*
X104807466Y-47240500D01*
X104807467Y-47240499D01*
X105010420Y-47200130D01*
X105201598Y-47120941D01*
X105373655Y-47005977D01*
X105519977Y-46859655D01*
X105634941Y-46687598D01*
X105714130Y-46496420D01*
X105754500Y-46293465D01*
X105754500Y-46086535D01*
X105714130Y-45883580D01*
X105634941Y-45692402D01*
X105519977Y-45520345D01*
X105519975Y-45520342D01*
X105373657Y-45374024D01*
X105258463Y-45297055D01*
X105201598Y-45259059D01*
X105049882Y-45196216D01*
X105010420Y-45179870D01*
X105010412Y-45179868D01*
X104807469Y-45139500D01*
X104807465Y-45139500D01*
X104600535Y-45139500D01*
X104600530Y-45139500D01*
X104397587Y-45179868D01*
X104397579Y-45179870D01*
X104206403Y-45259058D01*
X104043261Y-45368065D01*
X103976583Y-45388942D01*
X103909203Y-45370457D01*
X103862514Y-45318478D01*
X103854598Y-45297061D01*
X103827577Y-45196216D01*
X103806957Y-45160500D01*
X103748524Y-45059290D01*
X103748518Y-45059282D01*
X103636717Y-44947481D01*
X103636709Y-44947475D01*
X103499790Y-44868426D01*
X103499786Y-44868424D01*
X103499784Y-44868423D01*
X103347057Y-44827500D01*
X103188943Y-44827500D01*
X103036216Y-44868423D01*
X103036213Y-44868424D01*
X103004497Y-44886735D01*
X102936597Y-44903205D01*
X102870571Y-44880352D01*
X102827381Y-44825429D01*
X102818500Y-44779346D01*
X102818500Y-41888500D01*
X102838185Y-41821461D01*
X102890989Y-41775706D01*
X102942500Y-41764500D01*
X103776355Y-41764500D01*
X103808448Y-41768725D01*
X103885982Y-41789500D01*
X103885984Y-41789500D01*
X103998016Y-41789500D01*
X103998018Y-41789500D01*
X104106237Y-41760503D01*
X104203263Y-41704485D01*
X104282485Y-41625263D01*
X104338503Y-41528237D01*
X104367500Y-41420018D01*
X104367500Y-41307982D01*
X104338503Y-41199763D01*
X104282485Y-41102737D01*
X104203263Y-41023515D01*
X104106237Y-40967497D01*
X103998018Y-40938500D01*
X103885982Y-40938500D01*
X103808448Y-40959275D01*
X103776355Y-40963500D01*
X85646098Y-40963500D01*
X85579059Y-40943815D01*
X85558417Y-40927181D01*
X85514717Y-40883481D01*
X85514709Y-40883475D01*
X85377790Y-40804426D01*
X85377786Y-40804424D01*
X85377784Y-40804423D01*
X85225057Y-40763500D01*
X85066943Y-40763500D01*
X84914216Y-40804423D01*
X84914209Y-40804426D01*
X84777290Y-40883475D01*
X84777282Y-40883481D01*
X84665481Y-40995282D01*
X84665475Y-40995290D01*
X84586426Y-41132209D01*
X84586423Y-41132216D01*
X84545500Y-41284943D01*
X71953714Y-41284943D01*
X69379312Y-38710541D01*
X69379304Y-38710535D01*
X69310795Y-38670982D01*
X69310790Y-38670979D01*
X69285313Y-38664152D01*
X69234362Y-38650500D01*
X69234360Y-38650500D01*
X60556833Y-38650500D01*
X60489794Y-38630815D01*
X60469152Y-38614181D01*
X59699819Y-37844848D01*
X59666334Y-37783525D01*
X59663500Y-37757167D01*
X59663500Y-37751984D01*
X59663500Y-37751982D01*
X59634503Y-37643763D01*
X59578485Y-37546737D01*
X59499263Y-37467515D01*
X59402237Y-37411497D01*
X59294018Y-37382500D01*
X59181982Y-37382500D01*
X59073763Y-37411497D01*
X59073760Y-37411498D01*
X58976740Y-37467513D01*
X58976734Y-37467517D01*
X58897517Y-37546734D01*
X58897513Y-37546740D01*
X58841498Y-37643760D01*
X58841497Y-37643763D01*
X58812500Y-37751982D01*
X53467500Y-37751982D01*
X53467500Y-35588443D01*
X53484113Y-35526443D01*
X53538503Y-35432237D01*
X53567500Y-35324018D01*
X53567500Y-35211982D01*
X53538503Y-35103763D01*
X53482485Y-35006737D01*
X53403263Y-34927515D01*
X53306237Y-34871497D01*
X53198018Y-34842500D01*
X53085982Y-34842500D01*
X52977763Y-34871497D01*
X52977760Y-34871498D01*
X52880740Y-34927513D01*
X52880734Y-34927517D01*
X52801517Y-35006734D01*
X52801513Y-35006740D01*
X52745498Y-35103760D01*
X52745497Y-35103763D01*
X52716500Y-35211982D01*
X43949679Y-35211982D01*
X43947646Y-35190300D01*
X43947646Y-35190298D01*
X43902793Y-35062119D01*
X43902792Y-35062117D01*
X43822150Y-34952850D01*
X43712882Y-34872207D01*
X43712880Y-34872206D01*
X43584700Y-34827353D01*
X43554270Y-34824500D01*
X43554266Y-34824500D01*
X42245734Y-34824500D01*
X42245730Y-34824500D01*
X42215300Y-34827353D01*
X42215298Y-34827353D01*
X42087119Y-34872206D01*
X42087117Y-34872207D01*
X41977850Y-34952850D01*
X41897207Y-35062117D01*
X41897206Y-35062119D01*
X41852353Y-35190298D01*
X41852353Y-35190300D01*
X41849500Y-35220730D01*
X41226257Y-35220730D01*
X41215980Y-35205349D01*
X41215974Y-35205341D01*
X41069657Y-35059024D01*
X40974638Y-34995535D01*
X40897598Y-34944059D01*
X40857662Y-34927517D01*
X40706420Y-34864870D01*
X40706412Y-34864868D01*
X40503469Y-34824500D01*
X40503465Y-34824500D01*
X40296535Y-34824500D01*
X40296530Y-34824500D01*
X40093587Y-34864868D01*
X40093579Y-34864870D01*
X39902403Y-34944058D01*
X39730342Y-35059024D01*
X39584024Y-35205342D01*
X39469057Y-35377404D01*
X39423251Y-35487990D01*
X39379409Y-35542394D01*
X39313115Y-35564458D01*
X39245416Y-35547178D01*
X39197806Y-35496041D01*
X39190759Y-35478855D01*
X39151095Y-35356782D01*
X39054620Y-35167442D01*
X38929727Y-34995540D01*
X38929723Y-34995535D01*
X38779464Y-34845276D01*
X38779459Y-34845272D01*
X38607557Y-34720379D01*
X38489029Y-34659985D01*
X38438233Y-34612010D01*
X38421438Y-34544189D01*
X38443976Y-34478054D01*
X38498691Y-34434603D01*
X38545324Y-34425500D01*
X53855167Y-34425500D01*
X53884607Y-34434144D01*
X53914594Y-34440668D01*
X53919609Y-34444422D01*
X53922206Y-34445185D01*
X53942848Y-34461819D01*
X53950181Y-34469152D01*
X53983666Y-34530475D01*
X53986500Y-34556833D01*
X53986500Y-34562018D01*
X54015497Y-34670237D01*
X54071515Y-34767263D01*
X54150737Y-34846485D01*
X54247763Y-34902503D01*
X54355982Y-34931500D01*
X54355984Y-34931500D01*
X54468016Y-34931500D01*
X54468018Y-34931500D01*
X54576237Y-34902503D01*
X54673263Y-34846485D01*
X54752485Y-34767263D01*
X54808503Y-34670237D01*
X54837500Y-34562018D01*
X54837500Y-34449982D01*
X54808503Y-34341763D01*
X54752485Y-34244737D01*
X54673263Y-34165515D01*
X54576237Y-34109497D01*
X54468018Y-34080500D01*
X54468017Y-34080500D01*
X54462833Y-34080500D01*
X54395794Y-34060815D01*
X54375152Y-34044181D01*
X54215512Y-33884541D01*
X54215511Y-33884540D01*
X54187252Y-33868225D01*
X54187252Y-33868224D01*
X54187248Y-33868223D01*
X54173200Y-33860112D01*
X54146990Y-33844979D01*
X54146991Y-33844979D01*
X54103325Y-33833279D01*
X54070562Y-33824500D01*
X36465438Y-33824500D01*
X36465435Y-33824500D01*
X36432669Y-33833279D01*
X36432659Y-33833283D01*
X36389011Y-33844979D01*
X36348748Y-33868225D01*
X36341021Y-33872685D01*
X36341014Y-33872689D01*
X36320490Y-33884539D01*
X36320487Y-33884541D01*
X36160848Y-34044181D01*
X36099525Y-34077666D01*
X36073167Y-34080500D01*
X36067982Y-34080500D01*
X35959763Y-34109497D01*
X35959760Y-34109498D01*
X35862740Y-34165513D01*
X35862734Y-34165517D01*
X35783517Y-34244734D01*
X35783513Y-34244740D01*
X35727498Y-34341760D01*
X35727497Y-34341763D01*
X35698500Y-34449982D01*
X32661959Y-34449982D01*
X31554009Y-33342031D01*
X31460438Y-33270231D01*
X31460436Y-33270229D01*
X31342824Y-33179982D01*
X35698500Y-33179982D01*
X35698500Y-33292018D01*
X35727497Y-33400237D01*
X35783515Y-33497263D01*
X35862737Y-33576485D01*
X35959763Y-33632503D01*
X36067982Y-33661500D01*
X36067984Y-33661500D01*
X36180015Y-33661500D01*
X36180018Y-33661500D01*
X36288237Y-33632503D01*
X36385263Y-33576485D01*
X36388929Y-33572819D01*
X36450252Y-33539334D01*
X36476610Y-33536500D01*
X55837390Y-33536500D01*
X55904429Y-33556185D01*
X55925071Y-33572819D01*
X55928737Y-33576485D01*
X56025763Y-33632503D01*
X56133982Y-33661500D01*
X56133984Y-33661500D01*
X56246016Y-33661500D01*
X56246018Y-33661500D01*
X56354237Y-33632503D01*
X56451263Y-33576485D01*
X56530485Y-33497263D01*
X56586503Y-33400237D01*
X56615500Y-33292018D01*
X56615500Y-33179982D01*
X56586503Y-33071763D01*
X56530485Y-32974737D01*
X56451263Y-32895515D01*
X56354237Y-32839497D01*
X56246018Y-32810500D01*
X56133982Y-32810500D01*
X56025763Y-32839497D01*
X56025760Y-32839498D01*
X55928740Y-32895513D01*
X55928734Y-32895517D01*
X55925071Y-32899181D01*
X55863748Y-32932666D01*
X55837390Y-32935500D01*
X36476610Y-32935500D01*
X36409571Y-32915815D01*
X36388929Y-32899181D01*
X36385265Y-32895517D01*
X36385263Y-32895515D01*
X36288237Y-32839497D01*
X36180018Y-32810500D01*
X36067982Y-32810500D01*
X35959763Y-32839497D01*
X35959760Y-32839498D01*
X35862740Y-32895513D01*
X35862734Y-32895517D01*
X35783517Y-32974734D01*
X35783513Y-32974740D01*
X35727498Y-33071760D01*
X35727497Y-33071763D01*
X35698500Y-33179982D01*
X31342824Y-33179982D01*
X31325155Y-33166424D01*
X31075353Y-33022201D01*
X31075352Y-33022200D01*
X31075345Y-33022197D01*
X30808846Y-32911808D01*
X30761721Y-32899181D01*
X30530227Y-32837153D01*
X30530220Y-32837151D01*
X30530217Y-32837151D01*
X30466664Y-32828783D01*
X30244236Y-32799499D01*
X30244229Y-32799499D01*
X29955771Y-32799499D01*
X29955763Y-32799499D01*
X29701559Y-32832967D01*
X29669783Y-32837151D01*
X29669781Y-32837151D01*
X29669772Y-32837153D01*
X29391160Y-32911806D01*
X29391156Y-32911807D01*
X29391154Y-32911808D01*
X29340799Y-32932666D01*
X29124647Y-33022200D01*
X29124646Y-33022201D01*
X28874848Y-33166421D01*
X28645990Y-33342031D01*
X28442031Y-33545990D01*
X28266421Y-33774848D01*
X28122201Y-34024646D01*
X28122200Y-34024647D01*
X28011811Y-34291147D01*
X28011806Y-34291160D01*
X27937153Y-34569772D01*
X27937151Y-34569784D01*
X27899499Y-34855763D01*
X27899499Y-35144236D01*
X27937151Y-35430215D01*
X27937153Y-35430227D01*
X28011462Y-35707554D01*
X28011808Y-35708846D01*
X28122197Y-35975345D01*
X28122200Y-35975352D01*
X28122201Y-35975353D01*
X28266421Y-36225151D01*
X28286328Y-36251094D01*
X28433299Y-36442630D01*
X28442031Y-36454009D01*
X29188181Y-37200158D01*
X29221666Y-37261481D01*
X29224500Y-37287839D01*
X29224500Y-39376323D01*
X29204815Y-39443362D01*
X29188182Y-39464004D01*
X29119500Y-39532686D01*
X29053608Y-39646812D01*
X29019500Y-39774108D01*
X29019500Y-39905891D01*
X29053608Y-40033187D01*
X29077712Y-40074935D01*
X29119500Y-40147314D01*
X29119502Y-40147316D01*
X29188181Y-40215995D01*
X29221666Y-40277318D01*
X29224500Y-40303676D01*
X29224500Y-40646323D01*
X29204815Y-40713362D01*
X29188182Y-40734004D01*
X29119500Y-40802686D01*
X29053608Y-40916812D01*
X29031720Y-40998501D01*
X29019500Y-41044108D01*
X29019500Y-41175892D01*
X29025896Y-41199763D01*
X29053608Y-41303187D01*
X29056378Y-41307984D01*
X29119500Y-41417314D01*
X29119502Y-41417316D01*
X29188181Y-41485995D01*
X29221666Y-41547318D01*
X29224500Y-41573676D01*
X29224500Y-41762221D01*
X29224501Y-41762238D01*
X29240420Y-41883156D01*
X29229654Y-41952191D01*
X29205163Y-41987021D01*
X29119503Y-42072682D01*
X29119500Y-42072686D01*
X29053608Y-42186812D01*
X29019500Y-42314108D01*
X29019500Y-42445892D01*
X29030466Y-42486817D01*
X29053608Y-42573187D01*
X29066224Y-42595038D01*
X29119500Y-42687314D01*
X29212686Y-42780500D01*
X29326814Y-42846392D01*
X29454108Y-42880500D01*
X29454110Y-42880500D01*
X29558930Y-42880500D01*
X29625969Y-42900185D01*
X29657306Y-42929014D01*
X29767024Y-43072002D01*
X29767030Y-43072009D01*
X29970990Y-43275969D01*
X29970997Y-43275975D01*
X30068265Y-43350611D01*
X30199844Y-43451575D01*
X30199851Y-43451579D01*
X30449647Y-43595800D01*
X30449663Y-43595808D01*
X30716139Y-43706185D01*
X30716145Y-43706186D01*
X30716155Y-43706191D01*
X30863701Y-43745725D01*
X30923361Y-43782090D01*
X30953890Y-43844937D01*
X30945595Y-43914312D01*
X30901110Y-43968190D01*
X30834558Y-43989465D01*
X30831607Y-43989500D01*
X30645772Y-43989500D01*
X30645766Y-43989500D01*
X30645761Y-43989501D01*
X30359793Y-44027149D01*
X30359786Y-44027150D01*
X30359783Y-44027151D01*
X30148687Y-44083714D01*
X30081155Y-44101809D01*
X30081139Y-44101814D01*
X29814663Y-44212191D01*
X29814647Y-44212199D01*
X29564851Y-44356420D01*
X29564835Y-44356431D01*
X29335997Y-44532024D01*
X29335990Y-44532030D01*
X29132030Y-44735990D01*
X29132024Y-44735997D01*
X28956431Y-44964835D01*
X28956420Y-44964851D01*
X28812199Y-45214647D01*
X28812191Y-45214663D01*
X28701814Y-45481139D01*
X28701809Y-45481155D01*
X28628974Y-45752982D01*
X28627152Y-45759780D01*
X28627149Y-45759793D01*
X28589501Y-46045761D01*
X28589500Y-46045778D01*
X28589500Y-47981160D01*
X28569815Y-48048199D01*
X28553181Y-48068841D01*
X28279996Y-48342026D01*
X28076029Y-48545991D01*
X28076024Y-48545997D01*
X27900431Y-48774835D01*
X27900420Y-48774851D01*
X27756199Y-49024647D01*
X27756191Y-49024663D01*
X27715870Y-49122011D01*
X27715870Y-49122012D01*
X27646770Y-49288833D01*
X27645811Y-49291147D01*
X27645806Y-49291160D01*
X27571153Y-49569772D01*
X27571151Y-49569784D01*
X27533499Y-49855763D01*
X27533499Y-50144236D01*
X27561245Y-50354978D01*
X27569769Y-50419723D01*
X27571151Y-50430215D01*
X27571153Y-50430227D01*
X27638037Y-50679844D01*
X27645808Y-50708846D01*
X27649865Y-50718640D01*
X27683359Y-50799501D01*
X27756194Y-50975341D01*
X27756199Y-50975352D01*
X27900420Y-51225148D01*
X27900431Y-51225164D01*
X28076024Y-51454002D01*
X28076030Y-51454009D01*
X28279990Y-51657969D01*
X28279996Y-51657974D01*
X28508844Y-51833575D01*
X28508851Y-51833579D01*
X28758647Y-51977800D01*
X28758651Y-51977802D01*
X28758655Y-51977804D01*
X28861733Y-52020500D01*
X29025154Y-52088192D01*
X29137942Y-52118413D01*
X29193529Y-52150506D01*
X29823181Y-52780158D01*
X29856666Y-52841481D01*
X29859500Y-52867839D01*
X29859500Y-53319221D01*
X29859501Y-53319238D01*
X29897149Y-53605206D01*
X29897150Y-53605211D01*
X29897151Y-53605217D01*
X29971809Y-53883844D01*
X29971814Y-53883860D01*
X30082191Y-54150336D01*
X30082199Y-54150352D01*
X30226420Y-54400148D01*
X30226431Y-54400164D01*
X30264739Y-54450088D01*
X30286746Y-54503216D01*
X30287397Y-54503042D01*
X30288720Y-54507980D01*
X30289302Y-54509385D01*
X30289500Y-54510892D01*
X30323608Y-54638187D01*
X30356554Y-54695250D01*
X30389500Y-54752314D01*
X30482686Y-54845500D01*
X30596814Y-54911392D01*
X30724108Y-54945500D01*
X30724120Y-54945500D01*
X30725603Y-54945696D01*
X30726999Y-54946274D01*
X30731958Y-54947603D01*
X30731783Y-54948255D01*
X30784909Y-54970258D01*
X30834844Y-55008575D01*
X30834851Y-55008579D01*
X31084647Y-55152800D01*
X31084663Y-55152808D01*
X31351139Y-55263185D01*
X31351145Y-55263186D01*
X31351155Y-55263191D01*
X31629783Y-55337849D01*
X31779955Y-55357619D01*
X31851670Y-55367061D01*
X31915567Y-55395327D01*
X31954038Y-55453652D01*
X31954869Y-55523517D01*
X31917797Y-55582740D01*
X31854591Y-55612519D01*
X31835485Y-55614000D01*
X29183110Y-55614000D01*
X29116071Y-55594315D01*
X29095429Y-55577681D01*
X29091765Y-55574017D01*
X29091763Y-55574015D01*
X29002116Y-55522257D01*
X28994739Y-55517998D01*
X28994738Y-55517997D01*
X28994737Y-55517997D01*
X28886518Y-55489000D01*
X28774482Y-55489000D01*
X28666263Y-55517997D01*
X28666262Y-55517997D01*
X28596499Y-55558275D01*
X28528599Y-55574747D01*
X28462572Y-55551894D01*
X28419382Y-55496972D01*
X28410500Y-55450887D01*
X28410500Y-54928340D01*
X28410499Y-54928336D01*
X28376542Y-54626951D01*
X28376541Y-54626946D01*
X28376540Y-54626937D01*
X28309046Y-54331228D01*
X28208868Y-54044935D01*
X28077265Y-53771659D01*
X27915892Y-53514836D01*
X27726779Y-53277696D01*
X27512304Y-53063221D01*
X27488592Y-53044311D01*
X27322187Y-52911606D01*
X27282047Y-52854417D01*
X27275500Y-52814659D01*
X27275500Y-47224946D01*
X27295185Y-47157907D01*
X27311819Y-47137265D01*
X27443109Y-47005975D01*
X27726780Y-46722304D01*
X27915893Y-46485164D01*
X28077265Y-46228341D01*
X28208868Y-45955065D01*
X28309046Y-45668772D01*
X28376540Y-45373063D01*
X28377104Y-45368065D01*
X28404514Y-45124784D01*
X28404514Y-45124782D01*
X28410500Y-45071660D01*
X28410500Y-40958340D01*
X28410499Y-40958336D01*
X28405820Y-40916812D01*
X28388547Y-40763500D01*
X28376542Y-40656951D01*
X28376541Y-40656946D01*
X28376540Y-40656937D01*
X28309046Y-40361228D01*
X28208868Y-40074935D01*
X28077265Y-39801659D01*
X27915892Y-39544836D01*
X27726779Y-39307696D01*
X27512304Y-39093221D01*
X27275164Y-38904108D01*
X27018341Y-38742735D01*
X27018338Y-38742733D01*
X26745068Y-38611133D01*
X26458783Y-38510957D01*
X26458771Y-38510953D01*
X26230556Y-38458864D01*
X26163063Y-38443460D01*
X26163060Y-38443459D01*
X26163048Y-38443457D01*
X25861663Y-38409500D01*
X25861657Y-38409500D01*
X25558343Y-38409500D01*
X25558336Y-38409500D01*
X25256951Y-38443457D01*
X25256937Y-38443460D01*
X24961228Y-38510953D01*
X24961216Y-38510957D01*
X24674931Y-38611133D01*
X24401661Y-38742733D01*
X24144837Y-38904107D01*
X23907696Y-39093220D01*
X23693220Y-39307696D01*
X23504107Y-39544837D01*
X23342733Y-39801661D01*
X23211133Y-40074931D01*
X23110957Y-40361216D01*
X23110953Y-40361229D01*
X23043801Y-40655438D01*
X23021287Y-40703330D01*
X22900429Y-40860837D01*
X22756196Y-41110654D01*
X22756191Y-41110663D01*
X22711293Y-41219061D01*
X22711293Y-41219062D01*
X22674461Y-41307982D01*
X22645811Y-41377147D01*
X22645806Y-41377160D01*
X22571153Y-41655772D01*
X22571151Y-41655781D01*
X22571151Y-41655783D01*
X22569632Y-41667318D01*
X22533499Y-41941763D01*
X22533499Y-42234615D01*
X22533500Y-42234644D01*
X22533500Y-44620700D01*
X22526542Y-44661654D01*
X22475954Y-44806226D01*
X22475953Y-44806228D01*
X22408459Y-45101943D01*
X22408459Y-45101944D01*
X22374501Y-45403336D01*
X16910500Y-45403336D01*
X16910500Y-34004066D01*
X16910765Y-33995956D01*
X16918067Y-33884540D01*
X16923917Y-33795280D01*
X22700000Y-33795280D01*
X22700000Y-34750000D01*
X23772769Y-34750000D01*
X23750000Y-34893753D01*
X23750000Y-35106247D01*
X23772769Y-35250000D01*
X22700000Y-35250000D01*
X22700000Y-36204719D01*
X22710482Y-36337906D01*
X22710483Y-36337912D01*
X22765898Y-36557829D01*
X22765899Y-36557832D01*
X22859695Y-36764330D01*
X22859698Y-36764336D01*
X22988851Y-36950758D01*
X22988861Y-36950770D01*
X23149229Y-37111138D01*
X23149241Y-37111148D01*
X23335663Y-37240301D01*
X23335669Y-37240304D01*
X23542167Y-37334100D01*
X23542170Y-37334101D01*
X23762087Y-37389516D01*
X23762093Y-37389517D01*
X23895280Y-37399999D01*
X23895294Y-37400000D01*
X24850000Y-37400000D01*
X24850000Y-36327231D01*
X24993753Y-36350000D01*
X25206247Y-36350000D01*
X25350000Y-36327231D01*
X25350000Y-37400000D01*
X26304706Y-37400000D01*
X26304719Y-37399999D01*
X26437906Y-37389517D01*
X26437912Y-37389516D01*
X26657829Y-37334101D01*
X26657832Y-37334100D01*
X26864330Y-37240304D01*
X26864336Y-37240301D01*
X27050758Y-37111148D01*
X27050770Y-37111138D01*
X27211138Y-36950770D01*
X27211148Y-36950758D01*
X27340301Y-36764336D01*
X27340304Y-36764330D01*
X27434100Y-36557832D01*
X27434101Y-36557829D01*
X27489516Y-36337912D01*
X27489517Y-36337906D01*
X27499999Y-36204719D01*
X27500000Y-36204706D01*
X27500000Y-35250000D01*
X26427231Y-35250000D01*
X26450000Y-35106247D01*
X26450000Y-34893753D01*
X26427231Y-34750000D01*
X27500000Y-34750000D01*
X27500000Y-33795293D01*
X27499999Y-33795280D01*
X27489517Y-33662093D01*
X27489516Y-33662087D01*
X27434101Y-33442170D01*
X27434100Y-33442167D01*
X27340304Y-33235669D01*
X27340301Y-33235663D01*
X27211148Y-33049241D01*
X27211138Y-33049229D01*
X27050770Y-32888861D01*
X27050758Y-32888851D01*
X26864336Y-32759698D01*
X26864330Y-32759695D01*
X26657832Y-32665899D01*
X26657829Y-32665898D01*
X26437912Y-32610483D01*
X26437906Y-32610482D01*
X26304719Y-32600000D01*
X25350000Y-32600000D01*
X25350000Y-33672768D01*
X25206247Y-33650000D01*
X24993753Y-33650000D01*
X24850000Y-33672768D01*
X24850000Y-32600000D01*
X23895280Y-32600000D01*
X23762093Y-32610482D01*
X23762087Y-32610483D01*
X23542170Y-32665898D01*
X23542167Y-32665899D01*
X23335669Y-32759695D01*
X23335663Y-32759698D01*
X23149241Y-32888851D01*
X23149229Y-32888861D01*
X22988861Y-33049229D01*
X22988851Y-33049241D01*
X22859698Y-33235663D01*
X22859695Y-33235669D01*
X22765899Y-33442167D01*
X22765898Y-33442170D01*
X22710483Y-33662087D01*
X22710482Y-33662093D01*
X22700000Y-33795280D01*
X16923917Y-33795280D01*
X16926989Y-33748413D01*
X16929104Y-33732354D01*
X16976709Y-33493033D01*
X16980898Y-33477397D01*
X17059332Y-33246337D01*
X17065529Y-33231375D01*
X17173450Y-33012533D01*
X17181553Y-32998498D01*
X17317116Y-32795614D01*
X17326973Y-32782768D01*
X17487857Y-32599315D01*
X17499315Y-32587857D01*
X17682768Y-32426973D01*
X17695614Y-32417116D01*
X17898498Y-32281553D01*
X17912533Y-32273450D01*
X18131375Y-32165529D01*
X18146337Y-32159332D01*
X18377397Y-32080898D01*
X18393033Y-32076709D01*
X18632354Y-32029104D01*
X18648411Y-32026989D01*
X18872936Y-32012273D01*
X18895958Y-32010765D01*
X18904067Y-32010500D01*
X77910000Y-32010500D01*
X77977039Y-32030185D01*
G37*
%TD.AperFunction*%
%TD*%
M02*
