M48
; DRILL file {KiCad 9.0.5} date 2025-11-15T15:40:49+0100
; FORMAT={-:-/ absolute / inch / decimal}
; #@! TF.CreationDate,2025-11-15T15:40:49+01:00
; #@! TF.GenerationSoftware,Kicad,Pcbnew,9.0.5
; #@! TF.FileFunction,Plated,1,4,PTH
FMAT,2
INCH
; #@! TA.AperFunction,Plated,PTH,ComponentDrill
T1C0.0079
; #@! TA.AperFunction,Plated,PTH,ViaDrill
T2C0.0098
; #@! TA.AperFunction,Plated,PTH,ViaDrill
T3C0.0118
; #@! TA.AperFunction,Plated,PTH,ViaDrill
T4C0.0157
; #@! TA.AperFunction,Plated,PTH,ComponentDrill
T5C0.0374
; #@! TA.AperFunction,Plated,PTH,ComponentDrill
T6C0.0394
; #@! TA.AperFunction,Plated,PTH,ComponentDrill
T7C0.1063
; #@! TA.AperFunction,Plated,PTH,ComponentDrill
T8C0.1161
%
G90
G05
T1
X1.8844Y-2.0134
X1.8844Y-2.0685
X1.8844Y-2.1237
X1.9395Y-2.0134
X1.9395Y-2.0685
X1.9395Y-2.1237
T2
X1.1351Y-2.2014
X1.2862Y-1.2795
X1.3322Y-1.9185
X1.3618Y-2.2392
X1.3622Y-1.5385
X1.3812Y-1.2825
X1.3872Y-1.9185
X1.3922Y-1.9585
X1.4172Y-1.6305
X1.4222Y-1.3085
X1.4222Y-1.3585
X1.4222Y-2.6535
X1.4342Y-1.9905
X1.4762Y-1.6695
X1.5132Y-1.8485
X1.6222Y-2.3785
X1.6242Y-1.8475
X1.6372Y-2.6085
X1.6682Y-2.1685
X1.6712Y-1.7135
X1.6982Y-1.8955
X1.7022Y-2.1785
X1.7382Y-1.6785
X1.7524Y-1.9969
X1.7532Y-2.1175
X1.8632Y-1.9615
X1.9192Y-1.9595
X1.9532Y-1.9635
X2.0222Y-2.6145
X2.0532Y-1.5745
X2.0742Y-2.0485
X2.0922Y-1.3885
X2.1422Y-1.3585
X2.1842Y-1.5505
X2.1962Y-2.2455
X2.1982Y-2.0105
X2.1982Y-2.0625
X2.1992Y-2.1115
X2.2072Y-2.6485
X2.2122Y-1.3085
X2.2622Y-2.4685
X2.3322Y-1.4885
X2.3372Y-2.6485
X2.3902Y-1.3825
X2.3922Y-2.5785
X2.4022Y-1.5785
X2.4022Y-1.5785
X2.4362Y-2.4665
X2.4822Y-1.3585
X2.4922Y-1.5985
X2.5052Y-1.6705
X2.6212Y-2.6565
X2.7442Y-2.6095
X2.7562Y-1.5035
X2.7932Y-2.5565
X2.8022Y-2.0385
X2.8212Y-2.4895
X2.8722Y-1.8035
X2.8722Y-1.9285
X2.9122Y-2.1985
X2.9952Y-2.1845
X3.0172Y-1.9885
X3.0222Y-1.7535
X3.0522Y-1.9585
X3.0722Y-2.0685
X3.0922Y-1.9385
X3.1192Y-2.2485
X3.1642Y-1.7185
X3.1722Y-1.8685
X3.1872Y-2.3985
X3.3572Y-2.3705
X3.3942Y-2.6215
X3.4162Y-2.1935
X3.4272Y-1.6635
X3.4477Y-2.321
X3.4522Y-2.1185
X3.4872Y-2.5735
X3.5622Y-1.5685
X3.5742Y-2.0695
X3.5912Y-2.1465
X3.5922Y-2.3385
X3.6294Y-2.0959
X3.6592Y-2.6395
X3.6972Y-1.5685
X3.7072Y-1.6635
X3.7522Y-2.5835
X3.8222Y-2.3335
X3.8322Y-2.1465
X3.9122Y-2.5785
X3.9272Y-1.6635
X3.9402Y-2.2715
X4.0372Y-2.6465
X4.0392Y-2.5775
X4.0922Y-1.6285
X4.3501Y-2.3011
X4.3522Y-2.3759
X4.3522Y-2.4585
X4.4222Y-1.7685
X4.4322Y-2.5985
X4.4474Y-1.9233
X4.4708Y-1.8049
X4.5402Y-2.1285
X4.5443Y-2.3664
X4.5562Y-1.8495
X4.5562Y-2.0795
X4.5788Y-1.8629
X4.5998Y-2.4046
X4.6122Y-2.6185
X4.6322Y-2.4485
T3
X0.7322Y-1.3185
X0.7322Y-2.6285
X0.7372Y-1.5435
X0.7372Y-1.6185
X0.7372Y-1.6685
X0.7372Y-1.7185
X0.7372Y-1.7685
X0.7372Y-1.8185
X0.7372Y-1.8685
X0.7372Y-1.9185
X0.7372Y-1.9685
X0.7372Y-2.0185
X0.7372Y-2.0685
X0.7372Y-2.1185
X0.7372Y-2.1685
X0.7372Y-2.2185
X0.7372Y-2.2685
X0.7372Y-2.3185
X0.7372Y-2.3685
X0.7372Y-2.4185
X0.8372Y-1.5435
X0.8372Y-1.6185
X0.8372Y-1.6685
X0.8372Y-1.7185
X0.8372Y-1.7685
X0.8372Y-1.8185
X0.8372Y-1.8685
X0.8372Y-1.9185
X0.8372Y-1.9685
X0.8372Y-2.0185
X0.8372Y-2.0685
X0.8372Y-2.1185
X0.8372Y-2.1685
X0.8372Y-2.2185
X0.8372Y-2.2685
X0.8372Y-2.3185
X0.8372Y-2.3685
X0.8372Y-2.4185
X0.9622Y-1.6185
X0.9622Y-1.6685
X0.9622Y-1.7185
X0.9622Y-1.7685
X0.9622Y-1.8185
X0.9622Y-2.1185
X0.9622Y-2.1685
X0.9622Y-2.2185
X0.9622Y-2.2685
X0.9622Y-2.3185
X1.0122Y-1.8435
X1.0122Y-2.0935
X1.0622Y-1.6185
X1.0622Y-1.6685
X1.0622Y-1.7185
X1.0622Y-1.7685
X1.0622Y-2.1685
X1.0622Y-2.2185
X1.0622Y-2.2685
X1.0622Y-2.3185
X1.1082Y-2.4215
X1.1622Y-1.5685
X1.1622Y-1.6185
X1.1622Y-1.6685
X1.1622Y-1.7935
X1.1622Y-2.2685
X1.1622Y-2.3185
X1.1622Y-2.3685
X1.1872Y-1.7935
X1.2122Y-1.5685
X1.2122Y-1.6185
X1.2122Y-1.6685
X1.2122Y-1.7935
X1.2122Y-2.1435
X1.2122Y-2.2685
X1.2122Y-2.3185
X1.2122Y-2.3685
X1.2372Y-1.7935
X1.2372Y-2.1435
X1.2612Y-2.1435
X1.2622Y-1.5685
X1.2622Y-1.6185
X1.2622Y-1.6685
X1.2622Y-1.7935
X1.2622Y-2.2685
X1.2622Y-2.3185
X1.2622Y-2.3685
X1.2882Y-2.1425
X1.3122Y-1.5685
X1.3122Y-1.6185
X1.3122Y-1.6685
X1.3122Y-2.2685
X1.3122Y-2.3185
X1.3122Y-2.3685
X1.3402Y-2.6215
X1.3442Y-1.7365
X1.3602Y-2.3195
X1.4302Y-2.2355
X1.4342Y-1.7965
X1.5092Y-1.9315
X1.5302Y-2.0145
X1.5802Y-2.0075
X1.5842Y-1.9295
X1.6262Y-1.6155
X1.6322Y-2.0065
X1.6402Y-1.9295
X1.6662Y-2.0085
X1.6862Y-1.9435
X1.7242Y-1.9425
X1.8152Y-1.9285
X1.8842Y-1.6945
X1.9222Y-1.7385
X1.9302Y-1.8745
X2.1272Y-1.7795
X2.1283Y-1.6926
X2.2882Y-1.9845
X2.2892Y-1.7985
X2.4352Y-1.7085
X2.4422Y-1.2785
X2.5392Y-2.0575
X2.5622Y-1.8985
X2.5642Y-2.1635
X2.6122Y-1.3085
X2.6122Y-1.3885
X2.6222Y-1.6485
X2.6722Y-1.348
X2.7122Y-1.6485
X2.7682Y-2.0525
X2.7692Y-2.1255
X2.7762Y-1.7415
X2.8422Y-1.7085
X2.8422Y-1.8425
X2.8872Y-1.3415
X2.8992Y-1.5135
X2.9312Y-1.4485
X3.0122Y-1.4295
X3.0122Y-1.5085
X3.0297Y-1.531
X3.0522Y-1.2785
X3.0622Y-1.5185
X3.1012Y-2.0285
X3.1122Y-1.5185
X3.1622Y-1.5185
X3.1622Y-1.7985
X3.1622Y-2.0285
X3.2022Y-2.3051
X3.2082Y-2.1935
X3.2122Y-1.5185
X3.2182Y-1.7505
X3.2572Y-1.5585
X3.2622Y-1.5185
X3.3122Y-1.5185
X3.3422Y-1.5685
X3.3622Y-1.5185
X3.4122Y-1.5185
X3.4182Y-2.0845
X3.4622Y-1.5185
X3.5122Y-1.5185
X3.5222Y-1.7785
X3.5222Y-1.8585
X3.5222Y-1.9385
X3.5622Y-1.5185
X3.6122Y-1.5185
X3.6122Y-1.7785
X3.6122Y-1.9385
X3.6622Y-1.5185
X3.6922Y-1.7785
X3.6922Y-1.8585
X3.6922Y-1.9385
X3.7122Y-1.5185
X3.7622Y-1.5185
X3.8122Y-1.5185
X3.8622Y-1.5185
X3.9122Y-1.5185
X3.9202Y-2.1505
X3.9232Y-1.5685
X3.9622Y-1.5185
X4.0122Y-1.5185
X4.0132Y-2.2665
X4.0542Y-2.0245
X4.0622Y-1.5185
X4.0942Y-1.7345
X4.1122Y-1.5185
X4.1432Y-1.5675
X4.1622Y-1.5185
X4.1722Y-1.5485
X4.1722Y-2.6485
X4.2972Y-1.3035
X4.2972Y-1.7385
X4.3022Y-2.6285
X4.3472Y-2.2135
X4.4222Y-2.2385
X4.4272Y-2.4385
X4.4272Y-2.5335
X4.4422Y-2.1535
X4.4922Y-2.2335
X4.4972Y-1.5385
X4.4972Y-2.0085
X4.5022Y-2.0735
X4.5622Y-2.2385
X4.5872Y-2.1535
X4.6372Y-2.2285
X4.6672Y-1.3035
X4.6672Y-1.7485
X4.6772Y-2.0085
X4.6792Y-2.6295
T4
X1.4316Y-1.8921
X1.5406Y-2.2966
X2.0772Y-2.1105
X3.3522Y-1.6285
X3.6078Y-1.8577
X3.7522Y-1.8985
X3.8922Y-1.9035
X4.0657Y-1.7885
T5
X1.4921Y-1.4173
X1.4921Y-2.5305
X1.5906Y-1.4173
X1.5906Y-2.5305
X1.689Y-1.4173
X1.689Y-2.5305
T6
X1.6922Y-2.3685
X1.7922Y-2.3685
X1.8922Y-2.3685
X3.1022Y-2.3685
X3.1022Y-2.4685
X3.1022Y-2.5685
X3.2222Y-2.5685
X3.3222Y-2.5685
X3.603Y-2.4381
X3.603Y-2.5381
X3.703Y-2.4381
X3.703Y-2.5381
X3.803Y-2.4381
X3.803Y-2.5381
X4.1122Y-2.3685
X4.1122Y-2.4685
X4.1222Y-1.8185
X4.1222Y-1.9185
X4.1222Y-2.0185
X4.1222Y-2.1185
X4.3422Y-1.8185
X4.3422Y-1.9185
X4.3422Y-2.0185
X4.3422Y-2.1185
T7
X0.9738Y-1.9685
X0.9882Y-1.378
X0.9882Y-2.5591
X1.1706Y-1.9685
X1.185Y-1.378
X1.185Y-2.5591
T8
X2.4334Y-1.8318
X2.4334Y-2.1045
X2.6696Y-1.9682
M30
