%TF.GenerationSoftware,KiCad,Pcbnew,9.0.7*%
%TF.CreationDate,2026-03-20T13:58:25+01:00*%
%TF.ProjectId,Robobuoy-Sub-v3_0,526f626f-6275-46f7-992d-5375622d7633,rev?*%
%TF.SameCoordinates,Original*%
%TF.FileFunction,Legend,Bot*%
%TF.FilePolarity,Positive*%
%FSLAX46Y46*%
G04 Gerber Fmt 4.6, Leading zero omitted, Abs format (unit mm)*
G04 Created by KiCad (PCBNEW 9.0.7) date 2026-03-20 13:58:25*
%MOMM*%
%LPD*%
G01*
G04 APERTURE LIST*
G04 Aperture macros list*
%AMRoundRect*
0 Rectangle with rounded corners*
0 $1 Rounding radius*
0 $2 $3 $4 $5 $6 $7 $8 $9 X,Y pos of 4 corners*
0 Add a 4 corners polygon primitive as box body*
4,1,4,$2,$3,$4,$5,$6,$7,$8,$9,$2,$3,0*
0 Add four circle primitives for the rounded corners*
1,1,$1+$1,$2,$3*
1,1,$1+$1,$4,$5*
1,1,$1+$1,$6,$7*
1,1,$1+$1,$8,$9*
0 Add four rect primitives between the rounded corners*
20,1,$1+$1,$2,$3,$4,$5,0*
20,1,$1+$1,$4,$5,$6,$7,0*
20,1,$1+$1,$6,$7,$8,$9,0*
20,1,$1+$1,$8,$9,$2,$3,0*%
G04 Aperture macros list end*
%ADD10C,0.200000*%
%ADD11C,0.150000*%
%ADD12C,0.300000*%
%ADD13C,0.400000*%
%ADD14RoundRect,1.125000X-1.125000X1.125000X-1.125000X-1.125000X1.125000X-1.125000X1.125000X1.125000X0*%
%ADD15C,4.500000*%
%ADD16RoundRect,0.250000X0.600000X-0.600000X0.600000X0.600000X-0.600000X0.600000X-0.600000X-0.600000X0*%
%ADD17C,1.700000*%
%ADD18RoundRect,0.760000X-1.140000X-1.140000X1.140000X-1.140000X1.140000X1.140000X-1.140000X1.140000X0*%
%ADD19C,3.800000*%
%ADD20RoundRect,0.206250X-0.618750X-0.618750X0.618750X-0.618750X0.618750X0.618750X-0.618750X0.618750X0*%
%ADD21RoundRect,0.206250X0.618750X-0.618750X0.618750X0.618750X-0.618750X0.618750X-0.618750X-0.618750X0*%
%ADD22RoundRect,0.206250X-0.618750X0.618750X-0.618750X-0.618750X0.618750X-0.618750X0.618750X0.618750X0*%
%ADD23RoundRect,0.206250X0.618750X0.618750X-0.618750X0.618750X-0.618750X-0.618750X0.618750X-0.618750X0*%
%ADD24RoundRect,0.250000X0.600000X0.725000X-0.600000X0.725000X-0.600000X-0.725000X0.600000X-0.725000X0*%
%ADD25O,1.700000X1.950000*%
%ADD26RoundRect,0.250000X-0.600000X-0.725000X0.600000X-0.725000X0.600000X0.725000X-0.600000X0.725000X0*%
G04 APERTURE END LIST*
D10*
X42913945Y-62667933D02*
X42304422Y-62667933D01*
X40704421Y-62667933D02*
X40094898Y-62667933D01*
X40399659Y-62972695D02*
X40399659Y-62363171D01*
X39104421Y-62972695D02*
X39104421Y-62172695D01*
X39104421Y-62172695D02*
X38799659Y-62172695D01*
X38799659Y-62172695D02*
X38723469Y-62210790D01*
X38723469Y-62210790D02*
X38685374Y-62248885D01*
X38685374Y-62248885D02*
X38647278Y-62325076D01*
X38647278Y-62325076D02*
X38647278Y-62439361D01*
X38647278Y-62439361D02*
X38685374Y-62515552D01*
X38685374Y-62515552D02*
X38723469Y-62553647D01*
X38723469Y-62553647D02*
X38799659Y-62591742D01*
X38799659Y-62591742D02*
X39104421Y-62591742D01*
X38380612Y-62172695D02*
X38190136Y-62972695D01*
X38190136Y-62972695D02*
X38037755Y-62401266D01*
X38037755Y-62401266D02*
X37885374Y-62972695D01*
X37885374Y-62972695D02*
X37694898Y-62172695D01*
X37390135Y-62972695D02*
X37390135Y-62172695D01*
X37390135Y-62172695D02*
X37123469Y-62744123D01*
X37123469Y-62744123D02*
X36856802Y-62172695D01*
X36856802Y-62172695D02*
X36856802Y-62972695D01*
D11*
X43617239Y-62121704D02*
X43769620Y-62121704D01*
X43769620Y-62121704D02*
X43845810Y-62083609D01*
X43845810Y-62083609D02*
X43922001Y-62007419D01*
X43922001Y-62007419D02*
X43960096Y-61855038D01*
X43960096Y-61855038D02*
X43960096Y-61588371D01*
X43960096Y-61588371D02*
X43922001Y-61435990D01*
X43922001Y-61435990D02*
X43845810Y-61359800D01*
X43845810Y-61359800D02*
X43769620Y-61321704D01*
X43769620Y-61321704D02*
X43617239Y-61321704D01*
X43617239Y-61321704D02*
X43541048Y-61359800D01*
X43541048Y-61359800D02*
X43464858Y-61435990D01*
X43464858Y-61435990D02*
X43426762Y-61588371D01*
X43426762Y-61588371D02*
X43426762Y-61855038D01*
X43426762Y-61855038D02*
X43464858Y-62007419D01*
X43464858Y-62007419D02*
X43541048Y-62083609D01*
X43541048Y-62083609D02*
X43617239Y-62121704D01*
X44302953Y-61321704D02*
X44302953Y-62121704D01*
X44302953Y-62121704D02*
X44760096Y-61321704D01*
X44760096Y-61321704D02*
X44760096Y-62121704D01*
X45902953Y-62121704D02*
X46055334Y-62121704D01*
X46055334Y-62121704D02*
X46131524Y-62083609D01*
X46131524Y-62083609D02*
X46207715Y-62007419D01*
X46207715Y-62007419D02*
X46245810Y-61855038D01*
X46245810Y-61855038D02*
X46245810Y-61588371D01*
X46245810Y-61588371D02*
X46207715Y-61435990D01*
X46207715Y-61435990D02*
X46131524Y-61359800D01*
X46131524Y-61359800D02*
X46055334Y-61321704D01*
X46055334Y-61321704D02*
X45902953Y-61321704D01*
X45902953Y-61321704D02*
X45826762Y-61359800D01*
X45826762Y-61359800D02*
X45750572Y-61435990D01*
X45750572Y-61435990D02*
X45712476Y-61588371D01*
X45712476Y-61588371D02*
X45712476Y-61855038D01*
X45712476Y-61855038D02*
X45750572Y-62007419D01*
X45750572Y-62007419D02*
X45826762Y-62083609D01*
X45826762Y-62083609D02*
X45902953Y-62121704D01*
X46855333Y-61740752D02*
X46588667Y-61740752D01*
X46588667Y-61321704D02*
X46588667Y-62121704D01*
X46588667Y-62121704D02*
X46969619Y-62121704D01*
X47541047Y-61740752D02*
X47274381Y-61740752D01*
X47274381Y-61321704D02*
X47274381Y-62121704D01*
X47274381Y-62121704D02*
X47655333Y-62121704D01*
D12*
X30743489Y-59427198D02*
X30243489Y-59427198D01*
X30029203Y-60212912D02*
X30743489Y-60212912D01*
X30743489Y-60212912D02*
X30743489Y-58712912D01*
X30743489Y-58712912D02*
X30029203Y-58712912D01*
X29457774Y-60141484D02*
X29243489Y-60212912D01*
X29243489Y-60212912D02*
X28886346Y-60212912D01*
X28886346Y-60212912D02*
X28743489Y-60141484D01*
X28743489Y-60141484D02*
X28672060Y-60070055D01*
X28672060Y-60070055D02*
X28600631Y-59927198D01*
X28600631Y-59927198D02*
X28600631Y-59784341D01*
X28600631Y-59784341D02*
X28672060Y-59641484D01*
X28672060Y-59641484D02*
X28743489Y-59570055D01*
X28743489Y-59570055D02*
X28886346Y-59498626D01*
X28886346Y-59498626D02*
X29172060Y-59427198D01*
X29172060Y-59427198D02*
X29314917Y-59355769D01*
X29314917Y-59355769D02*
X29386346Y-59284341D01*
X29386346Y-59284341D02*
X29457774Y-59141484D01*
X29457774Y-59141484D02*
X29457774Y-58998626D01*
X29457774Y-58998626D02*
X29386346Y-58855769D01*
X29386346Y-58855769D02*
X29314917Y-58784341D01*
X29314917Y-58784341D02*
X29172060Y-58712912D01*
X29172060Y-58712912D02*
X28814917Y-58712912D01*
X28814917Y-58712912D02*
X28600631Y-58784341D01*
X27100632Y-60070055D02*
X27172060Y-60141484D01*
X27172060Y-60141484D02*
X27386346Y-60212912D01*
X27386346Y-60212912D02*
X27529203Y-60212912D01*
X27529203Y-60212912D02*
X27743489Y-60141484D01*
X27743489Y-60141484D02*
X27886346Y-59998626D01*
X27886346Y-59998626D02*
X27957775Y-59855769D01*
X27957775Y-59855769D02*
X28029203Y-59570055D01*
X28029203Y-59570055D02*
X28029203Y-59355769D01*
X28029203Y-59355769D02*
X27957775Y-59070055D01*
X27957775Y-59070055D02*
X27886346Y-58927198D01*
X27886346Y-58927198D02*
X27743489Y-58784341D01*
X27743489Y-58784341D02*
X27529203Y-58712912D01*
X27529203Y-58712912D02*
X27386346Y-58712912D01*
X27386346Y-58712912D02*
X27172060Y-58784341D01*
X27172060Y-58784341D02*
X27100632Y-58855769D01*
X25386346Y-60141484D02*
X25172061Y-60212912D01*
X25172061Y-60212912D02*
X24814918Y-60212912D01*
X24814918Y-60212912D02*
X24672061Y-60141484D01*
X24672061Y-60141484D02*
X24600632Y-60070055D01*
X24600632Y-60070055D02*
X24529203Y-59927198D01*
X24529203Y-59927198D02*
X24529203Y-59784341D01*
X24529203Y-59784341D02*
X24600632Y-59641484D01*
X24600632Y-59641484D02*
X24672061Y-59570055D01*
X24672061Y-59570055D02*
X24814918Y-59498626D01*
X24814918Y-59498626D02*
X25100632Y-59427198D01*
X25100632Y-59427198D02*
X25243489Y-59355769D01*
X25243489Y-59355769D02*
X25314918Y-59284341D01*
X25314918Y-59284341D02*
X25386346Y-59141484D01*
X25386346Y-59141484D02*
X25386346Y-58998626D01*
X25386346Y-58998626D02*
X25314918Y-58855769D01*
X25314918Y-58855769D02*
X25243489Y-58784341D01*
X25243489Y-58784341D02*
X25100632Y-58712912D01*
X25100632Y-58712912D02*
X24743489Y-58712912D01*
X24743489Y-58712912D02*
X24529203Y-58784341D01*
X23386347Y-59427198D02*
X23172061Y-59498626D01*
X23172061Y-59498626D02*
X23100632Y-59570055D01*
X23100632Y-59570055D02*
X23029204Y-59712912D01*
X23029204Y-59712912D02*
X23029204Y-59927198D01*
X23029204Y-59927198D02*
X23100632Y-60070055D01*
X23100632Y-60070055D02*
X23172061Y-60141484D01*
X23172061Y-60141484D02*
X23314918Y-60212912D01*
X23314918Y-60212912D02*
X23886347Y-60212912D01*
X23886347Y-60212912D02*
X23886347Y-58712912D01*
X23886347Y-58712912D02*
X23386347Y-58712912D01*
X23386347Y-58712912D02*
X23243490Y-58784341D01*
X23243490Y-58784341D02*
X23172061Y-58855769D01*
X23172061Y-58855769D02*
X23100632Y-58998626D01*
X23100632Y-58998626D02*
X23100632Y-59141484D01*
X23100632Y-59141484D02*
X23172061Y-59284341D01*
X23172061Y-59284341D02*
X23243490Y-59355769D01*
X23243490Y-59355769D02*
X23386347Y-59427198D01*
X23386347Y-59427198D02*
X23886347Y-59427198D01*
X30743489Y-62056400D02*
X29600632Y-62056400D01*
X30172060Y-62627828D02*
X30172060Y-61484971D01*
X25814917Y-61199257D02*
X25957775Y-61127828D01*
X25957775Y-61127828D02*
X26172060Y-61127828D01*
X26172060Y-61127828D02*
X26386346Y-61199257D01*
X26386346Y-61199257D02*
X26529203Y-61342114D01*
X26529203Y-61342114D02*
X26600632Y-61484971D01*
X26600632Y-61484971D02*
X26672060Y-61770685D01*
X26672060Y-61770685D02*
X26672060Y-61984971D01*
X26672060Y-61984971D02*
X26600632Y-62270685D01*
X26600632Y-62270685D02*
X26529203Y-62413542D01*
X26529203Y-62413542D02*
X26386346Y-62556400D01*
X26386346Y-62556400D02*
X26172060Y-62627828D01*
X26172060Y-62627828D02*
X26029203Y-62627828D01*
X26029203Y-62627828D02*
X25814917Y-62556400D01*
X25814917Y-62556400D02*
X25743489Y-62484971D01*
X25743489Y-62484971D02*
X25743489Y-61984971D01*
X25743489Y-61984971D02*
X26029203Y-61984971D01*
X25100632Y-62627828D02*
X25100632Y-61127828D01*
X25100632Y-61127828D02*
X24243489Y-62627828D01*
X24243489Y-62627828D02*
X24243489Y-61127828D01*
X23529203Y-62627828D02*
X23529203Y-61127828D01*
X23529203Y-61127828D02*
X23172060Y-61127828D01*
X23172060Y-61127828D02*
X22957774Y-61199257D01*
X22957774Y-61199257D02*
X22814917Y-61342114D01*
X22814917Y-61342114D02*
X22743488Y-61484971D01*
X22743488Y-61484971D02*
X22672060Y-61770685D01*
X22672060Y-61770685D02*
X22672060Y-61984971D01*
X22672060Y-61984971D02*
X22743488Y-62270685D01*
X22743488Y-62270685D02*
X22814917Y-62413542D01*
X22814917Y-62413542D02*
X22957774Y-62556400D01*
X22957774Y-62556400D02*
X23172060Y-62627828D01*
X23172060Y-62627828D02*
X23529203Y-62627828D01*
D11*
X98150285Y-60689295D02*
X98150285Y-59889295D01*
X98150285Y-59889295D02*
X97959809Y-59889295D01*
X97959809Y-59889295D02*
X97845523Y-59927390D01*
X97845523Y-59927390D02*
X97769333Y-60003580D01*
X97769333Y-60003580D02*
X97731238Y-60079771D01*
X97731238Y-60079771D02*
X97693142Y-60232152D01*
X97693142Y-60232152D02*
X97693142Y-60346438D01*
X97693142Y-60346438D02*
X97731238Y-60498819D01*
X97731238Y-60498819D02*
X97769333Y-60575009D01*
X97769333Y-60575009D02*
X97845523Y-60651200D01*
X97845523Y-60651200D02*
X97959809Y-60689295D01*
X97959809Y-60689295D02*
X98150285Y-60689295D01*
X96893142Y-60689295D02*
X97159809Y-60308342D01*
X97350285Y-60689295D02*
X97350285Y-59889295D01*
X97350285Y-59889295D02*
X97045523Y-59889295D01*
X97045523Y-59889295D02*
X96969333Y-59927390D01*
X96969333Y-59927390D02*
X96931238Y-59965485D01*
X96931238Y-59965485D02*
X96893142Y-60041676D01*
X96893142Y-60041676D02*
X96893142Y-60155961D01*
X96893142Y-60155961D02*
X96931238Y-60232152D01*
X96931238Y-60232152D02*
X96969333Y-60270247D01*
X96969333Y-60270247D02*
X97045523Y-60308342D01*
X97045523Y-60308342D02*
X97350285Y-60308342D01*
X96397904Y-59889295D02*
X96321714Y-59889295D01*
X96321714Y-59889295D02*
X96245523Y-59927390D01*
X96245523Y-59927390D02*
X96207428Y-59965485D01*
X96207428Y-59965485D02*
X96169333Y-60041676D01*
X96169333Y-60041676D02*
X96131238Y-60194057D01*
X96131238Y-60194057D02*
X96131238Y-60384533D01*
X96131238Y-60384533D02*
X96169333Y-60536914D01*
X96169333Y-60536914D02*
X96207428Y-60613104D01*
X96207428Y-60613104D02*
X96245523Y-60651200D01*
X96245523Y-60651200D02*
X96321714Y-60689295D01*
X96321714Y-60689295D02*
X96397904Y-60689295D01*
X96397904Y-60689295D02*
X96474095Y-60651200D01*
X96474095Y-60651200D02*
X96512190Y-60613104D01*
X96512190Y-60613104D02*
X96550285Y-60536914D01*
X96550285Y-60536914D02*
X96588381Y-60384533D01*
X96588381Y-60384533D02*
X96588381Y-60194057D01*
X96588381Y-60194057D02*
X96550285Y-60041676D01*
X96550285Y-60041676D02*
X96512190Y-59965485D01*
X96512190Y-59965485D02*
X96474095Y-59927390D01*
X96474095Y-59927390D02*
X96397904Y-59889295D01*
X94759809Y-59927390D02*
X94835999Y-59889295D01*
X94835999Y-59889295D02*
X94950285Y-59889295D01*
X94950285Y-59889295D02*
X95064571Y-59927390D01*
X95064571Y-59927390D02*
X95140761Y-60003580D01*
X95140761Y-60003580D02*
X95178856Y-60079771D01*
X95178856Y-60079771D02*
X95216952Y-60232152D01*
X95216952Y-60232152D02*
X95216952Y-60346438D01*
X95216952Y-60346438D02*
X95178856Y-60498819D01*
X95178856Y-60498819D02*
X95140761Y-60575009D01*
X95140761Y-60575009D02*
X95064571Y-60651200D01*
X95064571Y-60651200D02*
X94950285Y-60689295D01*
X94950285Y-60689295D02*
X94874094Y-60689295D01*
X94874094Y-60689295D02*
X94759809Y-60651200D01*
X94759809Y-60651200D02*
X94721713Y-60613104D01*
X94721713Y-60613104D02*
X94721713Y-60346438D01*
X94721713Y-60346438D02*
X94874094Y-60346438D01*
X94378856Y-60689295D02*
X94378856Y-59889295D01*
X94378856Y-59889295D02*
X93921713Y-60689295D01*
X93921713Y-60689295D02*
X93921713Y-59889295D01*
X93540761Y-60689295D02*
X93540761Y-59889295D01*
X93540761Y-59889295D02*
X93350285Y-59889295D01*
X93350285Y-59889295D02*
X93235999Y-59927390D01*
X93235999Y-59927390D02*
X93159809Y-60003580D01*
X93159809Y-60003580D02*
X93121714Y-60079771D01*
X93121714Y-60079771D02*
X93083618Y-60232152D01*
X93083618Y-60232152D02*
X93083618Y-60346438D01*
X93083618Y-60346438D02*
X93121714Y-60498819D01*
X93121714Y-60498819D02*
X93159809Y-60575009D01*
X93159809Y-60575009D02*
X93235999Y-60651200D01*
X93235999Y-60651200D02*
X93350285Y-60689295D01*
X93350285Y-60689295D02*
X93540761Y-60689295D01*
X92207428Y-59889295D02*
X91712190Y-59889295D01*
X91712190Y-59889295D02*
X91978856Y-60194057D01*
X91978856Y-60194057D02*
X91864571Y-60194057D01*
X91864571Y-60194057D02*
X91788380Y-60232152D01*
X91788380Y-60232152D02*
X91750285Y-60270247D01*
X91750285Y-60270247D02*
X91712190Y-60346438D01*
X91712190Y-60346438D02*
X91712190Y-60536914D01*
X91712190Y-60536914D02*
X91750285Y-60613104D01*
X91750285Y-60613104D02*
X91788380Y-60651200D01*
X91788380Y-60651200D02*
X91864571Y-60689295D01*
X91864571Y-60689295D02*
X92093142Y-60689295D01*
X92093142Y-60689295D02*
X92169333Y-60651200D01*
X92169333Y-60651200D02*
X92207428Y-60613104D01*
X91369332Y-60613104D02*
X91331237Y-60651200D01*
X91331237Y-60651200D02*
X91369332Y-60689295D01*
X91369332Y-60689295D02*
X91407428Y-60651200D01*
X91407428Y-60651200D02*
X91369332Y-60613104D01*
X91369332Y-60613104D02*
X91369332Y-60689295D01*
X91064571Y-59889295D02*
X90569333Y-59889295D01*
X90569333Y-59889295D02*
X90835999Y-60194057D01*
X90835999Y-60194057D02*
X90721714Y-60194057D01*
X90721714Y-60194057D02*
X90645523Y-60232152D01*
X90645523Y-60232152D02*
X90607428Y-60270247D01*
X90607428Y-60270247D02*
X90569333Y-60346438D01*
X90569333Y-60346438D02*
X90569333Y-60536914D01*
X90569333Y-60536914D02*
X90607428Y-60613104D01*
X90607428Y-60613104D02*
X90645523Y-60651200D01*
X90645523Y-60651200D02*
X90721714Y-60689295D01*
X90721714Y-60689295D02*
X90950285Y-60689295D01*
X90950285Y-60689295D02*
X91026476Y-60651200D01*
X91026476Y-60651200D02*
X91064571Y-60613104D01*
X90340761Y-59889295D02*
X90074094Y-60689295D01*
X90074094Y-60689295D02*
X89807428Y-59889295D01*
D12*
X75087510Y-50678328D02*
X75087510Y-49178328D01*
X75087510Y-49178328D02*
X74730367Y-49178328D01*
X74730367Y-49178328D02*
X74516081Y-49249757D01*
X74516081Y-49249757D02*
X74373224Y-49392614D01*
X74373224Y-49392614D02*
X74301795Y-49535471D01*
X74301795Y-49535471D02*
X74230367Y-49821185D01*
X74230367Y-49821185D02*
X74230367Y-50035471D01*
X74230367Y-50035471D02*
X74301795Y-50321185D01*
X74301795Y-50321185D02*
X74373224Y-50464042D01*
X74373224Y-50464042D02*
X74516081Y-50606900D01*
X74516081Y-50606900D02*
X74730367Y-50678328D01*
X74730367Y-50678328D02*
X75087510Y-50678328D01*
X73658938Y-50249757D02*
X72944653Y-50249757D01*
X73801795Y-50678328D02*
X73301795Y-49178328D01*
X73301795Y-49178328D02*
X72801795Y-50678328D01*
X72516081Y-49178328D02*
X71658939Y-49178328D01*
X72087510Y-50678328D02*
X72087510Y-49178328D01*
X71230367Y-50249757D02*
X70516082Y-50249757D01*
X71373224Y-50678328D02*
X70873224Y-49178328D01*
X70873224Y-49178328D02*
X70373224Y-50678328D01*
D13*
X103019715Y-36309662D02*
X103019715Y-34309662D01*
X103019715Y-34309662D02*
X101876858Y-36309662D01*
X101876858Y-36309662D02*
X101876858Y-34309662D01*
X100924477Y-36309662D02*
X100924477Y-34976328D01*
X100924477Y-34309662D02*
X101019715Y-34404900D01*
X101019715Y-34404900D02*
X100924477Y-34500138D01*
X100924477Y-34500138D02*
X100829239Y-34404900D01*
X100829239Y-34404900D02*
X100924477Y-34309662D01*
X100924477Y-34309662D02*
X100924477Y-34500138D01*
X99114953Y-36214424D02*
X99305429Y-36309662D01*
X99305429Y-36309662D02*
X99686382Y-36309662D01*
X99686382Y-36309662D02*
X99876858Y-36214424D01*
X99876858Y-36214424D02*
X99972096Y-36119185D01*
X99972096Y-36119185D02*
X100067334Y-35928709D01*
X100067334Y-35928709D02*
X100067334Y-35357281D01*
X100067334Y-35357281D02*
X99972096Y-35166804D01*
X99972096Y-35166804D02*
X99876858Y-35071566D01*
X99876858Y-35071566D02*
X99686382Y-34976328D01*
X99686382Y-34976328D02*
X99305429Y-34976328D01*
X99305429Y-34976328D02*
X99114953Y-35071566D01*
X98257810Y-35262043D02*
X97591143Y-35262043D01*
X97305429Y-36309662D02*
X98257810Y-36309662D01*
X98257810Y-36309662D02*
X98257810Y-34309662D01*
X98257810Y-34309662D02*
X97305429Y-34309662D01*
X94924476Y-35262043D02*
X94257809Y-35262043D01*
X93972095Y-36309662D02*
X94924476Y-36309662D01*
X94924476Y-36309662D02*
X94924476Y-34309662D01*
X94924476Y-34309662D02*
X93972095Y-34309662D01*
X93114952Y-34976328D02*
X93114952Y-36309662D01*
X93114952Y-35166804D02*
X93019714Y-35071566D01*
X93019714Y-35071566D02*
X92829238Y-34976328D01*
X92829238Y-34976328D02*
X92543523Y-34976328D01*
X92543523Y-34976328D02*
X92353047Y-35071566D01*
X92353047Y-35071566D02*
X92257809Y-35262043D01*
X92257809Y-35262043D02*
X92257809Y-36309662D01*
X90448285Y-34976328D02*
X90448285Y-36595376D01*
X90448285Y-36595376D02*
X90543523Y-36785852D01*
X90543523Y-36785852D02*
X90638761Y-36881090D01*
X90638761Y-36881090D02*
X90829238Y-36976328D01*
X90829238Y-36976328D02*
X91114952Y-36976328D01*
X91114952Y-36976328D02*
X91305428Y-36881090D01*
X90448285Y-36214424D02*
X90638761Y-36309662D01*
X90638761Y-36309662D02*
X91019714Y-36309662D01*
X91019714Y-36309662D02*
X91210190Y-36214424D01*
X91210190Y-36214424D02*
X91305428Y-36119185D01*
X91305428Y-36119185D02*
X91400666Y-35928709D01*
X91400666Y-35928709D02*
X91400666Y-35357281D01*
X91400666Y-35357281D02*
X91305428Y-35166804D01*
X91305428Y-35166804D02*
X91210190Y-35071566D01*
X91210190Y-35071566D02*
X91019714Y-34976328D01*
X91019714Y-34976328D02*
X90638761Y-34976328D01*
X90638761Y-34976328D02*
X90448285Y-35071566D01*
X89495904Y-36309662D02*
X89495904Y-34976328D01*
X89495904Y-34309662D02*
X89591142Y-34404900D01*
X89591142Y-34404900D02*
X89495904Y-34500138D01*
X89495904Y-34500138D02*
X89400666Y-34404900D01*
X89400666Y-34404900D02*
X89495904Y-34309662D01*
X89495904Y-34309662D02*
X89495904Y-34500138D01*
X88543523Y-34976328D02*
X88543523Y-36309662D01*
X88543523Y-35166804D02*
X88448285Y-35071566D01*
X88448285Y-35071566D02*
X88257809Y-34976328D01*
X88257809Y-34976328D02*
X87972094Y-34976328D01*
X87972094Y-34976328D02*
X87781618Y-35071566D01*
X87781618Y-35071566D02*
X87686380Y-35262043D01*
X87686380Y-35262043D02*
X87686380Y-36309662D01*
X85972094Y-36214424D02*
X86162570Y-36309662D01*
X86162570Y-36309662D02*
X86543523Y-36309662D01*
X86543523Y-36309662D02*
X86733999Y-36214424D01*
X86733999Y-36214424D02*
X86829237Y-36023947D01*
X86829237Y-36023947D02*
X86829237Y-35262043D01*
X86829237Y-35262043D02*
X86733999Y-35071566D01*
X86733999Y-35071566D02*
X86543523Y-34976328D01*
X86543523Y-34976328D02*
X86162570Y-34976328D01*
X86162570Y-34976328D02*
X85972094Y-35071566D01*
X85972094Y-35071566D02*
X85876856Y-35262043D01*
X85876856Y-35262043D02*
X85876856Y-35452519D01*
X85876856Y-35452519D02*
X86829237Y-35642995D01*
X84257808Y-36214424D02*
X84448284Y-36309662D01*
X84448284Y-36309662D02*
X84829237Y-36309662D01*
X84829237Y-36309662D02*
X85019713Y-36214424D01*
X85019713Y-36214424D02*
X85114951Y-36023947D01*
X85114951Y-36023947D02*
X85114951Y-35262043D01*
X85114951Y-35262043D02*
X85019713Y-35071566D01*
X85019713Y-35071566D02*
X84829237Y-34976328D01*
X84829237Y-34976328D02*
X84448284Y-34976328D01*
X84448284Y-34976328D02*
X84257808Y-35071566D01*
X84257808Y-35071566D02*
X84162570Y-35262043D01*
X84162570Y-35262043D02*
X84162570Y-35452519D01*
X84162570Y-35452519D02*
X85114951Y-35642995D01*
X83305427Y-36309662D02*
X83305427Y-34976328D01*
X83305427Y-35357281D02*
X83210189Y-35166804D01*
X83210189Y-35166804D02*
X83114951Y-35071566D01*
X83114951Y-35071566D02*
X82924475Y-34976328D01*
X82924475Y-34976328D02*
X82733998Y-34976328D01*
X82067332Y-36309662D02*
X82067332Y-34976328D01*
X82067332Y-34309662D02*
X82162570Y-34404900D01*
X82162570Y-34404900D02*
X82067332Y-34500138D01*
X82067332Y-34500138D02*
X81972094Y-34404900D01*
X81972094Y-34404900D02*
X82067332Y-34309662D01*
X82067332Y-34309662D02*
X82067332Y-34500138D01*
X81114951Y-34976328D02*
X81114951Y-36309662D01*
X81114951Y-35166804D02*
X81019713Y-35071566D01*
X81019713Y-35071566D02*
X80829237Y-34976328D01*
X80829237Y-34976328D02*
X80543522Y-34976328D01*
X80543522Y-34976328D02*
X80353046Y-35071566D01*
X80353046Y-35071566D02*
X80257808Y-35262043D01*
X80257808Y-35262043D02*
X80257808Y-36309662D01*
X78448284Y-34976328D02*
X78448284Y-36595376D01*
X78448284Y-36595376D02*
X78543522Y-36785852D01*
X78543522Y-36785852D02*
X78638760Y-36881090D01*
X78638760Y-36881090D02*
X78829237Y-36976328D01*
X78829237Y-36976328D02*
X79114951Y-36976328D01*
X79114951Y-36976328D02*
X79305427Y-36881090D01*
X78448284Y-36214424D02*
X78638760Y-36309662D01*
X78638760Y-36309662D02*
X79019713Y-36309662D01*
X79019713Y-36309662D02*
X79210189Y-36214424D01*
X79210189Y-36214424D02*
X79305427Y-36119185D01*
X79305427Y-36119185D02*
X79400665Y-35928709D01*
X79400665Y-35928709D02*
X79400665Y-35357281D01*
X79400665Y-35357281D02*
X79305427Y-35166804D01*
X79305427Y-35166804D02*
X79210189Y-35071566D01*
X79210189Y-35071566D02*
X79019713Y-34976328D01*
X79019713Y-34976328D02*
X78638760Y-34976328D01*
X78638760Y-34976328D02*
X78448284Y-35071566D01*
X103019714Y-42749438D02*
X103686381Y-41797057D01*
X104162571Y-42749438D02*
X104162571Y-40749438D01*
X104162571Y-40749438D02*
X103400666Y-40749438D01*
X103400666Y-40749438D02*
X103210190Y-40844676D01*
X103210190Y-40844676D02*
X103114952Y-40939914D01*
X103114952Y-40939914D02*
X103019714Y-41130390D01*
X103019714Y-41130390D02*
X103019714Y-41416104D01*
X103019714Y-41416104D02*
X103114952Y-41606580D01*
X103114952Y-41606580D02*
X103210190Y-41701819D01*
X103210190Y-41701819D02*
X103400666Y-41797057D01*
X103400666Y-41797057D02*
X104162571Y-41797057D01*
X101781619Y-40749438D02*
X101400666Y-40749438D01*
X101400666Y-40749438D02*
X101210190Y-40844676D01*
X101210190Y-40844676D02*
X101019714Y-41035152D01*
X101019714Y-41035152D02*
X100924476Y-41416104D01*
X100924476Y-41416104D02*
X100924476Y-42082771D01*
X100924476Y-42082771D02*
X101019714Y-42463723D01*
X101019714Y-42463723D02*
X101210190Y-42654200D01*
X101210190Y-42654200D02*
X101400666Y-42749438D01*
X101400666Y-42749438D02*
X101781619Y-42749438D01*
X101781619Y-42749438D02*
X101972095Y-42654200D01*
X101972095Y-42654200D02*
X102162571Y-42463723D01*
X102162571Y-42463723D02*
X102257809Y-42082771D01*
X102257809Y-42082771D02*
X102257809Y-41416104D01*
X102257809Y-41416104D02*
X102162571Y-41035152D01*
X102162571Y-41035152D02*
X101972095Y-40844676D01*
X101972095Y-40844676D02*
X101781619Y-40749438D01*
X99400666Y-41701819D02*
X99114952Y-41797057D01*
X99114952Y-41797057D02*
X99019714Y-41892295D01*
X99019714Y-41892295D02*
X98924476Y-42082771D01*
X98924476Y-42082771D02*
X98924476Y-42368485D01*
X98924476Y-42368485D02*
X99019714Y-42558961D01*
X99019714Y-42558961D02*
X99114952Y-42654200D01*
X99114952Y-42654200D02*
X99305428Y-42749438D01*
X99305428Y-42749438D02*
X100067333Y-42749438D01*
X100067333Y-42749438D02*
X100067333Y-40749438D01*
X100067333Y-40749438D02*
X99400666Y-40749438D01*
X99400666Y-40749438D02*
X99210190Y-40844676D01*
X99210190Y-40844676D02*
X99114952Y-40939914D01*
X99114952Y-40939914D02*
X99019714Y-41130390D01*
X99019714Y-41130390D02*
X99019714Y-41320866D01*
X99019714Y-41320866D02*
X99114952Y-41511342D01*
X99114952Y-41511342D02*
X99210190Y-41606580D01*
X99210190Y-41606580D02*
X99400666Y-41701819D01*
X99400666Y-41701819D02*
X100067333Y-41701819D01*
X97686381Y-40749438D02*
X97305428Y-40749438D01*
X97305428Y-40749438D02*
X97114952Y-40844676D01*
X97114952Y-40844676D02*
X96924476Y-41035152D01*
X96924476Y-41035152D02*
X96829238Y-41416104D01*
X96829238Y-41416104D02*
X96829238Y-42082771D01*
X96829238Y-42082771D02*
X96924476Y-42463723D01*
X96924476Y-42463723D02*
X97114952Y-42654200D01*
X97114952Y-42654200D02*
X97305428Y-42749438D01*
X97305428Y-42749438D02*
X97686381Y-42749438D01*
X97686381Y-42749438D02*
X97876857Y-42654200D01*
X97876857Y-42654200D02*
X98067333Y-42463723D01*
X98067333Y-42463723D02*
X98162571Y-42082771D01*
X98162571Y-42082771D02*
X98162571Y-41416104D01*
X98162571Y-41416104D02*
X98067333Y-41035152D01*
X98067333Y-41035152D02*
X97876857Y-40844676D01*
X97876857Y-40844676D02*
X97686381Y-40749438D01*
X95305428Y-41701819D02*
X95019714Y-41797057D01*
X95019714Y-41797057D02*
X94924476Y-41892295D01*
X94924476Y-41892295D02*
X94829238Y-42082771D01*
X94829238Y-42082771D02*
X94829238Y-42368485D01*
X94829238Y-42368485D02*
X94924476Y-42558961D01*
X94924476Y-42558961D02*
X95019714Y-42654200D01*
X95019714Y-42654200D02*
X95210190Y-42749438D01*
X95210190Y-42749438D02*
X95972095Y-42749438D01*
X95972095Y-42749438D02*
X95972095Y-40749438D01*
X95972095Y-40749438D02*
X95305428Y-40749438D01*
X95305428Y-40749438D02*
X95114952Y-40844676D01*
X95114952Y-40844676D02*
X95019714Y-40939914D01*
X95019714Y-40939914D02*
X94924476Y-41130390D01*
X94924476Y-41130390D02*
X94924476Y-41320866D01*
X94924476Y-41320866D02*
X95019714Y-41511342D01*
X95019714Y-41511342D02*
X95114952Y-41606580D01*
X95114952Y-41606580D02*
X95305428Y-41701819D01*
X95305428Y-41701819D02*
X95972095Y-41701819D01*
X93591143Y-40749438D02*
X93210190Y-40749438D01*
X93210190Y-40749438D02*
X93019714Y-40844676D01*
X93019714Y-40844676D02*
X92829238Y-41035152D01*
X92829238Y-41035152D02*
X92734000Y-41416104D01*
X92734000Y-41416104D02*
X92734000Y-42082771D01*
X92734000Y-42082771D02*
X92829238Y-42463723D01*
X92829238Y-42463723D02*
X93019714Y-42654200D01*
X93019714Y-42654200D02*
X93210190Y-42749438D01*
X93210190Y-42749438D02*
X93591143Y-42749438D01*
X93591143Y-42749438D02*
X93781619Y-42654200D01*
X93781619Y-42654200D02*
X93972095Y-42463723D01*
X93972095Y-42463723D02*
X94067333Y-42082771D01*
X94067333Y-42082771D02*
X94067333Y-41416104D01*
X94067333Y-41416104D02*
X93972095Y-41035152D01*
X93972095Y-41035152D02*
X93781619Y-40844676D01*
X93781619Y-40844676D02*
X93591143Y-40749438D01*
X91495905Y-41797057D02*
X91495905Y-42749438D01*
X92162571Y-40749438D02*
X91495905Y-41797057D01*
X91495905Y-41797057D02*
X90829238Y-40749438D01*
X88733999Y-42654200D02*
X88448285Y-42749438D01*
X88448285Y-42749438D02*
X87972094Y-42749438D01*
X87972094Y-42749438D02*
X87781618Y-42654200D01*
X87781618Y-42654200D02*
X87686380Y-42558961D01*
X87686380Y-42558961D02*
X87591142Y-42368485D01*
X87591142Y-42368485D02*
X87591142Y-42178009D01*
X87591142Y-42178009D02*
X87686380Y-41987533D01*
X87686380Y-41987533D02*
X87781618Y-41892295D01*
X87781618Y-41892295D02*
X87972094Y-41797057D01*
X87972094Y-41797057D02*
X88353047Y-41701819D01*
X88353047Y-41701819D02*
X88543523Y-41606580D01*
X88543523Y-41606580D02*
X88638761Y-41511342D01*
X88638761Y-41511342D02*
X88733999Y-41320866D01*
X88733999Y-41320866D02*
X88733999Y-41130390D01*
X88733999Y-41130390D02*
X88638761Y-40939914D01*
X88638761Y-40939914D02*
X88543523Y-40844676D01*
X88543523Y-40844676D02*
X88353047Y-40749438D01*
X88353047Y-40749438D02*
X87876856Y-40749438D01*
X87876856Y-40749438D02*
X87591142Y-40844676D01*
X86733999Y-40749438D02*
X86733999Y-42368485D01*
X86733999Y-42368485D02*
X86638761Y-42558961D01*
X86638761Y-42558961D02*
X86543523Y-42654200D01*
X86543523Y-42654200D02*
X86353047Y-42749438D01*
X86353047Y-42749438D02*
X85972094Y-42749438D01*
X85972094Y-42749438D02*
X85781618Y-42654200D01*
X85781618Y-42654200D02*
X85686380Y-42558961D01*
X85686380Y-42558961D02*
X85591142Y-42368485D01*
X85591142Y-42368485D02*
X85591142Y-40749438D01*
X83972094Y-41701819D02*
X83686380Y-41797057D01*
X83686380Y-41797057D02*
X83591142Y-41892295D01*
X83591142Y-41892295D02*
X83495904Y-42082771D01*
X83495904Y-42082771D02*
X83495904Y-42368485D01*
X83495904Y-42368485D02*
X83591142Y-42558961D01*
X83591142Y-42558961D02*
X83686380Y-42654200D01*
X83686380Y-42654200D02*
X83876856Y-42749438D01*
X83876856Y-42749438D02*
X84638761Y-42749438D01*
X84638761Y-42749438D02*
X84638761Y-40749438D01*
X84638761Y-40749438D02*
X83972094Y-40749438D01*
X83972094Y-40749438D02*
X83781618Y-40844676D01*
X83781618Y-40844676D02*
X83686380Y-40939914D01*
X83686380Y-40939914D02*
X83591142Y-41130390D01*
X83591142Y-41130390D02*
X83591142Y-41320866D01*
X83591142Y-41320866D02*
X83686380Y-41511342D01*
X83686380Y-41511342D02*
X83781618Y-41606580D01*
X83781618Y-41606580D02*
X83972094Y-41701819D01*
X83972094Y-41701819D02*
X84638761Y-41701819D01*
X81305427Y-40749438D02*
X80067332Y-40749438D01*
X80067332Y-40749438D02*
X80733999Y-41511342D01*
X80733999Y-41511342D02*
X80448284Y-41511342D01*
X80448284Y-41511342D02*
X80257808Y-41606580D01*
X80257808Y-41606580D02*
X80162570Y-41701819D01*
X80162570Y-41701819D02*
X80067332Y-41892295D01*
X80067332Y-41892295D02*
X80067332Y-42368485D01*
X80067332Y-42368485D02*
X80162570Y-42558961D01*
X80162570Y-42558961D02*
X80257808Y-42654200D01*
X80257808Y-42654200D02*
X80448284Y-42749438D01*
X80448284Y-42749438D02*
X81019713Y-42749438D01*
X81019713Y-42749438D02*
X81210189Y-42654200D01*
X81210189Y-42654200D02*
X81305427Y-42558961D01*
X79210189Y-42558961D02*
X79114951Y-42654200D01*
X79114951Y-42654200D02*
X79210189Y-42749438D01*
X79210189Y-42749438D02*
X79305427Y-42654200D01*
X79305427Y-42654200D02*
X79210189Y-42558961D01*
X79210189Y-42558961D02*
X79210189Y-42749438D01*
X77876856Y-40749438D02*
X77686379Y-40749438D01*
X77686379Y-40749438D02*
X77495903Y-40844676D01*
X77495903Y-40844676D02*
X77400665Y-40939914D01*
X77400665Y-40939914D02*
X77305427Y-41130390D01*
X77305427Y-41130390D02*
X77210189Y-41511342D01*
X77210189Y-41511342D02*
X77210189Y-41987533D01*
X77210189Y-41987533D02*
X77305427Y-42368485D01*
X77305427Y-42368485D02*
X77400665Y-42558961D01*
X77400665Y-42558961D02*
X77495903Y-42654200D01*
X77495903Y-42654200D02*
X77686379Y-42749438D01*
X77686379Y-42749438D02*
X77876856Y-42749438D01*
X77876856Y-42749438D02*
X78067332Y-42654200D01*
X78067332Y-42654200D02*
X78162570Y-42558961D01*
X78162570Y-42558961D02*
X78257808Y-42368485D01*
X78257808Y-42368485D02*
X78353046Y-41987533D01*
X78353046Y-41987533D02*
X78353046Y-41511342D01*
X78353046Y-41511342D02*
X78257808Y-41130390D01*
X78257808Y-41130390D02*
X78162570Y-40939914D01*
X78162570Y-40939914D02*
X78067332Y-40844676D01*
X78067332Y-40844676D02*
X77876856Y-40749438D01*
D11*
X42512475Y-55731030D02*
X43312475Y-55997697D01*
X43312475Y-55997697D02*
X42512475Y-56264363D01*
X42893427Y-56797696D02*
X42931522Y-56911982D01*
X42931522Y-56911982D02*
X42969618Y-56950077D01*
X42969618Y-56950077D02*
X43045808Y-56988173D01*
X43045808Y-56988173D02*
X43160094Y-56988173D01*
X43160094Y-56988173D02*
X43236284Y-56950077D01*
X43236284Y-56950077D02*
X43274380Y-56911982D01*
X43274380Y-56911982D02*
X43312475Y-56835792D01*
X43312475Y-56835792D02*
X43312475Y-56531030D01*
X43312475Y-56531030D02*
X42512475Y-56531030D01*
X42512475Y-56531030D02*
X42512475Y-56797696D01*
X42512475Y-56797696D02*
X42550570Y-56873887D01*
X42550570Y-56873887D02*
X42588665Y-56911982D01*
X42588665Y-56911982D02*
X42664856Y-56950077D01*
X42664856Y-56950077D02*
X42741046Y-56950077D01*
X42741046Y-56950077D02*
X42817237Y-56911982D01*
X42817237Y-56911982D02*
X42855332Y-56873887D01*
X42855332Y-56873887D02*
X42893427Y-56797696D01*
X42893427Y-56797696D02*
X42893427Y-56531030D01*
X43083903Y-57292934D02*
X43083903Y-57673887D01*
X43312475Y-57216744D02*
X42512475Y-57483411D01*
X42512475Y-57483411D02*
X43312475Y-57750077D01*
X42512475Y-57902458D02*
X42512475Y-58359601D01*
X43312475Y-58131029D02*
X42512475Y-58131029D01*
X42512475Y-58511982D02*
X42512475Y-58969125D01*
X43312475Y-58740553D02*
X42512475Y-58740553D01*
X45812194Y-58892935D02*
X45850290Y-58854839D01*
X45850290Y-58854839D02*
X45888385Y-58740554D01*
X45888385Y-58740554D02*
X45888385Y-58664363D01*
X45888385Y-58664363D02*
X45850290Y-58550077D01*
X45850290Y-58550077D02*
X45774099Y-58473887D01*
X45774099Y-58473887D02*
X45697909Y-58435792D01*
X45697909Y-58435792D02*
X45545528Y-58397696D01*
X45545528Y-58397696D02*
X45431242Y-58397696D01*
X45431242Y-58397696D02*
X45278861Y-58435792D01*
X45278861Y-58435792D02*
X45202670Y-58473887D01*
X45202670Y-58473887D02*
X45126480Y-58550077D01*
X45126480Y-58550077D02*
X45088385Y-58664363D01*
X45088385Y-58664363D02*
X45088385Y-58740554D01*
X45088385Y-58740554D02*
X45126480Y-58854839D01*
X45126480Y-58854839D02*
X45164575Y-58892935D01*
X47702390Y-57216744D02*
X47664295Y-57140554D01*
X47664295Y-57140554D02*
X47664295Y-57026268D01*
X47664295Y-57026268D02*
X47702390Y-56911982D01*
X47702390Y-56911982D02*
X47778580Y-56835792D01*
X47778580Y-56835792D02*
X47854771Y-56797697D01*
X47854771Y-56797697D02*
X48007152Y-56759601D01*
X48007152Y-56759601D02*
X48121438Y-56759601D01*
X48121438Y-56759601D02*
X48273819Y-56797697D01*
X48273819Y-56797697D02*
X48350009Y-56835792D01*
X48350009Y-56835792D02*
X48426200Y-56911982D01*
X48426200Y-56911982D02*
X48464295Y-57026268D01*
X48464295Y-57026268D02*
X48464295Y-57102459D01*
X48464295Y-57102459D02*
X48426200Y-57216744D01*
X48426200Y-57216744D02*
X48388104Y-57254840D01*
X48388104Y-57254840D02*
X48121438Y-57254840D01*
X48121438Y-57254840D02*
X48121438Y-57102459D01*
X48464295Y-57597697D02*
X47664295Y-57597697D01*
X47664295Y-57597697D02*
X48464295Y-58054840D01*
X48464295Y-58054840D02*
X47664295Y-58054840D01*
X48464295Y-58435792D02*
X47664295Y-58435792D01*
X47664295Y-58435792D02*
X47664295Y-58626268D01*
X47664295Y-58626268D02*
X47702390Y-58740554D01*
X47702390Y-58740554D02*
X47778580Y-58816744D01*
X47778580Y-58816744D02*
X47854771Y-58854839D01*
X47854771Y-58854839D02*
X48007152Y-58892935D01*
X48007152Y-58892935D02*
X48121438Y-58892935D01*
X48121438Y-58892935D02*
X48273819Y-58854839D01*
X48273819Y-58854839D02*
X48350009Y-58816744D01*
X48350009Y-58816744D02*
X48426200Y-58740554D01*
X48426200Y-58740554D02*
X48464295Y-58626268D01*
X48464295Y-58626268D02*
X48464295Y-58435792D01*
D12*
X30743489Y-38432484D02*
X29600632Y-38432484D01*
X30172060Y-39003912D02*
X30172060Y-37861055D01*
X25814917Y-37575341D02*
X25957775Y-37503912D01*
X25957775Y-37503912D02*
X26172060Y-37503912D01*
X26172060Y-37503912D02*
X26386346Y-37575341D01*
X26386346Y-37575341D02*
X26529203Y-37718198D01*
X26529203Y-37718198D02*
X26600632Y-37861055D01*
X26600632Y-37861055D02*
X26672060Y-38146769D01*
X26672060Y-38146769D02*
X26672060Y-38361055D01*
X26672060Y-38361055D02*
X26600632Y-38646769D01*
X26600632Y-38646769D02*
X26529203Y-38789626D01*
X26529203Y-38789626D02*
X26386346Y-38932484D01*
X26386346Y-38932484D02*
X26172060Y-39003912D01*
X26172060Y-39003912D02*
X26029203Y-39003912D01*
X26029203Y-39003912D02*
X25814917Y-38932484D01*
X25814917Y-38932484D02*
X25743489Y-38861055D01*
X25743489Y-38861055D02*
X25743489Y-38361055D01*
X25743489Y-38361055D02*
X26029203Y-38361055D01*
X25100632Y-39003912D02*
X25100632Y-37503912D01*
X25100632Y-37503912D02*
X24243489Y-39003912D01*
X24243489Y-39003912D02*
X24243489Y-37503912D01*
X23529203Y-39003912D02*
X23529203Y-37503912D01*
X23529203Y-37503912D02*
X23172060Y-37503912D01*
X23172060Y-37503912D02*
X22957774Y-37575341D01*
X22957774Y-37575341D02*
X22814917Y-37718198D01*
X22814917Y-37718198D02*
X22743488Y-37861055D01*
X22743488Y-37861055D02*
X22672060Y-38146769D01*
X22672060Y-38146769D02*
X22672060Y-38361055D01*
X22672060Y-38361055D02*
X22743488Y-38646769D01*
X22743488Y-38646769D02*
X22814917Y-38789626D01*
X22814917Y-38789626D02*
X22957774Y-38932484D01*
X22957774Y-38932484D02*
X23172060Y-39003912D01*
X23172060Y-39003912D02*
X23529203Y-39003912D01*
X30743489Y-40633114D02*
X30243489Y-40633114D01*
X30029203Y-41418828D02*
X30743489Y-41418828D01*
X30743489Y-41418828D02*
X30743489Y-39918828D01*
X30743489Y-39918828D02*
X30029203Y-39918828D01*
X29457774Y-41347400D02*
X29243489Y-41418828D01*
X29243489Y-41418828D02*
X28886346Y-41418828D01*
X28886346Y-41418828D02*
X28743489Y-41347400D01*
X28743489Y-41347400D02*
X28672060Y-41275971D01*
X28672060Y-41275971D02*
X28600631Y-41133114D01*
X28600631Y-41133114D02*
X28600631Y-40990257D01*
X28600631Y-40990257D02*
X28672060Y-40847400D01*
X28672060Y-40847400D02*
X28743489Y-40775971D01*
X28743489Y-40775971D02*
X28886346Y-40704542D01*
X28886346Y-40704542D02*
X29172060Y-40633114D01*
X29172060Y-40633114D02*
X29314917Y-40561685D01*
X29314917Y-40561685D02*
X29386346Y-40490257D01*
X29386346Y-40490257D02*
X29457774Y-40347400D01*
X29457774Y-40347400D02*
X29457774Y-40204542D01*
X29457774Y-40204542D02*
X29386346Y-40061685D01*
X29386346Y-40061685D02*
X29314917Y-39990257D01*
X29314917Y-39990257D02*
X29172060Y-39918828D01*
X29172060Y-39918828D02*
X28814917Y-39918828D01*
X28814917Y-39918828D02*
X28600631Y-39990257D01*
X27100632Y-41275971D02*
X27172060Y-41347400D01*
X27172060Y-41347400D02*
X27386346Y-41418828D01*
X27386346Y-41418828D02*
X27529203Y-41418828D01*
X27529203Y-41418828D02*
X27743489Y-41347400D01*
X27743489Y-41347400D02*
X27886346Y-41204542D01*
X27886346Y-41204542D02*
X27957775Y-41061685D01*
X27957775Y-41061685D02*
X28029203Y-40775971D01*
X28029203Y-40775971D02*
X28029203Y-40561685D01*
X28029203Y-40561685D02*
X27957775Y-40275971D01*
X27957775Y-40275971D02*
X27886346Y-40133114D01*
X27886346Y-40133114D02*
X27743489Y-39990257D01*
X27743489Y-39990257D02*
X27529203Y-39918828D01*
X27529203Y-39918828D02*
X27386346Y-39918828D01*
X27386346Y-39918828D02*
X27172060Y-39990257D01*
X27172060Y-39990257D02*
X27100632Y-40061685D01*
X24814918Y-40633114D02*
X24600632Y-40704542D01*
X24600632Y-40704542D02*
X24529203Y-40775971D01*
X24529203Y-40775971D02*
X24457775Y-40918828D01*
X24457775Y-40918828D02*
X24457775Y-41133114D01*
X24457775Y-41133114D02*
X24529203Y-41275971D01*
X24529203Y-41275971D02*
X24600632Y-41347400D01*
X24600632Y-41347400D02*
X24743489Y-41418828D01*
X24743489Y-41418828D02*
X25314918Y-41418828D01*
X25314918Y-41418828D02*
X25314918Y-39918828D01*
X25314918Y-39918828D02*
X24814918Y-39918828D01*
X24814918Y-39918828D02*
X24672061Y-39990257D01*
X24672061Y-39990257D02*
X24600632Y-40061685D01*
X24600632Y-40061685D02*
X24529203Y-40204542D01*
X24529203Y-40204542D02*
X24529203Y-40347400D01*
X24529203Y-40347400D02*
X24600632Y-40490257D01*
X24600632Y-40490257D02*
X24672061Y-40561685D01*
X24672061Y-40561685D02*
X24814918Y-40633114D01*
X24814918Y-40633114D02*
X25314918Y-40633114D01*
X23314918Y-40633114D02*
X23100632Y-40704542D01*
X23100632Y-40704542D02*
X23029203Y-40775971D01*
X23029203Y-40775971D02*
X22957775Y-40918828D01*
X22957775Y-40918828D02*
X22957775Y-41133114D01*
X22957775Y-41133114D02*
X23029203Y-41275971D01*
X23029203Y-41275971D02*
X23100632Y-41347400D01*
X23100632Y-41347400D02*
X23243489Y-41418828D01*
X23243489Y-41418828D02*
X23814918Y-41418828D01*
X23814918Y-41418828D02*
X23814918Y-39918828D01*
X23814918Y-39918828D02*
X23314918Y-39918828D01*
X23314918Y-39918828D02*
X23172061Y-39990257D01*
X23172061Y-39990257D02*
X23100632Y-40061685D01*
X23100632Y-40061685D02*
X23029203Y-40204542D01*
X23029203Y-40204542D02*
X23029203Y-40347400D01*
X23029203Y-40347400D02*
X23100632Y-40490257D01*
X23100632Y-40490257D02*
X23172061Y-40561685D01*
X23172061Y-40561685D02*
X23314918Y-40633114D01*
X23314918Y-40633114D02*
X23814918Y-40633114D01*
X58278774Y-45820757D02*
X58421632Y-45749328D01*
X58421632Y-45749328D02*
X58635917Y-45749328D01*
X58635917Y-45749328D02*
X58850203Y-45820757D01*
X58850203Y-45820757D02*
X58993060Y-45963614D01*
X58993060Y-45963614D02*
X59064489Y-46106471D01*
X59064489Y-46106471D02*
X59135917Y-46392185D01*
X59135917Y-46392185D02*
X59135917Y-46606471D01*
X59135917Y-46606471D02*
X59064489Y-46892185D01*
X59064489Y-46892185D02*
X58993060Y-47035042D01*
X58993060Y-47035042D02*
X58850203Y-47177900D01*
X58850203Y-47177900D02*
X58635917Y-47249328D01*
X58635917Y-47249328D02*
X58493060Y-47249328D01*
X58493060Y-47249328D02*
X58278774Y-47177900D01*
X58278774Y-47177900D02*
X58207346Y-47106471D01*
X58207346Y-47106471D02*
X58207346Y-46606471D01*
X58207346Y-46606471D02*
X58493060Y-46606471D01*
X57564489Y-47249328D02*
X57564489Y-45749328D01*
X57564489Y-45749328D02*
X56707346Y-47249328D01*
X56707346Y-47249328D02*
X56707346Y-45749328D01*
X55993060Y-47249328D02*
X55993060Y-45749328D01*
X55993060Y-45749328D02*
X55635917Y-45749328D01*
X55635917Y-45749328D02*
X55421631Y-45820757D01*
X55421631Y-45820757D02*
X55278774Y-45963614D01*
X55278774Y-45963614D02*
X55207345Y-46106471D01*
X55207345Y-46106471D02*
X55135917Y-46392185D01*
X55135917Y-46392185D02*
X55135917Y-46606471D01*
X55135917Y-46606471D02*
X55207345Y-46892185D01*
X55207345Y-46892185D02*
X55278774Y-47035042D01*
X55278774Y-47035042D02*
X55421631Y-47177900D01*
X55421631Y-47177900D02*
X55635917Y-47249328D01*
X55635917Y-47249328D02*
X55993060Y-47249328D01*
D11*
X113850935Y-46573470D02*
X113736649Y-46611565D01*
X113736649Y-46611565D02*
X113546173Y-46611565D01*
X113546173Y-46611565D02*
X113469982Y-46573470D01*
X113469982Y-46573470D02*
X113431887Y-46535374D01*
X113431887Y-46535374D02*
X113393792Y-46459184D01*
X113393792Y-46459184D02*
X113393792Y-46382993D01*
X113393792Y-46382993D02*
X113431887Y-46306803D01*
X113431887Y-46306803D02*
X113469982Y-46268708D01*
X113469982Y-46268708D02*
X113546173Y-46230612D01*
X113546173Y-46230612D02*
X113698554Y-46192517D01*
X113698554Y-46192517D02*
X113774744Y-46154422D01*
X113774744Y-46154422D02*
X113812839Y-46116327D01*
X113812839Y-46116327D02*
X113850935Y-46040136D01*
X113850935Y-46040136D02*
X113850935Y-45963946D01*
X113850935Y-45963946D02*
X113812839Y-45887755D01*
X113812839Y-45887755D02*
X113774744Y-45849660D01*
X113774744Y-45849660D02*
X113698554Y-45811565D01*
X113698554Y-45811565D02*
X113508077Y-45811565D01*
X113508077Y-45811565D02*
X113393792Y-45849660D01*
X113050934Y-46611565D02*
X113050934Y-45811565D01*
X113050934Y-45811565D02*
X112860458Y-45811565D01*
X112860458Y-45811565D02*
X112746172Y-45849660D01*
X112746172Y-45849660D02*
X112669982Y-45925850D01*
X112669982Y-45925850D02*
X112631887Y-46002041D01*
X112631887Y-46002041D02*
X112593791Y-46154422D01*
X112593791Y-46154422D02*
X112593791Y-46268708D01*
X112593791Y-46268708D02*
X112631887Y-46421089D01*
X112631887Y-46421089D02*
X112669982Y-46497279D01*
X112669982Y-46497279D02*
X112746172Y-46573470D01*
X112746172Y-46573470D02*
X112860458Y-46611565D01*
X112860458Y-46611565D02*
X113050934Y-46611565D01*
X112289030Y-46382993D02*
X111908077Y-46382993D01*
X112365220Y-46611565D02*
X112098553Y-45811565D01*
X112098553Y-45811565D02*
X111831887Y-46611565D01*
X113850935Y-49149380D02*
X113736649Y-49187475D01*
X113736649Y-49187475D02*
X113546173Y-49187475D01*
X113546173Y-49187475D02*
X113469982Y-49149380D01*
X113469982Y-49149380D02*
X113431887Y-49111284D01*
X113431887Y-49111284D02*
X113393792Y-49035094D01*
X113393792Y-49035094D02*
X113393792Y-48958903D01*
X113393792Y-48958903D02*
X113431887Y-48882713D01*
X113431887Y-48882713D02*
X113469982Y-48844618D01*
X113469982Y-48844618D02*
X113546173Y-48806522D01*
X113546173Y-48806522D02*
X113698554Y-48768427D01*
X113698554Y-48768427D02*
X113774744Y-48730332D01*
X113774744Y-48730332D02*
X113812839Y-48692237D01*
X113812839Y-48692237D02*
X113850935Y-48616046D01*
X113850935Y-48616046D02*
X113850935Y-48539856D01*
X113850935Y-48539856D02*
X113812839Y-48463665D01*
X113812839Y-48463665D02*
X113774744Y-48425570D01*
X113774744Y-48425570D02*
X113698554Y-48387475D01*
X113698554Y-48387475D02*
X113508077Y-48387475D01*
X113508077Y-48387475D02*
X113393792Y-48425570D01*
X112593791Y-49111284D02*
X112631887Y-49149380D01*
X112631887Y-49149380D02*
X112746172Y-49187475D01*
X112746172Y-49187475D02*
X112822363Y-49187475D01*
X112822363Y-49187475D02*
X112936649Y-49149380D01*
X112936649Y-49149380D02*
X113012839Y-49073189D01*
X113012839Y-49073189D02*
X113050934Y-48996999D01*
X113050934Y-48996999D02*
X113089030Y-48844618D01*
X113089030Y-48844618D02*
X113089030Y-48730332D01*
X113089030Y-48730332D02*
X113050934Y-48577951D01*
X113050934Y-48577951D02*
X113012839Y-48501760D01*
X113012839Y-48501760D02*
X112936649Y-48425570D01*
X112936649Y-48425570D02*
X112822363Y-48387475D01*
X112822363Y-48387475D02*
X112746172Y-48387475D01*
X112746172Y-48387475D02*
X112631887Y-48425570D01*
X112631887Y-48425570D02*
X112593791Y-48463665D01*
X111869982Y-49187475D02*
X112250934Y-49187475D01*
X112250934Y-49187475D02*
X112250934Y-48387475D01*
X113889030Y-50963385D02*
X113393792Y-50963385D01*
X113393792Y-50963385D02*
X113660458Y-51268147D01*
X113660458Y-51268147D02*
X113546173Y-51268147D01*
X113546173Y-51268147D02*
X113469982Y-51306242D01*
X113469982Y-51306242D02*
X113431887Y-51344337D01*
X113431887Y-51344337D02*
X113393792Y-51420528D01*
X113393792Y-51420528D02*
X113393792Y-51611004D01*
X113393792Y-51611004D02*
X113431887Y-51687194D01*
X113431887Y-51687194D02*
X113469982Y-51725290D01*
X113469982Y-51725290D02*
X113546173Y-51763385D01*
X113546173Y-51763385D02*
X113774744Y-51763385D01*
X113774744Y-51763385D02*
X113850935Y-51725290D01*
X113850935Y-51725290D02*
X113889030Y-51687194D01*
X113050934Y-51687194D02*
X113012839Y-51725290D01*
X113012839Y-51725290D02*
X113050934Y-51763385D01*
X113050934Y-51763385D02*
X113089030Y-51725290D01*
X113089030Y-51725290D02*
X113050934Y-51687194D01*
X113050934Y-51687194D02*
X113050934Y-51763385D01*
X112746173Y-50963385D02*
X112250935Y-50963385D01*
X112250935Y-50963385D02*
X112517601Y-51268147D01*
X112517601Y-51268147D02*
X112403316Y-51268147D01*
X112403316Y-51268147D02*
X112327125Y-51306242D01*
X112327125Y-51306242D02*
X112289030Y-51344337D01*
X112289030Y-51344337D02*
X112250935Y-51420528D01*
X112250935Y-51420528D02*
X112250935Y-51611004D01*
X112250935Y-51611004D02*
X112289030Y-51687194D01*
X112289030Y-51687194D02*
X112327125Y-51725290D01*
X112327125Y-51725290D02*
X112403316Y-51763385D01*
X112403316Y-51763385D02*
X112631887Y-51763385D01*
X112631887Y-51763385D02*
X112708078Y-51725290D01*
X112708078Y-51725290D02*
X112746173Y-51687194D01*
X112022363Y-50963385D02*
X111755696Y-51763385D01*
X111755696Y-51763385D02*
X111489030Y-50963385D01*
X113393792Y-53577390D02*
X113469982Y-53539295D01*
X113469982Y-53539295D02*
X113584268Y-53539295D01*
X113584268Y-53539295D02*
X113698554Y-53577390D01*
X113698554Y-53577390D02*
X113774744Y-53653580D01*
X113774744Y-53653580D02*
X113812839Y-53729771D01*
X113812839Y-53729771D02*
X113850935Y-53882152D01*
X113850935Y-53882152D02*
X113850935Y-53996438D01*
X113850935Y-53996438D02*
X113812839Y-54148819D01*
X113812839Y-54148819D02*
X113774744Y-54225009D01*
X113774744Y-54225009D02*
X113698554Y-54301200D01*
X113698554Y-54301200D02*
X113584268Y-54339295D01*
X113584268Y-54339295D02*
X113508077Y-54339295D01*
X113508077Y-54339295D02*
X113393792Y-54301200D01*
X113393792Y-54301200D02*
X113355696Y-54263104D01*
X113355696Y-54263104D02*
X113355696Y-53996438D01*
X113355696Y-53996438D02*
X113508077Y-53996438D01*
X113012839Y-54339295D02*
X113012839Y-53539295D01*
X113012839Y-53539295D02*
X112555696Y-54339295D01*
X112555696Y-54339295D02*
X112555696Y-53539295D01*
X112174744Y-54339295D02*
X112174744Y-53539295D01*
X112174744Y-53539295D02*
X111984268Y-53539295D01*
X111984268Y-53539295D02*
X111869982Y-53577390D01*
X111869982Y-53577390D02*
X111793792Y-53653580D01*
X111793792Y-53653580D02*
X111755697Y-53729771D01*
X111755697Y-53729771D02*
X111717601Y-53882152D01*
X111717601Y-53882152D02*
X111717601Y-53996438D01*
X111717601Y-53996438D02*
X111755697Y-54148819D01*
X111755697Y-54148819D02*
X111793792Y-54225009D01*
X111793792Y-54225009D02*
X111869982Y-54301200D01*
X111869982Y-54301200D02*
X111984268Y-54339295D01*
X111984268Y-54339295D02*
X112174744Y-54339295D01*
X96982047Y-66531295D02*
X97248714Y-66150342D01*
X97439190Y-66531295D02*
X97439190Y-65731295D01*
X97439190Y-65731295D02*
X97134428Y-65731295D01*
X97134428Y-65731295D02*
X97058238Y-65769390D01*
X97058238Y-65769390D02*
X97020143Y-65807485D01*
X97020143Y-65807485D02*
X96982047Y-65883676D01*
X96982047Y-65883676D02*
X96982047Y-65997961D01*
X96982047Y-65997961D02*
X97020143Y-66074152D01*
X97020143Y-66074152D02*
X97058238Y-66112247D01*
X97058238Y-66112247D02*
X97134428Y-66150342D01*
X97134428Y-66150342D02*
X97439190Y-66150342D01*
X96715381Y-65731295D02*
X96182047Y-66531295D01*
X96182047Y-65731295D02*
X96715381Y-66531295D01*
X94772523Y-65731295D02*
X94315380Y-65731295D01*
X94543952Y-66531295D02*
X94543952Y-65731295D01*
X94124904Y-65731295D02*
X93591570Y-66531295D01*
X93591570Y-65731295D02*
X94124904Y-66531295D01*
X92067760Y-66112247D02*
X91801094Y-66112247D01*
X91686808Y-66531295D02*
X92067760Y-66531295D01*
X92067760Y-66531295D02*
X92067760Y-65731295D01*
X92067760Y-65731295D02*
X91686808Y-65731295D01*
X91343950Y-66531295D02*
X91343950Y-65731295D01*
X91343950Y-65731295D02*
X90886807Y-66531295D01*
X90886807Y-66531295D02*
X90886807Y-65731295D01*
D10*
X119049219Y-43857143D02*
X118049219Y-43857143D01*
X118049219Y-43857143D02*
X119049219Y-44428571D01*
X119049219Y-44428571D02*
X118049219Y-44428571D01*
X119049219Y-44904762D02*
X118382552Y-44904762D01*
X118049219Y-44904762D02*
X118096838Y-44857143D01*
X118096838Y-44857143D02*
X118144457Y-44904762D01*
X118144457Y-44904762D02*
X118096838Y-44952381D01*
X118096838Y-44952381D02*
X118049219Y-44904762D01*
X118049219Y-44904762D02*
X118144457Y-44904762D01*
X119001600Y-45809523D02*
X119049219Y-45714285D01*
X119049219Y-45714285D02*
X119049219Y-45523809D01*
X119049219Y-45523809D02*
X119001600Y-45428571D01*
X119001600Y-45428571D02*
X118953980Y-45380952D01*
X118953980Y-45380952D02*
X118858742Y-45333333D01*
X118858742Y-45333333D02*
X118573028Y-45333333D01*
X118573028Y-45333333D02*
X118477790Y-45380952D01*
X118477790Y-45380952D02*
X118430171Y-45428571D01*
X118430171Y-45428571D02*
X118382552Y-45523809D01*
X118382552Y-45523809D02*
X118382552Y-45714285D01*
X118382552Y-45714285D02*
X118430171Y-45809523D01*
X118525409Y-46238095D02*
X118525409Y-46571428D01*
X119049219Y-46714285D02*
X119049219Y-46238095D01*
X119049219Y-46238095D02*
X118049219Y-46238095D01*
X118049219Y-46238095D02*
X118049219Y-46714285D01*
X118525409Y-47904762D02*
X118525409Y-48238095D01*
X119049219Y-48380952D02*
X119049219Y-47904762D01*
X119049219Y-47904762D02*
X118049219Y-47904762D01*
X118049219Y-47904762D02*
X118049219Y-48380952D01*
X118382552Y-48809524D02*
X119049219Y-48809524D01*
X118477790Y-48809524D02*
X118430171Y-48857143D01*
X118430171Y-48857143D02*
X118382552Y-48952381D01*
X118382552Y-48952381D02*
X118382552Y-49095238D01*
X118382552Y-49095238D02*
X118430171Y-49190476D01*
X118430171Y-49190476D02*
X118525409Y-49238095D01*
X118525409Y-49238095D02*
X119049219Y-49238095D01*
X118382552Y-50142857D02*
X119192076Y-50142857D01*
X119192076Y-50142857D02*
X119287314Y-50095238D01*
X119287314Y-50095238D02*
X119334933Y-50047619D01*
X119334933Y-50047619D02*
X119382552Y-49952381D01*
X119382552Y-49952381D02*
X119382552Y-49809524D01*
X119382552Y-49809524D02*
X119334933Y-49714286D01*
X119001600Y-50142857D02*
X119049219Y-50047619D01*
X119049219Y-50047619D02*
X119049219Y-49857143D01*
X119049219Y-49857143D02*
X119001600Y-49761905D01*
X119001600Y-49761905D02*
X118953980Y-49714286D01*
X118953980Y-49714286D02*
X118858742Y-49666667D01*
X118858742Y-49666667D02*
X118573028Y-49666667D01*
X118573028Y-49666667D02*
X118477790Y-49714286D01*
X118477790Y-49714286D02*
X118430171Y-49761905D01*
X118430171Y-49761905D02*
X118382552Y-49857143D01*
X118382552Y-49857143D02*
X118382552Y-50047619D01*
X118382552Y-50047619D02*
X118430171Y-50142857D01*
X119049219Y-50619048D02*
X118382552Y-50619048D01*
X118049219Y-50619048D02*
X118096838Y-50571429D01*
X118096838Y-50571429D02*
X118144457Y-50619048D01*
X118144457Y-50619048D02*
X118096838Y-50666667D01*
X118096838Y-50666667D02*
X118049219Y-50619048D01*
X118049219Y-50619048D02*
X118144457Y-50619048D01*
X118382552Y-51095238D02*
X119049219Y-51095238D01*
X118477790Y-51095238D02*
X118430171Y-51142857D01*
X118430171Y-51142857D02*
X118382552Y-51238095D01*
X118382552Y-51238095D02*
X118382552Y-51380952D01*
X118382552Y-51380952D02*
X118430171Y-51476190D01*
X118430171Y-51476190D02*
X118525409Y-51523809D01*
X118525409Y-51523809D02*
X119049219Y-51523809D01*
X119001600Y-52380952D02*
X119049219Y-52285714D01*
X119049219Y-52285714D02*
X119049219Y-52095238D01*
X119049219Y-52095238D02*
X119001600Y-52000000D01*
X119001600Y-52000000D02*
X118906361Y-51952381D01*
X118906361Y-51952381D02*
X118525409Y-51952381D01*
X118525409Y-51952381D02*
X118430171Y-52000000D01*
X118430171Y-52000000D02*
X118382552Y-52095238D01*
X118382552Y-52095238D02*
X118382552Y-52285714D01*
X118382552Y-52285714D02*
X118430171Y-52380952D01*
X118430171Y-52380952D02*
X118525409Y-52428571D01*
X118525409Y-52428571D02*
X118620647Y-52428571D01*
X118620647Y-52428571D02*
X118715885Y-51952381D01*
X119001600Y-53238095D02*
X119049219Y-53142857D01*
X119049219Y-53142857D02*
X119049219Y-52952381D01*
X119049219Y-52952381D02*
X119001600Y-52857143D01*
X119001600Y-52857143D02*
X118906361Y-52809524D01*
X118906361Y-52809524D02*
X118525409Y-52809524D01*
X118525409Y-52809524D02*
X118430171Y-52857143D01*
X118430171Y-52857143D02*
X118382552Y-52952381D01*
X118382552Y-52952381D02*
X118382552Y-53142857D01*
X118382552Y-53142857D02*
X118430171Y-53238095D01*
X118430171Y-53238095D02*
X118525409Y-53285714D01*
X118525409Y-53285714D02*
X118620647Y-53285714D01*
X118620647Y-53285714D02*
X118715885Y-52809524D01*
X119049219Y-53714286D02*
X118382552Y-53714286D01*
X118573028Y-53714286D02*
X118477790Y-53761905D01*
X118477790Y-53761905D02*
X118430171Y-53809524D01*
X118430171Y-53809524D02*
X118382552Y-53904762D01*
X118382552Y-53904762D02*
X118382552Y-54000000D01*
X119049219Y-54333334D02*
X118382552Y-54333334D01*
X118049219Y-54333334D02*
X118096838Y-54285715D01*
X118096838Y-54285715D02*
X118144457Y-54333334D01*
X118144457Y-54333334D02*
X118096838Y-54380953D01*
X118096838Y-54380953D02*
X118049219Y-54333334D01*
X118049219Y-54333334D02*
X118144457Y-54333334D01*
X118382552Y-54809524D02*
X119049219Y-54809524D01*
X118477790Y-54809524D02*
X118430171Y-54857143D01*
X118430171Y-54857143D02*
X118382552Y-54952381D01*
X118382552Y-54952381D02*
X118382552Y-55095238D01*
X118382552Y-55095238D02*
X118430171Y-55190476D01*
X118430171Y-55190476D02*
X118525409Y-55238095D01*
X118525409Y-55238095D02*
X119049219Y-55238095D01*
X118382552Y-56142857D02*
X119192076Y-56142857D01*
X119192076Y-56142857D02*
X119287314Y-56095238D01*
X119287314Y-56095238D02*
X119334933Y-56047619D01*
X119334933Y-56047619D02*
X119382552Y-55952381D01*
X119382552Y-55952381D02*
X119382552Y-55809524D01*
X119382552Y-55809524D02*
X119334933Y-55714286D01*
X119001600Y-56142857D02*
X119049219Y-56047619D01*
X119049219Y-56047619D02*
X119049219Y-55857143D01*
X119049219Y-55857143D02*
X119001600Y-55761905D01*
X119001600Y-55761905D02*
X118953980Y-55714286D01*
X118953980Y-55714286D02*
X118858742Y-55666667D01*
X118858742Y-55666667D02*
X118573028Y-55666667D01*
X118573028Y-55666667D02*
X118477790Y-55714286D01*
X118477790Y-55714286D02*
X118430171Y-55761905D01*
X118430171Y-55761905D02*
X118382552Y-55857143D01*
X118382552Y-55857143D02*
X118382552Y-56047619D01*
X118382552Y-56047619D02*
X118430171Y-56142857D01*
D11*
X103055935Y-46827470D02*
X102941649Y-46865565D01*
X102941649Y-46865565D02*
X102751173Y-46865565D01*
X102751173Y-46865565D02*
X102674982Y-46827470D01*
X102674982Y-46827470D02*
X102636887Y-46789374D01*
X102636887Y-46789374D02*
X102598792Y-46713184D01*
X102598792Y-46713184D02*
X102598792Y-46636993D01*
X102598792Y-46636993D02*
X102636887Y-46560803D01*
X102636887Y-46560803D02*
X102674982Y-46522708D01*
X102674982Y-46522708D02*
X102751173Y-46484612D01*
X102751173Y-46484612D02*
X102903554Y-46446517D01*
X102903554Y-46446517D02*
X102979744Y-46408422D01*
X102979744Y-46408422D02*
X103017839Y-46370327D01*
X103017839Y-46370327D02*
X103055935Y-46294136D01*
X103055935Y-46294136D02*
X103055935Y-46217946D01*
X103055935Y-46217946D02*
X103017839Y-46141755D01*
X103017839Y-46141755D02*
X102979744Y-46103660D01*
X102979744Y-46103660D02*
X102903554Y-46065565D01*
X102903554Y-46065565D02*
X102713077Y-46065565D01*
X102713077Y-46065565D02*
X102598792Y-46103660D01*
X102255934Y-46865565D02*
X102255934Y-46065565D01*
X102255934Y-46065565D02*
X102065458Y-46065565D01*
X102065458Y-46065565D02*
X101951172Y-46103660D01*
X101951172Y-46103660D02*
X101874982Y-46179850D01*
X101874982Y-46179850D02*
X101836887Y-46256041D01*
X101836887Y-46256041D02*
X101798791Y-46408422D01*
X101798791Y-46408422D02*
X101798791Y-46522708D01*
X101798791Y-46522708D02*
X101836887Y-46675089D01*
X101836887Y-46675089D02*
X101874982Y-46751279D01*
X101874982Y-46751279D02*
X101951172Y-46827470D01*
X101951172Y-46827470D02*
X102065458Y-46865565D01*
X102065458Y-46865565D02*
X102255934Y-46865565D01*
X101494030Y-46636993D02*
X101113077Y-46636993D01*
X101570220Y-46865565D02*
X101303553Y-46065565D01*
X101303553Y-46065565D02*
X101036887Y-46865565D01*
X103055935Y-49403380D02*
X102941649Y-49441475D01*
X102941649Y-49441475D02*
X102751173Y-49441475D01*
X102751173Y-49441475D02*
X102674982Y-49403380D01*
X102674982Y-49403380D02*
X102636887Y-49365284D01*
X102636887Y-49365284D02*
X102598792Y-49289094D01*
X102598792Y-49289094D02*
X102598792Y-49212903D01*
X102598792Y-49212903D02*
X102636887Y-49136713D01*
X102636887Y-49136713D02*
X102674982Y-49098618D01*
X102674982Y-49098618D02*
X102751173Y-49060522D01*
X102751173Y-49060522D02*
X102903554Y-49022427D01*
X102903554Y-49022427D02*
X102979744Y-48984332D01*
X102979744Y-48984332D02*
X103017839Y-48946237D01*
X103017839Y-48946237D02*
X103055935Y-48870046D01*
X103055935Y-48870046D02*
X103055935Y-48793856D01*
X103055935Y-48793856D02*
X103017839Y-48717665D01*
X103017839Y-48717665D02*
X102979744Y-48679570D01*
X102979744Y-48679570D02*
X102903554Y-48641475D01*
X102903554Y-48641475D02*
X102713077Y-48641475D01*
X102713077Y-48641475D02*
X102598792Y-48679570D01*
X101798791Y-49365284D02*
X101836887Y-49403380D01*
X101836887Y-49403380D02*
X101951172Y-49441475D01*
X101951172Y-49441475D02*
X102027363Y-49441475D01*
X102027363Y-49441475D02*
X102141649Y-49403380D01*
X102141649Y-49403380D02*
X102217839Y-49327189D01*
X102217839Y-49327189D02*
X102255934Y-49250999D01*
X102255934Y-49250999D02*
X102294030Y-49098618D01*
X102294030Y-49098618D02*
X102294030Y-48984332D01*
X102294030Y-48984332D02*
X102255934Y-48831951D01*
X102255934Y-48831951D02*
X102217839Y-48755760D01*
X102217839Y-48755760D02*
X102141649Y-48679570D01*
X102141649Y-48679570D02*
X102027363Y-48641475D01*
X102027363Y-48641475D02*
X101951172Y-48641475D01*
X101951172Y-48641475D02*
X101836887Y-48679570D01*
X101836887Y-48679570D02*
X101798791Y-48717665D01*
X101074982Y-49441475D02*
X101455934Y-49441475D01*
X101455934Y-49441475D02*
X101455934Y-48641475D01*
X103094030Y-51217385D02*
X102598792Y-51217385D01*
X102598792Y-51217385D02*
X102865458Y-51522147D01*
X102865458Y-51522147D02*
X102751173Y-51522147D01*
X102751173Y-51522147D02*
X102674982Y-51560242D01*
X102674982Y-51560242D02*
X102636887Y-51598337D01*
X102636887Y-51598337D02*
X102598792Y-51674528D01*
X102598792Y-51674528D02*
X102598792Y-51865004D01*
X102598792Y-51865004D02*
X102636887Y-51941194D01*
X102636887Y-51941194D02*
X102674982Y-51979290D01*
X102674982Y-51979290D02*
X102751173Y-52017385D01*
X102751173Y-52017385D02*
X102979744Y-52017385D01*
X102979744Y-52017385D02*
X103055935Y-51979290D01*
X103055935Y-51979290D02*
X103094030Y-51941194D01*
X102255934Y-51941194D02*
X102217839Y-51979290D01*
X102217839Y-51979290D02*
X102255934Y-52017385D01*
X102255934Y-52017385D02*
X102294030Y-51979290D01*
X102294030Y-51979290D02*
X102255934Y-51941194D01*
X102255934Y-51941194D02*
X102255934Y-52017385D01*
X101951173Y-51217385D02*
X101455935Y-51217385D01*
X101455935Y-51217385D02*
X101722601Y-51522147D01*
X101722601Y-51522147D02*
X101608316Y-51522147D01*
X101608316Y-51522147D02*
X101532125Y-51560242D01*
X101532125Y-51560242D02*
X101494030Y-51598337D01*
X101494030Y-51598337D02*
X101455935Y-51674528D01*
X101455935Y-51674528D02*
X101455935Y-51865004D01*
X101455935Y-51865004D02*
X101494030Y-51941194D01*
X101494030Y-51941194D02*
X101532125Y-51979290D01*
X101532125Y-51979290D02*
X101608316Y-52017385D01*
X101608316Y-52017385D02*
X101836887Y-52017385D01*
X101836887Y-52017385D02*
X101913078Y-51979290D01*
X101913078Y-51979290D02*
X101951173Y-51941194D01*
X101227363Y-51217385D02*
X100960696Y-52017385D01*
X100960696Y-52017385D02*
X100694030Y-51217385D01*
X102598792Y-53831390D02*
X102674982Y-53793295D01*
X102674982Y-53793295D02*
X102789268Y-53793295D01*
X102789268Y-53793295D02*
X102903554Y-53831390D01*
X102903554Y-53831390D02*
X102979744Y-53907580D01*
X102979744Y-53907580D02*
X103017839Y-53983771D01*
X103017839Y-53983771D02*
X103055935Y-54136152D01*
X103055935Y-54136152D02*
X103055935Y-54250438D01*
X103055935Y-54250438D02*
X103017839Y-54402819D01*
X103017839Y-54402819D02*
X102979744Y-54479009D01*
X102979744Y-54479009D02*
X102903554Y-54555200D01*
X102903554Y-54555200D02*
X102789268Y-54593295D01*
X102789268Y-54593295D02*
X102713077Y-54593295D01*
X102713077Y-54593295D02*
X102598792Y-54555200D01*
X102598792Y-54555200D02*
X102560696Y-54517104D01*
X102560696Y-54517104D02*
X102560696Y-54250438D01*
X102560696Y-54250438D02*
X102713077Y-54250438D01*
X102217839Y-54593295D02*
X102217839Y-53793295D01*
X102217839Y-53793295D02*
X101760696Y-54593295D01*
X101760696Y-54593295D02*
X101760696Y-53793295D01*
X101379744Y-54593295D02*
X101379744Y-53793295D01*
X101379744Y-53793295D02*
X101189268Y-53793295D01*
X101189268Y-53793295D02*
X101074982Y-53831390D01*
X101074982Y-53831390D02*
X100998792Y-53907580D01*
X100998792Y-53907580D02*
X100960697Y-53983771D01*
X100960697Y-53983771D02*
X100922601Y-54136152D01*
X100922601Y-54136152D02*
X100922601Y-54250438D01*
X100922601Y-54250438D02*
X100960697Y-54402819D01*
X100960697Y-54402819D02*
X100998792Y-54479009D01*
X100998792Y-54479009D02*
X101074982Y-54555200D01*
X101074982Y-54555200D02*
X101189268Y-54593295D01*
X101189268Y-54593295D02*
X101379744Y-54593295D01*
X84944614Y-63299887D02*
X84944614Y-63680839D01*
X84944614Y-63680839D02*
X84563662Y-63718935D01*
X84563662Y-63718935D02*
X84601757Y-63680839D01*
X84601757Y-63680839D02*
X84639852Y-63604649D01*
X84639852Y-63604649D02*
X84639852Y-63414173D01*
X84639852Y-63414173D02*
X84601757Y-63337982D01*
X84601757Y-63337982D02*
X84563662Y-63299887D01*
X84563662Y-63299887D02*
X84487471Y-63261792D01*
X84487471Y-63261792D02*
X84296995Y-63261792D01*
X84296995Y-63261792D02*
X84220805Y-63299887D01*
X84220805Y-63299887D02*
X84182710Y-63337982D01*
X84182710Y-63337982D02*
X84144614Y-63414173D01*
X84144614Y-63414173D02*
X84144614Y-63604649D01*
X84144614Y-63604649D02*
X84182710Y-63680839D01*
X84182710Y-63680839D02*
X84220805Y-63718935D01*
X84944614Y-63033220D02*
X84144614Y-62766553D01*
X84144614Y-62766553D02*
X84944614Y-62499887D01*
X81987752Y-63414173D02*
X81949657Y-63299887D01*
X81949657Y-63299887D02*
X81911561Y-63261792D01*
X81911561Y-63261792D02*
X81835371Y-63223696D01*
X81835371Y-63223696D02*
X81721085Y-63223696D01*
X81721085Y-63223696D02*
X81644895Y-63261792D01*
X81644895Y-63261792D02*
X81606800Y-63299887D01*
X81606800Y-63299887D02*
X81568704Y-63376077D01*
X81568704Y-63376077D02*
X81568704Y-63680839D01*
X81568704Y-63680839D02*
X82368704Y-63680839D01*
X82368704Y-63680839D02*
X82368704Y-63414173D01*
X82368704Y-63414173D02*
X82330609Y-63337982D01*
X82330609Y-63337982D02*
X82292514Y-63299887D01*
X82292514Y-63299887D02*
X82216323Y-63261792D01*
X82216323Y-63261792D02*
X82140133Y-63261792D01*
X82140133Y-63261792D02*
X82063942Y-63299887D01*
X82063942Y-63299887D02*
X82025847Y-63337982D01*
X82025847Y-63337982D02*
X81987752Y-63414173D01*
X81987752Y-63414173D02*
X81987752Y-63680839D01*
X82368704Y-62880839D02*
X81721085Y-62880839D01*
X81721085Y-62880839D02*
X81644895Y-62842744D01*
X81644895Y-62842744D02*
X81606800Y-62804649D01*
X81606800Y-62804649D02*
X81568704Y-62728458D01*
X81568704Y-62728458D02*
X81568704Y-62576077D01*
X81568704Y-62576077D02*
X81606800Y-62499887D01*
X81606800Y-62499887D02*
X81644895Y-62461792D01*
X81644895Y-62461792D02*
X81721085Y-62423696D01*
X81721085Y-62423696D02*
X82368704Y-62423696D01*
X82368704Y-62118935D02*
X82368704Y-61585601D01*
X82368704Y-61585601D02*
X81568704Y-62118935D01*
X81568704Y-62118935D02*
X81568704Y-61585601D01*
X82368704Y-61357030D02*
X82368704Y-60823696D01*
X82368704Y-60823696D02*
X81568704Y-61357030D01*
X81568704Y-61357030D02*
X81568704Y-60823696D01*
X81987752Y-60518934D02*
X81987752Y-60252268D01*
X81568704Y-60137982D02*
X81568704Y-60518934D01*
X81568704Y-60518934D02*
X82368704Y-60518934D01*
X82368704Y-60518934D02*
X82368704Y-60137982D01*
X81568704Y-59337981D02*
X81949657Y-59604648D01*
X81568704Y-59795124D02*
X82368704Y-59795124D01*
X82368704Y-59795124D02*
X82368704Y-59490362D01*
X82368704Y-59490362D02*
X82330609Y-59414172D01*
X82330609Y-59414172D02*
X82292514Y-59376077D01*
X82292514Y-59376077D02*
X82216323Y-59337981D01*
X82216323Y-59337981D02*
X82102038Y-59337981D01*
X82102038Y-59337981D02*
X82025847Y-59376077D01*
X82025847Y-59376077D02*
X81987752Y-59414172D01*
X81987752Y-59414172D02*
X81949657Y-59490362D01*
X81949657Y-59490362D02*
X81949657Y-59795124D01*
D10*
X76949993Y-59814875D02*
X77330945Y-59814875D01*
X77330945Y-59814875D02*
X77369041Y-60195827D01*
X77369041Y-60195827D02*
X77330945Y-60157732D01*
X77330945Y-60157732D02*
X77254755Y-60119637D01*
X77254755Y-60119637D02*
X77064279Y-60119637D01*
X77064279Y-60119637D02*
X76988088Y-60157732D01*
X76988088Y-60157732D02*
X76949993Y-60195827D01*
X76949993Y-60195827D02*
X76911898Y-60272018D01*
X76911898Y-60272018D02*
X76911898Y-60462494D01*
X76911898Y-60462494D02*
X76949993Y-60538684D01*
X76949993Y-60538684D02*
X76988088Y-60576780D01*
X76988088Y-60576780D02*
X77064279Y-60614875D01*
X77064279Y-60614875D02*
X77254755Y-60614875D01*
X77254755Y-60614875D02*
X77330945Y-60576780D01*
X77330945Y-60576780D02*
X77369041Y-60538684D01*
X76683326Y-59814875D02*
X76416659Y-60614875D01*
X76416659Y-60614875D02*
X76149993Y-59814875D01*
X77330945Y-63190785D02*
X77330945Y-62390785D01*
X77330945Y-62390785D02*
X77140469Y-62390785D01*
X77140469Y-62390785D02*
X77026183Y-62428880D01*
X77026183Y-62428880D02*
X76949993Y-62505070D01*
X76949993Y-62505070D02*
X76911898Y-62581261D01*
X76911898Y-62581261D02*
X76873802Y-62733642D01*
X76873802Y-62733642D02*
X76873802Y-62847928D01*
X76873802Y-62847928D02*
X76911898Y-63000309D01*
X76911898Y-63000309D02*
X76949993Y-63076499D01*
X76949993Y-63076499D02*
X77026183Y-63152690D01*
X77026183Y-63152690D02*
X77140469Y-63190785D01*
X77140469Y-63190785D02*
X77330945Y-63190785D01*
X75692850Y-63495547D02*
X75730945Y-63457451D01*
X75730945Y-63457451D02*
X75807136Y-63343166D01*
X75807136Y-63343166D02*
X75845231Y-63266975D01*
X75845231Y-63266975D02*
X75883326Y-63152690D01*
X75883326Y-63152690D02*
X75921421Y-62962213D01*
X75921421Y-62962213D02*
X75921421Y-62809832D01*
X75921421Y-62809832D02*
X75883326Y-62619356D01*
X75883326Y-62619356D02*
X75845231Y-62505070D01*
X75845231Y-62505070D02*
X75807136Y-62428880D01*
X75807136Y-62428880D02*
X75730945Y-62314594D01*
X75730945Y-62314594D02*
X75692850Y-62276499D01*
X75273803Y-63190785D02*
X75349993Y-63152690D01*
X75349993Y-63152690D02*
X75388088Y-63076499D01*
X75388088Y-63076499D02*
X75388088Y-62390785D01*
X74664278Y-63152690D02*
X74740469Y-63190785D01*
X74740469Y-63190785D02*
X74892850Y-63190785D01*
X74892850Y-63190785D02*
X74969040Y-63152690D01*
X74969040Y-63152690D02*
X75007136Y-63076499D01*
X75007136Y-63076499D02*
X75007136Y-62771737D01*
X75007136Y-62771737D02*
X74969040Y-62695547D01*
X74969040Y-62695547D02*
X74892850Y-62657451D01*
X74892850Y-62657451D02*
X74740469Y-62657451D01*
X74740469Y-62657451D02*
X74664278Y-62695547D01*
X74664278Y-62695547D02*
X74626183Y-62771737D01*
X74626183Y-62771737D02*
X74626183Y-62847928D01*
X74626183Y-62847928D02*
X75007136Y-62924118D01*
X73940469Y-63190785D02*
X73940469Y-62390785D01*
X73940469Y-63152690D02*
X74016660Y-63190785D01*
X74016660Y-63190785D02*
X74169041Y-63190785D01*
X74169041Y-63190785D02*
X74245231Y-63152690D01*
X74245231Y-63152690D02*
X74283326Y-63114594D01*
X74283326Y-63114594D02*
X74321422Y-63038404D01*
X74321422Y-63038404D02*
X74321422Y-62809832D01*
X74321422Y-62809832D02*
X74283326Y-62733642D01*
X74283326Y-62733642D02*
X74245231Y-62695547D01*
X74245231Y-62695547D02*
X74169041Y-62657451D01*
X74169041Y-62657451D02*
X74016660Y-62657451D01*
X74016660Y-62657451D02*
X73940469Y-62695547D01*
X73635707Y-63495547D02*
X73597612Y-63457451D01*
X73597612Y-63457451D02*
X73521421Y-63343166D01*
X73521421Y-63343166D02*
X73483326Y-63266975D01*
X73483326Y-63266975D02*
X73445231Y-63152690D01*
X73445231Y-63152690D02*
X73407135Y-62962213D01*
X73407135Y-62962213D02*
X73407135Y-62809832D01*
X73407135Y-62809832D02*
X73445231Y-62619356D01*
X73445231Y-62619356D02*
X73483326Y-62505070D01*
X73483326Y-62505070D02*
X73521421Y-62428880D01*
X73521421Y-62428880D02*
X73597612Y-62314594D01*
X73597612Y-62314594D02*
X73635707Y-62276499D01*
X76911898Y-65004790D02*
X76988088Y-64966695D01*
X76988088Y-64966695D02*
X77102374Y-64966695D01*
X77102374Y-64966695D02*
X77216660Y-65004790D01*
X77216660Y-65004790D02*
X77292850Y-65080980D01*
X77292850Y-65080980D02*
X77330945Y-65157171D01*
X77330945Y-65157171D02*
X77369041Y-65309552D01*
X77369041Y-65309552D02*
X77369041Y-65423838D01*
X77369041Y-65423838D02*
X77330945Y-65576219D01*
X77330945Y-65576219D02*
X77292850Y-65652409D01*
X77292850Y-65652409D02*
X77216660Y-65728600D01*
X77216660Y-65728600D02*
X77102374Y-65766695D01*
X77102374Y-65766695D02*
X77026183Y-65766695D01*
X77026183Y-65766695D02*
X76911898Y-65728600D01*
X76911898Y-65728600D02*
X76873802Y-65690504D01*
X76873802Y-65690504D02*
X76873802Y-65423838D01*
X76873802Y-65423838D02*
X77026183Y-65423838D01*
X76530945Y-65766695D02*
X76530945Y-64966695D01*
X76530945Y-64966695D02*
X76073802Y-65766695D01*
X76073802Y-65766695D02*
X76073802Y-64966695D01*
X75692850Y-65766695D02*
X75692850Y-64966695D01*
X75692850Y-64966695D02*
X75502374Y-64966695D01*
X75502374Y-64966695D02*
X75388088Y-65004790D01*
X75388088Y-65004790D02*
X75311898Y-65080980D01*
X75311898Y-65080980D02*
X75273803Y-65157171D01*
X75273803Y-65157171D02*
X75235707Y-65309552D01*
X75235707Y-65309552D02*
X75235707Y-65423838D01*
X75235707Y-65423838D02*
X75273803Y-65576219D01*
X75273803Y-65576219D02*
X75311898Y-65652409D01*
X75311898Y-65652409D02*
X75388088Y-65728600D01*
X75388088Y-65728600D02*
X75502374Y-65766695D01*
X75502374Y-65766695D02*
X75692850Y-65766695D01*
X43802945Y-38080695D02*
X43802945Y-37280695D01*
X43802945Y-37280695D02*
X43498183Y-37280695D01*
X43498183Y-37280695D02*
X43421993Y-37318790D01*
X43421993Y-37318790D02*
X43383898Y-37356885D01*
X43383898Y-37356885D02*
X43345802Y-37433076D01*
X43345802Y-37433076D02*
X43345802Y-37547361D01*
X43345802Y-37547361D02*
X43383898Y-37623552D01*
X43383898Y-37623552D02*
X43421993Y-37661647D01*
X43421993Y-37661647D02*
X43498183Y-37699742D01*
X43498183Y-37699742D02*
X43802945Y-37699742D01*
X43079136Y-37280695D02*
X42888660Y-38080695D01*
X42888660Y-38080695D02*
X42736279Y-37509266D01*
X42736279Y-37509266D02*
X42583898Y-38080695D01*
X42583898Y-38080695D02*
X42393422Y-37280695D01*
X42088659Y-38080695D02*
X42088659Y-37280695D01*
X42088659Y-37280695D02*
X41821993Y-37852123D01*
X41821993Y-37852123D02*
X41555326Y-37280695D01*
X41555326Y-37280695D02*
X41555326Y-38080695D01*
X40564849Y-37775933D02*
X39955326Y-37775933D01*
X40260087Y-38080695D02*
X40260087Y-37471171D01*
X38964849Y-37775933D02*
X38355326Y-37775933D01*
D11*
X102217792Y-59764480D02*
X102293982Y-59726385D01*
X102293982Y-59726385D02*
X102408268Y-59726385D01*
X102408268Y-59726385D02*
X102522554Y-59764480D01*
X102522554Y-59764480D02*
X102598744Y-59840670D01*
X102598744Y-59840670D02*
X102636839Y-59916861D01*
X102636839Y-59916861D02*
X102674935Y-60069242D01*
X102674935Y-60069242D02*
X102674935Y-60183528D01*
X102674935Y-60183528D02*
X102636839Y-60335909D01*
X102636839Y-60335909D02*
X102598744Y-60412099D01*
X102598744Y-60412099D02*
X102522554Y-60488290D01*
X102522554Y-60488290D02*
X102408268Y-60526385D01*
X102408268Y-60526385D02*
X102332077Y-60526385D01*
X102332077Y-60526385D02*
X102217792Y-60488290D01*
X102217792Y-60488290D02*
X102179696Y-60450194D01*
X102179696Y-60450194D02*
X102179696Y-60183528D01*
X102179696Y-60183528D02*
X102332077Y-60183528D01*
X101836839Y-60526385D02*
X101836839Y-59726385D01*
X101836839Y-59726385D02*
X101379696Y-60526385D01*
X101379696Y-60526385D02*
X101379696Y-59726385D01*
X100998744Y-60526385D02*
X100998744Y-59726385D01*
X100998744Y-59726385D02*
X100808268Y-59726385D01*
X100808268Y-59726385D02*
X100693982Y-59764480D01*
X100693982Y-59764480D02*
X100617792Y-59840670D01*
X100617792Y-59840670D02*
X100579697Y-59916861D01*
X100579697Y-59916861D02*
X100541601Y-60069242D01*
X100541601Y-60069242D02*
X100541601Y-60183528D01*
X100541601Y-60183528D02*
X100579697Y-60335909D01*
X100579697Y-60335909D02*
X100617792Y-60412099D01*
X100617792Y-60412099D02*
X100693982Y-60488290D01*
X100693982Y-60488290D02*
X100808268Y-60526385D01*
X100808268Y-60526385D02*
X100998744Y-60526385D01*
X102674935Y-63064200D02*
X102560649Y-63102295D01*
X102560649Y-63102295D02*
X102370173Y-63102295D01*
X102370173Y-63102295D02*
X102293982Y-63064200D01*
X102293982Y-63064200D02*
X102255887Y-63026104D01*
X102255887Y-63026104D02*
X102217792Y-62949914D01*
X102217792Y-62949914D02*
X102217792Y-62873723D01*
X102217792Y-62873723D02*
X102255887Y-62797533D01*
X102255887Y-62797533D02*
X102293982Y-62759438D01*
X102293982Y-62759438D02*
X102370173Y-62721342D01*
X102370173Y-62721342D02*
X102522554Y-62683247D01*
X102522554Y-62683247D02*
X102598744Y-62645152D01*
X102598744Y-62645152D02*
X102636839Y-62607057D01*
X102636839Y-62607057D02*
X102674935Y-62530866D01*
X102674935Y-62530866D02*
X102674935Y-62454676D01*
X102674935Y-62454676D02*
X102636839Y-62378485D01*
X102636839Y-62378485D02*
X102598744Y-62340390D01*
X102598744Y-62340390D02*
X102522554Y-62302295D01*
X102522554Y-62302295D02*
X102332077Y-62302295D01*
X102332077Y-62302295D02*
X102217792Y-62340390D01*
X101951125Y-62302295D02*
X101760649Y-63102295D01*
X101760649Y-63102295D02*
X101608268Y-62530866D01*
X101608268Y-62530866D02*
X101455887Y-63102295D01*
X101455887Y-63102295D02*
X101265411Y-62302295D01*
D10*
X96733667Y-50356980D02*
X96781286Y-50404600D01*
X96781286Y-50404600D02*
X96924143Y-50452219D01*
X96924143Y-50452219D02*
X97019381Y-50452219D01*
X97019381Y-50452219D02*
X97162238Y-50404600D01*
X97162238Y-50404600D02*
X97257476Y-50309361D01*
X97257476Y-50309361D02*
X97305095Y-50214123D01*
X97305095Y-50214123D02*
X97352714Y-50023647D01*
X97352714Y-50023647D02*
X97352714Y-49880790D01*
X97352714Y-49880790D02*
X97305095Y-49690314D01*
X97305095Y-49690314D02*
X97257476Y-49595076D01*
X97257476Y-49595076D02*
X97162238Y-49499838D01*
X97162238Y-49499838D02*
X97019381Y-49452219D01*
X97019381Y-49452219D02*
X96924143Y-49452219D01*
X96924143Y-49452219D02*
X96781286Y-49499838D01*
X96781286Y-49499838D02*
X96733667Y-49547457D01*
X96305095Y-50452219D02*
X96305095Y-49452219D01*
X96305095Y-49452219D02*
X95924143Y-49452219D01*
X95924143Y-49452219D02*
X95828905Y-49499838D01*
X95828905Y-49499838D02*
X95781286Y-49547457D01*
X95781286Y-49547457D02*
X95733667Y-49642695D01*
X95733667Y-49642695D02*
X95733667Y-49785552D01*
X95733667Y-49785552D02*
X95781286Y-49880790D01*
X95781286Y-49880790D02*
X95828905Y-49928409D01*
X95828905Y-49928409D02*
X95924143Y-49976028D01*
X95924143Y-49976028D02*
X96305095Y-49976028D01*
X95305095Y-49452219D02*
X95305095Y-50261742D01*
X95305095Y-50261742D02*
X95257476Y-50356980D01*
X95257476Y-50356980D02*
X95209857Y-50404600D01*
X95209857Y-50404600D02*
X95114619Y-50452219D01*
X95114619Y-50452219D02*
X94924143Y-50452219D01*
X94924143Y-50452219D02*
X94828905Y-50404600D01*
X94828905Y-50404600D02*
X94781286Y-50356980D01*
X94781286Y-50356980D02*
X94733667Y-50261742D01*
X94733667Y-50261742D02*
X94733667Y-49452219D01*
X92781286Y-49404600D02*
X93638428Y-50690314D01*
X91686047Y-50452219D02*
X91686047Y-49452219D01*
X91686047Y-49452219D02*
X91305095Y-49452219D01*
X91305095Y-49452219D02*
X91209857Y-49499838D01*
X91209857Y-49499838D02*
X91162238Y-49547457D01*
X91162238Y-49547457D02*
X91114619Y-49642695D01*
X91114619Y-49642695D02*
X91114619Y-49785552D01*
X91114619Y-49785552D02*
X91162238Y-49880790D01*
X91162238Y-49880790D02*
X91209857Y-49928409D01*
X91209857Y-49928409D02*
X91305095Y-49976028D01*
X91305095Y-49976028D02*
X91686047Y-49976028D01*
X90781285Y-49452219D02*
X90543190Y-50452219D01*
X90543190Y-50452219D02*
X90352714Y-49737933D01*
X90352714Y-49737933D02*
X90162238Y-50452219D01*
X90162238Y-50452219D02*
X89924143Y-49452219D01*
X88971762Y-50452219D02*
X89305095Y-49976028D01*
X89543190Y-50452219D02*
X89543190Y-49452219D01*
X89543190Y-49452219D02*
X89162238Y-49452219D01*
X89162238Y-49452219D02*
X89067000Y-49499838D01*
X89067000Y-49499838D02*
X89019381Y-49547457D01*
X89019381Y-49547457D02*
X88971762Y-49642695D01*
X88971762Y-49642695D02*
X88971762Y-49785552D01*
X88971762Y-49785552D02*
X89019381Y-49880790D01*
X89019381Y-49880790D02*
X89067000Y-49928409D01*
X89067000Y-49928409D02*
X89162238Y-49976028D01*
X89162238Y-49976028D02*
X89543190Y-49976028D01*
X87209857Y-50356980D02*
X87257476Y-50404600D01*
X87257476Y-50404600D02*
X87400333Y-50452219D01*
X87400333Y-50452219D02*
X87495571Y-50452219D01*
X87495571Y-50452219D02*
X87638428Y-50404600D01*
X87638428Y-50404600D02*
X87733666Y-50309361D01*
X87733666Y-50309361D02*
X87781285Y-50214123D01*
X87781285Y-50214123D02*
X87828904Y-50023647D01*
X87828904Y-50023647D02*
X87828904Y-49880790D01*
X87828904Y-49880790D02*
X87781285Y-49690314D01*
X87781285Y-49690314D02*
X87733666Y-49595076D01*
X87733666Y-49595076D02*
X87638428Y-49499838D01*
X87638428Y-49499838D02*
X87495571Y-49452219D01*
X87495571Y-49452219D02*
X87400333Y-49452219D01*
X87400333Y-49452219D02*
X87257476Y-49499838D01*
X87257476Y-49499838D02*
X87209857Y-49547457D01*
X86590809Y-49452219D02*
X86400333Y-49452219D01*
X86400333Y-49452219D02*
X86305095Y-49499838D01*
X86305095Y-49499838D02*
X86209857Y-49595076D01*
X86209857Y-49595076D02*
X86162238Y-49785552D01*
X86162238Y-49785552D02*
X86162238Y-50118885D01*
X86162238Y-50118885D02*
X86209857Y-50309361D01*
X86209857Y-50309361D02*
X86305095Y-50404600D01*
X86305095Y-50404600D02*
X86400333Y-50452219D01*
X86400333Y-50452219D02*
X86590809Y-50452219D01*
X86590809Y-50452219D02*
X86686047Y-50404600D01*
X86686047Y-50404600D02*
X86781285Y-50309361D01*
X86781285Y-50309361D02*
X86828904Y-50118885D01*
X86828904Y-50118885D02*
X86828904Y-49785552D01*
X86828904Y-49785552D02*
X86781285Y-49595076D01*
X86781285Y-49595076D02*
X86686047Y-49499838D01*
X86686047Y-49499838D02*
X86590809Y-49452219D01*
X85733666Y-50452219D02*
X85733666Y-49452219D01*
X85733666Y-49452219D02*
X85162238Y-50452219D01*
X85162238Y-50452219D02*
X85162238Y-49452219D01*
X84828904Y-49452219D02*
X84257476Y-49452219D01*
X84543190Y-50452219D02*
X84543190Y-49452219D01*
X83352714Y-50452219D02*
X83686047Y-49976028D01*
X83924142Y-50452219D02*
X83924142Y-49452219D01*
X83924142Y-49452219D02*
X83543190Y-49452219D01*
X83543190Y-49452219D02*
X83447952Y-49499838D01*
X83447952Y-49499838D02*
X83400333Y-49547457D01*
X83400333Y-49547457D02*
X83352714Y-49642695D01*
X83352714Y-49642695D02*
X83352714Y-49785552D01*
X83352714Y-49785552D02*
X83400333Y-49880790D01*
X83400333Y-49880790D02*
X83447952Y-49928409D01*
X83447952Y-49928409D02*
X83543190Y-49976028D01*
X83543190Y-49976028D02*
X83924142Y-49976028D01*
X82733666Y-49452219D02*
X82543190Y-49452219D01*
X82543190Y-49452219D02*
X82447952Y-49499838D01*
X82447952Y-49499838D02*
X82352714Y-49595076D01*
X82352714Y-49595076D02*
X82305095Y-49785552D01*
X82305095Y-49785552D02*
X82305095Y-50118885D01*
X82305095Y-50118885D02*
X82352714Y-50309361D01*
X82352714Y-50309361D02*
X82447952Y-50404600D01*
X82447952Y-50404600D02*
X82543190Y-50452219D01*
X82543190Y-50452219D02*
X82733666Y-50452219D01*
X82733666Y-50452219D02*
X82828904Y-50404600D01*
X82828904Y-50404600D02*
X82924142Y-50309361D01*
X82924142Y-50309361D02*
X82971761Y-50118885D01*
X82971761Y-50118885D02*
X82971761Y-49785552D01*
X82971761Y-49785552D02*
X82924142Y-49595076D01*
X82924142Y-49595076D02*
X82828904Y-49499838D01*
X82828904Y-49499838D02*
X82733666Y-49452219D01*
X81400333Y-50452219D02*
X81876523Y-50452219D01*
X81876523Y-50452219D02*
X81876523Y-49452219D01*
X80590809Y-50452219D02*
X81066999Y-50452219D01*
X81066999Y-50452219D02*
X81066999Y-49452219D01*
X80257475Y-49928409D02*
X79924142Y-49928409D01*
X79781285Y-50452219D02*
X80257475Y-50452219D01*
X80257475Y-50452219D02*
X80257475Y-49452219D01*
X80257475Y-49452219D02*
X79781285Y-49452219D01*
X78781285Y-50452219D02*
X79114618Y-49976028D01*
X79352713Y-50452219D02*
X79352713Y-49452219D01*
X79352713Y-49452219D02*
X78971761Y-49452219D01*
X78971761Y-49452219D02*
X78876523Y-49499838D01*
X78876523Y-49499838D02*
X78828904Y-49547457D01*
X78828904Y-49547457D02*
X78781285Y-49642695D01*
X78781285Y-49642695D02*
X78781285Y-49785552D01*
X78781285Y-49785552D02*
X78828904Y-49880790D01*
X78828904Y-49880790D02*
X78876523Y-49928409D01*
X78876523Y-49928409D02*
X78971761Y-49976028D01*
X78971761Y-49976028D02*
X79352713Y-49976028D01*
D12*
X59278774Y-52734328D02*
X58778774Y-54234328D01*
X58778774Y-54234328D02*
X58278774Y-52734328D01*
X57278775Y-53448614D02*
X57064489Y-53520042D01*
X57064489Y-53520042D02*
X56993060Y-53591471D01*
X56993060Y-53591471D02*
X56921632Y-53734328D01*
X56921632Y-53734328D02*
X56921632Y-53948614D01*
X56921632Y-53948614D02*
X56993060Y-54091471D01*
X56993060Y-54091471D02*
X57064489Y-54162900D01*
X57064489Y-54162900D02*
X57207346Y-54234328D01*
X57207346Y-54234328D02*
X57778775Y-54234328D01*
X57778775Y-54234328D02*
X57778775Y-52734328D01*
X57778775Y-52734328D02*
X57278775Y-52734328D01*
X57278775Y-52734328D02*
X57135918Y-52805757D01*
X57135918Y-52805757D02*
X57064489Y-52877185D01*
X57064489Y-52877185D02*
X56993060Y-53020042D01*
X56993060Y-53020042D02*
X56993060Y-53162900D01*
X56993060Y-53162900D02*
X57064489Y-53305757D01*
X57064489Y-53305757D02*
X57135918Y-53377185D01*
X57135918Y-53377185D02*
X57278775Y-53448614D01*
X57278775Y-53448614D02*
X57778775Y-53448614D01*
X56350203Y-53805757D02*
X55635918Y-53805757D01*
X56493060Y-54234328D02*
X55993060Y-52734328D01*
X55993060Y-52734328D02*
X55493060Y-54234328D01*
X55207346Y-52734328D02*
X54350204Y-52734328D01*
X54778775Y-54234328D02*
X54778775Y-52734328D01*
X54064489Y-52734328D02*
X53207347Y-52734328D01*
X53635918Y-54234328D02*
X53635918Y-52734328D01*
D10*
X116655666Y-61753980D02*
X116703285Y-61801600D01*
X116703285Y-61801600D02*
X116846142Y-61849219D01*
X116846142Y-61849219D02*
X116941380Y-61849219D01*
X116941380Y-61849219D02*
X117084237Y-61801600D01*
X117084237Y-61801600D02*
X117179475Y-61706361D01*
X117179475Y-61706361D02*
X117227094Y-61611123D01*
X117227094Y-61611123D02*
X117274713Y-61420647D01*
X117274713Y-61420647D02*
X117274713Y-61277790D01*
X117274713Y-61277790D02*
X117227094Y-61087314D01*
X117227094Y-61087314D02*
X117179475Y-60992076D01*
X117179475Y-60992076D02*
X117084237Y-60896838D01*
X117084237Y-60896838D02*
X116941380Y-60849219D01*
X116941380Y-60849219D02*
X116846142Y-60849219D01*
X116846142Y-60849219D02*
X116703285Y-60896838D01*
X116703285Y-60896838D02*
X116655666Y-60944457D01*
X116036618Y-60849219D02*
X115846142Y-60849219D01*
X115846142Y-60849219D02*
X115750904Y-60896838D01*
X115750904Y-60896838D02*
X115655666Y-60992076D01*
X115655666Y-60992076D02*
X115608047Y-61182552D01*
X115608047Y-61182552D02*
X115608047Y-61515885D01*
X115608047Y-61515885D02*
X115655666Y-61706361D01*
X115655666Y-61706361D02*
X115750904Y-61801600D01*
X115750904Y-61801600D02*
X115846142Y-61849219D01*
X115846142Y-61849219D02*
X116036618Y-61849219D01*
X116036618Y-61849219D02*
X116131856Y-61801600D01*
X116131856Y-61801600D02*
X116227094Y-61706361D01*
X116227094Y-61706361D02*
X116274713Y-61515885D01*
X116274713Y-61515885D02*
X116274713Y-61182552D01*
X116274713Y-61182552D02*
X116227094Y-60992076D01*
X116227094Y-60992076D02*
X116131856Y-60896838D01*
X116131856Y-60896838D02*
X116036618Y-60849219D01*
X115179475Y-61849219D02*
X115179475Y-60849219D01*
X115179475Y-60849219D02*
X114846142Y-61563504D01*
X114846142Y-61563504D02*
X114512809Y-60849219D01*
X114512809Y-60849219D02*
X114512809Y-61849219D01*
X114036618Y-61849219D02*
X114036618Y-60849219D01*
X114036618Y-60849219D02*
X113655666Y-60849219D01*
X113655666Y-60849219D02*
X113560428Y-60896838D01*
X113560428Y-60896838D02*
X113512809Y-60944457D01*
X113512809Y-60944457D02*
X113465190Y-61039695D01*
X113465190Y-61039695D02*
X113465190Y-61182552D01*
X113465190Y-61182552D02*
X113512809Y-61277790D01*
X113512809Y-61277790D02*
X113560428Y-61325409D01*
X113560428Y-61325409D02*
X113655666Y-61373028D01*
X113655666Y-61373028D02*
X114036618Y-61373028D01*
X113084237Y-61563504D02*
X112608047Y-61563504D01*
X113179475Y-61849219D02*
X112846142Y-60849219D01*
X112846142Y-60849219D02*
X112512809Y-61849219D01*
X112227094Y-61801600D02*
X112084237Y-61849219D01*
X112084237Y-61849219D02*
X111846142Y-61849219D01*
X111846142Y-61849219D02*
X111750904Y-61801600D01*
X111750904Y-61801600D02*
X111703285Y-61753980D01*
X111703285Y-61753980D02*
X111655666Y-61658742D01*
X111655666Y-61658742D02*
X111655666Y-61563504D01*
X111655666Y-61563504D02*
X111703285Y-61468266D01*
X111703285Y-61468266D02*
X111750904Y-61420647D01*
X111750904Y-61420647D02*
X111846142Y-61373028D01*
X111846142Y-61373028D02*
X112036618Y-61325409D01*
X112036618Y-61325409D02*
X112131856Y-61277790D01*
X112131856Y-61277790D02*
X112179475Y-61230171D01*
X112179475Y-61230171D02*
X112227094Y-61134933D01*
X112227094Y-61134933D02*
X112227094Y-61039695D01*
X112227094Y-61039695D02*
X112179475Y-60944457D01*
X112179475Y-60944457D02*
X112131856Y-60896838D01*
X112131856Y-60896838D02*
X112036618Y-60849219D01*
X112036618Y-60849219D02*
X111798523Y-60849219D01*
X111798523Y-60849219D02*
X111655666Y-60896838D01*
X111274713Y-61801600D02*
X111131856Y-61849219D01*
X111131856Y-61849219D02*
X110893761Y-61849219D01*
X110893761Y-61849219D02*
X110798523Y-61801600D01*
X110798523Y-61801600D02*
X110750904Y-61753980D01*
X110750904Y-61753980D02*
X110703285Y-61658742D01*
X110703285Y-61658742D02*
X110703285Y-61563504D01*
X110703285Y-61563504D02*
X110750904Y-61468266D01*
X110750904Y-61468266D02*
X110798523Y-61420647D01*
X110798523Y-61420647D02*
X110893761Y-61373028D01*
X110893761Y-61373028D02*
X111084237Y-61325409D01*
X111084237Y-61325409D02*
X111179475Y-61277790D01*
X111179475Y-61277790D02*
X111227094Y-61230171D01*
X111227094Y-61230171D02*
X111274713Y-61134933D01*
X111274713Y-61134933D02*
X111274713Y-61039695D01*
X111274713Y-61039695D02*
X111227094Y-60944457D01*
X111227094Y-60944457D02*
X111179475Y-60896838D01*
X111179475Y-60896838D02*
X111084237Y-60849219D01*
X111084237Y-60849219D02*
X110846142Y-60849219D01*
X110846142Y-60849219D02*
X110703285Y-60896838D01*
X118150809Y-37475088D02*
X118467476Y-37022707D01*
X118693666Y-37475088D02*
X118693666Y-36525088D01*
X118693666Y-36525088D02*
X118331761Y-36525088D01*
X118331761Y-36525088D02*
X118241285Y-36570326D01*
X118241285Y-36570326D02*
X118196047Y-36615564D01*
X118196047Y-36615564D02*
X118150809Y-36706040D01*
X118150809Y-36706040D02*
X118150809Y-36841754D01*
X118150809Y-36841754D02*
X118196047Y-36932230D01*
X118196047Y-36932230D02*
X118241285Y-36977469D01*
X118241285Y-36977469D02*
X118331761Y-37022707D01*
X118331761Y-37022707D02*
X118693666Y-37022707D01*
X117562714Y-36525088D02*
X117381761Y-36525088D01*
X117381761Y-36525088D02*
X117291285Y-36570326D01*
X117291285Y-36570326D02*
X117200809Y-36660802D01*
X117200809Y-36660802D02*
X117155571Y-36841754D01*
X117155571Y-36841754D02*
X117155571Y-37158421D01*
X117155571Y-37158421D02*
X117200809Y-37339373D01*
X117200809Y-37339373D02*
X117291285Y-37429850D01*
X117291285Y-37429850D02*
X117381761Y-37475088D01*
X117381761Y-37475088D02*
X117562714Y-37475088D01*
X117562714Y-37475088D02*
X117653190Y-37429850D01*
X117653190Y-37429850D02*
X117743666Y-37339373D01*
X117743666Y-37339373D02*
X117788904Y-37158421D01*
X117788904Y-37158421D02*
X117788904Y-36841754D01*
X117788904Y-36841754D02*
X117743666Y-36660802D01*
X117743666Y-36660802D02*
X117653190Y-36570326D01*
X117653190Y-36570326D02*
X117562714Y-36525088D01*
X116431761Y-36977469D02*
X116296047Y-37022707D01*
X116296047Y-37022707D02*
X116250809Y-37067945D01*
X116250809Y-37067945D02*
X116205571Y-37158421D01*
X116205571Y-37158421D02*
X116205571Y-37294135D01*
X116205571Y-37294135D02*
X116250809Y-37384611D01*
X116250809Y-37384611D02*
X116296047Y-37429850D01*
X116296047Y-37429850D02*
X116386523Y-37475088D01*
X116386523Y-37475088D02*
X116748428Y-37475088D01*
X116748428Y-37475088D02*
X116748428Y-36525088D01*
X116748428Y-36525088D02*
X116431761Y-36525088D01*
X116431761Y-36525088D02*
X116341285Y-36570326D01*
X116341285Y-36570326D02*
X116296047Y-36615564D01*
X116296047Y-36615564D02*
X116250809Y-36706040D01*
X116250809Y-36706040D02*
X116250809Y-36796516D01*
X116250809Y-36796516D02*
X116296047Y-36886992D01*
X116296047Y-36886992D02*
X116341285Y-36932230D01*
X116341285Y-36932230D02*
X116431761Y-36977469D01*
X116431761Y-36977469D02*
X116748428Y-36977469D01*
X115617476Y-36525088D02*
X115436523Y-36525088D01*
X115436523Y-36525088D02*
X115346047Y-36570326D01*
X115346047Y-36570326D02*
X115255571Y-36660802D01*
X115255571Y-36660802D02*
X115210333Y-36841754D01*
X115210333Y-36841754D02*
X115210333Y-37158421D01*
X115210333Y-37158421D02*
X115255571Y-37339373D01*
X115255571Y-37339373D02*
X115346047Y-37429850D01*
X115346047Y-37429850D02*
X115436523Y-37475088D01*
X115436523Y-37475088D02*
X115617476Y-37475088D01*
X115617476Y-37475088D02*
X115707952Y-37429850D01*
X115707952Y-37429850D02*
X115798428Y-37339373D01*
X115798428Y-37339373D02*
X115843666Y-37158421D01*
X115843666Y-37158421D02*
X115843666Y-36841754D01*
X115843666Y-36841754D02*
X115798428Y-36660802D01*
X115798428Y-36660802D02*
X115707952Y-36570326D01*
X115707952Y-36570326D02*
X115617476Y-36525088D01*
X114486523Y-36977469D02*
X114350809Y-37022707D01*
X114350809Y-37022707D02*
X114305571Y-37067945D01*
X114305571Y-37067945D02*
X114260333Y-37158421D01*
X114260333Y-37158421D02*
X114260333Y-37294135D01*
X114260333Y-37294135D02*
X114305571Y-37384611D01*
X114305571Y-37384611D02*
X114350809Y-37429850D01*
X114350809Y-37429850D02*
X114441285Y-37475088D01*
X114441285Y-37475088D02*
X114803190Y-37475088D01*
X114803190Y-37475088D02*
X114803190Y-36525088D01*
X114803190Y-36525088D02*
X114486523Y-36525088D01*
X114486523Y-36525088D02*
X114396047Y-36570326D01*
X114396047Y-36570326D02*
X114350809Y-36615564D01*
X114350809Y-36615564D02*
X114305571Y-36706040D01*
X114305571Y-36706040D02*
X114305571Y-36796516D01*
X114305571Y-36796516D02*
X114350809Y-36886992D01*
X114350809Y-36886992D02*
X114396047Y-36932230D01*
X114396047Y-36932230D02*
X114486523Y-36977469D01*
X114486523Y-36977469D02*
X114803190Y-36977469D01*
X113672238Y-36525088D02*
X113491285Y-36525088D01*
X113491285Y-36525088D02*
X113400809Y-36570326D01*
X113400809Y-36570326D02*
X113310333Y-36660802D01*
X113310333Y-36660802D02*
X113265095Y-36841754D01*
X113265095Y-36841754D02*
X113265095Y-37158421D01*
X113265095Y-37158421D02*
X113310333Y-37339373D01*
X113310333Y-37339373D02*
X113400809Y-37429850D01*
X113400809Y-37429850D02*
X113491285Y-37475088D01*
X113491285Y-37475088D02*
X113672238Y-37475088D01*
X113672238Y-37475088D02*
X113762714Y-37429850D01*
X113762714Y-37429850D02*
X113853190Y-37339373D01*
X113853190Y-37339373D02*
X113898428Y-37158421D01*
X113898428Y-37158421D02*
X113898428Y-36841754D01*
X113898428Y-36841754D02*
X113853190Y-36660802D01*
X113853190Y-36660802D02*
X113762714Y-36570326D01*
X113762714Y-36570326D02*
X113672238Y-36525088D01*
X112677000Y-37022707D02*
X112677000Y-37475088D01*
X112993666Y-36525088D02*
X112677000Y-37022707D01*
X112677000Y-37022707D02*
X112360333Y-36525088D01*
X111410332Y-36525088D02*
X110822237Y-36525088D01*
X110822237Y-36525088D02*
X111138904Y-36886992D01*
X111138904Y-36886992D02*
X111003189Y-36886992D01*
X111003189Y-36886992D02*
X110912713Y-36932230D01*
X110912713Y-36932230D02*
X110867475Y-36977469D01*
X110867475Y-36977469D02*
X110822237Y-37067945D01*
X110822237Y-37067945D02*
X110822237Y-37294135D01*
X110822237Y-37294135D02*
X110867475Y-37384611D01*
X110867475Y-37384611D02*
X110912713Y-37429850D01*
X110912713Y-37429850D02*
X111003189Y-37475088D01*
X111003189Y-37475088D02*
X111274618Y-37475088D01*
X111274618Y-37475088D02*
X111365094Y-37429850D01*
X111365094Y-37429850D02*
X111410332Y-37384611D01*
X110415094Y-37384611D02*
X110369856Y-37429850D01*
X110369856Y-37429850D02*
X110415094Y-37475088D01*
X110415094Y-37475088D02*
X110460332Y-37429850D01*
X110460332Y-37429850D02*
X110415094Y-37384611D01*
X110415094Y-37384611D02*
X110415094Y-37475088D01*
X109781761Y-36525088D02*
X109691284Y-36525088D01*
X109691284Y-36525088D02*
X109600808Y-36570326D01*
X109600808Y-36570326D02*
X109555570Y-36615564D01*
X109555570Y-36615564D02*
X109510332Y-36706040D01*
X109510332Y-36706040D02*
X109465094Y-36886992D01*
X109465094Y-36886992D02*
X109465094Y-37113183D01*
X109465094Y-37113183D02*
X109510332Y-37294135D01*
X109510332Y-37294135D02*
X109555570Y-37384611D01*
X109555570Y-37384611D02*
X109600808Y-37429850D01*
X109600808Y-37429850D02*
X109691284Y-37475088D01*
X109691284Y-37475088D02*
X109781761Y-37475088D01*
X109781761Y-37475088D02*
X109872237Y-37429850D01*
X109872237Y-37429850D02*
X109917475Y-37384611D01*
X109917475Y-37384611D02*
X109962713Y-37294135D01*
X109962713Y-37294135D02*
X110007951Y-37113183D01*
X110007951Y-37113183D02*
X110007951Y-36886992D01*
X110007951Y-36886992D02*
X109962713Y-36706040D01*
X109962713Y-36706040D02*
X109917475Y-36615564D01*
X109917475Y-36615564D02*
X109872237Y-36570326D01*
X109872237Y-36570326D02*
X109781761Y-36525088D01*
D12*
X30345000Y-46556652D02*
X29202143Y-46556652D01*
X29773571Y-47128080D02*
X29773571Y-45985223D01*
X25416428Y-45699509D02*
X25559286Y-45628080D01*
X25559286Y-45628080D02*
X25773571Y-45628080D01*
X25773571Y-45628080D02*
X25987857Y-45699509D01*
X25987857Y-45699509D02*
X26130714Y-45842366D01*
X26130714Y-45842366D02*
X26202143Y-45985223D01*
X26202143Y-45985223D02*
X26273571Y-46270937D01*
X26273571Y-46270937D02*
X26273571Y-46485223D01*
X26273571Y-46485223D02*
X26202143Y-46770937D01*
X26202143Y-46770937D02*
X26130714Y-46913794D01*
X26130714Y-46913794D02*
X25987857Y-47056652D01*
X25987857Y-47056652D02*
X25773571Y-47128080D01*
X25773571Y-47128080D02*
X25630714Y-47128080D01*
X25630714Y-47128080D02*
X25416428Y-47056652D01*
X25416428Y-47056652D02*
X25345000Y-46985223D01*
X25345000Y-46985223D02*
X25345000Y-46485223D01*
X25345000Y-46485223D02*
X25630714Y-46485223D01*
X24702143Y-47128080D02*
X24702143Y-45628080D01*
X24702143Y-45628080D02*
X23845000Y-47128080D01*
X23845000Y-47128080D02*
X23845000Y-45628080D01*
X23130714Y-47128080D02*
X23130714Y-45628080D01*
X23130714Y-45628080D02*
X22773571Y-45628080D01*
X22773571Y-45628080D02*
X22559285Y-45699509D01*
X22559285Y-45699509D02*
X22416428Y-45842366D01*
X22416428Y-45842366D02*
X22344999Y-45985223D01*
X22344999Y-45985223D02*
X22273571Y-46270937D01*
X22273571Y-46270937D02*
X22273571Y-46485223D01*
X22273571Y-46485223D02*
X22344999Y-46770937D01*
X22344999Y-46770937D02*
X22416428Y-46913794D01*
X22416428Y-46913794D02*
X22559285Y-47056652D01*
X22559285Y-47056652D02*
X22773571Y-47128080D01*
X22773571Y-47128080D02*
X23130714Y-47128080D01*
X28987856Y-53944257D02*
X28273571Y-53944257D01*
X29130713Y-54372828D02*
X28630713Y-52872828D01*
X28630713Y-52872828D02*
X28130713Y-54372828D01*
X26773571Y-54229971D02*
X26844999Y-54301400D01*
X26844999Y-54301400D02*
X27059285Y-54372828D01*
X27059285Y-54372828D02*
X27202142Y-54372828D01*
X27202142Y-54372828D02*
X27416428Y-54301400D01*
X27416428Y-54301400D02*
X27559285Y-54158542D01*
X27559285Y-54158542D02*
X27630714Y-54015685D01*
X27630714Y-54015685D02*
X27702142Y-53729971D01*
X27702142Y-53729971D02*
X27702142Y-53515685D01*
X27702142Y-53515685D02*
X27630714Y-53229971D01*
X27630714Y-53229971D02*
X27559285Y-53087114D01*
X27559285Y-53087114D02*
X27416428Y-52944257D01*
X27416428Y-52944257D02*
X27202142Y-52872828D01*
X27202142Y-52872828D02*
X27059285Y-52872828D01*
X27059285Y-52872828D02*
X26844999Y-52944257D01*
X26844999Y-52944257D02*
X26773571Y-53015685D01*
X25273571Y-54229971D02*
X25344999Y-54301400D01*
X25344999Y-54301400D02*
X25559285Y-54372828D01*
X25559285Y-54372828D02*
X25702142Y-54372828D01*
X25702142Y-54372828D02*
X25916428Y-54301400D01*
X25916428Y-54301400D02*
X26059285Y-54158542D01*
X26059285Y-54158542D02*
X26130714Y-54015685D01*
X26130714Y-54015685D02*
X26202142Y-53729971D01*
X26202142Y-53729971D02*
X26202142Y-53515685D01*
X26202142Y-53515685D02*
X26130714Y-53229971D01*
X26130714Y-53229971D02*
X26059285Y-53087114D01*
X26059285Y-53087114D02*
X25916428Y-52944257D01*
X25916428Y-52944257D02*
X25702142Y-52872828D01*
X25702142Y-52872828D02*
X25559285Y-52872828D01*
X25559285Y-52872828D02*
X25344999Y-52944257D01*
X25344999Y-52944257D02*
X25273571Y-53015685D01*
X24630714Y-52872828D02*
X24630714Y-54087114D01*
X24630714Y-54087114D02*
X24559285Y-54229971D01*
X24559285Y-54229971D02*
X24487857Y-54301400D01*
X24487857Y-54301400D02*
X24344999Y-54372828D01*
X24344999Y-54372828D02*
X24059285Y-54372828D01*
X24059285Y-54372828D02*
X23916428Y-54301400D01*
X23916428Y-54301400D02*
X23844999Y-54229971D01*
X23844999Y-54229971D02*
X23773571Y-54087114D01*
X23773571Y-54087114D02*
X23773571Y-52872828D01*
%LPC*%
D14*
%TO.C,J301*%
X61807259Y-46527436D03*
D15*
X67807259Y-49991436D03*
X61807259Y-53455436D03*
%TD*%
D16*
%TO.C,J201*%
X91516400Y-64468500D03*
D17*
X91516400Y-61928500D03*
X94056400Y-64468500D03*
X94056400Y-61928500D03*
X96596400Y-64468500D03*
X96596400Y-61928500D03*
%TD*%
D18*
%TO.C,J306*%
X24734000Y-50000000D03*
D19*
X29734000Y-50000000D03*
%TD*%
D20*
%TO.C,SW301*%
X42982000Y-60160000D03*
D17*
X45522000Y-60160000D03*
X48062000Y-60160000D03*
%TD*%
D21*
%TO.C,J401*%
X104704000Y-53810000D03*
D17*
X104704000Y-51270000D03*
X104704000Y-48730000D03*
X104704000Y-46190000D03*
%TD*%
D22*
%TO.C,SW202*%
X104450000Y-60160000D03*
D17*
X104450000Y-62700000D03*
%TD*%
D18*
%TO.C,J305*%
X25100000Y-65000000D03*
D19*
X30100000Y-65000000D03*
%TD*%
D21*
%TO.C,J102*%
X110292000Y-53810000D03*
D17*
X110292000Y-51270000D03*
X110292000Y-48730000D03*
X110292000Y-46190000D03*
%TD*%
D23*
%TO.C,BZ201*%
X84384000Y-65240000D03*
D17*
X81844000Y-65240000D03*
%TD*%
D24*
%TO.C,J302*%
X42900000Y-36000000D03*
D25*
X40400000Y-36000000D03*
X37900000Y-36000000D03*
%TD*%
D22*
%TO.C,J203*%
X78796000Y-60160000D03*
D17*
X78796000Y-62700000D03*
X78796000Y-65240000D03*
%TD*%
D26*
%TO.C,J303*%
X37900000Y-64275000D03*
D25*
X40400000Y-64275000D03*
X42900000Y-64275000D03*
%TD*%
D18*
%TO.C,J304*%
X25100000Y-35000000D03*
D19*
X30100000Y-35000000D03*
%TD*%
%LPD*%
M02*
