%TF.GenerationSoftware,KiCad,Pcbnew,9.0.2*%
%TF.CreationDate,2025-06-17T18:05:03+02:00*%
%TF.ProjectId,Robobuoy-Top-v2_1,526f626f-6275-46f7-992d-546f702d7632,rev?*%
%TF.SameCoordinates,Original*%
%TF.FileFunction,Soldermask,Top*%
%TF.FilePolarity,Negative*%
%FSLAX46Y46*%
G04 Gerber Fmt 4.6, Leading zero omitted, Abs format (unit mm)*
G04 Created by KiCad (PCBNEW 9.0.2) date 2025-06-17 18:05:03*
%MOMM*%
%LPD*%
G01*
G04 APERTURE LIST*
G04 Aperture macros list*
%AMRoundRect*
0 Rectangle with rounded corners*
0 $1 Rounding radius*
0 $2 $3 $4 $5 $6 $7 $8 $9 X,Y pos of 4 corners*
0 Add a 4 corners polygon primitive as box body*
4,1,4,$2,$3,$4,$5,$6,$7,$8,$9,$2,$3,0*
0 Add four circle primitives for the rounded corners*
1,1,$1+$1,$2,$3*
1,1,$1+$1,$4,$5*
1,1,$1+$1,$6,$7*
1,1,$1+$1,$8,$9*
0 Add four rect primitives between the rounded corners*
20,1,$1+$1,$2,$3,$4,$5,0*
20,1,$1+$1,$4,$5,$6,$7,0*
20,1,$1+$1,$6,$7,$8,$9,0*
20,1,$1+$1,$8,$9,$2,$3,0*%
G04 Aperture macros list end*
%ADD10RoundRect,0.375000X-0.475000X0.375000X-0.475000X-0.375000X0.475000X-0.375000X0.475000X0.375000X0*%
%ADD11RoundRect,0.090000X0.660000X0.360000X-0.660000X0.360000X-0.660000X-0.360000X0.660000X-0.360000X0*%
%ADD12RoundRect,0.200000X-0.200000X-0.250000X0.200000X-0.250000X0.200000X0.250000X-0.200000X0.250000X0*%
%ADD13RoundRect,0.200000X0.250000X-0.200000X0.250000X0.200000X-0.250000X0.200000X-0.250000X-0.200000X0*%
%ADD14RoundRect,0.200000X0.200000X0.250000X-0.200000X0.250000X-0.200000X-0.250000X0.200000X-0.250000X0*%
%ADD15RoundRect,0.250000X-0.600000X-0.725000X0.600000X-0.725000X0.600000X0.725000X-0.600000X0.725000X0*%
%ADD16O,1.700000X1.950000*%
%ADD17RoundRect,0.200000X-0.250000X0.200000X-0.250000X-0.200000X0.250000X-0.200000X0.250000X0.200000X0*%
%ADD18C,1.400000*%
%ADD19R,1.700000X1.700000*%
%ADD20C,1.700000*%
%ADD21RoundRect,0.225000X-0.225000X-0.425000X0.225000X-0.425000X0.225000X0.425000X-0.225000X0.425000X0*%
%ADD22RoundRect,0.250000X1.100000X-0.325000X1.100000X0.325000X-1.100000X0.325000X-1.100000X-0.325000X0*%
%ADD23RoundRect,0.250000X-0.325000X-1.100000X0.325000X-1.100000X0.325000X1.100000X-0.325000X1.100000X0*%
%ADD24RoundRect,0.250000X0.600000X-0.600000X0.600000X0.600000X-0.600000X0.600000X-0.600000X-0.600000X0*%
%ADD25RoundRect,0.150000X-0.587500X-0.150000X0.587500X-0.150000X0.587500X0.150000X-0.587500X0.150000X0*%
%ADD26RoundRect,0.112500X0.187500X0.112500X-0.187500X0.112500X-0.187500X-0.112500X0.187500X-0.112500X0*%
%ADD27RoundRect,0.250000X-1.000000X-0.650000X1.000000X-0.650000X1.000000X0.650000X-1.000000X0.650000X0*%
%ADD28RoundRect,0.300000X0.300000X0.400000X-0.300000X0.400000X-0.300000X-0.400000X0.300000X-0.400000X0*%
%ADD29RoundRect,0.250000X-1.100000X0.325000X-1.100000X-0.325000X1.100000X-0.325000X1.100000X0.325000X0*%
%ADD30R,1.500000X2.000000*%
%ADD31RoundRect,0.225000X0.225000X-0.525000X0.225000X0.525000X-0.225000X0.525000X-0.225000X-0.525000X0*%
%ADD32RoundRect,0.225000X0.525000X0.225000X-0.525000X0.225000X-0.525000X-0.225000X0.525000X-0.225000X0*%
%ADD33RoundRect,0.250000X2.250000X-2.250000X2.250000X2.250000X-2.250000X2.250000X-2.250000X-2.250000X0*%
%ADD34RoundRect,0.150000X0.825000X0.150000X-0.825000X0.150000X-0.825000X-0.150000X0.825000X-0.150000X0*%
%ADD35R,2.410000X3.810000*%
%ADD36RoundRect,0.250000X0.850000X0.350000X-0.850000X0.350000X-0.850000X-0.350000X0.850000X-0.350000X0*%
%ADD37RoundRect,0.249997X2.950003X2.650003X-2.950003X2.650003X-2.950003X-2.650003X2.950003X-2.650003X0*%
%ADD38RoundRect,0.150000X0.587500X0.150000X-0.587500X0.150000X-0.587500X-0.150000X0.587500X-0.150000X0*%
%ADD39RoundRect,0.250000X0.600000X0.725000X-0.600000X0.725000X-0.600000X-0.725000X0.600000X-0.725000X0*%
%ADD40RoundRect,0.375000X0.475000X-0.375000X0.475000X0.375000X-0.475000X0.375000X-0.475000X-0.375000X0*%
%ADD41RoundRect,0.112500X-0.112500X0.187500X-0.112500X-0.187500X0.112500X-0.187500X0.112500X0.187500X0*%
%ADD42RoundRect,0.206250X-0.618750X-0.618750X0.618750X-0.618750X0.618750X0.618750X-0.618750X0.618750X0*%
%ADD43RoundRect,0.250000X-0.725000X0.600000X-0.725000X-0.600000X0.725000X-0.600000X0.725000X0.600000X0*%
%ADD44O,1.950000X1.700000*%
%ADD45RoundRect,0.300000X-0.300000X-0.400000X0.300000X-0.400000X0.300000X0.400000X-0.300000X0.400000X0*%
%ADD46RoundRect,0.230769X0.969231X1.519231X-0.969231X1.519231X-0.969231X-1.519231X0.969231X-1.519231X0*%
%ADD47R,1.650000X1.650000*%
%ADD48RoundRect,0.250000X0.325000X1.100000X-0.325000X1.100000X-0.325000X-1.100000X0.325000X-1.100000X0*%
%ADD49C,3.000000*%
%ADD50RoundRect,0.150000X0.150000X-0.587500X0.150000X0.587500X-0.150000X0.587500X-0.150000X-0.587500X0*%
%ADD51C,1.000000*%
G04 APERTURE END LIST*
D10*
%TO.C,C203*%
X38747000Y-12143000D03*
X38747000Y-15543000D03*
%TD*%
D11*
%TO.C,D102*%
X15429400Y-8873000D03*
X15429400Y-5573000D03*
X10529400Y-5573000D03*
X10529400Y-8873000D03*
%TD*%
D12*
%TO.C,R103*%
X-23102000Y-11633200D03*
X-21602000Y-11633200D03*
%TD*%
%TO.C,C215*%
X22706200Y-9169400D03*
X24206200Y-9169400D03*
%TD*%
D13*
%TO.C,C205*%
X35445000Y-10275000D03*
X35445000Y-8775000D03*
%TD*%
D14*
%TO.C,R110*%
X24778400Y13004800D03*
X23278400Y13004800D03*
%TD*%
D15*
%TO.C,J103*%
X-2463800Y20650200D03*
D16*
X36200Y20650200D03*
X2536200Y20650200D03*
X5036200Y20650200D03*
%TD*%
D17*
%TO.C,R105*%
X-22606000Y-13728000D03*
X-22606000Y-15228000D03*
%TD*%
D14*
%TO.C,R217*%
X-14896400Y-11709400D03*
X-16396400Y-11709400D03*
%TD*%
D12*
%TO.C,C101*%
X-28639200Y12547600D03*
X-27139200Y12547600D03*
%TD*%
D14*
%TO.C,R102*%
X-27139200Y13919200D03*
X-28639200Y13919200D03*
%TD*%
D18*
%TO.C,TP204*%
X33731200Y-1574800D03*
%TD*%
D11*
%TO.C,D104*%
X15429400Y5351000D03*
X15429400Y8651000D03*
X10529400Y8651000D03*
X10529400Y5351000D03*
%TD*%
D12*
%TO.C,R108*%
X-13754800Y-10312400D03*
X-12254800Y-10312400D03*
%TD*%
%TO.C,R219*%
X15772000Y-18719800D03*
X17272000Y-18719800D03*
%TD*%
D10*
%TO.C,C201*%
X34175000Y-12143000D03*
X34175000Y-15543000D03*
%TD*%
D19*
%TO.C,SW102*%
X-28194000Y16505000D03*
D20*
X-28194000Y19045000D03*
%TD*%
D12*
%TO.C,C110*%
X-23102000Y-10312400D03*
X-21602000Y-10312400D03*
%TD*%
D21*
%TO.C,C210*%
X33683000Y-5461000D03*
X35683000Y-5461000D03*
%TD*%
D22*
%TO.C,C207*%
X7162800Y-16334000D03*
X7162800Y-13384000D03*
%TD*%
D23*
%TO.C,C217*%
X18895800Y-18034000D03*
X21845800Y-18034000D03*
%TD*%
D14*
%TO.C,R205*%
X24794400Y9448800D03*
X23294400Y9448800D03*
%TD*%
%TO.C,C105*%
X-27494800Y-11582400D03*
X-28994800Y-11582400D03*
%TD*%
D13*
%TO.C,C206*%
X34061400Y-10275000D03*
X34061400Y-8775000D03*
%TD*%
D12*
%TO.C,R215*%
X25398600Y-6426200D03*
X26898600Y-6426200D03*
%TD*%
D17*
%TO.C,R104*%
X-16764000Y-13728000D03*
X-16764000Y-15228000D03*
%TD*%
D18*
%TO.C,TP202*%
X40640000Y8280400D03*
%TD*%
D12*
%TO.C,R214*%
X22706200Y-6426200D03*
X24206200Y-6426200D03*
%TD*%
D17*
%TO.C,C220*%
X-20320000Y-10222800D03*
X-20320000Y-11722800D03*
%TD*%
D14*
%TO.C,R206*%
X29845000Y-6426200D03*
X28345000Y-6426200D03*
%TD*%
%TO.C,R107*%
X2401000Y13741400D03*
X901000Y13741400D03*
%TD*%
D24*
%TO.C,J101*%
X-17277000Y15249500D03*
D20*
X-17277000Y17789500D03*
X-14737000Y15249500D03*
X-14737000Y17789500D03*
X-12197000Y15249500D03*
X-12197000Y17789500D03*
%TD*%
D17*
%TO.C,R106*%
X40665400Y-13194600D03*
X40665400Y-14694600D03*
%TD*%
D25*
%TO.C,Q203*%
X23243300Y6729900D03*
X23243300Y4829900D03*
X25118300Y5779900D03*
%TD*%
D14*
%TO.C,C107*%
X13729400Y-3667000D03*
X12229400Y-3667000D03*
%TD*%
D26*
%TO.C,D202*%
X21878000Y-2794000D03*
X19778000Y-2794000D03*
%TD*%
D13*
%TO.C,C208*%
X4876800Y-15431200D03*
X4876800Y-13931200D03*
%TD*%
D14*
%TO.C,R203*%
X30417200Y-2717800D03*
X28917200Y-2717800D03*
%TD*%
D25*
%TO.C,Q117*%
X30523700Y11022500D03*
X30523700Y9122500D03*
X32398700Y10072500D03*
%TD*%
D10*
%TO.C,C202*%
X36461000Y-12143000D03*
X36461000Y-15543000D03*
%TD*%
D19*
%TO.C,SW101*%
X-24638000Y16510000D03*
D20*
X-24638000Y19050000D03*
%TD*%
D13*
%TO.C,C219*%
X18135600Y-9208200D03*
X18135600Y-7708200D03*
%TD*%
D27*
%TO.C,D204*%
X26841000Y-14249400D03*
X30841000Y-14249400D03*
%TD*%
D12*
%TO.C,R201*%
X23481600Y-2717800D03*
X24981600Y-2717800D03*
%TD*%
D28*
%TO.C,D105*%
X28448000Y13004800D03*
X26448000Y13004800D03*
%TD*%
D29*
%TO.C,C212*%
X7162800Y-18006800D03*
X7162800Y-20956800D03*
%TD*%
D12*
%TO.C,C213*%
X28091000Y-16713200D03*
X29591000Y-16713200D03*
%TD*%
D21*
%TO.C,C211*%
X33683000Y-7239000D03*
X35683000Y-7239000D03*
%TD*%
D14*
%TO.C,C106*%
X-27494800Y-12903200D03*
X-28994800Y-12903200D03*
%TD*%
D30*
%TO.C,U301*%
X-6610000Y-7610000D03*
X-4610000Y-7610000D03*
X-2610000Y-7610000D03*
X-610000Y-7610000D03*
X1390000Y-7610000D03*
X3390000Y-7610000D03*
X5390000Y-7610000D03*
X7390000Y-7610000D03*
X7390000Y8390000D03*
X5390000Y8390000D03*
X3390000Y8390000D03*
X1390000Y8390000D03*
X-610000Y8390000D03*
X-2610000Y8390000D03*
X-4610000Y8390000D03*
X-6610000Y8390000D03*
%TD*%
D11*
%TO.C,D103*%
X15429400Y-1777000D03*
X15429400Y1523000D03*
X10529400Y1523000D03*
X10529400Y-1777000D03*
%TD*%
D12*
%TO.C,R212*%
X27164600Y2971800D03*
X28664600Y2971800D03*
%TD*%
D23*
%TO.C,C301*%
X-713000Y-10668000D03*
X2237000Y-10668000D03*
%TD*%
D17*
%TO.C,R216*%
X-17653000Y-10248200D03*
X-17653000Y-11748200D03*
%TD*%
%TO.C,C209*%
X4902200Y-17741200D03*
X4902200Y-19241200D03*
%TD*%
D31*
%TO.C,U101*%
X-28117000Y-8360000D03*
X-26847000Y-8360000D03*
X-25577000Y-8360000D03*
X-24307000Y-8360000D03*
X-23037000Y-8360000D03*
X-21767000Y-8360000D03*
X-20497000Y-8360000D03*
X-19227000Y-8360000D03*
X-17957000Y-8360000D03*
X-16687000Y-8360000D03*
X-15417000Y-8360000D03*
X-14147000Y-8360000D03*
X-12877000Y-8360000D03*
X-11607000Y-8360000D03*
D32*
X-10357000Y-5325000D03*
X-10357000Y-4055000D03*
X-10357000Y-2785000D03*
X-10357000Y-1515000D03*
X-10357000Y-245000D03*
X-10357000Y1025000D03*
X-10357000Y2295000D03*
X-10357000Y3565000D03*
X-10357000Y4835000D03*
X-10357000Y6105000D03*
D31*
X-11607000Y9140000D03*
X-12877000Y9140000D03*
X-14147000Y9140000D03*
X-15417000Y9140000D03*
X-16687000Y9140000D03*
X-17957000Y9140000D03*
X-19227000Y9140000D03*
X-20497000Y9140000D03*
X-21767000Y9140000D03*
X-23037000Y9140000D03*
X-24307000Y9140000D03*
X-25577000Y9140000D03*
X-26847000Y9140000D03*
X-28117000Y9140000D03*
D33*
X-20772000Y-470000D03*
%TD*%
D34*
%TO.C,U202*%
X31570000Y-11684000D03*
X31570000Y-10414000D03*
X31570000Y-9144000D03*
X31570000Y-7874000D03*
X26620000Y-7874000D03*
X26620000Y-9144000D03*
X26620000Y-10414000D03*
X26620000Y-11684000D03*
D35*
X29095000Y-9779000D03*
%TD*%
D18*
%TO.C,TP201*%
X31431800Y-5105400D03*
%TD*%
D36*
%TO.C,U201*%
X2804800Y-19501200D03*
X2804800Y-17221200D03*
D37*
X-3495200Y-17221200D03*
D36*
X2804800Y-14941200D03*
%TD*%
D38*
%TO.C,Q201*%
X32551100Y12562800D03*
X32551100Y14462800D03*
X30676100Y13512800D03*
%TD*%
D17*
%TO.C,R218*%
X-18999200Y-10222800D03*
X-18999200Y-11722800D03*
%TD*%
D38*
%TO.C,Q101*%
X-18620500Y-15428000D03*
X-18620500Y-13528000D03*
X-20495500Y-14478000D03*
%TD*%
D13*
%TO.C,R109*%
X34204400Y11035600D03*
X34204400Y12535600D03*
%TD*%
D29*
%TO.C,C103*%
X-29718000Y-15035000D03*
X-29718000Y-17985000D03*
%TD*%
D12*
%TO.C,C218*%
X22706200Y-7848600D03*
X24206200Y-7848600D03*
%TD*%
D39*
%TO.C,J102*%
X-12649200Y-20599400D03*
D16*
X-15149200Y-20599400D03*
X-17649200Y-20599400D03*
X-20149200Y-20599400D03*
X-22649200Y-20599400D03*
X-25149200Y-20599400D03*
%TD*%
D40*
%TO.C,C204*%
X37477000Y-10209000D03*
X37477000Y-6809000D03*
%TD*%
D17*
%TO.C,C303*%
X-2286000Y-9918000D03*
X-2286000Y-11418000D03*
%TD*%
D41*
%TO.C,D101*%
X6959600Y16188400D03*
X6959600Y14088400D03*
%TD*%
D42*
%TO.C,SW201*%
X25960000Y0D03*
D20*
X28500000Y0D03*
X31040000Y0D03*
%TD*%
D14*
%TO.C,C104*%
X-27494800Y-10261600D03*
X-28994800Y-10261600D03*
%TD*%
D43*
%TO.C,J201*%
X40640000Y2500000D03*
D44*
X40640000Y0D03*
X40640000Y-2500000D03*
%TD*%
D28*
%TO.C,D108*%
X28448000Y9448800D03*
X26448000Y9448800D03*
%TD*%
D45*
%TO.C,D205*%
X12258800Y-18719800D03*
X14258800Y-18719800D03*
%TD*%
D17*
%TO.C,R129*%
X33731200Y1782800D03*
X33731200Y282800D03*
%TD*%
D46*
%TO.C,L201*%
X23828000Y-13131800D03*
X17828000Y-13131800D03*
%TD*%
D12*
%TO.C,R202*%
X26224800Y-2717800D03*
X27724800Y-2717800D03*
%TD*%
D22*
%TO.C,C216*%
X20459000Y-8968000D03*
X20459000Y-6018000D03*
%TD*%
D14*
%TO.C,R111*%
X28706000Y11226800D03*
X27206000Y11226800D03*
%TD*%
D47*
%TO.C,BZ101*%
X14579600Y19861600D03*
D20*
X14579600Y13361600D03*
%TD*%
D25*
%TO.C,Q102*%
X4040900Y13751600D03*
X4040900Y11851600D03*
X5915900Y12801600D03*
%TD*%
D14*
%TO.C,R210*%
X21501800Y6731000D03*
X20001800Y6731000D03*
%TD*%
D18*
%TO.C,TP203*%
X25386600Y-4851400D03*
%TD*%
D14*
%TO.C,C108*%
X13729400Y3445000D03*
X12229400Y3445000D03*
%TD*%
D41*
%TO.C,D109*%
X35509200Y2082800D03*
X35509200Y-17200D03*
%TD*%
D48*
%TO.C,C302*%
X-3859000Y-10668000D03*
X-6809000Y-10668000D03*
%TD*%
D22*
%TO.C,C102*%
X-25298400Y-13413000D03*
X-25298400Y-10463000D03*
%TD*%
D12*
%TO.C,R101*%
X-25489600Y13919200D03*
X-23989600Y13919200D03*
%TD*%
D49*
%TO.C,TP205*%
X21183600Y812800D03*
%TD*%
D10*
%TO.C,C221*%
X14986000Y-13133600D03*
X14986000Y-16533600D03*
%TD*%
D14*
%TO.C,C109*%
X15177200Y-11277600D03*
X13677200Y-11277600D03*
%TD*%
%TO.C,R204*%
X29845000Y-5105400D03*
X28345000Y-5105400D03*
%TD*%
D50*
%TO.C,Q204*%
X27026700Y4650500D03*
X28926700Y4650500D03*
X27976700Y6525500D03*
%TD*%
D12*
%TO.C,R213*%
X24319800Y2971800D03*
X25819800Y2971800D03*
%TD*%
D51*
%TO.C,TP101*%
X889000Y12344400D03*
%TD*%
M02*
