M48
; DRILL file {KiCad 9.0.0-rc1} date 2025-03-28T12:21:10+0100
; FORMAT={-:-/ absolute / inch / decimal}
; #@! TF.CreationDate,2025-03-28T12:21:10+01:00
; #@! TF.GenerationSoftware,Kicad,Pcbnew,9.0.0-rc1
; #@! TF.FileFunction,Plated,1,4,PTH
FMAT,2
INCH
; #@! TA.AperFunction,Plated,PTH,ComponentDrill
T1C0.0079
; #@! TA.AperFunction,Plated,PTH,ViaDrill
T2C0.0098
; #@! TA.AperFunction,Plated,PTH,ViaDrill
T3C0.0118
; #@! TA.AperFunction,Plated,PTH,ViaDrill
T4C0.0157
; #@! TA.AperFunction,Plated,PTH,ComponentDrill
T5C0.0315
; #@! TA.AperFunction,Plated,PTH,ComponentDrill
T6C0.0374
; #@! TA.AperFunction,Plated,PTH,ComponentDrill
T7C0.0394
; #@! TA.AperFunction,Plated,PTH,ComponentDrill
T8C0.0591
%
G90
G05
T1
X1.0Y-0.0083
X1.0Y-0.0615
X1.0Y-0.1146
X1.0748Y-0.0083
X1.0748Y-0.0615
X1.0748Y-0.1146
T2
X-0.79Y0.555
X-0.742Y-0.731
X-0.575Y-0.728
X-0.528Y0.211
X-0.429Y-0.529
X-0.395Y-0.605
X-0.296Y0.391
X-0.239Y0.398
X-0.213Y-0.095
X-0.159Y-0.042
X-0.149Y0.234
X0.108Y-0.849
X0.12Y0.229
X0.182Y0.373
X0.241Y0.611
X0.263Y0.42
X0.266Y0.375
X0.4065Y0.3995
X0.579Y0.5568
X0.579Y0.6002
X1.126Y0.885
X1.143Y-0.743
X1.245Y-0.167
X1.25Y-0.435
X1.282Y-0.493
X1.418Y-0.513
X1.46Y0.291
T3
X-0.805Y-0.537
X-0.671Y-0.516
X0.0382Y-0.26
X0.0382Y-0.372
X0.04Y0.38
X0.06Y-0.62
X0.1169Y-0.262
X0.225Y-0.485
X0.36Y-0.5181
X0.49Y-0.5181
X0.59Y0.385
X0.59Y0.25
X0.63Y-0.52
X0.715Y-0.24
X0.72Y0.265
X0.748Y-0.558
X0.755Y-0.0113
X0.825Y-0.285
X0.9Y-0.33
X1.01Y-0.595
X1.26Y-0.205
T4
X-0.8115Y-0.3915
X-0.797Y-0.289
X-0.797Y0.394
X-0.797Y0.295
X-0.604Y0.063
X-0.604Y-0.129
X-0.592Y-0.443
X-0.5078Y-0.0339
X-0.413Y0.064
X-0.412Y-0.13
X-0.156Y-0.225
X-0.04Y-0.225
X0.846Y-0.56
X1.0374Y0.7546
X1.414Y-0.182
T5
X0.3558Y-0.82
X0.6117Y-0.82
T6
X-0.7284Y-0.93
X-0.63Y-0.93
X-0.5316Y-0.93
X-0.4331Y-0.93
X-0.3347Y-0.93
X-0.2363Y-0.93
X0.0724Y0.7793
X0.1708Y0.7793
X0.2692Y0.7793
X0.3676Y0.7793
X0.6331Y0.78
X0.7316Y0.78
X0.83Y0.78
X1.3386Y0.0984
X1.3386Y0.0
X1.3386Y-0.0984
T7
X-0.6302Y0.47
X-0.5302Y0.7904
X-0.5302Y0.6904
X-0.5302Y0.47
X-0.4302Y0.7904
X-0.4302Y0.6904
X-0.3302Y0.7904
X-0.3302Y0.6904
X-0.33Y0.47
X-0.23Y0.47
X0.8238Y0.31
X0.8238Y0.21
X0.8238Y0.11
T8
X-0.435Y-0.728
M30
