%TF.GenerationSoftware,KiCad,Pcbnew,9.0.2*%
%TF.CreationDate,2025-06-17T18:05:03+02:00*%
%TF.ProjectId,Robobuoy-Top-v2_1,526f626f-6275-46f7-992d-546f702d7632,rev?*%
%TF.SameCoordinates,Original*%
%TF.FileFunction,Copper,L4,Bot*%
%TF.FilePolarity,Positive*%
%FSLAX46Y46*%
G04 Gerber Fmt 4.6, Leading zero omitted, Abs format (unit mm)*
G04 Created by KiCad (PCBNEW 9.0.2) date 2025-06-17 18:05:03*
%MOMM*%
%LPD*%
G01*
G04 APERTURE LIST*
G04 Aperture macros list*
%AMRoundRect*
0 Rectangle with rounded corners*
0 $1 Rounding radius*
0 $2 $3 $4 $5 $6 $7 $8 $9 X,Y pos of 4 corners*
0 Add a 4 corners polygon primitive as box body*
4,1,4,$2,$3,$4,$5,$6,$7,$8,$9,$2,$3,0*
0 Add four circle primitives for the rounded corners*
1,1,$1+$1,$2,$3*
1,1,$1+$1,$4,$5*
1,1,$1+$1,$6,$7*
1,1,$1+$1,$8,$9*
0 Add four rect primitives between the rounded corners*
20,1,$1+$1,$2,$3,$4,$5,0*
20,1,$1+$1,$4,$5,$6,$7,0*
20,1,$1+$1,$6,$7,$8,$9,0*
20,1,$1+$1,$8,$9,$2,$3,0*%
G04 Aperture macros list end*
%TA.AperFunction,ComponentPad*%
%ADD10RoundRect,0.250000X-0.600000X-0.725000X0.600000X-0.725000X0.600000X0.725000X-0.600000X0.725000X0*%
%TD*%
%TA.AperFunction,ComponentPad*%
%ADD11O,1.700000X1.950000*%
%TD*%
%TA.AperFunction,ComponentPad*%
%ADD12R,1.700000X1.700000*%
%TD*%
%TA.AperFunction,ComponentPad*%
%ADD13C,1.700000*%
%TD*%
%TA.AperFunction,ComponentPad*%
%ADD14RoundRect,0.250000X0.600000X-0.600000X0.600000X0.600000X-0.600000X0.600000X-0.600000X-0.600000X0*%
%TD*%
%TA.AperFunction,HeatsinkPad*%
%ADD15C,0.500000*%
%TD*%
%TA.AperFunction,HeatsinkPad*%
%ADD16R,1.900000X3.300000*%
%TD*%
%TA.AperFunction,ComponentPad*%
%ADD17RoundRect,0.250000X0.600000X0.725000X-0.600000X0.725000X-0.600000X-0.725000X0.600000X-0.725000X0*%
%TD*%
%TA.AperFunction,ComponentPad*%
%ADD18RoundRect,0.206250X-0.618750X-0.618750X0.618750X-0.618750X0.618750X0.618750X-0.618750X0.618750X0*%
%TD*%
%TA.AperFunction,ComponentPad*%
%ADD19RoundRect,0.250000X-0.725000X0.600000X-0.725000X-0.600000X0.725000X-0.600000X0.725000X0.600000X0*%
%TD*%
%TA.AperFunction,ComponentPad*%
%ADD20O,1.950000X1.700000*%
%TD*%
%TA.AperFunction,ComponentPad*%
%ADD21R,1.650000X1.650000*%
%TD*%
%TA.AperFunction,ComponentPad*%
%ADD22C,3.000000*%
%TD*%
%TA.AperFunction,ViaPad*%
%ADD23C,0.450000*%
%TD*%
%TA.AperFunction,ViaPad*%
%ADD24C,0.800000*%
%TD*%
%TA.AperFunction,Conductor*%
%ADD25C,0.400000*%
%TD*%
%TA.AperFunction,Conductor*%
%ADD26C,0.200000*%
%TD*%
G04 APERTURE END LIST*
D10*
%TO.P,J103,1,Pin_1*%
%TO.N,/CPU/TX_GPS*%
X-2463800Y20650200D03*
D11*
%TO.P,J103,2,Pin_2*%
%TO.N,/CPU/RX_GPS*%
X36200Y20650200D03*
%TO.P,J103,3,Pin_3*%
%TO.N,+5V*%
X2536200Y20650200D03*
%TO.P,J103,4,Pin_4*%
%TO.N,GND*%
X5036200Y20650200D03*
%TD*%
D12*
%TO.P,SW102,1,1*%
%TO.N,GND*%
X-28194000Y16505000D03*
D13*
%TO.P,SW102,2,2*%
%TO.N,EN*%
X-28194000Y19045000D03*
%TD*%
D14*
%TO.P,J101,1,Pin_1*%
%TO.N,EN*%
X-17277000Y15249500D03*
D13*
%TO.P,J101,2,Pin_2*%
%TO.N,+3.3V*%
X-17277000Y17789500D03*
%TO.P,J101,3,Pin_3*%
%TO.N,TX*%
X-14737000Y15249500D03*
%TO.P,J101,4,Pin_4*%
%TO.N,GND*%
X-14737000Y17789500D03*
%TO.P,J101,5,Pin_5*%
%TO.N,RX*%
X-12197000Y15249500D03*
%TO.P,J101,6,Pin_6*%
%TO.N,DR0*%
X-12197000Y17789500D03*
%TD*%
D12*
%TO.P,SW101,1,1*%
%TO.N,GND*%
X-24638000Y16510000D03*
D13*
%TO.P,SW101,2,2*%
%TO.N,DR0*%
X-24638000Y19050000D03*
%TD*%
D15*
%TO.P,U202,9,Thermal_Pad*%
%TO.N,GND*%
X29795000Y-11179000D03*
X29795000Y-9779000D03*
X29795000Y-8379000D03*
D16*
X29095000Y-9779000D03*
D15*
X28395000Y-11179000D03*
X28395000Y-9779000D03*
X28395000Y-8379000D03*
%TD*%
D17*
%TO.P,J102,1,Pin_1*%
%TO.N,Net-(J102-Pin_1)*%
X-12649200Y-20599400D03*
D11*
%TO.P,J102,2,Pin_2*%
%TO.N,Net-(J102-Pin_2)*%
X-15149200Y-20599400D03*
%TO.P,J102,3,Pin_3*%
%TO.N,+3.3V*%
X-17649200Y-20599400D03*
%TO.P,J102,4,Pin_4*%
%TO.N,GND*%
X-20149200Y-20599400D03*
%TO.P,J102,5,Pin_5*%
%TO.N,/CPU/ON*%
X-22649200Y-20599400D03*
%TO.P,J102,6,Pin_6*%
%TO.N,Net-(J102-Pin_6)*%
X-25149200Y-20599400D03*
%TD*%
D18*
%TO.P,SW201,1*%
%TO.N,Vbatt*%
X25960000Y0D03*
D13*
%TO.P,SW201,2*%
%TO.N,Net-(R201-Pad1)*%
X28500000Y0D03*
%TO.P,SW201,3*%
%TO.N,GND*%
X31040000Y0D03*
%TD*%
D19*
%TO.P,J201,1,Pin_1*%
%TO.N,Vbatt*%
X40640000Y2500000D03*
D20*
%TO.P,J201,2,Pin_2*%
%TO.N,/PSU/COM*%
X40640000Y0D03*
%TO.P,J201,3,Pin_3*%
%TO.N,GND*%
X40640000Y-2500000D03*
%TD*%
D21*
%TO.P,BZ101,1,+*%
%TO.N,+5V*%
X14579600Y19861600D03*
D13*
%TO.P,BZ101,2,-*%
%TO.N,Net-(BZ101--)*%
X14579600Y13361600D03*
%TD*%
D22*
%TO.P,TP205,1,1*%
%TO.N,GND*%
X21183600Y812800D03*
%TD*%
D23*
%TO.N,+3.3V*%
X15976600Y6375400D03*
X18567400Y8458200D03*
D24*
%TO.N,GND*%
X-28194000Y-6858000D03*
D23*
X7390000Y9980800D03*
X7391400Y6731000D03*
X9768200Y1524000D03*
X-29108400Y5892800D03*
X42392600Y16459200D03*
D24*
X-29718000Y-16764000D03*
D23*
X-36500000Y-16500000D03*
X4165600Y-19501200D03*
X-21107400Y-9550400D03*
X5365400Y-13442600D03*
X-2286000Y-12268200D03*
X-36500000Y15500000D03*
X20243800Y-7721600D03*
X36398200Y-8775000D03*
X19558000Y-7708200D03*
X12801600Y-11277600D03*
X21869400Y4826000D03*
X5969000Y-19241200D03*
X36271200Y22377400D03*
X-32029400Y-16560800D03*
X36474400Y-17424400D03*
X35683000Y-6350000D03*
X-29286200Y1447800D03*
X-30403800Y22529800D03*
D24*
X-25400000Y-11684000D03*
D23*
X34747200Y-8775000D03*
X37668200Y-15543000D03*
X33352983Y-9298456D03*
X-20772000Y-470000D03*
X-28143200Y10414000D03*
X24206200Y-10363200D03*
X-29260800Y-2184400D03*
X25095200Y-10414000D03*
X-6604000Y-5943600D03*
X-36500000Y-14500000D03*
D24*
X-28448000Y-13716000D03*
D23*
X-29413200Y-5308600D03*
X-30657800Y15570200D03*
X21845800Y-16027400D03*
X-29413200Y-6680200D03*
X-36652200Y16459200D03*
X-5715000Y-10987800D03*
X7200900Y-19875500D03*
X-29108400Y3098800D03*
X42519600Y-16408400D03*
X-30810200Y16738600D03*
X31826200Y9093200D03*
X9321800Y8636000D03*
X-28143200Y7899400D03*
X5308600Y11836400D03*
X16459200Y-16535400D03*
X-7874000Y8382000D03*
X-29362400Y-4267200D03*
X1016000Y-10987800D03*
X11379200Y-3556000D03*
X-29057600Y5054600D03*
X35306000Y-15543000D03*
X-29286200Y-1092200D03*
X-18923000Y-12573000D03*
X-29260800Y50800D03*
X-29260800Y-3200400D03*
X36271200Y16764000D03*
X-29540200Y-13868400D03*
X32950700Y-14318700D03*
X36525200Y-22631400D03*
X11963400Y-6223000D03*
X11303000Y3606800D03*
X33934400Y14427200D03*
X-11658600Y-5334000D03*
X-4597400Y-5816600D03*
X-29438600Y-7950200D03*
%TO.N,Net-(U202-BOOT)*%
X30480000Y-16357600D03*
X32410400Y-12649200D03*
%TO.N,/CPU/RX_SUB*%
X-21766999Y10514799D03*
X-21577300Y21501100D03*
%TO.N,/CPU/TX_SUB*%
X-23495000Y11607800D03*
X-23368000Y21234400D03*
%TO.N,DR0*%
X-10515600Y15316200D03*
X-11607000Y10211600D03*
%TO.N,/CPU/TX_GPS*%
X-14376400Y11023600D03*
X-11607800Y13335000D03*
%TO.N,/CPU/RX_GPS*%
X-13322300Y11036300D03*
X-11785600Y12573000D03*
%TO.N,/PSU/COM*%
X38023800Y4064000D03*
%TO.N,BUZZER*%
X-965200Y11252200D03*
X-4445000Y10947400D03*
%TO.N,Net-(J102-Pin_6)*%
X-2514600Y-21742400D03*
%TO.N,/CPU/RADIO_3*%
X-2616200Y10210800D03*
X889000Y10185400D03*
%TO.N,/CPU/ON*%
X-2895600Y-4597400D03*
X-24371300Y-16700500D03*
X-24333200Y-6908800D03*
X18415000Y-4597398D03*
%TO.N,Net-(Q204-D)*%
X18211800Y-2819400D03*
X-3810000Y-5130800D03*
%TO.N,Net-(D102-DIN)*%
X-9271000Y-10312400D03*
X3810000Y-10337800D03*
%TD*%
D25*
%TO.N,+3.3V*%
X18567400Y8458200D02*
X18059400Y8458200D01*
X18059400Y8458200D02*
X15976600Y6375400D01*
D26*
%TO.N,Net-(U202-BOOT)*%
X32410400Y-12649200D02*
X30480000Y-14579600D01*
X30480000Y-14579600D02*
X30480000Y-16357600D01*
%TO.N,/CPU/RX_SUB*%
X-21767800Y21310600D02*
X-21577300Y21501100D01*
X-21766999Y10514799D02*
X-21767800Y10515600D01*
X-21767800Y10515600D02*
X-21767800Y21310600D01*
%TO.N,/CPU/TX_SUB*%
X-23495000Y11633200D02*
X-23495000Y11607800D01*
X-23368000Y21234400D02*
X-23368000Y11760200D01*
%TO.N,DR0*%
X-10515600Y11303000D02*
X-11607000Y10211600D01*
X-10515600Y15316200D02*
X-10515600Y11303000D01*
%TO.N,/CPU/TX_GPS*%
X-12065000Y13335000D02*
X-14376400Y11023600D01*
X-11607800Y13335000D02*
X-12065000Y13335000D01*
%TO.N,/CPU/RX_GPS*%
X-11785600Y12573000D02*
X-13322300Y11036300D01*
%TO.N,/PSU/COM*%
X40640000Y0D02*
X38023800Y2616200D01*
X38023800Y2616200D02*
X38023800Y4064000D01*
%TO.N,BUZZER*%
X-4445000Y10947400D02*
X-1270000Y10947400D01*
X-1270000Y10947400D02*
X-965200Y11252200D01*
%TO.N,Net-(J102-Pin_6)*%
X-23117200Y-18567400D02*
X-25149200Y-20599400D01*
X-2514600Y-21742400D02*
X-6756400Y-21742400D01*
X-6756400Y-21742400D02*
X-9931400Y-18567400D01*
X-9931400Y-18567400D02*
X-23117200Y-18567400D01*
%TO.N,/CPU/RADIO_3*%
X863600Y10210800D02*
X889000Y10185400D01*
X-2616200Y10210800D02*
X863600Y10210800D01*
%TO.N,/CPU/ON*%
X-2895600Y-4597400D02*
X18414998Y-4597400D01*
X-24333200Y-6908800D02*
X-24371300Y-6946900D01*
X-24371300Y-6946900D02*
X-24371300Y-16700500D01*
X18414998Y-4597400D02*
X18415000Y-4597398D01*
%TO.N,Net-(Q204-D)*%
X-3810000Y-5130800D02*
X-3810000Y-3759200D01*
X18211800Y-2819400D02*
X-2870200Y-2819400D01*
X-2870200Y-2819400D02*
X-3810000Y-3759200D01*
%TO.N,Net-(D102-DIN)*%
X3810000Y-10337800D02*
X-9245600Y-10337800D01*
X-9245600Y-10337800D02*
X-9271000Y-10312400D01*
%TD*%
M02*
