%TF.GenerationSoftware,KiCad,Pcbnew,9.0.0-rc1*%
%TF.CreationDate,2025-03-28T12:21:10+01:00*%
%TF.ProjectId,Robobuoy-Top-Round-v2_0,526f626f-6275-46f7-992d-546f702d526f,rev?*%
%TF.SameCoordinates,Original*%
%TF.FileFunction,Copper,L1,Top*%
%TF.FilePolarity,Positive*%
%FSLAX46Y46*%
G04 Gerber Fmt 4.6, Leading zero omitted, Abs format (unit mm)*
G04 Created by KiCad (PCBNEW 9.0.0-rc1) date 2025-03-28 12:21:10*
%MOMM*%
%LPD*%
G01*
G04 APERTURE LIST*
G04 Aperture macros list*
%AMRoundRect*
0 Rectangle with rounded corners*
0 $1 Rounding radius*
0 $2 $3 $4 $5 $6 $7 $8 $9 X,Y pos of 4 corners*
0 Add a 4 corners polygon primitive as box body*
4,1,4,$2,$3,$4,$5,$6,$7,$8,$9,$2,$3,0*
0 Add four circle primitives for the rounded corners*
1,1,$1+$1,$2,$3*
1,1,$1+$1,$4,$5*
1,1,$1+$1,$6,$7*
1,1,$1+$1,$8,$9*
0 Add four rect primitives between the rounded corners*
20,1,$1+$1,$2,$3,$4,$5,0*
20,1,$1+$1,$4,$5,$6,$7,0*
20,1,$1+$1,$6,$7,$8,$9,0*
20,1,$1+$1,$8,$9,$2,$3,0*%
G04 Aperture macros list end*
%TA.AperFunction,SMDPad,CuDef*%
%ADD10RoundRect,0.250000X2.250000X-2.250000X2.250000X2.250000X-2.250000X2.250000X-2.250000X-2.250000X0*%
%TD*%
%TA.AperFunction,SMDPad,CuDef*%
%ADD11RoundRect,0.225000X0.225000X-0.525000X0.225000X0.525000X-0.225000X0.525000X-0.225000X-0.525000X0*%
%TD*%
%TA.AperFunction,SMDPad,CuDef*%
%ADD12RoundRect,0.225000X0.525000X0.225000X-0.525000X0.225000X-0.525000X-0.225000X0.525000X-0.225000X0*%
%TD*%
%TA.AperFunction,SMDPad,CuDef*%
%ADD13RoundRect,0.200000X0.200000X0.250000X-0.200000X0.250000X-0.200000X-0.250000X0.200000X-0.250000X0*%
%TD*%
%TA.AperFunction,SMDPad,CuDef*%
%ADD14RoundRect,0.200000X0.250000X-0.200000X0.250000X0.200000X-0.250000X0.200000X-0.250000X-0.200000X0*%
%TD*%
%TA.AperFunction,SMDPad,CuDef*%
%ADD15RoundRect,0.200000X-0.250000X0.200000X-0.250000X-0.200000X0.250000X-0.200000X0.250000X0.200000X0*%
%TD*%
%TA.AperFunction,SMDPad,CuDef*%
%ADD16RoundRect,0.090000X0.360000X-0.660000X0.360000X0.660000X-0.360000X0.660000X-0.360000X-0.660000X0*%
%TD*%
%TA.AperFunction,SMDPad,CuDef*%
%ADD17C,1.000000*%
%TD*%
%TA.AperFunction,SMDPad,CuDef*%
%ADD18RoundRect,0.150000X-0.587500X-0.150000X0.587500X-0.150000X0.587500X0.150000X-0.587500X0.150000X0*%
%TD*%
%TA.AperFunction,SMDPad,CuDef*%
%ADD19RoundRect,0.225000X0.375000X-0.225000X0.375000X0.225000X-0.375000X0.225000X-0.375000X-0.225000X0*%
%TD*%
%TA.AperFunction,SMDPad,CuDef*%
%ADD20RoundRect,0.375000X0.375000X0.475000X-0.375000X0.475000X-0.375000X-0.475000X0.375000X-0.475000X0*%
%TD*%
%TA.AperFunction,SMDPad,CuDef*%
%ADD21RoundRect,0.150000X0.587500X0.150000X-0.587500X0.150000X-0.587500X-0.150000X0.587500X-0.150000X0*%
%TD*%
%TA.AperFunction,SMDPad,CuDef*%
%ADD22RoundRect,0.250000X-1.100000X0.325000X-1.100000X-0.325000X1.100000X-0.325000X1.100000X0.325000X0*%
%TD*%
%TA.AperFunction,SMDPad,CuDef*%
%ADD23RoundRect,0.112500X0.187500X0.112500X-0.187500X0.112500X-0.187500X-0.112500X0.187500X-0.112500X0*%
%TD*%
%TA.AperFunction,SMDPad,CuDef*%
%ADD24RoundRect,0.200000X-0.200000X-0.250000X0.200000X-0.250000X0.200000X0.250000X-0.200000X0.250000X0*%
%TD*%
%TA.AperFunction,ComponentPad*%
%ADD25RoundRect,0.250000X0.600000X-0.600000X0.600000X0.600000X-0.600000X0.600000X-0.600000X-0.600000X0*%
%TD*%
%TA.AperFunction,ComponentPad*%
%ADD26C,1.700000*%
%TD*%
%TA.AperFunction,ComponentPad*%
%ADD27C,3.000000*%
%TD*%
%TA.AperFunction,ComponentPad*%
%ADD28R,1.700000X1.700000*%
%TD*%
%TA.AperFunction,ComponentPad*%
%ADD29O,1.700000X1.700000*%
%TD*%
%TA.AperFunction,SMDPad,CuDef*%
%ADD30RoundRect,0.250000X0.650000X-1.000000X0.650000X1.000000X-0.650000X1.000000X-0.650000X-1.000000X0*%
%TD*%
%TA.AperFunction,ComponentPad*%
%ADD31R,1.650000X1.650000*%
%TD*%
%TA.AperFunction,SMDPad,CuDef*%
%ADD32RoundRect,0.375000X0.475000X-0.375000X0.475000X0.375000X-0.475000X0.375000X-0.475000X-0.375000X0*%
%TD*%
%TA.AperFunction,ComponentPad*%
%ADD33RoundRect,0.250000X-0.600000X-0.725000X0.600000X-0.725000X0.600000X0.725000X-0.600000X0.725000X0*%
%TD*%
%TA.AperFunction,ComponentPad*%
%ADD34O,1.700000X1.950000*%
%TD*%
%TA.AperFunction,SMDPad,CuDef*%
%ADD35RoundRect,0.112500X0.112500X-0.187500X0.112500X0.187500X-0.112500X0.187500X-0.112500X-0.187500X0*%
%TD*%
%TA.AperFunction,SMDPad,CuDef*%
%ADD36RoundRect,0.230769X-1.519231X0.969231X-1.519231X-0.969231X1.519231X-0.969231X1.519231X0.969231X0*%
%TD*%
%TA.AperFunction,ComponentPad*%
%ADD37RoundRect,0.250000X0.725000X-0.600000X0.725000X0.600000X-0.725000X0.600000X-0.725000X-0.600000X0*%
%TD*%
%TA.AperFunction,ComponentPad*%
%ADD38O,1.950000X1.700000*%
%TD*%
%TA.AperFunction,ComponentPad*%
%ADD39RoundRect,0.250000X0.600000X0.725000X-0.600000X0.725000X-0.600000X-0.725000X0.600000X-0.725000X0*%
%TD*%
%TA.AperFunction,ComponentPad*%
%ADD40RoundRect,0.206250X0.618750X-0.618750X0.618750X0.618750X-0.618750X0.618750X-0.618750X-0.618750X0*%
%TD*%
%TA.AperFunction,SMDPad,CuDef*%
%ADD41R,1.500000X2.000000*%
%TD*%
%TA.AperFunction,SMDPad,CuDef*%
%ADD42RoundRect,0.300000X-0.300000X-0.400000X0.300000X-0.400000X0.300000X0.400000X-0.300000X0.400000X0*%
%TD*%
%TA.AperFunction,SMDPad,CuDef*%
%ADD43RoundRect,0.150000X0.650000X0.150000X-0.650000X0.150000X-0.650000X-0.150000X0.650000X-0.150000X0*%
%TD*%
%TA.AperFunction,HeatsinkPad*%
%ADD44C,0.500000*%
%TD*%
%TA.AperFunction,HeatsinkPad*%
%ADD45R,2.400000X3.200000*%
%TD*%
%TA.AperFunction,SMDPad,CuDef*%
%ADD46RoundRect,0.250000X0.325000X1.100000X-0.325000X1.100000X-0.325000X-1.100000X0.325000X-1.100000X0*%
%TD*%
%TA.AperFunction,SMDPad,CuDef*%
%ADD47RoundRect,0.250000X1.100000X-0.325000X1.100000X0.325000X-1.100000X0.325000X-1.100000X-0.325000X0*%
%TD*%
%TA.AperFunction,SMDPad,CuDef*%
%ADD48RoundRect,0.150000X-0.150000X0.587500X-0.150000X-0.587500X0.150000X-0.587500X0.150000X0.587500X0*%
%TD*%
%TA.AperFunction,SMDPad,CuDef*%
%ADD49RoundRect,0.225000X-0.375000X0.225000X-0.375000X-0.225000X0.375000X-0.225000X0.375000X0.225000X0*%
%TD*%
%TA.AperFunction,ViaPad*%
%ADD50C,0.450000*%
%TD*%
%TA.AperFunction,ViaPad*%
%ADD51C,0.900000*%
%TD*%
%TA.AperFunction,ViaPad*%
%ADD52C,0.600000*%
%TD*%
%TA.AperFunction,Conductor*%
%ADD53C,0.200000*%
%TD*%
%TA.AperFunction,Conductor*%
%ADD54C,0.600000*%
%TD*%
%TA.AperFunction,Conductor*%
%ADD55C,0.400000*%
%TD*%
%TA.AperFunction,Conductor*%
%ADD56C,0.800000*%
%TD*%
%TA.AperFunction,Conductor*%
%ADD57C,1.000000*%
%TD*%
%TA.AperFunction,Conductor*%
%ADD58C,2.000000*%
%TD*%
G04 APERTURE END LIST*
D10*
%TO.P,U101,39,GND*%
%TO.N,GND*%
X-12898000Y-860000D03*
D11*
%TO.P,U101,38,GND*%
X-20243000Y8750000D03*
%TO.P,U101,37,MOSI/GPIO23*%
%TO.N,/CPU/RADIO_1*%
X-18973000Y8750000D03*
%TO.P,U101,36,SCL/GPIO22*%
%TO.N,unconnected-(U101-SCL{slash}GPIO22-Pad36)*%
X-17703000Y8750000D03*
%TO.P,U101,35,TXD/GPIO1*%
%TO.N,TX*%
X-16433000Y8750000D03*
%TO.P,U101,34,RXD/GPIO3*%
%TO.N,RX*%
X-15163000Y8750000D03*
%TO.P,U101,33,SDA/GPIO21*%
%TO.N,unconnected-(U101-SDA{slash}GPIO21-Pad33)*%
X-13893000Y8750000D03*
%TO.P,U101,32,NC*%
%TO.N,unconnected-(U101-NC-Pad32)*%
X-12623000Y8750000D03*
%TO.P,U101,31,MISO/GPIO19*%
%TO.N,/CPU/RADIO_2*%
X-11353000Y8750000D03*
%TO.P,U101,30,SCK/GPIO18*%
%TO.N,/CPU/RADIO_3*%
X-10083000Y8750000D03*
%TO.P,U101,29,CS/GPIO5*%
%TO.N,/CPU/RADIO_4*%
X-8813000Y8750000D03*
%TO.P,U101,28,TXD/GPIO17*%
%TO.N,/CPU/TX_GPS*%
X-7543000Y8750000D03*
%TO.P,U101,27,RXD/GPIO16*%
%TO.N,/CPU/RX_GPS*%
X-6273000Y8750000D03*
%TO.P,U101,26,D1/GPIO4*%
%TO.N,unconnected-(U101-D1{slash}GPIO4-Pad26)*%
X-5003000Y8750000D03*
%TO.P,U101,25,BOOT/GPIO0*%
%TO.N,DR0*%
X-3733000Y8750000D03*
D12*
%TO.P,U101,24,D0/GPIO2*%
%TO.N,unconnected-(U101-D0{slash}GPIO2-Pad24)*%
X-2483000Y5715000D03*
%TO.P,U101,23,MTDO/CS/CMD/GPIO15*%
%TO.N,/CPU/RADIO_5*%
X-2483000Y4445000D03*
%TO.P,U101,22,NC*%
%TO.N,unconnected-(U101-NC-Pad22)*%
X-2483000Y3175000D03*
%TO.P,U101,21,NC*%
%TO.N,unconnected-(U101-NC-Pad21)*%
X-2483000Y1905000D03*
%TO.P,U101,20,NC*%
%TO.N,unconnected-(U101-NC-Pad20)*%
X-2483000Y635000D03*
%TO.P,U101,19,NC*%
%TO.N,unconnected-(U101-NC-Pad19)*%
X-2483000Y-635000D03*
%TO.P,U101,18,NC*%
%TO.N,unconnected-(U101-NC-Pad18)*%
X-2483000Y-1905000D03*
%TO.P,U101,17,NC*%
%TO.N,unconnected-(U101-NC-Pad17)*%
X-2483000Y-3175000D03*
%TO.P,U101,16,MTCK/MOSI/D3/GPIO13*%
%TO.N,unconnected-(U101-MTCK{slash}MOSI{slash}D3{slash}GPIO13-Pad16)*%
X-2483000Y-4445000D03*
%TO.P,U101,15,GND*%
%TO.N,GND*%
X-2483000Y-5715000D03*
D11*
%TO.P,U101,14,MTDI/MISO/D2/GPIO12*%
%TO.N,unconnected-(U101-MTDI{slash}MISO{slash}D2{slash}GPIO12-Pad14)*%
X-3733000Y-8750000D03*
%TO.P,U101,13,MTMS/SCK/CLK/GPIO14*%
%TO.N,/CPU/RADIO_6*%
X-5003000Y-8750000D03*
%TO.P,U101,12,GPIO27*%
%TO.N,BUZZER*%
X-6273000Y-8750000D03*
%TO.P,U101,11,GPIO26*%
%TO.N,BUTTON_LIGHT*%
X-7543000Y-8750000D03*
%TO.P,U101,10,GPIO25*%
%TO.N,LEDS*%
X-8813000Y-8750000D03*
%TO.P,U101,9,GPIO33*%
%TO.N,/CPU/VbatEn*%
X-10083000Y-8750000D03*
%TO.P,U101,8,GPIO32*%
%TO.N,/CPU/COM*%
X-11353000Y-8750000D03*
%TO.P,U101,7,GPIO35*%
%TO.N,/CPU/Vsamp*%
X-12623000Y-8750000D03*
%TO.P,U101,6,GPIO34*%
%TO.N,unconnected-(U101-GPIO34-Pad6)*%
X-13893000Y-8750000D03*
%TO.P,U101,5,GPIO39*%
%TO.N,unconnected-(U101-GPIO39-Pad5)*%
X-15163000Y-8750000D03*
%TO.P,U101,4,GPIO36*%
%TO.N,unconnected-(U101-GPIO36-Pad4)*%
X-16433000Y-8750000D03*
%TO.P,U101,3,CHIP_PU/EN*%
%TO.N,EN*%
X-17703000Y-8750000D03*
%TO.P,U101,2,VDD*%
%TO.N,+3.3V*%
X-18973000Y-8750000D03*
%TO.P,U101,1,GND*%
%TO.N,GND*%
X-20243000Y-8750000D03*
%TD*%
D13*
%TO.P,R209,1*%
%TO.N,Net-(U201-ENA)*%
X24722000Y5080000D03*
%TO.P,R209,2*%
%TO.N,Net-(R207-Pad2)*%
X23222000Y5080000D03*
%TD*%
D14*
%TO.P,C207,1*%
%TO.N,Net-(D204-K)*%
X30068000Y-6592000D03*
%TO.P,C207,2*%
%TO.N,Net-(U201-BOOT)*%
X30068000Y-5092000D03*
%TD*%
D15*
%TO.P,R102,1*%
%TO.N,+3.3V*%
X-20066000Y19546000D03*
%TO.P,R102,2*%
%TO.N,EN*%
X-20066000Y18046000D03*
%TD*%
D16*
%TO.P,D104,1,VDD*%
%TO.N,+3.3V*%
X-1650000Y-26450000D03*
%TO.P,D104,2,DOUT*%
%TO.N,Net-(D104-DOUT)*%
X1650000Y-26450000D03*
%TO.P,D104,3,VSS*%
%TO.N,GND*%
X1650000Y-21550000D03*
%TO.P,D104,4,DIN*%
%TO.N,LEDS*%
X-1650000Y-21550000D03*
%TD*%
D17*
%TO.P,TP204,1,1*%
%TO.N,Net-(U201-Vsens)*%
X30068000Y-8636000D03*
%TD*%
D14*
%TO.P,C203,1*%
%TO.N,Vbatt*%
X18130000Y-2274000D03*
%TO.P,C203,2*%
%TO.N,GND*%
X18130000Y-774000D03*
%TD*%
%TO.P,C113,1*%
%TO.N,BUTTON*%
X-17272000Y-17260000D03*
%TO.P,C113,2*%
%TO.N,GND*%
X-17272000Y-15760000D03*
%TD*%
D18*
%TO.P,Q102,1,G*%
%TO.N,Net-(Q102-G)*%
X1475500Y-14798000D03*
%TO.P,Q102,2,S*%
%TO.N,GND*%
X1475500Y-16698000D03*
%TO.P,Q102,3,D*%
%TO.N,Net-(BZ101--)*%
X3350500Y-15748000D03*
%TD*%
D16*
%TO.P,D105,1,VDD*%
%TO.N,+3.3V*%
X26350000Y-26450000D03*
%TO.P,D105,2,DOUT*%
%TO.N,Net-(D105-DOUT)*%
X29650000Y-26450000D03*
%TO.P,D105,3,VSS*%
%TO.N,GND*%
X29650000Y-21550000D03*
%TO.P,D105,4,DIN*%
%TO.N,Net-(D104-DOUT)*%
X26350000Y-21550000D03*
%TD*%
D13*
%TO.P,R101,1*%
%TO.N,+3.3V*%
X-1790000Y11938000D03*
%TO.P,R101,2*%
%TO.N,DR0*%
X-3290000Y11938000D03*
%TD*%
D19*
%TO.P,D206,1,K*%
%TO.N,/CPU/COM*%
X32000000Y-9650000D03*
%TO.P,D206,2,A*%
%TO.N,GND*%
X32000000Y-6350000D03*
%TD*%
D20*
%TO.P,C211,1*%
%TO.N,+3.3V*%
X23132000Y-17018000D03*
%TO.P,C211,2*%
%TO.N,GND*%
X19732000Y-17018000D03*
%TD*%
D21*
%TO.P,Q202,1,G*%
%TO.N,Net-(Q202-G)*%
X11701500Y13020000D03*
%TO.P,Q202,2,S*%
%TO.N,Vbatt*%
X11701500Y14920000D03*
%TO.P,Q202,3,D*%
%TO.N,Net-(Q202-D)*%
X9826500Y13970000D03*
%TD*%
D22*
%TO.P,C302,1*%
%TO.N,+3.3V*%
X14066000Y-10209000D03*
%TO.P,C302,2*%
%TO.N,GND*%
X14066000Y-13159000D03*
%TD*%
D23*
%TO.P,D203,1,K*%
%TO.N,Net-(D203-K)*%
X24926000Y11430000D03*
%TO.P,D203,2,A*%
%TO.N,Net-(D203-A)*%
X22826000Y11430000D03*
%TD*%
D24*
%TO.P,C204,1*%
%TO.N,/CPU/Vsamp*%
X-13450000Y-13691585D03*
%TO.P,C204,2*%
%TO.N,GND*%
X-11950000Y-13691585D03*
%TD*%
%TO.P,C205,1*%
%TO.N,Net-(U201-ENA)*%
X23222000Y2032000D03*
%TO.P,C205,2*%
%TO.N,GND*%
X24722000Y2032000D03*
%TD*%
D13*
%TO.P,R212,1*%
%TO.N,Net-(U201-Vsens)*%
X29536000Y2032000D03*
%TO.P,R212,2*%
%TO.N,GND*%
X28036000Y2032000D03*
%TD*%
%TO.P,R215,1*%
%TO.N,Net-(D203-K)*%
X24722000Y9652000D03*
%TO.P,R215,2*%
%TO.N,/CPU/ON*%
X23222000Y9652000D03*
%TD*%
D15*
%TO.P,C104,1*%
%TO.N,+3.3V*%
X3556000Y-10045000D03*
%TO.P,C104,2*%
%TO.N,GND*%
X3556000Y-11545000D03*
%TD*%
D13*
%TO.P,C106,1*%
%TO.N,+3.3V*%
X-19316000Y-12446000D03*
%TO.P,C106,2*%
%TO.N,GND*%
X-20816000Y-12446000D03*
%TD*%
%TO.P,R119,1*%
%TO.N,BUTTON_LIGHT*%
X-19316000Y-15494000D03*
%TO.P,R119,2*%
%TO.N,Net-(Q101-G)*%
X-20816000Y-15494000D03*
%TD*%
D25*
%TO.P,J101,1,Pin_1*%
%TO.N,EN*%
X-13467000Y17535500D03*
D26*
%TO.P,J101,2,Pin_2*%
%TO.N,+3.3V*%
X-13467000Y20075500D03*
%TO.P,J101,3,Pin_3*%
%TO.N,TX*%
X-10927000Y17535500D03*
%TO.P,J101,4,Pin_4*%
%TO.N,GND*%
X-10927000Y20075500D03*
%TO.P,J101,5,Pin_5*%
%TO.N,RX*%
X-8387000Y17535500D03*
%TO.P,J101,6,Pin_6*%
%TO.N,DR0*%
X-8387000Y20075500D03*
%TD*%
D13*
%TO.P,C105,1*%
%TO.N,+3.3V*%
X-19316000Y-10922000D03*
%TO.P,C105,2*%
%TO.N,GND*%
X-20816000Y-10922000D03*
%TD*%
D27*
%TO.P,TP203,1,1*%
%TO.N,GND*%
X-11049000Y-18491200D03*
%TD*%
D28*
%TO.P,SW101,1,1*%
%TO.N,GND*%
X-8382000Y11938000D03*
D29*
%TO.P,SW101,2,2*%
%TO.N,DR0*%
X-5842000Y11938000D03*
%TD*%
D24*
%TO.P,R205,1*%
%TO.N,Net-(R205-Pad1)*%
X23222000Y8128000D03*
%TO.P,R205,2*%
%TO.N,/CPU/ON*%
X24722000Y8128000D03*
%TD*%
D14*
%TO.P,R202,1*%
%TO.N,Net-(Q202-G)*%
X13558000Y13220000D03*
%TO.P,R202,2*%
%TO.N,Vbatt*%
X13558000Y14720000D03*
%TD*%
D15*
%TO.P,C303,1*%
%TO.N,+3.3V*%
X4922000Y-10045000D03*
%TO.P,C303,2*%
%TO.N,GND*%
X4922000Y-11545000D03*
%TD*%
D28*
%TO.P,SW102,1,1*%
%TO.N,GND*%
X-16007000Y11938000D03*
D29*
%TO.P,SW102,2,2*%
%TO.N,EN*%
X-13467000Y11938000D03*
%TD*%
D30*
%TO.P,D201,1,K*%
%TO.N,Vbatt*%
X34290000Y9176000D03*
%TO.P,D201,2,A*%
%TO.N,Net-(D201-A)*%
X34290000Y13176000D03*
%TD*%
D31*
%TO.P,BZ101,1,+*%
%TO.N,+3.3V*%
X9038000Y-20828000D03*
D26*
%TO.P,BZ101,2,-*%
%TO.N,Net-(BZ101--)*%
X15538000Y-20828000D03*
%TD*%
D30*
%TO.P,D204,1,K*%
%TO.N,Net-(D204-K)*%
X20670000Y-4286000D03*
%TO.P,D204,2,A*%
%TO.N,GND*%
X20670000Y-286000D03*
%TD*%
D15*
%TO.P,C202,1*%
%TO.N,Vbatt*%
X18130000Y-3568000D03*
%TO.P,C202,2*%
%TO.N,GND*%
X18130000Y-5068000D03*
%TD*%
D32*
%TO.P,C201,1*%
%TO.N,Vbatt*%
X18288000Y4904000D03*
%TO.P,C201,2*%
%TO.N,GND*%
X18288000Y8304000D03*
%TD*%
D33*
%TO.P,J103,1,Pin_1*%
%TO.N,Net-(J103-Pin_1)*%
X-18502000Y-23622000D03*
D34*
%TO.P,J103,2,Pin_2*%
%TO.N,Net-(J103-Pin_2)*%
X-16002000Y-23622000D03*
%TO.P,J103,3,Pin_3*%
%TO.N,+3.3V*%
X-13502000Y-23622000D03*
%TO.P,J103,4,Pin_4*%
%TO.N,GND*%
X-11002000Y-23622000D03*
%TO.P,J103,5,Pin_5*%
%TO.N,/CPU/ON*%
X-8502000Y-23622000D03*
%TO.P,J103,6,Pin_6*%
%TO.N,Net-(J103-Pin_6)*%
X-6002000Y-23622000D03*
%TD*%
D35*
%TO.P,D101,1,K*%
%TO.N,+3.3V*%
X5588000Y-16798000D03*
%TO.P,D101,2,A*%
%TO.N,Net-(BZ101--)*%
X5588000Y-14698000D03*
%TD*%
D15*
%TO.P,R201,1*%
%TO.N,Net-(Q201-G)*%
X8077200Y11570400D03*
%TO.P,R201,2*%
%TO.N,/CPU/VbatEn*%
X8077200Y10070400D03*
%TD*%
D22*
%TO.P,C102,1*%
%TO.N,+3.3V*%
X-17018000Y-11225000D03*
%TO.P,C102,2*%
%TO.N,GND*%
X-17018000Y-14175000D03*
%TD*%
D36*
%TO.P,L201,1*%
%TO.N,Net-(D204-K)*%
X26004000Y-5636000D03*
%TO.P,L201,2*%
%TO.N,+3.3V*%
X26004000Y-11636000D03*
%TD*%
D15*
%TO.P,C210,1*%
%TO.N,+3.3V*%
X24734000Y-13728000D03*
%TO.P,C210,2*%
%TO.N,GND*%
X24734000Y-15228000D03*
%TD*%
D37*
%TO.P,J201,1,Pin_1*%
%TO.N,Vbatt*%
X34000000Y-2500000D03*
D38*
%TO.P,J201,2,Pin_2*%
%TO.N,/CPU/COM*%
X34000000Y0D03*
%TO.P,J201,3,Pin_3*%
%TO.N,GND*%
X34000000Y2500000D03*
%TD*%
D13*
%TO.P,R207,1*%
%TO.N,/CPU/ON*%
X24722000Y6604000D03*
%TO.P,R207,2*%
%TO.N,Net-(R207-Pad2)*%
X23222000Y6604000D03*
%TD*%
D23*
%TO.P,D202,1,K*%
%TO.N,+3.3V*%
X12835600Y11099800D03*
%TO.P,D202,2,A*%
%TO.N,/CPU/Vsamp*%
X10735600Y11099800D03*
%TD*%
D21*
%TO.P,Q201,1,G*%
%TO.N,Net-(Q201-G)*%
X6113500Y13020000D03*
%TO.P,Q201,2,S*%
%TO.N,GND*%
X6113500Y14920000D03*
%TO.P,Q201,3,D*%
%TO.N,Net-(Q201-D)*%
X4238500Y13970000D03*
%TD*%
D24*
%TO.P,C108,1*%
%TO.N,+3.3V*%
X27540000Y-19812000D03*
%TO.P,C108,2*%
%TO.N,GND*%
X29040000Y-19812000D03*
%TD*%
D17*
%TO.P,TP101,1,1*%
%TO.N,BUZZER*%
X-3302000Y-14732000D03*
%TD*%
D22*
%TO.P,C301,1*%
%TO.N,+3.3V*%
X7462000Y-10209000D03*
%TO.P,C301,2*%
%TO.N,GND*%
X7462000Y-13159000D03*
%TD*%
D15*
%TO.P,C101,1*%
%TO.N,EN*%
X-20066000Y16498000D03*
%TO.P,C101,2*%
%TO.N,GND*%
X-20066000Y14998000D03*
%TD*%
D39*
%TO.P,J104,1,Pin_1*%
%TO.N,/CPU/TX_GPS*%
X9338000Y19795000D03*
D34*
%TO.P,J104,2,Pin_2*%
%TO.N,/CPU/RX_GPS*%
X6838000Y19795000D03*
%TO.P,J104,3,Pin_3*%
%TO.N,+3.3V*%
X4338000Y19795000D03*
%TO.P,J104,4,Pin_4*%
%TO.N,GND*%
X1838000Y19795000D03*
%TD*%
D40*
%TO.P,SW201,1*%
%TO.N,Vbatt*%
X20924000Y2794000D03*
D26*
%TO.P,SW201,2*%
%TO.N,Net-(R205-Pad1)*%
X20924000Y5334000D03*
%TO.P,SW201,3*%
%TO.N,unconnected-(SW201-Pad3)*%
X20924000Y7874000D03*
%TD*%
D15*
%TO.P,R214,1*%
%TO.N,Net-(D201-A)*%
X31750000Y11926000D03*
%TO.P,R214,2*%
%TO.N,Vbatt*%
X31750000Y10426000D03*
%TD*%
%TO.P,R112,1*%
%TO.N,BUTTON*%
X-17272000Y-18554000D03*
%TO.P,R112,2*%
%TO.N,Net-(J103-Pin_2)*%
X-17272000Y-20054000D03*
%TD*%
D41*
%TO.P,U301,1,GND*%
%TO.N,GND*%
X927600Y-7948200D03*
%TO.P,U301,2,GND*%
X2927600Y-7948200D03*
%TO.P,U301,3,VDD*%
%TO.N,+3.3V*%
X4927600Y-7948200D03*
%TO.P,U301,4,~{RESET}*%
%TO.N,/CPU/RADIO_5*%
X6927600Y-7948200D03*
%TO.P,U301,5,DIO0*%
%TO.N,/CPU/RADIO_6*%
X8927600Y-7948200D03*
%TO.P,U301,6,DIO1*%
%TO.N,unconnected-(U301-DIO1-Pad6)*%
X10927600Y-7948200D03*
%TO.P,U301,7,DIO2*%
%TO.N,unconnected-(U301-DIO2-Pad7)*%
X12927600Y-7948200D03*
%TO.P,U301,8,DIO3*%
%TO.N,unconnected-(U301-DIO3-Pad8)*%
X14927600Y-7948200D03*
%TO.P,U301,9,GND*%
%TO.N,GND*%
X14927600Y8051800D03*
%TO.P,U301,10,DIO4*%
%TO.N,unconnected-(U301-DIO4-Pad10)*%
X12927600Y8051800D03*
%TO.P,U301,11,DIO5*%
%TO.N,unconnected-(U301-DIO5-Pad11)*%
X10927600Y8051800D03*
%TO.P,U301,12,SCK*%
%TO.N,/CPU/RADIO_3*%
X8927600Y8051800D03*
%TO.P,U301,13,MISO*%
%TO.N,/CPU/RADIO_2*%
X6927600Y8051800D03*
%TO.P,U301,14,MOSI*%
%TO.N,/CPU/RADIO_1*%
X4927600Y8051800D03*
%TO.P,U301,15,~{NSS}*%
%TO.N,/CPU/RADIO_4*%
X2927600Y8051800D03*
%TO.P,U301,16,GND*%
%TO.N,GND*%
X927600Y8051800D03*
%TD*%
D24*
%TO.P,R208,1*%
%TO.N,/CPU/Vsamp*%
X-13450000Y-10668000D03*
%TO.P,R208,2*%
%TO.N,GND*%
X-11950000Y-10668000D03*
%TD*%
D22*
%TO.P,C103,1*%
%TO.N,+3.3V*%
X10764000Y-10209000D03*
%TO.P,C103,2*%
%TO.N,GND*%
X10764000Y-13159000D03*
%TD*%
D13*
%TO.P,R103,1*%
%TO.N,Net-(Q102-G)*%
X-393000Y-14732000D03*
%TO.P,R103,2*%
%TO.N,BUZZER*%
X-1893000Y-14732000D03*
%TD*%
D15*
%TO.P,R104,1*%
%TO.N,Vbatt*%
X34163000Y-7251000D03*
%TO.P,R104,2*%
%TO.N,Net-(J103-Pin_6)*%
X34163000Y-8751000D03*
%TD*%
D14*
%TO.P,R203,1*%
%TO.N,Net-(Q201-D)*%
X7970000Y13220000D03*
%TO.P,R203,2*%
%TO.N,Net-(Q202-G)*%
X7970000Y14720000D03*
%TD*%
D24*
%TO.P,R204,1*%
%TO.N,/CPU/Vsamp*%
X-13450000Y-12167585D03*
%TO.P,R204,2*%
%TO.N,GND*%
X-11950000Y-12167585D03*
%TD*%
D42*
%TO.P,D205,1,K*%
%TO.N,GND*%
X25258000Y-17018000D03*
%TO.P,D205,2,A*%
%TO.N,Net-(D205-A)*%
X27258000Y-17018000D03*
%TD*%
D14*
%TO.P,R213,1*%
%TO.N,Net-(D205-A)*%
X27274000Y-15228000D03*
%TO.P,R213,2*%
%TO.N,+3.3V*%
X27274000Y-13728000D03*
%TD*%
D43*
%TO.P,U201,1,BOOT*%
%TO.N,Net-(U201-BOOT)*%
X29000000Y-3467000D03*
%TO.P,U201,2,NC*%
%TO.N,unconnected-(U201-NC-Pad2)*%
X29000000Y-2197000D03*
%TO.P,U201,3,NC*%
%TO.N,unconnected-(U201-NC-Pad3)*%
X29000000Y-927000D03*
%TO.P,U201,4,Vsens*%
%TO.N,Net-(U201-Vsens)*%
X29000000Y343000D03*
%TO.P,U201,5,ENA*%
%TO.N,Net-(U201-ENA)*%
X23700000Y343000D03*
%TO.P,U201,6,GND*%
%TO.N,GND*%
X23700000Y-927000D03*
%TO.P,U201,7,Vin*%
%TO.N,Vbatt*%
X23700000Y-2197000D03*
%TO.P,U201,8,PH*%
%TO.N,Net-(D204-K)*%
X23700000Y-3467000D03*
D44*
%TO.P,U201,9,PAD*%
%TO.N,GND*%
X27300000Y-2912000D03*
X27300000Y-1562000D03*
X27300000Y-212000D03*
D45*
X26350000Y-1562000D03*
D44*
X25400000Y-2912000D03*
X25400000Y-1562000D03*
X25400000Y-212000D03*
%TD*%
D15*
%TO.P,R206,1*%
%TO.N,Net-(Q202-D)*%
X9474200Y11570400D03*
%TO.P,R206,2*%
%TO.N,/CPU/Vsamp*%
X9474200Y10070400D03*
%TD*%
D24*
%TO.P,C109,1*%
%TO.N,+3.3V*%
X-750000Y-19812000D03*
%TO.P,C109,2*%
%TO.N,GND*%
X750000Y-19812000D03*
%TD*%
D17*
%TO.P,TP202,1,1*%
%TO.N,/CPU/Vsamp*%
X-13462000Y-15215585D03*
%TD*%
D24*
%TO.P,C107,1*%
%TO.N,+3.3V*%
X27250000Y15748000D03*
%TO.P,C107,2*%
%TO.N,GND*%
X28750000Y15748000D03*
%TD*%
D14*
%TO.P,R211,1*%
%TO.N,+3.3V*%
X30068000Y-11672000D03*
%TO.P,R211,2*%
%TO.N,Net-(U201-Vsens)*%
X30068000Y-10172000D03*
%TD*%
D39*
%TO.P,J202,1,Pin_1*%
%TO.N,Net-(D201-A)*%
X21082000Y19812000D03*
D34*
%TO.P,J202,2,Pin_2*%
%TO.N,Net-(D203-A)*%
X18582000Y19812000D03*
%TO.P,J202,3,Pin_3*%
%TO.N,GND*%
X16082000Y19812000D03*
%TD*%
D46*
%TO.P,C209,1*%
%TO.N,+3.3V*%
X22907000Y-14224000D03*
%TO.P,C209,2*%
%TO.N,GND*%
X19957000Y-14224000D03*
%TD*%
D47*
%TO.P,C208,1*%
%TO.N,+3.3V*%
X20924000Y-11381000D03*
%TO.P,C208,2*%
%TO.N,GND*%
X20924000Y-8431000D03*
%TD*%
D24*
%TO.P,R210,1*%
%TO.N,Net-(U201-ENA)*%
X23222000Y3556000D03*
%TO.P,R210,2*%
%TO.N,GND*%
X24722000Y3556000D03*
%TD*%
D14*
%TO.P,R117,1*%
%TO.N,BUTTON*%
X-15748000Y-17260000D03*
%TO.P,R117,2*%
%TO.N,GND*%
X-15748000Y-15760000D03*
%TD*%
D48*
%TO.P,Q101,1,D*%
%TO.N,GND*%
X-18862000Y-17350500D03*
%TO.P,Q101,2,G*%
%TO.N,Net-(Q101-G)*%
X-20762000Y-17350500D03*
%TO.P,Q101,3,S*%
%TO.N,Net-(J103-Pin_1)*%
X-19812000Y-19225500D03*
%TD*%
D16*
%TO.P,D106,1,VDD*%
%TO.N,+3.3V*%
X26350000Y17550000D03*
%TO.P,D106,2,DOUT*%
%TO.N,unconnected-(D106-DOUT-Pad2)*%
X29650000Y17550000D03*
%TO.P,D106,3,VSS*%
%TO.N,GND*%
X29650000Y22450000D03*
%TO.P,D106,4,DIN*%
%TO.N,Net-(D105-DOUT)*%
X26350000Y22450000D03*
%TD*%
D49*
%TO.P,D207,1,K*%
%TO.N,/CPU/ON*%
X26512000Y6730000D03*
%TO.P,D207,2,A*%
%TO.N,GND*%
X26512000Y3430000D03*
%TD*%
D50*
%TO.N,/CPU/COM*%
X-10033000Y-15367000D03*
X31750000Y-11049000D03*
%TO.N,+3.3V*%
X14705468Y14143068D03*
D51*
X21488400Y-14224000D03*
D50*
X14706600Y15245000D03*
D51*
X26350000Y19166800D03*
X-15036800Y-11252200D03*
X35915600Y-4622800D03*
%TO.N,GND*%
X-15341600Y-3276600D03*
X-10464800Y-3302000D03*
D50*
X-14605000Y-18491200D03*
X-20066000Y14097000D03*
D52*
X18288000Y6731000D03*
X20955000Y-7239000D03*
D51*
X-20243800Y-7340600D03*
D50*
X-10896600Y-13436600D03*
D51*
X-15341600Y1600200D03*
D52*
X970000Y-6604000D03*
X970000Y-9448800D03*
D51*
X-1016000Y-5715000D03*
D52*
X32004000Y-5207000D03*
X2970000Y-6654800D03*
X18999200Y-14173200D03*
D51*
X-20243000Y7493800D03*
D50*
X28600400Y22479000D03*
X29032200Y-18872200D03*
D52*
X25654000Y-15113000D03*
X16002000Y-13208000D03*
D51*
X-3962400Y-5715000D03*
D52*
X5715000Y-12319000D03*
X-20447000Y-13639800D03*
X12446000Y-13159000D03*
X-17043400Y-13106400D03*
D50*
X-18846800Y-18567400D03*
D52*
X22860000Y-8382000D03*
D51*
X-20243000Y10006800D03*
X-12898000Y-860000D03*
D52*
X19177000Y-286000D03*
X18161000Y-6096000D03*
X14986000Y9779000D03*
X14986000Y6350000D03*
D51*
X-10490200Y1625600D03*
D52*
X9144000Y-13159000D03*
D51*
X-20612100Y-9944100D03*
D52*
X1524000Y-15748000D03*
D50*
X6121400Y15519400D03*
D52*
X1016000Y9652000D03*
D50*
X2743200Y-21564600D03*
%TO.N,EN*%
X-13411200Y5359400D03*
%TO.N,/CPU/Vsamp*%
X10325100Y10147300D03*
X-4038600Y-1066800D03*
%TO.N,Net-(D105-DOUT)*%
X36017200Y-13030200D03*
X37084000Y7391400D03*
%TO.N,/CPU/TX_GPS*%
X-7518400Y9931400D03*
%TO.N,/CPU/RX_GPS*%
X-6070600Y10109200D03*
%TO.N,/CPU/VbatEn*%
X-5410200Y-2413000D03*
X6680200Y10668000D03*
%TO.N,/CPU/RADIO_1*%
X-3784600Y5943600D03*
X4622800Y9474200D03*
%TO.N,/CPU/RADIO_2*%
X3048000Y5816600D03*
X6756400Y9525000D03*
%TO.N,/CPU/ON*%
X31623000Y-4241800D03*
%TO.N,Net-(J103-Pin_6)*%
X32562800Y-12522200D03*
%TD*%
D53*
%TO.N,/CPU/COM*%
X-10033000Y-11176000D02*
X-11353000Y-9856000D01*
X-11353000Y-9856000D02*
X-11353000Y-8750000D01*
X-10033000Y-15367000D02*
X-10033000Y-11176000D01*
X32000000Y-10799000D02*
X31750000Y-11049000D01*
X32000000Y-9650000D02*
X32000000Y-10799000D01*
%TO.N,GND*%
X25400000Y1354000D02*
X25400000Y-212000D01*
X24722000Y2032000D02*
X25400000Y1354000D01*
X24722000Y3556000D02*
X24722000Y2032000D01*
X-10922000Y-13462000D02*
X-10896600Y-13436600D01*
X-11720415Y-13462000D02*
X-10922000Y-13462000D01*
X-11950000Y-13691585D02*
X-11720415Y-13462000D01*
X-11950000Y-10668000D02*
X-11950000Y-13691585D01*
%TO.N,/CPU/Vsamp*%
X-13450000Y-10668000D02*
X-13450000Y-13691585D01*
%TO.N,BUTTON_LIGHT*%
X-8813000Y-15163000D02*
X-8813000Y-8750000D01*
X-16211064Y-16461000D02*
X-10111000Y-16461000D01*
X-10111000Y-16461000D02*
X-8813000Y-15163000D01*
X-16808936Y-16461000D02*
X-16807136Y-16459200D01*
X-17735064Y-16461000D02*
X-16808936Y-16461000D01*
X-18023000Y-16140000D02*
X-18023000Y-16173064D01*
X-18023000Y-16173064D02*
X-17735064Y-16461000D01*
X-18669000Y-15494000D02*
X-18023000Y-16140000D01*
X-19316000Y-15494000D02*
X-18669000Y-15494000D01*
X-16212864Y-16459200D02*
X-16211064Y-16461000D01*
X-16807136Y-16459200D02*
X-16212864Y-16459200D01*
%TO.N,+3.3V*%
X9038000Y-20828000D02*
X5613400Y-20828000D01*
D54*
X4922000Y-10045000D02*
X4807000Y-10160000D01*
D53*
X13639800Y11099800D02*
X12835600Y11099800D01*
D54*
X13258800Y22225000D02*
X23291800Y22225000D01*
D53*
X-1650000Y-25043400D02*
X-1650000Y-26450000D01*
X23132000Y-18763200D02*
X23132000Y-17018000D01*
X26350000Y-25085000D02*
X26350000Y-26450000D01*
D54*
X22907000Y-14224000D02*
X25495000Y-11636000D01*
X22907000Y-14224000D02*
X21488400Y-14224000D01*
X22907000Y-14224000D02*
X23132000Y-14449000D01*
X23291800Y22225000D02*
X26350000Y19166800D01*
D53*
X30068000Y-11672000D02*
X26040000Y-11672000D01*
D54*
X5086000Y-10209000D02*
X4922000Y-10045000D01*
X17448000Y-10209000D02*
X14066000Y-10209000D01*
D53*
X27540000Y-23895000D02*
X26350000Y-25085000D01*
X-1790000Y11938000D02*
X-1790000Y22186200D01*
X24180800Y-19812000D02*
X23132000Y-18763200D01*
X26040000Y-11672000D02*
X26004000Y-11636000D01*
X-750000Y-21578000D02*
X-899000Y-21727000D01*
X-1790000Y22186200D02*
X-1828800Y22225000D01*
D54*
X4922000Y-10045000D02*
X3556000Y-10045000D01*
X4338000Y19795000D02*
X4338000Y22225000D01*
D53*
X27540000Y-19812000D02*
X27540000Y-23895000D01*
X-899000Y-24292400D02*
X-1650000Y-25043400D01*
X14706600Y15798800D02*
X13258800Y17246600D01*
X-899000Y-21727000D02*
X-899000Y-24292400D01*
D54*
X18620000Y-11381000D02*
X17448000Y-10209000D01*
X-19316000Y-10922000D02*
X-19316000Y-12446000D01*
X990600Y22225000D02*
X13258800Y22225000D01*
X25495000Y-11636000D02*
X26004000Y-11636000D01*
X27274000Y-12906000D02*
X26004000Y-11636000D01*
X-18973000Y-10579000D02*
X-19316000Y-10922000D01*
X27274000Y-13728000D02*
X33541400Y-13728000D01*
X20924000Y-11381000D02*
X25749000Y-11381000D01*
X33541400Y-13728000D02*
X34290000Y-12979400D01*
X25749000Y-11381000D02*
X26004000Y-11636000D01*
D53*
X14706600Y14141936D02*
X14706600Y12166600D01*
X5613400Y-20828000D02*
X3276600Y-18491200D01*
X5588000Y-17378000D02*
X9038000Y-20828000D01*
X27540000Y-19812000D02*
X24180800Y-19812000D01*
D54*
X23132000Y-14449000D02*
X23132000Y-17018000D01*
D53*
X5588000Y-16798000D02*
X5588000Y-17378000D01*
D54*
X4970000Y-8000000D02*
X4970000Y-9997000D01*
X-15064000Y-11225000D02*
X-15036800Y-11252200D01*
X-17018000Y-11225000D02*
X-18327000Y-11225000D01*
D53*
X-750000Y-19812000D02*
X-750000Y-21578000D01*
D54*
X27274000Y-13728000D02*
X27274000Y-12906000D01*
X24734000Y-13728000D02*
X24734000Y-12906000D01*
X-18973000Y-8750000D02*
X-18973000Y-10579000D01*
D53*
X-13476500Y20066000D02*
X-19546000Y20066000D01*
D54*
X35991800Y-11277600D02*
X35991800Y-4622800D01*
D53*
X14706600Y12166600D02*
X13639800Y11099800D01*
X14705468Y14143068D02*
X14706600Y14141936D01*
D54*
X-11317500Y22225000D02*
X-13467000Y20075500D01*
X26350000Y19166800D02*
X26350000Y17550000D01*
D53*
X3276600Y-18491200D02*
X570800Y-18491200D01*
X-13467000Y20075500D02*
X-13476500Y20066000D01*
D54*
X4970000Y-9997000D02*
X4922000Y-10045000D01*
X-18327000Y-11225000D02*
X-18973000Y-10579000D01*
D53*
X14706600Y15245000D02*
X14706600Y15798800D01*
D54*
X-1828800Y22225000D02*
X-11317500Y22225000D01*
D53*
X26350000Y17550000D02*
X26350000Y16648000D01*
X570800Y-18491200D02*
X-750000Y-19812000D01*
D54*
X34290000Y-12979400D02*
X35991800Y-11277600D01*
X-17018000Y-11225000D02*
X-15064000Y-11225000D01*
D53*
X-19546000Y20066000D02*
X-20066000Y19546000D01*
D54*
X20924000Y-11381000D02*
X18620000Y-11381000D01*
X14066000Y-10209000D02*
X5086000Y-10209000D01*
X24734000Y-12906000D02*
X26004000Y-11636000D01*
X990600Y22225000D02*
X-1828800Y22225000D01*
D53*
X13258800Y17246600D02*
X13258800Y22225000D01*
X26350000Y16648000D02*
X27250000Y15748000D01*
D54*
X35991800Y-4622800D02*
X35915600Y-4622800D01*
D53*
%TO.N,Net-(BZ101--)*%
X3717000Y-14698000D02*
X5588000Y-14698000D01*
X3350500Y-15064500D02*
X3717000Y-14698000D01*
X9408000Y-14698000D02*
X15538000Y-20828000D01*
X3350500Y-15748000D02*
X3350500Y-15064500D01*
X5588000Y-14698000D02*
X9408000Y-14698000D01*
%TO.N,GND*%
X1103000Y-21550000D02*
X1650000Y-21550000D01*
D54*
X5696000Y-12319000D02*
X4922000Y-11545000D01*
D53*
X24722000Y3556000D02*
X25400000Y3556000D01*
D54*
X21311000Y-927000D02*
X20670000Y-286000D01*
D53*
X28750000Y20114000D02*
X29650000Y21014000D01*
X1650000Y-21550000D02*
X2728600Y-21550000D01*
X29650000Y-20422000D02*
X29040000Y-19812000D01*
D54*
X2609000Y-11545000D02*
X3556000Y-11545000D01*
D53*
X1475500Y-16698000D02*
X1475500Y-15796500D01*
X25400000Y3556000D02*
X25527000Y3429000D01*
D54*
X14970000Y6366000D02*
X14986000Y6350000D01*
X14066000Y-13159000D02*
X15953000Y-13159000D01*
X-20816000Y-10148000D02*
X-20816000Y-12446000D01*
D53*
X6113500Y14920000D02*
X6113500Y15511500D01*
D54*
X23700000Y-927000D02*
X25715000Y-927000D01*
D53*
X32000000Y-5211000D02*
X32004000Y-5207000D01*
D54*
X19732000Y-14449000D02*
X19957000Y-14224000D01*
D53*
X-15748000Y-15445000D02*
X-17018000Y-14175000D01*
D54*
X-20243000Y-8750000D02*
X-20243000Y-9575000D01*
D55*
X-2483000Y-5715000D02*
X-3962400Y-5715000D01*
D53*
X-20066000Y14998000D02*
X-20066000Y14097000D01*
X29650000Y22450000D02*
X28629400Y22450000D01*
X-18862000Y-17350500D02*
X-18862000Y-18552200D01*
D54*
X970000Y-9448800D02*
X970000Y-9906000D01*
X9144000Y-13159000D02*
X6555000Y-13159000D01*
D53*
X24734000Y-15228000D02*
X24734000Y-16494000D01*
X750000Y-19812000D02*
X750000Y-21197000D01*
D54*
X3556000Y-11545000D02*
X4922000Y-11545000D01*
X19050000Y-14224000D02*
X18999200Y-14173200D01*
X-20243000Y-9575000D02*
X-20612100Y-9944100D01*
X970000Y-9906000D02*
X2609000Y-11545000D01*
X970000Y-9448800D02*
X970000Y-8000000D01*
D53*
X-17272000Y-15760000D02*
X-17272000Y-14429000D01*
D54*
X-17018000Y-13131800D02*
X-17043400Y-13106400D01*
X25539000Y-15228000D02*
X25654000Y-15113000D01*
D55*
X18618000Y-286000D02*
X18130000Y-774000D01*
D54*
X19957000Y-14224000D02*
X19050000Y-14224000D01*
D55*
X-2483000Y-5715000D02*
X-1016000Y-5715000D01*
D53*
X2728600Y-21550000D02*
X2743200Y-21564600D01*
D54*
X6555000Y-13159000D02*
X5715000Y-12319000D01*
D53*
X25782000Y3430000D02*
X26512000Y3430000D01*
X32000000Y-6350000D02*
X32000000Y-5211000D01*
D54*
X2970000Y-8000000D02*
X970000Y-8000000D01*
D53*
X28750000Y15748000D02*
X28750000Y20114000D01*
X750000Y-21197000D02*
X1103000Y-21550000D01*
D54*
X-20243000Y8750000D02*
X-20243000Y7493800D01*
D53*
X-14605000Y-18491200D02*
X-14630400Y-18465800D01*
D54*
X-20243000Y7493800D02*
X-20243800Y7493000D01*
X-20612100Y-9944100D02*
X-20637500Y-9969500D01*
X-20447000Y-13639800D02*
X-20816000Y-13270800D01*
X5715000Y-12319000D02*
X5696000Y-12319000D01*
D53*
X-17272000Y-14429000D02*
X-17018000Y-14175000D01*
X29040000Y-18880000D02*
X29032200Y-18872200D01*
D54*
X-20637500Y-9969500D02*
X-20816000Y-10148000D01*
X-20243000Y10006800D02*
X-20243800Y10007600D01*
D53*
X28036000Y2032000D02*
X27300000Y1296000D01*
X25527000Y3429000D02*
X25781000Y3429000D01*
D54*
X24734000Y-15228000D02*
X25539000Y-15228000D01*
X12446000Y-13159000D02*
X9144000Y-13159000D01*
X-20816000Y-13270800D02*
X-20816000Y-12446000D01*
X-19911800Y-14175000D02*
X-20447000Y-13639800D01*
X970000Y-6604000D02*
X970000Y-8000000D01*
D53*
X29650000Y-21550000D02*
X29650000Y-20422000D01*
D54*
X15953000Y-13159000D02*
X16002000Y-13208000D01*
D55*
X19177000Y-286000D02*
X18618000Y-286000D01*
D54*
X2970000Y-6654800D02*
X2970000Y-8000000D01*
X-20243000Y-7341400D02*
X-20243800Y-7340600D01*
X970000Y8000000D02*
X970000Y9606000D01*
X20924000Y-8431000D02*
X22811000Y-8431000D01*
X14970000Y9763000D02*
X14986000Y9779000D01*
X-17018000Y-14175000D02*
X-17018000Y-13131800D01*
X14970000Y8000000D02*
X14970000Y6366000D01*
D53*
X6113500Y15511500D02*
X6121400Y15519400D01*
D54*
X970000Y9606000D02*
X1016000Y9652000D01*
X14970000Y8000000D02*
X14970000Y9763000D01*
D53*
X29040000Y-19812000D02*
X29040000Y-18880000D01*
D54*
X-17018000Y-14175000D02*
X-19911800Y-14175000D01*
X20924000Y-7270000D02*
X20955000Y-7239000D01*
X23700000Y-927000D02*
X21311000Y-927000D01*
X20924000Y-8431000D02*
X20924000Y-7270000D01*
D53*
X27300000Y1296000D02*
X27300000Y-212000D01*
D54*
X19732000Y-17018000D02*
X19732000Y-14449000D01*
D53*
X28629400Y22450000D02*
X28600400Y22479000D01*
D56*
X18288000Y8304000D02*
X18288000Y6731000D01*
D54*
X-20243000Y-7519200D02*
X-20243000Y-7341400D01*
X25715000Y-927000D02*
X26350000Y-1562000D01*
D53*
X1475500Y-15796500D02*
X1524000Y-15748000D01*
X24734000Y-16494000D02*
X25258000Y-17018000D01*
D54*
X22811000Y-8431000D02*
X22860000Y-8382000D01*
X-20243000Y8750000D02*
X-20243000Y10006800D01*
X-20243000Y-8750000D02*
X-20243000Y-7519200D01*
D53*
X-15748000Y-15760000D02*
X-15748000Y-15445000D01*
X-18862000Y-18552200D02*
X-18846800Y-18567400D01*
X25781000Y3429000D02*
X25782000Y3430000D01*
X29650000Y21014000D02*
X29650000Y22450000D01*
D54*
X18130000Y-5068000D02*
X18130000Y-6065000D01*
X18130000Y-6065000D02*
X18161000Y-6096000D01*
D55*
X20670000Y-286000D02*
X19177000Y-286000D01*
D54*
X14066000Y-13159000D02*
X12446000Y-13159000D01*
D53*
X-11049000Y-18491200D02*
X-14605000Y-18491200D01*
%TO.N,EN*%
X-16484600Y5359400D02*
X-17703000Y4141000D01*
X-20066000Y18046000D02*
X-20066000Y16498000D01*
X-13467000Y17535500D02*
X-15884500Y17535500D01*
X-15884500Y17535500D02*
X-16395000Y18046000D01*
X-16395000Y18046000D02*
X-20066000Y18046000D01*
X-17703000Y4141000D02*
X-17703000Y-8750000D01*
X-13411200Y5359400D02*
X-16484600Y5359400D01*
%TO.N,BUTTON*%
X-17272000Y-17260000D02*
X-17272000Y-18554000D01*
X-15748000Y-17260000D02*
X-17272000Y-17260000D01*
%TO.N,Vbatt*%
X31750000Y10426000D02*
X31750000Y9906000D01*
X34163000Y-5588000D02*
X34036000Y-5461000D01*
D57*
X21760844Y-2197000D02*
X21683844Y-2274000D01*
X23700000Y-2197000D02*
X21760844Y-2197000D01*
D58*
X36449000Y-1143000D02*
X35092000Y-2500000D01*
D53*
X34163000Y-7251000D02*
X34163000Y-5588000D01*
X12766000Y14920000D02*
X12966000Y14720000D01*
X11701500Y14920000D02*
X12766000Y14920000D01*
X34036000Y-5461000D02*
X34036000Y-2536000D01*
D57*
X18288000Y2794000D02*
X20924000Y2794000D01*
D53*
X34036000Y-2536000D02*
X34000000Y-2500000D01*
X16510000Y6682000D02*
X18288000Y4904000D01*
D57*
X18130000Y-3568000D02*
X18130000Y-2274000D01*
D53*
X31750000Y9906000D02*
X32480000Y9176000D01*
D57*
X21683844Y-2274000D02*
X18130000Y-2274000D01*
D58*
X34290000Y7620000D02*
X36449000Y5461000D01*
X36449000Y5461000D02*
X36449000Y-1143000D01*
D57*
X18288000Y2794000D02*
X18288000Y4904000D01*
X18130000Y-2274000D02*
X16274000Y-2274000D01*
D58*
X35092000Y-2500000D02*
X34000000Y-2500000D01*
D57*
X15000000Y-1000000D02*
X15000000Y1000000D01*
D53*
X32480000Y9176000D02*
X34290000Y9176000D01*
D57*
X16794000Y2794000D02*
X18288000Y2794000D01*
D53*
X12966000Y14720000D02*
X13558000Y14720000D01*
X16510000Y13081000D02*
X16510000Y6682000D01*
D57*
X16274000Y-2274000D02*
X15000000Y-1000000D01*
D53*
X13558000Y14720000D02*
X14871000Y14720000D01*
D57*
X15000000Y1000000D02*
X16794000Y2794000D01*
D53*
X14871000Y14720000D02*
X16510000Y13081000D01*
D58*
X34290000Y9176000D02*
X34290000Y7620000D01*
D53*
%TO.N,/CPU/Vsamp*%
X-12623000Y-8750000D02*
X-12623000Y-9841000D01*
X10248200Y10070400D02*
X10325100Y10147300D01*
X-4038600Y-1066800D02*
X-5486400Y-1066800D01*
X-12623000Y-9841000D02*
X-13450000Y-10668000D01*
X-13450000Y-15203585D02*
X-13462000Y-15215585D01*
X10325100Y10147300D02*
X10735600Y10557800D01*
X-13450000Y-13691585D02*
X-13450000Y-15203585D01*
X9474200Y10070400D02*
X10248200Y10070400D01*
X-5486400Y-1066800D02*
X-12623000Y-8203400D01*
X-12623000Y-8203400D02*
X-12623000Y-8750000D01*
X10735600Y10557800D02*
X10735600Y11099800D01*
%TO.N,Net-(U201-ENA)*%
X23700000Y811000D02*
X23700000Y343000D01*
X23222000Y3556000D02*
X23222000Y1289000D01*
X23222000Y1289000D02*
X23700000Y811000D01*
X23222000Y3556000D02*
X23222000Y3580000D01*
X23222000Y3580000D02*
X24722000Y5080000D01*
D57*
%TO.N,Net-(D204-K)*%
X23700000Y-3467000D02*
X22189314Y-3467000D01*
X22189314Y-3467000D02*
X22181314Y-3475000D01*
D53*
X28369000Y-5636000D02*
X26004000Y-5636000D01*
D57*
X21481001Y-3474999D02*
X20670000Y-4286000D01*
X23700000Y-3467000D02*
X23835000Y-3467000D01*
D53*
X30068000Y-6592000D02*
X29325000Y-6592000D01*
D57*
X23835000Y-3467000D02*
X26004000Y-5636000D01*
D53*
X29325000Y-6592000D02*
X28369000Y-5636000D01*
D57*
X22181314Y-3475000D02*
X21481001Y-3474999D01*
D53*
%TO.N,Net-(U201-BOOT)*%
X30068000Y-3779000D02*
X29845000Y-3556000D01*
X29000000Y-3467000D02*
X29756000Y-3467000D01*
X29756000Y-3467000D02*
X29845000Y-3556000D01*
X30068000Y-5092000D02*
X30068000Y-3779000D01*
%TO.N,LEDS*%
X-7543000Y-14707400D02*
X-1650000Y-20600400D01*
X-1650000Y-20600400D02*
X-1650000Y-21550000D01*
X-7543000Y-8750000D02*
X-7543000Y-14707400D01*
%TO.N,Net-(D104-DOUT)*%
X26350000Y-23256200D02*
X26350000Y-21550000D01*
X23156200Y-26450000D02*
X26350000Y-23256200D01*
X1650000Y-26450000D02*
X23156200Y-26450000D01*
%TO.N,Net-(D105-DOUT)*%
X35407600Y14808200D02*
X37084000Y13131800D01*
X29650000Y-24553600D02*
X36017200Y-18186400D01*
X26350000Y22450000D02*
X26350000Y21656000D01*
X29650000Y-26450000D02*
X29650000Y-24553600D01*
X28244800Y14808200D02*
X35407600Y14808200D01*
X27990800Y20015200D02*
X27990800Y15062200D01*
X27990800Y15062200D02*
X28244800Y14808200D01*
X37084000Y13131800D02*
X37084000Y7391400D01*
X36017200Y-18186400D02*
X36017200Y-13030200D01*
X26350000Y21656000D02*
X27990800Y20015200D01*
D58*
%TO.N,Net-(D201-A)*%
X21082000Y18161000D02*
X26067000Y13176000D01*
X26067000Y13176000D02*
X34290000Y13176000D01*
X21082000Y19812000D02*
X21082000Y18161000D01*
D53*
%TO.N,Net-(D203-A)*%
X18582000Y19812000D02*
X18582000Y18375000D01*
X22826000Y14131000D02*
X22826000Y11430000D01*
X18582000Y18375000D02*
X22826000Y14131000D01*
%TO.N,Net-(D203-K)*%
X24926000Y11430000D02*
X24926000Y10829000D01*
X24722000Y10625000D02*
X24722000Y9652000D01*
X24926000Y10829000D02*
X24722000Y10625000D01*
D54*
%TO.N,Net-(D205-A)*%
X27274000Y-17002000D02*
X27258000Y-17018000D01*
D53*
X27274000Y-15228000D02*
X27274000Y-17002000D01*
%TO.N,/CPU/COM*%
X33020000Y-9652000D02*
X33018000Y-9650000D01*
X33274000Y-9398000D02*
X33020000Y-9652000D01*
X33018000Y-9650000D02*
X32000000Y-9650000D01*
X32131000Y-762000D02*
X32131000Y-3683000D01*
X34000000Y0D02*
X32893000Y0D01*
X33274000Y-4826000D02*
X33274000Y-9398000D01*
X32131000Y-3683000D02*
X33274000Y-4826000D01*
X32893000Y0D02*
X32131000Y-762000D01*
%TO.N,DR0*%
X-5842000Y17780000D02*
X-5842000Y11938000D01*
X-8137500Y20075500D02*
X-5842000Y17780000D01*
X-3733000Y9829000D02*
X-5842000Y11938000D01*
X-5842000Y11938000D02*
X-3290000Y11938000D01*
X-3733000Y8750000D02*
X-3733000Y9829000D01*
X-8387000Y20075500D02*
X-8137500Y20075500D01*
%TO.N,RX*%
X-8387000Y17267000D02*
X-8387000Y17535500D01*
X-11658600Y13995400D02*
X-8387000Y17267000D01*
X-14605000Y11448240D02*
X-14618000Y11461240D01*
X-15163000Y9856000D02*
X-14605000Y10414000D01*
X-14618000Y12661600D02*
X-13284200Y13995400D01*
X-14605000Y10414000D02*
X-14605000Y11448240D01*
X-13284200Y13995400D02*
X-11658600Y13995400D01*
X-14618000Y11461240D02*
X-14618000Y12661600D01*
X-15163000Y8750000D02*
X-15163000Y9856000D01*
%TO.N,TX*%
X-15748000Y14732000D02*
X-13716000Y14732000D01*
X-17272000Y10795000D02*
X-17272000Y13208000D01*
X-13716000Y14732000D02*
X-10927000Y17521000D01*
X-16433000Y8750000D02*
X-16433000Y9956000D01*
X-17272000Y13208000D02*
X-15748000Y14732000D01*
X-10927000Y17521000D02*
X-10927000Y17535500D01*
X-16433000Y9956000D02*
X-17272000Y10795000D01*
%TO.N,/CPU/TX_GPS*%
X-7543000Y8750000D02*
X-7543000Y9906800D01*
X-7543000Y9906800D02*
X-7518400Y9931400D01*
%TO.N,/CPU/RX_GPS*%
X-6273000Y8750000D02*
X-6273000Y9906800D01*
X-6273000Y9906800D02*
X-6070600Y10109200D01*
%TO.N,Net-(Q101-G)*%
X-20762000Y-17350500D02*
X-20762000Y-15548000D01*
X-20762000Y-15548000D02*
X-20816000Y-15494000D01*
%TO.N,Net-(Q102-G)*%
X-327000Y-14798000D02*
X-393000Y-14732000D01*
X1475500Y-14798000D02*
X-327000Y-14798000D01*
%TO.N,Net-(Q201-D)*%
X4238500Y13970000D02*
X7220000Y13970000D01*
X7220000Y13970000D02*
X7970000Y13220000D01*
%TO.N,Net-(Q201-G)*%
X8077200Y11570400D02*
X6895400Y11570400D01*
X6113500Y12352300D02*
X6113500Y13020000D01*
X6895400Y11570400D02*
X6113500Y12352300D01*
%TO.N,Net-(Q202-D)*%
X9826500Y13970000D02*
X9826500Y13407900D01*
X9826500Y13407900D02*
X9474200Y13055600D01*
X9474200Y13055600D02*
X9474200Y11570400D01*
%TO.N,Net-(Q202-G)*%
X12966000Y13220000D02*
X12766000Y13020000D01*
X10321000Y14571000D02*
X10604968Y14571000D01*
X7970000Y14720000D02*
X10172000Y14720000D01*
X10604968Y14571000D02*
X11701500Y13474468D01*
X13558000Y13220000D02*
X12966000Y13220000D01*
X12766000Y13020000D02*
X11701500Y13020000D01*
X10172000Y14720000D02*
X10321000Y14571000D01*
X11701500Y13474468D02*
X11701500Y13020000D01*
%TO.N,BUZZER*%
X-3302000Y-14732000D02*
X-4318000Y-14732000D01*
X-4318000Y-14732000D02*
X-6273000Y-12777000D01*
X-6273000Y-12777000D02*
X-6273000Y-8750000D01*
X-1893000Y-14732000D02*
X-3302000Y-14732000D01*
%TO.N,/CPU/VbatEn*%
X7479600Y10668000D02*
X8077200Y10070400D01*
X-5410200Y-2413000D02*
X-10083000Y-7085800D01*
X6680200Y10668000D02*
X7479600Y10668000D01*
X-10083000Y-7085800D02*
X-10083000Y-8750000D01*
%TO.N,Net-(R205-Pad1)*%
X22733000Y8128000D02*
X22479000Y7874000D01*
X22479000Y6889000D02*
X20924000Y5334000D01*
X23222000Y8128000D02*
X22733000Y8128000D01*
X22479000Y7874000D02*
X22479000Y6889000D01*
%TO.N,Net-(R207-Pad2)*%
X23222000Y5080000D02*
X23222000Y6604000D01*
%TO.N,Net-(U201-Vsens)*%
X30068000Y-8636000D02*
X30068000Y-10172000D01*
X30861000Y-7843000D02*
X30068000Y-8636000D01*
X29000000Y343000D02*
X30137000Y343000D01*
X29000000Y1496000D02*
X29536000Y2032000D01*
X29000000Y343000D02*
X29000000Y1496000D01*
X30861000Y-381000D02*
X30861000Y-7843000D01*
X30137000Y343000D02*
X30861000Y-381000D01*
%TO.N,/CPU/RADIO_4*%
X-685800Y10287000D02*
X2362200Y10287000D01*
X-8813000Y8432000D02*
X-8026400Y7645400D01*
X-3327400Y7645400D02*
X-685800Y10287000D01*
X2362200Y10287000D02*
X2970000Y9679200D01*
X2970000Y9679200D02*
X2970000Y8000000D01*
X-8813000Y8750000D02*
X-8813000Y8432000D01*
X-8026400Y7645400D02*
X-3327400Y7645400D01*
%TO.N,/CPU/RADIO_5*%
X6970000Y-6055600D02*
X6970000Y-8000000D01*
X-2483000Y-4445000D02*
X5359400Y-4445000D01*
X5359400Y-4445000D02*
X6970000Y-6055600D01*
%TO.N,/CPU/RADIO_1*%
X-3784600Y5943600D02*
X-4521200Y5943600D01*
X-18973000Y7898600D02*
X-18973000Y8750000D01*
X-17018000Y5943600D02*
X-18973000Y7898600D01*
X4970000Y8000000D02*
X4970000Y9127000D01*
X-3784600Y5943600D02*
X-17018000Y5943600D01*
X4970000Y9127000D02*
X4622800Y9474200D01*
%TO.N,/CPU/RADIO_3*%
X8970000Y6760200D02*
X8970000Y8000000D01*
X228600Y6477000D02*
X8686800Y6477000D01*
X-10083000Y8750000D02*
X-10083000Y8482800D01*
X-538800Y7244400D02*
X228600Y6477000D01*
X-10083000Y8482800D02*
X-8844600Y7244400D01*
X8686800Y6477000D02*
X8970000Y6760200D01*
X-8844600Y7244400D02*
X-538800Y7244400D01*
%TO.N,/CPU/RADIO_2*%
X-9815200Y6843400D02*
X-11353000Y8381200D01*
X6756400Y9525000D02*
X6828000Y9525000D01*
X-849000Y6843400D02*
X-9815200Y6843400D01*
X177800Y5816600D02*
X-849000Y6843400D01*
X6828000Y9525000D02*
X6970000Y9383000D01*
X3048000Y5816600D02*
X177800Y5816600D01*
X-11353000Y8381200D02*
X-11353000Y8750000D01*
X6970000Y9383000D02*
X6970000Y8000000D01*
%TO.N,/CPU/ON*%
X23222000Y9628000D02*
X24722000Y8128000D01*
X28195000Y6730000D02*
X31623000Y3302000D01*
X24722000Y8128000D02*
X24722000Y6604000D01*
X26512000Y6730000D02*
X28195000Y6730000D01*
X31623000Y3302000D02*
X31623000Y-4241800D01*
X26512000Y6730000D02*
X25780000Y6730000D01*
X23222000Y9652000D02*
X23222000Y9628000D01*
X25780000Y6730000D02*
X25654000Y6604000D01*
X25654000Y6604000D02*
X24722000Y6604000D01*
%TO.N,Net-(J103-Pin_2)*%
X-17272000Y-22352000D02*
X-16002000Y-23622000D01*
X-17272000Y-20054000D02*
X-17272000Y-22352000D01*
%TO.N,Net-(J103-Pin_6)*%
X34163000Y-8751000D02*
X34163000Y-10922000D01*
X34163000Y-10922000D02*
X32562800Y-12522200D01*
%TO.N,Net-(J103-Pin_1)*%
X-19812000Y-19225500D02*
X-19812000Y-22312000D01*
X-19812000Y-22312000D02*
X-18502000Y-23622000D01*
%TO.N,/CPU/RADIO_6*%
X8970000Y-4347200D02*
X8970000Y-8000000D01*
X177800Y4445000D02*
X8970000Y-4347200D01*
X-2483000Y4445000D02*
X177800Y4445000D01*
%TD*%
M02*
