M48
; DRILL file {KiCad 9.0.2} date 2025-06-17T18:05:03+0200
; FORMAT={-:-/ absolute / inch / decimal}
; #@! TF.CreationDate,2025-06-17T18:05:03+02:00
; #@! TF.GenerationSoftware,Kicad,Pcbnew,9.0.2
; #@! TF.FileFunction,Plated,1,4,PTH
FMAT,2
INCH
; #@! TA.AperFunction,Plated,PTH,ComponentDrill
T1C0.0079
; #@! TA.AperFunction,Plated,PTH,ViaDrill
T2C0.0098
; #@! TA.AperFunction,Plated,PTH,ViaDrill
T3C0.0157
; #@! TA.AperFunction,Plated,PTH,ComponentDrill
T4C0.0315
; #@! TA.AperFunction,Plated,PTH,ComponentDrill
T5C0.0374
; #@! TA.AperFunction,Plated,PTH,ComponentDrill
T6C0.0394
; #@! TA.AperFunction,Plated,PTH,ComponentDrill
T7C0.0591
%
G90
G05
T1
X1.1179Y-0.3299
X1.1179Y-0.385
X1.1179Y-0.4401
X1.173Y-0.3299
X1.173Y-0.385
X1.173Y-0.4401
T2
X-1.443Y0.648
X-1.437Y0.6102
X-1.437Y-0.5709
X-1.437Y-0.6496
X-1.261Y-0.652
X-1.213Y0.659
X-1.207Y0.613
X-1.197Y0.887
X-1.163Y-0.546
X-1.159Y-0.313
X-1.158Y-0.209
X-1.158Y-0.263
X-1.156Y-0.168
X-1.153Y0.057
X-1.153Y-0.043
X-1.152Y0.002
X-1.152Y-0.086
X-1.152Y-0.126
X-1.146Y0.232
X-1.146Y0.122
X-1.144Y0.199
X-1.108Y0.41
X-1.108Y0.311
X-0.9595Y-0.6575
X-0.958Y-0.272
X-0.925Y0.457
X-0.92Y0.836
X-0.857Y0.414
X-0.8495Y0.8465
X-0.831Y-0.376
X-0.8178Y-0.0185
X-0.745Y-0.495
X-0.566Y0.434
X-0.5245Y0.4345
X-0.464Y0.495
X-0.459Y-0.21
X-0.457Y0.525
X-0.457Y0.402
X-0.414Y0.603
X-0.365Y-0.406
X-0.31Y0.33
X-0.26Y-0.234
X-0.225Y-0.4326
X-0.181Y-0.229
X-0.175Y0.431
X-0.15Y-0.202
X-0.114Y-0.181
X-0.103Y0.402
X-0.099Y-0.856
X-0.09Y-0.483
X-0.038Y0.443
X0.035Y0.401
X0.04Y-0.4326
X0.15Y-0.407
X0.164Y-0.7678
X0.209Y0.466
X0.2112Y-0.5292
X0.235Y-0.7575
X0.2835Y-0.7825
X0.2909Y0.3929
X0.291Y0.265
X0.367Y0.34
X0.3846Y0.06
X0.445Y0.142
X0.448Y-0.14
X0.471Y-0.245
X0.504Y-0.444
X0.629Y0.251
X0.648Y-0.651
X0.717Y-0.111
X0.725Y-0.181
X0.731Y0.333
X0.77Y-0.3035
X0.797Y-0.304
X0.8601Y-0.631
X0.861Y0.19
X0.953Y-0.408
X0.988Y-0.41
X1.2Y-0.644
X1.253Y0.358
X1.276Y-0.498
X1.2973Y-0.5637
X1.3131Y-0.3661
X1.336Y0.568
X1.368Y-0.3455
X1.39Y-0.6119
X1.4048Y-0.25
X1.428Y0.881
X1.428Y0.66
X1.433Y-0.3455
X1.436Y-0.686
X1.438Y-0.891
X1.483Y-0.6119
X1.497Y0.16
X1.669Y0.648
X1.674Y-0.646
T3
X-1.17Y-0.66
X-1.12Y-0.54
X-1.11Y-0.27
X-1.0Y-0.46
T4
X0.574Y0.782
X0.574Y0.526
T5
X-0.9901Y-0.811
X-0.8917Y-0.811
X-0.7933Y-0.811
X-0.6949Y-0.811
X-0.5964Y-0.811
X-0.498Y-0.811
X-0.097Y0.813
X0.0014Y0.813
X0.0999Y0.813
X0.1983Y0.813
X1.6Y0.0984
X1.6Y0.0
X1.6Y-0.0984
T6
X-1.11Y0.7498
X-1.11Y0.6498
X-0.97Y0.75
X-0.97Y0.65
X-0.6802Y0.7004
X-0.6802Y0.6004
X-0.5802Y0.7004
X-0.5802Y0.6004
X-0.4802Y0.7004
X-0.4802Y0.6004
X1.022Y0.0
X1.122Y0.0
X1.222Y0.0
T7
X0.834Y0.032
M30
