%TF.GenerationSoftware,KiCad,Pcbnew,9.0.0-rc1*%
%TF.CreationDate,2025-03-28T12:21:10+01:00*%
%TF.ProjectId,Robobuoy-Top-Round-v2_0,526f626f-6275-46f7-992d-546f702d526f,rev?*%
%TF.SameCoordinates,Original*%
%TF.FileFunction,Soldermask,Top*%
%TF.FilePolarity,Negative*%
%FSLAX46Y46*%
G04 Gerber Fmt 4.6, Leading zero omitted, Abs format (unit mm)*
G04 Created by KiCad (PCBNEW 9.0.0-rc1) date 2025-03-28 12:21:10*
%MOMM*%
%LPD*%
G01*
G04 APERTURE LIST*
G04 Aperture macros list*
%AMRoundRect*
0 Rectangle with rounded corners*
0 $1 Rounding radius*
0 $2 $3 $4 $5 $6 $7 $8 $9 X,Y pos of 4 corners*
0 Add a 4 corners polygon primitive as box body*
4,1,4,$2,$3,$4,$5,$6,$7,$8,$9,$2,$3,0*
0 Add four circle primitives for the rounded corners*
1,1,$1+$1,$2,$3*
1,1,$1+$1,$4,$5*
1,1,$1+$1,$6,$7*
1,1,$1+$1,$8,$9*
0 Add four rect primitives between the rounded corners*
20,1,$1+$1,$2,$3,$4,$5,0*
20,1,$1+$1,$4,$5,$6,$7,0*
20,1,$1+$1,$6,$7,$8,$9,0*
20,1,$1+$1,$8,$9,$2,$3,0*%
G04 Aperture macros list end*
%ADD10RoundRect,0.250000X2.250000X-2.250000X2.250000X2.250000X-2.250000X2.250000X-2.250000X-2.250000X0*%
%ADD11RoundRect,0.225000X0.225000X-0.525000X0.225000X0.525000X-0.225000X0.525000X-0.225000X-0.525000X0*%
%ADD12RoundRect,0.225000X0.525000X0.225000X-0.525000X0.225000X-0.525000X-0.225000X0.525000X-0.225000X0*%
%ADD13RoundRect,0.200000X0.200000X0.250000X-0.200000X0.250000X-0.200000X-0.250000X0.200000X-0.250000X0*%
%ADD14RoundRect,0.200000X0.250000X-0.200000X0.250000X0.200000X-0.250000X0.200000X-0.250000X-0.200000X0*%
%ADD15RoundRect,0.200000X-0.250000X0.200000X-0.250000X-0.200000X0.250000X-0.200000X0.250000X0.200000X0*%
%ADD16RoundRect,0.090000X0.360000X-0.660000X0.360000X0.660000X-0.360000X0.660000X-0.360000X-0.660000X0*%
%ADD17C,1.000000*%
%ADD18RoundRect,0.150000X-0.587500X-0.150000X0.587500X-0.150000X0.587500X0.150000X-0.587500X0.150000X0*%
%ADD19RoundRect,0.225000X0.375000X-0.225000X0.375000X0.225000X-0.375000X0.225000X-0.375000X-0.225000X0*%
%ADD20RoundRect,0.375000X0.375000X0.475000X-0.375000X0.475000X-0.375000X-0.475000X0.375000X-0.475000X0*%
%ADD21RoundRect,0.150000X0.587500X0.150000X-0.587500X0.150000X-0.587500X-0.150000X0.587500X-0.150000X0*%
%ADD22RoundRect,0.250000X-1.100000X0.325000X-1.100000X-0.325000X1.100000X-0.325000X1.100000X0.325000X0*%
%ADD23RoundRect,0.112500X0.187500X0.112500X-0.187500X0.112500X-0.187500X-0.112500X0.187500X-0.112500X0*%
%ADD24RoundRect,0.200000X-0.200000X-0.250000X0.200000X-0.250000X0.200000X0.250000X-0.200000X0.250000X0*%
%ADD25RoundRect,0.250000X0.600000X-0.600000X0.600000X0.600000X-0.600000X0.600000X-0.600000X-0.600000X0*%
%ADD26C,1.700000*%
%ADD27C,3.000000*%
%ADD28R,1.700000X1.700000*%
%ADD29O,1.700000X1.700000*%
%ADD30RoundRect,0.250000X0.650000X-1.000000X0.650000X1.000000X-0.650000X1.000000X-0.650000X-1.000000X0*%
%ADD31R,1.650000X1.650000*%
%ADD32RoundRect,0.375000X0.475000X-0.375000X0.475000X0.375000X-0.475000X0.375000X-0.475000X-0.375000X0*%
%ADD33RoundRect,0.250000X-0.600000X-0.725000X0.600000X-0.725000X0.600000X0.725000X-0.600000X0.725000X0*%
%ADD34O,1.700000X1.950000*%
%ADD35RoundRect,0.112500X0.112500X-0.187500X0.112500X0.187500X-0.112500X0.187500X-0.112500X-0.187500X0*%
%ADD36RoundRect,0.230769X-1.519231X0.969231X-1.519231X-0.969231X1.519231X-0.969231X1.519231X0.969231X0*%
%ADD37RoundRect,0.250000X0.725000X-0.600000X0.725000X0.600000X-0.725000X0.600000X-0.725000X-0.600000X0*%
%ADD38O,1.950000X1.700000*%
%ADD39RoundRect,0.250000X0.600000X0.725000X-0.600000X0.725000X-0.600000X-0.725000X0.600000X-0.725000X0*%
%ADD40RoundRect,0.206250X0.618750X-0.618750X0.618750X0.618750X-0.618750X0.618750X-0.618750X-0.618750X0*%
%ADD41R,1.500000X2.000000*%
%ADD42RoundRect,0.300000X-0.300000X-0.400000X0.300000X-0.400000X0.300000X0.400000X-0.300000X0.400000X0*%
%ADD43RoundRect,0.150000X0.650000X0.150000X-0.650000X0.150000X-0.650000X-0.150000X0.650000X-0.150000X0*%
%ADD44R,2.400000X3.200000*%
%ADD45RoundRect,0.250000X0.325000X1.100000X-0.325000X1.100000X-0.325000X-1.100000X0.325000X-1.100000X0*%
%ADD46RoundRect,0.250000X1.100000X-0.325000X1.100000X0.325000X-1.100000X0.325000X-1.100000X-0.325000X0*%
%ADD47RoundRect,0.150000X-0.150000X0.587500X-0.150000X-0.587500X0.150000X-0.587500X0.150000X0.587500X0*%
%ADD48RoundRect,0.225000X-0.375000X0.225000X-0.375000X-0.225000X0.375000X-0.225000X0.375000X0.225000X0*%
G04 APERTURE END LIST*
D10*
%TO.C,U101*%
X-12898000Y-860000D03*
D11*
X-20243000Y8750000D03*
X-18973000Y8750000D03*
X-17703000Y8750000D03*
X-16433000Y8750000D03*
X-15163000Y8750000D03*
X-13893000Y8750000D03*
X-12623000Y8750000D03*
X-11353000Y8750000D03*
X-10083000Y8750000D03*
X-8813000Y8750000D03*
X-7543000Y8750000D03*
X-6273000Y8750000D03*
X-5003000Y8750000D03*
X-3733000Y8750000D03*
D12*
X-2483000Y5715000D03*
X-2483000Y4445000D03*
X-2483000Y3175000D03*
X-2483000Y1905000D03*
X-2483000Y635000D03*
X-2483000Y-635000D03*
X-2483000Y-1905000D03*
X-2483000Y-3175000D03*
X-2483000Y-4445000D03*
X-2483000Y-5715000D03*
D11*
X-3733000Y-8750000D03*
X-5003000Y-8750000D03*
X-6273000Y-8750000D03*
X-7543000Y-8750000D03*
X-8813000Y-8750000D03*
X-10083000Y-8750000D03*
X-11353000Y-8750000D03*
X-12623000Y-8750000D03*
X-13893000Y-8750000D03*
X-15163000Y-8750000D03*
X-16433000Y-8750000D03*
X-17703000Y-8750000D03*
X-18973000Y-8750000D03*
X-20243000Y-8750000D03*
%TD*%
D13*
%TO.C,R209*%
X24722000Y5080000D03*
X23222000Y5080000D03*
%TD*%
D14*
%TO.C,C207*%
X30068000Y-6592000D03*
X30068000Y-5092000D03*
%TD*%
D15*
%TO.C,R102*%
X-20066000Y19546000D03*
X-20066000Y18046000D03*
%TD*%
D16*
%TO.C,D104*%
X-1650000Y-26450000D03*
X1650000Y-26450000D03*
X1650000Y-21550000D03*
X-1650000Y-21550000D03*
%TD*%
D17*
%TO.C,TP204*%
X30068000Y-8636000D03*
%TD*%
D14*
%TO.C,C203*%
X18130000Y-2274000D03*
X18130000Y-774000D03*
%TD*%
%TO.C,C113*%
X-17272000Y-17260000D03*
X-17272000Y-15760000D03*
%TD*%
D18*
%TO.C,Q102*%
X1475500Y-14798000D03*
X1475500Y-16698000D03*
X3350500Y-15748000D03*
%TD*%
D16*
%TO.C,D105*%
X26350000Y-26450000D03*
X29650000Y-26450000D03*
X29650000Y-21550000D03*
X26350000Y-21550000D03*
%TD*%
D13*
%TO.C,R101*%
X-1790000Y11938000D03*
X-3290000Y11938000D03*
%TD*%
D19*
%TO.C,D206*%
X32000000Y-9650000D03*
X32000000Y-6350000D03*
%TD*%
D20*
%TO.C,C211*%
X23132000Y-17018000D03*
X19732000Y-17018000D03*
%TD*%
D21*
%TO.C,Q202*%
X11701500Y13020000D03*
X11701500Y14920000D03*
X9826500Y13970000D03*
%TD*%
D22*
%TO.C,C302*%
X14066000Y-10209000D03*
X14066000Y-13159000D03*
%TD*%
D23*
%TO.C,D203*%
X24926000Y11430000D03*
X22826000Y11430000D03*
%TD*%
D24*
%TO.C,C204*%
X-13450000Y-13691585D03*
X-11950000Y-13691585D03*
%TD*%
%TO.C,C205*%
X23222000Y2032000D03*
X24722000Y2032000D03*
%TD*%
D13*
%TO.C,R212*%
X29536000Y2032000D03*
X28036000Y2032000D03*
%TD*%
%TO.C,R215*%
X24722000Y9652000D03*
X23222000Y9652000D03*
%TD*%
D15*
%TO.C,C104*%
X3556000Y-10045000D03*
X3556000Y-11545000D03*
%TD*%
D13*
%TO.C,C106*%
X-19316000Y-12446000D03*
X-20816000Y-12446000D03*
%TD*%
%TO.C,R119*%
X-19316000Y-15494000D03*
X-20816000Y-15494000D03*
%TD*%
D25*
%TO.C,J101*%
X-13467000Y17535500D03*
D26*
X-13467000Y20075500D03*
X-10927000Y17535500D03*
X-10927000Y20075500D03*
X-8387000Y17535500D03*
X-8387000Y20075500D03*
%TD*%
D13*
%TO.C,C105*%
X-19316000Y-10922000D03*
X-20816000Y-10922000D03*
%TD*%
D27*
%TO.C,TP203*%
X-11049000Y-18491200D03*
%TD*%
D28*
%TO.C,SW101*%
X-8382000Y11938000D03*
D29*
X-5842000Y11938000D03*
%TD*%
D24*
%TO.C,R205*%
X23222000Y8128000D03*
X24722000Y8128000D03*
%TD*%
D14*
%TO.C,R202*%
X13558000Y13220000D03*
X13558000Y14720000D03*
%TD*%
D15*
%TO.C,C303*%
X4922000Y-10045000D03*
X4922000Y-11545000D03*
%TD*%
D28*
%TO.C,SW102*%
X-16007000Y11938000D03*
D29*
X-13467000Y11938000D03*
%TD*%
D30*
%TO.C,D201*%
X34290000Y9176000D03*
X34290000Y13176000D03*
%TD*%
D31*
%TO.C,BZ101*%
X9038000Y-20828000D03*
D26*
X15538000Y-20828000D03*
%TD*%
D30*
%TO.C,D204*%
X20670000Y-4286000D03*
X20670000Y-286000D03*
%TD*%
D15*
%TO.C,C202*%
X18130000Y-3568000D03*
X18130000Y-5068000D03*
%TD*%
D32*
%TO.C,C201*%
X18288000Y4904000D03*
X18288000Y8304000D03*
%TD*%
D33*
%TO.C,J103*%
X-18502000Y-23622000D03*
D34*
X-16002000Y-23622000D03*
X-13502000Y-23622000D03*
X-11002000Y-23622000D03*
X-8502000Y-23622000D03*
X-6002000Y-23622000D03*
%TD*%
D35*
%TO.C,D101*%
X5588000Y-16798000D03*
X5588000Y-14698000D03*
%TD*%
D15*
%TO.C,R201*%
X8077200Y11570400D03*
X8077200Y10070400D03*
%TD*%
D22*
%TO.C,C102*%
X-17018000Y-11225000D03*
X-17018000Y-14175000D03*
%TD*%
D36*
%TO.C,L201*%
X26004000Y-5636000D03*
X26004000Y-11636000D03*
%TD*%
D15*
%TO.C,C210*%
X24734000Y-13728000D03*
X24734000Y-15228000D03*
%TD*%
D37*
%TO.C,J201*%
X34000000Y-2500000D03*
D38*
X34000000Y0D03*
X34000000Y2500000D03*
%TD*%
D13*
%TO.C,R207*%
X24722000Y6604000D03*
X23222000Y6604000D03*
%TD*%
D23*
%TO.C,D202*%
X12835600Y11099800D03*
X10735600Y11099800D03*
%TD*%
D21*
%TO.C,Q201*%
X6113500Y13020000D03*
X6113500Y14920000D03*
X4238500Y13970000D03*
%TD*%
D24*
%TO.C,C108*%
X27540000Y-19812000D03*
X29040000Y-19812000D03*
%TD*%
D17*
%TO.C,TP101*%
X-3302000Y-14732000D03*
%TD*%
D22*
%TO.C,C301*%
X7462000Y-10209000D03*
X7462000Y-13159000D03*
%TD*%
D15*
%TO.C,C101*%
X-20066000Y16498000D03*
X-20066000Y14998000D03*
%TD*%
D39*
%TO.C,J104*%
X9338000Y19795000D03*
D34*
X6838000Y19795000D03*
X4338000Y19795000D03*
X1838000Y19795000D03*
%TD*%
D40*
%TO.C,SW201*%
X20924000Y2794000D03*
D26*
X20924000Y5334000D03*
X20924000Y7874000D03*
%TD*%
D15*
%TO.C,R214*%
X31750000Y11926000D03*
X31750000Y10426000D03*
%TD*%
%TO.C,R112*%
X-17272000Y-18554000D03*
X-17272000Y-20054000D03*
%TD*%
D41*
%TO.C,U301*%
X927600Y-7948200D03*
X2927600Y-7948200D03*
X4927600Y-7948200D03*
X6927600Y-7948200D03*
X8927600Y-7948200D03*
X10927600Y-7948200D03*
X12927600Y-7948200D03*
X14927600Y-7948200D03*
X14927600Y8051800D03*
X12927600Y8051800D03*
X10927600Y8051800D03*
X8927600Y8051800D03*
X6927600Y8051800D03*
X4927600Y8051800D03*
X2927600Y8051800D03*
X927600Y8051800D03*
%TD*%
D24*
%TO.C,R208*%
X-13450000Y-10668000D03*
X-11950000Y-10668000D03*
%TD*%
D22*
%TO.C,C103*%
X10764000Y-10209000D03*
X10764000Y-13159000D03*
%TD*%
D13*
%TO.C,R103*%
X-393000Y-14732000D03*
X-1893000Y-14732000D03*
%TD*%
D15*
%TO.C,R104*%
X34163000Y-7251000D03*
X34163000Y-8751000D03*
%TD*%
D14*
%TO.C,R203*%
X7970000Y13220000D03*
X7970000Y14720000D03*
%TD*%
D24*
%TO.C,R204*%
X-13450000Y-12167585D03*
X-11950000Y-12167585D03*
%TD*%
D42*
%TO.C,D205*%
X25258000Y-17018000D03*
X27258000Y-17018000D03*
%TD*%
D14*
%TO.C,R213*%
X27274000Y-15228000D03*
X27274000Y-13728000D03*
%TD*%
D43*
%TO.C,U201*%
X29000000Y-3467000D03*
X29000000Y-2197000D03*
X29000000Y-927000D03*
X29000000Y343000D03*
X23700000Y343000D03*
X23700000Y-927000D03*
X23700000Y-2197000D03*
X23700000Y-3467000D03*
D44*
X26350000Y-1562000D03*
%TD*%
D15*
%TO.C,R206*%
X9474200Y11570400D03*
X9474200Y10070400D03*
%TD*%
D24*
%TO.C,C109*%
X-750000Y-19812000D03*
X750000Y-19812000D03*
%TD*%
D17*
%TO.C,TP202*%
X-13462000Y-15215585D03*
%TD*%
D24*
%TO.C,C107*%
X27250000Y15748000D03*
X28750000Y15748000D03*
%TD*%
D14*
%TO.C,R211*%
X30068000Y-11672000D03*
X30068000Y-10172000D03*
%TD*%
D39*
%TO.C,J202*%
X21082000Y19812000D03*
D34*
X18582000Y19812000D03*
X16082000Y19812000D03*
%TD*%
D45*
%TO.C,C209*%
X22907000Y-14224000D03*
X19957000Y-14224000D03*
%TD*%
D46*
%TO.C,C208*%
X20924000Y-11381000D03*
X20924000Y-8431000D03*
%TD*%
D24*
%TO.C,R210*%
X23222000Y3556000D03*
X24722000Y3556000D03*
%TD*%
D14*
%TO.C,R117*%
X-15748000Y-17260000D03*
X-15748000Y-15760000D03*
%TD*%
D47*
%TO.C,Q101*%
X-18862000Y-17350500D03*
X-20762000Y-17350500D03*
X-19812000Y-19225500D03*
%TD*%
D16*
%TO.C,D106*%
X26350000Y17550000D03*
X29650000Y17550000D03*
X29650000Y22450000D03*
X26350000Y22450000D03*
%TD*%
D48*
%TO.C,D207*%
X26512000Y6730000D03*
X26512000Y3430000D03*
%TD*%
M02*
