%TF.GenerationSoftware,KiCad,Pcbnew,9.0.2*%
%TF.CreationDate,2025-06-18T20:52:38+02:00*%
%TF.ProjectId,Robobuoy-Top-v2_1,526f626f-6275-46f7-992d-546f702d7632,rev?*%
%TF.SameCoordinates,Original*%
%TF.FileFunction,Legend,Bot*%
%TF.FilePolarity,Positive*%
%FSLAX46Y46*%
G04 Gerber Fmt 4.6, Leading zero omitted, Abs format (unit mm)*
G04 Created by KiCad (PCBNEW 9.0.2) date 2025-06-18 20:52:38*
%MOMM*%
%LPD*%
G01*
G04 APERTURE LIST*
G04 Aperture macros list*
%AMRoundRect*
0 Rectangle with rounded corners*
0 $1 Rounding radius*
0 $2 $3 $4 $5 $6 $7 $8 $9 X,Y pos of 4 corners*
0 Add a 4 corners polygon primitive as box body*
4,1,4,$2,$3,$4,$5,$6,$7,$8,$9,$2,$3,0*
0 Add four circle primitives for the rounded corners*
1,1,$1+$1,$2,$3*
1,1,$1+$1,$4,$5*
1,1,$1+$1,$6,$7*
1,1,$1+$1,$8,$9*
0 Add four rect primitives between the rounded corners*
20,1,$1+$1,$2,$3,$4,$5,0*
20,1,$1+$1,$4,$5,$6,$7,0*
20,1,$1+$1,$6,$7,$8,$9,0*
20,1,$1+$1,$8,$9,$2,$3,0*%
G04 Aperture macros list end*
%ADD10C,0.150000*%
%ADD11C,0.100000*%
%ADD12RoundRect,0.250000X-0.600000X-0.725000X0.600000X-0.725000X0.600000X0.725000X-0.600000X0.725000X0*%
%ADD13O,1.700000X1.950000*%
%ADD14C,3.200000*%
%ADD15R,1.700000X1.700000*%
%ADD16C,1.700000*%
%ADD17RoundRect,0.250000X0.600000X-0.600000X0.600000X0.600000X-0.600000X0.600000X-0.600000X-0.600000X0*%
%ADD18RoundRect,0.250000X0.600000X0.725000X-0.600000X0.725000X-0.600000X-0.725000X0.600000X-0.725000X0*%
%ADD19RoundRect,0.206250X-0.618750X-0.618750X0.618750X-0.618750X0.618750X0.618750X-0.618750X0.618750X0*%
%ADD20RoundRect,0.250000X-0.725000X0.600000X-0.725000X-0.600000X0.725000X-0.600000X0.725000X0.600000X0*%
%ADD21O,1.950000X1.700000*%
%ADD22R,1.650000X1.650000*%
%ADD23C,3.000000*%
G04 APERTURE END LIST*
D10*
X-14122477Y19663610D02*
X-14046287Y19701705D01*
X-14046287Y19701705D02*
X-13932001Y19701705D01*
X-13932001Y19701705D02*
X-13817715Y19663610D01*
X-13817715Y19663610D02*
X-13741525Y19587420D01*
X-13741525Y19587420D02*
X-13703430Y19511229D01*
X-13703430Y19511229D02*
X-13665334Y19358848D01*
X-13665334Y19358848D02*
X-13665334Y19244562D01*
X-13665334Y19244562D02*
X-13703430Y19092181D01*
X-13703430Y19092181D02*
X-13741525Y19015991D01*
X-13741525Y19015991D02*
X-13817715Y18939800D01*
X-13817715Y18939800D02*
X-13932001Y18901705D01*
X-13932001Y18901705D02*
X-14008192Y18901705D01*
X-14008192Y18901705D02*
X-14122477Y18939800D01*
X-14122477Y18939800D02*
X-14160573Y18977896D01*
X-14160573Y18977896D02*
X-14160573Y19244562D01*
X-14160573Y19244562D02*
X-14008192Y19244562D01*
X-14503430Y18901705D02*
X-14503430Y19701705D01*
X-14503430Y19701705D02*
X-14960573Y18901705D01*
X-14960573Y18901705D02*
X-14960573Y19701705D01*
X-15341525Y18901705D02*
X-15341525Y19701705D01*
X-15341525Y19701705D02*
X-15532001Y19701705D01*
X-15532001Y19701705D02*
X-15646287Y19663610D01*
X-15646287Y19663610D02*
X-15722477Y19587420D01*
X-15722477Y19587420D02*
X-15760572Y19511229D01*
X-15760572Y19511229D02*
X-15798668Y19358848D01*
X-15798668Y19358848D02*
X-15798668Y19244562D01*
X-15798668Y19244562D02*
X-15760572Y19092181D01*
X-15760572Y19092181D02*
X-15722477Y19015991D01*
X-15722477Y19015991D02*
X-15646287Y18939800D01*
X-15646287Y18939800D02*
X-15532001Y18901705D01*
X-15532001Y18901705D02*
X-15341525Y18901705D01*
G36*
X4457010Y2443461D02*
G01*
X4139177Y2443461D01*
X3724355Y1834796D01*
X3724355Y2443461D01*
X3403499Y2443461D01*
X3403499Y1343000D01*
X3724355Y1343000D01*
X4136893Y1948240D01*
X4136893Y1343000D01*
X4457010Y1343000D01*
X4457010Y2443461D01*
G37*
G36*
X3186214Y2443461D02*
G01*
X2880404Y2443461D01*
X2880404Y2237125D01*
X3186214Y2237125D01*
X3186214Y2443461D01*
G37*
G36*
X3186214Y2142554D02*
G01*
X2880404Y2142554D01*
X2880404Y1343000D01*
X3186214Y1343000D01*
X3186214Y2142554D01*
G37*
G36*
X2089717Y1656804D02*
G01*
X1798952Y1622414D01*
X1818767Y1563850D01*
X1845080Y1511802D01*
X1877873Y1465513D01*
X1917344Y1424997D01*
X1963773Y1390710D01*
X2017983Y1362479D01*
X2076037Y1343082D01*
X2147444Y1330405D01*
X2234797Y1325806D01*
X2356288Y1332308D01*
X2446305Y1349449D01*
X2500805Y1368809D01*
X2549033Y1394330D01*
X2591721Y1426019D01*
X2646113Y1483665D01*
X2687165Y1550210D01*
X2705291Y1599049D01*
X2717283Y1661141D01*
X2721689Y1739419D01*
X2716518Y1820657D01*
X2702102Y1888209D01*
X2679643Y1944345D01*
X2643482Y2000909D01*
X2595483Y2052013D01*
X2540241Y2094301D01*
X2485732Y2122941D01*
X2424978Y2142342D01*
X2349547Y2155100D01*
X2256559Y2159749D01*
X2156496Y2154489D01*
X2075536Y2140055D01*
X2010488Y2118082D01*
X1958607Y2089626D01*
X1911900Y2051280D01*
X1872528Y2005008D01*
X1840108Y1949902D01*
X1814736Y1884633D01*
X2102546Y1845945D01*
X2122254Y1893761D01*
X2151779Y1926344D01*
X2191737Y1946119D01*
X2247559Y1953412D01*
X2295648Y1947141D01*
X2335967Y1929063D01*
X2370407Y1898738D01*
X2394983Y1859533D01*
X2411261Y1805898D01*
X2417356Y1733374D01*
X2411463Y1669121D01*
X2395475Y1620304D01*
X2370810Y1583390D01*
X2336916Y1554931D01*
X2297887Y1537991D01*
X2252059Y1532142D01*
X2212994Y1535753D01*
X2179672Y1546047D01*
X2150973Y1562703D01*
X2126905Y1585625D01*
X2106430Y1616434D01*
X2089717Y1656804D01*
G37*
G36*
X1639028Y2443461D02*
G01*
X726768Y2443461D01*
X726768Y2207034D01*
X1297887Y2207034D01*
X1297887Y2030788D01*
X768143Y2030788D01*
X768143Y1807257D01*
X1297887Y1807257D01*
X1297887Y1592324D01*
X710245Y1592324D01*
X710245Y1343000D01*
X1639028Y1343000D01*
X1639028Y2443461D01*
G37*
G36*
X15203Y2443461D02*
G01*
X-897056Y2443461D01*
X-897056Y2207034D01*
X-325937Y2207034D01*
X-325937Y2030788D01*
X-855681Y2030788D01*
X-855681Y1807257D01*
X-325937Y1807257D01*
X-325937Y1592324D01*
X-913579Y1592324D01*
X-913579Y1343000D01*
X15203Y1343000D01*
X15203Y2443461D01*
G37*
G36*
X-1076458Y2142554D02*
G01*
X-1361245Y2142554D01*
X-1361245Y2011444D01*
X-1406496Y2062075D01*
X-1449442Y2099390D01*
X-1490474Y2125494D01*
X-1535335Y2143933D01*
X-1587946Y2155608D01*
X-1649794Y2159749D01*
X-1712613Y2154547D01*
X-1765549Y2139850D01*
X-1810413Y2116409D01*
X-1848540Y2084119D01*
X-1877970Y2044662D01*
X-1900352Y1994359D01*
X-1914992Y1930720D01*
X-1920342Y1850647D01*
X-1920342Y1343000D01*
X-1612987Y1343000D01*
X-1612987Y1781600D01*
X-1609178Y1831167D01*
X-1599364Y1865198D01*
X-1585179Y1887857D01*
X-1564745Y1904809D01*
X-1539198Y1915281D01*
X-1506997Y1919023D01*
X-1471899Y1914247D01*
X-1442290Y1900404D01*
X-1416792Y1876976D01*
X-1399506Y1846546D01*
X-1387159Y1798518D01*
X-1382269Y1725985D01*
X-1382269Y1343000D01*
X-1076458Y1343000D01*
X-1076458Y2142554D01*
G37*
G36*
X-2320019Y2153298D02*
G01*
X-2258026Y2134774D01*
X-2203556Y2104625D01*
X-2155358Y2062222D01*
X-2117867Y2011320D01*
X-2089797Y1948823D01*
X-2071733Y1872302D01*
X-2065220Y1778711D01*
X-2070155Y1696670D01*
X-2084043Y1626876D01*
X-2105857Y1567472D01*
X-2135074Y1516895D01*
X-2178368Y1465228D01*
X-2225196Y1426602D01*
X-2276021Y1399458D01*
X-2331737Y1383027D01*
X-2393599Y1377390D01*
X-2447262Y1381569D01*
X-2497883Y1393932D01*
X-2546135Y1414533D01*
X-2589389Y1443970D01*
X-2636272Y1490969D01*
X-2636272Y1369263D01*
X-2631761Y1310861D01*
X-2620197Y1271248D01*
X-2603562Y1245273D01*
X-2579502Y1226315D01*
X-2547434Y1214195D01*
X-2504827Y1209742D01*
X-2456887Y1215980D01*
X-2419928Y1233384D01*
X-2400621Y1254288D01*
X-2385337Y1291416D01*
X-2088460Y1325806D01*
X-2086983Y1284767D01*
X-2092864Y1225335D01*
X-2109768Y1173954D01*
X-2137445Y1128971D01*
X-2176785Y1089312D01*
X-2222412Y1061269D01*
X-2288339Y1038330D01*
X-2380773Y1022385D01*
X-2507044Y1016301D01*
X-2609108Y1021307D01*
X-2693767Y1035175D01*
X-2769950Y1060715D01*
X-2828235Y1096297D01*
X-2875395Y1144280D01*
X-2913134Y1206786D01*
X-2937111Y1276816D01*
X-2945105Y1350456D01*
X-2944367Y1385920D01*
X-2944367Y1756949D01*
X-2638556Y1756949D01*
X-2633571Y1700156D01*
X-2620201Y1657935D01*
X-2599868Y1626847D01*
X-2571756Y1602720D01*
X-2540220Y1588559D01*
X-2504021Y1583726D01*
X-2465819Y1588538D01*
X-2434018Y1602335D01*
X-2407099Y1625302D01*
X-2387861Y1655316D01*
X-2375089Y1696762D01*
X-2370292Y1753255D01*
X-2375061Y1818204D01*
X-2387391Y1863345D01*
X-2405219Y1893835D01*
X-2431020Y1917303D01*
X-2461689Y1931329D01*
X-2498782Y1936218D01*
X-2535819Y1931104D01*
X-2568470Y1916014D01*
X-2597987Y1890074D01*
X-2619502Y1857019D01*
X-2633433Y1813644D01*
X-2638556Y1756949D01*
X-2944367Y1756949D01*
X-2944367Y2142554D01*
X-2658102Y2142554D01*
X-2658102Y2022997D01*
X-2620328Y2069187D01*
X-2582703Y2103594D01*
X-2544993Y2127979D01*
X-2503483Y2144895D01*
X-2452884Y2155812D01*
X-2391315Y2159749D01*
X-2320019Y2153298D01*
G37*
G36*
X-3140359Y2443461D02*
G01*
X-3446170Y2443461D01*
X-3446170Y2237125D01*
X-3140359Y2237125D01*
X-3140359Y2443461D01*
G37*
G36*
X-3140359Y2142554D02*
G01*
X-3446170Y2142554D01*
X-3446170Y1343000D01*
X-3140359Y1343000D01*
X-3140359Y2142554D01*
G37*
G36*
X-3641692Y2142554D02*
G01*
X-3926479Y2142554D01*
X-3926479Y2011444D01*
X-3971730Y2062075D01*
X-4014676Y2099390D01*
X-4055708Y2125494D01*
X-4100569Y2143933D01*
X-4153180Y2155608D01*
X-4215028Y2159749D01*
X-4277847Y2154547D01*
X-4330783Y2139850D01*
X-4375647Y2116409D01*
X-4413774Y2084119D01*
X-4443204Y2044662D01*
X-4465586Y1994359D01*
X-4480225Y1930720D01*
X-4485576Y1850647D01*
X-4485576Y1343000D01*
X-4178220Y1343000D01*
X-4178220Y1781600D01*
X-4174411Y1831167D01*
X-4164598Y1865198D01*
X-4150413Y1887857D01*
X-4129979Y1904809D01*
X-4104432Y1915281D01*
X-4072231Y1919023D01*
X-4037132Y1914247D01*
X-4007524Y1900404D01*
X-3982026Y1876976D01*
X-3964740Y1846546D01*
X-3952393Y1798518D01*
X-3947502Y1725985D01*
X-3947502Y1343000D01*
X-3641692Y1343000D01*
X-3641692Y2142554D01*
G37*
G36*
X-4995055Y2154538D02*
G01*
X-4920681Y2139720D01*
X-4855818Y2116179D01*
X-4799118Y2084313D01*
X-4749541Y2044020D01*
X-4697670Y1982547D01*
X-4660583Y1912790D01*
X-4637702Y1833127D01*
X-4629715Y1741300D01*
X-4636704Y1655316D01*
X-4656807Y1579642D01*
X-4689427Y1512462D01*
X-4733802Y1452251D01*
X-4783865Y1405427D01*
X-4840082Y1370472D01*
X-4902456Y1347212D01*
X-4984095Y1331606D01*
X-5089606Y1325806D01*
X-5211096Y1332798D01*
X-5302386Y1351380D01*
X-5369826Y1378733D01*
X-5429662Y1419893D01*
X-5485194Y1477250D01*
X-5536669Y1553636D01*
X-5235358Y1579428D01*
X-5206076Y1547163D01*
X-5182028Y1528918D01*
X-5140121Y1511949D01*
X-5096323Y1506350D01*
X-5051154Y1512342D01*
X-5013168Y1529656D01*
X-4980595Y1558807D01*
X-4963327Y1584909D01*
X-4949748Y1620951D01*
X-4940765Y1669700D01*
X-5553930Y1669700D01*
X-5553930Y1704089D01*
X-5547423Y1807806D01*
X-5545702Y1815855D01*
X-5242881Y1815855D01*
X-4941504Y1815855D01*
X-4955166Y1880793D01*
X-4976833Y1922045D01*
X-5009348Y1953943D01*
X-5047531Y1972720D01*
X-5093301Y1979204D01*
X-5133849Y1974721D01*
X-5167265Y1962016D01*
X-5195125Y1941322D01*
X-5216072Y1913458D01*
X-5232402Y1872977D01*
X-5242881Y1815855D01*
X-5545702Y1815855D01*
X-5529529Y1891514D01*
X-5502078Y1958786D01*
X-5462167Y2018975D01*
X-5412165Y2068453D01*
X-5351020Y2108164D01*
X-5282840Y2135124D01*
X-5194301Y2153095D01*
X-5080539Y2159749D01*
X-4995055Y2154538D01*
G37*
G36*
X-6021363Y2154538D02*
G01*
X-5946990Y2139720D01*
X-5882127Y2116179D01*
X-5825426Y2084313D01*
X-5775849Y2044020D01*
X-5723979Y1982547D01*
X-5686892Y1912790D01*
X-5664010Y1833127D01*
X-5656024Y1741300D01*
X-5663013Y1655316D01*
X-5683115Y1579642D01*
X-5715735Y1512462D01*
X-5760111Y1452251D01*
X-5810174Y1405427D01*
X-5866390Y1370472D01*
X-5928764Y1347212D01*
X-6010403Y1331606D01*
X-6115915Y1325806D01*
X-6237405Y1332798D01*
X-6328694Y1351380D01*
X-6396135Y1378733D01*
X-6455970Y1419893D01*
X-6511502Y1477250D01*
X-6562977Y1553636D01*
X-6261667Y1579428D01*
X-6232385Y1547163D01*
X-6208336Y1528918D01*
X-6166430Y1511949D01*
X-6122632Y1506350D01*
X-6077462Y1512342D01*
X-6039477Y1529656D01*
X-6006903Y1558807D01*
X-5989636Y1584909D01*
X-5976057Y1620951D01*
X-5967073Y1669700D01*
X-6580239Y1669700D01*
X-6580239Y1704089D01*
X-6573732Y1807806D01*
X-6572011Y1815855D01*
X-6269189Y1815855D01*
X-5967812Y1815855D01*
X-5981475Y1880793D01*
X-6003142Y1922045D01*
X-6035657Y1953943D01*
X-6073839Y1972720D01*
X-6119609Y1979204D01*
X-6160158Y1974721D01*
X-6193574Y1962016D01*
X-6221434Y1941322D01*
X-6242381Y1913458D01*
X-6258710Y1872977D01*
X-6269189Y1815855D01*
X-6572011Y1815855D01*
X-6555837Y1891514D01*
X-6528386Y1958786D01*
X-6488476Y2018975D01*
X-6438474Y2068453D01*
X-6377328Y2108164D01*
X-6309148Y2135124D01*
X-6220609Y2153095D01*
X-6106847Y2159749D01*
X-6021363Y2154538D01*
G37*
G36*
X-6723640Y2142554D02*
G01*
X-7009905Y2142554D01*
X-7009905Y2011914D01*
X-7040554Y2066694D01*
X-7068908Y2104059D01*
X-7095207Y2127979D01*
X-7125954Y2145262D01*
X-7161758Y2155981D01*
X-7203815Y2159749D01*
X-7248052Y2155591D01*
X-7297039Y2142359D01*
X-7351851Y2118508D01*
X-7257146Y1900686D01*
X-7205231Y1918552D01*
X-7171508Y1923322D01*
X-7134084Y1917675D01*
X-7103617Y1901383D01*
X-7078348Y1873551D01*
X-7055145Y1823521D01*
X-7037943Y1740628D01*
X-7030995Y1611332D01*
X-7030995Y1343000D01*
X-6723640Y1343000D01*
X-6723640Y2142554D01*
G37*
G36*
X-7415391Y2443461D02*
G01*
X-7721201Y2443461D01*
X-7721201Y2237125D01*
X-7415391Y2237125D01*
X-7415391Y2443461D01*
G37*
G36*
X-7415391Y2142554D02*
G01*
X-7721201Y2142554D01*
X-7721201Y1343000D01*
X-7415391Y1343000D01*
X-7415391Y2142554D01*
G37*
G36*
X-7916723Y2142554D02*
G01*
X-8201511Y2142554D01*
X-8201511Y2011444D01*
X-8246762Y2062075D01*
X-8289708Y2099390D01*
X-8330740Y2125494D01*
X-8375600Y2143933D01*
X-8428212Y2155608D01*
X-8490059Y2159749D01*
X-8552879Y2154547D01*
X-8605814Y2139850D01*
X-8650678Y2116409D01*
X-8688806Y2084119D01*
X-8718236Y2044662D01*
X-8740617Y1994359D01*
X-8755257Y1930720D01*
X-8760607Y1850647D01*
X-8760607Y1343000D01*
X-8453252Y1343000D01*
X-8453252Y1781600D01*
X-8449443Y1831167D01*
X-8439629Y1865198D01*
X-8425445Y1887857D01*
X-8405010Y1904809D01*
X-8379463Y1915281D01*
X-8347263Y1919023D01*
X-8312164Y1914247D01*
X-8282555Y1900404D01*
X-8257058Y1876976D01*
X-8239771Y1846546D01*
X-8227425Y1798518D01*
X-8222534Y1725985D01*
X-8222534Y1343000D01*
X-7916723Y1343000D01*
X-7916723Y2142554D01*
G37*
G36*
X-9160284Y2153298D02*
G01*
X-9098292Y2134774D01*
X-9043821Y2104625D01*
X-8995623Y2062222D01*
X-8958132Y2011320D01*
X-8930062Y1948823D01*
X-8911998Y1872302D01*
X-8905486Y1778711D01*
X-8910421Y1696670D01*
X-8924308Y1626876D01*
X-8946122Y1567472D01*
X-8975339Y1516895D01*
X-9018633Y1465228D01*
X-9065462Y1426602D01*
X-9116287Y1399458D01*
X-9172002Y1383027D01*
X-9233864Y1377390D01*
X-9287527Y1381569D01*
X-9338148Y1393932D01*
X-9386400Y1414533D01*
X-9429654Y1443970D01*
X-9476538Y1490969D01*
X-9476538Y1369263D01*
X-9472027Y1310861D01*
X-9460462Y1271248D01*
X-9443827Y1245273D01*
X-9419768Y1226315D01*
X-9387699Y1214195D01*
X-9345092Y1209742D01*
X-9297152Y1215980D01*
X-9260193Y1233384D01*
X-9240886Y1254288D01*
X-9225603Y1291416D01*
X-8928725Y1325806D01*
X-8927248Y1284767D01*
X-8933129Y1225335D01*
X-8950034Y1173954D01*
X-8977711Y1128971D01*
X-9017050Y1089312D01*
X-9062677Y1061269D01*
X-9128605Y1038330D01*
X-9221038Y1022385D01*
X-9347309Y1016301D01*
X-9449373Y1021307D01*
X-9534032Y1035175D01*
X-9610215Y1060715D01*
X-9668500Y1096297D01*
X-9715660Y1144280D01*
X-9753399Y1206786D01*
X-9777376Y1276816D01*
X-9785371Y1350456D01*
X-9784632Y1385920D01*
X-9784632Y1756949D01*
X-9478821Y1756949D01*
X-9473836Y1700156D01*
X-9460466Y1657935D01*
X-9440133Y1626847D01*
X-9412021Y1602720D01*
X-9380486Y1588559D01*
X-9344286Y1583726D01*
X-9306084Y1588538D01*
X-9274283Y1602335D01*
X-9247365Y1625302D01*
X-9228126Y1655316D01*
X-9215354Y1696762D01*
X-9210557Y1753255D01*
X-9215326Y1818204D01*
X-9227656Y1863345D01*
X-9245484Y1893835D01*
X-9271285Y1917303D01*
X-9301955Y1931329D01*
X-9339047Y1936218D01*
X-9376084Y1931104D01*
X-9408735Y1916014D01*
X-9438253Y1890074D01*
X-9459767Y1857019D01*
X-9473698Y1813644D01*
X-9478821Y1756949D01*
X-9784632Y1756949D01*
X-9784632Y2142554D01*
X-9498367Y2142554D01*
X-9498367Y2022997D01*
X-9460594Y2069187D01*
X-9422968Y2103594D01*
X-9385258Y2127979D01*
X-9343748Y2144895D01*
X-9293149Y2155812D01*
X-9231580Y2159749D01*
X-9160284Y2153298D01*
G37*
G36*
X4454793Y-505000D02*
G01*
X4112847Y-505000D01*
X4112847Y-57937D01*
X4082824Y-57937D01*
X4038454Y-64382D01*
X3999403Y-83461D01*
X3973672Y-110143D01*
X3937811Y-168360D01*
X3755923Y-505000D01*
X3371192Y-505000D01*
X3535750Y-186965D01*
X3583506Y-118186D01*
X3617971Y-78168D01*
X3637978Y-60020D01*
X3670506Y-41257D01*
X3726638Y-19182D01*
X3655475Y1563D01*
X3607149Y24342D01*
X3564504Y54938D01*
X3528902Y90702D01*
X3499749Y132010D01*
X3478489Y177785D01*
X3465279Y230006D01*
X3462842Y261642D01*
X3802537Y261642D01*
X3807930Y227599D01*
X3823963Y197901D01*
X3848539Y175363D01*
X3879174Y163377D01*
X3969312Y148399D01*
X4112847Y148399D01*
X4112847Y371930D01*
X3963334Y371930D01*
X3901177Y367819D01*
X3861015Y357555D01*
X3836389Y343384D01*
X3817967Y322265D01*
X3806604Y295590D01*
X3802537Y261642D01*
X3462842Y261642D01*
X3460658Y289987D01*
X3466695Y358461D01*
X3483926Y417275D01*
X3511772Y468247D01*
X3549681Y512183D01*
X3594180Y545300D01*
X3646240Y568460D01*
X3702858Y582208D01*
X3781414Y591807D01*
X3887436Y595461D01*
X4454793Y595461D01*
X4454793Y-505000D01*
G37*
G36*
X2988186Y306489D02*
G01*
X3062388Y291471D01*
X3127731Y267489D01*
X3185459Y234859D01*
X3236522Y193401D01*
X3290289Y130422D01*
X3328372Y60341D01*
X3351646Y-18287D01*
X3359706Y-107506D01*
X3353607Y-184579D01*
X3335946Y-253585D01*
X3307130Y-315927D01*
X3266820Y-372682D01*
X3213954Y-424534D01*
X3152405Y-465953D01*
X3081272Y-496350D01*
X2998809Y-515457D01*
X2902838Y-522194D01*
X2815482Y-516893D01*
X2739541Y-501827D01*
X2673371Y-477904D01*
X2615588Y-445543D01*
X2565123Y-404652D01*
X2511963Y-342076D01*
X2474198Y-272031D01*
X2451050Y-193020D01*
X2443014Y-102939D01*
X2443106Y-101797D01*
X2750302Y-101797D01*
X2755998Y-175865D01*
X2770890Y-228471D01*
X2792751Y-265013D01*
X2823935Y-293428D01*
X2859615Y-310129D01*
X2901360Y-315858D01*
X2942552Y-310103D01*
X2978259Y-293214D01*
X3009969Y-264274D01*
X3032425Y-227246D01*
X3047475Y-175636D01*
X3053157Y-104820D01*
X3047465Y-35113D01*
X3032314Y16181D01*
X3009566Y53425D01*
X2977585Y82529D01*
X2941272Y99581D01*
X2899076Y105412D01*
X2859341Y99747D01*
X2824502Y83021D01*
X2793154Y54164D01*
X2770795Y17460D01*
X2755899Y-33094D01*
X2750302Y-101797D01*
X2443106Y-101797D01*
X2449488Y-22340D01*
X2468208Y49520D01*
X2498725Y114171D01*
X2541413Y172781D01*
X2592829Y221060D01*
X2653160Y259208D01*
X2723768Y287483D01*
X2806508Y305398D01*
X2903644Y311749D01*
X2988186Y306489D01*
G37*
G36*
X2294374Y-505000D02*
G01*
X2008042Y-505000D01*
X2008042Y-386786D01*
X1947233Y-452447D01*
X1898359Y-487805D01*
X1852681Y-506774D01*
X1803815Y-518274D01*
X1751062Y-522194D01*
X1689858Y-516648D01*
X1633229Y-500304D01*
X1580122Y-473028D01*
X1533614Y-435747D01*
X1493450Y-386800D01*
X1459491Y-324254D01*
X1435847Y-256572D01*
X1421064Y-180264D01*
X1416254Y-99849D01*
X1721777Y-99849D01*
X1726895Y-171175D01*
X1740067Y-220315D01*
X1758987Y-253124D01*
X1786279Y-278816D01*
X1816542Y-293649D01*
X1851006Y-298663D01*
X1888447Y-293475D01*
X1920675Y-278300D01*
X1949069Y-252385D01*
X1968969Y-219067D01*
X1982554Y-170903D01*
X1987758Y-102872D01*
X1982627Y-41167D01*
X1968944Y4374D01*
X1948331Y37574D01*
X1919370Y63382D01*
X1885928Y78654D01*
X1846506Y83919D01*
X1813984Y79083D01*
X1784941Y64657D01*
X1758249Y39454D01*
X1739383Y7649D01*
X1726625Y-37358D01*
X1721777Y-99849D01*
X1416254Y-99849D01*
X1415900Y-93939D01*
X1422760Y4627D01*
X1441837Y85668D01*
X1471559Y152272D01*
X1511344Y206901D01*
X1562511Y252991D01*
X1618931Y285348D01*
X1681724Y304980D01*
X1752539Y311749D01*
X1821005Y305583D01*
X1881433Y287770D01*
X1936232Y258023D01*
X1985474Y215834D01*
X1985474Y595461D01*
X2294374Y595461D01*
X2294374Y-505000D01*
G37*
G36*
X935569Y306489D02*
G01*
X1009771Y291471D01*
X1075114Y267489D01*
X1132842Y234859D01*
X1183905Y193401D01*
X1237672Y130422D01*
X1275755Y60341D01*
X1299029Y-18287D01*
X1307089Y-107506D01*
X1300990Y-184579D01*
X1283329Y-253585D01*
X1254513Y-315927D01*
X1214203Y-372682D01*
X1161337Y-424534D01*
X1099788Y-465953D01*
X1028655Y-496350D01*
X946192Y-515457D01*
X850221Y-522194D01*
X762865Y-516893D01*
X686924Y-501827D01*
X620754Y-477904D01*
X562971Y-445543D01*
X512506Y-404652D01*
X459346Y-342076D01*
X421581Y-272031D01*
X398433Y-193020D01*
X390397Y-102939D01*
X390489Y-101797D01*
X697685Y-101797D01*
X703381Y-175865D01*
X718273Y-228471D01*
X740135Y-265013D01*
X771318Y-293428D01*
X806999Y-310129D01*
X848743Y-315858D01*
X889935Y-310103D01*
X925642Y-293214D01*
X957352Y-264274D01*
X979808Y-227246D01*
X994858Y-175636D01*
X1000540Y-104820D01*
X994848Y-35113D01*
X979697Y16181D01*
X956949Y53425D01*
X924968Y82529D01*
X888655Y99581D01*
X846460Y105412D01*
X806724Y99747D01*
X771885Y83021D01*
X740538Y54164D01*
X718178Y17460D01*
X703282Y-33094D01*
X697685Y-101797D01*
X390489Y-101797D01*
X396871Y-22340D01*
X415591Y49520D01*
X446108Y114171D01*
X488796Y172781D01*
X540212Y221060D01*
X600543Y259208D01*
X671151Y287483D01*
X753892Y305398D01*
X851027Y311749D01*
X935569Y306489D01*
G37*
G36*
X241757Y-505000D02*
G01*
X-44575Y-505000D01*
X-44575Y-386786D01*
X-105384Y-452447D01*
X-154258Y-487805D01*
X-199936Y-506774D01*
X-248802Y-518274D01*
X-301555Y-522194D01*
X-362759Y-516648D01*
X-419388Y-500304D01*
X-472495Y-473028D01*
X-519003Y-435747D01*
X-559167Y-386800D01*
X-593126Y-324254D01*
X-616770Y-256572D01*
X-631553Y-180264D01*
X-636363Y-99849D01*
X-330840Y-99849D01*
X-325722Y-171175D01*
X-312550Y-220315D01*
X-293629Y-253124D01*
X-266338Y-278816D01*
X-236075Y-293649D01*
X-201611Y-298663D01*
X-164170Y-293475D01*
X-131941Y-278300D01*
X-103547Y-252385D01*
X-83647Y-219067D01*
X-70063Y-170903D01*
X-64859Y-102872D01*
X-69989Y-41167D01*
X-83673Y4374D01*
X-104286Y37574D01*
X-133247Y63382D01*
X-166689Y78654D01*
X-206111Y83919D01*
X-238632Y79083D01*
X-267675Y64657D01*
X-294368Y39454D01*
X-313234Y7649D01*
X-325992Y-37358D01*
X-330840Y-99849D01*
X-636363Y-99849D01*
X-636717Y-93939D01*
X-629857Y4627D01*
X-610780Y85668D01*
X-581058Y152272D01*
X-541273Y206901D01*
X-490106Y252991D01*
X-433686Y285348D01*
X-370893Y304980D01*
X-300077Y311749D01*
X-231612Y305583D01*
X-171184Y287770D01*
X-116385Y258023D01*
X-67143Y215834D01*
X-67143Y595461D01*
X241757Y595461D01*
X241757Y-505000D01*
G37*
G36*
X-1623935Y-505000D02*
G01*
X-1338409Y-505000D01*
X-1338409Y-374226D01*
X-1293141Y-424998D01*
X-1250313Y-462269D01*
X-1209516Y-488208D01*
X-1164924Y-506462D01*
X-1112229Y-518066D01*
X-1049860Y-522194D01*
X-987439Y-517009D01*
X-934728Y-502343D01*
X-889946Y-478926D01*
X-851785Y-446632D01*
X-822357Y-407142D01*
X-799997Y-356913D01*
X-785386Y-293493D01*
X-780051Y-213831D01*
X-780051Y294554D01*
X-1087406Y294554D01*
X-1087406Y-143441D01*
X-1091206Y-192959D01*
X-1101013Y-227106D01*
X-1115214Y-249967D01*
X-1135674Y-267117D01*
X-1161222Y-277693D01*
X-1193396Y-281468D01*
X-1227979Y-276730D01*
X-1257453Y-262934D01*
X-1283130Y-239489D01*
X-1300675Y-209020D01*
X-1313177Y-161043D01*
X-1318124Y-88700D01*
X-1318124Y294554D01*
X-1623935Y294554D01*
X-1623935Y-505000D01*
G37*
G36*
X-2143356Y306489D02*
G01*
X-2069154Y291471D01*
X-2003811Y267489D01*
X-1946083Y234859D01*
X-1895020Y193401D01*
X-1841253Y130422D01*
X-1803170Y60341D01*
X-1779896Y-18287D01*
X-1771836Y-107506D01*
X-1777935Y-184579D01*
X-1795596Y-253585D01*
X-1824412Y-315927D01*
X-1864722Y-372682D01*
X-1917588Y-424534D01*
X-1979137Y-465953D01*
X-2050271Y-496350D01*
X-2132734Y-515457D01*
X-2228704Y-522194D01*
X-2316060Y-516893D01*
X-2392002Y-501827D01*
X-2458171Y-477904D01*
X-2515954Y-445543D01*
X-2566419Y-404652D01*
X-2619579Y-342076D01*
X-2657345Y-272031D01*
X-2680493Y-193020D01*
X-2688528Y-102939D01*
X-2688436Y-101797D01*
X-2381240Y-101797D01*
X-2375545Y-175865D01*
X-2360652Y-228471D01*
X-2338791Y-265013D01*
X-2307607Y-293428D01*
X-2271927Y-310129D01*
X-2230182Y-315858D01*
X-2188991Y-310103D01*
X-2153284Y-293214D01*
X-2121573Y-264274D01*
X-2099117Y-227246D01*
X-2084067Y-175636D01*
X-2078385Y-104820D01*
X-2084077Y-35113D01*
X-2099228Y16181D01*
X-2121976Y53425D01*
X-2153958Y82529D01*
X-2190270Y99581D01*
X-2232466Y105412D01*
X-2272201Y99747D01*
X-2307041Y83021D01*
X-2338388Y54164D01*
X-2360747Y17460D01*
X-2375643Y-33094D01*
X-2381240Y-101797D01*
X-2688436Y-101797D01*
X-2682054Y-22340D01*
X-2663334Y49520D01*
X-2632817Y114171D01*
X-2590129Y172781D01*
X-2538714Y221060D01*
X-2478382Y259208D01*
X-2407775Y287483D01*
X-2325034Y305398D01*
X-2227898Y311749D01*
X-2143356Y306489D01*
G37*
G36*
X-2721238Y294554D02*
G01*
X-3044378Y294554D01*
X-3208936Y-237743D01*
X-3361472Y294554D01*
X-3662782Y294554D01*
X-3346427Y-561084D01*
X-3305407Y-657946D01*
X-3268673Y-721015D01*
X-3235938Y-759159D01*
X-3194565Y-788883D01*
X-3142096Y-811510D01*
X-3076024Y-826301D01*
X-2993264Y-831699D01*
X-2918208Y-828047D01*
X-2788875Y-814034D01*
X-2764830Y-603063D01*
X-2833353Y-619576D01*
X-2912126Y-625362D01*
X-2962399Y-618417D01*
X-2999645Y-599234D01*
X-3028587Y-565974D01*
X-3056401Y-505738D01*
X-2721238Y294554D01*
G37*
G36*
X-5129235Y-505000D02*
G01*
X-4210998Y-505000D01*
X-4228496Y-416898D01*
X-4260173Y-332134D01*
X-4306778Y-249766D01*
X-4366524Y-175138D01*
X-4462891Y-82464D01*
X-4607013Y32066D01*
X-4727335Y128458D01*
X-4779094Y183057D01*
X-4808021Y235354D01*
X-4816641Y280919D01*
X-4812492Y312748D01*
X-4800276Y340937D01*
X-4779430Y366490D01*
X-4752791Y386068D01*
X-4722007Y397905D01*
X-4685867Y402021D01*
X-4648351Y397704D01*
X-4616879Y385356D01*
X-4590087Y365012D01*
X-4569974Y337733D01*
X-4552893Y295866D01*
X-4540115Y234372D01*
X-4233566Y259291D01*
X-4250303Y344951D01*
X-4272720Y411343D01*
X-4299658Y462001D01*
X-4335595Y506300D01*
X-4380397Y543450D01*
X-4435268Y573766D01*
X-4495088Y593907D01*
X-4574319Y607554D01*
X-4677605Y612656D01*
X-4785723Y607789D01*
X-4867807Y594843D01*
X-4928943Y575916D01*
X-4985172Y546638D01*
X-5031883Y509161D01*
X-5070195Y463008D01*
X-5098783Y410308D01*
X-5115898Y353825D01*
X-5121712Y292405D01*
X-5115294Y227082D01*
X-5095928Y163428D01*
X-5062740Y100375D01*
X-5018487Y43708D01*
X-4949297Y-22562D01*
X-4848209Y-100185D01*
X-4724555Y-189181D01*
X-4651343Y-255676D01*
X-5129235Y-255676D01*
X-5129235Y-505000D01*
G37*
G36*
X-5289898Y-199794D02*
G01*
X-5616798Y-199794D01*
X-5616798Y-505000D01*
X-5289898Y-505000D01*
X-5289898Y-199794D01*
G37*
G36*
X-6466055Y612656D02*
G01*
X-6466055Y-505000D01*
X-6156484Y-505000D01*
X-6156484Y225708D01*
X-6080821Y173287D01*
X-6011067Y133891D01*
X-5935825Y101081D01*
X-5834822Y66724D01*
X-5834822Y316047D01*
X-5937350Y354680D01*
X-6016983Y395370D01*
X-6077563Y437552D01*
X-6130872Y488376D01*
X-6175841Y546502D01*
X-6212837Y612656D01*
X-6466055Y612656D01*
G37*
G36*
X4536670Y-1252539D02*
G01*
X3501965Y-1252539D01*
X3501965Y-1523355D01*
X3849151Y-1523355D01*
X3849151Y-2353000D01*
X4189552Y-2353000D01*
X4189552Y-1523355D01*
X4536670Y-1523355D01*
X4536670Y-1252539D01*
G37*
G36*
X2983320Y-1242088D02*
G01*
X3077535Y-1261250D01*
X3159509Y-1291684D01*
X3230999Y-1332895D01*
X3293345Y-1385059D01*
X3345682Y-1447191D01*
X3387033Y-1518541D01*
X3417580Y-1600464D01*
X3436822Y-1694743D01*
X3443598Y-1803508D01*
X3438331Y-1900391D01*
X3423357Y-1985026D01*
X3399632Y-2059053D01*
X3367699Y-2123894D01*
X3325876Y-2184846D01*
X3279104Y-2235779D01*
X3227196Y-2277654D01*
X3169691Y-2311087D01*
X3086183Y-2342519D01*
X2984570Y-2362859D01*
X2861262Y-2370194D01*
X2768746Y-2365428D01*
X2687845Y-2351884D01*
X2617053Y-2330453D01*
X2555048Y-2301684D01*
X2496829Y-2263724D01*
X2446498Y-2219393D01*
X2403403Y-2168371D01*
X2367183Y-2110057D01*
X2340186Y-2048282D01*
X2319813Y-1976205D01*
X2306789Y-1892217D01*
X2302165Y-1794508D01*
X2302400Y-1790746D01*
X2642566Y-1790746D01*
X2647494Y-1886765D01*
X2660485Y-1957846D01*
X2679345Y-2009296D01*
X2702681Y-2045577D01*
X2735102Y-2076096D01*
X2773346Y-2098043D01*
X2818579Y-2111732D01*
X2872478Y-2116572D01*
X2924662Y-2111731D01*
X2969270Y-2097914D01*
X3007779Y-2075530D01*
X3041201Y-2044099D01*
X3065907Y-2006834D01*
X3085311Y-1956941D01*
X3098344Y-1891176D01*
X3103196Y-1805657D01*
X3098304Y-1719322D01*
X3085180Y-1653115D01*
X3065671Y-1603051D01*
X3040866Y-1565805D01*
X3007224Y-1534138D01*
X2969121Y-1511751D01*
X2925658Y-1498038D01*
X2875501Y-1493265D01*
X2822858Y-1498049D01*
X2777848Y-1511695D01*
X2739002Y-1533762D01*
X2705300Y-1564663D01*
X2679966Y-1601506D01*
X2660362Y-1649567D01*
X2647362Y-1711554D01*
X2642566Y-1790746D01*
X2302400Y-1790746D01*
X2308875Y-1687281D01*
X2327927Y-1594397D01*
X2358169Y-1513736D01*
X2399110Y-1443531D01*
X2450940Y-1382439D01*
X2512426Y-1331582D01*
X2583836Y-1291152D01*
X2666674Y-1261104D01*
X2762882Y-1242073D01*
X2874762Y-1235344D01*
X2983320Y-1242088D01*
G37*
G36*
X2120143Y-2353000D02*
G01*
X1778264Y-2353000D01*
X1778264Y-1944625D01*
X1591877Y-1944625D01*
X1487570Y-1937665D01*
X1404254Y-1918577D01*
X1338022Y-1889327D01*
X1285730Y-1850793D01*
X1242847Y-1800833D01*
X1211756Y-1742043D01*
X1192277Y-1672671D01*
X1186170Y-1599724D01*
X1516784Y-1599724D01*
X1521294Y-1633364D01*
X1534406Y-1662052D01*
X1556614Y-1687041D01*
X1585479Y-1704282D01*
X1629643Y-1716366D01*
X1694843Y-1721094D01*
X1778264Y-1721094D01*
X1778264Y-1476070D01*
X1681343Y-1476070D01*
X1618389Y-1481121D01*
X1577190Y-1493894D01*
X1551375Y-1512071D01*
X1532169Y-1537761D01*
X1520718Y-1566638D01*
X1516784Y-1599724D01*
X1186170Y-1599724D01*
X1185383Y-1590321D01*
X1191825Y-1509751D01*
X1209896Y-1442804D01*
X1238464Y-1386977D01*
X1277469Y-1340393D01*
X1325607Y-1304093D01*
X1385900Y-1276730D01*
X1461021Y-1258982D01*
X1554330Y-1252539D01*
X2120143Y-1252539D01*
X2120143Y-2353000D01*
G37*
X-14122477Y14113705D02*
X-14579620Y14113705D01*
X-14351048Y13313705D02*
X-14351048Y14113705D01*
X-14770096Y14113705D02*
X-15303430Y13313705D01*
X-15303430Y14113705D02*
X-14770096Y13313705D01*
X-27577705Y14109505D02*
X-27958658Y14376172D01*
X-27577705Y14566648D02*
X-28377705Y14566648D01*
X-28377705Y14566648D02*
X-28377705Y14261886D01*
X-28377705Y14261886D02*
X-28339610Y14185696D01*
X-28339610Y14185696D02*
X-28301515Y14147601D01*
X-28301515Y14147601D02*
X-28225324Y14109505D01*
X-28225324Y14109505D02*
X-28111039Y14109505D01*
X-28111039Y14109505D02*
X-28034848Y14147601D01*
X-28034848Y14147601D02*
X-27996753Y14185696D01*
X-27996753Y14185696D02*
X-27958658Y14261886D01*
X-27958658Y14261886D02*
X-27958658Y14566648D01*
X-27996753Y13766648D02*
X-27996753Y13499982D01*
X-27577705Y13385696D02*
X-27577705Y13766648D01*
X-27577705Y13766648D02*
X-28377705Y13766648D01*
X-28377705Y13766648D02*
X-28377705Y13385696D01*
X-27615800Y13080934D02*
X-27577705Y12966648D01*
X-27577705Y12966648D02*
X-27577705Y12776172D01*
X-27577705Y12776172D02*
X-27615800Y12699981D01*
X-27615800Y12699981D02*
X-27653896Y12661886D01*
X-27653896Y12661886D02*
X-27730086Y12623791D01*
X-27730086Y12623791D02*
X-27806277Y12623791D01*
X-27806277Y12623791D02*
X-27882467Y12661886D01*
X-27882467Y12661886D02*
X-27920562Y12699981D01*
X-27920562Y12699981D02*
X-27958658Y12776172D01*
X-27958658Y12776172D02*
X-27996753Y12928553D01*
X-27996753Y12928553D02*
X-28034848Y13004743D01*
X-28034848Y13004743D02*
X-28072943Y13042838D01*
X-28072943Y13042838D02*
X-28149134Y13080934D01*
X-28149134Y13080934D02*
X-28225324Y13080934D01*
X-28225324Y13080934D02*
X-28301515Y13042838D01*
X-28301515Y13042838D02*
X-28339610Y13004743D01*
X-28339610Y13004743D02*
X-28377705Y12928553D01*
X-28377705Y12928553D02*
X-28377705Y12738076D01*
X-28377705Y12738076D02*
X-28339610Y12623791D01*
X-27996753Y12280933D02*
X-27996753Y12014267D01*
X-27577705Y11899981D02*
X-27577705Y12280933D01*
X-27577705Y12280933D02*
X-28377705Y12280933D01*
X-28377705Y12280933D02*
X-28377705Y11899981D01*
X-28377705Y11671409D02*
X-28377705Y11214266D01*
X-27577705Y11442838D02*
X-28377705Y11442838D01*
X-11846113Y-19198295D02*
X-11465161Y-19198295D01*
X-11465161Y-19198295D02*
X-11465161Y-18398295D01*
X-12112780Y-18779247D02*
X-12379446Y-18779247D01*
X-12493732Y-19198295D02*
X-12112780Y-19198295D01*
X-12112780Y-19198295D02*
X-12112780Y-18398295D01*
X-12112780Y-18398295D02*
X-12493732Y-18398295D01*
X-12836590Y-19198295D02*
X-12836590Y-18398295D01*
X-12836590Y-18398295D02*
X-13027066Y-18398295D01*
X-13027066Y-18398295D02*
X-13141352Y-18436390D01*
X-13141352Y-18436390D02*
X-13217542Y-18512580D01*
X-13217542Y-18512580D02*
X-13255637Y-18588771D01*
X-13255637Y-18588771D02*
X-13293733Y-18741152D01*
X-13293733Y-18741152D02*
X-13293733Y-18855438D01*
X-13293733Y-18855438D02*
X-13255637Y-19007819D01*
X-13255637Y-19007819D02*
X-13217542Y-19084009D01*
X-13217542Y-19084009D02*
X-13141352Y-19160200D01*
X-13141352Y-19160200D02*
X-13027066Y-19198295D01*
X-13027066Y-19198295D02*
X-12836590Y-19198295D01*
X-14208018Y-19160200D02*
X-14322304Y-19198295D01*
X-14322304Y-19198295D02*
X-14512780Y-19198295D01*
X-14512780Y-19198295D02*
X-14588971Y-19160200D01*
X-14588971Y-19160200D02*
X-14627066Y-19122104D01*
X-14627066Y-19122104D02*
X-14665161Y-19045914D01*
X-14665161Y-19045914D02*
X-14665161Y-18969723D01*
X-14665161Y-18969723D02*
X-14627066Y-18893533D01*
X-14627066Y-18893533D02*
X-14588971Y-18855438D01*
X-14588971Y-18855438D02*
X-14512780Y-18817342D01*
X-14512780Y-18817342D02*
X-14360399Y-18779247D01*
X-14360399Y-18779247D02*
X-14284209Y-18741152D01*
X-14284209Y-18741152D02*
X-14246114Y-18703057D01*
X-14246114Y-18703057D02*
X-14208018Y-18626866D01*
X-14208018Y-18626866D02*
X-14208018Y-18550676D01*
X-14208018Y-18550676D02*
X-14246114Y-18474485D01*
X-14246114Y-18474485D02*
X-14284209Y-18436390D01*
X-14284209Y-18436390D02*
X-14360399Y-18398295D01*
X-14360399Y-18398295D02*
X-14550876Y-18398295D01*
X-14550876Y-18398295D02*
X-14665161Y-18436390D01*
X-14931828Y-18398295D02*
X-15122304Y-19198295D01*
X-15122304Y-19198295D02*
X-15274685Y-18626866D01*
X-15274685Y-18626866D02*
X-15427066Y-19198295D01*
X-15427066Y-19198295D02*
X-15617542Y-18398295D01*
X-16455638Y-18398295D02*
X-16950876Y-18398295D01*
X-16950876Y-18398295D02*
X-16684210Y-18703057D01*
X-16684210Y-18703057D02*
X-16798495Y-18703057D01*
X-16798495Y-18703057D02*
X-16874686Y-18741152D01*
X-16874686Y-18741152D02*
X-16912781Y-18779247D01*
X-16912781Y-18779247D02*
X-16950876Y-18855438D01*
X-16950876Y-18855438D02*
X-16950876Y-19045914D01*
X-16950876Y-19045914D02*
X-16912781Y-19122104D01*
X-16912781Y-19122104D02*
X-16874686Y-19160200D01*
X-16874686Y-19160200D02*
X-16798495Y-19198295D01*
X-16798495Y-19198295D02*
X-16569924Y-19198295D01*
X-16569924Y-19198295D02*
X-16493733Y-19160200D01*
X-16493733Y-19160200D02*
X-16455638Y-19122104D01*
X-17293734Y-19122104D02*
X-17331829Y-19160200D01*
X-17331829Y-19160200D02*
X-17293734Y-19198295D01*
X-17293734Y-19198295D02*
X-17255638Y-19160200D01*
X-17255638Y-19160200D02*
X-17293734Y-19122104D01*
X-17293734Y-19122104D02*
X-17293734Y-19198295D01*
X-17598495Y-18398295D02*
X-18093733Y-18398295D01*
X-18093733Y-18398295D02*
X-17827067Y-18703057D01*
X-17827067Y-18703057D02*
X-17941352Y-18703057D01*
X-17941352Y-18703057D02*
X-18017543Y-18741152D01*
X-18017543Y-18741152D02*
X-18055638Y-18779247D01*
X-18055638Y-18779247D02*
X-18093733Y-18855438D01*
X-18093733Y-18855438D02*
X-18093733Y-19045914D01*
X-18093733Y-19045914D02*
X-18055638Y-19122104D01*
X-18055638Y-19122104D02*
X-18017543Y-19160200D01*
X-18017543Y-19160200D02*
X-17941352Y-19198295D01*
X-17941352Y-19198295D02*
X-17712781Y-19198295D01*
X-17712781Y-19198295D02*
X-17636590Y-19160200D01*
X-17636590Y-19160200D02*
X-17598495Y-19122104D01*
X-18322305Y-18398295D02*
X-18588972Y-19198295D01*
X-18588972Y-19198295D02*
X-18855638Y-18398295D01*
X-20150876Y-18436390D02*
X-20074686Y-18398295D01*
X-20074686Y-18398295D02*
X-19960400Y-18398295D01*
X-19960400Y-18398295D02*
X-19846114Y-18436390D01*
X-19846114Y-18436390D02*
X-19769924Y-18512580D01*
X-19769924Y-18512580D02*
X-19731829Y-18588771D01*
X-19731829Y-18588771D02*
X-19693733Y-18741152D01*
X-19693733Y-18741152D02*
X-19693733Y-18855438D01*
X-19693733Y-18855438D02*
X-19731829Y-19007819D01*
X-19731829Y-19007819D02*
X-19769924Y-19084009D01*
X-19769924Y-19084009D02*
X-19846114Y-19160200D01*
X-19846114Y-19160200D02*
X-19960400Y-19198295D01*
X-19960400Y-19198295D02*
X-20036591Y-19198295D01*
X-20036591Y-19198295D02*
X-20150876Y-19160200D01*
X-20150876Y-19160200D02*
X-20188972Y-19122104D01*
X-20188972Y-19122104D02*
X-20188972Y-18855438D01*
X-20188972Y-18855438D02*
X-20036591Y-18855438D01*
X-20531829Y-19198295D02*
X-20531829Y-18398295D01*
X-20531829Y-18398295D02*
X-20988972Y-19198295D01*
X-20988972Y-19198295D02*
X-20988972Y-18398295D01*
X-21369924Y-19198295D02*
X-21369924Y-18398295D01*
X-21369924Y-18398295D02*
X-21560400Y-18398295D01*
X-21560400Y-18398295D02*
X-21674686Y-18436390D01*
X-21674686Y-18436390D02*
X-21750876Y-18512580D01*
X-21750876Y-18512580D02*
X-21788971Y-18588771D01*
X-21788971Y-18588771D02*
X-21827067Y-18741152D01*
X-21827067Y-18741152D02*
X-21827067Y-18855438D01*
X-21827067Y-18855438D02*
X-21788971Y-19007819D01*
X-21788971Y-19007819D02*
X-21750876Y-19084009D01*
X-21750876Y-19084009D02*
X-21674686Y-19160200D01*
X-21674686Y-19160200D02*
X-21560400Y-19198295D01*
X-21560400Y-19198295D02*
X-21369924Y-19198295D01*
X-22931829Y-18398295D02*
X-23084210Y-18398295D01*
X-23084210Y-18398295D02*
X-23160400Y-18436390D01*
X-23160400Y-18436390D02*
X-23236591Y-18512580D01*
X-23236591Y-18512580D02*
X-23274686Y-18664961D01*
X-23274686Y-18664961D02*
X-23274686Y-18931628D01*
X-23274686Y-18931628D02*
X-23236591Y-19084009D01*
X-23236591Y-19084009D02*
X-23160400Y-19160200D01*
X-23160400Y-19160200D02*
X-23084210Y-19198295D01*
X-23084210Y-19198295D02*
X-22931829Y-19198295D01*
X-22931829Y-19198295D02*
X-22855638Y-19160200D01*
X-22855638Y-19160200D02*
X-22779448Y-19084009D01*
X-22779448Y-19084009D02*
X-22741352Y-18931628D01*
X-22741352Y-18931628D02*
X-22741352Y-18664961D01*
X-22741352Y-18664961D02*
X-22779448Y-18512580D01*
X-22779448Y-18512580D02*
X-22855638Y-18436390D01*
X-22855638Y-18436390D02*
X-22931829Y-18398295D01*
X-23617543Y-19198295D02*
X-23617543Y-18398295D01*
X-23617543Y-18398295D02*
X-24074686Y-19198295D01*
X-24074686Y-19198295D02*
X-24074686Y-18398295D01*
X-24950876Y-18398295D02*
X-25217543Y-19198295D01*
X-25217543Y-19198295D02*
X-25484209Y-18398295D01*
X-25750876Y-19198295D02*
X-25750876Y-18398295D01*
X-25750876Y-18703057D02*
X-25827066Y-18664961D01*
X-25827066Y-18664961D02*
X-25979447Y-18664961D01*
X-25979447Y-18664961D02*
X-26055638Y-18703057D01*
X-26055638Y-18703057D02*
X-26093733Y-18741152D01*
X-26093733Y-18741152D02*
X-26131828Y-18817342D01*
X-26131828Y-18817342D02*
X-26131828Y-19045914D01*
X-26131828Y-19045914D02*
X-26093733Y-19122104D01*
X-26093733Y-19122104D02*
X-26055638Y-19160200D01*
X-26055638Y-19160200D02*
X-25979447Y-19198295D01*
X-25979447Y-19198295D02*
X-25827066Y-19198295D01*
X-25827066Y-19198295D02*
X-25750876Y-19160200D01*
X-26817543Y-19198295D02*
X-26817543Y-18779247D01*
X-26817543Y-18779247D02*
X-26779448Y-18703057D01*
X-26779448Y-18703057D02*
X-26703257Y-18664961D01*
X-26703257Y-18664961D02*
X-26550876Y-18664961D01*
X-26550876Y-18664961D02*
X-26474686Y-18703057D01*
X-26817543Y-19160200D02*
X-26741352Y-19198295D01*
X-26741352Y-19198295D02*
X-26550876Y-19198295D01*
X-26550876Y-19198295D02*
X-26474686Y-19160200D01*
X-26474686Y-19160200D02*
X-26436590Y-19084009D01*
X-26436590Y-19084009D02*
X-26436590Y-19007819D01*
X-26436590Y-19007819D02*
X-26474686Y-18931628D01*
X-26474686Y-18931628D02*
X-26550876Y-18893533D01*
X-26550876Y-18893533D02*
X-26741352Y-18893533D01*
X-26741352Y-18893533D02*
X-26817543Y-18855438D01*
X-27084210Y-18664961D02*
X-27388972Y-18664961D01*
X-27198496Y-18398295D02*
X-27198496Y-19084009D01*
X-27198496Y-19084009D02*
X-27236591Y-19160200D01*
X-27236591Y-19160200D02*
X-27312781Y-19198295D01*
X-27312781Y-19198295D02*
X-27388972Y-19198295D01*
X-27541353Y-18664961D02*
X-27846115Y-18664961D01*
X-27655639Y-18398295D02*
X-27655639Y-19084009D01*
X-27655639Y-19084009D02*
X-27693734Y-19160200D01*
X-27693734Y-19160200D02*
X-27769924Y-19198295D01*
X-27769924Y-19198295D02*
X-27846115Y-19198295D01*
X-11658668Y18901705D02*
X-11392001Y19282658D01*
X-11201525Y18901705D02*
X-11201525Y19701705D01*
X-11201525Y19701705D02*
X-11506287Y19701705D01*
X-11506287Y19701705D02*
X-11582477Y19663610D01*
X-11582477Y19663610D02*
X-11620572Y19625515D01*
X-11620572Y19625515D02*
X-11658668Y19549324D01*
X-11658668Y19549324D02*
X-11658668Y19435039D01*
X-11658668Y19435039D02*
X-11620572Y19358848D01*
X-11620572Y19358848D02*
X-11582477Y19320753D01*
X-11582477Y19320753D02*
X-11506287Y19282658D01*
X-11506287Y19282658D02*
X-11201525Y19282658D01*
X-12001525Y18901705D02*
X-12001525Y19701705D01*
X-12001525Y19701705D02*
X-12192001Y19701705D01*
X-12192001Y19701705D02*
X-12306287Y19663610D01*
X-12306287Y19663610D02*
X-12382477Y19587420D01*
X-12382477Y19587420D02*
X-12420572Y19511229D01*
X-12420572Y19511229D02*
X-12458668Y19358848D01*
X-12458668Y19358848D02*
X-12458668Y19244562D01*
X-12458668Y19244562D02*
X-12420572Y19092181D01*
X-12420572Y19092181D02*
X-12382477Y19015991D01*
X-12382477Y19015991D02*
X-12306287Y18939800D01*
X-12306287Y18939800D02*
X-12192001Y18901705D01*
X-12192001Y18901705D02*
X-12001525Y18901705D01*
X-12953906Y19701705D02*
X-13030096Y19701705D01*
X-13030096Y19701705D02*
X-13106287Y19663610D01*
X-13106287Y19663610D02*
X-13144382Y19625515D01*
X-13144382Y19625515D02*
X-13182477Y19549324D01*
X-13182477Y19549324D02*
X-13220572Y19396943D01*
X-13220572Y19396943D02*
X-13220572Y19206467D01*
X-13220572Y19206467D02*
X-13182477Y19054086D01*
X-13182477Y19054086D02*
X-13144382Y18977896D01*
X-13144382Y18977896D02*
X-13106287Y18939800D01*
X-13106287Y18939800D02*
X-13030096Y18901705D01*
X-13030096Y18901705D02*
X-12953906Y18901705D01*
X-12953906Y18901705D02*
X-12877715Y18939800D01*
X-12877715Y18939800D02*
X-12839620Y18977896D01*
X-12839620Y18977896D02*
X-12801525Y19054086D01*
X-12801525Y19054086D02*
X-12763429Y19206467D01*
X-12763429Y19206467D02*
X-12763429Y19396943D01*
X-12763429Y19396943D02*
X-12801525Y19549324D01*
X-12801525Y19549324D02*
X-12839620Y19625515D01*
X-12839620Y19625515D02*
X-12877715Y19663610D01*
X-12877715Y19663610D02*
X-12953906Y19701705D01*
X5895792Y19427565D02*
X5971982Y19465660D01*
X5971982Y19465660D02*
X6086268Y19465660D01*
X6086268Y19465660D02*
X6200554Y19427565D01*
X6200554Y19427565D02*
X6276744Y19351375D01*
X6276744Y19351375D02*
X6314839Y19275184D01*
X6314839Y19275184D02*
X6352935Y19122803D01*
X6352935Y19122803D02*
X6352935Y19008517D01*
X6352935Y19008517D02*
X6314839Y18856136D01*
X6314839Y18856136D02*
X6276744Y18779946D01*
X6276744Y18779946D02*
X6200554Y18703755D01*
X6200554Y18703755D02*
X6086268Y18665660D01*
X6086268Y18665660D02*
X6010077Y18665660D01*
X6010077Y18665660D02*
X5895792Y18703755D01*
X5895792Y18703755D02*
X5857696Y18741851D01*
X5857696Y18741851D02*
X5857696Y19008517D01*
X5857696Y19008517D02*
X6010077Y19008517D01*
X5514839Y18665660D02*
X5514839Y19465660D01*
X5514839Y19465660D02*
X5057696Y18665660D01*
X5057696Y18665660D02*
X5057696Y19465660D01*
X4676744Y18665660D02*
X4676744Y19465660D01*
X4676744Y19465660D02*
X4486268Y19465660D01*
X4486268Y19465660D02*
X4371982Y19427565D01*
X4371982Y19427565D02*
X4295792Y19351375D01*
X4295792Y19351375D02*
X4257697Y19275184D01*
X4257697Y19275184D02*
X4219601Y19122803D01*
X4219601Y19122803D02*
X4219601Y19008517D01*
X4219601Y19008517D02*
X4257697Y18856136D01*
X4257697Y18856136D02*
X4295792Y18779946D01*
X4295792Y18779946D02*
X4371982Y18703755D01*
X4371982Y18703755D02*
X4486268Y18665660D01*
X4486268Y18665660D02*
X4676744Y18665660D01*
X3267220Y18970422D02*
X2657697Y18970422D01*
X2962458Y18665660D02*
X2962458Y19275184D01*
X1895792Y19465660D02*
X2276744Y19465660D01*
X2276744Y19465660D02*
X2314840Y19084708D01*
X2314840Y19084708D02*
X2276744Y19122803D01*
X2276744Y19122803D02*
X2200554Y19160898D01*
X2200554Y19160898D02*
X2010078Y19160898D01*
X2010078Y19160898D02*
X1933887Y19122803D01*
X1933887Y19122803D02*
X1895792Y19084708D01*
X1895792Y19084708D02*
X1857697Y19008517D01*
X1857697Y19008517D02*
X1857697Y18818041D01*
X1857697Y18818041D02*
X1895792Y18741851D01*
X1895792Y18741851D02*
X1933887Y18703755D01*
X1933887Y18703755D02*
X2010078Y18665660D01*
X2010078Y18665660D02*
X2200554Y18665660D01*
X2200554Y18665660D02*
X2276744Y18703755D01*
X2276744Y18703755D02*
X2314840Y18741851D01*
X1629125Y19465660D02*
X1362458Y18665660D01*
X1362458Y18665660D02*
X1095792Y19465660D01*
X-237542Y18665660D02*
X29125Y19046613D01*
X219601Y18665660D02*
X219601Y19465660D01*
X219601Y19465660D02*
X-85161Y19465660D01*
X-85161Y19465660D02*
X-161351Y19427565D01*
X-161351Y19427565D02*
X-199446Y19389470D01*
X-199446Y19389470D02*
X-237542Y19313279D01*
X-237542Y19313279D02*
X-237542Y19198994D01*
X-237542Y19198994D02*
X-199446Y19122803D01*
X-199446Y19122803D02*
X-161351Y19084708D01*
X-161351Y19084708D02*
X-85161Y19046613D01*
X-85161Y19046613D02*
X219601Y19046613D01*
X-504208Y19465660D02*
X-1037542Y18665660D01*
X-1037542Y19465660D02*
X-504208Y18665660D01*
X-1837542Y19465660D02*
X-2294685Y19465660D01*
X-2066113Y18665660D02*
X-2066113Y19465660D01*
X-2485161Y19465660D02*
X-3018495Y18665660D01*
X-3018495Y19465660D02*
X-2485161Y18665660D01*
X2238648Y18139610D02*
X2314838Y18177705D01*
X2314838Y18177705D02*
X2429124Y18177705D01*
X2429124Y18177705D02*
X2543410Y18139610D01*
X2543410Y18139610D02*
X2619600Y18063420D01*
X2619600Y18063420D02*
X2657695Y17987229D01*
X2657695Y17987229D02*
X2695791Y17834848D01*
X2695791Y17834848D02*
X2695791Y17720562D01*
X2695791Y17720562D02*
X2657695Y17568181D01*
X2657695Y17568181D02*
X2619600Y17491991D01*
X2619600Y17491991D02*
X2543410Y17415800D01*
X2543410Y17415800D02*
X2429124Y17377705D01*
X2429124Y17377705D02*
X2352933Y17377705D01*
X2352933Y17377705D02*
X2238648Y17415800D01*
X2238648Y17415800D02*
X2200552Y17453896D01*
X2200552Y17453896D02*
X2200552Y17720562D01*
X2200552Y17720562D02*
X2352933Y17720562D01*
X1857695Y17377705D02*
X1857695Y18177705D01*
X1857695Y18177705D02*
X1552933Y18177705D01*
X1552933Y18177705D02*
X1476743Y18139610D01*
X1476743Y18139610D02*
X1438648Y18101515D01*
X1438648Y18101515D02*
X1400552Y18025324D01*
X1400552Y18025324D02*
X1400552Y17911039D01*
X1400552Y17911039D02*
X1438648Y17834848D01*
X1438648Y17834848D02*
X1476743Y17796753D01*
X1476743Y17796753D02*
X1552933Y17758658D01*
X1552933Y17758658D02*
X1857695Y17758658D01*
X1095791Y17415800D02*
X981505Y17377705D01*
X981505Y17377705D02*
X791029Y17377705D01*
X791029Y17377705D02*
X714838Y17415800D01*
X714838Y17415800D02*
X676743Y17453896D01*
X676743Y17453896D02*
X638648Y17530086D01*
X638648Y17530086D02*
X638648Y17606277D01*
X638648Y17606277D02*
X676743Y17682467D01*
X676743Y17682467D02*
X714838Y17720562D01*
X714838Y17720562D02*
X791029Y17758658D01*
X791029Y17758658D02*
X943410Y17796753D01*
X943410Y17796753D02*
X1019600Y17834848D01*
X1019600Y17834848D02*
X1057695Y17872943D01*
X1057695Y17872943D02*
X1095791Y17949134D01*
X1095791Y17949134D02*
X1095791Y18025324D01*
X1095791Y18025324D02*
X1057695Y18101515D01*
X1057695Y18101515D02*
X1019600Y18139610D01*
X1019600Y18139610D02*
X943410Y18177705D01*
X943410Y18177705D02*
X752933Y18177705D01*
X752933Y18177705D02*
X638648Y18139610D01*
X-16681525Y13732753D02*
X-16948191Y13732753D01*
X-17062477Y13313705D02*
X-16681525Y13313705D01*
X-16681525Y13313705D02*
X-16681525Y14113705D01*
X-16681525Y14113705D02*
X-17062477Y14113705D01*
X-17405335Y13313705D02*
X-17405335Y14113705D01*
X-17405335Y14113705D02*
X-17862478Y13313705D01*
X-17862478Y13313705D02*
X-17862478Y14113705D01*
X-24796353Y14354915D02*
X-24758258Y14240629D01*
X-24758258Y14240629D02*
X-24720162Y14202534D01*
X-24720162Y14202534D02*
X-24643972Y14164438D01*
X-24643972Y14164438D02*
X-24529686Y14164438D01*
X-24529686Y14164438D02*
X-24453496Y14202534D01*
X-24453496Y14202534D02*
X-24415400Y14240629D01*
X-24415400Y14240629D02*
X-24377305Y14316819D01*
X-24377305Y14316819D02*
X-24377305Y14621581D01*
X-24377305Y14621581D02*
X-25177305Y14621581D01*
X-25177305Y14621581D02*
X-25177305Y14354915D01*
X-25177305Y14354915D02*
X-25139210Y14278724D01*
X-25139210Y14278724D02*
X-25101115Y14240629D01*
X-25101115Y14240629D02*
X-25024924Y14202534D01*
X-25024924Y14202534D02*
X-24948734Y14202534D01*
X-24948734Y14202534D02*
X-24872543Y14240629D01*
X-24872543Y14240629D02*
X-24834448Y14278724D01*
X-24834448Y14278724D02*
X-24796353Y14354915D01*
X-24796353Y14354915D02*
X-24796353Y14621581D01*
X-25177305Y13669200D02*
X-25177305Y13516819D01*
X-25177305Y13516819D02*
X-25139210Y13440629D01*
X-25139210Y13440629D02*
X-25063020Y13364438D01*
X-25063020Y13364438D02*
X-24910639Y13326343D01*
X-24910639Y13326343D02*
X-24643972Y13326343D01*
X-24643972Y13326343D02*
X-24491591Y13364438D01*
X-24491591Y13364438D02*
X-24415400Y13440629D01*
X-24415400Y13440629D02*
X-24377305Y13516819D01*
X-24377305Y13516819D02*
X-24377305Y13669200D01*
X-24377305Y13669200D02*
X-24415400Y13745391D01*
X-24415400Y13745391D02*
X-24491591Y13821581D01*
X-24491591Y13821581D02*
X-24643972Y13859677D01*
X-24643972Y13859677D02*
X-24910639Y13859677D01*
X-24910639Y13859677D02*
X-25063020Y13821581D01*
X-25063020Y13821581D02*
X-25139210Y13745391D01*
X-25139210Y13745391D02*
X-25177305Y13669200D01*
X-25177305Y12831105D02*
X-25177305Y12678724D01*
X-25177305Y12678724D02*
X-25139210Y12602534D01*
X-25139210Y12602534D02*
X-25063020Y12526343D01*
X-25063020Y12526343D02*
X-24910639Y12488248D01*
X-24910639Y12488248D02*
X-24643972Y12488248D01*
X-24643972Y12488248D02*
X-24491591Y12526343D01*
X-24491591Y12526343D02*
X-24415400Y12602534D01*
X-24415400Y12602534D02*
X-24377305Y12678724D01*
X-24377305Y12678724D02*
X-24377305Y12831105D01*
X-24377305Y12831105D02*
X-24415400Y12907296D01*
X-24415400Y12907296D02*
X-24491591Y12983486D01*
X-24491591Y12983486D02*
X-24643972Y13021582D01*
X-24643972Y13021582D02*
X-24910639Y13021582D01*
X-24910639Y13021582D02*
X-25063020Y12983486D01*
X-25063020Y12983486D02*
X-25139210Y12907296D01*
X-25139210Y12907296D02*
X-25177305Y12831105D01*
X-25177305Y12259677D02*
X-25177305Y11802534D01*
X-24377305Y12031106D02*
X-25177305Y12031106D01*
X-12058668Y13313705D02*
X-11792001Y13694658D01*
X-11601525Y13313705D02*
X-11601525Y14113705D01*
X-11601525Y14113705D02*
X-11906287Y14113705D01*
X-11906287Y14113705D02*
X-11982477Y14075610D01*
X-11982477Y14075610D02*
X-12020572Y14037515D01*
X-12020572Y14037515D02*
X-12058668Y13961324D01*
X-12058668Y13961324D02*
X-12058668Y13847039D01*
X-12058668Y13847039D02*
X-12020572Y13770848D01*
X-12020572Y13770848D02*
X-11982477Y13732753D01*
X-11982477Y13732753D02*
X-11906287Y13694658D01*
X-11906287Y13694658D02*
X-11601525Y13694658D01*
X-12325334Y14113705D02*
X-12858668Y13313705D01*
X-12858668Y14113705D02*
X-12325334Y13313705D01*
X38210295Y4905126D02*
X39010295Y4638459D01*
X39010295Y4638459D02*
X38210295Y4371793D01*
X38591247Y3838460D02*
X38629342Y3724174D01*
X38629342Y3724174D02*
X38667438Y3686079D01*
X38667438Y3686079D02*
X38743628Y3647983D01*
X38743628Y3647983D02*
X38857914Y3647983D01*
X38857914Y3647983D02*
X38934104Y3686079D01*
X38934104Y3686079D02*
X38972200Y3724174D01*
X38972200Y3724174D02*
X39010295Y3800364D01*
X39010295Y3800364D02*
X39010295Y4105126D01*
X39010295Y4105126D02*
X38210295Y4105126D01*
X38210295Y4105126D02*
X38210295Y3838460D01*
X38210295Y3838460D02*
X38248390Y3762269D01*
X38248390Y3762269D02*
X38286485Y3724174D01*
X38286485Y3724174D02*
X38362676Y3686079D01*
X38362676Y3686079D02*
X38438866Y3686079D01*
X38438866Y3686079D02*
X38515057Y3724174D01*
X38515057Y3724174D02*
X38553152Y3762269D01*
X38553152Y3762269D02*
X38591247Y3838460D01*
X38591247Y3838460D02*
X38591247Y4105126D01*
X38781723Y3343222D02*
X38781723Y2962269D01*
X39010295Y3419412D02*
X38210295Y3152745D01*
X38210295Y3152745D02*
X39010295Y2886079D01*
X38210295Y2733698D02*
X38210295Y2276555D01*
X39010295Y2505127D02*
X38210295Y2505127D01*
X38210295Y2124174D02*
X38210295Y1667031D01*
X39010295Y1895603D02*
X38210295Y1895603D01*
X38934104Y333697D02*
X38972200Y371793D01*
X38972200Y371793D02*
X39010295Y486078D01*
X39010295Y486078D02*
X39010295Y562269D01*
X39010295Y562269D02*
X38972200Y676555D01*
X38972200Y676555D02*
X38896009Y752745D01*
X38896009Y752745D02*
X38819819Y790840D01*
X38819819Y790840D02*
X38667438Y828936D01*
X38667438Y828936D02*
X38553152Y828936D01*
X38553152Y828936D02*
X38400771Y790840D01*
X38400771Y790840D02*
X38324580Y752745D01*
X38324580Y752745D02*
X38248390Y676555D01*
X38248390Y676555D02*
X38210295Y562269D01*
X38210295Y562269D02*
X38210295Y486078D01*
X38210295Y486078D02*
X38248390Y371793D01*
X38248390Y371793D02*
X38286485Y333697D01*
X38210295Y-161541D02*
X38210295Y-313922D01*
X38210295Y-313922D02*
X38248390Y-390112D01*
X38248390Y-390112D02*
X38324580Y-466303D01*
X38324580Y-466303D02*
X38476961Y-504398D01*
X38476961Y-504398D02*
X38743628Y-504398D01*
X38743628Y-504398D02*
X38896009Y-466303D01*
X38896009Y-466303D02*
X38972200Y-390112D01*
X38972200Y-390112D02*
X39010295Y-313922D01*
X39010295Y-313922D02*
X39010295Y-161541D01*
X39010295Y-161541D02*
X38972200Y-85350D01*
X38972200Y-85350D02*
X38896009Y-9160D01*
X38896009Y-9160D02*
X38743628Y28936D01*
X38743628Y28936D02*
X38476961Y28936D01*
X38476961Y28936D02*
X38324580Y-9160D01*
X38324580Y-9160D02*
X38248390Y-85350D01*
X38248390Y-85350D02*
X38210295Y-161541D01*
X39010295Y-847255D02*
X38210295Y-847255D01*
X38210295Y-847255D02*
X38781723Y-1113921D01*
X38781723Y-1113921D02*
X38210295Y-1380588D01*
X38210295Y-1380588D02*
X39010295Y-1380588D01*
X38248390Y-2790112D02*
X38210295Y-2713922D01*
X38210295Y-2713922D02*
X38210295Y-2599636D01*
X38210295Y-2599636D02*
X38248390Y-2485350D01*
X38248390Y-2485350D02*
X38324580Y-2409160D01*
X38324580Y-2409160D02*
X38400771Y-2371065D01*
X38400771Y-2371065D02*
X38553152Y-2332969D01*
X38553152Y-2332969D02*
X38667438Y-2332969D01*
X38667438Y-2332969D02*
X38819819Y-2371065D01*
X38819819Y-2371065D02*
X38896009Y-2409160D01*
X38896009Y-2409160D02*
X38972200Y-2485350D01*
X38972200Y-2485350D02*
X39010295Y-2599636D01*
X39010295Y-2599636D02*
X39010295Y-2675827D01*
X39010295Y-2675827D02*
X38972200Y-2790112D01*
X38972200Y-2790112D02*
X38934104Y-2828208D01*
X38934104Y-2828208D02*
X38667438Y-2828208D01*
X38667438Y-2828208D02*
X38667438Y-2675827D01*
X39010295Y-3171065D02*
X38210295Y-3171065D01*
X38210295Y-3171065D02*
X39010295Y-3628208D01*
X39010295Y-3628208D02*
X38210295Y-3628208D01*
X39010295Y-4009160D02*
X38210295Y-4009160D01*
X38210295Y-4009160D02*
X38210295Y-4199636D01*
X38210295Y-4199636D02*
X38248390Y-4313922D01*
X38248390Y-4313922D02*
X38324580Y-4390112D01*
X38324580Y-4390112D02*
X38400771Y-4428207D01*
X38400771Y-4428207D02*
X38553152Y-4466303D01*
X38553152Y-4466303D02*
X38667438Y-4466303D01*
X38667438Y-4466303D02*
X38819819Y-4428207D01*
X38819819Y-4428207D02*
X38896009Y-4390112D01*
X38896009Y-4390112D02*
X38972200Y-4313922D01*
X38972200Y-4313922D02*
X39010295Y-4199636D01*
X39010295Y-4199636D02*
X39010295Y-4009160D01*
X-16091048Y19701705D02*
X-16586286Y19701705D01*
X-16586286Y19701705D02*
X-16319620Y19396943D01*
X-16319620Y19396943D02*
X-16433905Y19396943D01*
X-16433905Y19396943D02*
X-16510096Y19358848D01*
X-16510096Y19358848D02*
X-16548191Y19320753D01*
X-16548191Y19320753D02*
X-16586286Y19244562D01*
X-16586286Y19244562D02*
X-16586286Y19054086D01*
X-16586286Y19054086D02*
X-16548191Y18977896D01*
X-16548191Y18977896D02*
X-16510096Y18939800D01*
X-16510096Y18939800D02*
X-16433905Y18901705D01*
X-16433905Y18901705D02*
X-16205334Y18901705D01*
X-16205334Y18901705D02*
X-16129143Y18939800D01*
X-16129143Y18939800D02*
X-16091048Y18977896D01*
X-16929144Y18977896D02*
X-16967239Y18939800D01*
X-16967239Y18939800D02*
X-16929144Y18901705D01*
X-16929144Y18901705D02*
X-16891048Y18939800D01*
X-16891048Y18939800D02*
X-16929144Y18977896D01*
X-16929144Y18977896D02*
X-16929144Y18901705D01*
X-17233905Y19701705D02*
X-17729143Y19701705D01*
X-17729143Y19701705D02*
X-17462477Y19396943D01*
X-17462477Y19396943D02*
X-17576762Y19396943D01*
X-17576762Y19396943D02*
X-17652953Y19358848D01*
X-17652953Y19358848D02*
X-17691048Y19320753D01*
X-17691048Y19320753D02*
X-17729143Y19244562D01*
X-17729143Y19244562D02*
X-17729143Y19054086D01*
X-17729143Y19054086D02*
X-17691048Y18977896D01*
X-17691048Y18977896D02*
X-17652953Y18939800D01*
X-17652953Y18939800D02*
X-17576762Y18901705D01*
X-17576762Y18901705D02*
X-17348191Y18901705D01*
X-17348191Y18901705D02*
X-17272000Y18939800D01*
X-17272000Y18939800D02*
X-17233905Y18977896D01*
X-17957715Y19701705D02*
X-18224382Y18901705D01*
X-18224382Y18901705D02*
X-18491048Y19701705D01*
X30657522Y2429705D02*
X30505141Y2429705D01*
X30505141Y2429705D02*
X30428951Y2391610D01*
X30428951Y2391610D02*
X30352760Y2315420D01*
X30352760Y2315420D02*
X30314665Y2163039D01*
X30314665Y2163039D02*
X30314665Y1896372D01*
X30314665Y1896372D02*
X30352760Y1743991D01*
X30352760Y1743991D02*
X30428951Y1667800D01*
X30428951Y1667800D02*
X30505141Y1629705D01*
X30505141Y1629705D02*
X30657522Y1629705D01*
X30657522Y1629705D02*
X30733713Y1667800D01*
X30733713Y1667800D02*
X30809903Y1743991D01*
X30809903Y1743991D02*
X30847999Y1896372D01*
X30847999Y1896372D02*
X30847999Y2163039D01*
X30847999Y2163039D02*
X30809903Y2315420D01*
X30809903Y2315420D02*
X30733713Y2391610D01*
X30733713Y2391610D02*
X30657522Y2429705D01*
X29705142Y2048753D02*
X29971808Y2048753D01*
X29971808Y1629705D02*
X29971808Y2429705D01*
X29971808Y2429705D02*
X29590856Y2429705D01*
X29019428Y2048753D02*
X29286094Y2048753D01*
X29286094Y1629705D02*
X29286094Y2429705D01*
X29286094Y2429705D02*
X28905142Y2429705D01*
X27228951Y2429705D02*
X27076570Y2429705D01*
X27076570Y2429705D02*
X27000380Y2391610D01*
X27000380Y2391610D02*
X26924189Y2315420D01*
X26924189Y2315420D02*
X26886094Y2163039D01*
X26886094Y2163039D02*
X26886094Y1896372D01*
X26886094Y1896372D02*
X26924189Y1743991D01*
X26924189Y1743991D02*
X27000380Y1667800D01*
X27000380Y1667800D02*
X27076570Y1629705D01*
X27076570Y1629705D02*
X27228951Y1629705D01*
X27228951Y1629705D02*
X27305142Y1667800D01*
X27305142Y1667800D02*
X27381332Y1743991D01*
X27381332Y1743991D02*
X27419428Y1896372D01*
X27419428Y1896372D02*
X27419428Y2163039D01*
X27419428Y2163039D02*
X27381332Y2315420D01*
X27381332Y2315420D02*
X27305142Y2391610D01*
X27305142Y2391610D02*
X27228951Y2429705D01*
X26543237Y1629705D02*
X26543237Y2429705D01*
X26543237Y2429705D02*
X26086094Y1629705D01*
X26086094Y1629705D02*
X26086094Y2429705D01*
D11*
%TO.C,H401*%
X42750000Y-20000000D02*
G75*
G02*
X37250000Y-20000000I-2750000J0D01*
G01*
X37250000Y-20000000D02*
G75*
G02*
X42750000Y-20000000I2750000J0D01*
G01*
%TO.C,H404*%
X-31250000Y-20000000D02*
G75*
G02*
X-36750000Y-20000000I-2750000J0D01*
G01*
X-36750000Y-20000000D02*
G75*
G02*
X-31250000Y-20000000I2750000J0D01*
G01*
%TO.C,H403*%
X-31250000Y20000000D02*
G75*
G02*
X-36750000Y20000000I-2750000J0D01*
G01*
X-36750000Y20000000D02*
G75*
G02*
X-31250000Y20000000I2750000J0D01*
G01*
%TO.C,H402*%
X42750000Y20000000D02*
G75*
G02*
X37250000Y20000000I-2750000J0D01*
G01*
X37250000Y20000000D02*
G75*
G02*
X42750000Y20000000I2750000J0D01*
G01*
%TD*%
%LPC*%
D12*
%TO.C,J103*%
X-2463800Y20650200D03*
D13*
X36200Y20650200D03*
X2536200Y20650200D03*
X5036200Y20650200D03*
%TD*%
D14*
%TO.C,H401*%
X40000000Y-20000000D03*
%TD*%
D15*
%TO.C,SW102*%
X-28194000Y16505000D03*
D16*
X-28194000Y19045000D03*
%TD*%
D14*
%TO.C,H404*%
X-34000000Y-20000000D03*
%TD*%
D17*
%TO.C,J101*%
X-17277000Y15249500D03*
D16*
X-17277000Y17789500D03*
X-14737000Y15249500D03*
X-14737000Y17789500D03*
X-12197000Y15249500D03*
X-12197000Y17789500D03*
%TD*%
D15*
%TO.C,SW101*%
X-24638000Y16510000D03*
D16*
X-24638000Y19050000D03*
%TD*%
D14*
%TO.C,H403*%
X-34000000Y20000000D03*
%TD*%
D18*
%TO.C,J102*%
X-12649200Y-20599400D03*
D13*
X-15149200Y-20599400D03*
X-17649200Y-20599400D03*
X-20149200Y-20599400D03*
X-22649200Y-20599400D03*
X-25149200Y-20599400D03*
%TD*%
D19*
%TO.C,SW201*%
X25960000Y0D03*
D16*
X28500000Y0D03*
X31040000Y0D03*
%TD*%
D20*
%TO.C,J201*%
X40640000Y2500000D03*
D21*
X40640000Y0D03*
X40640000Y-2500000D03*
%TD*%
D22*
%TO.C,BZ101*%
X14579600Y19861600D03*
D16*
X14579600Y13361600D03*
%TD*%
D23*
%TO.C,TP205*%
X21183600Y812800D03*
%TD*%
D14*
%TO.C,H402*%
X40000000Y20000000D03*
%TD*%
%LPD*%
M02*
