M48
; DRILL file {KiCad 8.0.1} date 2024-06-07T18:03:32+0200
; FORMAT={-:-/ absolute / inch / decimal}
; #@! TF.CreationDate,2024-06-07T18:03:32+02:00
; #@! TF.GenerationSoftware,Kicad,Pcbnew,8.0.1
; #@! TF.FileFunction,Plated,1,4,PTH
FMAT,2
INCH
; #@! TA.AperFunction,Plated,PTH,ComponentDrill
T1C0.0354
; #@! TA.AperFunction,Plated,PTH,ComponentDrill
T2C0.0374
; #@! TA.AperFunction,Plated,PTH,ComponentDrill
T3C0.0394
%
G90
G05
T1
X1.08Y-2.14
X2.07Y-3.93
X2.07Y-4.03
X2.07Y-4.13
X2.07Y-4.23
X2.17Y-3.93
X2.17Y-4.03
X2.17Y-4.13
X2.17Y-4.23
X2.27Y-3.93
X2.27Y-4.03
X2.27Y-4.13
X2.27Y-4.23
X2.37Y-3.93
X2.37Y-4.03
X2.37Y-4.13
X2.37Y-4.23
X2.47Y-3.93
X2.47Y-4.03
X2.47Y-4.13
X2.47Y-4.23
X2.57Y-3.93
X2.57Y-4.03
X2.57Y-4.13
X2.57Y-4.23
X2.67Y-3.93
X2.67Y-4.03
X2.67Y-4.13
X2.67Y-4.23
X2.72Y-2.14
X2.77Y-3.93
X2.77Y-4.03
X2.77Y-4.13
X2.77Y-4.23
T2
X1.025Y-4.325
X1.0524Y-1.9707
X1.1234Y-4.325
X1.1508Y-1.9707
X1.2219Y-4.325
X1.2492Y-1.9707
X1.3203Y-4.325
X1.3476Y-1.9707
X1.6024Y-4.3293
X1.6324Y-1.9707
X1.7008Y-4.3293
X1.7308Y-1.9707
X1.7992Y-4.3293
X1.8292Y-1.9707
X1.8976Y-4.3293
X1.9276Y-1.9707
T3
X1.001Y-2.3254
X1.001Y-2.4254
X1.001Y-2.5254
X1.001Y-2.6254
X2.0704Y-2.95
X2.0704Y-3.05
X2.0704Y-3.15
X2.0704Y-3.25
X2.0704Y-3.35
X2.1704Y-2.95
X2.1704Y-3.05
X2.1704Y-3.15
X2.1704Y-3.25
X2.1704Y-3.35
X2.46Y-2.62
X2.46Y-2.8
X2.53Y-2.0
X2.56Y-2.62
X2.56Y-2.8
X2.63Y-2.0
M30
