%TF.GenerationSoftware,KiCad,Pcbnew,8.0.1*%
%TF.CreationDate,2024-06-07T14:48:59+02:00*%
%TF.ProjectId,Robuoy-Top,526f6275-6f79-42d5-946f-702e6b696361,rev?*%
%TF.SameCoordinates,Original*%
%TF.FileFunction,Paste,Top*%
%TF.FilePolarity,Positive*%
%FSLAX46Y46*%
G04 Gerber Fmt 4.6, Leading zero omitted, Abs format (unit mm)*
G04 Created by KiCad (PCBNEW 8.0.1) date 2024-06-07 14:48:59*
%MOMM*%
%LPD*%
G01*
G04 APERTURE LIST*
G04 Aperture macros list*
%AMRoundRect*
0 Rectangle with rounded corners*
0 $1 Rounding radius*
0 $2 $3 $4 $5 $6 $7 $8 $9 X,Y pos of 4 corners*
0 Add a 4 corners polygon primitive as box body*
4,1,4,$2,$3,$4,$5,$6,$7,$8,$9,$2,$3,0*
0 Add four circle primitives for the rounded corners*
1,1,$1+$1,$2,$3*
1,1,$1+$1,$4,$5*
1,1,$1+$1,$6,$7*
1,1,$1+$1,$8,$9*
0 Add four rect primitives between the rounded corners*
20,1,$1+$1,$2,$3,$4,$5,0*
20,1,$1+$1,$4,$5,$6,$7,0*
20,1,$1+$1,$6,$7,$8,$9,0*
20,1,$1+$1,$8,$9,$2,$3,0*%
G04 Aperture macros list end*
%ADD10RoundRect,0.200000X-0.200000X-0.250000X0.200000X-0.250000X0.200000X0.250000X-0.200000X0.250000X0*%
%ADD11RoundRect,0.150000X-0.587500X-0.150000X0.587500X-0.150000X0.587500X0.150000X-0.587500X0.150000X0*%
%ADD12RoundRect,0.091346X-0.383654X-0.958654X0.383654X-0.958654X0.383654X0.958654X-0.383654X0.958654X0*%
%ADD13RoundRect,0.250000X-0.250000X-0.400000X0.250000X-0.400000X0.250000X0.400000X-0.250000X0.400000X0*%
%ADD14R,1.500000X0.900000*%
%ADD15R,2.000000X1.500000*%
%ADD16RoundRect,0.150000X-0.512500X-0.150000X0.512500X-0.150000X0.512500X0.150000X-0.512500X0.150000X0*%
%ADD17R,1.500000X0.650000*%
%ADD18R,0.810000X1.080000*%
%ADD19RoundRect,0.100000X-0.350000X-0.100000X0.350000X-0.100000X0.350000X0.100000X-0.350000X0.100000X0*%
%ADD20RoundRect,0.099705X-0.622795X-0.622795X0.622795X-0.622795X0.622795X0.622795X-0.622795X0.622795X0*%
%ADD21RoundRect,0.225000X0.225000X-0.525000X0.225000X0.525000X-0.225000X0.525000X-0.225000X-0.525000X0*%
%ADD22RoundRect,0.225000X0.525000X0.225000X-0.525000X0.225000X-0.525000X-0.225000X0.525000X-0.225000X0*%
%ADD23RoundRect,0.250000X-1.000000X-0.650000X1.000000X-0.650000X1.000000X0.650000X-1.000000X0.650000X0*%
%ADD24RoundRect,0.250000X-1.000000X-0.900000X1.000000X-0.900000X1.000000X0.900000X-1.000000X0.900000X0*%
%ADD25RoundRect,0.250000X-0.325000X-1.100000X0.325000X-1.100000X0.325000X1.100000X-0.325000X1.100000X0*%
%ADD26RoundRect,0.375000X-0.375000X-0.475000X0.375000X-0.475000X0.375000X0.475000X-0.375000X0.475000X0*%
G04 APERTURE END LIST*
D10*
%TO.C,R106*%
X108405000Y-85945000D03*
X109905000Y-85945000D03*
%TD*%
%TO.C,R105*%
X108405000Y-83545000D03*
X109905000Y-83545000D03*
%TD*%
D11*
%TO.C,Q202*%
X110972500Y-67935000D03*
X110972500Y-69835000D03*
X112847500Y-68885000D03*
%TD*%
%TO.C,Q101*%
X103872500Y-83795000D03*
X103872500Y-85695000D03*
X105747500Y-84745000D03*
%TD*%
D12*
%TO.C,L202*%
X106840000Y-67495000D03*
X108490000Y-67495000D03*
%TD*%
%TO.C,L201*%
X106840000Y-64395000D03*
X108490000Y-64395000D03*
%TD*%
D13*
%TO.C,D206*%
X41655000Y-131605000D03*
X43555000Y-131605000D03*
%TD*%
%TO.C,D205*%
X41655000Y-128705000D03*
X43555000Y-128705000D03*
%TD*%
%TO.C,D203*%
X90447000Y-53948000D03*
X92347000Y-53948000D03*
%TD*%
D10*
%TO.C,D202*%
X90647000Y-51358000D03*
X92147000Y-51358000D03*
%TD*%
D13*
%TO.C,D103*%
X33332000Y-47413000D03*
X35232000Y-47413000D03*
%TD*%
%TO.C,D102*%
X41025000Y-107545000D03*
X42925000Y-107545000D03*
%TD*%
%TO.C,D101*%
X41025000Y-100925000D03*
X42925000Y-100925000D03*
%TD*%
D10*
%TO.C,R116*%
X79780000Y-32740000D03*
X81280000Y-32740000D03*
%TD*%
%TO.C,R115*%
X79780000Y-30340000D03*
X81280000Y-30340000D03*
%TD*%
%TO.C,R114*%
X79780000Y-27940000D03*
X81280000Y-27940000D03*
%TD*%
D14*
%TO.C,D106*%
X71970000Y-33840000D03*
X71970000Y-37140000D03*
X76870000Y-37140000D03*
X76870000Y-33840000D03*
%TD*%
%TO.C,D105*%
X71970000Y-27220000D03*
X71970000Y-30520000D03*
X76870000Y-30520000D03*
X76870000Y-27220000D03*
%TD*%
%TO.C,D104*%
X71970000Y-20600000D03*
X71970000Y-23900000D03*
X76870000Y-23900000D03*
X76870000Y-20600000D03*
%TD*%
D15*
%TO.C,U301*%
X50040000Y-115380000D03*
X50040000Y-117380000D03*
X50040000Y-119380000D03*
X50040000Y-121380000D03*
X50040000Y-123380000D03*
X50040000Y-125380000D03*
X50040000Y-127380000D03*
X50040000Y-129380000D03*
X66040000Y-129380000D03*
X66040000Y-127380000D03*
X66040000Y-125380000D03*
X66040000Y-123380000D03*
X66040000Y-121380000D03*
X66040000Y-119380000D03*
X66040000Y-117380000D03*
X66040000Y-115380000D03*
%TD*%
D16*
%TO.C,U204*%
X42552500Y-123555000D03*
X42552500Y-124505000D03*
X42552500Y-125455000D03*
X44827500Y-125455000D03*
X44827500Y-124505000D03*
X44827500Y-123555000D03*
%TD*%
%TO.C,U203*%
X42552500Y-118930000D03*
X42552500Y-119880000D03*
X42552500Y-120830000D03*
X44827500Y-120830000D03*
X44827500Y-119880000D03*
X44827500Y-118930000D03*
%TD*%
D17*
%TO.C,U202*%
X24840000Y-128740000D03*
X24840000Y-130010000D03*
X24840000Y-131280000D03*
X24840000Y-132550000D03*
X30240000Y-132550000D03*
X30240000Y-131280000D03*
X30240000Y-130010000D03*
X30240000Y-128740000D03*
D18*
X26865000Y-129745000D03*
X26865000Y-131545000D03*
X28215000Y-129745000D03*
X28215000Y-131545000D03*
%TD*%
D16*
%TO.C,U201*%
X42552500Y-114305000D03*
X42552500Y-115255000D03*
X42552500Y-116205000D03*
X44827500Y-116205000D03*
X44827500Y-115255000D03*
X44827500Y-114305000D03*
%TD*%
D19*
%TO.C,U104*%
X63760000Y-107045000D03*
X63760000Y-107695000D03*
X63760000Y-108345000D03*
X65960000Y-108345000D03*
X65960000Y-107695000D03*
X65960000Y-107045000D03*
%TD*%
D16*
%TO.C,U103*%
X47209500Y-28628000D03*
X47209500Y-29578000D03*
X47209500Y-30528000D03*
X49484500Y-30528000D03*
X49484500Y-29578000D03*
X49484500Y-28628000D03*
%TD*%
%TO.C,U102*%
X59022500Y-107145000D03*
X59022500Y-108095000D03*
X59022500Y-109045000D03*
X61297500Y-109045000D03*
X61297500Y-108095000D03*
X61297500Y-107145000D03*
%TD*%
D20*
%TO.C,U101*%
X45338000Y-82290000D03*
X42018000Y-85610000D03*
X43678000Y-85610000D03*
X43678000Y-82290000D03*
X42018000Y-83950000D03*
X42018000Y-82290000D03*
X45338000Y-83950000D03*
X43678000Y-83950000D03*
X45338000Y-85610000D03*
D21*
X36333000Y-91840000D03*
X37603000Y-91840000D03*
X38873000Y-91840000D03*
X40143000Y-91840000D03*
X41413000Y-91840000D03*
X42683000Y-91840000D03*
X43953000Y-91840000D03*
X45223000Y-91840000D03*
X46493000Y-91840000D03*
X47763000Y-91840000D03*
X49033000Y-91840000D03*
X50303000Y-91840000D03*
X51573000Y-91840000D03*
X52843000Y-91840000D03*
D22*
X54093000Y-88805000D03*
X54093000Y-87535000D03*
X54093000Y-86265000D03*
X54093000Y-84995000D03*
X54093000Y-83725000D03*
X54093000Y-82455000D03*
X54093000Y-81185000D03*
X54093000Y-79915000D03*
X54093000Y-78645000D03*
X54093000Y-77375000D03*
D21*
X52843000Y-74340000D03*
X51573000Y-74340000D03*
X50303000Y-74340000D03*
X49033000Y-74340000D03*
X47763000Y-74340000D03*
X46493000Y-74340000D03*
X45223000Y-74340000D03*
X43953000Y-74340000D03*
X42683000Y-74340000D03*
X41413000Y-74340000D03*
X40143000Y-74340000D03*
X38873000Y-74340000D03*
X37603000Y-74340000D03*
X36333000Y-74340000D03*
%TD*%
D10*
%TO.C,R216*%
X32065000Y-118855000D03*
X33565000Y-118855000D03*
%TD*%
%TO.C,R215*%
X32065000Y-116455000D03*
X33565000Y-116455000D03*
%TD*%
%TO.C,R214*%
X32065000Y-114055000D03*
X33565000Y-114055000D03*
%TD*%
%TO.C,R211*%
X28265000Y-126055000D03*
X29765000Y-126055000D03*
%TD*%
%TO.C,R209*%
X28265000Y-123655000D03*
X29765000Y-123655000D03*
%TD*%
%TO.C,R208*%
X28265000Y-121255000D03*
X29765000Y-121255000D03*
%TD*%
%TO.C,R205*%
X28265000Y-118855000D03*
X29765000Y-118855000D03*
%TD*%
%TO.C,R204*%
X28265000Y-116455000D03*
X29765000Y-116455000D03*
%TD*%
%TO.C,R201*%
X28265000Y-114055000D03*
X29765000Y-114055000D03*
%TD*%
%TO.C,R113*%
X54935000Y-106015000D03*
X56435000Y-106015000D03*
%TD*%
%TO.C,R112*%
X54935000Y-103615000D03*
X56435000Y-103615000D03*
%TD*%
%TO.C,R111*%
X54935000Y-101215000D03*
X56435000Y-101215000D03*
%TD*%
%TO.C,R108*%
X54935000Y-98815000D03*
X56435000Y-98815000D03*
%TD*%
%TO.C,R107*%
X51135000Y-106015000D03*
X52635000Y-106015000D03*
%TD*%
%TO.C,R102*%
X51135000Y-103615000D03*
X52635000Y-103615000D03*
%TD*%
%TO.C,R101*%
X51135000Y-101215000D03*
X52635000Y-101215000D03*
%TD*%
D23*
%TO.C,D204*%
X33835000Y-135080000D03*
X37835000Y-135080000D03*
%TD*%
D24*
%TO.C,D201*%
X33835000Y-130030000D03*
X38135000Y-130030000D03*
%TD*%
D10*
%TO.C,C303*%
X68965000Y-122555000D03*
X70465000Y-122555000D03*
%TD*%
D25*
%TO.C,C302*%
X69165000Y-119230000D03*
X72115000Y-119230000D03*
%TD*%
%TO.C,C301*%
X69165000Y-114980000D03*
X72115000Y-114980000D03*
%TD*%
D26*
%TO.C,C210*%
X36215000Y-124055000D03*
X39615000Y-124055000D03*
%TD*%
D10*
%TO.C,C209*%
X24465000Y-126055000D03*
X25965000Y-126055000D03*
%TD*%
D26*
%TO.C,C208*%
X36215000Y-120855000D03*
X39615000Y-120855000D03*
%TD*%
%TO.C,C207*%
X36215000Y-117655000D03*
X39615000Y-117655000D03*
%TD*%
D10*
%TO.C,C206*%
X24465000Y-123655000D03*
X25965000Y-123655000D03*
%TD*%
%TO.C,C205*%
X24465000Y-121255000D03*
X25965000Y-121255000D03*
%TD*%
D26*
%TO.C,C204*%
X36215000Y-114455000D03*
X39615000Y-114455000D03*
%TD*%
D10*
%TO.C,C203*%
X24465000Y-118855000D03*
X25965000Y-118855000D03*
%TD*%
%TO.C,C202*%
X24465000Y-116455000D03*
X25965000Y-116455000D03*
%TD*%
%TO.C,C201*%
X24465000Y-114055000D03*
X25965000Y-114055000D03*
%TD*%
%TO.C,C114*%
X51135000Y-98815000D03*
X52635000Y-98815000D03*
%TD*%
%TO.C,C113*%
X47335000Y-106015000D03*
X48835000Y-106015000D03*
%TD*%
%TO.C,C107*%
X66417000Y-57678000D03*
X67917000Y-57678000D03*
%TD*%
%TO.C,C106*%
X66417000Y-53428000D03*
X67917000Y-53428000D03*
%TD*%
%TO.C,C105*%
X47335000Y-103615000D03*
X48835000Y-103615000D03*
%TD*%
%TO.C,C104*%
X47335000Y-101215000D03*
X48835000Y-101215000D03*
%TD*%
D25*
%TO.C,C103*%
X53367000Y-50103000D03*
X56317000Y-50103000D03*
%TD*%
%TO.C,C102*%
X58935000Y-103570000D03*
X61885000Y-103570000D03*
%TD*%
D10*
%TO.C,C101*%
X47335000Y-98815000D03*
X48835000Y-98815000D03*
%TD*%
%TO.C,C108*%
X54092000Y-52503000D03*
X55592000Y-52503000D03*
%TD*%
%TO.C,C109*%
X54092000Y-54903000D03*
X55592000Y-54903000D03*
%TD*%
%TO.C,R110*%
X61692000Y-50103000D03*
X63192000Y-50103000D03*
%TD*%
%TO.C,C111*%
X57892000Y-45303000D03*
X59392000Y-45303000D03*
%TD*%
%TO.C,R109*%
X61692000Y-47703000D03*
X63192000Y-47703000D03*
%TD*%
%TO.C,R203*%
X81552000Y-60863000D03*
X83052000Y-60863000D03*
%TD*%
%TO.C,R104*%
X61692000Y-45303000D03*
X63192000Y-45303000D03*
%TD*%
%TO.C,C110*%
X54092000Y-57303000D03*
X55592000Y-57303000D03*
%TD*%
%TO.C,R103*%
X57892000Y-57303000D03*
X59392000Y-57303000D03*
%TD*%
%TO.C,R202*%
X81552000Y-58463000D03*
X83052000Y-58463000D03*
%TD*%
%TO.C,C112*%
X57892000Y-47703000D03*
X59392000Y-47703000D03*
%TD*%
M02*
