%TF.GenerationSoftware,KiCad,Pcbnew,8.0.1*%
%TF.CreationDate,2024-06-07T14:48:59+02:00*%
%TF.ProjectId,Robuoy-Top,526f6275-6f79-42d5-946f-702e6b696361,rev?*%
%TF.SameCoordinates,Original*%
%TF.FileFunction,Copper,L1,Top*%
%TF.FilePolarity,Positive*%
%FSLAX46Y46*%
G04 Gerber Fmt 4.6, Leading zero omitted, Abs format (unit mm)*
G04 Created by KiCad (PCBNEW 8.0.1) date 2024-06-07 14:48:59*
%MOMM*%
%LPD*%
G01*
G04 APERTURE LIST*
G04 Aperture macros list*
%AMRoundRect*
0 Rectangle with rounded corners*
0 $1 Rounding radius*
0 $2 $3 $4 $5 $6 $7 $8 $9 X,Y pos of 4 corners*
0 Add a 4 corners polygon primitive as box body*
4,1,4,$2,$3,$4,$5,$6,$7,$8,$9,$2,$3,0*
0 Add four circle primitives for the rounded corners*
1,1,$1+$1,$2,$3*
1,1,$1+$1,$4,$5*
1,1,$1+$1,$6,$7*
1,1,$1+$1,$8,$9*
0 Add four rect primitives between the rounded corners*
20,1,$1+$1,$2,$3,$4,$5,0*
20,1,$1+$1,$4,$5,$6,$7,0*
20,1,$1+$1,$6,$7,$8,$9,0*
20,1,$1+$1,$8,$9,$2,$3,0*%
%AMFreePoly0*
4,1,19,0.550000,-0.750000,0.000000,-0.750000,0.000000,-0.744911,-0.071157,-0.744911,-0.207708,-0.704816,-0.327430,-0.627875,-0.420627,-0.520320,-0.479746,-0.390866,-0.500000,-0.250000,-0.500000,0.250000,-0.479746,0.390866,-0.420627,0.520320,-0.327430,0.627875,-0.207708,0.704816,-0.071157,0.744911,0.000000,0.744911,0.000000,0.750000,0.550000,0.750000,0.550000,-0.750000,0.550000,-0.750000,
$1*%
%AMFreePoly1*
4,1,19,0.000000,0.744911,0.071157,0.744911,0.207708,0.704816,0.327430,0.627875,0.420627,0.520320,0.479746,0.390866,0.500000,0.250000,0.500000,-0.250000,0.479746,-0.390866,0.420627,-0.520320,0.327430,-0.627875,0.207708,-0.704816,0.071157,-0.744911,0.000000,-0.744911,0.000000,-0.750000,-0.550000,-0.750000,-0.550000,0.750000,0.000000,0.750000,0.000000,0.744911,0.000000,0.744911,
$1*%
G04 Aperture macros list end*
%TA.AperFunction,EtchedComponent*%
%ADD10C,0.000000*%
%TD*%
%TA.AperFunction,SMDPad,CuDef*%
%ADD11C,2.000000*%
%TD*%
%TA.AperFunction,ComponentPad*%
%ADD12C,1.500000*%
%TD*%
%TA.AperFunction,SMDPad,CuDef*%
%ADD13RoundRect,0.200000X-0.200000X-0.250000X0.200000X-0.250000X0.200000X0.250000X-0.200000X0.250000X0*%
%TD*%
%TA.AperFunction,SMDPad,CuDef*%
%ADD14RoundRect,0.150000X-0.587500X-0.150000X0.587500X-0.150000X0.587500X0.150000X-0.587500X0.150000X0*%
%TD*%
%TA.AperFunction,SMDPad,CuDef*%
%ADD15RoundRect,0.091346X-0.383654X-0.958654X0.383654X-0.958654X0.383654X0.958654X-0.383654X0.958654X0*%
%TD*%
%TA.AperFunction,ComponentPad*%
%ADD16RoundRect,0.206250X-0.618750X-0.618750X0.618750X-0.618750X0.618750X0.618750X-0.618750X0.618750X0*%
%TD*%
%TA.AperFunction,ComponentPad*%
%ADD17C,1.700000*%
%TD*%
%TA.AperFunction,ComponentPad*%
%ADD18RoundRect,0.250000X-0.600000X-0.725000X0.600000X-0.725000X0.600000X0.725000X-0.600000X0.725000X0*%
%TD*%
%TA.AperFunction,ComponentPad*%
%ADD19O,1.700000X1.950000*%
%TD*%
%TA.AperFunction,SMDPad,CuDef*%
%ADD20RoundRect,0.250000X-0.250000X-0.400000X0.250000X-0.400000X0.250000X0.400000X-0.250000X0.400000X0*%
%TD*%
%TA.AperFunction,ComponentPad*%
%ADD21R,1.700000X1.700000*%
%TD*%
%TA.AperFunction,ComponentPad*%
%ADD22O,1.700000X1.700000*%
%TD*%
%TA.AperFunction,SMDPad,CuDef*%
%ADD23R,1.500000X0.900000*%
%TD*%
%TA.AperFunction,SMDPad,CuDef*%
%ADD24R,2.000000X1.500000*%
%TD*%
%TA.AperFunction,SMDPad,CuDef*%
%ADD25RoundRect,0.150000X-0.512500X-0.150000X0.512500X-0.150000X0.512500X0.150000X-0.512500X0.150000X0*%
%TD*%
%TA.AperFunction,SMDPad,CuDef*%
%ADD26R,1.500000X0.650000*%
%TD*%
%TA.AperFunction,SMDPad,CuDef*%
%ADD27R,1.350000X1.800000*%
%TD*%
%TA.AperFunction,SMDPad,CuDef*%
%ADD28RoundRect,0.100000X-0.350000X-0.100000X0.350000X-0.100000X0.350000X0.100000X-0.350000X0.100000X0*%
%TD*%
%TA.AperFunction,SMDPad,CuDef*%
%ADD29RoundRect,0.225000X0.225000X-0.525000X0.225000X0.525000X-0.225000X0.525000X-0.225000X-0.525000X0*%
%TD*%
%TA.AperFunction,SMDPad,CuDef*%
%ADD30RoundRect,0.225000X0.525000X0.225000X-0.525000X0.225000X-0.525000X-0.225000X0.525000X-0.225000X0*%
%TD*%
%TA.AperFunction,SMDPad,CuDef*%
%ADD31RoundRect,0.250000X2.250000X-2.250000X2.250000X2.250000X-2.250000X2.250000X-2.250000X-2.250000X0*%
%TD*%
%TA.AperFunction,ComponentPad*%
%ADD32C,1.524000*%
%TD*%
%TA.AperFunction,SMDPad,CuDef*%
%ADD33FreePoly0,0.000000*%
%TD*%
%TA.AperFunction,SMDPad,CuDef*%
%ADD34R,1.000000X1.500000*%
%TD*%
%TA.AperFunction,SMDPad,CuDef*%
%ADD35FreePoly1,0.000000*%
%TD*%
%TA.AperFunction,ComponentPad*%
%ADD36RoundRect,0.250000X-0.600000X-0.600000X0.600000X-0.600000X0.600000X0.600000X-0.600000X0.600000X0*%
%TD*%
%TA.AperFunction,SMDPad,CuDef*%
%ADD37RoundRect,0.250000X-1.000000X-0.650000X1.000000X-0.650000X1.000000X0.650000X-1.000000X0.650000X0*%
%TD*%
%TA.AperFunction,SMDPad,CuDef*%
%ADD38RoundRect,0.250000X-1.000000X-0.900000X1.000000X-0.900000X1.000000X0.900000X-1.000000X0.900000X0*%
%TD*%
%TA.AperFunction,SMDPad,CuDef*%
%ADD39RoundRect,0.250000X-0.325000X-1.100000X0.325000X-1.100000X0.325000X1.100000X-0.325000X1.100000X0*%
%TD*%
%TA.AperFunction,SMDPad,CuDef*%
%ADD40RoundRect,0.375000X-0.375000X-0.475000X0.375000X-0.475000X0.375000X0.475000X-0.375000X0.475000X0*%
%TD*%
G04 APERTURE END LIST*
D10*
%TA.AperFunction,EtchedComponent*%
%TO.C,JP101*%
G36*
X60010000Y-99690000D02*
G01*
X59510000Y-99690000D01*
X59510000Y-99090000D01*
X60010000Y-99090000D01*
X60010000Y-99690000D01*
G37*
%TD.AperFunction*%
%TD*%
D11*
%TO.P,TP209,1,1*%
%TO.N,VBUS*%
X104115000Y-70795000D03*
%TD*%
%TO.P,TP207,1,1*%
%TO.N,+3.3V*%
X104115000Y-67295000D03*
%TD*%
%TO.P,TP205,1,1*%
%TO.N,Net-(J202-Pin_1)*%
X104115000Y-63795000D03*
%TD*%
%TO.P,TP204,1,1*%
%TO.N,Net-(J202-Pin_2)*%
X104115000Y-60295000D03*
%TD*%
%TO.P,TP203,1,1*%
%TO.N,/CPU/Vbatt*%
X104115000Y-56795000D03*
%TD*%
D12*
%TO.P,TP202,1,1*%
%TO.N,+5V*%
X115855000Y-67985000D03*
%TD*%
D13*
%TO.P,R106,1*%
%TO.N,Net-(J101-Pin_10)*%
X108405000Y-85945000D03*
%TO.P,R106,2*%
%TO.N,MTDI*%
X109905000Y-85945000D03*
%TD*%
%TO.P,R105,1*%
%TO.N,Net-(J101-Pin_9)*%
X108405000Y-83545000D03*
%TO.P,R105,2*%
%TO.N,MTDO*%
X109905000Y-83545000D03*
%TD*%
D14*
%TO.P,Q202,1,D*%
%TO.N,VBUS*%
X110972500Y-67935000D03*
%TO.P,Q202,2,G*%
%TO.N,Net-(D201-A1)*%
X110972500Y-69835000D03*
%TO.P,Q202,3,S*%
%TO.N,Net-(J202-Pin_2)*%
X112847500Y-68885000D03*
%TD*%
%TO.P,Q101,1,D*%
%TO.N,GND*%
X103872500Y-83795000D03*
%TO.P,Q101,2,G*%
%TO.N,BUTTON_LIGHT*%
X103872500Y-85695000D03*
%TO.P,Q101,3,S*%
%TO.N,Net-(Q101-S)*%
X105747500Y-84745000D03*
%TD*%
D15*
%TO.P,L202,1*%
%TO.N,VBUS*%
X106840000Y-67495000D03*
%TO.P,L202,2*%
%TO.N,Net-(U204-SW)*%
X108490000Y-67495000D03*
%TD*%
%TO.P,L201,1*%
%TO.N,VBUS*%
X106840000Y-64395000D03*
%TO.P,L201,2*%
%TO.N,Net-(U201-SW)*%
X108490000Y-64395000D03*
%TD*%
D16*
%TO.P,J202,1,Pin_1*%
%TO.N,Net-(J202-Pin_1)*%
X111285000Y-64665000D03*
D17*
%TO.P,J202,2,Pin_2*%
%TO.N,Net-(J202-Pin_2)*%
X113825000Y-64665000D03*
%TD*%
D18*
%TO.P,J201,1,Pin_1*%
%TO.N,GND*%
X109340000Y-58420000D03*
D19*
%TO.P,J201,2,Pin_2*%
%TO.N,Net-(D201-A1)*%
X111840000Y-58420000D03*
%TO.P,J201,3,Pin_3*%
%TO.N,VBUS*%
X114340000Y-58420000D03*
%TO.P,J201,4,Pin_4*%
%TO.N,Enable*%
X116840000Y-58420000D03*
%TD*%
D18*
%TO.P,J103,1,Pin_1*%
%TO.N,Net-(J103-Pin_1)*%
X105840000Y-77920000D03*
D19*
%TO.P,J103,2,Pin_2*%
%TO.N,+3.3V*%
X108340000Y-77920000D03*
%TO.P,J103,3,Pin_3*%
%TO.N,Net-(J103-Pin_3)*%
X110840000Y-77920000D03*
%TO.P,J103,4*%
%TO.N,N/C*%
X113340000Y-77920000D03*
%TD*%
D20*
%TO.P,D206,1,K*%
%TO.N,GND*%
X41655000Y-131605000D03*
%TO.P,D206,2,A*%
%TO.N,Net-(D206-A)*%
X43555000Y-131605000D03*
%TD*%
%TO.P,D205,1,K*%
%TO.N,GND*%
X41655000Y-128705000D03*
%TO.P,D205,2,A*%
%TO.N,Net-(D205-A)*%
X43555000Y-128705000D03*
%TD*%
%TO.P,D203,1,K*%
%TO.N,Net-(D203-K)*%
X90447000Y-53948000D03*
%TO.P,D203,2,A*%
%TO.N,Net-(D203-A)*%
X92347000Y-53948000D03*
%TD*%
D13*
%TO.P,D202,1,K*%
%TO.N,Net-(D202-K)*%
X90647000Y-51358000D03*
%TO.P,D202,2,A*%
%TO.N,Net-(D202-A)*%
X92147000Y-51358000D03*
%TD*%
D20*
%TO.P,D103,1,K*%
%TO.N,Net-(D103-K)*%
X33332000Y-47413000D03*
%TO.P,D103,2,A*%
%TO.N,Net-(D103-A)*%
X35232000Y-47413000D03*
%TD*%
%TO.P,D102,1,K*%
%TO.N,Net-(D102-K)*%
X41025000Y-107545000D03*
%TO.P,D102,2,A*%
%TO.N,Net-(D102-A)*%
X42925000Y-107545000D03*
%TD*%
%TO.P,D101,1,K*%
%TO.N,Net-(D101-K)*%
X41025000Y-100925000D03*
%TO.P,D101,2,A*%
%TO.N,Net-(D101-A)*%
X42925000Y-100925000D03*
%TD*%
D13*
%TO.P,R116,1*%
%TO.N,+3.3V*%
X79780000Y-32740000D03*
%TO.P,R116,2*%
%TO.N,Net-(D103-A)*%
X81280000Y-32740000D03*
%TD*%
%TO.P,R115,1*%
%TO.N,+3.3V*%
X79780000Y-30340000D03*
%TO.P,R115,2*%
%TO.N,Net-(D102-A)*%
X81280000Y-30340000D03*
%TD*%
%TO.P,R114,1*%
%TO.N,+3.3V*%
X79780000Y-27940000D03*
%TO.P,R114,2*%
%TO.N,Net-(D101-A)*%
X81280000Y-27940000D03*
%TD*%
D21*
%TO.P,J105,1,Pin_1*%
%TO.N,/CPU/SDA*%
X51815000Y-109035000D03*
D22*
%TO.P,J105,2,Pin_2*%
%TO.N,/CPU/SCL*%
X51815000Y-111575000D03*
%TO.P,J105,3,Pin_3*%
%TO.N,+5V*%
X51815000Y-114115000D03*
%TO.P,J105,4,Pin_4*%
%TO.N,GND*%
X51815000Y-116655000D03*
%TD*%
D18*
%TO.P,J102,1,Pin_1*%
%TO.N,GND*%
X82105000Y-22315000D03*
D19*
%TO.P,J102,2,Pin_2*%
%TO.N,Net-(D101-K)*%
X84605000Y-22315000D03*
%TO.P,J102,3,Pin_3*%
%TO.N,Net-(D102-K)*%
X87105000Y-22315000D03*
%TO.P,J102,4,Pin_4*%
%TO.N,Net-(D103-K)*%
X89605000Y-22315000D03*
%TD*%
D23*
%TO.P,D106,1,VDD*%
%TO.N,+3.3V*%
X71970000Y-33840000D03*
%TO.P,D106,2,DOUT*%
%TO.N,unconnected-(D106-DOUT-Pad2)*%
X71970000Y-37140000D03*
%TO.P,D106,3,VSS*%
%TO.N,GND*%
X76870000Y-37140000D03*
%TO.P,D106,4,DIN*%
%TO.N,Net-(D105-DOUT)*%
X76870000Y-33840000D03*
%TD*%
%TO.P,D105,1,VDD*%
%TO.N,+3.3V*%
X71970000Y-27220000D03*
%TO.P,D105,2,DOUT*%
%TO.N,Net-(D105-DOUT)*%
X71970000Y-30520000D03*
%TO.P,D105,3,VSS*%
%TO.N,GND*%
X76870000Y-30520000D03*
%TO.P,D105,4,DIN*%
%TO.N,Net-(D104-DOUT)*%
X76870000Y-27220000D03*
%TD*%
%TO.P,D104,1,VDD*%
%TO.N,+3.3V*%
X71970000Y-20600000D03*
%TO.P,D104,2,DOUT*%
%TO.N,Net-(D104-DOUT)*%
X71970000Y-23900000D03*
%TO.P,D104,3,VSS*%
%TO.N,GND*%
X76870000Y-23900000D03*
%TO.P,D104,4,DIN*%
%TO.N,LEDS*%
X76870000Y-20600000D03*
%TD*%
D24*
%TO.P,U301,1,GND*%
%TO.N,GND*%
X50040000Y-115380000D03*
%TO.P,U301,2,GND*%
X50040000Y-117380000D03*
%TO.P,U301,3,VDD*%
%TO.N,+3.3V*%
X50040000Y-119380000D03*
%TO.P,U301,4,~{RESET}*%
%TO.N,/CPU/RADIO_5*%
X50040000Y-121380000D03*
%TO.P,U301,5,DIO0*%
%TO.N,unconnected-(U301-DIO0-Pad5)*%
X50040000Y-123380000D03*
%TO.P,U301,6,DIO1*%
%TO.N,unconnected-(U301-DIO1-Pad6)*%
X50040000Y-125380000D03*
%TO.P,U301,7,DIO2*%
%TO.N,unconnected-(U301-DIO2-Pad7)*%
X50040000Y-127380000D03*
%TO.P,U301,8,DIO3*%
%TO.N,unconnected-(U301-DIO3-Pad8)*%
X50040000Y-129380000D03*
%TO.P,U301,9,GND*%
%TO.N,GND*%
X66040000Y-129380000D03*
%TO.P,U301,10,DIO4*%
%TO.N,unconnected-(U301-DIO4-Pad10)*%
X66040000Y-127380000D03*
%TO.P,U301,11,DIO5*%
%TO.N,unconnected-(U301-DIO5-Pad11)*%
X66040000Y-125380000D03*
%TO.P,U301,12,SCK*%
%TO.N,/CPU/RADIO_3*%
X66040000Y-123380000D03*
%TO.P,U301,13,MISO*%
%TO.N,/CPU/RADIO_2*%
X66040000Y-121380000D03*
%TO.P,U301,14,MOSI*%
%TO.N,/CPU/RADIO_1*%
X66040000Y-119380000D03*
%TO.P,U301,15,~{NSS}*%
%TO.N,/CPU/RADIO_4*%
X66040000Y-117380000D03*
%TO.P,U301,16,GND*%
%TO.N,GND*%
X66040000Y-115380000D03*
%TD*%
D25*
%TO.P,U204,1,SW*%
%TO.N,Net-(U204-SW)*%
X42552500Y-123555000D03*
%TO.P,U204,2,GND*%
%TO.N,Net-(U204-GND)*%
X42552500Y-124505000D03*
%TO.P,U204,3,FB*%
%TO.N,Net-(U204-FB)*%
X42552500Y-125455000D03*
%TO.P,U204,4,EN*%
%TO.N,Enable*%
X44827500Y-125455000D03*
%TO.P,U204,5,VOUT*%
%TO.N,+3.3V*%
X44827500Y-124505000D03*
%TO.P,U204,6,VI*%
%TO.N,VBUS*%
X44827500Y-123555000D03*
%TD*%
%TO.P,U203,1,OD*%
%TO.N,Net-(Q201-G1)*%
X42552500Y-118930000D03*
%TO.P,U203,2,CS*%
%TO.N,Net-(U203-CS)*%
X42552500Y-119880000D03*
%TO.P,U203,3,OC*%
%TO.N,Net-(Q201-G2)*%
X42552500Y-120830000D03*
%TO.P,U203,4,TD*%
%TO.N,unconnected-(U203-TD-Pad4)*%
X44827500Y-120830000D03*
%TO.P,U203,5,VCC*%
%TO.N,Net-(U203-VCC)*%
X44827500Y-119880000D03*
%TO.P,U203,6,GND*%
%TO.N,Net-(J202-Pin_1)*%
X44827500Y-118930000D03*
%TD*%
D26*
%TO.P,U202,1,TEMP*%
%TO.N,GND*%
X24840000Y-128740000D03*
%TO.P,U202,2,PROG*%
%TO.N,Net-(U202-PROG)*%
X24840000Y-130010000D03*
%TO.P,U202,3,GND*%
%TO.N,GND*%
X24840000Y-131280000D03*
%TO.P,U202,4,Vcc*%
%TO.N,Net-(D201-A1)*%
X24840000Y-132550000D03*
%TO.P,U202,5,BAT*%
%TO.N,Net-(J202-Pin_2)*%
X30240000Y-132550000D03*
%TO.P,U202,6,~{STDBY}*%
%TO.N,Net-(D203-K)*%
X30240000Y-131280000D03*
%TO.P,U202,7,~{CHRG}*%
%TO.N,Net-(D202-K)*%
X30240000Y-130010000D03*
%TO.P,U202,8,CE*%
%TO.N,Net-(D201-A1)*%
X30240000Y-128740000D03*
D27*
%TO.P,U202,9*%
%TO.N,N/C*%
X26865000Y-129745000D03*
X26865000Y-131545000D03*
X28215000Y-129745000D03*
X28215000Y-131545000D03*
%TD*%
D25*
%TO.P,U201,1,SW*%
%TO.N,Net-(U201-SW)*%
X42552500Y-114305000D03*
%TO.P,U201,2,GND*%
%TO.N,Net-(U201-GND)*%
X42552500Y-115255000D03*
%TO.P,U201,3,FB*%
%TO.N,Net-(U201-FB)*%
X42552500Y-116205000D03*
%TO.P,U201,4,EN*%
%TO.N,Enable*%
X44827500Y-116205000D03*
%TO.P,U201,5,VOUT*%
%TO.N,+5V*%
X44827500Y-115255000D03*
%TO.P,U201,6,VI*%
%TO.N,VBUS*%
X44827500Y-114305000D03*
%TD*%
D28*
%TO.P,U104,1,VCC*%
%TO.N,+3.3V*%
X63760000Y-107045000D03*
%TO.P,U104,2*%
%TO.N,N/C*%
X63760000Y-107695000D03*
%TO.P,U104,3,EN*%
%TO.N,+3.3V*%
X63760000Y-108345000D03*
%TO.P,U104,4,BUS2*%
%TO.N,/CPU/SCL*%
X65960000Y-108345000D03*
%TO.P,U104,5*%
%TO.N,N/C*%
X65960000Y-107695000D03*
%TO.P,U104,6,BUS1*%
%TO.N,/CPU/SDA*%
X65960000Y-107045000D03*
%TD*%
D25*
%TO.P,U103,1,I/O1*%
%TO.N,Net-(J104-Pin_2)*%
X47209500Y-28628000D03*
%TO.P,U103,2,GND*%
%TO.N,GND*%
X47209500Y-29578000D03*
%TO.P,U103,3,I/O2*%
%TO.N,Net-(J104-Pin_1)*%
X47209500Y-30528000D03*
%TO.P,U103,4,I/O3*%
%TO.N,/CPU/SDA*%
X49484500Y-30528000D03*
%TO.P,U103,5,VBUS*%
%TO.N,+3.3V*%
X49484500Y-29578000D03*
%TO.P,U103,6,I/O4*%
%TO.N,/CPU/SCL*%
X49484500Y-28628000D03*
%TD*%
%TO.P,U102,1,I/O1*%
%TO.N,BUTTON3*%
X59022500Y-107145000D03*
%TO.P,U102,2,GND*%
%TO.N,GND*%
X59022500Y-108095000D03*
%TO.P,U102,3,I/O2*%
%TO.N,BUTTON2*%
X59022500Y-109045000D03*
%TO.P,U102,4,I/O3*%
%TO.N,BUTTON1*%
X61297500Y-109045000D03*
%TO.P,U102,5,VBUS*%
%TO.N,+3.3V*%
X61297500Y-108095000D03*
%TO.P,U102,6,I/O4*%
%TO.N,BUTTON*%
X61297500Y-107145000D03*
%TD*%
D29*
%TO.P,U101,1,GND*%
%TO.N,GND*%
X36333000Y-91840000D03*
%TO.P,U101,2,VDD*%
%TO.N,+3.3V*%
X37603000Y-91840000D03*
%TO.P,U101,3,CHIP_PU/EN*%
%TO.N,EN*%
X38873000Y-91840000D03*
%TO.P,U101,4,GPIO36*%
%TO.N,BUTTON3*%
X40143000Y-91840000D03*
%TO.P,U101,5,GPIO39*%
%TO.N,/CPU/Vbatt*%
X41413000Y-91840000D03*
%TO.P,U101,6,GPIO34*%
%TO.N,BUTTON1*%
X42683000Y-91840000D03*
%TO.P,U101,7,GPIO35*%
%TO.N,BUTTON2*%
X43953000Y-91840000D03*
%TO.P,U101,8,GPIO32*%
%TO.N,unconnected-(U101-GPIO32-Pad8)*%
X45223000Y-91840000D03*
%TO.P,U101,9,GPIO33*%
%TO.N,BUTTON*%
X46493000Y-91840000D03*
%TO.P,U101,10,GPIO25*%
%TO.N,BUTTON_LIGHT*%
X47763000Y-91840000D03*
%TO.P,U101,11,GPIO26*%
%TO.N,LEDS*%
X49033000Y-91840000D03*
%TO.P,U101,12,GPIO27*%
%TO.N,unconnected-(U101-GPIO27-Pad12)*%
X50303000Y-91840000D03*
%TO.P,U101,13,MTMS/SCK/CLK/GPIO14*%
%TO.N,MTMS*%
X51573000Y-91840000D03*
%TO.P,U101,14,MTDI/MISO/D2/GPIO12*%
%TO.N,MTDI*%
X52843000Y-91840000D03*
D30*
%TO.P,U101,15,GND*%
%TO.N,GND*%
X54093000Y-88805000D03*
%TO.P,U101,16,MTCK/MOSI/D3/GPIO13*%
%TO.N,MTCK*%
X54093000Y-87535000D03*
%TO.P,U101,17,NC*%
%TO.N,unconnected-(U101-NC-Pad17)*%
X54093000Y-86265000D03*
%TO.P,U101,18,NC*%
%TO.N,unconnected-(U101-NC-Pad18)*%
X54093000Y-84995000D03*
%TO.P,U101,19,NC*%
%TO.N,unconnected-(U101-NC-Pad19)*%
X54093000Y-83725000D03*
%TO.P,U101,20,NC*%
%TO.N,unconnected-(U101-NC-Pad20)*%
X54093000Y-82455000D03*
%TO.P,U101,21,NC*%
%TO.N,unconnected-(U101-NC-Pad21)*%
X54093000Y-81185000D03*
%TO.P,U101,22,NC*%
%TO.N,unconnected-(U101-NC-Pad22)*%
X54093000Y-79915000D03*
%TO.P,U101,23,MTDO/CS/CMD/GPIO15*%
%TO.N,MTDO*%
X54093000Y-78645000D03*
%TO.P,U101,24,D0/GPIO2*%
%TO.N,/CPU/RADIO_5*%
X54093000Y-77375000D03*
D29*
%TO.P,U101,25,BOOT/GPIO0*%
%TO.N,DR0*%
X52843000Y-74340000D03*
%TO.P,U101,26,D1/GPIO4*%
%TO.N,unconnected-(U101-D1{slash}GPIO4-Pad26)*%
X51573000Y-74340000D03*
%TO.P,U101,27,RXD/GPIO16*%
%TO.N,Net-(J104-Pin_2)*%
X50303000Y-74340000D03*
%TO.P,U101,28,TXD/GPIO17*%
%TO.N,Net-(J104-Pin_1)*%
X49033000Y-74340000D03*
%TO.P,U101,29,CS/GPIO5*%
%TO.N,/CPU/RADIO_4*%
X47763000Y-74340000D03*
%TO.P,U101,30,SCK/GPIO18*%
%TO.N,/CPU/RADIO_3*%
X46493000Y-74340000D03*
%TO.P,U101,31,MISO/GPIO19*%
%TO.N,/CPU/RADIO_2*%
X45223000Y-74340000D03*
%TO.P,U101,32,NC*%
%TO.N,unconnected-(U101-NC-Pad32)*%
X43953000Y-74340000D03*
%TO.P,U101,33,SDA/GPIO21*%
%TO.N,/CPU/SDA*%
X42683000Y-74340000D03*
%TO.P,U101,34,RXD/GPIO3*%
%TO.N,RX*%
X41413000Y-74340000D03*
%TO.P,U101,35,TXD/GPIO1*%
%TO.N,TX*%
X40143000Y-74340000D03*
%TO.P,U101,36,SCL/GPIO22*%
%TO.N,/CPU/SCL*%
X38873000Y-74340000D03*
%TO.P,U101,37,MOSI/GPIO23*%
%TO.N,/CPU/RADIO_1*%
X37603000Y-74340000D03*
%TO.P,U101,38,GND*%
%TO.N,GND*%
X36333000Y-74340000D03*
D31*
%TO.P,U101,39,GND*%
X43678000Y-83950000D03*
%TD*%
D32*
%TO.P,TP402,1,1*%
%TO.N,unconnected-(TP402-Pad1)*%
X77707000Y-79971000D03*
%TO.P,TP402,2*%
%TO.N,N/C*%
X80247000Y-79971000D03*
%TO.P,TP402,3*%
X82787000Y-79971000D03*
%TO.P,TP402,4*%
X85327000Y-79971000D03*
%TO.P,TP402,5*%
X77707000Y-82511000D03*
%TO.P,TP402,6*%
X80247000Y-82511000D03*
%TO.P,TP402,7*%
X82787000Y-82511000D03*
%TO.P,TP402,8*%
X85327000Y-82511000D03*
%TO.P,TP402,9*%
X77707000Y-85051000D03*
%TO.P,TP402,10*%
X80247000Y-85051000D03*
%TO.P,TP402,11*%
X82787000Y-85051000D03*
%TO.P,TP402,12*%
X85327000Y-85051000D03*
%TO.P,TP402,13*%
X77707000Y-87591000D03*
%TO.P,TP402,14*%
X80247000Y-87591000D03*
%TO.P,TP402,15*%
X82787000Y-87591000D03*
%TO.P,TP402,16*%
X85327000Y-87591000D03*
%TD*%
%TO.P,TP401,1,1*%
%TO.N,unconnected-(TP401-Pad1)*%
X77707000Y-69827000D03*
%TO.P,TP401,2*%
%TO.N,N/C*%
X80247000Y-69827000D03*
%TO.P,TP401,3*%
X82787000Y-69827000D03*
%TO.P,TP401,4*%
X85327000Y-69827000D03*
%TO.P,TP401,5*%
X77707000Y-72367000D03*
%TO.P,TP401,6*%
X80247000Y-72367000D03*
%TO.P,TP401,7*%
X82787000Y-72367000D03*
%TO.P,TP401,8*%
X85327000Y-72367000D03*
%TO.P,TP401,9*%
X77707000Y-74907000D03*
%TO.P,TP401,10*%
X80247000Y-74907000D03*
%TO.P,TP401,11*%
X82787000Y-74907000D03*
%TO.P,TP401,12*%
X85327000Y-74907000D03*
%TO.P,TP401,13*%
X77707000Y-77447000D03*
%TO.P,TP401,14*%
X80247000Y-77447000D03*
%TO.P,TP401,15*%
X82787000Y-77447000D03*
%TO.P,TP401,16*%
X85327000Y-77447000D03*
%TD*%
D12*
%TO.P,TP208,1,1*%
%TO.N,GND*%
X41655000Y-134555000D03*
%TD*%
D13*
%TO.P,R216,1*%
%TO.N,Net-(D206-A)*%
X32065000Y-118855000D03*
%TO.P,R216,2*%
%TO.N,+3.3V*%
X33565000Y-118855000D03*
%TD*%
%TO.P,R215,1*%
%TO.N,+5V*%
X32065000Y-116455000D03*
%TO.P,R215,2*%
%TO.N,Net-(D205-A)*%
X33565000Y-116455000D03*
%TD*%
%TO.P,R214,1*%
%TO.N,Net-(D201-A1)*%
X32065000Y-114055000D03*
%TO.P,R214,2*%
%TO.N,GND*%
X33565000Y-114055000D03*
%TD*%
%TO.P,R211,1*%
%TO.N,Net-(U203-VCC)*%
X28265000Y-126055000D03*
%TO.P,R211,2*%
%TO.N,Net-(J202-Pin_2)*%
X29765000Y-126055000D03*
%TD*%
%TO.P,R209,1*%
%TO.N,Net-(U203-CS)*%
X28265000Y-123655000D03*
%TO.P,R209,2*%
%TO.N,GND*%
X29765000Y-123655000D03*
%TD*%
%TO.P,R208,1*%
%TO.N,Net-(U202-PROG)*%
X28265000Y-121255000D03*
%TO.P,R208,2*%
%TO.N,GND*%
X29765000Y-121255000D03*
%TD*%
%TO.P,R205,1*%
%TO.N,/CPU/Vbatt*%
X28265000Y-118855000D03*
%TO.P,R205,2*%
%TO.N,GND*%
X29765000Y-118855000D03*
%TD*%
%TO.P,R204,1*%
%TO.N,Enable*%
X28265000Y-116455000D03*
%TO.P,R204,2*%
%TO.N,/CPU/Vbatt*%
X29765000Y-116455000D03*
%TD*%
%TO.P,R201,1*%
%TO.N,Net-(D201-A1)*%
X28265000Y-114055000D03*
%TO.P,R201,2*%
%TO.N,Net-(D202-A)*%
X29765000Y-114055000D03*
%TD*%
%TO.P,R113,1*%
%TO.N,Net-(Q101-S)*%
X54935000Y-106015000D03*
%TO.P,R113,2*%
%TO.N,Net-(J103-Pin_1)*%
X56435000Y-106015000D03*
%TD*%
%TO.P,R112,1*%
%TO.N,BUTTON*%
X54935000Y-103615000D03*
%TO.P,R112,2*%
%TO.N,Net-(J103-Pin_3)*%
X56435000Y-103615000D03*
%TD*%
%TO.P,R111,1*%
%TO.N,+3.3V*%
X54935000Y-101215000D03*
%TO.P,R111,2*%
%TO.N,/CPU/SCL*%
X56435000Y-101215000D03*
%TD*%
%TO.P,R108,1*%
%TO.N,BUTTON3*%
X54935000Y-98815000D03*
%TO.P,R108,2*%
%TO.N,Net-(D103-K)*%
X56435000Y-98815000D03*
%TD*%
%TO.P,R107,1*%
%TO.N,+3.3V*%
X51135000Y-106015000D03*
%TO.P,R107,2*%
%TO.N,/CPU/SDA*%
X52635000Y-106015000D03*
%TD*%
%TO.P,R102,1*%
%TO.N,+3.3V*%
X51135000Y-103615000D03*
%TO.P,R102,2*%
%TO.N,EN*%
X52635000Y-103615000D03*
%TD*%
%TO.P,R101,1*%
%TO.N,+3.3V*%
X51135000Y-101215000D03*
%TO.P,R101,2*%
%TO.N,DR0*%
X52635000Y-101215000D03*
%TD*%
D33*
%TO.P,JP101,1,A*%
%TO.N,+5V*%
X59110000Y-99390000D03*
D34*
%TO.P,JP101,2,C*%
%TO.N,/CPU/Vgps*%
X60410000Y-99390000D03*
D35*
%TO.P,JP101,3,B*%
%TO.N,+3.3V*%
X61710000Y-99390000D03*
%TD*%
D18*
%TO.P,J104,1,Pin_1*%
%TO.N,Net-(J104-Pin_1)*%
X26790000Y-100990000D03*
D19*
%TO.P,J104,2,Pin_2*%
%TO.N,Net-(J104-Pin_2)*%
X29290000Y-100990000D03*
%TO.P,J104,3,Pin_3*%
%TO.N,/CPU/Vgps*%
X31790000Y-100990000D03*
%TO.P,J104,4,Pin_4*%
%TO.N,GND*%
X34290000Y-100990000D03*
%TD*%
D36*
%TO.P,J101,1,Pin_1*%
%TO.N,EN*%
X61105000Y-74690000D03*
D17*
%TO.P,J101,2,Pin_2*%
%TO.N,+3.3V*%
X63645000Y-74690000D03*
%TO.P,J101,3,Pin_3*%
%TO.N,TX*%
X61105000Y-77230000D03*
%TO.P,J101,4,Pin_4*%
%TO.N,GND*%
X63645000Y-77230000D03*
%TO.P,J101,5,Pin_5*%
%TO.N,RX*%
X61105000Y-79770000D03*
%TO.P,J101,6,Pin_6*%
%TO.N,DR0*%
X63645000Y-79770000D03*
%TO.P,J101,7,Pin_7*%
%TO.N,Net-(J101-Pin_7)*%
X61105000Y-82310000D03*
%TO.P,J101,8,Pin_8*%
%TO.N,Net-(J101-Pin_8)*%
X63645000Y-82310000D03*
%TO.P,J101,9,Pin_9*%
%TO.N,Net-(J101-Pin_9)*%
X61105000Y-84850000D03*
%TO.P,J101,10,Pin_10*%
%TO.N,Net-(J101-Pin_10)*%
X63645000Y-84850000D03*
%TD*%
D37*
%TO.P,D204,1,K*%
%TO.N,VBUS*%
X33835000Y-135080000D03*
%TO.P,D204,2,A*%
%TO.N,Net-(D201-A1)*%
X37835000Y-135080000D03*
%TD*%
D38*
%TO.P,D201,1,A1*%
%TO.N,Net-(D201-A1)*%
X33835000Y-130030000D03*
%TO.P,D201,2,A2*%
%TO.N,GND*%
X38135000Y-130030000D03*
%TD*%
D13*
%TO.P,C303,1*%
%TO.N,+3.3V*%
X68965000Y-122555000D03*
%TO.P,C303,2*%
%TO.N,GND*%
X70465000Y-122555000D03*
%TD*%
D39*
%TO.P,C302,1*%
%TO.N,+3.3V*%
X69165000Y-119230000D03*
%TO.P,C302,2*%
%TO.N,GND*%
X72115000Y-119230000D03*
%TD*%
%TO.P,C301,1*%
%TO.N,+3.3V*%
X69165000Y-114980000D03*
%TO.P,C301,2*%
%TO.N,GND*%
X72115000Y-114980000D03*
%TD*%
D40*
%TO.P,C210,1*%
%TO.N,VBUS*%
X36215000Y-124055000D03*
%TO.P,C210,2*%
%TO.N,GND*%
X39615000Y-124055000D03*
%TD*%
D13*
%TO.P,C209,1*%
%TO.N,VBUS*%
X24465000Y-126055000D03*
%TO.P,C209,2*%
%TO.N,GND*%
X25965000Y-126055000D03*
%TD*%
D40*
%TO.P,C208,1*%
%TO.N,+3.3V*%
X36215000Y-120855000D03*
%TO.P,C208,2*%
%TO.N,Net-(U204-GND)*%
X39615000Y-120855000D03*
%TD*%
%TO.P,C207,1*%
%TO.N,Net-(J202-Pin_2)*%
X36215000Y-117655000D03*
%TO.P,C207,2*%
%TO.N,GND*%
X39615000Y-117655000D03*
%TD*%
D13*
%TO.P,C206,1*%
%TO.N,Net-(U203-VCC)*%
X24465000Y-123655000D03*
%TO.P,C206,2*%
%TO.N,Net-(J202-Pin_1)*%
X25965000Y-123655000D03*
%TD*%
%TO.P,C205,1*%
%TO.N,VBUS*%
X24465000Y-121255000D03*
%TO.P,C205,2*%
%TO.N,Net-(U204-GND)*%
X25965000Y-121255000D03*
%TD*%
D40*
%TO.P,C204,1*%
%TO.N,+5V*%
X36215000Y-114455000D03*
%TO.P,C204,2*%
%TO.N,Net-(U201-GND)*%
X39615000Y-114455000D03*
%TD*%
D13*
%TO.P,C203,1*%
%TO.N,/CPU/Vbatt*%
X24465000Y-118855000D03*
%TO.P,C203,2*%
%TO.N,GND*%
X25965000Y-118855000D03*
%TD*%
%TO.P,C202,1*%
%TO.N,Net-(D201-A1)*%
X24465000Y-116455000D03*
%TO.P,C202,2*%
%TO.N,GND*%
X25965000Y-116455000D03*
%TD*%
%TO.P,C201,1*%
%TO.N,VBUS*%
X24465000Y-114055000D03*
%TO.P,C201,2*%
%TO.N,Net-(U201-GND)*%
X25965000Y-114055000D03*
%TD*%
%TO.P,C114,1*%
%TO.N,+3.3V*%
X51135000Y-98815000D03*
%TO.P,C114,2*%
%TO.N,GND*%
X52635000Y-98815000D03*
%TD*%
%TO.P,C113,1*%
%TO.N,BUTTON*%
X47335000Y-106015000D03*
%TO.P,C113,2*%
%TO.N,GND*%
X48835000Y-106015000D03*
%TD*%
%TO.P,C107,1*%
%TO.N,+3.3V*%
X66417000Y-57678000D03*
%TO.P,C107,2*%
%TO.N,GND*%
X67917000Y-57678000D03*
%TD*%
%TO.P,C106,1*%
%TO.N,+3.3V*%
X66417000Y-53428000D03*
%TO.P,C106,2*%
%TO.N,GND*%
X67917000Y-53428000D03*
%TD*%
%TO.P,C105,1*%
%TO.N,+3.3V*%
X47335000Y-103615000D03*
%TO.P,C105,2*%
%TO.N,GND*%
X48835000Y-103615000D03*
%TD*%
%TO.P,C104,1*%
%TO.N,+3.3V*%
X47335000Y-101215000D03*
%TO.P,C104,2*%
%TO.N,GND*%
X48835000Y-101215000D03*
%TD*%
D39*
%TO.P,C103,1*%
%TO.N,+3.3V*%
X53367000Y-50103000D03*
%TO.P,C103,2*%
%TO.N,GND*%
X56317000Y-50103000D03*
%TD*%
%TO.P,C102,1*%
%TO.N,+3.3V*%
X58935000Y-103570000D03*
%TO.P,C102,2*%
%TO.N,GND*%
X61885000Y-103570000D03*
%TD*%
D13*
%TO.P,C101,1*%
%TO.N,EN*%
X47335000Y-98815000D03*
%TO.P,C101,2*%
%TO.N,GND*%
X48835000Y-98815000D03*
%TD*%
%TO.P,C108,1*%
%TO.N,+3.3V*%
X54092000Y-52503000D03*
%TO.P,C108,2*%
%TO.N,GND*%
X55592000Y-52503000D03*
%TD*%
%TO.P,C109,1*%
%TO.N,+3.3V*%
X54092000Y-54903000D03*
%TO.P,C109,2*%
%TO.N,GND*%
X55592000Y-54903000D03*
%TD*%
%TO.P,R110,1*%
%TO.N,BUTTON1*%
X61692000Y-50103000D03*
%TO.P,R110,2*%
%TO.N,Net-(D101-K)*%
X63192000Y-50103000D03*
%TD*%
D21*
%TO.P,SW102,1,1*%
%TO.N,GND*%
X71317000Y-46428000D03*
D22*
%TO.P,SW102,2,2*%
%TO.N,EN*%
X71317000Y-48968000D03*
%TD*%
D13*
%TO.P,C111,1*%
%TO.N,BUTTON2*%
X57892000Y-45303000D03*
%TO.P,C111,2*%
%TO.N,GND*%
X59392000Y-45303000D03*
%TD*%
%TO.P,R109,1*%
%TO.N,BUTTON2*%
X61692000Y-47703000D03*
%TO.P,R109,2*%
%TO.N,Net-(D102-K)*%
X63192000Y-47703000D03*
%TD*%
D12*
%TO.P,TP201,1,1*%
%TO.N,GND*%
X90852000Y-56743000D03*
%TD*%
D13*
%TO.P,R203,1*%
%TO.N,Net-(D203-A)*%
X81552000Y-60863000D03*
%TO.P,R203,2*%
%TO.N,+3.3V*%
X83052000Y-60863000D03*
%TD*%
%TO.P,R104,1*%
%TO.N,Net-(J101-Pin_8)*%
X61692000Y-45303000D03*
%TO.P,R104,2*%
%TO.N,MTCK*%
X63192000Y-45303000D03*
%TD*%
D21*
%TO.P,SW101,1,1*%
%TO.N,GND*%
X66667000Y-46428000D03*
D22*
%TO.P,SW101,2,2*%
%TO.N,DR0*%
X66667000Y-48968000D03*
%TD*%
D13*
%TO.P,C110,1*%
%TO.N,BUTTON1*%
X54092000Y-57303000D03*
%TO.P,C110,2*%
%TO.N,GND*%
X55592000Y-57303000D03*
%TD*%
%TO.P,R103,1*%
%TO.N,Net-(J101-Pin_7)*%
X57892000Y-57303000D03*
%TO.P,R103,2*%
%TO.N,MTMS*%
X59392000Y-57303000D03*
%TD*%
%TO.P,R202,1*%
%TO.N,Net-(D203-A)*%
X81552000Y-58463000D03*
%TO.P,R202,2*%
%TO.N,Net-(D201-A1)*%
X83052000Y-58463000D03*
%TD*%
%TO.P,C112,1*%
%TO.N,BUTTON3*%
X57892000Y-47703000D03*
%TO.P,C112,2*%
%TO.N,GND*%
X59392000Y-47703000D03*
%TD*%
M02*
