%TF.GenerationSoftware,KiCad,Pcbnew,8.0.1*%
%TF.CreationDate,2024-06-10T15:39:53+02:00*%
%TF.ProjectId,Robuoy-Top,526f6275-6f79-42d5-946f-702e6b696361,rev?*%
%TF.SameCoordinates,Original*%
%TF.FileFunction,Copper,L3,Inr*%
%TF.FilePolarity,Positive*%
%FSLAX46Y46*%
G04 Gerber Fmt 4.6, Leading zero omitted, Abs format (unit mm)*
G04 Created by KiCad (PCBNEW 8.0.1) date 2024-06-10 15:39:53*
%MOMM*%
%LPD*%
G01*
G04 APERTURE LIST*
G04 Aperture macros list*
%AMRoundRect*
0 Rectangle with rounded corners*
0 $1 Rounding radius*
0 $2 $3 $4 $5 $6 $7 $8 $9 X,Y pos of 4 corners*
0 Add a 4 corners polygon primitive as box body*
4,1,4,$2,$3,$4,$5,$6,$7,$8,$9,$2,$3,0*
0 Add four circle primitives for the rounded corners*
1,1,$1+$1,$2,$3*
1,1,$1+$1,$4,$5*
1,1,$1+$1,$6,$7*
1,1,$1+$1,$8,$9*
0 Add four rect primitives between the rounded corners*
20,1,$1+$1,$2,$3,$4,$5,0*
20,1,$1+$1,$4,$5,$6,$7,0*
20,1,$1+$1,$6,$7,$8,$9,0*
20,1,$1+$1,$8,$9,$2,$3,0*%
G04 Aperture macros list end*
%TA.AperFunction,ComponentPad*%
%ADD10RoundRect,0.250000X-0.600000X-0.725000X0.600000X-0.725000X0.600000X0.725000X-0.600000X0.725000X0*%
%TD*%
%TA.AperFunction,ComponentPad*%
%ADD11O,1.700000X1.950000*%
%TD*%
%TA.AperFunction,ComponentPad*%
%ADD12RoundRect,0.250000X0.600000X0.725000X-0.600000X0.725000X-0.600000X-0.725000X0.600000X-0.725000X0*%
%TD*%
%TA.AperFunction,ComponentPad*%
%ADD13R,1.700000X1.700000*%
%TD*%
%TA.AperFunction,ComponentPad*%
%ADD14O,1.700000X1.700000*%
%TD*%
%TA.AperFunction,ComponentPad*%
%ADD15C,1.500000*%
%TD*%
%TA.AperFunction,ComponentPad*%
%ADD16C,3.500000*%
%TD*%
%TA.AperFunction,ComponentPad*%
%ADD17R,1.650000X1.650000*%
%TD*%
%TA.AperFunction,ComponentPad*%
%ADD18C,1.700000*%
%TD*%
%TA.AperFunction,ComponentPad*%
%ADD19RoundRect,0.206250X0.618750X0.618750X-0.618750X0.618750X-0.618750X-0.618750X0.618750X-0.618750X0*%
%TD*%
%TA.AperFunction,ComponentPad*%
%ADD20RoundRect,0.250000X-0.600000X-0.600000X0.600000X-0.600000X0.600000X0.600000X-0.600000X0.600000X0*%
%TD*%
%TA.AperFunction,ViaPad*%
%ADD21C,0.800000*%
%TD*%
%TA.AperFunction,ViaPad*%
%ADD22C,0.450000*%
%TD*%
%TA.AperFunction,ViaPad*%
%ADD23C,0.900000*%
%TD*%
G04 APERTURE END LIST*
D10*
%TO.N,Net-(J103-Pin_1)*%
%TO.C,J103*%
X40700000Y-109000000D03*
D11*
%TO.N,+3.3V*%
X43200000Y-109000000D03*
%TO.N,Net-(J103-Pin_3)*%
X45700000Y-109000000D03*
%TD*%
D12*
%TO.N,Net-(J104-Pin_1)*%
%TO.C,J104*%
X34230000Y-50055000D03*
D11*
%TO.N,Net-(J104-Pin_2)*%
X31730000Y-50055000D03*
%TO.N,/CPU/Vgps*%
X29230000Y-50055000D03*
%TO.N,GND*%
X26730000Y-50055000D03*
%TD*%
D13*
%TO.N,GND*%
%TO.C,SW102*%
X65024000Y-66548000D03*
D14*
%TO.N,EN*%
X62484000Y-66548000D03*
%TD*%
D15*
%TO.N,GND*%
%TO.C,TP208*%
X55626000Y-64770000D03*
%TD*%
D16*
%TO.N,VBUS*%
%TO.C,SW202*%
X59800000Y-95500000D03*
%TO.N,Enable*%
X64500000Y-95500000D03*
%TO.N,N/C*%
X69200000Y-95500000D03*
%TD*%
D12*
%TO.N,GND*%
%TO.C,J201*%
X48962000Y-50055000D03*
D11*
%TO.N,PAD*%
X46462000Y-50055000D03*
%TO.N,VBUS*%
X43962000Y-50055000D03*
%TO.N,Enable*%
X41462000Y-50055000D03*
%TD*%
D13*
%TO.N,GND*%
%TO.C,SW101*%
X65024000Y-71120000D03*
D14*
%TO.N,DR0*%
X62484000Y-71120000D03*
%TD*%
D15*
%TO.N,+5V*%
%TO.C,TP202*%
X27432000Y-54356000D03*
%TD*%
D17*
%TO.N,+5V*%
%TO.C,BZ101*%
X65800000Y-109000000D03*
D18*
%TO.N,Net-(BZ101--)*%
X65800000Y-102500000D03*
%TD*%
D13*
%TO.N,/CPU/SDA*%
%TO.C,J105*%
X25425000Y-59065000D03*
D14*
%TO.N,/CPU/SCL*%
X25425000Y-61605000D03*
%TO.N,+5V*%
X25425000Y-64145000D03*
%TO.N,GND*%
X25425000Y-66685000D03*
%TD*%
D19*
%TO.N,Net-(J202-Pin_1)*%
%TO.C,J202*%
X66802000Y-50800000D03*
D18*
%TO.N,Net-(J202-Pin_2)*%
X64262000Y-50800000D03*
%TD*%
D10*
%TO.N,GND*%
%TO.C,J102*%
X26035000Y-109000000D03*
D11*
%TO.N,Net-(D101-K)*%
X28535000Y-109000000D03*
%TO.N,Net-(D102-K)*%
X31035000Y-109000000D03*
%TO.N,Net-(D103-K)*%
X33535000Y-109000000D03*
%TD*%
D20*
%TO.N,EN*%
%TO.C,J101*%
X52587500Y-74930000D03*
D18*
%TO.N,+3.3V*%
X55127500Y-74930000D03*
%TO.N,TX*%
X52587500Y-77470000D03*
%TO.N,GND*%
X55127500Y-77470000D03*
%TO.N,RX*%
X52587500Y-80010000D03*
%TO.N,DR0*%
X55127500Y-80010000D03*
%TO.N,Net-(J101-Pin_7)*%
X52587500Y-82550000D03*
%TO.N,Net-(J101-Pin_8)*%
X55127500Y-82550000D03*
%TO.N,Net-(J101-Pin_9)*%
X52587500Y-85090000D03*
%TO.N,Net-(J101-Pin_10)*%
X55127500Y-85090000D03*
%TD*%
D21*
%TO.N,GND*%
X75600000Y-100200000D03*
D22*
X77000000Y-69000000D03*
D21*
X32562800Y-59817012D03*
D22*
X25000000Y-78000000D03*
X70000000Y-90000000D03*
D21*
X37338000Y-53111400D03*
X34366200Y-78562200D03*
D22*
X38000000Y-81000000D03*
X73000000Y-88000000D03*
X70000000Y-77000000D03*
X56400000Y-93600000D03*
X43611800Y-105562400D03*
X66000000Y-82000000D03*
D21*
X61112400Y-74447400D03*
X34798000Y-61214000D03*
D22*
X54025800Y-101854000D03*
X45000000Y-81000000D03*
X49000000Y-67000000D03*
X78000000Y-52000000D03*
X77000000Y-60000000D03*
X78000000Y-107000000D03*
X48006000Y-95758000D03*
D21*
X75800000Y-88700000D03*
D22*
X40894000Y-95758000D03*
D21*
X61088000Y-91338400D03*
X71882000Y-53594000D03*
D22*
X47752000Y-105486200D03*
D23*
X25298400Y-98780600D03*
D22*
X25000000Y-84000000D03*
X50800000Y-62992000D03*
D21*
X31978600Y-80848200D03*
X77089000Y-91160600D03*
X57912000Y-61976000D03*
X65024000Y-54356000D03*
D22*
X50000000Y-88000000D03*
D21*
X34391600Y-83185000D03*
D22*
X63000000Y-105000000D03*
X70000000Y-82000000D03*
X25000000Y-86000000D03*
D21*
X52992000Y-60104000D03*
X24765000Y-69926200D03*
X74422000Y-69088000D03*
D22*
X77100000Y-101900000D03*
X45085000Y-93776800D03*
X25000000Y-107000000D03*
X25000000Y-79000000D03*
X27279600Y-99364800D03*
X56000000Y-90000000D03*
X54000000Y-71000000D03*
X51260677Y-66475757D03*
X27000000Y-46000000D03*
D21*
X24765000Y-72618600D03*
D22*
X25000000Y-46000000D03*
X31115000Y-99364800D03*
X78000000Y-113000000D03*
X25000000Y-76000000D03*
X33782000Y-95758000D03*
X78000000Y-55000000D03*
X66900000Y-98400000D03*
D21*
X62788800Y-89814400D03*
D22*
X25000000Y-82000000D03*
D21*
X62788800Y-75819000D03*
D23*
X24739600Y-87299800D03*
D22*
X72000000Y-113000000D03*
X73000000Y-57000000D03*
D21*
X75600000Y-96700000D03*
D22*
X25000000Y-80000000D03*
X25000000Y-83000000D03*
D21*
X41148000Y-85699600D03*
D22*
X77000000Y-64000000D03*
D21*
X43865800Y-85725000D03*
X40132000Y-62738000D03*
D22*
X37973000Y-93751400D03*
X47000000Y-113000000D03*
X29210000Y-94894400D03*
X25000000Y-77000000D03*
D21*
X48514000Y-60960000D03*
X59436000Y-75844400D03*
D22*
X25000000Y-85000000D03*
X70000000Y-85000000D03*
D21*
X29819600Y-78562200D03*
D22*
X35864800Y-100203000D03*
X74000000Y-57000000D03*
X52000000Y-109000000D03*
X78000000Y-46000000D03*
X25000000Y-75000000D03*
X72101111Y-56965188D03*
D21*
X29819600Y-83159600D03*
X72898000Y-53594000D03*
D22*
X39624000Y-61976000D03*
X25000000Y-81000000D03*
D21*
X32512000Y-58420000D03*
D22*
X53000000Y-64000000D03*
X25000000Y-48000000D03*
X72000000Y-46000000D03*
D21*
X28879806Y-64719200D03*
D22*
X52197000Y-93827600D03*
X49000000Y-60000000D03*
D21*
X42550500Y-65399500D03*
D22*
X25000000Y-113000000D03*
X50943413Y-61056587D03*
X25000000Y-74000000D03*
X75100000Y-71800000D03*
X23876000Y-88773000D03*
X74600000Y-103300000D03*
%TO.N,+3.3V*%
X32105600Y-100965000D03*
D23*
X37896800Y-63398400D03*
D22*
X29260800Y-67322000D03*
X34672010Y-98425980D03*
D23*
X30861000Y-63398400D03*
X38862000Y-74422000D03*
X44196000Y-70866000D03*
X44196000Y-67309998D03*
D22*
X29747919Y-100957044D03*
X26263600Y-100965000D03*
%TO.N,BUTTON*%
X38684200Y-100355400D03*
X28270200Y-94843600D03*
%TO.N,EN*%
X41021000Y-74879200D03*
D21*
%TO.N,+5V*%
X37592000Y-58674000D03*
D23*
X21920200Y-97967800D03*
D22*
%TO.N,/CPU/SDA*%
X29845000Y-65049400D03*
D21*
%TO.N,Net-(J202-Pin_2)*%
X57912000Y-53086000D03*
D22*
%TO.N,Enable*%
X69000000Y-74400000D03*
D21*
%TO.N,/CPU/Vbatt*%
X32943131Y-75934000D03*
D22*
X33020000Y-67589398D03*
%TO.N,Net-(J104-Pin_1)*%
X31242000Y-58673982D03*
X37338000Y-70104000D03*
X33807400Y-69240400D03*
X33045400Y-55803800D03*
X31242000Y-61999999D03*
%TO.N,Net-(J104-Pin_2)*%
X38608000Y-70104000D03*
X32004000Y-60858400D03*
X38354000Y-68072000D03*
X32359600Y-57226200D03*
D21*
%TO.N,/CPU/RADIO_1*%
X58750200Y-81330800D03*
X49453800Y-81330800D03*
%TO.N,/CPU/RADIO_5*%
X49530000Y-83566000D03*
X75184000Y-83820000D03*
D22*
%TO.N,VBUS*%
X65000000Y-57800000D03*
X68600000Y-73100000D03*
%TO.N,Net-(U201-FB)*%
X35052000Y-58928020D03*
X39497000Y-58547000D03*
%TO.N,Net-(Q201-G1)*%
X70866000Y-67056012D03*
X73914000Y-61976000D03*
%TO.N,Net-(U204-FB)*%
X45852500Y-63875500D03*
X42550500Y-63875500D03*
%TD*%
%TA.AperFunction,Conductor*%
%TO.N,GND*%
G36*
X54661575Y-77662993D02*
G01*
X54727401Y-77777007D01*
X54820493Y-77870099D01*
X54934507Y-77935925D01*
X54998090Y-77952962D01*
X54366125Y-78584925D01*
X54442094Y-78638119D01*
X54485719Y-78692696D01*
X54492913Y-78762194D01*
X54461390Y-78824549D01*
X54442095Y-78841269D01*
X54256094Y-78971508D01*
X54089005Y-79138597D01*
X53959075Y-79324158D01*
X53904498Y-79367783D01*
X53835000Y-79374977D01*
X53772645Y-79343454D01*
X53755925Y-79324158D01*
X53625994Y-79138597D01*
X53458902Y-78971506D01*
X53458896Y-78971501D01*
X53273342Y-78841575D01*
X53229717Y-78786998D01*
X53222523Y-78717500D01*
X53254046Y-78655145D01*
X53273342Y-78638425D01*
X53349748Y-78584925D01*
X53458901Y-78508495D01*
X53625995Y-78341401D01*
X53756232Y-78155403D01*
X53810807Y-78111780D01*
X53880305Y-78104586D01*
X53942660Y-78136109D01*
X53959380Y-78155405D01*
X54012573Y-78231373D01*
X54644537Y-77599409D01*
X54661575Y-77662993D01*
G37*
%TD.AperFunction*%
%TA.AperFunction,Conductor*%
G36*
X54048220Y-75768779D02*
G01*
X54084983Y-75797766D01*
X54085177Y-75797573D01*
X54086813Y-75799209D01*
X54087854Y-75800030D01*
X54089001Y-75801397D01*
X54089005Y-75801401D01*
X54256099Y-75968495D01*
X54442094Y-76098730D01*
X54485718Y-76153307D01*
X54492911Y-76222806D01*
X54461389Y-76285160D01*
X54442093Y-76301880D01*
X54366126Y-76355072D01*
X54366125Y-76355072D01*
X54998090Y-76987037D01*
X54934507Y-77004075D01*
X54820493Y-77069901D01*
X54727401Y-77162993D01*
X54661575Y-77277007D01*
X54644537Y-77340589D01*
X54012573Y-76708626D01*
X53959381Y-76784594D01*
X53904804Y-76828219D01*
X53835306Y-76835413D01*
X53772951Y-76803891D01*
X53756230Y-76784594D01*
X53625994Y-76598597D01*
X53458898Y-76431501D01*
X53457530Y-76430354D01*
X53457092Y-76429696D01*
X53455073Y-76427677D01*
X53455478Y-76427271D01*
X53418830Y-76372182D01*
X53417724Y-76302321D01*
X53454563Y-76242952D01*
X53498237Y-76217662D01*
X53506834Y-76214814D01*
X53656156Y-76122712D01*
X53780212Y-75998656D01*
X53872314Y-75849334D01*
X53875162Y-75840738D01*
X53914929Y-75783294D01*
X53979444Y-75756468D01*
X54048220Y-75768779D01*
G37*
%TD.AperFunction*%
%TA.AperFunction,Conductor*%
G36*
X78932539Y-45030185D02*
G01*
X78978294Y-45082989D01*
X78989500Y-45134500D01*
X78989500Y-113865500D01*
X78969815Y-113932539D01*
X78917011Y-113978294D01*
X78865500Y-113989500D01*
X24124000Y-113989500D01*
X24056961Y-113969815D01*
X24011206Y-113917011D01*
X24000000Y-113865500D01*
X24000000Y-108750000D01*
X24685000Y-108750000D01*
X25630854Y-108750000D01*
X25592370Y-108816657D01*
X25560000Y-108937465D01*
X25560000Y-109062535D01*
X25592370Y-109183343D01*
X25630854Y-109250000D01*
X24685001Y-109250000D01*
X24685001Y-109774986D01*
X24695494Y-109877697D01*
X24750641Y-110044119D01*
X24750643Y-110044124D01*
X24842684Y-110193345D01*
X24966654Y-110317315D01*
X25115875Y-110409356D01*
X25115880Y-110409358D01*
X25282302Y-110464505D01*
X25282309Y-110464506D01*
X25385019Y-110474999D01*
X25784999Y-110474999D01*
X25785000Y-110474998D01*
X25785000Y-109404145D01*
X25851657Y-109442630D01*
X25972465Y-109475000D01*
X26097535Y-109475000D01*
X26218343Y-109442630D01*
X26285000Y-109404145D01*
X26285000Y-110474999D01*
X26684972Y-110474999D01*
X26684986Y-110474998D01*
X26787697Y-110464505D01*
X26954119Y-110409358D01*
X26954124Y-110409356D01*
X27103345Y-110317315D01*
X27227317Y-110193343D01*
X27322815Y-110038516D01*
X27374763Y-109991791D01*
X27443725Y-109980568D01*
X27507808Y-110008412D01*
X27516035Y-110015931D01*
X27655213Y-110155109D01*
X27827179Y-110280048D01*
X27827181Y-110280049D01*
X27827184Y-110280051D01*
X28016588Y-110376557D01*
X28218757Y-110442246D01*
X28428713Y-110475500D01*
X28428714Y-110475500D01*
X28641286Y-110475500D01*
X28641287Y-110475500D01*
X28851243Y-110442246D01*
X29053412Y-110376557D01*
X29242816Y-110280051D01*
X29264789Y-110264086D01*
X29414786Y-110155109D01*
X29414788Y-110155106D01*
X29414792Y-110155104D01*
X29565104Y-110004792D01*
X29684683Y-109840204D01*
X29740011Y-109797540D01*
X29809624Y-109791561D01*
X29871420Y-109824166D01*
X29885313Y-109840199D01*
X29952360Y-109932482D01*
X30004896Y-110004792D01*
X30155213Y-110155109D01*
X30327179Y-110280048D01*
X30327181Y-110280049D01*
X30327184Y-110280051D01*
X30516588Y-110376557D01*
X30718757Y-110442246D01*
X30928713Y-110475500D01*
X30928714Y-110475500D01*
X31141286Y-110475500D01*
X31141287Y-110475500D01*
X31351243Y-110442246D01*
X31553412Y-110376557D01*
X31742816Y-110280051D01*
X31764789Y-110264086D01*
X31914786Y-110155109D01*
X31914788Y-110155106D01*
X31914792Y-110155104D01*
X32065104Y-110004792D01*
X32184683Y-109840204D01*
X32240011Y-109797540D01*
X32309624Y-109791561D01*
X32371420Y-109824166D01*
X32385313Y-109840199D01*
X32452360Y-109932482D01*
X32504896Y-110004792D01*
X32655213Y-110155109D01*
X32827179Y-110280048D01*
X32827181Y-110280049D01*
X32827184Y-110280051D01*
X33016588Y-110376557D01*
X33218757Y-110442246D01*
X33428713Y-110475500D01*
X33428714Y-110475500D01*
X33641286Y-110475500D01*
X33641287Y-110475500D01*
X33851243Y-110442246D01*
X34053412Y-110376557D01*
X34242816Y-110280051D01*
X34264789Y-110264086D01*
X34414786Y-110155109D01*
X34414788Y-110155106D01*
X34414792Y-110155104D01*
X34565104Y-110004792D01*
X34565106Y-110004788D01*
X34565109Y-110004786D01*
X34690048Y-109832820D01*
X34690047Y-109832820D01*
X34690051Y-109832816D01*
X34719509Y-109775001D01*
X39349500Y-109775001D01*
X39349501Y-109775018D01*
X39360000Y-109877796D01*
X39360001Y-109877799D01*
X39415185Y-110044331D01*
X39415187Y-110044336D01*
X39429373Y-110067335D01*
X39507288Y-110193656D01*
X39631344Y-110317712D01*
X39780666Y-110409814D01*
X39947203Y-110464999D01*
X40049991Y-110475500D01*
X41350008Y-110475499D01*
X41452797Y-110464999D01*
X41619334Y-110409814D01*
X41768656Y-110317712D01*
X41892712Y-110193656D01*
X41984814Y-110044334D01*
X41984814Y-110044331D01*
X41988178Y-110038879D01*
X42040126Y-109992154D01*
X42109088Y-109980931D01*
X42173170Y-110008774D01*
X42181398Y-110016294D01*
X42320213Y-110155109D01*
X42492179Y-110280048D01*
X42492181Y-110280049D01*
X42492184Y-110280051D01*
X42681588Y-110376557D01*
X42883757Y-110442246D01*
X43093713Y-110475500D01*
X43093714Y-110475500D01*
X43306286Y-110475500D01*
X43306287Y-110475500D01*
X43516243Y-110442246D01*
X43718412Y-110376557D01*
X43907816Y-110280051D01*
X43929789Y-110264086D01*
X44079786Y-110155109D01*
X44079788Y-110155106D01*
X44079792Y-110155104D01*
X44230104Y-110004792D01*
X44349683Y-109840204D01*
X44405011Y-109797540D01*
X44474624Y-109791561D01*
X44536420Y-109824166D01*
X44550313Y-109840199D01*
X44617360Y-109932482D01*
X44669896Y-110004792D01*
X44820213Y-110155109D01*
X44992179Y-110280048D01*
X44992181Y-110280049D01*
X44992184Y-110280051D01*
X45181588Y-110376557D01*
X45383757Y-110442246D01*
X45593713Y-110475500D01*
X45593714Y-110475500D01*
X45806286Y-110475500D01*
X45806287Y-110475500D01*
X46016243Y-110442246D01*
X46218412Y-110376557D01*
X46407816Y-110280051D01*
X46429789Y-110264086D01*
X46579786Y-110155109D01*
X46579788Y-110155106D01*
X46579792Y-110155104D01*
X46730104Y-110004792D01*
X46730106Y-110004788D01*
X46730109Y-110004786D01*
X46825950Y-109872870D01*
X64474500Y-109872870D01*
X64474501Y-109872876D01*
X64480908Y-109932483D01*
X64531202Y-110067328D01*
X64531206Y-110067335D01*
X64617452Y-110182544D01*
X64617455Y-110182547D01*
X64732664Y-110268793D01*
X64732671Y-110268797D01*
X64867517Y-110319091D01*
X64867516Y-110319091D01*
X64874444Y-110319835D01*
X64927127Y-110325500D01*
X66672872Y-110325499D01*
X66732483Y-110319091D01*
X66867331Y-110268796D01*
X66982546Y-110182546D01*
X67028404Y-110121288D01*
X73149500Y-110121288D01*
X73181161Y-110361785D01*
X73243947Y-110596104D01*
X73336773Y-110820205D01*
X73336776Y-110820212D01*
X73458064Y-111030289D01*
X73458066Y-111030292D01*
X73458067Y-111030293D01*
X73605733Y-111222736D01*
X73605739Y-111222743D01*
X73777256Y-111394260D01*
X73777262Y-111394265D01*
X73969711Y-111541936D01*
X74179788Y-111663224D01*
X74403900Y-111756054D01*
X74638211Y-111818838D01*
X74818586Y-111842584D01*
X74878711Y-111850500D01*
X74878712Y-111850500D01*
X75121289Y-111850500D01*
X75169388Y-111844167D01*
X75361789Y-111818838D01*
X75596100Y-111756054D01*
X75820212Y-111663224D01*
X76030289Y-111541936D01*
X76222738Y-111394265D01*
X76394265Y-111222738D01*
X76541936Y-111030289D01*
X76663224Y-110820212D01*
X76756054Y-110596100D01*
X76818838Y-110361789D01*
X76850500Y-110121288D01*
X76850500Y-109878712D01*
X76850379Y-109877796D01*
X76839814Y-109797540D01*
X76818838Y-109638211D01*
X76756054Y-109403900D01*
X76663224Y-109179788D01*
X76541936Y-108969711D01*
X76394265Y-108777262D01*
X76394260Y-108777256D01*
X76222743Y-108605739D01*
X76222736Y-108605733D01*
X76030293Y-108458067D01*
X76030292Y-108458066D01*
X76030289Y-108458064D01*
X75820212Y-108336776D01*
X75820205Y-108336773D01*
X75596104Y-108243947D01*
X75478944Y-108212554D01*
X75361789Y-108181162D01*
X75361788Y-108181161D01*
X75361785Y-108181161D01*
X75121289Y-108149500D01*
X75121288Y-108149500D01*
X74878712Y-108149500D01*
X74878711Y-108149500D01*
X74638214Y-108181161D01*
X74403895Y-108243947D01*
X74179794Y-108336773D01*
X74179785Y-108336777D01*
X73969706Y-108458067D01*
X73777263Y-108605733D01*
X73777256Y-108605739D01*
X73605739Y-108777256D01*
X73605733Y-108777263D01*
X73458067Y-108969706D01*
X73336777Y-109179785D01*
X73336773Y-109179794D01*
X73243947Y-109403895D01*
X73181161Y-109638214D01*
X73149500Y-109878711D01*
X73149500Y-110121288D01*
X67028404Y-110121288D01*
X67068796Y-110067331D01*
X67119091Y-109932483D01*
X67125500Y-109872873D01*
X67125499Y-108127128D01*
X67119091Y-108067517D01*
X67100320Y-108017190D01*
X67068797Y-107932671D01*
X67068793Y-107932664D01*
X66982547Y-107817455D01*
X66982544Y-107817452D01*
X66867335Y-107731206D01*
X66867328Y-107731202D01*
X66732482Y-107680908D01*
X66732483Y-107680908D01*
X66672883Y-107674501D01*
X66672881Y-107674500D01*
X66672873Y-107674500D01*
X66672864Y-107674500D01*
X64927129Y-107674500D01*
X64927123Y-107674501D01*
X64867516Y-107680908D01*
X64732671Y-107731202D01*
X64732664Y-107731206D01*
X64617455Y-107817452D01*
X64617452Y-107817455D01*
X64531206Y-107932664D01*
X64531202Y-107932671D01*
X64480908Y-108067517D01*
X64475029Y-108122203D01*
X64474501Y-108127123D01*
X64474500Y-108127135D01*
X64474500Y-109872870D01*
X46825950Y-109872870D01*
X46855048Y-109832820D01*
X46855047Y-109832820D01*
X46855051Y-109832816D01*
X46951557Y-109643412D01*
X47017246Y-109441243D01*
X47050500Y-109231287D01*
X47050500Y-108768713D01*
X47017246Y-108558757D01*
X46951557Y-108356588D01*
X46855051Y-108167184D01*
X46855049Y-108167181D01*
X46855048Y-108167179D01*
X46730109Y-107995213D01*
X46579786Y-107844890D01*
X46407820Y-107719951D01*
X46218414Y-107623444D01*
X46218413Y-107623443D01*
X46218412Y-107623443D01*
X46016243Y-107557754D01*
X46016241Y-107557753D01*
X46016240Y-107557753D01*
X45854957Y-107532208D01*
X45806287Y-107524500D01*
X45593713Y-107524500D01*
X45545042Y-107532208D01*
X45383760Y-107557753D01*
X45181585Y-107623444D01*
X44992179Y-107719951D01*
X44820213Y-107844890D01*
X44669894Y-107995209D01*
X44669890Y-107995214D01*
X44550318Y-108159793D01*
X44494989Y-108202459D01*
X44425375Y-108208438D01*
X44363580Y-108175833D01*
X44349682Y-108159793D01*
X44230109Y-107995214D01*
X44230105Y-107995209D01*
X44079786Y-107844890D01*
X43907820Y-107719951D01*
X43718414Y-107623444D01*
X43718413Y-107623443D01*
X43718412Y-107623443D01*
X43516243Y-107557754D01*
X43516241Y-107557753D01*
X43516240Y-107557753D01*
X43354957Y-107532208D01*
X43306287Y-107524500D01*
X43093713Y-107524500D01*
X43045042Y-107532208D01*
X42883760Y-107557753D01*
X42681585Y-107623444D01*
X42492179Y-107719951D01*
X42320215Y-107844889D01*
X42181398Y-107983706D01*
X42120075Y-108017190D01*
X42050383Y-108012206D01*
X41994450Y-107970334D01*
X41988178Y-107961120D01*
X41892712Y-107806344D01*
X41768657Y-107682289D01*
X41768656Y-107682288D01*
X41619334Y-107590186D01*
X41452797Y-107535001D01*
X41452795Y-107535000D01*
X41350010Y-107524500D01*
X40049998Y-107524500D01*
X40049981Y-107524501D01*
X39947203Y-107535000D01*
X39947200Y-107535001D01*
X39780668Y-107590185D01*
X39780663Y-107590187D01*
X39631342Y-107682289D01*
X39507289Y-107806342D01*
X39415187Y-107955663D01*
X39415185Y-107955668D01*
X39413258Y-107961484D01*
X39360001Y-108122203D01*
X39360001Y-108122204D01*
X39360000Y-108122204D01*
X39349500Y-108224983D01*
X39349500Y-109775001D01*
X34719509Y-109775001D01*
X34786557Y-109643412D01*
X34852246Y-109441243D01*
X34885500Y-109231287D01*
X34885500Y-108768713D01*
X34852246Y-108558757D01*
X34786557Y-108356588D01*
X34690051Y-108167184D01*
X34690049Y-108167181D01*
X34690048Y-108167179D01*
X34565109Y-107995213D01*
X34414786Y-107844890D01*
X34242820Y-107719951D01*
X34053414Y-107623444D01*
X34053413Y-107623443D01*
X34053412Y-107623443D01*
X33851243Y-107557754D01*
X33851241Y-107557753D01*
X33851240Y-107557753D01*
X33689957Y-107532208D01*
X33641287Y-107524500D01*
X33428713Y-107524500D01*
X33380042Y-107532208D01*
X33218760Y-107557753D01*
X33016585Y-107623444D01*
X32827179Y-107719951D01*
X32655213Y-107844890D01*
X32504894Y-107995209D01*
X32504890Y-107995214D01*
X32385318Y-108159793D01*
X32329989Y-108202459D01*
X32260375Y-108208438D01*
X32198580Y-108175833D01*
X32184682Y-108159793D01*
X32065109Y-107995214D01*
X32065105Y-107995209D01*
X31914786Y-107844890D01*
X31742820Y-107719951D01*
X31553414Y-107623444D01*
X31553413Y-107623443D01*
X31553412Y-107623443D01*
X31351243Y-107557754D01*
X31351241Y-107557753D01*
X31351240Y-107557753D01*
X31189957Y-107532208D01*
X31141287Y-107524500D01*
X30928713Y-107524500D01*
X30880042Y-107532208D01*
X30718760Y-107557753D01*
X30516585Y-107623444D01*
X30327179Y-107719951D01*
X30155213Y-107844890D01*
X30004894Y-107995209D01*
X30004890Y-107995214D01*
X29885318Y-108159793D01*
X29829989Y-108202459D01*
X29760375Y-108208438D01*
X29698580Y-108175833D01*
X29684682Y-108159793D01*
X29565109Y-107995214D01*
X29565105Y-107995209D01*
X29414786Y-107844890D01*
X29242820Y-107719951D01*
X29053414Y-107623444D01*
X29053413Y-107623443D01*
X29053412Y-107623443D01*
X28851243Y-107557754D01*
X28851241Y-107557753D01*
X28851240Y-107557753D01*
X28689957Y-107532208D01*
X28641287Y-107524500D01*
X28428713Y-107524500D01*
X28380042Y-107532208D01*
X28218760Y-107557753D01*
X28016585Y-107623444D01*
X27827179Y-107719951D01*
X27655215Y-107844889D01*
X27516035Y-107984069D01*
X27454712Y-108017553D01*
X27385020Y-108012569D01*
X27329087Y-107970697D01*
X27322815Y-107961484D01*
X27227315Y-107806654D01*
X27103345Y-107682684D01*
X26954124Y-107590643D01*
X26954119Y-107590641D01*
X26787697Y-107535494D01*
X26787690Y-107535493D01*
X26684986Y-107525000D01*
X26285000Y-107525000D01*
X26285000Y-108595854D01*
X26218343Y-108557370D01*
X26097535Y-108525000D01*
X25972465Y-108525000D01*
X25851657Y-108557370D01*
X25785000Y-108595854D01*
X25785000Y-107525000D01*
X25385028Y-107525000D01*
X25385012Y-107525001D01*
X25282302Y-107535494D01*
X25115880Y-107590641D01*
X25115875Y-107590643D01*
X24966654Y-107682684D01*
X24842684Y-107806654D01*
X24750643Y-107955875D01*
X24750641Y-107955880D01*
X24695494Y-108122302D01*
X24695493Y-108122309D01*
X24685000Y-108225013D01*
X24685000Y-108750000D01*
X24000000Y-108750000D01*
X24000000Y-102500000D01*
X64444341Y-102500000D01*
X64464936Y-102735403D01*
X64464938Y-102735413D01*
X64526094Y-102963655D01*
X64526096Y-102963659D01*
X64526097Y-102963663D01*
X64625965Y-103177830D01*
X64625967Y-103177834D01*
X64734281Y-103332521D01*
X64761505Y-103371401D01*
X64928599Y-103538495D01*
X65025384Y-103606265D01*
X65122165Y-103674032D01*
X65122167Y-103674033D01*
X65122170Y-103674035D01*
X65336337Y-103773903D01*
X65564592Y-103835063D01*
X65752918Y-103851539D01*
X65799999Y-103855659D01*
X65800000Y-103855659D01*
X65800001Y-103855659D01*
X65839234Y-103852226D01*
X66035408Y-103835063D01*
X66263663Y-103773903D01*
X66477830Y-103674035D01*
X66671401Y-103538495D01*
X66838495Y-103371401D01*
X66974035Y-103177830D01*
X67073903Y-102963663D01*
X67135063Y-102735408D01*
X67155659Y-102500000D01*
X67135063Y-102264592D01*
X67073903Y-102036337D01*
X66974035Y-101822171D01*
X66879483Y-101687135D01*
X66838494Y-101628597D01*
X66671402Y-101461506D01*
X66671395Y-101461501D01*
X66477834Y-101325967D01*
X66477830Y-101325965D01*
X66477828Y-101325964D01*
X66263663Y-101226097D01*
X66263659Y-101226096D01*
X66263655Y-101226094D01*
X66035413Y-101164938D01*
X66035403Y-101164936D01*
X65800001Y-101144341D01*
X65799999Y-101144341D01*
X65564596Y-101164936D01*
X65564586Y-101164938D01*
X65336344Y-101226094D01*
X65336335Y-101226098D01*
X65122171Y-101325964D01*
X65122169Y-101325965D01*
X64928597Y-101461505D01*
X64761505Y-101628597D01*
X64625965Y-101822169D01*
X64625964Y-101822171D01*
X64526098Y-102036335D01*
X64526094Y-102036344D01*
X64464938Y-102264586D01*
X64464936Y-102264596D01*
X64444341Y-102499999D01*
X64444341Y-102500000D01*
X24000000Y-102500000D01*
X24000000Y-100965003D01*
X25533509Y-100965003D01*
X25551812Y-101127455D01*
X25605810Y-101281774D01*
X25633579Y-101325967D01*
X25692792Y-101420204D01*
X25808396Y-101535808D01*
X25946825Y-101622789D01*
X26101139Y-101676786D01*
X26101142Y-101676786D01*
X26101144Y-101676787D01*
X26263596Y-101695091D01*
X26263600Y-101695091D01*
X26263604Y-101695091D01*
X26426055Y-101676787D01*
X26426056Y-101676786D01*
X26426061Y-101676786D01*
X26580375Y-101622789D01*
X26718804Y-101535808D01*
X26834408Y-101420204D01*
X26921389Y-101281775D01*
X26975386Y-101127461D01*
X26975387Y-101127455D01*
X26993691Y-100965003D01*
X26993691Y-100964996D01*
X26992795Y-100957047D01*
X29017828Y-100957047D01*
X29036131Y-101119499D01*
X29090129Y-101273818D01*
X29122897Y-101325967D01*
X29177111Y-101412248D01*
X29292715Y-101527852D01*
X29431144Y-101614833D01*
X29585458Y-101668830D01*
X29585461Y-101668830D01*
X29585463Y-101668831D01*
X29747915Y-101687135D01*
X29747919Y-101687135D01*
X29747923Y-101687135D01*
X29910374Y-101668831D01*
X29910375Y-101668830D01*
X29910380Y-101668830D01*
X30064694Y-101614833D01*
X30203123Y-101527852D01*
X30318727Y-101412248D01*
X30405708Y-101273819D01*
X30459705Y-101119505D01*
X30459706Y-101119499D01*
X30477114Y-100965003D01*
X31375509Y-100965003D01*
X31393812Y-101127455D01*
X31447810Y-101281774D01*
X31475579Y-101325967D01*
X31534792Y-101420204D01*
X31650396Y-101535808D01*
X31788825Y-101622789D01*
X31943139Y-101676786D01*
X31943142Y-101676786D01*
X31943144Y-101676787D01*
X32105596Y-101695091D01*
X32105600Y-101695091D01*
X32105604Y-101695091D01*
X32268055Y-101676787D01*
X32268056Y-101676786D01*
X32268061Y-101676786D01*
X32422375Y-101622789D01*
X32560804Y-101535808D01*
X32676408Y-101420204D01*
X32763389Y-101281775D01*
X32817386Y-101127461D01*
X32817387Y-101127455D01*
X32835691Y-100965003D01*
X32835691Y-100964996D01*
X32817387Y-100802544D01*
X32817386Y-100802542D01*
X32817386Y-100802539D01*
X32763389Y-100648225D01*
X32676408Y-100509796D01*
X32560804Y-100394192D01*
X32499072Y-100355403D01*
X37954109Y-100355403D01*
X37972412Y-100517855D01*
X38026410Y-100672174D01*
X38026411Y-100672175D01*
X38113392Y-100810604D01*
X38228996Y-100926208D01*
X38367425Y-101013189D01*
X38521739Y-101067186D01*
X38521742Y-101067186D01*
X38521744Y-101067187D01*
X38684196Y-101085491D01*
X38684200Y-101085491D01*
X38684204Y-101085491D01*
X38846655Y-101067187D01*
X38846656Y-101067186D01*
X38846661Y-101067186D01*
X39000975Y-101013189D01*
X39139404Y-100926208D01*
X39255008Y-100810604D01*
X39341989Y-100672175D01*
X39395986Y-100517861D01*
X39397791Y-100501840D01*
X39414291Y-100355403D01*
X39414291Y-100355396D01*
X39395987Y-100192944D01*
X39395986Y-100192942D01*
X39395986Y-100192939D01*
X39341989Y-100038625D01*
X39255008Y-99900196D01*
X39139404Y-99784592D01*
X39000974Y-99697610D01*
X38846655Y-99643612D01*
X38684204Y-99625309D01*
X38684196Y-99625309D01*
X38521744Y-99643612D01*
X38367425Y-99697610D01*
X38228995Y-99784592D01*
X38113392Y-99900195D01*
X38026410Y-100038625D01*
X37972412Y-100192944D01*
X37954109Y-100355396D01*
X37954109Y-100355403D01*
X32499072Y-100355403D01*
X32499061Y-100355396D01*
X32422374Y-100307210D01*
X32268055Y-100253212D01*
X32105604Y-100234909D01*
X32105596Y-100234909D01*
X31943144Y-100253212D01*
X31788825Y-100307210D01*
X31650395Y-100394192D01*
X31534792Y-100509795D01*
X31447810Y-100648225D01*
X31393812Y-100802544D01*
X31375509Y-100964996D01*
X31375509Y-100965003D01*
X30477114Y-100965003D01*
X30478010Y-100957047D01*
X30478010Y-100957040D01*
X30459706Y-100794588D01*
X30459705Y-100794586D01*
X30459705Y-100794583D01*
X30405708Y-100640269D01*
X30318727Y-100501840D01*
X30203123Y-100386236D01*
X30077356Y-100307211D01*
X30064693Y-100299254D01*
X29910374Y-100245256D01*
X29747923Y-100226953D01*
X29747915Y-100226953D01*
X29585463Y-100245256D01*
X29431144Y-100299254D01*
X29292714Y-100386236D01*
X29177111Y-100501839D01*
X29090129Y-100640269D01*
X29036131Y-100794588D01*
X29017828Y-100957040D01*
X29017828Y-100957047D01*
X26992795Y-100957047D01*
X26975387Y-100802544D01*
X26975386Y-100802542D01*
X26975386Y-100802539D01*
X26921389Y-100648225D01*
X26834408Y-100509796D01*
X26718804Y-100394192D01*
X26657061Y-100355396D01*
X26580374Y-100307210D01*
X26426055Y-100253212D01*
X26263604Y-100234909D01*
X26263596Y-100234909D01*
X26101144Y-100253212D01*
X25946825Y-100307210D01*
X25808395Y-100394192D01*
X25692792Y-100509795D01*
X25605810Y-100648225D01*
X25551812Y-100802544D01*
X25533509Y-100964996D01*
X25533509Y-100965003D01*
X24000000Y-100965003D01*
X24000000Y-98425983D01*
X33941919Y-98425983D01*
X33960222Y-98588435D01*
X34014220Y-98742754D01*
X34014221Y-98742755D01*
X34101202Y-98881184D01*
X34216806Y-98996788D01*
X34355235Y-99083769D01*
X34509549Y-99137766D01*
X34509552Y-99137766D01*
X34509554Y-99137767D01*
X34672006Y-99156071D01*
X34672010Y-99156071D01*
X34672014Y-99156071D01*
X34834465Y-99137767D01*
X34834466Y-99137766D01*
X34834471Y-99137766D01*
X34988785Y-99083769D01*
X35127214Y-98996788D01*
X35242818Y-98881184D01*
X35329799Y-98742755D01*
X35383796Y-98588441D01*
X35402101Y-98425980D01*
X35383796Y-98263519D01*
X35329799Y-98109205D01*
X35242818Y-97970776D01*
X35127214Y-97855172D01*
X34988784Y-97768190D01*
X34834465Y-97714192D01*
X34672014Y-97695889D01*
X34672006Y-97695889D01*
X34509554Y-97714192D01*
X34355235Y-97768190D01*
X34216805Y-97855172D01*
X34101202Y-97970775D01*
X34014220Y-98109205D01*
X33960222Y-98263524D01*
X33941919Y-98425976D01*
X33941919Y-98425983D01*
X24000000Y-98425983D01*
X24000000Y-94843603D01*
X27540109Y-94843603D01*
X27558412Y-95006055D01*
X27612410Y-95160374D01*
X27640840Y-95205620D01*
X27699392Y-95298804D01*
X27814996Y-95414408D01*
X27953425Y-95501389D01*
X28107739Y-95555386D01*
X28107742Y-95555386D01*
X28107744Y-95555387D01*
X28270196Y-95573691D01*
X28270200Y-95573691D01*
X28270204Y-95573691D01*
X28432655Y-95555387D01*
X28432656Y-95555386D01*
X28432661Y-95555386D01*
X28586975Y-95501389D01*
X28589174Y-95500007D01*
X57544671Y-95500007D01*
X57563964Y-95794363D01*
X57563965Y-95794373D01*
X57563966Y-95794380D01*
X57563968Y-95794390D01*
X57621518Y-96083716D01*
X57621521Y-96083730D01*
X57716349Y-96363080D01*
X57846825Y-96627660D01*
X57846829Y-96627667D01*
X58010725Y-96872955D01*
X58205241Y-97094758D01*
X58427043Y-97289273D01*
X58672335Y-97453172D01*
X58936923Y-97583652D01*
X59216278Y-97678481D01*
X59505620Y-97736034D01*
X59533888Y-97737886D01*
X59799993Y-97755329D01*
X59800000Y-97755329D01*
X59800007Y-97755329D01*
X60035675Y-97739881D01*
X60094380Y-97736034D01*
X60383722Y-97678481D01*
X60663077Y-97583652D01*
X60927665Y-97453172D01*
X61172957Y-97289273D01*
X61394758Y-97094758D01*
X61589273Y-96872957D01*
X61753172Y-96627665D01*
X61883652Y-96363077D01*
X61978481Y-96083722D01*
X62028383Y-95832845D01*
X62060768Y-95770934D01*
X62121483Y-95736360D01*
X62191253Y-95740099D01*
X62247925Y-95780965D01*
X62271617Y-95832845D01*
X62321518Y-96083716D01*
X62321521Y-96083730D01*
X62416349Y-96363080D01*
X62546825Y-96627660D01*
X62546829Y-96627667D01*
X62710725Y-96872955D01*
X62905241Y-97094758D01*
X63127043Y-97289273D01*
X63372335Y-97453172D01*
X63636923Y-97583652D01*
X63916278Y-97678481D01*
X64205620Y-97736034D01*
X64233888Y-97737886D01*
X64499993Y-97755329D01*
X64500000Y-97755329D01*
X64500007Y-97755329D01*
X64735675Y-97739881D01*
X64794380Y-97736034D01*
X65083722Y-97678481D01*
X65363077Y-97583652D01*
X65627665Y-97453172D01*
X65872957Y-97289273D01*
X66094758Y-97094758D01*
X66289273Y-96872957D01*
X66453172Y-96627665D01*
X66583652Y-96363077D01*
X66678481Y-96083722D01*
X66728383Y-95832845D01*
X66760768Y-95770934D01*
X66821483Y-95736360D01*
X66891253Y-95740099D01*
X66947925Y-95780965D01*
X66971617Y-95832845D01*
X67021518Y-96083716D01*
X67021521Y-96083730D01*
X67116349Y-96363080D01*
X67246825Y-96627660D01*
X67246829Y-96627667D01*
X67410725Y-96872955D01*
X67605241Y-97094758D01*
X67827043Y-97289273D01*
X68072335Y-97453172D01*
X68336923Y-97583652D01*
X68616278Y-97678481D01*
X68905620Y-97736034D01*
X68933888Y-97737886D01*
X69199993Y-97755329D01*
X69200000Y-97755329D01*
X69200007Y-97755329D01*
X69435675Y-97739881D01*
X69494380Y-97736034D01*
X69783722Y-97678481D01*
X70063077Y-97583652D01*
X70327665Y-97453172D01*
X70572957Y-97289273D01*
X70794758Y-97094758D01*
X70989273Y-96872957D01*
X71153172Y-96627665D01*
X71283652Y-96363077D01*
X71378481Y-96083722D01*
X71436034Y-95794380D01*
X71455329Y-95500000D01*
X71455329Y-95499992D01*
X71436035Y-95205636D01*
X71436034Y-95205620D01*
X71378481Y-94916278D01*
X71283652Y-94636923D01*
X71153172Y-94372336D01*
X70989273Y-94127043D01*
X70946655Y-94078447D01*
X70794758Y-93905241D01*
X70572955Y-93710725D01*
X70327667Y-93546829D01*
X70327660Y-93546825D01*
X70063080Y-93416349D01*
X69783730Y-93321521D01*
X69783724Y-93321519D01*
X69783722Y-93321519D01*
X69494380Y-93263966D01*
X69494373Y-93263965D01*
X69494363Y-93263964D01*
X69200007Y-93244671D01*
X69199993Y-93244671D01*
X68905636Y-93263964D01*
X68905624Y-93263965D01*
X68905620Y-93263966D01*
X68905612Y-93263967D01*
X68905609Y-93263968D01*
X68616283Y-93321518D01*
X68616269Y-93321521D01*
X68336919Y-93416349D01*
X68072334Y-93546828D01*
X67827041Y-93710728D01*
X67605241Y-93905241D01*
X67410728Y-94127041D01*
X67246828Y-94372334D01*
X67116349Y-94636919D01*
X67021521Y-94916269D01*
X67021518Y-94916283D01*
X66971617Y-95167154D01*
X66939232Y-95229065D01*
X66878517Y-95263639D01*
X66808747Y-95259900D01*
X66752075Y-95219033D01*
X66728383Y-95167154D01*
X66717735Y-95113625D01*
X66678481Y-94916278D01*
X66583652Y-94636923D01*
X66453172Y-94372336D01*
X66289273Y-94127043D01*
X66246655Y-94078447D01*
X66094758Y-93905241D01*
X65872955Y-93710725D01*
X65627667Y-93546829D01*
X65627660Y-93546825D01*
X65363080Y-93416349D01*
X65083730Y-93321521D01*
X65083724Y-93321519D01*
X65083722Y-93321519D01*
X64794380Y-93263966D01*
X64794373Y-93263965D01*
X64794363Y-93263964D01*
X64500007Y-93244671D01*
X64499993Y-93244671D01*
X64205636Y-93263964D01*
X64205624Y-93263965D01*
X64205620Y-93263966D01*
X64205612Y-93263967D01*
X64205609Y-93263968D01*
X63916283Y-93321518D01*
X63916269Y-93321521D01*
X63636919Y-93416349D01*
X63372334Y-93546828D01*
X63127041Y-93710728D01*
X62905241Y-93905241D01*
X62710728Y-94127041D01*
X62546828Y-94372334D01*
X62416349Y-94636919D01*
X62321521Y-94916269D01*
X62321518Y-94916283D01*
X62271617Y-95167154D01*
X62239232Y-95229065D01*
X62178517Y-95263639D01*
X62108747Y-95259900D01*
X62052075Y-95219033D01*
X62028383Y-95167154D01*
X62017735Y-95113625D01*
X61978481Y-94916278D01*
X61883652Y-94636923D01*
X61753172Y-94372336D01*
X61589273Y-94127043D01*
X61546655Y-94078447D01*
X61394758Y-93905241D01*
X61172955Y-93710725D01*
X60927667Y-93546829D01*
X60927660Y-93546825D01*
X60663080Y-93416349D01*
X60383730Y-93321521D01*
X60383724Y-93321519D01*
X60383722Y-93321519D01*
X60094380Y-93263966D01*
X60094373Y-93263965D01*
X60094363Y-93263964D01*
X59800007Y-93244671D01*
X59799993Y-93244671D01*
X59505636Y-93263964D01*
X59505624Y-93263965D01*
X59505620Y-93263966D01*
X59505612Y-93263967D01*
X59505609Y-93263968D01*
X59216283Y-93321518D01*
X59216269Y-93321521D01*
X58936919Y-93416349D01*
X58672334Y-93546828D01*
X58427041Y-93710728D01*
X58205241Y-93905241D01*
X58010728Y-94127041D01*
X57846828Y-94372334D01*
X57716349Y-94636919D01*
X57621521Y-94916269D01*
X57621518Y-94916283D01*
X57563968Y-95205609D01*
X57563964Y-95205636D01*
X57544671Y-95499992D01*
X57544671Y-95500007D01*
X28589174Y-95500007D01*
X28725404Y-95414408D01*
X28841008Y-95298804D01*
X28927989Y-95160375D01*
X28981986Y-95006061D01*
X29000291Y-94843600D01*
X28981986Y-94681139D01*
X28927989Y-94526825D01*
X28841008Y-94388396D01*
X28725404Y-94272792D01*
X28586974Y-94185810D01*
X28432655Y-94131812D01*
X28270204Y-94113509D01*
X28270196Y-94113509D01*
X28107744Y-94131812D01*
X27953425Y-94185810D01*
X27814995Y-94272792D01*
X27699392Y-94388395D01*
X27612410Y-94526825D01*
X27558412Y-94681144D01*
X27540109Y-94843596D01*
X27540109Y-94843603D01*
X24000000Y-94843603D01*
X24000000Y-85090000D01*
X51231841Y-85090000D01*
X51252436Y-85325403D01*
X51252438Y-85325413D01*
X51313594Y-85553655D01*
X51313596Y-85553659D01*
X51313597Y-85553663D01*
X51317500Y-85562032D01*
X51413465Y-85767830D01*
X51413467Y-85767834D01*
X51521781Y-85922521D01*
X51549005Y-85961401D01*
X51716099Y-86128495D01*
X51812884Y-86196265D01*
X51909665Y-86264032D01*
X51909667Y-86264033D01*
X51909670Y-86264035D01*
X52123837Y-86363903D01*
X52352092Y-86425063D01*
X52540418Y-86441539D01*
X52587499Y-86445659D01*
X52587500Y-86445659D01*
X52587501Y-86445659D01*
X52626734Y-86442226D01*
X52822908Y-86425063D01*
X53051163Y-86363903D01*
X53265330Y-86264035D01*
X53458901Y-86128495D01*
X53625995Y-85961401D01*
X53755925Y-85775842D01*
X53810502Y-85732217D01*
X53880000Y-85725023D01*
X53942355Y-85756546D01*
X53959075Y-85775842D01*
X54089000Y-85961395D01*
X54089005Y-85961401D01*
X54256099Y-86128495D01*
X54352884Y-86196265D01*
X54449665Y-86264032D01*
X54449667Y-86264033D01*
X54449670Y-86264035D01*
X54663837Y-86363903D01*
X54892092Y-86425063D01*
X55080418Y-86441539D01*
X55127499Y-86445659D01*
X55127500Y-86445659D01*
X55127501Y-86445659D01*
X55166734Y-86442226D01*
X55362908Y-86425063D01*
X55591163Y-86363903D01*
X55805330Y-86264035D01*
X55998901Y-86128495D01*
X56165995Y-85961401D01*
X56301535Y-85767830D01*
X56401403Y-85553663D01*
X56462563Y-85325408D01*
X56483159Y-85090000D01*
X56462563Y-84854592D01*
X56401403Y-84626337D01*
X56301535Y-84412171D01*
X56295925Y-84404158D01*
X56165994Y-84218597D01*
X55998902Y-84051506D01*
X55998896Y-84051501D01*
X55813342Y-83921575D01*
X55769717Y-83866998D01*
X55764852Y-83820000D01*
X74278540Y-83820000D01*
X74298326Y-84008256D01*
X74298327Y-84008259D01*
X74356818Y-84188277D01*
X74356821Y-84188284D01*
X74451467Y-84352216D01*
X74518931Y-84427142D01*
X74578129Y-84492888D01*
X74731265Y-84604148D01*
X74731270Y-84604151D01*
X74904192Y-84681142D01*
X74904197Y-84681144D01*
X75089354Y-84720500D01*
X75089355Y-84720500D01*
X75278644Y-84720500D01*
X75278646Y-84720500D01*
X75463803Y-84681144D01*
X75636730Y-84604151D01*
X75789871Y-84492888D01*
X75916533Y-84352216D01*
X76011179Y-84188284D01*
X76069674Y-84008256D01*
X76089460Y-83820000D01*
X76069674Y-83631744D01*
X76011179Y-83451716D01*
X75916533Y-83287784D01*
X75789871Y-83147112D01*
X75789870Y-83147111D01*
X75636734Y-83035851D01*
X75636729Y-83035848D01*
X75463807Y-82958857D01*
X75463802Y-82958855D01*
X75318001Y-82927865D01*
X75278646Y-82919500D01*
X75089354Y-82919500D01*
X75056897Y-82926398D01*
X74904197Y-82958855D01*
X74904192Y-82958857D01*
X74731270Y-83035848D01*
X74731265Y-83035851D01*
X74578129Y-83147111D01*
X74451466Y-83287785D01*
X74356821Y-83451715D01*
X74356818Y-83451722D01*
X74298327Y-83631740D01*
X74298326Y-83631744D01*
X74278540Y-83820000D01*
X55764852Y-83820000D01*
X55762523Y-83797500D01*
X55794046Y-83735145D01*
X55813342Y-83718425D01*
X55937135Y-83631744D01*
X55998901Y-83588495D01*
X56165995Y-83421401D01*
X56301535Y-83227830D01*
X56401403Y-83013663D01*
X56462563Y-82785408D01*
X56483159Y-82550000D01*
X56462563Y-82314592D01*
X56401403Y-82086337D01*
X56301535Y-81872171D01*
X56295925Y-81864158D01*
X56165994Y-81678597D01*
X55998902Y-81511506D01*
X55998896Y-81511501D01*
X55813342Y-81381575D01*
X55772756Y-81330800D01*
X57844740Y-81330800D01*
X57864526Y-81519056D01*
X57864527Y-81519059D01*
X57923018Y-81699077D01*
X57923021Y-81699084D01*
X58017667Y-81863016D01*
X58144329Y-82003688D01*
X58297465Y-82114948D01*
X58297470Y-82114951D01*
X58470392Y-82191942D01*
X58470397Y-82191944D01*
X58655554Y-82231300D01*
X58655555Y-82231300D01*
X58844844Y-82231300D01*
X58844846Y-82231300D01*
X59030003Y-82191944D01*
X59202930Y-82114951D01*
X59356071Y-82003688D01*
X59482733Y-81863016D01*
X59577379Y-81699084D01*
X59635874Y-81519056D01*
X59655660Y-81330800D01*
X59635874Y-81142544D01*
X59577379Y-80962516D01*
X59482733Y-80798584D01*
X59356071Y-80657912D01*
X59356070Y-80657911D01*
X59202934Y-80546651D01*
X59202929Y-80546648D01*
X59030007Y-80469657D01*
X59030002Y-80469655D01*
X58884201Y-80438665D01*
X58844846Y-80430300D01*
X58655554Y-80430300D01*
X58623097Y-80437198D01*
X58470397Y-80469655D01*
X58470392Y-80469657D01*
X58297470Y-80546648D01*
X58297465Y-80546651D01*
X58144329Y-80657911D01*
X58017666Y-80798585D01*
X57923021Y-80962515D01*
X57923018Y-80962522D01*
X57864527Y-81142540D01*
X57864526Y-81142544D01*
X57844740Y-81330800D01*
X55772756Y-81330800D01*
X55769717Y-81326998D01*
X55762523Y-81257500D01*
X55794046Y-81195145D01*
X55813342Y-81178425D01*
X55864591Y-81142540D01*
X55998901Y-81048495D01*
X56165995Y-80881401D01*
X56301535Y-80687830D01*
X56401403Y-80473663D01*
X56462563Y-80245408D01*
X56483159Y-80010000D01*
X56462563Y-79774592D01*
X56401403Y-79546337D01*
X56301535Y-79332171D01*
X56295925Y-79324158D01*
X56165994Y-79138597D01*
X55998902Y-78971506D01*
X55998901Y-78971505D01*
X55812905Y-78841269D01*
X55769281Y-78786692D01*
X55762088Y-78717193D01*
X55793610Y-78654839D01*
X55812905Y-78638119D01*
X55888873Y-78584925D01*
X55256909Y-77952962D01*
X55320493Y-77935925D01*
X55434507Y-77870099D01*
X55527599Y-77777007D01*
X55593425Y-77662993D01*
X55610462Y-77599409D01*
X56242425Y-78231373D01*
X56242426Y-78231373D01*
X56301098Y-78147582D01*
X56301100Y-78147578D01*
X56400929Y-77933492D01*
X56400933Y-77933483D01*
X56462067Y-77705326D01*
X56462069Y-77705315D01*
X56482657Y-77470001D01*
X56482657Y-77469998D01*
X56462069Y-77234684D01*
X56462067Y-77234673D01*
X56400933Y-77006516D01*
X56400929Y-77006507D01*
X56301100Y-76792423D01*
X56301099Y-76792421D01*
X56242425Y-76708626D01*
X56242425Y-76708625D01*
X55610462Y-77340589D01*
X55593425Y-77277007D01*
X55527599Y-77162993D01*
X55434507Y-77069901D01*
X55320493Y-77004075D01*
X55256910Y-76987037D01*
X55888873Y-76355073D01*
X55888873Y-76355072D01*
X55812905Y-76301880D01*
X55769280Y-76247304D01*
X55762086Y-76177805D01*
X55793608Y-76115451D01*
X55812899Y-76098734D01*
X55998901Y-75968495D01*
X56165995Y-75801401D01*
X56301535Y-75607830D01*
X56401403Y-75393663D01*
X56462563Y-75165408D01*
X56483159Y-74930000D01*
X56462563Y-74694592D01*
X56401403Y-74466337D01*
X56301535Y-74252171D01*
X56291294Y-74237544D01*
X56165994Y-74058597D01*
X55998902Y-73891506D01*
X55998895Y-73891501D01*
X55998716Y-73891376D01*
X55909909Y-73829192D01*
X55805334Y-73755967D01*
X55805330Y-73755965D01*
X55785337Y-73746642D01*
X55591163Y-73656097D01*
X55591159Y-73656096D01*
X55591155Y-73656094D01*
X55362913Y-73594938D01*
X55362903Y-73594936D01*
X55127501Y-73574341D01*
X55127499Y-73574341D01*
X54892096Y-73594936D01*
X54892086Y-73594938D01*
X54663844Y-73656094D01*
X54663835Y-73656098D01*
X54449671Y-73755964D01*
X54449669Y-73755965D01*
X54256097Y-73891505D01*
X54089003Y-74058599D01*
X54087849Y-74059975D01*
X54087188Y-74060414D01*
X54085176Y-74062427D01*
X54084771Y-74062022D01*
X54029673Y-74098671D01*
X53959812Y-74099772D01*
X53900446Y-74062928D01*
X53875163Y-74019265D01*
X53872314Y-74010666D01*
X53780212Y-73861344D01*
X53656156Y-73737288D01*
X53548373Y-73670807D01*
X53506836Y-73645187D01*
X53506831Y-73645185D01*
X53505362Y-73644698D01*
X53340297Y-73590001D01*
X53340295Y-73590000D01*
X53237510Y-73579500D01*
X51937498Y-73579500D01*
X51937481Y-73579501D01*
X51834703Y-73590000D01*
X51834700Y-73590001D01*
X51668168Y-73645185D01*
X51668163Y-73645187D01*
X51518842Y-73737289D01*
X51394789Y-73861342D01*
X51302687Y-74010663D01*
X51302685Y-74010668D01*
X51286201Y-74060414D01*
X51247501Y-74177203D01*
X51247501Y-74177204D01*
X51247500Y-74177204D01*
X51237000Y-74279983D01*
X51237000Y-75580001D01*
X51237001Y-75580018D01*
X51247500Y-75682796D01*
X51247501Y-75682799D01*
X51286803Y-75801402D01*
X51302686Y-75849334D01*
X51394788Y-75998656D01*
X51518844Y-76122712D01*
X51668166Y-76214814D01*
X51676764Y-76217663D01*
X51734207Y-76257433D01*
X51761031Y-76321948D01*
X51748717Y-76390724D01*
X51719734Y-76427483D01*
X51719927Y-76427676D01*
X51718298Y-76429304D01*
X51717475Y-76430349D01*
X51716099Y-76431503D01*
X51549005Y-76598597D01*
X51413465Y-76792169D01*
X51413464Y-76792171D01*
X51313598Y-77006335D01*
X51313594Y-77006344D01*
X51252438Y-77234586D01*
X51252436Y-77234596D01*
X51231841Y-77469999D01*
X51231841Y-77470000D01*
X51252436Y-77705403D01*
X51252438Y-77705413D01*
X51313594Y-77933655D01*
X51313596Y-77933659D01*
X51313597Y-77933663D01*
X51393300Y-78104586D01*
X51413465Y-78147830D01*
X51413467Y-78147834D01*
X51471962Y-78231373D01*
X51549001Y-78341396D01*
X51549006Y-78341402D01*
X51716097Y-78508493D01*
X51716103Y-78508498D01*
X51901658Y-78638425D01*
X51945283Y-78693002D01*
X51952477Y-78762500D01*
X51920954Y-78824855D01*
X51901658Y-78841575D01*
X51716097Y-78971505D01*
X51549005Y-79138597D01*
X51413465Y-79332169D01*
X51413464Y-79332171D01*
X51313598Y-79546335D01*
X51313594Y-79546344D01*
X51252438Y-79774586D01*
X51252436Y-79774596D01*
X51231841Y-80009999D01*
X51231841Y-80010000D01*
X51252436Y-80245403D01*
X51252438Y-80245413D01*
X51313594Y-80473655D01*
X51313596Y-80473659D01*
X51313597Y-80473663D01*
X51317500Y-80482032D01*
X51413465Y-80687830D01*
X51413467Y-80687834D01*
X51521781Y-80842521D01*
X51549001Y-80881396D01*
X51549006Y-80881402D01*
X51716097Y-81048493D01*
X51716103Y-81048498D01*
X51901658Y-81178425D01*
X51945283Y-81233002D01*
X51952477Y-81302500D01*
X51920954Y-81364855D01*
X51901658Y-81381575D01*
X51716097Y-81511505D01*
X51549005Y-81678597D01*
X51413465Y-81872169D01*
X51413464Y-81872171D01*
X51313598Y-82086335D01*
X51313594Y-82086344D01*
X51252438Y-82314586D01*
X51252436Y-82314596D01*
X51231841Y-82549999D01*
X51231841Y-82550000D01*
X51252436Y-82785403D01*
X51252438Y-82785413D01*
X51313594Y-83013655D01*
X51313596Y-83013659D01*
X51313597Y-83013663D01*
X51393504Y-83185023D01*
X51413465Y-83227830D01*
X51413467Y-83227834D01*
X51518433Y-83377740D01*
X51549001Y-83421396D01*
X51549006Y-83421402D01*
X51716097Y-83588493D01*
X51716103Y-83588498D01*
X51901658Y-83718425D01*
X51945283Y-83773002D01*
X51952477Y-83842500D01*
X51920954Y-83904855D01*
X51901658Y-83921575D01*
X51716097Y-84051505D01*
X51549005Y-84218597D01*
X51413465Y-84412169D01*
X51413464Y-84412171D01*
X51313598Y-84626335D01*
X51313594Y-84626344D01*
X51252438Y-84854586D01*
X51252436Y-84854596D01*
X51231841Y-85089999D01*
X51231841Y-85090000D01*
X24000000Y-85090000D01*
X24000000Y-83566000D01*
X48624540Y-83566000D01*
X48644326Y-83754256D01*
X48644327Y-83754259D01*
X48702818Y-83934277D01*
X48702821Y-83934284D01*
X48797467Y-84098216D01*
X48878559Y-84188277D01*
X48924129Y-84238888D01*
X49077265Y-84350148D01*
X49077270Y-84350151D01*
X49250192Y-84427142D01*
X49250197Y-84427144D01*
X49435354Y-84466500D01*
X49435355Y-84466500D01*
X49624644Y-84466500D01*
X49624646Y-84466500D01*
X49809803Y-84427144D01*
X49982730Y-84350151D01*
X50135871Y-84238888D01*
X50262533Y-84098216D01*
X50357179Y-83934284D01*
X50415674Y-83754256D01*
X50435460Y-83566000D01*
X50415674Y-83377744D01*
X50357179Y-83197716D01*
X50262533Y-83033784D01*
X50135871Y-82893112D01*
X50135870Y-82893111D01*
X49982734Y-82781851D01*
X49982729Y-82781848D01*
X49809807Y-82704857D01*
X49809802Y-82704855D01*
X49664001Y-82673865D01*
X49624646Y-82665500D01*
X49435354Y-82665500D01*
X49402897Y-82672398D01*
X49250197Y-82704855D01*
X49250192Y-82704857D01*
X49077270Y-82781848D01*
X49077265Y-82781851D01*
X48924129Y-82893111D01*
X48797466Y-83033785D01*
X48702821Y-83197715D01*
X48702818Y-83197722D01*
X48644327Y-83377740D01*
X48644326Y-83377744D01*
X48624540Y-83566000D01*
X24000000Y-83566000D01*
X24000000Y-81330800D01*
X48548340Y-81330800D01*
X48568126Y-81519056D01*
X48568127Y-81519059D01*
X48626618Y-81699077D01*
X48626621Y-81699084D01*
X48721267Y-81863016D01*
X48847929Y-82003688D01*
X49001065Y-82114948D01*
X49001070Y-82114951D01*
X49173992Y-82191942D01*
X49173997Y-82191944D01*
X49359154Y-82231300D01*
X49359155Y-82231300D01*
X49548444Y-82231300D01*
X49548446Y-82231300D01*
X49733603Y-82191944D01*
X49906530Y-82114951D01*
X50059671Y-82003688D01*
X50186333Y-81863016D01*
X50280979Y-81699084D01*
X50339474Y-81519056D01*
X50359260Y-81330800D01*
X50339474Y-81142544D01*
X50280979Y-80962516D01*
X50186333Y-80798584D01*
X50059671Y-80657912D01*
X50059670Y-80657911D01*
X49906534Y-80546651D01*
X49906529Y-80546648D01*
X49733607Y-80469657D01*
X49733602Y-80469655D01*
X49587801Y-80438665D01*
X49548446Y-80430300D01*
X49359154Y-80430300D01*
X49326697Y-80437198D01*
X49173997Y-80469655D01*
X49173992Y-80469657D01*
X49001070Y-80546648D01*
X49001065Y-80546651D01*
X48847929Y-80657911D01*
X48721266Y-80798585D01*
X48626621Y-80962515D01*
X48626618Y-80962522D01*
X48568127Y-81142540D01*
X48568126Y-81142544D01*
X48548340Y-81330800D01*
X24000000Y-81330800D01*
X24000000Y-75934000D01*
X32037671Y-75934000D01*
X32057457Y-76122256D01*
X32057458Y-76122259D01*
X32115949Y-76302277D01*
X32115952Y-76302284D01*
X32210598Y-76466216D01*
X32329795Y-76598597D01*
X32337260Y-76606888D01*
X32490396Y-76718148D01*
X32490401Y-76718151D01*
X32663323Y-76795142D01*
X32663328Y-76795144D01*
X32848485Y-76834500D01*
X32848486Y-76834500D01*
X33037775Y-76834500D01*
X33037777Y-76834500D01*
X33222934Y-76795144D01*
X33395861Y-76718151D01*
X33549002Y-76606888D01*
X33675664Y-76466216D01*
X33770310Y-76302284D01*
X33828805Y-76122256D01*
X33848591Y-75934000D01*
X33828805Y-75745744D01*
X33770310Y-75565716D01*
X33675664Y-75401784D01*
X33549002Y-75261112D01*
X33549001Y-75261111D01*
X33395865Y-75149851D01*
X33395860Y-75149848D01*
X33222938Y-75072857D01*
X33222933Y-75072855D01*
X33076144Y-75041655D01*
X33037777Y-75033500D01*
X32848485Y-75033500D01*
X32816028Y-75040398D01*
X32663328Y-75072855D01*
X32663323Y-75072857D01*
X32490401Y-75149848D01*
X32490396Y-75149851D01*
X32337260Y-75261111D01*
X32210597Y-75401785D01*
X32115952Y-75565715D01*
X32115949Y-75565722D01*
X32077909Y-75682799D01*
X32057457Y-75745744D01*
X32037671Y-75934000D01*
X24000000Y-75934000D01*
X24000000Y-74422000D01*
X37906901Y-74422000D01*
X37925252Y-74608331D01*
X37925253Y-74608333D01*
X37979604Y-74787502D01*
X38067862Y-74952623D01*
X38067864Y-74952626D01*
X38186642Y-75097357D01*
X38331373Y-75216135D01*
X38331376Y-75216137D01*
X38496497Y-75304395D01*
X38496499Y-75304396D01*
X38675666Y-75358746D01*
X38675668Y-75358747D01*
X38692374Y-75360392D01*
X38862000Y-75377099D01*
X39048331Y-75358747D01*
X39227501Y-75304396D01*
X39392625Y-75216136D01*
X39537357Y-75097357D01*
X39656136Y-74952625D01*
X39695381Y-74879203D01*
X40290909Y-74879203D01*
X40309212Y-75041655D01*
X40363210Y-75195974D01*
X40404139Y-75261111D01*
X40450192Y-75334404D01*
X40565796Y-75450008D01*
X40704225Y-75536989D01*
X40858539Y-75590986D01*
X40858542Y-75590986D01*
X40858544Y-75590987D01*
X41020996Y-75609291D01*
X41021000Y-75609291D01*
X41021004Y-75609291D01*
X41183455Y-75590987D01*
X41183456Y-75590986D01*
X41183461Y-75590986D01*
X41337775Y-75536989D01*
X41476204Y-75450008D01*
X41591808Y-75334404D01*
X41678789Y-75195975D01*
X41732786Y-75041661D01*
X41733706Y-75033500D01*
X41751091Y-74879203D01*
X41751091Y-74879196D01*
X41732787Y-74716744D01*
X41732786Y-74716742D01*
X41732786Y-74716739D01*
X41678789Y-74562425D01*
X41591808Y-74423996D01*
X41476204Y-74308392D01*
X41431004Y-74279991D01*
X41337774Y-74221410D01*
X41183455Y-74167412D01*
X41021004Y-74149109D01*
X41020996Y-74149109D01*
X40858544Y-74167412D01*
X40704225Y-74221410D01*
X40565795Y-74308392D01*
X40450192Y-74423995D01*
X40363210Y-74562425D01*
X40309212Y-74716744D01*
X40290909Y-74879196D01*
X40290909Y-74879203D01*
X39695381Y-74879203D01*
X39744396Y-74787501D01*
X39798747Y-74608331D01*
X39817099Y-74422000D01*
X39798747Y-74235669D01*
X39744396Y-74056499D01*
X39719898Y-74010666D01*
X39656137Y-73891376D01*
X39656135Y-73891373D01*
X39537357Y-73746642D01*
X39392626Y-73627864D01*
X39392623Y-73627862D01*
X39227502Y-73539604D01*
X39048333Y-73485253D01*
X39048331Y-73485252D01*
X38862000Y-73466901D01*
X38675668Y-73485252D01*
X38675666Y-73485253D01*
X38496497Y-73539604D01*
X38331376Y-73627862D01*
X38331373Y-73627864D01*
X38186642Y-73746642D01*
X38067864Y-73891373D01*
X38067862Y-73891376D01*
X37979604Y-74056497D01*
X37925253Y-74235666D01*
X37925252Y-74235668D01*
X37906901Y-74422000D01*
X24000000Y-74422000D01*
X24000000Y-73100003D01*
X67869909Y-73100003D01*
X67888212Y-73262455D01*
X67942210Y-73416774D01*
X67942211Y-73416775D01*
X68029192Y-73555204D01*
X68144796Y-73670808D01*
X68219884Y-73717989D01*
X68283225Y-73757789D01*
X68352442Y-73782009D01*
X68409218Y-73822731D01*
X68434966Y-73887683D01*
X68421510Y-73956245D01*
X68416482Y-73965023D01*
X68342210Y-74083225D01*
X68288212Y-74237544D01*
X68269909Y-74399996D01*
X68269909Y-74400003D01*
X68288212Y-74562455D01*
X68342210Y-74716774D01*
X68342211Y-74716775D01*
X68429192Y-74855204D01*
X68544796Y-74970808D01*
X68683225Y-75057789D01*
X68837539Y-75111786D01*
X68837542Y-75111786D01*
X68837544Y-75111787D01*
X68999996Y-75130091D01*
X69000000Y-75130091D01*
X69000004Y-75130091D01*
X69162455Y-75111787D01*
X69162456Y-75111786D01*
X69162461Y-75111786D01*
X69316775Y-75057789D01*
X69455204Y-74970808D01*
X69570808Y-74855204D01*
X69657789Y-74716775D01*
X69711786Y-74562461D01*
X69722617Y-74466335D01*
X69730091Y-74400003D01*
X69730091Y-74399996D01*
X69711787Y-74237544D01*
X69711786Y-74237542D01*
X69711786Y-74237539D01*
X69657789Y-74083225D01*
X69570808Y-73944796D01*
X69455204Y-73829192D01*
X69341567Y-73757789D01*
X69316772Y-73742209D01*
X69247556Y-73717989D01*
X69190780Y-73677268D01*
X69165033Y-73612315D01*
X69178489Y-73543753D01*
X69183510Y-73534988D01*
X69257789Y-73416775D01*
X69311786Y-73262461D01*
X69330091Y-73100000D01*
X69311786Y-72937539D01*
X69257789Y-72783225D01*
X69170808Y-72644796D01*
X69055204Y-72529192D01*
X68961001Y-72470000D01*
X68916774Y-72442210D01*
X68762455Y-72388212D01*
X68600004Y-72369909D01*
X68599996Y-72369909D01*
X68437544Y-72388212D01*
X68283225Y-72442210D01*
X68144795Y-72529192D01*
X68029192Y-72644795D01*
X67942210Y-72783225D01*
X67888212Y-72937544D01*
X67869909Y-73099996D01*
X67869909Y-73100003D01*
X24000000Y-73100003D01*
X24000000Y-70866000D01*
X43240901Y-70866000D01*
X43259252Y-71052331D01*
X43259253Y-71052333D01*
X43313604Y-71231502D01*
X43401862Y-71396623D01*
X43401864Y-71396626D01*
X43520642Y-71541357D01*
X43665373Y-71660135D01*
X43665376Y-71660137D01*
X43830497Y-71748395D01*
X43830499Y-71748396D01*
X44009666Y-71802746D01*
X44009668Y-71802747D01*
X44026374Y-71804392D01*
X44196000Y-71821099D01*
X44382331Y-71802747D01*
X44561501Y-71748396D01*
X44726625Y-71660136D01*
X44871357Y-71541357D01*
X44990136Y-71396625D01*
X45078396Y-71231501D01*
X45112220Y-71120000D01*
X61128341Y-71120000D01*
X61148936Y-71355403D01*
X61148938Y-71355413D01*
X61210094Y-71583655D01*
X61210096Y-71583659D01*
X61210097Y-71583663D01*
X61309965Y-71797830D01*
X61309967Y-71797834D01*
X61418281Y-71952521D01*
X61445505Y-71991401D01*
X61612599Y-72158495D01*
X61689135Y-72212086D01*
X61806165Y-72294032D01*
X61806167Y-72294033D01*
X61806170Y-72294035D01*
X62020337Y-72393903D01*
X62248592Y-72455063D01*
X62419319Y-72470000D01*
X62483999Y-72475659D01*
X62484000Y-72475659D01*
X62484001Y-72475659D01*
X62548681Y-72470000D01*
X62719408Y-72455063D01*
X62947663Y-72393903D01*
X63161830Y-72294035D01*
X63355401Y-72158495D01*
X63477717Y-72036178D01*
X63539036Y-72002696D01*
X63608728Y-72007680D01*
X63664662Y-72049551D01*
X63681577Y-72080528D01*
X63730646Y-72212088D01*
X63730649Y-72212093D01*
X63816809Y-72327187D01*
X63816812Y-72327190D01*
X63931906Y-72413350D01*
X63931913Y-72413354D01*
X64066620Y-72463596D01*
X64066627Y-72463598D01*
X64126155Y-72469999D01*
X64126172Y-72470000D01*
X64774000Y-72470000D01*
X64774000Y-71553012D01*
X64831007Y-71585925D01*
X64958174Y-71620000D01*
X65089826Y-71620000D01*
X65216993Y-71585925D01*
X65274000Y-71553012D01*
X65274000Y-72470000D01*
X65921828Y-72470000D01*
X65921844Y-72469999D01*
X65981372Y-72463598D01*
X65981379Y-72463596D01*
X66116086Y-72413354D01*
X66116093Y-72413350D01*
X66231187Y-72327190D01*
X66231190Y-72327187D01*
X66317350Y-72212093D01*
X66317354Y-72212086D01*
X66367596Y-72077379D01*
X66367598Y-72077372D01*
X66373999Y-72017844D01*
X66374000Y-72017827D01*
X66374000Y-71370000D01*
X65457012Y-71370000D01*
X65489925Y-71312993D01*
X65524000Y-71185826D01*
X65524000Y-71054174D01*
X65489925Y-70927007D01*
X65457012Y-70870000D01*
X66374000Y-70870000D01*
X66374000Y-70222172D01*
X66373999Y-70222155D01*
X66367598Y-70162627D01*
X66367596Y-70162620D01*
X66317354Y-70027913D01*
X66317350Y-70027906D01*
X66231190Y-69912812D01*
X66231187Y-69912809D01*
X66116093Y-69826649D01*
X66116086Y-69826645D01*
X65981379Y-69776403D01*
X65981372Y-69776401D01*
X65921844Y-69770000D01*
X65274000Y-69770000D01*
X65274000Y-70686988D01*
X65216993Y-70654075D01*
X65089826Y-70620000D01*
X64958174Y-70620000D01*
X64831007Y-70654075D01*
X64774000Y-70686988D01*
X64774000Y-69770000D01*
X64126155Y-69770000D01*
X64066627Y-69776401D01*
X64066620Y-69776403D01*
X63931913Y-69826645D01*
X63931906Y-69826649D01*
X63816812Y-69912809D01*
X63816809Y-69912812D01*
X63730649Y-70027906D01*
X63730645Y-70027913D01*
X63681578Y-70159470D01*
X63639707Y-70215404D01*
X63574242Y-70239821D01*
X63505969Y-70224969D01*
X63477715Y-70203819D01*
X63433366Y-70159470D01*
X63355401Y-70081505D01*
X63355397Y-70081502D01*
X63355396Y-70081501D01*
X63161834Y-69945967D01*
X63161830Y-69945965D01*
X63059374Y-69898189D01*
X62947663Y-69846097D01*
X62947659Y-69846096D01*
X62947655Y-69846094D01*
X62719413Y-69784938D01*
X62719403Y-69784936D01*
X62484001Y-69764341D01*
X62483999Y-69764341D01*
X62248596Y-69784936D01*
X62248586Y-69784938D01*
X62020344Y-69846094D01*
X62020335Y-69846098D01*
X61806171Y-69945964D01*
X61806169Y-69945965D01*
X61612597Y-70081505D01*
X61445505Y-70248597D01*
X61309965Y-70442169D01*
X61309964Y-70442171D01*
X61210098Y-70656335D01*
X61210094Y-70656344D01*
X61148938Y-70884586D01*
X61148936Y-70884596D01*
X61128341Y-71119999D01*
X61128341Y-71120000D01*
X45112220Y-71120000D01*
X45132747Y-71052331D01*
X45151099Y-70866000D01*
X45132747Y-70679669D01*
X45078396Y-70500499D01*
X45078395Y-70500497D01*
X44990137Y-70335376D01*
X44990135Y-70335373D01*
X44871357Y-70190642D01*
X44726626Y-70071864D01*
X44726623Y-70071862D01*
X44561502Y-69983604D01*
X44382333Y-69929253D01*
X44382331Y-69929252D01*
X44196000Y-69910901D01*
X44009668Y-69929252D01*
X44009666Y-69929253D01*
X43830497Y-69983604D01*
X43665376Y-70071862D01*
X43665373Y-70071864D01*
X43520642Y-70190642D01*
X43401864Y-70335373D01*
X43401862Y-70335376D01*
X43313604Y-70500497D01*
X43259253Y-70679666D01*
X43259252Y-70679668D01*
X43240901Y-70866000D01*
X24000000Y-70866000D01*
X24000000Y-70104003D01*
X36607909Y-70104003D01*
X36626212Y-70266455D01*
X36680210Y-70420774D01*
X36730304Y-70500497D01*
X36767192Y-70559204D01*
X36882796Y-70674808D01*
X37021225Y-70761789D01*
X37175539Y-70815786D01*
X37175542Y-70815786D01*
X37175544Y-70815787D01*
X37337996Y-70834091D01*
X37338000Y-70834091D01*
X37338004Y-70834091D01*
X37500455Y-70815787D01*
X37500456Y-70815786D01*
X37500461Y-70815786D01*
X37654775Y-70761789D01*
X37793204Y-70674808D01*
X37885319Y-70582693D01*
X37946642Y-70549208D01*
X38016334Y-70554192D01*
X38060681Y-70582693D01*
X38152796Y-70674808D01*
X38291225Y-70761789D01*
X38445539Y-70815786D01*
X38445542Y-70815786D01*
X38445544Y-70815787D01*
X38607996Y-70834091D01*
X38608000Y-70834091D01*
X38608004Y-70834091D01*
X38770455Y-70815787D01*
X38770456Y-70815786D01*
X38770461Y-70815786D01*
X38924775Y-70761789D01*
X39063204Y-70674808D01*
X39178808Y-70559204D01*
X39265789Y-70420775D01*
X39319786Y-70266461D01*
X39324461Y-70224969D01*
X39338091Y-70104003D01*
X39338091Y-70103996D01*
X39319787Y-69941544D01*
X39319786Y-69941542D01*
X39319786Y-69941539D01*
X39265789Y-69787225D01*
X39178808Y-69648796D01*
X39063204Y-69533192D01*
X38924774Y-69446210D01*
X38770455Y-69392212D01*
X38608004Y-69373909D01*
X38607996Y-69373909D01*
X38445544Y-69392212D01*
X38291225Y-69446210D01*
X38152795Y-69533192D01*
X38060681Y-69625307D01*
X37999358Y-69658792D01*
X37929666Y-69653808D01*
X37885319Y-69625307D01*
X37793204Y-69533192D01*
X37654774Y-69446210D01*
X37500455Y-69392212D01*
X37338004Y-69373909D01*
X37337996Y-69373909D01*
X37175544Y-69392212D01*
X37021225Y-69446210D01*
X36882795Y-69533192D01*
X36767192Y-69648795D01*
X36680210Y-69787225D01*
X36626212Y-69941544D01*
X36607909Y-70103996D01*
X36607909Y-70104003D01*
X24000000Y-70104003D01*
X24000000Y-69240403D01*
X33077309Y-69240403D01*
X33095612Y-69402855D01*
X33149610Y-69557174D01*
X33149611Y-69557175D01*
X33236592Y-69695604D01*
X33352196Y-69811208D01*
X33490625Y-69898189D01*
X33644939Y-69952186D01*
X33644942Y-69952186D01*
X33644944Y-69952187D01*
X33807396Y-69970491D01*
X33807400Y-69970491D01*
X33807404Y-69970491D01*
X33969855Y-69952187D01*
X33969856Y-69952186D01*
X33969861Y-69952186D01*
X34124175Y-69898189D01*
X34262604Y-69811208D01*
X34378208Y-69695604D01*
X34465189Y-69557175D01*
X34519186Y-69402861D01*
X34537491Y-69240400D01*
X34519186Y-69077939D01*
X34465189Y-68923625D01*
X34378208Y-68785196D01*
X34262604Y-68669592D01*
X34219976Y-68642807D01*
X34124174Y-68582610D01*
X33969855Y-68528612D01*
X33807404Y-68510309D01*
X33807396Y-68510309D01*
X33644944Y-68528612D01*
X33490625Y-68582610D01*
X33352195Y-68669592D01*
X33236592Y-68785195D01*
X33149610Y-68923625D01*
X33095612Y-69077944D01*
X33077309Y-69240396D01*
X33077309Y-69240403D01*
X24000000Y-69240403D01*
X24000000Y-67382777D01*
X24019685Y-67315738D01*
X24072489Y-67269983D01*
X24141647Y-67260039D01*
X24205203Y-67289064D01*
X24236382Y-67330373D01*
X24251398Y-67362575D01*
X24251399Y-67362577D01*
X24386894Y-67556082D01*
X24553917Y-67723105D01*
X24747421Y-67858600D01*
X24961507Y-67958429D01*
X24961516Y-67958433D01*
X25175000Y-68015634D01*
X25175000Y-67118012D01*
X25232007Y-67150925D01*
X25359174Y-67185000D01*
X25490826Y-67185000D01*
X25617993Y-67150925D01*
X25675000Y-67118012D01*
X25675000Y-68015633D01*
X25888483Y-67958433D01*
X25888492Y-67958429D01*
X26102578Y-67858600D01*
X26296082Y-67723105D01*
X26463105Y-67556082D01*
X26598600Y-67362578D01*
X26617520Y-67322003D01*
X28530709Y-67322003D01*
X28549012Y-67484455D01*
X28603010Y-67638774D01*
X28603836Y-67640088D01*
X28689992Y-67777204D01*
X28805596Y-67892808D01*
X28944025Y-67979789D01*
X29098339Y-68033786D01*
X29098342Y-68033786D01*
X29098344Y-68033787D01*
X29260796Y-68052091D01*
X29260800Y-68052091D01*
X29260804Y-68052091D01*
X29423255Y-68033787D01*
X29423256Y-68033786D01*
X29423261Y-68033786D01*
X29577575Y-67979789D01*
X29716004Y-67892808D01*
X29831608Y-67777204D01*
X29918589Y-67638775D01*
X29935866Y-67589401D01*
X32289909Y-67589401D01*
X32308212Y-67751853D01*
X32362210Y-67906172D01*
X32430990Y-68015634D01*
X32449192Y-68044602D01*
X32564796Y-68160206D01*
X32703225Y-68247187D01*
X32857539Y-68301184D01*
X32857542Y-68301184D01*
X32857544Y-68301185D01*
X33019996Y-68319489D01*
X33020000Y-68319489D01*
X33020004Y-68319489D01*
X33182455Y-68301185D01*
X33182456Y-68301184D01*
X33182461Y-68301184D01*
X33336775Y-68247187D01*
X33475204Y-68160206D01*
X33563407Y-68072003D01*
X37623909Y-68072003D01*
X37642212Y-68234455D01*
X37696210Y-68388774D01*
X37696211Y-68388775D01*
X37783192Y-68527204D01*
X37898796Y-68642808D01*
X38037225Y-68729789D01*
X38191539Y-68783786D01*
X38191542Y-68783786D01*
X38191544Y-68783787D01*
X38353996Y-68802091D01*
X38354000Y-68802091D01*
X38354004Y-68802091D01*
X38516455Y-68783787D01*
X38516456Y-68783786D01*
X38516461Y-68783786D01*
X38670775Y-68729789D01*
X38809204Y-68642808D01*
X38924808Y-68527204D01*
X39011789Y-68388775D01*
X39065786Y-68234461D01*
X39074153Y-68160205D01*
X39084091Y-68072003D01*
X39084091Y-68071996D01*
X39065787Y-67909544D01*
X39065786Y-67909542D01*
X39065786Y-67909539D01*
X39011789Y-67755225D01*
X38924808Y-67616796D01*
X38809204Y-67501192D01*
X38750302Y-67464181D01*
X38670774Y-67414210D01*
X38516455Y-67360212D01*
X38354004Y-67341909D01*
X38353996Y-67341909D01*
X38191544Y-67360212D01*
X38037225Y-67414210D01*
X37898795Y-67501192D01*
X37783192Y-67616795D01*
X37696210Y-67755225D01*
X37642212Y-67909544D01*
X37623909Y-68071996D01*
X37623909Y-68072003D01*
X33563407Y-68072003D01*
X33590808Y-68044602D01*
X33677789Y-67906173D01*
X33731786Y-67751859D01*
X33735026Y-67723105D01*
X33750091Y-67589401D01*
X33750091Y-67589394D01*
X33731787Y-67426942D01*
X33731786Y-67426940D01*
X33731786Y-67426937D01*
X33690867Y-67309998D01*
X43240901Y-67309998D01*
X43259252Y-67496329D01*
X43259253Y-67496331D01*
X43313604Y-67675500D01*
X43401862Y-67840621D01*
X43401864Y-67840624D01*
X43520642Y-67985355D01*
X43665373Y-68104133D01*
X43665376Y-68104135D01*
X43770277Y-68160205D01*
X43830499Y-68192394D01*
X44009666Y-68246744D01*
X44009668Y-68246745D01*
X44026374Y-68248390D01*
X44196000Y-68265097D01*
X44382331Y-68246745D01*
X44561501Y-68192394D01*
X44726625Y-68104134D01*
X44871357Y-67985355D01*
X44990136Y-67840623D01*
X45078396Y-67675499D01*
X45132747Y-67496329D01*
X45151099Y-67309998D01*
X45132747Y-67123667D01*
X45078396Y-66944497D01*
X45042849Y-66877993D01*
X44990137Y-66779374D01*
X44990135Y-66779371D01*
X44871357Y-66634640D01*
X44765786Y-66548000D01*
X61128341Y-66548000D01*
X61148936Y-66783403D01*
X61148938Y-66783413D01*
X61210094Y-67011655D01*
X61210096Y-67011659D01*
X61210097Y-67011663D01*
X61273899Y-67148486D01*
X61309965Y-67225830D01*
X61309967Y-67225834D01*
X61368900Y-67309998D01*
X61445505Y-67419401D01*
X61612599Y-67586495D01*
X61670188Y-67626819D01*
X61806165Y-67722032D01*
X61806167Y-67722033D01*
X61806170Y-67722035D01*
X62020337Y-67821903D01*
X62248592Y-67883063D01*
X62419319Y-67898000D01*
X62483999Y-67903659D01*
X62484000Y-67903659D01*
X62484001Y-67903659D01*
X62548681Y-67898000D01*
X62719408Y-67883063D01*
X62947663Y-67821903D01*
X63161830Y-67722035D01*
X63355401Y-67586495D01*
X63477717Y-67464178D01*
X63539036Y-67430696D01*
X63608728Y-67435680D01*
X63664662Y-67477551D01*
X63681577Y-67508528D01*
X63730646Y-67640088D01*
X63730649Y-67640093D01*
X63816809Y-67755187D01*
X63816812Y-67755190D01*
X63931906Y-67841350D01*
X63931913Y-67841354D01*
X64066620Y-67891596D01*
X64066627Y-67891598D01*
X64126155Y-67897999D01*
X64126172Y-67898000D01*
X64774000Y-67898000D01*
X64774000Y-66981012D01*
X64831007Y-67013925D01*
X64958174Y-67048000D01*
X65089826Y-67048000D01*
X65216993Y-67013925D01*
X65274000Y-66981012D01*
X65274000Y-67898000D01*
X65921828Y-67898000D01*
X65921844Y-67897999D01*
X65981372Y-67891598D01*
X65981379Y-67891596D01*
X66116086Y-67841354D01*
X66116093Y-67841350D01*
X66231187Y-67755190D01*
X66231190Y-67755187D01*
X66317350Y-67640093D01*
X66317354Y-67640086D01*
X66367596Y-67505379D01*
X66367598Y-67505372D01*
X66373999Y-67445844D01*
X66374000Y-67445827D01*
X66374000Y-67056015D01*
X70135909Y-67056015D01*
X70154212Y-67218467D01*
X70208210Y-67372786D01*
X70237501Y-67419402D01*
X70295192Y-67511216D01*
X70410796Y-67626820D01*
X70549225Y-67713801D01*
X70703539Y-67767798D01*
X70703542Y-67767798D01*
X70703544Y-67767799D01*
X70865996Y-67786103D01*
X70866000Y-67786103D01*
X70866004Y-67786103D01*
X71028455Y-67767799D01*
X71028456Y-67767798D01*
X71028461Y-67767798D01*
X71182775Y-67713801D01*
X71321204Y-67626820D01*
X71436808Y-67511216D01*
X71523789Y-67372787D01*
X71577786Y-67218473D01*
X71584426Y-67159544D01*
X71596091Y-67056015D01*
X71596091Y-67056008D01*
X71577787Y-66893556D01*
X71577786Y-66893554D01*
X71577786Y-66893551D01*
X71523789Y-66739237D01*
X71436808Y-66600808D01*
X71321204Y-66485204D01*
X71316382Y-66482174D01*
X71182774Y-66398222D01*
X71028455Y-66344224D01*
X70866004Y-66325921D01*
X70865996Y-66325921D01*
X70703544Y-66344224D01*
X70549225Y-66398222D01*
X70410795Y-66485204D01*
X70295192Y-66600807D01*
X70208210Y-66739237D01*
X70154212Y-66893556D01*
X70135909Y-67056008D01*
X70135909Y-67056015D01*
X66374000Y-67056015D01*
X66374000Y-66798000D01*
X65457012Y-66798000D01*
X65489925Y-66740993D01*
X65524000Y-66613826D01*
X65524000Y-66482174D01*
X65489925Y-66355007D01*
X65457012Y-66298000D01*
X66374000Y-66298000D01*
X66374000Y-65650172D01*
X66373999Y-65650155D01*
X66367598Y-65590627D01*
X66367596Y-65590620D01*
X66317354Y-65455913D01*
X66317350Y-65455906D01*
X66231190Y-65340812D01*
X66231187Y-65340809D01*
X66116093Y-65254649D01*
X66116086Y-65254645D01*
X65981379Y-65204403D01*
X65981372Y-65204401D01*
X65921844Y-65198000D01*
X65274000Y-65198000D01*
X65274000Y-66114988D01*
X65216993Y-66082075D01*
X65089826Y-66048000D01*
X64958174Y-66048000D01*
X64831007Y-66082075D01*
X64774000Y-66114988D01*
X64774000Y-65198000D01*
X64126155Y-65198000D01*
X64066627Y-65204401D01*
X64066620Y-65204403D01*
X63931913Y-65254645D01*
X63931906Y-65254649D01*
X63816812Y-65340809D01*
X63816809Y-65340812D01*
X63730649Y-65455906D01*
X63730645Y-65455913D01*
X63681578Y-65587470D01*
X63639707Y-65643404D01*
X63574242Y-65667821D01*
X63505969Y-65652969D01*
X63477715Y-65631819D01*
X63433366Y-65587470D01*
X63355401Y-65509505D01*
X63355397Y-65509502D01*
X63355396Y-65509501D01*
X63161834Y-65373967D01*
X63161830Y-65373965D01*
X63090727Y-65340809D01*
X62947663Y-65274097D01*
X62947659Y-65274096D01*
X62947655Y-65274094D01*
X62719413Y-65212938D01*
X62719403Y-65212936D01*
X62484001Y-65192341D01*
X62483999Y-65192341D01*
X62248596Y-65212936D01*
X62248586Y-65212938D01*
X62020344Y-65274094D01*
X62020335Y-65274098D01*
X61806171Y-65373964D01*
X61806169Y-65373965D01*
X61612597Y-65509505D01*
X61445505Y-65676597D01*
X61309965Y-65870169D01*
X61309964Y-65870171D01*
X61210098Y-66084335D01*
X61210094Y-66084344D01*
X61148938Y-66312586D01*
X61148936Y-66312596D01*
X61128341Y-66547999D01*
X61128341Y-66548000D01*
X44765786Y-66548000D01*
X44726626Y-66515862D01*
X44726623Y-66515860D01*
X44561502Y-66427602D01*
X44382333Y-66373251D01*
X44382331Y-66373250D01*
X44196000Y-66354899D01*
X44009668Y-66373250D01*
X44009666Y-66373251D01*
X43830497Y-66427602D01*
X43665376Y-66515860D01*
X43665373Y-66515862D01*
X43520642Y-66634640D01*
X43401864Y-66779371D01*
X43401862Y-66779374D01*
X43313604Y-66944495D01*
X43259253Y-67123664D01*
X43259252Y-67123666D01*
X43240901Y-67309998D01*
X33690867Y-67309998D01*
X33677789Y-67272623D01*
X33590808Y-67134194D01*
X33475204Y-67018590D01*
X33363019Y-66948099D01*
X33336774Y-66931608D01*
X33182455Y-66877610D01*
X33020004Y-66859307D01*
X33019996Y-66859307D01*
X32857544Y-66877610D01*
X32703225Y-66931608D01*
X32564795Y-67018590D01*
X32449192Y-67134193D01*
X32362210Y-67272623D01*
X32308212Y-67426942D01*
X32289909Y-67589394D01*
X32289909Y-67589401D01*
X29935866Y-67589401D01*
X29972586Y-67484461D01*
X29976939Y-67445827D01*
X29990891Y-67322003D01*
X29990891Y-67321996D01*
X29972587Y-67159544D01*
X29972586Y-67159542D01*
X29972586Y-67159539D01*
X29918589Y-67005225D01*
X29831608Y-66866796D01*
X29716004Y-66751192D01*
X29715422Y-66750826D01*
X29577574Y-66664210D01*
X29423255Y-66610212D01*
X29260804Y-66591909D01*
X29260796Y-66591909D01*
X29098344Y-66610212D01*
X28944025Y-66664210D01*
X28805595Y-66751192D01*
X28689992Y-66866795D01*
X28603010Y-67005225D01*
X28549012Y-67159544D01*
X28530709Y-67321996D01*
X28530709Y-67322003D01*
X26617520Y-67322003D01*
X26698429Y-67148492D01*
X26698432Y-67148486D01*
X26755636Y-66935000D01*
X25858012Y-66935000D01*
X25890925Y-66877993D01*
X25925000Y-66750826D01*
X25925000Y-66619174D01*
X25890925Y-66492007D01*
X25858012Y-66435000D01*
X26755636Y-66435000D01*
X26755635Y-66434999D01*
X26698432Y-66221513D01*
X26698429Y-66221507D01*
X26598600Y-66007422D01*
X26598599Y-66007420D01*
X26463113Y-65813926D01*
X26463108Y-65813920D01*
X26296078Y-65646890D01*
X26110405Y-65516879D01*
X26066780Y-65462302D01*
X26059588Y-65392804D01*
X26091110Y-65330449D01*
X26110406Y-65313730D01*
X26296401Y-65183495D01*
X26430493Y-65049403D01*
X29114909Y-65049403D01*
X29133212Y-65211855D01*
X29187210Y-65366174D01*
X29206823Y-65397387D01*
X29274192Y-65504604D01*
X29389796Y-65620208D01*
X29528225Y-65707189D01*
X29682539Y-65761186D01*
X29682542Y-65761186D01*
X29682544Y-65761187D01*
X29844996Y-65779491D01*
X29845000Y-65779491D01*
X29845004Y-65779491D01*
X30007455Y-65761187D01*
X30007456Y-65761186D01*
X30007461Y-65761186D01*
X30161775Y-65707189D01*
X30300204Y-65620208D01*
X30415808Y-65504604D01*
X30502789Y-65366175D01*
X30556786Y-65211861D01*
X30556787Y-65211855D01*
X30575091Y-65049403D01*
X30575091Y-65049396D01*
X30556787Y-64886944D01*
X30556786Y-64886942D01*
X30556786Y-64886939D01*
X30515867Y-64770000D01*
X54371225Y-64770000D01*
X54390287Y-64987884D01*
X54390289Y-64987894D01*
X54446894Y-65199150D01*
X54446898Y-65199159D01*
X54539333Y-65397387D01*
X54582874Y-65459571D01*
X55183861Y-64858584D01*
X55206667Y-64943694D01*
X55265910Y-65046306D01*
X55349694Y-65130090D01*
X55452306Y-65189333D01*
X55537414Y-65212137D01*
X54936427Y-65813124D01*
X54998612Y-65856666D01*
X55196840Y-65949101D01*
X55196849Y-65949105D01*
X55408105Y-66005710D01*
X55408115Y-66005712D01*
X55625999Y-66024775D01*
X55626001Y-66024775D01*
X55843884Y-66005712D01*
X55843894Y-66005710D01*
X56055150Y-65949105D01*
X56055164Y-65949100D01*
X56253383Y-65856669D01*
X56253385Y-65856668D01*
X56315571Y-65813124D01*
X55714585Y-65212137D01*
X55799694Y-65189333D01*
X55902306Y-65130090D01*
X55986090Y-65046306D01*
X56045333Y-64943694D01*
X56068138Y-64858584D01*
X56669124Y-65459570D01*
X56712668Y-65397385D01*
X56712669Y-65397383D01*
X56805100Y-65199164D01*
X56805105Y-65199150D01*
X56861710Y-64987894D01*
X56861712Y-64987884D01*
X56880775Y-64770000D01*
X56880775Y-64769999D01*
X56861712Y-64552115D01*
X56861710Y-64552105D01*
X56805105Y-64340849D01*
X56805101Y-64340840D01*
X56712667Y-64142614D01*
X56712666Y-64142612D01*
X56669124Y-64080428D01*
X56669124Y-64080427D01*
X56068137Y-64681414D01*
X56045333Y-64596306D01*
X55986090Y-64493694D01*
X55902306Y-64409910D01*
X55799694Y-64350667D01*
X55714584Y-64327861D01*
X56315571Y-63726874D01*
X56253387Y-63683333D01*
X56055159Y-63590898D01*
X56055150Y-63590894D01*
X55843894Y-63534289D01*
X55843884Y-63534287D01*
X55626001Y-63515225D01*
X55625999Y-63515225D01*
X55408115Y-63534287D01*
X55408105Y-63534289D01*
X55196849Y-63590894D01*
X55196840Y-63590898D01*
X54998613Y-63683333D01*
X54936428Y-63726874D01*
X55537415Y-64327861D01*
X55452306Y-64350667D01*
X55349694Y-64409910D01*
X55265910Y-64493694D01*
X55206667Y-64596306D01*
X55183861Y-64681415D01*
X54582874Y-64080428D01*
X54539333Y-64142613D01*
X54446898Y-64340840D01*
X54446894Y-64340849D01*
X54390289Y-64552105D01*
X54390287Y-64552115D01*
X54371225Y-64769999D01*
X54371225Y-64770000D01*
X30515867Y-64770000D01*
X30502789Y-64732625D01*
X30415808Y-64594196D01*
X30300204Y-64478592D01*
X30161774Y-64391610D01*
X30007455Y-64337612D01*
X29845004Y-64319309D01*
X29844996Y-64319309D01*
X29682544Y-64337612D01*
X29528225Y-64391610D01*
X29389795Y-64478592D01*
X29274192Y-64594195D01*
X29187210Y-64732625D01*
X29133212Y-64886944D01*
X29114909Y-65049396D01*
X29114909Y-65049403D01*
X26430493Y-65049403D01*
X26463495Y-65016401D01*
X26599035Y-64822830D01*
X26698903Y-64608663D01*
X26760063Y-64380408D01*
X26780659Y-64145000D01*
X26760063Y-63909592D01*
X26698903Y-63681337D01*
X26599035Y-63467171D01*
X26566213Y-63420295D01*
X26550882Y-63398400D01*
X29905901Y-63398400D01*
X29924252Y-63584731D01*
X29924253Y-63584733D01*
X29978604Y-63763902D01*
X30066862Y-63929023D01*
X30066864Y-63929026D01*
X30185642Y-64073757D01*
X30330373Y-64192535D01*
X30330376Y-64192537D01*
X30495497Y-64280795D01*
X30495499Y-64280796D01*
X30674666Y-64335146D01*
X30674668Y-64335147D01*
X30691374Y-64336792D01*
X30861000Y-64353499D01*
X31047331Y-64335147D01*
X31226501Y-64280796D01*
X31391625Y-64192536D01*
X31536357Y-64073757D01*
X31655136Y-63929025D01*
X31743396Y-63763901D01*
X31797747Y-63584731D01*
X31816099Y-63398400D01*
X36941701Y-63398400D01*
X36960052Y-63584731D01*
X36960053Y-63584733D01*
X37014404Y-63763902D01*
X37102662Y-63929023D01*
X37102664Y-63929026D01*
X37221442Y-64073757D01*
X37366173Y-64192535D01*
X37366176Y-64192537D01*
X37531297Y-64280795D01*
X37531299Y-64280796D01*
X37710466Y-64335146D01*
X37710468Y-64335147D01*
X37727174Y-64336792D01*
X37896800Y-64353499D01*
X38083131Y-64335147D01*
X38262301Y-64280796D01*
X38427425Y-64192536D01*
X38572157Y-64073757D01*
X38690936Y-63929025D01*
X38719544Y-63875503D01*
X41820409Y-63875503D01*
X41838712Y-64037955D01*
X41892710Y-64192274D01*
X41972532Y-64319309D01*
X41979692Y-64330704D01*
X42095296Y-64446308D01*
X42233725Y-64533289D01*
X42388039Y-64587286D01*
X42388042Y-64587286D01*
X42388044Y-64587287D01*
X42550496Y-64605591D01*
X42550500Y-64605591D01*
X42550504Y-64605591D01*
X42712955Y-64587287D01*
X42712956Y-64587286D01*
X42712961Y-64587286D01*
X42867275Y-64533289D01*
X43005704Y-64446308D01*
X43121308Y-64330704D01*
X43208289Y-64192275D01*
X43262286Y-64037961D01*
X43274560Y-63929026D01*
X43280591Y-63875503D01*
X45122409Y-63875503D01*
X45140712Y-64037955D01*
X45194710Y-64192274D01*
X45274532Y-64319309D01*
X45281692Y-64330704D01*
X45397296Y-64446308D01*
X45535725Y-64533289D01*
X45690039Y-64587286D01*
X45690042Y-64587286D01*
X45690044Y-64587287D01*
X45852496Y-64605591D01*
X45852500Y-64605591D01*
X45852504Y-64605591D01*
X46014955Y-64587287D01*
X46014956Y-64587286D01*
X46014961Y-64587286D01*
X46169275Y-64533289D01*
X46307704Y-64446308D01*
X46423308Y-64330704D01*
X46510289Y-64192275D01*
X46564286Y-64037961D01*
X46576560Y-63929026D01*
X46582591Y-63875503D01*
X46582591Y-63875496D01*
X46564287Y-63713044D01*
X46564286Y-63713042D01*
X46564286Y-63713039D01*
X46510289Y-63558725D01*
X46423308Y-63420296D01*
X46307704Y-63304692D01*
X46258217Y-63273597D01*
X46169274Y-63217710D01*
X46014955Y-63163712D01*
X45852504Y-63145409D01*
X45852496Y-63145409D01*
X45690044Y-63163712D01*
X45535725Y-63217710D01*
X45397295Y-63304692D01*
X45281692Y-63420295D01*
X45194710Y-63558725D01*
X45140712Y-63713044D01*
X45122409Y-63875496D01*
X45122409Y-63875503D01*
X43280591Y-63875503D01*
X43280591Y-63875496D01*
X43262287Y-63713044D01*
X43262286Y-63713042D01*
X43262286Y-63713039D01*
X43208289Y-63558725D01*
X43121308Y-63420296D01*
X43005704Y-63304692D01*
X42956217Y-63273597D01*
X42867274Y-63217710D01*
X42712955Y-63163712D01*
X42550504Y-63145409D01*
X42550496Y-63145409D01*
X42388044Y-63163712D01*
X42233725Y-63217710D01*
X42095295Y-63304692D01*
X41979692Y-63420295D01*
X41892710Y-63558725D01*
X41838712Y-63713044D01*
X41820409Y-63875496D01*
X41820409Y-63875503D01*
X38719544Y-63875503D01*
X38779196Y-63763901D01*
X38833547Y-63584731D01*
X38851899Y-63398400D01*
X38833547Y-63212069D01*
X38779196Y-63032899D01*
X38779195Y-63032897D01*
X38690937Y-62867776D01*
X38690935Y-62867773D01*
X38572157Y-62723042D01*
X38427426Y-62604264D01*
X38427423Y-62604262D01*
X38262302Y-62516004D01*
X38083133Y-62461653D01*
X38083131Y-62461652D01*
X37896800Y-62443301D01*
X37710468Y-62461652D01*
X37710466Y-62461653D01*
X37531297Y-62516004D01*
X37366176Y-62604262D01*
X37366173Y-62604264D01*
X37221442Y-62723042D01*
X37102664Y-62867773D01*
X37102662Y-62867776D01*
X37014404Y-63032897D01*
X36960053Y-63212066D01*
X36960052Y-63212068D01*
X36941701Y-63398400D01*
X31816099Y-63398400D01*
X31797747Y-63212069D01*
X31743396Y-63032899D01*
X31743395Y-63032897D01*
X31655137Y-62867776D01*
X31655135Y-62867773D01*
X31597929Y-62798068D01*
X31570616Y-62733758D01*
X31582407Y-62664891D01*
X31627809Y-62614410D01*
X31697204Y-62570807D01*
X31812808Y-62455203D01*
X31899789Y-62316774D01*
X31953786Y-62162460D01*
X31956491Y-62138455D01*
X31972091Y-62000002D01*
X31972091Y-61999995D01*
X31969388Y-61976003D01*
X73183909Y-61976003D01*
X73202212Y-62138455D01*
X73256210Y-62292774D01*
X73271292Y-62316776D01*
X73343192Y-62431204D01*
X73458796Y-62546808D01*
X73597225Y-62633789D01*
X73751539Y-62687786D01*
X73751542Y-62687786D01*
X73751544Y-62687787D01*
X73913996Y-62706091D01*
X73914000Y-62706091D01*
X73914004Y-62706091D01*
X74076455Y-62687787D01*
X74076456Y-62687786D01*
X74076461Y-62687786D01*
X74230775Y-62633789D01*
X74369204Y-62546808D01*
X74484808Y-62431204D01*
X74571789Y-62292775D01*
X74625786Y-62138461D01*
X74625787Y-62138455D01*
X74644091Y-61976003D01*
X74644091Y-61975996D01*
X74625787Y-61813544D01*
X74625786Y-61813542D01*
X74625786Y-61813539D01*
X74571789Y-61659225D01*
X74484808Y-61520796D01*
X74369204Y-61405192D01*
X74230774Y-61318210D01*
X74076455Y-61264212D01*
X73914004Y-61245909D01*
X73913996Y-61245909D01*
X73751544Y-61264212D01*
X73597225Y-61318210D01*
X73458795Y-61405192D01*
X73343192Y-61520795D01*
X73256210Y-61659225D01*
X73202212Y-61813544D01*
X73183909Y-61975996D01*
X73183909Y-61976003D01*
X31969388Y-61976003D01*
X31953787Y-61837541D01*
X31923206Y-61750146D01*
X31919644Y-61680367D01*
X31954372Y-61619740D01*
X32016366Y-61587512D01*
X32026359Y-61585971D01*
X32075799Y-61580401D01*
X32166455Y-61570187D01*
X32166456Y-61570186D01*
X32166461Y-61570186D01*
X32320775Y-61516189D01*
X32459204Y-61429208D01*
X32574808Y-61313604D01*
X32661789Y-61175175D01*
X32715786Y-61020861D01*
X32715787Y-61020855D01*
X32734091Y-60858403D01*
X32734091Y-60858396D01*
X32715787Y-60695944D01*
X32715786Y-60695942D01*
X32715786Y-60695939D01*
X32661789Y-60541625D01*
X32574808Y-60403196D01*
X32459204Y-60287592D01*
X32386104Y-60241660D01*
X32320774Y-60200610D01*
X32166455Y-60146612D01*
X32004004Y-60128309D01*
X32003996Y-60128309D01*
X31841544Y-60146612D01*
X31687225Y-60200610D01*
X31548795Y-60287592D01*
X31433192Y-60403195D01*
X31346210Y-60541625D01*
X31292212Y-60695944D01*
X31273909Y-60858396D01*
X31273909Y-60858403D01*
X31292212Y-61020855D01*
X31322794Y-61108253D01*
X31326355Y-61178032D01*
X31291626Y-61238659D01*
X31229633Y-61270886D01*
X31219636Y-61272427D01*
X31079544Y-61288211D01*
X30925225Y-61342209D01*
X30786795Y-61429191D01*
X30671192Y-61544794D01*
X30584210Y-61683224D01*
X30530212Y-61837543D01*
X30511909Y-61999995D01*
X30511909Y-62000002D01*
X30530212Y-62162454D01*
X30584211Y-62316776D01*
X30588760Y-62324016D01*
X30607758Y-62391253D01*
X30587388Y-62458088D01*
X30534118Y-62503300D01*
X30519760Y-62508644D01*
X30495497Y-62516004D01*
X30330376Y-62604262D01*
X30330373Y-62604264D01*
X30185642Y-62723042D01*
X30066864Y-62867773D01*
X30066862Y-62867776D01*
X29978604Y-63032897D01*
X29924253Y-63212066D01*
X29924252Y-63212068D01*
X29905901Y-63398400D01*
X26550882Y-63398400D01*
X26463494Y-63273597D01*
X26296402Y-63106506D01*
X26296396Y-63106501D01*
X26110842Y-62976575D01*
X26067217Y-62921998D01*
X26060023Y-62852500D01*
X26091546Y-62790145D01*
X26110842Y-62773425D01*
X26182796Y-62723042D01*
X26296401Y-62643495D01*
X26463495Y-62476401D01*
X26599035Y-62282830D01*
X26698903Y-62068663D01*
X26760063Y-61840408D01*
X26780659Y-61605000D01*
X26760063Y-61369592D01*
X26707970Y-61175175D01*
X26698905Y-61141344D01*
X26698904Y-61141343D01*
X26698903Y-61141337D01*
X26599035Y-60927171D01*
X26550883Y-60858403D01*
X26463496Y-60733600D01*
X26425835Y-60695939D01*
X26341567Y-60611671D01*
X26308084Y-60550351D01*
X26313068Y-60480659D01*
X26354939Y-60424725D01*
X26385915Y-60407810D01*
X26517331Y-60358796D01*
X26632546Y-60272546D01*
X26718796Y-60157331D01*
X26769091Y-60022483D01*
X26775500Y-59962873D01*
X26775499Y-58673985D01*
X30511909Y-58673985D01*
X30530212Y-58836437D01*
X30584210Y-58990756D01*
X30646868Y-59090475D01*
X30671192Y-59129186D01*
X30786796Y-59244790D01*
X30925225Y-59331771D01*
X31079539Y-59385768D01*
X31079542Y-59385768D01*
X31079544Y-59385769D01*
X31241996Y-59404073D01*
X31242000Y-59404073D01*
X31242004Y-59404073D01*
X31404455Y-59385769D01*
X31404456Y-59385768D01*
X31404461Y-59385768D01*
X31558775Y-59331771D01*
X31697204Y-59244790D01*
X31812808Y-59129186D01*
X31899789Y-58990757D01*
X31921741Y-58928023D01*
X34321909Y-58928023D01*
X34340212Y-59090475D01*
X34394210Y-59244794D01*
X34481192Y-59383224D01*
X34596796Y-59498828D01*
X34735225Y-59585809D01*
X34889539Y-59639806D01*
X34889542Y-59639806D01*
X34889544Y-59639807D01*
X35051996Y-59658111D01*
X35052000Y-59658111D01*
X35052004Y-59658111D01*
X35214455Y-59639807D01*
X35214456Y-59639806D01*
X35214461Y-59639806D01*
X35368775Y-59585809D01*
X35507204Y-59498828D01*
X35622808Y-59383224D01*
X35709789Y-59244795D01*
X35763786Y-59090481D01*
X35769217Y-59042284D01*
X35782091Y-58928023D01*
X35782091Y-58928016D01*
X35763787Y-58765564D01*
X35763786Y-58765562D01*
X35763786Y-58765559D01*
X35731748Y-58674000D01*
X36686540Y-58674000D01*
X36706326Y-58862256D01*
X36706327Y-58862259D01*
X36764818Y-59042277D01*
X36764821Y-59042284D01*
X36859467Y-59206216D01*
X36972518Y-59331771D01*
X36986129Y-59346888D01*
X37139265Y-59458148D01*
X37139270Y-59458151D01*
X37312192Y-59535142D01*
X37312197Y-59535144D01*
X37497354Y-59574500D01*
X37497355Y-59574500D01*
X37686644Y-59574500D01*
X37686646Y-59574500D01*
X37871803Y-59535144D01*
X38044730Y-59458151D01*
X38197871Y-59346888D01*
X38324533Y-59206216D01*
X38419179Y-59042284D01*
X38477674Y-58862256D01*
X38497460Y-58674000D01*
X38484112Y-58547003D01*
X38766909Y-58547003D01*
X38785212Y-58709455D01*
X38839210Y-58863774D01*
X38839211Y-58863775D01*
X38926192Y-59002204D01*
X39041796Y-59117808D01*
X39180225Y-59204789D01*
X39334539Y-59258786D01*
X39334542Y-59258786D01*
X39334544Y-59258787D01*
X39496996Y-59277091D01*
X39497000Y-59277091D01*
X39497004Y-59277091D01*
X39659455Y-59258787D01*
X39659456Y-59258786D01*
X39659461Y-59258786D01*
X39813775Y-59204789D01*
X39952204Y-59117808D01*
X40067808Y-59002204D01*
X40154789Y-58863775D01*
X40208786Y-58709461D01*
X40212782Y-58674000D01*
X40227091Y-58547003D01*
X40227091Y-58546996D01*
X40208787Y-58384544D01*
X40208786Y-58384542D01*
X40208786Y-58384539D01*
X40154789Y-58230225D01*
X40067808Y-58091796D01*
X39952204Y-57976192D01*
X39920532Y-57956291D01*
X39813774Y-57889210D01*
X39659455Y-57835212D01*
X39497004Y-57816909D01*
X39496996Y-57816909D01*
X39334544Y-57835212D01*
X39180225Y-57889210D01*
X39041795Y-57976192D01*
X38926192Y-58091795D01*
X38839210Y-58230225D01*
X38785212Y-58384544D01*
X38766909Y-58546996D01*
X38766909Y-58547003D01*
X38484112Y-58547003D01*
X38477674Y-58485744D01*
X38419179Y-58305716D01*
X38324533Y-58141784D01*
X38197871Y-58001112D01*
X38197870Y-58001111D01*
X38044734Y-57889851D01*
X38044729Y-57889848D01*
X37871807Y-57812857D01*
X37871802Y-57812855D01*
X37811336Y-57800003D01*
X64269909Y-57800003D01*
X64288212Y-57962455D01*
X64342210Y-58116774D01*
X64404704Y-58216232D01*
X64429192Y-58255204D01*
X64544796Y-58370808D01*
X64683225Y-58457789D01*
X64837539Y-58511786D01*
X64837542Y-58511786D01*
X64837544Y-58511787D01*
X64999996Y-58530091D01*
X65000000Y-58530091D01*
X65000004Y-58530091D01*
X65162455Y-58511787D01*
X65162456Y-58511786D01*
X65162461Y-58511786D01*
X65316775Y-58457789D01*
X65455204Y-58370808D01*
X65570808Y-58255204D01*
X65657789Y-58116775D01*
X65711786Y-57962461D01*
X65711816Y-57962194D01*
X65730091Y-57800003D01*
X65730091Y-57799996D01*
X65711787Y-57637544D01*
X65711786Y-57637542D01*
X65711786Y-57637539D01*
X65657789Y-57483225D01*
X65570808Y-57344796D01*
X65455204Y-57229192D01*
X65450436Y-57226196D01*
X65316774Y-57142210D01*
X65162455Y-57088212D01*
X65000004Y-57069909D01*
X64999996Y-57069909D01*
X64837544Y-57088212D01*
X64683225Y-57142210D01*
X64544795Y-57229192D01*
X64429192Y-57344795D01*
X64342210Y-57483225D01*
X64288212Y-57637544D01*
X64269909Y-57799996D01*
X64269909Y-57800003D01*
X37811336Y-57800003D01*
X37726001Y-57781865D01*
X37686646Y-57773500D01*
X37497354Y-57773500D01*
X37464897Y-57780398D01*
X37312197Y-57812855D01*
X37312192Y-57812857D01*
X37139270Y-57889848D01*
X37139265Y-57889851D01*
X36986129Y-58001111D01*
X36859466Y-58141785D01*
X36764821Y-58305715D01*
X36764818Y-58305722D01*
X36706327Y-58485740D01*
X36706326Y-58485744D01*
X36686540Y-58674000D01*
X35731748Y-58674000D01*
X35709789Y-58611245D01*
X35622808Y-58472816D01*
X35507204Y-58357212D01*
X35507196Y-58357207D01*
X35368774Y-58270230D01*
X35214455Y-58216232D01*
X35052004Y-58197929D01*
X35051996Y-58197929D01*
X34889544Y-58216232D01*
X34735225Y-58270230D01*
X34596795Y-58357212D01*
X34481192Y-58472815D01*
X34394210Y-58611245D01*
X34340212Y-58765564D01*
X34321909Y-58928016D01*
X34321909Y-58928023D01*
X31921741Y-58928023D01*
X31953786Y-58836443D01*
X31961773Y-58765559D01*
X31972091Y-58673985D01*
X31972091Y-58673978D01*
X31953787Y-58511526D01*
X31953786Y-58511524D01*
X31953786Y-58511521D01*
X31899789Y-58357207D01*
X31812808Y-58218778D01*
X31697204Y-58103174D01*
X31679096Y-58091796D01*
X31558774Y-58016192D01*
X31404455Y-57962194D01*
X31242004Y-57943891D01*
X31241996Y-57943891D01*
X31079544Y-57962194D01*
X30925225Y-58016192D01*
X30786795Y-58103174D01*
X30671192Y-58218777D01*
X30584210Y-58357207D01*
X30530212Y-58511526D01*
X30511909Y-58673978D01*
X30511909Y-58673985D01*
X26775499Y-58673985D01*
X26775499Y-58167128D01*
X26769091Y-58107517D01*
X26767471Y-58103174D01*
X26718797Y-57972671D01*
X26718793Y-57972664D01*
X26632547Y-57857455D01*
X26632544Y-57857452D01*
X26517335Y-57771206D01*
X26517328Y-57771202D01*
X26382482Y-57720908D01*
X26382483Y-57720908D01*
X26322883Y-57714501D01*
X26322881Y-57714500D01*
X26322873Y-57714500D01*
X26322864Y-57714500D01*
X24527129Y-57714500D01*
X24527123Y-57714501D01*
X24467516Y-57720908D01*
X24332671Y-57771202D01*
X24332664Y-57771206D01*
X24217455Y-57857452D01*
X24211681Y-57863227D01*
X24150358Y-57896712D01*
X24080666Y-57891728D01*
X24024733Y-57849856D01*
X24000316Y-57784392D01*
X24000000Y-57775546D01*
X24000000Y-57226203D01*
X31629509Y-57226203D01*
X31647812Y-57388655D01*
X31701810Y-57542974D01*
X31701811Y-57542975D01*
X31788792Y-57681404D01*
X31904396Y-57797008D01*
X32042825Y-57883989D01*
X32197139Y-57937986D01*
X32197142Y-57937986D01*
X32197144Y-57937987D01*
X32359596Y-57956291D01*
X32359600Y-57956291D01*
X32359604Y-57956291D01*
X32522055Y-57937987D01*
X32522056Y-57937986D01*
X32522061Y-57937986D01*
X32676375Y-57883989D01*
X32814804Y-57797008D01*
X32930408Y-57681404D01*
X33017389Y-57542975D01*
X33071386Y-57388661D01*
X33071387Y-57388655D01*
X33089691Y-57226203D01*
X33089691Y-57226196D01*
X33071387Y-57063744D01*
X33071386Y-57063742D01*
X33071386Y-57063739D01*
X33017389Y-56909425D01*
X32930408Y-56770996D01*
X32899172Y-56739760D01*
X32865687Y-56678437D01*
X32870671Y-56608745D01*
X32912543Y-56552812D01*
X32978007Y-56528395D01*
X33000737Y-56528859D01*
X33045397Y-56533891D01*
X33045400Y-56533891D01*
X33045404Y-56533891D01*
X33207855Y-56515587D01*
X33207856Y-56515586D01*
X33207861Y-56515586D01*
X33362175Y-56461589D01*
X33500604Y-56374608D01*
X33616208Y-56259004D01*
X33703189Y-56120575D01*
X33757186Y-55966261D01*
X33775491Y-55803800D01*
X33757186Y-55641339D01*
X33703189Y-55487025D01*
X33616208Y-55348596D01*
X33500604Y-55232992D01*
X33362174Y-55146010D01*
X33207855Y-55092012D01*
X33045404Y-55073709D01*
X33045396Y-55073709D01*
X32882944Y-55092012D01*
X32728625Y-55146010D01*
X32590195Y-55232992D01*
X32474592Y-55348595D01*
X32387610Y-55487025D01*
X32333612Y-55641344D01*
X32315309Y-55803796D01*
X32315309Y-55803803D01*
X32333612Y-55966255D01*
X32387610Y-56120574D01*
X32474592Y-56259004D01*
X32505827Y-56290239D01*
X32539312Y-56351562D01*
X32534328Y-56421254D01*
X32492456Y-56477187D01*
X32426992Y-56501604D01*
X32404265Y-56501141D01*
X32372608Y-56497574D01*
X32359600Y-56496109D01*
X32359599Y-56496109D01*
X32359598Y-56496109D01*
X32359596Y-56496109D01*
X32197144Y-56514412D01*
X32042825Y-56568410D01*
X31904395Y-56655392D01*
X31788792Y-56770995D01*
X31701810Y-56909425D01*
X31647812Y-57063744D01*
X31629509Y-57226196D01*
X31629509Y-57226203D01*
X24000000Y-57226203D01*
X24000000Y-54356002D01*
X26176723Y-54356002D01*
X26195793Y-54573975D01*
X26195793Y-54573979D01*
X26252422Y-54785322D01*
X26252424Y-54785326D01*
X26252425Y-54785330D01*
X26298661Y-54884484D01*
X26344897Y-54983638D01*
X26344898Y-54983639D01*
X26470402Y-55162877D01*
X26625123Y-55317598D01*
X26804361Y-55443102D01*
X27002670Y-55535575D01*
X27214023Y-55592207D01*
X27396926Y-55608208D01*
X27431998Y-55611277D01*
X27432000Y-55611277D01*
X27432002Y-55611277D01*
X27460254Y-55608805D01*
X27649977Y-55592207D01*
X27861330Y-55535575D01*
X28059639Y-55443102D01*
X28238877Y-55317598D01*
X28393598Y-55162877D01*
X28519102Y-54983639D01*
X28611575Y-54785330D01*
X28668207Y-54573977D01*
X28687277Y-54356000D01*
X28668207Y-54138023D01*
X28617061Y-53947144D01*
X28611577Y-53926677D01*
X28611576Y-53926676D01*
X28611575Y-53926670D01*
X28519102Y-53728362D01*
X28519100Y-53728359D01*
X28519099Y-53728357D01*
X28393599Y-53549124D01*
X28393596Y-53549121D01*
X28238877Y-53394402D01*
X28100978Y-53297844D01*
X28059638Y-53268897D01*
X27960484Y-53222661D01*
X27861330Y-53176425D01*
X27861326Y-53176424D01*
X27861322Y-53176422D01*
X27649977Y-53119793D01*
X27432002Y-53100723D01*
X27431998Y-53100723D01*
X27286682Y-53113436D01*
X27214023Y-53119793D01*
X27214020Y-53119793D01*
X27002677Y-53176422D01*
X27002668Y-53176426D01*
X26804361Y-53268898D01*
X26804357Y-53268900D01*
X26625121Y-53394402D01*
X26470402Y-53549121D01*
X26344900Y-53728357D01*
X26344898Y-53728361D01*
X26252426Y-53926668D01*
X26252422Y-53926677D01*
X26195793Y-54138020D01*
X26195793Y-54138024D01*
X26176723Y-54355997D01*
X26176723Y-54356002D01*
X24000000Y-54356002D01*
X24000000Y-53086000D01*
X57006540Y-53086000D01*
X57026326Y-53274256D01*
X57026327Y-53274259D01*
X57084818Y-53454277D01*
X57084821Y-53454284D01*
X57179467Y-53618216D01*
X57278639Y-53728357D01*
X57306129Y-53758888D01*
X57459265Y-53870148D01*
X57459270Y-53870151D01*
X57632192Y-53947142D01*
X57632197Y-53947144D01*
X57817354Y-53986500D01*
X57817355Y-53986500D01*
X58006644Y-53986500D01*
X58006646Y-53986500D01*
X58191803Y-53947144D01*
X58364730Y-53870151D01*
X58517871Y-53758888D01*
X58644533Y-53618216D01*
X58739179Y-53454284D01*
X58797674Y-53274256D01*
X58817460Y-53086000D01*
X58797674Y-52897744D01*
X58739179Y-52717716D01*
X58644533Y-52553784D01*
X58517871Y-52413112D01*
X58517870Y-52413111D01*
X58364734Y-52301851D01*
X58364729Y-52301848D01*
X58191807Y-52224857D01*
X58191802Y-52224855D01*
X58046001Y-52193865D01*
X58006646Y-52185500D01*
X57817354Y-52185500D01*
X57784897Y-52192398D01*
X57632197Y-52224855D01*
X57632192Y-52224857D01*
X57459270Y-52301848D01*
X57459265Y-52301851D01*
X57306129Y-52413111D01*
X57179466Y-52553785D01*
X57084821Y-52717715D01*
X57084818Y-52717722D01*
X57026327Y-52897740D01*
X57026326Y-52897744D01*
X57006540Y-53086000D01*
X24000000Y-53086000D01*
X24000000Y-50305000D01*
X25382970Y-50305000D01*
X25413242Y-50496127D01*
X25413242Y-50496130D01*
X25478904Y-50698217D01*
X25575379Y-50887557D01*
X25700272Y-51059459D01*
X25700276Y-51059464D01*
X25850535Y-51209723D01*
X25850540Y-51209727D01*
X26022442Y-51334620D01*
X26211782Y-51431095D01*
X26413871Y-51496757D01*
X26480000Y-51507231D01*
X26480000Y-50459145D01*
X26546657Y-50497630D01*
X26667465Y-50530000D01*
X26792535Y-50530000D01*
X26913343Y-50497630D01*
X26980000Y-50459145D01*
X26980000Y-51507230D01*
X27046126Y-51496757D01*
X27046129Y-51496757D01*
X27248217Y-51431095D01*
X27437557Y-51334620D01*
X27609459Y-51209727D01*
X27609464Y-51209723D01*
X27759721Y-51059466D01*
X27879371Y-50894781D01*
X27934701Y-50852115D01*
X28004314Y-50846136D01*
X28066110Y-50878741D01*
X28080008Y-50894781D01*
X28199890Y-51059785D01*
X28199894Y-51059790D01*
X28350213Y-51210109D01*
X28522179Y-51335048D01*
X28522181Y-51335049D01*
X28522184Y-51335051D01*
X28711588Y-51431557D01*
X28913757Y-51497246D01*
X29123713Y-51530500D01*
X29123714Y-51530500D01*
X29336286Y-51530500D01*
X29336287Y-51530500D01*
X29546243Y-51497246D01*
X29748412Y-51431557D01*
X29937816Y-51335051D01*
X29959789Y-51319086D01*
X30109786Y-51210109D01*
X30109788Y-51210106D01*
X30109792Y-51210104D01*
X30260104Y-51059792D01*
X30379683Y-50895204D01*
X30435011Y-50852540D01*
X30504624Y-50846561D01*
X30566420Y-50879166D01*
X30580313Y-50895199D01*
X30682180Y-51035408D01*
X30699896Y-51059792D01*
X30850213Y-51210109D01*
X31022179Y-51335048D01*
X31022181Y-51335049D01*
X31022184Y-51335051D01*
X31211588Y-51431557D01*
X31413757Y-51497246D01*
X31623713Y-51530500D01*
X31623714Y-51530500D01*
X31836286Y-51530500D01*
X31836287Y-51530500D01*
X32046243Y-51497246D01*
X32248412Y-51431557D01*
X32437816Y-51335051D01*
X32495141Y-51293402D01*
X32609784Y-51210110D01*
X32609784Y-51210109D01*
X32609792Y-51210104D01*
X32748604Y-51071291D01*
X32809923Y-51037809D01*
X32879615Y-51042793D01*
X32935549Y-51084664D01*
X32941821Y-51093878D01*
X32945185Y-51099333D01*
X32945186Y-51099334D01*
X33037288Y-51248656D01*
X33161344Y-51372712D01*
X33310666Y-51464814D01*
X33477203Y-51519999D01*
X33579991Y-51530500D01*
X34880008Y-51530499D01*
X34982797Y-51519999D01*
X35149334Y-51464814D01*
X35298656Y-51372712D01*
X35422712Y-51248656D01*
X35514814Y-51099334D01*
X35569999Y-50932797D01*
X35580500Y-50830009D01*
X35580500Y-50286286D01*
X40111500Y-50286286D01*
X40144735Y-50496127D01*
X40144754Y-50496243D01*
X40199010Y-50663226D01*
X40210444Y-50698414D01*
X40306951Y-50887820D01*
X40431890Y-51059786D01*
X40582213Y-51210109D01*
X40754179Y-51335048D01*
X40754181Y-51335049D01*
X40754184Y-51335051D01*
X40943588Y-51431557D01*
X41145757Y-51497246D01*
X41355713Y-51530500D01*
X41355714Y-51530500D01*
X41568286Y-51530500D01*
X41568287Y-51530500D01*
X41778243Y-51497246D01*
X41980412Y-51431557D01*
X42169816Y-51335051D01*
X42191789Y-51319086D01*
X42341786Y-51210109D01*
X42341788Y-51210106D01*
X42341792Y-51210104D01*
X42492104Y-51059792D01*
X42611683Y-50895204D01*
X42667011Y-50852540D01*
X42736624Y-50846561D01*
X42798420Y-50879166D01*
X42812313Y-50895199D01*
X42914180Y-51035408D01*
X42931896Y-51059792D01*
X43082213Y-51210109D01*
X43254179Y-51335048D01*
X43254181Y-51335049D01*
X43254184Y-51335051D01*
X43443588Y-51431557D01*
X43645757Y-51497246D01*
X43855713Y-51530500D01*
X43855714Y-51530500D01*
X44068286Y-51530500D01*
X44068287Y-51530500D01*
X44278243Y-51497246D01*
X44480412Y-51431557D01*
X44669816Y-51335051D01*
X44691789Y-51319086D01*
X44841786Y-51210109D01*
X44841788Y-51210106D01*
X44841792Y-51210104D01*
X44992104Y-51059792D01*
X45111683Y-50895204D01*
X45167011Y-50852540D01*
X45236624Y-50846561D01*
X45298420Y-50879166D01*
X45312313Y-50895199D01*
X45414180Y-51035408D01*
X45431896Y-51059792D01*
X45582213Y-51210109D01*
X45754179Y-51335048D01*
X45754181Y-51335049D01*
X45754184Y-51335051D01*
X45943588Y-51431557D01*
X46145757Y-51497246D01*
X46355713Y-51530500D01*
X46355714Y-51530500D01*
X46568286Y-51530500D01*
X46568287Y-51530500D01*
X46778243Y-51497246D01*
X46980412Y-51431557D01*
X47169816Y-51335051D01*
X47227141Y-51293402D01*
X47341784Y-51210110D01*
X47341784Y-51210109D01*
X47341792Y-51210104D01*
X47480967Y-51070928D01*
X47542286Y-51037446D01*
X47611978Y-51042430D01*
X47667912Y-51084301D01*
X47674184Y-51093515D01*
X47769684Y-51248345D01*
X47893654Y-51372315D01*
X48042875Y-51464356D01*
X48042880Y-51464358D01*
X48209302Y-51519505D01*
X48209309Y-51519506D01*
X48312019Y-51529999D01*
X48711999Y-51529999D01*
X48712000Y-51529998D01*
X48712000Y-50459145D01*
X48778657Y-50497630D01*
X48899465Y-50530000D01*
X49024535Y-50530000D01*
X49145343Y-50497630D01*
X49212000Y-50459145D01*
X49212000Y-51529999D01*
X49611972Y-51529999D01*
X49611986Y-51529998D01*
X49714697Y-51519505D01*
X49881119Y-51464358D01*
X49881124Y-51464356D01*
X50030345Y-51372315D01*
X50154315Y-51248345D01*
X50246356Y-51099124D01*
X50246358Y-51099119D01*
X50301505Y-50932697D01*
X50301506Y-50932690D01*
X50311999Y-50829986D01*
X50312000Y-50829973D01*
X50312000Y-50800000D01*
X62906341Y-50800000D01*
X62926936Y-51035403D01*
X62926938Y-51035413D01*
X62988094Y-51263655D01*
X62988096Y-51263659D01*
X62988097Y-51263663D01*
X63081682Y-51464356D01*
X63087965Y-51477830D01*
X63087967Y-51477834D01*
X63196281Y-51632521D01*
X63223505Y-51671401D01*
X63390599Y-51838495D01*
X63418194Y-51857817D01*
X63584165Y-51974032D01*
X63584167Y-51974033D01*
X63584170Y-51974035D01*
X63798337Y-52073903D01*
X64026592Y-52135063D01*
X64214918Y-52151539D01*
X64261999Y-52155659D01*
X64262000Y-52155659D01*
X64262001Y-52155659D01*
X64301234Y-52152226D01*
X64497408Y-52135063D01*
X64725663Y-52073903D01*
X64939830Y-51974035D01*
X65133401Y-51838495D01*
X65300495Y-51671401D01*
X65308743Y-51659620D01*
X65363317Y-51615994D01*
X65432816Y-51608799D01*
X65495172Y-51640319D01*
X65528705Y-51693849D01*
X65534031Y-51710940D01*
X65611143Y-51838498D01*
X65622824Y-51857820D01*
X65744179Y-51979175D01*
X65744181Y-51979176D01*
X65744183Y-51979178D01*
X65891060Y-52067969D01*
X66054919Y-52119029D01*
X66126127Y-52125500D01*
X67477872Y-52125499D01*
X67477879Y-52125499D01*
X67549076Y-52119030D01*
X67549079Y-52119029D01*
X67549081Y-52119029D01*
X67712940Y-52067969D01*
X67859817Y-51979178D01*
X67981178Y-51857817D01*
X68069969Y-51710940D01*
X68121029Y-51547081D01*
X68127500Y-51475873D01*
X68127499Y-50124128D01*
X68127499Y-50124127D01*
X68127499Y-50124119D01*
X68121030Y-50052923D01*
X68121027Y-50052912D01*
X68069970Y-49889063D01*
X68069969Y-49889062D01*
X68069969Y-49889060D01*
X67981178Y-49742183D01*
X67981176Y-49742181D01*
X67981175Y-49742179D01*
X67859820Y-49620824D01*
X67712940Y-49532031D01*
X67693887Y-49526094D01*
X67549081Y-49480971D01*
X67549079Y-49480970D01*
X67549077Y-49480970D01*
X67499223Y-49476440D01*
X67477873Y-49474500D01*
X67477870Y-49474500D01*
X66126119Y-49474500D01*
X66054923Y-49480969D01*
X66054912Y-49480972D01*
X65891063Y-49532029D01*
X65744179Y-49620824D01*
X65622824Y-49742179D01*
X65534029Y-49889062D01*
X65528704Y-49906152D01*
X65489965Y-49964298D01*
X65425939Y-49992270D01*
X65356954Y-49981187D01*
X65308744Y-49940380D01*
X65300492Y-49928595D01*
X65133402Y-49761506D01*
X65133395Y-49761501D01*
X64939834Y-49625967D01*
X64939830Y-49625965D01*
X64928801Y-49620822D01*
X64725663Y-49526097D01*
X64725659Y-49526096D01*
X64725655Y-49526094D01*
X64497413Y-49464938D01*
X64497403Y-49464936D01*
X64262001Y-49444341D01*
X64261999Y-49444341D01*
X64026596Y-49464936D01*
X64026586Y-49464938D01*
X63798344Y-49526094D01*
X63798335Y-49526098D01*
X63584171Y-49625964D01*
X63584169Y-49625965D01*
X63390597Y-49761505D01*
X63223505Y-49928597D01*
X63087965Y-50122169D01*
X63087964Y-50122171D01*
X62988098Y-50336335D01*
X62988094Y-50336344D01*
X62926938Y-50564586D01*
X62926936Y-50564596D01*
X62906341Y-50799999D01*
X62906341Y-50800000D01*
X50312000Y-50800000D01*
X50312000Y-50305000D01*
X49366146Y-50305000D01*
X49404630Y-50238343D01*
X49437000Y-50117535D01*
X49437000Y-49992465D01*
X49404630Y-49871657D01*
X49366146Y-49805000D01*
X50311999Y-49805000D01*
X50311999Y-49280028D01*
X50311998Y-49280013D01*
X50301505Y-49177302D01*
X50282944Y-49121288D01*
X73149500Y-49121288D01*
X73181161Y-49361785D01*
X73243947Y-49596104D01*
X73304455Y-49742183D01*
X73336776Y-49820212D01*
X73458064Y-50030289D01*
X73458066Y-50030292D01*
X73458067Y-50030293D01*
X73605733Y-50222736D01*
X73605739Y-50222743D01*
X73777256Y-50394260D01*
X73777262Y-50394265D01*
X73969711Y-50541936D01*
X74179788Y-50663224D01*
X74403900Y-50756054D01*
X74638211Y-50818838D01*
X74818586Y-50842584D01*
X74878711Y-50850500D01*
X74878712Y-50850500D01*
X75121289Y-50850500D01*
X75169388Y-50844167D01*
X75361789Y-50818838D01*
X75596100Y-50756054D01*
X75820212Y-50663224D01*
X76030289Y-50541936D01*
X76222738Y-50394265D01*
X76394265Y-50222738D01*
X76541936Y-50030289D01*
X76663224Y-49820212D01*
X76756054Y-49596100D01*
X76818838Y-49361789D01*
X76850500Y-49121288D01*
X76850500Y-48878712D01*
X76848254Y-48861655D01*
X76836840Y-48774951D01*
X76818838Y-48638211D01*
X76756054Y-48403900D01*
X76663224Y-48179788D01*
X76541936Y-47969711D01*
X76394265Y-47777262D01*
X76394260Y-47777256D01*
X76222743Y-47605739D01*
X76222736Y-47605733D01*
X76030293Y-47458067D01*
X76030292Y-47458066D01*
X76030289Y-47458064D01*
X75820212Y-47336776D01*
X75820205Y-47336773D01*
X75596104Y-47243947D01*
X75361785Y-47181161D01*
X75121289Y-47149500D01*
X75121288Y-47149500D01*
X74878712Y-47149500D01*
X74878711Y-47149500D01*
X74638214Y-47181161D01*
X74403895Y-47243947D01*
X74179794Y-47336773D01*
X74179785Y-47336777D01*
X73969706Y-47458067D01*
X73777263Y-47605733D01*
X73777256Y-47605739D01*
X73605739Y-47777256D01*
X73605733Y-47777263D01*
X73458067Y-47969706D01*
X73336777Y-48179785D01*
X73336773Y-48179794D01*
X73243947Y-48403895D01*
X73181161Y-48638214D01*
X73149500Y-48878711D01*
X73149500Y-49121288D01*
X50282944Y-49121288D01*
X50246358Y-49010880D01*
X50246356Y-49010875D01*
X50154315Y-48861654D01*
X50030345Y-48737684D01*
X49881124Y-48645643D01*
X49881119Y-48645641D01*
X49714697Y-48590494D01*
X49714690Y-48590493D01*
X49611986Y-48580000D01*
X49212000Y-48580000D01*
X49212000Y-49650854D01*
X49145343Y-49612370D01*
X49024535Y-49580000D01*
X48899465Y-49580000D01*
X48778657Y-49612370D01*
X48712000Y-49650854D01*
X48712000Y-48580000D01*
X48312028Y-48580000D01*
X48312012Y-48580001D01*
X48209302Y-48590494D01*
X48042880Y-48645641D01*
X48042875Y-48645643D01*
X47893654Y-48737684D01*
X47769683Y-48861655D01*
X47769680Y-48861659D01*
X47674183Y-49016484D01*
X47622235Y-49063209D01*
X47553273Y-49074430D01*
X47489191Y-49046587D01*
X47480964Y-49039068D01*
X47341786Y-48899890D01*
X47169820Y-48774951D01*
X46980414Y-48678444D01*
X46980413Y-48678443D01*
X46980412Y-48678443D01*
X46778243Y-48612754D01*
X46778241Y-48612753D01*
X46778240Y-48612753D01*
X46616957Y-48587208D01*
X46568287Y-48579500D01*
X46355713Y-48579500D01*
X46307042Y-48587208D01*
X46145760Y-48612753D01*
X45943585Y-48678444D01*
X45754179Y-48774951D01*
X45582213Y-48899890D01*
X45431894Y-49050209D01*
X45431890Y-49050214D01*
X45312318Y-49214793D01*
X45256989Y-49257459D01*
X45187375Y-49263438D01*
X45125580Y-49230833D01*
X45111682Y-49214793D01*
X44992109Y-49050214D01*
X44992105Y-49050209D01*
X44841786Y-48899890D01*
X44669820Y-48774951D01*
X44480414Y-48678444D01*
X44480413Y-48678443D01*
X44480412Y-48678443D01*
X44278243Y-48612754D01*
X44278241Y-48612753D01*
X44278240Y-48612753D01*
X44116957Y-48587208D01*
X44068287Y-48579500D01*
X43855713Y-48579500D01*
X43807042Y-48587208D01*
X43645760Y-48612753D01*
X43443585Y-48678444D01*
X43254179Y-48774951D01*
X43082213Y-48899890D01*
X42931894Y-49050209D01*
X42931890Y-49050214D01*
X42812318Y-49214793D01*
X42756989Y-49257459D01*
X42687375Y-49263438D01*
X42625580Y-49230833D01*
X42611682Y-49214793D01*
X42492109Y-49050214D01*
X42492105Y-49050209D01*
X42341786Y-48899890D01*
X42169820Y-48774951D01*
X41980414Y-48678444D01*
X41980413Y-48678443D01*
X41980412Y-48678443D01*
X41778243Y-48612754D01*
X41778241Y-48612753D01*
X41778240Y-48612753D01*
X41616957Y-48587208D01*
X41568287Y-48579500D01*
X41355713Y-48579500D01*
X41307042Y-48587208D01*
X41145760Y-48612753D01*
X40943585Y-48678444D01*
X40754179Y-48774951D01*
X40582213Y-48899890D01*
X40431890Y-49050213D01*
X40306951Y-49222179D01*
X40210444Y-49411585D01*
X40144753Y-49613760D01*
X40111500Y-49823713D01*
X40111500Y-50286286D01*
X35580500Y-50286286D01*
X35580499Y-49279992D01*
X35578851Y-49263863D01*
X35569999Y-49177203D01*
X35569998Y-49177200D01*
X35514814Y-49010666D01*
X35422712Y-48861344D01*
X35298656Y-48737288D01*
X35149334Y-48645186D01*
X34982797Y-48590001D01*
X34982795Y-48590000D01*
X34880010Y-48579500D01*
X33579998Y-48579500D01*
X33579981Y-48579501D01*
X33477203Y-48590000D01*
X33477200Y-48590001D01*
X33310668Y-48645185D01*
X33310663Y-48645187D01*
X33161342Y-48737289D01*
X33037289Y-48861342D01*
X32941821Y-49016121D01*
X32889873Y-49062845D01*
X32820910Y-49074068D01*
X32756828Y-49046224D01*
X32748601Y-49038705D01*
X32609786Y-48899890D01*
X32437820Y-48774951D01*
X32248414Y-48678444D01*
X32248413Y-48678443D01*
X32248412Y-48678443D01*
X32046243Y-48612754D01*
X32046241Y-48612753D01*
X32046240Y-48612753D01*
X31884957Y-48587208D01*
X31836287Y-48579500D01*
X31623713Y-48579500D01*
X31575042Y-48587208D01*
X31413760Y-48612753D01*
X31211585Y-48678444D01*
X31022179Y-48774951D01*
X30850213Y-48899890D01*
X30699894Y-49050209D01*
X30699890Y-49050214D01*
X30580318Y-49214793D01*
X30524989Y-49257459D01*
X30455375Y-49263438D01*
X30393580Y-49230833D01*
X30379682Y-49214793D01*
X30260109Y-49050214D01*
X30260105Y-49050209D01*
X30109786Y-48899890D01*
X29937820Y-48774951D01*
X29748414Y-48678444D01*
X29748413Y-48678443D01*
X29748412Y-48678443D01*
X29546243Y-48612754D01*
X29546241Y-48612753D01*
X29546240Y-48612753D01*
X29384957Y-48587208D01*
X29336287Y-48579500D01*
X29123713Y-48579500D01*
X29075042Y-48587208D01*
X28913760Y-48612753D01*
X28711585Y-48678444D01*
X28522179Y-48774951D01*
X28350213Y-48899890D01*
X28199894Y-49050209D01*
X28199890Y-49050214D01*
X28080008Y-49215218D01*
X28024678Y-49257884D01*
X27955065Y-49263863D01*
X27893270Y-49231257D01*
X27879372Y-49215218D01*
X27759727Y-49050540D01*
X27759723Y-49050535D01*
X27609464Y-48900276D01*
X27609459Y-48900272D01*
X27437557Y-48775379D01*
X27248215Y-48678903D01*
X27046124Y-48613241D01*
X26980000Y-48602768D01*
X26980000Y-49650854D01*
X26913343Y-49612370D01*
X26792535Y-49580000D01*
X26667465Y-49580000D01*
X26546657Y-49612370D01*
X26480000Y-49650854D01*
X26480000Y-48602768D01*
X26479999Y-48602768D01*
X26413875Y-48613241D01*
X26211784Y-48678903D01*
X26022442Y-48775379D01*
X25850540Y-48900272D01*
X25850535Y-48900276D01*
X25700276Y-49050535D01*
X25700272Y-49050540D01*
X25575379Y-49222442D01*
X25478904Y-49411782D01*
X25413242Y-49613869D01*
X25413242Y-49613872D01*
X25382970Y-49805000D01*
X26325854Y-49805000D01*
X26287370Y-49871657D01*
X26255000Y-49992465D01*
X26255000Y-50117535D01*
X26287370Y-50238343D01*
X26325854Y-50305000D01*
X25382970Y-50305000D01*
X24000000Y-50305000D01*
X24000000Y-45134500D01*
X24019685Y-45067461D01*
X24072489Y-45021706D01*
X24124000Y-45010500D01*
X78865500Y-45010500D01*
X78932539Y-45030185D01*
G37*
%TD.AperFunction*%
%TD*%
M02*
