%TF.GenerationSoftware,KiCad,Pcbnew,8.0.1*%
%TF.CreationDate,2024-06-07T18:03:32+02:00*%
%TF.ProjectId,Robuoy-Top,526f6275-6f79-42d5-946f-702e6b696361,rev?*%
%TF.SameCoordinates,Original*%
%TF.FileFunction,Copper,L4,Bot*%
%TF.FilePolarity,Positive*%
%FSLAX46Y46*%
G04 Gerber Fmt 4.6, Leading zero omitted, Abs format (unit mm)*
G04 Created by KiCad (PCBNEW 8.0.1) date 2024-06-07 18:03:32*
%MOMM*%
%LPD*%
G01*
G04 APERTURE LIST*
G04 Aperture macros list*
%AMRoundRect*
0 Rectangle with rounded corners*
0 $1 Rounding radius*
0 $2 $3 $4 $5 $6 $7 $8 $9 X,Y pos of 4 corners*
0 Add a 4 corners polygon primitive as box body*
4,1,4,$2,$3,$4,$5,$6,$7,$8,$9,$2,$3,0*
0 Add four circle primitives for the rounded corners*
1,1,$1+$1,$2,$3*
1,1,$1+$1,$4,$5*
1,1,$1+$1,$6,$7*
1,1,$1+$1,$8,$9*
0 Add four rect primitives between the rounded corners*
20,1,$1+$1,$2,$3,$4,$5,0*
20,1,$1+$1,$4,$5,$6,$7,0*
20,1,$1+$1,$6,$7,$8,$9,0*
20,1,$1+$1,$8,$9,$2,$3,0*%
G04 Aperture macros list end*
%TA.AperFunction,ComponentPad*%
%ADD10RoundRect,0.250000X-0.600000X-0.725000X0.600000X-0.725000X0.600000X0.725000X-0.600000X0.725000X0*%
%TD*%
%TA.AperFunction,ComponentPad*%
%ADD11O,1.700000X1.950000*%
%TD*%
%TA.AperFunction,ComponentPad*%
%ADD12RoundRect,0.250000X0.600000X0.725000X-0.600000X0.725000X-0.600000X-0.725000X0.600000X-0.725000X0*%
%TD*%
%TA.AperFunction,ComponentPad*%
%ADD13R,1.700000X1.700000*%
%TD*%
%TA.AperFunction,ComponentPad*%
%ADD14O,1.700000X1.700000*%
%TD*%
%TA.AperFunction,ComponentPad*%
%ADD15C,1.500000*%
%TD*%
%TA.AperFunction,ComponentPad*%
%ADD16C,1.524000*%
%TD*%
%TA.AperFunction,ComponentPad*%
%ADD17RoundRect,0.206250X0.618750X0.618750X-0.618750X0.618750X-0.618750X-0.618750X0.618750X-0.618750X0*%
%TD*%
%TA.AperFunction,ComponentPad*%
%ADD18C,1.700000*%
%TD*%
%TA.AperFunction,ComponentPad*%
%ADD19RoundRect,0.250000X-0.600000X-0.600000X0.600000X-0.600000X0.600000X0.600000X-0.600000X0.600000X0*%
%TD*%
G04 APERTURE END LIST*
D10*
%TO.P,J103,1,Pin_1*%
%TO.N,Net-(J103-Pin_1)*%
X40700000Y-109965000D03*
D11*
%TO.P,J103,2,Pin_2*%
%TO.N,+3.3V*%
X43200000Y-109965000D03*
%TO.P,J103,3,Pin_3*%
%TO.N,Net-(J103-Pin_3)*%
X45700000Y-109965000D03*
%TO.P,J103,4*%
%TO.N,N/C*%
X48200000Y-109965000D03*
%TD*%
D12*
%TO.P,J104,1,Pin_1*%
%TO.N,Net-(J104-Pin_1)*%
X34230000Y-50055000D03*
D11*
%TO.P,J104,2,Pin_2*%
%TO.N,Net-(J104-Pin_2)*%
X31730000Y-50055000D03*
%TO.P,J104,3,Pin_3*%
%TO.N,/CPU/Vgps*%
X29230000Y-50055000D03*
%TO.P,J104,4,Pin_4*%
%TO.N,GND*%
X26730000Y-50055000D03*
%TD*%
D13*
%TO.P,SW102,1,1*%
%TO.N,GND*%
X65024000Y-66548000D03*
D14*
%TO.P,SW102,2,2*%
%TO.N,EN*%
X62484000Y-66548000D03*
%TD*%
D15*
%TO.P,TP208,1,1*%
%TO.N,GND*%
X69088000Y-54356000D03*
%TD*%
D16*
%TO.P,TP402,1,1*%
%TO.N,unconnected-(TP402-Pad1)*%
X52578000Y-99822000D03*
%TO.P,TP402,2*%
%TO.N,N/C*%
X55118000Y-99822000D03*
%TO.P,TP402,3*%
X57658000Y-99822000D03*
%TO.P,TP402,4*%
X60198000Y-99822000D03*
%TO.P,TP402,5*%
X52578000Y-102362000D03*
%TO.P,TP402,6*%
X55118000Y-102362000D03*
%TO.P,TP402,7*%
X57658000Y-102362000D03*
%TO.P,TP402,8*%
X60198000Y-102362000D03*
%TO.P,TP402,9*%
X52578000Y-104902000D03*
%TO.P,TP402,10*%
X55118000Y-104902000D03*
%TO.P,TP402,11*%
X57658000Y-104902000D03*
%TO.P,TP402,12*%
X60198000Y-104902000D03*
%TO.P,TP402,13*%
X52578000Y-107442000D03*
%TO.P,TP402,14*%
X55118000Y-107442000D03*
%TO.P,TP402,15*%
X57658000Y-107442000D03*
%TO.P,TP402,16*%
X60198000Y-107442000D03*
%TD*%
D12*
%TO.P,J201,1,Pin_1*%
%TO.N,GND*%
X48962000Y-50055000D03*
D11*
%TO.P,J201,2,Pin_2*%
%TO.N,Net-(D201-A1)*%
X46462000Y-50055000D03*
%TO.P,J201,3,Pin_3*%
%TO.N,VBUS*%
X43962000Y-50055000D03*
%TO.P,J201,4,Pin_4*%
%TO.N,Enable*%
X41462000Y-50055000D03*
%TD*%
D13*
%TO.P,SW101,1,1*%
%TO.N,GND*%
X65024000Y-71120000D03*
D14*
%TO.P,SW101,2,2*%
%TO.N,DR0*%
X62484000Y-71120000D03*
%TD*%
D16*
%TO.P,TP401,1,1*%
%TO.N,unconnected-(TP401-Pad1)*%
X62738000Y-99822000D03*
%TO.P,TP401,2*%
%TO.N,N/C*%
X65278000Y-99822000D03*
%TO.P,TP401,3*%
X67818000Y-99822000D03*
%TO.P,TP401,4*%
X70358000Y-99822000D03*
%TO.P,TP401,5*%
X62738000Y-102362000D03*
%TO.P,TP401,6*%
X65278000Y-102362000D03*
%TO.P,TP401,7*%
X67818000Y-102362000D03*
%TO.P,TP401,8*%
X70358000Y-102362000D03*
%TO.P,TP401,9*%
X62738000Y-104902000D03*
%TO.P,TP401,10*%
X65278000Y-104902000D03*
%TO.P,TP401,11*%
X67818000Y-104902000D03*
%TO.P,TP401,12*%
X70358000Y-104902000D03*
%TO.P,TP401,13*%
X62738000Y-107442000D03*
%TO.P,TP401,14*%
X65278000Y-107442000D03*
%TO.P,TP401,15*%
X67818000Y-107442000D03*
%TO.P,TP401,16*%
X70358000Y-107442000D03*
%TD*%
D15*
%TO.P,TP202,1,1*%
%TO.N,+5V*%
X27432000Y-54356000D03*
%TD*%
D13*
%TO.P,J105,1,Pin_1*%
%TO.N,/CPU/SDA*%
X25425000Y-59065000D03*
D14*
%TO.P,J105,2,Pin_2*%
%TO.N,/CPU/SCL*%
X25425000Y-61605000D03*
%TO.P,J105,3,Pin_3*%
%TO.N,+5V*%
X25425000Y-64145000D03*
%TO.P,J105,4,Pin_4*%
%TO.N,GND*%
X25425000Y-66685000D03*
%TD*%
D17*
%TO.P,J202,1,Pin_1*%
%TO.N,Net-(J202-Pin_1)*%
X66802000Y-50800000D03*
D18*
%TO.P,J202,2,Pin_2*%
%TO.N,Net-(J202-Pin_2)*%
X64262000Y-50800000D03*
%TD*%
D10*
%TO.P,J102,1,Pin_1*%
%TO.N,GND*%
X26035000Y-109855000D03*
D11*
%TO.P,J102,2,Pin_2*%
%TO.N,Net-(D101-K)*%
X28535000Y-109855000D03*
%TO.P,J102,3,Pin_3*%
%TO.N,Net-(D102-K)*%
X31035000Y-109855000D03*
%TO.P,J102,4,Pin_4*%
%TO.N,Net-(D103-K)*%
X33535000Y-109855000D03*
%TD*%
D19*
%TO.P,J101,1,Pin_1*%
%TO.N,EN*%
X52587500Y-74930000D03*
D18*
%TO.P,J101,2,Pin_2*%
%TO.N,+3.3V*%
X55127500Y-74930000D03*
%TO.P,J101,3,Pin_3*%
%TO.N,TX*%
X52587500Y-77470000D03*
%TO.P,J101,4,Pin_4*%
%TO.N,GND*%
X55127500Y-77470000D03*
%TO.P,J101,5,Pin_5*%
%TO.N,RX*%
X52587500Y-80010000D03*
%TO.P,J101,6,Pin_6*%
%TO.N,DR0*%
X55127500Y-80010000D03*
%TO.P,J101,7,Pin_7*%
%TO.N,Net-(J101-Pin_7)*%
X52587500Y-82550000D03*
%TO.P,J101,8,Pin_8*%
%TO.N,Net-(J101-Pin_8)*%
X55127500Y-82550000D03*
%TO.P,J101,9,Pin_9*%
%TO.N,Net-(J101-Pin_9)*%
X52587500Y-85090000D03*
%TO.P,J101,10,Pin_10*%
%TO.N,Net-(J101-Pin_10)*%
X55127500Y-85090000D03*
%TD*%
M02*
