M48
; DRILL file {KiCad 8.0.1} date 2024-06-07T14:48:59+0200
; FORMAT={-:-/ absolute / inch / decimal}
; #@! TF.CreationDate,2024-06-07T14:48:59+02:00
; #@! TF.GenerationSoftware,Kicad,Pcbnew,8.0.1
; #@! TF.FileFunction,Plated,1,2,PTH
FMAT,2
INCH
; #@! TA.AperFunction,Plated,PTH,ComponentDrill
T1C0.0354
; #@! TA.AperFunction,Plated,PTH,ComponentDrill
T2C0.0374
; #@! TA.AperFunction,Plated,PTH,ComponentDrill
T3C0.0394
%
G90
G05
T1
X1.64Y-5.2974
X3.0593Y-2.7491
X3.0593Y-2.8491
X3.0593Y-2.9491
X3.0593Y-3.0491
X3.0593Y-3.1485
X3.0593Y-3.2485
X3.0593Y-3.3485
X3.0593Y-3.4485
X3.1593Y-2.7491
X3.1593Y-2.8491
X3.1593Y-2.9491
X3.1593Y-3.0491
X3.1593Y-3.1485
X3.1593Y-3.2485
X3.1593Y-3.3485
X3.1593Y-3.4485
X3.2593Y-2.7491
X3.2593Y-2.8491
X3.2593Y-2.9491
X3.2593Y-3.0491
X3.2593Y-3.1485
X3.2593Y-3.2485
X3.2593Y-3.3485
X3.2593Y-3.4485
X3.3593Y-2.7491
X3.3593Y-2.8491
X3.3593Y-2.9491
X3.3593Y-3.0491
X3.3593Y-3.1485
X3.3593Y-3.2485
X3.3593Y-3.3485
X3.3593Y-3.4485
X3.5769Y-2.234
X4.5612Y-2.6766
T2
X1.0547Y-3.976
X1.1531Y-3.976
X1.2516Y-3.976
X1.35Y-3.976
X3.2325Y-0.8785
X3.3309Y-0.8785
X3.4293Y-0.8785
X3.5278Y-0.8785
X4.1669Y-3.0677
X4.2654Y-3.0677
X4.3047Y-2.3
X4.3638Y-3.0677
X4.4031Y-2.3
X4.4622Y-3.0677
X4.5016Y-2.3
X4.6Y-2.3
T3
X2.04Y-4.2927
X2.04Y-4.3927
X2.04Y-4.4927
X2.04Y-4.5927
X2.4057Y-2.9406
X2.4057Y-3.0406
X2.4057Y-3.1406
X2.4057Y-3.2406
X2.4057Y-3.3406
X2.5057Y-2.9406
X2.5057Y-3.0406
X2.5057Y-3.1406
X2.5057Y-3.2406
X2.5057Y-3.3406
X2.6247Y-1.8279
X2.6247Y-1.9279
X2.8078Y-1.8279
X2.8078Y-1.9279
X4.3813Y-2.5459
X4.4813Y-2.5459
M30
