%TF.GenerationSoftware,KiCad,Pcbnew,8.0.1*%
%TF.CreationDate,2024-06-07T14:48:59+02:00*%
%TF.ProjectId,Robuoy-Top,526f6275-6f79-42d5-946f-702e6b696361,rev?*%
%TF.SameCoordinates,Original*%
%TF.FileFunction,Copper,L2,Bot*%
%TF.FilePolarity,Positive*%
%FSLAX46Y46*%
G04 Gerber Fmt 4.6, Leading zero omitted, Abs format (unit mm)*
G04 Created by KiCad (PCBNEW 8.0.1) date 2024-06-07 14:48:59*
%MOMM*%
%LPD*%
G01*
G04 APERTURE LIST*
G04 Aperture macros list*
%AMRoundRect*
0 Rectangle with rounded corners*
0 $1 Rounding radius*
0 $2 $3 $4 $5 $6 $7 $8 $9 X,Y pos of 4 corners*
0 Add a 4 corners polygon primitive as box body*
4,1,4,$2,$3,$4,$5,$6,$7,$8,$9,$2,$3,0*
0 Add four circle primitives for the rounded corners*
1,1,$1+$1,$2,$3*
1,1,$1+$1,$4,$5*
1,1,$1+$1,$6,$7*
1,1,$1+$1,$8,$9*
0 Add four rect primitives between the rounded corners*
20,1,$1+$1,$2,$3,$4,$5,0*
20,1,$1+$1,$4,$5,$6,$7,0*
20,1,$1+$1,$6,$7,$8,$9,0*
20,1,$1+$1,$8,$9,$2,$3,0*%
G04 Aperture macros list end*
%TA.AperFunction,ComponentPad*%
%ADD10C,1.500000*%
%TD*%
%TA.AperFunction,ComponentPad*%
%ADD11RoundRect,0.206250X-0.618750X-0.618750X0.618750X-0.618750X0.618750X0.618750X-0.618750X0.618750X0*%
%TD*%
%TA.AperFunction,ComponentPad*%
%ADD12C,1.700000*%
%TD*%
%TA.AperFunction,ComponentPad*%
%ADD13RoundRect,0.250000X-0.600000X-0.725000X0.600000X-0.725000X0.600000X0.725000X-0.600000X0.725000X0*%
%TD*%
%TA.AperFunction,ComponentPad*%
%ADD14O,1.700000X1.950000*%
%TD*%
%TA.AperFunction,ComponentPad*%
%ADD15R,1.700000X1.700000*%
%TD*%
%TA.AperFunction,ComponentPad*%
%ADD16O,1.700000X1.700000*%
%TD*%
%TA.AperFunction,ComponentPad*%
%ADD17C,1.524000*%
%TD*%
%TA.AperFunction,ComponentPad*%
%ADD18RoundRect,0.250000X-0.600000X-0.600000X0.600000X-0.600000X0.600000X0.600000X-0.600000X0.600000X0*%
%TD*%
G04 APERTURE END LIST*
D10*
%TO.P,TP202,1,1*%
%TO.N,+5V*%
X115855000Y-67985000D03*
%TD*%
D11*
%TO.P,J202,1,Pin_1*%
%TO.N,Net-(J202-Pin_1)*%
X111285000Y-64665000D03*
D12*
%TO.P,J202,2,Pin_2*%
%TO.N,Net-(J202-Pin_2)*%
X113825000Y-64665000D03*
%TD*%
D13*
%TO.P,J201,1,Pin_1*%
%TO.N,GND*%
X109340000Y-58420000D03*
D14*
%TO.P,J201,2,Pin_2*%
%TO.N,Net-(D201-A1)*%
X111840000Y-58420000D03*
%TO.P,J201,3,Pin_3*%
%TO.N,VBUS*%
X114340000Y-58420000D03*
%TO.P,J201,4,Pin_4*%
%TO.N,Enable*%
X116840000Y-58420000D03*
%TD*%
D13*
%TO.P,J103,1,Pin_1*%
%TO.N,Net-(J103-Pin_1)*%
X105840000Y-77920000D03*
D14*
%TO.P,J103,2,Pin_2*%
%TO.N,+3.3V*%
X108340000Y-77920000D03*
%TO.P,J103,3,Pin_3*%
%TO.N,Net-(J103-Pin_3)*%
X110840000Y-77920000D03*
%TO.P,J103,4*%
%TO.N,N/C*%
X113340000Y-77920000D03*
%TD*%
D15*
%TO.P,J105,1,Pin_1*%
%TO.N,/CPU/SDA*%
X51815000Y-109035000D03*
D16*
%TO.P,J105,2,Pin_2*%
%TO.N,/CPU/SCL*%
X51815000Y-111575000D03*
%TO.P,J105,3,Pin_3*%
%TO.N,+5V*%
X51815000Y-114115000D03*
%TO.P,J105,4,Pin_4*%
%TO.N,GND*%
X51815000Y-116655000D03*
%TD*%
D13*
%TO.P,J102,1,Pin_1*%
%TO.N,GND*%
X82105000Y-22315000D03*
D14*
%TO.P,J102,2,Pin_2*%
%TO.N,Net-(D101-K)*%
X84605000Y-22315000D03*
%TO.P,J102,3,Pin_3*%
%TO.N,Net-(D102-K)*%
X87105000Y-22315000D03*
%TO.P,J102,4,Pin_4*%
%TO.N,Net-(D103-K)*%
X89605000Y-22315000D03*
%TD*%
D17*
%TO.P,TP402,1,1*%
%TO.N,unconnected-(TP402-Pad1)*%
X77707000Y-79971000D03*
%TO.P,TP402,2*%
%TO.N,N/C*%
X80247000Y-79971000D03*
%TO.P,TP402,3*%
X82787000Y-79971000D03*
%TO.P,TP402,4*%
X85327000Y-79971000D03*
%TO.P,TP402,5*%
X77707000Y-82511000D03*
%TO.P,TP402,6*%
X80247000Y-82511000D03*
%TO.P,TP402,7*%
X82787000Y-82511000D03*
%TO.P,TP402,8*%
X85327000Y-82511000D03*
%TO.P,TP402,9*%
X77707000Y-85051000D03*
%TO.P,TP402,10*%
X80247000Y-85051000D03*
%TO.P,TP402,11*%
X82787000Y-85051000D03*
%TO.P,TP402,12*%
X85327000Y-85051000D03*
%TO.P,TP402,13*%
X77707000Y-87591000D03*
%TO.P,TP402,14*%
X80247000Y-87591000D03*
%TO.P,TP402,15*%
X82787000Y-87591000D03*
%TO.P,TP402,16*%
X85327000Y-87591000D03*
%TD*%
%TO.P,TP401,1,1*%
%TO.N,unconnected-(TP401-Pad1)*%
X77707000Y-69827000D03*
%TO.P,TP401,2*%
%TO.N,N/C*%
X80247000Y-69827000D03*
%TO.P,TP401,3*%
X82787000Y-69827000D03*
%TO.P,TP401,4*%
X85327000Y-69827000D03*
%TO.P,TP401,5*%
X77707000Y-72367000D03*
%TO.P,TP401,6*%
X80247000Y-72367000D03*
%TO.P,TP401,7*%
X82787000Y-72367000D03*
%TO.P,TP401,8*%
X85327000Y-72367000D03*
%TO.P,TP401,9*%
X77707000Y-74907000D03*
%TO.P,TP401,10*%
X80247000Y-74907000D03*
%TO.P,TP401,11*%
X82787000Y-74907000D03*
%TO.P,TP401,12*%
X85327000Y-74907000D03*
%TO.P,TP401,13*%
X77707000Y-77447000D03*
%TO.P,TP401,14*%
X80247000Y-77447000D03*
%TO.P,TP401,15*%
X82787000Y-77447000D03*
%TO.P,TP401,16*%
X85327000Y-77447000D03*
%TD*%
D10*
%TO.P,TP208,1,1*%
%TO.N,GND*%
X41655000Y-134555000D03*
%TD*%
D13*
%TO.P,J104,1,Pin_1*%
%TO.N,Net-(J104-Pin_1)*%
X26790000Y-100990000D03*
D14*
%TO.P,J104,2,Pin_2*%
%TO.N,Net-(J104-Pin_2)*%
X29290000Y-100990000D03*
%TO.P,J104,3,Pin_3*%
%TO.N,/CPU/Vgps*%
X31790000Y-100990000D03*
%TO.P,J104,4,Pin_4*%
%TO.N,GND*%
X34290000Y-100990000D03*
%TD*%
D18*
%TO.P,J101,1,Pin_1*%
%TO.N,EN*%
X61105000Y-74690000D03*
D12*
%TO.P,J101,2,Pin_2*%
%TO.N,+3.3V*%
X63645000Y-74690000D03*
%TO.P,J101,3,Pin_3*%
%TO.N,TX*%
X61105000Y-77230000D03*
%TO.P,J101,4,Pin_4*%
%TO.N,GND*%
X63645000Y-77230000D03*
%TO.P,J101,5,Pin_5*%
%TO.N,RX*%
X61105000Y-79770000D03*
%TO.P,J101,6,Pin_6*%
%TO.N,DR0*%
X63645000Y-79770000D03*
%TO.P,J101,7,Pin_7*%
%TO.N,Net-(J101-Pin_7)*%
X61105000Y-82310000D03*
%TO.P,J101,8,Pin_8*%
%TO.N,Net-(J101-Pin_8)*%
X63645000Y-82310000D03*
%TO.P,J101,9,Pin_9*%
%TO.N,Net-(J101-Pin_9)*%
X61105000Y-84850000D03*
%TO.P,J101,10,Pin_10*%
%TO.N,Net-(J101-Pin_10)*%
X63645000Y-84850000D03*
%TD*%
D15*
%TO.P,SW102,1,1*%
%TO.N,GND*%
X71317000Y-46428000D03*
D16*
%TO.P,SW102,2,2*%
%TO.N,EN*%
X71317000Y-48968000D03*
%TD*%
D10*
%TO.P,TP201,1,1*%
%TO.N,GND*%
X90852000Y-56743000D03*
%TD*%
D15*
%TO.P,SW101,1,1*%
%TO.N,GND*%
X66667000Y-46428000D03*
D16*
%TO.P,SW101,2,2*%
%TO.N,DR0*%
X66667000Y-48968000D03*
%TD*%
M02*
