%TF.GenerationSoftware,KiCad,Pcbnew,8.0.1*%
%TF.CreationDate,2024-06-07T18:03:32+02:00*%
%TF.ProjectId,Robuoy-Top,526f6275-6f79-42d5-946f-702e6b696361,rev?*%
%TF.SameCoordinates,Original*%
%TF.FileFunction,Copper,L1,Top*%
%TF.FilePolarity,Positive*%
%FSLAX46Y46*%
G04 Gerber Fmt 4.6, Leading zero omitted, Abs format (unit mm)*
G04 Created by KiCad (PCBNEW 8.0.1) date 2024-06-07 18:03:32*
%MOMM*%
%LPD*%
G01*
G04 APERTURE LIST*
G04 Aperture macros list*
%AMRoundRect*
0 Rectangle with rounded corners*
0 $1 Rounding radius*
0 $2 $3 $4 $5 $6 $7 $8 $9 X,Y pos of 4 corners*
0 Add a 4 corners polygon primitive as box body*
4,1,4,$2,$3,$4,$5,$6,$7,$8,$9,$2,$3,0*
0 Add four circle primitives for the rounded corners*
1,1,$1+$1,$2,$3*
1,1,$1+$1,$4,$5*
1,1,$1+$1,$6,$7*
1,1,$1+$1,$8,$9*
0 Add four rect primitives between the rounded corners*
20,1,$1+$1,$2,$3,$4,$5,0*
20,1,$1+$1,$4,$5,$6,$7,0*
20,1,$1+$1,$6,$7,$8,$9,0*
20,1,$1+$1,$8,$9,$2,$3,0*%
%AMFreePoly0*
4,1,19,0.550000,-0.750000,0.000000,-0.750000,0.000000,-0.744911,-0.071157,-0.744911,-0.207708,-0.704816,-0.327430,-0.627875,-0.420627,-0.520320,-0.479746,-0.390866,-0.500000,-0.250000,-0.500000,0.250000,-0.479746,0.390866,-0.420627,0.520320,-0.327430,0.627875,-0.207708,0.704816,-0.071157,0.744911,0.000000,0.744911,0.000000,0.750000,0.550000,0.750000,0.550000,-0.750000,0.550000,-0.750000,
$1*%
%AMFreePoly1*
4,1,19,0.000000,0.744911,0.071157,0.744911,0.207708,0.704816,0.327430,0.627875,0.420627,0.520320,0.479746,0.390866,0.500000,0.250000,0.500000,-0.250000,0.479746,-0.390866,0.420627,-0.520320,0.327430,-0.627875,0.207708,-0.704816,0.071157,-0.744911,0.000000,-0.744911,0.000000,-0.750000,-0.550000,-0.750000,-0.550000,0.750000,0.000000,0.750000,0.000000,0.744911,0.000000,0.744911,
$1*%
G04 Aperture macros list end*
%TA.AperFunction,EtchedComponent*%
%ADD10C,0.000000*%
%TD*%
%TA.AperFunction,SMDPad,CuDef*%
%ADD11C,1.400000*%
%TD*%
%TA.AperFunction,SMDPad,CuDef*%
%ADD12R,2.000000X1.500000*%
%TD*%
%TA.AperFunction,SMDPad,CuDef*%
%ADD13RoundRect,0.100000X0.100000X-0.637500X0.100000X0.637500X-0.100000X0.637500X-0.100000X-0.637500X0*%
%TD*%
%TA.AperFunction,SMDPad,CuDef*%
%ADD14RoundRect,0.150000X0.150000X-0.512500X0.150000X0.512500X-0.150000X0.512500X-0.150000X-0.512500X0*%
%TD*%
%TA.AperFunction,SMDPad,CuDef*%
%ADD15RoundRect,0.200000X0.200000X0.250000X-0.200000X0.250000X-0.200000X-0.250000X0.200000X-0.250000X0*%
%TD*%
%TA.AperFunction,SMDPad,CuDef*%
%ADD16RoundRect,0.200000X-0.250000X0.200000X-0.250000X-0.200000X0.250000X-0.200000X0.250000X0.200000X0*%
%TD*%
%TA.AperFunction,SMDPad,CuDef*%
%ADD17RoundRect,0.200000X-0.200000X-0.250000X0.200000X-0.250000X0.200000X0.250000X-0.200000X0.250000X0*%
%TD*%
%TA.AperFunction,SMDPad,CuDef*%
%ADD18RoundRect,0.200000X0.250000X-0.200000X0.250000X0.200000X-0.250000X0.200000X-0.250000X-0.200000X0*%
%TD*%
%TA.AperFunction,SMDPad,CuDef*%
%ADD19R,0.900000X1.500000*%
%TD*%
%TA.AperFunction,SMDPad,CuDef*%
%ADD20RoundRect,0.150000X-0.587500X-0.150000X0.587500X-0.150000X0.587500X0.150000X-0.587500X0.150000X0*%
%TD*%
%TA.AperFunction,ComponentPad*%
%ADD21RoundRect,0.250000X-0.600000X-0.725000X0.600000X-0.725000X0.600000X0.725000X-0.600000X0.725000X0*%
%TD*%
%TA.AperFunction,ComponentPad*%
%ADD22O,1.700000X1.950000*%
%TD*%
%TA.AperFunction,SMDPad,CuDef*%
%ADD23RoundRect,0.250000X0.400000X-0.250000X0.400000X0.250000X-0.400000X0.250000X-0.400000X-0.250000X0*%
%TD*%
%TA.AperFunction,SMDPad,CuDef*%
%ADD24RoundRect,0.091346X0.383654X0.958654X-0.383654X0.958654X-0.383654X-0.958654X0.383654X-0.958654X0*%
%TD*%
%TA.AperFunction,SMDPad,CuDef*%
%ADD25RoundRect,0.375000X-0.475000X0.375000X-0.475000X-0.375000X0.475000X-0.375000X0.475000X0.375000X0*%
%TD*%
%TA.AperFunction,ComponentPad*%
%ADD26RoundRect,0.250000X0.600000X0.725000X-0.600000X0.725000X-0.600000X-0.725000X0.600000X-0.725000X0*%
%TD*%
%TA.AperFunction,ComponentPad*%
%ADD27R,1.700000X1.700000*%
%TD*%
%TA.AperFunction,ComponentPad*%
%ADD28O,1.700000X1.700000*%
%TD*%
%TA.AperFunction,SMDPad,CuDef*%
%ADD29RoundRect,0.150000X0.512500X0.150000X-0.512500X0.150000X-0.512500X-0.150000X0.512500X-0.150000X0*%
%TD*%
%TA.AperFunction,SMDPad,CuDef*%
%ADD30FreePoly0,270.000000*%
%TD*%
%TA.AperFunction,SMDPad,CuDef*%
%ADD31R,1.500000X1.000000*%
%TD*%
%TA.AperFunction,SMDPad,CuDef*%
%ADD32FreePoly1,270.000000*%
%TD*%
%TA.AperFunction,ComponentPad*%
%ADD33C,1.500000*%
%TD*%
%TA.AperFunction,SMDPad,CuDef*%
%ADD34RoundRect,0.250000X-0.250000X-0.400000X0.250000X-0.400000X0.250000X0.400000X-0.250000X0.400000X0*%
%TD*%
%TA.AperFunction,SMDPad,CuDef*%
%ADD35RoundRect,0.250000X-1.000000X-0.900000X1.000000X-0.900000X1.000000X0.900000X-1.000000X0.900000X0*%
%TD*%
%TA.AperFunction,SMDPad,CuDef*%
%ADD36RoundRect,0.250000X-1.100000X0.325000X-1.100000X-0.325000X1.100000X-0.325000X1.100000X0.325000X0*%
%TD*%
%TA.AperFunction,SMDPad,CuDef*%
%ADD37RoundRect,0.150000X-0.150000X0.512500X-0.150000X-0.512500X0.150000X-0.512500X0.150000X0.512500X0*%
%TD*%
%TA.AperFunction,SMDPad,CuDef*%
%ADD38RoundRect,0.150000X0.587500X0.150000X-0.587500X0.150000X-0.587500X-0.150000X0.587500X-0.150000X0*%
%TD*%
%TA.AperFunction,SMDPad,CuDef*%
%ADD39RoundRect,0.250000X-0.650000X1.000000X-0.650000X-1.000000X0.650000X-1.000000X0.650000X1.000000X0*%
%TD*%
%TA.AperFunction,ComponentPad*%
%ADD40C,1.524000*%
%TD*%
%TA.AperFunction,SMDPad,CuDef*%
%ADD41R,0.650000X1.500000*%
%TD*%
%TA.AperFunction,SMDPad,CuDef*%
%ADD42R,1.800000X1.350000*%
%TD*%
%TA.AperFunction,SMDPad,CuDef*%
%ADD43RoundRect,0.150000X-0.512500X-0.150000X0.512500X-0.150000X0.512500X0.150000X-0.512500X0.150000X0*%
%TD*%
%TA.AperFunction,SMDPad,CuDef*%
%ADD44RoundRect,0.375000X-0.375000X-0.475000X0.375000X-0.475000X0.375000X0.475000X-0.375000X0.475000X0*%
%TD*%
%TA.AperFunction,SMDPad,CuDef*%
%ADD45RoundRect,0.225000X0.225000X-0.525000X0.225000X0.525000X-0.225000X0.525000X-0.225000X-0.525000X0*%
%TD*%
%TA.AperFunction,SMDPad,CuDef*%
%ADD46RoundRect,0.225000X0.525000X0.225000X-0.525000X0.225000X-0.525000X-0.225000X0.525000X-0.225000X0*%
%TD*%
%TA.AperFunction,SMDPad,CuDef*%
%ADD47RoundRect,0.250000X2.250000X-2.250000X2.250000X2.250000X-2.250000X2.250000X-2.250000X-2.250000X0*%
%TD*%
%TA.AperFunction,SMDPad,CuDef*%
%ADD48RoundRect,0.100000X-0.100000X0.350000X-0.100000X-0.350000X0.100000X-0.350000X0.100000X0.350000X0*%
%TD*%
%TA.AperFunction,ComponentPad*%
%ADD49RoundRect,0.206250X0.618750X0.618750X-0.618750X0.618750X-0.618750X-0.618750X0.618750X-0.618750X0*%
%TD*%
%TA.AperFunction,ComponentPad*%
%ADD50C,1.700000*%
%TD*%
%TA.AperFunction,SMDPad,CuDef*%
%ADD51RoundRect,0.250000X-0.400000X0.250000X-0.400000X-0.250000X0.400000X-0.250000X0.400000X0.250000X0*%
%TD*%
%TA.AperFunction,ComponentPad*%
%ADD52RoundRect,0.250000X-0.600000X-0.600000X0.600000X-0.600000X0.600000X0.600000X-0.600000X0.600000X0*%
%TD*%
%TA.AperFunction,Conductor*%
%ADD53C,0.200000*%
%TD*%
G04 APERTURE END LIST*
D10*
%TA.AperFunction,EtchedComponent*%
%TO.C,JP101*%
G36*
X25192000Y-54464000D02*
G01*
X24592000Y-54464000D01*
X24592000Y-53964000D01*
X25192000Y-53964000D01*
X25192000Y-54464000D01*
G37*
%TD.AperFunction*%
%TD*%
D11*
%TO.P,TP209,1,1*%
%TO.N,VBUS*%
X42672000Y-54356000D03*
%TD*%
%TO.P,TP207,1,1*%
%TO.N,+3.3V*%
X45720000Y-62992000D03*
%TD*%
%TO.P,TP206,1,1*%
%TO.N,Net-(U204-FB)*%
X56388000Y-63500000D03*
%TD*%
%TO.P,TP205,1,1*%
%TO.N,Net-(J202-Pin_1)*%
X69596000Y-50292000D03*
%TD*%
%TO.P,TP204,1,1*%
%TO.N,Net-(J202-Pin_2)*%
X61468000Y-50292000D03*
%TD*%
%TO.P,TP203,1,1*%
%TO.N,/CPU/Vbatt*%
X36068000Y-65024000D03*
%TD*%
%TO.P,TP201,1,1*%
%TO.N,Net-(U201-FB)*%
X41148000Y-56388000D03*
%TD*%
D12*
%TO.P,U301,1,GND*%
%TO.N,GND*%
X77088000Y-89804000D03*
%TO.P,U301,2,GND*%
X77088000Y-87804000D03*
%TO.P,U301,3,VDD*%
%TO.N,+3.3V*%
X77088000Y-85804000D03*
%TO.P,U301,4,~{RESET}*%
%TO.N,/CPU/RADIO_5*%
X77088000Y-83804000D03*
%TO.P,U301,5,DIO0*%
%TO.N,unconnected-(U301-DIO0-Pad5)*%
X77088000Y-81804000D03*
%TO.P,U301,6,DIO1*%
%TO.N,unconnected-(U301-DIO1-Pad6)*%
X77088000Y-79804000D03*
%TO.P,U301,7,DIO2*%
%TO.N,unconnected-(U301-DIO2-Pad7)*%
X77088000Y-77804000D03*
%TO.P,U301,8,DIO3*%
%TO.N,unconnected-(U301-DIO3-Pad8)*%
X77088000Y-75804000D03*
%TO.P,U301,9,GND*%
%TO.N,GND*%
X61088000Y-75804000D03*
%TO.P,U301,10,DIO4*%
%TO.N,unconnected-(U301-DIO4-Pad10)*%
X61088000Y-77804000D03*
%TO.P,U301,11,DIO5*%
%TO.N,unconnected-(U301-DIO5-Pad11)*%
X61088000Y-79804000D03*
%TO.P,U301,12,SCK*%
%TO.N,/CPU/RADIO_3*%
X61088000Y-81804000D03*
%TO.P,U301,13,MISO*%
%TO.N,/CPU/RADIO_2*%
X61088000Y-83804000D03*
%TO.P,U301,14,MOSI*%
%TO.N,/CPU/RADIO_1*%
X61088000Y-85804000D03*
%TO.P,U301,15,~{NSS}*%
%TO.N,/CPU/RADIO_4*%
X61088000Y-87804000D03*
%TO.P,U301,16,GND*%
%TO.N,GND*%
X61088000Y-89804000D03*
%TD*%
D13*
%TO.P,Q201,1,D12_1*%
%TO.N,unconnected-(Q201-D12_1-Pad1)*%
X71669000Y-60774500D03*
%TO.P,Q201,2,S1_1*%
%TO.N,Net-(J202-Pin_1)*%
X72319000Y-60774500D03*
%TO.P,Q201,3,S1_1*%
X72969000Y-60774500D03*
%TO.P,Q201,4,G1*%
%TO.N,Net-(Q201-G1)*%
X73619000Y-60774500D03*
%TO.P,Q201,5,G2*%
%TO.N,Net-(Q201-G2)*%
X73619000Y-55049500D03*
%TO.P,Q201,6,S2_2*%
%TO.N,GND*%
X72969000Y-55049500D03*
%TO.P,Q201,7,S2_2*%
X72319000Y-55049500D03*
%TO.P,Q201,8,D12_2*%
%TO.N,unconnected-(Q201-D12_2-Pad8)*%
X71669000Y-55049500D03*
%TD*%
D14*
%TO.P,U203,6,GND*%
%TO.N,Net-(J202-Pin_1)*%
X71694000Y-64902500D03*
%TO.P,U203,5,VCC*%
%TO.N,Net-(U203-VCC)*%
X72644000Y-64902500D03*
%TO.P,U203,4,TD*%
%TO.N,unconnected-(U203-TD-Pad4)*%
X73594000Y-64902500D03*
%TO.P,U203,3,OC*%
%TO.N,Net-(Q201-G2)*%
X73594000Y-67177500D03*
%TO.P,U203,2,CS*%
%TO.N,Net-(U203-CS)*%
X72644000Y-67177500D03*
%TO.P,U203,1,OD*%
%TO.N,Net-(Q201-G1)*%
X71694000Y-67177500D03*
%TD*%
D15*
%TO.P,C108,1*%
%TO.N,+3.3V*%
X26150000Y-92456000D03*
%TO.P,C108,2*%
%TO.N,GND*%
X24650000Y-92456000D03*
%TD*%
D16*
%TO.P,C104,1*%
%TO.N,+3.3V*%
X75692000Y-93230000D03*
%TO.P,C104,2*%
%TO.N,GND*%
X75692000Y-94730000D03*
%TD*%
D15*
%TO.P,C109,1*%
%TO.N,+3.3V*%
X26150000Y-90805000D03*
%TO.P,C109,2*%
%TO.N,GND*%
X24650000Y-90805000D03*
%TD*%
D17*
%TO.P,C209,1*%
%TO.N,VBUS*%
X63258000Y-56388000D03*
%TO.P,C209,2*%
%TO.N,GND*%
X64758000Y-56388000D03*
%TD*%
%TO.P,R206,1*%
%TO.N,+5V*%
X37858000Y-57912000D03*
%TO.P,R206,2*%
%TO.N,Net-(U201-FB)*%
X39358000Y-57912000D03*
%TD*%
%TO.P,R209,1*%
%TO.N,Net-(U203-CS)*%
X71894000Y-69088000D03*
%TO.P,R209,2*%
%TO.N,GND*%
X73394000Y-69088000D03*
%TD*%
D18*
%TO.P,C105,1*%
%TO.N,+3.3V*%
X38608000Y-95746000D03*
%TO.P,C105,2*%
%TO.N,GND*%
X38608000Y-94246000D03*
%TD*%
D16*
%TO.P,R108,1*%
%TO.N,BUTTON3*%
X34925000Y-104025000D03*
%TO.P,R108,2*%
%TO.N,Net-(D103-K)*%
X34925000Y-105525000D03*
%TD*%
D19*
%TO.P,D104,1,VDD*%
%TO.N,+3.3V*%
X40514000Y-97446000D03*
%TO.P,D104,2,DOUT*%
%TO.N,Net-(D104-DOUT)*%
X43814000Y-97446000D03*
%TO.P,D104,3,VSS*%
%TO.N,GND*%
X43814000Y-92546000D03*
%TO.P,D104,4,DIN*%
%TO.N,LEDS*%
X40514000Y-92546000D03*
%TD*%
D15*
%TO.P,C206,2*%
%TO.N,Net-(J202-Pin_1)*%
X71894000Y-62992000D03*
%TO.P,C206,1*%
%TO.N,Net-(U203-VCC)*%
X73394000Y-62992000D03*
%TD*%
D20*
%TO.P,Q202,1,D*%
%TO.N,VBUS*%
X63578500Y-57978000D03*
%TO.P,Q202,2,G*%
%TO.N,Net-(D201-A1)*%
X63578500Y-59878000D03*
%TO.P,Q202,3,S*%
%TO.N,Net-(J202-Pin_2)*%
X65453500Y-58928000D03*
%TD*%
D21*
%TO.P,J103,1,Pin_1*%
%TO.N,Net-(J103-Pin_1)*%
X40700000Y-109965000D03*
D22*
%TO.P,J103,2,Pin_2*%
%TO.N,+3.3V*%
X43200000Y-109965000D03*
%TO.P,J103,3,Pin_3*%
%TO.N,Net-(J103-Pin_3)*%
X45700000Y-109965000D03*
%TO.P,J103,4*%
%TO.N,N/C*%
X48200000Y-109965000D03*
%TD*%
D16*
%TO.P,C106,1*%
%TO.N,+3.3V*%
X74168000Y-93230000D03*
%TO.P,C106,2*%
%TO.N,GND*%
X74168000Y-94730000D03*
%TD*%
%TO.P,C113,1*%
%TO.N,BUTTON*%
X47625000Y-104025000D03*
%TO.P,C113,2*%
%TO.N,GND*%
X47625000Y-105525000D03*
%TD*%
%TO.P,R110,1*%
%TO.N,BUTTON1*%
X27305000Y-104025000D03*
%TO.P,R110,2*%
%TO.N,Net-(D101-K)*%
X27305000Y-105525000D03*
%TD*%
D17*
%TO.P,C114,1*%
%TO.N,+3.3V*%
X29095000Y-57785000D03*
%TO.P,C114,2*%
%TO.N,GND*%
X30595000Y-57785000D03*
%TD*%
D23*
%TO.P,D102,1,K*%
%TO.N,Net-(D102-K)*%
X29210000Y-105725000D03*
%TO.P,D102,2,A*%
%TO.N,Net-(D102-A)*%
X29210000Y-103825000D03*
%TD*%
D24*
%TO.P,L202,1*%
%TO.N,VBUS*%
X50609000Y-62484000D03*
%TO.P,L202,2*%
%TO.N,Net-(U204-SW)*%
X48959000Y-62484000D03*
%TD*%
D25*
%TO.P,C207,1*%
%TO.N,Net-(J202-Pin_2)*%
X68072000Y-56720000D03*
%TO.P,C207,2*%
%TO.N,GND*%
X68072000Y-60120000D03*
%TD*%
D17*
%TO.P,C205,1*%
%TO.N,VBUS*%
X53098000Y-63500000D03*
%TO.P,C205,2*%
%TO.N,GND*%
X54598000Y-63500000D03*
%TD*%
D26*
%TO.P,J104,1,Pin_1*%
%TO.N,Net-(J104-Pin_1)*%
X34230000Y-50055000D03*
D22*
%TO.P,J104,2,Pin_2*%
%TO.N,Net-(J104-Pin_2)*%
X31730000Y-50055000D03*
%TO.P,J104,3,Pin_3*%
%TO.N,/CPU/Vgps*%
X29230000Y-50055000D03*
%TO.P,J104,4,Pin_4*%
%TO.N,GND*%
X26730000Y-50055000D03*
%TD*%
D27*
%TO.P,SW102,1,1*%
%TO.N,GND*%
X65024000Y-66548000D03*
D28*
%TO.P,SW102,2,2*%
%TO.N,EN*%
X62484000Y-66548000D03*
%TD*%
D29*
%TO.P,U103,1,I/O1*%
%TO.N,Net-(J104-Pin_2)*%
X30982500Y-61275000D03*
%TO.P,U103,2,GND*%
%TO.N,GND*%
X30982500Y-60325000D03*
%TO.P,U103,3,I/O2*%
%TO.N,Net-(J104-Pin_1)*%
X30982500Y-59375000D03*
%TO.P,U103,4,I/O3*%
%TO.N,/CPU/SDA*%
X28707500Y-59375000D03*
%TO.P,U103,5,VBUS*%
%TO.N,+3.3V*%
X28707500Y-60325000D03*
%TO.P,U103,6,I/O4*%
%TO.N,/CPU/SCL*%
X28707500Y-61275000D03*
%TD*%
D18*
%TO.P,C111,1*%
%TO.N,BUTTON2*%
X31115000Y-102350000D03*
%TO.P,C111,2*%
%TO.N,GND*%
X31115000Y-100850000D03*
%TD*%
D30*
%TO.P,JP101,1,A*%
%TO.N,+5V*%
X24892000Y-53564000D03*
D31*
%TO.P,JP101,2,C*%
%TO.N,/CPU/Vgps*%
X24892000Y-54864000D03*
D32*
%TO.P,JP101,3,B*%
%TO.N,+3.3V*%
X24892000Y-56164000D03*
%TD*%
D33*
%TO.P,TP208,1,1*%
%TO.N,GND*%
X69088000Y-54356000D03*
%TD*%
D16*
%TO.P,C202,1*%
%TO.N,Net-(D201-A1)*%
X52324000Y-56654000D03*
%TO.P,C202,2*%
%TO.N,GND*%
X52324000Y-58154000D03*
%TD*%
D34*
%TO.P,D205,1,K*%
%TO.N,GND*%
X29022000Y-55880000D03*
%TO.P,D205,2,A*%
%TO.N,Net-(D205-A)*%
X30922000Y-55880000D03*
%TD*%
D35*
%TO.P,D201,1,A1*%
%TO.N,Net-(D201-A1)*%
X45602000Y-55880000D03*
%TO.P,D201,2,A2*%
%TO.N,GND*%
X49902000Y-55880000D03*
%TD*%
D16*
%TO.P,R109,1*%
%TO.N,BUTTON2*%
X31115000Y-104025000D03*
%TO.P,R109,2*%
%TO.N,Net-(D102-K)*%
X31115000Y-105525000D03*
%TD*%
D36*
%TO.P,C301,1*%
%TO.N,+3.3V*%
X64516000Y-93521000D03*
%TO.P,C301,2*%
%TO.N,GND*%
X64516000Y-96471000D03*
%TD*%
D15*
%TO.P,R105,1*%
%TO.N,Net-(J101-Pin_9)*%
X46470000Y-75565000D03*
%TO.P,R105,2*%
%TO.N,MTDO*%
X44970000Y-75565000D03*
%TD*%
D17*
%TO.P,C201,1*%
%TO.N,VBUS*%
X37858000Y-55880000D03*
%TO.P,C201,2*%
%TO.N,GND*%
X39358000Y-55880000D03*
%TD*%
D16*
%TO.P,R116,1*%
%TO.N,+3.3V*%
X33020000Y-100850000D03*
%TO.P,R116,2*%
%TO.N,Net-(D103-A)*%
X33020000Y-102350000D03*
%TD*%
D17*
%TO.P,R214,1*%
%TO.N,Net-(D201-A1)*%
X63258000Y-61468000D03*
%TO.P,R214,2*%
%TO.N,GND*%
X64758000Y-61468000D03*
%TD*%
D37*
%TO.P,U102,6,I/O4*%
%TO.N,BUTTON2*%
X30160000Y-98292500D03*
%TO.P,U102,5,VBUS*%
%TO.N,+3.3V*%
X29210000Y-98292500D03*
%TO.P,U102,4,I/O3*%
%TO.N,BUTTON1*%
X28260000Y-98292500D03*
%TO.P,U102,3,I/O2*%
%TO.N,BUTTON*%
X28260000Y-96017500D03*
%TO.P,U102,2,GND*%
%TO.N,GND*%
X29210000Y-96017500D03*
%TO.P,U102,1,I/O1*%
%TO.N,BUTTON3*%
X30160000Y-96017500D03*
%TD*%
D17*
%TO.P,R207,1*%
%TO.N,Net-(U201-FB)*%
X40906000Y-57912000D03*
%TO.P,R207,2*%
%TO.N,GND*%
X42406000Y-57912000D03*
%TD*%
D18*
%TO.P,C303,1*%
%TO.N,+3.3V*%
X52832000Y-95746000D03*
%TO.P,C303,2*%
%TO.N,GND*%
X52832000Y-94246000D03*
%TD*%
D15*
%TO.P,R203,1*%
%TO.N,Enable*%
X40882000Y-53848000D03*
%TO.P,R203,2*%
%TO.N,GND*%
X39382000Y-53848000D03*
%TD*%
D38*
%TO.P,Q101,1,D*%
%TO.N,GND*%
X43482500Y-105725000D03*
%TO.P,Q101,2,G*%
%TO.N,BUTTON_LIGHT*%
X43482500Y-103825000D03*
%TO.P,Q101,3,S*%
%TO.N,Net-(Q101-S)*%
X41607500Y-104775000D03*
%TD*%
D16*
%TO.P,R112,1*%
%TO.N,BUTTON*%
X45720000Y-104025000D03*
%TO.P,R112,2*%
%TO.N,Net-(J103-Pin_3)*%
X45720000Y-105525000D03*
%TD*%
D39*
%TO.P,D204,1,K*%
%TO.N,VBUS*%
X60452000Y-55404000D03*
%TO.P,D204,2,A*%
%TO.N,Net-(D201-A1)*%
X60452000Y-59404000D03*
%TD*%
D18*
%TO.P,R205,1*%
%TO.N,/CPU/Vbatt*%
X34544000Y-63234000D03*
%TO.P,R205,2*%
%TO.N,GND*%
X34544000Y-61734000D03*
%TD*%
D36*
%TO.P,C102,1*%
%TO.N,+3.3V*%
X24892000Y-94537000D03*
%TO.P,C102,2*%
%TO.N,GND*%
X24892000Y-97487000D03*
%TD*%
D16*
%TO.P,R113,1*%
%TO.N,Net-(Q101-S)*%
X39370000Y-104025000D03*
%TO.P,R113,2*%
%TO.N,Net-(J103-Pin_1)*%
X39370000Y-105525000D03*
%TD*%
D15*
%TO.P,R102,1*%
%TO.N,+3.3V*%
X46470000Y-73660000D03*
%TO.P,R102,2*%
%TO.N,EN*%
X44970000Y-73660000D03*
%TD*%
D17*
%TO.P,R212,1*%
%TO.N,+3.3V*%
X53098000Y-65024000D03*
%TO.P,R212,2*%
%TO.N,Net-(U204-FB)*%
X54598000Y-65024000D03*
%TD*%
D18*
%TO.P,D202,1,K*%
%TO.N,Net-(D202-K)*%
X54864000Y-51550000D03*
%TO.P,D202,2,A*%
%TO.N,Net-(D202-A)*%
X54864000Y-50050000D03*
%TD*%
D15*
%TO.P,R211,2*%
%TO.N,Net-(J202-Pin_2)*%
X60210000Y-52832000D03*
%TO.P,R211,1*%
%TO.N,Net-(U203-VCC)*%
X61710000Y-52832000D03*
%TD*%
D40*
%TO.P,TP402,1,1*%
%TO.N,unconnected-(TP402-Pad1)*%
X52578000Y-99822000D03*
%TO.P,TP402,2*%
%TO.N,N/C*%
X55118000Y-99822000D03*
%TO.P,TP402,3*%
X57658000Y-99822000D03*
%TO.P,TP402,4*%
X60198000Y-99822000D03*
%TO.P,TP402,5*%
X52578000Y-102362000D03*
%TO.P,TP402,6*%
X55118000Y-102362000D03*
%TO.P,TP402,7*%
X57658000Y-102362000D03*
%TO.P,TP402,8*%
X60198000Y-102362000D03*
%TO.P,TP402,9*%
X52578000Y-104902000D03*
%TO.P,TP402,10*%
X55118000Y-104902000D03*
%TO.P,TP402,11*%
X57658000Y-104902000D03*
%TO.P,TP402,12*%
X60198000Y-104902000D03*
%TO.P,TP402,13*%
X52578000Y-107442000D03*
%TO.P,TP402,14*%
X55118000Y-107442000D03*
%TO.P,TP402,15*%
X57658000Y-107442000D03*
%TO.P,TP402,16*%
X60198000Y-107442000D03*
%TD*%
D15*
%TO.P,R104,1*%
%TO.N,Net-(J101-Pin_8)*%
X46470000Y-84455000D03*
%TO.P,R104,2*%
%TO.N,MTCK*%
X44970000Y-84455000D03*
%TD*%
D41*
%TO.P,U202,1,TEMP*%
%TO.N,GND*%
X53975000Y-60104000D03*
%TO.P,U202,2,PROG*%
%TO.N,Net-(U202-PROG)*%
X55245000Y-60104000D03*
%TO.P,U202,3,GND*%
%TO.N,GND*%
X56515000Y-60104000D03*
%TO.P,U202,4,Vcc*%
%TO.N,Net-(D201-A1)*%
X57785000Y-60104000D03*
%TO.P,U202,5,BAT*%
%TO.N,Net-(J202-Pin_2)*%
X57785000Y-54704000D03*
%TO.P,U202,6,~{STDBY}*%
%TO.N,Net-(D203-K)*%
X56515000Y-54704000D03*
%TO.P,U202,7,~{CHRG}*%
%TO.N,Net-(D202-K)*%
X55245000Y-54704000D03*
%TO.P,U202,8,CE*%
%TO.N,Net-(D201-A1)*%
X53975000Y-54704000D03*
D42*
%TO.P,U202,9*%
%TO.N,N/C*%
X54980000Y-58079000D03*
X56780000Y-58079000D03*
X54980000Y-56729000D03*
X56780000Y-56729000D03*
%TD*%
D26*
%TO.P,J201,1,Pin_1*%
%TO.N,GND*%
X48962000Y-50055000D03*
D22*
%TO.P,J201,2,Pin_2*%
%TO.N,Net-(D201-A1)*%
X46462000Y-50055000D03*
%TO.P,J201,3,Pin_3*%
%TO.N,VBUS*%
X43962000Y-50055000D03*
%TO.P,J201,4,Pin_4*%
%TO.N,Enable*%
X41462000Y-50055000D03*
%TD*%
D27*
%TO.P,SW101,1,1*%
%TO.N,GND*%
X65024000Y-71120000D03*
D28*
%TO.P,SW101,2,2*%
%TO.N,DR0*%
X62484000Y-71120000D03*
%TD*%
D43*
%TO.P,U201,1,SW*%
%TO.N,Net-(U201-SW)*%
X33914500Y-57470000D03*
%TO.P,U201,2,GND*%
%TO.N,GND*%
X33914500Y-58420000D03*
%TO.P,U201,3,FB*%
%TO.N,Net-(U201-FB)*%
X33914500Y-59370000D03*
%TO.P,U201,4,EN*%
%TO.N,Enable*%
X36189500Y-59370000D03*
%TO.P,U201,5,VOUT*%
%TO.N,+5V*%
X36189500Y-58420000D03*
%TO.P,U201,6,VI*%
%TO.N,VBUS*%
X36189500Y-57470000D03*
%TD*%
D18*
%TO.P,C110,1*%
%TO.N,BUTTON1*%
X27305000Y-102350000D03*
%TO.P,C110,2*%
%TO.N,GND*%
X27305000Y-100850000D03*
%TD*%
%TO.P,R201,1*%
%TO.N,Net-(D201-A1)*%
X52832000Y-51550000D03*
%TO.P,R201,2*%
%TO.N,Net-(D202-A)*%
X52832000Y-50050000D03*
%TD*%
D40*
%TO.P,TP401,1,1*%
%TO.N,unconnected-(TP401-Pad1)*%
X62738000Y-99822000D03*
%TO.P,TP401,2*%
%TO.N,N/C*%
X65278000Y-99822000D03*
%TO.P,TP401,3*%
X67818000Y-99822000D03*
%TO.P,TP401,4*%
X70358000Y-99822000D03*
%TO.P,TP401,5*%
X62738000Y-102362000D03*
%TO.P,TP401,6*%
X65278000Y-102362000D03*
%TO.P,TP401,7*%
X67818000Y-102362000D03*
%TO.P,TP401,8*%
X70358000Y-102362000D03*
%TO.P,TP401,9*%
X62738000Y-104902000D03*
%TO.P,TP401,10*%
X65278000Y-104902000D03*
%TO.P,TP401,11*%
X67818000Y-104902000D03*
%TO.P,TP401,12*%
X70358000Y-104902000D03*
%TO.P,TP401,13*%
X62738000Y-107442000D03*
%TO.P,TP401,14*%
X65278000Y-107442000D03*
%TO.P,TP401,15*%
X67818000Y-107442000D03*
%TO.P,TP401,16*%
X70358000Y-107442000D03*
%TD*%
D36*
%TO.P,C302,1*%
%TO.N,+3.3V*%
X68072000Y-93521000D03*
%TO.P,C302,2*%
%TO.N,GND*%
X68072000Y-96471000D03*
%TD*%
D44*
%TO.P,C210,1*%
%TO.N,VBUS*%
X63324000Y-54356000D03*
%TO.P,C210,2*%
%TO.N,GND*%
X66724000Y-54356000D03*
%TD*%
D33*
%TO.P,TP202,1,1*%
%TO.N,+5V*%
X27432000Y-54356000D03*
%TD*%
D17*
%TO.P,R106,1*%
%TO.N,Net-(J101-Pin_10)*%
X44970000Y-86995000D03*
%TO.P,R106,2*%
%TO.N,MTDI*%
X46470000Y-86995000D03*
%TD*%
%TO.P,R216,1*%
%TO.N,Net-(D206-A)*%
X49034000Y-68072000D03*
%TO.P,R216,2*%
%TO.N,+3.3V*%
X50534000Y-68072000D03*
%TD*%
D23*
%TO.P,D203,1,K*%
%TO.N,Net-(D203-K)*%
X56896000Y-51750000D03*
%TO.P,D203,2,A*%
%TO.N,Net-(D203-A)*%
X56896000Y-49850000D03*
%TD*%
D17*
%TO.P,R101,1*%
%TO.N,+3.3V*%
X44970000Y-80264000D03*
%TO.P,R101,2*%
%TO.N,DR0*%
X46470000Y-80264000D03*
%TD*%
D44*
%TO.P,C204,1*%
%TO.N,+5V*%
X38432000Y-59944000D03*
%TO.P,C204,2*%
%TO.N,GND*%
X41832000Y-59944000D03*
%TD*%
D15*
%TO.P,R103,1*%
%TO.N,Net-(J101-Pin_7)*%
X46470000Y-88900000D03*
%TO.P,R103,2*%
%TO.N,MTMS*%
X44970000Y-88900000D03*
%TD*%
D23*
%TO.P,D103,1,K*%
%TO.N,Net-(D103-K)*%
X33020000Y-105725000D03*
%TO.P,D103,2,A*%
%TO.N,Net-(D103-A)*%
X33020000Y-103825000D03*
%TD*%
D17*
%TO.P,R213,1*%
%TO.N,Net-(U204-FB)*%
X56146000Y-65024000D03*
%TO.P,R213,2*%
%TO.N,GND*%
X57646000Y-65024000D03*
%TD*%
D16*
%TO.P,R107,1*%
%TO.N,+3.3V*%
X30988000Y-67322000D03*
%TO.P,R107,2*%
%TO.N,/CPU/SDA*%
X30988000Y-68822000D03*
%TD*%
D45*
%TO.P,U101,1,GND*%
%TO.N,GND*%
X24743000Y-88750000D03*
%TO.P,U101,2,VDD*%
%TO.N,+3.3V*%
X26013000Y-88750000D03*
%TO.P,U101,3,CHIP_PU/EN*%
%TO.N,EN*%
X27283000Y-88750000D03*
%TO.P,U101,4,GPIO36*%
%TO.N,BUTTON1*%
X28553000Y-88750000D03*
%TO.P,U101,5,GPIO39*%
%TO.N,/CPU/Vbatt*%
X29823000Y-88750000D03*
%TO.P,U101,6,GPIO34*%
%TO.N,BUTTON2*%
X31093000Y-88750000D03*
%TO.P,U101,7,GPIO35*%
%TO.N,BUTTON3*%
X32363000Y-88750000D03*
%TO.P,U101,8,GPIO32*%
%TO.N,unconnected-(U101-GPIO32-Pad8)*%
X33633000Y-88750000D03*
%TO.P,U101,9,GPIO33*%
%TO.N,BUTTON*%
X34903000Y-88750000D03*
%TO.P,U101,10,GPIO25*%
%TO.N,BUTTON_LIGHT*%
X36173000Y-88750000D03*
%TO.P,U101,11,GPIO26*%
%TO.N,LEDS*%
X37443000Y-88750000D03*
%TO.P,U101,12,GPIO27*%
%TO.N,unconnected-(U101-GPIO27-Pad12)*%
X38713000Y-88750000D03*
%TO.P,U101,13,MTMS/SCK/CLK/GPIO14*%
%TO.N,MTMS*%
X39983000Y-88750000D03*
%TO.P,U101,14,MTDI/MISO/D2/GPIO12*%
%TO.N,MTDI*%
X41253000Y-88750000D03*
D46*
%TO.P,U101,15,GND*%
%TO.N,GND*%
X42503000Y-85715000D03*
%TO.P,U101,16,MTCK/MOSI/D3/GPIO13*%
%TO.N,MTCK*%
X42503000Y-84445000D03*
%TO.P,U101,17,NC*%
%TO.N,unconnected-(U101-NC-Pad17)*%
X42503000Y-83175000D03*
%TO.P,U101,18,NC*%
%TO.N,unconnected-(U101-NC-Pad18)*%
X42503000Y-81905000D03*
%TO.P,U101,19,NC*%
%TO.N,unconnected-(U101-NC-Pad19)*%
X42503000Y-80635000D03*
%TO.P,U101,20,NC*%
%TO.N,unconnected-(U101-NC-Pad20)*%
X42503000Y-79365000D03*
%TO.P,U101,21,NC*%
%TO.N,unconnected-(U101-NC-Pad21)*%
X42503000Y-78095000D03*
%TO.P,U101,22,NC*%
%TO.N,unconnected-(U101-NC-Pad22)*%
X42503000Y-76825000D03*
%TO.P,U101,23,MTDO/CS/CMD/GPIO15*%
%TO.N,MTDO*%
X42503000Y-75555000D03*
%TO.P,U101,24,D0/GPIO2*%
%TO.N,/CPU/RADIO_5*%
X42503000Y-74285000D03*
D45*
%TO.P,U101,25,BOOT/GPIO0*%
%TO.N,DR0*%
X41253000Y-71250000D03*
%TO.P,U101,26,D1/GPIO4*%
%TO.N,unconnected-(U101-D1{slash}GPIO4-Pad26)*%
X39983000Y-71250000D03*
%TO.P,U101,27,RXD/GPIO16*%
%TO.N,Net-(J104-Pin_2)*%
X38713000Y-71250000D03*
%TO.P,U101,28,TXD/GPIO17*%
%TO.N,Net-(J104-Pin_1)*%
X37443000Y-71250000D03*
%TO.P,U101,29,CS/GPIO5*%
%TO.N,/CPU/RADIO_4*%
X36173000Y-71250000D03*
%TO.P,U101,30,SCK/GPIO18*%
%TO.N,/CPU/RADIO_3*%
X34903000Y-71250000D03*
%TO.P,U101,31,MISO/GPIO19*%
%TO.N,/CPU/RADIO_2*%
X33633000Y-71250000D03*
%TO.P,U101,32,NC*%
%TO.N,unconnected-(U101-NC-Pad32)*%
X32363000Y-71250000D03*
%TO.P,U101,33,SDA/GPIO21*%
%TO.N,/CPU/SDA*%
X31093000Y-71250000D03*
%TO.P,U101,34,RXD/GPIO3*%
%TO.N,RX*%
X29823000Y-71250000D03*
%TO.P,U101,35,TXD/GPIO1*%
%TO.N,TX*%
X28553000Y-71250000D03*
%TO.P,U101,36,SCL/GPIO22*%
%TO.N,/CPU/SCL*%
X27283000Y-71250000D03*
%TO.P,U101,37,MOSI/GPIO23*%
%TO.N,/CPU/RADIO_1*%
X26013000Y-71250000D03*
%TO.P,U101,38,GND*%
%TO.N,GND*%
X24743000Y-71250000D03*
D47*
%TO.P,U101,39,GND*%
X32088000Y-80860000D03*
%TD*%
D17*
%TO.P,C101,1*%
%TO.N,EN*%
X63258000Y-63500000D03*
%TO.P,C101,2*%
%TO.N,GND*%
X64758000Y-63500000D03*
%TD*%
D48*
%TO.P,U104,1,VCC*%
%TO.N,+3.3V*%
X29860000Y-63670000D03*
%TO.P,U104,2,GND*%
%TO.N,GND*%
X29210000Y-63670000D03*
%TO.P,U104,3,EN*%
%TO.N,+3.3V*%
X28560000Y-63670000D03*
%TO.P,U104,4,BUS2*%
%TO.N,/CPU/SCL*%
X28560000Y-65870000D03*
%TO.P,U104,5,GND*%
%TO.N,GND*%
X29210000Y-65870000D03*
%TO.P,U104,6,BUS1*%
%TO.N,/CPU/SDA*%
X29860000Y-65870000D03*
%TD*%
D27*
%TO.P,J105,1,Pin_1*%
%TO.N,/CPU/SDA*%
X25425000Y-59065000D03*
D28*
%TO.P,J105,2,Pin_2*%
%TO.N,/CPU/SCL*%
X25425000Y-61605000D03*
%TO.P,J105,3,Pin_3*%
%TO.N,+5V*%
X25425000Y-64145000D03*
%TO.P,J105,4,Pin_4*%
%TO.N,GND*%
X25425000Y-66685000D03*
%TD*%
D18*
%TO.P,C203,1*%
%TO.N,/CPU/Vbatt*%
X33020000Y-63234000D03*
%TO.P,C203,2*%
%TO.N,GND*%
X33020000Y-61734000D03*
%TD*%
D16*
%TO.P,R115,1*%
%TO.N,+3.3V*%
X29210000Y-100850000D03*
%TO.P,R115,2*%
%TO.N,Net-(D102-A)*%
X29210000Y-102350000D03*
%TD*%
D43*
%TO.P,U204,1,SW*%
%TO.N,Net-(U204-SW)*%
X48646500Y-64582000D03*
%TO.P,U204,2,GND*%
%TO.N,GND*%
X48646500Y-65532000D03*
%TO.P,U204,3,FB*%
%TO.N,Net-(U204-FB)*%
X48646500Y-66482000D03*
%TO.P,U204,4,EN*%
%TO.N,Enable*%
X50921500Y-66482000D03*
%TO.P,U204,5,VOUT*%
%TO.N,+3.3V*%
X50921500Y-65532000D03*
%TO.P,U204,6,VI*%
%TO.N,VBUS*%
X50921500Y-64582000D03*
%TD*%
D49*
%TO.P,J202,1,Pin_1*%
%TO.N,Net-(J202-Pin_1)*%
X66802000Y-50800000D03*
D50*
%TO.P,J202,2,Pin_2*%
%TO.N,Net-(J202-Pin_2)*%
X64262000Y-50800000D03*
%TD*%
D18*
%TO.P,C107,1*%
%TO.N,+3.3V*%
X45720000Y-95746000D03*
%TO.P,C107,2*%
%TO.N,GND*%
X45720000Y-94246000D03*
%TD*%
D19*
%TO.P,D105,1,VDD*%
%TO.N,+3.3V*%
X47626000Y-97446000D03*
%TO.P,D105,2,DOUT*%
%TO.N,Net-(D105-DOUT)*%
X50926000Y-97446000D03*
%TO.P,D105,3,VSS*%
%TO.N,GND*%
X50926000Y-92546000D03*
%TO.P,D105,4,DIN*%
%TO.N,Net-(D104-DOUT)*%
X47626000Y-92546000D03*
%TD*%
D44*
%TO.P,C208,1*%
%TO.N,+3.3V*%
X53164000Y-67056000D03*
%TO.P,C208,2*%
%TO.N,GND*%
X56564000Y-67056000D03*
%TD*%
D16*
%TO.P,R202,1*%
%TO.N,Net-(D203-A)*%
X58928000Y-50050000D03*
%TO.P,R202,2*%
%TO.N,Net-(D201-A1)*%
X58928000Y-51550000D03*
%TD*%
D23*
%TO.P,D101,1,K*%
%TO.N,Net-(D101-K)*%
X25400000Y-105725000D03*
%TO.P,D101,2,A*%
%TO.N,Net-(D101-A)*%
X25400000Y-103825000D03*
%TD*%
D19*
%TO.P,D106,1,VDD*%
%TO.N,+3.3V*%
X54738000Y-97446000D03*
%TO.P,D106,2,DOUT*%
%TO.N,unconnected-(D106-DOUT-Pad2)*%
X58038000Y-97446000D03*
%TO.P,D106,3,VSS*%
%TO.N,GND*%
X58038000Y-92546000D03*
%TO.P,D106,4,DIN*%
%TO.N,Net-(D105-DOUT)*%
X54738000Y-92546000D03*
%TD*%
D51*
%TO.P,D206,1,K*%
%TO.N,GND*%
X46228000Y-65598000D03*
%TO.P,D206,2,A*%
%TO.N,Net-(D206-A)*%
X46228000Y-67498000D03*
%TD*%
D16*
%TO.P,R111,1*%
%TO.N,+3.3V*%
X28448000Y-67322000D03*
%TO.P,R111,2*%
%TO.N,/CPU/SCL*%
X28448000Y-68822000D03*
%TD*%
D18*
%TO.P,C112,1*%
%TO.N,BUTTON3*%
X34925000Y-102350000D03*
%TO.P,C112,2*%
%TO.N,GND*%
X34925000Y-100850000D03*
%TD*%
D16*
%TO.P,R114,1*%
%TO.N,+3.3V*%
X25400000Y-100850000D03*
%TO.P,R114,2*%
%TO.N,Net-(D101-A)*%
X25400000Y-102350000D03*
%TD*%
D17*
%TO.P,R208,1*%
%TO.N,Net-(U202-PROG)*%
X55130000Y-61976000D03*
%TO.P,R208,2*%
%TO.N,GND*%
X56630000Y-61976000D03*
%TD*%
D36*
%TO.P,C103,1*%
%TO.N,+3.3V*%
X71628000Y-93521000D03*
%TO.P,C103,2*%
%TO.N,GND*%
X71628000Y-96471000D03*
%TD*%
D16*
%TO.P,R204,1*%
%TO.N,Enable*%
X36068000Y-61734000D03*
%TO.P,R204,2*%
%TO.N,/CPU/Vbatt*%
X36068000Y-63234000D03*
%TD*%
D21*
%TO.P,J102,1,Pin_1*%
%TO.N,GND*%
X26035000Y-109855000D03*
D22*
%TO.P,J102,2,Pin_2*%
%TO.N,Net-(D101-K)*%
X28535000Y-109855000D03*
%TO.P,J102,3,Pin_3*%
%TO.N,Net-(D102-K)*%
X31035000Y-109855000D03*
%TO.P,J102,4,Pin_4*%
%TO.N,Net-(D103-K)*%
X33535000Y-109855000D03*
%TD*%
D17*
%TO.P,R215,1*%
%TO.N,+5V*%
X29222000Y-54356000D03*
%TO.P,R215,2*%
%TO.N,Net-(D205-A)*%
X30722000Y-54356000D03*
%TD*%
D24*
%TO.P,L201,1*%
%TO.N,VBUS*%
X35877000Y-55372000D03*
%TO.P,L201,2*%
%TO.N,Net-(U201-SW)*%
X34227000Y-55372000D03*
%TD*%
D52*
%TO.P,J101,1,Pin_1*%
%TO.N,EN*%
X52587500Y-74930000D03*
D50*
%TO.P,J101,2,Pin_2*%
%TO.N,+3.3V*%
X55127500Y-74930000D03*
%TO.P,J101,3,Pin_3*%
%TO.N,TX*%
X52587500Y-77470000D03*
%TO.P,J101,4,Pin_4*%
%TO.N,GND*%
X55127500Y-77470000D03*
%TO.P,J101,5,Pin_5*%
%TO.N,RX*%
X52587500Y-80010000D03*
%TO.P,J101,6,Pin_6*%
%TO.N,DR0*%
X55127500Y-80010000D03*
%TO.P,J101,7,Pin_7*%
%TO.N,Net-(J101-Pin_7)*%
X52587500Y-82550000D03*
%TO.P,J101,8,Pin_8*%
%TO.N,Net-(J101-Pin_8)*%
X55127500Y-82550000D03*
%TO.P,J101,9,Pin_9*%
%TO.N,Net-(J101-Pin_9)*%
X52587500Y-85090000D03*
%TO.P,J101,10,Pin_10*%
%TO.N,Net-(J101-Pin_10)*%
X55127500Y-85090000D03*
%TD*%
D53*
%TO.N,BUTTON3*%
X34925000Y-104025000D02*
X34925000Y-102350000D01*
%TO.N,BUTTON1*%
X27305000Y-104025000D02*
X27305000Y-102350000D01*
%TO.N,BUTTON2*%
X31115000Y-104025000D02*
X31115000Y-102350000D01*
%TO.N,Net-(D103-K)*%
X33020000Y-109340000D02*
X33535000Y-109855000D01*
X33020000Y-105725000D02*
X33020000Y-109340000D01*
%TO.N,Net-(D102-K)*%
X31115000Y-109775000D02*
X31035000Y-109855000D01*
X31115000Y-105525000D02*
X31115000Y-109775000D01*
%TO.N,Net-(D101-K)*%
X28535000Y-107910000D02*
X27305000Y-106680000D01*
X28535000Y-109855000D02*
X28535000Y-107910000D01*
X27305000Y-106680000D02*
X27305000Y-105525000D01*
%TD*%
M02*
