M48
; DRILL file {KiCad 8.0.3} date 2024-06-18T21:54:41+0200
; FORMAT={-:-/ absolute / inch / decimal}
; #@! TF.CreationDate,2024-06-18T21:54:41+02:00
; #@! TF.GenerationSoftware,Kicad,Pcbnew,8.0.3
; #@! TF.FileFunction,Plated,1,4,PTH
FMAT,2
INCH
; #@! TA.AperFunction,Plated,PTH,ViaDrill
T1C0.0098
; #@! TA.AperFunction,Plated,PTH,ViaDrill
T2C0.0157
; #@! TA.AperFunction,Plated,PTH,ComponentDrill
T3C0.0315
; #@! TA.AperFunction,Plated,PTH,ComponentDrill
T4C0.0354
; #@! TA.AperFunction,Plated,PTH,ComponentDrill
T5C0.0374
; #@! TA.AperFunction,Plated,PTH,ComponentDrill
T6C0.0394
; #@! TA.AperFunction,Plated,PTH,ComponentDrill
T7C0.0709
%
G90
G05
T1
X0.94Y-3.495
X0.9843Y-1.811
X0.9843Y-1.8898
X0.9843Y-2.9134
X0.9843Y-2.9528
X0.9843Y-2.9921
X0.9843Y-3.0315
X0.9843Y-3.0709
X0.9843Y-3.1102
X0.9843Y-3.1496
X0.9843Y-3.189
X0.9843Y-3.2283
X0.9843Y-3.2677
X0.9843Y-3.3071
X0.9843Y-3.3465
X0.9843Y-3.3858
X0.9843Y-4.2126
X0.9843Y-4.4488
X1.034Y-3.975
X1.063Y-1.811
X1.074Y-3.912
X1.113Y-3.734
X1.15Y-3.736
X1.152Y-2.6505
X1.1712Y-3.9747
X1.175Y-2.561
X1.225Y-3.912
X1.23Y-2.31
X1.23Y-2.4409
X1.26Y-2.396
X1.264Y-3.975
X1.274Y-2.253
X1.3Y-2.661
X1.301Y-2.197
X1.33Y-3.77
X1.331Y-2.726
X1.365Y-3.875
X1.38Y-2.32
X1.412Y-3.945
X1.47Y-2.76
X1.495Y-3.691
X1.4961Y-3.189
X1.51Y-2.68
X1.52Y-2.76
X1.523Y-3.951
X1.5276Y-2.3976
X1.555Y-2.305
X1.61Y-3.77
X1.615Y-2.948
X1.6752Y-2.4761
X1.6752Y-2.5148
X1.717Y-4.156
X1.7717Y-2.3386
X1.7717Y-3.189
X1.775Y-3.692
X1.8052Y-2.5148
X1.8504Y-4.4488
X1.878Y-2.3268
X1.88Y-4.153
X1.89Y-3.77
X1.9291Y-2.6378
X1.9685Y-3.4646
X1.9882Y-2.4252
X2.0472Y-4.2913
X2.055Y-3.694
X2.126Y-2.7953
X2.127Y-4.01
X2.2047Y-3.5433
X2.2205Y-3.685
X2.3425Y-2.5669
X2.4803Y-4.1339
X2.5591Y-2.2756
X2.5984Y-1.8031
X2.5984Y-3.2283
X2.6339Y-3.874
X2.7008Y-2.878
X2.7165Y-2.9291
X2.7559Y-3.0315
X2.7559Y-3.2283
X2.7559Y-3.3465
X2.7559Y-3.5433
X2.79Y-2.64
X2.8346Y-4.4488
X2.8386Y-2.2427
X2.874Y-2.2441
X2.874Y-3.4646
X2.91Y-2.44
X2.9134Y-2.2441
X2.937Y-4.0669
X2.9567Y-2.8268
X3.0315Y-2.3622
X3.0315Y-2.5197
X3.0315Y-2.7165
X3.0354Y-4.0118
X3.0709Y-1.811
X3.0709Y-2.0472
X3.0709Y-2.1654
X3.0709Y-4.2126
X3.0709Y-4.4488
T2
X0.863Y-3.857
X0.974Y-3.437
X0.975Y-2.753
X0.975Y-2.859
X0.996Y-3.889
X1.137Y-2.548
X1.174Y-3.093
X1.174Y-3.274
X1.215Y-2.496
X1.259Y-3.183
X1.28Y-2.3
X1.282Y-2.355
X1.297Y-2.9895
X1.353Y-3.093
X1.354Y-3.275
X1.37Y-2.41
X1.47Y-2.091
X1.48Y-2.31
X1.492Y-2.496
X1.53Y-2.93
X1.5886Y-2.5248
X1.5914Y-2.4661
X1.62Y-3.374
X1.727Y-3.375
X1.74Y-2.65
X1.74Y-2.79
X1.91Y-2.4
X1.947Y-3.202
X1.95Y-3.29
X2.0863Y-2.3663
X2.28Y-2.09
X2.28Y-2.44
X2.313Y-3.202
X2.34Y-2.986
X2.405Y-3.596
X2.406Y-2.931
X2.472Y-2.985
X2.472Y-3.536
X2.56Y-2.14
X2.83Y-2.11
X2.87Y-2.11
X2.93Y-2.72
X2.96Y-3.3
X2.9764Y-3.8071
X2.9764Y-3.9449
X2.9843Y-3.4921
X3.035Y-3.589
T3
X2.5906Y-4.0354
X2.5906Y-4.2913
T4
X1.08Y-2.14
X2.19Y-2.55
T5
X1.025Y-4.2913
X1.0524Y-1.9707
X1.1234Y-4.2913
X1.1508Y-1.9707
X1.2219Y-4.2913
X1.2492Y-1.9707
X1.3203Y-4.2913
X1.3476Y-1.9707
X1.6024Y-4.2913
X1.6324Y-1.9707
X1.7008Y-4.2913
X1.7308Y-1.9707
X1.7992Y-4.2913
X1.8292Y-1.9707
X1.9276Y-1.9707
T6
X1.001Y-2.3254
X1.001Y-2.4254
X1.001Y-2.5254
X1.001Y-2.6254
X2.0704Y-2.95
X2.0704Y-3.05
X2.0704Y-3.15
X2.0704Y-3.25
X2.0704Y-3.35
X2.1704Y-2.95
X2.1704Y-3.05
X2.1704Y-3.15
X2.1704Y-3.25
X2.1704Y-3.35
X2.46Y-2.62
X2.46Y-2.8
X2.5531Y-1.9695
X2.56Y-2.62
X2.56Y-2.8
X2.6516Y-1.9695
T7
X2.3543Y-3.7598
X2.5394Y-3.7598
X2.7244Y-3.7598
M30
