%TF.GenerationSoftware,KiCad,Pcbnew,8.0.1*%
%TF.CreationDate,2024-06-07T18:03:32+02:00*%
%TF.ProjectId,Robuoy-Top,526f6275-6f79-42d5-946f-702e6b696361,rev?*%
%TF.SameCoordinates,Original*%
%TF.FileFunction,Legend,Bot*%
%TF.FilePolarity,Positive*%
%FSLAX46Y46*%
G04 Gerber Fmt 4.6, Leading zero omitted, Abs format (unit mm)*
G04 Created by KiCad (PCBNEW 8.0.1) date 2024-06-07 18:03:32*
%MOMM*%
%LPD*%
G01*
G04 APERTURE LIST*
G04 Aperture macros list*
%AMRoundRect*
0 Rectangle with rounded corners*
0 $1 Rounding radius*
0 $2 $3 $4 $5 $6 $7 $8 $9 X,Y pos of 4 corners*
0 Add a 4 corners polygon primitive as box body*
4,1,4,$2,$3,$4,$5,$6,$7,$8,$9,$2,$3,0*
0 Add four circle primitives for the rounded corners*
1,1,$1+$1,$2,$3*
1,1,$1+$1,$4,$5*
1,1,$1+$1,$6,$7*
1,1,$1+$1,$8,$9*
0 Add four rect primitives between the rounded corners*
20,1,$1+$1,$2,$3,$4,$5,0*
20,1,$1+$1,$4,$5,$6,$7,0*
20,1,$1+$1,$6,$7,$8,$9,0*
20,1,$1+$1,$8,$9,$2,$3,0*%
G04 Aperture macros list end*
%ADD10C,0.100000*%
%ADD11C,3.200000*%
%ADD12RoundRect,0.250000X-0.600000X-0.725000X0.600000X-0.725000X0.600000X0.725000X-0.600000X0.725000X0*%
%ADD13O,1.700000X1.950000*%
%ADD14RoundRect,0.250000X0.600000X0.725000X-0.600000X0.725000X-0.600000X-0.725000X0.600000X-0.725000X0*%
%ADD15R,1.700000X1.700000*%
%ADD16O,1.700000X1.700000*%
%ADD17C,1.500000*%
%ADD18C,1.524000*%
%ADD19RoundRect,0.206250X0.618750X0.618750X-0.618750X0.618750X-0.618750X-0.618750X0.618750X-0.618750X0*%
%ADD20C,1.700000*%
%ADD21RoundRect,0.250000X-0.600000X-0.600000X0.600000X-0.600000X0.600000X0.600000X-0.600000X0.600000X0*%
G04 APERTURE END LIST*
D10*
%TO.C,H403*%
X20750000Y-110000000D02*
G75*
G02*
X15250000Y-110000000I-2750000J0D01*
G01*
X15250000Y-110000000D02*
G75*
G02*
X20750000Y-110000000I2750000J0D01*
G01*
%TO.C,H402*%
X77750000Y-50000000D02*
G75*
G02*
X72250000Y-50000000I-2750000J0D01*
G01*
X72250000Y-50000000D02*
G75*
G02*
X77750000Y-50000000I2750000J0D01*
G01*
%TO.C,TP208*%
X70038000Y-54356000D02*
G75*
G02*
X68138000Y-54356000I-950000J0D01*
G01*
X68138000Y-54356000D02*
G75*
G02*
X70038000Y-54356000I950000J0D01*
G01*
%TO.C,H401*%
X77750000Y-110000000D02*
G75*
G02*
X72250000Y-110000000I-2750000J0D01*
G01*
X72250000Y-110000000D02*
G75*
G02*
X77750000Y-110000000I2750000J0D01*
G01*
%TO.C,H404*%
X20750000Y-50000000D02*
G75*
G02*
X15250000Y-50000000I-2750000J0D01*
G01*
X15250000Y-50000000D02*
G75*
G02*
X20750000Y-50000000I2750000J0D01*
G01*
%TO.C,TP202*%
X28382000Y-54356000D02*
G75*
G02*
X26482000Y-54356000I-950000J0D01*
G01*
X26482000Y-54356000D02*
G75*
G02*
X28382000Y-54356000I950000J0D01*
G01*
%TD*%
%LPC*%
D11*
%TO.C,H403*%
X18000000Y-110000000D03*
%TD*%
D12*
%TO.C,J103*%
X40700000Y-109965000D03*
D13*
X43200000Y-109965000D03*
X45700000Y-109965000D03*
X48200000Y-109965000D03*
%TD*%
D14*
%TO.C,J104*%
X34230000Y-50055000D03*
D13*
X31730000Y-50055000D03*
X29230000Y-50055000D03*
X26730000Y-50055000D03*
%TD*%
D15*
%TO.C,SW102*%
X65024000Y-66548000D03*
D16*
X62484000Y-66548000D03*
%TD*%
D11*
%TO.C,H402*%
X75000000Y-50000000D03*
%TD*%
D17*
%TO.C,TP208*%
X69088000Y-54356000D03*
%TD*%
D18*
%TO.C,TP402*%
X52578000Y-99822000D03*
X55118000Y-99822000D03*
X57658000Y-99822000D03*
X60198000Y-99822000D03*
X52578000Y-102362000D03*
X55118000Y-102362000D03*
X57658000Y-102362000D03*
X60198000Y-102362000D03*
X52578000Y-104902000D03*
X55118000Y-104902000D03*
X57658000Y-104902000D03*
X60198000Y-104902000D03*
X52578000Y-107442000D03*
X55118000Y-107442000D03*
X57658000Y-107442000D03*
X60198000Y-107442000D03*
%TD*%
D11*
%TO.C,H401*%
X75000000Y-110000000D03*
%TD*%
D14*
%TO.C,J201*%
X48962000Y-50055000D03*
D13*
X46462000Y-50055000D03*
X43962000Y-50055000D03*
X41462000Y-50055000D03*
%TD*%
D15*
%TO.C,SW101*%
X65024000Y-71120000D03*
D16*
X62484000Y-71120000D03*
%TD*%
D11*
%TO.C,H404*%
X18000000Y-50000000D03*
%TD*%
D18*
%TO.C,TP401*%
X62738000Y-99822000D03*
X65278000Y-99822000D03*
X67818000Y-99822000D03*
X70358000Y-99822000D03*
X62738000Y-102362000D03*
X65278000Y-102362000D03*
X67818000Y-102362000D03*
X70358000Y-102362000D03*
X62738000Y-104902000D03*
X65278000Y-104902000D03*
X67818000Y-104902000D03*
X70358000Y-104902000D03*
X62738000Y-107442000D03*
X65278000Y-107442000D03*
X67818000Y-107442000D03*
X70358000Y-107442000D03*
%TD*%
D17*
%TO.C,TP202*%
X27432000Y-54356000D03*
%TD*%
D15*
%TO.C,J105*%
X25425000Y-59065000D03*
D16*
X25425000Y-61605000D03*
X25425000Y-64145000D03*
X25425000Y-66685000D03*
%TD*%
D19*
%TO.C,J202*%
X66802000Y-50800000D03*
D20*
X64262000Y-50800000D03*
%TD*%
D12*
%TO.C,J102*%
X26035000Y-109855000D03*
D13*
X28535000Y-109855000D03*
X31035000Y-109855000D03*
X33535000Y-109855000D03*
%TD*%
D21*
%TO.C,J101*%
X52587500Y-74930000D03*
D20*
X55127500Y-74930000D03*
X52587500Y-77470000D03*
X55127500Y-77470000D03*
X52587500Y-80010000D03*
X55127500Y-80010000D03*
X52587500Y-82550000D03*
X55127500Y-82550000D03*
X52587500Y-85090000D03*
X55127500Y-85090000D03*
%TD*%
%LPD*%
M02*
