%TF.GenerationSoftware,KiCad,Pcbnew,8.0.1*%
%TF.CreationDate,2024-06-10T15:39:53+02:00*%
%TF.ProjectId,Robuoy-Top,526f6275-6f79-42d5-946f-702e6b696361,rev?*%
%TF.SameCoordinates,Original*%
%TF.FileFunction,Legend,Bot*%
%TF.FilePolarity,Positive*%
%FSLAX46Y46*%
G04 Gerber Fmt 4.6, Leading zero omitted, Abs format (unit mm)*
G04 Created by KiCad (PCBNEW 8.0.1) date 2024-06-10 15:39:53*
%MOMM*%
%LPD*%
G01*
G04 APERTURE LIST*
G04 Aperture macros list*
%AMRoundRect*
0 Rectangle with rounded corners*
0 $1 Rounding radius*
0 $2 $3 $4 $5 $6 $7 $8 $9 X,Y pos of 4 corners*
0 Add a 4 corners polygon primitive as box body*
4,1,4,$2,$3,$4,$5,$6,$7,$8,$9,$2,$3,0*
0 Add four circle primitives for the rounded corners*
1,1,$1+$1,$2,$3*
1,1,$1+$1,$4,$5*
1,1,$1+$1,$6,$7*
1,1,$1+$1,$8,$9*
0 Add four rect primitives between the rounded corners*
20,1,$1+$1,$2,$3,$4,$5,0*
20,1,$1+$1,$4,$5,$6,$7,0*
20,1,$1+$1,$6,$7,$8,$9,0*
20,1,$1+$1,$8,$9,$2,$3,0*%
G04 Aperture macros list end*
%ADD10C,0.100000*%
%ADD11C,3.200000*%
%ADD12RoundRect,0.250000X-0.600000X-0.725000X0.600000X-0.725000X0.600000X0.725000X-0.600000X0.725000X0*%
%ADD13O,1.700000X1.950000*%
%ADD14RoundRect,0.250000X0.600000X0.725000X-0.600000X0.725000X-0.600000X-0.725000X0.600000X-0.725000X0*%
%ADD15R,1.700000X1.700000*%
%ADD16O,1.700000X1.700000*%
%ADD17C,1.500000*%
%ADD18C,3.500000*%
%ADD19R,1.650000X1.650000*%
%ADD20C,1.700000*%
%ADD21RoundRect,0.206250X0.618750X0.618750X-0.618750X0.618750X-0.618750X-0.618750X0.618750X-0.618750X0*%
%ADD22RoundRect,0.250000X-0.600000X-0.600000X0.600000X-0.600000X0.600000X0.600000X-0.600000X0.600000X0*%
G04 APERTURE END LIST*
D10*
X73606953Y-58257875D02*
X73454572Y-58257875D01*
X73454572Y-58257875D02*
X73378382Y-58295970D01*
X73378382Y-58295970D02*
X73302191Y-58372160D01*
X73302191Y-58372160D02*
X73264096Y-58524541D01*
X73264096Y-58524541D02*
X73264096Y-58791208D01*
X73264096Y-58791208D02*
X73302191Y-58943589D01*
X73302191Y-58943589D02*
X73378382Y-59019780D01*
X73378382Y-59019780D02*
X73454572Y-59057875D01*
X73454572Y-59057875D02*
X73606953Y-59057875D01*
X73606953Y-59057875D02*
X73683144Y-59019780D01*
X73683144Y-59019780D02*
X73759334Y-58943589D01*
X73759334Y-58943589D02*
X73797430Y-58791208D01*
X73797430Y-58791208D02*
X73797430Y-58524541D01*
X73797430Y-58524541D02*
X73759334Y-58372160D01*
X73759334Y-58372160D02*
X73683144Y-58295970D01*
X73683144Y-58295970D02*
X73606953Y-58257875D01*
X72921239Y-58524541D02*
X72921239Y-59324541D01*
X72921239Y-58562637D02*
X72845049Y-58524541D01*
X72845049Y-58524541D02*
X72692668Y-58524541D01*
X72692668Y-58524541D02*
X72616477Y-58562637D01*
X72616477Y-58562637D02*
X72578382Y-58600732D01*
X72578382Y-58600732D02*
X72540287Y-58676922D01*
X72540287Y-58676922D02*
X72540287Y-58905494D01*
X72540287Y-58905494D02*
X72578382Y-58981684D01*
X72578382Y-58981684D02*
X72616477Y-59019780D01*
X72616477Y-59019780D02*
X72692668Y-59057875D01*
X72692668Y-59057875D02*
X72845049Y-59057875D01*
X72845049Y-59057875D02*
X72921239Y-59019780D01*
X72311715Y-58524541D02*
X72006953Y-58524541D01*
X72197429Y-58257875D02*
X72197429Y-58943589D01*
X72197429Y-58943589D02*
X72159334Y-59019780D01*
X72159334Y-59019780D02*
X72083144Y-59057875D01*
X72083144Y-59057875D02*
X72006953Y-59057875D01*
X71740286Y-59057875D02*
X71740286Y-58524541D01*
X71740286Y-58257875D02*
X71778382Y-58295970D01*
X71778382Y-58295970D02*
X71740286Y-58334065D01*
X71740286Y-58334065D02*
X71702191Y-58295970D01*
X71702191Y-58295970D02*
X71740286Y-58257875D01*
X71740286Y-58257875D02*
X71740286Y-58334065D01*
X71245049Y-59057875D02*
X71321239Y-59019780D01*
X71321239Y-59019780D02*
X71359334Y-58981684D01*
X71359334Y-58981684D02*
X71397430Y-58905494D01*
X71397430Y-58905494D02*
X71397430Y-58676922D01*
X71397430Y-58676922D02*
X71359334Y-58600732D01*
X71359334Y-58600732D02*
X71321239Y-58562637D01*
X71321239Y-58562637D02*
X71245049Y-58524541D01*
X71245049Y-58524541D02*
X71130763Y-58524541D01*
X71130763Y-58524541D02*
X71054572Y-58562637D01*
X71054572Y-58562637D02*
X71016477Y-58600732D01*
X71016477Y-58600732D02*
X70978382Y-58676922D01*
X70978382Y-58676922D02*
X70978382Y-58905494D01*
X70978382Y-58905494D02*
X71016477Y-58981684D01*
X71016477Y-58981684D02*
X71054572Y-59019780D01*
X71054572Y-59019780D02*
X71130763Y-59057875D01*
X71130763Y-59057875D02*
X71245049Y-59057875D01*
X70635524Y-58524541D02*
X70635524Y-59057875D01*
X70635524Y-58600732D02*
X70597429Y-58562637D01*
X70597429Y-58562637D02*
X70521239Y-58524541D01*
X70521239Y-58524541D02*
X70406953Y-58524541D01*
X70406953Y-58524541D02*
X70330762Y-58562637D01*
X70330762Y-58562637D02*
X70292667Y-58638827D01*
X70292667Y-58638827D02*
X70292667Y-59057875D01*
X68959333Y-59019780D02*
X69035524Y-59057875D01*
X69035524Y-59057875D02*
X69187905Y-59057875D01*
X69187905Y-59057875D02*
X69264095Y-59019780D01*
X69264095Y-59019780D02*
X69302190Y-58981684D01*
X69302190Y-58981684D02*
X69340286Y-58905494D01*
X69340286Y-58905494D02*
X69340286Y-58676922D01*
X69340286Y-58676922D02*
X69302190Y-58600732D01*
X69302190Y-58600732D02*
X69264095Y-58562637D01*
X69264095Y-58562637D02*
X69187905Y-58524541D01*
X69187905Y-58524541D02*
X69035524Y-58524541D01*
X69035524Y-58524541D02*
X68959333Y-58562637D01*
X68502191Y-59057875D02*
X68578381Y-59019780D01*
X68578381Y-59019780D02*
X68616476Y-58981684D01*
X68616476Y-58981684D02*
X68654572Y-58905494D01*
X68654572Y-58905494D02*
X68654572Y-58676922D01*
X68654572Y-58676922D02*
X68616476Y-58600732D01*
X68616476Y-58600732D02*
X68578381Y-58562637D01*
X68578381Y-58562637D02*
X68502191Y-58524541D01*
X68502191Y-58524541D02*
X68387905Y-58524541D01*
X68387905Y-58524541D02*
X68311714Y-58562637D01*
X68311714Y-58562637D02*
X68273619Y-58600732D01*
X68273619Y-58600732D02*
X68235524Y-58676922D01*
X68235524Y-58676922D02*
X68235524Y-58905494D01*
X68235524Y-58905494D02*
X68273619Y-58981684D01*
X68273619Y-58981684D02*
X68311714Y-59019780D01*
X68311714Y-59019780D02*
X68387905Y-59057875D01*
X68387905Y-59057875D02*
X68502191Y-59057875D01*
X67892666Y-58524541D02*
X67892666Y-59057875D01*
X67892666Y-58600732D02*
X67854571Y-58562637D01*
X67854571Y-58562637D02*
X67778381Y-58524541D01*
X67778381Y-58524541D02*
X67664095Y-58524541D01*
X67664095Y-58524541D02*
X67587904Y-58562637D01*
X67587904Y-58562637D02*
X67549809Y-58638827D01*
X67549809Y-58638827D02*
X67549809Y-59057875D01*
X67168856Y-58524541D02*
X67168856Y-59057875D01*
X67168856Y-58600732D02*
X67130761Y-58562637D01*
X67130761Y-58562637D02*
X67054571Y-58524541D01*
X67054571Y-58524541D02*
X66940285Y-58524541D01*
X66940285Y-58524541D02*
X66864094Y-58562637D01*
X66864094Y-58562637D02*
X66825999Y-58638827D01*
X66825999Y-58638827D02*
X66825999Y-59057875D01*
X66140284Y-59019780D02*
X66216475Y-59057875D01*
X66216475Y-59057875D02*
X66368856Y-59057875D01*
X66368856Y-59057875D02*
X66445046Y-59019780D01*
X66445046Y-59019780D02*
X66483142Y-58943589D01*
X66483142Y-58943589D02*
X66483142Y-58638827D01*
X66483142Y-58638827D02*
X66445046Y-58562637D01*
X66445046Y-58562637D02*
X66368856Y-58524541D01*
X66368856Y-58524541D02*
X66216475Y-58524541D01*
X66216475Y-58524541D02*
X66140284Y-58562637D01*
X66140284Y-58562637D02*
X66102189Y-58638827D01*
X66102189Y-58638827D02*
X66102189Y-58715018D01*
X66102189Y-58715018D02*
X66483142Y-58791208D01*
X65416475Y-59019780D02*
X65492666Y-59057875D01*
X65492666Y-59057875D02*
X65645047Y-59057875D01*
X65645047Y-59057875D02*
X65721237Y-59019780D01*
X65721237Y-59019780D02*
X65759332Y-58981684D01*
X65759332Y-58981684D02*
X65797428Y-58905494D01*
X65797428Y-58905494D02*
X65797428Y-58676922D01*
X65797428Y-58676922D02*
X65759332Y-58600732D01*
X65759332Y-58600732D02*
X65721237Y-58562637D01*
X65721237Y-58562637D02*
X65645047Y-58524541D01*
X65645047Y-58524541D02*
X65492666Y-58524541D01*
X65492666Y-58524541D02*
X65416475Y-58562637D01*
X65187904Y-58524541D02*
X64883142Y-58524541D01*
X65073618Y-58257875D02*
X65073618Y-58943589D01*
X65073618Y-58943589D02*
X65035523Y-59019780D01*
X65035523Y-59019780D02*
X64959333Y-59057875D01*
X64959333Y-59057875D02*
X64883142Y-59057875D01*
X64502190Y-59057875D02*
X64578380Y-59019780D01*
X64578380Y-59019780D02*
X64616475Y-58981684D01*
X64616475Y-58981684D02*
X64654571Y-58905494D01*
X64654571Y-58905494D02*
X64654571Y-58676922D01*
X64654571Y-58676922D02*
X64616475Y-58600732D01*
X64616475Y-58600732D02*
X64578380Y-58562637D01*
X64578380Y-58562637D02*
X64502190Y-58524541D01*
X64502190Y-58524541D02*
X64387904Y-58524541D01*
X64387904Y-58524541D02*
X64311713Y-58562637D01*
X64311713Y-58562637D02*
X64273618Y-58600732D01*
X64273618Y-58600732D02*
X64235523Y-58676922D01*
X64235523Y-58676922D02*
X64235523Y-58905494D01*
X64235523Y-58905494D02*
X64273618Y-58981684D01*
X64273618Y-58981684D02*
X64311713Y-59019780D01*
X64311713Y-59019780D02*
X64387904Y-59057875D01*
X64387904Y-59057875D02*
X64502190Y-59057875D01*
X63892665Y-59057875D02*
X63892665Y-58524541D01*
X63892665Y-58676922D02*
X63854570Y-58600732D01*
X63854570Y-58600732D02*
X63816475Y-58562637D01*
X63816475Y-58562637D02*
X63740284Y-58524541D01*
X63740284Y-58524541D02*
X63664094Y-58524541D01*
X62559332Y-58257875D02*
X62559332Y-58829303D01*
X62559332Y-58829303D02*
X62597427Y-58943589D01*
X62597427Y-58943589D02*
X62673618Y-59019780D01*
X62673618Y-59019780D02*
X62787903Y-59057875D01*
X62787903Y-59057875D02*
X62864094Y-59057875D01*
X61759332Y-59057875D02*
X62216475Y-59057875D01*
X61987903Y-59057875D02*
X61987903Y-58257875D01*
X61987903Y-58257875D02*
X62064094Y-58372160D01*
X62064094Y-58372160D02*
X62140284Y-58448351D01*
X62140284Y-58448351D02*
X62216475Y-58486446D01*
X61264093Y-58257875D02*
X61187903Y-58257875D01*
X61187903Y-58257875D02*
X61111712Y-58295970D01*
X61111712Y-58295970D02*
X61073617Y-58334065D01*
X61073617Y-58334065D02*
X61035522Y-58410256D01*
X61035522Y-58410256D02*
X60997427Y-58562637D01*
X60997427Y-58562637D02*
X60997427Y-58753113D01*
X60997427Y-58753113D02*
X61035522Y-58905494D01*
X61035522Y-58905494D02*
X61073617Y-58981684D01*
X61073617Y-58981684D02*
X61111712Y-59019780D01*
X61111712Y-59019780D02*
X61187903Y-59057875D01*
X61187903Y-59057875D02*
X61264093Y-59057875D01*
X61264093Y-59057875D02*
X61340284Y-59019780D01*
X61340284Y-59019780D02*
X61378379Y-58981684D01*
X61378379Y-58981684D02*
X61416474Y-58905494D01*
X61416474Y-58905494D02*
X61454570Y-58753113D01*
X61454570Y-58753113D02*
X61454570Y-58562637D01*
X61454570Y-58562637D02*
X61416474Y-58410256D01*
X61416474Y-58410256D02*
X61378379Y-58334065D01*
X61378379Y-58334065D02*
X61340284Y-58295970D01*
X61340284Y-58295970D02*
X61264093Y-58257875D01*
X60273617Y-58257875D02*
X60654569Y-58257875D01*
X60654569Y-58257875D02*
X60692665Y-58638827D01*
X60692665Y-58638827D02*
X60654569Y-58600732D01*
X60654569Y-58600732D02*
X60578379Y-58562637D01*
X60578379Y-58562637D02*
X60387903Y-58562637D01*
X60387903Y-58562637D02*
X60311712Y-58600732D01*
X60311712Y-58600732D02*
X60273617Y-58638827D01*
X60273617Y-58638827D02*
X60235522Y-58715018D01*
X60235522Y-58715018D02*
X60235522Y-58905494D01*
X60235522Y-58905494D02*
X60273617Y-58981684D01*
X60273617Y-58981684D02*
X60311712Y-59019780D01*
X60311712Y-59019780D02*
X60387903Y-59057875D01*
X60387903Y-59057875D02*
X60578379Y-59057875D01*
X60578379Y-59057875D02*
X60654569Y-59019780D01*
X60654569Y-59019780D02*
X60692665Y-58981684D01*
X73340287Y-60345830D02*
X73797430Y-60345830D01*
X73568858Y-60345830D02*
X73568858Y-59545830D01*
X73568858Y-59545830D02*
X73645049Y-59660115D01*
X73645049Y-59660115D02*
X73721239Y-59736306D01*
X73721239Y-59736306D02*
X73797430Y-59774401D01*
X72426001Y-60307735D02*
X72311715Y-60345830D01*
X72311715Y-60345830D02*
X72121239Y-60345830D01*
X72121239Y-60345830D02*
X72045048Y-60307735D01*
X72045048Y-60307735D02*
X72006953Y-60269639D01*
X72006953Y-60269639D02*
X71968858Y-60193449D01*
X71968858Y-60193449D02*
X71968858Y-60117258D01*
X71968858Y-60117258D02*
X72006953Y-60041068D01*
X72006953Y-60041068D02*
X72045048Y-60002973D01*
X72045048Y-60002973D02*
X72121239Y-59964877D01*
X72121239Y-59964877D02*
X72273620Y-59926782D01*
X72273620Y-59926782D02*
X72349810Y-59888687D01*
X72349810Y-59888687D02*
X72387905Y-59850592D01*
X72387905Y-59850592D02*
X72426001Y-59774401D01*
X72426001Y-59774401D02*
X72426001Y-59698211D01*
X72426001Y-59698211D02*
X72387905Y-59622020D01*
X72387905Y-59622020D02*
X72349810Y-59583925D01*
X72349810Y-59583925D02*
X72273620Y-59545830D01*
X72273620Y-59545830D02*
X72083143Y-59545830D01*
X72083143Y-59545830D02*
X71968858Y-59583925D01*
X71626000Y-60345830D02*
X71626000Y-59545830D01*
X71626000Y-59545830D02*
X71435524Y-59545830D01*
X71435524Y-59545830D02*
X71321238Y-59583925D01*
X71321238Y-59583925D02*
X71245048Y-59660115D01*
X71245048Y-59660115D02*
X71206953Y-59736306D01*
X71206953Y-59736306D02*
X71168857Y-59888687D01*
X71168857Y-59888687D02*
X71168857Y-60002973D01*
X71168857Y-60002973D02*
X71206953Y-60155354D01*
X71206953Y-60155354D02*
X71245048Y-60231544D01*
X71245048Y-60231544D02*
X71321238Y-60307735D01*
X71321238Y-60307735D02*
X71435524Y-60345830D01*
X71435524Y-60345830D02*
X71626000Y-60345830D01*
X70864096Y-60117258D02*
X70483143Y-60117258D01*
X70940286Y-60345830D02*
X70673619Y-59545830D01*
X70673619Y-59545830D02*
X70406953Y-60345830D01*
X73797430Y-60909975D02*
X73759334Y-60871880D01*
X73759334Y-60871880D02*
X73683144Y-60833785D01*
X73683144Y-60833785D02*
X73492668Y-60833785D01*
X73492668Y-60833785D02*
X73416477Y-60871880D01*
X73416477Y-60871880D02*
X73378382Y-60909975D01*
X73378382Y-60909975D02*
X73340287Y-60986166D01*
X73340287Y-60986166D02*
X73340287Y-61062356D01*
X73340287Y-61062356D02*
X73378382Y-61176642D01*
X73378382Y-61176642D02*
X73835525Y-61633785D01*
X73835525Y-61633785D02*
X73340287Y-61633785D01*
X72426001Y-61595690D02*
X72311715Y-61633785D01*
X72311715Y-61633785D02*
X72121239Y-61633785D01*
X72121239Y-61633785D02*
X72045048Y-61595690D01*
X72045048Y-61595690D02*
X72006953Y-61557594D01*
X72006953Y-61557594D02*
X71968858Y-61481404D01*
X71968858Y-61481404D02*
X71968858Y-61405213D01*
X71968858Y-61405213D02*
X72006953Y-61329023D01*
X72006953Y-61329023D02*
X72045048Y-61290928D01*
X72045048Y-61290928D02*
X72121239Y-61252832D01*
X72121239Y-61252832D02*
X72273620Y-61214737D01*
X72273620Y-61214737D02*
X72349810Y-61176642D01*
X72349810Y-61176642D02*
X72387905Y-61138547D01*
X72387905Y-61138547D02*
X72426001Y-61062356D01*
X72426001Y-61062356D02*
X72426001Y-60986166D01*
X72426001Y-60986166D02*
X72387905Y-60909975D01*
X72387905Y-60909975D02*
X72349810Y-60871880D01*
X72349810Y-60871880D02*
X72273620Y-60833785D01*
X72273620Y-60833785D02*
X72083143Y-60833785D01*
X72083143Y-60833785D02*
X71968858Y-60871880D01*
X71168857Y-61557594D02*
X71206953Y-61595690D01*
X71206953Y-61595690D02*
X71321238Y-61633785D01*
X71321238Y-61633785D02*
X71397429Y-61633785D01*
X71397429Y-61633785D02*
X71511715Y-61595690D01*
X71511715Y-61595690D02*
X71587905Y-61519499D01*
X71587905Y-61519499D02*
X71626000Y-61443309D01*
X71626000Y-61443309D02*
X71664096Y-61290928D01*
X71664096Y-61290928D02*
X71664096Y-61176642D01*
X71664096Y-61176642D02*
X71626000Y-61024261D01*
X71626000Y-61024261D02*
X71587905Y-60948070D01*
X71587905Y-60948070D02*
X71511715Y-60871880D01*
X71511715Y-60871880D02*
X71397429Y-60833785D01*
X71397429Y-60833785D02*
X71321238Y-60833785D01*
X71321238Y-60833785D02*
X71206953Y-60871880D01*
X71206953Y-60871880D02*
X71168857Y-60909975D01*
X70445048Y-61633785D02*
X70826000Y-61633785D01*
X70826000Y-61633785D02*
X70826000Y-60833785D01*
X73835525Y-62121740D02*
X73340287Y-62121740D01*
X73340287Y-62121740D02*
X73606953Y-62426502D01*
X73606953Y-62426502D02*
X73492668Y-62426502D01*
X73492668Y-62426502D02*
X73416477Y-62464597D01*
X73416477Y-62464597D02*
X73378382Y-62502692D01*
X73378382Y-62502692D02*
X73340287Y-62578883D01*
X73340287Y-62578883D02*
X73340287Y-62769359D01*
X73340287Y-62769359D02*
X73378382Y-62845549D01*
X73378382Y-62845549D02*
X73416477Y-62883645D01*
X73416477Y-62883645D02*
X73492668Y-62921740D01*
X73492668Y-62921740D02*
X73721239Y-62921740D01*
X73721239Y-62921740D02*
X73797430Y-62883645D01*
X73797430Y-62883645D02*
X73835525Y-62845549D01*
X72387905Y-62616978D02*
X71778382Y-62616978D01*
X72083143Y-62921740D02*
X72083143Y-62312216D01*
X71016477Y-62121740D02*
X71397429Y-62121740D01*
X71397429Y-62121740D02*
X71435525Y-62502692D01*
X71435525Y-62502692D02*
X71397429Y-62464597D01*
X71397429Y-62464597D02*
X71321239Y-62426502D01*
X71321239Y-62426502D02*
X71130763Y-62426502D01*
X71130763Y-62426502D02*
X71054572Y-62464597D01*
X71054572Y-62464597D02*
X71016477Y-62502692D01*
X71016477Y-62502692D02*
X70978382Y-62578883D01*
X70978382Y-62578883D02*
X70978382Y-62769359D01*
X70978382Y-62769359D02*
X71016477Y-62845549D01*
X71016477Y-62845549D02*
X71054572Y-62883645D01*
X71054572Y-62883645D02*
X71130763Y-62921740D01*
X71130763Y-62921740D02*
X71321239Y-62921740D01*
X71321239Y-62921740D02*
X71397429Y-62883645D01*
X71397429Y-62883645D02*
X71435525Y-62845549D01*
X70749810Y-62121740D02*
X70483143Y-62921740D01*
X70483143Y-62921740D02*
X70216477Y-62121740D01*
X73416477Y-63676361D02*
X73416477Y-64209695D01*
X73606953Y-63371600D02*
X73797430Y-63943028D01*
X73797430Y-63943028D02*
X73302191Y-63943028D01*
X71968858Y-63447790D02*
X72045048Y-63409695D01*
X72045048Y-63409695D02*
X72159334Y-63409695D01*
X72159334Y-63409695D02*
X72273620Y-63447790D01*
X72273620Y-63447790D02*
X72349810Y-63523980D01*
X72349810Y-63523980D02*
X72387905Y-63600171D01*
X72387905Y-63600171D02*
X72426001Y-63752552D01*
X72426001Y-63752552D02*
X72426001Y-63866838D01*
X72426001Y-63866838D02*
X72387905Y-64019219D01*
X72387905Y-64019219D02*
X72349810Y-64095409D01*
X72349810Y-64095409D02*
X72273620Y-64171600D01*
X72273620Y-64171600D02*
X72159334Y-64209695D01*
X72159334Y-64209695D02*
X72083143Y-64209695D01*
X72083143Y-64209695D02*
X71968858Y-64171600D01*
X71968858Y-64171600D02*
X71930762Y-64133504D01*
X71930762Y-64133504D02*
X71930762Y-63866838D01*
X71930762Y-63866838D02*
X72083143Y-63866838D01*
X71587905Y-64209695D02*
X71587905Y-63409695D01*
X71587905Y-63409695D02*
X71130762Y-64209695D01*
X71130762Y-64209695D02*
X71130762Y-63409695D01*
X70749810Y-64209695D02*
X70749810Y-63409695D01*
X70749810Y-63409695D02*
X70559334Y-63409695D01*
X70559334Y-63409695D02*
X70445048Y-63447790D01*
X70445048Y-63447790D02*
X70368858Y-63523980D01*
X70368858Y-63523980D02*
X70330763Y-63600171D01*
X70330763Y-63600171D02*
X70292667Y-63752552D01*
X70292667Y-63752552D02*
X70292667Y-63866838D01*
X70292667Y-63866838D02*
X70330763Y-64019219D01*
X70330763Y-64019219D02*
X70368858Y-64095409D01*
X70368858Y-64095409D02*
X70445048Y-64171600D01*
X70445048Y-64171600D02*
X70559334Y-64209695D01*
X70559334Y-64209695D02*
X70749810Y-64209695D01*
X73543487Y-66423970D02*
X73619677Y-66385875D01*
X73619677Y-66385875D02*
X73733963Y-66385875D01*
X73733963Y-66385875D02*
X73848249Y-66423970D01*
X73848249Y-66423970D02*
X73924439Y-66500160D01*
X73924439Y-66500160D02*
X73962534Y-66576351D01*
X73962534Y-66576351D02*
X74000630Y-66728732D01*
X74000630Y-66728732D02*
X74000630Y-66843018D01*
X74000630Y-66843018D02*
X73962534Y-66995399D01*
X73962534Y-66995399D02*
X73924439Y-67071589D01*
X73924439Y-67071589D02*
X73848249Y-67147780D01*
X73848249Y-67147780D02*
X73733963Y-67185875D01*
X73733963Y-67185875D02*
X73657772Y-67185875D01*
X73657772Y-67185875D02*
X73543487Y-67147780D01*
X73543487Y-67147780D02*
X73505391Y-67109684D01*
X73505391Y-67109684D02*
X73505391Y-66843018D01*
X73505391Y-66843018D02*
X73657772Y-66843018D01*
X73162534Y-67185875D02*
X73162534Y-66385875D01*
X73162534Y-66385875D02*
X72857772Y-66385875D01*
X72857772Y-66385875D02*
X72781582Y-66423970D01*
X72781582Y-66423970D02*
X72743487Y-66462065D01*
X72743487Y-66462065D02*
X72705391Y-66538256D01*
X72705391Y-66538256D02*
X72705391Y-66652541D01*
X72705391Y-66652541D02*
X72743487Y-66728732D01*
X72743487Y-66728732D02*
X72781582Y-66766827D01*
X72781582Y-66766827D02*
X72857772Y-66804922D01*
X72857772Y-66804922D02*
X73162534Y-66804922D01*
X72400630Y-67147780D02*
X72286344Y-67185875D01*
X72286344Y-67185875D02*
X72095868Y-67185875D01*
X72095868Y-67185875D02*
X72019677Y-67147780D01*
X72019677Y-67147780D02*
X71981582Y-67109684D01*
X71981582Y-67109684D02*
X71943487Y-67033494D01*
X71943487Y-67033494D02*
X71943487Y-66957303D01*
X71943487Y-66957303D02*
X71981582Y-66881113D01*
X71981582Y-66881113D02*
X72019677Y-66843018D01*
X72019677Y-66843018D02*
X72095868Y-66804922D01*
X72095868Y-66804922D02*
X72248249Y-66766827D01*
X72248249Y-66766827D02*
X72324439Y-66728732D01*
X72324439Y-66728732D02*
X72362534Y-66690637D01*
X72362534Y-66690637D02*
X72400630Y-66614446D01*
X72400630Y-66614446D02*
X72400630Y-66538256D01*
X72400630Y-66538256D02*
X72362534Y-66462065D01*
X72362534Y-66462065D02*
X72324439Y-66423970D01*
X72324439Y-66423970D02*
X72248249Y-66385875D01*
X72248249Y-66385875D02*
X72057772Y-66385875D01*
X72057772Y-66385875D02*
X71943487Y-66423970D01*
X70762534Y-66385875D02*
X70762534Y-66957303D01*
X70762534Y-66957303D02*
X70800629Y-67071589D01*
X70800629Y-67071589D02*
X70876820Y-67147780D01*
X70876820Y-67147780D02*
X70991105Y-67185875D01*
X70991105Y-67185875D02*
X71067296Y-67185875D01*
X69962534Y-67185875D02*
X70419677Y-67185875D01*
X70191105Y-67185875D02*
X70191105Y-66385875D01*
X70191105Y-66385875D02*
X70267296Y-66500160D01*
X70267296Y-66500160D02*
X70343486Y-66576351D01*
X70343486Y-66576351D02*
X70419677Y-66614446D01*
X69467295Y-66385875D02*
X69391105Y-66385875D01*
X69391105Y-66385875D02*
X69314914Y-66423970D01*
X69314914Y-66423970D02*
X69276819Y-66462065D01*
X69276819Y-66462065D02*
X69238724Y-66538256D01*
X69238724Y-66538256D02*
X69200629Y-66690637D01*
X69200629Y-66690637D02*
X69200629Y-66881113D01*
X69200629Y-66881113D02*
X69238724Y-67033494D01*
X69238724Y-67033494D02*
X69276819Y-67109684D01*
X69276819Y-67109684D02*
X69314914Y-67147780D01*
X69314914Y-67147780D02*
X69391105Y-67185875D01*
X69391105Y-67185875D02*
X69467295Y-67185875D01*
X69467295Y-67185875D02*
X69543486Y-67147780D01*
X69543486Y-67147780D02*
X69581581Y-67109684D01*
X69581581Y-67109684D02*
X69619676Y-67033494D01*
X69619676Y-67033494D02*
X69657772Y-66881113D01*
X69657772Y-66881113D02*
X69657772Y-66690637D01*
X69657772Y-66690637D02*
X69619676Y-66538256D01*
X69619676Y-66538256D02*
X69581581Y-66462065D01*
X69581581Y-66462065D02*
X69543486Y-66423970D01*
X69543486Y-66423970D02*
X69467295Y-66385875D01*
X68514914Y-66652541D02*
X68514914Y-67185875D01*
X68705390Y-66347780D02*
X68895867Y-66919208D01*
X68895867Y-66919208D02*
X68400628Y-66919208D01*
X73543487Y-68473830D02*
X74000630Y-68473830D01*
X73772058Y-68473830D02*
X73772058Y-67673830D01*
X73772058Y-67673830D02*
X73848249Y-67788115D01*
X73848249Y-67788115D02*
X73924439Y-67864306D01*
X73924439Y-67864306D02*
X74000630Y-67902401D01*
X72705391Y-67673830D02*
X72248248Y-67673830D01*
X72476820Y-68473830D02*
X72476820Y-67673830D01*
X72057772Y-67673830D02*
X71524438Y-68473830D01*
X71524438Y-67673830D02*
X72057772Y-68473830D01*
X71219676Y-68473830D02*
X71219676Y-67673830D01*
X71219676Y-67673830D02*
X71029200Y-67673830D01*
X71029200Y-67673830D02*
X70914914Y-67711925D01*
X70914914Y-67711925D02*
X70838724Y-67788115D01*
X70838724Y-67788115D02*
X70800629Y-67864306D01*
X70800629Y-67864306D02*
X70762533Y-68016687D01*
X70762533Y-68016687D02*
X70762533Y-68130973D01*
X70762533Y-68130973D02*
X70800629Y-68283354D01*
X70800629Y-68283354D02*
X70838724Y-68359544D01*
X70838724Y-68359544D02*
X70914914Y-68435735D01*
X70914914Y-68435735D02*
X71029200Y-68473830D01*
X71029200Y-68473830D02*
X71219676Y-68473830D01*
X74000630Y-69037975D02*
X73962534Y-68999880D01*
X73962534Y-68999880D02*
X73886344Y-68961785D01*
X73886344Y-68961785D02*
X73695868Y-68961785D01*
X73695868Y-68961785D02*
X73619677Y-68999880D01*
X73619677Y-68999880D02*
X73581582Y-69037975D01*
X73581582Y-69037975D02*
X73543487Y-69114166D01*
X73543487Y-69114166D02*
X73543487Y-69190356D01*
X73543487Y-69190356D02*
X73581582Y-69304642D01*
X73581582Y-69304642D02*
X74038725Y-69761785D01*
X74038725Y-69761785D02*
X73543487Y-69761785D01*
X72133962Y-69761785D02*
X72400629Y-69380832D01*
X72591105Y-69761785D02*
X72591105Y-68961785D01*
X72591105Y-68961785D02*
X72286343Y-68961785D01*
X72286343Y-68961785D02*
X72210153Y-68999880D01*
X72210153Y-68999880D02*
X72172058Y-69037975D01*
X72172058Y-69037975D02*
X72133962Y-69114166D01*
X72133962Y-69114166D02*
X72133962Y-69228451D01*
X72133962Y-69228451D02*
X72172058Y-69304642D01*
X72172058Y-69304642D02*
X72210153Y-69342737D01*
X72210153Y-69342737D02*
X72286343Y-69380832D01*
X72286343Y-69380832D02*
X72591105Y-69380832D01*
X71791105Y-69761785D02*
X71791105Y-68961785D01*
X71791105Y-68961785D02*
X71600629Y-68961785D01*
X71600629Y-68961785D02*
X71486343Y-68999880D01*
X71486343Y-68999880D02*
X71410153Y-69076070D01*
X71410153Y-69076070D02*
X71372058Y-69152261D01*
X71372058Y-69152261D02*
X71333962Y-69304642D01*
X71333962Y-69304642D02*
X71333962Y-69418928D01*
X71333962Y-69418928D02*
X71372058Y-69571309D01*
X71372058Y-69571309D02*
X71410153Y-69647499D01*
X71410153Y-69647499D02*
X71486343Y-69723690D01*
X71486343Y-69723690D02*
X71600629Y-69761785D01*
X71600629Y-69761785D02*
X71791105Y-69761785D01*
X70991105Y-69761785D02*
X70991105Y-68961785D01*
X70991105Y-68961785D02*
X70800629Y-68961785D01*
X70800629Y-68961785D02*
X70686343Y-68999880D01*
X70686343Y-68999880D02*
X70610153Y-69076070D01*
X70610153Y-69076070D02*
X70572058Y-69152261D01*
X70572058Y-69152261D02*
X70533962Y-69304642D01*
X70533962Y-69304642D02*
X70533962Y-69418928D01*
X70533962Y-69418928D02*
X70572058Y-69571309D01*
X70572058Y-69571309D02*
X70610153Y-69647499D01*
X70610153Y-69647499D02*
X70686343Y-69723690D01*
X70686343Y-69723690D02*
X70800629Y-69761785D01*
X70800629Y-69761785D02*
X70991105Y-69761785D01*
X74038725Y-70249740D02*
X73543487Y-70249740D01*
X73543487Y-70249740D02*
X73810153Y-70554502D01*
X73810153Y-70554502D02*
X73695868Y-70554502D01*
X73695868Y-70554502D02*
X73619677Y-70592597D01*
X73619677Y-70592597D02*
X73581582Y-70630692D01*
X73581582Y-70630692D02*
X73543487Y-70706883D01*
X73543487Y-70706883D02*
X73543487Y-70897359D01*
X73543487Y-70897359D02*
X73581582Y-70973549D01*
X73581582Y-70973549D02*
X73619677Y-71011645D01*
X73619677Y-71011645D02*
X73695868Y-71049740D01*
X73695868Y-71049740D02*
X73924439Y-71049740D01*
X73924439Y-71049740D02*
X74000630Y-71011645D01*
X74000630Y-71011645D02*
X74038725Y-70973549D01*
X72591105Y-70744978D02*
X71981582Y-70744978D01*
X72286343Y-71049740D02*
X72286343Y-70440216D01*
X71219677Y-70249740D02*
X71600629Y-70249740D01*
X71600629Y-70249740D02*
X71638725Y-70630692D01*
X71638725Y-70630692D02*
X71600629Y-70592597D01*
X71600629Y-70592597D02*
X71524439Y-70554502D01*
X71524439Y-70554502D02*
X71333963Y-70554502D01*
X71333963Y-70554502D02*
X71257772Y-70592597D01*
X71257772Y-70592597D02*
X71219677Y-70630692D01*
X71219677Y-70630692D02*
X71181582Y-70706883D01*
X71181582Y-70706883D02*
X71181582Y-70897359D01*
X71181582Y-70897359D02*
X71219677Y-70973549D01*
X71219677Y-70973549D02*
X71257772Y-71011645D01*
X71257772Y-71011645D02*
X71333963Y-71049740D01*
X71333963Y-71049740D02*
X71524439Y-71049740D01*
X71524439Y-71049740D02*
X71600629Y-71011645D01*
X71600629Y-71011645D02*
X71638725Y-70973549D01*
X70953010Y-70249740D02*
X70686343Y-71049740D01*
X70686343Y-71049740D02*
X70419677Y-70249740D01*
X73619677Y-71804361D02*
X73619677Y-72337695D01*
X73810153Y-71499600D02*
X74000630Y-72071028D01*
X74000630Y-72071028D02*
X73505391Y-72071028D01*
X72172058Y-71575790D02*
X72248248Y-71537695D01*
X72248248Y-71537695D02*
X72362534Y-71537695D01*
X72362534Y-71537695D02*
X72476820Y-71575790D01*
X72476820Y-71575790D02*
X72553010Y-71651980D01*
X72553010Y-71651980D02*
X72591105Y-71728171D01*
X72591105Y-71728171D02*
X72629201Y-71880552D01*
X72629201Y-71880552D02*
X72629201Y-71994838D01*
X72629201Y-71994838D02*
X72591105Y-72147219D01*
X72591105Y-72147219D02*
X72553010Y-72223409D01*
X72553010Y-72223409D02*
X72476820Y-72299600D01*
X72476820Y-72299600D02*
X72362534Y-72337695D01*
X72362534Y-72337695D02*
X72286343Y-72337695D01*
X72286343Y-72337695D02*
X72172058Y-72299600D01*
X72172058Y-72299600D02*
X72133962Y-72261504D01*
X72133962Y-72261504D02*
X72133962Y-71994838D01*
X72133962Y-71994838D02*
X72286343Y-71994838D01*
X71791105Y-72337695D02*
X71791105Y-71537695D01*
X71791105Y-71537695D02*
X71333962Y-72337695D01*
X71333962Y-72337695D02*
X71333962Y-71537695D01*
X70953010Y-72337695D02*
X70953010Y-71537695D01*
X70953010Y-71537695D02*
X70762534Y-71537695D01*
X70762534Y-71537695D02*
X70648248Y-71575790D01*
X70648248Y-71575790D02*
X70572058Y-71651980D01*
X70572058Y-71651980D02*
X70533963Y-71728171D01*
X70533963Y-71728171D02*
X70495867Y-71880552D01*
X70495867Y-71880552D02*
X70495867Y-71994838D01*
X70495867Y-71994838D02*
X70533963Y-72147219D01*
X70533963Y-72147219D02*
X70572058Y-72223409D01*
X70572058Y-72223409D02*
X70648248Y-72299600D01*
X70648248Y-72299600D02*
X70762534Y-72337695D01*
X70762534Y-72337695D02*
X70953010Y-72337695D01*
X73911753Y-74463075D02*
X73759372Y-74463075D01*
X73759372Y-74463075D02*
X73683182Y-74501170D01*
X73683182Y-74501170D02*
X73606991Y-74577360D01*
X73606991Y-74577360D02*
X73568896Y-74729741D01*
X73568896Y-74729741D02*
X73568896Y-74996408D01*
X73568896Y-74996408D02*
X73606991Y-75148789D01*
X73606991Y-75148789D02*
X73683182Y-75224980D01*
X73683182Y-75224980D02*
X73759372Y-75263075D01*
X73759372Y-75263075D02*
X73911753Y-75263075D01*
X73911753Y-75263075D02*
X73987944Y-75224980D01*
X73987944Y-75224980D02*
X74064134Y-75148789D01*
X74064134Y-75148789D02*
X74102230Y-74996408D01*
X74102230Y-74996408D02*
X74102230Y-74729741D01*
X74102230Y-74729741D02*
X74064134Y-74577360D01*
X74064134Y-74577360D02*
X73987944Y-74501170D01*
X73987944Y-74501170D02*
X73911753Y-74463075D01*
X73226039Y-74729741D02*
X73226039Y-75529741D01*
X73226039Y-74767837D02*
X73149849Y-74729741D01*
X73149849Y-74729741D02*
X72997468Y-74729741D01*
X72997468Y-74729741D02*
X72921277Y-74767837D01*
X72921277Y-74767837D02*
X72883182Y-74805932D01*
X72883182Y-74805932D02*
X72845087Y-74882122D01*
X72845087Y-74882122D02*
X72845087Y-75110694D01*
X72845087Y-75110694D02*
X72883182Y-75186884D01*
X72883182Y-75186884D02*
X72921277Y-75224980D01*
X72921277Y-75224980D02*
X72997468Y-75263075D01*
X72997468Y-75263075D02*
X73149849Y-75263075D01*
X73149849Y-75263075D02*
X73226039Y-75224980D01*
X72616515Y-74729741D02*
X72311753Y-74729741D01*
X72502229Y-74463075D02*
X72502229Y-75148789D01*
X72502229Y-75148789D02*
X72464134Y-75224980D01*
X72464134Y-75224980D02*
X72387944Y-75263075D01*
X72387944Y-75263075D02*
X72311753Y-75263075D01*
X72045086Y-75263075D02*
X72045086Y-74729741D01*
X72045086Y-74463075D02*
X72083182Y-74501170D01*
X72083182Y-74501170D02*
X72045086Y-74539265D01*
X72045086Y-74539265D02*
X72006991Y-74501170D01*
X72006991Y-74501170D02*
X72045086Y-74463075D01*
X72045086Y-74463075D02*
X72045086Y-74539265D01*
X71549849Y-75263075D02*
X71626039Y-75224980D01*
X71626039Y-75224980D02*
X71664134Y-75186884D01*
X71664134Y-75186884D02*
X71702230Y-75110694D01*
X71702230Y-75110694D02*
X71702230Y-74882122D01*
X71702230Y-74882122D02*
X71664134Y-74805932D01*
X71664134Y-74805932D02*
X71626039Y-74767837D01*
X71626039Y-74767837D02*
X71549849Y-74729741D01*
X71549849Y-74729741D02*
X71435563Y-74729741D01*
X71435563Y-74729741D02*
X71359372Y-74767837D01*
X71359372Y-74767837D02*
X71321277Y-74805932D01*
X71321277Y-74805932D02*
X71283182Y-74882122D01*
X71283182Y-74882122D02*
X71283182Y-75110694D01*
X71283182Y-75110694D02*
X71321277Y-75186884D01*
X71321277Y-75186884D02*
X71359372Y-75224980D01*
X71359372Y-75224980D02*
X71435563Y-75263075D01*
X71435563Y-75263075D02*
X71549849Y-75263075D01*
X70940324Y-74729741D02*
X70940324Y-75263075D01*
X70940324Y-74805932D02*
X70902229Y-74767837D01*
X70902229Y-74767837D02*
X70826039Y-74729741D01*
X70826039Y-74729741D02*
X70711753Y-74729741D01*
X70711753Y-74729741D02*
X70635562Y-74767837D01*
X70635562Y-74767837D02*
X70597467Y-74844027D01*
X70597467Y-74844027D02*
X70597467Y-75263075D01*
X69340324Y-74844027D02*
X69226038Y-74882122D01*
X69226038Y-74882122D02*
X69187943Y-74920218D01*
X69187943Y-74920218D02*
X69149847Y-74996408D01*
X69149847Y-74996408D02*
X69149847Y-75110694D01*
X69149847Y-75110694D02*
X69187943Y-75186884D01*
X69187943Y-75186884D02*
X69226038Y-75224980D01*
X69226038Y-75224980D02*
X69302228Y-75263075D01*
X69302228Y-75263075D02*
X69606990Y-75263075D01*
X69606990Y-75263075D02*
X69606990Y-74463075D01*
X69606990Y-74463075D02*
X69340324Y-74463075D01*
X69340324Y-74463075D02*
X69264133Y-74501170D01*
X69264133Y-74501170D02*
X69226038Y-74539265D01*
X69226038Y-74539265D02*
X69187943Y-74615456D01*
X69187943Y-74615456D02*
X69187943Y-74691646D01*
X69187943Y-74691646D02*
X69226038Y-74767837D01*
X69226038Y-74767837D02*
X69264133Y-74805932D01*
X69264133Y-74805932D02*
X69340324Y-74844027D01*
X69340324Y-74844027D02*
X69606990Y-74844027D01*
X68464133Y-74729741D02*
X68464133Y-75263075D01*
X68806990Y-74729741D02*
X68806990Y-75148789D01*
X68806990Y-75148789D02*
X68768895Y-75224980D01*
X68768895Y-75224980D02*
X68692705Y-75263075D01*
X68692705Y-75263075D02*
X68578419Y-75263075D01*
X68578419Y-75263075D02*
X68502228Y-75224980D01*
X68502228Y-75224980D02*
X68464133Y-75186884D01*
X68197466Y-74729741D02*
X67892704Y-74729741D01*
X68083180Y-74463075D02*
X68083180Y-75148789D01*
X68083180Y-75148789D02*
X68045085Y-75224980D01*
X68045085Y-75224980D02*
X67968895Y-75263075D01*
X67968895Y-75263075D02*
X67892704Y-75263075D01*
X67740323Y-74729741D02*
X67435561Y-74729741D01*
X67626037Y-74463075D02*
X67626037Y-75148789D01*
X67626037Y-75148789D02*
X67587942Y-75224980D01*
X67587942Y-75224980D02*
X67511752Y-75263075D01*
X67511752Y-75263075D02*
X67435561Y-75263075D01*
X67054609Y-75263075D02*
X67130799Y-75224980D01*
X67130799Y-75224980D02*
X67168894Y-75186884D01*
X67168894Y-75186884D02*
X67206990Y-75110694D01*
X67206990Y-75110694D02*
X67206990Y-74882122D01*
X67206990Y-74882122D02*
X67168894Y-74805932D01*
X67168894Y-74805932D02*
X67130799Y-74767837D01*
X67130799Y-74767837D02*
X67054609Y-74729741D01*
X67054609Y-74729741D02*
X66940323Y-74729741D01*
X66940323Y-74729741D02*
X66864132Y-74767837D01*
X66864132Y-74767837D02*
X66826037Y-74805932D01*
X66826037Y-74805932D02*
X66787942Y-74882122D01*
X66787942Y-74882122D02*
X66787942Y-75110694D01*
X66787942Y-75110694D02*
X66826037Y-75186884D01*
X66826037Y-75186884D02*
X66864132Y-75224980D01*
X66864132Y-75224980D02*
X66940323Y-75263075D01*
X66940323Y-75263075D02*
X67054609Y-75263075D01*
X66445084Y-74729741D02*
X66445084Y-75263075D01*
X66445084Y-74805932D02*
X66406989Y-74767837D01*
X66406989Y-74767837D02*
X66330799Y-74729741D01*
X66330799Y-74729741D02*
X66216513Y-74729741D01*
X66216513Y-74729741D02*
X66140322Y-74767837D01*
X66140322Y-74767837D02*
X66102227Y-74844027D01*
X66102227Y-74844027D02*
X66102227Y-75263075D01*
X65759370Y-75224980D02*
X65683179Y-75263075D01*
X65683179Y-75263075D02*
X65530798Y-75263075D01*
X65530798Y-75263075D02*
X65454608Y-75224980D01*
X65454608Y-75224980D02*
X65416512Y-75148789D01*
X65416512Y-75148789D02*
X65416512Y-75110694D01*
X65416512Y-75110694D02*
X65454608Y-75034503D01*
X65454608Y-75034503D02*
X65530798Y-74996408D01*
X65530798Y-74996408D02*
X65645084Y-74996408D01*
X65645084Y-74996408D02*
X65721274Y-74958313D01*
X65721274Y-74958313D02*
X65759370Y-74882122D01*
X65759370Y-74882122D02*
X65759370Y-74844027D01*
X65759370Y-74844027D02*
X65721274Y-74767837D01*
X65721274Y-74767837D02*
X65645084Y-74729741D01*
X65645084Y-74729741D02*
X65530798Y-74729741D01*
X65530798Y-74729741D02*
X65454608Y-74767837D01*
X64235560Y-74463075D02*
X64235560Y-75034503D01*
X64235560Y-75034503D02*
X64273655Y-75148789D01*
X64273655Y-75148789D02*
X64349846Y-75224980D01*
X64349846Y-75224980D02*
X64464131Y-75263075D01*
X64464131Y-75263075D02*
X64540322Y-75263075D01*
X63435560Y-75263075D02*
X63892703Y-75263075D01*
X63664131Y-75263075D02*
X63664131Y-74463075D01*
X63664131Y-74463075D02*
X63740322Y-74577360D01*
X63740322Y-74577360D02*
X63816512Y-74653551D01*
X63816512Y-74653551D02*
X63892703Y-74691646D01*
X62940321Y-74463075D02*
X62864131Y-74463075D01*
X62864131Y-74463075D02*
X62787940Y-74501170D01*
X62787940Y-74501170D02*
X62749845Y-74539265D01*
X62749845Y-74539265D02*
X62711750Y-74615456D01*
X62711750Y-74615456D02*
X62673655Y-74767837D01*
X62673655Y-74767837D02*
X62673655Y-74958313D01*
X62673655Y-74958313D02*
X62711750Y-75110694D01*
X62711750Y-75110694D02*
X62749845Y-75186884D01*
X62749845Y-75186884D02*
X62787940Y-75224980D01*
X62787940Y-75224980D02*
X62864131Y-75263075D01*
X62864131Y-75263075D02*
X62940321Y-75263075D01*
X62940321Y-75263075D02*
X63016512Y-75224980D01*
X63016512Y-75224980D02*
X63054607Y-75186884D01*
X63054607Y-75186884D02*
X63092702Y-75110694D01*
X63092702Y-75110694D02*
X63130798Y-74958313D01*
X63130798Y-74958313D02*
X63130798Y-74767837D01*
X63130798Y-74767837D02*
X63092702Y-74615456D01*
X63092702Y-74615456D02*
X63054607Y-74539265D01*
X63054607Y-74539265D02*
X63016512Y-74501170D01*
X63016512Y-74501170D02*
X62940321Y-74463075D01*
X62368893Y-74539265D02*
X62330797Y-74501170D01*
X62330797Y-74501170D02*
X62254607Y-74463075D01*
X62254607Y-74463075D02*
X62064131Y-74463075D01*
X62064131Y-74463075D02*
X61987940Y-74501170D01*
X61987940Y-74501170D02*
X61949845Y-74539265D01*
X61949845Y-74539265D02*
X61911750Y-74615456D01*
X61911750Y-74615456D02*
X61911750Y-74691646D01*
X61911750Y-74691646D02*
X61949845Y-74805932D01*
X61949845Y-74805932D02*
X62406988Y-75263075D01*
X62406988Y-75263075D02*
X61911750Y-75263075D01*
X73645087Y-76551030D02*
X74102230Y-76551030D01*
X73873658Y-76551030D02*
X73873658Y-75751030D01*
X73873658Y-75751030D02*
X73949849Y-75865315D01*
X73949849Y-75865315D02*
X74026039Y-75941506D01*
X74026039Y-75941506D02*
X74102230Y-75979601D01*
X72273658Y-75789125D02*
X72349848Y-75751030D01*
X72349848Y-75751030D02*
X72464134Y-75751030D01*
X72464134Y-75751030D02*
X72578420Y-75789125D01*
X72578420Y-75789125D02*
X72654610Y-75865315D01*
X72654610Y-75865315D02*
X72692705Y-75941506D01*
X72692705Y-75941506D02*
X72730801Y-76093887D01*
X72730801Y-76093887D02*
X72730801Y-76208173D01*
X72730801Y-76208173D02*
X72692705Y-76360554D01*
X72692705Y-76360554D02*
X72654610Y-76436744D01*
X72654610Y-76436744D02*
X72578420Y-76512935D01*
X72578420Y-76512935D02*
X72464134Y-76551030D01*
X72464134Y-76551030D02*
X72387943Y-76551030D01*
X72387943Y-76551030D02*
X72273658Y-76512935D01*
X72273658Y-76512935D02*
X72235562Y-76474839D01*
X72235562Y-76474839D02*
X72235562Y-76208173D01*
X72235562Y-76208173D02*
X72387943Y-76208173D01*
X71892705Y-76551030D02*
X71892705Y-75751030D01*
X71892705Y-75751030D02*
X71435562Y-76551030D01*
X71435562Y-76551030D02*
X71435562Y-75751030D01*
X71054610Y-76551030D02*
X71054610Y-75751030D01*
X71054610Y-75751030D02*
X70864134Y-75751030D01*
X70864134Y-75751030D02*
X70749848Y-75789125D01*
X70749848Y-75789125D02*
X70673658Y-75865315D01*
X70673658Y-75865315D02*
X70635563Y-75941506D01*
X70635563Y-75941506D02*
X70597467Y-76093887D01*
X70597467Y-76093887D02*
X70597467Y-76208173D01*
X70597467Y-76208173D02*
X70635563Y-76360554D01*
X70635563Y-76360554D02*
X70673658Y-76436744D01*
X70673658Y-76436744D02*
X70749848Y-76512935D01*
X70749848Y-76512935D02*
X70864134Y-76551030D01*
X70864134Y-76551030D02*
X71054610Y-76551030D01*
X74102230Y-77115175D02*
X74064134Y-77077080D01*
X74064134Y-77077080D02*
X73987944Y-77038985D01*
X73987944Y-77038985D02*
X73797468Y-77038985D01*
X73797468Y-77038985D02*
X73721277Y-77077080D01*
X73721277Y-77077080D02*
X73683182Y-77115175D01*
X73683182Y-77115175D02*
X73645087Y-77191366D01*
X73645087Y-77191366D02*
X73645087Y-77267556D01*
X73645087Y-77267556D02*
X73683182Y-77381842D01*
X73683182Y-77381842D02*
X74140325Y-77838985D01*
X74140325Y-77838985D02*
X73645087Y-77838985D01*
X72426039Y-77419937D02*
X72311753Y-77458032D01*
X72311753Y-77458032D02*
X72273658Y-77496128D01*
X72273658Y-77496128D02*
X72235562Y-77572318D01*
X72235562Y-77572318D02*
X72235562Y-77686604D01*
X72235562Y-77686604D02*
X72273658Y-77762794D01*
X72273658Y-77762794D02*
X72311753Y-77800890D01*
X72311753Y-77800890D02*
X72387943Y-77838985D01*
X72387943Y-77838985D02*
X72692705Y-77838985D01*
X72692705Y-77838985D02*
X72692705Y-77038985D01*
X72692705Y-77038985D02*
X72426039Y-77038985D01*
X72426039Y-77038985D02*
X72349848Y-77077080D01*
X72349848Y-77077080D02*
X72311753Y-77115175D01*
X72311753Y-77115175D02*
X72273658Y-77191366D01*
X72273658Y-77191366D02*
X72273658Y-77267556D01*
X72273658Y-77267556D02*
X72311753Y-77343747D01*
X72311753Y-77343747D02*
X72349848Y-77381842D01*
X72349848Y-77381842D02*
X72426039Y-77419937D01*
X72426039Y-77419937D02*
X72692705Y-77419937D01*
X71892705Y-77038985D02*
X71892705Y-77686604D01*
X71892705Y-77686604D02*
X71854610Y-77762794D01*
X71854610Y-77762794D02*
X71816515Y-77800890D01*
X71816515Y-77800890D02*
X71740324Y-77838985D01*
X71740324Y-77838985D02*
X71587943Y-77838985D01*
X71587943Y-77838985D02*
X71511753Y-77800890D01*
X71511753Y-77800890D02*
X71473658Y-77762794D01*
X71473658Y-77762794D02*
X71435562Y-77686604D01*
X71435562Y-77686604D02*
X71435562Y-77038985D01*
X71168896Y-77038985D02*
X70711753Y-77038985D01*
X70940325Y-77838985D02*
X70940325Y-77038985D01*
X70559372Y-77038985D02*
X70102229Y-77038985D01*
X70330801Y-77838985D02*
X70330801Y-77038985D01*
X69683181Y-77038985D02*
X69530800Y-77038985D01*
X69530800Y-77038985D02*
X69454610Y-77077080D01*
X69454610Y-77077080D02*
X69378419Y-77153270D01*
X69378419Y-77153270D02*
X69340324Y-77305651D01*
X69340324Y-77305651D02*
X69340324Y-77572318D01*
X69340324Y-77572318D02*
X69378419Y-77724699D01*
X69378419Y-77724699D02*
X69454610Y-77800890D01*
X69454610Y-77800890D02*
X69530800Y-77838985D01*
X69530800Y-77838985D02*
X69683181Y-77838985D01*
X69683181Y-77838985D02*
X69759372Y-77800890D01*
X69759372Y-77800890D02*
X69835562Y-77724699D01*
X69835562Y-77724699D02*
X69873658Y-77572318D01*
X69873658Y-77572318D02*
X69873658Y-77305651D01*
X69873658Y-77305651D02*
X69835562Y-77153270D01*
X69835562Y-77153270D02*
X69759372Y-77077080D01*
X69759372Y-77077080D02*
X69683181Y-77038985D01*
X68997467Y-77838985D02*
X68997467Y-77038985D01*
X68997467Y-77038985D02*
X68540324Y-77838985D01*
X68540324Y-77838985D02*
X68540324Y-77038985D01*
X67740325Y-77838985D02*
X68197468Y-77838985D01*
X67968896Y-77838985D02*
X67968896Y-77038985D01*
X67968896Y-77038985D02*
X68045087Y-77153270D01*
X68045087Y-77153270D02*
X68121277Y-77229461D01*
X68121277Y-77229461D02*
X68197468Y-77267556D01*
X74140325Y-78326940D02*
X73645087Y-78326940D01*
X73645087Y-78326940D02*
X73911753Y-78631702D01*
X73911753Y-78631702D02*
X73797468Y-78631702D01*
X73797468Y-78631702D02*
X73721277Y-78669797D01*
X73721277Y-78669797D02*
X73683182Y-78707892D01*
X73683182Y-78707892D02*
X73645087Y-78784083D01*
X73645087Y-78784083D02*
X73645087Y-78974559D01*
X73645087Y-78974559D02*
X73683182Y-79050749D01*
X73683182Y-79050749D02*
X73721277Y-79088845D01*
X73721277Y-79088845D02*
X73797468Y-79126940D01*
X73797468Y-79126940D02*
X74026039Y-79126940D01*
X74026039Y-79126940D02*
X74102230Y-79088845D01*
X74102230Y-79088845D02*
X74140325Y-79050749D01*
X72426039Y-78707892D02*
X72311753Y-78745987D01*
X72311753Y-78745987D02*
X72273658Y-78784083D01*
X72273658Y-78784083D02*
X72235562Y-78860273D01*
X72235562Y-78860273D02*
X72235562Y-78974559D01*
X72235562Y-78974559D02*
X72273658Y-79050749D01*
X72273658Y-79050749D02*
X72311753Y-79088845D01*
X72311753Y-79088845D02*
X72387943Y-79126940D01*
X72387943Y-79126940D02*
X72692705Y-79126940D01*
X72692705Y-79126940D02*
X72692705Y-78326940D01*
X72692705Y-78326940D02*
X72426039Y-78326940D01*
X72426039Y-78326940D02*
X72349848Y-78365035D01*
X72349848Y-78365035D02*
X72311753Y-78403130D01*
X72311753Y-78403130D02*
X72273658Y-78479321D01*
X72273658Y-78479321D02*
X72273658Y-78555511D01*
X72273658Y-78555511D02*
X72311753Y-78631702D01*
X72311753Y-78631702D02*
X72349848Y-78669797D01*
X72349848Y-78669797D02*
X72426039Y-78707892D01*
X72426039Y-78707892D02*
X72692705Y-78707892D01*
X71892705Y-78326940D02*
X71892705Y-78974559D01*
X71892705Y-78974559D02*
X71854610Y-79050749D01*
X71854610Y-79050749D02*
X71816515Y-79088845D01*
X71816515Y-79088845D02*
X71740324Y-79126940D01*
X71740324Y-79126940D02*
X71587943Y-79126940D01*
X71587943Y-79126940D02*
X71511753Y-79088845D01*
X71511753Y-79088845D02*
X71473658Y-79050749D01*
X71473658Y-79050749D02*
X71435562Y-78974559D01*
X71435562Y-78974559D02*
X71435562Y-78326940D01*
X71168896Y-78326940D02*
X70711753Y-78326940D01*
X70940325Y-79126940D02*
X70940325Y-78326940D01*
X70559372Y-78326940D02*
X70102229Y-78326940D01*
X70330801Y-79126940D02*
X70330801Y-78326940D01*
X69683181Y-78326940D02*
X69530800Y-78326940D01*
X69530800Y-78326940D02*
X69454610Y-78365035D01*
X69454610Y-78365035D02*
X69378419Y-78441225D01*
X69378419Y-78441225D02*
X69340324Y-78593606D01*
X69340324Y-78593606D02*
X69340324Y-78860273D01*
X69340324Y-78860273D02*
X69378419Y-79012654D01*
X69378419Y-79012654D02*
X69454610Y-79088845D01*
X69454610Y-79088845D02*
X69530800Y-79126940D01*
X69530800Y-79126940D02*
X69683181Y-79126940D01*
X69683181Y-79126940D02*
X69759372Y-79088845D01*
X69759372Y-79088845D02*
X69835562Y-79012654D01*
X69835562Y-79012654D02*
X69873658Y-78860273D01*
X69873658Y-78860273D02*
X69873658Y-78593606D01*
X69873658Y-78593606D02*
X69835562Y-78441225D01*
X69835562Y-78441225D02*
X69759372Y-78365035D01*
X69759372Y-78365035D02*
X69683181Y-78326940D01*
X68997467Y-79126940D02*
X68997467Y-78326940D01*
X68997467Y-78326940D02*
X68540324Y-79126940D01*
X68540324Y-79126940D02*
X68540324Y-78326940D01*
X68197468Y-78403130D02*
X68159372Y-78365035D01*
X68159372Y-78365035D02*
X68083182Y-78326940D01*
X68083182Y-78326940D02*
X67892706Y-78326940D01*
X67892706Y-78326940D02*
X67816515Y-78365035D01*
X67816515Y-78365035D02*
X67778420Y-78403130D01*
X67778420Y-78403130D02*
X67740325Y-78479321D01*
X67740325Y-78479321D02*
X67740325Y-78555511D01*
X67740325Y-78555511D02*
X67778420Y-78669797D01*
X67778420Y-78669797D02*
X68235563Y-79126940D01*
X68235563Y-79126940D02*
X67740325Y-79126940D01*
X73721277Y-79881561D02*
X73721277Y-80414895D01*
X73911753Y-79576800D02*
X74102230Y-80148228D01*
X74102230Y-80148228D02*
X73606991Y-80148228D01*
X72426039Y-79995847D02*
X72311753Y-80033942D01*
X72311753Y-80033942D02*
X72273658Y-80072038D01*
X72273658Y-80072038D02*
X72235562Y-80148228D01*
X72235562Y-80148228D02*
X72235562Y-80262514D01*
X72235562Y-80262514D02*
X72273658Y-80338704D01*
X72273658Y-80338704D02*
X72311753Y-80376800D01*
X72311753Y-80376800D02*
X72387943Y-80414895D01*
X72387943Y-80414895D02*
X72692705Y-80414895D01*
X72692705Y-80414895D02*
X72692705Y-79614895D01*
X72692705Y-79614895D02*
X72426039Y-79614895D01*
X72426039Y-79614895D02*
X72349848Y-79652990D01*
X72349848Y-79652990D02*
X72311753Y-79691085D01*
X72311753Y-79691085D02*
X72273658Y-79767276D01*
X72273658Y-79767276D02*
X72273658Y-79843466D01*
X72273658Y-79843466D02*
X72311753Y-79919657D01*
X72311753Y-79919657D02*
X72349848Y-79957752D01*
X72349848Y-79957752D02*
X72426039Y-79995847D01*
X72426039Y-79995847D02*
X72692705Y-79995847D01*
X71892705Y-79614895D02*
X71892705Y-80262514D01*
X71892705Y-80262514D02*
X71854610Y-80338704D01*
X71854610Y-80338704D02*
X71816515Y-80376800D01*
X71816515Y-80376800D02*
X71740324Y-80414895D01*
X71740324Y-80414895D02*
X71587943Y-80414895D01*
X71587943Y-80414895D02*
X71511753Y-80376800D01*
X71511753Y-80376800D02*
X71473658Y-80338704D01*
X71473658Y-80338704D02*
X71435562Y-80262514D01*
X71435562Y-80262514D02*
X71435562Y-79614895D01*
X71168896Y-79614895D02*
X70711753Y-79614895D01*
X70940325Y-80414895D02*
X70940325Y-79614895D01*
X70559372Y-79614895D02*
X70102229Y-79614895D01*
X70330801Y-80414895D02*
X70330801Y-79614895D01*
X69683181Y-79614895D02*
X69530800Y-79614895D01*
X69530800Y-79614895D02*
X69454610Y-79652990D01*
X69454610Y-79652990D02*
X69378419Y-79729180D01*
X69378419Y-79729180D02*
X69340324Y-79881561D01*
X69340324Y-79881561D02*
X69340324Y-80148228D01*
X69340324Y-80148228D02*
X69378419Y-80300609D01*
X69378419Y-80300609D02*
X69454610Y-80376800D01*
X69454610Y-80376800D02*
X69530800Y-80414895D01*
X69530800Y-80414895D02*
X69683181Y-80414895D01*
X69683181Y-80414895D02*
X69759372Y-80376800D01*
X69759372Y-80376800D02*
X69835562Y-80300609D01*
X69835562Y-80300609D02*
X69873658Y-80148228D01*
X69873658Y-80148228D02*
X69873658Y-79881561D01*
X69873658Y-79881561D02*
X69835562Y-79729180D01*
X69835562Y-79729180D02*
X69759372Y-79652990D01*
X69759372Y-79652990D02*
X69683181Y-79614895D01*
X68997467Y-80414895D02*
X68997467Y-79614895D01*
X68997467Y-79614895D02*
X68540324Y-80414895D01*
X68540324Y-80414895D02*
X68540324Y-79614895D01*
X68235563Y-79614895D02*
X67740325Y-79614895D01*
X67740325Y-79614895D02*
X68006991Y-79919657D01*
X68006991Y-79919657D02*
X67892706Y-79919657D01*
X67892706Y-79919657D02*
X67816515Y-79957752D01*
X67816515Y-79957752D02*
X67778420Y-79995847D01*
X67778420Y-79995847D02*
X67740325Y-80072038D01*
X67740325Y-80072038D02*
X67740325Y-80262514D01*
X67740325Y-80262514D02*
X67778420Y-80338704D01*
X67778420Y-80338704D02*
X67816515Y-80376800D01*
X67816515Y-80376800D02*
X67892706Y-80414895D01*
X67892706Y-80414895D02*
X68121277Y-80414895D01*
X68121277Y-80414895D02*
X68197468Y-80376800D01*
X68197468Y-80376800D02*
X68235563Y-80338704D01*
X73797468Y-84793382D02*
X74064134Y-84793382D01*
X74064134Y-85212430D02*
X74064134Y-84412430D01*
X74064134Y-84412430D02*
X73683182Y-84412430D01*
X73378420Y-85212430D02*
X73378420Y-84679096D01*
X73378420Y-84831477D02*
X73340325Y-84755287D01*
X73340325Y-84755287D02*
X73302230Y-84717192D01*
X73302230Y-84717192D02*
X73226039Y-84679096D01*
X73226039Y-84679096D02*
X73149849Y-84679096D01*
X72768897Y-85212430D02*
X72845087Y-85174335D01*
X72845087Y-85174335D02*
X72883182Y-85136239D01*
X72883182Y-85136239D02*
X72921278Y-85060049D01*
X72921278Y-85060049D02*
X72921278Y-84831477D01*
X72921278Y-84831477D02*
X72883182Y-84755287D01*
X72883182Y-84755287D02*
X72845087Y-84717192D01*
X72845087Y-84717192D02*
X72768897Y-84679096D01*
X72768897Y-84679096D02*
X72654611Y-84679096D01*
X72654611Y-84679096D02*
X72578420Y-84717192D01*
X72578420Y-84717192D02*
X72540325Y-84755287D01*
X72540325Y-84755287D02*
X72502230Y-84831477D01*
X72502230Y-84831477D02*
X72502230Y-85060049D01*
X72502230Y-85060049D02*
X72540325Y-85136239D01*
X72540325Y-85136239D02*
X72578420Y-85174335D01*
X72578420Y-85174335D02*
X72654611Y-85212430D01*
X72654611Y-85212430D02*
X72768897Y-85212430D01*
X72159372Y-84679096D02*
X72159372Y-85212430D01*
X72159372Y-84755287D02*
X72121277Y-84717192D01*
X72121277Y-84717192D02*
X72045087Y-84679096D01*
X72045087Y-84679096D02*
X71930801Y-84679096D01*
X71930801Y-84679096D02*
X71854610Y-84717192D01*
X71854610Y-84717192D02*
X71816515Y-84793382D01*
X71816515Y-84793382D02*
X71816515Y-85212430D01*
X71549848Y-84679096D02*
X71245086Y-84679096D01*
X71435562Y-84412430D02*
X71435562Y-85098144D01*
X71435562Y-85098144D02*
X71397467Y-85174335D01*
X71397467Y-85174335D02*
X71321277Y-85212430D01*
X71321277Y-85212430D02*
X71245086Y-85212430D01*
X70406991Y-85174335D02*
X70330800Y-85212430D01*
X70330800Y-85212430D02*
X70178419Y-85212430D01*
X70178419Y-85212430D02*
X70102229Y-85174335D01*
X70102229Y-85174335D02*
X70064133Y-85098144D01*
X70064133Y-85098144D02*
X70064133Y-85060049D01*
X70064133Y-85060049D02*
X70102229Y-84983858D01*
X70102229Y-84983858D02*
X70178419Y-84945763D01*
X70178419Y-84945763D02*
X70292705Y-84945763D01*
X70292705Y-84945763D02*
X70368895Y-84907668D01*
X70368895Y-84907668D02*
X70406991Y-84831477D01*
X70406991Y-84831477D02*
X70406991Y-84793382D01*
X70406991Y-84793382D02*
X70368895Y-84717192D01*
X70368895Y-84717192D02*
X70292705Y-84679096D01*
X70292705Y-84679096D02*
X70178419Y-84679096D01*
X70178419Y-84679096D02*
X70102229Y-84717192D01*
X69797467Y-84679096D02*
X69645086Y-85212430D01*
X69645086Y-85212430D02*
X69492705Y-84831477D01*
X69492705Y-84831477D02*
X69340324Y-85212430D01*
X69340324Y-85212430D02*
X69187943Y-84679096D01*
X68883181Y-85212430D02*
X68883181Y-84679096D01*
X68883181Y-84412430D02*
X68921277Y-84450525D01*
X68921277Y-84450525D02*
X68883181Y-84488620D01*
X68883181Y-84488620D02*
X68845086Y-84450525D01*
X68845086Y-84450525D02*
X68883181Y-84412430D01*
X68883181Y-84412430D02*
X68883181Y-84488620D01*
X68616515Y-84679096D02*
X68311753Y-84679096D01*
X68502229Y-84412430D02*
X68502229Y-85098144D01*
X68502229Y-85098144D02*
X68464134Y-85174335D01*
X68464134Y-85174335D02*
X68387944Y-85212430D01*
X68387944Y-85212430D02*
X68311753Y-85212430D01*
X67702229Y-85174335D02*
X67778420Y-85212430D01*
X67778420Y-85212430D02*
X67930801Y-85212430D01*
X67930801Y-85212430D02*
X68006991Y-85174335D01*
X68006991Y-85174335D02*
X68045086Y-85136239D01*
X68045086Y-85136239D02*
X68083182Y-85060049D01*
X68083182Y-85060049D02*
X68083182Y-84831477D01*
X68083182Y-84831477D02*
X68045086Y-84755287D01*
X68045086Y-84755287D02*
X68006991Y-84717192D01*
X68006991Y-84717192D02*
X67930801Y-84679096D01*
X67930801Y-84679096D02*
X67778420Y-84679096D01*
X67778420Y-84679096D02*
X67702229Y-84717192D01*
X67359372Y-85212430D02*
X67359372Y-84412430D01*
X67016515Y-85212430D02*
X67016515Y-84793382D01*
X67016515Y-84793382D02*
X67054610Y-84717192D01*
X67054610Y-84717192D02*
X67130801Y-84679096D01*
X67130801Y-84679096D02*
X67245087Y-84679096D01*
X67245087Y-84679096D02*
X67321277Y-84717192D01*
X67321277Y-84717192D02*
X67359372Y-84755287D01*
X65797467Y-84412430D02*
X65797467Y-84983858D01*
X65797467Y-84983858D02*
X65835562Y-85098144D01*
X65835562Y-85098144D02*
X65911753Y-85174335D01*
X65911753Y-85174335D02*
X66026038Y-85212430D01*
X66026038Y-85212430D02*
X66102229Y-85212430D01*
X64997467Y-85212430D02*
X65454610Y-85212430D01*
X65226038Y-85212430D02*
X65226038Y-84412430D01*
X65226038Y-84412430D02*
X65302229Y-84526715D01*
X65302229Y-84526715D02*
X65378419Y-84602906D01*
X65378419Y-84602906D02*
X65454610Y-84641001D01*
X64502228Y-84412430D02*
X64426038Y-84412430D01*
X64426038Y-84412430D02*
X64349847Y-84450525D01*
X64349847Y-84450525D02*
X64311752Y-84488620D01*
X64311752Y-84488620D02*
X64273657Y-84564811D01*
X64273657Y-84564811D02*
X64235562Y-84717192D01*
X64235562Y-84717192D02*
X64235562Y-84907668D01*
X64235562Y-84907668D02*
X64273657Y-85060049D01*
X64273657Y-85060049D02*
X64311752Y-85136239D01*
X64311752Y-85136239D02*
X64349847Y-85174335D01*
X64349847Y-85174335D02*
X64426038Y-85212430D01*
X64426038Y-85212430D02*
X64502228Y-85212430D01*
X64502228Y-85212430D02*
X64578419Y-85174335D01*
X64578419Y-85174335D02*
X64616514Y-85136239D01*
X64616514Y-85136239D02*
X64654609Y-85060049D01*
X64654609Y-85060049D02*
X64692705Y-84907668D01*
X64692705Y-84907668D02*
X64692705Y-84717192D01*
X64692705Y-84717192D02*
X64654609Y-84564811D01*
X64654609Y-84564811D02*
X64616514Y-84488620D01*
X64616514Y-84488620D02*
X64578419Y-84450525D01*
X64578419Y-84450525D02*
X64502228Y-84412430D01*
X63968895Y-84412430D02*
X63473657Y-84412430D01*
X63473657Y-84412430D02*
X63740323Y-84717192D01*
X63740323Y-84717192D02*
X63626038Y-84717192D01*
X63626038Y-84717192D02*
X63549847Y-84755287D01*
X63549847Y-84755287D02*
X63511752Y-84793382D01*
X63511752Y-84793382D02*
X63473657Y-84869573D01*
X63473657Y-84869573D02*
X63473657Y-85060049D01*
X63473657Y-85060049D02*
X63511752Y-85136239D01*
X63511752Y-85136239D02*
X63549847Y-85174335D01*
X63549847Y-85174335D02*
X63626038Y-85212430D01*
X63626038Y-85212430D02*
X63854609Y-85212430D01*
X63854609Y-85212430D02*
X63930800Y-85174335D01*
X63930800Y-85174335D02*
X63968895Y-85136239D01*
X73645087Y-86500385D02*
X74102230Y-86500385D01*
X73873658Y-86500385D02*
X73873658Y-85700385D01*
X73873658Y-85700385D02*
X73949849Y-85814670D01*
X73949849Y-85814670D02*
X74026039Y-85890861D01*
X74026039Y-85890861D02*
X74102230Y-85928956D01*
X72426039Y-86081337D02*
X72311753Y-86119432D01*
X72311753Y-86119432D02*
X72273658Y-86157528D01*
X72273658Y-86157528D02*
X72235562Y-86233718D01*
X72235562Y-86233718D02*
X72235562Y-86348004D01*
X72235562Y-86348004D02*
X72273658Y-86424194D01*
X72273658Y-86424194D02*
X72311753Y-86462290D01*
X72311753Y-86462290D02*
X72387943Y-86500385D01*
X72387943Y-86500385D02*
X72692705Y-86500385D01*
X72692705Y-86500385D02*
X72692705Y-85700385D01*
X72692705Y-85700385D02*
X72426039Y-85700385D01*
X72426039Y-85700385D02*
X72349848Y-85738480D01*
X72349848Y-85738480D02*
X72311753Y-85776575D01*
X72311753Y-85776575D02*
X72273658Y-85852766D01*
X72273658Y-85852766D02*
X72273658Y-85928956D01*
X72273658Y-85928956D02*
X72311753Y-86005147D01*
X72311753Y-86005147D02*
X72349848Y-86043242D01*
X72349848Y-86043242D02*
X72426039Y-86081337D01*
X72426039Y-86081337D02*
X72692705Y-86081337D01*
X71892705Y-85700385D02*
X71892705Y-86348004D01*
X71892705Y-86348004D02*
X71854610Y-86424194D01*
X71854610Y-86424194D02*
X71816515Y-86462290D01*
X71816515Y-86462290D02*
X71740324Y-86500385D01*
X71740324Y-86500385D02*
X71587943Y-86500385D01*
X71587943Y-86500385D02*
X71511753Y-86462290D01*
X71511753Y-86462290D02*
X71473658Y-86424194D01*
X71473658Y-86424194D02*
X71435562Y-86348004D01*
X71435562Y-86348004D02*
X71435562Y-85700385D01*
X71168896Y-85700385D02*
X70711753Y-85700385D01*
X70940325Y-86500385D02*
X70940325Y-85700385D01*
X70559372Y-85700385D02*
X70102229Y-85700385D01*
X70330801Y-86500385D02*
X70330801Y-85700385D01*
X69683181Y-85700385D02*
X69530800Y-85700385D01*
X69530800Y-85700385D02*
X69454610Y-85738480D01*
X69454610Y-85738480D02*
X69378419Y-85814670D01*
X69378419Y-85814670D02*
X69340324Y-85967051D01*
X69340324Y-85967051D02*
X69340324Y-86233718D01*
X69340324Y-86233718D02*
X69378419Y-86386099D01*
X69378419Y-86386099D02*
X69454610Y-86462290D01*
X69454610Y-86462290D02*
X69530800Y-86500385D01*
X69530800Y-86500385D02*
X69683181Y-86500385D01*
X69683181Y-86500385D02*
X69759372Y-86462290D01*
X69759372Y-86462290D02*
X69835562Y-86386099D01*
X69835562Y-86386099D02*
X69873658Y-86233718D01*
X69873658Y-86233718D02*
X69873658Y-85967051D01*
X69873658Y-85967051D02*
X69835562Y-85814670D01*
X69835562Y-85814670D02*
X69759372Y-85738480D01*
X69759372Y-85738480D02*
X69683181Y-85700385D01*
X68997467Y-86500385D02*
X68997467Y-85700385D01*
X68997467Y-85700385D02*
X68540324Y-86500385D01*
X68540324Y-86500385D02*
X68540324Y-85700385D01*
X74102230Y-87064530D02*
X74064134Y-87026435D01*
X74064134Y-87026435D02*
X73987944Y-86988340D01*
X73987944Y-86988340D02*
X73797468Y-86988340D01*
X73797468Y-86988340D02*
X73721277Y-87026435D01*
X73721277Y-87026435D02*
X73683182Y-87064530D01*
X73683182Y-87064530D02*
X73645087Y-87140721D01*
X73645087Y-87140721D02*
X73645087Y-87216911D01*
X73645087Y-87216911D02*
X73683182Y-87331197D01*
X73683182Y-87331197D02*
X74140325Y-87788340D01*
X74140325Y-87788340D02*
X73645087Y-87788340D01*
X72692705Y-87483578D02*
X72083182Y-87483578D01*
X72387943Y-87788340D02*
X72387943Y-87178816D01*
X71778420Y-86988340D02*
X71283182Y-86988340D01*
X71283182Y-86988340D02*
X71549848Y-87293102D01*
X71549848Y-87293102D02*
X71435563Y-87293102D01*
X71435563Y-87293102D02*
X71359372Y-87331197D01*
X71359372Y-87331197D02*
X71321277Y-87369292D01*
X71321277Y-87369292D02*
X71283182Y-87445483D01*
X71283182Y-87445483D02*
X71283182Y-87635959D01*
X71283182Y-87635959D02*
X71321277Y-87712149D01*
X71321277Y-87712149D02*
X71359372Y-87750245D01*
X71359372Y-87750245D02*
X71435563Y-87788340D01*
X71435563Y-87788340D02*
X71664134Y-87788340D01*
X71664134Y-87788340D02*
X71740325Y-87750245D01*
X71740325Y-87750245D02*
X71778420Y-87712149D01*
X70940324Y-87712149D02*
X70902229Y-87750245D01*
X70902229Y-87750245D02*
X70940324Y-87788340D01*
X70940324Y-87788340D02*
X70978420Y-87750245D01*
X70978420Y-87750245D02*
X70940324Y-87712149D01*
X70940324Y-87712149D02*
X70940324Y-87788340D01*
X70635563Y-86988340D02*
X70140325Y-86988340D01*
X70140325Y-86988340D02*
X70406991Y-87293102D01*
X70406991Y-87293102D02*
X70292706Y-87293102D01*
X70292706Y-87293102D02*
X70216515Y-87331197D01*
X70216515Y-87331197D02*
X70178420Y-87369292D01*
X70178420Y-87369292D02*
X70140325Y-87445483D01*
X70140325Y-87445483D02*
X70140325Y-87635959D01*
X70140325Y-87635959D02*
X70178420Y-87712149D01*
X70178420Y-87712149D02*
X70216515Y-87750245D01*
X70216515Y-87750245D02*
X70292706Y-87788340D01*
X70292706Y-87788340D02*
X70521277Y-87788340D01*
X70521277Y-87788340D02*
X70597468Y-87750245D01*
X70597468Y-87750245D02*
X70635563Y-87712149D01*
X69911753Y-86988340D02*
X69645086Y-87788340D01*
X69645086Y-87788340D02*
X69378420Y-86988340D01*
X74140325Y-88276295D02*
X73645087Y-88276295D01*
X73645087Y-88276295D02*
X73911753Y-88581057D01*
X73911753Y-88581057D02*
X73797468Y-88581057D01*
X73797468Y-88581057D02*
X73721277Y-88619152D01*
X73721277Y-88619152D02*
X73683182Y-88657247D01*
X73683182Y-88657247D02*
X73645087Y-88733438D01*
X73645087Y-88733438D02*
X73645087Y-88923914D01*
X73645087Y-88923914D02*
X73683182Y-89000104D01*
X73683182Y-89000104D02*
X73721277Y-89038200D01*
X73721277Y-89038200D02*
X73797468Y-89076295D01*
X73797468Y-89076295D02*
X74026039Y-89076295D01*
X74026039Y-89076295D02*
X74102230Y-89038200D01*
X74102230Y-89038200D02*
X74140325Y-89000104D01*
X72540324Y-88276295D02*
X72387943Y-88276295D01*
X72387943Y-88276295D02*
X72311753Y-88314390D01*
X72311753Y-88314390D02*
X72235562Y-88390580D01*
X72235562Y-88390580D02*
X72197467Y-88542961D01*
X72197467Y-88542961D02*
X72197467Y-88809628D01*
X72197467Y-88809628D02*
X72235562Y-88962009D01*
X72235562Y-88962009D02*
X72311753Y-89038200D01*
X72311753Y-89038200D02*
X72387943Y-89076295D01*
X72387943Y-89076295D02*
X72540324Y-89076295D01*
X72540324Y-89076295D02*
X72616515Y-89038200D01*
X72616515Y-89038200D02*
X72692705Y-88962009D01*
X72692705Y-88962009D02*
X72730801Y-88809628D01*
X72730801Y-88809628D02*
X72730801Y-88542961D01*
X72730801Y-88542961D02*
X72692705Y-88390580D01*
X72692705Y-88390580D02*
X72616515Y-88314390D01*
X72616515Y-88314390D02*
X72540324Y-88276295D01*
X71397467Y-89000104D02*
X71435563Y-89038200D01*
X71435563Y-89038200D02*
X71549848Y-89076295D01*
X71549848Y-89076295D02*
X71626039Y-89076295D01*
X71626039Y-89076295D02*
X71740325Y-89038200D01*
X71740325Y-89038200D02*
X71816515Y-88962009D01*
X71816515Y-88962009D02*
X71854610Y-88885819D01*
X71854610Y-88885819D02*
X71892706Y-88733438D01*
X71892706Y-88733438D02*
X71892706Y-88619152D01*
X71892706Y-88619152D02*
X71854610Y-88466771D01*
X71854610Y-88466771D02*
X71816515Y-88390580D01*
X71816515Y-88390580D02*
X71740325Y-88314390D01*
X71740325Y-88314390D02*
X71626039Y-88276295D01*
X71626039Y-88276295D02*
X71549848Y-88276295D01*
X71549848Y-88276295D02*
X71435563Y-88314390D01*
X71435563Y-88314390D02*
X71397467Y-88352485D01*
X70216515Y-89381057D02*
X70254610Y-89342961D01*
X70254610Y-89342961D02*
X70330801Y-89228676D01*
X70330801Y-89228676D02*
X70368896Y-89152485D01*
X70368896Y-89152485D02*
X70406991Y-89038200D01*
X70406991Y-89038200D02*
X70445086Y-88847723D01*
X70445086Y-88847723D02*
X70445086Y-88695342D01*
X70445086Y-88695342D02*
X70406991Y-88504866D01*
X70406991Y-88504866D02*
X70368896Y-88390580D01*
X70368896Y-88390580D02*
X70330801Y-88314390D01*
X70330801Y-88314390D02*
X70254610Y-88200104D01*
X70254610Y-88200104D02*
X70216515Y-88162009D01*
X69530801Y-89076295D02*
X69911753Y-89076295D01*
X69911753Y-89076295D02*
X69911753Y-88276295D01*
X68959372Y-89038200D02*
X69035563Y-89076295D01*
X69035563Y-89076295D02*
X69187944Y-89076295D01*
X69187944Y-89076295D02*
X69264134Y-89038200D01*
X69264134Y-89038200D02*
X69302230Y-88962009D01*
X69302230Y-88962009D02*
X69302230Y-88657247D01*
X69302230Y-88657247D02*
X69264134Y-88581057D01*
X69264134Y-88581057D02*
X69187944Y-88542961D01*
X69187944Y-88542961D02*
X69035563Y-88542961D01*
X69035563Y-88542961D02*
X68959372Y-88581057D01*
X68959372Y-88581057D02*
X68921277Y-88657247D01*
X68921277Y-88657247D02*
X68921277Y-88733438D01*
X68921277Y-88733438D02*
X69302230Y-88809628D01*
X68235563Y-89076295D02*
X68235563Y-88276295D01*
X68235563Y-89038200D02*
X68311754Y-89076295D01*
X68311754Y-89076295D02*
X68464135Y-89076295D01*
X68464135Y-89076295D02*
X68540325Y-89038200D01*
X68540325Y-89038200D02*
X68578420Y-89000104D01*
X68578420Y-89000104D02*
X68616516Y-88923914D01*
X68616516Y-88923914D02*
X68616516Y-88695342D01*
X68616516Y-88695342D02*
X68578420Y-88619152D01*
X68578420Y-88619152D02*
X68540325Y-88581057D01*
X68540325Y-88581057D02*
X68464135Y-88542961D01*
X68464135Y-88542961D02*
X68311754Y-88542961D01*
X68311754Y-88542961D02*
X68235563Y-88581057D01*
X67930801Y-89381057D02*
X67892706Y-89342961D01*
X67892706Y-89342961D02*
X67816515Y-89228676D01*
X67816515Y-89228676D02*
X67778420Y-89152485D01*
X67778420Y-89152485D02*
X67740325Y-89038200D01*
X67740325Y-89038200D02*
X67702229Y-88847723D01*
X67702229Y-88847723D02*
X67702229Y-88695342D01*
X67702229Y-88695342D02*
X67740325Y-88504866D01*
X67740325Y-88504866D02*
X67778420Y-88390580D01*
X67778420Y-88390580D02*
X67816515Y-88314390D01*
X67816515Y-88314390D02*
X67892706Y-88200104D01*
X67892706Y-88200104D02*
X67930801Y-88162009D01*
%TO.C,H403*%
X20750000Y-110000000D02*
G75*
G02*
X15250000Y-110000000I-2750000J0D01*
G01*
X15250000Y-110000000D02*
G75*
G02*
X20750000Y-110000000I2750000J0D01*
G01*
%TO.C,H402*%
X77750000Y-49000000D02*
G75*
G02*
X72250000Y-49000000I-2750000J0D01*
G01*
X72250000Y-49000000D02*
G75*
G02*
X77750000Y-49000000I2750000J0D01*
G01*
%TO.C,TP208*%
X56576000Y-64770000D02*
G75*
G02*
X54676000Y-64770000I-950000J0D01*
G01*
X54676000Y-64770000D02*
G75*
G02*
X56576000Y-64770000I950000J0D01*
G01*
%TO.C,H401*%
X77750000Y-110000000D02*
G75*
G02*
X72250000Y-110000000I-2750000J0D01*
G01*
X72250000Y-110000000D02*
G75*
G02*
X77750000Y-110000000I2750000J0D01*
G01*
%TO.C,H404*%
X20750000Y-49000000D02*
G75*
G02*
X15250000Y-49000000I-2750000J0D01*
G01*
X15250000Y-49000000D02*
G75*
G02*
X20750000Y-49000000I2750000J0D01*
G01*
%TO.C,TP202*%
X28382000Y-54356000D02*
G75*
G02*
X26482000Y-54356000I-950000J0D01*
G01*
X26482000Y-54356000D02*
G75*
G02*
X28382000Y-54356000I950000J0D01*
G01*
%TD*%
%LPC*%
D11*
%TO.C,H403*%
X18000000Y-110000000D03*
%TD*%
D12*
%TO.C,J103*%
X40700000Y-109000000D03*
D13*
X43200000Y-109000000D03*
X45700000Y-109000000D03*
%TD*%
D14*
%TO.C,J104*%
X34230000Y-50055000D03*
D13*
X31730000Y-50055000D03*
X29230000Y-50055000D03*
X26730000Y-50055000D03*
%TD*%
D15*
%TO.C,SW102*%
X65024000Y-66548000D03*
D16*
X62484000Y-66548000D03*
%TD*%
D11*
%TO.C,H402*%
X75000000Y-49000000D03*
%TD*%
D17*
%TO.C,TP208*%
X55626000Y-64770000D03*
%TD*%
D18*
%TO.C,SW202*%
X59800000Y-95500000D03*
X64500000Y-95500000D03*
X69200000Y-95500000D03*
%TD*%
D11*
%TO.C,H401*%
X75000000Y-110000000D03*
%TD*%
D14*
%TO.C,J201*%
X48962000Y-50055000D03*
D13*
X46462000Y-50055000D03*
X43962000Y-50055000D03*
X41462000Y-50055000D03*
%TD*%
D15*
%TO.C,SW101*%
X65024000Y-71120000D03*
D16*
X62484000Y-71120000D03*
%TD*%
D11*
%TO.C,H404*%
X18000000Y-49000000D03*
%TD*%
D17*
%TO.C,TP202*%
X27432000Y-54356000D03*
%TD*%
D19*
%TO.C,BZ101*%
X65800000Y-109000000D03*
D20*
X65800000Y-102500000D03*
%TD*%
D15*
%TO.C,J105*%
X25425000Y-59065000D03*
D16*
X25425000Y-61605000D03*
X25425000Y-64145000D03*
X25425000Y-66685000D03*
%TD*%
D21*
%TO.C,J202*%
X66802000Y-50800000D03*
D20*
X64262000Y-50800000D03*
%TD*%
D12*
%TO.C,J102*%
X26035000Y-109000000D03*
D13*
X28535000Y-109000000D03*
X31035000Y-109000000D03*
X33535000Y-109000000D03*
%TD*%
D22*
%TO.C,J101*%
X52587500Y-74930000D03*
D20*
X55127500Y-74930000D03*
X52587500Y-77470000D03*
X55127500Y-77470000D03*
X52587500Y-80010000D03*
X55127500Y-80010000D03*
X52587500Y-82550000D03*
X55127500Y-82550000D03*
X52587500Y-85090000D03*
X55127500Y-85090000D03*
%TD*%
%LPD*%
M02*
