%TF.GenerationSoftware,KiCad,Pcbnew,8.0.1*%
%TF.CreationDate,2024-06-07T14:48:59+02:00*%
%TF.ProjectId,Robuoy-Top,526f6275-6f79-42d5-946f-702e6b696361,rev?*%
%TF.SameCoordinates,Original*%
%TF.FileFunction,Other,Comment*%
%FSLAX46Y46*%
G04 Gerber Fmt 4.6, Leading zero omitted, Abs format (unit mm)*
G04 Created by KiCad (PCBNEW 8.0.1) date 2024-06-07 14:48:59*
%MOMM*%
%LPD*%
G01*
G04 APERTURE LIST*
%ADD10C,0.150000*%
%ADD11C,0.100000*%
G04 APERTURE END LIST*
D10*
X26044819Y-89161428D02*
X25044819Y-89161428D01*
X26044819Y-88590000D02*
X25473390Y-89018571D01*
X25044819Y-88590000D02*
X25616247Y-89161428D01*
X25521009Y-88161428D02*
X25521009Y-87828095D01*
X26044819Y-87685238D02*
X26044819Y-88161428D01*
X26044819Y-88161428D02*
X25044819Y-88161428D01*
X25044819Y-88161428D02*
X25044819Y-87685238D01*
X25521009Y-87256666D02*
X25521009Y-86923333D01*
X26044819Y-86780476D02*
X26044819Y-87256666D01*
X26044819Y-87256666D02*
X25044819Y-87256666D01*
X25044819Y-87256666D02*
X25044819Y-86780476D01*
X26044819Y-86351904D02*
X25044819Y-86351904D01*
X25044819Y-86351904D02*
X25044819Y-85970952D01*
X25044819Y-85970952D02*
X25092438Y-85875714D01*
X25092438Y-85875714D02*
X25140057Y-85828095D01*
X25140057Y-85828095D02*
X25235295Y-85780476D01*
X25235295Y-85780476D02*
X25378152Y-85780476D01*
X25378152Y-85780476D02*
X25473390Y-85828095D01*
X25473390Y-85828095D02*
X25521009Y-85875714D01*
X25521009Y-85875714D02*
X25568628Y-85970952D01*
X25568628Y-85970952D02*
X25568628Y-86351904D01*
X25663866Y-85351904D02*
X25663866Y-84590000D01*
X25044819Y-83923333D02*
X25044819Y-83732857D01*
X25044819Y-83732857D02*
X25092438Y-83637619D01*
X25092438Y-83637619D02*
X25187676Y-83542381D01*
X25187676Y-83542381D02*
X25378152Y-83494762D01*
X25378152Y-83494762D02*
X25711485Y-83494762D01*
X25711485Y-83494762D02*
X25901961Y-83542381D01*
X25901961Y-83542381D02*
X25997200Y-83637619D01*
X25997200Y-83637619D02*
X26044819Y-83732857D01*
X26044819Y-83732857D02*
X26044819Y-83923333D01*
X26044819Y-83923333D02*
X25997200Y-84018571D01*
X25997200Y-84018571D02*
X25901961Y-84113809D01*
X25901961Y-84113809D02*
X25711485Y-84161428D01*
X25711485Y-84161428D02*
X25378152Y-84161428D01*
X25378152Y-84161428D02*
X25187676Y-84113809D01*
X25187676Y-84113809D02*
X25092438Y-84018571D01*
X25092438Y-84018571D02*
X25044819Y-83923333D01*
X25044819Y-83066190D02*
X25854342Y-83066190D01*
X25854342Y-83066190D02*
X25949580Y-83018571D01*
X25949580Y-83018571D02*
X25997200Y-82970952D01*
X25997200Y-82970952D02*
X26044819Y-82875714D01*
X26044819Y-82875714D02*
X26044819Y-82685238D01*
X26044819Y-82685238D02*
X25997200Y-82590000D01*
X25997200Y-82590000D02*
X25949580Y-82542381D01*
X25949580Y-82542381D02*
X25854342Y-82494762D01*
X25854342Y-82494762D02*
X25044819Y-82494762D01*
X25044819Y-82161428D02*
X25044819Y-81590000D01*
X26044819Y-81875714D02*
X25044819Y-81875714D01*
X25044819Y-80589999D02*
X25044819Y-79923333D01*
X25044819Y-79923333D02*
X26044819Y-80589999D01*
X26044819Y-80589999D02*
X26044819Y-79923333D01*
X25044819Y-79351904D02*
X25044819Y-79161428D01*
X25044819Y-79161428D02*
X25092438Y-79066190D01*
X25092438Y-79066190D02*
X25187676Y-78970952D01*
X25187676Y-78970952D02*
X25378152Y-78923333D01*
X25378152Y-78923333D02*
X25711485Y-78923333D01*
X25711485Y-78923333D02*
X25901961Y-78970952D01*
X25901961Y-78970952D02*
X25997200Y-79066190D01*
X25997200Y-79066190D02*
X26044819Y-79161428D01*
X26044819Y-79161428D02*
X26044819Y-79351904D01*
X26044819Y-79351904D02*
X25997200Y-79447142D01*
X25997200Y-79447142D02*
X25901961Y-79542380D01*
X25901961Y-79542380D02*
X25711485Y-79589999D01*
X25711485Y-79589999D02*
X25378152Y-79589999D01*
X25378152Y-79589999D02*
X25187676Y-79542380D01*
X25187676Y-79542380D02*
X25092438Y-79447142D01*
X25092438Y-79447142D02*
X25044819Y-79351904D01*
X26044819Y-78494761D02*
X25044819Y-78494761D01*
X25044819Y-78494761D02*
X26044819Y-77923333D01*
X26044819Y-77923333D02*
X25044819Y-77923333D01*
X25521009Y-77447142D02*
X25521009Y-77113809D01*
X26044819Y-76970952D02*
X26044819Y-77447142D01*
X26044819Y-77447142D02*
X25044819Y-77447142D01*
X25044819Y-77447142D02*
X25044819Y-76970952D01*
X31759104Y-85851904D02*
X31759104Y-85375714D01*
X32044819Y-85947142D02*
X31044819Y-85613809D01*
X31044819Y-85613809D02*
X32044819Y-85280476D01*
X31378152Y-84947142D02*
X32044819Y-84947142D01*
X31473390Y-84947142D02*
X31425771Y-84899523D01*
X31425771Y-84899523D02*
X31378152Y-84804285D01*
X31378152Y-84804285D02*
X31378152Y-84661428D01*
X31378152Y-84661428D02*
X31425771Y-84566190D01*
X31425771Y-84566190D02*
X31521009Y-84518571D01*
X31521009Y-84518571D02*
X32044819Y-84518571D01*
X31378152Y-84185237D02*
X31378152Y-83804285D01*
X31044819Y-84042380D02*
X31901961Y-84042380D01*
X31901961Y-84042380D02*
X31997200Y-83994761D01*
X31997200Y-83994761D02*
X32044819Y-83899523D01*
X32044819Y-83899523D02*
X32044819Y-83804285D01*
X31997200Y-83089999D02*
X32044819Y-83185237D01*
X32044819Y-83185237D02*
X32044819Y-83375713D01*
X32044819Y-83375713D02*
X31997200Y-83470951D01*
X31997200Y-83470951D02*
X31901961Y-83518570D01*
X31901961Y-83518570D02*
X31521009Y-83518570D01*
X31521009Y-83518570D02*
X31425771Y-83470951D01*
X31425771Y-83470951D02*
X31378152Y-83375713D01*
X31378152Y-83375713D02*
X31378152Y-83185237D01*
X31378152Y-83185237D02*
X31425771Y-83089999D01*
X31425771Y-83089999D02*
X31521009Y-83042380D01*
X31521009Y-83042380D02*
X31616247Y-83042380D01*
X31616247Y-83042380D02*
X31711485Y-83518570D01*
X31378152Y-82613808D02*
X32044819Y-82613808D01*
X31473390Y-82613808D02*
X31425771Y-82566189D01*
X31425771Y-82566189D02*
X31378152Y-82470951D01*
X31378152Y-82470951D02*
X31378152Y-82328094D01*
X31378152Y-82328094D02*
X31425771Y-82232856D01*
X31425771Y-82232856D02*
X31521009Y-82185237D01*
X31521009Y-82185237D02*
X32044819Y-82185237D01*
X31378152Y-81709046D02*
X32044819Y-81709046D01*
X31473390Y-81709046D02*
X31425771Y-81661427D01*
X31425771Y-81661427D02*
X31378152Y-81566189D01*
X31378152Y-81566189D02*
X31378152Y-81423332D01*
X31378152Y-81423332D02*
X31425771Y-81328094D01*
X31425771Y-81328094D02*
X31521009Y-81280475D01*
X31521009Y-81280475D02*
X32044819Y-81280475D01*
X32044819Y-80375713D02*
X31521009Y-80375713D01*
X31521009Y-80375713D02*
X31425771Y-80423332D01*
X31425771Y-80423332D02*
X31378152Y-80518570D01*
X31378152Y-80518570D02*
X31378152Y-80709046D01*
X31378152Y-80709046D02*
X31425771Y-80804284D01*
X31997200Y-80375713D02*
X32044819Y-80470951D01*
X32044819Y-80470951D02*
X32044819Y-80709046D01*
X32044819Y-80709046D02*
X31997200Y-80804284D01*
X31997200Y-80804284D02*
X31901961Y-80851903D01*
X31901961Y-80851903D02*
X31806723Y-80851903D01*
X31806723Y-80851903D02*
X31711485Y-80804284D01*
X31711485Y-80804284D02*
X31663866Y-80709046D01*
X31663866Y-80709046D02*
X31663866Y-80470951D01*
X31663866Y-80470951D02*
X31616247Y-80375713D01*
D11*
X24776904Y-75016109D02*
X24538809Y-75016109D01*
X24538809Y-75016109D02*
X24515000Y-75254204D01*
X24515000Y-75254204D02*
X24538809Y-75230395D01*
X24538809Y-75230395D02*
X24586428Y-75206585D01*
X24586428Y-75206585D02*
X24705476Y-75206585D01*
X24705476Y-75206585D02*
X24753095Y-75230395D01*
X24753095Y-75230395D02*
X24776904Y-75254204D01*
X24776904Y-75254204D02*
X24800714Y-75301823D01*
X24800714Y-75301823D02*
X24800714Y-75420871D01*
X24800714Y-75420871D02*
X24776904Y-75468490D01*
X24776904Y-75468490D02*
X24753095Y-75492300D01*
X24753095Y-75492300D02*
X24705476Y-75516109D01*
X24705476Y-75516109D02*
X24586428Y-75516109D01*
X24586428Y-75516109D02*
X24538809Y-75492300D01*
X24538809Y-75492300D02*
X24515000Y-75468490D01*
X25395951Y-75516109D02*
X25395951Y-75182776D01*
X25395951Y-75230395D02*
X25419761Y-75206585D01*
X25419761Y-75206585D02*
X25467380Y-75182776D01*
X25467380Y-75182776D02*
X25538808Y-75182776D01*
X25538808Y-75182776D02*
X25586427Y-75206585D01*
X25586427Y-75206585D02*
X25610237Y-75254204D01*
X25610237Y-75254204D02*
X25610237Y-75516109D01*
X25610237Y-75254204D02*
X25634046Y-75206585D01*
X25634046Y-75206585D02*
X25681665Y-75182776D01*
X25681665Y-75182776D02*
X25753094Y-75182776D01*
X25753094Y-75182776D02*
X25800713Y-75206585D01*
X25800713Y-75206585D02*
X25824523Y-75254204D01*
X25824523Y-75254204D02*
X25824523Y-75516109D01*
X26062618Y-75516109D02*
X26062618Y-75182776D01*
X26062618Y-75230395D02*
X26086428Y-75206585D01*
X26086428Y-75206585D02*
X26134047Y-75182776D01*
X26134047Y-75182776D02*
X26205475Y-75182776D01*
X26205475Y-75182776D02*
X26253094Y-75206585D01*
X26253094Y-75206585D02*
X26276904Y-75254204D01*
X26276904Y-75254204D02*
X26276904Y-75516109D01*
X26276904Y-75254204D02*
X26300713Y-75206585D01*
X26300713Y-75206585D02*
X26348332Y-75182776D01*
X26348332Y-75182776D02*
X26419761Y-75182776D01*
X26419761Y-75182776D02*
X26467380Y-75206585D01*
X26467380Y-75206585D02*
X26491190Y-75254204D01*
X26491190Y-75254204D02*
X26491190Y-75516109D01*
X29941109Y-72028095D02*
X29941109Y-72266190D01*
X29941109Y-72266190D02*
X30179204Y-72289999D01*
X30179204Y-72289999D02*
X30155395Y-72266190D01*
X30155395Y-72266190D02*
X30131585Y-72218571D01*
X30131585Y-72218571D02*
X30131585Y-72099523D01*
X30131585Y-72099523D02*
X30155395Y-72051904D01*
X30155395Y-72051904D02*
X30179204Y-72028095D01*
X30179204Y-72028095D02*
X30226823Y-72004285D01*
X30226823Y-72004285D02*
X30345871Y-72004285D01*
X30345871Y-72004285D02*
X30393490Y-72028095D01*
X30393490Y-72028095D02*
X30417300Y-72051904D01*
X30417300Y-72051904D02*
X30441109Y-72099523D01*
X30441109Y-72099523D02*
X30441109Y-72218571D01*
X30441109Y-72218571D02*
X30417300Y-72266190D01*
X30417300Y-72266190D02*
X30393490Y-72289999D01*
X30441109Y-71409048D02*
X30107776Y-71409048D01*
X30155395Y-71409048D02*
X30131585Y-71385238D01*
X30131585Y-71385238D02*
X30107776Y-71337619D01*
X30107776Y-71337619D02*
X30107776Y-71266191D01*
X30107776Y-71266191D02*
X30131585Y-71218572D01*
X30131585Y-71218572D02*
X30179204Y-71194762D01*
X30179204Y-71194762D02*
X30441109Y-71194762D01*
X30179204Y-71194762D02*
X30131585Y-71170953D01*
X30131585Y-71170953D02*
X30107776Y-71123334D01*
X30107776Y-71123334D02*
X30107776Y-71051905D01*
X30107776Y-71051905D02*
X30131585Y-71004286D01*
X30131585Y-71004286D02*
X30179204Y-70980476D01*
X30179204Y-70980476D02*
X30441109Y-70980476D01*
X30441109Y-70742381D02*
X30107776Y-70742381D01*
X30155395Y-70742381D02*
X30131585Y-70718571D01*
X30131585Y-70718571D02*
X30107776Y-70670952D01*
X30107776Y-70670952D02*
X30107776Y-70599524D01*
X30107776Y-70599524D02*
X30131585Y-70551905D01*
X30131585Y-70551905D02*
X30179204Y-70528095D01*
X30179204Y-70528095D02*
X30441109Y-70528095D01*
X30179204Y-70528095D02*
X30131585Y-70504286D01*
X30131585Y-70504286D02*
X30107776Y-70456667D01*
X30107776Y-70456667D02*
X30107776Y-70385238D01*
X30107776Y-70385238D02*
X30131585Y-70337619D01*
X30131585Y-70337619D02*
X30179204Y-70313809D01*
X30179204Y-70313809D02*
X30441109Y-70313809D01*
X29941109Y-95028095D02*
X29941109Y-95266190D01*
X29941109Y-95266190D02*
X30179204Y-95289999D01*
X30179204Y-95289999D02*
X30155395Y-95266190D01*
X30155395Y-95266190D02*
X30131585Y-95218571D01*
X30131585Y-95218571D02*
X30131585Y-95099523D01*
X30131585Y-95099523D02*
X30155395Y-95051904D01*
X30155395Y-95051904D02*
X30179204Y-95028095D01*
X30179204Y-95028095D02*
X30226823Y-95004285D01*
X30226823Y-95004285D02*
X30345871Y-95004285D01*
X30345871Y-95004285D02*
X30393490Y-95028095D01*
X30393490Y-95028095D02*
X30417300Y-95051904D01*
X30417300Y-95051904D02*
X30441109Y-95099523D01*
X30441109Y-95099523D02*
X30441109Y-95218571D01*
X30441109Y-95218571D02*
X30417300Y-95266190D01*
X30417300Y-95266190D02*
X30393490Y-95289999D01*
X30441109Y-94409048D02*
X30107776Y-94409048D01*
X30155395Y-94409048D02*
X30131585Y-94385238D01*
X30131585Y-94385238D02*
X30107776Y-94337619D01*
X30107776Y-94337619D02*
X30107776Y-94266191D01*
X30107776Y-94266191D02*
X30131585Y-94218572D01*
X30131585Y-94218572D02*
X30179204Y-94194762D01*
X30179204Y-94194762D02*
X30441109Y-94194762D01*
X30179204Y-94194762D02*
X30131585Y-94170953D01*
X30131585Y-94170953D02*
X30107776Y-94123334D01*
X30107776Y-94123334D02*
X30107776Y-94051905D01*
X30107776Y-94051905D02*
X30131585Y-94004286D01*
X30131585Y-94004286D02*
X30179204Y-93980476D01*
X30179204Y-93980476D02*
X30441109Y-93980476D01*
X30441109Y-93742381D02*
X30107776Y-93742381D01*
X30155395Y-93742381D02*
X30131585Y-93718571D01*
X30131585Y-93718571D02*
X30107776Y-93670952D01*
X30107776Y-93670952D02*
X30107776Y-93599524D01*
X30107776Y-93599524D02*
X30131585Y-93551905D01*
X30131585Y-93551905D02*
X30179204Y-93528095D01*
X30179204Y-93528095D02*
X30441109Y-93528095D01*
X30179204Y-93528095D02*
X30131585Y-93504286D01*
X30131585Y-93504286D02*
X30107776Y-93456667D01*
X30107776Y-93456667D02*
X30107776Y-93385238D01*
X30107776Y-93385238D02*
X30131585Y-93337619D01*
X30131585Y-93337619D02*
X30179204Y-93313809D01*
X30179204Y-93313809D02*
X30441109Y-93313809D01*
%TO.C,U101*%
X23990000Y-74690000D02*
X24190000Y-74490000D01*
X28590000Y-74690000D02*
X28390000Y-74890000D01*
X30715000Y-96890000D02*
X30515000Y-96690000D01*
X30715000Y-96890000D02*
X30915000Y-96690000D01*
X30715000Y-73890000D02*
X30515000Y-73690000D01*
X30715000Y-92290000D02*
X30515000Y-92490000D01*
X30715000Y-96890000D02*
X30715000Y-92290000D01*
X30715000Y-73890000D02*
X30715000Y-69290000D01*
X30715000Y-73890000D02*
X30915000Y-73690000D01*
X28590000Y-74690000D02*
X23990000Y-74690000D01*
X30715000Y-69290000D02*
X30515000Y-69490000D01*
X30715000Y-92290000D02*
X30915000Y-92490000D01*
X30715000Y-69290000D02*
X30915000Y-69490000D01*
X23990000Y-74690000D02*
X24190000Y-74890000D01*
X28590000Y-74690000D02*
X28390000Y-74490000D01*
%TD*%
M02*
