%TF.GenerationSoftware,KiCad,Pcbnew,8.0.1*%
%TF.CreationDate,2024-06-08T14:48:02+02:00*%
%TF.ProjectId,Robuoy-Top,526f6275-6f79-42d5-946f-702e6b696361,rev?*%
%TF.SameCoordinates,Original*%
%TF.FileFunction,Other,Comment*%
%FSLAX46Y46*%
G04 Gerber Fmt 4.6, Leading zero omitted, Abs format (unit mm)*
G04 Created by KiCad (PCBNEW 8.0.1) date 2024-06-08 14:48:02*
%MOMM*%
%LPD*%
G01*
G04 APERTURE LIST*
%ADD10C,0.100000*%
%ADD11C,0.150000*%
G04 APERTURE END LIST*
D10*
X18351109Y-68938095D02*
X18351109Y-69176190D01*
X18351109Y-69176190D02*
X18589204Y-69199999D01*
X18589204Y-69199999D02*
X18565395Y-69176190D01*
X18565395Y-69176190D02*
X18541585Y-69128571D01*
X18541585Y-69128571D02*
X18541585Y-69009523D01*
X18541585Y-69009523D02*
X18565395Y-68961904D01*
X18565395Y-68961904D02*
X18589204Y-68938095D01*
X18589204Y-68938095D02*
X18636823Y-68914285D01*
X18636823Y-68914285D02*
X18755871Y-68914285D01*
X18755871Y-68914285D02*
X18803490Y-68938095D01*
X18803490Y-68938095D02*
X18827300Y-68961904D01*
X18827300Y-68961904D02*
X18851109Y-69009523D01*
X18851109Y-69009523D02*
X18851109Y-69128571D01*
X18851109Y-69128571D02*
X18827300Y-69176190D01*
X18827300Y-69176190D02*
X18803490Y-69199999D01*
X18851109Y-68319048D02*
X18517776Y-68319048D01*
X18565395Y-68319048D02*
X18541585Y-68295238D01*
X18541585Y-68295238D02*
X18517776Y-68247619D01*
X18517776Y-68247619D02*
X18517776Y-68176191D01*
X18517776Y-68176191D02*
X18541585Y-68128572D01*
X18541585Y-68128572D02*
X18589204Y-68104762D01*
X18589204Y-68104762D02*
X18851109Y-68104762D01*
X18589204Y-68104762D02*
X18541585Y-68080953D01*
X18541585Y-68080953D02*
X18517776Y-68033334D01*
X18517776Y-68033334D02*
X18517776Y-67961905D01*
X18517776Y-67961905D02*
X18541585Y-67914286D01*
X18541585Y-67914286D02*
X18589204Y-67890476D01*
X18589204Y-67890476D02*
X18851109Y-67890476D01*
X18851109Y-67652381D02*
X18517776Y-67652381D01*
X18565395Y-67652381D02*
X18541585Y-67628571D01*
X18541585Y-67628571D02*
X18517776Y-67580952D01*
X18517776Y-67580952D02*
X18517776Y-67509524D01*
X18517776Y-67509524D02*
X18541585Y-67461905D01*
X18541585Y-67461905D02*
X18589204Y-67438095D01*
X18589204Y-67438095D02*
X18851109Y-67438095D01*
X18589204Y-67438095D02*
X18541585Y-67414286D01*
X18541585Y-67414286D02*
X18517776Y-67366667D01*
X18517776Y-67366667D02*
X18517776Y-67295238D01*
X18517776Y-67295238D02*
X18541585Y-67247619D01*
X18541585Y-67247619D02*
X18589204Y-67223809D01*
X18589204Y-67223809D02*
X18851109Y-67223809D01*
X13186904Y-71926109D02*
X12948809Y-71926109D01*
X12948809Y-71926109D02*
X12925000Y-72164204D01*
X12925000Y-72164204D02*
X12948809Y-72140395D01*
X12948809Y-72140395D02*
X12996428Y-72116585D01*
X12996428Y-72116585D02*
X13115476Y-72116585D01*
X13115476Y-72116585D02*
X13163095Y-72140395D01*
X13163095Y-72140395D02*
X13186904Y-72164204D01*
X13186904Y-72164204D02*
X13210714Y-72211823D01*
X13210714Y-72211823D02*
X13210714Y-72330871D01*
X13210714Y-72330871D02*
X13186904Y-72378490D01*
X13186904Y-72378490D02*
X13163095Y-72402300D01*
X13163095Y-72402300D02*
X13115476Y-72426109D01*
X13115476Y-72426109D02*
X12996428Y-72426109D01*
X12996428Y-72426109D02*
X12948809Y-72402300D01*
X12948809Y-72402300D02*
X12925000Y-72378490D01*
X13805951Y-72426109D02*
X13805951Y-72092776D01*
X13805951Y-72140395D02*
X13829761Y-72116585D01*
X13829761Y-72116585D02*
X13877380Y-72092776D01*
X13877380Y-72092776D02*
X13948808Y-72092776D01*
X13948808Y-72092776D02*
X13996427Y-72116585D01*
X13996427Y-72116585D02*
X14020237Y-72164204D01*
X14020237Y-72164204D02*
X14020237Y-72426109D01*
X14020237Y-72164204D02*
X14044046Y-72116585D01*
X14044046Y-72116585D02*
X14091665Y-72092776D01*
X14091665Y-72092776D02*
X14163094Y-72092776D01*
X14163094Y-72092776D02*
X14210713Y-72116585D01*
X14210713Y-72116585D02*
X14234523Y-72164204D01*
X14234523Y-72164204D02*
X14234523Y-72426109D01*
X14472618Y-72426109D02*
X14472618Y-72092776D01*
X14472618Y-72140395D02*
X14496428Y-72116585D01*
X14496428Y-72116585D02*
X14544047Y-72092776D01*
X14544047Y-72092776D02*
X14615475Y-72092776D01*
X14615475Y-72092776D02*
X14663094Y-72116585D01*
X14663094Y-72116585D02*
X14686904Y-72164204D01*
X14686904Y-72164204D02*
X14686904Y-72426109D01*
X14686904Y-72164204D02*
X14710713Y-72116585D01*
X14710713Y-72116585D02*
X14758332Y-72092776D01*
X14758332Y-72092776D02*
X14829761Y-72092776D01*
X14829761Y-72092776D02*
X14877380Y-72116585D01*
X14877380Y-72116585D02*
X14901190Y-72164204D01*
X14901190Y-72164204D02*
X14901190Y-72426109D01*
D11*
X14454819Y-86071428D02*
X13454819Y-86071428D01*
X14454819Y-85500000D02*
X13883390Y-85928571D01*
X13454819Y-85500000D02*
X14026247Y-86071428D01*
X13931009Y-85071428D02*
X13931009Y-84738095D01*
X14454819Y-84595238D02*
X14454819Y-85071428D01*
X14454819Y-85071428D02*
X13454819Y-85071428D01*
X13454819Y-85071428D02*
X13454819Y-84595238D01*
X13931009Y-84166666D02*
X13931009Y-83833333D01*
X14454819Y-83690476D02*
X14454819Y-84166666D01*
X14454819Y-84166666D02*
X13454819Y-84166666D01*
X13454819Y-84166666D02*
X13454819Y-83690476D01*
X14454819Y-83261904D02*
X13454819Y-83261904D01*
X13454819Y-83261904D02*
X13454819Y-82880952D01*
X13454819Y-82880952D02*
X13502438Y-82785714D01*
X13502438Y-82785714D02*
X13550057Y-82738095D01*
X13550057Y-82738095D02*
X13645295Y-82690476D01*
X13645295Y-82690476D02*
X13788152Y-82690476D01*
X13788152Y-82690476D02*
X13883390Y-82738095D01*
X13883390Y-82738095D02*
X13931009Y-82785714D01*
X13931009Y-82785714D02*
X13978628Y-82880952D01*
X13978628Y-82880952D02*
X13978628Y-83261904D01*
X14073866Y-82261904D02*
X14073866Y-81500000D01*
X13454819Y-80833333D02*
X13454819Y-80642857D01*
X13454819Y-80642857D02*
X13502438Y-80547619D01*
X13502438Y-80547619D02*
X13597676Y-80452381D01*
X13597676Y-80452381D02*
X13788152Y-80404762D01*
X13788152Y-80404762D02*
X14121485Y-80404762D01*
X14121485Y-80404762D02*
X14311961Y-80452381D01*
X14311961Y-80452381D02*
X14407200Y-80547619D01*
X14407200Y-80547619D02*
X14454819Y-80642857D01*
X14454819Y-80642857D02*
X14454819Y-80833333D01*
X14454819Y-80833333D02*
X14407200Y-80928571D01*
X14407200Y-80928571D02*
X14311961Y-81023809D01*
X14311961Y-81023809D02*
X14121485Y-81071428D01*
X14121485Y-81071428D02*
X13788152Y-81071428D01*
X13788152Y-81071428D02*
X13597676Y-81023809D01*
X13597676Y-81023809D02*
X13502438Y-80928571D01*
X13502438Y-80928571D02*
X13454819Y-80833333D01*
X13454819Y-79976190D02*
X14264342Y-79976190D01*
X14264342Y-79976190D02*
X14359580Y-79928571D01*
X14359580Y-79928571D02*
X14407200Y-79880952D01*
X14407200Y-79880952D02*
X14454819Y-79785714D01*
X14454819Y-79785714D02*
X14454819Y-79595238D01*
X14454819Y-79595238D02*
X14407200Y-79500000D01*
X14407200Y-79500000D02*
X14359580Y-79452381D01*
X14359580Y-79452381D02*
X14264342Y-79404762D01*
X14264342Y-79404762D02*
X13454819Y-79404762D01*
X13454819Y-79071428D02*
X13454819Y-78500000D01*
X14454819Y-78785714D02*
X13454819Y-78785714D01*
X13454819Y-77499999D02*
X13454819Y-76833333D01*
X13454819Y-76833333D02*
X14454819Y-77499999D01*
X14454819Y-77499999D02*
X14454819Y-76833333D01*
X13454819Y-76261904D02*
X13454819Y-76071428D01*
X13454819Y-76071428D02*
X13502438Y-75976190D01*
X13502438Y-75976190D02*
X13597676Y-75880952D01*
X13597676Y-75880952D02*
X13788152Y-75833333D01*
X13788152Y-75833333D02*
X14121485Y-75833333D01*
X14121485Y-75833333D02*
X14311961Y-75880952D01*
X14311961Y-75880952D02*
X14407200Y-75976190D01*
X14407200Y-75976190D02*
X14454819Y-76071428D01*
X14454819Y-76071428D02*
X14454819Y-76261904D01*
X14454819Y-76261904D02*
X14407200Y-76357142D01*
X14407200Y-76357142D02*
X14311961Y-76452380D01*
X14311961Y-76452380D02*
X14121485Y-76499999D01*
X14121485Y-76499999D02*
X13788152Y-76499999D01*
X13788152Y-76499999D02*
X13597676Y-76452380D01*
X13597676Y-76452380D02*
X13502438Y-76357142D01*
X13502438Y-76357142D02*
X13454819Y-76261904D01*
X14454819Y-75404761D02*
X13454819Y-75404761D01*
X13454819Y-75404761D02*
X14454819Y-74833333D01*
X14454819Y-74833333D02*
X13454819Y-74833333D01*
X13931009Y-74357142D02*
X13931009Y-74023809D01*
X14454819Y-73880952D02*
X14454819Y-74357142D01*
X14454819Y-74357142D02*
X13454819Y-74357142D01*
X13454819Y-74357142D02*
X13454819Y-73880952D01*
D10*
X18351109Y-91938095D02*
X18351109Y-92176190D01*
X18351109Y-92176190D02*
X18589204Y-92199999D01*
X18589204Y-92199999D02*
X18565395Y-92176190D01*
X18565395Y-92176190D02*
X18541585Y-92128571D01*
X18541585Y-92128571D02*
X18541585Y-92009523D01*
X18541585Y-92009523D02*
X18565395Y-91961904D01*
X18565395Y-91961904D02*
X18589204Y-91938095D01*
X18589204Y-91938095D02*
X18636823Y-91914285D01*
X18636823Y-91914285D02*
X18755871Y-91914285D01*
X18755871Y-91914285D02*
X18803490Y-91938095D01*
X18803490Y-91938095D02*
X18827300Y-91961904D01*
X18827300Y-91961904D02*
X18851109Y-92009523D01*
X18851109Y-92009523D02*
X18851109Y-92128571D01*
X18851109Y-92128571D02*
X18827300Y-92176190D01*
X18827300Y-92176190D02*
X18803490Y-92199999D01*
X18851109Y-91319048D02*
X18517776Y-91319048D01*
X18565395Y-91319048D02*
X18541585Y-91295238D01*
X18541585Y-91295238D02*
X18517776Y-91247619D01*
X18517776Y-91247619D02*
X18517776Y-91176191D01*
X18517776Y-91176191D02*
X18541585Y-91128572D01*
X18541585Y-91128572D02*
X18589204Y-91104762D01*
X18589204Y-91104762D02*
X18851109Y-91104762D01*
X18589204Y-91104762D02*
X18541585Y-91080953D01*
X18541585Y-91080953D02*
X18517776Y-91033334D01*
X18517776Y-91033334D02*
X18517776Y-90961905D01*
X18517776Y-90961905D02*
X18541585Y-90914286D01*
X18541585Y-90914286D02*
X18589204Y-90890476D01*
X18589204Y-90890476D02*
X18851109Y-90890476D01*
X18851109Y-90652381D02*
X18517776Y-90652381D01*
X18565395Y-90652381D02*
X18541585Y-90628571D01*
X18541585Y-90628571D02*
X18517776Y-90580952D01*
X18517776Y-90580952D02*
X18517776Y-90509524D01*
X18517776Y-90509524D02*
X18541585Y-90461905D01*
X18541585Y-90461905D02*
X18589204Y-90438095D01*
X18589204Y-90438095D02*
X18851109Y-90438095D01*
X18589204Y-90438095D02*
X18541585Y-90414286D01*
X18541585Y-90414286D02*
X18517776Y-90366667D01*
X18517776Y-90366667D02*
X18517776Y-90295238D01*
X18517776Y-90295238D02*
X18541585Y-90247619D01*
X18541585Y-90247619D02*
X18589204Y-90223809D01*
X18589204Y-90223809D02*
X18851109Y-90223809D01*
D11*
X20169104Y-82761904D02*
X20169104Y-82285714D01*
X20454819Y-82857142D02*
X19454819Y-82523809D01*
X19454819Y-82523809D02*
X20454819Y-82190476D01*
X19788152Y-81857142D02*
X20454819Y-81857142D01*
X19883390Y-81857142D02*
X19835771Y-81809523D01*
X19835771Y-81809523D02*
X19788152Y-81714285D01*
X19788152Y-81714285D02*
X19788152Y-81571428D01*
X19788152Y-81571428D02*
X19835771Y-81476190D01*
X19835771Y-81476190D02*
X19931009Y-81428571D01*
X19931009Y-81428571D02*
X20454819Y-81428571D01*
X19788152Y-81095237D02*
X19788152Y-80714285D01*
X19454819Y-80952380D02*
X20311961Y-80952380D01*
X20311961Y-80952380D02*
X20407200Y-80904761D01*
X20407200Y-80904761D02*
X20454819Y-80809523D01*
X20454819Y-80809523D02*
X20454819Y-80714285D01*
X20407200Y-79999999D02*
X20454819Y-80095237D01*
X20454819Y-80095237D02*
X20454819Y-80285713D01*
X20454819Y-80285713D02*
X20407200Y-80380951D01*
X20407200Y-80380951D02*
X20311961Y-80428570D01*
X20311961Y-80428570D02*
X19931009Y-80428570D01*
X19931009Y-80428570D02*
X19835771Y-80380951D01*
X19835771Y-80380951D02*
X19788152Y-80285713D01*
X19788152Y-80285713D02*
X19788152Y-80095237D01*
X19788152Y-80095237D02*
X19835771Y-79999999D01*
X19835771Y-79999999D02*
X19931009Y-79952380D01*
X19931009Y-79952380D02*
X20026247Y-79952380D01*
X20026247Y-79952380D02*
X20121485Y-80428570D01*
X19788152Y-79523808D02*
X20454819Y-79523808D01*
X19883390Y-79523808D02*
X19835771Y-79476189D01*
X19835771Y-79476189D02*
X19788152Y-79380951D01*
X19788152Y-79380951D02*
X19788152Y-79238094D01*
X19788152Y-79238094D02*
X19835771Y-79142856D01*
X19835771Y-79142856D02*
X19931009Y-79095237D01*
X19931009Y-79095237D02*
X20454819Y-79095237D01*
X19788152Y-78619046D02*
X20454819Y-78619046D01*
X19883390Y-78619046D02*
X19835771Y-78571427D01*
X19835771Y-78571427D02*
X19788152Y-78476189D01*
X19788152Y-78476189D02*
X19788152Y-78333332D01*
X19788152Y-78333332D02*
X19835771Y-78238094D01*
X19835771Y-78238094D02*
X19931009Y-78190475D01*
X19931009Y-78190475D02*
X20454819Y-78190475D01*
X20454819Y-77285713D02*
X19931009Y-77285713D01*
X19931009Y-77285713D02*
X19835771Y-77333332D01*
X19835771Y-77333332D02*
X19788152Y-77428570D01*
X19788152Y-77428570D02*
X19788152Y-77619046D01*
X19788152Y-77619046D02*
X19835771Y-77714284D01*
X20407200Y-77285713D02*
X20454819Y-77380951D01*
X20454819Y-77380951D02*
X20454819Y-77619046D01*
X20454819Y-77619046D02*
X20407200Y-77714284D01*
X20407200Y-77714284D02*
X20311961Y-77761903D01*
X20311961Y-77761903D02*
X20216723Y-77761903D01*
X20216723Y-77761903D02*
X20121485Y-77714284D01*
X20121485Y-77714284D02*
X20073866Y-77619046D01*
X20073866Y-77619046D02*
X20073866Y-77380951D01*
X20073866Y-77380951D02*
X20026247Y-77285713D01*
D10*
%TO.C,U101*%
X12400000Y-71600000D02*
X12600000Y-71400000D01*
X12400000Y-71600000D02*
X12600000Y-71800000D01*
X17000000Y-71600000D02*
X12400000Y-71600000D01*
X17000000Y-71600000D02*
X16800000Y-71400000D01*
X17000000Y-71600000D02*
X16800000Y-71800000D01*
X19125000Y-66200000D02*
X18925000Y-66400000D01*
X19125000Y-66200000D02*
X19325000Y-66400000D01*
X19125000Y-70800000D02*
X18925000Y-70600000D01*
X19125000Y-70800000D02*
X19125000Y-66200000D01*
X19125000Y-70800000D02*
X19325000Y-70600000D01*
X19125000Y-89200000D02*
X18925000Y-89400000D01*
X19125000Y-89200000D02*
X19325000Y-89400000D01*
X19125000Y-93800000D02*
X18925000Y-93600000D01*
X19125000Y-93800000D02*
X19125000Y-89200000D01*
X19125000Y-93800000D02*
X19325000Y-93600000D01*
%TD*%
M02*
