M48
; DRILL file {KiCad 9.0.2} date 2025-06-18T19:59:33+0200
; FORMAT={-:-/ absolute / inch / decimal}
; #@! TF.CreationDate,2025-06-18T19:59:33+02:00
; #@! TF.GenerationSoftware,Kicad,Pcbnew,9.0.2
; #@! TF.FileFunction,Plated,1,4,PTH
FMAT,2
INCH
; #@! TA.AperFunction,Plated,PTH,ComponentDrill
T1C0.0079
; #@! TA.AperFunction,Plated,PTH,ViaDrill
T2C0.0098
; #@! TA.AperFunction,Plated,PTH,ViaDrill
T3C0.0118
; #@! TA.AperFunction,Plated,PTH,ViaDrill
T4C0.0157
; #@! TA.AperFunction,Plated,PTH,ComponentDrill
T5C0.0236
; #@! TA.AperFunction,Plated,PTH,ComponentDrill
T6C0.0354
; #@! TA.AperFunction,Plated,PTH,ComponentDrill
T7C0.0374
; #@! TA.AperFunction,Plated,PTH,ComponentDrill
T8C0.0394
; #@! TA.AperFunction,Plated,PTH,ComponentDrill
T9C0.0591
; #@! TA.AperFunction,Plated,PTH,ComponentDrill
T10C0.1063
; #@! TA.AperFunction,Plated,PTH,ComponentDrill
T11C0.1161
%
G90
G05
T1
X-0.0226Y0.0051
X-0.0226Y-0.05
X-0.0226Y-0.1051
X0.0326Y0.0051
X0.0326Y-0.05
X0.0326Y-0.1051
T2
X-1.03Y1.08
X-1.01Y0.72
X-1.01Y-0.74
X-1.01Y-1.06
X-0.7Y0.61
X-0.6453Y-0.0524
X-0.64Y-0.64
X-0.589Y0.022
X-0.579Y-0.14
X-0.415Y0.095
X-0.25Y0.26
X-0.25Y-1.04
X-0.23Y-0.49
X-0.17Y0.98
X0.03Y0.42
X0.0647Y0.1111
X0.145Y-0.273
X0.1467Y-0.1843
X0.193Y-0.262
X0.205Y-0.91
X0.39Y1.07
X0.4134Y0.1772
X0.58Y-0.39
X0.91Y0.74
X0.91Y-0.01
X0.94Y-0.73
X0.95Y1.07
X0.96Y-1.07
T3
X-0.723Y0.15
X-0.687Y0.024
X-0.619Y0.1151
X-0.154Y-0.8
X-0.138Y0.747
X-0.027Y-0.823
X-0.026Y0.658
X0.008Y0.113
X0.068Y-0.409
X0.1006Y0.2561
X0.478Y0.04
T4
X-0.364Y0.274
X-0.315Y0.052
X-0.158Y-0.075
X-0.13Y-0.31
X0.019Y-0.23
X0.032Y0.262
X0.05Y1.066
X0.084Y-0.18
X0.19Y-0.172
X0.195Y0.065
X0.277Y-0.174
X0.34Y0.97
X0.349Y-0.481
X0.388Y-0.178
X0.526Y-0.5325
X0.528Y0.97
X0.5634Y0.859
X0.566Y-0.649
T7
X0.205Y-0.6343
X0.205Y-0.7327
X0.205Y-0.8311
X0.2057Y0.8457
X0.2057Y0.7473
X0.2057Y0.6489
T8
X-0.95Y0.2
X-0.95Y0.1
X-0.95Y0.0
X-0.95Y-0.1
X-0.95Y-0.2
X-0.85Y0.2
X-0.85Y0.1
X-0.85Y0.0
X-0.85Y-0.1
X-0.85Y-0.2
X0.215Y0.37
X0.315Y0.37
X0.415Y0.37
T9
X-0.256Y0.492
T10
X-0.4489Y0.9075
X-0.4489Y0.624
X-0.4489Y-0.6383
X-0.4489Y-0.9217
X0.6932Y0.8875
X0.6932Y0.604
X0.6932Y-0.6
X0.6932Y-0.8835
T11
X0.6Y0.2165
X0.6Y0.0
X0.6Y-0.2165
T5
G00X-0.7068Y1.0315
M15
G01X-0.6634Y1.0315
M16
G05
G00X-0.7068Y0.5
M15
G01X-0.6634Y0.5
M16
G05
G00X-0.7068Y-0.5143
M15
G01X-0.6634Y-0.5143
M16
G05
G00X-0.7068Y-1.0457
M15
G01X-0.6634Y-1.0457
M16
G05
G00X0.9511Y1.0115
M15
G01X0.9078Y1.0115
M16
G05
G00X0.9511Y0.48
M15
G01X0.9078Y0.48
M16
G05
G00X0.9511Y-0.476
M15
G01X0.9078Y-0.476
M16
G05
G00X0.9511Y-1.0075
M15
G01X0.9078Y-1.0075
M16
G05
T6
G00X0.8579Y0.3366
M15
G01X0.8146Y0.3366
M16
G05
G00X0.8579Y-0.3366
M15
G01X0.8146Y-0.3366
M16
G05
T8
G00X-0.5926Y0.7461
M15
G01X-0.5926Y0.7854
M16
G05
G00X-0.5926Y-0.7997
M15
G01X-0.5926Y-0.7603
M16
G05
M30
