%TF.GenerationSoftware,KiCad,Pcbnew,9.0.2*%
%TF.CreationDate,2025-06-18T19:59:33+02:00*%
%TF.ProjectId,Robobuoy-Sub-PSU-v2_1,526f626f-6275-46f7-992d-5375622d5053,2.0*%
%TF.SameCoordinates,Original*%
%TF.FileFunction,Soldermask,Bot*%
%TF.FilePolarity,Negative*%
%FSLAX46Y46*%
G04 Gerber Fmt 4.6, Leading zero omitted, Abs format (unit mm)*
G04 Created by KiCad (PCBNEW 9.0.2) date 2025-06-18 19:59:33*
%MOMM*%
%LPD*%
G01*
G04 APERTURE LIST*
G04 Aperture macros list*
%AMRoundRect*
0 Rectangle with rounded corners*
0 $1 Rounding radius*
0 $2 $3 $4 $5 $6 $7 $8 $9 X,Y pos of 4 corners*
0 Add a 4 corners polygon primitive as box body*
4,1,4,$2,$3,$4,$5,$6,$7,$8,$9,$2,$3,0*
0 Add four circle primitives for the rounded corners*
1,1,$1+$1,$2,$3*
1,1,$1+$1,$4,$5*
1,1,$1+$1,$6,$7*
1,1,$1+$1,$8,$9*
0 Add four rect primitives between the rounded corners*
20,1,$1+$1,$2,$3,$4,$5,0*
20,1,$1+$1,$4,$5,$6,$7,0*
20,1,$1+$1,$6,$7,$8,$9,0*
20,1,$1+$1,$8,$9,$2,$3,0*%
G04 Aperture macros list end*
%ADD10R,2.000000X0.900000*%
%ADD11RoundRect,1.025000X1.025000X-1.025000X1.025000X1.025000X-1.025000X1.025000X-1.025000X-1.025000X0*%
%ADD12C,4.100000*%
%ADD13R,1.300000X2.300000*%
%ADD14RoundRect,1.025000X-1.025000X1.025000X-1.025000X-1.025000X1.025000X-1.025000X1.025000X1.025000X0*%
%ADD15RoundRect,0.250000X-0.600000X-0.600000X0.600000X-0.600000X0.600000X0.600000X-0.600000X0.600000X0*%
%ADD16C,1.700000*%
%ADD17RoundRect,0.250000X-0.725000X0.600000X-0.725000X-0.600000X0.725000X-0.600000X0.725000X0.600000X0*%
%ADD18O,1.950000X1.700000*%
%ADD19C,3.000000*%
%ADD20RoundRect,0.250000X-1.750000X0.750000X-1.750000X-0.750000X1.750000X-0.750000X1.750000X0.750000X0*%
%ADD21RoundRect,1.125000X-1.125000X1.125000X-1.125000X-1.125000X1.125000X-1.125000X1.125000X1.125000X0*%
%ADD22C,4.500000*%
%ADD23RoundRect,0.206250X-0.618750X-0.618750X0.618750X-0.618750X0.618750X0.618750X-0.618750X0.618750X0*%
G04 APERTURE END LIST*
D10*
%TO.C,J104*%
X-17401500Y-26562000D03*
X-17401500Y-13062000D03*
D11*
X-11401500Y-23412000D03*
D12*
X-11401500Y-16212000D03*
D13*
X-15051500Y-19812000D03*
%TD*%
D10*
%TO.C,J107*%
X-17401500Y12700000D03*
X-17401500Y26200000D03*
D11*
X-11401500Y15850000D03*
D12*
X-11401500Y23050000D03*
D13*
X-15051500Y19450000D03*
%TD*%
D10*
%TO.C,J105*%
X23607000Y-12090000D03*
X23607000Y-25590000D03*
D14*
X17607000Y-22440000D03*
D12*
X17607000Y-15240000D03*
%TD*%
D15*
%TO.C,J108*%
X-24130000Y5080000D03*
D16*
X-21590000Y5080000D03*
X-24130000Y2540000D03*
X-21590000Y2540000D03*
X-24130000Y0D03*
X-21590000Y0D03*
X-24130000Y-2540000D03*
X-21590000Y-2540000D03*
X-24130000Y-5080000D03*
X-21590000Y-5080000D03*
%TD*%
D17*
%TO.C,J103*%
X5224000Y21482000D03*
D18*
X5224000Y18982000D03*
X5224000Y16482000D03*
%TD*%
D10*
%TO.C,J106*%
X23607000Y25692000D03*
X23607000Y12192000D03*
D14*
X17607000Y15342000D03*
D12*
X17607000Y22542000D03*
%TD*%
D19*
%TO.C,TP101*%
X-6502400Y12496800D03*
%TD*%
D20*
%TO.C,J101*%
X21240000Y8550000D03*
X21240000Y-8550000D03*
D21*
X15240000Y5500000D03*
D22*
X15240000Y0D03*
X15240000Y-5500000D03*
%TD*%
D17*
%TO.C,J102*%
X5207000Y-16110000D03*
D18*
X5207000Y-18610000D03*
X5207000Y-21110000D03*
%TD*%
D23*
%TO.C,SW101*%
X5461000Y9398000D03*
D16*
X8001000Y9398000D03*
X10541000Y9398000D03*
%TD*%
M02*
