%TF.GenerationSoftware,KiCad,Pcbnew,9.0.2*%
<<<<<<< HEAD
%TF.CreationDate,2025-06-18T19:59:33+02:00*%
=======
%TF.CreationDate,2025-06-17T18:04:30+02:00*%
>>>>>>> 2e23f7f8cb64151a60ec3d004f8241720292418e
%TF.ProjectId,Robobuoy-Sub-PSU-v2_1,526f626f-6275-46f7-992d-5375622d5053,2.0*%
%TF.SameCoordinates,Original*%
%TF.FileFunction,Legend,Bot*%
%TF.FilePolarity,Positive*%
%FSLAX46Y46*%
G04 Gerber Fmt 4.6, Leading zero omitted, Abs format (unit mm)*
<<<<<<< HEAD
G04 Created by KiCad (PCBNEW 9.0.2) date 2025-06-18 19:59:33*
=======
G04 Created by KiCad (PCBNEW 9.0.2) date 2025-06-17 18:04:30*
>>>>>>> 2e23f7f8cb64151a60ec3d004f8241720292418e
%MOMM*%
%LPD*%
G01*
G04 APERTURE LIST*
G04 Aperture macros list*
%AMRoundRect*
0 Rectangle with rounded corners*
0 $1 Rounding radius*
0 $2 $3 $4 $5 $6 $7 $8 $9 X,Y pos of 4 corners*
0 Add a 4 corners polygon primitive as box body*
4,1,4,$2,$3,$4,$5,$6,$7,$8,$9,$2,$3,0*
0 Add four circle primitives for the rounded corners*
1,1,$1+$1,$2,$3*
1,1,$1+$1,$4,$5*
1,1,$1+$1,$6,$7*
1,1,$1+$1,$8,$9*
0 Add four rect primitives between the rounded corners*
20,1,$1+$1,$2,$3,$4,$5,0*
20,1,$1+$1,$4,$5,$6,$7,0*
20,1,$1+$1,$6,$7,$8,$9,0*
20,1,$1+$1,$8,$9,$2,$3,0*%
G04 Aperture macros list end*
%ADD10C,0.300000*%
%ADD11C,0.187500*%
<<<<<<< HEAD
%ADD12R,2.000000X0.900000*%
%ADD13RoundRect,1.025000X1.025000X-1.025000X1.025000X1.025000X-1.025000X1.025000X-1.025000X-1.025000X0*%
%ADD14C,4.100000*%
%ADD15R,1.300000X2.300000*%
%ADD16RoundRect,1.025000X-1.025000X1.025000X-1.025000X-1.025000X1.025000X-1.025000X1.025000X1.025000X0*%
%ADD17RoundRect,0.250000X-0.600000X-0.600000X0.600000X-0.600000X0.600000X0.600000X-0.600000X0.600000X0*%
%ADD18C,1.700000*%
%ADD19RoundRect,0.250000X-0.725000X0.600000X-0.725000X-0.600000X0.725000X-0.600000X0.725000X0.600000X0*%
%ADD20O,1.950000X1.700000*%
=======
%ADD12RoundRect,0.250000X-0.600000X-0.600000X0.600000X-0.600000X0.600000X0.600000X-0.600000X0.600000X0*%
%ADD13C,1.700000*%
%ADD14R,2.000000X0.900000*%
%ADD15RoundRect,1.025000X1.025000X-1.025000X1.025000X1.025000X-1.025000X1.025000X-1.025000X-1.025000X0*%
%ADD16C,4.100000*%
%ADD17R,1.300000X2.300000*%
%ADD18RoundRect,0.250000X-0.725000X0.600000X-0.725000X-0.600000X0.725000X-0.600000X0.725000X0.600000X0*%
%ADD19O,1.950000X1.700000*%
%ADD20RoundRect,1.025000X-1.025000X1.025000X-1.025000X-1.025000X1.025000X-1.025000X1.025000X1.025000X0*%
>>>>>>> 2e23f7f8cb64151a60ec3d004f8241720292418e
%ADD21C,3.000000*%
%ADD22RoundRect,0.250000X-1.750000X0.750000X-1.750000X-0.750000X1.750000X-0.750000X1.750000X0.750000X0*%
%ADD23RoundRect,1.125000X-1.125000X1.125000X-1.125000X-1.125000X1.125000X-1.125000X1.125000X1.125000X0*%
%ADD24C,4.500000*%
%ADD25RoundRect,0.206250X-0.618750X-0.618750X0.618750X-0.618750X0.618750X0.618750X-0.618750X0.618750X0*%
G04 APERTURE END LIST*
D10*
X7119514Y-17003310D02*
X7119514Y-17503310D01*
X7905228Y-17717596D02*
X7905228Y-17003310D01*
X7905228Y-17003310D02*
X6405228Y-17003310D01*
X6405228Y-17003310D02*
X6405228Y-17717596D01*
X7833800Y-18289025D02*
X7905228Y-18503311D01*
X7905228Y-18503311D02*
X7905228Y-18860453D01*
X7905228Y-18860453D02*
X7833800Y-19003311D01*
X7833800Y-19003311D02*
X7762371Y-19074739D01*
X7762371Y-19074739D02*
X7619514Y-19146168D01*
X7619514Y-19146168D02*
X7476657Y-19146168D01*
X7476657Y-19146168D02*
X7333800Y-19074739D01*
X7333800Y-19074739D02*
X7262371Y-19003311D01*
X7262371Y-19003311D02*
X7190942Y-18860453D01*
X7190942Y-18860453D02*
X7119514Y-18574739D01*
X7119514Y-18574739D02*
X7048085Y-18431882D01*
X7048085Y-18431882D02*
X6976657Y-18360453D01*
X6976657Y-18360453D02*
X6833800Y-18289025D01*
X6833800Y-18289025D02*
X6690942Y-18289025D01*
X6690942Y-18289025D02*
X6548085Y-18360453D01*
X6548085Y-18360453D02*
X6476657Y-18431882D01*
X6476657Y-18431882D02*
X6405228Y-18574739D01*
X6405228Y-18574739D02*
X6405228Y-18931882D01*
X6405228Y-18931882D02*
X6476657Y-19146168D01*
X7762371Y-20646167D02*
X7833800Y-20574739D01*
X7833800Y-20574739D02*
X7905228Y-20360453D01*
X7905228Y-20360453D02*
X7905228Y-20217596D01*
X7905228Y-20217596D02*
X7833800Y-20003310D01*
X7833800Y-20003310D02*
X7690942Y-19860453D01*
X7690942Y-19860453D02*
X7548085Y-19789024D01*
X7548085Y-19789024D02*
X7262371Y-19717596D01*
X7262371Y-19717596D02*
X7048085Y-19717596D01*
X7048085Y-19717596D02*
X6762371Y-19789024D01*
X6762371Y-19789024D02*
X6619514Y-19860453D01*
X6619514Y-19860453D02*
X6476657Y-20003310D01*
X6476657Y-20003310D02*
X6405228Y-20217596D01*
X6405228Y-20217596D02*
X6405228Y-20360453D01*
X6405228Y-20360453D02*
X6476657Y-20574739D01*
X6476657Y-20574739D02*
X6548085Y-20646167D01*
D11*
X3532702Y-16871646D02*
X3532702Y-15371646D01*
X3532702Y-15371646D02*
X2961273Y-15371646D01*
X2961273Y-15371646D02*
X2818416Y-15443075D01*
X2818416Y-15443075D02*
X2746987Y-15514503D01*
X2746987Y-15514503D02*
X2675559Y-15657360D01*
X2675559Y-15657360D02*
X2675559Y-15871646D01*
X2675559Y-15871646D02*
X2746987Y-16014503D01*
X2746987Y-16014503D02*
X2818416Y-16085932D01*
X2818416Y-16085932D02*
X2961273Y-16157360D01*
X2961273Y-16157360D02*
X3532702Y-16157360D01*
X2175559Y-15371646D02*
X1818416Y-16871646D01*
X1818416Y-16871646D02*
X1532702Y-15800218D01*
X1532702Y-15800218D02*
X1246987Y-16871646D01*
X1246987Y-16871646D02*
X889845Y-15371646D01*
X318416Y-16871646D02*
X318416Y-15371646D01*
X318416Y-15371646D02*
X-181584Y-16443075D01*
X-181584Y-16443075D02*
X-681584Y-15371646D01*
X-681584Y-15371646D02*
X-681584Y-16871646D01*
X3532702Y-18715134D02*
X2389845Y-18715134D01*
X2961273Y-19286562D02*
X2961273Y-18143705D01*
X961273Y-17786562D02*
X1675559Y-17786562D01*
X1675559Y-17786562D02*
X1746987Y-18500848D01*
X1746987Y-18500848D02*
X1675559Y-18429419D01*
X1675559Y-18429419D02*
X1532702Y-18357991D01*
X1532702Y-18357991D02*
X1175559Y-18357991D01*
X1175559Y-18357991D02*
X1032702Y-18429419D01*
X1032702Y-18429419D02*
X961273Y-18500848D01*
X961273Y-18500848D02*
X889844Y-18643705D01*
X889844Y-18643705D02*
X889844Y-19000848D01*
X889844Y-19000848D02*
X961273Y-19143705D01*
X961273Y-19143705D02*
X1032702Y-19215134D01*
X1032702Y-19215134D02*
X1175559Y-19286562D01*
X1175559Y-19286562D02*
X1532702Y-19286562D01*
X1532702Y-19286562D02*
X1675559Y-19215134D01*
X1675559Y-19215134D02*
X1746987Y-19143705D01*
X461273Y-17786562D02*
X-38727Y-19286562D01*
X-38727Y-19286562D02*
X-538727Y-17786562D01*
X2746987Y-20272907D02*
X2889845Y-20201478D01*
X2889845Y-20201478D02*
X3104130Y-20201478D01*
X3104130Y-20201478D02*
X3318416Y-20272907D01*
X3318416Y-20272907D02*
X3461273Y-20415764D01*
X3461273Y-20415764D02*
X3532702Y-20558621D01*
X3532702Y-20558621D02*
X3604130Y-20844335D01*
X3604130Y-20844335D02*
X3604130Y-21058621D01*
X3604130Y-21058621D02*
X3532702Y-21344335D01*
X3532702Y-21344335D02*
X3461273Y-21487192D01*
X3461273Y-21487192D02*
X3318416Y-21630050D01*
X3318416Y-21630050D02*
X3104130Y-21701478D01*
X3104130Y-21701478D02*
X2961273Y-21701478D01*
X2961273Y-21701478D02*
X2746987Y-21630050D01*
X2746987Y-21630050D02*
X2675559Y-21558621D01*
X2675559Y-21558621D02*
X2675559Y-21058621D01*
X2675559Y-21058621D02*
X2961273Y-21058621D01*
X2032702Y-21701478D02*
X2032702Y-20201478D01*
X2032702Y-20201478D02*
X1175559Y-21701478D01*
X1175559Y-21701478D02*
X1175559Y-20201478D01*
X461273Y-21701478D02*
X461273Y-20201478D01*
X461273Y-20201478D02*
X104130Y-20201478D01*
X104130Y-20201478D02*
X-110156Y-20272907D01*
X-110156Y-20272907D02*
X-253013Y-20415764D01*
X-253013Y-20415764D02*
X-324442Y-20558621D01*
X-324442Y-20558621D02*
X-395870Y-20844335D01*
X-395870Y-20844335D02*
X-395870Y-21058621D01*
X-395870Y-21058621D02*
X-324442Y-21344335D01*
X-324442Y-21344335D02*
X-253013Y-21487192D01*
X-253013Y-21487192D02*
X-110156Y-21630050D01*
X-110156Y-21630050D02*
X104130Y-21701478D01*
X104130Y-21701478D02*
X461273Y-21701478D01*
D10*
X10363003Y-10850089D02*
X11863003Y-10850089D01*
X11863003Y-10850089D02*
X10363003Y-9992946D01*
X10363003Y-9992946D02*
X11863003Y-9992946D01*
X10363003Y-9278660D02*
X11363003Y-9278660D01*
X11863003Y-9278660D02*
X11791574Y-9350088D01*
X11791574Y-9350088D02*
X11720146Y-9278660D01*
X11720146Y-9278660D02*
X11791574Y-9207231D01*
X11791574Y-9207231D02*
X11863003Y-9278660D01*
X11863003Y-9278660D02*
X11720146Y-9278660D01*
X10434432Y-7921517D02*
X10363003Y-8064374D01*
X10363003Y-8064374D02*
X10363003Y-8350088D01*
X10363003Y-8350088D02*
X10434432Y-8492945D01*
X10434432Y-8492945D02*
X10505860Y-8564374D01*
X10505860Y-8564374D02*
X10648717Y-8635802D01*
X10648717Y-8635802D02*
X11077289Y-8635802D01*
X11077289Y-8635802D02*
X11220146Y-8564374D01*
X11220146Y-8564374D02*
X11291574Y-8492945D01*
X11291574Y-8492945D02*
X11363003Y-8350088D01*
X11363003Y-8350088D02*
X11363003Y-8064374D01*
X11363003Y-8064374D02*
X11291574Y-7921517D01*
X11148717Y-7278660D02*
X11148717Y-6778660D01*
X10363003Y-6564374D02*
X10363003Y-7278660D01*
X10363003Y-7278660D02*
X11863003Y-7278660D01*
X11863003Y-7278660D02*
X11863003Y-6564374D01*
X11148717Y-4778660D02*
X11148717Y-4278660D01*
X10363003Y-4064374D02*
X10363003Y-4778660D01*
X10363003Y-4778660D02*
X11863003Y-4778660D01*
X11863003Y-4778660D02*
X11863003Y-4064374D01*
X11363003Y-3421517D02*
X10363003Y-3421517D01*
X11220146Y-3421517D02*
X11291574Y-3350088D01*
X11291574Y-3350088D02*
X11363003Y-3207231D01*
X11363003Y-3207231D02*
X11363003Y-2992945D01*
X11363003Y-2992945D02*
X11291574Y-2850088D01*
X11291574Y-2850088D02*
X11148717Y-2778660D01*
X11148717Y-2778660D02*
X10363003Y-2778660D01*
X11363003Y-1421517D02*
X10148717Y-1421517D01*
X10148717Y-1421517D02*
X10005860Y-1492945D01*
X10005860Y-1492945D02*
X9934432Y-1564374D01*
X9934432Y-1564374D02*
X9863003Y-1707231D01*
X9863003Y-1707231D02*
X9863003Y-1921517D01*
X9863003Y-1921517D02*
X9934432Y-2064374D01*
X10434432Y-1421517D02*
X10363003Y-1564374D01*
X10363003Y-1564374D02*
X10363003Y-1850088D01*
X10363003Y-1850088D02*
X10434432Y-1992945D01*
X10434432Y-1992945D02*
X10505860Y-2064374D01*
X10505860Y-2064374D02*
X10648717Y-2135802D01*
X10648717Y-2135802D02*
X11077289Y-2135802D01*
X11077289Y-2135802D02*
X11220146Y-2064374D01*
X11220146Y-2064374D02*
X11291574Y-1992945D01*
X11291574Y-1992945D02*
X11363003Y-1850088D01*
X11363003Y-1850088D02*
X11363003Y-1564374D01*
X11363003Y-1564374D02*
X11291574Y-1421517D01*
X10363003Y-707231D02*
X11363003Y-707231D01*
X11863003Y-707231D02*
X11791574Y-778659D01*
X11791574Y-778659D02*
X11720146Y-707231D01*
X11720146Y-707231D02*
X11791574Y-635802D01*
X11791574Y-635802D02*
X11863003Y-707231D01*
X11863003Y-707231D02*
X11720146Y-707231D01*
X11363003Y7055D02*
X10363003Y7055D01*
X11220146Y7055D02*
X11291574Y78484D01*
X11291574Y78484D02*
X11363003Y221341D01*
X11363003Y221341D02*
X11363003Y435627D01*
X11363003Y435627D02*
X11291574Y578484D01*
X11291574Y578484D02*
X11148717Y649912D01*
X11148717Y649912D02*
X10363003Y649912D01*
X10434432Y1935627D02*
X10363003Y1792770D01*
X10363003Y1792770D02*
X10363003Y1507055D01*
X10363003Y1507055D02*
X10434432Y1364198D01*
X10434432Y1364198D02*
X10577289Y1292770D01*
X10577289Y1292770D02*
X11148717Y1292770D01*
X11148717Y1292770D02*
X11291574Y1364198D01*
X11291574Y1364198D02*
X11363003Y1507055D01*
X11363003Y1507055D02*
X11363003Y1792770D01*
X11363003Y1792770D02*
X11291574Y1935627D01*
X11291574Y1935627D02*
X11148717Y2007055D01*
X11148717Y2007055D02*
X11005860Y2007055D01*
X11005860Y2007055D02*
X10863003Y1292770D01*
X10434432Y3221341D02*
X10363003Y3078484D01*
X10363003Y3078484D02*
X10363003Y2792769D01*
X10363003Y2792769D02*
X10434432Y2649912D01*
X10434432Y2649912D02*
X10577289Y2578484D01*
X10577289Y2578484D02*
X11148717Y2578484D01*
X11148717Y2578484D02*
X11291574Y2649912D01*
X11291574Y2649912D02*
X11363003Y2792769D01*
X11363003Y2792769D02*
X11363003Y3078484D01*
X11363003Y3078484D02*
X11291574Y3221341D01*
X11291574Y3221341D02*
X11148717Y3292769D01*
X11148717Y3292769D02*
X11005860Y3292769D01*
X11005860Y3292769D02*
X10863003Y2578484D01*
X10363003Y3935626D02*
X11363003Y3935626D01*
X11077289Y3935626D02*
X11220146Y4007055D01*
X11220146Y4007055D02*
X11291574Y4078483D01*
X11291574Y4078483D02*
X11363003Y4221341D01*
X11363003Y4221341D02*
X11363003Y4364198D01*
X10363003Y4864197D02*
X11363003Y4864197D01*
X11863003Y4864197D02*
X11791574Y4792769D01*
X11791574Y4792769D02*
X11720146Y4864197D01*
X11720146Y4864197D02*
X11791574Y4935626D01*
X11791574Y4935626D02*
X11863003Y4864197D01*
X11863003Y4864197D02*
X11720146Y4864197D01*
X11363003Y5578483D02*
X10363003Y5578483D01*
X11220146Y5578483D02*
X11291574Y5649912D01*
X11291574Y5649912D02*
X11363003Y5792769D01*
X11363003Y5792769D02*
X11363003Y6007055D01*
X11363003Y6007055D02*
X11291574Y6149912D01*
X11291574Y6149912D02*
X11148717Y6221340D01*
X11148717Y6221340D02*
X10363003Y6221340D01*
X11363003Y7578483D02*
X10148717Y7578483D01*
X10148717Y7578483D02*
X10005860Y7507055D01*
X10005860Y7507055D02*
X9934432Y7435626D01*
X9934432Y7435626D02*
X9863003Y7292769D01*
X9863003Y7292769D02*
X9863003Y7078483D01*
X9863003Y7078483D02*
X9934432Y6935626D01*
X10434432Y7578483D02*
X10363003Y7435626D01*
X10363003Y7435626D02*
X10363003Y7149912D01*
X10363003Y7149912D02*
X10434432Y7007055D01*
X10434432Y7007055D02*
X10505860Y6935626D01*
X10505860Y6935626D02*
X10648717Y6864198D01*
X10648717Y6864198D02*
X11077289Y6864198D01*
X11077289Y6864198D02*
X11220146Y6935626D01*
X11220146Y6935626D02*
X11291574Y7007055D01*
X11291574Y7007055D02*
X11363003Y7149912D01*
X11363003Y7149912D02*
X11363003Y7435626D01*
X11363003Y7435626D02*
X11291574Y7578483D01*
X7948087Y-9992946D02*
X8662373Y-10492946D01*
X7948087Y-10850089D02*
X9448087Y-10850089D01*
X9448087Y-10850089D02*
X9448087Y-10278660D01*
X9448087Y-10278660D02*
X9376658Y-10135803D01*
X9376658Y-10135803D02*
X9305230Y-10064374D01*
X9305230Y-10064374D02*
X9162373Y-9992946D01*
X9162373Y-9992946D02*
X8948087Y-9992946D01*
X8948087Y-9992946D02*
X8805230Y-10064374D01*
X8805230Y-10064374D02*
X8733801Y-10135803D01*
X8733801Y-10135803D02*
X8662373Y-10278660D01*
X8662373Y-10278660D02*
X8662373Y-10850089D01*
X7948087Y-9135803D02*
X8019516Y-9278660D01*
X8019516Y-9278660D02*
X8090944Y-9350089D01*
X8090944Y-9350089D02*
X8233801Y-9421517D01*
X8233801Y-9421517D02*
X8662373Y-9421517D01*
X8662373Y-9421517D02*
X8805230Y-9350089D01*
X8805230Y-9350089D02*
X8876658Y-9278660D01*
X8876658Y-9278660D02*
X8948087Y-9135803D01*
X8948087Y-9135803D02*
X8948087Y-8921517D01*
X8948087Y-8921517D02*
X8876658Y-8778660D01*
X8876658Y-8778660D02*
X8805230Y-8707232D01*
X8805230Y-8707232D02*
X8662373Y-8635803D01*
X8662373Y-8635803D02*
X8233801Y-8635803D01*
X8233801Y-8635803D02*
X8090944Y-8707232D01*
X8090944Y-8707232D02*
X8019516Y-8778660D01*
X8019516Y-8778660D02*
X7948087Y-8921517D01*
X7948087Y-8921517D02*
X7948087Y-9135803D01*
X7948087Y-7992946D02*
X9448087Y-7992946D01*
X8876658Y-7992946D02*
X8948087Y-7850089D01*
X8948087Y-7850089D02*
X8948087Y-7564374D01*
X8948087Y-7564374D02*
X8876658Y-7421517D01*
X8876658Y-7421517D02*
X8805230Y-7350089D01*
X8805230Y-7350089D02*
X8662373Y-7278660D01*
X8662373Y-7278660D02*
X8233801Y-7278660D01*
X8233801Y-7278660D02*
X8090944Y-7350089D01*
X8090944Y-7350089D02*
X8019516Y-7421517D01*
X8019516Y-7421517D02*
X7948087Y-7564374D01*
X7948087Y-7564374D02*
X7948087Y-7850089D01*
X7948087Y-7850089D02*
X8019516Y-7992946D01*
X7948087Y-6421517D02*
X8019516Y-6564374D01*
X8019516Y-6564374D02*
X8090944Y-6635803D01*
X8090944Y-6635803D02*
X8233801Y-6707231D01*
X8233801Y-6707231D02*
X8662373Y-6707231D01*
X8662373Y-6707231D02*
X8805230Y-6635803D01*
X8805230Y-6635803D02*
X8876658Y-6564374D01*
X8876658Y-6564374D02*
X8948087Y-6421517D01*
X8948087Y-6421517D02*
X8948087Y-6207231D01*
X8948087Y-6207231D02*
X8876658Y-6064374D01*
X8876658Y-6064374D02*
X8805230Y-5992946D01*
X8805230Y-5992946D02*
X8662373Y-5921517D01*
X8662373Y-5921517D02*
X8233801Y-5921517D01*
X8233801Y-5921517D02*
X8090944Y-5992946D01*
X8090944Y-5992946D02*
X8019516Y-6064374D01*
X8019516Y-6064374D02*
X7948087Y-6207231D01*
X7948087Y-6207231D02*
X7948087Y-6421517D01*
X7948087Y-5278660D02*
X9448087Y-5278660D01*
X8876658Y-5278660D02*
X8948087Y-5135803D01*
X8948087Y-5135803D02*
X8948087Y-4850088D01*
X8948087Y-4850088D02*
X8876658Y-4707231D01*
X8876658Y-4707231D02*
X8805230Y-4635803D01*
X8805230Y-4635803D02*
X8662373Y-4564374D01*
X8662373Y-4564374D02*
X8233801Y-4564374D01*
X8233801Y-4564374D02*
X8090944Y-4635803D01*
X8090944Y-4635803D02*
X8019516Y-4707231D01*
X8019516Y-4707231D02*
X7948087Y-4850088D01*
X7948087Y-4850088D02*
X7948087Y-5135803D01*
X7948087Y-5135803D02*
X8019516Y-5278660D01*
X8948087Y-3278660D02*
X7948087Y-3278660D01*
X8948087Y-3921517D02*
X8162373Y-3921517D01*
X8162373Y-3921517D02*
X8019516Y-3850088D01*
X8019516Y-3850088D02*
X7948087Y-3707231D01*
X7948087Y-3707231D02*
X7948087Y-3492945D01*
X7948087Y-3492945D02*
X8019516Y-3350088D01*
X8019516Y-3350088D02*
X8090944Y-3278660D01*
X7948087Y-2350088D02*
X8019516Y-2492945D01*
X8019516Y-2492945D02*
X8090944Y-2564374D01*
X8090944Y-2564374D02*
X8233801Y-2635802D01*
X8233801Y-2635802D02*
X8662373Y-2635802D01*
X8662373Y-2635802D02*
X8805230Y-2564374D01*
X8805230Y-2564374D02*
X8876658Y-2492945D01*
X8876658Y-2492945D02*
X8948087Y-2350088D01*
X8948087Y-2350088D02*
X8948087Y-2135802D01*
X8948087Y-2135802D02*
X8876658Y-1992945D01*
X8876658Y-1992945D02*
X8805230Y-1921517D01*
X8805230Y-1921517D02*
X8662373Y-1850088D01*
X8662373Y-1850088D02*
X8233801Y-1850088D01*
X8233801Y-1850088D02*
X8090944Y-1921517D01*
X8090944Y-1921517D02*
X8019516Y-1992945D01*
X8019516Y-1992945D02*
X7948087Y-2135802D01*
X7948087Y-2135802D02*
X7948087Y-2350088D01*
X8948087Y-1350088D02*
X7948087Y-992945D01*
X8948087Y-635802D02*
X7948087Y-992945D01*
X7948087Y-992945D02*
X7590944Y-1135802D01*
X7590944Y-1135802D02*
X7519516Y-1207231D01*
X7519516Y-1207231D02*
X7448087Y-1350088D01*
X9305230Y1007055D02*
X9376658Y1078483D01*
X9376658Y1078483D02*
X9448087Y1221340D01*
X9448087Y1221340D02*
X9448087Y1578483D01*
X9448087Y1578483D02*
X9376658Y1721340D01*
X9376658Y1721340D02*
X9305230Y1792769D01*
X9305230Y1792769D02*
X9162373Y1864198D01*
X9162373Y1864198D02*
X9019516Y1864198D01*
X9019516Y1864198D02*
X8805230Y1792769D01*
X8805230Y1792769D02*
X7948087Y935626D01*
X7948087Y935626D02*
X7948087Y1864198D01*
X8090944Y2507054D02*
X8019516Y2578483D01*
X8019516Y2578483D02*
X7948087Y2507054D01*
X7948087Y2507054D02*
X8019516Y2435626D01*
X8019516Y2435626D02*
X8090944Y2507054D01*
X8090944Y2507054D02*
X7948087Y2507054D01*
X7948087Y4007055D02*
X7948087Y3149912D01*
X7948087Y3578483D02*
X9448087Y3578483D01*
X9448087Y3578483D02*
X9233801Y3435626D01*
X9233801Y3435626D02*
X9090944Y3292769D01*
X9090944Y3292769D02*
X9019516Y3149912D01*
X5533171Y-10850089D02*
X7033171Y-10850089D01*
X7033171Y-10850089D02*
X7033171Y-10278660D01*
X7033171Y-10278660D02*
X6961742Y-10135803D01*
X6961742Y-10135803D02*
X6890314Y-10064374D01*
X6890314Y-10064374D02*
X6747457Y-9992946D01*
X6747457Y-9992946D02*
X6533171Y-9992946D01*
X6533171Y-9992946D02*
X6390314Y-10064374D01*
X6390314Y-10064374D02*
X6318885Y-10135803D01*
X6318885Y-10135803D02*
X6247457Y-10278660D01*
X6247457Y-10278660D02*
X6247457Y-10850089D01*
X5533171Y-9135803D02*
X5604600Y-9278660D01*
X5604600Y-9278660D02*
X5676028Y-9350089D01*
X5676028Y-9350089D02*
X5818885Y-9421517D01*
X5818885Y-9421517D02*
X6247457Y-9421517D01*
X6247457Y-9421517D02*
X6390314Y-9350089D01*
X6390314Y-9350089D02*
X6461742Y-9278660D01*
X6461742Y-9278660D02*
X6533171Y-9135803D01*
X6533171Y-9135803D02*
X6533171Y-8921517D01*
X6533171Y-8921517D02*
X6461742Y-8778660D01*
X6461742Y-8778660D02*
X6390314Y-8707232D01*
X6390314Y-8707232D02*
X6247457Y-8635803D01*
X6247457Y-8635803D02*
X5818885Y-8635803D01*
X5818885Y-8635803D02*
X5676028Y-8707232D01*
X5676028Y-8707232D02*
X5604600Y-8778660D01*
X5604600Y-8778660D02*
X5533171Y-8921517D01*
X5533171Y-8921517D02*
X5533171Y-9135803D01*
X6533171Y-8135803D02*
X5533171Y-7850089D01*
X5533171Y-7850089D02*
X6247457Y-7564374D01*
X6247457Y-7564374D02*
X5533171Y-7278660D01*
X5533171Y-7278660D02*
X6533171Y-6992946D01*
X5604600Y-5850088D02*
X5533171Y-5992945D01*
X5533171Y-5992945D02*
X5533171Y-6278660D01*
X5533171Y-6278660D02*
X5604600Y-6421517D01*
X5604600Y-6421517D02*
X5747457Y-6492945D01*
X5747457Y-6492945D02*
X6318885Y-6492945D01*
X6318885Y-6492945D02*
X6461742Y-6421517D01*
X6461742Y-6421517D02*
X6533171Y-6278660D01*
X6533171Y-6278660D02*
X6533171Y-5992945D01*
X6533171Y-5992945D02*
X6461742Y-5850088D01*
X6461742Y-5850088D02*
X6318885Y-5778660D01*
X6318885Y-5778660D02*
X6176028Y-5778660D01*
X6176028Y-5778660D02*
X6033171Y-6492945D01*
X5533171Y-5135803D02*
X6533171Y-5135803D01*
X6247457Y-5135803D02*
X6390314Y-5064374D01*
X6390314Y-5064374D02*
X6461742Y-4992946D01*
X6461742Y-4992946D02*
X6533171Y-4850088D01*
X6533171Y-4850088D02*
X6533171Y-4707231D01*
X5604600Y-4278660D02*
X5533171Y-4135803D01*
X5533171Y-4135803D02*
X5533171Y-3850089D01*
X5533171Y-3850089D02*
X5604600Y-3707232D01*
X5604600Y-3707232D02*
X5747457Y-3635803D01*
X5747457Y-3635803D02*
X5818885Y-3635803D01*
X5818885Y-3635803D02*
X5961742Y-3707232D01*
X5961742Y-3707232D02*
X6033171Y-3850089D01*
X6033171Y-3850089D02*
X6033171Y-4064375D01*
X6033171Y-4064375D02*
X6104600Y-4207232D01*
X6104600Y-4207232D02*
X6247457Y-4278660D01*
X6247457Y-4278660D02*
X6318885Y-4278660D01*
X6318885Y-4278660D02*
X6461742Y-4207232D01*
X6461742Y-4207232D02*
X6533171Y-4064375D01*
X6533171Y-4064375D02*
X6533171Y-3850089D01*
X6533171Y-3850089D02*
X6461742Y-3707232D01*
X6533171Y-2350089D02*
X5533171Y-2350089D01*
X6533171Y-2992946D02*
X5747457Y-2992946D01*
X5747457Y-2992946D02*
X5604600Y-2921517D01*
X5604600Y-2921517D02*
X5533171Y-2778660D01*
X5533171Y-2778660D02*
X5533171Y-2564374D01*
X5533171Y-2564374D02*
X5604600Y-2421517D01*
X5604600Y-2421517D02*
X5676028Y-2350089D01*
X6533171Y-1635803D02*
X5033171Y-1635803D01*
X6461742Y-1635803D02*
X6533171Y-1492946D01*
X6533171Y-1492946D02*
X6533171Y-1207231D01*
X6533171Y-1207231D02*
X6461742Y-1064374D01*
X6461742Y-1064374D02*
X6390314Y-992946D01*
X6390314Y-992946D02*
X6247457Y-921517D01*
X6247457Y-921517D02*
X5818885Y-921517D01*
X5818885Y-921517D02*
X5676028Y-992946D01*
X5676028Y-992946D02*
X5604600Y-1064374D01*
X5604600Y-1064374D02*
X5533171Y-1207231D01*
X5533171Y-1207231D02*
X5533171Y-1492946D01*
X5533171Y-1492946D02*
X5604600Y-1635803D01*
X6533171Y-278660D02*
X5033171Y-278660D01*
X6461742Y-278660D02*
X6533171Y-135803D01*
X6533171Y-135803D02*
X6533171Y149912D01*
X6533171Y149912D02*
X6461742Y292769D01*
X6461742Y292769D02*
X6390314Y364197D01*
X6390314Y364197D02*
X6247457Y435626D01*
X6247457Y435626D02*
X5818885Y435626D01*
X5818885Y435626D02*
X5676028Y364197D01*
X5676028Y364197D02*
X5604600Y292769D01*
X5604600Y292769D02*
X5533171Y149912D01*
X5533171Y149912D02*
X5533171Y-135803D01*
X5533171Y-135803D02*
X5604600Y-278660D01*
X5533171Y1292769D02*
X5604600Y1149912D01*
X5604600Y1149912D02*
X5747457Y1078483D01*
X5747457Y1078483D02*
X7033171Y1078483D01*
X6533171Y1721340D02*
X5533171Y2078483D01*
X6533171Y2435626D02*
X5533171Y2078483D01*
X5533171Y2078483D02*
X5176028Y1935626D01*
X5176028Y1935626D02*
X5104600Y1864197D01*
X5104600Y1864197D02*
X5033171Y1721340D01*
X21617512Y-12187710D02*
X20117512Y-12187710D01*
X20117512Y-12187710D02*
X20117512Y-12759139D01*
X20117512Y-12759139D02*
X20188941Y-12901996D01*
X20188941Y-12901996D02*
X20260369Y-12973425D01*
X20260369Y-12973425D02*
X20403226Y-13044853D01*
X20403226Y-13044853D02*
X20617512Y-13044853D01*
X20617512Y-13044853D02*
X20760369Y-12973425D01*
X20760369Y-12973425D02*
X20831798Y-12901996D01*
X20831798Y-12901996D02*
X20903226Y-12759139D01*
X20903226Y-12759139D02*
X20903226Y-12187710D01*
X20117512Y-13544853D02*
X21617512Y-13901996D01*
X21617512Y-13901996D02*
X20546084Y-14187710D01*
X20546084Y-14187710D02*
X21617512Y-14473425D01*
X21617512Y-14473425D02*
X20117512Y-14830568D01*
X21617512Y-16259139D02*
X20903226Y-15759139D01*
X21617512Y-15401996D02*
X20117512Y-15401996D01*
X20117512Y-15401996D02*
X20117512Y-15973425D01*
X20117512Y-15973425D02*
X20188941Y-16116282D01*
X20188941Y-16116282D02*
X20260369Y-16187711D01*
X20260369Y-16187711D02*
X20403226Y-16259139D01*
X20403226Y-16259139D02*
X20617512Y-16259139D01*
X20617512Y-16259139D02*
X20760369Y-16187711D01*
X20760369Y-16187711D02*
X20831798Y-16116282D01*
X20831798Y-16116282D02*
X20903226Y-15973425D01*
X20903226Y-15973425D02*
X20903226Y-15401996D01*
X20831798Y-18044853D02*
X20831798Y-18544853D01*
X21617512Y-18759139D02*
X21617512Y-18044853D01*
X21617512Y-18044853D02*
X20117512Y-18044853D01*
X20117512Y-18044853D02*
X20117512Y-18759139D01*
X21546084Y-19330568D02*
X21617512Y-19544854D01*
X21617512Y-19544854D02*
X21617512Y-19901996D01*
X21617512Y-19901996D02*
X21546084Y-20044854D01*
X21546084Y-20044854D02*
X21474655Y-20116282D01*
X21474655Y-20116282D02*
X21331798Y-20187711D01*
X21331798Y-20187711D02*
X21188941Y-20187711D01*
X21188941Y-20187711D02*
X21046084Y-20116282D01*
X21046084Y-20116282D02*
X20974655Y-20044854D01*
X20974655Y-20044854D02*
X20903226Y-19901996D01*
X20903226Y-19901996D02*
X20831798Y-19616282D01*
X20831798Y-19616282D02*
X20760369Y-19473425D01*
X20760369Y-19473425D02*
X20688941Y-19401996D01*
X20688941Y-19401996D02*
X20546084Y-19330568D01*
X20546084Y-19330568D02*
X20403226Y-19330568D01*
X20403226Y-19330568D02*
X20260369Y-19401996D01*
X20260369Y-19401996D02*
X20188941Y-19473425D01*
X20188941Y-19473425D02*
X20117512Y-19616282D01*
X20117512Y-19616282D02*
X20117512Y-19973425D01*
X20117512Y-19973425D02*
X20188941Y-20187711D01*
X21474655Y-21687710D02*
X21546084Y-21616282D01*
X21546084Y-21616282D02*
X21617512Y-21401996D01*
X21617512Y-21401996D02*
X21617512Y-21259139D01*
X21617512Y-21259139D02*
X21546084Y-21044853D01*
X21546084Y-21044853D02*
X21403226Y-20901996D01*
X21403226Y-20901996D02*
X21260369Y-20830567D01*
X21260369Y-20830567D02*
X20974655Y-20759139D01*
X20974655Y-20759139D02*
X20760369Y-20759139D01*
X20760369Y-20759139D02*
X20474655Y-20830567D01*
X20474655Y-20830567D02*
X20331798Y-20901996D01*
X20331798Y-20901996D02*
X20188941Y-21044853D01*
X20188941Y-21044853D02*
X20117512Y-21259139D01*
X20117512Y-21259139D02*
X20117512Y-21401996D01*
X20117512Y-21401996D02*
X20188941Y-21616282D01*
X20188941Y-21616282D02*
X20260369Y-21687710D01*
X21546084Y-23401996D02*
X21617512Y-23616282D01*
X21617512Y-23616282D02*
X21617512Y-23973424D01*
X21617512Y-23973424D02*
X21546084Y-24116282D01*
X21546084Y-24116282D02*
X21474655Y-24187710D01*
X21474655Y-24187710D02*
X21331798Y-24259139D01*
X21331798Y-24259139D02*
X21188941Y-24259139D01*
X21188941Y-24259139D02*
X21046084Y-24187710D01*
X21046084Y-24187710D02*
X20974655Y-24116282D01*
X20974655Y-24116282D02*
X20903226Y-23973424D01*
X20903226Y-23973424D02*
X20831798Y-23687710D01*
X20831798Y-23687710D02*
X20760369Y-23544853D01*
X20760369Y-23544853D02*
X20688941Y-23473424D01*
X20688941Y-23473424D02*
X20546084Y-23401996D01*
X20546084Y-23401996D02*
X20403226Y-23401996D01*
X20403226Y-23401996D02*
X20260369Y-23473424D01*
X20260369Y-23473424D02*
X20188941Y-23544853D01*
X20188941Y-23544853D02*
X20117512Y-23687710D01*
X20117512Y-23687710D02*
X20117512Y-24044853D01*
X20117512Y-24044853D02*
X20188941Y-24259139D01*
X20831798Y-25401995D02*
X20903226Y-25616281D01*
X20903226Y-25616281D02*
X20974655Y-25687710D01*
X20974655Y-25687710D02*
X21117512Y-25759138D01*
X21117512Y-25759138D02*
X21331798Y-25759138D01*
X21331798Y-25759138D02*
X21474655Y-25687710D01*
X21474655Y-25687710D02*
X21546084Y-25616281D01*
X21546084Y-25616281D02*
X21617512Y-25473424D01*
X21617512Y-25473424D02*
X21617512Y-24901995D01*
X21617512Y-24901995D02*
X20117512Y-24901995D01*
X20117512Y-24901995D02*
X20117512Y-25401995D01*
X20117512Y-25401995D02*
X20188941Y-25544853D01*
X20188941Y-25544853D02*
X20260369Y-25616281D01*
X20260369Y-25616281D02*
X20403226Y-25687710D01*
X20403226Y-25687710D02*
X20546084Y-25687710D01*
X20546084Y-25687710D02*
X20688941Y-25616281D01*
X20688941Y-25616281D02*
X20760369Y-25544853D01*
X20760369Y-25544853D02*
X20831798Y-25401995D01*
X20831798Y-25401995D02*
X20831798Y-24901995D01*
X23461000Y-14473424D02*
X23461000Y-15616282D01*
X24032428Y-15044853D02*
X22889571Y-15044853D01*
X23461000Y-20901995D02*
X23461000Y-22044853D01*
X21719112Y25836090D02*
X20219112Y25836090D01*
X20219112Y25836090D02*
X20219112Y25264661D01*
X20219112Y25264661D02*
X20290541Y25121804D01*
X20290541Y25121804D02*
X20361969Y25050375D01*
X20361969Y25050375D02*
X20504826Y24978947D01*
X20504826Y24978947D02*
X20719112Y24978947D01*
X20719112Y24978947D02*
X20861969Y25050375D01*
X20861969Y25050375D02*
X20933398Y25121804D01*
X20933398Y25121804D02*
X21004826Y25264661D01*
X21004826Y25264661D02*
X21004826Y25836090D01*
X20219112Y24478947D02*
X21719112Y24121804D01*
X21719112Y24121804D02*
X20647684Y23836090D01*
X20647684Y23836090D02*
X21719112Y23550375D01*
X21719112Y23550375D02*
X20219112Y23193232D01*
X21719112Y21764661D02*
X21004826Y22264661D01*
X21719112Y22621804D02*
X20219112Y22621804D01*
X20219112Y22621804D02*
X20219112Y22050375D01*
X20219112Y22050375D02*
X20290541Y21907518D01*
X20290541Y21907518D02*
X20361969Y21836089D01*
X20361969Y21836089D02*
X20504826Y21764661D01*
X20504826Y21764661D02*
X20719112Y21764661D01*
X20719112Y21764661D02*
X20861969Y21836089D01*
X20861969Y21836089D02*
X20933398Y21907518D01*
X20933398Y21907518D02*
X21004826Y22050375D01*
X21004826Y22050375D02*
X21004826Y22621804D01*
X20933398Y19978947D02*
X20933398Y19478947D01*
X21719112Y19264661D02*
X21719112Y19978947D01*
X21719112Y19978947D02*
X20219112Y19978947D01*
X20219112Y19978947D02*
X20219112Y19264661D01*
X21647684Y18693232D02*
X21719112Y18478946D01*
X21719112Y18478946D02*
X21719112Y18121804D01*
X21719112Y18121804D02*
X21647684Y17978946D01*
X21647684Y17978946D02*
X21576255Y17907518D01*
X21576255Y17907518D02*
X21433398Y17836089D01*
X21433398Y17836089D02*
X21290541Y17836089D01*
X21290541Y17836089D02*
X21147684Y17907518D01*
X21147684Y17907518D02*
X21076255Y17978946D01*
X21076255Y17978946D02*
X21004826Y18121804D01*
X21004826Y18121804D02*
X20933398Y18407518D01*
X20933398Y18407518D02*
X20861969Y18550375D01*
X20861969Y18550375D02*
X20790541Y18621804D01*
X20790541Y18621804D02*
X20647684Y18693232D01*
X20647684Y18693232D02*
X20504826Y18693232D01*
X20504826Y18693232D02*
X20361969Y18621804D01*
X20361969Y18621804D02*
X20290541Y18550375D01*
X20290541Y18550375D02*
X20219112Y18407518D01*
X20219112Y18407518D02*
X20219112Y18050375D01*
X20219112Y18050375D02*
X20290541Y17836089D01*
X21576255Y16336090D02*
X21647684Y16407518D01*
X21647684Y16407518D02*
X21719112Y16621804D01*
X21719112Y16621804D02*
X21719112Y16764661D01*
X21719112Y16764661D02*
X21647684Y16978947D01*
X21647684Y16978947D02*
X21504826Y17121804D01*
X21504826Y17121804D02*
X21361969Y17193233D01*
X21361969Y17193233D02*
X21076255Y17264661D01*
X21076255Y17264661D02*
X20861969Y17264661D01*
X20861969Y17264661D02*
X20576255Y17193233D01*
X20576255Y17193233D02*
X20433398Y17121804D01*
X20433398Y17121804D02*
X20290541Y16978947D01*
X20290541Y16978947D02*
X20219112Y16764661D01*
X20219112Y16764661D02*
X20219112Y16621804D01*
X20219112Y16621804D02*
X20290541Y16407518D01*
X20290541Y16407518D02*
X20361969Y16336090D01*
X20933398Y14050376D02*
X21004826Y13836090D01*
X21004826Y13836090D02*
X21076255Y13764661D01*
X21076255Y13764661D02*
X21219112Y13693233D01*
X21219112Y13693233D02*
X21433398Y13693233D01*
X21433398Y13693233D02*
X21576255Y13764661D01*
X21576255Y13764661D02*
X21647684Y13836090D01*
X21647684Y13836090D02*
X21719112Y13978947D01*
X21719112Y13978947D02*
X21719112Y14550376D01*
X21719112Y14550376D02*
X20219112Y14550376D01*
X20219112Y14550376D02*
X20219112Y14050376D01*
X20219112Y14050376D02*
X20290541Y13907518D01*
X20290541Y13907518D02*
X20361969Y13836090D01*
X20361969Y13836090D02*
X20504826Y13764661D01*
X20504826Y13764661D02*
X20647684Y13764661D01*
X20647684Y13764661D02*
X20790541Y13836090D01*
X20790541Y13836090D02*
X20861969Y13907518D01*
X20861969Y13907518D02*
X20933398Y14050376D01*
X20933398Y14050376D02*
X20933398Y14550376D01*
X20933398Y12550376D02*
X21004826Y12336090D01*
X21004826Y12336090D02*
X21076255Y12264661D01*
X21076255Y12264661D02*
X21219112Y12193233D01*
X21219112Y12193233D02*
X21433398Y12193233D01*
X21433398Y12193233D02*
X21576255Y12264661D01*
X21576255Y12264661D02*
X21647684Y12336090D01*
X21647684Y12336090D02*
X21719112Y12478947D01*
X21719112Y12478947D02*
X21719112Y13050376D01*
X21719112Y13050376D02*
X20219112Y13050376D01*
X20219112Y13050376D02*
X20219112Y12550376D01*
X20219112Y12550376D02*
X20290541Y12407518D01*
X20290541Y12407518D02*
X20361969Y12336090D01*
X20361969Y12336090D02*
X20504826Y12264661D01*
X20504826Y12264661D02*
X20647684Y12264661D01*
X20647684Y12264661D02*
X20790541Y12336090D01*
X20790541Y12336090D02*
X20861969Y12407518D01*
X20861969Y12407518D02*
X20933398Y12550376D01*
X20933398Y12550376D02*
X20933398Y13050376D01*
X23562600Y23550376D02*
X23562600Y22407518D01*
X24134028Y22978947D02*
X22991171Y22978947D01*
X23562600Y15978948D02*
X23562600Y14836090D01*
X21728655Y5166947D02*
X21800084Y5238375D01*
X21800084Y5238375D02*
X21871512Y5452661D01*
X21871512Y5452661D02*
X21871512Y5595518D01*
X21871512Y5595518D02*
X21800084Y5809804D01*
X21800084Y5809804D02*
X21657226Y5952661D01*
X21657226Y5952661D02*
X21514369Y6024090D01*
X21514369Y6024090D02*
X21228655Y6095518D01*
X21228655Y6095518D02*
X21014369Y6095518D01*
X21014369Y6095518D02*
X20728655Y6024090D01*
X20728655Y6024090D02*
X20585798Y5952661D01*
X20585798Y5952661D02*
X20442941Y5809804D01*
X20442941Y5809804D02*
X20371512Y5595518D01*
X20371512Y5595518D02*
X20371512Y5452661D01*
X20371512Y5452661D02*
X20442941Y5238375D01*
X20442941Y5238375D02*
X20514369Y5166947D01*
X21871512Y4524090D02*
X20371512Y4524090D01*
X21085798Y4524090D02*
X21085798Y3666947D01*
X21871512Y3666947D02*
X20371512Y3666947D01*
X21871512Y2095518D02*
X21157226Y2595518D01*
X21871512Y2952661D02*
X20371512Y2952661D01*
X20371512Y2952661D02*
X20371512Y2381232D01*
X20371512Y2381232D02*
X20442941Y2238375D01*
X20442941Y2238375D02*
X20514369Y2166946D01*
X20514369Y2166946D02*
X20657226Y2095518D01*
X20657226Y2095518D02*
X20871512Y2095518D01*
X20871512Y2095518D02*
X21014369Y2166946D01*
X21014369Y2166946D02*
X21085798Y2238375D01*
X21085798Y2238375D02*
X21157226Y2381232D01*
X21157226Y2381232D02*
X21157226Y2952661D01*
X20442941Y666946D02*
X20371512Y809803D01*
X20371512Y809803D02*
X20371512Y1024089D01*
X20371512Y1024089D02*
X20442941Y1238375D01*
X20442941Y1238375D02*
X20585798Y1381232D01*
X20585798Y1381232D02*
X20728655Y1452661D01*
X20728655Y1452661D02*
X21014369Y1524089D01*
X21014369Y1524089D02*
X21228655Y1524089D01*
X21228655Y1524089D02*
X21514369Y1452661D01*
X21514369Y1452661D02*
X21657226Y1381232D01*
X21657226Y1381232D02*
X21800084Y1238375D01*
X21800084Y1238375D02*
X21871512Y1024089D01*
X21871512Y1024089D02*
X21871512Y881232D01*
X21871512Y881232D02*
X21800084Y666946D01*
X21800084Y666946D02*
X21728655Y595518D01*
X21728655Y595518D02*
X21228655Y595518D01*
X21228655Y595518D02*
X21228655Y881232D01*
X20300084Y-1118768D02*
X22228655Y166946D01*
X20371512Y-1404483D02*
X20371512Y-2261626D01*
X21871512Y-1833054D02*
X20371512Y-1833054D01*
X20371512Y-3047340D02*
X20371512Y-3333054D01*
X20371512Y-3333054D02*
X20442941Y-3475911D01*
X20442941Y-3475911D02*
X20585798Y-3618768D01*
X20585798Y-3618768D02*
X20871512Y-3690197D01*
X20871512Y-3690197D02*
X21371512Y-3690197D01*
X21371512Y-3690197D02*
X21657226Y-3618768D01*
X21657226Y-3618768D02*
X21800084Y-3475911D01*
X21800084Y-3475911D02*
X21871512Y-3333054D01*
X21871512Y-3333054D02*
X21871512Y-3047340D01*
X21871512Y-3047340D02*
X21800084Y-2904483D01*
X21800084Y-2904483D02*
X21657226Y-2761625D01*
X21657226Y-2761625D02*
X21371512Y-2690197D01*
X21371512Y-2690197D02*
X20871512Y-2690197D01*
X20871512Y-2690197D02*
X20585798Y-2761625D01*
X20585798Y-2761625D02*
X20442941Y-2904483D01*
X20442941Y-2904483D02*
X20371512Y-3047340D01*
X21871512Y-4333054D02*
X20371512Y-4333054D01*
X20371512Y-4333054D02*
X20371512Y-4904483D01*
X20371512Y-4904483D02*
X20442941Y-5047340D01*
X20442941Y-5047340D02*
X20514369Y-5118769D01*
X20514369Y-5118769D02*
X20657226Y-5190197D01*
X20657226Y-5190197D02*
X20871512Y-5190197D01*
X20871512Y-5190197D02*
X21014369Y-5118769D01*
X21014369Y-5118769D02*
X21085798Y-5047340D01*
X21085798Y-5047340D02*
X21157226Y-4904483D01*
X21157226Y-4904483D02*
X21157226Y-4333054D01*
X23715000Y6024090D02*
X23715000Y4881232D01*
X24286428Y738376D02*
X22786428Y738376D01*
X22786428Y738376D02*
X22786428Y381233D01*
X22786428Y381233D02*
X22857857Y166947D01*
X22857857Y166947D02*
X23000714Y24090D01*
X23000714Y24090D02*
X23143571Y-47339D01*
X23143571Y-47339D02*
X23429285Y-118767D01*
X23429285Y-118767D02*
X23643571Y-118767D01*
X23643571Y-118767D02*
X23929285Y-47339D01*
X23929285Y-47339D02*
X24072142Y24090D01*
X24072142Y24090D02*
X24215000Y166947D01*
X24215000Y166947D02*
X24286428Y381233D01*
X24286428Y381233D02*
X24286428Y738376D01*
X23715000Y-4190195D02*
X23715000Y-5333053D01*
X24286428Y-4761624D02*
X23143571Y-4761624D01*
X-20198342Y17195997D02*
X-20198342Y17910282D01*
X-20626913Y17053140D02*
X-19126913Y17553140D01*
X-19126913Y17553140D02*
X-20626913Y18053140D01*
X-20484056Y19410282D02*
X-20555484Y19338854D01*
X-20555484Y19338854D02*
X-20626913Y19124568D01*
X-20626913Y19124568D02*
X-20626913Y18981711D01*
X-20626913Y18981711D02*
X-20555484Y18767425D01*
X-20555484Y18767425D02*
X-20412627Y18624568D01*
X-20412627Y18624568D02*
X-20269770Y18553139D01*
X-20269770Y18553139D02*
X-19984056Y18481711D01*
X-19984056Y18481711D02*
X-19769770Y18481711D01*
X-19769770Y18481711D02*
X-19484056Y18553139D01*
X-19484056Y18553139D02*
X-19341199Y18624568D01*
X-19341199Y18624568D02*
X-19198342Y18767425D01*
X-19198342Y18767425D02*
X-19126913Y18981711D01*
X-19126913Y18981711D02*
X-19126913Y19124568D01*
X-19126913Y19124568D02*
X-19198342Y19338854D01*
X-19198342Y19338854D02*
X-19269770Y19410282D01*
X-19126913Y20053139D02*
X-20341199Y20053139D01*
X-20341199Y20053139D02*
X-20484056Y20124568D01*
X-20484056Y20124568D02*
X-20555484Y20195996D01*
X-20555484Y20195996D02*
X-20626913Y20338854D01*
X-20626913Y20338854D02*
X-20626913Y20624568D01*
X-20626913Y20624568D02*
X-20555484Y20767425D01*
X-20555484Y20767425D02*
X-20484056Y20838854D01*
X-20484056Y20838854D02*
X-20341199Y20910282D01*
X-20341199Y20910282D02*
X-19126913Y20910282D01*
X-19126913Y21624568D02*
X-20341199Y21624568D01*
X-20341199Y21624568D02*
X-20484056Y21695997D01*
X-20484056Y21695997D02*
X-20555484Y21767425D01*
X-20555484Y21767425D02*
X-20626913Y21910283D01*
X-20626913Y21910283D02*
X-20626913Y22195997D01*
X-20626913Y22195997D02*
X-20555484Y22338854D01*
X-20555484Y22338854D02*
X-20484056Y22410283D01*
X-20484056Y22410283D02*
X-20341199Y22481711D01*
X-20341199Y22481711D02*
X-19126913Y22481711D01*
X-22470400Y14981711D02*
X-22470400Y16124568D01*
X-22470400Y23695996D02*
X-22470400Y24838853D01*
X-23041829Y24267425D02*
X-21898972Y24267425D01*
D11*
X3532702Y20644154D02*
X3532702Y22144154D01*
X3532702Y22144154D02*
X2961273Y22144154D01*
X2961273Y22144154D02*
X2818416Y22072725D01*
X2818416Y22072725D02*
X2746987Y22001297D01*
X2746987Y22001297D02*
X2675559Y21858440D01*
X2675559Y21858440D02*
X2675559Y21644154D01*
X2675559Y21644154D02*
X2746987Y21501297D01*
X2746987Y21501297D02*
X2818416Y21429868D01*
X2818416Y21429868D02*
X2961273Y21358440D01*
X2961273Y21358440D02*
X3532702Y21358440D01*
X2175559Y22144154D02*
X1818416Y20644154D01*
X1818416Y20644154D02*
X1532702Y21715582D01*
X1532702Y21715582D02*
X1246987Y20644154D01*
X1246987Y20644154D02*
X889845Y22144154D01*
X318416Y20644154D02*
X318416Y22144154D01*
X318416Y22144154D02*
X-181584Y21072725D01*
X-181584Y21072725D02*
X-681584Y22144154D01*
X-681584Y22144154D02*
X-681584Y20644154D01*
X3532702Y18800666D02*
X2389845Y18800666D01*
X2961273Y18229238D02*
X2961273Y19372095D01*
X961273Y19729238D02*
X1675559Y19729238D01*
X1675559Y19729238D02*
X1746987Y19014952D01*
X1746987Y19014952D02*
X1675559Y19086381D01*
X1675559Y19086381D02*
X1532702Y19157809D01*
X1532702Y19157809D02*
X1175559Y19157809D01*
X1175559Y19157809D02*
X1032702Y19086381D01*
X1032702Y19086381D02*
X961273Y19014952D01*
X961273Y19014952D02*
X889844Y18872095D01*
X889844Y18872095D02*
X889844Y18514952D01*
X889844Y18514952D02*
X961273Y18372095D01*
X961273Y18372095D02*
X1032702Y18300666D01*
X1032702Y18300666D02*
X1175559Y18229238D01*
X1175559Y18229238D02*
X1532702Y18229238D01*
X1532702Y18229238D02*
X1675559Y18300666D01*
X1675559Y18300666D02*
X1746987Y18372095D01*
X461273Y19729238D02*
X-38727Y18229238D01*
X-38727Y18229238D02*
X-538727Y19729238D01*
X2746987Y17242893D02*
X2889845Y17314322D01*
X2889845Y17314322D02*
X3104130Y17314322D01*
X3104130Y17314322D02*
X3318416Y17242893D01*
X3318416Y17242893D02*
X3461273Y17100036D01*
X3461273Y17100036D02*
X3532702Y16957179D01*
X3532702Y16957179D02*
X3604130Y16671465D01*
X3604130Y16671465D02*
X3604130Y16457179D01*
X3604130Y16457179D02*
X3532702Y16171465D01*
X3532702Y16171465D02*
X3461273Y16028608D01*
X3461273Y16028608D02*
X3318416Y15885750D01*
X3318416Y15885750D02*
X3104130Y15814322D01*
X3104130Y15814322D02*
X2961273Y15814322D01*
X2961273Y15814322D02*
X2746987Y15885750D01*
X2746987Y15885750D02*
X2675559Y15957179D01*
X2675559Y15957179D02*
X2675559Y16457179D01*
X2675559Y16457179D02*
X2961273Y16457179D01*
X2032702Y15814322D02*
X2032702Y17314322D01*
X2032702Y17314322D02*
X1175559Y15814322D01*
X1175559Y15814322D02*
X1175559Y17314322D01*
X461273Y15814322D02*
X461273Y17314322D01*
X461273Y17314322D02*
X104130Y17314322D01*
X104130Y17314322D02*
X-110156Y17242893D01*
X-110156Y17242893D02*
X-253013Y17100036D01*
X-253013Y17100036D02*
X-324442Y16957179D01*
X-324442Y16957179D02*
X-395870Y16671465D01*
X-395870Y16671465D02*
X-395870Y16457179D01*
X-395870Y16457179D02*
X-324442Y16171465D01*
X-324442Y16171465D02*
X-253013Y16028608D01*
X-253013Y16028608D02*
X-110156Y15885750D01*
X-110156Y15885750D02*
X104130Y15814322D01*
X104130Y15814322D02*
X461273Y15814322D01*
D10*
X-19588742Y-22224803D02*
X-19588742Y-21510518D01*
X-20017313Y-22367660D02*
X-18517313Y-21867660D01*
X-18517313Y-21867660D02*
X-20017313Y-21367660D01*
X-19874456Y-20010518D02*
X-19945884Y-20081946D01*
X-19945884Y-20081946D02*
X-20017313Y-20296232D01*
X-20017313Y-20296232D02*
X-20017313Y-20439089D01*
X-20017313Y-20439089D02*
X-19945884Y-20653375D01*
X-19945884Y-20653375D02*
X-19803027Y-20796232D01*
X-19803027Y-20796232D02*
X-19660170Y-20867661D01*
X-19660170Y-20867661D02*
X-19374456Y-20939089D01*
X-19374456Y-20939089D02*
X-19160170Y-20939089D01*
X-19160170Y-20939089D02*
X-18874456Y-20867661D01*
X-18874456Y-20867661D02*
X-18731599Y-20796232D01*
X-18731599Y-20796232D02*
X-18588742Y-20653375D01*
X-18588742Y-20653375D02*
X-18517313Y-20439089D01*
X-18517313Y-20439089D02*
X-18517313Y-20296232D01*
X-18517313Y-20296232D02*
X-18588742Y-20081946D01*
X-18588742Y-20081946D02*
X-18660170Y-20010518D01*
X-18517313Y-19367661D02*
X-19731599Y-19367661D01*
X-19731599Y-19367661D02*
X-19874456Y-19296232D01*
X-19874456Y-19296232D02*
X-19945884Y-19224804D01*
X-19945884Y-19224804D02*
X-20017313Y-19081946D01*
X-20017313Y-19081946D02*
X-20017313Y-18796232D01*
X-20017313Y-18796232D02*
X-19945884Y-18653375D01*
X-19945884Y-18653375D02*
X-19874456Y-18581946D01*
X-19874456Y-18581946D02*
X-19731599Y-18510518D01*
X-19731599Y-18510518D02*
X-18517313Y-18510518D01*
X-18517313Y-17796232D02*
X-19731599Y-17796232D01*
X-19731599Y-17796232D02*
X-19874456Y-17724803D01*
X-19874456Y-17724803D02*
X-19945884Y-17653375D01*
X-19945884Y-17653375D02*
X-20017313Y-17510517D01*
X-20017313Y-17510517D02*
X-20017313Y-17224803D01*
X-20017313Y-17224803D02*
X-19945884Y-17081946D01*
X-19945884Y-17081946D02*
X-19874456Y-17010517D01*
X-19874456Y-17010517D02*
X-19731599Y-16939089D01*
X-19731599Y-16939089D02*
X-18517313Y-16939089D01*
X-21860800Y-24439089D02*
X-21860800Y-23296232D01*
X-21860800Y-15724804D02*
X-21860800Y-14581947D01*
X-22432229Y-15153375D02*
X-21289372Y-15153375D01*
G36*
X-1382004Y4798153D02*
G01*
X-1668958Y4827828D01*
X-1683122Y4765582D01*
X-1707449Y4714882D01*
X-1741682Y4673589D01*
X-1784645Y4641697D01*
X-1830656Y4623073D01*
X-1881083Y4616803D01*
X-1937719Y4625042D01*
X-1987927Y4649508D01*
X-2033674Y4691999D01*
X-2066379Y4745852D01*
X-2088095Y4819462D01*
X-2096231Y4918870D01*
X-2088235Y5011732D01*
X-2066789Y5080896D01*
X-2034224Y5131911D01*
X-1988844Y5171326D01*
X-1935862Y5194834D01*
X-1872840Y5202985D01*
X-1813844Y5196354D01*
X-1757889Y5176452D01*
X-1703706Y5142282D01*
X-1650457Y5091611D01*
X-1416808Y5125957D01*
X-1564361Y5906405D01*
X-2325758Y5906405D01*
X-2325758Y5636761D01*
X-1782623Y5636761D01*
X-1737560Y5383969D01*
X-1803095Y5410705D01*
X-1868434Y5426402D01*
X-1934298Y5431597D01*
X-2027162Y5422639D01*
X-2111038Y5396447D01*
X-2187893Y5352932D01*
X-2259080Y5290547D01*
X-2316408Y5216346D01*
X-2357742Y5131992D01*
X-2383378Y5035551D01*
X-2392345Y4924457D01*
X-2385462Y4832082D01*
X-2365245Y4746209D01*
X-2331837Y4665642D01*
X-2284725Y4589417D01*
X-2220962Y4516407D01*
X-2149689Y4460876D01*
X-2069956Y4421144D01*
X-1980118Y4396690D01*
X-1877969Y4388191D01*
X-1774592Y4395765D01*
X-1685034Y4417344D01*
X-1607035Y4451887D01*
X-1538808Y4499291D01*
X-1480352Y4559011D01*
X-1435002Y4627756D01*
X-1402124Y4706840D01*
X-1382004Y4798153D01*
G37*
G36*
X-2991167Y4417500D02*
G01*
X-2454260Y5923990D01*
X-2783164Y5923990D01*
X-3163358Y4810243D01*
X-3531188Y5923990D01*
X-3852947Y5923990D01*
X-3314942Y4417500D01*
X-2991167Y4417500D01*
G37*
G36*
X-6456057Y4968512D02*
G01*
X-6456057Y5220571D01*
X-7109743Y5220571D01*
X-7109743Y4619642D01*
X-7042093Y4564593D01*
X-6951617Y4510557D01*
X-6833596Y4457984D01*
X-6711473Y4418951D01*
X-6589640Y4395854D01*
X-6467231Y4388191D01*
X-6349476Y4394815D01*
X-6242641Y4413976D01*
X-6145335Y4444932D01*
X-6056354Y4487384D01*
X-5973979Y4542529D01*
X-5903175Y4607730D01*
X-5843004Y4683622D01*
X-5793029Y4771317D01*
X-5744385Y4896993D01*
X-5714933Y5030322D01*
X-5704919Y5172944D01*
X-5711405Y5290456D01*
X-5730284Y5398633D01*
X-5760975Y5498646D01*
X-5803288Y5591515D01*
X-5858218Y5677784D01*
X-5923998Y5752811D01*
X-6001290Y5817516D01*
X-6091250Y5872333D01*
X-6190325Y5912521D01*
X-6308929Y5938237D01*
X-6450928Y5947438D01*
X-6592588Y5938983D01*
X-6710144Y5915460D01*
X-6807492Y5878972D01*
X-6887909Y5830659D01*
X-6959179Y5767106D01*
X-7016236Y5693070D01*
X-7059967Y5607280D01*
X-7090325Y5507801D01*
X-6789082Y5449182D01*
X-6761200Y5519142D01*
X-6721576Y5577186D01*
X-6669648Y5625037D01*
X-6608328Y5660053D01*
X-6536277Y5681835D01*
X-6450928Y5689517D01*
X-6353274Y5680959D01*
X-6269671Y5656571D01*
X-6197488Y5617234D01*
X-6134847Y5562389D01*
X-6086335Y5496158D01*
X-6049776Y5413726D01*
X-6026099Y5311594D01*
X-6017519Y5185400D01*
X-6026320Y5048601D01*
X-6050496Y4938689D01*
X-6087562Y4850792D01*
X-6136313Y4780934D01*
X-6200222Y4722054D01*
X-6272223Y4680430D01*
X-6353951Y4654962D01*
X-6447814Y4646112D01*
X-6542375Y4655391D01*
X-6638965Y4683939D01*
X-6729685Y4726758D01*
X-6803371Y4775713D01*
X-6803371Y4968512D01*
X-6456057Y4968512D01*
G37*
G36*
X-7392851Y4417500D02*
G01*
X-7392851Y5923990D01*
X-7687957Y5923990D01*
X-8302716Y4915481D01*
X-8302716Y5923990D01*
X-8584542Y5923990D01*
X-8584542Y4417500D01*
X-8280185Y4417500D01*
X-7674585Y5410989D01*
X-7674585Y4417500D01*
X-7392851Y4417500D01*
G37*
G36*
X-8904012Y4417500D02*
G01*
X-9474716Y4417500D01*
X-9634107Y4426486D01*
X-9743169Y4449374D01*
X-9829899Y4483508D01*
X-9900135Y4523741D01*
X-9956301Y4569633D01*
X-10019016Y4642158D01*
X-10072749Y4730076D01*
X-10117227Y4835705D01*
X-10141884Y4926606D01*
X-10157681Y5032728D01*
X-10163297Y5156366D01*
X-10162696Y5170196D01*
X-9849781Y5170196D01*
X-9841035Y5004067D01*
X-9819006Y4893041D01*
X-9794402Y4826880D01*
X-9767752Y4779534D01*
X-9739597Y4746954D01*
X-9685775Y4709631D01*
X-9617140Y4684031D01*
X-9551988Y4673924D01*
X-9433774Y4669559D01*
X-9207270Y4669559D01*
X-9207270Y5671932D01*
X-9343557Y5671932D01*
X-9513920Y5667333D01*
X-9592593Y5657460D01*
X-9671310Y5629768D01*
X-9732911Y5586203D01*
X-9780715Y5525684D01*
X-9819006Y5439657D01*
X-9840883Y5335351D01*
X-9849781Y5170196D01*
X-10162696Y5170196D01*
X-10157173Y5297363D01*
X-10140188Y5414912D01*
X-10114113Y5512380D01*
X-10075494Y5605349D01*
X-10027671Y5686265D01*
X-9970681Y5756470D01*
X-9903505Y5816309D01*
X-9828388Y5862341D01*
X-9744177Y5895231D01*
X-9634626Y5915626D01*
X-9458321Y5923990D01*
X-8904012Y5923990D01*
X-8904012Y4417500D01*
G37*
G36*
X1091596Y1897500D02*
G01*
X1628503Y3403990D01*
X1299600Y3403990D01*
X919405Y2290243D01*
X551575Y3403990D01*
X229816Y3403990D01*
X767822Y1897500D01*
X1091596Y1897500D01*
G37*
G36*
X-123357Y3011248D02*
G01*
X-36227Y2995225D01*
X33050Y2970924D01*
X87667Y2939532D01*
X150250Y2880982D01*
X200892Y2802761D01*
X239250Y2700571D01*
X-22059Y2653676D01*
X-54846Y2723368D01*
X-91669Y2763128D01*
X-140298Y2785782D01*
X-211561Y2794360D01*
X-287309Y2789141D01*
X-336237Y2776094D01*
X-366259Y2757999D01*
X-387713Y2730823D01*
X-401911Y2691670D01*
X-407291Y2636274D01*
X-407291Y2606782D01*
X-313361Y2576398D01*
X-127572Y2535707D01*
X12508Y2501994D01*
X101405Y2468204D01*
X150837Y2438401D01*
X191697Y2401511D01*
X224870Y2357013D01*
X249115Y2306982D01*
X263861Y2252237D01*
X268925Y2191691D01*
X262630Y2123372D01*
X244409Y2062922D01*
X214497Y2008784D01*
X172114Y1959874D01*
X121294Y1920998D01*
X61462Y1892514D01*
X-9134Y1874558D01*
X-92768Y1868191D01*
X-185708Y1877439D01*
X-272103Y1904828D01*
X-352376Y1949776D01*
X-429914Y2014737D01*
X-440173Y1981398D01*
X-467833Y1897500D01*
X-752681Y1897500D01*
X-720058Y1975460D01*
X-700932Y2044413D01*
X-691212Y2122481D01*
X-687102Y2257270D01*
X-688035Y2361592D01*
X-407291Y2361592D01*
X-403740Y2265934D01*
X-396026Y2220542D01*
X-371099Y2168933D01*
X-327332Y2124830D01*
X-278271Y2095706D01*
X-229082Y2078895D01*
X-178772Y2073355D01*
X-134118Y2078495D01*
X-96386Y2093240D01*
X-64008Y2117594D01*
X-38727Y2149338D01*
X-23947Y2183968D01*
X-18945Y2222649D01*
X-25060Y2260982D01*
X-43261Y2294437D01*
X-75274Y2324498D01*
X-123186Y2346237D01*
X-232078Y2374965D01*
X-407291Y2419203D01*
X-407291Y2361592D01*
X-688035Y2361592D01*
X-690125Y2595424D01*
X-684454Y2722902D01*
X-670417Y2805036D01*
X-651656Y2854719D01*
X-621437Y2897301D01*
X-578088Y2936098D01*
X-518941Y2971223D01*
X-454014Y2994502D01*
X-361130Y3010830D01*
X-232078Y3017110D01*
X-123357Y3011248D01*
G37*
G36*
X-951892Y2987801D02*
G01*
X-1217231Y2987801D01*
X-1217231Y2839240D01*
X-1295109Y2919831D01*
X-1376546Y2974360D01*
X-1462896Y3006348D01*
X-1556393Y3017110D01*
X-1624992Y3011974D01*
X-1685000Y2997272D01*
X-1737835Y2973604D01*
X-1785114Y2940398D01*
X-1827028Y2896987D01*
X-1863864Y2841988D01*
X-1940275Y2920538D01*
X-2018562Y2973604D01*
X-2104374Y3006220D01*
X-2195882Y3017110D01*
X-2274542Y3011226D01*
X-2341500Y2994581D01*
X-2398756Y2968108D01*
X-2449040Y2930743D01*
X-2490187Y2883279D01*
X-2522770Y2824311D01*
X-2543552Y2743149D01*
X-2552446Y2597531D01*
X-2552446Y1897500D01*
X-2264484Y1897500D01*
X-2264484Y2522518D01*
X-2259831Y2633259D01*
X-2248775Y2698175D01*
X-2234808Y2732536D01*
X-2203782Y2766555D01*
X-2163769Y2787057D01*
X-2111801Y2794360D01*
X-2053647Y2785252D01*
X-1998045Y2757266D01*
X-1952968Y2712648D01*
X-1921200Y2648639D01*
X-1904690Y2566699D01*
X-1897661Y2422684D01*
X-1897661Y1897500D01*
X-1609699Y1897500D01*
X-1609699Y2496781D01*
X-1604648Y2642491D01*
X-1594312Y2702678D01*
X-1574036Y2744027D01*
X-1546593Y2771646D01*
X-1510500Y2788170D01*
X-1459032Y2794360D01*
X-1395513Y2785262D01*
X-1339139Y2758273D01*
X-1293919Y2715005D01*
X-1262752Y2654317D01*
X-1246731Y2575132D01*
X-1239763Y2428820D01*
X-1239763Y1897500D01*
X-951892Y1897500D01*
X-951892Y2987801D01*
G37*
G36*
X-3368860Y3011039D02*
G01*
X-3303326Y2993188D01*
X-3242035Y2963529D01*
X-3161541Y2902292D01*
X-3100618Y2827974D01*
X-3100618Y2987801D01*
X-2832165Y2987801D01*
X-2832165Y1481311D01*
X-3120127Y1481311D01*
X-3120127Y2027102D01*
X-3202986Y1949764D01*
X-3274275Y1904095D01*
X-3350773Y1877391D01*
X-3437765Y1868191D01*
X-3528866Y1877706D01*
X-3611771Y1905696D01*
X-3688521Y1952673D01*
X-3760440Y2020874D01*
X-3816157Y2100195D01*
X-3857668Y2195697D01*
X-3884204Y2310592D01*
X-3893705Y2448879D01*
X-3893679Y2449245D01*
X-3600706Y2449245D01*
X-3591632Y2325061D01*
X-3568112Y2238228D01*
X-3534027Y2179143D01*
X-3485003Y2132783D01*
X-3430114Y2105918D01*
X-3367057Y2096803D01*
X-3301540Y2106566D01*
X-3243198Y2135661D01*
X-3189737Y2186470D01*
X-3152024Y2250568D01*
X-3126627Y2340329D01*
X-3117013Y2463900D01*
X-3125993Y2571048D01*
X-3150110Y2651328D01*
X-3186714Y2710921D01*
X-3237839Y2757737D01*
X-3295441Y2785052D01*
X-3361928Y2794360D01*
X-3425605Y2785017D01*
X-3481538Y2757353D01*
X-3532012Y2709364D01*
X-3567715Y2648723D01*
X-3591667Y2564477D01*
X-3600706Y2449245D01*
X-3893679Y2449245D01*
X-3884327Y2583327D01*
X-3858086Y2695410D01*
X-3816933Y2788947D01*
X-3761540Y2866992D01*
X-3690266Y2933893D01*
X-3613890Y2980104D01*
X-3531075Y3007709D01*
X-3439780Y3017110D01*
X-3368860Y3011039D01*
G37*
G36*
X-5874454Y1897500D02*
G01*
X-5874454Y3403990D01*
X-6988293Y3403990D01*
X-6988293Y3151932D01*
X-6177712Y3151932D01*
X-6177712Y2817808D01*
X-6931873Y2817808D01*
X-6931873Y2565749D01*
X-6177712Y2565749D01*
X-6177712Y2149559D01*
X-7016961Y2149559D01*
X-7016961Y1897500D01*
X-5874454Y1897500D01*
G37*
G36*
X-7197121Y2378170D02*
G01*
X-7492227Y2407480D01*
X-7517959Y2314357D01*
X-7554340Y2244884D01*
X-7600304Y2194164D01*
X-7658229Y2157607D01*
X-7730255Y2134451D01*
X-7820123Y2126112D01*
X-7916173Y2134011D01*
X-7987914Y2155182D01*
X-8040949Y2187203D01*
X-8083392Y2231862D01*
X-8107320Y2278912D01*
X-8115229Y2330085D01*
X-8107255Y2379124D01*
X-8083997Y2419386D01*
X-8044930Y2451520D01*
X-7974820Y2483500D01*
X-7732012Y2550178D01*
X-7570688Y2599692D01*
X-7460791Y2650244D01*
X-7389737Y2700479D01*
X-7328292Y2767625D01*
X-7285682Y2839827D01*
X-7260147Y2918354D01*
X-7251434Y3005111D01*
X-7258617Y3080291D01*
X-7280078Y3151963D01*
X-7316464Y3221358D01*
X-7365444Y3282370D01*
X-7427347Y3333367D01*
X-7504042Y3374773D01*
X-7587317Y3403012D01*
X-7685015Y3421031D01*
X-7799607Y3427438D01*
X-7943031Y3418228D01*
X-8058627Y3392893D01*
X-8151393Y3353997D01*
X-8225413Y3302782D01*
X-8288006Y3235825D01*
X-8333515Y3159371D01*
X-8362874Y3071681D01*
X-8375531Y2970215D01*
X-8072182Y2958491D01*
X-8052634Y3032602D01*
X-8024462Y3086527D01*
X-7988651Y3124729D01*
X-7943081Y3151149D01*
X-7880748Y3168768D01*
X-7796584Y3175379D01*
X-7709850Y3168497D01*
X-7642177Y3149726D01*
X-7589588Y3120882D01*
X-7562580Y3094667D01*
X-7546825Y3064041D01*
X-7541411Y3027460D01*
X-7552390Y2978427D01*
X-7586474Y2935960D01*
X-7629636Y2909441D01*
X-7715386Y2875959D01*
X-7865186Y2834569D01*
X-8070918Y2776250D01*
X-8192532Y2725484D01*
X-8258766Y2683164D01*
X-8313718Y2632396D01*
X-8358495Y2572618D01*
X-8390886Y2505490D01*
X-8411268Y2426470D01*
X-8418487Y2333016D01*
X-8410564Y2248902D01*
X-8386887Y2168628D01*
X-8346772Y2090849D01*
X-8292776Y2022484D01*
X-8225742Y1966798D01*
X-8143897Y1923054D01*
X-8054754Y1893908D01*
X-7946933Y1875004D01*
X-7817009Y1868191D01*
X-7673231Y1877629D01*
X-7555213Y1903815D01*
X-7458504Y1944431D01*
X-7379478Y1998434D01*
X-7312935Y2068293D01*
X-7260226Y2153038D01*
X-7221246Y2255194D01*
X-7197121Y2378170D01*
G37*
G36*
X-9634634Y2454374D02*
G01*
X-9928733Y2360585D01*
X-9886770Y2239062D01*
X-9834942Y2139435D01*
X-9773963Y2058514D01*
X-9703785Y1993854D01*
X-9622690Y1942872D01*
X-9530507Y1905564D01*
X-9425307Y1882232D01*
X-9304723Y1874053D01*
X-9186366Y1882667D01*
X-9079680Y1907630D01*
X-8982782Y1948283D01*
X-8894166Y2004863D01*
X-8812787Y2078484D01*
X-8745696Y2162860D01*
X-8692635Y2259008D01*
X-8653458Y2368629D01*
X-8628824Y2493917D01*
X-8620171Y2637465D01*
X-8629028Y2790201D01*
X-8654106Y2922064D01*
X-8693715Y3036031D01*
X-8746963Y3134640D01*
X-8813794Y3219892D01*
X-8895437Y3294060D01*
X-8985729Y3351408D01*
X-9085886Y3392892D01*
X-9197637Y3418537D01*
X-9323132Y3427438D01*
X-9459211Y3416464D01*
X-9577222Y3385103D01*
X-9680331Y3334563D01*
X-9770921Y3264497D01*
X-9830897Y3194753D01*
X-9882395Y3103956D01*
X-9924611Y2987801D01*
X-9624375Y2917459D01*
X-9599521Y2991265D01*
X-9562549Y3052025D01*
X-9513184Y3101831D01*
X-9453709Y3139001D01*
X-9385956Y3161650D01*
X-9307745Y3169517D01*
X-9226544Y3161678D01*
X-9155561Y3139062D01*
X-9092720Y3101964D01*
X-9036636Y3049258D01*
X-8994984Y2987387D01*
X-8962468Y2905414D01*
X-8940739Y2798302D01*
X-8932680Y2659996D01*
X-8940800Y2512243D01*
X-8962507Y2399692D01*
X-8994610Y2315297D01*
X-9035170Y2253149D01*
X-9090588Y2199879D01*
X-9152456Y2162527D01*
X-9222115Y2139827D01*
X-9301608Y2131974D01*
X-9379243Y2140802D01*
X-9447853Y2166568D01*
X-9509612Y2209734D01*
X-9559228Y2267008D01*
X-9601311Y2346628D01*
X-9634634Y2454374D01*
G37*
G36*
X-10189767Y1897500D02*
G01*
X-10701028Y1897500D01*
X-10965058Y1901923D01*
X-11066843Y1907759D01*
X-11145602Y1922280D01*
X-11212821Y1946290D01*
X-11270267Y1979200D01*
X-11320974Y2021876D01*
X-11364248Y2073322D01*
X-11400418Y2134538D01*
X-11427092Y2200625D01*
X-11442821Y2267065D01*
X-11448045Y2334573D01*
X-11446734Y2347671D01*
X-11134529Y2347671D01*
X-11129371Y2295572D01*
X-11114950Y2253445D01*
X-11091939Y2219168D01*
X-11043658Y2180398D01*
X-10981847Y2158810D01*
X-10923154Y2152641D01*
X-10773843Y2149559D01*
X-10493117Y2149559D01*
X-10493117Y2554025D01*
X-10738031Y2554025D01*
X-10927083Y2546947D01*
X-11006943Y2532318D01*
X-11062412Y2503660D01*
X-11101739Y2463167D01*
X-11125985Y2411776D01*
X-11134529Y2347671D01*
X-11446734Y2347671D01*
X-11439580Y2419132D01*
X-11414970Y2494196D01*
X-11374223Y2561811D01*
X-11319496Y2618773D01*
X-11250067Y2664384D01*
X-11163197Y2698648D01*
X-11223936Y2733215D01*
X-11275017Y2777128D01*
X-11317436Y2831088D01*
X-11349080Y2892006D01*
X-11367942Y2956311D01*
X-11370280Y2981572D01*
X-11079208Y2981572D01*
X-11073949Y2935126D01*
X-11059017Y2896772D01*
X-11034603Y2864702D01*
X-10983487Y2829932D01*
X-10912237Y2811213D01*
X-10691869Y2806084D01*
X-10493117Y2806084D01*
X-10493117Y3151932D01*
X-10667323Y3151932D01*
X-10926526Y3146803D01*
X-10975146Y3136154D01*
X-11012437Y3118446D01*
X-11040740Y3094229D01*
X-11069141Y3045703D01*
X-11079208Y2981572D01*
X-11370280Y2981572D01*
X-11374314Y3025170D01*
X-11369042Y3088927D01*
X-11353618Y3147257D01*
X-11328152Y3201208D01*
X-11275714Y3272591D01*
X-11212931Y3326962D01*
X-11139724Y3365891D01*
X-11056127Y3389061D01*
X-10957175Y3399586D01*
X-10790238Y3403990D01*
X-10189767Y3403990D01*
X-10189767Y1897500D01*
G37*
G36*
X-11705050Y1897500D02*
G01*
X-12216311Y1897500D01*
X-12480341Y1901923D01*
X-12582126Y1907759D01*
X-12660884Y1922280D01*
X-12728104Y1946290D01*
X-12785550Y1979200D01*
X-12836256Y2021876D01*
X-12879531Y2073322D01*
X-12915700Y2134538D01*
X-12942374Y2200625D01*
X-12958104Y2267065D01*
X-12963328Y2334573D01*
X-12962017Y2347671D01*
X-12649812Y2347671D01*
X-12644653Y2295572D01*
X-12630233Y2253445D01*
X-12607222Y2219168D01*
X-12558940Y2180398D01*
X-12497129Y2158810D01*
X-12438436Y2152641D01*
X-12289126Y2149559D01*
X-12008399Y2149559D01*
X-12008399Y2554025D01*
X-12253314Y2554025D01*
X-12442366Y2546947D01*
X-12522225Y2532318D01*
X-12577695Y2503660D01*
X-12617022Y2463167D01*
X-12641268Y2411776D01*
X-12649812Y2347671D01*
X-12962017Y2347671D01*
X-12954863Y2419132D01*
X-12930253Y2494196D01*
X-12889505Y2561811D01*
X-12834779Y2618773D01*
X-12765349Y2664384D01*
X-12678480Y2698648D01*
X-12739218Y2733215D01*
X-12790300Y2777128D01*
X-12832719Y2831088D01*
X-12864363Y2892006D01*
X-12883225Y2956311D01*
X-12885563Y2981572D01*
X-12594491Y2981572D01*
X-12589232Y2935126D01*
X-12574300Y2896772D01*
X-12549886Y2864702D01*
X-12498769Y2829932D01*
X-12427520Y2811213D01*
X-12207152Y2806084D01*
X-12008399Y2806084D01*
X-12008399Y3151932D01*
X-12182606Y3151932D01*
X-12441808Y3146803D01*
X-12490428Y3136154D01*
X-12527720Y3118446D01*
X-12556022Y3094229D01*
X-12584424Y3045703D01*
X-12594491Y2981572D01*
X-12885563Y2981572D01*
X-12889597Y3025170D01*
X-12884324Y3088927D01*
X-12868900Y3147257D01*
X-12843435Y3201208D01*
X-12790996Y3272591D01*
X-12728214Y3326962D01*
X-12655007Y3365891D01*
X-12571410Y3389061D01*
X-12472457Y3399586D01*
X-12305521Y3403990D01*
X-11705050Y3403990D01*
X-11705050Y1897500D01*
G37*
G36*
X1680161Y-65626D02*
G01*
X1386062Y-159415D01*
X1428024Y-280938D01*
X1479852Y-380565D01*
X1540831Y-461486D01*
X1611009Y-526146D01*
X1692104Y-577128D01*
X1784287Y-614436D01*
X1889487Y-637768D01*
X2010072Y-645947D01*
X2128428Y-637333D01*
X2235114Y-612370D01*
X2332013Y-571717D01*
X2420628Y-515137D01*
X2502007Y-441516D01*
X2569098Y-357140D01*
X2622159Y-260992D01*
X2661337Y-151371D01*
X2685971Y-26083D01*
X2694623Y117465D01*
X2685766Y270201D01*
X2660689Y402064D01*
X2621079Y516031D01*
X2567831Y614640D01*
X2501000Y699892D01*
X2419357Y774060D01*
X2329065Y831408D01*
X2228908Y872892D01*
X2117157Y898537D01*
X1991662Y907438D01*
X1855584Y896464D01*
X1737572Y865103D01*
X1634463Y814563D01*
X1543873Y744497D01*
X1483897Y674753D01*
X1432400Y583956D01*
X1390183Y467801D01*
X1690419Y397459D01*
X1715273Y471265D01*
X1752245Y532025D01*
X1801610Y581831D01*
X1861085Y619001D01*
X1928839Y641650D01*
X2007049Y649517D01*
X2088250Y641678D01*
X2159233Y619062D01*
X2222074Y581964D01*
X2278159Y529258D01*
X2319810Y467387D01*
X2352326Y385414D01*
X2374055Y278302D01*
X2382114Y139996D01*
X2373994Y-7757D01*
X2352287Y-120308D01*
X2320184Y-204703D01*
X2279624Y-266851D01*
X2224206Y-320121D01*
X2162338Y-357473D01*
X2092679Y-380173D01*
X2013186Y-388026D01*
X1935551Y-379198D01*
X1866941Y-353432D01*
X1805182Y-310266D01*
X1755566Y-252992D01*
X1713484Y-173372D01*
X1680161Y-65626D01*
G37*
G36*
X582164Y900375D02*
G01*
X689460Y880151D01*
X784766Y847812D01*
X852214Y813701D01*
X916840Y768745D01*
X979031Y711982D01*
X1058341Y614428D01*
X1118799Y505261D01*
X1155418Y398814D01*
X1179023Y271206D01*
X1187492Y118564D01*
X1178600Y-27139D01*
X1153304Y-154029D01*
X1113093Y-264811D01*
X1058636Y-361765D01*
X989747Y-446645D01*
X906984Y-519167D01*
X814021Y-575767D01*
X709418Y-617078D01*
X591201Y-642820D01*
X456962Y-651809D01*
X324595Y-642828D01*
X207645Y-617062D01*
X103779Y-575626D01*
X11093Y-518722D01*
X-71793Y-445637D01*
X-140519Y-360454D01*
X-194954Y-262802D01*
X-235227Y-150855D01*
X-260605Y-22252D01*
X-269539Y125800D01*
X-269108Y132944D01*
X43978Y132944D01*
X52593Y-675D01*
X76260Y-108043D01*
X112552Y-193917D01*
X160298Y-262180D01*
X222870Y-320060D01*
X292263Y-360689D01*
X369915Y-385366D01*
X457969Y-393888D01*
X545954Y-385335D01*
X623870Y-360523D01*
X693816Y-319589D01*
X757197Y-261173D01*
X805862Y-192226D01*
X842587Y-106732D01*
X866372Y-1165D01*
X874983Y128822D01*
X866460Y261513D01*
X843072Y367855D01*
X807262Y452653D01*
X760220Y519824D01*
X698566Y576365D01*
X628844Y616417D01*
X549435Y640971D01*
X457969Y649517D01*
X366344Y641030D01*
X287161Y616701D01*
X217997Y577120D01*
X157184Y521381D01*
X110861Y455049D01*
X75530Y370997D01*
X52414Y265251D01*
X43978Y132944D01*
X-269108Y132944D01*
X-260521Y275130D01*
X-234918Y404666D01*
X-194315Y517260D01*
X-139463Y615322D01*
X-70236Y700717D01*
X13275Y774024D01*
X106532Y831088D01*
X210906Y872627D01*
X328288Y898443D01*
X460992Y907438D01*
X582164Y900375D01*
G37*
G36*
X-502363Y-622500D02*
G01*
X-502363Y883990D01*
X-956288Y883990D01*
X-1228863Y-143661D01*
X-1498324Y883990D01*
X-1953349Y883990D01*
X-1953349Y-622500D01*
X-1671523Y-622500D01*
X-1671523Y563330D01*
X-1373394Y-622500D01*
X-1081310Y-622500D01*
X-784189Y563330D01*
X-784189Y-622500D01*
X-502363Y-622500D01*
G37*
G36*
X-2250653Y-622500D02*
G01*
X-2250653Y883990D01*
X-2704579Y883990D01*
X-2977154Y-143661D01*
X-3246615Y883990D01*
X-3701639Y883990D01*
X-3701639Y-622500D01*
X-3419813Y-622500D01*
X-3419813Y563330D01*
X-3121684Y-622500D01*
X-2829600Y-622500D01*
X-2532479Y563330D01*
X-2532479Y-622500D01*
X-2250653Y-622500D01*
G37*
G36*
X-5752821Y-622500D02*
G01*
X-5752821Y883990D01*
X-6866660Y883990D01*
X-6866660Y631932D01*
X-6056079Y631932D01*
X-6056079Y297808D01*
X-6810240Y297808D01*
X-6810240Y45749D01*
X-6056079Y45749D01*
X-6056079Y-370441D01*
X-6895328Y-370441D01*
X-6895328Y-622500D01*
X-5752821Y-622500D01*
G37*
G36*
X-7075488Y-141830D02*
G01*
X-7370594Y-112520D01*
X-7396326Y-205643D01*
X-7432707Y-275116D01*
X-7478671Y-325836D01*
X-7536596Y-362393D01*
X-7608622Y-385549D01*
X-7698490Y-393888D01*
X-7794540Y-385989D01*
X-7866281Y-364818D01*
X-7919316Y-332797D01*
X-7961759Y-288138D01*
X-7985687Y-241088D01*
X-7993596Y-189915D01*
X-7985622Y-140876D01*
X-7962364Y-100614D01*
X-7923297Y-68480D01*
X-7853187Y-36500D01*
X-7610379Y30178D01*
X-7449056Y79692D01*
X-7339158Y130244D01*
X-7268104Y180479D01*
X-7206659Y247625D01*
X-7164049Y319827D01*
X-7138514Y398354D01*
X-7129801Y485111D01*
X-7136984Y560291D01*
X-7158445Y631963D01*
X-7194831Y701358D01*
X-7243811Y762370D01*
X-7305714Y813367D01*
X-7382409Y854773D01*
X-7465684Y883012D01*
X-7563382Y901031D01*
X-7677974Y907438D01*
X-7821398Y898228D01*
X-7936994Y872893D01*
X-8029760Y833997D01*
X-8103781Y782782D01*
X-8166373Y715825D01*
X-8211882Y639371D01*
X-8241241Y551681D01*
X-8253898Y450215D01*
X-7950549Y438491D01*
X-7931001Y512602D01*
X-7902829Y566527D01*
X-7867018Y604729D01*
X-7821448Y631149D01*
X-7759115Y648768D01*
X-7674951Y655379D01*
X-7588217Y648497D01*
X-7520544Y629726D01*
X-7467955Y600882D01*
X-7440947Y574667D01*
X-7425192Y544041D01*
X-7419778Y507460D01*
X-7430757Y458427D01*
X-7464841Y415960D01*
X-7508003Y389441D01*
X-7593753Y355959D01*
X-7743553Y314569D01*
X-7949285Y256250D01*
X-8070899Y205484D01*
X-8137133Y163164D01*
X-8192085Y112396D01*
X-8236862Y52618D01*
X-8269253Y-14510D01*
X-8289635Y-93530D01*
X-8296854Y-186984D01*
X-8288931Y-271098D01*
X-8265254Y-351372D01*
X-8225139Y-429151D01*
X-8171143Y-497516D01*
X-8104109Y-553202D01*
X-8022264Y-596946D01*
X-7933121Y-626092D01*
X-7825300Y-644996D01*
X-7695376Y-651809D01*
X-7551599Y-642371D01*
X-7433580Y-616185D01*
X-7336871Y-575569D01*
X-7257845Y-521566D01*
X-7191302Y-451707D01*
X-7138593Y-366962D01*
X-7099613Y-264806D01*
X-7075488Y-141830D01*
G37*
G36*
X-9513001Y-65626D02*
G01*
X-9807100Y-159415D01*
X-9765137Y-280938D01*
X-9713309Y-380565D01*
X-9652330Y-461486D01*
X-9582152Y-526146D01*
X-9501057Y-577128D01*
X-9408874Y-614436D01*
X-9303674Y-637768D01*
X-9183090Y-645947D01*
X-9064733Y-637333D01*
X-8958047Y-612370D01*
X-8861149Y-571717D01*
X-8772533Y-515137D01*
X-8691154Y-441516D01*
X-8624063Y-357140D01*
X-8571002Y-260992D01*
X-8531825Y-151371D01*
X-8507191Y-26083D01*
X-8498538Y117465D01*
X-8507395Y270201D01*
X-8532473Y402064D01*
X-8572082Y516031D01*
X-8625330Y614640D01*
X-8692162Y699892D01*
X-8773804Y774060D01*
X-8864096Y831408D01*
X-8964253Y872892D01*
X-9076004Y898537D01*
X-9201499Y907438D01*
X-9337578Y896464D01*
X-9455589Y865103D01*
X-9558698Y814563D01*
X-9649288Y744497D01*
X-9709264Y674753D01*
X-9760762Y583956D01*
X-9802978Y467801D01*
X-9502742Y397459D01*
X-9477889Y471265D01*
X-9440916Y532025D01*
X-9391551Y581831D01*
X-9332076Y619001D01*
X-9264323Y641650D01*
X-9186112Y649517D01*
X-9104911Y641678D01*
X-9033928Y619062D01*
X-8971087Y581964D01*
X-8915003Y529258D01*
X-8873351Y467387D01*
X-8840835Y385414D01*
X-8819106Y278302D01*
X-8811047Y139996D01*
X-8819167Y-7757D01*
X-8840874Y-120308D01*
X-8872977Y-204703D01*
X-8913537Y-266851D01*
X-8968955Y-320121D01*
X-9030823Y-357473D01*
X-9100482Y-380173D01*
X-9179976Y-388026D01*
X-9257610Y-379198D01*
X-9326220Y-353432D01*
X-9387979Y-310266D01*
X-9437595Y-252992D01*
X-9479678Y-173372D01*
X-9513001Y-65626D01*
G37*
G36*
X-9894935Y-1038689D02*
G01*
X-9894935Y-851111D01*
X-11091756Y-851111D01*
X-11091756Y-1038689D01*
X-9894935Y-1038689D01*
G37*
G36*
X-11234638Y-622500D02*
G01*
X-11745899Y-622500D01*
X-12009929Y-618077D01*
X-12111714Y-612241D01*
X-12190472Y-597720D01*
X-12257692Y-573710D01*
X-12315138Y-540800D01*
X-12365845Y-498124D01*
X-12409119Y-446678D01*
X-12445289Y-385462D01*
X-12471963Y-319375D01*
X-12487692Y-252935D01*
X-12492916Y-185427D01*
X-12491605Y-172329D01*
X-12179400Y-172329D01*
X-12174241Y-224428D01*
X-12159821Y-266555D01*
X-12136810Y-300832D01*
X-12088529Y-339602D01*
X-12026718Y-361190D01*
X-11968025Y-367359D01*
X-11818714Y-370441D01*
X-11537988Y-370441D01*
X-11537988Y34025D01*
X-11782902Y34025D01*
X-11971954Y26947D01*
X-12051813Y12318D01*
X-12107283Y-16340D01*
X-12146610Y-56833D01*
X-12170856Y-108224D01*
X-12179400Y-172329D01*
X-12491605Y-172329D01*
X-12484451Y-100868D01*
X-12459841Y-25804D01*
X-12419094Y41811D01*
X-12364367Y98773D01*
X-12294937Y144384D01*
X-12208068Y178648D01*
X-12268807Y213215D01*
X-12319888Y257128D01*
X-12362307Y311088D01*
X-12393951Y372006D01*
X-12412813Y436311D01*
X-12415151Y461572D01*
X-12124079Y461572D01*
X-12118820Y415126D01*
X-12103888Y376772D01*
X-12079474Y344702D01*
X-12028358Y309932D01*
X-11957108Y291213D01*
X-11736740Y286084D01*
X-11537988Y286084D01*
X-11537988Y631932D01*
X-11712194Y631932D01*
X-11971397Y626803D01*
X-12020017Y616154D01*
X-12057308Y598446D01*
X-12085611Y574229D01*
X-12114012Y525703D01*
X-12124079Y461572D01*
X-12415151Y461572D01*
X-12419185Y505170D01*
X-12413913Y568927D01*
X-12398489Y627257D01*
X-12373023Y681208D01*
X-12320584Y752591D01*
X-12257802Y806962D01*
X-12184595Y845891D01*
X-12100998Y869061D01*
X-12002046Y879586D01*
X-11835109Y883990D01*
X-11234638Y883990D01*
X-11234638Y-622500D01*
G37*
G36*
X-12749921Y-622500D02*
G01*
X-13261182Y-622500D01*
X-13525212Y-618077D01*
X-13626997Y-612241D01*
X-13705755Y-597720D01*
X-13772974Y-573710D01*
X-13830420Y-540800D01*
X-13881127Y-498124D01*
X-13924402Y-446678D01*
X-13960571Y-385462D01*
X-13987245Y-319375D01*
X-14002974Y-252935D01*
X-14008199Y-185427D01*
X-14006888Y-172329D01*
X-13694682Y-172329D01*
X-13689524Y-224428D01*
X-13675103Y-266555D01*
X-13652093Y-300832D01*
X-13603811Y-339602D01*
X-13542000Y-361190D01*
X-13483307Y-367359D01*
X-13333997Y-370441D01*
X-13053270Y-370441D01*
X-13053270Y34025D01*
X-13298185Y34025D01*
X-13487237Y26947D01*
X-13567096Y12318D01*
X-13622566Y-16340D01*
X-13661893Y-56833D01*
X-13686139Y-108224D01*
X-13694682Y-172329D01*
X-14006888Y-172329D01*
X-13999734Y-100868D01*
X-13975123Y-25804D01*
X-13934376Y41811D01*
X-13879649Y98773D01*
X-13810220Y144384D01*
X-13723350Y178648D01*
X-13784089Y213215D01*
X-13835171Y257128D01*
X-13877590Y311088D01*
X-13909234Y372006D01*
X-13928095Y436311D01*
X-13930433Y461572D01*
X-13639361Y461572D01*
X-13634103Y415126D01*
X-13619171Y376772D01*
X-13594757Y344702D01*
X-13543640Y309932D01*
X-13472391Y291213D01*
X-13252023Y286084D01*
X-13053270Y286084D01*
X-13053270Y631932D01*
X-13227476Y631932D01*
X-13486679Y626803D01*
X-13535299Y616154D01*
X-13572591Y598446D01*
X-13600893Y574229D01*
X-13629294Y525703D01*
X-13639361Y461572D01*
X-13930433Y461572D01*
X-13934468Y505170D01*
X-13929195Y568927D01*
X-13913771Y627257D01*
X-13888306Y681208D01*
X-13835867Y752591D01*
X-13773084Y806962D01*
X-13699878Y845891D01*
X-13616281Y869061D01*
X-13517328Y879586D01*
X-13350392Y883990D01*
X-12749921Y883990D01*
X-12749921Y-622500D01*
G37*
G36*
X-14092005Y-1038689D02*
G01*
X-14092005Y-851111D01*
X-15288825Y-851111D01*
X-15288825Y-1038689D01*
X-14092005Y-1038689D01*
G37*
G36*
X-15430700Y-622500D02*
G01*
X-15733958Y-622500D01*
X-15733958Y-53902D01*
X-15931703Y-53902D01*
X-16125523Y-47619D01*
X-16246318Y-32287D01*
X-16324247Y-6375D01*
X-16403671Y39063D01*
X-16451390Y78694D01*
X-16493868Y127792D01*
X-16531258Y187532D01*
X-16558200Y252416D01*
X-16575343Y329356D01*
X-16581138Y416052D01*
X-16268849Y416052D01*
X-16260056Y351729D01*
X-16234503Y297166D01*
X-16193961Y253167D01*
X-16139706Y222153D01*
X-16064454Y205797D01*
X-15899921Y198156D01*
X-15733958Y198156D01*
X-15733958Y631932D01*
X-15880503Y631932D01*
X-16030879Y628592D01*
X-16098765Y621490D01*
X-16145494Y607762D01*
X-16185772Y585302D01*
X-16220673Y553713D01*
X-16247029Y515126D01*
X-16263183Y469845D01*
X-16268849Y416052D01*
X-16581138Y416052D01*
X-16581450Y420723D01*
X-16570922Y537670D01*
X-16541376Y634035D01*
X-16494347Y713906D01*
X-16430550Y781674D01*
X-16358936Y830229D01*
X-16278100Y861367D01*
X-16170390Y876628D01*
X-15917414Y883990D01*
X-15430700Y883990D01*
X-15430700Y-622500D01*
G37*
G36*
X-17043343Y-622500D02*
G01*
X-16684673Y883990D01*
X-16995167Y883990D01*
X-17221671Y-150806D01*
X-17496261Y883990D01*
X-17856947Y883990D01*
X-18120271Y-168299D01*
X-18350806Y883990D01*
X-18656171Y883990D01*
X-18291363Y-622500D01*
X-17969604Y-622500D01*
X-17670468Y503796D01*
X-17372247Y-622500D01*
X-17043343Y-622500D01*
G37*
G36*
X-18812517Y-622500D02*
G01*
X-19115866Y-622500D01*
X-19115866Y4716D01*
X-19177324Y4716D01*
X-19274730Y-345D01*
X-19330006Y-12228D01*
X-19375720Y-35446D01*
X-19421231Y-74602D01*
X-19471537Y-137226D01*
X-19581057Y-295153D01*
X-19800326Y-622500D01*
X-20163027Y-622500D01*
X-19979662Y-329408D01*
X-19873857Y-169155D01*
X-19806921Y-85501D01*
X-19736308Y-21180D01*
X-19644530Y40620D01*
X-19742870Y61785D01*
X-19823358Y92631D01*
X-19888870Y132150D01*
X-19941651Y180113D01*
X-19984537Y238119D01*
X-20015401Y303261D01*
X-20034476Y376884D01*
X-20039682Y442613D01*
X-19728610Y442613D01*
X-19720484Y378132D01*
X-19697836Y328216D01*
X-19661475Y289418D01*
X-19612839Y263736D01*
X-19538580Y251362D01*
X-19340264Y245051D01*
X-19115866Y245051D01*
X-19115866Y631932D01*
X-19352537Y631932D01*
X-19573913Y626711D01*
X-19640664Y604826D01*
X-19688127Y566902D01*
X-19710041Y533298D01*
X-19723733Y492500D01*
X-19728610Y442613D01*
X-20039682Y442613D01*
X-20041119Y460748D01*
X-20033582Y548101D01*
X-20011643Y626836D01*
X-19975540Y698610D01*
X-19926283Y761648D01*
X-19868398Y809384D01*
X-19800784Y843324D01*
X-19725950Y863586D01*
X-19613276Y878248D01*
X-19450906Y883990D01*
X-18812517Y883990D01*
X-18812517Y-622500D01*
G37*
G36*
X-1402065Y-1619625D02*
G01*
X-1294769Y-1639849D01*
X-1199463Y-1672188D01*
X-1132015Y-1706299D01*
X-1067388Y-1751255D01*
X-1005198Y-1808018D01*
X-925888Y-1905572D01*
X-865430Y-2014739D01*
X-828811Y-2121186D01*
X-805206Y-2248794D01*
X-796737Y-2401436D01*
X-805629Y-2547139D01*
X-830925Y-2674029D01*
X-871136Y-2784811D01*
X-925593Y-2881765D01*
X-994482Y-2966645D01*
X-1077245Y-3039167D01*
X-1170208Y-3095767D01*
X-1274811Y-3137078D01*
X-1393028Y-3162820D01*
X-1527267Y-3171809D01*
X-1659634Y-3162828D01*
X-1776584Y-3137062D01*
X-1880450Y-3095626D01*
X-1973136Y-3038722D01*
X-2056022Y-2965637D01*
X-2124748Y-2880454D01*
X-2179183Y-2782802D01*
X-2219456Y-2670855D01*
X-2244834Y-2542252D01*
X-2253767Y-2394200D01*
X-2253336Y-2387056D01*
X-1940251Y-2387056D01*
X-1931636Y-2520675D01*
X-1907969Y-2628043D01*
X-1871676Y-2713917D01*
X-1823931Y-2782180D01*
X-1761359Y-2840060D01*
X-1691966Y-2880689D01*
X-1614314Y-2905366D01*
X-1526260Y-2913888D01*
X-1438274Y-2905335D01*
X-1360359Y-2880523D01*
X-1290413Y-2839589D01*
X-1227032Y-2781173D01*
X-1178367Y-2712226D01*
X-1141642Y-2626732D01*
X-1117857Y-2521165D01*
X-1109245Y-2391178D01*
X-1117769Y-2258487D01*
X-1141157Y-2152145D01*
X-1176967Y-2067347D01*
X-1224009Y-2000176D01*
X-1285663Y-1943635D01*
X-1355385Y-1903583D01*
X-1434794Y-1879029D01*
X-1526260Y-1870483D01*
X-1617885Y-1878970D01*
X-1697068Y-1903299D01*
X-1766232Y-1942880D01*
X-1827045Y-1998619D01*
X-1873368Y-2064951D01*
X-1908699Y-2149003D01*
X-1931815Y-2254749D01*
X-1940251Y-2387056D01*
X-2253336Y-2387056D01*
X-2244750Y-2244870D01*
X-2219147Y-2115334D01*
X-2178544Y-2002740D01*
X-2123692Y-1904678D01*
X-2054465Y-1819283D01*
X-1970954Y-1745976D01*
X-1877697Y-1688912D01*
X-1773322Y-1647373D01*
X-1655941Y-1621557D01*
X-1523237Y-1612562D01*
X-1402065Y-1619625D01*
G37*
G36*
X-2493828Y-3142500D02*
G01*
X-2493828Y-1636010D01*
X-2788934Y-1636010D01*
X-3403693Y-2644519D01*
X-3403693Y-1636010D01*
X-3685519Y-1636010D01*
X-3685519Y-3142500D01*
X-3381162Y-3142500D01*
X-2775562Y-2149011D01*
X-2775562Y-3142500D01*
X-2493828Y-3142500D01*
G37*
G36*
X-5755752Y-3142500D02*
G01*
X-5755752Y-1636010D01*
X-6869591Y-1636010D01*
X-6869591Y-1888068D01*
X-6059010Y-1888068D01*
X-6059010Y-2222192D01*
X-6813171Y-2222192D01*
X-6813171Y-2474251D01*
X-6059010Y-2474251D01*
X-6059010Y-2890441D01*
X-6898259Y-2890441D01*
X-6898259Y-3142500D01*
X-5755752Y-3142500D01*
G37*
G36*
X-7078419Y-2661830D02*
G01*
X-7373525Y-2632520D01*
X-7399257Y-2725643D01*
X-7435638Y-2795116D01*
X-7481602Y-2845836D01*
X-7539527Y-2882393D01*
X-7611553Y-2905549D01*
X-7701421Y-2913888D01*
X-7797471Y-2905989D01*
X-7869212Y-2884818D01*
X-7922247Y-2852797D01*
X-7964690Y-2808138D01*
X-7988618Y-2761088D01*
X-7996527Y-2709915D01*
X-7988553Y-2660876D01*
X-7965295Y-2620614D01*
X-7926228Y-2588480D01*
X-7856118Y-2556500D01*
X-7613310Y-2489822D01*
X-7451986Y-2440308D01*
X-7342089Y-2389756D01*
X-7271035Y-2339521D01*
X-7209590Y-2272375D01*
X-7166980Y-2200173D01*
X-7141445Y-2121646D01*
X-7132732Y-2034889D01*
X-7139915Y-1959709D01*
X-7161376Y-1888037D01*
X-7197762Y-1818642D01*
X-7246742Y-1757630D01*
X-7308645Y-1706633D01*
X-7385340Y-1665227D01*
X-7468615Y-1636988D01*
X-7566313Y-1618969D01*
X-7680905Y-1612562D01*
X-7824329Y-1621772D01*
X-7939925Y-1647107D01*
X-8032691Y-1686003D01*
X-8106711Y-1737218D01*
X-8169304Y-1804175D01*
X-8214813Y-1880629D01*
X-8244172Y-1968319D01*
X-8256829Y-2069785D01*
X-7953480Y-2081509D01*
X-7933932Y-2007398D01*
X-7905760Y-1953473D01*
X-7869949Y-1915271D01*
X-7824379Y-1888851D01*
X-7762046Y-1871232D01*
X-7677882Y-1864621D01*
X-7591148Y-1871503D01*
X-7523475Y-1890274D01*
X-7470886Y-1919118D01*
X-7443878Y-1945333D01*
X-7428123Y-1975959D01*
X-7422709Y-2012540D01*
X-7433688Y-2061573D01*
X-7467772Y-2104040D01*
X-7510934Y-2130559D01*
X-7596684Y-2164041D01*
X-7746484Y-2205431D01*
X-7952216Y-2263750D01*
X-8073830Y-2314516D01*
X-8140064Y-2356836D01*
X-8195016Y-2407604D01*
X-8239793Y-2467382D01*
X-8272184Y-2534510D01*
X-8292566Y-2613530D01*
X-8299785Y-2706984D01*
X-8291862Y-2791098D01*
X-8268185Y-2871372D01*
X-8228070Y-2949151D01*
X-8174074Y-3017516D01*
X-8107040Y-3073202D01*
X-8025195Y-3116946D01*
X-7936052Y-3146092D01*
X-7828231Y-3164996D01*
X-7698307Y-3171809D01*
X-7554529Y-3162371D01*
X-7436511Y-3136185D01*
X-7339802Y-3095569D01*
X-7260776Y-3041566D01*
X-7194233Y-2971707D01*
X-7141524Y-2886962D01*
X-7102543Y-2784806D01*
X-7078419Y-2661830D01*
G37*
G36*
X-9515932Y-2585626D02*
G01*
X-9810031Y-2679415D01*
X-9768068Y-2800938D01*
X-9716240Y-2900565D01*
X-9655261Y-2981486D01*
X-9585083Y-3046146D01*
X-9503988Y-3097128D01*
X-9411805Y-3134436D01*
X-9306605Y-3157768D01*
X-9186021Y-3165947D01*
X-9067664Y-3157333D01*
X-8960978Y-3132370D01*
X-8864079Y-3091717D01*
X-8775464Y-3035137D01*
X-8694085Y-2961516D01*
X-8626994Y-2877140D01*
X-8573933Y-2780992D01*
X-8534756Y-2671371D01*
X-8510122Y-2546083D01*
X-8501469Y-2402535D01*
X-8510326Y-2249799D01*
X-8535404Y-2117936D01*
X-8575013Y-2003969D01*
X-8628261Y-1905360D01*
X-8695092Y-1820108D01*
X-8776735Y-1745940D01*
X-8867027Y-1688592D01*
X-8967184Y-1647108D01*
X-9078935Y-1621463D01*
X-9204430Y-1612562D01*
X-9340509Y-1623536D01*
X-9458520Y-1654897D01*
X-9561629Y-1705437D01*
X-9652219Y-1775503D01*
X-9712195Y-1845247D01*
X-9763693Y-1936044D01*
X-9805909Y-2052199D01*
X-9505673Y-2122541D01*
X-9480819Y-2048735D01*
X-9443847Y-1987975D01*
X-9394482Y-1938169D01*
X-9335007Y-1900999D01*
X-9267254Y-1878350D01*
X-9189043Y-1870483D01*
X-9107842Y-1878322D01*
X-9036859Y-1900938D01*
X-8974018Y-1938036D01*
X-8917934Y-1990742D01*
X-8876282Y-2052613D01*
X-8843766Y-2134586D01*
X-8822037Y-2241698D01*
X-8813978Y-2380004D01*
X-8822098Y-2527757D01*
X-8843805Y-2640308D01*
X-8875908Y-2724703D01*
X-8916468Y-2786851D01*
X-8971886Y-2840121D01*
X-9033754Y-2877473D01*
X-9103413Y-2900173D01*
X-9182906Y-2908026D01*
X-9260541Y-2899198D01*
X-9329151Y-2873432D01*
X-9390910Y-2830266D01*
X-9440526Y-2772992D01*
X-9482609Y-2693372D01*
X-9515932Y-2585626D01*
G37*
G36*
X-9897866Y-3558689D02*
G01*
X-9897866Y-3371111D01*
X-11094687Y-3371111D01*
X-11094687Y-3558689D01*
X-9897866Y-3558689D01*
G37*
G36*
X-11159716Y-2661830D02*
G01*
X-11454823Y-2632520D01*
X-11480555Y-2725643D01*
X-11516936Y-2795116D01*
X-11562900Y-2845836D01*
X-11620825Y-2882393D01*
X-11692851Y-2905549D01*
X-11782719Y-2913888D01*
X-11878769Y-2905989D01*
X-11950510Y-2884818D01*
X-12003545Y-2852797D01*
X-12045988Y-2808138D01*
X-12069916Y-2761088D01*
X-12077825Y-2709915D01*
X-12069851Y-2660876D01*
X-12046593Y-2620614D01*
X-12007526Y-2588480D01*
X-11937416Y-2556500D01*
X-11694608Y-2489822D01*
X-11533284Y-2440308D01*
X-11423387Y-2389756D01*
X-11352332Y-2339521D01*
X-11290888Y-2272375D01*
X-11248278Y-2200173D01*
X-11222743Y-2121646D01*
X-11214030Y-2034889D01*
X-11221212Y-1959709D01*
X-11242674Y-1888037D01*
X-11279060Y-1818642D01*
X-11328040Y-1757630D01*
X-11389943Y-1706633D01*
X-11466638Y-1665227D01*
X-11549913Y-1636988D01*
X-11647611Y-1618969D01*
X-11762203Y-1612562D01*
X-11905627Y-1621772D01*
X-12021223Y-1647107D01*
X-12113989Y-1686003D01*
X-12188009Y-1737218D01*
X-12250602Y-1804175D01*
X-12296111Y-1880629D01*
X-12325470Y-1968319D01*
X-12338127Y-2069785D01*
X-12034778Y-2081509D01*
X-12015230Y-2007398D01*
X-11987058Y-1953473D01*
X-11951246Y-1915271D01*
X-11905677Y-1888851D01*
X-11843344Y-1871232D01*
X-11759180Y-1864621D01*
X-11672446Y-1871503D01*
X-11604773Y-1890274D01*
X-11552184Y-1919118D01*
X-11525176Y-1945333D01*
X-11509421Y-1975959D01*
X-11504007Y-2012540D01*
X-11514986Y-2061573D01*
X-11549070Y-2104040D01*
X-11592232Y-2130559D01*
X-11677982Y-2164041D01*
X-11827782Y-2205431D01*
X-12033514Y-2263750D01*
X-12155128Y-2314516D01*
X-12221362Y-2356836D01*
X-12276314Y-2407604D01*
X-12321091Y-2467382D01*
X-12353482Y-2534510D01*
X-12373864Y-2613530D01*
X-12381083Y-2706984D01*
X-12373160Y-2791098D01*
X-12349483Y-2871372D01*
X-12309368Y-2949151D01*
X-12255372Y-3017516D01*
X-12188338Y-3073202D01*
X-12106493Y-3116946D01*
X-12017350Y-3146092D01*
X-11909529Y-3164996D01*
X-11779605Y-3171809D01*
X-11635827Y-3162371D01*
X-11517809Y-3136185D01*
X-11421100Y-3095569D01*
X-11342074Y-3041566D01*
X-11275531Y-2971707D01*
X-11222822Y-2886962D01*
X-11183841Y-2784806D01*
X-11159716Y-2661830D01*
G37*
G36*
X-12637080Y-3142500D02*
G01*
X-13148342Y-3142500D01*
X-13412372Y-3138077D01*
X-13514156Y-3132241D01*
X-13592915Y-3117720D01*
X-13660134Y-3093710D01*
X-13717580Y-3060800D01*
X-13768287Y-3018124D01*
X-13811561Y-2966678D01*
X-13847731Y-2905462D01*
X-13874405Y-2839375D01*
X-13890134Y-2772935D01*
X-13895358Y-2705427D01*
X-13894047Y-2692329D01*
X-13581842Y-2692329D01*
X-13576684Y-2744428D01*
X-13562263Y-2786555D01*
X-13539252Y-2820832D01*
X-13490971Y-2859602D01*
X-13429160Y-2881190D01*
X-13370467Y-2887359D01*
X-13221157Y-2890441D01*
X-12940430Y-2890441D01*
X-12940430Y-2485975D01*
X-13185345Y-2485975D01*
X-13374396Y-2493053D01*
X-13454256Y-2507682D01*
X-13509725Y-2536340D01*
X-13549053Y-2576833D01*
X-13573298Y-2628224D01*
X-13581842Y-2692329D01*
X-13894047Y-2692329D01*
X-13886893Y-2620868D01*
X-13862283Y-2545804D01*
X-13821536Y-2478189D01*
X-13766809Y-2421227D01*
X-13697380Y-2375616D01*
X-13610510Y-2341352D01*
X-13671249Y-2306785D01*
X-13722330Y-2262872D01*
X-13764750Y-2208912D01*
X-13796393Y-2147994D01*
X-13815255Y-2083689D01*
X-13817593Y-2058428D01*
X-13526521Y-2058428D01*
X-13521263Y-2104874D01*
X-13506330Y-2143228D01*
X-13481916Y-2175298D01*
X-13430800Y-2210068D01*
X-13359551Y-2228787D01*
X-13139183Y-2233916D01*
X-12940430Y-2233916D01*
X-12940430Y-1888068D01*
X-13114636Y-1888068D01*
X-13373839Y-1893197D01*
X-13422459Y-1903846D01*
X-13459750Y-1921554D01*
X-13488053Y-1945771D01*
X-13516454Y-1994297D01*
X-13526521Y-2058428D01*
X-13817593Y-2058428D01*
X-13821628Y-2014830D01*
X-13816355Y-1951073D01*
X-13800931Y-1892743D01*
X-13775466Y-1838792D01*
X-13723027Y-1767409D01*
X-13660244Y-1713038D01*
X-13587038Y-1674109D01*
X-13503440Y-1650939D01*
X-13404488Y-1640414D01*
X-13237551Y-1636010D01*
X-12637080Y-1636010D01*
X-12637080Y-3142500D01*
G37*
G36*
X-390530Y-5111488D02*
G01*
X-390530Y-4859429D01*
X-1044216Y-4859429D01*
X-1044216Y-5460358D01*
X-976566Y-5515407D01*
X-886090Y-5569443D01*
X-768069Y-5622016D01*
X-645946Y-5661049D01*
X-524114Y-5684146D01*
X-401704Y-5691809D01*
X-283949Y-5685185D01*
X-177114Y-5666024D01*
X-79808Y-5635068D01*
X9173Y-5592616D01*
X91548Y-5537471D01*
X162352Y-5472270D01*
X222523Y-5396378D01*
X272497Y-5308683D01*
X321142Y-5183007D01*
X350594Y-5049678D01*
X360608Y-4907056D01*
X354122Y-4789544D01*
X335243Y-4681367D01*
X304552Y-4581354D01*
X262239Y-4488485D01*
X207309Y-4402216D01*
X141529Y-4327189D01*
X64237Y-4262484D01*
X-25723Y-4207667D01*
X-124798Y-4167479D01*
X-243402Y-4141763D01*
X-385401Y-4132562D01*
X-527061Y-4141017D01*
X-644617Y-4164540D01*
X-741965Y-4201028D01*
X-822382Y-4249341D01*
X-893652Y-4312894D01*
X-950709Y-4386930D01*
X-994440Y-4472720D01*
X-1024798Y-4572199D01*
X-723555Y-4630818D01*
X-695673Y-4560858D01*
X-656049Y-4502814D01*
X-604121Y-4454963D01*
X-542801Y-4419947D01*
X-470751Y-4398165D01*
X-385401Y-4390483D01*
X-287747Y-4399041D01*
X-204144Y-4423429D01*
X-131961Y-4462766D01*
X-69320Y-4517611D01*
X-20808Y-4583842D01*
X15750Y-4666274D01*
X39428Y-4768406D01*
X48008Y-4894600D01*
X39207Y-5031399D01*
X15031Y-5141311D01*
X-22035Y-5229208D01*
X-70786Y-5299066D01*
X-134695Y-5357946D01*
X-206696Y-5399570D01*
X-288425Y-5425038D01*
X-382287Y-5433888D01*
X-476848Y-5424609D01*
X-573438Y-5396061D01*
X-664158Y-5353242D01*
X-737844Y-5304287D01*
X-737844Y-5111488D01*
X-390530Y-5111488D01*
G37*
G36*
X-1327324Y-5662500D02*
G01*
X-1327324Y-4156010D01*
X-1622430Y-4156010D01*
X-2237189Y-5164519D01*
X-2237189Y-4156010D01*
X-2519015Y-4156010D01*
X-2519015Y-5662500D01*
X-2214658Y-5662500D01*
X-1609058Y-4669011D01*
X-1609058Y-5662500D01*
X-1327324Y-5662500D01*
G37*
G36*
X-2838485Y-5662500D02*
G01*
X-3409189Y-5662500D01*
X-3568580Y-5653514D01*
X-3677642Y-5630626D01*
X-3764372Y-5596492D01*
X-3834608Y-5556259D01*
X-3890775Y-5510367D01*
X-3953490Y-5437842D01*
X-4007222Y-5349924D01*
X-4051700Y-5244295D01*
X-4076357Y-5153394D01*
X-4092154Y-5047272D01*
X-4097770Y-4923634D01*
X-4097169Y-4909804D01*
X-3784254Y-4909804D01*
X-3775508Y-5075933D01*
X-3753480Y-5186959D01*
X-3728875Y-5253120D01*
X-3702225Y-5300466D01*
X-3674070Y-5333046D01*
X-3620248Y-5370369D01*
X-3551613Y-5395969D01*
X-3486461Y-5406076D01*
X-3368248Y-5410441D01*
X-3141743Y-5410441D01*
X-3141743Y-4408068D01*
X-3278030Y-4408068D01*
X-3448393Y-4412667D01*
X-3527066Y-4422540D01*
X-3605783Y-4450232D01*
X-3667384Y-4493797D01*
X-3715188Y-4554316D01*
X-3753480Y-4640343D01*
X-3775356Y-4744649D01*
X-3784254Y-4909804D01*
X-4097169Y-4909804D01*
X-4091646Y-4782637D01*
X-4074661Y-4665088D01*
X-4048586Y-4567620D01*
X-4009967Y-4474651D01*
X-3962144Y-4393735D01*
X-3905154Y-4323530D01*
X-3837978Y-4263691D01*
X-3762861Y-4217659D01*
X-3678650Y-4184769D01*
X-3569099Y-4164374D01*
X-3392794Y-4156010D01*
X-2838485Y-4156010D01*
X-2838485Y-5662500D01*
G37*
G36*
X-6104531Y-5662500D02*
G01*
X-6104531Y-4156010D01*
X-7218370Y-4156010D01*
X-7218370Y-4408068D01*
X-6407789Y-4408068D01*
X-6407789Y-4742192D01*
X-7161950Y-4742192D01*
X-7161950Y-4994251D01*
X-6407789Y-4994251D01*
X-6407789Y-5410441D01*
X-7247038Y-5410441D01*
X-7247038Y-5662500D01*
X-6104531Y-5662500D01*
G37*
G36*
X-7427197Y-5181830D02*
G01*
X-7722304Y-5152520D01*
X-7748035Y-5245643D01*
X-7784417Y-5315116D01*
X-7830381Y-5365836D01*
X-7888306Y-5402393D01*
X-7960332Y-5425549D01*
X-8050200Y-5433888D01*
X-8146250Y-5425989D01*
X-8217991Y-5404818D01*
X-8271026Y-5372797D01*
X-8313468Y-5328138D01*
X-8337397Y-5281088D01*
X-8345306Y-5229915D01*
X-8337331Y-5180876D01*
X-8314074Y-5140614D01*
X-8275006Y-5108480D01*
X-8204897Y-5076500D01*
X-7962089Y-5009822D01*
X-7800765Y-4960308D01*
X-7690868Y-4909756D01*
X-7619813Y-4859521D01*
X-7558369Y-4792375D01*
X-7515758Y-4720173D01*
X-7490223Y-4641646D01*
X-7481511Y-4554889D01*
X-7488693Y-4479709D01*
X-7510155Y-4408037D01*
X-7546540Y-4338642D01*
X-7595520Y-4277630D01*
X-7657424Y-4226633D01*
X-7734119Y-4185227D01*
X-7817394Y-4156988D01*
X-7915091Y-4138969D01*
X-8029683Y-4132562D01*
X-8173108Y-4141772D01*
X-8288704Y-4167107D01*
X-8381469Y-4206003D01*
X-8455490Y-4257218D01*
X-8518083Y-4324175D01*
X-8563592Y-4400629D01*
X-8592950Y-4488319D01*
X-8605608Y-4589785D01*
X-8302258Y-4601509D01*
X-8282710Y-4527398D01*
X-8254538Y-4473473D01*
X-8218727Y-4435271D01*
X-8173158Y-4408851D01*
X-8110824Y-4391232D01*
X-8026661Y-4384621D01*
X-7939927Y-4391503D01*
X-7872254Y-4410274D01*
X-7819665Y-4439118D01*
X-7792657Y-4465333D01*
X-7776901Y-4495959D01*
X-7771488Y-4532540D01*
X-7782467Y-4581573D01*
X-7816551Y-4624040D01*
X-7859713Y-4650559D01*
X-7945463Y-4684041D01*
X-8095263Y-4725431D01*
X-8300995Y-4783750D01*
X-8422609Y-4834516D01*
X-8488843Y-4876836D01*
X-8543795Y-4927604D01*
X-8588572Y-4987382D01*
X-8620963Y-5054510D01*
X-8641344Y-5133530D01*
X-8648564Y-5226984D01*
X-8640640Y-5311098D01*
X-8616964Y-5391372D01*
X-8576848Y-5469151D01*
X-8522853Y-5537516D01*
X-8455819Y-5593202D01*
X-8373974Y-5636946D01*
X-8284830Y-5666092D01*
X-8177009Y-5684996D01*
X-8047086Y-5691809D01*
X-7903308Y-5682371D01*
X-7785290Y-5656185D01*
X-7688580Y-5615569D01*
X-7609555Y-5561566D01*
X-7543012Y-5491707D01*
X-7490302Y-5406962D01*
X-7451322Y-5304806D01*
X-7427197Y-5181830D01*
G37*
G36*
X-9864710Y-5105626D02*
G01*
X-10158809Y-5199415D01*
X-10116847Y-5320938D01*
X-10065019Y-5420565D01*
X-10004040Y-5501486D01*
X-9933862Y-5566146D01*
X-9852767Y-5617128D01*
X-9760584Y-5654436D01*
X-9655383Y-5677768D01*
X-9534799Y-5685947D01*
X-9416443Y-5677333D01*
X-9309757Y-5652370D01*
X-9212858Y-5611717D01*
X-9124242Y-5555137D01*
X-9042864Y-5481516D01*
X-8975773Y-5397140D01*
X-8922712Y-5300992D01*
X-8883534Y-5191371D01*
X-8858900Y-5066083D01*
X-8850248Y-4922535D01*
X-8859105Y-4769799D01*
X-8884182Y-4637936D01*
X-8923792Y-4523969D01*
X-8977040Y-4425360D01*
X-9043871Y-4340108D01*
X-9125514Y-4265940D01*
X-9215806Y-4208592D01*
X-9315963Y-4167108D01*
X-9427714Y-4141463D01*
X-9553209Y-4132562D01*
X-9689287Y-4143536D01*
X-9807299Y-4174897D01*
X-9910408Y-4225437D01*
X-10000998Y-4295503D01*
X-10060974Y-4365247D01*
X-10112471Y-4456044D01*
X-10154688Y-4572199D01*
X-9854452Y-4642541D01*
X-9829598Y-4568735D01*
X-9792626Y-4507975D01*
X-9743261Y-4458169D01*
X-9683786Y-4420999D01*
X-9616032Y-4398350D01*
X-9537822Y-4390483D01*
X-9456621Y-4398322D01*
X-9385637Y-4420938D01*
X-9322797Y-4458036D01*
X-9266712Y-4510742D01*
X-9225061Y-4572613D01*
X-9192544Y-4654586D01*
X-9170816Y-4761698D01*
X-9162756Y-4900004D01*
X-9170877Y-5047757D01*
X-9192584Y-5160308D01*
X-9224687Y-5244703D01*
X-9265247Y-5306851D01*
X-9320665Y-5360121D01*
X-9382533Y-5397473D01*
X-9452191Y-5420173D01*
X-9531685Y-5428026D01*
X-9609320Y-5419198D01*
X-9677930Y-5393432D01*
X-9739689Y-5350266D01*
X-9789305Y-5292992D01*
X-9831387Y-5213372D01*
X-9864710Y-5105626D01*
G37*
G36*
X-10246645Y-6078689D02*
G01*
X-10246645Y-5891111D01*
X-11443466Y-5891111D01*
X-11443466Y-6078689D01*
X-10246645Y-6078689D01*
G37*
G36*
X-11508495Y-5181830D02*
G01*
X-11803602Y-5152520D01*
X-11829333Y-5245643D01*
X-11865715Y-5315116D01*
X-11911679Y-5365836D01*
X-11969604Y-5402393D01*
X-12041630Y-5425549D01*
X-12131498Y-5433888D01*
X-12227547Y-5425989D01*
X-12299289Y-5404818D01*
X-12352324Y-5372797D01*
X-12394766Y-5328138D01*
X-12418695Y-5281088D01*
X-12426604Y-5229915D01*
X-12418629Y-5180876D01*
X-12395372Y-5140614D01*
X-12356304Y-5108480D01*
X-12286195Y-5076500D01*
X-12043387Y-5009822D01*
X-11882063Y-4960308D01*
X-11772166Y-4909756D01*
X-11701111Y-4859521D01*
X-11639667Y-4792375D01*
X-11597056Y-4720173D01*
X-11571521Y-4641646D01*
X-11562809Y-4554889D01*
X-11569991Y-4479709D01*
X-11591453Y-4408037D01*
X-11627838Y-4338642D01*
X-11676818Y-4277630D01*
X-11738722Y-4226633D01*
X-11815417Y-4185227D01*
X-11898692Y-4156988D01*
X-11996389Y-4138969D01*
X-12110981Y-4132562D01*
X-12254406Y-4141772D01*
X-12370002Y-4167107D01*
X-12462767Y-4206003D01*
X-12536788Y-4257218D01*
X-12599381Y-4324175D01*
X-12644890Y-4400629D01*
X-12674248Y-4488319D01*
X-12686906Y-4589785D01*
X-12383556Y-4601509D01*
X-12364008Y-4527398D01*
X-12335836Y-4473473D01*
X-12300025Y-4435271D01*
X-12254456Y-4408851D01*
X-12192122Y-4391232D01*
X-12107959Y-4384621D01*
X-12021225Y-4391503D01*
X-11953552Y-4410274D01*
X-11900963Y-4439118D01*
X-11873954Y-4465333D01*
X-11858199Y-4495959D01*
X-11852786Y-4532540D01*
X-11863765Y-4581573D01*
X-11897849Y-4624040D01*
X-11941011Y-4650559D01*
X-12026761Y-4684041D01*
X-12176561Y-4725431D01*
X-12382293Y-4783750D01*
X-12503907Y-4834516D01*
X-12570141Y-4876836D01*
X-12625093Y-4927604D01*
X-12669870Y-4987382D01*
X-12702261Y-5054510D01*
X-12722642Y-5133530D01*
X-12729862Y-5226984D01*
X-12721938Y-5311098D01*
X-12698262Y-5391372D01*
X-12658146Y-5469151D01*
X-12604151Y-5537516D01*
X-12537117Y-5593202D01*
X-12455272Y-5636946D01*
X-12366128Y-5666092D01*
X-12258307Y-5684996D01*
X-12128384Y-5691809D01*
X-11984606Y-5682371D01*
X-11866588Y-5656185D01*
X-11769878Y-5615569D01*
X-11690853Y-5561566D01*
X-11624310Y-5491707D01*
X-11571600Y-5406962D01*
X-11532620Y-5304806D01*
X-11508495Y-5181830D01*
G37*
G36*
X-12985859Y-5662500D02*
G01*
X-13497121Y-5662500D01*
X-13761150Y-5658077D01*
X-13862935Y-5652241D01*
X-13941694Y-5637720D01*
X-14008913Y-5613710D01*
X-14066359Y-5580800D01*
X-14117066Y-5538124D01*
X-14160340Y-5486678D01*
X-14196510Y-5425462D01*
X-14223184Y-5359375D01*
X-14238913Y-5292935D01*
X-14244137Y-5225427D01*
X-14242826Y-5212329D01*
X-13930621Y-5212329D01*
X-13925463Y-5264428D01*
X-13911042Y-5306555D01*
X-13888031Y-5340832D01*
X-13839750Y-5379602D01*
X-13777939Y-5401190D01*
X-13719246Y-5407359D01*
X-13569935Y-5410441D01*
X-13289209Y-5410441D01*
X-13289209Y-5005975D01*
X-13534123Y-5005975D01*
X-13723175Y-5013053D01*
X-13803035Y-5027682D01*
X-13858504Y-5056340D01*
X-13897831Y-5096833D01*
X-13922077Y-5148224D01*
X-13930621Y-5212329D01*
X-14242826Y-5212329D01*
X-14235672Y-5140868D01*
X-14211062Y-5065804D01*
X-14170315Y-4998189D01*
X-14115588Y-4941227D01*
X-14046159Y-4895616D01*
X-13959289Y-4861352D01*
X-14020028Y-4826785D01*
X-14071109Y-4782872D01*
X-14113528Y-4728912D01*
X-14145172Y-4667994D01*
X-14164034Y-4603689D01*
X-14166372Y-4578428D01*
X-13875300Y-4578428D01*
X-13870042Y-4624874D01*
X-13855109Y-4663228D01*
X-13830695Y-4695298D01*
X-13779579Y-4730068D01*
X-13708330Y-4748787D01*
X-13487961Y-4753916D01*
X-13289209Y-4753916D01*
X-13289209Y-4408068D01*
X-13463415Y-4408068D01*
X-13722618Y-4413197D01*
X-13771238Y-4423846D01*
X-13808529Y-4441554D01*
X-13836832Y-4465771D01*
X-13865233Y-4514297D01*
X-13875300Y-4578428D01*
X-14166372Y-4578428D01*
X-14170406Y-4534830D01*
X-14165134Y-4471073D01*
X-14149710Y-4412743D01*
X-14124245Y-4358792D01*
X-14071806Y-4287409D01*
X-14009023Y-4233038D01*
X-13935816Y-4194109D01*
X-13852219Y-4170939D01*
X-13753267Y-4160414D01*
X-13586330Y-4156010D01*
X-12985859Y-4156010D01*
X-12985859Y-5662500D01*
G37*
G36*
X-14327943Y-6078689D02*
G01*
X-14327943Y-5891111D01*
X-15524764Y-5891111D01*
X-15524764Y-6078689D01*
X-14327943Y-6078689D01*
G37*
G36*
X-15666638Y-5662500D02*
G01*
X-15969896Y-5662500D01*
X-15969896Y-5093902D01*
X-16167641Y-5093902D01*
X-16361461Y-5087619D01*
X-16482257Y-5072287D01*
X-16560185Y-5046375D01*
X-16639610Y-5000937D01*
X-16687329Y-4961306D01*
X-16729807Y-4912208D01*
X-16767196Y-4852468D01*
X-16794139Y-4787584D01*
X-16811282Y-4710644D01*
X-16817076Y-4623948D01*
X-16504788Y-4623948D01*
X-16495994Y-4688271D01*
X-16470441Y-4742834D01*
X-16429899Y-4786833D01*
X-16375645Y-4817847D01*
X-16300393Y-4834203D01*
X-16135859Y-4841844D01*
X-15969896Y-4841844D01*
X-15969896Y-4408068D01*
X-16116442Y-4408068D01*
X-16266818Y-4411408D01*
X-16334703Y-4418510D01*
X-16381433Y-4432238D01*
X-16421711Y-4454698D01*
X-16456611Y-4486287D01*
X-16482968Y-4524874D01*
X-16499122Y-4570155D01*
X-16504788Y-4623948D01*
X-16817076Y-4623948D01*
X-16817388Y-4619277D01*
X-16806860Y-4502330D01*
X-16777314Y-4405965D01*
X-16730285Y-4326094D01*
X-16666488Y-4258326D01*
X-16594875Y-4209771D01*
X-16514039Y-4178633D01*
X-16406328Y-4163372D01*
X-16153353Y-4156010D01*
X-15666638Y-4156010D01*
X-15666638Y-5662500D01*
G37*
G36*
X-17279282Y-5662500D02*
G01*
X-16920611Y-4156010D01*
X-17231105Y-4156010D01*
X-17457610Y-5190806D01*
X-17732200Y-4156010D01*
X-18092886Y-4156010D01*
X-18356210Y-5208299D01*
X-18586745Y-4156010D01*
X-18892109Y-4156010D01*
X-18527302Y-5662500D01*
X-18205543Y-5662500D01*
X-17906406Y-4536204D01*
X-17608186Y-5662500D01*
X-17279282Y-5662500D01*
G37*
G36*
X-19048455Y-5662500D02*
G01*
X-19351805Y-5662500D01*
X-19351805Y-5035284D01*
X-19413262Y-5035284D01*
X-19510669Y-5040345D01*
X-19565945Y-5052228D01*
X-19611658Y-5075446D01*
X-19657169Y-5114602D01*
X-19707476Y-5177226D01*
X-19816996Y-5335153D01*
X-20036265Y-5662500D01*
X-20398965Y-5662500D01*
X-20215600Y-5369408D01*
X-20109796Y-5209155D01*
X-20042859Y-5125501D01*
X-19972246Y-5061180D01*
X-19880468Y-4999380D01*
X-19978808Y-4978215D01*
X-20059297Y-4947369D01*
X-20124808Y-4907850D01*
X-20177590Y-4859887D01*
X-20220475Y-4801881D01*
X-20251339Y-4736739D01*
X-20270415Y-4663116D01*
X-20275621Y-4597387D01*
X-19964549Y-4597387D01*
X-19956423Y-4661868D01*
X-19933774Y-4711784D01*
X-19897413Y-4750582D01*
X-19848778Y-4776264D01*
X-19774519Y-4788638D01*
X-19576203Y-4794949D01*
X-19351805Y-4794949D01*
X-19351805Y-4408068D01*
X-19588476Y-4408068D01*
X-19809852Y-4413289D01*
X-19876603Y-4435174D01*
X-19924066Y-4473098D01*
X-19945979Y-4506702D01*
X-19959671Y-4547500D01*
X-19964549Y-4597387D01*
X-20275621Y-4597387D01*
X-20277058Y-4579252D01*
X-20269520Y-4491899D01*
X-20247581Y-4413164D01*
X-20211479Y-4341390D01*
X-20162222Y-4278352D01*
X-20104336Y-4230616D01*
X-20036723Y-4196676D01*
X-19961889Y-4176414D01*
X-19849215Y-4161752D01*
X-19686845Y-4156010D01*
X-19048455Y-4156010D01*
X-19048455Y-5662500D01*
G37*
X7143114Y20654490D02*
X7143114Y20154490D01*
X7928828Y19940204D02*
X7928828Y20654490D01*
X7928828Y20654490D02*
X6428828Y20654490D01*
X6428828Y20654490D02*
X6428828Y19940204D01*
X7857400Y19368775D02*
X7928828Y19154489D01*
X7928828Y19154489D02*
X7928828Y18797347D01*
X7928828Y18797347D02*
X7857400Y18654489D01*
X7857400Y18654489D02*
X7785971Y18583061D01*
X7785971Y18583061D02*
X7643114Y18511632D01*
X7643114Y18511632D02*
X7500257Y18511632D01*
X7500257Y18511632D02*
X7357400Y18583061D01*
X7357400Y18583061D02*
X7285971Y18654489D01*
X7285971Y18654489D02*
X7214542Y18797347D01*
X7214542Y18797347D02*
X7143114Y19083061D01*
X7143114Y19083061D02*
X7071685Y19225918D01*
X7071685Y19225918D02*
X7000257Y19297347D01*
X7000257Y19297347D02*
X6857400Y19368775D01*
X6857400Y19368775D02*
X6714542Y19368775D01*
X6714542Y19368775D02*
X6571685Y19297347D01*
X6571685Y19297347D02*
X6500257Y19225918D01*
X6500257Y19225918D02*
X6428828Y19083061D01*
X6428828Y19083061D02*
X6428828Y18725918D01*
X6428828Y18725918D02*
X6500257Y18511632D01*
X7785971Y17011633D02*
X7857400Y17083061D01*
X7857400Y17083061D02*
X7928828Y17297347D01*
X7928828Y17297347D02*
X7928828Y17440204D01*
X7928828Y17440204D02*
X7857400Y17654490D01*
X7857400Y17654490D02*
X7714542Y17797347D01*
X7714542Y17797347D02*
X7571685Y17868776D01*
X7571685Y17868776D02*
X7285971Y17940204D01*
X7285971Y17940204D02*
X7071685Y17940204D01*
X7071685Y17940204D02*
X6785971Y17868776D01*
X6785971Y17868776D02*
X6643114Y17797347D01*
X6643114Y17797347D02*
X6500257Y17654490D01*
X6500257Y17654490D02*
X6428828Y17440204D01*
X6428828Y17440204D02*
X6428828Y17297347D01*
X6428828Y17297347D02*
X6500257Y17083061D01*
X6500257Y17083061D02*
X6571685Y17011633D01*
%LPC*%
D12*
<<<<<<< HEAD
%TO.C,J104*%
X-17401500Y-26562000D03*
X-17401500Y-13062000D03*
D13*
X-11401500Y-23412000D03*
D14*
X-11401500Y-16212000D03*
D15*
X-15051500Y-19812000D03*
%TD*%
D12*
%TO.C,J107*%
X-17401500Y12700000D03*
X-17401500Y26200000D03*
D13*
X-11401500Y15850000D03*
D14*
X-11401500Y23050000D03*
D15*
X-15051500Y19450000D03*
%TD*%
D12*
%TO.C,J105*%
X23607000Y-12090000D03*
X23607000Y-25590000D03*
D16*
X17607000Y-22440000D03*
D14*
X17607000Y-15240000D03*
%TD*%
D17*
%TO.C,J108*%
X-24130000Y5080000D03*
D18*
=======
%TO.C,J108*%
X-24130000Y5080000D03*
D13*
>>>>>>> 2e23f7f8cb64151a60ec3d004f8241720292418e
X-21590000Y5080000D03*
X-24130000Y2540000D03*
X-21590000Y2540000D03*
X-24130000Y0D03*
X-21590000Y0D03*
X-24130000Y-2540000D03*
X-21590000Y-2540000D03*
X-24130000Y-5080000D03*
X-21590000Y-5080000D03*
%TD*%
<<<<<<< HEAD
D19*
%TO.C,J103*%
X5224000Y21482000D03*
D20*
X5224000Y18982000D03*
X5224000Y16482000D03*
%TD*%
D12*
%TO.C,J106*%
X23607000Y25692000D03*
X23607000Y12192000D03*
D16*
X17607000Y15342000D03*
D14*
=======
D14*
%TO.C,J104*%
X-17401500Y-26562000D03*
X-17401500Y-13062000D03*
D15*
X-11401500Y-23412000D03*
D16*
X-11401500Y-16212000D03*
D17*
X-15051500Y-19812000D03*
%TD*%
D18*
%TO.C,J103*%
X5224000Y21482000D03*
D19*
X5224000Y18982000D03*
X5224000Y16482000D03*
%TD*%
D14*
%TO.C,J106*%
X23607000Y25692000D03*
X23607000Y12192000D03*
D20*
X17607000Y15342000D03*
D16*
>>>>>>> 2e23f7f8cb64151a60ec3d004f8241720292418e
X17607000Y22542000D03*
%TD*%
D21*
%TO.C,TP101*%
X-6502400Y12496800D03*
%TD*%
D22*
%TO.C,J101*%
X21240000Y8550000D03*
X21240000Y-8550000D03*
D23*
X15240000Y5500000D03*
D24*
X15240000Y0D03*
X15240000Y-5500000D03*
%TD*%
<<<<<<< HEAD
D19*
%TO.C,J102*%
X5207000Y-16110000D03*
D20*
=======
D14*
%TO.C,J105*%
X23607000Y-12090000D03*
X23607000Y-25590000D03*
D20*
X17607000Y-22440000D03*
D16*
X17607000Y-15240000D03*
%TD*%
D14*
%TO.C,J107*%
X-17401500Y12700000D03*
X-17401500Y26200000D03*
D15*
X-11401500Y15850000D03*
D16*
X-11401500Y23050000D03*
D17*
X-15051500Y19450000D03*
%TD*%
D18*
%TO.C,J102*%
X5207000Y-16110000D03*
D19*
>>>>>>> 2e23f7f8cb64151a60ec3d004f8241720292418e
X5207000Y-18610000D03*
X5207000Y-21110000D03*
%TD*%
D25*
%TO.C,SW101*%
X5461000Y9398000D03*
<<<<<<< HEAD
D18*
=======
D13*
>>>>>>> 2e23f7f8cb64151a60ec3d004f8241720292418e
X8001000Y9398000D03*
X10541000Y9398000D03*
%TD*%
%LPD*%
M02*
