%TF.GenerationSoftware,KiCad,Pcbnew,9.0.2*%
<<<<<<< HEAD
%TF.CreationDate,2025-06-18T19:59:33+02:00*%
=======
%TF.CreationDate,2025-06-17T18:04:30+02:00*%
>>>>>>> 2e23f7f8cb64151a60ec3d004f8241720292418e
%TF.ProjectId,Robobuoy-Sub-PSU-v2_1,526f626f-6275-46f7-992d-5375622d5053,2.0*%
%TF.SameCoordinates,Original*%
%TF.FileFunction,Legend,Top*%
%TF.FilePolarity,Positive*%
%FSLAX46Y46*%
G04 Gerber Fmt 4.6, Leading zero omitted, Abs format (unit mm)*
<<<<<<< HEAD
G04 Created by KiCad (PCBNEW 9.0.2) date 2025-06-18 19:59:33*
=======
G04 Created by KiCad (PCBNEW 9.0.2) date 2025-06-17 18:04:30*
>>>>>>> 2e23f7f8cb64151a60ec3d004f8241720292418e
%MOMM*%
%LPD*%
G01*
G04 APERTURE LIST*
G04 Aperture macros list*
%AMRoundRect*
0 Rectangle with rounded corners*
0 $1 Rounding radius*
0 $2 $3 $4 $5 $6 $7 $8 $9 X,Y pos of 4 corners*
0 Add a 4 corners polygon primitive as box body*
4,1,4,$2,$3,$4,$5,$6,$7,$8,$9,$2,$3,0*
0 Add four circle primitives for the rounded corners*
1,1,$1+$1,$2,$3*
1,1,$1+$1,$4,$5*
1,1,$1+$1,$6,$7*
1,1,$1+$1,$8,$9*
0 Add four rect primitives between the rounded corners*
20,1,$1+$1,$2,$3,$4,$5,0*
20,1,$1+$1,$4,$5,$6,$7,0*
20,1,$1+$1,$6,$7,$8,$9,0*
20,1,$1+$1,$8,$9,$2,$3,0*%
G04 Aperture macros list end*
%ADD10C,0.300000*%
%ADD11C,0.250000*%
%ADD12C,0.150000*%
%ADD13C,0.200000*%
<<<<<<< HEAD
%ADD14C,0.160000*%
%ADD15C,0.100000*%
%ADD16C,0.120000*%
%ADD17C,0.000000*%
%ADD18R,2.000000X0.900000*%
%ADD19RoundRect,1.025000X1.025000X-1.025000X1.025000X1.025000X-1.025000X1.025000X-1.025000X-1.025000X0*%
%ADD20C,4.100000*%
%ADD21R,1.300000X2.300000*%
%ADD22RoundRect,1.025000X-1.025000X1.025000X-1.025000X-1.025000X1.025000X-1.025000X1.025000X1.025000X0*%
%ADD23RoundRect,0.200000X0.200000X0.250000X-0.200000X0.250000X-0.200000X-0.250000X0.200000X-0.250000X0*%
%ADD24RoundRect,0.200000X-0.250000X0.200000X-0.250000X-0.200000X0.250000X-0.200000X0.250000X0.200000X0*%
%ADD25RoundRect,0.250000X-0.600000X-0.600000X0.600000X-0.600000X0.600000X0.600000X-0.600000X0.600000X0*%
%ADD26C,1.700000*%
%ADD27RoundRect,0.218750X0.256250X-0.218750X0.256250X0.218750X-0.256250X0.218750X-0.256250X-0.218750X0*%
%ADD28RoundRect,0.150000X-0.150000X0.587500X-0.150000X-0.587500X0.150000X-0.587500X0.150000X0.587500X0*%
%ADD29RoundRect,0.200000X0.250000X-0.200000X0.250000X0.200000X-0.250000X0.200000X-0.250000X-0.200000X0*%
%ADD30RoundRect,0.250000X0.650000X-0.325000X0.650000X0.325000X-0.650000X0.325000X-0.650000X-0.325000X0*%
%ADD31RoundRect,0.250000X-1.000000X-0.650000X1.000000X-0.650000X1.000000X0.650000X-1.000000X0.650000X0*%
%ADD32RoundRect,0.150000X0.150000X-0.512500X0.150000X0.512500X-0.150000X0.512500X-0.150000X-0.512500X0*%
%ADD33RoundRect,0.200000X-0.200000X-0.250000X0.200000X-0.250000X0.200000X0.250000X-0.200000X0.250000X0*%
%ADD34RoundRect,0.250000X-0.725000X0.600000X-0.725000X-0.600000X0.725000X-0.600000X0.725000X0.600000X0*%
%ADD35O,1.950000X1.700000*%
%ADD36RoundRect,0.250000X-0.325000X-0.650000X0.325000X-0.650000X0.325000X0.650000X-0.325000X0.650000X0*%
%ADD37RoundRect,0.112500X-0.112500X0.187500X-0.112500X-0.187500X0.112500X-0.187500X0.112500X0.187500X0*%
%ADD38RoundRect,0.150000X0.150000X-0.587500X0.150000X0.587500X-0.150000X0.587500X-0.150000X-0.587500X0*%
%ADD39RoundRect,0.112500X0.187500X0.112500X-0.187500X0.112500X-0.187500X-0.112500X0.187500X-0.112500X0*%
=======
%ADD14C,0.100000*%
%ADD15C,0.160000*%
%ADD16C,0.120000*%
%ADD17C,0.000000*%
%ADD18RoundRect,0.200000X0.200000X0.250000X-0.200000X0.250000X-0.200000X-0.250000X0.200000X-0.250000X0*%
%ADD19RoundRect,0.200000X-0.250000X0.200000X-0.250000X-0.200000X0.250000X-0.200000X0.250000X0.200000X0*%
%ADD20RoundRect,0.250000X-0.600000X-0.600000X0.600000X-0.600000X0.600000X0.600000X-0.600000X0.600000X0*%
%ADD21C,1.700000*%
%ADD22RoundRect,0.218750X0.256250X-0.218750X0.256250X0.218750X-0.256250X0.218750X-0.256250X-0.218750X0*%
%ADD23RoundRect,0.150000X-0.150000X0.587500X-0.150000X-0.587500X0.150000X-0.587500X0.150000X0.587500X0*%
%ADD24RoundRect,0.200000X0.250000X-0.200000X0.250000X0.200000X-0.250000X0.200000X-0.250000X-0.200000X0*%
%ADD25RoundRect,0.375000X0.475000X-0.375000X0.475000X0.375000X-0.475000X0.375000X-0.475000X-0.375000X0*%
%ADD26RoundRect,0.250000X-1.000000X-0.650000X1.000000X-0.650000X1.000000X0.650000X-1.000000X0.650000X0*%
%ADD27RoundRect,0.150000X0.150000X-0.512500X0.150000X0.512500X-0.150000X0.512500X-0.150000X-0.512500X0*%
%ADD28RoundRect,0.200000X-0.200000X-0.250000X0.200000X-0.250000X0.200000X0.250000X-0.200000X0.250000X0*%
%ADD29R,2.000000X0.900000*%
%ADD30RoundRect,1.025000X1.025000X-1.025000X1.025000X1.025000X-1.025000X1.025000X-1.025000X-1.025000X0*%
%ADD31C,4.100000*%
%ADD32R,1.300000X2.300000*%
%ADD33RoundRect,0.250000X-0.725000X0.600000X-0.725000X-0.600000X0.725000X-0.600000X0.725000X0.600000X0*%
%ADD34O,1.950000X1.700000*%
%ADD35RoundRect,0.375000X-0.375000X-0.475000X0.375000X-0.475000X0.375000X0.475000X-0.375000X0.475000X0*%
%ADD36RoundRect,0.112500X-0.112500X0.187500X-0.112500X-0.187500X0.112500X-0.187500X0.112500X0.187500X0*%
%ADD37RoundRect,0.150000X0.150000X-0.587500X0.150000X0.587500X-0.150000X0.587500X-0.150000X-0.587500X0*%
%ADD38RoundRect,0.112500X0.187500X0.112500X-0.187500X0.112500X-0.187500X-0.112500X0.187500X-0.112500X0*%
%ADD39RoundRect,1.025000X-1.025000X1.025000X-1.025000X-1.025000X1.025000X-1.025000X1.025000X1.025000X0*%
>>>>>>> 2e23f7f8cb64151a60ec3d004f8241720292418e
%ADD40C,1.400000*%
%ADD41C,3.000000*%
%ADD42RoundRect,0.250000X-1.750000X0.750000X-1.750000X-0.750000X1.750000X-0.750000X1.750000X0.750000X0*%
%ADD43RoundRect,1.125000X-1.125000X1.125000X-1.125000X-1.125000X1.125000X-1.125000X1.125000X1.125000X0*%
%ADD44C,4.500000*%
%ADD45RoundRect,0.225000X0.225000X0.425000X-0.225000X0.425000X-0.225000X-0.425000X0.225000X-0.425000X0*%
%ADD46RoundRect,0.230769X0.969231X1.519231X-0.969231X1.519231X-0.969231X-1.519231X0.969231X-1.519231X0*%
<<<<<<< HEAD
%ADD47RoundRect,0.250000X-0.650000X0.325000X-0.650000X-0.325000X0.650000X-0.325000X0.650000X0.325000X0*%
=======
%ADD47RoundRect,0.375000X-0.475000X0.375000X-0.475000X-0.375000X0.475000X-0.375000X0.475000X0.375000X0*%
>>>>>>> 2e23f7f8cb64151a60ec3d004f8241720292418e
%ADD48RoundRect,0.250000X1.100000X-0.325000X1.100000X0.325000X-1.100000X0.325000X-1.100000X-0.325000X0*%
%ADD49RoundRect,0.150000X0.825000X0.150000X-0.825000X0.150000X-0.825000X-0.150000X0.825000X-0.150000X0*%
%ADD50R,2.410000X3.810000*%
%ADD51RoundRect,0.150000X0.587500X0.150000X-0.587500X0.150000X-0.587500X-0.150000X0.587500X-0.150000X0*%
%ADD52RoundRect,0.150000X-0.587500X-0.150000X0.587500X-0.150000X0.587500X0.150000X-0.587500X0.150000X0*%
%ADD53RoundRect,0.206250X-0.618750X-0.618750X0.618750X-0.618750X0.618750X0.618750X-0.618750X0.618750X0*%
%ADD54RoundRect,0.218750X-0.218750X-0.256250X0.218750X-0.256250X0.218750X0.256250X-0.218750X0.256250X0*%
%ADD55C,1.000000*%
%ADD56RoundRect,0.300000X0.300000X0.400000X-0.300000X0.400000X-0.300000X-0.400000X0.300000X-0.400000X0*%
G04 APERTURE END LIST*
D10*
X4675625Y12367172D02*
X4961339Y12367172D01*
X4961339Y12367172D02*
X5104196Y12295743D01*
X5104196Y12295743D02*
X5247053Y12152886D01*
X5247053Y12152886D02*
X5318482Y11867172D01*
X5318482Y11867172D02*
X5318482Y11367172D01*
X5318482Y11367172D02*
X5247053Y11081458D01*
X5247053Y11081458D02*
X5104196Y10938600D01*
X5104196Y10938600D02*
X4961339Y10867172D01*
X4961339Y10867172D02*
X4675625Y10867172D01*
X4675625Y10867172D02*
X4532768Y10938600D01*
X4532768Y10938600D02*
X4389910Y11081458D01*
X4389910Y11081458D02*
X4318482Y11367172D01*
X4318482Y11367172D02*
X4318482Y11867172D01*
X4318482Y11867172D02*
X4389910Y12152886D01*
X4389910Y12152886D02*
X4532768Y12295743D01*
X4532768Y12295743D02*
X4675625Y12367172D01*
X5961339Y10867172D02*
X5961339Y12367172D01*
X5961339Y12367172D02*
X6818482Y10867172D01*
X6818482Y10867172D02*
X6818482Y12367172D01*
X8961340Y12367172D02*
X9247054Y12367172D01*
X9247054Y12367172D02*
X9389911Y12295743D01*
X9389911Y12295743D02*
X9532768Y12152886D01*
X9532768Y12152886D02*
X9604197Y11867172D01*
X9604197Y11867172D02*
X9604197Y11367172D01*
X9604197Y11367172D02*
X9532768Y11081458D01*
X9532768Y11081458D02*
X9389911Y10938600D01*
X9389911Y10938600D02*
X9247054Y10867172D01*
X9247054Y10867172D02*
X8961340Y10867172D01*
X8961340Y10867172D02*
X8818483Y10938600D01*
X8818483Y10938600D02*
X8675625Y11081458D01*
X8675625Y11081458D02*
X8604197Y11367172D01*
X8604197Y11367172D02*
X8604197Y11867172D01*
X8604197Y11867172D02*
X8675625Y12152886D01*
X8675625Y12152886D02*
X8818483Y12295743D01*
X8818483Y12295743D02*
X8961340Y12367172D01*
X10747054Y11652886D02*
X10247054Y11652886D01*
X10247054Y10867172D02*
X10247054Y12367172D01*
X10247054Y12367172D02*
X10961340Y12367172D01*
X12032768Y11652886D02*
X11532768Y11652886D01*
X11532768Y10867172D02*
X11532768Y12367172D01*
X11532768Y12367172D02*
X12247054Y12367172D01*
D11*
X-7292269Y-26775431D02*
X-8292269Y-26775431D01*
X-8292269Y-26775431D02*
X-7292269Y-26204003D01*
X-7292269Y-26204003D02*
X-8292269Y-26204003D01*
X-7292269Y-25727812D02*
X-7958936Y-25727812D01*
X-8292269Y-25727812D02*
X-8244650Y-25775431D01*
X-8244650Y-25775431D02*
X-8197031Y-25727812D01*
X-8197031Y-25727812D02*
X-8244650Y-25680193D01*
X-8244650Y-25680193D02*
X-8292269Y-25727812D01*
X-8292269Y-25727812D02*
X-8197031Y-25727812D01*
X-7339888Y-24823051D02*
X-7292269Y-24918289D01*
X-7292269Y-24918289D02*
X-7292269Y-25108765D01*
X-7292269Y-25108765D02*
X-7339888Y-25204003D01*
X-7339888Y-25204003D02*
X-7387508Y-25251622D01*
X-7387508Y-25251622D02*
X-7482746Y-25299241D01*
X-7482746Y-25299241D02*
X-7768460Y-25299241D01*
X-7768460Y-25299241D02*
X-7863698Y-25251622D01*
X-7863698Y-25251622D02*
X-7911317Y-25204003D01*
X-7911317Y-25204003D02*
X-7958936Y-25108765D01*
X-7958936Y-25108765D02*
X-7958936Y-24918289D01*
X-7958936Y-24918289D02*
X-7911317Y-24823051D01*
X-7816079Y-24394479D02*
X-7816079Y-24061146D01*
X-7292269Y-23918289D02*
X-7292269Y-24394479D01*
X-7292269Y-24394479D02*
X-8292269Y-24394479D01*
X-8292269Y-24394479D02*
X-8292269Y-23918289D01*
X-7816079Y-22727812D02*
X-7816079Y-22394479D01*
X-7292269Y-22251622D02*
X-7292269Y-22727812D01*
X-7292269Y-22727812D02*
X-8292269Y-22727812D01*
X-8292269Y-22727812D02*
X-8292269Y-22251622D01*
X-7958936Y-21823050D02*
X-7292269Y-21823050D01*
X-7863698Y-21823050D02*
X-7911317Y-21775431D01*
X-7911317Y-21775431D02*
X-7958936Y-21680193D01*
X-7958936Y-21680193D02*
X-7958936Y-21537336D01*
X-7958936Y-21537336D02*
X-7911317Y-21442098D01*
X-7911317Y-21442098D02*
X-7816079Y-21394479D01*
X-7816079Y-21394479D02*
X-7292269Y-21394479D01*
X-7958936Y-20489717D02*
X-7149412Y-20489717D01*
X-7149412Y-20489717D02*
X-7054174Y-20537336D01*
X-7054174Y-20537336D02*
X-7006555Y-20584955D01*
X-7006555Y-20584955D02*
X-6958936Y-20680193D01*
X-6958936Y-20680193D02*
X-6958936Y-20823050D01*
X-6958936Y-20823050D02*
X-7006555Y-20918288D01*
X-7339888Y-20489717D02*
X-7292269Y-20584955D01*
X-7292269Y-20584955D02*
X-7292269Y-20775431D01*
X-7292269Y-20775431D02*
X-7339888Y-20870669D01*
X-7339888Y-20870669D02*
X-7387508Y-20918288D01*
X-7387508Y-20918288D02*
X-7482746Y-20965907D01*
X-7482746Y-20965907D02*
X-7768460Y-20965907D01*
X-7768460Y-20965907D02*
X-7863698Y-20918288D01*
X-7863698Y-20918288D02*
X-7911317Y-20870669D01*
X-7911317Y-20870669D02*
X-7958936Y-20775431D01*
X-7958936Y-20775431D02*
X-7958936Y-20584955D01*
X-7958936Y-20584955D02*
X-7911317Y-20489717D01*
X-7292269Y-20013526D02*
X-7958936Y-20013526D01*
X-8292269Y-20013526D02*
X-8244650Y-20061145D01*
X-8244650Y-20061145D02*
X-8197031Y-20013526D01*
X-8197031Y-20013526D02*
X-8244650Y-19965907D01*
X-8244650Y-19965907D02*
X-8292269Y-20013526D01*
X-8292269Y-20013526D02*
X-8197031Y-20013526D01*
X-7958936Y-19537336D02*
X-7292269Y-19537336D01*
X-7863698Y-19537336D02*
X-7911317Y-19489717D01*
X-7911317Y-19489717D02*
X-7958936Y-19394479D01*
X-7958936Y-19394479D02*
X-7958936Y-19251622D01*
X-7958936Y-19251622D02*
X-7911317Y-19156384D01*
X-7911317Y-19156384D02*
X-7816079Y-19108765D01*
X-7816079Y-19108765D02*
X-7292269Y-19108765D01*
X-7339888Y-18251622D02*
X-7292269Y-18346860D01*
X-7292269Y-18346860D02*
X-7292269Y-18537336D01*
X-7292269Y-18537336D02*
X-7339888Y-18632574D01*
X-7339888Y-18632574D02*
X-7435127Y-18680193D01*
X-7435127Y-18680193D02*
X-7816079Y-18680193D01*
X-7816079Y-18680193D02*
X-7911317Y-18632574D01*
X-7911317Y-18632574D02*
X-7958936Y-18537336D01*
X-7958936Y-18537336D02*
X-7958936Y-18346860D01*
X-7958936Y-18346860D02*
X-7911317Y-18251622D01*
X-7911317Y-18251622D02*
X-7816079Y-18204003D01*
X-7816079Y-18204003D02*
X-7720841Y-18204003D01*
X-7720841Y-18204003D02*
X-7625603Y-18680193D01*
X-7339888Y-17394479D02*
X-7292269Y-17489717D01*
X-7292269Y-17489717D02*
X-7292269Y-17680193D01*
X-7292269Y-17680193D02*
X-7339888Y-17775431D01*
X-7339888Y-17775431D02*
X-7435127Y-17823050D01*
X-7435127Y-17823050D02*
X-7816079Y-17823050D01*
X-7816079Y-17823050D02*
X-7911317Y-17775431D01*
X-7911317Y-17775431D02*
X-7958936Y-17680193D01*
X-7958936Y-17680193D02*
X-7958936Y-17489717D01*
X-7958936Y-17489717D02*
X-7911317Y-17394479D01*
X-7911317Y-17394479D02*
X-7816079Y-17346860D01*
X-7816079Y-17346860D02*
X-7720841Y-17346860D01*
X-7720841Y-17346860D02*
X-7625603Y-17823050D01*
X-7292269Y-16918288D02*
X-7958936Y-16918288D01*
X-7768460Y-16918288D02*
X-7863698Y-16870669D01*
X-7863698Y-16870669D02*
X-7911317Y-16823050D01*
X-7911317Y-16823050D02*
X-7958936Y-16727812D01*
X-7958936Y-16727812D02*
X-7958936Y-16632574D01*
X-7292269Y-16299240D02*
X-7958936Y-16299240D01*
X-8292269Y-16299240D02*
X-8244650Y-16346859D01*
X-8244650Y-16346859D02*
X-8197031Y-16299240D01*
X-8197031Y-16299240D02*
X-8244650Y-16251621D01*
X-8244650Y-16251621D02*
X-8292269Y-16299240D01*
X-8292269Y-16299240D02*
X-8197031Y-16299240D01*
X-7958936Y-15823050D02*
X-7292269Y-15823050D01*
X-7863698Y-15823050D02*
X-7911317Y-15775431D01*
X-7911317Y-15775431D02*
X-7958936Y-15680193D01*
X-7958936Y-15680193D02*
X-7958936Y-15537336D01*
X-7958936Y-15537336D02*
X-7911317Y-15442098D01*
X-7911317Y-15442098D02*
X-7816079Y-15394479D01*
X-7816079Y-15394479D02*
X-7292269Y-15394479D01*
X-7958936Y-14489717D02*
X-7149412Y-14489717D01*
X-7149412Y-14489717D02*
X-7054174Y-14537336D01*
X-7054174Y-14537336D02*
X-7006555Y-14584955D01*
X-7006555Y-14584955D02*
X-6958936Y-14680193D01*
X-6958936Y-14680193D02*
X-6958936Y-14823050D01*
X-6958936Y-14823050D02*
X-7006555Y-14918288D01*
X-7339888Y-14489717D02*
X-7292269Y-14584955D01*
X-7292269Y-14584955D02*
X-7292269Y-14775431D01*
X-7292269Y-14775431D02*
X-7339888Y-14870669D01*
X-7339888Y-14870669D02*
X-7387508Y-14918288D01*
X-7387508Y-14918288D02*
X-7482746Y-14965907D01*
X-7482746Y-14965907D02*
X-7768460Y-14965907D01*
X-7768460Y-14965907D02*
X-7863698Y-14918288D01*
X-7863698Y-14918288D02*
X-7911317Y-14870669D01*
X-7911317Y-14870669D02*
X-7958936Y-14775431D01*
X-7958936Y-14775431D02*
X-7958936Y-14584955D01*
X-7958936Y-14584955D02*
X-7911317Y-14489717D01*
X-5682325Y-26204003D02*
X-6158516Y-26537336D01*
X-5682325Y-26775431D02*
X-6682325Y-26775431D01*
X-6682325Y-26775431D02*
X-6682325Y-26394479D01*
X-6682325Y-26394479D02*
X-6634706Y-26299241D01*
X-6634706Y-26299241D02*
X-6587087Y-26251622D01*
X-6587087Y-26251622D02*
X-6491849Y-26204003D01*
X-6491849Y-26204003D02*
X-6348992Y-26204003D01*
X-6348992Y-26204003D02*
X-6253754Y-26251622D01*
X-6253754Y-26251622D02*
X-6206135Y-26299241D01*
X-6206135Y-26299241D02*
X-6158516Y-26394479D01*
X-6158516Y-26394479D02*
X-6158516Y-26775431D01*
X-5682325Y-25632574D02*
X-5729944Y-25727812D01*
X-5729944Y-25727812D02*
X-5777564Y-25775431D01*
X-5777564Y-25775431D02*
X-5872802Y-25823050D01*
X-5872802Y-25823050D02*
X-6158516Y-25823050D01*
X-6158516Y-25823050D02*
X-6253754Y-25775431D01*
X-6253754Y-25775431D02*
X-6301373Y-25727812D01*
X-6301373Y-25727812D02*
X-6348992Y-25632574D01*
X-6348992Y-25632574D02*
X-6348992Y-25489717D01*
X-6348992Y-25489717D02*
X-6301373Y-25394479D01*
X-6301373Y-25394479D02*
X-6253754Y-25346860D01*
X-6253754Y-25346860D02*
X-6158516Y-25299241D01*
X-6158516Y-25299241D02*
X-5872802Y-25299241D01*
X-5872802Y-25299241D02*
X-5777564Y-25346860D01*
X-5777564Y-25346860D02*
X-5729944Y-25394479D01*
X-5729944Y-25394479D02*
X-5682325Y-25489717D01*
X-5682325Y-25489717D02*
X-5682325Y-25632574D01*
X-5682325Y-24870669D02*
X-6682325Y-24870669D01*
X-6301373Y-24870669D02*
X-6348992Y-24775431D01*
X-6348992Y-24775431D02*
X-6348992Y-24584955D01*
X-6348992Y-24584955D02*
X-6301373Y-24489717D01*
X-6301373Y-24489717D02*
X-6253754Y-24442098D01*
X-6253754Y-24442098D02*
X-6158516Y-24394479D01*
X-6158516Y-24394479D02*
X-5872802Y-24394479D01*
X-5872802Y-24394479D02*
X-5777564Y-24442098D01*
X-5777564Y-24442098D02*
X-5729944Y-24489717D01*
X-5729944Y-24489717D02*
X-5682325Y-24584955D01*
X-5682325Y-24584955D02*
X-5682325Y-24775431D01*
X-5682325Y-24775431D02*
X-5729944Y-24870669D01*
X-5682325Y-23823050D02*
X-5729944Y-23918288D01*
X-5729944Y-23918288D02*
X-5777564Y-23965907D01*
X-5777564Y-23965907D02*
X-5872802Y-24013526D01*
X-5872802Y-24013526D02*
X-6158516Y-24013526D01*
X-6158516Y-24013526D02*
X-6253754Y-23965907D01*
X-6253754Y-23965907D02*
X-6301373Y-23918288D01*
X-6301373Y-23918288D02*
X-6348992Y-23823050D01*
X-6348992Y-23823050D02*
X-6348992Y-23680193D01*
X-6348992Y-23680193D02*
X-6301373Y-23584955D01*
X-6301373Y-23584955D02*
X-6253754Y-23537336D01*
X-6253754Y-23537336D02*
X-6158516Y-23489717D01*
X-6158516Y-23489717D02*
X-5872802Y-23489717D01*
X-5872802Y-23489717D02*
X-5777564Y-23537336D01*
X-5777564Y-23537336D02*
X-5729944Y-23584955D01*
X-5729944Y-23584955D02*
X-5682325Y-23680193D01*
X-5682325Y-23680193D02*
X-5682325Y-23823050D01*
X-5682325Y-23061145D02*
X-6682325Y-23061145D01*
X-6301373Y-23061145D02*
X-6348992Y-22965907D01*
X-6348992Y-22965907D02*
X-6348992Y-22775431D01*
X-6348992Y-22775431D02*
X-6301373Y-22680193D01*
X-6301373Y-22680193D02*
X-6253754Y-22632574D01*
X-6253754Y-22632574D02*
X-6158516Y-22584955D01*
X-6158516Y-22584955D02*
X-5872802Y-22584955D01*
X-5872802Y-22584955D02*
X-5777564Y-22632574D01*
X-5777564Y-22632574D02*
X-5729944Y-22680193D01*
X-5729944Y-22680193D02*
X-5682325Y-22775431D01*
X-5682325Y-22775431D02*
X-5682325Y-22965907D01*
X-5682325Y-22965907D02*
X-5729944Y-23061145D01*
X-6348992Y-21727812D02*
X-5682325Y-21727812D01*
X-6348992Y-22156383D02*
X-5825183Y-22156383D01*
X-5825183Y-22156383D02*
X-5729944Y-22108764D01*
X-5729944Y-22108764D02*
X-5682325Y-22013526D01*
X-5682325Y-22013526D02*
X-5682325Y-21870669D01*
X-5682325Y-21870669D02*
X-5729944Y-21775431D01*
X-5729944Y-21775431D02*
X-5777564Y-21727812D01*
X-5682325Y-21108764D02*
X-5729944Y-21204002D01*
X-5729944Y-21204002D02*
X-5777564Y-21251621D01*
X-5777564Y-21251621D02*
X-5872802Y-21299240D01*
X-5872802Y-21299240D02*
X-6158516Y-21299240D01*
X-6158516Y-21299240D02*
X-6253754Y-21251621D01*
X-6253754Y-21251621D02*
X-6301373Y-21204002D01*
X-6301373Y-21204002D02*
X-6348992Y-21108764D01*
X-6348992Y-21108764D02*
X-6348992Y-20965907D01*
X-6348992Y-20965907D02*
X-6301373Y-20870669D01*
X-6301373Y-20870669D02*
X-6253754Y-20823050D01*
X-6253754Y-20823050D02*
X-6158516Y-20775431D01*
X-6158516Y-20775431D02*
X-5872802Y-20775431D01*
X-5872802Y-20775431D02*
X-5777564Y-20823050D01*
X-5777564Y-20823050D02*
X-5729944Y-20870669D01*
X-5729944Y-20870669D02*
X-5682325Y-20965907D01*
X-5682325Y-20965907D02*
X-5682325Y-21108764D01*
X-6348992Y-20442097D02*
X-5682325Y-20204002D01*
X-6348992Y-19965907D02*
X-5682325Y-20204002D01*
X-5682325Y-20204002D02*
X-5444230Y-20299240D01*
X-5444230Y-20299240D02*
X-5396611Y-20346859D01*
X-5396611Y-20346859D02*
X-5348992Y-20442097D01*
X-6587087Y-18870668D02*
X-6634706Y-18823049D01*
X-6634706Y-18823049D02*
X-6682325Y-18727811D01*
X-6682325Y-18727811D02*
X-6682325Y-18489716D01*
X-6682325Y-18489716D02*
X-6634706Y-18394478D01*
X-6634706Y-18394478D02*
X-6587087Y-18346859D01*
X-6587087Y-18346859D02*
X-6491849Y-18299240D01*
X-6491849Y-18299240D02*
X-6396611Y-18299240D01*
X-6396611Y-18299240D02*
X-6253754Y-18346859D01*
X-6253754Y-18346859D02*
X-5682325Y-18918287D01*
X-5682325Y-18918287D02*
X-5682325Y-18299240D01*
X-5777564Y-17870668D02*
X-5729944Y-17823049D01*
X-5729944Y-17823049D02*
X-5682325Y-17870668D01*
X-5682325Y-17870668D02*
X-5729944Y-17918287D01*
X-5729944Y-17918287D02*
X-5777564Y-17870668D01*
X-5777564Y-17870668D02*
X-5682325Y-17870668D01*
X-5682325Y-16870669D02*
X-5682325Y-17442097D01*
X-5682325Y-17156383D02*
X-6682325Y-17156383D01*
X-6682325Y-17156383D02*
X-6539468Y-17251621D01*
X-6539468Y-17251621D02*
X-6444230Y-17346859D01*
X-6444230Y-17346859D02*
X-6396611Y-17442097D01*
X-4072381Y-26775431D02*
X-5072381Y-26775431D01*
X-5072381Y-26775431D02*
X-5072381Y-26394479D01*
X-5072381Y-26394479D02*
X-5024762Y-26299241D01*
X-5024762Y-26299241D02*
X-4977143Y-26251622D01*
X-4977143Y-26251622D02*
X-4881905Y-26204003D01*
X-4881905Y-26204003D02*
X-4739048Y-26204003D01*
X-4739048Y-26204003D02*
X-4643810Y-26251622D01*
X-4643810Y-26251622D02*
X-4596191Y-26299241D01*
X-4596191Y-26299241D02*
X-4548572Y-26394479D01*
X-4548572Y-26394479D02*
X-4548572Y-26775431D01*
X-4120000Y-25823050D02*
X-4072381Y-25680193D01*
X-4072381Y-25680193D02*
X-4072381Y-25442098D01*
X-4072381Y-25442098D02*
X-4120000Y-25346860D01*
X-4120000Y-25346860D02*
X-4167620Y-25299241D01*
X-4167620Y-25299241D02*
X-4262858Y-25251622D01*
X-4262858Y-25251622D02*
X-4358096Y-25251622D01*
X-4358096Y-25251622D02*
X-4453334Y-25299241D01*
X-4453334Y-25299241D02*
X-4500953Y-25346860D01*
X-4500953Y-25346860D02*
X-4548572Y-25442098D01*
X-4548572Y-25442098D02*
X-4596191Y-25632574D01*
X-4596191Y-25632574D02*
X-4643810Y-25727812D01*
X-4643810Y-25727812D02*
X-4691429Y-25775431D01*
X-4691429Y-25775431D02*
X-4786667Y-25823050D01*
X-4786667Y-25823050D02*
X-4881905Y-25823050D01*
X-4881905Y-25823050D02*
X-4977143Y-25775431D01*
X-4977143Y-25775431D02*
X-5024762Y-25727812D01*
X-5024762Y-25727812D02*
X-5072381Y-25632574D01*
X-5072381Y-25632574D02*
X-5072381Y-25394479D01*
X-5072381Y-25394479D02*
X-5024762Y-25251622D01*
X-5072381Y-24823050D02*
X-4262858Y-24823050D01*
X-4262858Y-24823050D02*
X-4167620Y-24775431D01*
X-4167620Y-24775431D02*
X-4120000Y-24727812D01*
X-4120000Y-24727812D02*
X-4072381Y-24632574D01*
X-4072381Y-24632574D02*
X-4072381Y-24442098D01*
X-4072381Y-24442098D02*
X-4120000Y-24346860D01*
X-4120000Y-24346860D02*
X-4167620Y-24299241D01*
X-4167620Y-24299241D02*
X-4262858Y-24251622D01*
X-4262858Y-24251622D02*
X-5072381Y-24251622D01*
D12*
X13094100Y-11417228D02*
X13094100Y-10274371D01*
X13665528Y-10845799D02*
X12522671Y-10845799D01*
D13*
<<<<<<< HEAD
=======
X-17413381Y-11401085D02*
X-17413381Y-10829657D01*
X-16413381Y-11115371D02*
X-17413381Y-11115371D01*
X-17413381Y-10305847D02*
X-17413381Y-10115371D01*
X-17413381Y-10115371D02*
X-17365762Y-10020133D01*
X-17365762Y-10020133D02*
X-17270524Y-9924895D01*
X-17270524Y-9924895D02*
X-17080048Y-9877276D01*
X-17080048Y-9877276D02*
X-16746715Y-9877276D01*
X-16746715Y-9877276D02*
X-16556239Y-9924895D01*
X-16556239Y-9924895D02*
X-16461000Y-10020133D01*
X-16461000Y-10020133D02*
X-16413381Y-10115371D01*
X-16413381Y-10115371D02*
X-16413381Y-10305847D01*
X-16413381Y-10305847D02*
X-16461000Y-10401085D01*
X-16461000Y-10401085D02*
X-16556239Y-10496323D01*
X-16556239Y-10496323D02*
X-16746715Y-10543942D01*
X-16746715Y-10543942D02*
X-17080048Y-10543942D01*
X-17080048Y-10543942D02*
X-17270524Y-10496323D01*
X-17270524Y-10496323D02*
X-17365762Y-10401085D01*
X-17365762Y-10401085D02*
X-17413381Y-10305847D01*
X-16508620Y-8115371D02*
X-16461000Y-8162990D01*
X-16461000Y-8162990D02*
X-16413381Y-8305847D01*
X-16413381Y-8305847D02*
X-16413381Y-8401085D01*
X-16413381Y-8401085D02*
X-16461000Y-8543942D01*
X-16461000Y-8543942D02*
X-16556239Y-8639180D01*
X-16556239Y-8639180D02*
X-16651477Y-8686799D01*
X-16651477Y-8686799D02*
X-16841953Y-8734418D01*
X-16841953Y-8734418D02*
X-16984810Y-8734418D01*
X-16984810Y-8734418D02*
X-17175286Y-8686799D01*
X-17175286Y-8686799D02*
X-17270524Y-8639180D01*
X-17270524Y-8639180D02*
X-17365762Y-8543942D01*
X-17365762Y-8543942D02*
X-17413381Y-8401085D01*
X-17413381Y-8401085D02*
X-17413381Y-8305847D01*
X-17413381Y-8305847D02*
X-17365762Y-8162990D01*
X-17365762Y-8162990D02*
X-17318143Y-8115371D01*
X-16413381Y-7686799D02*
X-17413381Y-7686799D01*
X-17413381Y-7686799D02*
X-17413381Y-7305847D01*
X-17413381Y-7305847D02*
X-17365762Y-7210609D01*
X-17365762Y-7210609D02*
X-17318143Y-7162990D01*
X-17318143Y-7162990D02*
X-17222905Y-7115371D01*
X-17222905Y-7115371D02*
X-17080048Y-7115371D01*
X-17080048Y-7115371D02*
X-16984810Y-7162990D01*
X-16984810Y-7162990D02*
X-16937191Y-7210609D01*
X-16937191Y-7210609D02*
X-16889572Y-7305847D01*
X-16889572Y-7305847D02*
X-16889572Y-7686799D01*
X-17413381Y-6686799D02*
X-16603858Y-6686799D01*
X-16603858Y-6686799D02*
X-16508620Y-6639180D01*
X-16508620Y-6639180D02*
X-16461000Y-6591561D01*
X-16461000Y-6591561D02*
X-16413381Y-6496323D01*
X-16413381Y-6496323D02*
X-16413381Y-6305847D01*
X-16413381Y-6305847D02*
X-16461000Y-6210609D01*
X-16461000Y-6210609D02*
X-16508620Y-6162990D01*
X-16508620Y-6162990D02*
X-16603858Y-6115371D01*
X-16603858Y-6115371D02*
X-17413381Y-6115371D01*
>>>>>>> 2e23f7f8cb64151a60ec3d004f8241720292418e
X-13287095Y-10910704D02*
X-12810905Y-10910704D01*
X-13382333Y-11196419D02*
X-13049000Y-10196419D01*
X-13049000Y-10196419D02*
X-12715667Y-11196419D01*
X-11810905Y-11101180D02*
X-11858524Y-11148800D01*
X-11858524Y-11148800D02*
X-12001381Y-11196419D01*
X-12001381Y-11196419D02*
X-12096619Y-11196419D01*
X-12096619Y-11196419D02*
X-12239476Y-11148800D01*
X-12239476Y-11148800D02*
X-12334714Y-11053561D01*
X-12334714Y-11053561D02*
X-12382333Y-10958323D01*
X-12382333Y-10958323D02*
X-12429952Y-10767847D01*
X-12429952Y-10767847D02*
X-12429952Y-10624990D01*
X-12429952Y-10624990D02*
X-12382333Y-10434514D01*
X-12382333Y-10434514D02*
X-12334714Y-10339276D01*
X-12334714Y-10339276D02*
X-12239476Y-10244038D01*
X-12239476Y-10244038D02*
X-12096619Y-10196419D01*
X-12096619Y-10196419D02*
X-12001381Y-10196419D01*
X-12001381Y-10196419D02*
X-11858524Y-10244038D01*
X-11858524Y-10244038D02*
X-11810905Y-10291657D01*
X-10810905Y-11101180D02*
X-10858524Y-11148800D01*
X-10858524Y-11148800D02*
X-11001381Y-11196419D01*
X-11001381Y-11196419D02*
X-11096619Y-11196419D01*
X-11096619Y-11196419D02*
X-11239476Y-11148800D01*
X-11239476Y-11148800D02*
X-11334714Y-11053561D01*
X-11334714Y-11053561D02*
X-11382333Y-10958323D01*
X-11382333Y-10958323D02*
X-11429952Y-10767847D01*
X-11429952Y-10767847D02*
X-11429952Y-10624990D01*
X-11429952Y-10624990D02*
X-11382333Y-10434514D01*
X-11382333Y-10434514D02*
X-11334714Y-10339276D01*
X-11334714Y-10339276D02*
X-11239476Y-10244038D01*
X-11239476Y-10244038D02*
X-11096619Y-10196419D01*
X-11096619Y-10196419D02*
X-11001381Y-10196419D01*
X-11001381Y-10196419D02*
X-10858524Y-10244038D01*
X-10858524Y-10244038D02*
X-10810905Y-10291657D01*
X-10382333Y-10196419D02*
X-10382333Y-11005942D01*
X-10382333Y-11005942D02*
X-10334714Y-11101180D01*
X-10334714Y-11101180D02*
X-10287095Y-11148800D01*
X-10287095Y-11148800D02*
X-10191857Y-11196419D01*
X-10191857Y-11196419D02*
X-10001381Y-11196419D01*
X-10001381Y-11196419D02*
X-9906143Y-11148800D01*
X-9906143Y-11148800D02*
X-9858524Y-11101180D01*
X-9858524Y-11101180D02*
X-9810905Y-11005942D01*
X-9810905Y-11005942D02*
X-9810905Y-10196419D01*
X-9382333Y-10291657D02*
X-9334714Y-10244038D01*
X-9334714Y-10244038D02*
X-9239476Y-10196419D01*
X-9239476Y-10196419D02*
X-9001381Y-10196419D01*
X-9001381Y-10196419D02*
X-8906143Y-10244038D01*
X-8906143Y-10244038D02*
X-8858524Y-10291657D01*
X-8858524Y-10291657D02*
X-8810905Y-10386895D01*
X-8810905Y-10386895D02*
X-8810905Y-10482133D01*
X-8810905Y-10482133D02*
X-8858524Y-10624990D01*
X-8858524Y-10624990D02*
X-9429952Y-11196419D01*
X-9429952Y-11196419D02*
X-8810905Y-11196419D01*
D12*
X-9386800Y-14483428D02*
X-9386800Y-13340571D01*
X-8815372Y-13911999D02*
X-9958229Y-13911999D01*
X-9386800Y-26783428D02*
X-9386800Y-25640571D01*
D13*
<<<<<<< HEAD
X-7682096Y17211906D02*
X-7682096Y17688096D01*
X-7396381Y17116668D02*
X-8396381Y17450001D01*
X-8396381Y17450001D02*
X-7396381Y17783334D01*
X-7491620Y18688096D02*
X-7444000Y18640477D01*
X-7444000Y18640477D02*
X-7396381Y18497620D01*
X-7396381Y18497620D02*
X-7396381Y18402382D01*
X-7396381Y18402382D02*
X-7444000Y18259525D01*
X-7444000Y18259525D02*
X-7539239Y18164287D01*
X-7539239Y18164287D02*
X-7634477Y18116668D01*
X-7634477Y18116668D02*
X-7824953Y18069049D01*
X-7824953Y18069049D02*
X-7967810Y18069049D01*
X-7967810Y18069049D02*
X-8158286Y18116668D01*
X-8158286Y18116668D02*
X-8253524Y18164287D01*
X-8253524Y18164287D02*
X-8348762Y18259525D01*
X-8348762Y18259525D02*
X-8396381Y18402382D01*
X-8396381Y18402382D02*
X-8396381Y18497620D01*
X-8396381Y18497620D02*
X-8348762Y18640477D01*
X-8348762Y18640477D02*
X-8301143Y18688096D01*
X-7491620Y19688096D02*
X-7444000Y19640477D01*
X-7444000Y19640477D02*
X-7396381Y19497620D01*
X-7396381Y19497620D02*
X-7396381Y19402382D01*
X-7396381Y19402382D02*
X-7444000Y19259525D01*
X-7444000Y19259525D02*
X-7539239Y19164287D01*
X-7539239Y19164287D02*
X-7634477Y19116668D01*
X-7634477Y19116668D02*
X-7824953Y19069049D01*
X-7824953Y19069049D02*
X-7967810Y19069049D01*
X-7967810Y19069049D02*
X-8158286Y19116668D01*
X-8158286Y19116668D02*
X-8253524Y19164287D01*
X-8253524Y19164287D02*
X-8348762Y19259525D01*
X-8348762Y19259525D02*
X-8396381Y19402382D01*
X-8396381Y19402382D02*
X-8396381Y19497620D01*
X-8396381Y19497620D02*
X-8348762Y19640477D01*
X-8348762Y19640477D02*
X-8301143Y19688096D01*
X-8396381Y20116668D02*
X-7586858Y20116668D01*
X-7586858Y20116668D02*
X-7491620Y20164287D01*
X-7491620Y20164287D02*
X-7444000Y20211906D01*
X-7444000Y20211906D02*
X-7396381Y20307144D01*
X-7396381Y20307144D02*
X-7396381Y20497620D01*
X-7396381Y20497620D02*
X-7444000Y20592858D01*
X-7444000Y20592858D02*
X-7491620Y20640477D01*
X-7491620Y20640477D02*
X-7586858Y20688096D01*
X-7586858Y20688096D02*
X-8396381Y20688096D01*
X-8301143Y21116668D02*
X-8348762Y21164287D01*
X-8348762Y21164287D02*
X-8396381Y21259525D01*
X-8396381Y21259525D02*
X-8396381Y21497620D01*
X-8396381Y21497620D02*
X-8348762Y21592858D01*
X-8348762Y21592858D02*
X-8301143Y21640477D01*
X-8301143Y21640477D02*
X-8205905Y21688096D01*
X-8205905Y21688096D02*
X-8110667Y21688096D01*
X-8110667Y21688096D02*
X-7967810Y21640477D01*
X-7967810Y21640477D02*
X-7396381Y21069049D01*
X-7396381Y21069049D02*
X-7396381Y21688096D01*
D12*
X-9386800Y24778572D02*
X-9386800Y25921429D01*
X-8815372Y25350001D02*
X-9958229Y25350001D01*
X-9386800Y12478572D02*
X-9386800Y13621429D01*
D14*
X5710800Y-26600489D02*
X6044133Y-26600489D01*
X6186990Y-27124299D02*
X5710800Y-27124299D01*
X5710800Y-27124299D02*
X5710800Y-26124299D01*
X5710800Y-26124299D02*
X6186990Y-26124299D01*
X6567943Y-27076680D02*
X6710800Y-27124299D01*
X6710800Y-27124299D02*
X6948895Y-27124299D01*
X6948895Y-27124299D02*
X7044133Y-27076680D01*
X7044133Y-27076680D02*
X7091752Y-27029060D01*
X7091752Y-27029060D02*
X7139371Y-26933822D01*
X7139371Y-26933822D02*
X7139371Y-26838584D01*
X7139371Y-26838584D02*
X7091752Y-26743346D01*
X7091752Y-26743346D02*
X7044133Y-26695727D01*
X7044133Y-26695727D02*
X6948895Y-26648108D01*
X6948895Y-26648108D02*
X6758419Y-26600489D01*
X6758419Y-26600489D02*
X6663181Y-26552870D01*
X6663181Y-26552870D02*
X6615562Y-26505251D01*
X6615562Y-26505251D02*
X6567943Y-26410013D01*
X6567943Y-26410013D02*
X6567943Y-26314775D01*
X6567943Y-26314775D02*
X6615562Y-26219537D01*
X6615562Y-26219537D02*
X6663181Y-26171918D01*
X6663181Y-26171918D02*
X6758419Y-26124299D01*
X6758419Y-26124299D02*
X6996514Y-26124299D01*
X6996514Y-26124299D02*
X7139371Y-26171918D01*
X8139371Y-27029060D02*
X8091752Y-27076680D01*
X8091752Y-27076680D02*
X7948895Y-27124299D01*
X7948895Y-27124299D02*
X7853657Y-27124299D01*
X7853657Y-27124299D02*
X7710800Y-27076680D01*
X7710800Y-27076680D02*
X7615562Y-26981441D01*
X7615562Y-26981441D02*
X7567943Y-26886203D01*
X7567943Y-26886203D02*
X7520324Y-26695727D01*
X7520324Y-26695727D02*
X7520324Y-26552870D01*
X7520324Y-26552870D02*
X7567943Y-26362394D01*
X7567943Y-26362394D02*
X7615562Y-26267156D01*
X7615562Y-26267156D02*
X7710800Y-26171918D01*
X7710800Y-26171918D02*
X7853657Y-26124299D01*
X7853657Y-26124299D02*
X7948895Y-26124299D01*
X7948895Y-26124299D02*
X8091752Y-26171918D01*
X8091752Y-26171918D02*
X8139371Y-26219537D01*
X8329848Y-27219537D02*
X9091752Y-27219537D01*
X9329848Y-27124299D02*
X9329848Y-26124299D01*
X9329848Y-26124299D02*
X9710800Y-26124299D01*
X9710800Y-26124299D02*
X9806038Y-26171918D01*
X9806038Y-26171918D02*
X9853657Y-26219537D01*
X9853657Y-26219537D02*
X9901276Y-26314775D01*
X9901276Y-26314775D02*
X9901276Y-26457632D01*
X9901276Y-26457632D02*
X9853657Y-26552870D01*
X9853657Y-26552870D02*
X9806038Y-26600489D01*
X9806038Y-26600489D02*
X9710800Y-26648108D01*
X9710800Y-26648108D02*
X9329848Y-26648108D01*
X10234610Y-26124299D02*
X10472705Y-27124299D01*
X10472705Y-27124299D02*
X10663181Y-26410013D01*
X10663181Y-26410013D02*
X10853657Y-27124299D01*
X10853657Y-27124299D02*
X11091753Y-26124299D01*
X12044133Y-27124299D02*
X11710800Y-26648108D01*
X11472705Y-27124299D02*
X11472705Y-26124299D01*
X11472705Y-26124299D02*
X11853657Y-26124299D01*
X11853657Y-26124299D02*
X11948895Y-26171918D01*
X11948895Y-26171918D02*
X11996514Y-26219537D01*
X11996514Y-26219537D02*
X12044133Y-26314775D01*
X12044133Y-26314775D02*
X12044133Y-26457632D01*
X12044133Y-26457632D02*
X11996514Y-26552870D01*
X11996514Y-26552870D02*
X11948895Y-26600489D01*
X11948895Y-26600489D02*
X11853657Y-26648108D01*
X11853657Y-26648108D02*
X11472705Y-26648108D01*
X12234610Y-27219537D02*
X12996514Y-27219537D01*
X13186991Y-27076680D02*
X13329848Y-27124299D01*
X13329848Y-27124299D02*
X13567943Y-27124299D01*
X13567943Y-27124299D02*
X13663181Y-27076680D01*
X13663181Y-27076680D02*
X13710800Y-27029060D01*
X13710800Y-27029060D02*
X13758419Y-26933822D01*
X13758419Y-26933822D02*
X13758419Y-26838584D01*
X13758419Y-26838584D02*
X13710800Y-26743346D01*
X13710800Y-26743346D02*
X13663181Y-26695727D01*
X13663181Y-26695727D02*
X13567943Y-26648108D01*
X13567943Y-26648108D02*
X13377467Y-26600489D01*
X13377467Y-26600489D02*
X13282229Y-26552870D01*
X13282229Y-26552870D02*
X13234610Y-26505251D01*
X13234610Y-26505251D02*
X13186991Y-26410013D01*
X13186991Y-26410013D02*
X13186991Y-26314775D01*
X13186991Y-26314775D02*
X13234610Y-26219537D01*
X13234610Y-26219537D02*
X13282229Y-26171918D01*
X13282229Y-26171918D02*
X13377467Y-26124299D01*
X13377467Y-26124299D02*
X13615562Y-26124299D01*
X13615562Y-26124299D02*
X13758419Y-26171918D01*
X14520324Y-26600489D02*
X14663181Y-26648108D01*
X14663181Y-26648108D02*
X14710800Y-26695727D01*
X14710800Y-26695727D02*
X14758419Y-26790965D01*
X14758419Y-26790965D02*
X14758419Y-26933822D01*
X14758419Y-26933822D02*
X14710800Y-27029060D01*
X14710800Y-27029060D02*
X14663181Y-27076680D01*
X14663181Y-27076680D02*
X14567943Y-27124299D01*
X14567943Y-27124299D02*
X14186991Y-27124299D01*
X14186991Y-27124299D02*
X14186991Y-26124299D01*
X14186991Y-26124299D02*
X14520324Y-26124299D01*
X14520324Y-26124299D02*
X14615562Y-26171918D01*
X14615562Y-26171918D02*
X14663181Y-26219537D01*
X14663181Y-26219537D02*
X14710800Y-26314775D01*
X14710800Y-26314775D02*
X14710800Y-26410013D01*
X14710800Y-26410013D02*
X14663181Y-26505251D01*
X14663181Y-26505251D02*
X14615562Y-26552870D01*
X14615562Y-26552870D02*
X14520324Y-26600489D01*
X14520324Y-26600489D02*
X14186991Y-26600489D01*
D12*
X15923466Y-26136551D02*
X15923466Y-25374647D01*
X15938900Y-12280828D02*
X15938900Y-11137971D01*
X16510328Y-11709399D02*
X15367471Y-11709399D01*
D13*
X-17413381Y-11401085D02*
X-17413381Y-10829657D01*
X-16413381Y-11115371D02*
X-17413381Y-11115371D01*
X-17413381Y-10305847D02*
X-17413381Y-10115371D01*
X-17413381Y-10115371D02*
X-17365762Y-10020133D01*
X-17365762Y-10020133D02*
X-17270524Y-9924895D01*
X-17270524Y-9924895D02*
X-17080048Y-9877276D01*
X-17080048Y-9877276D02*
X-16746715Y-9877276D01*
X-16746715Y-9877276D02*
X-16556239Y-9924895D01*
X-16556239Y-9924895D02*
X-16461000Y-10020133D01*
X-16461000Y-10020133D02*
X-16413381Y-10115371D01*
X-16413381Y-10115371D02*
X-16413381Y-10305847D01*
X-16413381Y-10305847D02*
X-16461000Y-10401085D01*
X-16461000Y-10401085D02*
X-16556239Y-10496323D01*
X-16556239Y-10496323D02*
X-16746715Y-10543942D01*
X-16746715Y-10543942D02*
X-17080048Y-10543942D01*
X-17080048Y-10543942D02*
X-17270524Y-10496323D01*
X-17270524Y-10496323D02*
X-17365762Y-10401085D01*
X-17365762Y-10401085D02*
X-17413381Y-10305847D01*
X-16508620Y-8115371D02*
X-16461000Y-8162990D01*
X-16461000Y-8162990D02*
X-16413381Y-8305847D01*
X-16413381Y-8305847D02*
X-16413381Y-8401085D01*
X-16413381Y-8401085D02*
X-16461000Y-8543942D01*
X-16461000Y-8543942D02*
X-16556239Y-8639180D01*
X-16556239Y-8639180D02*
X-16651477Y-8686799D01*
X-16651477Y-8686799D02*
X-16841953Y-8734418D01*
X-16841953Y-8734418D02*
X-16984810Y-8734418D01*
X-16984810Y-8734418D02*
X-17175286Y-8686799D01*
X-17175286Y-8686799D02*
X-17270524Y-8639180D01*
X-17270524Y-8639180D02*
X-17365762Y-8543942D01*
X-17365762Y-8543942D02*
X-17413381Y-8401085D01*
X-17413381Y-8401085D02*
X-17413381Y-8305847D01*
X-17413381Y-8305847D02*
X-17365762Y-8162990D01*
X-17365762Y-8162990D02*
X-17318143Y-8115371D01*
X-16413381Y-7686799D02*
X-17413381Y-7686799D01*
X-17413381Y-7686799D02*
X-17413381Y-7305847D01*
X-17413381Y-7305847D02*
X-17365762Y-7210609D01*
X-17365762Y-7210609D02*
X-17318143Y-7162990D01*
X-17318143Y-7162990D02*
X-17222905Y-7115371D01*
X-17222905Y-7115371D02*
X-17080048Y-7115371D01*
X-17080048Y-7115371D02*
X-16984810Y-7162990D01*
X-16984810Y-7162990D02*
X-16937191Y-7210609D01*
X-16937191Y-7210609D02*
X-16889572Y-7305847D01*
X-16889572Y-7305847D02*
X-16889572Y-7686799D01*
X-17413381Y-6686799D02*
X-16603858Y-6686799D01*
X-16603858Y-6686799D02*
X-16508620Y-6639180D01*
X-16508620Y-6639180D02*
X-16461000Y-6591561D01*
X-16461000Y-6591561D02*
X-16413381Y-6496323D01*
X-16413381Y-6496323D02*
X-16413381Y-6305847D01*
X-16413381Y-6305847D02*
X-16461000Y-6210609D01*
X-16461000Y-6210609D02*
X-16508620Y-6162990D01*
X-16508620Y-6162990D02*
X-16603858Y-6115371D01*
X-16603858Y-6115371D02*
X-17413381Y-6115371D01*
=======
>>>>>>> 2e23f7f8cb64151a60ec3d004f8241720292418e
X2254571Y13254191D02*
X2587904Y13254191D01*
X2730761Y12730381D02*
X2254571Y12730381D01*
X2254571Y12730381D02*
X2254571Y13730381D01*
X2254571Y13730381D02*
X2730761Y13730381D01*
X3111714Y12778000D02*
X3254571Y12730381D01*
X3254571Y12730381D02*
X3492666Y12730381D01*
X3492666Y12730381D02*
X3587904Y12778000D01*
X3587904Y12778000D02*
X3635523Y12825620D01*
X3635523Y12825620D02*
X3683142Y12920858D01*
X3683142Y12920858D02*
X3683142Y13016096D01*
X3683142Y13016096D02*
X3635523Y13111334D01*
X3635523Y13111334D02*
X3587904Y13158953D01*
X3587904Y13158953D02*
X3492666Y13206572D01*
X3492666Y13206572D02*
X3302190Y13254191D01*
X3302190Y13254191D02*
X3206952Y13301810D01*
X3206952Y13301810D02*
X3159333Y13349429D01*
X3159333Y13349429D02*
X3111714Y13444667D01*
X3111714Y13444667D02*
X3111714Y13539905D01*
X3111714Y13539905D02*
X3159333Y13635143D01*
X3159333Y13635143D02*
X3206952Y13682762D01*
X3206952Y13682762D02*
X3302190Y13730381D01*
X3302190Y13730381D02*
X3540285Y13730381D01*
X3540285Y13730381D02*
X3683142Y13682762D01*
X4683142Y12825620D02*
X4635523Y12778000D01*
X4635523Y12778000D02*
X4492666Y12730381D01*
X4492666Y12730381D02*
X4397428Y12730381D01*
X4397428Y12730381D02*
X4254571Y12778000D01*
X4254571Y12778000D02*
X4159333Y12873239D01*
X4159333Y12873239D02*
X4111714Y12968477D01*
X4111714Y12968477D02*
X4064095Y13158953D01*
X4064095Y13158953D02*
X4064095Y13301810D01*
X4064095Y13301810D02*
X4111714Y13492286D01*
X4111714Y13492286D02*
X4159333Y13587524D01*
X4159333Y13587524D02*
X4254571Y13682762D01*
X4254571Y13682762D02*
X4397428Y13730381D01*
X4397428Y13730381D02*
X4492666Y13730381D01*
X4492666Y13730381D02*
X4635523Y13682762D01*
X4635523Y13682762D02*
X4683142Y13635143D01*
X4873619Y12635143D02*
X5635523Y12635143D01*
X6206952Y13254191D02*
X6349809Y13206572D01*
X6349809Y13206572D02*
X6397428Y13158953D01*
X6397428Y13158953D02*
X6445047Y13063715D01*
X6445047Y13063715D02*
X6445047Y12920858D01*
X6445047Y12920858D02*
X6397428Y12825620D01*
X6397428Y12825620D02*
X6349809Y12778000D01*
X6349809Y12778000D02*
X6254571Y12730381D01*
X6254571Y12730381D02*
X5873619Y12730381D01*
X5873619Y12730381D02*
X5873619Y13730381D01*
X5873619Y13730381D02*
X6206952Y13730381D01*
X6206952Y13730381D02*
X6302190Y13682762D01*
X6302190Y13682762D02*
X6349809Y13635143D01*
X6349809Y13635143D02*
X6397428Y13539905D01*
X6397428Y13539905D02*
X6397428Y13444667D01*
X6397428Y13444667D02*
X6349809Y13349429D01*
X6349809Y13349429D02*
X6302190Y13301810D01*
X6302190Y13301810D02*
X6206952Y13254191D01*
X6206952Y13254191D02*
X5873619Y13254191D01*
X7206952Y13254191D02*
X7349809Y13206572D01*
X7349809Y13206572D02*
X7397428Y13158953D01*
X7397428Y13158953D02*
X7445047Y13063715D01*
X7445047Y13063715D02*
X7445047Y12920858D01*
X7445047Y12920858D02*
X7397428Y12825620D01*
X7397428Y12825620D02*
X7349809Y12778000D01*
X7349809Y12778000D02*
X7254571Y12730381D01*
X7254571Y12730381D02*
X6873619Y12730381D01*
X6873619Y12730381D02*
X6873619Y13730381D01*
X6873619Y13730381D02*
X7206952Y13730381D01*
X7206952Y13730381D02*
X7302190Y13682762D01*
X7302190Y13682762D02*
X7349809Y13635143D01*
X7349809Y13635143D02*
X7397428Y13539905D01*
X7397428Y13539905D02*
X7397428Y13444667D01*
X7397428Y13444667D02*
X7349809Y13349429D01*
X7349809Y13349429D02*
X7302190Y13301810D01*
X7302190Y13301810D02*
X7206952Y13254191D01*
X7206952Y13254191D02*
X6873619Y13254191D01*
<<<<<<< HEAD
D15*
=======
D14*
>>>>>>> 2e23f7f8cb64151a60ec3d004f8241720292418e
X12611142Y9893500D02*
X13296857Y9893500D01*
X12953999Y9550643D02*
X12953999Y10236358D01*
X-16030300Y-10299657D02*
X-16030300Y-9613943D01*
X-15687443Y-9956800D02*
X-16373158Y-9956800D01*
D13*
X8582590Y27249591D02*
X8915923Y27249591D01*
X9058780Y26725781D02*
X8582590Y26725781D01*
X8582590Y26725781D02*
X8582590Y27725781D01*
X8582590Y27725781D02*
X9058780Y27725781D01*
X9439733Y26773400D02*
X9582590Y26725781D01*
X9582590Y26725781D02*
X9820685Y26725781D01*
X9820685Y26725781D02*
X9915923Y26773400D01*
X9915923Y26773400D02*
X9963542Y26821020D01*
X9963542Y26821020D02*
X10011161Y26916258D01*
X10011161Y26916258D02*
X10011161Y27011496D01*
X10011161Y27011496D02*
X9963542Y27106734D01*
X9963542Y27106734D02*
X9915923Y27154353D01*
X9915923Y27154353D02*
X9820685Y27201972D01*
X9820685Y27201972D02*
X9630209Y27249591D01*
X9630209Y27249591D02*
X9534971Y27297210D01*
X9534971Y27297210D02*
X9487352Y27344829D01*
X9487352Y27344829D02*
X9439733Y27440067D01*
X9439733Y27440067D02*
X9439733Y27535305D01*
X9439733Y27535305D02*
X9487352Y27630543D01*
X9487352Y27630543D02*
X9534971Y27678162D01*
X9534971Y27678162D02*
X9630209Y27725781D01*
X9630209Y27725781D02*
X9868304Y27725781D01*
X9868304Y27725781D02*
X10011161Y27678162D01*
X11011161Y26821020D02*
X10963542Y26773400D01*
X10963542Y26773400D02*
X10820685Y26725781D01*
X10820685Y26725781D02*
X10725447Y26725781D01*
X10725447Y26725781D02*
X10582590Y26773400D01*
X10582590Y26773400D02*
X10487352Y26868639D01*
X10487352Y26868639D02*
X10439733Y26963877D01*
X10439733Y26963877D02*
X10392114Y27154353D01*
X10392114Y27154353D02*
X10392114Y27297210D01*
X10392114Y27297210D02*
X10439733Y27487686D01*
X10439733Y27487686D02*
X10487352Y27582924D01*
X10487352Y27582924D02*
X10582590Y27678162D01*
X10582590Y27678162D02*
X10725447Y27725781D01*
X10725447Y27725781D02*
X10820685Y27725781D01*
X10820685Y27725781D02*
X10963542Y27678162D01*
X10963542Y27678162D02*
X11011161Y27630543D01*
X11201638Y26630543D02*
X11963542Y26630543D01*
X12201638Y26725781D02*
X12201638Y27725781D01*
X12201638Y27725781D02*
X12582590Y27725781D01*
X12582590Y27725781D02*
X12677828Y27678162D01*
X12677828Y27678162D02*
X12725447Y27630543D01*
X12725447Y27630543D02*
X12773066Y27535305D01*
X12773066Y27535305D02*
X12773066Y27392448D01*
X12773066Y27392448D02*
X12725447Y27297210D01*
X12725447Y27297210D02*
X12677828Y27249591D01*
X12677828Y27249591D02*
X12582590Y27201972D01*
X12582590Y27201972D02*
X12201638Y27201972D01*
X13106400Y27725781D02*
X13344495Y26725781D01*
X13344495Y26725781D02*
X13534971Y27440067D01*
X13534971Y27440067D02*
X13725447Y26725781D01*
X13725447Y26725781D02*
X13963543Y27725781D01*
X14915923Y26725781D02*
X14582590Y27201972D01*
X14344495Y26725781D02*
X14344495Y27725781D01*
X14344495Y27725781D02*
X14725447Y27725781D01*
X14725447Y27725781D02*
X14820685Y27678162D01*
X14820685Y27678162D02*
X14868304Y27630543D01*
X14868304Y27630543D02*
X14915923Y27535305D01*
X14915923Y27535305D02*
X14915923Y27392448D01*
X14915923Y27392448D02*
X14868304Y27297210D01*
X14868304Y27297210D02*
X14820685Y27249591D01*
X14820685Y27249591D02*
X14725447Y27201972D01*
X14725447Y27201972D02*
X14344495Y27201972D01*
X15106400Y26630543D02*
X15868304Y26630543D01*
X16439733Y27249591D02*
X16582590Y27201972D01*
X16582590Y27201972D02*
X16630209Y27154353D01*
X16630209Y27154353D02*
X16677828Y27059115D01*
X16677828Y27059115D02*
X16677828Y26916258D01*
X16677828Y26916258D02*
X16630209Y26821020D01*
X16630209Y26821020D02*
X16582590Y26773400D01*
X16582590Y26773400D02*
X16487352Y26725781D01*
X16487352Y26725781D02*
X16106400Y26725781D01*
X16106400Y26725781D02*
X16106400Y27725781D01*
X16106400Y27725781D02*
X16439733Y27725781D01*
X16439733Y27725781D02*
X16534971Y27678162D01*
X16534971Y27678162D02*
X16582590Y27630543D01*
X16582590Y27630543D02*
X16630209Y27535305D01*
X16630209Y27535305D02*
X16630209Y27440067D01*
X16630209Y27440067D02*
X16582590Y27344829D01*
X16582590Y27344829D02*
X16534971Y27297210D01*
X16534971Y27297210D02*
X16439733Y27249591D01*
X16439733Y27249591D02*
X16106400Y27249591D01*
X17439733Y27249591D02*
X17582590Y27201972D01*
X17582590Y27201972D02*
X17630209Y27154353D01*
X17630209Y27154353D02*
X17677828Y27059115D01*
X17677828Y27059115D02*
X17677828Y26916258D01*
X17677828Y26916258D02*
X17630209Y26821020D01*
X17630209Y26821020D02*
X17582590Y26773400D01*
X17582590Y26773400D02*
X17487352Y26725781D01*
X17487352Y26725781D02*
X17106400Y26725781D01*
X17106400Y26725781D02*
X17106400Y27725781D01*
X17106400Y27725781D02*
X17439733Y27725781D01*
X17439733Y27725781D02*
X17534971Y27678162D01*
X17534971Y27678162D02*
X17582590Y27630543D01*
X17582590Y27630543D02*
X17630209Y27535305D01*
X17630209Y27535305D02*
X17630209Y27440067D01*
X17630209Y27440067D02*
X17582590Y27344829D01*
X17582590Y27344829D02*
X17534971Y27297210D01*
X17534971Y27297210D02*
X17439733Y27249591D01*
X17439733Y27249591D02*
X17106400Y27249591D01*
D12*
X15745666Y11480849D02*
X15745666Y12242753D01*
X16065900Y25692172D02*
X16065900Y26835029D01*
X16637328Y26263601D02*
X15494471Y26263601D01*
<<<<<<< HEAD
D15*
=======
D14*
>>>>>>> 2e23f7f8cb64151a60ec3d004f8241720292418e
X2804972Y1590905D02*
X2804972Y2390905D01*
X2804972Y2390905D02*
X3109734Y2390905D01*
X3109734Y2390905D02*
X3185924Y2352810D01*
X3185924Y2352810D02*
X3224019Y2314715D01*
X3224019Y2314715D02*
X3262115Y2238524D01*
X3262115Y2238524D02*
X3262115Y2124239D01*
X3262115Y2124239D02*
X3224019Y2048048D01*
X3224019Y2048048D02*
X3185924Y2009953D01*
X3185924Y2009953D02*
X3109734Y1971858D01*
X3109734Y1971858D02*
X2804972Y1971858D01*
X3528781Y2390905D02*
X3719257Y1590905D01*
X3719257Y1590905D02*
X3871638Y2162334D01*
X3871638Y2162334D02*
X4024019Y1590905D01*
X4024019Y1590905D02*
X4214496Y2390905D01*
X4976401Y1590905D02*
X4709734Y1971858D01*
X4519258Y1590905D02*
X4519258Y2390905D01*
X4519258Y2390905D02*
X4824020Y2390905D01*
X4824020Y2390905D02*
X4900210Y2352810D01*
X4900210Y2352810D02*
X4938305Y2314715D01*
X4938305Y2314715D02*
X4976401Y2238524D01*
X4976401Y2238524D02*
X4976401Y2124239D01*
X4976401Y2124239D02*
X4938305Y2048048D01*
X4938305Y2048048D02*
X4900210Y2009953D01*
X4900210Y2009953D02*
X4824020Y1971858D01*
X4824020Y1971858D02*
X4519258Y1971858D01*
X5128782Y1514715D02*
X5738305Y1514715D01*
X5928782Y2009953D02*
X6195448Y2009953D01*
X6309734Y1590905D02*
X5928782Y1590905D01*
X5928782Y1590905D02*
X5928782Y2390905D01*
X5928782Y2390905D02*
X6309734Y2390905D01*
X6652592Y1590905D02*
X6652592Y2390905D01*
X6652592Y2390905D02*
X7109735Y1590905D01*
X7109735Y1590905D02*
X7109735Y2390905D01*
X-1527353Y22600877D02*
X-1527353Y22867543D01*
X-1108305Y22981829D02*
X-1108305Y22600877D01*
X-1108305Y22600877D02*
X-1908305Y22600877D01*
X-1908305Y22600877D02*
X-1908305Y22981829D01*
X-1146400Y23286591D02*
X-1108305Y23400877D01*
X-1108305Y23400877D02*
X-1108305Y23591353D01*
X-1108305Y23591353D02*
X-1146400Y23667544D01*
X-1146400Y23667544D02*
X-1184496Y23705639D01*
X-1184496Y23705639D02*
X-1260686Y23743734D01*
X-1260686Y23743734D02*
X-1336877Y23743734D01*
X-1336877Y23743734D02*
X-1413067Y23705639D01*
X-1413067Y23705639D02*
X-1451162Y23667544D01*
X-1451162Y23667544D02*
X-1489258Y23591353D01*
X-1489258Y23591353D02*
X-1527353Y23438972D01*
X-1527353Y23438972D02*
X-1565448Y23362782D01*
X-1565448Y23362782D02*
X-1603543Y23324687D01*
X-1603543Y23324687D02*
X-1679734Y23286591D01*
X-1679734Y23286591D02*
X-1755924Y23286591D01*
X-1755924Y23286591D02*
X-1832115Y23324687D01*
X-1832115Y23324687D02*
X-1870210Y23362782D01*
X-1870210Y23362782D02*
X-1908305Y23438972D01*
X-1908305Y23438972D02*
X-1908305Y23629449D01*
X-1908305Y23629449D02*
X-1870210Y23743734D01*
X-1184496Y24543735D02*
X-1146400Y24505639D01*
X-1146400Y24505639D02*
X-1108305Y24391354D01*
X-1108305Y24391354D02*
X-1108305Y24315163D01*
X-1108305Y24315163D02*
X-1146400Y24200877D01*
X-1146400Y24200877D02*
X-1222591Y24124687D01*
X-1222591Y24124687D02*
X-1298781Y24086592D01*
X-1298781Y24086592D02*
X-1451162Y24048496D01*
X-1451162Y24048496D02*
X-1565448Y24048496D01*
X-1565448Y24048496D02*
X-1717829Y24086592D01*
X-1717829Y24086592D02*
X-1794020Y24124687D01*
X-1794020Y24124687D02*
X-1870210Y24200877D01*
X-1870210Y24200877D02*
X-1908305Y24315163D01*
X-1908305Y24315163D02*
X-1908305Y24391354D01*
X-1908305Y24391354D02*
X-1870210Y24505639D01*
X-1870210Y24505639D02*
X-1832115Y24543735D01*
X-1032115Y24696115D02*
X-1032115Y25305639D01*
X-1108305Y25496116D02*
X-1908305Y25496116D01*
X-1908305Y25496116D02*
X-1908305Y25800878D01*
X-1908305Y25800878D02*
X-1870210Y25877068D01*
X-1870210Y25877068D02*
X-1832115Y25915163D01*
X-1832115Y25915163D02*
X-1755924Y25953259D01*
X-1755924Y25953259D02*
X-1641639Y25953259D01*
X-1641639Y25953259D02*
X-1565448Y25915163D01*
X-1565448Y25915163D02*
X-1527353Y25877068D01*
X-1527353Y25877068D02*
X-1489258Y25800878D01*
X-1489258Y25800878D02*
X-1489258Y25496116D01*
X-1908305Y26219925D02*
X-1108305Y26410401D01*
X-1108305Y26410401D02*
X-1679734Y26562782D01*
X-1679734Y26562782D02*
X-1108305Y26715163D01*
X-1108305Y26715163D02*
X-1908305Y26905639D01*
X-1108305Y27210402D02*
X-1908305Y27210402D01*
X-1908305Y27210402D02*
X-1336877Y27477068D01*
X-1336877Y27477068D02*
X-1908305Y27743735D01*
X-1908305Y27743735D02*
X-1108305Y27743735D01*
<<<<<<< HEAD
D14*
=======
D15*
>>>>>>> 2e23f7f8cb64151a60ec3d004f8241720292418e
X-7264305Y15738082D02*
X-7359543Y15785701D01*
X-7359543Y15785701D02*
X-7502400Y15785701D01*
X-7502400Y15785701D02*
X-7645257Y15738082D01*
X-7645257Y15738082D02*
X-7740495Y15642844D01*
X-7740495Y15642844D02*
X-7788114Y15547606D01*
X-7788114Y15547606D02*
X-7835733Y15357130D01*
X-7835733Y15357130D02*
X-7835733Y15214273D01*
X-7835733Y15214273D02*
X-7788114Y15023797D01*
X-7788114Y15023797D02*
X-7740495Y14928559D01*
X-7740495Y14928559D02*
X-7645257Y14833320D01*
X-7645257Y14833320D02*
X-7502400Y14785701D01*
X-7502400Y14785701D02*
X-7407162Y14785701D01*
X-7407162Y14785701D02*
X-7264305Y14833320D01*
X-7264305Y14833320D02*
X-7216686Y14880940D01*
X-7216686Y14880940D02*
X-7216686Y15214273D01*
X-7216686Y15214273D02*
X-7407162Y15214273D01*
X-6788114Y14785701D02*
X-6788114Y15785701D01*
X-6788114Y15785701D02*
X-6216686Y14785701D01*
X-6216686Y14785701D02*
X-6216686Y15785701D01*
X-5740495Y14785701D02*
X-5740495Y15785701D01*
X-5740495Y15785701D02*
X-5502400Y15785701D01*
X-5502400Y15785701D02*
X-5359543Y15738082D01*
X-5359543Y15738082D02*
X-5264305Y15642844D01*
X-5264305Y15642844D02*
X-5216686Y15547606D01*
X-5216686Y15547606D02*
X-5169067Y15357130D01*
X-5169067Y15357130D02*
X-5169067Y15214273D01*
X-5169067Y15214273D02*
X-5216686Y15023797D01*
X-5216686Y15023797D02*
X-5264305Y14928559D01*
X-5264305Y14928559D02*
X-5359543Y14833320D01*
X-5359543Y14833320D02*
X-5502400Y14785701D01*
X-5502400Y14785701D02*
X-5740495Y14785701D01*
D13*
X12040980Y-10181790D02*
X12088600Y-10229409D01*
X12088600Y-10229409D02*
X12136219Y-10372266D01*
X12136219Y-10372266D02*
X12136219Y-10467504D01*
X12136219Y-10467504D02*
X12088600Y-10610361D01*
X12088600Y-10610361D02*
X11993361Y-10705599D01*
X11993361Y-10705599D02*
X11898123Y-10753218D01*
X11898123Y-10753218D02*
X11707647Y-10800837D01*
X11707647Y-10800837D02*
X11564790Y-10800837D01*
X11564790Y-10800837D02*
X11374314Y-10753218D01*
X11374314Y-10753218D02*
X11279076Y-10705599D01*
X11279076Y-10705599D02*
X11183838Y-10610361D01*
X11183838Y-10610361D02*
X11136219Y-10467504D01*
X11136219Y-10467504D02*
X11136219Y-10372266D01*
X11136219Y-10372266D02*
X11183838Y-10229409D01*
X11183838Y-10229409D02*
X11231457Y-10181790D01*
X12136219Y-9753218D02*
X11136219Y-9753218D01*
X11612409Y-9753218D02*
X11612409Y-9181790D01*
X12136219Y-9181790D02*
X11136219Y-9181790D01*
X12136219Y-8134171D02*
X11660028Y-8467504D01*
X12136219Y-8705599D02*
X11136219Y-8705599D01*
X11136219Y-8705599D02*
X11136219Y-8324647D01*
X11136219Y-8324647D02*
X11183838Y-8229409D01*
X11183838Y-8229409D02*
X11231457Y-8181790D01*
X11231457Y-8181790D02*
X11326695Y-8134171D01*
X11326695Y-8134171D02*
X11469552Y-8134171D01*
X11469552Y-8134171D02*
X11564790Y-8181790D01*
X11564790Y-8181790D02*
X11612409Y-8229409D01*
X11612409Y-8229409D02*
X11660028Y-8324647D01*
X11660028Y-8324647D02*
X11660028Y-8705599D01*
X11183838Y-7181790D02*
X11136219Y-7277028D01*
X11136219Y-7277028D02*
X11136219Y-7419885D01*
X11136219Y-7419885D02*
X11183838Y-7562742D01*
X11183838Y-7562742D02*
X11279076Y-7657980D01*
X11279076Y-7657980D02*
X11374314Y-7705599D01*
X11374314Y-7705599D02*
X11564790Y-7753218D01*
X11564790Y-7753218D02*
X11707647Y-7753218D01*
X11707647Y-7753218D02*
X11898123Y-7705599D01*
X11898123Y-7705599D02*
X11993361Y-7657980D01*
X11993361Y-7657980D02*
X12088600Y-7562742D01*
X12088600Y-7562742D02*
X12136219Y-7419885D01*
X12136219Y-7419885D02*
X12136219Y-7324647D01*
X12136219Y-7324647D02*
X12088600Y-7181790D01*
X12088600Y-7181790D02*
X12040980Y-7134171D01*
X12040980Y-7134171D02*
X11707647Y-7134171D01*
X11707647Y-7134171D02*
X11707647Y-7324647D01*
X11088600Y-5991314D02*
X12374314Y-6848456D01*
X12136219Y-5657980D02*
X11136219Y-5657980D01*
X11136219Y-5657980D02*
X11136219Y-5419885D01*
X11136219Y-5419885D02*
X11183838Y-5277028D01*
X11183838Y-5277028D02*
X11279076Y-5181790D01*
X11279076Y-5181790D02*
X11374314Y-5134171D01*
X11374314Y-5134171D02*
X11564790Y-5086552D01*
X11564790Y-5086552D02*
X11707647Y-5086552D01*
X11707647Y-5086552D02*
X11898123Y-5134171D01*
X11898123Y-5134171D02*
X11993361Y-5181790D01*
X11993361Y-5181790D02*
X12088600Y-5277028D01*
X12088600Y-5277028D02*
X12136219Y-5419885D01*
X12136219Y-5419885D02*
X12136219Y-5657980D01*
X11850504Y-4705599D02*
X11850504Y-4229409D01*
X12136219Y-4800837D02*
X11136219Y-4467504D01*
X11136219Y-4467504D02*
X12136219Y-4134171D01*
X11136219Y-3943694D02*
X11136219Y-3372266D01*
X12136219Y-3657980D02*
X11136219Y-3657980D01*
X11850504Y-3086551D02*
X11850504Y-2610361D01*
X12136219Y-3181789D02*
X11136219Y-2848456D01*
X11136219Y-2848456D02*
X12136219Y-2515123D01*
D12*
X13271900Y10553772D02*
X13271900Y11696629D01*
<<<<<<< HEAD
D14*
=======
D15*
>>>>>>> 2e23f7f8cb64151a60ec3d004f8241720292418e
X-6721587Y4121225D02*
X-6645397Y4121225D01*
X-6645397Y4121225D02*
X-6569206Y4083130D01*
X-6569206Y4083130D02*
X-6531111Y4045035D01*
X-6531111Y4045035D02*
X-6493016Y3968844D01*
X-6493016Y3968844D02*
X-6454921Y3816463D01*
X-6454921Y3816463D02*
X-6454921Y3625987D01*
X-6454921Y3625987D02*
X-6493016Y3473606D01*
X-6493016Y3473606D02*
X-6531111Y3397416D01*
X-6531111Y3397416D02*
X-6569206Y3359320D01*
X-6569206Y3359320D02*
X-6645397Y3321225D01*
X-6645397Y3321225D02*
X-6721587Y3321225D01*
X-6721587Y3321225D02*
X-6797778Y3359320D01*
X-6797778Y3359320D02*
X-6835873Y3397416D01*
X-6835873Y3397416D02*
X-6873968Y3473606D01*
X-6873968Y3473606D02*
X-6912064Y3625987D01*
X-6912064Y3625987D02*
X-6912064Y3816463D01*
X-6912064Y3816463D02*
X-6873968Y3968844D01*
X-6873968Y3968844D02*
X-6835873Y4045035D01*
X-6835873Y4045035D02*
X-6797778Y4083130D01*
X-6797778Y4083130D02*
X-6721587Y4121225D01*
X-6112063Y3397416D02*
X-6073968Y3359320D01*
X-6073968Y3359320D02*
X-6112063Y3321225D01*
X-6112063Y3321225D02*
X-6150159Y3359320D01*
X-6150159Y3359320D02*
X-6112063Y3397416D01*
X-6112063Y3397416D02*
X-6112063Y3321225D01*
X-5807302Y4121225D02*
X-5273968Y4121225D01*
X-5273968Y4121225D02*
X-5616826Y3321225D01*
X-4588254Y4121225D02*
X-4969206Y4121225D01*
X-4969206Y4121225D02*
X-5007302Y3740273D01*
X-5007302Y3740273D02*
X-4969206Y3778368D01*
X-4969206Y3778368D02*
X-4893016Y3816463D01*
X-4893016Y3816463D02*
X-4702540Y3816463D01*
X-4702540Y3816463D02*
X-4626349Y3778368D01*
X-4626349Y3778368D02*
X-4588254Y3740273D01*
X-4588254Y3740273D02*
X-4550159Y3664082D01*
X-4550159Y3664082D02*
X-4550159Y3473606D01*
X-4550159Y3473606D02*
X-4588254Y3397416D01*
X-4588254Y3397416D02*
X-4626349Y3359320D01*
X-4626349Y3359320D02*
X-4702540Y3321225D01*
X-4702540Y3321225D02*
X-4893016Y3321225D01*
X-4893016Y3321225D02*
X-4969206Y3359320D01*
X-4969206Y3359320D02*
X-5007302Y3397416D01*
X-4321587Y4121225D02*
X-4054920Y3321225D01*
X-4054920Y3321225D02*
X-3788254Y4121225D01*
<<<<<<< HEAD
=======
X5710800Y-26600489D02*
X6044133Y-26600489D01*
X6186990Y-27124299D02*
X5710800Y-27124299D01*
X5710800Y-27124299D02*
X5710800Y-26124299D01*
X5710800Y-26124299D02*
X6186990Y-26124299D01*
X6567943Y-27076680D02*
X6710800Y-27124299D01*
X6710800Y-27124299D02*
X6948895Y-27124299D01*
X6948895Y-27124299D02*
X7044133Y-27076680D01*
X7044133Y-27076680D02*
X7091752Y-27029060D01*
X7091752Y-27029060D02*
X7139371Y-26933822D01*
X7139371Y-26933822D02*
X7139371Y-26838584D01*
X7139371Y-26838584D02*
X7091752Y-26743346D01*
X7091752Y-26743346D02*
X7044133Y-26695727D01*
X7044133Y-26695727D02*
X6948895Y-26648108D01*
X6948895Y-26648108D02*
X6758419Y-26600489D01*
X6758419Y-26600489D02*
X6663181Y-26552870D01*
X6663181Y-26552870D02*
X6615562Y-26505251D01*
X6615562Y-26505251D02*
X6567943Y-26410013D01*
X6567943Y-26410013D02*
X6567943Y-26314775D01*
X6567943Y-26314775D02*
X6615562Y-26219537D01*
X6615562Y-26219537D02*
X6663181Y-26171918D01*
X6663181Y-26171918D02*
X6758419Y-26124299D01*
X6758419Y-26124299D02*
X6996514Y-26124299D01*
X6996514Y-26124299D02*
X7139371Y-26171918D01*
X8139371Y-27029060D02*
X8091752Y-27076680D01*
X8091752Y-27076680D02*
X7948895Y-27124299D01*
X7948895Y-27124299D02*
X7853657Y-27124299D01*
X7853657Y-27124299D02*
X7710800Y-27076680D01*
X7710800Y-27076680D02*
X7615562Y-26981441D01*
X7615562Y-26981441D02*
X7567943Y-26886203D01*
X7567943Y-26886203D02*
X7520324Y-26695727D01*
X7520324Y-26695727D02*
X7520324Y-26552870D01*
X7520324Y-26552870D02*
X7567943Y-26362394D01*
X7567943Y-26362394D02*
X7615562Y-26267156D01*
X7615562Y-26267156D02*
X7710800Y-26171918D01*
X7710800Y-26171918D02*
X7853657Y-26124299D01*
X7853657Y-26124299D02*
X7948895Y-26124299D01*
X7948895Y-26124299D02*
X8091752Y-26171918D01*
X8091752Y-26171918D02*
X8139371Y-26219537D01*
X8329848Y-27219537D02*
X9091752Y-27219537D01*
X9329848Y-27124299D02*
X9329848Y-26124299D01*
X9329848Y-26124299D02*
X9710800Y-26124299D01*
X9710800Y-26124299D02*
X9806038Y-26171918D01*
X9806038Y-26171918D02*
X9853657Y-26219537D01*
X9853657Y-26219537D02*
X9901276Y-26314775D01*
X9901276Y-26314775D02*
X9901276Y-26457632D01*
X9901276Y-26457632D02*
X9853657Y-26552870D01*
X9853657Y-26552870D02*
X9806038Y-26600489D01*
X9806038Y-26600489D02*
X9710800Y-26648108D01*
X9710800Y-26648108D02*
X9329848Y-26648108D01*
X10234610Y-26124299D02*
X10472705Y-27124299D01*
X10472705Y-27124299D02*
X10663181Y-26410013D01*
X10663181Y-26410013D02*
X10853657Y-27124299D01*
X10853657Y-27124299D02*
X11091753Y-26124299D01*
X12044133Y-27124299D02*
X11710800Y-26648108D01*
X11472705Y-27124299D02*
X11472705Y-26124299D01*
X11472705Y-26124299D02*
X11853657Y-26124299D01*
X11853657Y-26124299D02*
X11948895Y-26171918D01*
X11948895Y-26171918D02*
X11996514Y-26219537D01*
X11996514Y-26219537D02*
X12044133Y-26314775D01*
X12044133Y-26314775D02*
X12044133Y-26457632D01*
X12044133Y-26457632D02*
X11996514Y-26552870D01*
X11996514Y-26552870D02*
X11948895Y-26600489D01*
X11948895Y-26600489D02*
X11853657Y-26648108D01*
X11853657Y-26648108D02*
X11472705Y-26648108D01*
X12234610Y-27219537D02*
X12996514Y-27219537D01*
X13186991Y-27076680D02*
X13329848Y-27124299D01*
X13329848Y-27124299D02*
X13567943Y-27124299D01*
X13567943Y-27124299D02*
X13663181Y-27076680D01*
X13663181Y-27076680D02*
X13710800Y-27029060D01*
X13710800Y-27029060D02*
X13758419Y-26933822D01*
X13758419Y-26933822D02*
X13758419Y-26838584D01*
X13758419Y-26838584D02*
X13710800Y-26743346D01*
X13710800Y-26743346D02*
X13663181Y-26695727D01*
X13663181Y-26695727D02*
X13567943Y-26648108D01*
X13567943Y-26648108D02*
X13377467Y-26600489D01*
X13377467Y-26600489D02*
X13282229Y-26552870D01*
X13282229Y-26552870D02*
X13234610Y-26505251D01*
X13234610Y-26505251D02*
X13186991Y-26410013D01*
X13186991Y-26410013D02*
X13186991Y-26314775D01*
X13186991Y-26314775D02*
X13234610Y-26219537D01*
X13234610Y-26219537D02*
X13282229Y-26171918D01*
X13282229Y-26171918D02*
X13377467Y-26124299D01*
X13377467Y-26124299D02*
X13615562Y-26124299D01*
X13615562Y-26124299D02*
X13758419Y-26171918D01*
X14520324Y-26600489D02*
X14663181Y-26648108D01*
X14663181Y-26648108D02*
X14710800Y-26695727D01*
X14710800Y-26695727D02*
X14758419Y-26790965D01*
X14758419Y-26790965D02*
X14758419Y-26933822D01*
X14758419Y-26933822D02*
X14710800Y-27029060D01*
X14710800Y-27029060D02*
X14663181Y-27076680D01*
X14663181Y-27076680D02*
X14567943Y-27124299D01*
X14567943Y-27124299D02*
X14186991Y-27124299D01*
X14186991Y-27124299D02*
X14186991Y-26124299D01*
X14186991Y-26124299D02*
X14520324Y-26124299D01*
X14520324Y-26124299D02*
X14615562Y-26171918D01*
X14615562Y-26171918D02*
X14663181Y-26219537D01*
X14663181Y-26219537D02*
X14710800Y-26314775D01*
X14710800Y-26314775D02*
X14710800Y-26410013D01*
X14710800Y-26410013D02*
X14663181Y-26505251D01*
X14663181Y-26505251D02*
X14615562Y-26552870D01*
X14615562Y-26552870D02*
X14520324Y-26600489D01*
X14520324Y-26600489D02*
X14186991Y-26600489D01*
D12*
X15923466Y-26136551D02*
X15923466Y-25374647D01*
X15938900Y-12280828D02*
X15938900Y-11137971D01*
X16510328Y-11709399D02*
X15367471Y-11709399D01*
D13*
X-7682096Y17211906D02*
X-7682096Y17688096D01*
X-7396381Y17116668D02*
X-8396381Y17450001D01*
X-8396381Y17450001D02*
X-7396381Y17783334D01*
X-7491620Y18688096D02*
X-7444000Y18640477D01*
X-7444000Y18640477D02*
X-7396381Y18497620D01*
X-7396381Y18497620D02*
X-7396381Y18402382D01*
X-7396381Y18402382D02*
X-7444000Y18259525D01*
X-7444000Y18259525D02*
X-7539239Y18164287D01*
X-7539239Y18164287D02*
X-7634477Y18116668D01*
X-7634477Y18116668D02*
X-7824953Y18069049D01*
X-7824953Y18069049D02*
X-7967810Y18069049D01*
X-7967810Y18069049D02*
X-8158286Y18116668D01*
X-8158286Y18116668D02*
X-8253524Y18164287D01*
X-8253524Y18164287D02*
X-8348762Y18259525D01*
X-8348762Y18259525D02*
X-8396381Y18402382D01*
X-8396381Y18402382D02*
X-8396381Y18497620D01*
X-8396381Y18497620D02*
X-8348762Y18640477D01*
X-8348762Y18640477D02*
X-8301143Y18688096D01*
X-7491620Y19688096D02*
X-7444000Y19640477D01*
X-7444000Y19640477D02*
X-7396381Y19497620D01*
X-7396381Y19497620D02*
X-7396381Y19402382D01*
X-7396381Y19402382D02*
X-7444000Y19259525D01*
X-7444000Y19259525D02*
X-7539239Y19164287D01*
X-7539239Y19164287D02*
X-7634477Y19116668D01*
X-7634477Y19116668D02*
X-7824953Y19069049D01*
X-7824953Y19069049D02*
X-7967810Y19069049D01*
X-7967810Y19069049D02*
X-8158286Y19116668D01*
X-8158286Y19116668D02*
X-8253524Y19164287D01*
X-8253524Y19164287D02*
X-8348762Y19259525D01*
X-8348762Y19259525D02*
X-8396381Y19402382D01*
X-8396381Y19402382D02*
X-8396381Y19497620D01*
X-8396381Y19497620D02*
X-8348762Y19640477D01*
X-8348762Y19640477D02*
X-8301143Y19688096D01*
X-8396381Y20116668D02*
X-7586858Y20116668D01*
X-7586858Y20116668D02*
X-7491620Y20164287D01*
X-7491620Y20164287D02*
X-7444000Y20211906D01*
X-7444000Y20211906D02*
X-7396381Y20307144D01*
X-7396381Y20307144D02*
X-7396381Y20497620D01*
X-7396381Y20497620D02*
X-7444000Y20592858D01*
X-7444000Y20592858D02*
X-7491620Y20640477D01*
X-7491620Y20640477D02*
X-7586858Y20688096D01*
X-7586858Y20688096D02*
X-8396381Y20688096D01*
X-8301143Y21116668D02*
X-8348762Y21164287D01*
X-8348762Y21164287D02*
X-8396381Y21259525D01*
X-8396381Y21259525D02*
X-8396381Y21497620D01*
X-8396381Y21497620D02*
X-8348762Y21592858D01*
X-8348762Y21592858D02*
X-8301143Y21640477D01*
X-8301143Y21640477D02*
X-8205905Y21688096D01*
X-8205905Y21688096D02*
X-8110667Y21688096D01*
X-8110667Y21688096D02*
X-7967810Y21640477D01*
X-7967810Y21640477D02*
X-7396381Y21069049D01*
X-7396381Y21069049D02*
X-7396381Y21688096D01*
D12*
X-9386800Y24778572D02*
X-9386800Y25921429D01*
X-8815372Y25350001D02*
X-9958229Y25350001D01*
X-9386800Y12478572D02*
X-9386800Y13621429D01*
>>>>>>> 2e23f7f8cb64151a60ec3d004f8241720292418e
D13*
X2075181Y-24363209D02*
X2408514Y-24363209D01*
X2551371Y-24887019D02*
X2075181Y-24887019D01*
X2075181Y-24887019D02*
X2075181Y-23887019D01*
X2075181Y-23887019D02*
X2551371Y-23887019D01*
X2932324Y-24839400D02*
X3075181Y-24887019D01*
X3075181Y-24887019D02*
X3313276Y-24887019D01*
X3313276Y-24887019D02*
X3408514Y-24839400D01*
X3408514Y-24839400D02*
X3456133Y-24791780D01*
X3456133Y-24791780D02*
X3503752Y-24696542D01*
X3503752Y-24696542D02*
X3503752Y-24601304D01*
X3503752Y-24601304D02*
X3456133Y-24506066D01*
X3456133Y-24506066D02*
X3408514Y-24458447D01*
X3408514Y-24458447D02*
X3313276Y-24410828D01*
X3313276Y-24410828D02*
X3122800Y-24363209D01*
X3122800Y-24363209D02*
X3027562Y-24315590D01*
X3027562Y-24315590D02*
X2979943Y-24267971D01*
X2979943Y-24267971D02*
X2932324Y-24172733D01*
X2932324Y-24172733D02*
X2932324Y-24077495D01*
X2932324Y-24077495D02*
X2979943Y-23982257D01*
X2979943Y-23982257D02*
X3027562Y-23934638D01*
X3027562Y-23934638D02*
X3122800Y-23887019D01*
X3122800Y-23887019D02*
X3360895Y-23887019D01*
X3360895Y-23887019D02*
X3503752Y-23934638D01*
X4503752Y-24791780D02*
X4456133Y-24839400D01*
X4456133Y-24839400D02*
X4313276Y-24887019D01*
X4313276Y-24887019D02*
X4218038Y-24887019D01*
X4218038Y-24887019D02*
X4075181Y-24839400D01*
X4075181Y-24839400D02*
X3979943Y-24744161D01*
X3979943Y-24744161D02*
X3932324Y-24648923D01*
X3932324Y-24648923D02*
X3884705Y-24458447D01*
X3884705Y-24458447D02*
X3884705Y-24315590D01*
X3884705Y-24315590D02*
X3932324Y-24125114D01*
X3932324Y-24125114D02*
X3979943Y-24029876D01*
X3979943Y-24029876D02*
X4075181Y-23934638D01*
X4075181Y-23934638D02*
X4218038Y-23887019D01*
X4218038Y-23887019D02*
X4313276Y-23887019D01*
X4313276Y-23887019D02*
X4456133Y-23934638D01*
X4456133Y-23934638D02*
X4503752Y-23982257D01*
X4694229Y-24982257D02*
X5456133Y-24982257D01*
X5646610Y-24839400D02*
X5789467Y-24887019D01*
X5789467Y-24887019D02*
X6027562Y-24887019D01*
X6027562Y-24887019D02*
X6122800Y-24839400D01*
X6122800Y-24839400D02*
X6170419Y-24791780D01*
X6170419Y-24791780D02*
X6218038Y-24696542D01*
X6218038Y-24696542D02*
X6218038Y-24601304D01*
X6218038Y-24601304D02*
X6170419Y-24506066D01*
X6170419Y-24506066D02*
X6122800Y-24458447D01*
X6122800Y-24458447D02*
X6027562Y-24410828D01*
X6027562Y-24410828D02*
X5837086Y-24363209D01*
X5837086Y-24363209D02*
X5741848Y-24315590D01*
X5741848Y-24315590D02*
X5694229Y-24267971D01*
X5694229Y-24267971D02*
X5646610Y-24172733D01*
X5646610Y-24172733D02*
X5646610Y-24077495D01*
X5646610Y-24077495D02*
X5694229Y-23982257D01*
X5694229Y-23982257D02*
X5741848Y-23934638D01*
X5741848Y-23934638D02*
X5837086Y-23887019D01*
X5837086Y-23887019D02*
X6075181Y-23887019D01*
X6075181Y-23887019D02*
X6218038Y-23934638D01*
X6979943Y-24363209D02*
X7122800Y-24410828D01*
X7122800Y-24410828D02*
X7170419Y-24458447D01*
X7170419Y-24458447D02*
X7218038Y-24553685D01*
X7218038Y-24553685D02*
X7218038Y-24696542D01*
X7218038Y-24696542D02*
X7170419Y-24791780D01*
X7170419Y-24791780D02*
X7122800Y-24839400D01*
X7122800Y-24839400D02*
X7027562Y-24887019D01*
X7027562Y-24887019D02*
X6646610Y-24887019D01*
X6646610Y-24887019D02*
X6646610Y-23887019D01*
X6646610Y-23887019D02*
X6979943Y-23887019D01*
X6979943Y-23887019D02*
X7075181Y-23934638D01*
X7075181Y-23934638D02*
X7122800Y-23982257D01*
X7122800Y-23982257D02*
X7170419Y-24077495D01*
X7170419Y-24077495D02*
X7170419Y-24172733D01*
X7170419Y-24172733D02*
X7122800Y-24267971D01*
X7122800Y-24267971D02*
X7075181Y-24315590D01*
X7075181Y-24315590D02*
X6979943Y-24363209D01*
X6979943Y-24363209D02*
X6646610Y-24363209D01*
X-4125265Y11520581D02*
X-3791932Y10520581D01*
X-3791932Y10520581D02*
X-3458599Y11520581D01*
X-3125265Y10520581D02*
X-3125265Y11520581D01*
X-3125265Y11139629D02*
X-3030027Y11187248D01*
X-3030027Y11187248D02*
X-2839551Y11187248D01*
X-2839551Y11187248D02*
X-2744313Y11139629D01*
X-2744313Y11139629D02*
X-2696694Y11092010D01*
X-2696694Y11092010D02*
X-2649075Y10996772D01*
X-2649075Y10996772D02*
X-2649075Y10711058D01*
X-2649075Y10711058D02*
X-2696694Y10615820D01*
X-2696694Y10615820D02*
X-2744313Y10568200D01*
X-2744313Y10568200D02*
X-2839551Y10520581D01*
X-2839551Y10520581D02*
X-3030027Y10520581D01*
X-3030027Y10520581D02*
X-3125265Y10568200D01*
X-1791932Y10520581D02*
X-1791932Y11044391D01*
X-1791932Y11044391D02*
X-1839551Y11139629D01*
X-1839551Y11139629D02*
X-1934789Y11187248D01*
X-1934789Y11187248D02*
X-2125265Y11187248D01*
X-2125265Y11187248D02*
X-2220503Y11139629D01*
X-1791932Y10568200D02*
X-1887170Y10520581D01*
X-1887170Y10520581D02*
X-2125265Y10520581D01*
X-2125265Y10520581D02*
X-2220503Y10568200D01*
X-2220503Y10568200D02*
X-2268122Y10663439D01*
X-2268122Y10663439D02*
X-2268122Y10758677D01*
X-2268122Y10758677D02*
X-2220503Y10853915D01*
X-2220503Y10853915D02*
X-2125265Y10901534D01*
X-2125265Y10901534D02*
X-1887170Y10901534D01*
X-1887170Y10901534D02*
X-1791932Y10949153D01*
X-1458598Y11187248D02*
X-1077646Y11187248D01*
X-1315741Y11520581D02*
X-1315741Y10663439D01*
X-1315741Y10663439D02*
X-1268122Y10568200D01*
X-1268122Y10568200D02*
X-1172884Y10520581D01*
X-1172884Y10520581D02*
X-1077646Y10520581D01*
X-887169Y11187248D02*
X-506217Y11187248D01*
X-744312Y11520581D02*
X-744312Y10663439D01*
X-744312Y10663439D02*
X-696693Y10568200D01*
X-696693Y10568200D02*
X-601455Y10520581D01*
X-601455Y10520581D02*
X-506217Y10520581D01*
<<<<<<< HEAD
D15*
=======
D14*
>>>>>>> 2e23f7f8cb64151a60ec3d004f8241720292418e
X11214142Y4381700D02*
X11899857Y4381700D01*
X11556999Y4038843D02*
X11556999Y4724558D01*
X-2822753Y22985230D02*
X-2822753Y23251896D01*
X-2403705Y23366182D02*
X-2403705Y22985230D01*
X-2403705Y22985230D02*
X-3203705Y22985230D01*
X-3203705Y22985230D02*
X-3203705Y23366182D01*
X-2441800Y23670944D02*
X-2403705Y23785230D01*
X-2403705Y23785230D02*
X-2403705Y23975706D01*
X-2403705Y23975706D02*
X-2441800Y24051897D01*
X-2441800Y24051897D02*
X-2479896Y24089992D01*
X-2479896Y24089992D02*
X-2556086Y24128087D01*
X-2556086Y24128087D02*
X-2632277Y24128087D01*
X-2632277Y24128087D02*
X-2708467Y24089992D01*
X-2708467Y24089992D02*
X-2746562Y24051897D01*
X-2746562Y24051897D02*
X-2784658Y23975706D01*
X-2784658Y23975706D02*
X-2822753Y23823325D01*
X-2822753Y23823325D02*
X-2860848Y23747135D01*
X-2860848Y23747135D02*
X-2898943Y23709040D01*
X-2898943Y23709040D02*
X-2975134Y23670944D01*
X-2975134Y23670944D02*
X-3051324Y23670944D01*
X-3051324Y23670944D02*
X-3127515Y23709040D01*
X-3127515Y23709040D02*
X-3165610Y23747135D01*
X-3165610Y23747135D02*
X-3203705Y23823325D01*
X-3203705Y23823325D02*
X-3203705Y24013802D01*
X-3203705Y24013802D02*
X-3165610Y24128087D01*
X-2479896Y24928088D02*
X-2441800Y24889992D01*
X-2441800Y24889992D02*
X-2403705Y24775707D01*
X-2403705Y24775707D02*
X-2403705Y24699516D01*
X-2403705Y24699516D02*
X-2441800Y24585230D01*
X-2441800Y24585230D02*
X-2517991Y24509040D01*
X-2517991Y24509040D02*
X-2594181Y24470945D01*
X-2594181Y24470945D02*
X-2746562Y24432849D01*
X-2746562Y24432849D02*
X-2860848Y24432849D01*
X-2860848Y24432849D02*
X-3013229Y24470945D01*
X-3013229Y24470945D02*
X-3089420Y24509040D01*
X-3089420Y24509040D02*
X-3165610Y24585230D01*
X-3165610Y24585230D02*
X-3203705Y24699516D01*
X-3203705Y24699516D02*
X-3203705Y24775707D01*
X-3203705Y24775707D02*
X-3165610Y24889992D01*
X-3165610Y24889992D02*
X-3127515Y24928088D01*
X-2327515Y25080468D02*
X-2327515Y25689992D01*
X-3203705Y26261421D02*
X-3203705Y25880469D01*
X-3203705Y25880469D02*
X-2822753Y25842373D01*
X-2822753Y25842373D02*
X-2860848Y25880469D01*
X-2860848Y25880469D02*
X-2898943Y25956659D01*
X-2898943Y25956659D02*
X-2898943Y26147135D01*
X-2898943Y26147135D02*
X-2860848Y26223326D01*
X-2860848Y26223326D02*
X-2822753Y26261421D01*
X-2822753Y26261421D02*
X-2746562Y26299516D01*
X-2746562Y26299516D02*
X-2556086Y26299516D01*
X-2556086Y26299516D02*
X-2479896Y26261421D01*
X-2479896Y26261421D02*
X-2441800Y26223326D01*
X-2441800Y26223326D02*
X-2403705Y26147135D01*
X-2403705Y26147135D02*
X-2403705Y25956659D01*
X-2403705Y25956659D02*
X-2441800Y25880469D01*
X-2441800Y25880469D02*
X-2479896Y25842373D01*
X-3203705Y26528088D02*
X-2403705Y26794755D01*
X-2403705Y26794755D02*
X-3203705Y27061421D01*
<<<<<<< HEAD
=======
D12*
X-1702304Y10467181D02*
X-2035637Y10943372D01*
X-2273732Y10467181D02*
X-2273732Y11467181D01*
X-2273732Y11467181D02*
X-1892780Y11467181D01*
X-1892780Y11467181D02*
X-1797542Y11419562D01*
X-1797542Y11419562D02*
X-1749923Y11371943D01*
X-1749923Y11371943D02*
X-1702304Y11276705D01*
X-1702304Y11276705D02*
X-1702304Y11133848D01*
X-1702304Y11133848D02*
X-1749923Y11038610D01*
X-1749923Y11038610D02*
X-1797542Y10990991D01*
X-1797542Y10990991D02*
X-1892780Y10943372D01*
X-1892780Y10943372D02*
X-2273732Y10943372D01*
X-749923Y10467181D02*
X-1321351Y10467181D01*
X-1035637Y10467181D02*
X-1035637Y11467181D01*
X-1035637Y11467181D02*
X-1130875Y11324324D01*
X-1130875Y11324324D02*
X-1226113Y11229086D01*
X-1226113Y11229086D02*
X-1321351Y11181467D01*
X-368970Y11371943D02*
X-321351Y11419562D01*
X-321351Y11419562D02*
X-226113Y11467181D01*
X-226113Y11467181D02*
X11982Y11467181D01*
X11982Y11467181D02*
X107220Y11419562D01*
X107220Y11419562D02*
X154839Y11371943D01*
X154839Y11371943D02*
X202458Y11276705D01*
X202458Y11276705D02*
X202458Y11181467D01*
X202458Y11181467D02*
X154839Y11038610D01*
X154839Y11038610D02*
X-416589Y10467181D01*
X-416589Y10467181D02*
X202458Y10467181D01*
X1107220Y11467181D02*
X631030Y11467181D01*
X631030Y11467181D02*
X583411Y10990991D01*
X583411Y10990991D02*
X631030Y11038610D01*
X631030Y11038610D02*
X726268Y11086229D01*
X726268Y11086229D02*
X964363Y11086229D01*
X964363Y11086229D02*
X1059601Y11038610D01*
X1059601Y11038610D02*
X1107220Y10990991D01*
X1107220Y10990991D02*
X1154839Y10895753D01*
X1154839Y10895753D02*
X1154839Y10657658D01*
X1154839Y10657658D02*
X1107220Y10562420D01*
X1107220Y10562420D02*
X1059601Y10514800D01*
X1059601Y10514800D02*
X964363Y10467181D01*
X964363Y10467181D02*
X726268Y10467181D01*
X726268Y10467181D02*
X631030Y10514800D01*
X631030Y10514800D02*
X583411Y10562420D01*
D14*
>>>>>>> 2e23f7f8cb64151a60ec3d004f8241720292418e
X-2949753Y-14987770D02*
X-2949753Y-14721104D01*
X-2530705Y-14606818D02*
X-2530705Y-14987770D01*
X-2530705Y-14987770D02*
X-3330705Y-14987770D01*
X-3330705Y-14987770D02*
X-3330705Y-14606818D01*
X-2568800Y-14302056D02*
X-2530705Y-14187770D01*
X-2530705Y-14187770D02*
X-2530705Y-13997294D01*
X-2530705Y-13997294D02*
X-2568800Y-13921103D01*
X-2568800Y-13921103D02*
X-2606896Y-13883008D01*
X-2606896Y-13883008D02*
X-2683086Y-13844913D01*
X-2683086Y-13844913D02*
X-2759277Y-13844913D01*
X-2759277Y-13844913D02*
X-2835467Y-13883008D01*
X-2835467Y-13883008D02*
X-2873562Y-13921103D01*
X-2873562Y-13921103D02*
X-2911658Y-13997294D01*
X-2911658Y-13997294D02*
X-2949753Y-14149675D01*
X-2949753Y-14149675D02*
X-2987848Y-14225865D01*
X-2987848Y-14225865D02*
X-3025943Y-14263960D01*
X-3025943Y-14263960D02*
X-3102134Y-14302056D01*
X-3102134Y-14302056D02*
X-3178324Y-14302056D01*
X-3178324Y-14302056D02*
X-3254515Y-14263960D01*
X-3254515Y-14263960D02*
X-3292610Y-14225865D01*
X-3292610Y-14225865D02*
X-3330705Y-14149675D01*
X-3330705Y-14149675D02*
X-3330705Y-13959198D01*
X-3330705Y-13959198D02*
X-3292610Y-13844913D01*
X-2606896Y-13044912D02*
X-2568800Y-13083008D01*
X-2568800Y-13083008D02*
X-2530705Y-13197293D01*
X-2530705Y-13197293D02*
X-2530705Y-13273484D01*
X-2530705Y-13273484D02*
X-2568800Y-13387770D01*
X-2568800Y-13387770D02*
X-2644991Y-13463960D01*
X-2644991Y-13463960D02*
X-2721181Y-13502055D01*
X-2721181Y-13502055D02*
X-2873562Y-13540151D01*
X-2873562Y-13540151D02*
X-2987848Y-13540151D01*
X-2987848Y-13540151D02*
X-3140229Y-13502055D01*
X-3140229Y-13502055D02*
X-3216420Y-13463960D01*
X-3216420Y-13463960D02*
X-3292610Y-13387770D01*
X-3292610Y-13387770D02*
X-3330705Y-13273484D01*
X-3330705Y-13273484D02*
X-3330705Y-13197293D01*
X-3330705Y-13197293D02*
X-3292610Y-13083008D01*
X-3292610Y-13083008D02*
X-3254515Y-13044912D01*
X-2454515Y-12892532D02*
X-2454515Y-12283008D01*
X-3330705Y-11711579D02*
X-3330705Y-12092531D01*
X-3330705Y-12092531D02*
X-2949753Y-12130627D01*
X-2949753Y-12130627D02*
X-2987848Y-12092531D01*
X-2987848Y-12092531D02*
X-3025943Y-12016341D01*
X-3025943Y-12016341D02*
X-3025943Y-11825865D01*
X-3025943Y-11825865D02*
X-2987848Y-11749674D01*
X-2987848Y-11749674D02*
X-2949753Y-11711579D01*
X-2949753Y-11711579D02*
X-2873562Y-11673484D01*
X-2873562Y-11673484D02*
X-2683086Y-11673484D01*
X-2683086Y-11673484D02*
X-2606896Y-11711579D01*
X-2606896Y-11711579D02*
X-2568800Y-11749674D01*
X-2568800Y-11749674D02*
X-2530705Y-11825865D01*
X-2530705Y-11825865D02*
X-2530705Y-12016341D01*
X-2530705Y-12016341D02*
X-2568800Y-12092531D01*
X-2568800Y-12092531D02*
X-2606896Y-12130627D01*
X-3330705Y-11444912D02*
X-2530705Y-11178245D01*
X-2530705Y-11178245D02*
X-3330705Y-10911579D01*
D13*
X-17692781Y7342812D02*
X-16692781Y7676145D01*
X-16692781Y7676145D02*
X-17692781Y8009478D01*
X-16740400Y8771383D02*
X-16692781Y8676145D01*
X-16692781Y8676145D02*
X-16692781Y8485669D01*
X-16692781Y8485669D02*
X-16740400Y8390431D01*
X-16740400Y8390431D02*
X-16788020Y8342812D01*
X-16788020Y8342812D02*
X-16883258Y8295193D01*
X-16883258Y8295193D02*
X-17168972Y8295193D01*
X-17168972Y8295193D02*
X-17264210Y8342812D01*
X-17264210Y8342812D02*
X-17311829Y8390431D01*
X-17311829Y8390431D02*
X-17359448Y8485669D01*
X-17359448Y8485669D02*
X-17359448Y8676145D01*
X-17359448Y8676145D02*
X-17311829Y8771383D01*
X-16740400Y9580907D02*
X-16692781Y9485669D01*
X-16692781Y9485669D02*
X-16692781Y9295193D01*
X-16692781Y9295193D02*
X-16740400Y9199955D01*
X-16740400Y9199955D02*
X-16835639Y9152336D01*
X-16835639Y9152336D02*
X-17216591Y9152336D01*
X-17216591Y9152336D02*
X-17311829Y9199955D01*
X-17311829Y9199955D02*
X-17359448Y9295193D01*
X-17359448Y9295193D02*
X-17359448Y9485669D01*
X-17359448Y9485669D02*
X-17311829Y9580907D01*
X-17311829Y9580907D02*
X-17216591Y9628526D01*
X-17216591Y9628526D02*
X-17121353Y9628526D01*
X-17121353Y9628526D02*
X-17026115Y9152336D01*
X-16692781Y10199955D02*
X-16740400Y10104717D01*
X-16740400Y10104717D02*
X-16835639Y10057098D01*
X-16835639Y10057098D02*
X-17692781Y10057098D01*
X-16692781Y10723765D02*
X-16740400Y10628527D01*
X-16740400Y10628527D02*
X-16835639Y10580908D01*
X-16835639Y10580908D02*
X-17692781Y10580908D01*
<<<<<<< HEAD
D15*
=======
D14*
>>>>>>> 2e23f7f8cb64151a60ec3d004f8241720292418e
X-866953Y-15000323D02*
X-866953Y-14733657D01*
X-447905Y-14619371D02*
X-447905Y-15000323D01*
X-447905Y-15000323D02*
X-1247905Y-15000323D01*
X-1247905Y-15000323D02*
X-1247905Y-14619371D01*
X-486000Y-14314609D02*
X-447905Y-14200323D01*
X-447905Y-14200323D02*
X-447905Y-14009847D01*
X-447905Y-14009847D02*
X-486000Y-13933656D01*
X-486000Y-13933656D02*
X-524096Y-13895561D01*
X-524096Y-13895561D02*
X-600286Y-13857466D01*
X-600286Y-13857466D02*
X-676477Y-13857466D01*
X-676477Y-13857466D02*
X-752667Y-13895561D01*
X-752667Y-13895561D02*
X-790762Y-13933656D01*
X-790762Y-13933656D02*
X-828858Y-14009847D01*
X-828858Y-14009847D02*
X-866953Y-14162228D01*
X-866953Y-14162228D02*
X-905048Y-14238418D01*
X-905048Y-14238418D02*
X-943143Y-14276513D01*
X-943143Y-14276513D02*
X-1019334Y-14314609D01*
X-1019334Y-14314609D02*
X-1095524Y-14314609D01*
X-1095524Y-14314609D02*
X-1171715Y-14276513D01*
X-1171715Y-14276513D02*
X-1209810Y-14238418D01*
X-1209810Y-14238418D02*
X-1247905Y-14162228D01*
X-1247905Y-14162228D02*
X-1247905Y-13971751D01*
X-1247905Y-13971751D02*
X-1209810Y-13857466D01*
X-524096Y-13057465D02*
X-486000Y-13095561D01*
X-486000Y-13095561D02*
X-447905Y-13209846D01*
X-447905Y-13209846D02*
X-447905Y-13286037D01*
X-447905Y-13286037D02*
X-486000Y-13400323D01*
X-486000Y-13400323D02*
X-562191Y-13476513D01*
X-562191Y-13476513D02*
X-638381Y-13514608D01*
X-638381Y-13514608D02*
X-790762Y-13552704D01*
X-790762Y-13552704D02*
X-905048Y-13552704D01*
X-905048Y-13552704D02*
X-1057429Y-13514608D01*
X-1057429Y-13514608D02*
X-1133620Y-13476513D01*
X-1133620Y-13476513D02*
X-1209810Y-13400323D01*
X-1209810Y-13400323D02*
X-1247905Y-13286037D01*
X-1247905Y-13286037D02*
X-1247905Y-13209846D01*
X-1247905Y-13209846D02*
X-1209810Y-13095561D01*
X-1209810Y-13095561D02*
X-1171715Y-13057465D01*
X-371715Y-12905085D02*
X-371715Y-12295561D01*
X-447905Y-12105084D02*
X-1247905Y-12105084D01*
X-1247905Y-12105084D02*
X-1247905Y-11800322D01*
X-1247905Y-11800322D02*
X-1209810Y-11724132D01*
X-1209810Y-11724132D02*
X-1171715Y-11686037D01*
X-1171715Y-11686037D02*
X-1095524Y-11647941D01*
X-1095524Y-11647941D02*
X-981239Y-11647941D01*
X-981239Y-11647941D02*
X-905048Y-11686037D01*
X-905048Y-11686037D02*
X-866953Y-11724132D01*
X-866953Y-11724132D02*
X-828858Y-11800322D01*
X-828858Y-11800322D02*
X-828858Y-12105084D01*
X-1247905Y-11381275D02*
X-447905Y-11190799D01*
X-447905Y-11190799D02*
X-1019334Y-11038418D01*
X-1019334Y-11038418D02*
X-447905Y-10886037D01*
X-447905Y-10886037D02*
X-1247905Y-10695561D01*
X-447905Y-10390798D02*
X-1247905Y-10390798D01*
X-1247905Y-10390798D02*
X-676477Y-10124132D01*
X-676477Y-10124132D02*
X-1247905Y-9857465D01*
X-1247905Y-9857465D02*
X-447905Y-9857465D01*
<<<<<<< HEAD
D16*
%TO.C,J104*%
X-27861500Y-27672000D02*
X-13551500Y-27672000D01*
X-27861500Y-27672000D02*
X-27861500Y-11952000D01*
X-10341500Y-26122000D02*
X-10341500Y-25722000D01*
X-10341500Y-21102000D02*
X-10341500Y-18312000D01*
X-10341500Y-14162000D02*
X-10341500Y-13492000D01*
X-27861500Y-11952000D02*
X-13551500Y-11952000D01*
X-10343105Y-26130715D02*
G75*
G02*
X-13551500Y-27672000I-3208396J2568716D01*
G01*
X-13551500Y-11952000D02*
G75*
G02*
X-10343931Y-13492253I0J-4110000D01*
G01*
%TO.C,J107*%
X-27861500Y11590000D02*
X-13551500Y11590000D01*
X-27861500Y11590000D02*
X-27861500Y27310000D01*
X-10341500Y13140000D02*
X-10341500Y13540000D01*
X-10341500Y18160000D02*
X-10341500Y20950000D01*
X-10341500Y25100000D02*
X-10341500Y25770000D01*
X-27861500Y27310000D02*
X-13551500Y27310000D01*
X-10343105Y13131285D02*
G75*
G02*
X-13551500Y11590000I-3208396J2568716D01*
G01*
X-13551500Y27310000D02*
G75*
G02*
X-10343931Y25769747I0J-4110000D01*
G01*
%TO.C,J105*%
X25367000Y-10980000D02*
X19757000Y-10980000D01*
X25367000Y-10980000D02*
X25367000Y-11830000D01*
X33067000Y-11830000D02*
X25367000Y-11830000D01*
X33067000Y-11830000D02*
X33067000Y-25850000D01*
X15647000Y-16390000D02*
X15647000Y-20130000D01*
X33067000Y-25850000D02*
X25367000Y-25850000D01*
X25367000Y-25850000D02*
X25367000Y-26700000D01*
X25367000Y-26700000D02*
X19757000Y-26700000D01*
X15798282Y-13850100D02*
G75*
G02*
X19757000Y-10980000I3918716J-1239898D01*
G01*
X19757000Y-26700000D02*
G75*
G02*
X16234042Y-24706806I0J4110000D01*
G01*
D15*
=======
>>>>>>> 2e23f7f8cb64151a60ec3d004f8241720292418e
%TO.C,R123*%
X-9224000Y-8494000D02*
X-9224000Y-9794000D01*
X-9224000Y-8494000D02*
X-6524000Y-8494000D01*
X-6524000Y-9794000D02*
X-9224000Y-9794000D01*
X-6524000Y-9794000D02*
X-6524000Y-8494000D01*
%TO.C,R102*%
X9129000Y5000000D02*
X9129000Y7700000D01*
X9129000Y5000000D02*
X10429000Y5000000D01*
X10429000Y7700000D02*
X9129000Y7700000D01*
X10429000Y7700000D02*
X10429000Y5000000D01*
D16*
%TO.C,J108*%
X-28810000Y5580000D02*
X-28810000Y4580000D01*
X-28810000Y4580000D02*
X-27810000Y5080000D01*
X-27810000Y5080000D02*
X-28810000Y5580000D01*
X-27420000Y10290000D02*
X-18300000Y10290000D01*
X-27420000Y2050000D02*
X-26110000Y2050000D01*
X-27420000Y-10290000D02*
X-27420000Y10290000D01*
X-26110000Y8990000D02*
X-19610000Y8990000D01*
X-26110000Y2050000D02*
X-26110000Y8990000D01*
X-26110000Y-2050000D02*
X-27420000Y-2050000D01*
X-26110000Y-2050000D02*
X-26110000Y-2050000D01*
X-26110000Y-8990000D02*
X-26110000Y-2050000D01*
X-19610000Y8990000D02*
X-19610000Y-8990000D01*
X-19610000Y-8990000D02*
X-26110000Y-8990000D01*
X-18300000Y10290000D02*
X-18300000Y-10290000D01*
X-18300000Y-10290000D02*
X-27420000Y-10290000D01*
<<<<<<< HEAD
D15*
=======
D14*
>>>>>>> 2e23f7f8cb64151a60ec3d004f8241720292418e
%TO.C,C108*%
X-4917200Y-19600000D02*
X-4917200Y-17700000D01*
X-4517200Y-20000000D02*
X-4017200Y-20000000D01*
X-4017200Y-17300000D02*
X-4517200Y-17300000D01*
X-3617200Y-17700000D02*
X-3617200Y-19600000D01*
X-4917200Y-17700000D02*
G75*
G02*
X-4517200Y-17300000I399999J1D01*
G01*
X-4517200Y-20000000D02*
G75*
G02*
X-4917200Y-19600000I0J400000D01*
G01*
X-4017200Y-17300000D02*
G75*
G02*
X-3617200Y-17700000I1J-399999D01*
G01*
X-3617200Y-19600000D02*
G75*
G02*
X-4017200Y-20000000I-400000J0D01*
G01*
D16*
%TO.C,D105*%
X-150800Y-21450400D02*
X-150800Y-23735400D01*
X-150800Y-23735400D02*
X1319200Y-23735400D01*
X1319200Y-23735400D02*
X1319200Y-21450400D01*
<<<<<<< HEAD
D15*
=======
D14*
>>>>>>> 2e23f7f8cb64151a60ec3d004f8241720292418e
%TO.C,R124*%
X301000Y2936000D02*
X301000Y1636000D01*
X301000Y2936000D02*
X3001000Y2936000D01*
X3001000Y1636000D02*
X301000Y1636000D01*
X3001000Y1636000D02*
X3001000Y2936000D01*
D16*
%TO.C,Q115*%
X11800400Y-22656800D02*
X11800400Y-22006800D01*
X11800400Y-22656800D02*
X11800400Y-23306800D01*
X14920400Y-22656800D02*
X14920400Y-22006800D01*
X14920400Y-22656800D02*
X14920400Y-23306800D01*
X15200400Y-21734300D02*
X14870400Y-21494300D01*
X15200400Y-21254300D01*
X15200400Y-21734300D01*
G36*
X15200400Y-21734300D02*
G01*
X14870400Y-21494300D01*
X15200400Y-21254300D01*
X15200400Y-21734300D01*
G37*
<<<<<<< HEAD
D15*
=======
D14*
>>>>>>> 2e23f7f8cb64151a60ec3d004f8241720292418e
%TO.C,R118*%
X3668000Y24558000D02*
X3668000Y27258000D01*
X3668000Y24558000D02*
X4968000Y24558000D01*
X4968000Y27258000D02*
X3668000Y27258000D01*
X4968000Y27258000D02*
X4968000Y24558000D01*
<<<<<<< HEAD
D16*
%TO.C,C113*%
X-12975000Y584148D02*
X-12975000Y2006652D01*
X-11155000Y584148D02*
X-11155000Y2006652D01*
=======
%TO.C,C113*%
X-13115000Y3444600D02*
X-13115000Y-955400D01*
X-12665000Y-1405400D02*
X-11465000Y-1405400D01*
X-11465000Y3894600D02*
X-12665000Y3894600D01*
X-11015000Y-955400D02*
X-11015000Y3444600D01*
X-13115000Y3444600D02*
G75*
G02*
X-12665000Y3894600I450000J0D01*
G01*
X-12665000Y-1405400D02*
G75*
G02*
X-13115000Y-955400I0J450000D01*
G01*
X-11465000Y3894600D02*
G75*
G02*
X-11015000Y3444600I0J-450000D01*
G01*
X-11015000Y-955400D02*
G75*
G02*
X-11465000Y-1405400I-450000J0D01*
G01*
D16*
>>>>>>> 2e23f7f8cb64151a60ec3d004f8241720292418e
%TO.C,D107*%
X-3383000Y-4192000D02*
X-3383000Y-7492000D01*
X-3383000Y-4192000D02*
X2127000Y-4192000D01*
X-3383000Y-7492000D02*
X2127000Y-7492000D01*
%TO.C,U102*%
X-3465000Y-18650000D02*
X-3465000Y-17850000D01*
X-3465000Y-18650000D02*
X-3465000Y-19450000D01*
X-345000Y-18650000D02*
X-345000Y-17850000D01*
X-345000Y-18650000D02*
X-345000Y-19450000D01*
X-3415000Y-19950000D02*
X-3745000Y-20190000D01*
X-3745000Y-19710000D01*
X-3415000Y-19950000D01*
G36*
X-3415000Y-19950000D02*
G01*
X-3745000Y-20190000D01*
X-3745000Y-19710000D01*
X-3415000Y-19950000D01*
G37*
<<<<<<< HEAD
D15*
=======
D14*
>>>>>>> 2e23f7f8cb64151a60ec3d004f8241720292418e
%TO.C,R119*%
X5519900Y-12490400D02*
X5519900Y-9790400D01*
X5519900Y-12490400D02*
X6819900Y-12490400D01*
X6819900Y-9790400D02*
X5519900Y-9790400D01*
X6819900Y-9790400D02*
X6819900Y-12490400D01*
%TO.C,R115*%
X-6353800Y1285000D02*
X-6353800Y-15000D01*
X-6353800Y1285000D02*
X-3653800Y1285000D01*
X-3653800Y-15000D02*
X-6353800Y-15000D01*
X-3653800Y-15000D02*
X-3653800Y1285000D01*
<<<<<<< HEAD
=======
D16*
%TO.C,J104*%
X-27861500Y-11952000D02*
X-13551500Y-11952000D01*
X-27861500Y-27672000D02*
X-27861500Y-11952000D01*
X-27861500Y-27672000D02*
X-13551500Y-27672000D01*
X-10341500Y-14162000D02*
X-10341500Y-13492000D01*
X-10341500Y-21102000D02*
X-10341500Y-18312000D01*
X-10341500Y-26122000D02*
X-10341500Y-25722000D01*
X-13551500Y-11952000D02*
G75*
G02*
X-10343931Y-13492253I0J-4110000D01*
G01*
X-10343105Y-26130715D02*
G75*
G02*
X-13551500Y-27672000I-3208396J2568716D01*
G01*
D14*
>>>>>>> 2e23f7f8cb64151a60ec3d004f8241720292418e
%TO.C,R112*%
X-4017000Y-20794000D02*
X-4017000Y-22094000D01*
X-4017000Y-20794000D02*
X-1317000Y-20794000D01*
X-1317000Y-22094000D02*
X-4017000Y-22094000D01*
X-1317000Y-22094000D02*
X-1317000Y-20794000D01*
D16*
%TO.C,J103*%
X1714000Y24042000D02*
X1714000Y13922000D01*
X1714000Y13922000D02*
X7684000Y13922000D01*
X2474000Y23282000D02*
X2474000Y18982000D01*
X2474000Y14682000D02*
X2474000Y18982000D01*
X5424000Y24032000D02*
X5424000Y23282000D01*
X5424000Y23282000D02*
X2474000Y23282000D01*
X5424000Y14682000D02*
X2474000Y14682000D01*
X5424000Y13932000D02*
X5424000Y14682000D01*
X6924000Y24032000D02*
X6924000Y22232000D01*
X6924000Y22232000D02*
X7674000Y22232000D01*
X6924000Y20732000D02*
X6924000Y17232000D01*
X6924000Y17232000D02*
X7674000Y17232000D01*
X6924000Y15732000D02*
X6924000Y13932000D01*
X6924000Y13932000D02*
X7674000Y13932000D01*
X7674000Y24032000D02*
X6924000Y24032000D01*
X7674000Y22232000D02*
X7674000Y24032000D01*
X7674000Y20732000D02*
X6924000Y20732000D01*
X7674000Y17232000D02*
X7674000Y20732000D01*
X7674000Y15732000D02*
X6924000Y15732000D01*
X7674000Y13932000D02*
X7674000Y15732000D01*
X7684000Y24042000D02*
X1714000Y24042000D01*
X7684000Y13922000D02*
X7684000Y24042000D01*
X7974000Y24332000D02*
X6724000Y24332000D01*
X7974000Y23082000D02*
X7974000Y24332000D01*
<<<<<<< HEAD
%TO.C,C107*%
X9067748Y656000D02*
X10490252Y656000D01*
X9067748Y-1164000D02*
X10490252Y-1164000D01*
D15*
=======
D14*
%TO.C,C107*%
X7129000Y346000D02*
X7129000Y-854000D01*
X7579000Y-1304000D02*
X11979000Y-1304000D01*
X11979000Y796000D02*
X7579000Y796000D01*
X12429000Y-854000D02*
X12429000Y346000D01*
X7129000Y346000D02*
G75*
G02*
X7579000Y796000I450000J0D01*
G01*
X7579000Y-1304000D02*
G75*
G02*
X7129000Y-854000I0J450000D01*
G01*
X11979000Y796000D02*
G75*
G02*
X12429000Y346000I0J-450000D01*
G01*
X12429000Y-854000D02*
G75*
G02*
X11979000Y-1304000I-450000J0D01*
G01*
>>>>>>> 2e23f7f8cb64151a60ec3d004f8241720292418e
%TO.C,R110*%
X-16347200Y1723400D02*
X-16347200Y4423400D01*
X-16347200Y1723400D02*
X-15047200Y1723400D01*
X-15047200Y4423400D02*
X-16347200Y4423400D01*
X-15047200Y4423400D02*
X-15047200Y1723400D01*
%TO.C,C114*%
X-1223000Y-8132000D02*
X-1223000Y-8632000D01*
X-823000Y-7732000D02*
X1077000Y-7732000D01*
X1077000Y-9032000D02*
X-823000Y-9032000D01*
X1477000Y-8632000D02*
X1477000Y-8132000D01*
X-1223000Y-8132000D02*
G75*
G02*
X-823000Y-7732000I399999J1D01*
G01*
X-823000Y-9032000D02*
G75*
G02*
X-1223000Y-8632000I-1J399999D01*
G01*
X1077000Y-7732000D02*
G75*
G02*
X1477000Y-8132000I0J-400000D01*
G01*
X1477000Y-8632000D02*
G75*
G02*
X1077000Y-9032000I-400000J0D01*
G01*
%TO.C,D109*%
X12154000Y12761800D02*
X12154000Y10961800D01*
X13104000Y13411800D02*
X12804000Y13411800D01*
X13754000Y12761800D02*
X13754000Y10961800D01*
X12154000Y12761800D02*
G75*
G02*
X12804000Y13411800I650001J-1D01*
G01*
X13104000Y13411800D02*
G75*
G02*
X13754000Y12761800I-1J-650001D01*
G01*
D16*
%TO.C,Q114*%
X8244400Y23723600D02*
X8244400Y24373600D01*
X8244400Y23723600D02*
X8244400Y23073600D01*
X11364400Y23723600D02*
X11364400Y24373600D01*
X11364400Y23723600D02*
X11364400Y23073600D01*
X8294400Y22561100D02*
X7964400Y22321100D01*
X7964400Y22801100D01*
X8294400Y22561100D01*
G36*
X8294400Y22561100D02*
G01*
X7964400Y22321100D01*
X7964400Y22801100D01*
X8294400Y22561100D01*
G37*
<<<<<<< HEAD
D15*
=======
D14*
>>>>>>> 2e23f7f8cb64151a60ec3d004f8241720292418e
%TO.C,R116*%
X-2950200Y2936000D02*
X-2950200Y1636000D01*
X-2950200Y2936000D02*
X-250200Y2936000D01*
X-250200Y1636000D02*
X-2950200Y1636000D01*
X-250200Y1636000D02*
X-250200Y2936000D01*
%TO.C,R111*%
X-2529600Y14194800D02*
X-2529600Y16894800D01*
X-2529600Y14194800D02*
X-1229600Y14194800D01*
X-1229600Y16894800D02*
X-2529600Y16894800D01*
X-1229600Y16894800D02*
X-1229600Y14194800D01*
%TO.C,C106*%
X-17871200Y2123400D02*
X-17871200Y4023400D01*
X-17471200Y1723400D02*
X-16971200Y1723400D01*
X-16971200Y4423400D02*
X-17471200Y4423400D01*
X-16571200Y4023400D02*
X-16571200Y2123400D01*
X-17871200Y4023400D02*
G75*
G02*
X-17471200Y4423400I399999J1D01*
G01*
X-17471200Y1723400D02*
G75*
G02*
X-17871200Y2123400I0J400000D01*
G01*
X-16971200Y4423400D02*
G75*
G02*
X-16571200Y4023400I1J-399999D01*
G01*
X-16571200Y2123400D02*
G75*
G02*
X-16971200Y1723400I-400000J0D01*
G01*
%TO.C,C102*%
X5827000Y-950000D02*
X5827000Y950000D01*
X6227000Y-1350000D02*
X6727000Y-1350000D01*
X6727000Y1350000D02*
X6227000Y1350000D01*
X7127000Y950000D02*
X7127000Y-950000D01*
X5827000Y950000D02*
G75*
G02*
X6227000Y1350000I400000J0D01*
G01*
X6227000Y-1350000D02*
G75*
G02*
X5827000Y-950000I-1J399999D01*
G01*
X6727000Y1350000D02*
G75*
G02*
X7127000Y950000I0J-400000D01*
G01*
X7127000Y-950000D02*
G75*
G02*
X6727000Y-1350000I-399999J-1D01*
G01*
%TO.C,D104*%
X-13298600Y-9156800D02*
X-15098600Y-9156800D01*
X-13298600Y-10756800D02*
X-15098600Y-10756800D01*
X-12648600Y-10106800D02*
X-12648600Y-9806800D01*
X-13298600Y-9156800D02*
G75*
G02*
X-12648600Y-9806800I-1J-650001D01*
G01*
X-12648600Y-10106800D02*
G75*
G02*
X-13298600Y-10756800I-650001J1D01*
G01*
D16*
%TO.C,Q108*%
X8244400Y15595600D02*
X8244400Y16245600D01*
X8244400Y15595600D02*
X8244400Y14945600D01*
X11364400Y15595600D02*
X11364400Y16245600D01*
X11364400Y15595600D02*
X11364400Y14945600D01*
X8294400Y14433100D02*
X7964400Y14193100D01*
X7964400Y14673100D01*
X8294400Y14433100D01*
G36*
X8294400Y14433100D02*
G01*
X7964400Y14193100D01*
X7964400Y14673100D01*
X8294400Y14433100D01*
G37*
<<<<<<< HEAD
D15*
=======
D14*
>>>>>>> 2e23f7f8cb64151a60ec3d004f8241720292418e
%TO.C,R121*%
X7043900Y-12490400D02*
X7043900Y-9790400D01*
X7043900Y-12490400D02*
X8343900Y-12490400D01*
X8343900Y-9790400D02*
X7043900Y-9790400D01*
X8343900Y-9790400D02*
X8343900Y-12490400D01*
D16*
%TO.C,J106*%
X15647000Y21392000D02*
X15647000Y17652000D01*
X25367000Y26802000D02*
X19757000Y26802000D01*
X25367000Y26802000D02*
X25367000Y25952000D01*
X25367000Y11932000D02*
X25367000Y11082000D01*
X25367000Y11082000D02*
X19757000Y11082000D01*
X33067000Y25952000D02*
X25367000Y25952000D01*
X33067000Y25952000D02*
X33067000Y11932000D01*
X33067000Y11932000D02*
X25367000Y11932000D01*
X15798282Y23931900D02*
G75*
G02*
X19757000Y26802000I3918716J-1239898D01*
G01*
X19757000Y11082000D02*
G75*
G02*
X16234042Y13075194I0J4110000D01*
G01*
<<<<<<< HEAD
D15*
=======
D14*
>>>>>>> 2e23f7f8cb64151a60ec3d004f8241720292418e
%TO.C,C103*%
X4303000Y-950000D02*
X4303000Y950000D01*
X4703000Y-1350000D02*
X5203000Y-1350000D01*
X5203000Y1350000D02*
X4703000Y1350000D01*
X5603000Y950000D02*
X5603000Y-950000D01*
X4303000Y950000D02*
G75*
G02*
X4703000Y1350000I400000J0D01*
G01*
X4703000Y-1350000D02*
G75*
G02*
X4303000Y-950000I-1J399999D01*
G01*
X5203000Y1350000D02*
G75*
G02*
X5603000Y950000I0J-400000D01*
G01*
X5603000Y-950000D02*
G75*
G02*
X5203000Y-1350000I-399999J-1D01*
G01*
%TO.C,TP102*%
X6538800Y3403600D02*
G75*
G02*
X4738800Y3403600I-900000J0D01*
G01*
X4738800Y3403600D02*
G75*
G02*
X6538800Y3403600I900000J0D01*
G01*
%TO.C,TP105*%
X11000Y21894800D02*
G75*
G02*
X-1789000Y21894800I-900000J0D01*
G01*
X-1789000Y21894800D02*
G75*
G02*
X11000Y21894800I900000J0D01*
G01*
D16*
%TO.C,U103*%
X-3448000Y18942000D02*
X-3448000Y19742000D01*
X-3448000Y18942000D02*
X-3448000Y18142000D01*
X-328000Y18942000D02*
X-328000Y19742000D01*
X-328000Y18942000D02*
X-328000Y18142000D01*
X-3398000Y17642000D02*
X-3728000Y17402000D01*
X-3728000Y17882000D01*
X-3398000Y17642000D01*
G36*
X-3398000Y17642000D02*
G01*
X-3728000Y17402000D01*
X-3728000Y17882000D01*
X-3398000Y17642000D01*
G37*
%TO.C,TP101*%
X-4802400Y12496800D02*
G75*
G02*
X-8202400Y12496800I-1700000J0D01*
G01*
X-8202400Y12496800D02*
G75*
G02*
X-4802400Y12496800I1700000J0D01*
G01*
%TO.C,Q101*%
X-12724700Y7874000D02*
X-12724700Y8524000D01*
X-12724700Y7874000D02*
X-12724700Y7224000D01*
X-9604700Y7874000D02*
X-9604700Y8524000D01*
X-9604700Y7874000D02*
X-9604700Y7224000D01*
X-12674700Y6711500D02*
X-13004700Y6471500D01*
X-13004700Y6951500D01*
X-12674700Y6711500D01*
G36*
X-12674700Y6711500D02*
G01*
X-13004700Y6471500D01*
X-13004700Y6951500D01*
X-12674700Y6711500D01*
G37*
<<<<<<< HEAD
D15*
=======
D14*
>>>>>>> 2e23f7f8cb64151a60ec3d004f8241720292418e
%TO.C,R109*%
X-16691600Y5857000D02*
X-16691600Y4557000D01*
X-16691600Y5857000D02*
X-13991600Y5857000D01*
X-13991600Y4557000D02*
X-16691600Y4557000D01*
X-13991600Y4557000D02*
X-13991600Y5857000D01*
D16*
%TO.C,Q111*%
X11800400Y-14528800D02*
X11800400Y-13878800D01*
X11800400Y-14528800D02*
X11800400Y-15178800D01*
X14920400Y-14528800D02*
X14920400Y-13878800D01*
X14920400Y-14528800D02*
X14920400Y-15178800D01*
X15200400Y-13606300D02*
X14870400Y-13366300D01*
X15200400Y-13126300D01*
X15200400Y-13606300D01*
G36*
X15200400Y-13606300D02*
G01*
X14870400Y-13366300D01*
X15200400Y-13126300D01*
X15200400Y-13606300D01*
G37*
<<<<<<< HEAD
D15*
=======
D14*
>>>>>>> 2e23f7f8cb64151a60ec3d004f8241720292418e
%TO.C,R107*%
X1317000Y7762000D02*
X1317000Y6462000D01*
X1317000Y7762000D02*
X4017000Y7762000D01*
X4017000Y6462000D02*
X1317000Y6462000D01*
X4017000Y6462000D02*
X4017000Y7762000D01*
D16*
%TO.C,J101*%
X14180000Y-2310000D02*
X14180000Y-5100000D01*
<<<<<<< HEAD
D15*
=======
D14*
>>>>>>> 2e23f7f8cb64151a60ec3d004f8241720292418e
X12740000Y-10000000D02*
X32740000Y-10000000D01*
X32740000Y10000000D01*
X12740000Y10000000D01*
X12740000Y-10000000D01*
<<<<<<< HEAD
%TO.C,R127*%
X1418600Y11572000D02*
X1418600Y10272000D01*
X1418600Y11572000D02*
X4118600Y11572000D01*
X4118600Y10272000D02*
X1418600Y10272000D01*
X4118600Y10272000D02*
X4118600Y11572000D01*
=======
>>>>>>> 2e23f7f8cb64151a60ec3d004f8241720292418e
%TO.C,C104*%
X1017000Y6013000D02*
X1017000Y5163000D01*
X1442000Y6438000D02*
X3892000Y6438000D01*
X3892000Y4738000D02*
X1442000Y4738000D01*
X4317000Y5163000D02*
X4317000Y6013000D01*
X1017000Y6013000D02*
G75*
G02*
X1442000Y6438000I425000J0D01*
G01*
X1442000Y4738000D02*
G75*
G02*
X1017000Y5163000I0J425000D01*
G01*
X3892000Y6438000D02*
G75*
G02*
X4317000Y6013000I-1J-425001D01*
G01*
X4317000Y5163000D02*
G75*
G02*
X3892000Y4738000I-425001J1D01*
G01*
D16*
%TO.C,D106*%
X-150800Y16014600D02*
X-150800Y13729600D01*
X-150800Y13729600D02*
X1319200Y13729600D01*
X1319200Y13729600D02*
X1319200Y16014600D01*
<<<<<<< HEAD
D15*
=======
D14*
>>>>>>> 2e23f7f8cb64151a60ec3d004f8241720292418e
%TO.C,L101*%
X-10501000Y-7426000D02*
X-5501000Y-7426000D01*
X-5501000Y-2226000D02*
X-10501000Y-2226000D01*
<<<<<<< HEAD
D16*
%TO.C,C110*%
X8945200Y-3470799D02*
X8945200Y-4893303D01*
X10765200Y-3470799D02*
X10765200Y-4893303D01*
D15*
=======
%TO.C,C110*%
X8068600Y-1864000D02*
X8068600Y-6264000D01*
X8518600Y-6714000D02*
X9718600Y-6714000D01*
X9718600Y-1414000D02*
X8518600Y-1414000D01*
X10168600Y-6264000D02*
X10168600Y-1864000D01*
X8068600Y-1864000D02*
G75*
G02*
X8518600Y-1414000I450000J0D01*
G01*
X8518600Y-6714000D02*
G75*
G02*
X8068600Y-6264000I0J450000D01*
G01*
X9718600Y-1414000D02*
G75*
G02*
X10168600Y-1864000I0J-450000D01*
G01*
X10168600Y-6264000D02*
G75*
G02*
X9718600Y-6714000I-450000J0D01*
G01*
>>>>>>> 2e23f7f8cb64151a60ec3d004f8241720292418e
%TO.C,TP106*%
X-3011600Y2260600D02*
G75*
G02*
X-4811600Y2260600I-900000J0D01*
G01*
X-4811600Y2260600D02*
G75*
G02*
X-3011600Y2260600I900000J0D01*
G01*
D16*
<<<<<<< HEAD
=======
%TO.C,J105*%
X15647000Y-16390000D02*
X15647000Y-20130000D01*
X25367000Y-10980000D02*
X19757000Y-10980000D01*
X25367000Y-10980000D02*
X25367000Y-11830000D01*
X25367000Y-25850000D02*
X25367000Y-26700000D01*
X25367000Y-26700000D02*
X19757000Y-26700000D01*
X33067000Y-11830000D02*
X25367000Y-11830000D01*
X33067000Y-11830000D02*
X33067000Y-25850000D01*
X33067000Y-25850000D02*
X25367000Y-25850000D01*
X15798282Y-13850100D02*
G75*
G02*
X19757000Y-10980000I3918716J-1239898D01*
G01*
X19757000Y-26700000D02*
G75*
G02*
X16234042Y-24706806I0J4110000D01*
G01*
>>>>>>> 2e23f7f8cb64151a60ec3d004f8241720292418e
%TO.C,C111*%
X-9361000Y304748D02*
X-9361000Y1727252D01*
X-6641000Y304748D02*
X-6641000Y1727252D01*
%TO.C,Q113*%
X11800400Y-18592800D02*
X11800400Y-17942800D01*
X11800400Y-18592800D02*
X11800400Y-19242800D01*
X14920400Y-18592800D02*
X14920400Y-17942800D01*
X14920400Y-18592800D02*
X14920400Y-19242800D01*
X15200400Y-17670300D02*
X14870400Y-17430300D01*
X15200400Y-17190300D01*
X15200400Y-17670300D01*
G36*
X15200400Y-17670300D02*
G01*
X14870400Y-17430300D01*
X15200400Y-17190300D01*
X15200400Y-17670300D01*
G37*
<<<<<<< HEAD
=======
%TO.C,J107*%
X-27861500Y27310000D02*
X-13551500Y27310000D01*
X-27861500Y11590000D02*
X-27861500Y27310000D01*
X-27861500Y11590000D02*
X-13551500Y11590000D01*
X-10341500Y25100000D02*
X-10341500Y25770000D01*
X-10341500Y18160000D02*
X-10341500Y20950000D01*
X-10341500Y13140000D02*
X-10341500Y13540000D01*
X-13551500Y27310000D02*
G75*
G02*
X-10343931Y25769747I0J-4110000D01*
G01*
X-10343105Y13131285D02*
G75*
G02*
X-13551500Y11590000I-3208396J2568716D01*
G01*
>>>>>>> 2e23f7f8cb64151a60ec3d004f8241720292418e
%TO.C,Q105*%
X8244400Y-18592800D02*
X8244400Y-17942800D01*
X8244400Y-18592800D02*
X8244400Y-19242800D01*
X11364400Y-18592800D02*
X11364400Y-17942800D01*
X11364400Y-18592800D02*
X11364400Y-19242800D01*
X8294400Y-19755300D02*
X7964400Y-19995300D01*
X7964400Y-19515300D01*
X8294400Y-19755300D01*
G36*
X8294400Y-19755300D02*
G01*
X7964400Y-19995300D01*
X7964400Y-19515300D01*
X8294400Y-19755300D01*
G37*
%TO.C,U101*%
X127000Y1290000D02*
X-1823000Y1290000D01*
X127000Y1290000D02*
X2077000Y1290000D01*
X127000Y-3830000D02*
X-1823000Y-3830000D01*
X127000Y-3830000D02*
X2077000Y-3830000D01*
X3067000Y-4065000D02*
X2587000Y-4065000D01*
X2827000Y-3735000D01*
X3067000Y-4065000D01*
G36*
X3067000Y-4065000D02*
G01*
X2587000Y-4065000D01*
X2827000Y-3735000D01*
X3067000Y-4065000D01*
G37*
%TO.C,Q103*%
X1930400Y-9768400D02*
X1280400Y-9768400D01*
X1930400Y-9768400D02*
X2580400Y-9768400D01*
X1930400Y-12888400D02*
X1280400Y-12888400D01*
X1930400Y-12888400D02*
X2580400Y-12888400D01*
X3332900Y-13168400D02*
X2852900Y-13168400D01*
X3092900Y-12838400D01*
X3332900Y-13168400D01*
G36*
X3332900Y-13168400D02*
G01*
X2852900Y-13168400D01*
X3092900Y-12838400D01*
X3332900Y-13168400D01*
G37*
%TO.C,J102*%
X1697000Y-13550000D02*
X1697000Y-23670000D01*
X1697000Y-23670000D02*
X7667000Y-23670000D01*
X2457000Y-14310000D02*
X2457000Y-18610000D01*
X2457000Y-22910000D02*
X2457000Y-18610000D01*
X5407000Y-13560000D02*
X5407000Y-14310000D01*
X5407000Y-14310000D02*
X2457000Y-14310000D01*
X5407000Y-22910000D02*
X2457000Y-22910000D01*
X5407000Y-23660000D02*
X5407000Y-22910000D01*
X6907000Y-13560000D02*
X6907000Y-15360000D01*
X6907000Y-15360000D02*
X7657000Y-15360000D01*
X6907000Y-16860000D02*
X6907000Y-20360000D01*
X6907000Y-20360000D02*
X7657000Y-20360000D01*
X6907000Y-21860000D02*
X6907000Y-23660000D01*
X6907000Y-23660000D02*
X7657000Y-23660000D01*
X7657000Y-13560000D02*
X6907000Y-13560000D01*
X7657000Y-15360000D02*
X7657000Y-13560000D01*
X7657000Y-16860000D02*
X6907000Y-16860000D01*
X7657000Y-20360000D02*
X7657000Y-16860000D01*
X7657000Y-21860000D02*
X6907000Y-21860000D01*
X7657000Y-23660000D02*
X7657000Y-21860000D01*
X7667000Y-13550000D02*
X1697000Y-13550000D01*
X7667000Y-23670000D02*
X7667000Y-13550000D01*
X7957000Y-13260000D02*
X6707000Y-13260000D01*
X7957000Y-14510000D02*
X7957000Y-13260000D01*
<<<<<<< HEAD
D15*
%TO.C,C112*%
X-14696200Y-1127800D02*
X-14696200Y772200D01*
X-14296200Y-1527800D02*
X-13796200Y-1527800D01*
X-13796200Y1172200D02*
X-14296200Y1172200D01*
X-13396200Y772200D02*
X-13396200Y-1127800D01*
X-14696200Y772200D02*
G75*
G02*
X-14296200Y1172200I400000J0D01*
G01*
X-14296200Y-1527800D02*
G75*
G02*
X-14696200Y-1127800I-1J399999D01*
G01*
X-13796200Y1172200D02*
G75*
G02*
X-13396200Y772200I0J-400000D01*
G01*
X-13396200Y-1127800D02*
G75*
G02*
X-13796200Y-1527800I-399999J-1D01*
=======
D14*
%TO.C,C112*%
X-14518400Y-1127800D02*
X-14518400Y772200D01*
X-14118400Y-1527800D02*
X-13618400Y-1527800D01*
X-13618400Y1172200D02*
X-14118400Y1172200D01*
X-13218400Y772200D02*
X-13218400Y-1127800D01*
X-14518400Y772200D02*
G75*
G02*
X-14118400Y1172200I400000J0D01*
G01*
X-14118400Y-1527800D02*
G75*
G02*
X-14518400Y-1127800I-1J399999D01*
G01*
X-13618400Y1172200D02*
G75*
G02*
X-13218400Y772200I0J-400000D01*
G01*
X-13218400Y-1127800D02*
G75*
G02*
X-13618400Y-1527800I-399999J-1D01*
>>>>>>> 2e23f7f8cb64151a60ec3d004f8241720292418e
G01*
%TO.C,TP109*%
X-1055800Y12446000D02*
G75*
G02*
X-2855800Y12446000I-900000J0D01*
G01*
X-2855800Y12446000D02*
G75*
G02*
X-1055800Y12446000I900000J0D01*
G01*
%TO.C,R132*%
X10907000Y1444000D02*
X10907000Y4144000D01*
X10907000Y1444000D02*
X12207000Y1444000D01*
X12207000Y4144000D02*
X10907000Y4144000D01*
X12207000Y4144000D02*
X12207000Y1444000D01*
D16*
%TO.C,Q112*%
X8244400Y19659600D02*
X8244400Y20309600D01*
X8244400Y19659600D02*
X8244400Y19009600D01*
X11364400Y19659600D02*
X11364400Y20309600D01*
X11364400Y19659600D02*
X11364400Y19009600D01*
X8294400Y18497100D02*
X7964400Y18257100D01*
X7964400Y18737100D01*
X8294400Y18497100D01*
G36*
X8294400Y18497100D02*
G01*
X7964400Y18257100D01*
X7964400Y18737100D01*
X8294400Y18497100D01*
G37*
<<<<<<< HEAD
D15*
%TO.C,C119*%
X-10911600Y-899200D02*
X-10911600Y1000800D01*
X-10511600Y-1299200D02*
X-10011600Y-1299200D01*
X-10011600Y1400800D02*
X-10511600Y1400800D01*
X-9611600Y1000800D02*
X-9611600Y-899200D01*
X-10911600Y1000800D02*
G75*
G02*
X-10511600Y1400800I400000J0D01*
G01*
X-10511600Y-1299200D02*
G75*
G02*
X-10911600Y-899200I-1J399999D01*
G01*
X-10011600Y1400800D02*
G75*
G02*
X-9611600Y1000800I0J-400000D01*
G01*
X-9611600Y-899200D02*
G75*
G02*
X-10011600Y-1299200I-399999J-1D01*
=======
D14*
%TO.C,C119*%
X-10962400Y-899200D02*
X-10962400Y1000800D01*
X-10562400Y-1299200D02*
X-10062400Y-1299200D01*
X-10062400Y1400800D02*
X-10562400Y1400800D01*
X-9662400Y1000800D02*
X-9662400Y-899200D01*
X-10962400Y1000800D02*
G75*
G02*
X-10562400Y1400800I400000J0D01*
G01*
X-10562400Y-1299200D02*
G75*
G02*
X-10962400Y-899200I-1J399999D01*
G01*
X-10062400Y1400800D02*
G75*
G02*
X-9662400Y1000800I0J-400000D01*
G01*
X-9662400Y-899200D02*
G75*
G02*
X-10062400Y-1299200I-399999J-1D01*
>>>>>>> 2e23f7f8cb64151a60ec3d004f8241720292418e
G01*
%TO.C,D101*%
X10757000Y7250000D02*
X10757000Y5450000D01*
X11707000Y7900000D02*
X11407000Y7900000D01*
X12357000Y7250000D02*
X12357000Y5450000D01*
X10757000Y7250000D02*
G75*
G02*
X11407000Y7900000I650001J-1D01*
G01*
X11707000Y7900000D02*
G75*
G02*
X12357000Y7250000I-1J-650001D01*
G01*
%TO.C,C109*%
X-4891800Y17992000D02*
X-4891800Y19892000D01*
X-4491800Y17592000D02*
X-3991800Y17592000D01*
X-3991800Y20292000D02*
X-4491800Y20292000D01*
X-3591800Y19892000D02*
X-3591800Y17992000D01*
X-4891800Y19892000D02*
G75*
G02*
X-4491800Y20292000I399999J1D01*
G01*
X-4491800Y17592000D02*
G75*
G02*
X-4891800Y17992000I0J400000D01*
G01*
X-3991800Y20292000D02*
G75*
G02*
X-3591800Y19892000I1J-399999D01*
G01*
X-3591800Y17992000D02*
G75*
G02*
X-3991800Y17592000I-400000J0D01*
G01*
D16*
%TO.C,Q119*%
X8763000Y4608000D02*
X8113000Y4608000D01*
X8763000Y4608000D02*
X9413000Y4608000D01*
X8763000Y1488000D02*
X8113000Y1488000D01*
X8763000Y1488000D02*
X9413000Y1488000D01*
X7600500Y4558000D02*
X7360500Y4888000D01*
X7840500Y4888000D01*
X7600500Y4558000D01*
G36*
X7600500Y4558000D02*
G01*
X7360500Y4888000D01*
X7840500Y4888000D01*
X7600500Y4558000D01*
G37*
<<<<<<< HEAD
D15*
=======
D14*
>>>>>>> 2e23f7f8cb64151a60ec3d004f8241720292418e
%TO.C,C116*%
X-17033000Y-2155800D02*
X-17033000Y-255800D01*
X-16633000Y-2555800D02*
X-16133000Y-2555800D01*
X-16133000Y144200D02*
X-16633000Y144200D01*
X-15733000Y-255800D02*
X-15733000Y-2155800D01*
X-17033000Y-255800D02*
G75*
G02*
X-16633000Y144200I399999J1D01*
G01*
X-16633000Y-2555800D02*
G75*
G02*
X-17033000Y-2155800I0J400000D01*
G01*
X-16133000Y144200D02*
G75*
G02*
X-15733000Y-255800I1J-399999D01*
G01*
X-15733000Y-2155800D02*
G75*
G02*
X-16133000Y-2555800I-400000J0D01*
G01*
%TO.C,TP108*%
X-1944800Y21894800D02*
G75*
G02*
X-3744800Y21894800I-900000J0D01*
G01*
X-3744800Y21894800D02*
G75*
G02*
X-1944800Y21894800I900000J0D01*
G01*
%TO.C,R103*%
X-2112000Y4612400D02*
X-2112000Y3312400D01*
X-2112000Y4612400D02*
X588000Y4612400D01*
X588000Y3312400D02*
X-2112000Y3312400D01*
X588000Y3312400D02*
X588000Y4612400D01*
%TO.C,SW101*%
X4191000Y10668000D02*
X4191000Y8128000D01*
X4191000Y8128000D02*
X11811000Y8128000D01*
X11811000Y10668000D02*
X4191000Y10668000D01*
X11811000Y8128000D02*
X11811000Y10668000D01*
%TO.C,R114*%
X-40400Y16709400D02*
X-40400Y19409400D01*
X-40400Y16709400D02*
X1259600Y16709400D01*
X1259600Y19409400D02*
X-40400Y19409400D01*
X1259600Y19409400D02*
X1259600Y16709400D01*
D16*
%TO.C,D103*%
X-2247000Y6221400D02*
X-2247000Y4751400D01*
X-2247000Y4751400D02*
X38000Y4751400D01*
X38000Y6221400D02*
X-2247000Y6221400D01*
<<<<<<< HEAD
D15*
=======
D14*
>>>>>>> 2e23f7f8cb64151a60ec3d004f8241720292418e
%TO.C,R113*%
X-65800Y-20755600D02*
X-65800Y-18055600D01*
X-65800Y-20755600D02*
X1234200Y-20755600D01*
X1234200Y-18055600D02*
X-65800Y-18055600D01*
X1234200Y-18055600D02*
X1234200Y-20755600D01*
<<<<<<< HEAD
=======
%TO.C,R125*%
X1444000Y11572000D02*
X1444000Y10272000D01*
X1444000Y11572000D02*
X4144000Y11572000D01*
X4144000Y10272000D02*
X1444000Y10272000D01*
X4144000Y10272000D02*
X4144000Y11572000D01*
>>>>>>> 2e23f7f8cb64151a60ec3d004f8241720292418e
D16*
%TO.C,Q110*%
X11800400Y15595600D02*
X11800400Y16245600D01*
X11800400Y15595600D02*
X11800400Y14945600D01*
X14920400Y15595600D02*
X14920400Y16245600D01*
X14920400Y15595600D02*
X14920400Y14945600D01*
X15200400Y16518100D02*
X14870400Y16758100D01*
X15200400Y16998100D01*
X15200400Y16518100D01*
G36*
X15200400Y16518100D02*
G01*
X14870400Y16758100D01*
X15200400Y16998100D01*
X15200400Y16518100D01*
G37*
<<<<<<< HEAD
D15*
=======
D14*
>>>>>>> 2e23f7f8cb64151a60ec3d004f8241720292418e
%TO.C,R105*%
X6106400Y5000000D02*
X6106400Y7700000D01*
X6106400Y5000000D02*
X7406400Y5000000D01*
X7406400Y7700000D02*
X6106400Y7700000D01*
X7406400Y7700000D02*
X7406400Y5000000D01*
%TO.C,TP107*%
X-2144800Y-15900400D02*
G75*
G02*
X-3544800Y-15900400I-700000J0D01*
G01*
X-3544800Y-15900400D02*
G75*
G02*
X-2144800Y-15900400I700000J0D01*
G01*
D16*
%TO.C,C117*%
X-15406200Y-4546652D02*
X-15406200Y-3124148D01*
X-12686200Y-4546652D02*
X-12686200Y-3124148D01*
<<<<<<< HEAD
D15*
=======
D14*
>>>>>>> 2e23f7f8cb64151a60ec3d004f8241720292418e
%TO.C,R129*%
X1393200Y9971800D02*
X1393200Y8671800D01*
X1393200Y9971800D02*
X4093200Y9971800D01*
X4093200Y8671800D02*
X1393200Y8671800D01*
X4093200Y8671800D02*
X4093200Y9971800D01*
%TO.C,R126*%
X7630400Y5025400D02*
X7630400Y7725400D01*
X7630400Y5025400D02*
X8930400Y5025400D01*
X8930400Y7725400D02*
X7630400Y7725400D01*
X8930400Y7725400D02*
X8930400Y5025400D01*
%TO.C,R108*%
X-14823200Y1723400D02*
X-14823200Y4423400D01*
X-14823200Y1723400D02*
X-13523200Y1723400D01*
X-13523200Y4423400D02*
X-14823200Y4423400D01*
X-13523200Y4423400D02*
X-13523200Y1723400D01*
%TO.C,R120*%
X5192000Y24558000D02*
X5192000Y27258000D01*
X5192000Y24558000D02*
X6492000Y24558000D01*
X6492000Y27258000D02*
X5192000Y27258000D01*
X6492000Y27258000D02*
X6492000Y24558000D01*
%TO.C,R101*%
X-10911600Y3222000D02*
X-10911600Y5922000D01*
X-10911600Y3222000D02*
X-9611600Y3222000D01*
X-9611600Y5922000D02*
X-10911600Y5922000D01*
X-9611600Y5922000D02*
X-9611600Y3222000D01*
%TO.C,R122*%
X6716000Y24558000D02*
X6716000Y27258000D01*
X6716000Y24558000D02*
X8016000Y24558000D01*
X8016000Y27258000D02*
X6716000Y27258000D01*
X8016000Y27258000D02*
X8016000Y24558000D01*
D16*
%TO.C,Q107*%
X8244400Y-14528800D02*
X8244400Y-13878800D01*
X8244400Y-14528800D02*
X8244400Y-15178800D01*
X11364400Y-14528800D02*
X11364400Y-13878800D01*
X11364400Y-14528800D02*
X11364400Y-15178800D01*
X8294400Y-15691300D02*
X7964400Y-15931300D01*
X7964400Y-15451300D01*
X8294400Y-15691300D01*
G36*
X8294400Y-15691300D02*
G01*
X7964400Y-15931300D01*
X7964400Y-15451300D01*
X8294400Y-15691300D01*
G37*
<<<<<<< HEAD
%TO.C,C101*%
X6557600Y-3479748D02*
X6557600Y-4902252D01*
X8377600Y-3479748D02*
X8377600Y-4902252D01*
D15*
=======
D14*
%TO.C,C101*%
X5967055Y-1864000D02*
X5967055Y-6264000D01*
X6417055Y-6714000D02*
X7617055Y-6714000D01*
X7617055Y-1414000D02*
X6417055Y-1414000D01*
X8067055Y-6264000D02*
X8067055Y-1864000D01*
X5967055Y-1864000D02*
G75*
G02*
X6417055Y-1414000I450000J0D01*
G01*
X6417055Y-6714000D02*
G75*
G02*
X5967055Y-6264000I0J450000D01*
G01*
X7617055Y-1414000D02*
G75*
G02*
X8067055Y-1864000I0J-450000D01*
G01*
X8067055Y-6264000D02*
G75*
G02*
X7617055Y-6714000I-450000J0D01*
G01*
>>>>>>> 2e23f7f8cb64151a60ec3d004f8241720292418e
%TO.C,D108*%
X-6218000Y-8244000D02*
X-6218000Y-10044000D01*
X-6218000Y-8244000D02*
X-2818000Y-8244000D01*
X-2818000Y-8244000D02*
X-2418000Y-8636000D01*
X-2818000Y-10044000D02*
X-6218000Y-10044000D01*
X-2818000Y-10044000D02*
X-2418000Y-9644000D01*
X-2418000Y-9644000D02*
X-2418000Y-8644000D01*
D17*
G36*
X-4318000Y-8994000D02*
G01*
X-4018000Y-8994000D01*
X-4018000Y-9294000D01*
X-4318000Y-9294000D01*
X-4318000Y-9594000D01*
X-4618000Y-9594000D01*
X-4618000Y-8694000D01*
X-4318000Y-8694000D01*
X-4318000Y-8994000D01*
G37*
D16*
%TO.C,Q102*%
X-16139600Y7874000D02*
X-16139600Y8524000D01*
X-16139600Y7874000D02*
X-16139600Y7224000D01*
X-13019600Y7874000D02*
X-13019600Y8524000D01*
X-13019600Y7874000D02*
X-13019600Y7224000D01*
X-12739600Y8796500D02*
X-13069600Y9036500D01*
X-12739600Y9276500D01*
X-12739600Y8796500D01*
G36*
X-12739600Y8796500D02*
G01*
X-13069600Y9036500D01*
X-12739600Y9276500D01*
X-12739600Y8796500D01*
G37*
%TO.C,Q109*%
X8244400Y-22656800D02*
X8244400Y-22006800D01*
X8244400Y-22656800D02*
X8244400Y-23306800D01*
X11364400Y-22656800D02*
X11364400Y-22006800D01*
X11364400Y-22656800D02*
X11364400Y-23306800D01*
X8294400Y-23819300D02*
X7964400Y-24059300D01*
X7964400Y-23579300D01*
X8294400Y-23819300D01*
G36*
X8294400Y-23819300D02*
G01*
X7964400Y-24059300D01*
X7964400Y-23579300D01*
X8294400Y-23819300D01*
G37*
<<<<<<< HEAD
D15*
=======
D14*
>>>>>>> 2e23f7f8cb64151a60ec3d004f8241720292418e
%TO.C,TP103*%
X-16445000Y6451600D02*
G75*
G02*
X-17845000Y6451600I-700000J0D01*
G01*
X-17845000Y6451600D02*
G75*
G02*
X-16445000Y6451600I700000J0D01*
G01*
<<<<<<< HEAD
D16*
%TO.C,C115*%
X4220801Y-3445399D02*
X4220801Y-4867903D01*
X6040801Y-3445399D02*
X6040801Y-4867903D01*
D15*
=======
%TO.C,C115*%
X3852200Y-1864000D02*
X3852200Y-6264000D01*
X4302200Y-6714000D02*
X5502200Y-6714000D01*
X5502200Y-1414000D02*
X4302200Y-1414000D01*
X5952200Y-6264000D02*
X5952200Y-1864000D01*
X3852200Y-1864000D02*
G75*
G02*
X4302200Y-1414000I450000J0D01*
G01*
X4302200Y-6714000D02*
G75*
G02*
X3852200Y-6264000I0J450000D01*
G01*
X5502200Y-1414000D02*
G75*
G02*
X5952200Y-1864000I0J-450000D01*
G01*
X5952200Y-6264000D02*
G75*
G02*
X5502200Y-6714000I-450000J0D01*
G01*
>>>>>>> 2e23f7f8cb64151a60ec3d004f8241720292418e
%TO.C,R128*%
X-15878800Y11114800D02*
X-15878800Y9814800D01*
X-15878800Y11114800D02*
X-13178800Y11114800D01*
X-13178800Y9814800D02*
X-15878800Y9814800D01*
X-13178800Y9814800D02*
X-13178800Y11114800D01*
D16*
%TO.C,Q116*%
X11800400Y23723600D02*
X11800400Y24373600D01*
X11800400Y23723600D02*
X11800400Y23073600D01*
X14920400Y23723600D02*
X14920400Y24373600D01*
X14920400Y23723600D02*
X14920400Y23073600D01*
X15200400Y24646100D02*
X14870400Y24886100D01*
X15200400Y25126100D01*
X15200400Y24646100D01*
G36*
X15200400Y24646100D02*
G01*
X14870400Y24886100D01*
X15200400Y25126100D01*
X15200400Y24646100D01*
G37*
%TO.C,Q104*%
X1600200Y27682500D02*
X950200Y27682500D01*
X1600200Y27682500D02*
X2250200Y27682500D01*
X1600200Y24562500D02*
X950200Y24562500D01*
X1600200Y24562500D02*
X2250200Y24562500D01*
X3002700Y24282500D02*
X2522700Y24282500D01*
X2762700Y24612500D01*
X3002700Y24282500D01*
G36*
X3002700Y24282500D02*
G01*
X2522700Y24282500D01*
X2762700Y24612500D01*
X3002700Y24282500D01*
G37*
<<<<<<< HEAD
D15*
=======
D14*
>>>>>>> 2e23f7f8cb64151a60ec3d004f8241720292418e
%TO.C,R117*%
X3995900Y-12490400D02*
X3995900Y-9790400D01*
X3995900Y-12490400D02*
X5295900Y-12490400D01*
X5295900Y-9790400D02*
X3995900Y-9790400D01*
X5295900Y-9790400D02*
X5295900Y-12490400D01*
%TO.C,R104*%
X-12957800Y11114800D02*
X-12957800Y9814800D01*
X-12957800Y11114800D02*
X-10257800Y11114800D01*
X-10257800Y9814800D02*
X-12957800Y9814800D01*
X-10257800Y9814800D02*
X-10257800Y11114800D01*
%TO.C,R106*%
X4557000Y5000000D02*
X4557000Y7700000D01*
X4557000Y5000000D02*
X5857000Y5000000D01*
X5857000Y7700000D02*
X4557000Y7700000D01*
X5857000Y7700000D02*
X5857000Y5000000D01*
%TO.C,TP104*%
X-265200Y-15900400D02*
G75*
G02*
X-1665200Y-15900400I-700000J0D01*
G01*
X-1665200Y-15900400D02*
G75*
G02*
X-265200Y-15900400I700000J0D01*
G01*
D16*
%TO.C,Q106*%
X11800400Y19659600D02*
X11800400Y20309600D01*
X11800400Y19659600D02*
X11800400Y19009600D01*
X14920400Y19659600D02*
X14920400Y20309600D01*
X14920400Y19659600D02*
X14920400Y19009600D01*
X15200400Y20582100D02*
X14870400Y20822100D01*
X15200400Y21062100D01*
X15200400Y20582100D01*
G36*
X15200400Y20582100D02*
G01*
X14870400Y20822100D01*
X15200400Y21062100D01*
X15200400Y20582100D01*
G37*
<<<<<<< HEAD
D15*
=======
D14*
>>>>>>> 2e23f7f8cb64151a60ec3d004f8241720292418e
%TO.C,C105*%
X1017000Y4235000D02*
X1017000Y3385000D01*
X1442000Y4660000D02*
X3892000Y4660000D01*
X3892000Y2960000D02*
X1442000Y2960000D01*
X4317000Y3385000D02*
X4317000Y4235000D01*
X1017000Y4235000D02*
G75*
G02*
X1442000Y4660000I425000J0D01*
G01*
X1442000Y2960000D02*
G75*
G02*
X1017000Y3385000I0J425000D01*
G01*
X3892000Y4660000D02*
G75*
G02*
X4317000Y4235000I-1J-425001D01*
G01*
X4317000Y3385000D02*
G75*
G02*
X3892000Y2960000I-425001J1D01*
G01*
%TD*%
%LPC*%
D18*
<<<<<<< HEAD
%TO.C,J104*%
X-17401500Y-26562000D03*
X-17401500Y-13062000D03*
D19*
X-11401500Y-23412000D03*
D20*
X-11401500Y-16212000D03*
D21*
X-15051500Y-19812000D03*
%TD*%
D18*
%TO.C,J107*%
X-17401500Y12700000D03*
X-17401500Y26200000D03*
D19*
X-11401500Y15850000D03*
D20*
X-11401500Y23050000D03*
D21*
X-15051500Y19450000D03*
%TD*%
D18*
%TO.C,J105*%
X23607000Y-12090000D03*
X23607000Y-25590000D03*
D22*
X17607000Y-22440000D03*
D20*
X17607000Y-15240000D03*
%TD*%
D23*
=======
>>>>>>> 2e23f7f8cb64151a60ec3d004f8241720292418e
%TO.C,R123*%
X-7124000Y-9144000D03*
X-8624000Y-9144000D03*
%TD*%
<<<<<<< HEAD
D24*
=======
D19*
>>>>>>> 2e23f7f8cb64151a60ec3d004f8241720292418e
%TO.C,R102*%
X9779000Y7100000D03*
X9779000Y5600000D03*
%TD*%
<<<<<<< HEAD
D25*
%TO.C,J108*%
X-24130000Y5080000D03*
D26*
=======
D20*
%TO.C,J108*%
X-24130000Y5080000D03*
D21*
>>>>>>> 2e23f7f8cb64151a60ec3d004f8241720292418e
X-21590000Y5080000D03*
X-24130000Y2540000D03*
X-21590000Y2540000D03*
X-24130000Y0D03*
X-21590000Y0D03*
X-24130000Y-2540000D03*
X-21590000Y-2540000D03*
X-24130000Y-5080000D03*
X-21590000Y-5080000D03*
%TD*%
<<<<<<< HEAD
D24*
=======
D19*
>>>>>>> 2e23f7f8cb64151a60ec3d004f8241720292418e
%TO.C,C108*%
X-4267200Y-17900000D03*
X-4267200Y-19400000D03*
%TD*%
<<<<<<< HEAD
D27*
=======
D22*
>>>>>>> 2e23f7f8cb64151a60ec3d004f8241720292418e
%TO.C,D105*%
X584200Y-23037900D03*
X584200Y-21462900D03*
%TD*%
<<<<<<< HEAD
D23*
=======
D18*
>>>>>>> 2e23f7f8cb64151a60ec3d004f8241720292418e
%TO.C,R124*%
X2401000Y2286000D03*
X901000Y2286000D03*
%TD*%
<<<<<<< HEAD
D28*
=======
D23*
>>>>>>> 2e23f7f8cb64151a60ec3d004f8241720292418e
%TO.C,Q115*%
X14310400Y-21719300D03*
X12410400Y-21719300D03*
X13360400Y-23594300D03*
%TD*%
<<<<<<< HEAD
D29*
=======
D24*
>>>>>>> 2e23f7f8cb64151a60ec3d004f8241720292418e
%TO.C,R118*%
X4318000Y25158000D03*
X4318000Y26658000D03*
%TD*%
<<<<<<< HEAD
D30*
%TO.C,C113*%
X-12065000Y-179600D03*
X-12065000Y2770400D03*
%TD*%
D31*
=======
D25*
%TO.C,C113*%
X-12065000Y-455400D03*
X-12065000Y2944600D03*
%TD*%
D26*
>>>>>>> 2e23f7f8cb64151a60ec3d004f8241720292418e
%TO.C,D107*%
X-1873000Y-5842000D03*
X2127000Y-5842000D03*
%TD*%
<<<<<<< HEAD
D32*
=======
D27*
>>>>>>> 2e23f7f8cb64151a60ec3d004f8241720292418e
%TO.C,U102*%
X-2855000Y-19787500D03*
X-1905000Y-19787500D03*
X-955000Y-19787500D03*
X-955000Y-17512500D03*
X-2855000Y-17512500D03*
%TD*%
<<<<<<< HEAD
D29*
=======
D24*
>>>>>>> 2e23f7f8cb64151a60ec3d004f8241720292418e
%TO.C,R119*%
X6169900Y-11890400D03*
X6169900Y-10390400D03*
%TD*%
<<<<<<< HEAD
D33*
=======
D28*
>>>>>>> 2e23f7f8cb64151a60ec3d004f8241720292418e
%TO.C,R115*%
X-5753800Y635000D03*
X-4253800Y635000D03*
%TD*%
<<<<<<< HEAD
D23*
=======
D29*
%TO.C,J104*%
X-17401500Y-26562000D03*
X-17401500Y-13062000D03*
D30*
X-11401500Y-23412000D03*
D31*
X-11401500Y-16212000D03*
D32*
X-15051500Y-19812000D03*
%TD*%
D18*
>>>>>>> 2e23f7f8cb64151a60ec3d004f8241720292418e
%TO.C,R112*%
X-1917000Y-21444000D03*
X-3417000Y-21444000D03*
%TD*%
<<<<<<< HEAD
D34*
%TO.C,J103*%
X5224000Y21482000D03*
D35*
X5224000Y18982000D03*
X5224000Y16482000D03*
%TD*%
D36*
%TO.C,C107*%
X8304000Y-254000D03*
X11254000Y-254000D03*
%TD*%
D24*
=======
D33*
%TO.C,J103*%
X5224000Y21482000D03*
D34*
X5224000Y18982000D03*
X5224000Y16482000D03*
%TD*%
D35*
%TO.C,C107*%
X8079000Y-254000D03*
X11479000Y-254000D03*
%TD*%
D19*
>>>>>>> 2e23f7f8cb64151a60ec3d004f8241720292418e
%TO.C,R110*%
X-15697200Y3823400D03*
X-15697200Y2323400D03*
%TD*%
<<<<<<< HEAD
D33*
=======
D28*
>>>>>>> 2e23f7f8cb64151a60ec3d004f8241720292418e
%TO.C,C114*%
X-623000Y-8382000D03*
X877000Y-8382000D03*
%TD*%
<<<<<<< HEAD
D37*
=======
D36*
>>>>>>> 2e23f7f8cb64151a60ec3d004f8241720292418e
%TO.C,D109*%
X12954000Y12911800D03*
X12954000Y10811800D03*
%TD*%
<<<<<<< HEAD
D38*
=======
D37*
>>>>>>> 2e23f7f8cb64151a60ec3d004f8241720292418e
%TO.C,Q114*%
X8854400Y22786100D03*
X10754400Y22786100D03*
X9804400Y24661100D03*
%TD*%
<<<<<<< HEAD
D33*
=======
D28*
>>>>>>> 2e23f7f8cb64151a60ec3d004f8241720292418e
%TO.C,R116*%
X-2350200Y2286000D03*
X-850200Y2286000D03*
%TD*%
<<<<<<< HEAD
D24*
=======
D19*
>>>>>>> 2e23f7f8cb64151a60ec3d004f8241720292418e
%TO.C,R111*%
X-1879600Y16294800D03*
X-1879600Y14794800D03*
%TD*%
%TO.C,C106*%
X-17221200Y3823400D03*
X-17221200Y2323400D03*
%TD*%
<<<<<<< HEAD
D29*
=======
D24*
>>>>>>> 2e23f7f8cb64151a60ec3d004f8241720292418e
%TO.C,C102*%
X6477000Y-750000D03*
X6477000Y750000D03*
%TD*%
<<<<<<< HEAD
D39*
=======
D38*
>>>>>>> 2e23f7f8cb64151a60ec3d004f8241720292418e
%TO.C,D104*%
X-13148600Y-9956800D03*
X-15248600Y-9956800D03*
%TD*%
<<<<<<< HEAD
D38*
=======
D37*
>>>>>>> 2e23f7f8cb64151a60ec3d004f8241720292418e
%TO.C,Q108*%
X8854400Y14658100D03*
X10754400Y14658100D03*
X9804400Y16533100D03*
%TD*%
<<<<<<< HEAD
D29*
=======
D24*
>>>>>>> 2e23f7f8cb64151a60ec3d004f8241720292418e
%TO.C,R121*%
X7693900Y-11890400D03*
X7693900Y-10390400D03*
%TD*%
<<<<<<< HEAD
D18*
%TO.C,J106*%
X23607000Y25692000D03*
X23607000Y12192000D03*
D22*
X17607000Y15342000D03*
D20*
X17607000Y22542000D03*
%TD*%
D29*
=======
D29*
%TO.C,J106*%
X23607000Y25692000D03*
X23607000Y12192000D03*
D39*
X17607000Y15342000D03*
D31*
X17607000Y22542000D03*
%TD*%
D24*
>>>>>>> 2e23f7f8cb64151a60ec3d004f8241720292418e
%TO.C,C103*%
X4953000Y-750000D03*
X4953000Y750000D03*
%TD*%
D40*
%TO.C,TP102*%
X5638800Y3403600D03*
%TD*%
%TO.C,TP105*%
X-889000Y21894800D03*
%TD*%
<<<<<<< HEAD
D32*
=======
D27*
>>>>>>> 2e23f7f8cb64151a60ec3d004f8241720292418e
%TO.C,U103*%
X-2838000Y17804500D03*
X-1888000Y17804500D03*
X-938000Y17804500D03*
X-938000Y20079500D03*
X-2838000Y20079500D03*
%TD*%
D41*
%TO.C,TP101*%
X-6502400Y12496800D03*
%TD*%
<<<<<<< HEAD
D38*
=======
D37*
>>>>>>> 2e23f7f8cb64151a60ec3d004f8241720292418e
%TO.C,Q101*%
X-12114700Y6936500D03*
X-10214700Y6936500D03*
X-11164700Y8811500D03*
%TD*%
<<<<<<< HEAD
D23*
=======
D18*
>>>>>>> 2e23f7f8cb64151a60ec3d004f8241720292418e
%TO.C,R109*%
X-14591600Y5207000D03*
X-16091600Y5207000D03*
%TD*%
<<<<<<< HEAD
D28*
=======
D23*
>>>>>>> 2e23f7f8cb64151a60ec3d004f8241720292418e
%TO.C,Q111*%
X14310400Y-13591300D03*
X12410400Y-13591300D03*
X13360400Y-15466300D03*
%TD*%
<<<<<<< HEAD
D23*
=======
D18*
>>>>>>> 2e23f7f8cb64151a60ec3d004f8241720292418e
%TO.C,R107*%
X3417000Y7112000D03*
X1917000Y7112000D03*
%TD*%
D42*
%TO.C,J101*%
X21240000Y8550000D03*
X21240000Y-8550000D03*
D43*
X15240000Y5500000D03*
D44*
X15240000Y0D03*
X15240000Y-5500000D03*
%TD*%
<<<<<<< HEAD
D23*
%TO.C,R127*%
X3518600Y10922000D03*
X2018600Y10922000D03*
%TD*%
=======
>>>>>>> 2e23f7f8cb64151a60ec3d004f8241720292418e
D45*
%TO.C,C104*%
X3667000Y5588000D03*
X1667000Y5588000D03*
%TD*%
<<<<<<< HEAD
D27*
=======
D22*
>>>>>>> 2e23f7f8cb64151a60ec3d004f8241720292418e
%TO.C,D106*%
X584200Y14427100D03*
X584200Y16002100D03*
%TD*%
D46*
%TO.C,L101*%
X-5001000Y-4826000D03*
X-11001000Y-4826000D03*
%TD*%
D47*
%TO.C,C110*%
<<<<<<< HEAD
X9855200Y-2707051D03*
X9855200Y-5657051D03*
=======
X9118600Y-2364000D03*
X9118600Y-5764000D03*
>>>>>>> 2e23f7f8cb64151a60ec3d004f8241720292418e
%TD*%
D40*
%TO.C,TP106*%
X-3911600Y2260600D03*
%TD*%
<<<<<<< HEAD
=======
D29*
%TO.C,J105*%
X23607000Y-12090000D03*
X23607000Y-25590000D03*
D39*
X17607000Y-22440000D03*
D31*
X17607000Y-15240000D03*
%TD*%
>>>>>>> 2e23f7f8cb64151a60ec3d004f8241720292418e
D48*
%TO.C,C111*%
X-8001000Y-459000D03*
X-8001000Y2491000D03*
%TD*%
<<<<<<< HEAD
D28*
=======
D23*
>>>>>>> 2e23f7f8cb64151a60ec3d004f8241720292418e
%TO.C,Q113*%
X14310400Y-17655300D03*
X12410400Y-17655300D03*
X13360400Y-19530300D03*
%TD*%
<<<<<<< HEAD
D38*
=======
D29*
%TO.C,J107*%
X-17401500Y12700000D03*
X-17401500Y26200000D03*
D30*
X-11401500Y15850000D03*
D31*
X-11401500Y23050000D03*
D32*
X-15051500Y19450000D03*
%TD*%
D37*
>>>>>>> 2e23f7f8cb64151a60ec3d004f8241720292418e
%TO.C,Q105*%
X8854400Y-19530300D03*
X10754400Y-19530300D03*
X9804400Y-17655300D03*
%TD*%
D49*
%TO.C,U101*%
X2602000Y-3175000D03*
X2602000Y-1905000D03*
X2602000Y-635000D03*
X2602000Y635000D03*
X-2348000Y635000D03*
X-2348000Y-635000D03*
X-2348000Y-1905000D03*
X-2348000Y-3175000D03*
D50*
X127000Y-1270000D03*
%TD*%
D51*
%TO.C,Q103*%
X2867900Y-12278400D03*
X2867900Y-10378400D03*
X992900Y-11328400D03*
%TD*%
<<<<<<< HEAD
D34*
%TO.C,J102*%
X5207000Y-16110000D03*
D35*
X5207000Y-18610000D03*
X5207000Y-21110000D03*
%TD*%
D29*
%TO.C,C112*%
X-14046200Y-927800D03*
X-14046200Y572200D03*
=======
D33*
%TO.C,J102*%
X5207000Y-16110000D03*
D34*
X5207000Y-18610000D03*
X5207000Y-21110000D03*
%TD*%
D24*
%TO.C,C112*%
X-13868400Y-927800D03*
X-13868400Y572200D03*
>>>>>>> 2e23f7f8cb64151a60ec3d004f8241720292418e
%TD*%
D40*
%TO.C,TP109*%
X-1955800Y12446000D03*
%TD*%
<<<<<<< HEAD
D29*
=======
D24*
>>>>>>> 2e23f7f8cb64151a60ec3d004f8241720292418e
%TO.C,R132*%
X11557000Y2044000D03*
X11557000Y3544000D03*
%TD*%
<<<<<<< HEAD
D38*
=======
D37*
>>>>>>> 2e23f7f8cb64151a60ec3d004f8241720292418e
%TO.C,Q112*%
X8854400Y18722100D03*
X10754400Y18722100D03*
X9804400Y20597100D03*
%TD*%
<<<<<<< HEAD
D29*
%TO.C,C119*%
X-10261600Y-699200D03*
X-10261600Y800800D03*
%TD*%
D37*
=======
D24*
%TO.C,C119*%
X-10312400Y-699200D03*
X-10312400Y800800D03*
%TD*%
D36*
>>>>>>> 2e23f7f8cb64151a60ec3d004f8241720292418e
%TO.C,D101*%
X11557000Y7400000D03*
X11557000Y5300000D03*
%TD*%
<<<<<<< HEAD
D24*
=======
D19*
>>>>>>> 2e23f7f8cb64151a60ec3d004f8241720292418e
%TO.C,C109*%
X-4241800Y19692000D03*
X-4241800Y18192000D03*
%TD*%
D52*
%TO.C,Q119*%
X7825500Y3998000D03*
X7825500Y2098000D03*
X9700500Y3048000D03*
%TD*%
<<<<<<< HEAD
D24*
=======
D19*
>>>>>>> 2e23f7f8cb64151a60ec3d004f8241720292418e
%TO.C,C116*%
X-16383000Y-455800D03*
X-16383000Y-1955800D03*
%TD*%
D40*
%TO.C,TP108*%
X-2844800Y21894800D03*
%TD*%
<<<<<<< HEAD
D23*
=======
D18*
>>>>>>> 2e23f7f8cb64151a60ec3d004f8241720292418e
%TO.C,R103*%
X-12000Y3962400D03*
X-1512000Y3962400D03*
%TD*%
D53*
%TO.C,SW101*%
X5461000Y9398000D03*
<<<<<<< HEAD
D26*
X8001000Y9398000D03*
X10541000Y9398000D03*
%TD*%
D29*
=======
D21*
X8001000Y9398000D03*
X10541000Y9398000D03*
%TD*%
D24*
>>>>>>> 2e23f7f8cb64151a60ec3d004f8241720292418e
%TO.C,R114*%
X609600Y17309400D03*
X609600Y18809400D03*
%TD*%
D54*
%TO.C,D103*%
X-1549500Y5486400D03*
X25500Y5486400D03*
%TD*%
<<<<<<< HEAD
D29*
=======
D24*
>>>>>>> 2e23f7f8cb64151a60ec3d004f8241720292418e
%TO.C,R113*%
X584200Y-20155600D03*
X584200Y-18655600D03*
%TD*%
<<<<<<< HEAD
D28*
=======
D18*
%TO.C,R125*%
X3544000Y10922000D03*
X2044000Y10922000D03*
%TD*%
D23*
>>>>>>> 2e23f7f8cb64151a60ec3d004f8241720292418e
%TO.C,Q110*%
X14310400Y16533100D03*
X12410400Y16533100D03*
X13360400Y14658100D03*
%TD*%
<<<<<<< HEAD
D29*
=======
D24*
>>>>>>> 2e23f7f8cb64151a60ec3d004f8241720292418e
%TO.C,R105*%
X6756400Y5600000D03*
X6756400Y7100000D03*
%TD*%
D55*
%TO.C,TP107*%
X-2844800Y-15900400D03*
%TD*%
D48*
%TO.C,C117*%
X-14046200Y-5310400D03*
X-14046200Y-2360400D03*
%TD*%
<<<<<<< HEAD
D23*
=======
D18*
>>>>>>> 2e23f7f8cb64151a60ec3d004f8241720292418e
%TO.C,R129*%
X3493200Y9321800D03*
X1993200Y9321800D03*
%TD*%
<<<<<<< HEAD
D24*
=======
D19*
>>>>>>> 2e23f7f8cb64151a60ec3d004f8241720292418e
%TO.C,R126*%
X8280400Y7125400D03*
X8280400Y5625400D03*
%TD*%
%TO.C,R108*%
X-14173200Y3823400D03*
X-14173200Y2323400D03*
%TD*%
<<<<<<< HEAD
D29*
=======
D24*
>>>>>>> 2e23f7f8cb64151a60ec3d004f8241720292418e
%TO.C,R120*%
X5842000Y25158000D03*
X5842000Y26658000D03*
%TD*%
<<<<<<< HEAD
D24*
=======
D19*
>>>>>>> 2e23f7f8cb64151a60ec3d004f8241720292418e
%TO.C,R101*%
X-10261600Y5322000D03*
X-10261600Y3822000D03*
%TD*%
<<<<<<< HEAD
D29*
=======
D24*
>>>>>>> 2e23f7f8cb64151a60ec3d004f8241720292418e
%TO.C,R122*%
X7366000Y25158000D03*
X7366000Y26658000D03*
%TD*%
<<<<<<< HEAD
D38*
=======
D37*
>>>>>>> 2e23f7f8cb64151a60ec3d004f8241720292418e
%TO.C,Q107*%
X8854400Y-15466300D03*
X10754400Y-15466300D03*
X9804400Y-13591300D03*
%TD*%
D47*
%TO.C,C101*%
<<<<<<< HEAD
X7467600Y-2716000D03*
X7467600Y-5666000D03*
=======
X7017055Y-2364000D03*
X7017055Y-5764000D03*
>>>>>>> 2e23f7f8cb64151a60ec3d004f8241720292418e
%TD*%
D56*
%TO.C,D108*%
X-3318000Y-9144000D03*
X-5318000Y-9144000D03*
%TD*%
<<<<<<< HEAD
D28*
=======
D23*
>>>>>>> 2e23f7f8cb64151a60ec3d004f8241720292418e
%TO.C,Q102*%
X-13629600Y8811500D03*
X-15529600Y8811500D03*
X-14579600Y6936500D03*
%TD*%
<<<<<<< HEAD
D38*
=======
D37*
>>>>>>> 2e23f7f8cb64151a60ec3d004f8241720292418e
%TO.C,Q109*%
X8854400Y-23594300D03*
X10754400Y-23594300D03*
X9804400Y-21719300D03*
%TD*%
D55*
%TO.C,TP103*%
X-17145000Y6451600D03*
%TD*%
D47*
%TO.C,C115*%
<<<<<<< HEAD
X5130801Y-2681651D03*
X5130801Y-5631651D03*
%TD*%
D23*
=======
X4902200Y-2364000D03*
X4902200Y-5764000D03*
%TD*%
D18*
>>>>>>> 2e23f7f8cb64151a60ec3d004f8241720292418e
%TO.C,R128*%
X-13778800Y10464800D03*
X-15278800Y10464800D03*
%TD*%
<<<<<<< HEAD
D28*
=======
D23*
>>>>>>> 2e23f7f8cb64151a60ec3d004f8241720292418e
%TO.C,Q116*%
X14310400Y24661100D03*
X12410400Y24661100D03*
X13360400Y22786100D03*
%TD*%
D51*
%TO.C,Q104*%
X2537700Y25172500D03*
X2537700Y27072500D03*
X662700Y26122500D03*
%TD*%
<<<<<<< HEAD
D29*
=======
D24*
>>>>>>> 2e23f7f8cb64151a60ec3d004f8241720292418e
%TO.C,R117*%
X4645900Y-11890400D03*
X4645900Y-10390400D03*
%TD*%
<<<<<<< HEAD
D23*
=======
D18*
>>>>>>> 2e23f7f8cb64151a60ec3d004f8241720292418e
%TO.C,R104*%
X-10857800Y10464800D03*
X-12357800Y10464800D03*
%TD*%
<<<<<<< HEAD
D29*
=======
D24*
>>>>>>> 2e23f7f8cb64151a60ec3d004f8241720292418e
%TO.C,R106*%
X5207000Y5600000D03*
X5207000Y7100000D03*
%TD*%
D55*
%TO.C,TP104*%
X-965200Y-15900400D03*
%TD*%
<<<<<<< HEAD
D28*
=======
D23*
>>>>>>> 2e23f7f8cb64151a60ec3d004f8241720292418e
%TO.C,Q106*%
X14310400Y20597100D03*
X12410400Y20597100D03*
X13360400Y18722100D03*
%TD*%
D45*
%TO.C,C105*%
X3667000Y3810000D03*
X1667000Y3810000D03*
%TD*%
%LPD*%
M02*
