%TF.GenerationSoftware,KiCad,Pcbnew,9.0.6*%
%TF.CreationDate,2025-11-30T01:16:05+01:00*%
%TF.ProjectId,Robobuoy_BMS_S6_V1_0,526f626f-6275-46f7-995f-424d535f5336,rev?*%
%TF.SameCoordinates,Original*%
%TF.FileFunction,Copper,L2,Inr*%
%TF.FilePolarity,Positive*%
%FSLAX46Y46*%
G04 Gerber Fmt 4.6, Leading zero omitted, Abs format (unit mm)*
G04 Created by KiCad (PCBNEW 9.0.6) date 2025-11-30 01:16:05*
%MOMM*%
%LPD*%
G01*
G04 APERTURE LIST*
G04 Aperture macros list*
%AMRoundRect*
0 Rectangle with rounded corners*
0 $1 Rounding radius*
0 $2 $3 $4 $5 $6 $7 $8 $9 X,Y pos of 4 corners*
0 Add a 4 corners polygon primitive as box body*
4,1,4,$2,$3,$4,$5,$6,$7,$8,$9,$2,$3,0*
0 Add four circle primitives for the rounded corners*
1,1,$1+$1,$2,$3*
1,1,$1+$1,$4,$5*
1,1,$1+$1,$6,$7*
1,1,$1+$1,$8,$9*
0 Add four rect primitives between the rounded corners*
20,1,$1+$1,$2,$3,$4,$5,0*
20,1,$1+$1,$4,$5,$6,$7,0*
20,1,$1+$1,$6,$7,$8,$9,0*
20,1,$1+$1,$8,$9,$2,$3,0*%
G04 Aperture macros list end*
%TA.AperFunction,ComponentPad*%
%ADD10RoundRect,0.250000X0.725000X-0.600000X0.725000X0.600000X-0.725000X0.600000X-0.725000X-0.600000X0*%
%TD*%
%TA.AperFunction,ComponentPad*%
%ADD11O,1.950000X1.700000*%
%TD*%
%TA.AperFunction,ViaPad*%
%ADD12C,0.450000*%
%TD*%
%TA.AperFunction,ViaPad*%
%ADD13C,0.900000*%
%TD*%
%TA.AperFunction,ViaPad*%
%ADD14C,0.600000*%
%TD*%
%TA.AperFunction,ViaPad*%
%ADD15C,0.800000*%
%TD*%
G04 APERTURE END LIST*
D10*
%TO.N,VBATT-*%
%TO.C,J102*%
X156000000Y-127500000D03*
D11*
%TO.N,/B1*%
X156000000Y-125000000D03*
%TO.N,/B2*%
X156000000Y-122500000D03*
%TO.N,/B3*%
X156000000Y-120000000D03*
%TO.N,/B4*%
X156000000Y-117500000D03*
%TO.N,/B5*%
X156000000Y-115000000D03*
%TO.N,VBATT+*%
X156000000Y-112500000D03*
%TD*%
D10*
%TO.N,VBATT-*%
%TO.C,J101*%
X148000000Y-127500000D03*
D11*
%TO.N,/B1*%
X148000000Y-125000000D03*
%TO.N,/B2*%
X148000000Y-122500000D03*
%TO.N,/B3*%
X148000000Y-120000000D03*
%TO.N,/B4*%
X148000000Y-117500000D03*
%TO.N,/B5*%
X148000000Y-115000000D03*
%TO.N,VBATT+*%
X148000000Y-112500000D03*
%TD*%
D12*
%TO.N,VBATT-*%
X54356000Y-99060000D03*
X54356000Y-100076000D03*
X163576000Y-121920000D03*
X62992000Y-103632000D03*
X55372000Y-133096000D03*
X161544000Y-135636000D03*
X64008000Y-100584000D03*
X66548000Y-100584000D03*
X168656000Y-135636000D03*
X53340000Y-99060000D03*
X55880000Y-97536000D03*
X161544000Y-134620000D03*
X52324000Y-133096000D03*
X54356000Y-133096000D03*
X168656000Y-121920000D03*
X66548000Y-101600000D03*
X58928000Y-97536000D03*
X52324000Y-102108000D03*
X60960000Y-97536000D03*
X73406000Y-103632000D03*
X64008000Y-103632000D03*
X57912000Y-97536000D03*
X66548000Y-98552000D03*
X164592000Y-135636000D03*
X167640000Y-135636000D03*
X168656000Y-130556000D03*
X168656000Y-128016000D03*
X54356000Y-134112000D03*
X55880000Y-102616000D03*
X166624000Y-129540000D03*
X166624000Y-128016000D03*
X55372000Y-136144000D03*
X64008000Y-99568000D03*
X53340000Y-133096000D03*
X59944000Y-97536000D03*
X55372000Y-134112000D03*
X163576000Y-128016000D03*
X55372000Y-102108000D03*
X162560000Y-135636000D03*
X168656000Y-133604000D03*
X66548000Y-97536000D03*
X52324000Y-101092000D03*
X163576000Y-135636000D03*
X164592000Y-128016000D03*
X62992000Y-97536000D03*
X163576000Y-129540000D03*
X52324000Y-132080000D03*
X64008000Y-102616000D03*
X55372000Y-99060000D03*
X55372000Y-98044000D03*
X168656000Y-129540000D03*
X66548000Y-96520000D03*
X168656000Y-123952000D03*
X54356000Y-102108000D03*
X162560000Y-129540000D03*
X57912000Y-103632000D03*
X53340000Y-132080000D03*
X66548000Y-99568000D03*
X64008000Y-98552000D03*
X164592000Y-121920000D03*
X168656000Y-124968000D03*
X165608000Y-135636000D03*
X55372000Y-101092000D03*
X54356000Y-136144000D03*
X161544000Y-131572000D03*
X161544000Y-123952000D03*
X168656000Y-122936000D03*
X54356000Y-98044000D03*
X168656000Y-131572000D03*
D13*
X80238600Y-121361200D03*
D12*
X55880000Y-103632000D03*
X66548000Y-103632000D03*
X161544000Y-125984000D03*
X168656000Y-127000000D03*
X53340000Y-135128000D03*
X58928000Y-103632000D03*
X52324000Y-136144000D03*
X55372000Y-100076000D03*
X165608000Y-121920000D03*
X54356000Y-132080000D03*
X56896000Y-97536000D03*
X67132200Y-121361200D03*
X167640000Y-129540000D03*
X161544000Y-124968000D03*
X66548000Y-102616000D03*
X164592000Y-129540000D03*
X53340000Y-101092000D03*
X161544000Y-121920000D03*
X166624000Y-135636000D03*
X161544000Y-122936000D03*
X52324000Y-135128000D03*
X166624000Y-121920000D03*
X54356000Y-135128000D03*
X53340000Y-134112000D03*
X165608000Y-128016000D03*
D13*
X59944000Y-99822000D03*
D12*
X168656000Y-125984000D03*
X56896000Y-103632000D03*
X55372000Y-135128000D03*
X61976000Y-97536000D03*
X52324000Y-98044000D03*
X161544000Y-128016000D03*
X161544000Y-132588000D03*
X52324000Y-134112000D03*
X162560000Y-121920000D03*
X167640000Y-128016000D03*
X54356000Y-101092000D03*
X53340000Y-102108000D03*
X161544000Y-129540000D03*
X53340000Y-136144000D03*
X53340000Y-100076000D03*
X53340000Y-98044000D03*
X167640000Y-121920000D03*
X168656000Y-134620000D03*
X162560000Y-128016000D03*
X52324000Y-99060000D03*
X52324000Y-100076000D03*
X161544000Y-127000000D03*
X64008000Y-101600000D03*
X55372000Y-132080000D03*
X165608000Y-129540000D03*
X161544000Y-133604000D03*
X60960000Y-103632000D03*
X61976000Y-103632000D03*
X161544000Y-130556000D03*
X59944000Y-103632000D03*
X64008000Y-97536000D03*
X168656000Y-132588000D03*
%TO.N,VBATT+*%
X161544000Y-115824000D03*
X161544000Y-111760000D03*
X163576000Y-117856000D03*
X161544000Y-114808000D03*
X161544000Y-112776000D03*
X166624000Y-104648000D03*
X168656000Y-117856000D03*
X161544000Y-108712000D03*
X57912000Y-128016000D03*
X57912000Y-124968000D03*
X167640000Y-117856000D03*
X161544000Y-106680000D03*
X59944000Y-123952000D03*
X57912000Y-121920000D03*
X161544000Y-113792000D03*
X56896000Y-125984000D03*
X168656000Y-105664000D03*
X166624000Y-111760000D03*
X165000000Y-107500000D03*
X166624000Y-117856000D03*
X60960000Y-124968000D03*
X161544000Y-116840000D03*
X56896000Y-121920000D03*
X59944000Y-122936000D03*
X57912000Y-123952000D03*
X168656000Y-106680000D03*
X164592000Y-104648000D03*
X56896000Y-124968000D03*
X56896000Y-123952000D03*
X58928000Y-125984000D03*
X161544000Y-110744000D03*
X60960000Y-127000000D03*
X59944000Y-124968000D03*
X58928000Y-122936000D03*
X161544000Y-109728000D03*
X163576000Y-110744000D03*
X166624000Y-110744000D03*
X165000000Y-107500000D03*
X162560000Y-111760000D03*
X164592000Y-111760000D03*
X162560000Y-104648000D03*
X162560000Y-117856000D03*
X165000000Y-107500000D03*
X165608000Y-111760000D03*
X161544000Y-117856000D03*
X168656000Y-107696000D03*
X165608000Y-117856000D03*
X59944000Y-127000000D03*
X165608000Y-110744000D03*
X168656000Y-116840000D03*
X165000000Y-107500000D03*
X57912000Y-127000000D03*
X56896000Y-127000000D03*
X163576000Y-111760000D03*
X161544000Y-107696000D03*
D13*
X160020000Y-100076000D03*
D12*
X165000000Y-107500000D03*
X57912000Y-122936000D03*
X161544000Y-105664000D03*
X60960000Y-125984000D03*
X168656000Y-111760000D03*
D13*
X136486064Y-126556336D03*
D12*
X58928000Y-124968000D03*
X164592000Y-110744000D03*
X57912000Y-125984000D03*
X162560000Y-110744000D03*
X58928000Y-127000000D03*
X163576000Y-104648000D03*
X168656000Y-114808000D03*
X60960000Y-122936000D03*
X56896000Y-122936000D03*
X167640000Y-111760000D03*
X164592000Y-117856000D03*
X168656000Y-113792000D03*
X56896000Y-128016000D03*
X167640000Y-104648000D03*
X168656000Y-104648000D03*
X168656000Y-109728000D03*
X165608000Y-104648000D03*
X58928000Y-123952000D03*
X168656000Y-108712000D03*
X168656000Y-112776000D03*
X168656000Y-110744000D03*
X168656000Y-115824000D03*
X59944000Y-125984000D03*
X60960000Y-123952000D03*
X161544000Y-104648000D03*
%TO.N,/Curren-Overcharge-Protection/OC*%
X83616800Y-107086400D03*
X89763600Y-117856000D03*
%TO.N,Net-(Q209-G)*%
X83261200Y-118567200D03*
X70910800Y-118612000D03*
D13*
%TO.N,/B5*%
X140000000Y-140000000D03*
D14*
X128230203Y-122083939D03*
X128981400Y-116636600D03*
D13*
X140004800Y-131445000D03*
D12*
X134169557Y-127426917D03*
X128524000Y-126746000D03*
%TO.N,/B4*%
X115773200Y-126720600D03*
D14*
X137007600Y-124764800D03*
D13*
X120000000Y-99999998D03*
D14*
X120040400Y-108712000D03*
D15*
X121158000Y-117094000D03*
X121158000Y-120700800D03*
D12*
X121234200Y-127381000D03*
D13*
%TO.N,/B3*%
X100076000Y-139954000D03*
X110312200Y-131318000D03*
D14*
X109372400Y-117094000D03*
D12*
X108238000Y-127355600D03*
X102610000Y-126736000D03*
D14*
X108966000Y-120497600D03*
X123672600Y-124714000D03*
%TO.N,/B2*%
X105613200Y-116941600D03*
D12*
X89255600Y-126796800D03*
D14*
X105460800Y-100025200D03*
X111188500Y-124828300D03*
D12*
X95030000Y-127330200D03*
D14*
X106349800Y-121234200D03*
X105460800Y-108204000D03*
D13*
%TO.N,/B1*%
X84480400Y-131470400D03*
D14*
X98552000Y-118160800D03*
D13*
X60198000Y-139954000D03*
D12*
X97078800Y-124764800D03*
%TO.N,Net-(D108-K)*%
X73406000Y-105029000D03*
X70104000Y-110998000D03*
X70104000Y-105029000D03*
%TO.N,/Curren-Overcharge-Protection/Vtrip*%
X72440800Y-112318800D03*
X88290400Y-112318800D03*
%TO.N,Net-(Q205-G)*%
X56362600Y-110439200D03*
X61214000Y-111404400D03*
%TD*%
%TA.AperFunction,Conductor*%
%TO.N,VBATT-*%
G36*
X169967826Y-96032174D02*
G01*
X169989500Y-96084500D01*
X169989500Y-143915500D01*
X169967826Y-143967826D01*
X169915500Y-143989500D01*
X50084500Y-143989500D01*
X50032174Y-143967826D01*
X50010500Y-143915500D01*
X50010500Y-139889932D01*
X59547500Y-139889932D01*
X59547500Y-140018067D01*
X59572497Y-140143739D01*
X59572498Y-140143742D01*
X59572499Y-140143744D01*
X59621535Y-140262127D01*
X59692724Y-140368669D01*
X59783331Y-140459276D01*
X59889873Y-140530465D01*
X60008256Y-140579501D01*
X60008258Y-140579501D01*
X60008260Y-140579502D01*
X60050903Y-140587984D01*
X60133931Y-140604500D01*
X60133933Y-140604500D01*
X60262067Y-140604500D01*
X60262069Y-140604500D01*
X60387744Y-140579501D01*
X60506127Y-140530465D01*
X60612669Y-140459276D01*
X60703276Y-140368669D01*
X60774465Y-140262127D01*
X60823501Y-140143744D01*
X60848500Y-140018069D01*
X60848500Y-139889932D01*
X99425500Y-139889932D01*
X99425500Y-140018067D01*
X99450497Y-140143739D01*
X99450498Y-140143742D01*
X99450499Y-140143744D01*
X99499535Y-140262127D01*
X99570724Y-140368669D01*
X99661331Y-140459276D01*
X99767873Y-140530465D01*
X99886256Y-140579501D01*
X99886258Y-140579501D01*
X99886260Y-140579502D01*
X99928903Y-140587984D01*
X100011931Y-140604500D01*
X100011933Y-140604500D01*
X100140067Y-140604500D01*
X100140069Y-140604500D01*
X100265744Y-140579501D01*
X100384127Y-140530465D01*
X100490669Y-140459276D01*
X100581276Y-140368669D01*
X100652465Y-140262127D01*
X100701501Y-140143744D01*
X100726500Y-140018069D01*
X100726500Y-139935932D01*
X139349500Y-139935932D01*
X139349500Y-140064067D01*
X139374497Y-140189739D01*
X139374498Y-140189742D01*
X139374499Y-140189744D01*
X139423535Y-140308127D01*
X139494724Y-140414669D01*
X139585331Y-140505276D01*
X139691873Y-140576465D01*
X139810256Y-140625501D01*
X139810258Y-140625501D01*
X139810260Y-140625502D01*
X139852903Y-140633984D01*
X139935931Y-140650500D01*
X139935933Y-140650500D01*
X140064067Y-140650500D01*
X140064069Y-140650500D01*
X140189744Y-140625501D01*
X140308127Y-140576465D01*
X140414669Y-140505276D01*
X140505276Y-140414669D01*
X140576465Y-140308127D01*
X140625501Y-140189744D01*
X140650500Y-140064069D01*
X140650500Y-139935931D01*
X140625501Y-139810256D01*
X140576465Y-139691873D01*
X140505276Y-139585331D01*
X140414669Y-139494724D01*
X140308127Y-139423535D01*
X140308124Y-139423533D01*
X140308123Y-139423533D01*
X140189742Y-139374498D01*
X140189739Y-139374497D01*
X140099696Y-139356586D01*
X140064069Y-139349500D01*
X139935931Y-139349500D01*
X139904726Y-139355707D01*
X139810260Y-139374497D01*
X139810257Y-139374498D01*
X139691876Y-139423533D01*
X139585331Y-139494723D01*
X139585330Y-139494725D01*
X139494725Y-139585330D01*
X139494723Y-139585331D01*
X139423533Y-139691876D01*
X139374498Y-139810257D01*
X139374497Y-139810260D01*
X139349500Y-139935932D01*
X100726500Y-139935932D01*
X100726500Y-139889931D01*
X100701501Y-139764256D01*
X100652465Y-139645873D01*
X100581276Y-139539331D01*
X100490669Y-139448724D01*
X100384127Y-139377535D01*
X100384124Y-139377533D01*
X100384123Y-139377533D01*
X100265742Y-139328498D01*
X100265739Y-139328497D01*
X100175696Y-139310586D01*
X100140069Y-139303500D01*
X100011931Y-139303500D01*
X99980726Y-139309707D01*
X99886260Y-139328497D01*
X99886257Y-139328498D01*
X99767876Y-139377533D01*
X99661331Y-139448723D01*
X99661330Y-139448725D01*
X99570725Y-139539330D01*
X99570723Y-139539331D01*
X99499533Y-139645876D01*
X99450498Y-139764257D01*
X99450497Y-139764260D01*
X99425500Y-139889932D01*
X60848500Y-139889932D01*
X60848500Y-139889931D01*
X60823501Y-139764256D01*
X60774465Y-139645873D01*
X60703276Y-139539331D01*
X60612669Y-139448724D01*
X60506127Y-139377535D01*
X60506124Y-139377533D01*
X60506123Y-139377533D01*
X60387742Y-139328498D01*
X60387739Y-139328497D01*
X60297696Y-139310586D01*
X60262069Y-139303500D01*
X60133931Y-139303500D01*
X60102726Y-139309707D01*
X60008260Y-139328497D01*
X60008257Y-139328498D01*
X59889876Y-139377533D01*
X59783331Y-139448723D01*
X59783330Y-139448725D01*
X59692725Y-139539330D01*
X59692723Y-139539331D01*
X59621533Y-139645876D01*
X59572498Y-139764257D01*
X59572497Y-139764260D01*
X59547500Y-139889932D01*
X50010500Y-139889932D01*
X50010500Y-131406332D01*
X83829900Y-131406332D01*
X83829900Y-131534467D01*
X83854897Y-131660139D01*
X83854898Y-131660142D01*
X83884939Y-131732668D01*
X83903935Y-131778527D01*
X83975124Y-131885069D01*
X84065731Y-131975676D01*
X84172273Y-132046865D01*
X84290656Y-132095901D01*
X84290658Y-132095901D01*
X84290660Y-132095902D01*
X84333303Y-132104384D01*
X84416331Y-132120900D01*
X84416333Y-132120900D01*
X84544467Y-132120900D01*
X84544469Y-132120900D01*
X84670144Y-132095901D01*
X84788527Y-132046865D01*
X84895069Y-131975676D01*
X84985676Y-131885069D01*
X85056865Y-131778527D01*
X85105901Y-131660144D01*
X85130900Y-131534469D01*
X85130900Y-131406331D01*
X85105901Y-131280656D01*
X85094832Y-131253932D01*
X109661700Y-131253932D01*
X109661700Y-131382067D01*
X109686697Y-131507739D01*
X109686698Y-131507742D01*
X109686699Y-131507744D01*
X109735735Y-131626127D01*
X109806924Y-131732669D01*
X109897531Y-131823276D01*
X110004073Y-131894465D01*
X110122456Y-131943501D01*
X110122458Y-131943501D01*
X110122460Y-131943502D01*
X110156510Y-131950275D01*
X110248131Y-131968500D01*
X110248133Y-131968500D01*
X110376267Y-131968500D01*
X110376269Y-131968500D01*
X110501944Y-131943501D01*
X110620327Y-131894465D01*
X110726869Y-131823276D01*
X110817476Y-131732669D01*
X110888665Y-131626127D01*
X110937701Y-131507744D01*
X110962700Y-131382069D01*
X110962700Y-131380932D01*
X139354300Y-131380932D01*
X139354300Y-131509067D01*
X139379297Y-131634739D01*
X139379298Y-131634742D01*
X139419860Y-131732668D01*
X139428335Y-131753127D01*
X139499524Y-131859669D01*
X139590131Y-131950276D01*
X139696673Y-132021465D01*
X139815056Y-132070501D01*
X139815058Y-132070501D01*
X139815060Y-132070502D01*
X139857703Y-132078984D01*
X139940731Y-132095500D01*
X139940733Y-132095500D01*
X140068867Y-132095500D01*
X140068869Y-132095500D01*
X140194544Y-132070501D01*
X140312927Y-132021465D01*
X140419469Y-131950276D01*
X140510076Y-131859669D01*
X140581265Y-131753127D01*
X140630301Y-131634744D01*
X140655300Y-131509069D01*
X140655300Y-131380931D01*
X140630301Y-131255256D01*
X140581265Y-131136873D01*
X140510076Y-131030331D01*
X140419469Y-130939724D01*
X140312927Y-130868535D01*
X140312924Y-130868533D01*
X140312923Y-130868533D01*
X140194542Y-130819498D01*
X140194539Y-130819497D01*
X140104496Y-130801586D01*
X140068869Y-130794500D01*
X139940731Y-130794500D01*
X139909526Y-130800707D01*
X139815060Y-130819497D01*
X139815057Y-130819498D01*
X139696676Y-130868533D01*
X139590131Y-130939723D01*
X139590130Y-130939725D01*
X139499525Y-131030330D01*
X139499523Y-131030331D01*
X139428333Y-131136876D01*
X139379298Y-131255257D01*
X139379297Y-131255260D01*
X139354300Y-131380932D01*
X110962700Y-131380932D01*
X110962700Y-131253931D01*
X110937701Y-131128256D01*
X110888665Y-131009873D01*
X110817476Y-130903331D01*
X110726869Y-130812724D01*
X110620327Y-130741535D01*
X110620324Y-130741533D01*
X110620323Y-130741533D01*
X110501942Y-130692498D01*
X110501939Y-130692497D01*
X110411896Y-130674586D01*
X110376269Y-130667500D01*
X110248131Y-130667500D01*
X110216926Y-130673707D01*
X110122460Y-130692497D01*
X110122457Y-130692498D01*
X110004076Y-130741533D01*
X109897531Y-130812723D01*
X109897530Y-130812725D01*
X109806925Y-130903330D01*
X109806923Y-130903331D01*
X109735733Y-131009876D01*
X109686698Y-131128257D01*
X109686697Y-131128260D01*
X109661700Y-131253932D01*
X85094832Y-131253932D01*
X85056865Y-131162273D01*
X84985676Y-131055731D01*
X84895069Y-130965124D01*
X84788527Y-130893935D01*
X84788524Y-130893933D01*
X84788523Y-130893933D01*
X84670142Y-130844898D01*
X84670139Y-130844897D01*
X84580096Y-130826986D01*
X84544469Y-130819900D01*
X84416331Y-130819900D01*
X84385126Y-130826107D01*
X84290660Y-130844897D01*
X84290657Y-130844898D01*
X84172276Y-130893933D01*
X84065731Y-130965123D01*
X84065730Y-130965125D01*
X83975125Y-131055730D01*
X83975123Y-131055731D01*
X83903933Y-131162276D01*
X83854898Y-131280657D01*
X83854897Y-131280660D01*
X83829900Y-131406332D01*
X50010500Y-131406332D01*
X50010500Y-127959979D01*
X56470500Y-127959979D01*
X56470500Y-128072020D01*
X56499495Y-128180232D01*
X56499496Y-128180235D01*
X56499497Y-128180237D01*
X56555515Y-128277263D01*
X56634737Y-128356485D01*
X56731763Y-128412503D01*
X56839979Y-128441499D01*
X56839980Y-128441500D01*
X56839982Y-128441500D01*
X56952020Y-128441500D01*
X56952020Y-128441499D01*
X57060237Y-128412503D01*
X57157263Y-128356485D01*
X57236485Y-128277263D01*
X57292503Y-128180237D01*
X57321499Y-128072020D01*
X57321500Y-128072020D01*
X57321500Y-127959980D01*
X57321499Y-127959979D01*
X57486500Y-127959979D01*
X57486500Y-128072020D01*
X57515495Y-128180232D01*
X57515496Y-128180235D01*
X57515497Y-128180237D01*
X57571515Y-128277263D01*
X57650737Y-128356485D01*
X57747763Y-128412503D01*
X57855979Y-128441499D01*
X57855980Y-128441500D01*
X57855982Y-128441500D01*
X57968020Y-128441500D01*
X57968020Y-128441499D01*
X58076237Y-128412503D01*
X58173263Y-128356485D01*
X58252485Y-128277263D01*
X58308503Y-128180237D01*
X58337499Y-128072020D01*
X58337500Y-128072020D01*
X58337500Y-127959980D01*
X58337499Y-127959979D01*
X58308504Y-127851767D01*
X58308503Y-127851763D01*
X58252485Y-127754737D01*
X58173263Y-127675515D01*
X58164897Y-127670685D01*
X58076241Y-127619499D01*
X58076232Y-127619495D01*
X57968020Y-127590500D01*
X57968018Y-127590500D01*
X57855982Y-127590500D01*
X57855980Y-127590500D01*
X57747767Y-127619495D01*
X57747758Y-127619499D01*
X57650736Y-127675515D01*
X57571515Y-127754736D01*
X57515499Y-127851758D01*
X57515495Y-127851767D01*
X57486500Y-127959979D01*
X57321499Y-127959979D01*
X57292504Y-127851767D01*
X57292503Y-127851763D01*
X57236485Y-127754737D01*
X57157263Y-127675515D01*
X57148897Y-127670685D01*
X57060241Y-127619499D01*
X57060232Y-127619495D01*
X56952020Y-127590500D01*
X56952018Y-127590500D01*
X56839982Y-127590500D01*
X56839980Y-127590500D01*
X56731767Y-127619495D01*
X56731758Y-127619499D01*
X56634736Y-127675515D01*
X56555515Y-127754736D01*
X56499499Y-127851758D01*
X56499495Y-127851767D01*
X56470500Y-127959979D01*
X50010500Y-127959979D01*
X50010500Y-126943979D01*
X56470500Y-126943979D01*
X56470500Y-127056020D01*
X56499495Y-127164232D01*
X56499499Y-127164241D01*
X56529820Y-127216758D01*
X56555515Y-127261263D01*
X56634737Y-127340485D01*
X56731763Y-127396503D01*
X56839979Y-127425499D01*
X56839980Y-127425500D01*
X56839982Y-127425500D01*
X56952020Y-127425500D01*
X56952020Y-127425499D01*
X57060237Y-127396503D01*
X57157263Y-127340485D01*
X57236485Y-127261263D01*
X57292503Y-127164237D01*
X57321499Y-127056020D01*
X57321500Y-127056020D01*
X57321500Y-126943980D01*
X57321499Y-126943979D01*
X57486500Y-126943979D01*
X57486500Y-127056020D01*
X57515495Y-127164232D01*
X57515499Y-127164241D01*
X57545820Y-127216758D01*
X57571515Y-127261263D01*
X57650737Y-127340485D01*
X57747763Y-127396503D01*
X57855979Y-127425499D01*
X57855980Y-127425500D01*
X57855982Y-127425500D01*
X57968020Y-127425500D01*
X57968020Y-127425499D01*
X58076237Y-127396503D01*
X58173263Y-127340485D01*
X58252485Y-127261263D01*
X58308503Y-127164237D01*
X58337499Y-127056020D01*
X58337500Y-127056020D01*
X58337500Y-126943980D01*
X58337499Y-126943979D01*
X58502500Y-126943979D01*
X58502500Y-127056020D01*
X58531495Y-127164232D01*
X58531499Y-127164241D01*
X58561820Y-127216758D01*
X58587515Y-127261263D01*
X58666737Y-127340485D01*
X58763763Y-127396503D01*
X58871979Y-127425499D01*
X58871980Y-127425500D01*
X58871982Y-127425500D01*
X58984020Y-127425500D01*
X58984020Y-127425499D01*
X59092237Y-127396503D01*
X59189263Y-127340485D01*
X59268485Y-127261263D01*
X59324503Y-127164237D01*
X59353499Y-127056020D01*
X59353500Y-127056020D01*
X59353500Y-126943980D01*
X59353499Y-126943979D01*
X59518500Y-126943979D01*
X59518500Y-127056020D01*
X59547495Y-127164232D01*
X59547499Y-127164241D01*
X59577820Y-127216758D01*
X59603515Y-127261263D01*
X59682737Y-127340485D01*
X59779763Y-127396503D01*
X59887979Y-127425499D01*
X59887980Y-127425500D01*
X59887982Y-127425500D01*
X60000020Y-127425500D01*
X60000020Y-127425499D01*
X60108237Y-127396503D01*
X60205263Y-127340485D01*
X60284485Y-127261263D01*
X60340503Y-127164237D01*
X60369499Y-127056020D01*
X60369500Y-127056020D01*
X60369500Y-126943980D01*
X60369499Y-126943979D01*
X60534500Y-126943979D01*
X60534500Y-127056020D01*
X60563495Y-127164232D01*
X60563499Y-127164241D01*
X60593820Y-127216758D01*
X60619515Y-127261263D01*
X60698737Y-127340485D01*
X60795763Y-127396503D01*
X60903979Y-127425499D01*
X60903980Y-127425500D01*
X60903982Y-127425500D01*
X61016020Y-127425500D01*
X61016020Y-127425499D01*
X61124237Y-127396503D01*
X61221263Y-127340485D01*
X61287569Y-127274179D01*
X94604500Y-127274179D01*
X94604500Y-127386220D01*
X94633495Y-127494432D01*
X94633499Y-127494441D01*
X94662826Y-127545237D01*
X94689515Y-127591463D01*
X94768737Y-127670685D01*
X94865763Y-127726703D01*
X94973979Y-127755699D01*
X94973980Y-127755700D01*
X94973982Y-127755700D01*
X95086020Y-127755700D01*
X95086020Y-127755699D01*
X95194237Y-127726703D01*
X95291263Y-127670685D01*
X95370485Y-127591463D01*
X95426503Y-127494437D01*
X95455499Y-127386220D01*
X95455500Y-127386220D01*
X95455500Y-127299579D01*
X107812500Y-127299579D01*
X107812500Y-127411620D01*
X107841495Y-127519832D01*
X107841499Y-127519841D01*
X107856164Y-127545241D01*
X107897515Y-127616863D01*
X107976737Y-127696085D01*
X108073763Y-127752103D01*
X108181979Y-127781099D01*
X108181980Y-127781100D01*
X108181982Y-127781100D01*
X108294020Y-127781100D01*
X108294020Y-127781099D01*
X108402237Y-127752103D01*
X108499263Y-127696085D01*
X108578485Y-127616863D01*
X108634503Y-127519837D01*
X108663499Y-127411620D01*
X108663500Y-127411620D01*
X108663500Y-127324979D01*
X120808700Y-127324979D01*
X120808700Y-127437020D01*
X120837695Y-127545232D01*
X120837699Y-127545241D01*
X120879050Y-127616863D01*
X120893715Y-127642263D01*
X120972937Y-127721485D01*
X121069963Y-127777503D01*
X121178179Y-127806499D01*
X121178180Y-127806500D01*
X121178182Y-127806500D01*
X121290220Y-127806500D01*
X121290220Y-127806499D01*
X121398437Y-127777503D01*
X121495463Y-127721485D01*
X121574685Y-127642263D01*
X121630703Y-127545237D01*
X121659699Y-127437020D01*
X121659700Y-127437020D01*
X121659700Y-127370896D01*
X133744057Y-127370896D01*
X133744057Y-127482937D01*
X133773052Y-127591149D01*
X133773056Y-127591158D01*
X133789418Y-127619497D01*
X133829072Y-127688180D01*
X133908294Y-127767402D01*
X134005320Y-127823420D01*
X134113536Y-127852416D01*
X134113537Y-127852417D01*
X134113539Y-127852417D01*
X134225577Y-127852417D01*
X134225577Y-127852416D01*
X134333794Y-127823420D01*
X134430820Y-127767402D01*
X134510042Y-127688180D01*
X134566060Y-127591154D01*
X134595056Y-127482937D01*
X134595057Y-127482937D01*
X134595057Y-127370897D01*
X134595056Y-127370896D01*
X134586907Y-127340485D01*
X134566060Y-127262680D01*
X134510042Y-127165654D01*
X134430820Y-127086432D01*
X134386916Y-127061084D01*
X134333798Y-127030416D01*
X134333789Y-127030412D01*
X134225577Y-127001417D01*
X134225575Y-127001417D01*
X134113539Y-127001417D01*
X134113537Y-127001417D01*
X134005324Y-127030412D01*
X134005315Y-127030416D01*
X133908293Y-127086432D01*
X133829072Y-127165653D01*
X133773056Y-127262675D01*
X133773052Y-127262684D01*
X133744057Y-127370896D01*
X121659700Y-127370896D01*
X121659700Y-127324980D01*
X121659699Y-127324979D01*
X121652893Y-127299580D01*
X121630703Y-127216763D01*
X121574685Y-127119737D01*
X121495463Y-127040515D01*
X121437869Y-127007263D01*
X121398441Y-126984499D01*
X121398432Y-126984495D01*
X121290220Y-126955500D01*
X121290218Y-126955500D01*
X121178182Y-126955500D01*
X121178180Y-126955500D01*
X121069967Y-126984495D01*
X121069958Y-126984499D01*
X120972936Y-127040515D01*
X120893715Y-127119736D01*
X120837699Y-127216758D01*
X120837695Y-127216767D01*
X120808700Y-127324979D01*
X108663500Y-127324979D01*
X108663500Y-127299580D01*
X108663499Y-127299579D01*
X108656693Y-127274180D01*
X108634503Y-127191363D01*
X108578485Y-127094337D01*
X108499263Y-127015115D01*
X108485663Y-127007263D01*
X108402241Y-126959099D01*
X108402232Y-126959095D01*
X108294020Y-126930100D01*
X108294018Y-126930100D01*
X108181982Y-126930100D01*
X108181980Y-126930100D01*
X108073767Y-126959095D01*
X108073758Y-126959099D01*
X107976736Y-127015115D01*
X107897515Y-127094336D01*
X107841499Y-127191358D01*
X107841495Y-127191367D01*
X107812500Y-127299579D01*
X95455500Y-127299579D01*
X95455500Y-127274180D01*
X95455499Y-127274179D01*
X95433307Y-127191358D01*
X95426503Y-127165963D01*
X95370485Y-127068937D01*
X95291263Y-126989715D01*
X95258858Y-126971006D01*
X95194241Y-126933699D01*
X95194232Y-126933695D01*
X95086020Y-126904700D01*
X95086018Y-126904700D01*
X94973982Y-126904700D01*
X94973980Y-126904700D01*
X94865767Y-126933695D01*
X94865758Y-126933699D01*
X94768736Y-126989715D01*
X94689515Y-127068936D01*
X94633499Y-127165958D01*
X94633495Y-127165967D01*
X94604500Y-127274179D01*
X61287569Y-127274179D01*
X61300485Y-127261263D01*
X61356503Y-127164237D01*
X61385499Y-127056020D01*
X61385500Y-127056020D01*
X61385500Y-126943980D01*
X61385499Y-126943979D01*
X61382743Y-126933695D01*
X61356503Y-126835763D01*
X61301664Y-126740779D01*
X88830100Y-126740779D01*
X88830100Y-126852820D01*
X88859095Y-126961032D01*
X88859099Y-126961041D01*
X88890319Y-127015115D01*
X88915115Y-127058063D01*
X88994337Y-127137285D01*
X89091363Y-127193303D01*
X89199579Y-127222299D01*
X89199580Y-127222300D01*
X89199582Y-127222300D01*
X89311620Y-127222300D01*
X89311620Y-127222299D01*
X89377224Y-127204721D01*
X89402853Y-127197854D01*
X89408761Y-127196270D01*
X89419837Y-127193303D01*
X89516863Y-127137285D01*
X89596085Y-127058063D01*
X89652103Y-126961037D01*
X89681099Y-126852820D01*
X89681100Y-126852820D01*
X89681100Y-126740782D01*
X89668641Y-126694284D01*
X89668641Y-126694282D01*
X89664808Y-126679979D01*
X102184500Y-126679979D01*
X102184500Y-126792020D01*
X102213495Y-126900232D01*
X102213499Y-126900241D01*
X102260624Y-126981863D01*
X102269515Y-126997263D01*
X102348737Y-127076485D01*
X102445763Y-127132503D01*
X102553979Y-127161499D01*
X102553980Y-127161500D01*
X102553982Y-127161500D01*
X102666020Y-127161500D01*
X102666020Y-127161499D01*
X102774237Y-127132503D01*
X102871263Y-127076485D01*
X102950485Y-126997263D01*
X103006503Y-126900237D01*
X103035499Y-126792020D01*
X103035500Y-126792020D01*
X103035500Y-126679980D01*
X103035499Y-126679976D01*
X103035206Y-126678881D01*
X103031374Y-126664579D01*
X115347700Y-126664579D01*
X115347700Y-126776620D01*
X115376695Y-126884832D01*
X115376699Y-126884841D01*
X115404905Y-126933695D01*
X115432715Y-126981863D01*
X115511937Y-127061085D01*
X115608963Y-127117103D01*
X115717179Y-127146099D01*
X115717180Y-127146100D01*
X115717182Y-127146100D01*
X115829220Y-127146100D01*
X115829220Y-127146099D01*
X115937437Y-127117103D01*
X116034463Y-127061085D01*
X116113685Y-126981863D01*
X116169703Y-126884837D01*
X116198699Y-126776620D01*
X116198700Y-126776620D01*
X116198700Y-126689979D01*
X128098500Y-126689979D01*
X128098500Y-126802020D01*
X128127495Y-126910232D01*
X128127499Y-126910241D01*
X128156826Y-126961037D01*
X128183515Y-127007263D01*
X128262737Y-127086485D01*
X128359763Y-127142503D01*
X128467979Y-127171499D01*
X128467980Y-127171500D01*
X128467982Y-127171500D01*
X128580020Y-127171500D01*
X128580020Y-127171499D01*
X128688237Y-127142503D01*
X128785263Y-127086485D01*
X128864485Y-127007263D01*
X128920503Y-126910237D01*
X128949499Y-126802020D01*
X128949500Y-126802020D01*
X128949500Y-126689980D01*
X128949499Y-126689979D01*
X128946820Y-126679982D01*
X128920503Y-126581763D01*
X128905835Y-126556358D01*
X128888096Y-126525632D01*
X128868832Y-126492267D01*
X135835564Y-126492267D01*
X135835564Y-126620405D01*
X135842650Y-126656032D01*
X135860561Y-126746075D01*
X135860562Y-126746078D01*
X135897712Y-126835767D01*
X135909599Y-126864463D01*
X135940181Y-126910232D01*
X135974127Y-126961037D01*
X135980788Y-126971005D01*
X136071395Y-127061612D01*
X136177937Y-127132801D01*
X136296320Y-127181837D01*
X136296322Y-127181837D01*
X136296324Y-127181838D01*
X136338967Y-127190320D01*
X136421995Y-127206836D01*
X136421997Y-127206836D01*
X136550131Y-127206836D01*
X136550133Y-127206836D01*
X136675808Y-127181837D01*
X136794191Y-127132801D01*
X136900733Y-127061612D01*
X136991340Y-126971005D01*
X137062529Y-126864463D01*
X137111565Y-126746080D01*
X137136564Y-126620405D01*
X137136564Y-126492267D01*
X137120100Y-126409499D01*
X137111566Y-126366596D01*
X137111565Y-126366593D01*
X137104484Y-126349499D01*
X137062529Y-126248209D01*
X136991340Y-126141667D01*
X136900733Y-126051060D01*
X136884210Y-126040020D01*
X136839478Y-126010131D01*
X136794191Y-125979871D01*
X136794188Y-125979869D01*
X136794187Y-125979869D01*
X136675806Y-125930834D01*
X136675803Y-125930833D01*
X136585760Y-125912922D01*
X136550133Y-125905836D01*
X136421995Y-125905836D01*
X136390790Y-125912043D01*
X136296324Y-125930833D01*
X136296321Y-125930834D01*
X136177940Y-125979869D01*
X136071395Y-126051059D01*
X136071394Y-126051061D01*
X135980789Y-126141666D01*
X135980787Y-126141667D01*
X135909597Y-126248212D01*
X135860562Y-126366593D01*
X135860561Y-126366596D01*
X135842114Y-126459337D01*
X135835564Y-126492267D01*
X128868832Y-126492267D01*
X128864484Y-126484736D01*
X128785263Y-126405515D01*
X128688241Y-126349499D01*
X128688232Y-126349495D01*
X128580020Y-126320500D01*
X128580018Y-126320500D01*
X128467982Y-126320500D01*
X128467980Y-126320500D01*
X128359767Y-126349495D01*
X128359758Y-126349499D01*
X128262736Y-126405515D01*
X128183515Y-126484736D01*
X128127499Y-126581758D01*
X128127495Y-126581767D01*
X128098500Y-126689979D01*
X116198700Y-126689979D01*
X116198700Y-126664580D01*
X116198699Y-126664579D01*
X116190120Y-126632563D01*
X116169703Y-126556363D01*
X116113685Y-126459337D01*
X116034463Y-126380115D01*
X116019195Y-126371300D01*
X115937441Y-126324099D01*
X115937432Y-126324095D01*
X115829220Y-126295100D01*
X115829218Y-126295100D01*
X115717182Y-126295100D01*
X115717180Y-126295100D01*
X115608967Y-126324095D01*
X115608958Y-126324099D01*
X115511936Y-126380115D01*
X115432715Y-126459336D01*
X115376699Y-126556358D01*
X115376695Y-126556367D01*
X115347700Y-126664579D01*
X103031374Y-126664579D01*
X103006504Y-126571767D01*
X103006503Y-126571763D01*
X102950485Y-126474737D01*
X102871263Y-126395515D01*
X102845263Y-126380504D01*
X102774241Y-126339499D01*
X102774232Y-126339495D01*
X102666020Y-126310500D01*
X102666018Y-126310500D01*
X102553982Y-126310500D01*
X102553980Y-126310500D01*
X102445767Y-126339495D01*
X102445758Y-126339499D01*
X102348736Y-126395515D01*
X102269515Y-126474736D01*
X102213499Y-126571758D01*
X102213495Y-126571767D01*
X102184500Y-126679979D01*
X89664808Y-126679979D01*
X89652104Y-126632567D01*
X89652103Y-126632563D01*
X89596085Y-126535537D01*
X89516863Y-126456315D01*
X89419841Y-126400299D01*
X89419832Y-126400295D01*
X89311620Y-126371300D01*
X89311618Y-126371300D01*
X89199582Y-126371300D01*
X89199580Y-126371300D01*
X89091367Y-126400295D01*
X89091358Y-126400299D01*
X88994336Y-126456315D01*
X88915115Y-126535536D01*
X88859099Y-126632558D01*
X88859095Y-126632567D01*
X88830100Y-126740779D01*
X61301664Y-126740779D01*
X61300485Y-126738737D01*
X61221263Y-126659515D01*
X61153519Y-126620403D01*
X61124241Y-126603499D01*
X61124232Y-126603495D01*
X61016020Y-126574500D01*
X61016018Y-126574500D01*
X60903982Y-126574500D01*
X60903980Y-126574500D01*
X60795767Y-126603495D01*
X60795758Y-126603499D01*
X60698736Y-126659515D01*
X60619515Y-126738736D01*
X60563499Y-126835758D01*
X60563495Y-126835767D01*
X60534500Y-126943979D01*
X60369499Y-126943979D01*
X60366743Y-126933695D01*
X60340503Y-126835763D01*
X60284485Y-126738737D01*
X60205263Y-126659515D01*
X60137519Y-126620403D01*
X60108241Y-126603499D01*
X60108232Y-126603495D01*
X60000020Y-126574500D01*
X60000018Y-126574500D01*
X59887982Y-126574500D01*
X59887980Y-126574500D01*
X59779767Y-126603495D01*
X59779758Y-126603499D01*
X59682736Y-126659515D01*
X59603515Y-126738736D01*
X59547499Y-126835758D01*
X59547495Y-126835767D01*
X59518500Y-126943979D01*
X59353499Y-126943979D01*
X59350743Y-126933695D01*
X59324503Y-126835763D01*
X59268485Y-126738737D01*
X59189263Y-126659515D01*
X59121519Y-126620403D01*
X59092241Y-126603499D01*
X59092232Y-126603495D01*
X58984020Y-126574500D01*
X58984018Y-126574500D01*
X58871982Y-126574500D01*
X58871980Y-126574500D01*
X58763767Y-126603495D01*
X58763758Y-126603499D01*
X58666736Y-126659515D01*
X58587515Y-126738736D01*
X58531499Y-126835758D01*
X58531495Y-126835767D01*
X58502500Y-126943979D01*
X58337499Y-126943979D01*
X58334743Y-126933695D01*
X58308503Y-126835763D01*
X58252485Y-126738737D01*
X58173263Y-126659515D01*
X58105519Y-126620403D01*
X58076241Y-126603499D01*
X58076232Y-126603495D01*
X57968020Y-126574500D01*
X57968018Y-126574500D01*
X57855982Y-126574500D01*
X57855980Y-126574500D01*
X57747767Y-126603495D01*
X57747758Y-126603499D01*
X57650736Y-126659515D01*
X57571515Y-126738736D01*
X57515499Y-126835758D01*
X57515495Y-126835767D01*
X57486500Y-126943979D01*
X57321499Y-126943979D01*
X57318743Y-126933695D01*
X57292503Y-126835763D01*
X57236485Y-126738737D01*
X57157263Y-126659515D01*
X57089519Y-126620403D01*
X57060241Y-126603499D01*
X57060232Y-126603495D01*
X56952020Y-126574500D01*
X56952018Y-126574500D01*
X56839982Y-126574500D01*
X56839980Y-126574500D01*
X56731767Y-126603495D01*
X56731758Y-126603499D01*
X56634736Y-126659515D01*
X56555515Y-126738736D01*
X56499499Y-126835758D01*
X56499495Y-126835767D01*
X56470500Y-126943979D01*
X50010500Y-126943979D01*
X50010500Y-125927979D01*
X56470500Y-125927979D01*
X56470500Y-126040020D01*
X56499495Y-126148232D01*
X56499496Y-126148235D01*
X56499497Y-126148237D01*
X56555515Y-126245263D01*
X56634737Y-126324485D01*
X56731763Y-126380503D01*
X56839979Y-126409499D01*
X56839980Y-126409500D01*
X56839982Y-126409500D01*
X56952020Y-126409500D01*
X56952020Y-126409499D01*
X57060237Y-126380503D01*
X57157263Y-126324485D01*
X57236485Y-126245263D01*
X57292503Y-126148237D01*
X57321499Y-126040020D01*
X57321500Y-126040020D01*
X57321500Y-125927980D01*
X57321499Y-125927979D01*
X57486500Y-125927979D01*
X57486500Y-126040020D01*
X57515495Y-126148232D01*
X57515496Y-126148235D01*
X57515497Y-126148237D01*
X57571515Y-126245263D01*
X57650737Y-126324485D01*
X57747763Y-126380503D01*
X57855979Y-126409499D01*
X57855980Y-126409500D01*
X57855982Y-126409500D01*
X57968020Y-126409500D01*
X57968020Y-126409499D01*
X58076237Y-126380503D01*
X58173263Y-126324485D01*
X58252485Y-126245263D01*
X58308503Y-126148237D01*
X58337499Y-126040020D01*
X58337500Y-126040020D01*
X58337500Y-125927980D01*
X58337499Y-125927979D01*
X58502500Y-125927979D01*
X58502500Y-126040020D01*
X58531495Y-126148232D01*
X58531496Y-126148235D01*
X58531497Y-126148237D01*
X58587515Y-126245263D01*
X58666737Y-126324485D01*
X58763763Y-126380503D01*
X58871979Y-126409499D01*
X58871980Y-126409500D01*
X58871982Y-126409500D01*
X58984020Y-126409500D01*
X58984020Y-126409499D01*
X59092237Y-126380503D01*
X59189263Y-126324485D01*
X59268485Y-126245263D01*
X59324503Y-126148237D01*
X59353499Y-126040020D01*
X59353500Y-126040020D01*
X59353500Y-125927980D01*
X59353499Y-125927979D01*
X59518500Y-125927979D01*
X59518500Y-126040020D01*
X59547495Y-126148232D01*
X59547496Y-126148235D01*
X59547497Y-126148237D01*
X59603515Y-126245263D01*
X59682737Y-126324485D01*
X59779763Y-126380503D01*
X59887979Y-126409499D01*
X59887980Y-126409500D01*
X59887982Y-126409500D01*
X60000020Y-126409500D01*
X60000020Y-126409499D01*
X60108237Y-126380503D01*
X60205263Y-126324485D01*
X60284485Y-126245263D01*
X60340503Y-126148237D01*
X60369499Y-126040020D01*
X60369500Y-126040020D01*
X60369500Y-125927980D01*
X60369499Y-125927979D01*
X60534500Y-125927979D01*
X60534500Y-126040020D01*
X60563495Y-126148232D01*
X60563496Y-126148235D01*
X60563497Y-126148237D01*
X60619515Y-126245263D01*
X60698737Y-126324485D01*
X60795763Y-126380503D01*
X60903979Y-126409499D01*
X60903980Y-126409500D01*
X60903982Y-126409500D01*
X61016020Y-126409500D01*
X61016020Y-126409499D01*
X61124237Y-126380503D01*
X61221263Y-126324485D01*
X61300485Y-126245263D01*
X61356503Y-126148237D01*
X61385499Y-126040020D01*
X61385500Y-126040020D01*
X61385500Y-125927980D01*
X61385499Y-125927979D01*
X61356504Y-125819767D01*
X61356503Y-125819763D01*
X61300485Y-125722737D01*
X61221263Y-125643515D01*
X61124241Y-125587499D01*
X61124232Y-125587495D01*
X61016020Y-125558500D01*
X61016018Y-125558500D01*
X60903982Y-125558500D01*
X60903980Y-125558500D01*
X60795767Y-125587495D01*
X60795758Y-125587499D01*
X60698736Y-125643515D01*
X60619515Y-125722736D01*
X60563499Y-125819758D01*
X60563495Y-125819767D01*
X60534500Y-125927979D01*
X60369499Y-125927979D01*
X60340504Y-125819767D01*
X60340503Y-125819763D01*
X60284485Y-125722737D01*
X60205263Y-125643515D01*
X60108241Y-125587499D01*
X60108232Y-125587495D01*
X60000020Y-125558500D01*
X60000018Y-125558500D01*
X59887982Y-125558500D01*
X59887980Y-125558500D01*
X59779767Y-125587495D01*
X59779758Y-125587499D01*
X59682736Y-125643515D01*
X59603515Y-125722736D01*
X59547499Y-125819758D01*
X59547495Y-125819767D01*
X59518500Y-125927979D01*
X59353499Y-125927979D01*
X59324504Y-125819767D01*
X59324503Y-125819763D01*
X59268485Y-125722737D01*
X59189263Y-125643515D01*
X59092241Y-125587499D01*
X59092232Y-125587495D01*
X58984020Y-125558500D01*
X58984018Y-125558500D01*
X58871982Y-125558500D01*
X58871980Y-125558500D01*
X58763767Y-125587495D01*
X58763758Y-125587499D01*
X58666736Y-125643515D01*
X58587515Y-125722736D01*
X58531499Y-125819758D01*
X58531495Y-125819767D01*
X58502500Y-125927979D01*
X58337499Y-125927979D01*
X58308504Y-125819767D01*
X58308503Y-125819763D01*
X58252485Y-125722737D01*
X58173263Y-125643515D01*
X58076241Y-125587499D01*
X58076232Y-125587495D01*
X57968020Y-125558500D01*
X57968018Y-125558500D01*
X57855982Y-125558500D01*
X57855980Y-125558500D01*
X57747767Y-125587495D01*
X57747758Y-125587499D01*
X57650736Y-125643515D01*
X57571515Y-125722736D01*
X57515499Y-125819758D01*
X57515495Y-125819767D01*
X57486500Y-125927979D01*
X57321499Y-125927979D01*
X57292504Y-125819767D01*
X57292503Y-125819763D01*
X57236485Y-125722737D01*
X57157263Y-125643515D01*
X57060241Y-125587499D01*
X57060232Y-125587495D01*
X56952020Y-125558500D01*
X56952018Y-125558500D01*
X56839982Y-125558500D01*
X56839980Y-125558500D01*
X56731767Y-125587495D01*
X56731758Y-125587499D01*
X56634736Y-125643515D01*
X56555515Y-125722736D01*
X56499499Y-125819758D01*
X56499495Y-125819767D01*
X56470500Y-125927979D01*
X50010500Y-125927979D01*
X50010500Y-124911979D01*
X56470500Y-124911979D01*
X56470500Y-125024020D01*
X56499495Y-125132232D01*
X56499499Y-125132241D01*
X56527299Y-125180392D01*
X56555515Y-125229263D01*
X56634737Y-125308485D01*
X56731763Y-125364503D01*
X56839979Y-125393499D01*
X56839980Y-125393500D01*
X56839982Y-125393500D01*
X56952020Y-125393500D01*
X56952020Y-125393499D01*
X57060237Y-125364503D01*
X57157263Y-125308485D01*
X57236485Y-125229263D01*
X57292503Y-125132237D01*
X57321499Y-125024020D01*
X57321500Y-125024020D01*
X57321500Y-124911980D01*
X57321499Y-124911979D01*
X57486500Y-124911979D01*
X57486500Y-125024020D01*
X57515495Y-125132232D01*
X57515499Y-125132241D01*
X57543299Y-125180392D01*
X57571515Y-125229263D01*
X57650737Y-125308485D01*
X57747763Y-125364503D01*
X57855979Y-125393499D01*
X57855980Y-125393500D01*
X57855982Y-125393500D01*
X57968020Y-125393500D01*
X57968020Y-125393499D01*
X58076237Y-125364503D01*
X58173263Y-125308485D01*
X58252485Y-125229263D01*
X58308503Y-125132237D01*
X58337499Y-125024020D01*
X58337500Y-125024020D01*
X58337500Y-124911980D01*
X58337499Y-124911979D01*
X58502500Y-124911979D01*
X58502500Y-125024020D01*
X58531495Y-125132232D01*
X58531499Y-125132241D01*
X58559299Y-125180392D01*
X58587515Y-125229263D01*
X58666737Y-125308485D01*
X58763763Y-125364503D01*
X58871979Y-125393499D01*
X58871980Y-125393500D01*
X58871982Y-125393500D01*
X58984020Y-125393500D01*
X58984020Y-125393499D01*
X59092237Y-125364503D01*
X59189263Y-125308485D01*
X59268485Y-125229263D01*
X59324503Y-125132237D01*
X59353499Y-125024020D01*
X59353500Y-125024020D01*
X59353500Y-124911980D01*
X59353499Y-124911979D01*
X59518500Y-124911979D01*
X59518500Y-125024020D01*
X59547495Y-125132232D01*
X59547499Y-125132241D01*
X59575299Y-125180392D01*
X59603515Y-125229263D01*
X59682737Y-125308485D01*
X59779763Y-125364503D01*
X59887979Y-125393499D01*
X59887980Y-125393500D01*
X59887982Y-125393500D01*
X60000020Y-125393500D01*
X60000020Y-125393499D01*
X60108237Y-125364503D01*
X60205263Y-125308485D01*
X60284485Y-125229263D01*
X60340503Y-125132237D01*
X60369499Y-125024020D01*
X60369500Y-125024020D01*
X60369500Y-124911980D01*
X60369499Y-124911979D01*
X60534500Y-124911979D01*
X60534500Y-125024020D01*
X60563495Y-125132232D01*
X60563499Y-125132241D01*
X60591299Y-125180392D01*
X60619515Y-125229263D01*
X60698737Y-125308485D01*
X60795763Y-125364503D01*
X60903979Y-125393499D01*
X60903980Y-125393500D01*
X60903982Y-125393500D01*
X61016020Y-125393500D01*
X61016020Y-125393499D01*
X61124237Y-125364503D01*
X61221263Y-125308485D01*
X61300485Y-125229263D01*
X61356503Y-125132237D01*
X61385499Y-125024020D01*
X61385500Y-125024020D01*
X61385500Y-124911980D01*
X61385499Y-124911979D01*
X61384213Y-124907181D01*
X61356503Y-124803763D01*
X61301664Y-124708779D01*
X96653300Y-124708779D01*
X96653300Y-124820820D01*
X96682295Y-124929032D01*
X96682299Y-124929041D01*
X96699013Y-124957990D01*
X96738315Y-125026063D01*
X96817537Y-125105285D01*
X96914563Y-125161303D01*
X97022779Y-125190299D01*
X97022780Y-125190300D01*
X97022782Y-125190300D01*
X97134820Y-125190300D01*
X97134820Y-125190299D01*
X97243037Y-125161303D01*
X97340063Y-125105285D01*
X97419285Y-125026063D01*
X97475303Y-124929037D01*
X97504299Y-124820820D01*
X97504300Y-124820820D01*
X97504300Y-124762405D01*
X110688000Y-124762405D01*
X110688000Y-124894194D01*
X110722106Y-125021481D01*
X110722110Y-125021490D01*
X110751338Y-125072114D01*
X110788000Y-125135614D01*
X110881186Y-125228800D01*
X110995314Y-125294692D01*
X111122605Y-125328799D01*
X111122606Y-125328800D01*
X111122608Y-125328800D01*
X111254394Y-125328800D01*
X111254394Y-125328799D01*
X111381686Y-125294692D01*
X111495814Y-125228800D01*
X111589000Y-125135614D01*
X111654892Y-125021486D01*
X111688999Y-124894194D01*
X111689000Y-124894194D01*
X111689000Y-124762406D01*
X111688999Y-124762405D01*
X111683245Y-124740932D01*
X111658373Y-124648105D01*
X123172100Y-124648105D01*
X123172100Y-124779894D01*
X123206206Y-124907181D01*
X123206210Y-124907190D01*
X123235537Y-124957986D01*
X123272100Y-125021314D01*
X123365286Y-125114500D01*
X123479414Y-125180392D01*
X123606705Y-125214499D01*
X123606706Y-125214500D01*
X123606708Y-125214500D01*
X123738494Y-125214500D01*
X123738494Y-125214499D01*
X123865786Y-125180392D01*
X123979914Y-125114500D01*
X124073100Y-125021314D01*
X124138992Y-124907186D01*
X124173099Y-124779894D01*
X124173100Y-124779894D01*
X124173100Y-124698905D01*
X136507100Y-124698905D01*
X136507100Y-124830694D01*
X136541206Y-124957981D01*
X136541210Y-124957990D01*
X136577867Y-125021481D01*
X136607100Y-125072114D01*
X136700286Y-125165300D01*
X136814414Y-125231192D01*
X136941705Y-125265299D01*
X136941706Y-125265300D01*
X136941708Y-125265300D01*
X137073494Y-125265300D01*
X137073494Y-125265299D01*
X137200786Y-125231192D01*
X137314914Y-125165300D01*
X137408100Y-125072114D01*
X137473992Y-124957986D01*
X137486319Y-124911980D01*
X137490458Y-124896535D01*
X146824500Y-124896535D01*
X146824500Y-125103464D01*
X146864868Y-125306413D01*
X146864870Y-125306420D01*
X146944059Y-125497598D01*
X147004128Y-125587499D01*
X147059023Y-125669655D01*
X147205345Y-125815977D01*
X147377402Y-125930941D01*
X147568580Y-126010130D01*
X147771535Y-126050500D01*
X147771536Y-126050500D01*
X148228464Y-126050500D01*
X148228465Y-126050500D01*
X148431420Y-126010130D01*
X148622598Y-125930941D01*
X148794655Y-125815977D01*
X148940977Y-125669655D01*
X149055941Y-125497598D01*
X149135130Y-125306420D01*
X149175500Y-125103465D01*
X149175500Y-124896535D01*
X154824500Y-124896535D01*
X154824500Y-125103464D01*
X154864868Y-125306413D01*
X154864870Y-125306420D01*
X154944059Y-125497598D01*
X155004128Y-125587499D01*
X155059023Y-125669655D01*
X155205345Y-125815977D01*
X155377402Y-125930941D01*
X155568580Y-126010130D01*
X155771535Y-126050500D01*
X155771536Y-126050500D01*
X156228464Y-126050500D01*
X156228465Y-126050500D01*
X156431420Y-126010130D01*
X156622598Y-125930941D01*
X156794655Y-125815977D01*
X156940977Y-125669655D01*
X157055941Y-125497598D01*
X157135130Y-125306420D01*
X157175500Y-125103465D01*
X157175500Y-124896535D01*
X157135130Y-124693580D01*
X157055941Y-124502402D01*
X156940977Y-124330345D01*
X156794655Y-124184023D01*
X156693211Y-124116241D01*
X156622598Y-124069059D01*
X156431420Y-123989870D01*
X156431413Y-123989868D01*
X156278516Y-123959455D01*
X156228465Y-123949500D01*
X155771535Y-123949500D01*
X155731385Y-123957486D01*
X155568586Y-123989868D01*
X155568579Y-123989870D01*
X155377401Y-124069059D01*
X155205345Y-124184022D01*
X155205344Y-124184024D01*
X155059024Y-124330344D01*
X155059022Y-124330345D01*
X154944059Y-124502401D01*
X154864870Y-124693579D01*
X154864868Y-124693586D01*
X154824500Y-124896535D01*
X149175500Y-124896535D01*
X149135130Y-124693580D01*
X149055941Y-124502402D01*
X148940977Y-124330345D01*
X148794655Y-124184023D01*
X148693211Y-124116241D01*
X148622598Y-124069059D01*
X148431420Y-123989870D01*
X148431413Y-123989868D01*
X148278516Y-123959455D01*
X148228465Y-123949500D01*
X147771535Y-123949500D01*
X147731385Y-123957486D01*
X147568586Y-123989868D01*
X147568579Y-123989870D01*
X147377401Y-124069059D01*
X147205345Y-124184022D01*
X147205344Y-124184024D01*
X147059024Y-124330344D01*
X147059022Y-124330345D01*
X146944059Y-124502401D01*
X146864870Y-124693579D01*
X146864868Y-124693586D01*
X146824500Y-124896535D01*
X137490458Y-124896535D01*
X137496564Y-124873747D01*
X137508099Y-124830694D01*
X137508100Y-124830694D01*
X137508100Y-124698906D01*
X137508099Y-124698905D01*
X137494487Y-124648105D01*
X137473992Y-124571614D01*
X137408100Y-124457486D01*
X137314914Y-124364300D01*
X137310771Y-124361908D01*
X137200790Y-124298410D01*
X137200781Y-124298406D01*
X137073494Y-124264300D01*
X137073492Y-124264300D01*
X136941708Y-124264300D01*
X136941706Y-124264300D01*
X136814418Y-124298406D01*
X136814409Y-124298410D01*
X136700285Y-124364300D01*
X136607100Y-124457485D01*
X136541210Y-124571609D01*
X136541206Y-124571618D01*
X136507100Y-124698905D01*
X124173100Y-124698905D01*
X124173100Y-124648106D01*
X124173099Y-124648105D01*
X124160361Y-124600567D01*
X124138992Y-124520814D01*
X124073100Y-124406686D01*
X123979914Y-124313500D01*
X123865790Y-124247610D01*
X123865781Y-124247606D01*
X123738494Y-124213500D01*
X123738492Y-124213500D01*
X123606708Y-124213500D01*
X123606706Y-124213500D01*
X123479418Y-124247606D01*
X123479409Y-124247610D01*
X123365285Y-124313500D01*
X123272100Y-124406685D01*
X123206210Y-124520809D01*
X123206206Y-124520818D01*
X123172100Y-124648105D01*
X111658373Y-124648105D01*
X111654892Y-124635114D01*
X111589000Y-124520986D01*
X111495814Y-124427800D01*
X111408692Y-124377500D01*
X111381690Y-124361910D01*
X111381681Y-124361906D01*
X111254394Y-124327800D01*
X111254392Y-124327800D01*
X111122608Y-124327800D01*
X111122606Y-124327800D01*
X110995318Y-124361906D01*
X110995309Y-124361910D01*
X110881185Y-124427800D01*
X110788000Y-124520985D01*
X110722110Y-124635109D01*
X110722106Y-124635118D01*
X110688000Y-124762405D01*
X97504300Y-124762405D01*
X97504300Y-124708780D01*
X97504299Y-124708779D01*
X97500226Y-124693580D01*
X97475303Y-124600563D01*
X97419285Y-124503537D01*
X97340063Y-124424315D01*
X97309527Y-124406685D01*
X97243041Y-124368299D01*
X97243032Y-124368295D01*
X97134820Y-124339300D01*
X97134818Y-124339300D01*
X97022782Y-124339300D01*
X97022780Y-124339300D01*
X96914567Y-124368295D01*
X96914558Y-124368299D01*
X96817536Y-124424315D01*
X96738315Y-124503536D01*
X96682299Y-124600558D01*
X96682295Y-124600567D01*
X96653300Y-124708779D01*
X61301664Y-124708779D01*
X61300485Y-124706737D01*
X61221263Y-124627515D01*
X61124440Y-124571614D01*
X61124241Y-124571499D01*
X61124232Y-124571495D01*
X61016020Y-124542500D01*
X61016018Y-124542500D01*
X60903982Y-124542500D01*
X60903980Y-124542500D01*
X60795767Y-124571495D01*
X60795758Y-124571499D01*
X60698736Y-124627515D01*
X60619515Y-124706736D01*
X60563499Y-124803758D01*
X60563495Y-124803767D01*
X60534500Y-124911979D01*
X60369499Y-124911979D01*
X60368213Y-124907181D01*
X60340503Y-124803763D01*
X60284485Y-124706737D01*
X60205263Y-124627515D01*
X60108440Y-124571614D01*
X60108241Y-124571499D01*
X60108232Y-124571495D01*
X60000020Y-124542500D01*
X60000018Y-124542500D01*
X59887982Y-124542500D01*
X59887980Y-124542500D01*
X59779767Y-124571495D01*
X59779758Y-124571499D01*
X59682736Y-124627515D01*
X59603515Y-124706736D01*
X59547499Y-124803758D01*
X59547495Y-124803767D01*
X59518500Y-124911979D01*
X59353499Y-124911979D01*
X59352213Y-124907181D01*
X59324503Y-124803763D01*
X59268485Y-124706737D01*
X59189263Y-124627515D01*
X59092440Y-124571614D01*
X59092241Y-124571499D01*
X59092232Y-124571495D01*
X58984020Y-124542500D01*
X58984018Y-124542500D01*
X58871982Y-124542500D01*
X58871980Y-124542500D01*
X58763767Y-124571495D01*
X58763758Y-124571499D01*
X58666736Y-124627515D01*
X58587515Y-124706736D01*
X58531499Y-124803758D01*
X58531495Y-124803767D01*
X58502500Y-124911979D01*
X58337499Y-124911979D01*
X58336213Y-124907181D01*
X58308503Y-124803763D01*
X58252485Y-124706737D01*
X58173263Y-124627515D01*
X58076440Y-124571614D01*
X58076241Y-124571499D01*
X58076232Y-124571495D01*
X57968020Y-124542500D01*
X57968018Y-124542500D01*
X57855982Y-124542500D01*
X57855980Y-124542500D01*
X57747767Y-124571495D01*
X57747758Y-124571499D01*
X57650736Y-124627515D01*
X57571515Y-124706736D01*
X57515499Y-124803758D01*
X57515495Y-124803767D01*
X57486500Y-124911979D01*
X57321499Y-124911979D01*
X57320213Y-124907181D01*
X57292503Y-124803763D01*
X57236485Y-124706737D01*
X57157263Y-124627515D01*
X57060440Y-124571614D01*
X57060241Y-124571499D01*
X57060232Y-124571495D01*
X56952020Y-124542500D01*
X56952018Y-124542500D01*
X56839982Y-124542500D01*
X56839980Y-124542500D01*
X56731767Y-124571495D01*
X56731758Y-124571499D01*
X56634736Y-124627515D01*
X56555515Y-124706736D01*
X56499499Y-124803758D01*
X56499495Y-124803767D01*
X56470500Y-124911979D01*
X50010500Y-124911979D01*
X50010500Y-123895979D01*
X56470500Y-123895979D01*
X56470500Y-124008020D01*
X56499495Y-124116232D01*
X56499496Y-124116235D01*
X56499497Y-124116237D01*
X56555515Y-124213263D01*
X56634737Y-124292485D01*
X56731763Y-124348503D01*
X56839979Y-124377499D01*
X56839980Y-124377500D01*
X56839982Y-124377500D01*
X56952020Y-124377500D01*
X56952020Y-124377499D01*
X57060237Y-124348503D01*
X57157263Y-124292485D01*
X57236485Y-124213263D01*
X57292503Y-124116237D01*
X57321499Y-124008020D01*
X57321500Y-124008020D01*
X57321500Y-123895980D01*
X57321499Y-123895979D01*
X57486500Y-123895979D01*
X57486500Y-124008020D01*
X57515495Y-124116232D01*
X57515496Y-124116235D01*
X57515497Y-124116237D01*
X57571515Y-124213263D01*
X57650737Y-124292485D01*
X57747763Y-124348503D01*
X57855979Y-124377499D01*
X57855980Y-124377500D01*
X57855982Y-124377500D01*
X57968020Y-124377500D01*
X57968020Y-124377499D01*
X58076237Y-124348503D01*
X58173263Y-124292485D01*
X58252485Y-124213263D01*
X58308503Y-124116237D01*
X58337499Y-124008020D01*
X58337500Y-124008020D01*
X58337500Y-123895980D01*
X58337499Y-123895979D01*
X58502500Y-123895979D01*
X58502500Y-124008020D01*
X58531495Y-124116232D01*
X58531496Y-124116235D01*
X58531497Y-124116237D01*
X58587515Y-124213263D01*
X58666737Y-124292485D01*
X58763763Y-124348503D01*
X58871979Y-124377499D01*
X58871980Y-124377500D01*
X58871982Y-124377500D01*
X58984020Y-124377500D01*
X58984020Y-124377499D01*
X59092237Y-124348503D01*
X59189263Y-124292485D01*
X59268485Y-124213263D01*
X59324503Y-124116237D01*
X59353499Y-124008020D01*
X59353500Y-124008020D01*
X59353500Y-123895980D01*
X59353499Y-123895979D01*
X59518500Y-123895979D01*
X59518500Y-124008020D01*
X59547495Y-124116232D01*
X59547496Y-124116235D01*
X59547497Y-124116237D01*
X59603515Y-124213263D01*
X59682737Y-124292485D01*
X59779763Y-124348503D01*
X59887979Y-124377499D01*
X59887980Y-124377500D01*
X59887982Y-124377500D01*
X60000020Y-124377500D01*
X60000020Y-124377499D01*
X60108237Y-124348503D01*
X60205263Y-124292485D01*
X60284485Y-124213263D01*
X60340503Y-124116237D01*
X60369499Y-124008020D01*
X60369500Y-124008020D01*
X60369500Y-123895980D01*
X60369499Y-123895979D01*
X60534500Y-123895979D01*
X60534500Y-124008020D01*
X60563495Y-124116232D01*
X60563496Y-124116235D01*
X60563497Y-124116237D01*
X60619515Y-124213263D01*
X60698737Y-124292485D01*
X60795763Y-124348503D01*
X60903979Y-124377499D01*
X60903980Y-124377500D01*
X60903982Y-124377500D01*
X61016020Y-124377500D01*
X61016020Y-124377499D01*
X61124237Y-124348503D01*
X61221263Y-124292485D01*
X61300485Y-124213263D01*
X61356503Y-124116237D01*
X61385499Y-124008020D01*
X61385500Y-124008020D01*
X61385500Y-123895980D01*
X61385499Y-123895979D01*
X61356504Y-123787767D01*
X61356503Y-123787763D01*
X61300485Y-123690737D01*
X61221263Y-123611515D01*
X61124241Y-123555499D01*
X61124232Y-123555495D01*
X61016020Y-123526500D01*
X61016018Y-123526500D01*
X60903982Y-123526500D01*
X60903980Y-123526500D01*
X60795767Y-123555495D01*
X60795758Y-123555499D01*
X60698736Y-123611515D01*
X60619515Y-123690736D01*
X60563499Y-123787758D01*
X60563495Y-123787767D01*
X60534500Y-123895979D01*
X60369499Y-123895979D01*
X60340504Y-123787767D01*
X60340503Y-123787763D01*
X60284485Y-123690737D01*
X60205263Y-123611515D01*
X60108241Y-123555499D01*
X60108232Y-123555495D01*
X60000020Y-123526500D01*
X60000018Y-123526500D01*
X59887982Y-123526500D01*
X59887980Y-123526500D01*
X59779767Y-123555495D01*
X59779758Y-123555499D01*
X59682736Y-123611515D01*
X59603515Y-123690736D01*
X59547499Y-123787758D01*
X59547495Y-123787767D01*
X59518500Y-123895979D01*
X59353499Y-123895979D01*
X59324504Y-123787767D01*
X59324503Y-123787763D01*
X59268485Y-123690737D01*
X59189263Y-123611515D01*
X59092241Y-123555499D01*
X59092232Y-123555495D01*
X58984020Y-123526500D01*
X58984018Y-123526500D01*
X58871982Y-123526500D01*
X58871980Y-123526500D01*
X58763767Y-123555495D01*
X58763758Y-123555499D01*
X58666736Y-123611515D01*
X58587515Y-123690736D01*
X58531499Y-123787758D01*
X58531495Y-123787767D01*
X58502500Y-123895979D01*
X58337499Y-123895979D01*
X58308504Y-123787767D01*
X58308503Y-123787763D01*
X58252485Y-123690737D01*
X58173263Y-123611515D01*
X58076241Y-123555499D01*
X58076232Y-123555495D01*
X57968020Y-123526500D01*
X57968018Y-123526500D01*
X57855982Y-123526500D01*
X57855980Y-123526500D01*
X57747767Y-123555495D01*
X57747758Y-123555499D01*
X57650736Y-123611515D01*
X57571515Y-123690736D01*
X57515499Y-123787758D01*
X57515495Y-123787767D01*
X57486500Y-123895979D01*
X57321499Y-123895979D01*
X57292504Y-123787767D01*
X57292503Y-123787763D01*
X57236485Y-123690737D01*
X57157263Y-123611515D01*
X57060241Y-123555499D01*
X57060232Y-123555495D01*
X56952020Y-123526500D01*
X56952018Y-123526500D01*
X56839982Y-123526500D01*
X56839980Y-123526500D01*
X56731767Y-123555495D01*
X56731758Y-123555499D01*
X56634736Y-123611515D01*
X56555515Y-123690736D01*
X56499499Y-123787758D01*
X56499495Y-123787767D01*
X56470500Y-123895979D01*
X50010500Y-123895979D01*
X50010500Y-122879979D01*
X56470500Y-122879979D01*
X56470500Y-122992020D01*
X56499495Y-123100232D01*
X56499499Y-123100241D01*
X56539576Y-123169656D01*
X56555515Y-123197263D01*
X56634737Y-123276485D01*
X56731763Y-123332503D01*
X56839979Y-123361499D01*
X56839980Y-123361500D01*
X56839982Y-123361500D01*
X56952020Y-123361500D01*
X56952020Y-123361499D01*
X57060237Y-123332503D01*
X57157263Y-123276485D01*
X57236485Y-123197263D01*
X57292503Y-123100237D01*
X57321499Y-122992020D01*
X57321500Y-122992020D01*
X57321500Y-122879980D01*
X57321499Y-122879979D01*
X57486500Y-122879979D01*
X57486500Y-122992020D01*
X57515495Y-123100232D01*
X57515499Y-123100241D01*
X57555576Y-123169656D01*
X57571515Y-123197263D01*
X57650737Y-123276485D01*
X57747763Y-123332503D01*
X57855979Y-123361499D01*
X57855980Y-123361500D01*
X57855982Y-123361500D01*
X57968020Y-123361500D01*
X57968020Y-123361499D01*
X58076237Y-123332503D01*
X58173263Y-123276485D01*
X58252485Y-123197263D01*
X58308503Y-123100237D01*
X58337499Y-122992020D01*
X58337500Y-122992020D01*
X58337500Y-122879980D01*
X58337499Y-122879979D01*
X58502500Y-122879979D01*
X58502500Y-122992020D01*
X58531495Y-123100232D01*
X58531499Y-123100241D01*
X58571576Y-123169656D01*
X58587515Y-123197263D01*
X58666737Y-123276485D01*
X58763763Y-123332503D01*
X58871979Y-123361499D01*
X58871980Y-123361500D01*
X58871982Y-123361500D01*
X58984020Y-123361500D01*
X58984020Y-123361499D01*
X59092237Y-123332503D01*
X59189263Y-123276485D01*
X59268485Y-123197263D01*
X59324503Y-123100237D01*
X59353499Y-122992020D01*
X59353500Y-122992020D01*
X59353500Y-122879980D01*
X59353499Y-122879979D01*
X59518500Y-122879979D01*
X59518500Y-122992020D01*
X59547495Y-123100232D01*
X59547499Y-123100241D01*
X59587576Y-123169656D01*
X59603515Y-123197263D01*
X59682737Y-123276485D01*
X59779763Y-123332503D01*
X59887979Y-123361499D01*
X59887980Y-123361500D01*
X59887982Y-123361500D01*
X60000020Y-123361500D01*
X60000020Y-123361499D01*
X60108237Y-123332503D01*
X60205263Y-123276485D01*
X60284485Y-123197263D01*
X60340503Y-123100237D01*
X60369499Y-122992020D01*
X60369500Y-122992020D01*
X60369500Y-122879980D01*
X60369499Y-122879979D01*
X60534500Y-122879979D01*
X60534500Y-122992020D01*
X60563495Y-123100232D01*
X60563499Y-123100241D01*
X60603576Y-123169656D01*
X60619515Y-123197263D01*
X60698737Y-123276485D01*
X60795763Y-123332503D01*
X60903979Y-123361499D01*
X60903980Y-123361500D01*
X60903982Y-123361500D01*
X61016020Y-123361500D01*
X61016020Y-123361499D01*
X61124237Y-123332503D01*
X61221263Y-123276485D01*
X61300485Y-123197263D01*
X61356503Y-123100237D01*
X61385499Y-122992020D01*
X61385500Y-122992020D01*
X61385500Y-122879980D01*
X61385499Y-122879979D01*
X61356504Y-122771767D01*
X61356503Y-122771763D01*
X61300485Y-122674737D01*
X61221263Y-122595515D01*
X61142997Y-122550328D01*
X61124241Y-122539499D01*
X61124232Y-122539495D01*
X61016020Y-122510500D01*
X61016018Y-122510500D01*
X60903982Y-122510500D01*
X60903980Y-122510500D01*
X60795767Y-122539495D01*
X60795758Y-122539499D01*
X60698736Y-122595515D01*
X60619515Y-122674736D01*
X60563499Y-122771758D01*
X60563495Y-122771767D01*
X60534500Y-122879979D01*
X60369499Y-122879979D01*
X60340504Y-122771767D01*
X60340503Y-122771763D01*
X60284485Y-122674737D01*
X60205263Y-122595515D01*
X60126997Y-122550328D01*
X60108241Y-122539499D01*
X60108232Y-122539495D01*
X60000020Y-122510500D01*
X60000018Y-122510500D01*
X59887982Y-122510500D01*
X59887980Y-122510500D01*
X59779767Y-122539495D01*
X59779758Y-122539499D01*
X59682736Y-122595515D01*
X59603515Y-122674736D01*
X59547499Y-122771758D01*
X59547495Y-122771767D01*
X59518500Y-122879979D01*
X59353499Y-122879979D01*
X59324504Y-122771767D01*
X59324503Y-122771763D01*
X59268485Y-122674737D01*
X59189263Y-122595515D01*
X59110997Y-122550328D01*
X59092241Y-122539499D01*
X59092232Y-122539495D01*
X58984020Y-122510500D01*
X58984018Y-122510500D01*
X58871982Y-122510500D01*
X58871980Y-122510500D01*
X58763767Y-122539495D01*
X58763758Y-122539499D01*
X58666736Y-122595515D01*
X58587515Y-122674736D01*
X58531499Y-122771758D01*
X58531495Y-122771767D01*
X58502500Y-122879979D01*
X58337499Y-122879979D01*
X58308504Y-122771767D01*
X58308503Y-122771763D01*
X58252485Y-122674737D01*
X58173263Y-122595515D01*
X58094997Y-122550328D01*
X58076241Y-122539499D01*
X58076232Y-122539495D01*
X57968020Y-122510500D01*
X57968018Y-122510500D01*
X57855982Y-122510500D01*
X57855980Y-122510500D01*
X57747767Y-122539495D01*
X57747758Y-122539499D01*
X57650736Y-122595515D01*
X57571515Y-122674736D01*
X57515499Y-122771758D01*
X57515495Y-122771767D01*
X57486500Y-122879979D01*
X57321499Y-122879979D01*
X57292504Y-122771767D01*
X57292503Y-122771763D01*
X57236485Y-122674737D01*
X57157263Y-122595515D01*
X57078997Y-122550328D01*
X57060241Y-122539499D01*
X57060232Y-122539495D01*
X56952020Y-122510500D01*
X56952018Y-122510500D01*
X56839982Y-122510500D01*
X56839980Y-122510500D01*
X56731767Y-122539495D01*
X56731758Y-122539499D01*
X56634736Y-122595515D01*
X56555515Y-122674736D01*
X56499499Y-122771758D01*
X56499495Y-122771767D01*
X56470500Y-122879979D01*
X50010500Y-122879979D01*
X50010500Y-121863979D01*
X56470500Y-121863979D01*
X56470500Y-121976020D01*
X56499495Y-122084232D01*
X56499496Y-122084235D01*
X56499497Y-122084237D01*
X56555515Y-122181263D01*
X56634737Y-122260485D01*
X56731763Y-122316503D01*
X56839979Y-122345499D01*
X56839980Y-122345500D01*
X56839982Y-122345500D01*
X56952020Y-122345500D01*
X56952020Y-122345499D01*
X57060237Y-122316503D01*
X57157263Y-122260485D01*
X57236485Y-122181263D01*
X57292503Y-122084237D01*
X57321499Y-121976020D01*
X57321500Y-121976020D01*
X57321500Y-121863980D01*
X57321499Y-121863979D01*
X57486500Y-121863979D01*
X57486500Y-121976020D01*
X57515495Y-122084232D01*
X57515496Y-122084235D01*
X57515497Y-122084237D01*
X57571515Y-122181263D01*
X57650737Y-122260485D01*
X57747763Y-122316503D01*
X57855979Y-122345499D01*
X57855980Y-122345500D01*
X57855982Y-122345500D01*
X57968020Y-122345500D01*
X57968020Y-122345499D01*
X58076237Y-122316503D01*
X58173263Y-122260485D01*
X58252485Y-122181263D01*
X58308503Y-122084237D01*
X58314542Y-122061696D01*
X58326240Y-122018044D01*
X127729703Y-122018044D01*
X127729703Y-122149833D01*
X127763809Y-122277120D01*
X127763813Y-122277129D01*
X127803287Y-122345499D01*
X127829703Y-122391253D01*
X127922889Y-122484439D01*
X128037017Y-122550331D01*
X128164308Y-122584438D01*
X128164309Y-122584439D01*
X128164311Y-122584439D01*
X128296097Y-122584439D01*
X128296097Y-122584438D01*
X128423389Y-122550331D01*
X128537517Y-122484439D01*
X128625421Y-122396535D01*
X146824500Y-122396535D01*
X146824500Y-122603464D01*
X146864868Y-122806413D01*
X146864870Y-122806420D01*
X146944059Y-122997598D01*
X147059023Y-123169655D01*
X147205345Y-123315977D01*
X147377402Y-123430941D01*
X147568580Y-123510130D01*
X147771535Y-123550500D01*
X147771536Y-123550500D01*
X148228464Y-123550500D01*
X148228465Y-123550500D01*
X148431420Y-123510130D01*
X148622598Y-123430941D01*
X148794655Y-123315977D01*
X148940977Y-123169655D01*
X149055941Y-122997598D01*
X149135130Y-122806420D01*
X149175500Y-122603465D01*
X149175500Y-122396535D01*
X154824500Y-122396535D01*
X154824500Y-122603464D01*
X154864868Y-122806413D01*
X154864870Y-122806420D01*
X154944059Y-122997598D01*
X155059023Y-123169655D01*
X155205345Y-123315977D01*
X155377402Y-123430941D01*
X155568580Y-123510130D01*
X155771535Y-123550500D01*
X155771536Y-123550500D01*
X156228464Y-123550500D01*
X156228465Y-123550500D01*
X156431420Y-123510130D01*
X156622598Y-123430941D01*
X156794655Y-123315977D01*
X156940977Y-123169655D01*
X157055941Y-122997598D01*
X157135130Y-122806420D01*
X157175500Y-122603465D01*
X157175500Y-122396535D01*
X157135130Y-122193580D01*
X157055941Y-122002402D01*
X156940977Y-121830345D01*
X156794655Y-121684023D01*
X156720837Y-121634700D01*
X156622598Y-121569059D01*
X156431420Y-121489870D01*
X156431413Y-121489868D01*
X156278516Y-121459455D01*
X156228465Y-121449500D01*
X155771535Y-121449500D01*
X155731385Y-121457486D01*
X155568586Y-121489868D01*
X155568579Y-121489870D01*
X155377401Y-121569059D01*
X155205345Y-121684022D01*
X155205344Y-121684024D01*
X155059024Y-121830344D01*
X155059022Y-121830345D01*
X154944059Y-122002401D01*
X154864870Y-122193579D01*
X154864868Y-122193586D01*
X154824500Y-122396535D01*
X149175500Y-122396535D01*
X149135130Y-122193580D01*
X149055941Y-122002402D01*
X148940977Y-121830345D01*
X148794655Y-121684023D01*
X148720837Y-121634700D01*
X148622598Y-121569059D01*
X148431420Y-121489870D01*
X148431413Y-121489868D01*
X148278516Y-121459455D01*
X148228465Y-121449500D01*
X147771535Y-121449500D01*
X147731385Y-121457486D01*
X147568586Y-121489868D01*
X147568579Y-121489870D01*
X147377401Y-121569059D01*
X147205345Y-121684022D01*
X147205344Y-121684024D01*
X147059024Y-121830344D01*
X147059022Y-121830345D01*
X146944059Y-122002401D01*
X146864870Y-122193579D01*
X146864868Y-122193586D01*
X146824500Y-122396535D01*
X128625421Y-122396535D01*
X128630703Y-122391253D01*
X128696595Y-122277125D01*
X128730702Y-122149833D01*
X128730703Y-122149833D01*
X128730703Y-122018045D01*
X128730702Y-122018044D01*
X128696596Y-121890757D01*
X128696595Y-121890753D01*
X128630703Y-121776625D01*
X128537517Y-121683439D01*
X128453097Y-121634699D01*
X128423393Y-121617549D01*
X128423384Y-121617545D01*
X128296097Y-121583439D01*
X128296095Y-121583439D01*
X128164311Y-121583439D01*
X128164309Y-121583439D01*
X128037021Y-121617545D01*
X128037012Y-121617549D01*
X127922888Y-121683439D01*
X127829703Y-121776624D01*
X127763813Y-121890748D01*
X127763809Y-121890757D01*
X127729703Y-122018044D01*
X58326240Y-122018044D01*
X58332671Y-121994044D01*
X58337500Y-121976019D01*
X58337500Y-121863980D01*
X58337499Y-121863979D01*
X58308504Y-121755767D01*
X58308503Y-121755763D01*
X58252485Y-121658737D01*
X58173263Y-121579515D01*
X58155153Y-121569059D01*
X58076241Y-121523499D01*
X58076232Y-121523495D01*
X57968020Y-121494500D01*
X57968018Y-121494500D01*
X57855982Y-121494500D01*
X57855980Y-121494500D01*
X57747767Y-121523495D01*
X57747758Y-121523499D01*
X57650736Y-121579515D01*
X57571515Y-121658736D01*
X57515499Y-121755758D01*
X57515495Y-121755767D01*
X57486500Y-121863979D01*
X57321499Y-121863979D01*
X57292504Y-121755767D01*
X57292503Y-121755763D01*
X57236485Y-121658737D01*
X57157263Y-121579515D01*
X57139153Y-121569059D01*
X57060241Y-121523499D01*
X57060232Y-121523495D01*
X56952020Y-121494500D01*
X56952018Y-121494500D01*
X56839982Y-121494500D01*
X56839980Y-121494500D01*
X56731767Y-121523495D01*
X56731758Y-121523499D01*
X56634736Y-121579515D01*
X56555515Y-121658736D01*
X56499499Y-121755758D01*
X56499495Y-121755767D01*
X56470500Y-121863979D01*
X50010500Y-121863979D01*
X50010500Y-121168305D01*
X105849300Y-121168305D01*
X105849300Y-121300094D01*
X105883406Y-121427381D01*
X105883410Y-121427390D01*
X105919482Y-121489868D01*
X105949300Y-121541514D01*
X106042486Y-121634700D01*
X106156614Y-121700592D01*
X106283905Y-121734699D01*
X106283906Y-121734700D01*
X106283908Y-121734700D01*
X106415694Y-121734700D01*
X106415694Y-121734699D01*
X106542986Y-121700592D01*
X106657114Y-121634700D01*
X106750300Y-121541514D01*
X106816192Y-121427386D01*
X106850299Y-121300094D01*
X106850300Y-121300094D01*
X106850300Y-121168306D01*
X106850299Y-121168305D01*
X106816193Y-121041018D01*
X106816192Y-121041014D01*
X106750300Y-120926886D01*
X106657114Y-120833700D01*
X106626415Y-120815976D01*
X106542990Y-120767810D01*
X106542981Y-120767806D01*
X106415694Y-120733700D01*
X106415692Y-120733700D01*
X106283908Y-120733700D01*
X106283906Y-120733700D01*
X106156618Y-120767806D01*
X106156609Y-120767810D01*
X106042485Y-120833700D01*
X105949300Y-120926885D01*
X105883410Y-121041009D01*
X105883406Y-121041018D01*
X105849300Y-121168305D01*
X50010500Y-121168305D01*
X50010500Y-120431705D01*
X108465500Y-120431705D01*
X108465500Y-120563494D01*
X108499606Y-120690781D01*
X108499607Y-120690784D01*
X108499608Y-120690786D01*
X108565500Y-120804914D01*
X108658686Y-120898100D01*
X108772814Y-120963992D01*
X108900105Y-120998099D01*
X108900106Y-120998100D01*
X108900108Y-120998100D01*
X109031894Y-120998100D01*
X109031894Y-120998099D01*
X109159186Y-120963992D01*
X109273314Y-120898100D01*
X109366500Y-120804914D01*
X109432392Y-120690786D01*
X109450893Y-120621740D01*
X120557500Y-120621740D01*
X120557500Y-120779859D01*
X120598421Y-120932579D01*
X120598422Y-120932581D01*
X120598423Y-120932584D01*
X120677480Y-121069516D01*
X120789284Y-121181320D01*
X120926216Y-121260377D01*
X121078940Y-121301299D01*
X121078941Y-121301300D01*
X121078943Y-121301300D01*
X121237059Y-121301300D01*
X121237059Y-121301299D01*
X121389784Y-121260377D01*
X121526716Y-121181320D01*
X121638520Y-121069516D01*
X121717577Y-120932584D01*
X121758499Y-120779859D01*
X121758500Y-120779859D01*
X121758500Y-120621741D01*
X121758499Y-120621740D01*
X121725235Y-120497598D01*
X121717577Y-120469016D01*
X121638520Y-120332084D01*
X121526716Y-120220280D01*
X121389784Y-120141223D01*
X121389781Y-120141222D01*
X121389779Y-120141221D01*
X121237059Y-120100300D01*
X121237057Y-120100300D01*
X121078943Y-120100300D01*
X121078941Y-120100300D01*
X120926220Y-120141221D01*
X120926214Y-120141224D01*
X120789283Y-120220280D01*
X120677480Y-120332083D01*
X120598424Y-120469014D01*
X120598421Y-120469020D01*
X120557500Y-120621740D01*
X109450893Y-120621740D01*
X109466500Y-120563492D01*
X109466500Y-120431708D01*
X109466500Y-120431706D01*
X109466499Y-120431705D01*
X109432929Y-120306420D01*
X109432392Y-120304414D01*
X109366500Y-120190286D01*
X109273314Y-120097100D01*
X109159190Y-120031210D01*
X109159181Y-120031206D01*
X109031894Y-119997100D01*
X109031892Y-119997100D01*
X108900108Y-119997100D01*
X108900106Y-119997100D01*
X108772818Y-120031206D01*
X108772809Y-120031210D01*
X108658685Y-120097100D01*
X108565500Y-120190285D01*
X108499610Y-120304409D01*
X108499606Y-120304418D01*
X108465500Y-120431705D01*
X50010500Y-120431705D01*
X50010500Y-119896535D01*
X146824500Y-119896535D01*
X146824500Y-120103465D01*
X146832011Y-120141224D01*
X146864868Y-120306413D01*
X146864870Y-120306420D01*
X146944059Y-120497598D01*
X147059023Y-120669655D01*
X147205345Y-120815977D01*
X147377402Y-120930941D01*
X147568580Y-121010130D01*
X147771535Y-121050500D01*
X147771536Y-121050500D01*
X148228464Y-121050500D01*
X148228465Y-121050500D01*
X148431420Y-121010130D01*
X148622598Y-120930941D01*
X148794655Y-120815977D01*
X148940977Y-120669655D01*
X149055941Y-120497598D01*
X149135130Y-120306420D01*
X149175500Y-120103465D01*
X149175500Y-119896535D01*
X154824500Y-119896535D01*
X154824500Y-120103465D01*
X154832011Y-120141224D01*
X154864868Y-120306413D01*
X154864870Y-120306420D01*
X154944059Y-120497598D01*
X155059023Y-120669655D01*
X155205345Y-120815977D01*
X155377402Y-120930941D01*
X155568580Y-121010130D01*
X155771535Y-121050500D01*
X155771536Y-121050500D01*
X156228464Y-121050500D01*
X156228465Y-121050500D01*
X156431420Y-121010130D01*
X156622598Y-120930941D01*
X156794655Y-120815977D01*
X156940977Y-120669655D01*
X157055941Y-120497598D01*
X157135130Y-120306420D01*
X157175500Y-120103465D01*
X157175500Y-119896535D01*
X157135130Y-119693580D01*
X157055941Y-119502402D01*
X156940977Y-119330345D01*
X156794655Y-119184023D01*
X156622598Y-119069059D01*
X156431420Y-118989870D01*
X156431413Y-118989868D01*
X156278516Y-118959455D01*
X156228465Y-118949500D01*
X155771535Y-118949500D01*
X155731385Y-118957486D01*
X155568586Y-118989868D01*
X155568579Y-118989870D01*
X155377401Y-119069059D01*
X155205345Y-119184022D01*
X155205344Y-119184024D01*
X155059024Y-119330344D01*
X155059022Y-119330345D01*
X154944059Y-119502401D01*
X154864870Y-119693579D01*
X154864868Y-119693586D01*
X154824500Y-119896535D01*
X149175500Y-119896535D01*
X149135130Y-119693580D01*
X149055941Y-119502402D01*
X148940977Y-119330345D01*
X148794655Y-119184023D01*
X148622598Y-119069059D01*
X148431420Y-118989870D01*
X148431413Y-118989868D01*
X148278516Y-118959455D01*
X148228465Y-118949500D01*
X147771535Y-118949500D01*
X147731385Y-118957486D01*
X147568586Y-118989868D01*
X147568579Y-118989870D01*
X147377401Y-119069059D01*
X147205345Y-119184022D01*
X147205344Y-119184024D01*
X147059024Y-119330344D01*
X147059022Y-119330345D01*
X146944059Y-119502401D01*
X146864870Y-119693579D01*
X146864868Y-119693586D01*
X146824500Y-119896535D01*
X50010500Y-119896535D01*
X50010500Y-118555979D01*
X70485300Y-118555979D01*
X70485300Y-118668020D01*
X70514295Y-118776232D01*
X70514296Y-118776235D01*
X70514297Y-118776237D01*
X70570315Y-118873263D01*
X70649537Y-118952485D01*
X70746563Y-119008503D01*
X70854779Y-119037499D01*
X70854780Y-119037500D01*
X70854782Y-119037500D01*
X70966820Y-119037500D01*
X70966820Y-119037499D01*
X71075037Y-119008503D01*
X71172063Y-118952485D01*
X71251285Y-118873263D01*
X71307303Y-118776237D01*
X71336299Y-118668020D01*
X71336300Y-118668020D01*
X71336300Y-118555983D01*
X71328128Y-118525485D01*
X71328128Y-118525482D01*
X71324295Y-118511179D01*
X82835700Y-118511179D01*
X82835700Y-118623220D01*
X82864695Y-118731432D01*
X82864699Y-118731441D01*
X82920715Y-118828463D01*
X82999937Y-118907685D01*
X83096963Y-118963703D01*
X83205179Y-118992699D01*
X83205180Y-118992700D01*
X83205182Y-118992700D01*
X83317220Y-118992700D01*
X83317220Y-118992699D01*
X83425437Y-118963703D01*
X83522463Y-118907685D01*
X83601685Y-118828463D01*
X83657703Y-118731437D01*
X83686699Y-118623220D01*
X83686700Y-118623220D01*
X83686700Y-118511180D01*
X83686699Y-118511179D01*
X83657704Y-118402967D01*
X83657703Y-118402963D01*
X83601685Y-118305937D01*
X83522463Y-118226715D01*
X83503033Y-118215497D01*
X83425441Y-118170699D01*
X83425432Y-118170695D01*
X83317220Y-118141700D01*
X83317218Y-118141700D01*
X83205182Y-118141700D01*
X83205180Y-118141700D01*
X83096967Y-118170695D01*
X83096958Y-118170699D01*
X82999936Y-118226715D01*
X82920715Y-118305936D01*
X82864699Y-118402958D01*
X82864695Y-118402967D01*
X82835700Y-118511179D01*
X71324295Y-118511179D01*
X71307304Y-118447767D01*
X71307303Y-118447763D01*
X71251285Y-118350737D01*
X71172063Y-118271515D01*
X71139128Y-118252500D01*
X71075041Y-118215499D01*
X71075032Y-118215495D01*
X70966820Y-118186500D01*
X70966818Y-118186500D01*
X70854782Y-118186500D01*
X70854780Y-118186500D01*
X70746567Y-118215495D01*
X70746558Y-118215499D01*
X70649536Y-118271515D01*
X70570315Y-118350736D01*
X70514299Y-118447758D01*
X70514295Y-118447767D01*
X70485300Y-118555979D01*
X50010500Y-118555979D01*
X50010500Y-117799979D01*
X89338100Y-117799979D01*
X89338100Y-117912020D01*
X89367095Y-118020232D01*
X89367096Y-118020235D01*
X89367097Y-118020237D01*
X89423115Y-118117263D01*
X89502337Y-118196485D01*
X89599363Y-118252503D01*
X89707579Y-118281499D01*
X89707580Y-118281500D01*
X89707582Y-118281500D01*
X89819620Y-118281500D01*
X89819620Y-118281499D01*
X89927837Y-118252503D01*
X90024863Y-118196485D01*
X90104085Y-118117263D01*
X90116993Y-118094905D01*
X98051500Y-118094905D01*
X98051500Y-118226694D01*
X98085606Y-118353981D01*
X98085610Y-118353990D01*
X98130038Y-118430941D01*
X98151500Y-118468114D01*
X98244686Y-118561300D01*
X98358814Y-118627192D01*
X98486105Y-118661299D01*
X98486106Y-118661300D01*
X98486108Y-118661300D01*
X98617894Y-118661300D01*
X98617894Y-118661299D01*
X98745186Y-118627192D01*
X98859314Y-118561300D01*
X98952500Y-118468114D01*
X99018392Y-118353986D01*
X99052499Y-118226694D01*
X99052500Y-118226694D01*
X99052500Y-118094906D01*
X99052499Y-118094905D01*
X99018393Y-117967618D01*
X99018392Y-117967614D01*
X98952500Y-117853486D01*
X98859314Y-117760300D01*
X98745190Y-117694410D01*
X98745181Y-117694406D01*
X98617894Y-117660300D01*
X98617892Y-117660300D01*
X98486108Y-117660300D01*
X98486106Y-117660300D01*
X98358818Y-117694406D01*
X98358809Y-117694410D01*
X98244685Y-117760300D01*
X98151500Y-117853485D01*
X98085610Y-117967609D01*
X98085606Y-117967618D01*
X98051500Y-118094905D01*
X90116993Y-118094905D01*
X90160103Y-118020237D01*
X90189099Y-117912020D01*
X90189100Y-117912020D01*
X90189100Y-117799980D01*
X90189099Y-117799979D01*
X90160104Y-117691767D01*
X90160103Y-117691763D01*
X90104085Y-117594737D01*
X90024863Y-117515515D01*
X89988462Y-117494499D01*
X89927841Y-117459499D01*
X89927832Y-117459495D01*
X89819620Y-117430500D01*
X89819618Y-117430500D01*
X89707582Y-117430500D01*
X89707580Y-117430500D01*
X89599367Y-117459495D01*
X89599358Y-117459499D01*
X89502336Y-117515515D01*
X89423115Y-117594736D01*
X89367099Y-117691758D01*
X89367095Y-117691767D01*
X89338100Y-117799979D01*
X50010500Y-117799979D01*
X50010500Y-116875705D01*
X105112700Y-116875705D01*
X105112700Y-117007494D01*
X105146806Y-117134781D01*
X105146807Y-117134784D01*
X105146808Y-117134786D01*
X105212700Y-117248914D01*
X105305886Y-117342100D01*
X105420014Y-117407992D01*
X105547305Y-117442099D01*
X105547306Y-117442100D01*
X105547308Y-117442100D01*
X105679094Y-117442100D01*
X105679094Y-117442099D01*
X105806386Y-117407992D01*
X105920514Y-117342100D01*
X106013700Y-117248914D01*
X106079592Y-117134786D01*
X106108177Y-117028105D01*
X108871900Y-117028105D01*
X108871900Y-117159894D01*
X108906006Y-117287181D01*
X108906010Y-117287190D01*
X108928293Y-117325785D01*
X108971900Y-117401314D01*
X109065086Y-117494500D01*
X109179214Y-117560392D01*
X109306505Y-117594499D01*
X109306506Y-117594500D01*
X109306508Y-117594500D01*
X109438294Y-117594500D01*
X109438294Y-117594499D01*
X109565586Y-117560392D01*
X109679714Y-117494500D01*
X109772900Y-117401314D01*
X109838792Y-117287186D01*
X109872899Y-117159894D01*
X109872900Y-117159894D01*
X109872900Y-117028106D01*
X109872899Y-117028102D01*
X109869372Y-117014940D01*
X120557500Y-117014940D01*
X120557500Y-117173059D01*
X120598421Y-117325779D01*
X120598422Y-117325781D01*
X120598423Y-117325784D01*
X120677480Y-117462716D01*
X120789284Y-117574520D01*
X120926216Y-117653577D01*
X121078940Y-117694499D01*
X121078941Y-117694500D01*
X121078943Y-117694500D01*
X121237059Y-117694500D01*
X121237059Y-117694499D01*
X121389784Y-117653577D01*
X121526716Y-117574520D01*
X121638520Y-117462716D01*
X121676729Y-117396535D01*
X146824500Y-117396535D01*
X146824500Y-117603464D01*
X146864868Y-117806413D01*
X146864870Y-117806420D01*
X146944059Y-117997598D01*
X147009077Y-118094906D01*
X147059023Y-118169655D01*
X147205345Y-118315977D01*
X147377402Y-118430941D01*
X147568580Y-118510130D01*
X147771535Y-118550500D01*
X147771536Y-118550500D01*
X148228464Y-118550500D01*
X148228465Y-118550500D01*
X148431420Y-118510130D01*
X148622598Y-118430941D01*
X148794655Y-118315977D01*
X148940977Y-118169655D01*
X149055941Y-117997598D01*
X149135130Y-117806420D01*
X149175500Y-117603465D01*
X149175500Y-117396535D01*
X154824500Y-117396535D01*
X154824500Y-117603464D01*
X154864868Y-117806413D01*
X154864870Y-117806420D01*
X154944059Y-117997598D01*
X155009077Y-118094906D01*
X155059023Y-118169655D01*
X155205345Y-118315977D01*
X155377402Y-118430941D01*
X155568580Y-118510130D01*
X155771535Y-118550500D01*
X155771536Y-118550500D01*
X156228464Y-118550500D01*
X156228465Y-118550500D01*
X156431420Y-118510130D01*
X156622598Y-118430941D01*
X156794655Y-118315977D01*
X156940977Y-118169655D01*
X157055941Y-117997598D01*
X157135130Y-117806420D01*
X157136411Y-117799979D01*
X161118500Y-117799979D01*
X161118500Y-117912020D01*
X161147495Y-118020232D01*
X161147496Y-118020235D01*
X161147497Y-118020237D01*
X161203515Y-118117263D01*
X161282737Y-118196485D01*
X161379763Y-118252503D01*
X161487979Y-118281499D01*
X161487980Y-118281500D01*
X161487982Y-118281500D01*
X161600020Y-118281500D01*
X161600020Y-118281499D01*
X161708237Y-118252503D01*
X161805263Y-118196485D01*
X161884485Y-118117263D01*
X161940503Y-118020237D01*
X161969499Y-117912020D01*
X161969500Y-117912020D01*
X161969500Y-117799980D01*
X161969499Y-117799979D01*
X162134500Y-117799979D01*
X162134500Y-117912020D01*
X162163495Y-118020232D01*
X162163496Y-118020235D01*
X162163497Y-118020237D01*
X162219515Y-118117263D01*
X162298737Y-118196485D01*
X162395763Y-118252503D01*
X162503979Y-118281499D01*
X162503980Y-118281500D01*
X162503982Y-118281500D01*
X162616020Y-118281500D01*
X162616020Y-118281499D01*
X162724237Y-118252503D01*
X162821263Y-118196485D01*
X162900485Y-118117263D01*
X162956503Y-118020237D01*
X162985499Y-117912020D01*
X162985500Y-117912020D01*
X162985500Y-117799980D01*
X162985499Y-117799979D01*
X163150500Y-117799979D01*
X163150500Y-117912020D01*
X163179495Y-118020232D01*
X163179496Y-118020235D01*
X163179497Y-118020237D01*
X163235515Y-118117263D01*
X163314737Y-118196485D01*
X163411763Y-118252503D01*
X163519979Y-118281499D01*
X163519980Y-118281500D01*
X163519982Y-118281500D01*
X163632020Y-118281500D01*
X163632020Y-118281499D01*
X163740237Y-118252503D01*
X163837263Y-118196485D01*
X163916485Y-118117263D01*
X163972503Y-118020237D01*
X164001499Y-117912020D01*
X164001500Y-117912020D01*
X164001500Y-117799980D01*
X164001499Y-117799979D01*
X164166500Y-117799979D01*
X164166500Y-117912020D01*
X164195495Y-118020232D01*
X164195496Y-118020235D01*
X164195497Y-118020237D01*
X164251515Y-118117263D01*
X164330737Y-118196485D01*
X164427763Y-118252503D01*
X164535979Y-118281499D01*
X164535980Y-118281500D01*
X164535982Y-118281500D01*
X164648020Y-118281500D01*
X164648020Y-118281499D01*
X164756237Y-118252503D01*
X164853263Y-118196485D01*
X164932485Y-118117263D01*
X164988503Y-118020237D01*
X165017499Y-117912020D01*
X165017500Y-117912020D01*
X165017500Y-117799980D01*
X165017499Y-117799979D01*
X165182500Y-117799979D01*
X165182500Y-117912020D01*
X165211495Y-118020232D01*
X165211496Y-118020235D01*
X165211497Y-118020237D01*
X165267515Y-118117263D01*
X165346737Y-118196485D01*
X165443763Y-118252503D01*
X165551979Y-118281499D01*
X165551980Y-118281500D01*
X165551982Y-118281500D01*
X165664020Y-118281500D01*
X165664020Y-118281499D01*
X165772237Y-118252503D01*
X165869263Y-118196485D01*
X165948485Y-118117263D01*
X166004503Y-118020237D01*
X166033499Y-117912020D01*
X166033500Y-117912020D01*
X166033500Y-117799980D01*
X166033499Y-117799979D01*
X166198500Y-117799979D01*
X166198500Y-117912020D01*
X166227495Y-118020232D01*
X166227496Y-118020235D01*
X166227497Y-118020237D01*
X166283515Y-118117263D01*
X166362737Y-118196485D01*
X166459763Y-118252503D01*
X166567979Y-118281499D01*
X166567980Y-118281500D01*
X166567982Y-118281500D01*
X166680020Y-118281500D01*
X166680020Y-118281499D01*
X166788237Y-118252503D01*
X166885263Y-118196485D01*
X166964485Y-118117263D01*
X167020503Y-118020237D01*
X167049499Y-117912020D01*
X167049500Y-117912020D01*
X167049500Y-117799980D01*
X167049499Y-117799979D01*
X167214500Y-117799979D01*
X167214500Y-117912020D01*
X167243495Y-118020232D01*
X167243496Y-118020235D01*
X167243497Y-118020237D01*
X167299515Y-118117263D01*
X167378737Y-118196485D01*
X167475763Y-118252503D01*
X167583979Y-118281499D01*
X167583980Y-118281500D01*
X167583982Y-118281500D01*
X167696020Y-118281500D01*
X167696020Y-118281499D01*
X167804237Y-118252503D01*
X167901263Y-118196485D01*
X167980485Y-118117263D01*
X168036503Y-118020237D01*
X168065499Y-117912020D01*
X168065500Y-117912020D01*
X168065500Y-117799980D01*
X168065499Y-117799979D01*
X168230500Y-117799979D01*
X168230500Y-117912020D01*
X168259495Y-118020232D01*
X168259496Y-118020235D01*
X168259497Y-118020237D01*
X168315515Y-118117263D01*
X168394737Y-118196485D01*
X168491763Y-118252503D01*
X168599979Y-118281499D01*
X168599980Y-118281500D01*
X168599982Y-118281500D01*
X168712020Y-118281500D01*
X168712020Y-118281499D01*
X168820237Y-118252503D01*
X168917263Y-118196485D01*
X168996485Y-118117263D01*
X169052503Y-118020237D01*
X169081499Y-117912020D01*
X169081500Y-117912020D01*
X169081500Y-117799980D01*
X169081499Y-117799979D01*
X169052504Y-117691767D01*
X169052503Y-117691763D01*
X168996485Y-117594737D01*
X168917263Y-117515515D01*
X168880862Y-117494499D01*
X168820241Y-117459499D01*
X168820232Y-117459495D01*
X168712020Y-117430500D01*
X168712018Y-117430500D01*
X168599982Y-117430500D01*
X168599980Y-117430500D01*
X168491767Y-117459495D01*
X168491758Y-117459499D01*
X168394736Y-117515515D01*
X168315515Y-117594736D01*
X168259499Y-117691758D01*
X168259495Y-117691767D01*
X168230500Y-117799979D01*
X168065499Y-117799979D01*
X168036504Y-117691767D01*
X168036503Y-117691763D01*
X167980485Y-117594737D01*
X167901263Y-117515515D01*
X167864862Y-117494499D01*
X167804241Y-117459499D01*
X167804232Y-117459495D01*
X167696020Y-117430500D01*
X167696018Y-117430500D01*
X167583982Y-117430500D01*
X167583980Y-117430500D01*
X167475767Y-117459495D01*
X167475758Y-117459499D01*
X167378736Y-117515515D01*
X167299515Y-117594736D01*
X167243499Y-117691758D01*
X167243495Y-117691767D01*
X167214500Y-117799979D01*
X167049499Y-117799979D01*
X167020504Y-117691767D01*
X167020503Y-117691763D01*
X166964485Y-117594737D01*
X166885263Y-117515515D01*
X166848862Y-117494499D01*
X166788241Y-117459499D01*
X166788232Y-117459495D01*
X166680020Y-117430500D01*
X166680018Y-117430500D01*
X166567982Y-117430500D01*
X166567980Y-117430500D01*
X166459767Y-117459495D01*
X166459758Y-117459499D01*
X166362736Y-117515515D01*
X166283515Y-117594736D01*
X166227499Y-117691758D01*
X166227495Y-117691767D01*
X166198500Y-117799979D01*
X166033499Y-117799979D01*
X166004504Y-117691767D01*
X166004503Y-117691763D01*
X165948485Y-117594737D01*
X165869263Y-117515515D01*
X165832862Y-117494499D01*
X165772241Y-117459499D01*
X165772232Y-117459495D01*
X165664020Y-117430500D01*
X165664018Y-117430500D01*
X165551982Y-117430500D01*
X165551980Y-117430500D01*
X165443767Y-117459495D01*
X165443758Y-117459499D01*
X165346736Y-117515515D01*
X165267515Y-117594736D01*
X165211499Y-117691758D01*
X165211495Y-117691767D01*
X165182500Y-117799979D01*
X165017499Y-117799979D01*
X164988504Y-117691767D01*
X164988503Y-117691763D01*
X164932485Y-117594737D01*
X164853263Y-117515515D01*
X164816862Y-117494499D01*
X164756241Y-117459499D01*
X164756232Y-117459495D01*
X164648020Y-117430500D01*
X164648018Y-117430500D01*
X164535982Y-117430500D01*
X164535980Y-117430500D01*
X164427767Y-117459495D01*
X164427758Y-117459499D01*
X164330736Y-117515515D01*
X164251515Y-117594736D01*
X164195499Y-117691758D01*
X164195495Y-117691767D01*
X164166500Y-117799979D01*
X164001499Y-117799979D01*
X163972504Y-117691767D01*
X163972503Y-117691763D01*
X163916485Y-117594737D01*
X163837263Y-117515515D01*
X163800862Y-117494499D01*
X163740241Y-117459499D01*
X163740232Y-117459495D01*
X163632020Y-117430500D01*
X163632018Y-117430500D01*
X163519982Y-117430500D01*
X163519980Y-117430500D01*
X163411767Y-117459495D01*
X163411758Y-117459499D01*
X163314736Y-117515515D01*
X163235515Y-117594736D01*
X163179499Y-117691758D01*
X163179495Y-117691767D01*
X163150500Y-117799979D01*
X162985499Y-117799979D01*
X162956504Y-117691767D01*
X162956503Y-117691763D01*
X162900485Y-117594737D01*
X162821263Y-117515515D01*
X162784862Y-117494499D01*
X162724241Y-117459499D01*
X162724232Y-117459495D01*
X162616020Y-117430500D01*
X162616018Y-117430500D01*
X162503982Y-117430500D01*
X162503980Y-117430500D01*
X162395767Y-117459495D01*
X162395758Y-117459499D01*
X162298736Y-117515515D01*
X162219515Y-117594736D01*
X162163499Y-117691758D01*
X162163495Y-117691767D01*
X162134500Y-117799979D01*
X161969499Y-117799979D01*
X161940504Y-117691767D01*
X161940503Y-117691763D01*
X161884485Y-117594737D01*
X161805263Y-117515515D01*
X161768862Y-117494499D01*
X161708241Y-117459499D01*
X161708232Y-117459495D01*
X161600020Y-117430500D01*
X161600018Y-117430500D01*
X161487982Y-117430500D01*
X161487980Y-117430500D01*
X161379767Y-117459495D01*
X161379758Y-117459499D01*
X161282736Y-117515515D01*
X161203515Y-117594736D01*
X161147499Y-117691758D01*
X161147495Y-117691767D01*
X161118500Y-117799979D01*
X157136411Y-117799979D01*
X157175500Y-117603465D01*
X157175500Y-117396535D01*
X157135130Y-117193580D01*
X157055941Y-117002402D01*
X156940977Y-116830345D01*
X156894611Y-116783979D01*
X161118500Y-116783979D01*
X161118500Y-116896020D01*
X161147495Y-117004232D01*
X161147499Y-117004241D01*
X161149376Y-117007492D01*
X161203515Y-117101263D01*
X161282737Y-117180485D01*
X161379763Y-117236503D01*
X161487979Y-117265499D01*
X161487980Y-117265500D01*
X161487982Y-117265500D01*
X161600020Y-117265500D01*
X161600020Y-117265499D01*
X161708237Y-117236503D01*
X161805263Y-117180485D01*
X161884485Y-117101263D01*
X161940503Y-117004237D01*
X161969499Y-116896020D01*
X161969500Y-116896020D01*
X161969500Y-116783980D01*
X161969499Y-116783979D01*
X168230500Y-116783979D01*
X168230500Y-116896020D01*
X168259495Y-117004232D01*
X168259499Y-117004241D01*
X168261376Y-117007492D01*
X168315515Y-117101263D01*
X168394737Y-117180485D01*
X168491763Y-117236503D01*
X168599979Y-117265499D01*
X168599980Y-117265500D01*
X168599982Y-117265500D01*
X168712020Y-117265500D01*
X168712020Y-117265499D01*
X168820237Y-117236503D01*
X168917263Y-117180485D01*
X168996485Y-117101263D01*
X169052503Y-117004237D01*
X169081499Y-116896020D01*
X169081500Y-116896020D01*
X169081500Y-116783980D01*
X169081499Y-116783979D01*
X169071969Y-116748414D01*
X169052503Y-116675763D01*
X168996485Y-116578737D01*
X168917263Y-116499515D01*
X168875159Y-116475206D01*
X168820241Y-116443499D01*
X168820232Y-116443495D01*
X168712020Y-116414500D01*
X168712018Y-116414500D01*
X168599982Y-116414500D01*
X168599980Y-116414500D01*
X168491767Y-116443495D01*
X168491758Y-116443499D01*
X168394736Y-116499515D01*
X168315515Y-116578736D01*
X168259499Y-116675758D01*
X168259495Y-116675767D01*
X168230500Y-116783979D01*
X161969499Y-116783979D01*
X161959969Y-116748414D01*
X161940503Y-116675763D01*
X161884485Y-116578737D01*
X161805263Y-116499515D01*
X161763159Y-116475206D01*
X161708241Y-116443499D01*
X161708232Y-116443495D01*
X161600020Y-116414500D01*
X161600018Y-116414500D01*
X161487982Y-116414500D01*
X161487980Y-116414500D01*
X161379767Y-116443495D01*
X161379758Y-116443499D01*
X161282736Y-116499515D01*
X161203515Y-116578736D01*
X161147499Y-116675758D01*
X161147495Y-116675767D01*
X161118500Y-116783979D01*
X156894611Y-116783979D01*
X156794655Y-116684023D01*
X156782285Y-116675758D01*
X156622598Y-116569059D01*
X156431420Y-116489870D01*
X156431413Y-116489868D01*
X156278516Y-116459455D01*
X156228465Y-116449500D01*
X155771535Y-116449500D01*
X155731385Y-116457486D01*
X155568586Y-116489868D01*
X155568579Y-116489870D01*
X155377401Y-116569059D01*
X155205345Y-116684022D01*
X155205344Y-116684024D01*
X155059024Y-116830344D01*
X155059022Y-116830345D01*
X154944059Y-117002401D01*
X154864870Y-117193579D01*
X154864868Y-117193586D01*
X154824500Y-117396535D01*
X149175500Y-117396535D01*
X149135130Y-117193580D01*
X149055941Y-117002402D01*
X148940977Y-116830345D01*
X148794655Y-116684023D01*
X148782285Y-116675758D01*
X148622598Y-116569059D01*
X148431420Y-116489870D01*
X148431413Y-116489868D01*
X148278516Y-116459455D01*
X148228465Y-116449500D01*
X147771535Y-116449500D01*
X147731385Y-116457486D01*
X147568586Y-116489868D01*
X147568579Y-116489870D01*
X147377401Y-116569059D01*
X147205345Y-116684022D01*
X147205344Y-116684024D01*
X147059024Y-116830344D01*
X147059022Y-116830345D01*
X146944059Y-117002401D01*
X146864870Y-117193579D01*
X146864868Y-117193586D01*
X146824500Y-117396535D01*
X121676729Y-117396535D01*
X121717577Y-117325784D01*
X121758499Y-117173059D01*
X121758500Y-117173059D01*
X121758500Y-117014941D01*
X121758499Y-117014940D01*
X121756503Y-117007492D01*
X121717577Y-116862216D01*
X121638520Y-116725284D01*
X121526716Y-116613480D01*
X121452627Y-116570705D01*
X128480900Y-116570705D01*
X128480900Y-116702494D01*
X128515006Y-116829781D01*
X128515010Y-116829790D01*
X128533734Y-116862220D01*
X128580900Y-116943914D01*
X128674086Y-117037100D01*
X128788214Y-117102992D01*
X128915505Y-117137099D01*
X128915506Y-117137100D01*
X128915508Y-117137100D01*
X129047294Y-117137100D01*
X129047294Y-117137099D01*
X129174586Y-117102992D01*
X129288714Y-117037100D01*
X129381900Y-116943914D01*
X129447792Y-116829786D01*
X129481899Y-116702494D01*
X129481900Y-116702494D01*
X129481900Y-116570706D01*
X129481899Y-116570705D01*
X129473966Y-116541100D01*
X129447792Y-116443414D01*
X129381900Y-116329286D01*
X129288714Y-116236100D01*
X129261694Y-116220500D01*
X129174590Y-116170210D01*
X129174581Y-116170206D01*
X129047294Y-116136100D01*
X129047292Y-116136100D01*
X128915508Y-116136100D01*
X128915506Y-116136100D01*
X128788218Y-116170206D01*
X128788209Y-116170210D01*
X128674085Y-116236100D01*
X128580900Y-116329285D01*
X128515010Y-116443409D01*
X128515006Y-116443418D01*
X128480900Y-116570705D01*
X121452627Y-116570705D01*
X121389784Y-116534423D01*
X121389781Y-116534422D01*
X121389779Y-116534421D01*
X121237059Y-116493500D01*
X121237057Y-116493500D01*
X121078943Y-116493500D01*
X121078941Y-116493500D01*
X120926220Y-116534421D01*
X120926214Y-116534424D01*
X120789283Y-116613480D01*
X120677480Y-116725283D01*
X120598424Y-116862214D01*
X120598421Y-116862220D01*
X120557500Y-117014940D01*
X109869372Y-117014940D01*
X109838793Y-116900818D01*
X109838792Y-116900814D01*
X109772900Y-116786686D01*
X109679714Y-116693500D01*
X109577151Y-116634285D01*
X109565590Y-116627610D01*
X109565581Y-116627606D01*
X109438294Y-116593500D01*
X109438292Y-116593500D01*
X109306508Y-116593500D01*
X109306506Y-116593500D01*
X109179218Y-116627606D01*
X109179209Y-116627610D01*
X109065085Y-116693500D01*
X108971900Y-116786685D01*
X108906010Y-116900809D01*
X108906006Y-116900818D01*
X108871900Y-117028105D01*
X106108177Y-117028105D01*
X106113700Y-117007492D01*
X106113700Y-116875708D01*
X106113700Y-116875706D01*
X106113699Y-116875705D01*
X106089846Y-116786685D01*
X106079592Y-116748414D01*
X106013700Y-116634286D01*
X105920514Y-116541100D01*
X105838069Y-116493500D01*
X105806390Y-116475210D01*
X105806381Y-116475206D01*
X105679094Y-116441100D01*
X105679092Y-116441100D01*
X105547308Y-116441100D01*
X105547306Y-116441100D01*
X105420018Y-116475206D01*
X105420009Y-116475210D01*
X105305885Y-116541100D01*
X105212700Y-116634285D01*
X105146810Y-116748409D01*
X105146806Y-116748418D01*
X105112700Y-116875705D01*
X50010500Y-116875705D01*
X50010500Y-114896535D01*
X146824500Y-114896535D01*
X146824500Y-115103464D01*
X146864868Y-115306413D01*
X146864870Y-115306420D01*
X146944059Y-115497598D01*
X146987582Y-115562736D01*
X147059023Y-115669655D01*
X147205345Y-115815977D01*
X147377402Y-115930941D01*
X147568580Y-116010130D01*
X147771535Y-116050500D01*
X147771536Y-116050500D01*
X148228464Y-116050500D01*
X148228465Y-116050500D01*
X148431420Y-116010130D01*
X148622598Y-115930941D01*
X148794655Y-115815977D01*
X148940977Y-115669655D01*
X149055941Y-115497598D01*
X149135130Y-115306420D01*
X149175500Y-115103465D01*
X149175500Y-114896535D01*
X154824500Y-114896535D01*
X154824500Y-115103464D01*
X154864868Y-115306413D01*
X154864870Y-115306420D01*
X154944059Y-115497598D01*
X154987582Y-115562736D01*
X155059023Y-115669655D01*
X155205345Y-115815977D01*
X155377402Y-115930941D01*
X155568580Y-116010130D01*
X155771535Y-116050500D01*
X155771536Y-116050500D01*
X156228464Y-116050500D01*
X156228465Y-116050500D01*
X156431420Y-116010130D01*
X156622598Y-115930941D01*
X156794655Y-115815977D01*
X156842653Y-115767979D01*
X161118500Y-115767979D01*
X161118500Y-115880020D01*
X161147495Y-115988232D01*
X161147499Y-115988241D01*
X161203515Y-116085263D01*
X161282737Y-116164485D01*
X161379763Y-116220503D01*
X161487979Y-116249499D01*
X161487980Y-116249500D01*
X161487982Y-116249500D01*
X161600020Y-116249500D01*
X161600020Y-116249499D01*
X161708237Y-116220503D01*
X161805263Y-116164485D01*
X161884485Y-116085263D01*
X161940503Y-115988237D01*
X161969499Y-115880020D01*
X161969500Y-115880020D01*
X161969500Y-115767980D01*
X161969499Y-115767979D01*
X168230500Y-115767979D01*
X168230500Y-115880020D01*
X168259495Y-115988232D01*
X168259499Y-115988241D01*
X168315515Y-116085263D01*
X168394737Y-116164485D01*
X168491763Y-116220503D01*
X168599979Y-116249499D01*
X168599980Y-116249500D01*
X168599982Y-116249500D01*
X168712020Y-116249500D01*
X168712020Y-116249499D01*
X168820237Y-116220503D01*
X168917263Y-116164485D01*
X168996485Y-116085263D01*
X169052503Y-115988237D01*
X169081499Y-115880020D01*
X169081500Y-115880020D01*
X169081500Y-115767980D01*
X169081499Y-115767979D01*
X169055153Y-115669655D01*
X169052503Y-115659763D01*
X168996485Y-115562737D01*
X168917263Y-115483515D01*
X168820241Y-115427499D01*
X168820232Y-115427495D01*
X168712020Y-115398500D01*
X168712018Y-115398500D01*
X168599982Y-115398500D01*
X168599980Y-115398500D01*
X168491767Y-115427495D01*
X168491758Y-115427499D01*
X168394736Y-115483515D01*
X168315515Y-115562736D01*
X168259499Y-115659758D01*
X168259495Y-115659767D01*
X168230500Y-115767979D01*
X161969499Y-115767979D01*
X161943153Y-115669655D01*
X161940503Y-115659763D01*
X161884485Y-115562737D01*
X161805263Y-115483515D01*
X161708241Y-115427499D01*
X161708232Y-115427495D01*
X161600020Y-115398500D01*
X161600018Y-115398500D01*
X161487982Y-115398500D01*
X161487980Y-115398500D01*
X161379767Y-115427495D01*
X161379758Y-115427499D01*
X161282736Y-115483515D01*
X161203515Y-115562736D01*
X161147499Y-115659758D01*
X161147495Y-115659767D01*
X161118500Y-115767979D01*
X156842653Y-115767979D01*
X156940977Y-115669655D01*
X157055941Y-115497598D01*
X157135130Y-115306420D01*
X157175500Y-115103465D01*
X157175500Y-114896535D01*
X157148654Y-114761568D01*
X157146747Y-114751979D01*
X161118500Y-114751979D01*
X161118500Y-114864020D01*
X161147495Y-114972232D01*
X161147496Y-114972235D01*
X161147497Y-114972237D01*
X161203515Y-115069263D01*
X161282737Y-115148485D01*
X161379763Y-115204503D01*
X161487979Y-115233499D01*
X161487980Y-115233500D01*
X161487982Y-115233500D01*
X161600020Y-115233500D01*
X161600020Y-115233499D01*
X161708237Y-115204503D01*
X161805263Y-115148485D01*
X161884485Y-115069263D01*
X161940503Y-114972237D01*
X161969499Y-114864020D01*
X161969500Y-114864020D01*
X161969500Y-114751980D01*
X161969499Y-114751979D01*
X168230500Y-114751979D01*
X168230500Y-114864020D01*
X168259495Y-114972232D01*
X168259496Y-114972235D01*
X168259497Y-114972237D01*
X168315515Y-115069263D01*
X168394737Y-115148485D01*
X168491763Y-115204503D01*
X168599979Y-115233499D01*
X168599980Y-115233500D01*
X168599982Y-115233500D01*
X168712020Y-115233500D01*
X168712020Y-115233499D01*
X168820237Y-115204503D01*
X168917263Y-115148485D01*
X168996485Y-115069263D01*
X169052503Y-114972237D01*
X169081499Y-114864020D01*
X169081500Y-114864020D01*
X169081500Y-114751980D01*
X169081499Y-114751979D01*
X169052504Y-114643767D01*
X169052503Y-114643763D01*
X168996485Y-114546737D01*
X168917263Y-114467515D01*
X168820241Y-114411499D01*
X168820232Y-114411495D01*
X168712020Y-114382500D01*
X168712018Y-114382500D01*
X168599982Y-114382500D01*
X168599980Y-114382500D01*
X168491767Y-114411495D01*
X168491758Y-114411499D01*
X168394736Y-114467515D01*
X168315515Y-114546736D01*
X168259499Y-114643758D01*
X168259495Y-114643767D01*
X168230500Y-114751979D01*
X161969499Y-114751979D01*
X161940504Y-114643767D01*
X161940503Y-114643763D01*
X161884485Y-114546737D01*
X161805263Y-114467515D01*
X161708241Y-114411499D01*
X161708232Y-114411495D01*
X161600020Y-114382500D01*
X161600018Y-114382500D01*
X161487982Y-114382500D01*
X161487980Y-114382500D01*
X161379767Y-114411495D01*
X161379758Y-114411499D01*
X161282736Y-114467515D01*
X161203515Y-114546736D01*
X161147499Y-114643758D01*
X161147495Y-114643767D01*
X161118500Y-114751979D01*
X157146747Y-114751979D01*
X157135131Y-114693585D01*
X157135130Y-114693584D01*
X157135130Y-114693580D01*
X157055941Y-114502402D01*
X156940977Y-114330345D01*
X156794655Y-114184023D01*
X156717522Y-114132485D01*
X156622598Y-114069059D01*
X156431420Y-113989870D01*
X156431413Y-113989868D01*
X156278516Y-113959455D01*
X156228465Y-113949500D01*
X155771535Y-113949500D01*
X155731385Y-113957486D01*
X155568586Y-113989868D01*
X155568579Y-113989870D01*
X155377401Y-114069059D01*
X155205345Y-114184022D01*
X155205344Y-114184024D01*
X155059024Y-114330344D01*
X155059022Y-114330345D01*
X154944059Y-114502401D01*
X154864870Y-114693579D01*
X154864868Y-114693586D01*
X154824500Y-114896535D01*
X149175500Y-114896535D01*
X149135130Y-114693580D01*
X149055941Y-114502402D01*
X148940977Y-114330345D01*
X148794655Y-114184023D01*
X148717522Y-114132485D01*
X148622598Y-114069059D01*
X148431420Y-113989870D01*
X148431413Y-113989868D01*
X148278516Y-113959455D01*
X148228465Y-113949500D01*
X147771535Y-113949500D01*
X147731385Y-113957486D01*
X147568586Y-113989868D01*
X147568579Y-113989870D01*
X147377401Y-114069059D01*
X147205345Y-114184022D01*
X147205344Y-114184024D01*
X147059024Y-114330344D01*
X147059022Y-114330345D01*
X146944059Y-114502401D01*
X146864870Y-114693579D01*
X146864868Y-114693586D01*
X146824500Y-114896535D01*
X50010500Y-114896535D01*
X50010500Y-113735979D01*
X161118500Y-113735979D01*
X161118500Y-113848020D01*
X161147495Y-113956232D01*
X161147496Y-113956235D01*
X161147497Y-113956237D01*
X161203515Y-114053263D01*
X161282737Y-114132485D01*
X161379763Y-114188503D01*
X161487979Y-114217499D01*
X161487980Y-114217500D01*
X161487982Y-114217500D01*
X161600020Y-114217500D01*
X161600020Y-114217499D01*
X161708237Y-114188503D01*
X161805263Y-114132485D01*
X161884485Y-114053263D01*
X161940503Y-113956237D01*
X161969499Y-113848020D01*
X161969500Y-113848020D01*
X161969500Y-113735980D01*
X161969499Y-113735979D01*
X168230500Y-113735979D01*
X168230500Y-113848020D01*
X168259495Y-113956232D01*
X168259496Y-113956235D01*
X168259497Y-113956237D01*
X168315515Y-114053263D01*
X168394737Y-114132485D01*
X168491763Y-114188503D01*
X168599979Y-114217499D01*
X168599980Y-114217500D01*
X168599982Y-114217500D01*
X168712020Y-114217500D01*
X168712020Y-114217499D01*
X168820237Y-114188503D01*
X168917263Y-114132485D01*
X168996485Y-114053263D01*
X169052503Y-113956237D01*
X169081499Y-113848020D01*
X169081500Y-113848020D01*
X169081500Y-113735980D01*
X169081499Y-113735979D01*
X169052504Y-113627767D01*
X169052503Y-113627763D01*
X168996485Y-113530737D01*
X168917263Y-113451515D01*
X168881626Y-113430940D01*
X168820241Y-113395499D01*
X168820232Y-113395495D01*
X168712020Y-113366500D01*
X168712018Y-113366500D01*
X168599982Y-113366500D01*
X168599980Y-113366500D01*
X168491767Y-113395495D01*
X168491758Y-113395499D01*
X168394736Y-113451515D01*
X168315515Y-113530736D01*
X168259499Y-113627758D01*
X168259495Y-113627767D01*
X168230500Y-113735979D01*
X161969499Y-113735979D01*
X161940504Y-113627767D01*
X161940503Y-113627763D01*
X161884485Y-113530737D01*
X161805263Y-113451515D01*
X161769626Y-113430940D01*
X161708241Y-113395499D01*
X161708232Y-113395495D01*
X161600020Y-113366500D01*
X161600018Y-113366500D01*
X161487982Y-113366500D01*
X161487980Y-113366500D01*
X161379767Y-113395495D01*
X161379758Y-113395499D01*
X161282736Y-113451515D01*
X161203515Y-113530736D01*
X161147499Y-113627758D01*
X161147495Y-113627767D01*
X161118500Y-113735979D01*
X50010500Y-113735979D01*
X50010500Y-112262779D01*
X72015300Y-112262779D01*
X72015300Y-112374820D01*
X72044295Y-112483032D01*
X72044296Y-112483035D01*
X72044297Y-112483037D01*
X72100315Y-112580063D01*
X72179537Y-112659285D01*
X72276563Y-112715303D01*
X72384779Y-112744299D01*
X72384780Y-112744300D01*
X72384782Y-112744300D01*
X72496820Y-112744300D01*
X72496820Y-112744299D01*
X72605037Y-112715303D01*
X72702063Y-112659285D01*
X72781285Y-112580063D01*
X72837303Y-112483037D01*
X72866299Y-112374820D01*
X72866300Y-112374820D01*
X72866300Y-112262780D01*
X72866299Y-112262779D01*
X87864900Y-112262779D01*
X87864900Y-112374820D01*
X87893895Y-112483032D01*
X87893896Y-112483035D01*
X87893897Y-112483037D01*
X87949915Y-112580063D01*
X88029137Y-112659285D01*
X88126163Y-112715303D01*
X88234379Y-112744299D01*
X88234380Y-112744300D01*
X88234382Y-112744300D01*
X88346420Y-112744300D01*
X88346420Y-112744299D01*
X88454637Y-112715303D01*
X88551663Y-112659285D01*
X88630885Y-112580063D01*
X88686903Y-112483037D01*
X88710081Y-112396535D01*
X146824500Y-112396535D01*
X146824500Y-112603465D01*
X146834455Y-112653516D01*
X146864868Y-112806413D01*
X146864870Y-112806420D01*
X146944059Y-112997598D01*
X147023495Y-113116484D01*
X147059023Y-113169655D01*
X147205345Y-113315977D01*
X147377402Y-113430941D01*
X147568580Y-113510130D01*
X147771535Y-113550500D01*
X147771536Y-113550500D01*
X148228464Y-113550500D01*
X148228465Y-113550500D01*
X148431420Y-113510130D01*
X148622598Y-113430941D01*
X148794655Y-113315977D01*
X148940977Y-113169655D01*
X149055941Y-112997598D01*
X149135130Y-112806420D01*
X149175500Y-112603465D01*
X149175500Y-112396535D01*
X154824500Y-112396535D01*
X154824500Y-112603465D01*
X154834455Y-112653516D01*
X154864868Y-112806413D01*
X154864870Y-112806420D01*
X154944059Y-112997598D01*
X155023495Y-113116484D01*
X155059023Y-113169655D01*
X155205345Y-113315977D01*
X155377402Y-113430941D01*
X155568580Y-113510130D01*
X155771535Y-113550500D01*
X155771536Y-113550500D01*
X156228464Y-113550500D01*
X156228465Y-113550500D01*
X156431420Y-113510130D01*
X156622598Y-113430941D01*
X156794655Y-113315977D01*
X156940977Y-113169655D01*
X157055941Y-112997598D01*
X157135130Y-112806420D01*
X157147899Y-112742220D01*
X157152324Y-112719979D01*
X161118500Y-112719979D01*
X161118500Y-112832020D01*
X161147495Y-112940232D01*
X161147496Y-112940235D01*
X161147497Y-112940237D01*
X161203515Y-113037263D01*
X161282737Y-113116485D01*
X161379763Y-113172503D01*
X161487979Y-113201499D01*
X161487980Y-113201500D01*
X161487982Y-113201500D01*
X161600020Y-113201500D01*
X161600020Y-113201499D01*
X161708237Y-113172503D01*
X161805263Y-113116485D01*
X161884485Y-113037263D01*
X161940503Y-112940237D01*
X161969499Y-112832020D01*
X161969500Y-112832020D01*
X161969500Y-112719980D01*
X161969499Y-112719979D01*
X168230500Y-112719979D01*
X168230500Y-112832020D01*
X168259495Y-112940232D01*
X168259496Y-112940235D01*
X168259497Y-112940237D01*
X168315515Y-113037263D01*
X168394737Y-113116485D01*
X168491763Y-113172503D01*
X168599979Y-113201499D01*
X168599980Y-113201500D01*
X168599982Y-113201500D01*
X168712020Y-113201500D01*
X168712020Y-113201499D01*
X168820237Y-113172503D01*
X168917263Y-113116485D01*
X168996485Y-113037263D01*
X169052503Y-112940237D01*
X169081499Y-112832020D01*
X169081500Y-112832020D01*
X169081500Y-112719980D01*
X169081499Y-112719979D01*
X169080246Y-112715304D01*
X169052503Y-112611763D01*
X168996485Y-112514737D01*
X168917263Y-112435515D01*
X168849748Y-112396535D01*
X168820241Y-112379499D01*
X168820232Y-112379495D01*
X168712020Y-112350500D01*
X168712018Y-112350500D01*
X168599982Y-112350500D01*
X168599980Y-112350500D01*
X168491767Y-112379495D01*
X168491758Y-112379499D01*
X168394736Y-112435515D01*
X168315515Y-112514736D01*
X168259499Y-112611758D01*
X168259495Y-112611767D01*
X168230500Y-112719979D01*
X161969499Y-112719979D01*
X161968246Y-112715304D01*
X161940503Y-112611763D01*
X161884485Y-112514737D01*
X161805263Y-112435515D01*
X161737748Y-112396535D01*
X161708241Y-112379499D01*
X161708232Y-112379495D01*
X161600020Y-112350500D01*
X161600018Y-112350500D01*
X161487982Y-112350500D01*
X161487980Y-112350500D01*
X161379767Y-112379495D01*
X161379758Y-112379499D01*
X161282736Y-112435515D01*
X161203515Y-112514736D01*
X161147499Y-112611758D01*
X161147495Y-112611767D01*
X161118500Y-112719979D01*
X157152324Y-112719979D01*
X157156160Y-112700695D01*
X157156160Y-112700694D01*
X157164397Y-112659284D01*
X157175500Y-112603465D01*
X157175500Y-112396535D01*
X157135130Y-112193580D01*
X157055941Y-112002402D01*
X156940977Y-111830345D01*
X156814611Y-111703979D01*
X161118500Y-111703979D01*
X161118500Y-111816020D01*
X161147495Y-111924232D01*
X161147496Y-111924235D01*
X161147497Y-111924237D01*
X161203515Y-112021263D01*
X161282737Y-112100485D01*
X161379763Y-112156503D01*
X161487979Y-112185499D01*
X161487980Y-112185500D01*
X161487982Y-112185500D01*
X161600020Y-112185500D01*
X161600020Y-112185499D01*
X161708237Y-112156503D01*
X161805263Y-112100485D01*
X161884485Y-112021263D01*
X161940503Y-111924237D01*
X161969499Y-111816020D01*
X161969500Y-111816020D01*
X161969500Y-111703980D01*
X161969499Y-111703979D01*
X162134500Y-111703979D01*
X162134500Y-111816020D01*
X162163495Y-111924232D01*
X162163496Y-111924235D01*
X162163497Y-111924237D01*
X162219515Y-112021263D01*
X162298737Y-112100485D01*
X162395763Y-112156503D01*
X162503979Y-112185499D01*
X162503980Y-112185500D01*
X162503982Y-112185500D01*
X162616020Y-112185500D01*
X162616020Y-112185499D01*
X162724237Y-112156503D01*
X162821263Y-112100485D01*
X162900485Y-112021263D01*
X162956503Y-111924237D01*
X162985499Y-111816020D01*
X162985500Y-111816020D01*
X162985500Y-111703980D01*
X162985499Y-111703979D01*
X163150500Y-111703979D01*
X163150500Y-111816020D01*
X163179495Y-111924232D01*
X163179496Y-111924235D01*
X163179497Y-111924237D01*
X163235515Y-112021263D01*
X163314737Y-112100485D01*
X163411763Y-112156503D01*
X163519979Y-112185499D01*
X163519980Y-112185500D01*
X163519982Y-112185500D01*
X163632020Y-112185500D01*
X163632020Y-112185499D01*
X163740237Y-112156503D01*
X163837263Y-112100485D01*
X163916485Y-112021263D01*
X163972503Y-111924237D01*
X164001499Y-111816020D01*
X164001500Y-111816020D01*
X164001500Y-111703980D01*
X164001499Y-111703979D01*
X164166500Y-111703979D01*
X164166500Y-111816020D01*
X164195495Y-111924232D01*
X164195496Y-111924235D01*
X164195497Y-111924237D01*
X164251515Y-112021263D01*
X164330737Y-112100485D01*
X164427763Y-112156503D01*
X164535979Y-112185499D01*
X164535980Y-112185500D01*
X164535982Y-112185500D01*
X164648020Y-112185500D01*
X164648020Y-112185499D01*
X164756237Y-112156503D01*
X164853263Y-112100485D01*
X164932485Y-112021263D01*
X164988503Y-111924237D01*
X165017499Y-111816020D01*
X165017500Y-111816020D01*
X165017500Y-111703980D01*
X165017499Y-111703979D01*
X165182500Y-111703979D01*
X165182500Y-111816020D01*
X165211495Y-111924232D01*
X165211496Y-111924235D01*
X165211497Y-111924237D01*
X165267515Y-112021263D01*
X165346737Y-112100485D01*
X165443763Y-112156503D01*
X165551979Y-112185499D01*
X165551980Y-112185500D01*
X165551982Y-112185500D01*
X165664020Y-112185500D01*
X165664020Y-112185499D01*
X165772237Y-112156503D01*
X165869263Y-112100485D01*
X165948485Y-112021263D01*
X166004503Y-111924237D01*
X166033499Y-111816020D01*
X166033500Y-111816020D01*
X166033500Y-111703980D01*
X166033499Y-111703979D01*
X166198500Y-111703979D01*
X166198500Y-111816020D01*
X166227495Y-111924232D01*
X166227496Y-111924235D01*
X166227497Y-111924237D01*
X166283515Y-112021263D01*
X166362737Y-112100485D01*
X166459763Y-112156503D01*
X166567979Y-112185499D01*
X166567980Y-112185500D01*
X166567982Y-112185500D01*
X166680020Y-112185500D01*
X166680020Y-112185499D01*
X166788237Y-112156503D01*
X166885263Y-112100485D01*
X166964485Y-112021263D01*
X167020503Y-111924237D01*
X167049499Y-111816020D01*
X167049500Y-111816020D01*
X167049500Y-111703980D01*
X167049499Y-111703979D01*
X167214500Y-111703979D01*
X167214500Y-111816020D01*
X167243495Y-111924232D01*
X167243496Y-111924235D01*
X167243497Y-111924237D01*
X167299515Y-112021263D01*
X167378737Y-112100485D01*
X167475763Y-112156503D01*
X167583979Y-112185499D01*
X167583980Y-112185500D01*
X167583982Y-112185500D01*
X167696020Y-112185500D01*
X167696020Y-112185499D01*
X167804237Y-112156503D01*
X167901263Y-112100485D01*
X167980485Y-112021263D01*
X168036503Y-111924237D01*
X168065499Y-111816020D01*
X168065500Y-111816020D01*
X168065500Y-111703980D01*
X168065499Y-111703979D01*
X168230500Y-111703979D01*
X168230500Y-111816020D01*
X168259495Y-111924232D01*
X168259496Y-111924235D01*
X168259497Y-111924237D01*
X168315515Y-112021263D01*
X168394737Y-112100485D01*
X168491763Y-112156503D01*
X168599979Y-112185499D01*
X168599980Y-112185500D01*
X168599982Y-112185500D01*
X168712020Y-112185500D01*
X168712020Y-112185499D01*
X168820237Y-112156503D01*
X168917263Y-112100485D01*
X168996485Y-112021263D01*
X169052503Y-111924237D01*
X169081499Y-111816020D01*
X169081500Y-111816020D01*
X169081500Y-111703980D01*
X169081499Y-111703979D01*
X169071232Y-111665663D01*
X169052503Y-111595763D01*
X168996485Y-111498737D01*
X168917263Y-111419515D01*
X168873936Y-111394500D01*
X168820241Y-111363499D01*
X168820232Y-111363495D01*
X168712020Y-111334500D01*
X168712018Y-111334500D01*
X168599982Y-111334500D01*
X168599980Y-111334500D01*
X168491767Y-111363495D01*
X168491758Y-111363499D01*
X168394736Y-111419515D01*
X168315515Y-111498736D01*
X168259499Y-111595758D01*
X168259495Y-111595767D01*
X168230500Y-111703979D01*
X168065499Y-111703979D01*
X168055232Y-111665663D01*
X168036503Y-111595763D01*
X167980485Y-111498737D01*
X167901263Y-111419515D01*
X167857936Y-111394500D01*
X167804241Y-111363499D01*
X167804232Y-111363495D01*
X167696020Y-111334500D01*
X167696018Y-111334500D01*
X167583982Y-111334500D01*
X167583980Y-111334500D01*
X167475767Y-111363495D01*
X167475758Y-111363499D01*
X167378736Y-111419515D01*
X167299515Y-111498736D01*
X167243499Y-111595758D01*
X167243495Y-111595767D01*
X167214500Y-111703979D01*
X167049499Y-111703979D01*
X167039232Y-111665663D01*
X167020503Y-111595763D01*
X166964485Y-111498737D01*
X166885263Y-111419515D01*
X166841936Y-111394500D01*
X166788241Y-111363499D01*
X166788232Y-111363495D01*
X166680020Y-111334500D01*
X166680018Y-111334500D01*
X166567982Y-111334500D01*
X166567980Y-111334500D01*
X166459767Y-111363495D01*
X166459758Y-111363499D01*
X166362736Y-111419515D01*
X166283515Y-111498736D01*
X166227499Y-111595758D01*
X166227495Y-111595767D01*
X166198500Y-111703979D01*
X166033499Y-111703979D01*
X166023232Y-111665663D01*
X166004503Y-111595763D01*
X165948485Y-111498737D01*
X165869263Y-111419515D01*
X165825936Y-111394500D01*
X165772241Y-111363499D01*
X165772232Y-111363495D01*
X165664020Y-111334500D01*
X165664018Y-111334500D01*
X165551982Y-111334500D01*
X165551980Y-111334500D01*
X165443767Y-111363495D01*
X165443758Y-111363499D01*
X165346736Y-111419515D01*
X165267515Y-111498736D01*
X165211499Y-111595758D01*
X165211495Y-111595767D01*
X165182500Y-111703979D01*
X165017499Y-111703979D01*
X165007232Y-111665663D01*
X164988503Y-111595763D01*
X164932485Y-111498737D01*
X164853263Y-111419515D01*
X164809936Y-111394500D01*
X164756241Y-111363499D01*
X164756232Y-111363495D01*
X164648020Y-111334500D01*
X164648018Y-111334500D01*
X164535982Y-111334500D01*
X164535980Y-111334500D01*
X164427767Y-111363495D01*
X164427758Y-111363499D01*
X164330736Y-111419515D01*
X164251515Y-111498736D01*
X164195499Y-111595758D01*
X164195495Y-111595767D01*
X164166500Y-111703979D01*
X164001499Y-111703979D01*
X163991232Y-111665663D01*
X163972503Y-111595763D01*
X163916485Y-111498737D01*
X163837263Y-111419515D01*
X163793936Y-111394500D01*
X163740241Y-111363499D01*
X163740232Y-111363495D01*
X163632020Y-111334500D01*
X163632018Y-111334500D01*
X163519982Y-111334500D01*
X163519980Y-111334500D01*
X163411767Y-111363495D01*
X163411758Y-111363499D01*
X163314736Y-111419515D01*
X163235515Y-111498736D01*
X163179499Y-111595758D01*
X163179495Y-111595767D01*
X163150500Y-111703979D01*
X162985499Y-111703979D01*
X162975232Y-111665663D01*
X162956503Y-111595763D01*
X162900485Y-111498737D01*
X162821263Y-111419515D01*
X162777936Y-111394500D01*
X162724241Y-111363499D01*
X162724232Y-111363495D01*
X162616020Y-111334500D01*
X162616018Y-111334500D01*
X162503982Y-111334500D01*
X162503980Y-111334500D01*
X162395767Y-111363495D01*
X162395758Y-111363499D01*
X162298736Y-111419515D01*
X162219515Y-111498736D01*
X162163499Y-111595758D01*
X162163495Y-111595767D01*
X162134500Y-111703979D01*
X161969499Y-111703979D01*
X161959232Y-111665663D01*
X161940503Y-111595763D01*
X161884485Y-111498737D01*
X161805263Y-111419515D01*
X161761936Y-111394500D01*
X161708241Y-111363499D01*
X161708232Y-111363495D01*
X161600020Y-111334500D01*
X161600018Y-111334500D01*
X161487982Y-111334500D01*
X161487980Y-111334500D01*
X161379767Y-111363495D01*
X161379758Y-111363499D01*
X161282736Y-111419515D01*
X161203515Y-111498736D01*
X161147499Y-111595758D01*
X161147495Y-111595767D01*
X161118500Y-111703979D01*
X156814611Y-111703979D01*
X156794655Y-111684023D01*
X156767177Y-111665663D01*
X156622598Y-111569059D01*
X156431420Y-111489870D01*
X156431413Y-111489868D01*
X156278516Y-111459455D01*
X156228465Y-111449500D01*
X155771535Y-111449500D01*
X155731385Y-111457486D01*
X155568586Y-111489868D01*
X155568579Y-111489870D01*
X155377401Y-111569059D01*
X155205345Y-111684022D01*
X155205344Y-111684024D01*
X155059024Y-111830344D01*
X155059022Y-111830345D01*
X154944059Y-112002401D01*
X154864870Y-112193579D01*
X154864868Y-112193586D01*
X154833657Y-112350500D01*
X154824500Y-112396535D01*
X149175500Y-112396535D01*
X149135130Y-112193580D01*
X149055941Y-112002402D01*
X148940977Y-111830345D01*
X148794655Y-111684023D01*
X148767177Y-111665663D01*
X148622598Y-111569059D01*
X148431420Y-111489870D01*
X148431413Y-111489868D01*
X148278516Y-111459455D01*
X148228465Y-111449500D01*
X147771535Y-111449500D01*
X147731385Y-111457486D01*
X147568586Y-111489868D01*
X147568579Y-111489870D01*
X147377401Y-111569059D01*
X147205345Y-111684022D01*
X147205344Y-111684024D01*
X147059024Y-111830344D01*
X147059022Y-111830345D01*
X146944059Y-112002401D01*
X146864870Y-112193579D01*
X146864868Y-112193586D01*
X146833657Y-112350500D01*
X146824500Y-112396535D01*
X88710081Y-112396535D01*
X88714646Y-112379499D01*
X88715899Y-112374823D01*
X88715900Y-112374820D01*
X88715900Y-112262780D01*
X88715899Y-112262779D01*
X88697357Y-112193580D01*
X88686903Y-112154563D01*
X88630885Y-112057537D01*
X88551663Y-111978315D01*
X88454641Y-111922299D01*
X88454632Y-111922295D01*
X88346420Y-111893300D01*
X88346418Y-111893300D01*
X88234382Y-111893300D01*
X88234380Y-111893300D01*
X88126167Y-111922295D01*
X88126158Y-111922299D01*
X88029136Y-111978315D01*
X87949915Y-112057536D01*
X87893899Y-112154558D01*
X87893895Y-112154567D01*
X87864900Y-112262779D01*
X72866299Y-112262779D01*
X72847757Y-112193580D01*
X72837303Y-112154563D01*
X72781285Y-112057537D01*
X72702063Y-111978315D01*
X72605041Y-111922299D01*
X72605032Y-111922295D01*
X72496820Y-111893300D01*
X72496818Y-111893300D01*
X72384782Y-111893300D01*
X72384780Y-111893300D01*
X72276567Y-111922295D01*
X72276558Y-111922299D01*
X72179536Y-111978315D01*
X72100315Y-112057536D01*
X72044299Y-112154558D01*
X72044295Y-112154567D01*
X72015300Y-112262779D01*
X50010500Y-112262779D01*
X50010500Y-111348379D01*
X60788500Y-111348379D01*
X60788500Y-111460420D01*
X60817495Y-111568632D01*
X60817499Y-111568641D01*
X60873515Y-111665663D01*
X60952737Y-111744885D01*
X61049763Y-111800903D01*
X61157979Y-111829899D01*
X61157980Y-111829900D01*
X61157982Y-111829900D01*
X61270020Y-111829900D01*
X61270020Y-111829899D01*
X61378237Y-111800903D01*
X61475263Y-111744885D01*
X61554485Y-111665663D01*
X61610503Y-111568637D01*
X61639499Y-111460420D01*
X61639500Y-111460420D01*
X61639500Y-111348380D01*
X61639499Y-111348379D01*
X61610504Y-111240167D01*
X61610503Y-111240163D01*
X61554485Y-111143137D01*
X61475263Y-111063915D01*
X61458121Y-111054018D01*
X61378241Y-111007899D01*
X61378233Y-111007895D01*
X61270020Y-110978900D01*
X61270018Y-110978900D01*
X61157982Y-110978900D01*
X61157980Y-110978900D01*
X61049767Y-111007895D01*
X61049758Y-111007899D01*
X60952736Y-111063915D01*
X60873515Y-111143136D01*
X60817499Y-111240158D01*
X60817495Y-111240167D01*
X60788500Y-111348379D01*
X50010500Y-111348379D01*
X50010500Y-110941979D01*
X69678500Y-110941979D01*
X69678500Y-111054020D01*
X69707495Y-111162232D01*
X69707499Y-111162241D01*
X69711690Y-111169500D01*
X69763515Y-111259263D01*
X69842737Y-111338485D01*
X69939763Y-111394503D01*
X70047979Y-111423499D01*
X70047980Y-111423500D01*
X70047982Y-111423500D01*
X70160020Y-111423500D01*
X70160020Y-111423499D01*
X70268237Y-111394503D01*
X70365263Y-111338485D01*
X70444485Y-111259263D01*
X70500503Y-111162237D01*
X70529499Y-111054020D01*
X70529500Y-111054020D01*
X70529500Y-110941980D01*
X70529499Y-110941979D01*
X70500504Y-110833767D01*
X70500503Y-110833763D01*
X70444485Y-110736737D01*
X70395727Y-110687979D01*
X161118500Y-110687979D01*
X161118500Y-110800020D01*
X161147495Y-110908232D01*
X161147499Y-110908241D01*
X161188294Y-110978900D01*
X161203515Y-111005263D01*
X161282737Y-111084485D01*
X161379763Y-111140503D01*
X161487979Y-111169499D01*
X161487980Y-111169500D01*
X161487982Y-111169500D01*
X161600020Y-111169500D01*
X161600020Y-111169499D01*
X161708237Y-111140503D01*
X161805263Y-111084485D01*
X161884485Y-111005263D01*
X161940503Y-110908237D01*
X161969499Y-110800020D01*
X161969500Y-110800020D01*
X161969500Y-110687980D01*
X161969499Y-110687979D01*
X162134500Y-110687979D01*
X162134500Y-110800020D01*
X162163495Y-110908232D01*
X162163499Y-110908241D01*
X162204294Y-110978900D01*
X162219515Y-111005263D01*
X162298737Y-111084485D01*
X162395763Y-111140503D01*
X162503979Y-111169499D01*
X162503980Y-111169500D01*
X162503982Y-111169500D01*
X162616020Y-111169500D01*
X162616020Y-111169499D01*
X162724237Y-111140503D01*
X162821263Y-111084485D01*
X162900485Y-111005263D01*
X162956503Y-110908237D01*
X162985499Y-110800020D01*
X162985500Y-110800020D01*
X162985500Y-110687980D01*
X162985499Y-110687979D01*
X163150500Y-110687979D01*
X163150500Y-110800020D01*
X163179495Y-110908232D01*
X163179499Y-110908241D01*
X163220294Y-110978900D01*
X163235515Y-111005263D01*
X163314737Y-111084485D01*
X163411763Y-111140503D01*
X163519979Y-111169499D01*
X163519980Y-111169500D01*
X163519982Y-111169500D01*
X163632020Y-111169500D01*
X163632020Y-111169499D01*
X163740237Y-111140503D01*
X163837263Y-111084485D01*
X163916485Y-111005263D01*
X163972503Y-110908237D01*
X164001499Y-110800020D01*
X164001500Y-110800020D01*
X164001500Y-110687980D01*
X164001499Y-110687979D01*
X164166500Y-110687979D01*
X164166500Y-110800020D01*
X164195495Y-110908232D01*
X164195499Y-110908241D01*
X164236294Y-110978900D01*
X164251515Y-111005263D01*
X164330737Y-111084485D01*
X164427763Y-111140503D01*
X164535979Y-111169499D01*
X164535980Y-111169500D01*
X164535982Y-111169500D01*
X164648020Y-111169500D01*
X164648020Y-111169499D01*
X164756237Y-111140503D01*
X164853263Y-111084485D01*
X164932485Y-111005263D01*
X164988503Y-110908237D01*
X165017499Y-110800020D01*
X165017500Y-110800020D01*
X165017500Y-110687980D01*
X165017499Y-110687979D01*
X165182500Y-110687979D01*
X165182500Y-110800020D01*
X165211495Y-110908232D01*
X165211499Y-110908241D01*
X165252294Y-110978900D01*
X165267515Y-111005263D01*
X165346737Y-111084485D01*
X165443763Y-111140503D01*
X165551979Y-111169499D01*
X165551980Y-111169500D01*
X165551982Y-111169500D01*
X165664020Y-111169500D01*
X165664020Y-111169499D01*
X165772237Y-111140503D01*
X165869263Y-111084485D01*
X165948485Y-111005263D01*
X166004503Y-110908237D01*
X166033499Y-110800020D01*
X166033500Y-110800020D01*
X166033500Y-110687980D01*
X166033499Y-110687979D01*
X166198500Y-110687979D01*
X166198500Y-110800020D01*
X166227495Y-110908232D01*
X166227499Y-110908241D01*
X166268294Y-110978900D01*
X166283515Y-111005263D01*
X166362737Y-111084485D01*
X166459763Y-111140503D01*
X166567979Y-111169499D01*
X166567980Y-111169500D01*
X166567982Y-111169500D01*
X166680020Y-111169500D01*
X166680020Y-111169499D01*
X166788237Y-111140503D01*
X166885263Y-111084485D01*
X166964485Y-111005263D01*
X167020503Y-110908237D01*
X167049499Y-110800020D01*
X167049500Y-110800020D01*
X167049500Y-110687980D01*
X167049499Y-110687979D01*
X168230500Y-110687979D01*
X168230500Y-110800020D01*
X168259495Y-110908232D01*
X168259499Y-110908241D01*
X168300294Y-110978900D01*
X168315515Y-111005263D01*
X168394737Y-111084485D01*
X168491763Y-111140503D01*
X168599979Y-111169499D01*
X168599980Y-111169500D01*
X168599982Y-111169500D01*
X168712020Y-111169500D01*
X168712020Y-111169499D01*
X168820237Y-111140503D01*
X168917263Y-111084485D01*
X168996485Y-111005263D01*
X169052503Y-110908237D01*
X169081499Y-110800020D01*
X169081500Y-110800020D01*
X169081500Y-110687980D01*
X169081499Y-110687979D01*
X169058326Y-110601497D01*
X169052503Y-110579763D01*
X168996485Y-110482737D01*
X168917263Y-110403515D01*
X168882040Y-110383179D01*
X168820241Y-110347499D01*
X168820232Y-110347495D01*
X168712020Y-110318500D01*
X168712018Y-110318500D01*
X168599982Y-110318500D01*
X168599980Y-110318500D01*
X168491767Y-110347495D01*
X168491758Y-110347499D01*
X168394736Y-110403515D01*
X168315515Y-110482736D01*
X168259499Y-110579758D01*
X168259495Y-110579767D01*
X168230500Y-110687979D01*
X167049499Y-110687979D01*
X167026326Y-110601497D01*
X167020503Y-110579763D01*
X166964485Y-110482737D01*
X166885263Y-110403515D01*
X166850040Y-110383179D01*
X166788241Y-110347499D01*
X166788232Y-110347495D01*
X166680020Y-110318500D01*
X166680018Y-110318500D01*
X166567982Y-110318500D01*
X166567980Y-110318500D01*
X166459767Y-110347495D01*
X166459758Y-110347499D01*
X166362736Y-110403515D01*
X166283515Y-110482736D01*
X166227499Y-110579758D01*
X166227495Y-110579767D01*
X166198500Y-110687979D01*
X166033499Y-110687979D01*
X166010326Y-110601497D01*
X166004503Y-110579763D01*
X165948485Y-110482737D01*
X165869263Y-110403515D01*
X165834040Y-110383179D01*
X165772241Y-110347499D01*
X165772232Y-110347495D01*
X165664020Y-110318500D01*
X165664018Y-110318500D01*
X165551982Y-110318500D01*
X165551980Y-110318500D01*
X165443767Y-110347495D01*
X165443758Y-110347499D01*
X165346736Y-110403515D01*
X165267515Y-110482736D01*
X165211499Y-110579758D01*
X165211495Y-110579767D01*
X165182500Y-110687979D01*
X165017499Y-110687979D01*
X164994326Y-110601497D01*
X164988503Y-110579763D01*
X164932485Y-110482737D01*
X164853263Y-110403515D01*
X164818040Y-110383179D01*
X164756241Y-110347499D01*
X164756232Y-110347495D01*
X164648020Y-110318500D01*
X164648018Y-110318500D01*
X164535982Y-110318500D01*
X164535980Y-110318500D01*
X164427767Y-110347495D01*
X164427758Y-110347499D01*
X164330736Y-110403515D01*
X164251515Y-110482736D01*
X164195499Y-110579758D01*
X164195495Y-110579767D01*
X164166500Y-110687979D01*
X164001499Y-110687979D01*
X163978326Y-110601497D01*
X163972503Y-110579763D01*
X163916485Y-110482737D01*
X163837263Y-110403515D01*
X163802040Y-110383179D01*
X163740241Y-110347499D01*
X163740232Y-110347495D01*
X163632020Y-110318500D01*
X163632018Y-110318500D01*
X163519982Y-110318500D01*
X163519980Y-110318500D01*
X163411767Y-110347495D01*
X163411758Y-110347499D01*
X163314736Y-110403515D01*
X163235515Y-110482736D01*
X163179499Y-110579758D01*
X163179495Y-110579767D01*
X163150500Y-110687979D01*
X162985499Y-110687979D01*
X162962326Y-110601497D01*
X162956503Y-110579763D01*
X162900485Y-110482737D01*
X162821263Y-110403515D01*
X162786040Y-110383179D01*
X162724241Y-110347499D01*
X162724232Y-110347495D01*
X162616020Y-110318500D01*
X162616018Y-110318500D01*
X162503982Y-110318500D01*
X162503980Y-110318500D01*
X162395767Y-110347495D01*
X162395758Y-110347499D01*
X162298736Y-110403515D01*
X162219515Y-110482736D01*
X162163499Y-110579758D01*
X162163495Y-110579767D01*
X162134500Y-110687979D01*
X161969499Y-110687979D01*
X161946326Y-110601497D01*
X161940503Y-110579763D01*
X161884485Y-110482737D01*
X161805263Y-110403515D01*
X161770040Y-110383179D01*
X161708241Y-110347499D01*
X161708232Y-110347495D01*
X161600020Y-110318500D01*
X161600018Y-110318500D01*
X161487982Y-110318500D01*
X161487980Y-110318500D01*
X161379767Y-110347495D01*
X161379758Y-110347499D01*
X161282736Y-110403515D01*
X161203515Y-110482736D01*
X161147499Y-110579758D01*
X161147495Y-110579767D01*
X161118500Y-110687979D01*
X70395727Y-110687979D01*
X70365263Y-110657515D01*
X70268241Y-110601499D01*
X70268232Y-110601495D01*
X70160020Y-110572500D01*
X70160018Y-110572500D01*
X70047982Y-110572500D01*
X70047980Y-110572500D01*
X69939767Y-110601495D01*
X69939758Y-110601499D01*
X69842736Y-110657515D01*
X69763515Y-110736736D01*
X69707499Y-110833758D01*
X69707495Y-110833767D01*
X69678500Y-110941979D01*
X50010500Y-110941979D01*
X50010500Y-110383179D01*
X55937100Y-110383179D01*
X55937100Y-110495220D01*
X55966095Y-110603432D01*
X55966096Y-110603435D01*
X55966097Y-110603437D01*
X56022115Y-110700463D01*
X56101337Y-110779685D01*
X56198363Y-110835703D01*
X56306579Y-110864699D01*
X56306580Y-110864700D01*
X56306582Y-110864700D01*
X56418620Y-110864700D01*
X56418620Y-110864699D01*
X56526837Y-110835703D01*
X56623863Y-110779685D01*
X56703085Y-110700463D01*
X56759103Y-110603437D01*
X56788099Y-110495220D01*
X56788100Y-110495220D01*
X56788100Y-110383180D01*
X56788099Y-110383179D01*
X56759104Y-110274967D01*
X56759103Y-110274963D01*
X56703085Y-110177937D01*
X56623863Y-110098715D01*
X56571503Y-110068485D01*
X56526841Y-110042699D01*
X56526832Y-110042695D01*
X56418620Y-110013700D01*
X56418618Y-110013700D01*
X56306582Y-110013700D01*
X56306580Y-110013700D01*
X56198367Y-110042695D01*
X56198358Y-110042699D01*
X56101336Y-110098715D01*
X56022115Y-110177936D01*
X55966099Y-110274958D01*
X55966095Y-110274967D01*
X55937100Y-110383179D01*
X50010500Y-110383179D01*
X50010500Y-109671979D01*
X161118500Y-109671979D01*
X161118500Y-109784020D01*
X161147495Y-109892232D01*
X161147496Y-109892235D01*
X161147497Y-109892237D01*
X161203515Y-109989263D01*
X161282737Y-110068485D01*
X161379763Y-110124503D01*
X161487979Y-110153499D01*
X161487980Y-110153500D01*
X161487982Y-110153500D01*
X161600020Y-110153500D01*
X161600020Y-110153499D01*
X161708237Y-110124503D01*
X161805263Y-110068485D01*
X161884485Y-109989263D01*
X161940503Y-109892237D01*
X161969499Y-109784020D01*
X161969500Y-109784020D01*
X161969500Y-109671980D01*
X161969499Y-109671979D01*
X168230500Y-109671979D01*
X168230500Y-109784020D01*
X168259495Y-109892232D01*
X168259496Y-109892235D01*
X168259497Y-109892237D01*
X168315515Y-109989263D01*
X168394737Y-110068485D01*
X168491763Y-110124503D01*
X168599979Y-110153499D01*
X168599980Y-110153500D01*
X168599982Y-110153500D01*
X168712020Y-110153500D01*
X168712020Y-110153499D01*
X168820237Y-110124503D01*
X168917263Y-110068485D01*
X168996485Y-109989263D01*
X169052503Y-109892237D01*
X169081499Y-109784020D01*
X169081500Y-109784020D01*
X169081500Y-109671980D01*
X169081499Y-109671979D01*
X169052504Y-109563767D01*
X169052503Y-109563763D01*
X168996485Y-109466737D01*
X168917263Y-109387515D01*
X168820241Y-109331499D01*
X168820232Y-109331495D01*
X168712020Y-109302500D01*
X168712018Y-109302500D01*
X168599982Y-109302500D01*
X168599980Y-109302500D01*
X168491767Y-109331495D01*
X168491758Y-109331499D01*
X168394736Y-109387515D01*
X168315515Y-109466736D01*
X168259499Y-109563758D01*
X168259495Y-109563767D01*
X168230500Y-109671979D01*
X161969499Y-109671979D01*
X161940504Y-109563767D01*
X161940503Y-109563763D01*
X161884485Y-109466737D01*
X161805263Y-109387515D01*
X161708241Y-109331499D01*
X161708232Y-109331495D01*
X161600020Y-109302500D01*
X161600018Y-109302500D01*
X161487982Y-109302500D01*
X161487980Y-109302500D01*
X161379767Y-109331495D01*
X161379758Y-109331499D01*
X161282736Y-109387515D01*
X161203515Y-109466736D01*
X161147499Y-109563758D01*
X161147495Y-109563767D01*
X161118500Y-109671979D01*
X50010500Y-109671979D01*
X50010500Y-108138105D01*
X104960300Y-108138105D01*
X104960300Y-108269894D01*
X104994406Y-108397181D01*
X104994410Y-108397190D01*
X104998738Y-108404686D01*
X105060300Y-108511314D01*
X105153486Y-108604500D01*
X105267614Y-108670392D01*
X105394905Y-108704499D01*
X105394906Y-108704500D01*
X105394908Y-108704500D01*
X105526694Y-108704500D01*
X105526694Y-108704499D01*
X105653986Y-108670392D01*
X105696052Y-108646105D01*
X119539900Y-108646105D01*
X119539900Y-108777894D01*
X119574006Y-108905181D01*
X119574007Y-108905184D01*
X119574008Y-108905186D01*
X119639900Y-109019314D01*
X119733086Y-109112500D01*
X119847214Y-109178392D01*
X119974505Y-109212499D01*
X119974506Y-109212500D01*
X119974508Y-109212500D01*
X120106294Y-109212500D01*
X120106294Y-109212499D01*
X120233586Y-109178392D01*
X120347714Y-109112500D01*
X120440900Y-109019314D01*
X120506792Y-108905186D01*
X120540899Y-108777894D01*
X120540900Y-108777894D01*
X120540900Y-108655979D01*
X161118500Y-108655979D01*
X161118500Y-108768020D01*
X161147495Y-108876232D01*
X161147499Y-108876241D01*
X161164213Y-108905190D01*
X161203515Y-108973263D01*
X161282737Y-109052485D01*
X161379763Y-109108503D01*
X161487979Y-109137499D01*
X161487980Y-109137500D01*
X161487982Y-109137500D01*
X161600020Y-109137500D01*
X161600020Y-109137499D01*
X161708237Y-109108503D01*
X161805263Y-109052485D01*
X161884485Y-108973263D01*
X161940503Y-108876237D01*
X161969499Y-108768020D01*
X161969500Y-108768020D01*
X161969500Y-108655980D01*
X161969499Y-108655979D01*
X168230500Y-108655979D01*
X168230500Y-108768020D01*
X168259495Y-108876232D01*
X168259499Y-108876241D01*
X168276213Y-108905190D01*
X168315515Y-108973263D01*
X168394737Y-109052485D01*
X168491763Y-109108503D01*
X168599979Y-109137499D01*
X168599980Y-109137500D01*
X168599982Y-109137500D01*
X168712020Y-109137500D01*
X168712020Y-109137499D01*
X168820237Y-109108503D01*
X168917263Y-109052485D01*
X168996485Y-108973263D01*
X169052503Y-108876237D01*
X169081499Y-108768020D01*
X169081500Y-108768020D01*
X169081500Y-108655980D01*
X169081499Y-108655979D01*
X169067705Y-108604500D01*
X169052503Y-108547763D01*
X168996485Y-108450737D01*
X168917263Y-108371515D01*
X168820241Y-108315499D01*
X168820232Y-108315495D01*
X168712020Y-108286500D01*
X168712018Y-108286500D01*
X168599982Y-108286500D01*
X168599980Y-108286500D01*
X168491767Y-108315495D01*
X168491758Y-108315499D01*
X168394736Y-108371515D01*
X168315515Y-108450736D01*
X168259499Y-108547758D01*
X168259495Y-108547767D01*
X168230500Y-108655979D01*
X161969499Y-108655979D01*
X161955705Y-108604500D01*
X161940503Y-108547763D01*
X161884485Y-108450737D01*
X161805263Y-108371515D01*
X161708241Y-108315499D01*
X161708232Y-108315495D01*
X161600020Y-108286500D01*
X161600018Y-108286500D01*
X161487982Y-108286500D01*
X161487980Y-108286500D01*
X161379767Y-108315495D01*
X161379758Y-108315499D01*
X161282736Y-108371515D01*
X161203515Y-108450736D01*
X161147499Y-108547758D01*
X161147495Y-108547767D01*
X161118500Y-108655979D01*
X120540900Y-108655979D01*
X120540900Y-108646106D01*
X120540899Y-108646105D01*
X120506793Y-108518818D01*
X120506792Y-108518814D01*
X120440900Y-108404686D01*
X120347714Y-108311500D01*
X120304413Y-108286500D01*
X120233590Y-108245610D01*
X120233581Y-108245606D01*
X120106294Y-108211500D01*
X120106292Y-108211500D01*
X119974508Y-108211500D01*
X119974506Y-108211500D01*
X119847218Y-108245606D01*
X119847209Y-108245610D01*
X119733085Y-108311500D01*
X119639900Y-108404685D01*
X119574010Y-108518809D01*
X119574006Y-108518818D01*
X119539900Y-108646105D01*
X105696052Y-108646105D01*
X105768114Y-108604500D01*
X105861300Y-108511314D01*
X105927192Y-108397186D01*
X105961299Y-108269894D01*
X105961300Y-108269894D01*
X105961300Y-108138106D01*
X105961299Y-108138105D01*
X105956849Y-108121499D01*
X105927192Y-108010814D01*
X105861300Y-107896686D01*
X105768114Y-107803500D01*
X105694958Y-107761263D01*
X105653990Y-107737610D01*
X105653981Y-107737606D01*
X105538301Y-107706610D01*
X105526694Y-107703500D01*
X105526692Y-107703500D01*
X105394908Y-107703500D01*
X105394906Y-107703500D01*
X105267618Y-107737606D01*
X105267609Y-107737610D01*
X105153485Y-107803500D01*
X105060300Y-107896685D01*
X104994410Y-108010809D01*
X104994406Y-108010818D01*
X104960300Y-108138105D01*
X50010500Y-108138105D01*
X50010500Y-107639979D01*
X161118500Y-107639979D01*
X161118500Y-107752020D01*
X161147495Y-107860232D01*
X161147496Y-107860235D01*
X161147497Y-107860237D01*
X161203515Y-107957263D01*
X161282737Y-108036485D01*
X161379763Y-108092503D01*
X161487979Y-108121499D01*
X161487980Y-108121500D01*
X161487982Y-108121500D01*
X161600020Y-108121500D01*
X161600020Y-108121499D01*
X161708237Y-108092503D01*
X161805263Y-108036485D01*
X161884485Y-107957263D01*
X161940503Y-107860237D01*
X161969499Y-107752020D01*
X161969500Y-107752020D01*
X161969500Y-107639980D01*
X161969499Y-107639979D01*
X161940504Y-107531767D01*
X161940503Y-107531763D01*
X161889821Y-107443979D01*
X164574500Y-107443979D01*
X164574500Y-107556020D01*
X164603495Y-107664232D01*
X164603499Y-107664241D01*
X164627961Y-107706610D01*
X164659515Y-107761263D01*
X164738737Y-107840485D01*
X164835763Y-107896503D01*
X164943979Y-107925499D01*
X164943980Y-107925500D01*
X164943982Y-107925500D01*
X165056020Y-107925500D01*
X165056020Y-107925499D01*
X165164237Y-107896503D01*
X165261263Y-107840485D01*
X165340485Y-107761263D01*
X165396503Y-107664237D01*
X165403003Y-107639979D01*
X168230500Y-107639979D01*
X168230500Y-107752020D01*
X168259495Y-107860232D01*
X168259496Y-107860235D01*
X168259497Y-107860237D01*
X168315515Y-107957263D01*
X168394737Y-108036485D01*
X168491763Y-108092503D01*
X168599979Y-108121499D01*
X168599980Y-108121500D01*
X168599982Y-108121500D01*
X168712020Y-108121500D01*
X168712020Y-108121499D01*
X168820237Y-108092503D01*
X168917263Y-108036485D01*
X168996485Y-107957263D01*
X169052503Y-107860237D01*
X169081499Y-107752020D01*
X169081500Y-107752020D01*
X169081500Y-107639980D01*
X169081499Y-107639979D01*
X169052504Y-107531767D01*
X169052503Y-107531763D01*
X168996485Y-107434737D01*
X168917263Y-107355515D01*
X168903663Y-107347663D01*
X168820241Y-107299499D01*
X168820232Y-107299495D01*
X168712020Y-107270500D01*
X168712018Y-107270500D01*
X168599982Y-107270500D01*
X168599980Y-107270500D01*
X168491767Y-107299495D01*
X168491758Y-107299499D01*
X168394736Y-107355515D01*
X168315515Y-107434736D01*
X168259499Y-107531758D01*
X168259495Y-107531767D01*
X168230500Y-107639979D01*
X165403003Y-107639979D01*
X165425499Y-107556020D01*
X165425500Y-107556020D01*
X165425500Y-107443980D01*
X165425499Y-107443979D01*
X165423022Y-107434736D01*
X165396503Y-107335763D01*
X165340485Y-107238737D01*
X165261263Y-107159515D01*
X165231650Y-107142418D01*
X165164241Y-107103499D01*
X165164232Y-107103495D01*
X165056020Y-107074500D01*
X165056018Y-107074500D01*
X164943982Y-107074500D01*
X164943980Y-107074500D01*
X164835767Y-107103495D01*
X164835758Y-107103499D01*
X164738736Y-107159515D01*
X164659515Y-107238736D01*
X164603499Y-107335758D01*
X164603495Y-107335767D01*
X164574500Y-107443979D01*
X161889821Y-107443979D01*
X161884485Y-107434737D01*
X161805263Y-107355515D01*
X161791663Y-107347663D01*
X161708241Y-107299499D01*
X161708232Y-107299495D01*
X161600020Y-107270500D01*
X161600018Y-107270500D01*
X161487982Y-107270500D01*
X161487980Y-107270500D01*
X161379767Y-107299495D01*
X161379758Y-107299499D01*
X161282736Y-107355515D01*
X161203515Y-107434736D01*
X161147499Y-107531758D01*
X161147495Y-107531767D01*
X161118500Y-107639979D01*
X50010500Y-107639979D01*
X50010500Y-107030379D01*
X83191300Y-107030379D01*
X83191300Y-107142420D01*
X83220295Y-107250632D01*
X83220299Y-107250641D01*
X83269447Y-107335767D01*
X83276315Y-107347663D01*
X83355537Y-107426885D01*
X83452563Y-107482903D01*
X83560779Y-107511899D01*
X83560780Y-107511900D01*
X83560782Y-107511900D01*
X83672820Y-107511900D01*
X83672820Y-107511899D01*
X83781037Y-107482903D01*
X83878063Y-107426885D01*
X83957285Y-107347663D01*
X84013303Y-107250637D01*
X84042299Y-107142420D01*
X84042300Y-107142420D01*
X84042300Y-107030380D01*
X84042299Y-107030379D01*
X84013304Y-106922167D01*
X84013303Y-106922163D01*
X83957285Y-106825137D01*
X83878063Y-106745915D01*
X83860921Y-106736018D01*
X83781041Y-106689899D01*
X83781033Y-106689895D01*
X83672820Y-106660900D01*
X83672818Y-106660900D01*
X83560782Y-106660900D01*
X83560780Y-106660900D01*
X83452567Y-106689895D01*
X83452558Y-106689899D01*
X83355536Y-106745915D01*
X83276315Y-106825136D01*
X83220299Y-106922158D01*
X83220295Y-106922167D01*
X83191300Y-107030379D01*
X50010500Y-107030379D01*
X50010500Y-106623979D01*
X161118500Y-106623979D01*
X161118500Y-106736020D01*
X161147495Y-106844232D01*
X161147496Y-106844235D01*
X161147497Y-106844237D01*
X161203515Y-106941263D01*
X161282737Y-107020485D01*
X161379763Y-107076503D01*
X161487979Y-107105499D01*
X161487980Y-107105500D01*
X161487982Y-107105500D01*
X161600020Y-107105500D01*
X161600020Y-107105499D01*
X161708237Y-107076503D01*
X161805263Y-107020485D01*
X161884485Y-106941263D01*
X161940503Y-106844237D01*
X161969499Y-106736020D01*
X161969500Y-106736020D01*
X161969500Y-106623980D01*
X161969499Y-106623979D01*
X168230500Y-106623979D01*
X168230500Y-106736020D01*
X168259495Y-106844232D01*
X168259496Y-106844235D01*
X168259497Y-106844237D01*
X168315515Y-106941263D01*
X168394737Y-107020485D01*
X168491763Y-107076503D01*
X168599979Y-107105499D01*
X168599980Y-107105500D01*
X168599982Y-107105500D01*
X168712020Y-107105500D01*
X168712020Y-107105499D01*
X168820237Y-107076503D01*
X168917263Y-107020485D01*
X168996485Y-106941263D01*
X169052503Y-106844237D01*
X169081499Y-106736020D01*
X169081500Y-106736020D01*
X169081500Y-106623980D01*
X169081499Y-106623979D01*
X169052504Y-106515767D01*
X169052503Y-106515763D01*
X168996485Y-106418737D01*
X168917263Y-106339515D01*
X168820241Y-106283499D01*
X168820232Y-106283495D01*
X168712020Y-106254500D01*
X168712018Y-106254500D01*
X168599982Y-106254500D01*
X168599980Y-106254500D01*
X168491767Y-106283495D01*
X168491758Y-106283499D01*
X168394736Y-106339515D01*
X168315515Y-106418736D01*
X168259499Y-106515758D01*
X168259495Y-106515767D01*
X168230500Y-106623979D01*
X161969499Y-106623979D01*
X161940504Y-106515767D01*
X161940503Y-106515763D01*
X161884485Y-106418737D01*
X161805263Y-106339515D01*
X161708241Y-106283499D01*
X161708232Y-106283495D01*
X161600020Y-106254500D01*
X161600018Y-106254500D01*
X161487982Y-106254500D01*
X161487980Y-106254500D01*
X161379767Y-106283495D01*
X161379758Y-106283499D01*
X161282736Y-106339515D01*
X161203515Y-106418736D01*
X161147499Y-106515758D01*
X161147495Y-106515767D01*
X161118500Y-106623979D01*
X50010500Y-106623979D01*
X50010500Y-105607979D01*
X161118500Y-105607979D01*
X161118500Y-105720020D01*
X161147495Y-105828232D01*
X161147496Y-105828235D01*
X161147497Y-105828237D01*
X161203515Y-105925263D01*
X161282737Y-106004485D01*
X161379763Y-106060503D01*
X161487979Y-106089499D01*
X161487980Y-106089500D01*
X161487982Y-106089500D01*
X161600020Y-106089500D01*
X161600020Y-106089499D01*
X161708237Y-106060503D01*
X161805263Y-106004485D01*
X161884485Y-105925263D01*
X161940503Y-105828237D01*
X161969499Y-105720020D01*
X161969500Y-105720020D01*
X161969500Y-105607980D01*
X161969499Y-105607979D01*
X168230500Y-105607979D01*
X168230500Y-105720020D01*
X168259495Y-105828232D01*
X168259496Y-105828235D01*
X168259497Y-105828237D01*
X168315515Y-105925263D01*
X168394737Y-106004485D01*
X168491763Y-106060503D01*
X168599979Y-106089499D01*
X168599980Y-106089500D01*
X168599982Y-106089500D01*
X168712020Y-106089500D01*
X168712020Y-106089499D01*
X168820237Y-106060503D01*
X168917263Y-106004485D01*
X168996485Y-105925263D01*
X169052503Y-105828237D01*
X169081499Y-105720020D01*
X169081500Y-105720020D01*
X169081500Y-105607980D01*
X169081499Y-105607979D01*
X169052504Y-105499767D01*
X169052503Y-105499763D01*
X168996485Y-105402737D01*
X168917263Y-105323515D01*
X168859669Y-105290263D01*
X168820241Y-105267499D01*
X168820232Y-105267495D01*
X168712020Y-105238500D01*
X168712018Y-105238500D01*
X168599982Y-105238500D01*
X168599980Y-105238500D01*
X168491767Y-105267495D01*
X168491758Y-105267499D01*
X168394736Y-105323515D01*
X168315515Y-105402736D01*
X168259499Y-105499758D01*
X168259495Y-105499767D01*
X168230500Y-105607979D01*
X161969499Y-105607979D01*
X161940504Y-105499767D01*
X161940503Y-105499763D01*
X161884485Y-105402737D01*
X161805263Y-105323515D01*
X161747669Y-105290263D01*
X161708241Y-105267499D01*
X161708232Y-105267495D01*
X161600020Y-105238500D01*
X161600018Y-105238500D01*
X161487982Y-105238500D01*
X161487980Y-105238500D01*
X161379767Y-105267495D01*
X161379758Y-105267499D01*
X161282736Y-105323515D01*
X161203515Y-105402736D01*
X161147499Y-105499758D01*
X161147495Y-105499767D01*
X161118500Y-105607979D01*
X50010500Y-105607979D01*
X50010500Y-104972979D01*
X69678500Y-104972979D01*
X69678500Y-105085020D01*
X69707495Y-105193232D01*
X69707499Y-105193241D01*
X69750370Y-105267495D01*
X69763515Y-105290263D01*
X69842737Y-105369485D01*
X69939763Y-105425503D01*
X70047979Y-105454499D01*
X70047980Y-105454500D01*
X70047982Y-105454500D01*
X70160020Y-105454500D01*
X70160020Y-105454499D01*
X70268237Y-105425503D01*
X70365263Y-105369485D01*
X70444485Y-105290263D01*
X70500503Y-105193237D01*
X70529499Y-105085020D01*
X70529500Y-105085020D01*
X70529500Y-104972980D01*
X70529499Y-104972979D01*
X72980500Y-104972979D01*
X72980500Y-105085020D01*
X73009495Y-105193232D01*
X73009499Y-105193241D01*
X73052370Y-105267495D01*
X73065515Y-105290263D01*
X73144737Y-105369485D01*
X73241763Y-105425503D01*
X73349979Y-105454499D01*
X73349980Y-105454500D01*
X73349982Y-105454500D01*
X73462020Y-105454500D01*
X73462020Y-105454499D01*
X73570237Y-105425503D01*
X73667263Y-105369485D01*
X73746485Y-105290263D01*
X73802503Y-105193237D01*
X73831499Y-105085020D01*
X73831500Y-105085020D01*
X73831500Y-104972980D01*
X73831499Y-104972979D01*
X73802504Y-104864767D01*
X73802503Y-104864763D01*
X73746485Y-104767737D01*
X73667263Y-104688515D01*
X73602663Y-104651218D01*
X73570241Y-104632499D01*
X73570232Y-104632495D01*
X73462020Y-104603500D01*
X73462018Y-104603500D01*
X73349982Y-104603500D01*
X73349980Y-104603500D01*
X73241767Y-104632495D01*
X73241758Y-104632499D01*
X73144736Y-104688515D01*
X73065515Y-104767736D01*
X73009499Y-104864758D01*
X73009495Y-104864767D01*
X72980500Y-104972979D01*
X70529499Y-104972979D01*
X70500504Y-104864767D01*
X70500503Y-104864763D01*
X70444485Y-104767737D01*
X70365263Y-104688515D01*
X70300663Y-104651218D01*
X70268241Y-104632499D01*
X70268232Y-104632495D01*
X70160020Y-104603500D01*
X70160018Y-104603500D01*
X70047982Y-104603500D01*
X70047980Y-104603500D01*
X69939767Y-104632495D01*
X69939758Y-104632499D01*
X69842736Y-104688515D01*
X69763515Y-104767736D01*
X69707499Y-104864758D01*
X69707495Y-104864767D01*
X69678500Y-104972979D01*
X50010500Y-104972979D01*
X50010500Y-104591979D01*
X161118500Y-104591979D01*
X161118500Y-104704020D01*
X161147495Y-104812232D01*
X161147496Y-104812235D01*
X161147497Y-104812237D01*
X161203515Y-104909263D01*
X161282737Y-104988485D01*
X161379763Y-105044503D01*
X161487979Y-105073499D01*
X161487980Y-105073500D01*
X161487982Y-105073500D01*
X161600020Y-105073500D01*
X161600020Y-105073499D01*
X161708237Y-105044503D01*
X161805263Y-104988485D01*
X161884485Y-104909263D01*
X161940503Y-104812237D01*
X161969499Y-104704020D01*
X161969500Y-104704020D01*
X161969500Y-104591980D01*
X161969499Y-104591979D01*
X162134500Y-104591979D01*
X162134500Y-104704020D01*
X162163495Y-104812232D01*
X162163496Y-104812235D01*
X162163497Y-104812237D01*
X162219515Y-104909263D01*
X162298737Y-104988485D01*
X162395763Y-105044503D01*
X162503979Y-105073499D01*
X162503980Y-105073500D01*
X162503982Y-105073500D01*
X162616020Y-105073500D01*
X162616020Y-105073499D01*
X162724237Y-105044503D01*
X162821263Y-104988485D01*
X162900485Y-104909263D01*
X162956503Y-104812237D01*
X162985499Y-104704020D01*
X162985500Y-104704020D01*
X162985500Y-104591980D01*
X162985499Y-104591979D01*
X163150500Y-104591979D01*
X163150500Y-104704020D01*
X163179495Y-104812232D01*
X163179496Y-104812235D01*
X163179497Y-104812237D01*
X163235515Y-104909263D01*
X163314737Y-104988485D01*
X163411763Y-105044503D01*
X163519979Y-105073499D01*
X163519980Y-105073500D01*
X163519982Y-105073500D01*
X163632020Y-105073500D01*
X163632020Y-105073499D01*
X163740237Y-105044503D01*
X163837263Y-104988485D01*
X163916485Y-104909263D01*
X163972503Y-104812237D01*
X164001499Y-104704020D01*
X164001500Y-104704020D01*
X164001500Y-104591980D01*
X164001499Y-104591979D01*
X164166500Y-104591979D01*
X164166500Y-104704020D01*
X164195495Y-104812232D01*
X164195496Y-104812235D01*
X164195497Y-104812237D01*
X164251515Y-104909263D01*
X164330737Y-104988485D01*
X164427763Y-105044503D01*
X164535979Y-105073499D01*
X164535980Y-105073500D01*
X164535982Y-105073500D01*
X164648020Y-105073500D01*
X164648020Y-105073499D01*
X164756237Y-105044503D01*
X164853263Y-104988485D01*
X164932485Y-104909263D01*
X164988503Y-104812237D01*
X165017499Y-104704020D01*
X165017500Y-104704020D01*
X165017500Y-104591980D01*
X165017499Y-104591979D01*
X165182500Y-104591979D01*
X165182500Y-104704020D01*
X165211495Y-104812232D01*
X165211496Y-104812235D01*
X165211497Y-104812237D01*
X165267515Y-104909263D01*
X165346737Y-104988485D01*
X165443763Y-105044503D01*
X165551979Y-105073499D01*
X165551980Y-105073500D01*
X165551982Y-105073500D01*
X165664020Y-105073500D01*
X165664020Y-105073499D01*
X165772237Y-105044503D01*
X165869263Y-104988485D01*
X165948485Y-104909263D01*
X166004503Y-104812237D01*
X166033499Y-104704020D01*
X166033500Y-104704020D01*
X166033500Y-104591980D01*
X166033499Y-104591979D01*
X166198500Y-104591979D01*
X166198500Y-104704020D01*
X166227495Y-104812232D01*
X166227496Y-104812235D01*
X166227497Y-104812237D01*
X166283515Y-104909263D01*
X166362737Y-104988485D01*
X166459763Y-105044503D01*
X166567979Y-105073499D01*
X166567980Y-105073500D01*
X166567982Y-105073500D01*
X166680020Y-105073500D01*
X166680020Y-105073499D01*
X166788237Y-105044503D01*
X166885263Y-104988485D01*
X166964485Y-104909263D01*
X167020503Y-104812237D01*
X167049499Y-104704020D01*
X167049500Y-104704020D01*
X167049500Y-104591980D01*
X167049499Y-104591979D01*
X167214500Y-104591979D01*
X167214500Y-104704020D01*
X167243495Y-104812232D01*
X167243496Y-104812235D01*
X167243497Y-104812237D01*
X167299515Y-104909263D01*
X167378737Y-104988485D01*
X167475763Y-105044503D01*
X167583979Y-105073499D01*
X167583980Y-105073500D01*
X167583982Y-105073500D01*
X167696020Y-105073500D01*
X167696020Y-105073499D01*
X167804237Y-105044503D01*
X167901263Y-104988485D01*
X167980485Y-104909263D01*
X168036503Y-104812237D01*
X168065499Y-104704020D01*
X168065500Y-104704020D01*
X168065500Y-104591980D01*
X168065499Y-104591979D01*
X168230500Y-104591979D01*
X168230500Y-104704020D01*
X168259495Y-104812232D01*
X168259496Y-104812235D01*
X168259497Y-104812237D01*
X168315515Y-104909263D01*
X168394737Y-104988485D01*
X168491763Y-105044503D01*
X168599979Y-105073499D01*
X168599980Y-105073500D01*
X168599982Y-105073500D01*
X168712020Y-105073500D01*
X168712020Y-105073499D01*
X168820237Y-105044503D01*
X168917263Y-104988485D01*
X168996485Y-104909263D01*
X169052503Y-104812237D01*
X169081499Y-104704020D01*
X169081500Y-104704020D01*
X169081500Y-104591980D01*
X169081499Y-104591979D01*
X169052504Y-104483767D01*
X169052503Y-104483763D01*
X168996485Y-104386737D01*
X168917263Y-104307515D01*
X168820241Y-104251499D01*
X168820232Y-104251495D01*
X168712020Y-104222500D01*
X168712018Y-104222500D01*
X168599982Y-104222500D01*
X168599980Y-104222500D01*
X168491767Y-104251495D01*
X168491758Y-104251499D01*
X168394736Y-104307515D01*
X168315515Y-104386736D01*
X168259499Y-104483758D01*
X168259495Y-104483767D01*
X168230500Y-104591979D01*
X168065499Y-104591979D01*
X168036504Y-104483767D01*
X168036503Y-104483763D01*
X167980485Y-104386737D01*
X167901263Y-104307515D01*
X167804241Y-104251499D01*
X167804232Y-104251495D01*
X167696020Y-104222500D01*
X167696018Y-104222500D01*
X167583982Y-104222500D01*
X167583980Y-104222500D01*
X167475767Y-104251495D01*
X167475758Y-104251499D01*
X167378736Y-104307515D01*
X167299515Y-104386736D01*
X167243499Y-104483758D01*
X167243495Y-104483767D01*
X167214500Y-104591979D01*
X167049499Y-104591979D01*
X167020504Y-104483767D01*
X167020503Y-104483763D01*
X166964485Y-104386737D01*
X166885263Y-104307515D01*
X166788241Y-104251499D01*
X166788232Y-104251495D01*
X166680020Y-104222500D01*
X166680018Y-104222500D01*
X166567982Y-104222500D01*
X166567980Y-104222500D01*
X166459767Y-104251495D01*
X166459758Y-104251499D01*
X166362736Y-104307515D01*
X166283515Y-104386736D01*
X166227499Y-104483758D01*
X166227495Y-104483767D01*
X166198500Y-104591979D01*
X166033499Y-104591979D01*
X166004504Y-104483767D01*
X166004503Y-104483763D01*
X165948485Y-104386737D01*
X165869263Y-104307515D01*
X165772241Y-104251499D01*
X165772232Y-104251495D01*
X165664020Y-104222500D01*
X165664018Y-104222500D01*
X165551982Y-104222500D01*
X165551980Y-104222500D01*
X165443767Y-104251495D01*
X165443758Y-104251499D01*
X165346736Y-104307515D01*
X165267515Y-104386736D01*
X165211499Y-104483758D01*
X165211495Y-104483767D01*
X165182500Y-104591979D01*
X165017499Y-104591979D01*
X164988504Y-104483767D01*
X164988503Y-104483763D01*
X164932485Y-104386737D01*
X164853263Y-104307515D01*
X164756241Y-104251499D01*
X164756232Y-104251495D01*
X164648020Y-104222500D01*
X164648018Y-104222500D01*
X164535982Y-104222500D01*
X164535980Y-104222500D01*
X164427767Y-104251495D01*
X164427758Y-104251499D01*
X164330736Y-104307515D01*
X164251515Y-104386736D01*
X164195499Y-104483758D01*
X164195495Y-104483767D01*
X164166500Y-104591979D01*
X164001499Y-104591979D01*
X163972504Y-104483767D01*
X163972503Y-104483763D01*
X163916485Y-104386737D01*
X163837263Y-104307515D01*
X163740241Y-104251499D01*
X163740232Y-104251495D01*
X163632020Y-104222500D01*
X163632018Y-104222500D01*
X163519982Y-104222500D01*
X163519980Y-104222500D01*
X163411767Y-104251495D01*
X163411758Y-104251499D01*
X163314736Y-104307515D01*
X163235515Y-104386736D01*
X163179499Y-104483758D01*
X163179495Y-104483767D01*
X163150500Y-104591979D01*
X162985499Y-104591979D01*
X162956504Y-104483767D01*
X162956503Y-104483763D01*
X162900485Y-104386737D01*
X162821263Y-104307515D01*
X162724241Y-104251499D01*
X162724232Y-104251495D01*
X162616020Y-104222500D01*
X162616018Y-104222500D01*
X162503982Y-104222500D01*
X162503980Y-104222500D01*
X162395767Y-104251495D01*
X162395758Y-104251499D01*
X162298736Y-104307515D01*
X162219515Y-104386736D01*
X162163499Y-104483758D01*
X162163495Y-104483767D01*
X162134500Y-104591979D01*
X161969499Y-104591979D01*
X161940504Y-104483767D01*
X161940503Y-104483763D01*
X161884485Y-104386737D01*
X161805263Y-104307515D01*
X161708241Y-104251499D01*
X161708232Y-104251495D01*
X161600020Y-104222500D01*
X161600018Y-104222500D01*
X161487982Y-104222500D01*
X161487980Y-104222500D01*
X161379767Y-104251495D01*
X161379758Y-104251499D01*
X161282736Y-104307515D01*
X161203515Y-104386736D01*
X161147499Y-104483758D01*
X161147495Y-104483767D01*
X161118500Y-104591979D01*
X50010500Y-104591979D01*
X50010500Y-99959305D01*
X104960300Y-99959305D01*
X104960300Y-100091094D01*
X104994406Y-100218381D01*
X104994407Y-100218384D01*
X104994408Y-100218386D01*
X105060300Y-100332514D01*
X105153486Y-100425700D01*
X105267614Y-100491592D01*
X105394905Y-100525699D01*
X105394906Y-100525700D01*
X105394908Y-100525700D01*
X105526694Y-100525700D01*
X105526694Y-100525699D01*
X105653986Y-100491592D01*
X105768114Y-100425700D01*
X105861300Y-100332514D01*
X105927192Y-100218386D01*
X105961299Y-100091094D01*
X105961300Y-100091094D01*
X105961300Y-99959306D01*
X105959194Y-99951448D01*
X105959193Y-99951447D01*
X105955035Y-99935930D01*
X119349500Y-99935930D01*
X119349500Y-100064065D01*
X119374497Y-100189737D01*
X119374498Y-100189740D01*
X119386361Y-100218381D01*
X119423535Y-100308125D01*
X119494724Y-100414667D01*
X119585331Y-100505274D01*
X119691873Y-100576463D01*
X119810256Y-100625499D01*
X119810258Y-100625499D01*
X119810260Y-100625500D01*
X119852903Y-100633982D01*
X119935931Y-100650498D01*
X119935933Y-100650498D01*
X120064067Y-100650498D01*
X120064069Y-100650498D01*
X120189744Y-100625499D01*
X120308127Y-100576463D01*
X120414669Y-100505274D01*
X120505276Y-100414667D01*
X120576465Y-100308125D01*
X120625501Y-100189742D01*
X120650500Y-100064067D01*
X120650500Y-100011932D01*
X159369500Y-100011932D01*
X159369500Y-100140067D01*
X159394497Y-100265739D01*
X159394498Y-100265742D01*
X159394499Y-100265744D01*
X159443535Y-100384127D01*
X159514724Y-100490669D01*
X159605331Y-100581276D01*
X159711873Y-100652465D01*
X159830256Y-100701501D01*
X159830258Y-100701501D01*
X159830260Y-100701502D01*
X159872903Y-100709984D01*
X159955931Y-100726500D01*
X159955933Y-100726500D01*
X160084067Y-100726500D01*
X160084069Y-100726500D01*
X160209744Y-100701501D01*
X160328127Y-100652465D01*
X160434669Y-100581276D01*
X160525276Y-100490669D01*
X160596465Y-100384127D01*
X160645501Y-100265744D01*
X160670500Y-100140069D01*
X160670500Y-100011931D01*
X160645501Y-99886256D01*
X160596465Y-99767873D01*
X160525276Y-99661331D01*
X160434669Y-99570724D01*
X160416838Y-99558810D01*
X160365789Y-99524700D01*
X160328127Y-99499535D01*
X160328124Y-99499533D01*
X160328123Y-99499533D01*
X160209742Y-99450498D01*
X160209739Y-99450497D01*
X160119696Y-99432586D01*
X160084069Y-99425500D01*
X159955931Y-99425500D01*
X159924726Y-99431707D01*
X159830260Y-99450497D01*
X159830257Y-99450498D01*
X159711876Y-99499533D01*
X159605331Y-99570723D01*
X159605330Y-99570725D01*
X159514725Y-99661330D01*
X159514723Y-99661331D01*
X159443533Y-99767876D01*
X159394498Y-99886257D01*
X159394497Y-99886260D01*
X159369500Y-100011932D01*
X120650500Y-100011932D01*
X120650500Y-99935929D01*
X120629830Y-99832018D01*
X120625502Y-99810258D01*
X120625501Y-99810255D01*
X120576466Y-99691874D01*
X120576465Y-99691871D01*
X120505276Y-99585329D01*
X120414669Y-99494722D01*
X120308127Y-99423533D01*
X120308124Y-99423531D01*
X120308123Y-99423531D01*
X120189742Y-99374496D01*
X120189739Y-99374495D01*
X120099696Y-99356584D01*
X120064069Y-99349498D01*
X119935931Y-99349498D01*
X119904726Y-99355705D01*
X119810260Y-99374495D01*
X119810257Y-99374496D01*
X119691876Y-99423531D01*
X119585331Y-99494721D01*
X119585330Y-99494723D01*
X119494725Y-99585328D01*
X119494723Y-99585329D01*
X119423533Y-99691874D01*
X119374498Y-99810255D01*
X119374497Y-99810258D01*
X119349500Y-99935930D01*
X105955035Y-99935930D01*
X105927192Y-99832014D01*
X105861300Y-99717886D01*
X105768114Y-99624700D01*
X105674627Y-99570725D01*
X105653990Y-99558810D01*
X105653981Y-99558806D01*
X105526694Y-99524700D01*
X105526692Y-99524700D01*
X105394908Y-99524700D01*
X105394906Y-99524700D01*
X105267618Y-99558806D01*
X105267609Y-99558810D01*
X105153485Y-99624700D01*
X105060300Y-99717885D01*
X104994410Y-99832009D01*
X104994406Y-99832018D01*
X104960300Y-99959305D01*
X50010500Y-99959305D01*
X50010500Y-96084500D01*
X50032174Y-96032174D01*
X50084500Y-96010500D01*
X169915500Y-96010500D01*
X169967826Y-96032174D01*
G37*
%TD.AperFunction*%
%TD*%
M02*
