%TF.GenerationSoftware,KiCad,Pcbnew,9.0.6*%
%TF.CreationDate,2025-11-30T01:16:05+01:00*%
%TF.ProjectId,Robobuoy_BMS_S6_V1_0,526f626f-6275-46f7-995f-424d535f5336,rev?*%
%TF.SameCoordinates,Original*%
%TF.FileFunction,Copper,L4,Bot*%
%TF.FilePolarity,Positive*%
%FSLAX46Y46*%
G04 Gerber Fmt 4.6, Leading zero omitted, Abs format (unit mm)*
G04 Created by KiCad (PCBNEW 9.0.6) date 2025-11-30 01:16:05*
%MOMM*%
%LPD*%
G01*
G04 APERTURE LIST*
G04 Aperture macros list*
%AMRoundRect*
0 Rectangle with rounded corners*
0 $1 Rounding radius*
0 $2 $3 $4 $5 $6 $7 $8 $9 X,Y pos of 4 corners*
0 Add a 4 corners polygon primitive as box body*
4,1,4,$2,$3,$4,$5,$6,$7,$8,$9,$2,$3,0*
0 Add four circle primitives for the rounded corners*
1,1,$1+$1,$2,$3*
1,1,$1+$1,$4,$5*
1,1,$1+$1,$6,$7*
1,1,$1+$1,$8,$9*
0 Add four rect primitives between the rounded corners*
20,1,$1+$1,$2,$3,$4,$5,0*
20,1,$1+$1,$4,$5,$6,$7,0*
20,1,$1+$1,$6,$7,$8,$9,0*
20,1,$1+$1,$8,$9,$2,$3,0*%
G04 Aperture macros list end*
%TA.AperFunction,ComponentPad*%
%ADD10RoundRect,0.250000X0.725000X-0.600000X0.725000X0.600000X-0.725000X0.600000X-0.725000X-0.600000X0*%
%TD*%
%TA.AperFunction,ComponentPad*%
%ADD11O,1.950000X1.700000*%
%TD*%
%TA.AperFunction,ViaPad*%
%ADD12C,0.450000*%
%TD*%
%TA.AperFunction,ViaPad*%
%ADD13C,0.900000*%
%TD*%
%TA.AperFunction,ViaPad*%
%ADD14C,0.600000*%
%TD*%
%TA.AperFunction,ViaPad*%
%ADD15C,0.800000*%
%TD*%
%TA.AperFunction,Conductor*%
%ADD16C,0.300000*%
%TD*%
%TA.AperFunction,Conductor*%
%ADD17C,1.500000*%
%TD*%
%TA.AperFunction,Conductor*%
%ADD18C,0.200000*%
%TD*%
%TA.AperFunction,Conductor*%
%ADD19C,1.000000*%
%TD*%
%TA.AperFunction,Conductor*%
%ADD20C,0.700000*%
%TD*%
%TA.AperFunction,Conductor*%
%ADD21C,2.500000*%
%TD*%
%TA.AperFunction,Conductor*%
%ADD22C,0.600000*%
%TD*%
%TA.AperFunction,Conductor*%
%ADD23C,5.000000*%
%TD*%
%TA.AperFunction,Conductor*%
%ADD24C,4.500000*%
%TD*%
%TA.AperFunction,Conductor*%
%ADD25C,0.250000*%
%TD*%
G04 APERTURE END LIST*
D10*
%TO.P,J102,1,Pin_1*%
%TO.N,VBATT-*%
X156000000Y-127500000D03*
D11*
%TO.P,J102,2,Pin_2*%
%TO.N,/B1*%
X156000000Y-125000000D03*
%TO.P,J102,3,Pin_3*%
%TO.N,/B2*%
X156000000Y-122500000D03*
%TO.P,J102,4,Pin_4*%
%TO.N,/B3*%
X156000000Y-120000000D03*
%TO.P,J102,5,Pin_5*%
%TO.N,/B4*%
X156000000Y-117500000D03*
%TO.P,J102,6,Pin_6*%
%TO.N,/B5*%
X156000000Y-115000000D03*
%TO.P,J102,7,Pin_7*%
%TO.N,VBATT+*%
X156000000Y-112500000D03*
%TD*%
D10*
%TO.P,J101,1,Pin_1*%
%TO.N,VBATT-*%
X148000000Y-127500000D03*
D11*
%TO.P,J101,2,Pin_2*%
%TO.N,/B1*%
X148000000Y-125000000D03*
%TO.P,J101,3,Pin_3*%
%TO.N,/B2*%
X148000000Y-122500000D03*
%TO.P,J101,4,Pin_4*%
%TO.N,/B3*%
X148000000Y-120000000D03*
%TO.P,J101,5,Pin_5*%
%TO.N,/B4*%
X148000000Y-117500000D03*
%TO.P,J101,6,Pin_6*%
%TO.N,/B5*%
X148000000Y-115000000D03*
%TO.P,J101,7,Pin_7*%
%TO.N,VBATT+*%
X148000000Y-112500000D03*
%TD*%
D12*
%TO.N,VBATT-*%
X54356000Y-99060000D03*
X54356000Y-100076000D03*
X163576000Y-121920000D03*
X62992000Y-103632000D03*
X55372000Y-133096000D03*
X161544000Y-135636000D03*
X64008000Y-100584000D03*
X66548000Y-100584000D03*
X168656000Y-135636000D03*
X53340000Y-99060000D03*
X55880000Y-97536000D03*
X161544000Y-134620000D03*
X52324000Y-133096000D03*
X54356000Y-133096000D03*
X168656000Y-121920000D03*
X66548000Y-101600000D03*
X58928000Y-97536000D03*
X52324000Y-102108000D03*
X60960000Y-97536000D03*
X73406000Y-103632000D03*
X64008000Y-103632000D03*
X57912000Y-97536000D03*
X66548000Y-98552000D03*
X164592000Y-135636000D03*
X167640000Y-135636000D03*
X168656000Y-130556000D03*
X168656000Y-128016000D03*
X54356000Y-134112000D03*
X55880000Y-102616000D03*
X166624000Y-129540000D03*
X166624000Y-128016000D03*
X55372000Y-136144000D03*
X64008000Y-99568000D03*
X53340000Y-133096000D03*
X59944000Y-97536000D03*
X55372000Y-134112000D03*
X163576000Y-128016000D03*
X55372000Y-102108000D03*
X162560000Y-135636000D03*
X168656000Y-133604000D03*
X66548000Y-97536000D03*
X52324000Y-101092000D03*
X163576000Y-135636000D03*
X164592000Y-128016000D03*
X62992000Y-97536000D03*
X163576000Y-129540000D03*
X52324000Y-132080000D03*
X64008000Y-102616000D03*
X55372000Y-99060000D03*
X55372000Y-98044000D03*
X168656000Y-129540000D03*
X66548000Y-96520000D03*
X168656000Y-123952000D03*
X54356000Y-102108000D03*
X162560000Y-129540000D03*
X57912000Y-103632000D03*
X53340000Y-132080000D03*
X66548000Y-99568000D03*
X64008000Y-98552000D03*
X164592000Y-121920000D03*
X168656000Y-124968000D03*
X165608000Y-135636000D03*
X55372000Y-101092000D03*
X54356000Y-136144000D03*
X161544000Y-131572000D03*
X161544000Y-123952000D03*
X168656000Y-122936000D03*
X54356000Y-98044000D03*
X168656000Y-131572000D03*
D13*
X80238600Y-121361200D03*
D12*
X55880000Y-103632000D03*
X66548000Y-103632000D03*
X161544000Y-125984000D03*
X168656000Y-127000000D03*
X53340000Y-135128000D03*
X58928000Y-103632000D03*
X52324000Y-136144000D03*
X55372000Y-100076000D03*
X165608000Y-121920000D03*
X54356000Y-132080000D03*
X56896000Y-97536000D03*
X67132200Y-121361200D03*
X167640000Y-129540000D03*
X161544000Y-124968000D03*
X66548000Y-102616000D03*
X164592000Y-129540000D03*
X53340000Y-101092000D03*
X161544000Y-121920000D03*
X166624000Y-135636000D03*
X161544000Y-122936000D03*
X52324000Y-135128000D03*
X166624000Y-121920000D03*
X54356000Y-135128000D03*
X53340000Y-134112000D03*
X165608000Y-128016000D03*
D13*
X59944000Y-99822000D03*
D12*
X168656000Y-125984000D03*
X56896000Y-103632000D03*
X55372000Y-135128000D03*
X61976000Y-97536000D03*
X52324000Y-98044000D03*
X161544000Y-128016000D03*
X161544000Y-132588000D03*
X52324000Y-134112000D03*
X162560000Y-121920000D03*
X167640000Y-128016000D03*
X54356000Y-101092000D03*
X53340000Y-102108000D03*
X161544000Y-129540000D03*
X53340000Y-136144000D03*
X53340000Y-100076000D03*
X53340000Y-98044000D03*
X167640000Y-121920000D03*
X168656000Y-134620000D03*
X162560000Y-128016000D03*
X52324000Y-99060000D03*
X52324000Y-100076000D03*
X161544000Y-127000000D03*
X64008000Y-101600000D03*
X55372000Y-132080000D03*
X165608000Y-129540000D03*
X161544000Y-133604000D03*
X60960000Y-103632000D03*
X61976000Y-103632000D03*
X161544000Y-130556000D03*
X59944000Y-103632000D03*
X64008000Y-97536000D03*
X168656000Y-132588000D03*
%TO.N,VBATT+*%
X161544000Y-115824000D03*
X161544000Y-111760000D03*
X163576000Y-117856000D03*
X161544000Y-114808000D03*
X161544000Y-112776000D03*
X166624000Y-104648000D03*
X168656000Y-117856000D03*
X161544000Y-108712000D03*
X57912000Y-128016000D03*
X57912000Y-124968000D03*
X167640000Y-117856000D03*
X161544000Y-106680000D03*
X59944000Y-123952000D03*
X57912000Y-121920000D03*
X161544000Y-113792000D03*
X56896000Y-125984000D03*
X168656000Y-105664000D03*
X166624000Y-111760000D03*
X165000000Y-107500000D03*
X166624000Y-117856000D03*
X60960000Y-124968000D03*
X161544000Y-116840000D03*
X56896000Y-121920000D03*
X59944000Y-122936000D03*
X57912000Y-123952000D03*
X168656000Y-106680000D03*
X164592000Y-104648000D03*
X56896000Y-124968000D03*
X56896000Y-123952000D03*
X58928000Y-125984000D03*
X161544000Y-110744000D03*
X60960000Y-127000000D03*
X59944000Y-124968000D03*
X58928000Y-122936000D03*
X161544000Y-109728000D03*
X163576000Y-110744000D03*
X166624000Y-110744000D03*
X165000000Y-107500000D03*
X162560000Y-111760000D03*
X164592000Y-111760000D03*
X162560000Y-104648000D03*
X162560000Y-117856000D03*
X165000000Y-107500000D03*
X165608000Y-111760000D03*
X161544000Y-117856000D03*
X168656000Y-107696000D03*
X165608000Y-117856000D03*
X59944000Y-127000000D03*
X165608000Y-110744000D03*
X168656000Y-116840000D03*
X165000000Y-107500000D03*
X57912000Y-127000000D03*
X56896000Y-127000000D03*
X163576000Y-111760000D03*
X161544000Y-107696000D03*
D13*
X160020000Y-100076000D03*
D12*
X165000000Y-107500000D03*
X57912000Y-122936000D03*
X161544000Y-105664000D03*
X60960000Y-125984000D03*
X168656000Y-111760000D03*
D13*
X136486064Y-126556336D03*
D12*
X58928000Y-124968000D03*
X164592000Y-110744000D03*
X57912000Y-125984000D03*
X162560000Y-110744000D03*
X58928000Y-127000000D03*
X163576000Y-104648000D03*
X168656000Y-114808000D03*
X60960000Y-122936000D03*
X56896000Y-122936000D03*
X167640000Y-111760000D03*
X164592000Y-117856000D03*
X168656000Y-113792000D03*
X56896000Y-128016000D03*
X167640000Y-104648000D03*
X168656000Y-104648000D03*
X168656000Y-109728000D03*
X165608000Y-104648000D03*
X58928000Y-123952000D03*
X168656000Y-108712000D03*
X168656000Y-112776000D03*
X168656000Y-110744000D03*
X168656000Y-115824000D03*
X59944000Y-125984000D03*
X60960000Y-123952000D03*
X161544000Y-104648000D03*
%TO.N,/Curren-Overcharge-Protection/OC*%
X83616800Y-107086400D03*
X89763600Y-117856000D03*
%TO.N,Net-(Q209-G)*%
X83261200Y-118567200D03*
X70910800Y-118612000D03*
D13*
%TO.N,/B5*%
X140000000Y-140000000D03*
D14*
X128230203Y-122083939D03*
X128981400Y-116636600D03*
D13*
X140004800Y-131445000D03*
D12*
X134169557Y-127426917D03*
X128524000Y-126746000D03*
%TO.N,/B4*%
X115773200Y-126720600D03*
D14*
X137007600Y-124764800D03*
D13*
X120000000Y-99999998D03*
D14*
X120040400Y-108712000D03*
D15*
X121158000Y-117094000D03*
X121158000Y-120700800D03*
D12*
X121234200Y-127381000D03*
D13*
%TO.N,/B3*%
X100076000Y-139954000D03*
X110312200Y-131318000D03*
D14*
X109372400Y-117094000D03*
D12*
X108238000Y-127355600D03*
X102610000Y-126736000D03*
D14*
X108966000Y-120497600D03*
X123672600Y-124714000D03*
%TO.N,/B2*%
X105613200Y-116941600D03*
D12*
X89255600Y-126796800D03*
D14*
X105460800Y-100025200D03*
X111188500Y-124828300D03*
D12*
X95030000Y-127330200D03*
D14*
X106349800Y-121234200D03*
X105460800Y-108204000D03*
D13*
%TO.N,/B1*%
X84480400Y-131470400D03*
D14*
X98552000Y-118160800D03*
D13*
X60198000Y-139954000D03*
D12*
X97078800Y-124764800D03*
%TO.N,Net-(D108-K)*%
X73406000Y-105029000D03*
X70104000Y-110998000D03*
X70104000Y-105029000D03*
%TO.N,/Curren-Overcharge-Protection/Vtrip*%
X72440800Y-112318800D03*
X88290400Y-112318800D03*
%TO.N,Net-(Q205-G)*%
X56362600Y-110439200D03*
X61214000Y-111404400D03*
%TD*%
D16*
%TO.N,VBATT-*%
X80238600Y-121361200D02*
X67132200Y-121361200D01*
D17*
X66548000Y-97536000D02*
X64008000Y-97536000D01*
X64008000Y-102616000D02*
X55880000Y-102616000D01*
D18*
X66548000Y-103632000D02*
X73406000Y-103632000D01*
D19*
X66548000Y-103632000D02*
X66548000Y-97536000D01*
D20*
X55880000Y-97536000D02*
X55372000Y-98044000D01*
D21*
X161442400Y-142087600D02*
X163474400Y-140055600D01*
D20*
X55372000Y-136144000D02*
X55372000Y-132080000D01*
D22*
X56896000Y-97536000D02*
X52832000Y-97536000D01*
D21*
X61315600Y-142087600D02*
X161442400Y-142087600D01*
D17*
X66548000Y-102616000D02*
X64008000Y-102616000D01*
D20*
X55372000Y-136144000D02*
X54356000Y-135128000D01*
D23*
X53340000Y-99060000D02*
X53340000Y-119888000D01*
D21*
X163474400Y-140055600D02*
X165201600Y-138328400D01*
D24*
X53340000Y-100076000D02*
X65024000Y-100076000D01*
D23*
X53340000Y-129032000D02*
X53340000Y-134620000D01*
D22*
X52832000Y-97536000D02*
X52324000Y-98044000D01*
D16*
X63804800Y-118033800D02*
X63804800Y-102438200D01*
X61188600Y-99822000D02*
X59944000Y-99822000D01*
D21*
X53340000Y-134620000D02*
X53340000Y-139852400D01*
D19*
X66548000Y-98552000D02*
X64008000Y-98552000D01*
D16*
X67132200Y-121361200D02*
X63804800Y-118033800D01*
D21*
X165201600Y-138328400D02*
X165201600Y-122834400D01*
X55575200Y-142087600D02*
X61315600Y-142087600D01*
D20*
X55372000Y-136144000D02*
X52324000Y-136144000D01*
D23*
X53340000Y-119888000D02*
X53340000Y-129032000D01*
D19*
X66548000Y-103632000D02*
X64008000Y-103632000D01*
D21*
X53340000Y-139852400D02*
X55575200Y-142087600D01*
D17*
X64008000Y-97536000D02*
X55880000Y-97536000D01*
D19*
X64008000Y-103632000D02*
X55880000Y-103632000D01*
D16*
X63804800Y-102438200D02*
X61188600Y-99822000D01*
D22*
%TO.N,VBATT+*%
X57912000Y-127000000D02*
X60960000Y-127000000D01*
X56896000Y-122936000D02*
X57912000Y-122936000D01*
X56896000Y-128016000D02*
X57912000Y-128016000D01*
X56896000Y-122936000D02*
X58928000Y-124968000D01*
X56896000Y-121920000D02*
X56896000Y-128016000D01*
D24*
X86918800Y-124968000D02*
X99364800Y-112522000D01*
D22*
X56896000Y-128016000D02*
X57912000Y-127000000D01*
D24*
X99364800Y-112522000D02*
X139395200Y-112522000D01*
D22*
X56896000Y-127000000D02*
X58928000Y-124968000D01*
X57912000Y-122936000D02*
X60960000Y-122936000D01*
D24*
X140868400Y-111048800D02*
X166319200Y-111048800D01*
D22*
X57912000Y-121920000D02*
X57912000Y-128016000D01*
D16*
X160020000Y-100076000D02*
X136144000Y-123952000D01*
D22*
X56896000Y-127000000D02*
X57912000Y-127000000D01*
D24*
X139395200Y-112522000D02*
X140868400Y-111048800D01*
D16*
X136144000Y-123952000D02*
X136144000Y-126214273D01*
D22*
X56896000Y-121920000D02*
X57912000Y-122936000D01*
D16*
X136144000Y-126214273D02*
X136486064Y-126556336D01*
D24*
X58928000Y-124968000D02*
X86918800Y-124968000D01*
D22*
X56896000Y-121920000D02*
X57912000Y-121920000D01*
D18*
%TO.N,/Curren-Overcharge-Protection/OC*%
X84988400Y-107086400D02*
X89763600Y-111861600D01*
X89763600Y-111861600D02*
X89763600Y-117856000D01*
X83616800Y-107086400D02*
X84988400Y-107086400D01*
%TO.N,Net-(Q209-G)*%
X70910800Y-118612000D02*
X83216400Y-118612000D01*
X83216400Y-118612000D02*
X83261200Y-118567200D01*
D25*
%TO.N,/B5*%
X133869640Y-127127000D02*
X134169557Y-127426917D01*
X128230203Y-122112197D02*
X128230203Y-122083939D01*
X133502400Y-126746000D02*
X133869640Y-127113240D01*
X128981400Y-121361000D02*
X128230203Y-122112197D01*
X128981400Y-116636600D02*
X128981400Y-121361000D01*
D16*
X140000000Y-140000000D02*
X140000000Y-131449800D01*
X140000000Y-131449800D02*
X140004800Y-131445000D01*
D25*
X133869640Y-127113240D02*
X133869640Y-127127000D01*
X128524000Y-126746000D02*
X133502400Y-126746000D01*
D16*
%TO.N,/B4*%
X137058400Y-124815600D02*
X140665200Y-124815600D01*
X137007600Y-124764800D02*
X137058400Y-124815600D01*
X140665200Y-124815600D02*
X147980800Y-117500000D01*
D25*
X120000000Y-108671600D02*
X120040400Y-108712000D01*
X121234200Y-127381000D02*
X116433600Y-127381000D01*
X121158000Y-117094000D02*
X121158000Y-120700800D01*
X116433600Y-127381000D02*
X115773200Y-126720600D01*
D16*
X147980800Y-117500000D02*
X148000000Y-117500000D01*
X120000000Y-99999998D02*
X120000000Y-108671600D01*
D25*
%TO.N,/B3*%
X108238000Y-127355600D02*
X103229600Y-127355600D01*
D16*
X100076000Y-139954000D02*
X108712000Y-131318000D01*
X139547600Y-128422400D02*
X147970000Y-120000000D01*
D25*
X103229600Y-127355600D02*
X102610000Y-126736000D01*
D16*
X127381000Y-128422400D02*
X139547600Y-128422400D01*
X147970000Y-120000000D02*
X148000000Y-120000000D01*
X123672600Y-124714000D02*
X127381000Y-128422400D01*
D18*
X109372400Y-120091200D02*
X108966000Y-120497600D01*
D16*
X108712000Y-131318000D02*
X110312200Y-131318000D01*
D18*
X109372400Y-117094000D02*
X109372400Y-120091200D01*
D25*
%TO.N,/B2*%
X89789000Y-127330200D02*
X89255600Y-126796800D01*
D16*
X148000000Y-122510000D02*
X148000000Y-122500000D01*
X105613200Y-116941600D02*
X105613200Y-120497600D01*
X105460800Y-100025200D02*
X105460800Y-108204000D01*
X111188500Y-124828300D02*
X115747800Y-129387600D01*
X141122400Y-129387600D02*
X148000000Y-122510000D01*
X115747800Y-129387600D02*
X141122400Y-129387600D01*
D25*
X95030000Y-127330200D02*
X89789000Y-127330200D01*
D16*
X105613200Y-120497600D02*
X106349800Y-121234200D01*
D25*
%TO.N,/B1*%
X98552000Y-123291600D02*
X98552000Y-118160800D01*
D16*
X97078800Y-124764800D02*
X102616000Y-130302000D01*
X142697200Y-130302000D02*
X147999200Y-125000000D01*
D25*
X75996800Y-139954000D02*
X84480400Y-131470400D01*
X97078800Y-124764800D02*
X98552000Y-123291600D01*
D16*
X102616000Y-130302000D02*
X142697200Y-130302000D01*
D25*
X60198000Y-139954000D02*
X75996800Y-139954000D01*
D16*
X147999200Y-125000000D02*
X148000000Y-125000000D01*
D25*
%TO.N,Net-(D108-K)*%
X70104000Y-105029000D02*
X70104000Y-110998000D01*
X70104000Y-105029000D02*
X73406000Y-105029000D01*
D18*
%TO.N,/Curren-Overcharge-Protection/Vtrip*%
X72440800Y-112318800D02*
X88290400Y-112318800D01*
D25*
%TO.N,Net-(Q205-G)*%
X61188600Y-111404400D02*
X61214000Y-111404400D01*
X60223400Y-110439200D02*
X61188600Y-111404400D01*
X56362600Y-110439200D02*
X60223400Y-110439200D01*
%TD*%
%TA.AperFunction,Conductor*%
%TO.N,VBATT+*%
G36*
X168903839Y-96488885D02*
G01*
X168949594Y-96541689D01*
X168960800Y-96593200D01*
X168960800Y-118443200D01*
X168941115Y-118510239D01*
X168888311Y-118555994D01*
X168836800Y-118567200D01*
X160855200Y-118567200D01*
X160788161Y-118547515D01*
X160742406Y-118494711D01*
X160731200Y-118443200D01*
X160731200Y-107797600D01*
X156080000Y-107797600D01*
X156012961Y-107777915D01*
X155967206Y-107725111D01*
X155956000Y-107673600D01*
X155956000Y-96593200D01*
X155975685Y-96526161D01*
X156028489Y-96480406D01*
X156080000Y-96469200D01*
X168836800Y-96469200D01*
X168903839Y-96488885D01*
G37*
%TD.AperFunction*%
%TD*%
%TA.AperFunction,Conductor*%
%TO.N,VBATT-*%
G36*
X168954639Y-121533285D02*
G01*
X169000394Y-121586089D01*
X169011600Y-121637600D01*
X169011600Y-135969200D01*
X168991915Y-136036239D01*
X168939111Y-136081994D01*
X168887600Y-136093200D01*
X160702800Y-136093200D01*
X160635761Y-136073515D01*
X160590006Y-136020711D01*
X160578800Y-135969200D01*
X160578800Y-121637600D01*
X160598485Y-121570561D01*
X160651289Y-121524806D01*
X160702800Y-121513600D01*
X168887600Y-121513600D01*
X168954639Y-121533285D01*
G37*
%TD.AperFunction*%
%TD*%
M02*
