M48
; DRILL file {KiCad 9.0.6} date 2025-12-01T22:48:10+0100
; FORMAT={-:-/ absolute / inch / decimal}
; #@! TF.CreationDate,2025-12-01T22:48:10+01:00
; #@! TF.GenerationSoftware,Kicad,Pcbnew,9.0.6
; #@! TF.FileFunction,Plated,1,4,PTH
FMAT,2
INCH
; #@! TA.AperFunction,Plated,PTH,ViaDrill
T1C0.0098
; #@! TA.AperFunction,Plated,PTH,ViaDrill
T2C0.0118
; #@! TA.AperFunction,Plated,PTH,ViaDrill
T3C0.0157
; #@! TA.AperFunction,Plated,PTH,ComponentDrill
T4C0.0374
%
G90
G05
T1
X2.06Y-3.86
X2.06Y-3.9
X2.06Y-3.94
X2.06Y-3.98
X2.06Y-4.02
X2.06Y-5.2
X2.06Y-5.24
X2.06Y-5.32
X2.06Y-5.36
X2.1Y-3.86
X2.1Y-3.9
X2.1Y-3.94
X2.1Y-3.98
X2.1Y-4.02
X2.1Y-5.2
X2.1Y-5.24
X2.1Y-5.32
X2.1Y-5.36
X2.14Y-3.86
X2.14Y-3.9
X2.14Y-3.94
X2.14Y-3.98
X2.14Y-4.02
X2.14Y-5.2
X2.14Y-5.24
X2.14Y-5.32
X2.14Y-5.36
X2.18Y-3.86
X2.18Y-3.9
X2.18Y-3.94
X2.18Y-3.98
X2.18Y-4.02
X2.18Y-5.2
X2.18Y-5.24
X2.18Y-5.32
X2.18Y-5.36
X2.2Y-3.84
X2.2Y-4.04
X2.2Y-4.08
X2.219Y-4.348
X2.24Y-3.84
X2.24Y-4.08
X2.24Y-4.8
X2.24Y-4.84
X2.24Y-4.88
X2.24Y-4.96
X2.24Y-5.0
X2.24Y-5.04
X2.28Y-3.84
X2.28Y-4.08
X2.28Y-4.8
X2.28Y-4.84
X2.28Y-4.88
X2.28Y-4.96
X2.28Y-5.0
X2.28Y-5.04
X2.32Y-3.84
X2.32Y-4.08
X2.32Y-4.84
X2.32Y-4.88
X2.32Y-4.96
X2.32Y-5.0
X2.36Y-3.84
X2.36Y-4.08
X2.36Y-4.84
X2.36Y-4.88
X2.36Y-4.96
X2.36Y-5.0
X2.4Y-3.84
X2.4Y-4.08
X2.4Y-4.84
X2.4Y-4.88
X2.4Y-4.96
X2.4Y-5.0
X2.41Y-4.386
X2.44Y-3.84
X2.44Y-4.08
X2.48Y-3.84
X2.48Y-4.08
X2.52Y-3.84
X2.52Y-3.88
X2.52Y-3.92
X2.52Y-3.96
X2.52Y-4.0
X2.52Y-4.04
X2.52Y-4.08
X2.62Y-3.8
X2.62Y-3.84
X2.62Y-3.88
X2.62Y-3.92
X2.62Y-3.96
X2.62Y-4.0
X2.62Y-4.04
X2.62Y-4.08
X2.643Y-4.778
X2.754Y-4.135
X2.754Y-4.37
X2.7918Y-4.6698
X2.9091Y-4.135
X2.9143Y-4.4177
X2.9701Y-4.0976
X3.278Y-4.668
X3.292Y-4.216
X3.476Y-4.422
X3.514Y-4.992
X3.534Y-4.64
X3.7413Y-5.013
X3.822Y-4.912
X4.0398Y-4.9896
X4.2613Y-5.014
X4.558Y-4.989
X4.773Y-5.015
X5.06Y-4.99
X5.2823Y-5.0168
X6.16Y-3.82
X6.16Y-3.86
X6.16Y-3.9
X6.16Y-3.94
X6.16Y-3.98
X6.16Y-4.02
X6.16Y-4.06
X6.16Y-4.22
X6.2Y-3.82
X6.2Y-4.22
X6.24Y-3.82
X6.24Y-4.22
X6.28Y-3.82
X6.28Y-4.22
X6.32Y-3.82
X6.32Y-4.22
X6.36Y-3.82
X6.36Y-4.24
X6.36Y-4.28
X6.36Y-4.32
X6.36Y-4.44
X6.36Y-4.48
X6.36Y-4.52
X6.36Y-4.56
X6.36Y-4.6
X6.36Y-4.64
X6.36Y-4.8
X6.36Y-4.84
X6.36Y-4.88
X6.36Y-4.92
X6.36Y-4.96
X6.36Y-5.0
X6.36Y-5.04
X6.36Y-5.1
X6.36Y-5.14
X6.36Y-5.18
X6.36Y-5.22
X6.4Y-3.82
X6.4Y-4.36
X6.4Y-4.4
X6.4Y-4.64
X6.4Y-4.8
X6.4Y-5.04
X6.4Y-5.1
X6.4Y-5.34
X6.44Y-3.82
X6.44Y-3.86
X6.44Y-3.9
X6.44Y-3.94
X6.44Y-3.98
X6.44Y-4.02
X6.44Y-4.06
X6.44Y-4.64
X6.44Y-4.8
X6.44Y-5.04
X6.44Y-5.1
X6.44Y-5.34
X6.46Y-4.08
X6.48Y-4.1
X6.48Y-4.64
X6.48Y-4.8
X6.4961Y-4.2323
X6.4961Y-4.2323
X6.4961Y-4.2323
X6.4961Y-4.2323
X6.4961Y-4.2323
X6.5Y-4.52
X6.5Y-4.92
X6.5Y-5.18
X6.52Y-4.12
X6.52Y-4.64
X6.52Y-4.8
X6.56Y-4.12
X6.56Y-4.64
X6.56Y-4.8
X6.56Y-5.04
X6.56Y-5.1
X6.56Y-5.34
X6.6Y-4.12
X6.6Y-4.36
X6.6Y-4.4
X6.6Y-4.64
X6.6Y-4.8
X6.6Y-5.04
X6.6Y-5.1
X6.6Y-5.34
X6.64Y-4.12
X6.64Y-4.16
X6.64Y-4.2
X6.64Y-4.24
X6.64Y-4.28
X6.64Y-4.32
X6.64Y-4.44
X6.64Y-4.48
X6.64Y-4.52
X6.64Y-4.56
X6.64Y-4.6
X6.64Y-4.64
X6.64Y-4.8
X6.64Y-4.84
X6.64Y-4.88
X6.64Y-4.92
X6.64Y-4.96
X6.64Y-5.0
X6.64Y-5.04
X6.64Y-5.1
X6.64Y-5.14
X6.64Y-5.18
X6.64Y-5.22
X6.64Y-5.26
X6.64Y-5.3
X6.64Y-5.34
T2
X3.86Y-4.652
X4.152Y-3.938
X4.152Y-4.26
X4.158Y-4.604
X4.187Y-4.773
X4.29Y-4.744
X4.306Y-4.61
X4.3775Y-4.9145
X4.726Y-4.28
X4.869Y-4.91
X5.0484Y-4.8065
X5.078Y-4.592
X5.394Y-4.912
T3
X2.36Y-3.93
X3.1496Y-5.5118
X3.159Y-4.778
X3.326Y-5.176
X4.47Y-5.175
X4.475Y-5.5118
X4.7244Y-3.937
X4.77Y-4.61
X4.77Y-4.752
X5.3735Y-4.9825
X5.5118Y-5.5118
X5.512Y-5.175
X6.3Y-3.94
T4
X5.8268Y-4.4291
X5.8268Y-4.5276
X5.8268Y-4.626
X5.8268Y-4.7244
X5.8268Y-4.8228
X5.8268Y-4.9213
X5.8268Y-5.0197
X6.1417Y-4.4291
X6.1417Y-4.5276
X6.1417Y-4.626
X6.1417Y-4.7244
X6.1417Y-4.8228
X6.1417Y-4.9213
X6.1417Y-5.0197
M30
