%TF.GenerationSoftware,KiCad,Pcbnew,9.0.6*%
%TF.CreationDate,2025-12-01T22:48:10+01:00*%
%TF.ProjectId,Robobuoy_BMS_S6_V1_0,526f626f-6275-46f7-995f-424d535f5336,rev?*%
%TF.SameCoordinates,Original*%
%TF.FileFunction,Legend,Bot*%
%TF.FilePolarity,Positive*%
%FSLAX46Y46*%
G04 Gerber Fmt 4.6, Leading zero omitted, Abs format (unit mm)*
G04 Created by KiCad (PCBNEW 9.0.6) date 2025-12-01 22:48:10*
%MOMM*%
%LPD*%
G01*
G04 APERTURE LIST*
G04 Aperture macros list*
%AMRoundRect*
0 Rectangle with rounded corners*
0 $1 Rounding radius*
0 $2 $3 $4 $5 $6 $7 $8 $9 X,Y pos of 4 corners*
0 Add a 4 corners polygon primitive as box body*
4,1,4,$2,$3,$4,$5,$6,$7,$8,$9,$2,$3,0*
0 Add four circle primitives for the rounded corners*
1,1,$1+$1,$2,$3*
1,1,$1+$1,$4,$5*
1,1,$1+$1,$6,$7*
1,1,$1+$1,$8,$9*
0 Add four rect primitives between the rounded corners*
20,1,$1+$1,$2,$3,$4,$5,0*
20,1,$1+$1,$4,$5,$6,$7,0*
20,1,$1+$1,$6,$7,$8,$9,0*
20,1,$1+$1,$8,$9,$2,$3,0*%
G04 Aperture macros list end*
%ADD10C,0.200000*%
%ADD11C,0.500000*%
%ADD12RoundRect,0.250000X0.725000X-0.600000X0.725000X0.600000X-0.725000X0.600000X-0.725000X-0.600000X0*%
%ADD13O,1.950000X1.700000*%
G04 APERTURE END LIST*
D10*
X154749141Y-109681721D02*
X154677713Y-109610293D01*
X154677713Y-109610293D02*
X154534856Y-109538864D01*
X154534856Y-109538864D02*
X154177713Y-109538864D01*
X154177713Y-109538864D02*
X154034856Y-109610293D01*
X154034856Y-109610293D02*
X153963427Y-109681721D01*
X153963427Y-109681721D02*
X153891998Y-109824578D01*
X153891998Y-109824578D02*
X153891998Y-109967436D01*
X153891998Y-109967436D02*
X153963427Y-110181721D01*
X153963427Y-110181721D02*
X154820570Y-111038864D01*
X154820570Y-111038864D02*
X153891998Y-111038864D01*
X152534856Y-109538864D02*
X153249142Y-109538864D01*
X153249142Y-109538864D02*
X153320570Y-110253150D01*
X153320570Y-110253150D02*
X153249142Y-110181721D01*
X153249142Y-110181721D02*
X153106285Y-110110293D01*
X153106285Y-110110293D02*
X152749142Y-110110293D01*
X152749142Y-110110293D02*
X152606285Y-110181721D01*
X152606285Y-110181721D02*
X152534856Y-110253150D01*
X152534856Y-110253150D02*
X152463427Y-110396007D01*
X152463427Y-110396007D02*
X152463427Y-110753150D01*
X152463427Y-110753150D02*
X152534856Y-110896007D01*
X152534856Y-110896007D02*
X152606285Y-110967436D01*
X152606285Y-110967436D02*
X152749142Y-111038864D01*
X152749142Y-111038864D02*
X153106285Y-111038864D01*
X153106285Y-111038864D02*
X153249142Y-110967436D01*
X153249142Y-110967436D02*
X153320570Y-110896007D01*
X151820571Y-110896007D02*
X151749142Y-110967436D01*
X151749142Y-110967436D02*
X151820571Y-111038864D01*
X151820571Y-111038864D02*
X151891999Y-110967436D01*
X151891999Y-110967436D02*
X151820571Y-110896007D01*
X151820571Y-110896007D02*
X151820571Y-111038864D01*
X151177713Y-109681721D02*
X151106285Y-109610293D01*
X151106285Y-109610293D02*
X150963428Y-109538864D01*
X150963428Y-109538864D02*
X150606285Y-109538864D01*
X150606285Y-109538864D02*
X150463428Y-109610293D01*
X150463428Y-109610293D02*
X150391999Y-109681721D01*
X150391999Y-109681721D02*
X150320570Y-109824578D01*
X150320570Y-109824578D02*
X150320570Y-109967436D01*
X150320570Y-109967436D02*
X150391999Y-110181721D01*
X150391999Y-110181721D02*
X151249142Y-111038864D01*
X151249142Y-111038864D02*
X150320570Y-111038864D01*
X149891999Y-109538864D02*
X149391999Y-111038864D01*
X149391999Y-111038864D02*
X148891999Y-109538864D01*
X152713428Y-112668066D02*
X152499142Y-112739494D01*
X152499142Y-112739494D02*
X152427713Y-112810923D01*
X152427713Y-112810923D02*
X152356285Y-112953780D01*
X152356285Y-112953780D02*
X152356285Y-113168066D01*
X152356285Y-113168066D02*
X152427713Y-113310923D01*
X152427713Y-113310923D02*
X152499142Y-113382352D01*
X152499142Y-113382352D02*
X152641999Y-113453780D01*
X152641999Y-113453780D02*
X153213428Y-113453780D01*
X153213428Y-113453780D02*
X153213428Y-111953780D01*
X153213428Y-111953780D02*
X152713428Y-111953780D01*
X152713428Y-111953780D02*
X152570571Y-112025209D01*
X152570571Y-112025209D02*
X152499142Y-112096637D01*
X152499142Y-112096637D02*
X152427713Y-112239494D01*
X152427713Y-112239494D02*
X152427713Y-112382352D01*
X152427713Y-112382352D02*
X152499142Y-112525209D01*
X152499142Y-112525209D02*
X152570571Y-112596637D01*
X152570571Y-112596637D02*
X152713428Y-112668066D01*
X152713428Y-112668066D02*
X153213428Y-112668066D01*
X151713428Y-112882352D02*
X150570571Y-112882352D01*
X151141999Y-113453780D02*
X151141999Y-112310923D01*
X152499142Y-115082982D02*
X152284856Y-115154410D01*
X152284856Y-115154410D02*
X152213427Y-115225839D01*
X152213427Y-115225839D02*
X152141999Y-115368696D01*
X152141999Y-115368696D02*
X152141999Y-115582982D01*
X152141999Y-115582982D02*
X152213427Y-115725839D01*
X152213427Y-115725839D02*
X152284856Y-115797268D01*
X152284856Y-115797268D02*
X152427713Y-115868696D01*
X152427713Y-115868696D02*
X152999142Y-115868696D01*
X152999142Y-115868696D02*
X152999142Y-114368696D01*
X152999142Y-114368696D02*
X152499142Y-114368696D01*
X152499142Y-114368696D02*
X152356285Y-114440125D01*
X152356285Y-114440125D02*
X152284856Y-114511553D01*
X152284856Y-114511553D02*
X152213427Y-114654410D01*
X152213427Y-114654410D02*
X152213427Y-114797268D01*
X152213427Y-114797268D02*
X152284856Y-114940125D01*
X152284856Y-114940125D02*
X152356285Y-115011553D01*
X152356285Y-115011553D02*
X152499142Y-115082982D01*
X152499142Y-115082982D02*
X152999142Y-115082982D01*
X150784856Y-114368696D02*
X151499142Y-114368696D01*
X151499142Y-114368696D02*
X151570570Y-115082982D01*
X151570570Y-115082982D02*
X151499142Y-115011553D01*
X151499142Y-115011553D02*
X151356285Y-114940125D01*
X151356285Y-114940125D02*
X150999142Y-114940125D01*
X150999142Y-114940125D02*
X150856285Y-115011553D01*
X150856285Y-115011553D02*
X150784856Y-115082982D01*
X150784856Y-115082982D02*
X150713427Y-115225839D01*
X150713427Y-115225839D02*
X150713427Y-115582982D01*
X150713427Y-115582982D02*
X150784856Y-115725839D01*
X150784856Y-115725839D02*
X150856285Y-115797268D01*
X150856285Y-115797268D02*
X150999142Y-115868696D01*
X150999142Y-115868696D02*
X151356285Y-115868696D01*
X151356285Y-115868696D02*
X151499142Y-115797268D01*
X151499142Y-115797268D02*
X151570570Y-115725839D01*
X152499142Y-117497898D02*
X152284856Y-117569326D01*
X152284856Y-117569326D02*
X152213427Y-117640755D01*
X152213427Y-117640755D02*
X152141999Y-117783612D01*
X152141999Y-117783612D02*
X152141999Y-117997898D01*
X152141999Y-117997898D02*
X152213427Y-118140755D01*
X152213427Y-118140755D02*
X152284856Y-118212184D01*
X152284856Y-118212184D02*
X152427713Y-118283612D01*
X152427713Y-118283612D02*
X152999142Y-118283612D01*
X152999142Y-118283612D02*
X152999142Y-116783612D01*
X152999142Y-116783612D02*
X152499142Y-116783612D01*
X152499142Y-116783612D02*
X152356285Y-116855041D01*
X152356285Y-116855041D02*
X152284856Y-116926469D01*
X152284856Y-116926469D02*
X152213427Y-117069326D01*
X152213427Y-117069326D02*
X152213427Y-117212184D01*
X152213427Y-117212184D02*
X152284856Y-117355041D01*
X152284856Y-117355041D02*
X152356285Y-117426469D01*
X152356285Y-117426469D02*
X152499142Y-117497898D01*
X152499142Y-117497898D02*
X152999142Y-117497898D01*
X150856285Y-117283612D02*
X150856285Y-118283612D01*
X151213427Y-116712184D02*
X151570570Y-117783612D01*
X151570570Y-117783612D02*
X150641999Y-117783612D01*
X152499142Y-119912814D02*
X152284856Y-119984242D01*
X152284856Y-119984242D02*
X152213427Y-120055671D01*
X152213427Y-120055671D02*
X152141999Y-120198528D01*
X152141999Y-120198528D02*
X152141999Y-120412814D01*
X152141999Y-120412814D02*
X152213427Y-120555671D01*
X152213427Y-120555671D02*
X152284856Y-120627100D01*
X152284856Y-120627100D02*
X152427713Y-120698528D01*
X152427713Y-120698528D02*
X152999142Y-120698528D01*
X152999142Y-120698528D02*
X152999142Y-119198528D01*
X152999142Y-119198528D02*
X152499142Y-119198528D01*
X152499142Y-119198528D02*
X152356285Y-119269957D01*
X152356285Y-119269957D02*
X152284856Y-119341385D01*
X152284856Y-119341385D02*
X152213427Y-119484242D01*
X152213427Y-119484242D02*
X152213427Y-119627100D01*
X152213427Y-119627100D02*
X152284856Y-119769957D01*
X152284856Y-119769957D02*
X152356285Y-119841385D01*
X152356285Y-119841385D02*
X152499142Y-119912814D01*
X152499142Y-119912814D02*
X152999142Y-119912814D01*
X151641999Y-119198528D02*
X150713427Y-119198528D01*
X150713427Y-119198528D02*
X151213427Y-119769957D01*
X151213427Y-119769957D02*
X150999142Y-119769957D01*
X150999142Y-119769957D02*
X150856285Y-119841385D01*
X150856285Y-119841385D02*
X150784856Y-119912814D01*
X150784856Y-119912814D02*
X150713427Y-120055671D01*
X150713427Y-120055671D02*
X150713427Y-120412814D01*
X150713427Y-120412814D02*
X150784856Y-120555671D01*
X150784856Y-120555671D02*
X150856285Y-120627100D01*
X150856285Y-120627100D02*
X150999142Y-120698528D01*
X150999142Y-120698528D02*
X151427713Y-120698528D01*
X151427713Y-120698528D02*
X151570570Y-120627100D01*
X151570570Y-120627100D02*
X151641999Y-120555671D01*
X152499142Y-122327730D02*
X152284856Y-122399158D01*
X152284856Y-122399158D02*
X152213427Y-122470587D01*
X152213427Y-122470587D02*
X152141999Y-122613444D01*
X152141999Y-122613444D02*
X152141999Y-122827730D01*
X152141999Y-122827730D02*
X152213427Y-122970587D01*
X152213427Y-122970587D02*
X152284856Y-123042016D01*
X152284856Y-123042016D02*
X152427713Y-123113444D01*
X152427713Y-123113444D02*
X152999142Y-123113444D01*
X152999142Y-123113444D02*
X152999142Y-121613444D01*
X152999142Y-121613444D02*
X152499142Y-121613444D01*
X152499142Y-121613444D02*
X152356285Y-121684873D01*
X152356285Y-121684873D02*
X152284856Y-121756301D01*
X152284856Y-121756301D02*
X152213427Y-121899158D01*
X152213427Y-121899158D02*
X152213427Y-122042016D01*
X152213427Y-122042016D02*
X152284856Y-122184873D01*
X152284856Y-122184873D02*
X152356285Y-122256301D01*
X152356285Y-122256301D02*
X152499142Y-122327730D01*
X152499142Y-122327730D02*
X152999142Y-122327730D01*
X151570570Y-121756301D02*
X151499142Y-121684873D01*
X151499142Y-121684873D02*
X151356285Y-121613444D01*
X151356285Y-121613444D02*
X150999142Y-121613444D01*
X150999142Y-121613444D02*
X150856285Y-121684873D01*
X150856285Y-121684873D02*
X150784856Y-121756301D01*
X150784856Y-121756301D02*
X150713427Y-121899158D01*
X150713427Y-121899158D02*
X150713427Y-122042016D01*
X150713427Y-122042016D02*
X150784856Y-122256301D01*
X150784856Y-122256301D02*
X151641999Y-123113444D01*
X151641999Y-123113444D02*
X150713427Y-123113444D01*
X152499142Y-124742646D02*
X152284856Y-124814074D01*
X152284856Y-124814074D02*
X152213427Y-124885503D01*
X152213427Y-124885503D02*
X152141999Y-125028360D01*
X152141999Y-125028360D02*
X152141999Y-125242646D01*
X152141999Y-125242646D02*
X152213427Y-125385503D01*
X152213427Y-125385503D02*
X152284856Y-125456932D01*
X152284856Y-125456932D02*
X152427713Y-125528360D01*
X152427713Y-125528360D02*
X152999142Y-125528360D01*
X152999142Y-125528360D02*
X152999142Y-124028360D01*
X152999142Y-124028360D02*
X152499142Y-124028360D01*
X152499142Y-124028360D02*
X152356285Y-124099789D01*
X152356285Y-124099789D02*
X152284856Y-124171217D01*
X152284856Y-124171217D02*
X152213427Y-124314074D01*
X152213427Y-124314074D02*
X152213427Y-124456932D01*
X152213427Y-124456932D02*
X152284856Y-124599789D01*
X152284856Y-124599789D02*
X152356285Y-124671217D01*
X152356285Y-124671217D02*
X152499142Y-124742646D01*
X152499142Y-124742646D02*
X152999142Y-124742646D01*
X150713427Y-125528360D02*
X151570570Y-125528360D01*
X151141999Y-125528360D02*
X151141999Y-124028360D01*
X151141999Y-124028360D02*
X151284856Y-124242646D01*
X151284856Y-124242646D02*
X151427713Y-124385503D01*
X151427713Y-124385503D02*
X151570570Y-124456932D01*
X152713428Y-127157562D02*
X152499142Y-127228990D01*
X152499142Y-127228990D02*
X152427713Y-127300419D01*
X152427713Y-127300419D02*
X152356285Y-127443276D01*
X152356285Y-127443276D02*
X152356285Y-127657562D01*
X152356285Y-127657562D02*
X152427713Y-127800419D01*
X152427713Y-127800419D02*
X152499142Y-127871848D01*
X152499142Y-127871848D02*
X152641999Y-127943276D01*
X152641999Y-127943276D02*
X153213428Y-127943276D01*
X153213428Y-127943276D02*
X153213428Y-126443276D01*
X153213428Y-126443276D02*
X152713428Y-126443276D01*
X152713428Y-126443276D02*
X152570571Y-126514705D01*
X152570571Y-126514705D02*
X152499142Y-126586133D01*
X152499142Y-126586133D02*
X152427713Y-126728990D01*
X152427713Y-126728990D02*
X152427713Y-126871848D01*
X152427713Y-126871848D02*
X152499142Y-127014705D01*
X152499142Y-127014705D02*
X152570571Y-127086133D01*
X152570571Y-127086133D02*
X152713428Y-127157562D01*
X152713428Y-127157562D02*
X153213428Y-127157562D01*
X151713428Y-127371848D02*
X150570571Y-127371848D01*
X152606284Y-128858192D02*
X152463427Y-128858192D01*
X152463427Y-128858192D02*
X152320570Y-128929621D01*
X152320570Y-128929621D02*
X152249142Y-129001049D01*
X152249142Y-129001049D02*
X152177713Y-129143906D01*
X152177713Y-129143906D02*
X152106284Y-129429621D01*
X152106284Y-129429621D02*
X152106284Y-129786764D01*
X152106284Y-129786764D02*
X152177713Y-130072478D01*
X152177713Y-130072478D02*
X152249142Y-130215335D01*
X152249142Y-130215335D02*
X152320570Y-130286764D01*
X152320570Y-130286764D02*
X152463427Y-130358192D01*
X152463427Y-130358192D02*
X152606284Y-130358192D01*
X152606284Y-130358192D02*
X152749142Y-130286764D01*
X152749142Y-130286764D02*
X152820570Y-130215335D01*
X152820570Y-130215335D02*
X152891999Y-130072478D01*
X152891999Y-130072478D02*
X152963427Y-129786764D01*
X152963427Y-129786764D02*
X152963427Y-129429621D01*
X152963427Y-129429621D02*
X152891999Y-129143906D01*
X152891999Y-129143906D02*
X152820570Y-129001049D01*
X152820570Y-129001049D02*
X152749142Y-128929621D01*
X152749142Y-128929621D02*
X152606284Y-128858192D01*
X151677713Y-128858192D02*
X151177713Y-130358192D01*
X151177713Y-130358192D02*
X150677713Y-128858192D01*
D11*
X120108620Y-117694350D02*
X120108620Y-115694350D01*
X120108620Y-115694350D02*
X118965763Y-117694350D01*
X118965763Y-117694350D02*
X118965763Y-115694350D01*
X118013382Y-117694350D02*
X118013382Y-116361016D01*
X118013382Y-115694350D02*
X118108620Y-115789588D01*
X118108620Y-115789588D02*
X118013382Y-115884826D01*
X118013382Y-115884826D02*
X117918144Y-115789588D01*
X117918144Y-115789588D02*
X118013382Y-115694350D01*
X118013382Y-115694350D02*
X118013382Y-115884826D01*
X116203858Y-117599112D02*
X116394334Y-117694350D01*
X116394334Y-117694350D02*
X116775287Y-117694350D01*
X116775287Y-117694350D02*
X116965763Y-117599112D01*
X116965763Y-117599112D02*
X117061001Y-117503873D01*
X117061001Y-117503873D02*
X117156239Y-117313397D01*
X117156239Y-117313397D02*
X117156239Y-116741969D01*
X117156239Y-116741969D02*
X117061001Y-116551492D01*
X117061001Y-116551492D02*
X116965763Y-116456254D01*
X116965763Y-116456254D02*
X116775287Y-116361016D01*
X116775287Y-116361016D02*
X116394334Y-116361016D01*
X116394334Y-116361016D02*
X116203858Y-116456254D01*
X115346715Y-116646731D02*
X114680048Y-116646731D01*
X114394334Y-117694350D02*
X115346715Y-117694350D01*
X115346715Y-117694350D02*
X115346715Y-115694350D01*
X115346715Y-115694350D02*
X114394334Y-115694350D01*
X112013381Y-116646731D02*
X111346714Y-116646731D01*
X111061000Y-117694350D02*
X112013381Y-117694350D01*
X112013381Y-117694350D02*
X112013381Y-115694350D01*
X112013381Y-115694350D02*
X111061000Y-115694350D01*
X110203857Y-116361016D02*
X110203857Y-117694350D01*
X110203857Y-116551492D02*
X110108619Y-116456254D01*
X110108619Y-116456254D02*
X109918143Y-116361016D01*
X109918143Y-116361016D02*
X109632428Y-116361016D01*
X109632428Y-116361016D02*
X109441952Y-116456254D01*
X109441952Y-116456254D02*
X109346714Y-116646731D01*
X109346714Y-116646731D02*
X109346714Y-117694350D01*
X107537190Y-116361016D02*
X107537190Y-117980064D01*
X107537190Y-117980064D02*
X107632428Y-118170540D01*
X107632428Y-118170540D02*
X107727666Y-118265778D01*
X107727666Y-118265778D02*
X107918143Y-118361016D01*
X107918143Y-118361016D02*
X108203857Y-118361016D01*
X108203857Y-118361016D02*
X108394333Y-118265778D01*
X107537190Y-117599112D02*
X107727666Y-117694350D01*
X107727666Y-117694350D02*
X108108619Y-117694350D01*
X108108619Y-117694350D02*
X108299095Y-117599112D01*
X108299095Y-117599112D02*
X108394333Y-117503873D01*
X108394333Y-117503873D02*
X108489571Y-117313397D01*
X108489571Y-117313397D02*
X108489571Y-116741969D01*
X108489571Y-116741969D02*
X108394333Y-116551492D01*
X108394333Y-116551492D02*
X108299095Y-116456254D01*
X108299095Y-116456254D02*
X108108619Y-116361016D01*
X108108619Y-116361016D02*
X107727666Y-116361016D01*
X107727666Y-116361016D02*
X107537190Y-116456254D01*
X106584809Y-117694350D02*
X106584809Y-116361016D01*
X106584809Y-115694350D02*
X106680047Y-115789588D01*
X106680047Y-115789588D02*
X106584809Y-115884826D01*
X106584809Y-115884826D02*
X106489571Y-115789588D01*
X106489571Y-115789588D02*
X106584809Y-115694350D01*
X106584809Y-115694350D02*
X106584809Y-115884826D01*
X105632428Y-116361016D02*
X105632428Y-117694350D01*
X105632428Y-116551492D02*
X105537190Y-116456254D01*
X105537190Y-116456254D02*
X105346714Y-116361016D01*
X105346714Y-116361016D02*
X105060999Y-116361016D01*
X105060999Y-116361016D02*
X104870523Y-116456254D01*
X104870523Y-116456254D02*
X104775285Y-116646731D01*
X104775285Y-116646731D02*
X104775285Y-117694350D01*
X103060999Y-117599112D02*
X103251475Y-117694350D01*
X103251475Y-117694350D02*
X103632428Y-117694350D01*
X103632428Y-117694350D02*
X103822904Y-117599112D01*
X103822904Y-117599112D02*
X103918142Y-117408635D01*
X103918142Y-117408635D02*
X103918142Y-116646731D01*
X103918142Y-116646731D02*
X103822904Y-116456254D01*
X103822904Y-116456254D02*
X103632428Y-116361016D01*
X103632428Y-116361016D02*
X103251475Y-116361016D01*
X103251475Y-116361016D02*
X103060999Y-116456254D01*
X103060999Y-116456254D02*
X102965761Y-116646731D01*
X102965761Y-116646731D02*
X102965761Y-116837207D01*
X102965761Y-116837207D02*
X103918142Y-117027683D01*
X101346713Y-117599112D02*
X101537189Y-117694350D01*
X101537189Y-117694350D02*
X101918142Y-117694350D01*
X101918142Y-117694350D02*
X102108618Y-117599112D01*
X102108618Y-117599112D02*
X102203856Y-117408635D01*
X102203856Y-117408635D02*
X102203856Y-116646731D01*
X102203856Y-116646731D02*
X102108618Y-116456254D01*
X102108618Y-116456254D02*
X101918142Y-116361016D01*
X101918142Y-116361016D02*
X101537189Y-116361016D01*
X101537189Y-116361016D02*
X101346713Y-116456254D01*
X101346713Y-116456254D02*
X101251475Y-116646731D01*
X101251475Y-116646731D02*
X101251475Y-116837207D01*
X101251475Y-116837207D02*
X102203856Y-117027683D01*
X100394332Y-117694350D02*
X100394332Y-116361016D01*
X100394332Y-116741969D02*
X100299094Y-116551492D01*
X100299094Y-116551492D02*
X100203856Y-116456254D01*
X100203856Y-116456254D02*
X100013380Y-116361016D01*
X100013380Y-116361016D02*
X99822903Y-116361016D01*
X99156237Y-117694350D02*
X99156237Y-116361016D01*
X99156237Y-115694350D02*
X99251475Y-115789588D01*
X99251475Y-115789588D02*
X99156237Y-115884826D01*
X99156237Y-115884826D02*
X99060999Y-115789588D01*
X99060999Y-115789588D02*
X99156237Y-115694350D01*
X99156237Y-115694350D02*
X99156237Y-115884826D01*
X98203856Y-116361016D02*
X98203856Y-117694350D01*
X98203856Y-116551492D02*
X98108618Y-116456254D01*
X98108618Y-116456254D02*
X97918142Y-116361016D01*
X97918142Y-116361016D02*
X97632427Y-116361016D01*
X97632427Y-116361016D02*
X97441951Y-116456254D01*
X97441951Y-116456254D02*
X97346713Y-116646731D01*
X97346713Y-116646731D02*
X97346713Y-117694350D01*
X95537189Y-116361016D02*
X95537189Y-117980064D01*
X95537189Y-117980064D02*
X95632427Y-118170540D01*
X95632427Y-118170540D02*
X95727665Y-118265778D01*
X95727665Y-118265778D02*
X95918142Y-118361016D01*
X95918142Y-118361016D02*
X96203856Y-118361016D01*
X96203856Y-118361016D02*
X96394332Y-118265778D01*
X95537189Y-117599112D02*
X95727665Y-117694350D01*
X95727665Y-117694350D02*
X96108618Y-117694350D01*
X96108618Y-117694350D02*
X96299094Y-117599112D01*
X96299094Y-117599112D02*
X96394332Y-117503873D01*
X96394332Y-117503873D02*
X96489570Y-117313397D01*
X96489570Y-117313397D02*
X96489570Y-116741969D01*
X96489570Y-116741969D02*
X96394332Y-116551492D01*
X96394332Y-116551492D02*
X96299094Y-116456254D01*
X96299094Y-116456254D02*
X96108618Y-116361016D01*
X96108618Y-116361016D02*
X95727665Y-116361016D01*
X95727665Y-116361016D02*
X95537189Y-116456254D01*
X115965762Y-119866619D02*
X115680048Y-119961857D01*
X115680048Y-119961857D02*
X115584810Y-120057095D01*
X115584810Y-120057095D02*
X115489572Y-120247571D01*
X115489572Y-120247571D02*
X115489572Y-120533285D01*
X115489572Y-120533285D02*
X115584810Y-120723761D01*
X115584810Y-120723761D02*
X115680048Y-120819000D01*
X115680048Y-120819000D02*
X115870524Y-120914238D01*
X115870524Y-120914238D02*
X116632429Y-120914238D01*
X116632429Y-120914238D02*
X116632429Y-118914238D01*
X116632429Y-118914238D02*
X115965762Y-118914238D01*
X115965762Y-118914238D02*
X115775286Y-119009476D01*
X115775286Y-119009476D02*
X115680048Y-119104714D01*
X115680048Y-119104714D02*
X115584810Y-119295190D01*
X115584810Y-119295190D02*
X115584810Y-119485666D01*
X115584810Y-119485666D02*
X115680048Y-119676142D01*
X115680048Y-119676142D02*
X115775286Y-119771380D01*
X115775286Y-119771380D02*
X115965762Y-119866619D01*
X115965762Y-119866619D02*
X116632429Y-119866619D01*
X114632429Y-120914238D02*
X114632429Y-118914238D01*
X114632429Y-118914238D02*
X113965762Y-120342809D01*
X113965762Y-120342809D02*
X113299096Y-118914238D01*
X113299096Y-118914238D02*
X113299096Y-120914238D01*
X112441953Y-120819000D02*
X112156239Y-120914238D01*
X112156239Y-120914238D02*
X111680048Y-120914238D01*
X111680048Y-120914238D02*
X111489572Y-120819000D01*
X111489572Y-120819000D02*
X111394334Y-120723761D01*
X111394334Y-120723761D02*
X111299096Y-120533285D01*
X111299096Y-120533285D02*
X111299096Y-120342809D01*
X111299096Y-120342809D02*
X111394334Y-120152333D01*
X111394334Y-120152333D02*
X111489572Y-120057095D01*
X111489572Y-120057095D02*
X111680048Y-119961857D01*
X111680048Y-119961857D02*
X112061001Y-119866619D01*
X112061001Y-119866619D02*
X112251477Y-119771380D01*
X112251477Y-119771380D02*
X112346715Y-119676142D01*
X112346715Y-119676142D02*
X112441953Y-119485666D01*
X112441953Y-119485666D02*
X112441953Y-119295190D01*
X112441953Y-119295190D02*
X112346715Y-119104714D01*
X112346715Y-119104714D02*
X112251477Y-119009476D01*
X112251477Y-119009476D02*
X112061001Y-118914238D01*
X112061001Y-118914238D02*
X111584810Y-118914238D01*
X111584810Y-118914238D02*
X111299096Y-119009476D01*
X109013381Y-120819000D02*
X108727667Y-120914238D01*
X108727667Y-120914238D02*
X108251476Y-120914238D01*
X108251476Y-120914238D02*
X108061000Y-120819000D01*
X108061000Y-120819000D02*
X107965762Y-120723761D01*
X107965762Y-120723761D02*
X107870524Y-120533285D01*
X107870524Y-120533285D02*
X107870524Y-120342809D01*
X107870524Y-120342809D02*
X107965762Y-120152333D01*
X107965762Y-120152333D02*
X108061000Y-120057095D01*
X108061000Y-120057095D02*
X108251476Y-119961857D01*
X108251476Y-119961857D02*
X108632429Y-119866619D01*
X108632429Y-119866619D02*
X108822905Y-119771380D01*
X108822905Y-119771380D02*
X108918143Y-119676142D01*
X108918143Y-119676142D02*
X109013381Y-119485666D01*
X109013381Y-119485666D02*
X109013381Y-119295190D01*
X109013381Y-119295190D02*
X108918143Y-119104714D01*
X108918143Y-119104714D02*
X108822905Y-119009476D01*
X108822905Y-119009476D02*
X108632429Y-118914238D01*
X108632429Y-118914238D02*
X108156238Y-118914238D01*
X108156238Y-118914238D02*
X107870524Y-119009476D01*
X106156238Y-118914238D02*
X106537191Y-118914238D01*
X106537191Y-118914238D02*
X106727667Y-119009476D01*
X106727667Y-119009476D02*
X106822905Y-119104714D01*
X106822905Y-119104714D02*
X107013381Y-119390428D01*
X107013381Y-119390428D02*
X107108619Y-119771380D01*
X107108619Y-119771380D02*
X107108619Y-120533285D01*
X107108619Y-120533285D02*
X107013381Y-120723761D01*
X107013381Y-120723761D02*
X106918143Y-120819000D01*
X106918143Y-120819000D02*
X106727667Y-120914238D01*
X106727667Y-120914238D02*
X106346714Y-120914238D01*
X106346714Y-120914238D02*
X106156238Y-120819000D01*
X106156238Y-120819000D02*
X106061000Y-120723761D01*
X106061000Y-120723761D02*
X105965762Y-120533285D01*
X105965762Y-120533285D02*
X105965762Y-120057095D01*
X105965762Y-120057095D02*
X106061000Y-119866619D01*
X106061000Y-119866619D02*
X106156238Y-119771380D01*
X106156238Y-119771380D02*
X106346714Y-119676142D01*
X106346714Y-119676142D02*
X106727667Y-119676142D01*
X106727667Y-119676142D02*
X106918143Y-119771380D01*
X106918143Y-119771380D02*
X107013381Y-119866619D01*
X107013381Y-119866619D02*
X107108619Y-120057095D01*
X103775285Y-118914238D02*
X102537190Y-118914238D01*
X102537190Y-118914238D02*
X103203857Y-119676142D01*
X103203857Y-119676142D02*
X102918142Y-119676142D01*
X102918142Y-119676142D02*
X102727666Y-119771380D01*
X102727666Y-119771380D02*
X102632428Y-119866619D01*
X102632428Y-119866619D02*
X102537190Y-120057095D01*
X102537190Y-120057095D02*
X102537190Y-120533285D01*
X102537190Y-120533285D02*
X102632428Y-120723761D01*
X102632428Y-120723761D02*
X102727666Y-120819000D01*
X102727666Y-120819000D02*
X102918142Y-120914238D01*
X102918142Y-120914238D02*
X103489571Y-120914238D01*
X103489571Y-120914238D02*
X103680047Y-120819000D01*
X103680047Y-120819000D02*
X103775285Y-120723761D01*
X101299095Y-118914238D02*
X101108618Y-118914238D01*
X101108618Y-118914238D02*
X100918142Y-119009476D01*
X100918142Y-119009476D02*
X100822904Y-119104714D01*
X100822904Y-119104714D02*
X100727666Y-119295190D01*
X100727666Y-119295190D02*
X100632428Y-119676142D01*
X100632428Y-119676142D02*
X100632428Y-120152333D01*
X100632428Y-120152333D02*
X100727666Y-120533285D01*
X100727666Y-120533285D02*
X100822904Y-120723761D01*
X100822904Y-120723761D02*
X100918142Y-120819000D01*
X100918142Y-120819000D02*
X101108618Y-120914238D01*
X101108618Y-120914238D02*
X101299095Y-120914238D01*
X101299095Y-120914238D02*
X101489571Y-120819000D01*
X101489571Y-120819000D02*
X101584809Y-120723761D01*
X101584809Y-120723761D02*
X101680047Y-120533285D01*
X101680047Y-120533285D02*
X101775285Y-120152333D01*
X101775285Y-120152333D02*
X101775285Y-119676142D01*
X101775285Y-119676142D02*
X101680047Y-119295190D01*
X101680047Y-119295190D02*
X101584809Y-119104714D01*
X101584809Y-119104714D02*
X101489571Y-119009476D01*
X101489571Y-119009476D02*
X101299095Y-118914238D01*
X99870523Y-120342809D02*
X98918142Y-120342809D01*
X100060999Y-120914238D02*
X99394333Y-118914238D01*
X99394333Y-118914238D02*
X98727666Y-120914238D01*
X124918144Y-122324602D02*
X124822906Y-122229364D01*
X124822906Y-122229364D02*
X124632430Y-122134126D01*
X124632430Y-122134126D02*
X124156239Y-122134126D01*
X124156239Y-122134126D02*
X123965763Y-122229364D01*
X123965763Y-122229364D02*
X123870525Y-122324602D01*
X123870525Y-122324602D02*
X123775287Y-122515078D01*
X123775287Y-122515078D02*
X123775287Y-122705554D01*
X123775287Y-122705554D02*
X123870525Y-122991268D01*
X123870525Y-122991268D02*
X125013382Y-124134126D01*
X125013382Y-124134126D02*
X123775287Y-124134126D01*
X123013382Y-123562697D02*
X122061001Y-123562697D01*
X123203858Y-124134126D02*
X122537192Y-122134126D01*
X122537192Y-122134126D02*
X121870525Y-124134126D01*
X119775286Y-123562697D02*
X118822905Y-123562697D01*
X119965762Y-124134126D02*
X119299096Y-122134126D01*
X119299096Y-122134126D02*
X118632429Y-124134126D01*
X117108619Y-124038888D02*
X117299095Y-124134126D01*
X117299095Y-124134126D02*
X117680048Y-124134126D01*
X117680048Y-124134126D02*
X117870524Y-124038888D01*
X117870524Y-124038888D02*
X117965762Y-123943649D01*
X117965762Y-123943649D02*
X118061000Y-123753173D01*
X118061000Y-123753173D02*
X118061000Y-123181745D01*
X118061000Y-123181745D02*
X117965762Y-122991268D01*
X117965762Y-122991268D02*
X117870524Y-122896030D01*
X117870524Y-122896030D02*
X117680048Y-122800792D01*
X117680048Y-122800792D02*
X117299095Y-122800792D01*
X117299095Y-122800792D02*
X117108619Y-122896030D01*
X116537190Y-122800792D02*
X115775286Y-122800792D01*
X116251476Y-122134126D02*
X116251476Y-123848411D01*
X116251476Y-123848411D02*
X116156238Y-124038888D01*
X116156238Y-124038888D02*
X115965762Y-124134126D01*
X115965762Y-124134126D02*
X115775286Y-124134126D01*
X115108619Y-124134126D02*
X115108619Y-122800792D01*
X115108619Y-122134126D02*
X115203857Y-122229364D01*
X115203857Y-122229364D02*
X115108619Y-122324602D01*
X115108619Y-122324602D02*
X115013381Y-122229364D01*
X115013381Y-122229364D02*
X115108619Y-122134126D01*
X115108619Y-122134126D02*
X115108619Y-122324602D01*
X114346714Y-122800792D02*
X113870524Y-124134126D01*
X113870524Y-124134126D02*
X113394333Y-122800792D01*
X111870523Y-124038888D02*
X112060999Y-124134126D01*
X112060999Y-124134126D02*
X112441952Y-124134126D01*
X112441952Y-124134126D02*
X112632428Y-124038888D01*
X112632428Y-124038888D02*
X112727666Y-123848411D01*
X112727666Y-123848411D02*
X112727666Y-123086507D01*
X112727666Y-123086507D02*
X112632428Y-122896030D01*
X112632428Y-122896030D02*
X112441952Y-122800792D01*
X112441952Y-122800792D02*
X112060999Y-122800792D01*
X112060999Y-122800792D02*
X111870523Y-122896030D01*
X111870523Y-122896030D02*
X111775285Y-123086507D01*
X111775285Y-123086507D02*
X111775285Y-123276983D01*
X111775285Y-123276983D02*
X112727666Y-123467459D01*
X109108618Y-124134126D02*
X109299094Y-124038888D01*
X109299094Y-124038888D02*
X109394332Y-123848411D01*
X109394332Y-123848411D02*
X109394332Y-122134126D01*
X108060999Y-124134126D02*
X108251475Y-124038888D01*
X108251475Y-124038888D02*
X108346713Y-123943649D01*
X108346713Y-123943649D02*
X108441951Y-123753173D01*
X108441951Y-123753173D02*
X108441951Y-123181745D01*
X108441951Y-123181745D02*
X108346713Y-122991268D01*
X108346713Y-122991268D02*
X108251475Y-122896030D01*
X108251475Y-122896030D02*
X108060999Y-122800792D01*
X108060999Y-122800792D02*
X107775284Y-122800792D01*
X107775284Y-122800792D02*
X107584808Y-122896030D01*
X107584808Y-122896030D02*
X107489570Y-122991268D01*
X107489570Y-122991268D02*
X107394332Y-123181745D01*
X107394332Y-123181745D02*
X107394332Y-123753173D01*
X107394332Y-123753173D02*
X107489570Y-123943649D01*
X107489570Y-123943649D02*
X107584808Y-124038888D01*
X107584808Y-124038888D02*
X107775284Y-124134126D01*
X107775284Y-124134126D02*
X108060999Y-124134126D01*
X105680046Y-124134126D02*
X105680046Y-123086507D01*
X105680046Y-123086507D02*
X105775284Y-122896030D01*
X105775284Y-122896030D02*
X105965760Y-122800792D01*
X105965760Y-122800792D02*
X106346713Y-122800792D01*
X106346713Y-122800792D02*
X106537189Y-122896030D01*
X105680046Y-124038888D02*
X105870522Y-124134126D01*
X105870522Y-124134126D02*
X106346713Y-124134126D01*
X106346713Y-124134126D02*
X106537189Y-124038888D01*
X106537189Y-124038888D02*
X106632427Y-123848411D01*
X106632427Y-123848411D02*
X106632427Y-123657935D01*
X106632427Y-123657935D02*
X106537189Y-123467459D01*
X106537189Y-123467459D02*
X106346713Y-123372221D01*
X106346713Y-123372221D02*
X105870522Y-123372221D01*
X105870522Y-123372221D02*
X105680046Y-123276983D01*
X103870522Y-124134126D02*
X103870522Y-122134126D01*
X103870522Y-124038888D02*
X104060998Y-124134126D01*
X104060998Y-124134126D02*
X104441951Y-124134126D01*
X104441951Y-124134126D02*
X104632427Y-124038888D01*
X104632427Y-124038888D02*
X104727665Y-123943649D01*
X104727665Y-123943649D02*
X104822903Y-123753173D01*
X104822903Y-123753173D02*
X104822903Y-123181745D01*
X104822903Y-123181745D02*
X104727665Y-122991268D01*
X104727665Y-122991268D02*
X104632427Y-122896030D01*
X104632427Y-122896030D02*
X104441951Y-122800792D01*
X104441951Y-122800792D02*
X104060998Y-122800792D01*
X104060998Y-122800792D02*
X103870522Y-122896030D01*
X102918141Y-124134126D02*
X102918141Y-122134126D01*
X102918141Y-122896030D02*
X102727665Y-122800792D01*
X102727665Y-122800792D02*
X102346712Y-122800792D01*
X102346712Y-122800792D02*
X102156236Y-122896030D01*
X102156236Y-122896030D02*
X102060998Y-122991268D01*
X102060998Y-122991268D02*
X101965760Y-123181745D01*
X101965760Y-123181745D02*
X101965760Y-123753173D01*
X101965760Y-123753173D02*
X102060998Y-123943649D01*
X102060998Y-123943649D02*
X102156236Y-124038888D01*
X102156236Y-124038888D02*
X102346712Y-124134126D01*
X102346712Y-124134126D02*
X102727665Y-124134126D01*
X102727665Y-124134126D02*
X102918141Y-124038888D01*
X100251474Y-124134126D02*
X100251474Y-123086507D01*
X100251474Y-123086507D02*
X100346712Y-122896030D01*
X100346712Y-122896030D02*
X100537188Y-122800792D01*
X100537188Y-122800792D02*
X100918141Y-122800792D01*
X100918141Y-122800792D02*
X101108617Y-122896030D01*
X100251474Y-124038888D02*
X100441950Y-124134126D01*
X100441950Y-124134126D02*
X100918141Y-124134126D01*
X100918141Y-124134126D02*
X101108617Y-124038888D01*
X101108617Y-124038888D02*
X101203855Y-123848411D01*
X101203855Y-123848411D02*
X101203855Y-123657935D01*
X101203855Y-123657935D02*
X101108617Y-123467459D01*
X101108617Y-123467459D02*
X100918141Y-123372221D01*
X100918141Y-123372221D02*
X100441950Y-123372221D01*
X100441950Y-123372221D02*
X100251474Y-123276983D01*
X99013379Y-124134126D02*
X99203855Y-124038888D01*
X99203855Y-124038888D02*
X99299093Y-123848411D01*
X99299093Y-123848411D02*
X99299093Y-122134126D01*
X97394331Y-124134126D02*
X97394331Y-123086507D01*
X97394331Y-123086507D02*
X97489569Y-122896030D01*
X97489569Y-122896030D02*
X97680045Y-122800792D01*
X97680045Y-122800792D02*
X98060998Y-122800792D01*
X98060998Y-122800792D02*
X98251474Y-122896030D01*
X97394331Y-124038888D02*
X97584807Y-124134126D01*
X97584807Y-124134126D02*
X98060998Y-124134126D01*
X98060998Y-124134126D02*
X98251474Y-124038888D01*
X98251474Y-124038888D02*
X98346712Y-123848411D01*
X98346712Y-123848411D02*
X98346712Y-123657935D01*
X98346712Y-123657935D02*
X98251474Y-123467459D01*
X98251474Y-123467459D02*
X98060998Y-123372221D01*
X98060998Y-123372221D02*
X97584807Y-123372221D01*
X97584807Y-123372221D02*
X97394331Y-123276983D01*
X96441950Y-122800792D02*
X96441950Y-124134126D01*
X96441950Y-122991268D02*
X96346712Y-122896030D01*
X96346712Y-122896030D02*
X96156236Y-122800792D01*
X96156236Y-122800792D02*
X95870521Y-122800792D01*
X95870521Y-122800792D02*
X95680045Y-122896030D01*
X95680045Y-122896030D02*
X95584807Y-123086507D01*
X95584807Y-123086507D02*
X95584807Y-124134126D01*
X93775283Y-124038888D02*
X93965759Y-124134126D01*
X93965759Y-124134126D02*
X94346712Y-124134126D01*
X94346712Y-124134126D02*
X94537188Y-124038888D01*
X94537188Y-124038888D02*
X94632426Y-123943649D01*
X94632426Y-123943649D02*
X94727664Y-123753173D01*
X94727664Y-123753173D02*
X94727664Y-123181745D01*
X94727664Y-123181745D02*
X94632426Y-122991268D01*
X94632426Y-122991268D02*
X94537188Y-122896030D01*
X94537188Y-122896030D02*
X94346712Y-122800792D01*
X94346712Y-122800792D02*
X93965759Y-122800792D01*
X93965759Y-122800792D02*
X93775283Y-122896030D01*
X92918140Y-124134126D02*
X92918140Y-122800792D01*
X92918140Y-122134126D02*
X93013378Y-122229364D01*
X93013378Y-122229364D02*
X92918140Y-122324602D01*
X92918140Y-122324602D02*
X92822902Y-122229364D01*
X92822902Y-122229364D02*
X92918140Y-122134126D01*
X92918140Y-122134126D02*
X92918140Y-122324602D01*
X91965759Y-122800792D02*
X91965759Y-124134126D01*
X91965759Y-122991268D02*
X91870521Y-122896030D01*
X91870521Y-122896030D02*
X91680045Y-122800792D01*
X91680045Y-122800792D02*
X91394330Y-122800792D01*
X91394330Y-122800792D02*
X91203854Y-122896030D01*
X91203854Y-122896030D02*
X91108616Y-123086507D01*
X91108616Y-123086507D02*
X91108616Y-124134126D01*
X89299092Y-122800792D02*
X89299092Y-124419840D01*
X89299092Y-124419840D02*
X89394330Y-124610316D01*
X89394330Y-124610316D02*
X89489568Y-124705554D01*
X89489568Y-124705554D02*
X89680045Y-124800792D01*
X89680045Y-124800792D02*
X89965759Y-124800792D01*
X89965759Y-124800792D02*
X90156235Y-124705554D01*
X89299092Y-124038888D02*
X89489568Y-124134126D01*
X89489568Y-124134126D02*
X89870521Y-124134126D01*
X89870521Y-124134126D02*
X90060997Y-124038888D01*
X90060997Y-124038888D02*
X90156235Y-123943649D01*
X90156235Y-123943649D02*
X90251473Y-123753173D01*
X90251473Y-123753173D02*
X90251473Y-123181745D01*
X90251473Y-123181745D02*
X90156235Y-122991268D01*
X90156235Y-122991268D02*
X90060997Y-122896030D01*
X90060997Y-122896030D02*
X89870521Y-122800792D01*
X89870521Y-122800792D02*
X89489568Y-122800792D01*
X89489568Y-122800792D02*
X89299092Y-122896030D01*
%LPC*%
D12*
%TO.C,J102*%
X156000000Y-127500000D03*
D13*
X156000000Y-125000000D03*
X156000000Y-122500000D03*
X156000000Y-120000000D03*
X156000000Y-117500000D03*
X156000000Y-115000000D03*
X156000000Y-112500000D03*
%TD*%
D12*
%TO.C,J101*%
X148000000Y-127500000D03*
D13*
X148000000Y-125000000D03*
X148000000Y-122500000D03*
X148000000Y-120000000D03*
X148000000Y-117500000D03*
X148000000Y-115000000D03*
X148000000Y-112500000D03*
%TD*%
%LPD*%
M02*
