%TF.GenerationSoftware,KiCad,Pcbnew,9.0.2*%
<<<<<<< HEAD
%TF.CreationDate,2025-06-19T10:12:08+02:00*%
=======
%TF.CreationDate,2025-06-17T18:03:46+02:00*%
>>>>>>> 2e23f7f8cb64151a60ec3d004f8241720292418e
%TF.ProjectId,Robobuoy-Sub-CPU-v2_1,526f626f-6275-46f7-992d-5375622d4350,2.0*%
%TF.SameCoordinates,Original*%
%TF.FileFunction,Legend,Bot*%
%TF.FilePolarity,Positive*%
%FSLAX46Y46*%
G04 Gerber Fmt 4.6, Leading zero omitted, Abs format (unit mm)*
<<<<<<< HEAD
G04 Created by KiCad (PCBNEW 9.0.2) date 2025-06-19 10:12:08*
=======
G04 Created by KiCad (PCBNEW 9.0.2) date 2025-06-17 18:03:46*
>>>>>>> 2e23f7f8cb64151a60ec3d004f8241720292418e
%MOMM*%
%LPD*%
G01*
G04 APERTURE LIST*
G04 Aperture macros list*
%AMRoundRect*
0 Rectangle with rounded corners*
0 $1 Rounding radius*
0 $2 $3 $4 $5 $6 $7 $8 $9 X,Y pos of 4 corners*
0 Add a 4 corners polygon primitive as box body*
4,1,4,$2,$3,$4,$5,$6,$7,$8,$9,$2,$3,0*
0 Add four circle primitives for the rounded corners*
1,1,$1+$1,$2,$3*
1,1,$1+$1,$4,$5*
1,1,$1+$1,$6,$7*
1,1,$1+$1,$8,$9*
0 Add four rect primitives between the rounded corners*
20,1,$1+$1,$2,$3,$4,$5,0*
20,1,$1+$1,$4,$5,$6,$7,0*
20,1,$1+$1,$6,$7,$8,$9,0*
20,1,$1+$1,$8,$9,$2,$3,0*%
G04 Aperture macros list end*
%ADD10C,0.150000*%
%ADD11C,0.400000*%
%ADD12C,0.250000*%
%ADD13C,0.300000*%
%ADD14C,3.200000*%
%ADD15RoundRect,0.250000X-0.600000X0.600000X-0.600000X-0.600000X0.600000X-0.600000X0.600000X0.600000X0*%
%ADD16C,1.700000*%
%ADD17RoundRect,0.250000X0.600000X0.600000X-0.600000X0.600000X-0.600000X-0.600000X0.600000X-0.600000X0*%
%ADD18RoundRect,0.250000X-0.600000X-0.725000X0.600000X-0.725000X0.600000X0.725000X-0.600000X0.725000X0*%
%ADD19O,1.700000X1.950000*%
%ADD20R,1.700000X1.700000*%
%ADD21R,1.650000X1.650000*%
G04 APERTURE END LIST*
D10*
X19205600Y19532600D02*
X19713600Y19024600D01*
X19205600Y17957800D02*
X19205600Y19481800D01*
D11*
X19205600Y14909800D02*
G75*
G02*
X18697600Y14909800I-254000J0D01*
G01*
X18697600Y14909800D02*
G75*
G02*
X19205600Y14909800I254000J0D01*
G01*
D10*
X23523600Y14909800D02*
X23015600Y15417800D01*
X19205600Y19532600D02*
X18697600Y19024600D01*
X23523600Y14909800D02*
X23015600Y14401800D01*
X21999600Y14909800D02*
X23523600Y14909800D01*
X19743320Y14909800D02*
G75*
G02*
X18159880Y14909800I-791720J0D01*
G01*
X18159880Y14909800D02*
G75*
G02*
X19743320Y14909800I791720J0D01*
G01*
D12*
G36*
X5727398Y14424013D02*
G01*
X5727398Y14235641D01*
X5819940Y14190364D01*
X5888965Y14165421D01*
X5957261Y14151397D01*
X6032763Y14146553D01*
X6103682Y14150254D01*
X6169737Y14161074D01*
X6231516Y14178732D01*
X6297892Y14207878D01*
X6344600Y14241014D01*
X6382431Y14284934D01*
X6420804Y14352267D01*
X6439882Y14402380D01*
X6451583Y14456986D01*
X6455608Y14516886D01*
X6455608Y14618247D01*
X6450188Y14687050D01*
X6434233Y14751142D01*
X6407767Y14811468D01*
X6370245Y14868779D01*
X6320646Y14922845D01*
X6265574Y14964056D01*
X6204308Y14993565D01*
X6135656Y15011715D01*
X6058042Y15018012D01*
X6001560Y15015021D01*
X5949110Y15006288D01*
X5898699Y14991599D01*
X5851046Y14971117D01*
X5821970Y14992317D01*
X5796397Y14998472D01*
X5768370Y14993006D01*
X5746571Y14976979D01*
X5732965Y14950819D01*
X5727398Y14904194D01*
X5727398Y14812054D01*
X5733030Y14765405D01*
X5746877Y14738903D01*
X5769002Y14722625D01*
X5797069Y14717104D01*
X5820103Y14720955D01*
X5839445Y14732309D01*
X5850822Y14746646D01*
X5862342Y14778165D01*
X5873227Y14810370D01*
X5883164Y14826220D01*
X5906159Y14843702D01*
X5948438Y14861757D01*
X5996951Y14873275D01*
X6053218Y14877328D01*
X6107909Y14873292D01*
X6155818Y14861735D01*
X6198054Y14843134D01*
X6224743Y14823627D01*
X6251563Y14794906D01*
X6278654Y14754901D01*
X6299152Y14711736D01*
X6311400Y14666401D01*
X6315535Y14618186D01*
X6315535Y14517009D01*
X6310945Y14460960D01*
X6298122Y14414901D01*
X6277907Y14376936D01*
X6250322Y14345672D01*
X6216539Y14322050D01*
X6172466Y14303795D01*
X6115615Y14291698D01*
X6042960Y14287237D01*
X5979564Y14291393D01*
X5921304Y14303514D01*
X5867411Y14323324D01*
X5867411Y14424013D01*
X6010232Y14424013D01*
X6056138Y14429618D01*
X6082283Y14443430D01*
X6098289Y14465633D01*
X6103777Y14494355D01*
X6098287Y14523067D01*
X6082283Y14545219D01*
X6056132Y14559076D01*
X6010232Y14564697D01*
X5761531Y14564697D01*
X5715587Y14559072D01*
X5689480Y14545219D01*
X5673476Y14523067D01*
X5667986Y14494355D01*
X5671909Y14465074D01*
X5682702Y14443430D01*
X5700574Y14429146D01*
X5727398Y14424013D01*
G37*
G36*
X5416233Y14733957D02*
G01*
X5416233Y14310684D01*
X5365675Y14310684D01*
X5319730Y14305060D01*
X5293623Y14291206D01*
X5277571Y14269049D01*
X5272069Y14240342D01*
X5277569Y14211625D01*
X5293623Y14189418D01*
X5319724Y14175610D01*
X5365675Y14170000D01*
X5549406Y14170000D01*
X5595367Y14175607D01*
X5621519Y14189418D01*
X5637525Y14211620D01*
X5643012Y14240342D01*
X5637590Y14269080D01*
X5621824Y14291206D01*
X5596708Y14305237D01*
X5556245Y14310684D01*
X5556245Y14857788D01*
X5578105Y14857788D01*
X5624065Y14863395D01*
X5650218Y14877206D01*
X5666224Y14899408D01*
X5671711Y14928130D01*
X5666222Y14956842D01*
X5650218Y14978994D01*
X5624059Y14992850D01*
X5578105Y14998472D01*
X5416233Y14998472D01*
X5058295Y14436592D01*
X5058295Y14857788D01*
X5108792Y14857788D01*
X5154753Y14863395D01*
X5180905Y14877206D01*
X5196911Y14899408D01*
X5202398Y14928130D01*
X5196909Y14956842D01*
X5180905Y14978994D01*
X5154746Y14992850D01*
X5108792Y14998472D01*
X4925061Y14998472D01*
X4879116Y14992847D01*
X4853009Y14978994D01*
X4836957Y14956837D01*
X4831454Y14928130D01*
X4836875Y14899382D01*
X4852643Y14877206D01*
X4877672Y14863199D01*
X4917550Y14857788D01*
X4917550Y14170000D01*
X5056219Y14170000D01*
X5416233Y14733957D01*
G37*
G36*
X4754127Y14992850D02*
G01*
X4780286Y14978994D01*
X4796290Y14956842D01*
X4801779Y14928130D01*
X4796359Y14899382D01*
X4780591Y14877206D01*
X4755480Y14863221D01*
X4715012Y14857788D01*
X4715012Y14310684D01*
X4754943Y14305273D01*
X4780286Y14291206D01*
X4796290Y14269054D01*
X4801779Y14240342D01*
X4796292Y14211620D01*
X4780286Y14189418D01*
X4754133Y14175607D01*
X4708173Y14170000D01*
X4426744Y14170000D01*
X4354669Y14174052D01*
X4296482Y14185167D01*
X4249790Y14202118D01*
X4207210Y14226984D01*
X4157955Y14265927D01*
X4114477Y14314699D01*
X4079064Y14377973D01*
X4062699Y14424632D01*
X4052509Y14476808D01*
X4048961Y14535388D01*
X4048961Y14602310D01*
X4049202Y14606096D01*
X4188974Y14606096D01*
X4188974Y14539906D01*
X4192460Y14489077D01*
X4202094Y14447809D01*
X4217001Y14414365D01*
X4238224Y14384517D01*
X4265731Y14357973D01*
X4300348Y14334559D01*
X4329685Y14322305D01*
X4370481Y14313885D01*
X4426011Y14310684D01*
X4574938Y14310684D01*
X4574938Y14857788D01*
X4427355Y14857788D01*
X4378435Y14854256D01*
X4337585Y14844356D01*
X4303401Y14828785D01*
X4273655Y14806125D01*
X4243971Y14771567D01*
X4214253Y14722050D01*
X4195563Y14669370D01*
X4188974Y14606096D01*
X4049202Y14606096D01*
X4053419Y14672348D01*
X4065387Y14725958D01*
X4085377Y14775841D01*
X4114235Y14827746D01*
X4147577Y14875454D01*
X4176700Y14908347D01*
X4221198Y14942889D01*
X4281603Y14972521D01*
X4347783Y14991516D01*
X4415143Y14997801D01*
X4708173Y14998472D01*
X4754127Y14992850D01*
G37*
D13*
X20947642Y14655800D02*
X21661928Y14655800D01*
X20161928Y15155800D02*
X20947642Y14655800D01*
X20947642Y14655800D02*
X20161928Y14155800D01*
D12*
G36*
X21860572Y7459393D02*
G01*
X21846521Y7476968D01*
X21832240Y7488703D01*
X21816205Y7496045D01*
X21799084Y7498472D01*
X21770961Y7493099D01*
X21748892Y7477345D01*
X21735051Y7451553D01*
X21729413Y7405721D01*
X21729413Y7287080D01*
X21735035Y7241244D01*
X21748892Y7215151D01*
X21770992Y7199111D01*
X21799084Y7193657D01*
X21824947Y7197717D01*
X21844207Y7209106D01*
X21857998Y7228948D01*
X21869487Y7266991D01*
X21877030Y7292920D01*
X21888599Y7310711D01*
X21920895Y7337156D01*
X21966878Y7359132D01*
X22017494Y7372839D01*
X22067629Y7377328D01*
X22128318Y7370392D01*
X22183094Y7349973D01*
X22215680Y7328810D01*
X22246583Y7299598D01*
X22275968Y7261068D01*
X22297987Y7218405D01*
X22311547Y7170062D01*
X22316268Y7114767D01*
X22316268Y7023847D01*
X22311554Y6974705D01*
X22297840Y6930844D01*
X22275174Y6891158D01*
X22242812Y6854892D01*
X22204402Y6826394D01*
X22158639Y6805352D01*
X22104076Y6791997D01*
X22038869Y6787237D01*
X21964481Y6792995D01*
X21907039Y6808608D01*
X21876396Y6825739D01*
X21840116Y6857579D01*
X21805983Y6886155D01*
X21777896Y6892750D01*
X21751853Y6887521D01*
X21728742Y6871440D01*
X21712797Y6848108D01*
X21707554Y6821248D01*
X21713960Y6793029D01*
X21736252Y6759332D01*
X21783144Y6716882D01*
X21843475Y6683678D01*
X21903281Y6663321D01*
X21967927Y6650837D01*
X22038197Y6646553D01*
X22119812Y6652477D01*
X22194110Y6669715D01*
X22262290Y6697905D01*
X22312279Y6729727D01*
X22357948Y6772469D01*
X22399616Y6827598D01*
X22431187Y6888723D01*
X22449956Y6952828D01*
X22456280Y7021039D01*
X22456280Y7116171D01*
X22450570Y7187919D01*
X22433656Y7255715D01*
X22405416Y7320480D01*
X22366726Y7379342D01*
X22319904Y7427733D01*
X22264305Y7466660D01*
X22202548Y7495341D01*
X22139078Y7512327D01*
X22073002Y7518012D01*
X22013490Y7514303D01*
X21959307Y7503540D01*
X21908119Y7485253D01*
X21860572Y7459393D01*
G37*
G36*
X21308434Y7511657D02*
G01*
X21372441Y7492750D01*
X21433824Y7460847D01*
X21493414Y7414636D01*
X21543520Y7360210D01*
X21582062Y7300620D01*
X21609795Y7235131D01*
X21626856Y7162675D01*
X21632754Y7081916D01*
X21626848Y7001139D01*
X21609774Y6928761D01*
X21582035Y6863429D01*
X21543500Y6804066D01*
X21493414Y6749929D01*
X21433824Y6703718D01*
X21372441Y6671815D01*
X21308434Y6652908D01*
X21240683Y6646553D01*
X21180274Y6651456D01*
X21123368Y6665966D01*
X21069151Y6690189D01*
X21016974Y6724761D01*
X20966399Y6770812D01*
X20923944Y6822713D01*
X20891123Y6879028D01*
X20867452Y6940393D01*
X20852898Y7007672D01*
X20847880Y7081916D01*
X20987892Y7081916D01*
X20993026Y7018940D01*
X21007790Y6963575D01*
X21031740Y6914479D01*
X21065134Y6870646D01*
X21106654Y6832946D01*
X21149269Y6807310D01*
X21193628Y6792271D01*
X21240683Y6787237D01*
X21287336Y6792274D01*
X21331451Y6807342D01*
X21373977Y6833083D01*
X21415561Y6871012D01*
X21448971Y6915027D01*
X21472899Y6964142D01*
X21487627Y7019336D01*
X21492742Y7081916D01*
X21487631Y7144524D01*
X21472907Y7199794D01*
X21448978Y7249024D01*
X21415561Y7293186D01*
X21373955Y7331298D01*
X21331423Y7357148D01*
X21287317Y7372274D01*
X21240683Y7377328D01*
X21193647Y7372275D01*
X21149298Y7357180D01*
X21106676Y7331434D01*
X21065134Y7293552D01*
X21031728Y7249541D01*
X21007778Y7200319D01*
X20993021Y7144886D01*
X20987892Y7081916D01*
X20847880Y7081916D01*
X20852906Y7156487D01*
X20867476Y7223993D01*
X20891158Y7285495D01*
X20923974Y7341866D01*
X20966399Y7393753D01*
X21016974Y7439804D01*
X21069151Y7474376D01*
X21123368Y7498599D01*
X21180274Y7513109D01*
X21240683Y7518012D01*
X21308434Y7511657D01*
G37*
G36*
X20620734Y7227607D02*
G01*
X20620734Y6810684D01*
X20570176Y6810684D01*
X20524231Y6805060D01*
X20498124Y6791206D01*
X20482072Y6769049D01*
X20476570Y6740342D01*
X20482070Y6711625D01*
X20498124Y6689418D01*
X20524225Y6675610D01*
X20570176Y6670000D01*
X20753907Y6670000D01*
X20799858Y6675610D01*
X20825959Y6689418D01*
X20842013Y6711625D01*
X20847513Y6740342D01*
X20842091Y6769080D01*
X20826325Y6791206D01*
X20801209Y6805237D01*
X20760746Y6810684D01*
X20760746Y7357788D01*
X20794244Y7363050D01*
X20816434Y7377206D01*
X20830355Y7399184D01*
X20835240Y7428130D01*
X20829751Y7456842D01*
X20813747Y7478994D01*
X20787588Y7492850D01*
X20741634Y7498472D01*
X20587944Y7498472D01*
X20397374Y7076421D01*
X20210162Y7498472D01*
X20055129Y7498472D01*
X20009184Y7492847D01*
X19983077Y7478994D01*
X19967025Y7456837D01*
X19961523Y7428130D01*
X19966478Y7399210D01*
X19980635Y7377206D01*
X20002991Y7363013D01*
X20035956Y7357788D01*
X20035956Y6810684D01*
X19995503Y6805234D01*
X19970437Y6791206D01*
X19954671Y6769080D01*
X19949249Y6740342D01*
X19954737Y6711620D01*
X19970743Y6689418D01*
X19996844Y6675610D01*
X20042794Y6670000D01*
X20227259Y6670000D01*
X20272617Y6675590D01*
X20298639Y6689418D01*
X20314645Y6711620D01*
X20320132Y6740342D01*
X20314643Y6769054D01*
X20298639Y6791206D01*
X20272610Y6805079D01*
X20227259Y6810684D01*
X20176029Y6810684D01*
X20176029Y7227607D01*
X20336557Y6866738D01*
X20458129Y6866738D01*
X20620734Y7227607D01*
G37*
G36*
X18370525Y6924013D02*
G01*
X18370525Y6735641D01*
X18463066Y6690364D01*
X18532091Y6665421D01*
X18600387Y6651397D01*
X18675889Y6646553D01*
X18746808Y6650254D01*
X18812863Y6661074D01*
X18874642Y6678732D01*
X18941018Y6707878D01*
X18987726Y6741014D01*
X19025557Y6784934D01*
X19063930Y6852267D01*
X19083008Y6902380D01*
X19094710Y6956986D01*
X19098735Y7016886D01*
X19098735Y7118247D01*
X19093315Y7187050D01*
X19077359Y7251142D01*
X19050893Y7311468D01*
X19013372Y7368779D01*
X18963773Y7422845D01*
X18908701Y7464056D01*
X18847434Y7493565D01*
X18778782Y7511715D01*
X18701168Y7518012D01*
X18644686Y7515021D01*
X18592236Y7506288D01*
X18541826Y7491599D01*
X18494173Y7471117D01*
X18465097Y7492317D01*
X18439523Y7498472D01*
X18411496Y7493006D01*
X18389698Y7476979D01*
X18376092Y7450819D01*
X18370525Y7404194D01*
X18370525Y7312054D01*
X18376156Y7265405D01*
X18390003Y7238903D01*
X18412128Y7222625D01*
X18440195Y7217104D01*
X18463230Y7220955D01*
X18482571Y7232309D01*
X18493948Y7246646D01*
X18505469Y7278165D01*
X18516353Y7310370D01*
X18526290Y7326220D01*
X18549286Y7343702D01*
X18591564Y7361757D01*
X18640077Y7373275D01*
X18696345Y7377328D01*
X18751035Y7373292D01*
X18798944Y7361735D01*
X18841181Y7343134D01*
X18867869Y7323627D01*
X18894689Y7294906D01*
X18921781Y7254901D01*
X18942278Y7211736D01*
X18954526Y7166401D01*
X18958661Y7118186D01*
X18958661Y7017009D01*
X18954071Y6960960D01*
X18941248Y6914901D01*
X18921033Y6876936D01*
X18893449Y6845672D01*
X18859665Y6822050D01*
X18815592Y6803795D01*
X18758741Y6791698D01*
X18686086Y6787237D01*
X18622690Y6791393D01*
X18564430Y6803514D01*
X18510537Y6823324D01*
X18510537Y6924013D01*
X18653358Y6924013D01*
X18699264Y6929618D01*
X18725409Y6943430D01*
X18741416Y6965633D01*
X18746903Y6994355D01*
X18741414Y7023067D01*
X18725409Y7045219D01*
X18699258Y7059076D01*
X18653358Y7064697D01*
X18404658Y7064697D01*
X18358713Y7059072D01*
X18332606Y7045219D01*
X18316602Y7023067D01*
X18311113Y6994355D01*
X18315035Y6965074D01*
X18325828Y6943430D01*
X18343700Y6929146D01*
X18370525Y6924013D01*
G37*
G36*
X18059359Y7233957D02*
G01*
X18059359Y6810684D01*
X18008801Y6810684D01*
X17962857Y6805060D01*
X17936749Y6791206D01*
X17920698Y6769049D01*
X17915195Y6740342D01*
X17920696Y6711625D01*
X17936749Y6689418D01*
X17962850Y6675610D01*
X18008801Y6670000D01*
X18192533Y6670000D01*
X18238493Y6675607D01*
X18264645Y6689418D01*
X18280651Y6711620D01*
X18286139Y6740342D01*
X18280717Y6769080D01*
X18264951Y6791206D01*
X18239834Y6805237D01*
X18199371Y6810684D01*
X18199371Y7357788D01*
X18221231Y7357788D01*
X18267192Y7363395D01*
X18293344Y7377206D01*
X18309350Y7399408D01*
X18314837Y7428130D01*
X18309348Y7456842D01*
X18293344Y7478994D01*
X18267185Y7492850D01*
X18221231Y7498472D01*
X18059359Y7498472D01*
X17701421Y6936592D01*
X17701421Y7357788D01*
X17751919Y7357788D01*
X17797879Y7363395D01*
X17824031Y7377206D01*
X17840037Y7399408D01*
X17845525Y7428130D01*
X17840035Y7456842D01*
X17824031Y7478994D01*
X17797873Y7492850D01*
X17751919Y7498472D01*
X17568187Y7498472D01*
X17522243Y7492847D01*
X17496135Y7478994D01*
X17480084Y7456837D01*
X17474581Y7428130D01*
X17480001Y7399382D01*
X17495769Y7377206D01*
X17520798Y7363199D01*
X17560676Y7357788D01*
X17560676Y6670000D01*
X17699345Y6670000D01*
X18059359Y7233957D01*
G37*
G36*
X17397253Y7492850D02*
G01*
X17423412Y7478994D01*
X17439416Y7456842D01*
X17444905Y7428130D01*
X17439485Y7399382D01*
X17423717Y7377206D01*
X17398607Y7363221D01*
X17358138Y7357788D01*
X17358138Y6810684D01*
X17398069Y6805273D01*
X17423412Y6791206D01*
X17439416Y6769054D01*
X17444905Y6740342D01*
X17439418Y6711620D01*
X17423412Y6689418D01*
X17397260Y6675607D01*
X17351299Y6670000D01*
X17069870Y6670000D01*
X16997796Y6674052D01*
X16939609Y6685167D01*
X16892916Y6702118D01*
X16850337Y6726984D01*
X16801081Y6765927D01*
X16757604Y6814699D01*
X16722191Y6877973D01*
X16705825Y6924632D01*
X16695635Y6976808D01*
X16692088Y7035388D01*
X16692088Y7102310D01*
X16692329Y7106096D01*
X16832100Y7106096D01*
X16832100Y7039906D01*
X16835586Y6989077D01*
X16845221Y6947809D01*
X16860127Y6914365D01*
X16881350Y6884517D01*
X16908858Y6857973D01*
X16943475Y6834559D01*
X16972811Y6822305D01*
X17013607Y6813885D01*
X17069138Y6810684D01*
X17218065Y6810684D01*
X17218065Y7357788D01*
X17070481Y7357788D01*
X17021561Y7354256D01*
X16980711Y7344356D01*
X16946528Y7328785D01*
X16916781Y7306125D01*
X16887097Y7271567D01*
X16857379Y7222050D01*
X16838689Y7169370D01*
X16832100Y7106096D01*
X16692329Y7106096D01*
X16696545Y7172348D01*
X16708513Y7225958D01*
X16728504Y7275841D01*
X16757362Y7327746D01*
X16790703Y7375454D01*
X16819827Y7408347D01*
X16864325Y7442889D01*
X16924729Y7472521D01*
X16990909Y7491516D01*
X17058269Y7497801D01*
X17351299Y7498472D01*
X17397253Y7492850D01*
G37*
G36*
X3138642Y14857788D02*
G01*
X3138642Y14310684D01*
X2836697Y14310684D01*
X2836697Y14443552D01*
X2831067Y14489658D01*
X2817219Y14515787D01*
X2795020Y14531844D01*
X2766355Y14537342D01*
X2738216Y14531872D01*
X2716102Y14515787D01*
X2702254Y14489658D01*
X2696624Y14443552D01*
X2696624Y14170000D01*
X3359987Y14170000D01*
X3405894Y14175605D01*
X3432039Y14189418D01*
X3448045Y14211620D01*
X3453532Y14240342D01*
X3448043Y14269054D01*
X3432039Y14291206D01*
X3405887Y14305064D01*
X3359987Y14310684D01*
X3278654Y14310684D01*
X3278654Y14857788D01*
X3359987Y14857788D01*
X3405894Y14863393D01*
X3432039Y14877206D01*
X3448045Y14899408D01*
X3453532Y14928130D01*
X3448043Y14956842D01*
X3432039Y14978994D01*
X3405887Y14992852D01*
X3359987Y14998472D01*
X3056638Y14998472D01*
X3010693Y14992847D01*
X2984586Y14978994D01*
X2968582Y14956842D01*
X2963093Y14928130D01*
X2968580Y14899408D01*
X2984586Y14877206D01*
X3010687Y14863397D01*
X3056638Y14857788D01*
X3138642Y14857788D01*
G37*
G36*
X2384787Y14513894D02*
G01*
X2384787Y14310684D01*
X2027520Y14310684D01*
X2027520Y14384934D01*
X2021890Y14431040D01*
X2008042Y14457169D01*
X1985843Y14473226D01*
X1957178Y14478723D01*
X1929050Y14473251D01*
X1906987Y14457169D01*
X1893138Y14431040D01*
X1887508Y14384934D01*
X1887508Y14170000D01*
X2546720Y14170000D01*
X2592670Y14175610D01*
X2618771Y14189418D01*
X2634777Y14211620D01*
X2640265Y14240342D01*
X2634695Y14269023D01*
X2618405Y14291206D01*
X2592076Y14305095D01*
X2546720Y14310684D01*
X2524860Y14310684D01*
X2524860Y14857788D01*
X2546720Y14857788D01*
X2592670Y14863397D01*
X2618771Y14877206D01*
X2634777Y14899408D01*
X2640265Y14928130D01*
X2634775Y14956842D01*
X2618771Y14978994D01*
X2592664Y14992847D01*
X2546720Y14998472D01*
X1918222Y14997801D01*
X1918222Y14783539D01*
X1923771Y14737390D01*
X1937395Y14711243D01*
X1959287Y14695246D01*
X1987892Y14689749D01*
X2016615Y14695237D01*
X2038817Y14711243D01*
X2052667Y14737423D01*
X2058295Y14783539D01*
X2058295Y14857788D01*
X2384787Y14857788D01*
X2384787Y14654578D01*
X2261810Y14654578D01*
X2258461Y14700485D01*
X2251552Y14719058D01*
X2235574Y14735278D01*
X2215941Y14744966D01*
X2191468Y14748368D01*
X2163382Y14742900D01*
X2141277Y14726813D01*
X2127428Y14700684D01*
X2121798Y14654578D01*
X2121798Y14513894D01*
X2125337Y14467992D01*
X2132728Y14448987D01*
X2149058Y14432878D01*
X2168310Y14423387D01*
X2191468Y14420105D01*
X2215941Y14423506D01*
X2235574Y14433194D01*
X2251552Y14449414D01*
X2258461Y14467988D01*
X2261810Y14513894D01*
X2384787Y14513894D01*
G37*
G36*
X1754127Y14992850D02*
G01*
X1780286Y14978994D01*
X1796290Y14956842D01*
X1801779Y14928130D01*
X1796359Y14899382D01*
X1780591Y14877206D01*
X1755480Y14863221D01*
X1715012Y14857788D01*
X1715012Y14310684D01*
X1754943Y14305273D01*
X1780286Y14291206D01*
X1796290Y14269054D01*
X1801779Y14240342D01*
X1796292Y14211620D01*
X1780286Y14189418D01*
X1754133Y14175607D01*
X1708173Y14170000D01*
X1426744Y14170000D01*
X1354669Y14174052D01*
X1296482Y14185167D01*
X1249790Y14202118D01*
X1207210Y14226984D01*
X1157955Y14265927D01*
X1114477Y14314699D01*
X1079064Y14377973D01*
X1062699Y14424632D01*
X1052509Y14476808D01*
X1048961Y14535388D01*
X1048961Y14602310D01*
X1049202Y14606096D01*
X1188974Y14606096D01*
X1188974Y14539906D01*
X1192460Y14489077D01*
X1202094Y14447809D01*
X1217001Y14414365D01*
X1238224Y14384517D01*
X1265731Y14357973D01*
X1300348Y14334559D01*
X1329685Y14322305D01*
X1370481Y14313885D01*
X1426011Y14310684D01*
X1574938Y14310684D01*
X1574938Y14857788D01*
X1427355Y14857788D01*
X1378435Y14854256D01*
X1337585Y14844356D01*
X1303401Y14828785D01*
X1273655Y14806125D01*
X1243971Y14771567D01*
X1214253Y14722050D01*
X1195563Y14669370D01*
X1188974Y14606096D01*
X1049202Y14606096D01*
X1053419Y14672348D01*
X1065387Y14725958D01*
X1085377Y14775841D01*
X1114235Y14827746D01*
X1147577Y14875454D01*
X1176700Y14908347D01*
X1221198Y14942889D01*
X1281603Y14972521D01*
X1347783Y14991516D01*
X1415143Y14997801D01*
X1708173Y14998472D01*
X1754127Y14992850D01*
G37*
G36*
X-11987753Y18857788D02*
G01*
X-11987753Y18310684D01*
X-12082031Y18310684D01*
X-12127975Y18305060D01*
X-12154083Y18291206D01*
X-12170087Y18269054D01*
X-12175576Y18240342D01*
X-12170089Y18211620D01*
X-12154083Y18189418D01*
X-12127982Y18175610D01*
X-12082031Y18170000D01*
X-11754135Y18170000D01*
X-11708175Y18175607D01*
X-11682022Y18189418D01*
X-11666016Y18211620D01*
X-11660529Y18240342D01*
X-11666018Y18269054D01*
X-11682022Y18291206D01*
X-11708181Y18305062D01*
X-11754135Y18310684D01*
X-11847680Y18310684D01*
X-11847680Y18857788D01*
X-11696066Y18857788D01*
X-11696066Y18724920D01*
X-11690439Y18678805D01*
X-11676588Y18652624D01*
X-11654394Y18636616D01*
X-11625725Y18631131D01*
X-11597580Y18636588D01*
X-11575472Y18652624D01*
X-11561621Y18678805D01*
X-11555993Y18724920D01*
X-11555993Y18998472D01*
X-12281517Y18998472D01*
X-12281517Y18724920D01*
X-12275889Y18678805D01*
X-12262038Y18652624D01*
X-12239836Y18636618D01*
X-12211114Y18631131D01*
X-12183022Y18636585D01*
X-12160922Y18652624D01*
X-12147071Y18678805D01*
X-12141443Y18724920D01*
X-12141443Y18857788D01*
X-11987753Y18857788D01*
G37*
G36*
X-12851030Y18591930D02*
G01*
X-13084526Y18310684D01*
X-13122517Y18305314D01*
X-13146991Y18291206D01*
X-13162472Y18269110D01*
X-13167813Y18240342D01*
X-13162326Y18211620D01*
X-13146319Y18189418D01*
X-13120219Y18175610D01*
X-13074268Y18170000D01*
X-12916426Y18170000D01*
X-12871112Y18175586D01*
X-12845046Y18189418D01*
X-12829040Y18211620D01*
X-12823552Y18240342D01*
X-12828662Y18269197D01*
X-12843336Y18291206D01*
X-12866743Y18305347D01*
X-12902809Y18310684D01*
X-12760660Y18481899D01*
X-12619976Y18310684D01*
X-12655445Y18305369D01*
X-12678716Y18291206D01*
X-12693438Y18269192D01*
X-12698561Y18240342D01*
X-12693061Y18211625D01*
X-12677007Y18189418D01*
X-12650906Y18175610D01*
X-12604955Y18170000D01*
X-12447846Y18170000D01*
X-12401885Y18175607D01*
X-12375733Y18189418D01*
X-12359727Y18211620D01*
X-12354240Y18240342D01*
X-12359662Y18269080D01*
X-12375428Y18291206D01*
X-12400125Y18305351D01*
X-12437588Y18310684D01*
X-12669313Y18591869D01*
X-12448518Y18857788D01*
X-12411219Y18863146D01*
X-12387396Y18877206D01*
X-12372435Y18899296D01*
X-12367246Y18928130D01*
X-12372735Y18956842D01*
X-12388739Y18978994D01*
X-12414891Y18992852D01*
X-12460791Y18998472D01*
X-12589934Y18998472D01*
X-12635878Y18992847D01*
X-12661986Y18978994D01*
X-12678038Y18956837D01*
X-12683540Y18928130D01*
X-12680015Y18898072D01*
X-12669863Y18872504D01*
X-12657071Y18862089D01*
X-12630234Y18857788D01*
X-12759805Y18701717D01*
X-12888460Y18857788D01*
X-12861582Y18862094D01*
X-12848832Y18872504D01*
X-12838680Y18898072D01*
X-12835154Y18928130D01*
X-12840643Y18956842D01*
X-12856647Y18978994D01*
X-12882806Y18992850D01*
X-12928760Y18998472D01*
X-13057171Y18998472D01*
X-13103115Y18992847D01*
X-13129222Y18978994D01*
X-13145274Y18956837D01*
X-13150777Y18928130D01*
X-13145424Y18899357D01*
X-13129894Y18877206D01*
X-13105677Y18863074D01*
X-13069444Y18857788D01*
X-12851030Y18591930D01*
G37*
D13*
X19947871Y16187801D02*
X18447871Y17187801D01*
X19947871Y17187801D02*
X18447871Y16187801D01*
D12*
G36*
X16933907Y492850D02*
G01*
X16960066Y478994D01*
X16976070Y456842D01*
X16981559Y428130D01*
X16976072Y399408D01*
X16960066Y377206D01*
X16933914Y363395D01*
X16887953Y357788D01*
X16866093Y357788D01*
X16866093Y-189316D01*
X16887953Y-189316D01*
X16933363Y-194907D01*
X16959699Y-208794D01*
X16975990Y-230977D01*
X16981559Y-259658D01*
X16976072Y-288380D01*
X16960066Y-310582D01*
X16933914Y-324393D01*
X16887953Y-330000D01*
X16476709Y-330000D01*
X16404384Y-325062D01*
X16350375Y-311926D01*
X16302820Y-290635D01*
X16265012Y-265092D01*
X16241526Y-241570D01*
X16221292Y-209771D01*
X16203384Y-162295D01*
X16197356Y-110730D01*
X16197435Y-109815D01*
X16337369Y-109815D01*
X16344164Y-141362D01*
X16363991Y-164159D01*
X16388836Y-176769D01*
X16427239Y-185770D01*
X16484220Y-189316D01*
X16726081Y-189316D01*
X16726081Y13894D01*
X16540945Y13894D01*
X16476454Y8680D01*
X16427261Y-5415D01*
X16390003Y-26894D01*
X16358681Y-56740D01*
X16342376Y-83952D01*
X16337369Y-109815D01*
X16197435Y-109815D01*
X16201147Y-67038D01*
X16212221Y-27327D01*
X16230512Y9193D01*
X16255275Y41918D01*
X16287986Y72748D01*
X16329858Y101761D01*
X16297854Y137996D01*
X16275881Y176194D01*
X16262595Y217655D01*
X16258112Y262228D01*
X16258469Y265709D01*
X16398185Y265709D01*
X16402195Y239768D01*
X16414136Y216906D01*
X16435066Y196161D01*
X16473442Y173571D01*
X16518659Y159532D01*
X16572391Y154578D01*
X16726081Y154578D01*
X16726081Y357788D01*
X16543693Y357788D01*
X16493616Y354073D01*
X16457926Y344357D01*
X16433051Y330128D01*
X16413049Y309860D01*
X16401863Y288654D01*
X16398185Y265709D01*
X16258469Y265709D01*
X16262861Y308575D01*
X16276872Y351139D01*
X16300427Y390897D01*
X16334621Y428497D01*
X16374692Y458362D01*
X16420922Y480096D01*
X16474474Y493688D01*
X16536854Y498472D01*
X16887953Y498472D01*
X16933907Y492850D01*
G37*
G36*
X16094689Y492850D02*
G01*
X16120847Y478994D01*
X16136851Y456842D01*
X16142341Y428130D01*
X16136853Y399408D01*
X16120847Y377206D01*
X16094695Y363395D01*
X16048735Y357788D01*
X16026875Y357788D01*
X16026875Y-189316D01*
X16048735Y-189316D01*
X16094144Y-194907D01*
X16120481Y-208794D01*
X16136771Y-230977D01*
X16142341Y-259658D01*
X16136853Y-288380D01*
X16120847Y-310582D01*
X16094695Y-324393D01*
X16048735Y-330000D01*
X15637491Y-330000D01*
X15565166Y-325062D01*
X15511156Y-311926D01*
X15463602Y-290635D01*
X15425793Y-265092D01*
X15402307Y-241570D01*
X15382074Y-209771D01*
X15364166Y-162295D01*
X15358138Y-110730D01*
X15358217Y-109815D01*
X15498150Y-109815D01*
X15504946Y-141362D01*
X15524773Y-164159D01*
X15549618Y-176769D01*
X15588021Y-185770D01*
X15645001Y-189316D01*
X15886863Y-189316D01*
X15886863Y13894D01*
X15701727Y13894D01*
X15637235Y8680D01*
X15588043Y-5415D01*
X15550785Y-26894D01*
X15519462Y-56740D01*
X15503158Y-83952D01*
X15498150Y-109815D01*
X15358217Y-109815D01*
X15361929Y-67038D01*
X15373002Y-27327D01*
X15391294Y9193D01*
X15416056Y41918D01*
X15448768Y72748D01*
X15490640Y101761D01*
X15458635Y137996D01*
X15436662Y176194D01*
X15423376Y217655D01*
X15418893Y262228D01*
X15419250Y265709D01*
X15558967Y265709D01*
X15562976Y239768D01*
X15574917Y216906D01*
X15595847Y196161D01*
X15634223Y173571D01*
X15679441Y159532D01*
X15733173Y154578D01*
X15886863Y154578D01*
X15886863Y357788D01*
X15704474Y357788D01*
X15654398Y354073D01*
X15618707Y344357D01*
X15593832Y330128D01*
X15573831Y309860D01*
X15562645Y288654D01*
X15558967Y265709D01*
X15419250Y265709D01*
X15423642Y308575D01*
X15437654Y351139D01*
X15461208Y390897D01*
X15495403Y428497D01*
X15535473Y458362D01*
X15581704Y480096D01*
X15635255Y493688D01*
X15697636Y498472D01*
X16048735Y498472D01*
X16094689Y492850D01*
G37*
G36*
X14514096Y-752051D02*
G01*
X15283278Y-752051D01*
X15329248Y-746489D01*
X15355329Y-732817D01*
X15371367Y-710844D01*
X15376884Y-682076D01*
X15371382Y-653231D01*
X15355329Y-630907D01*
X15329215Y-617008D01*
X15283278Y-611367D01*
X14514096Y-611367D01*
X14468805Y-616986D01*
X14442777Y-630907D01*
X14426725Y-653231D01*
X14421222Y-682076D01*
X14426613Y-710308D01*
X14442411Y-732451D01*
X14468267Y-746385D01*
X14514096Y-752051D01*
G37*
G36*
X14351344Y492850D02*
G01*
X14377503Y478994D01*
X14393507Y456842D01*
X14398996Y428130D01*
X14393509Y399408D01*
X14377503Y377206D01*
X14351351Y363395D01*
X14305390Y357788D01*
X14283531Y357788D01*
X14283531Y-189316D01*
X14305390Y-189316D01*
X14350800Y-194907D01*
X14377137Y-208794D01*
X14393427Y-230977D01*
X14398996Y-259658D01*
X14393509Y-288380D01*
X14377503Y-310582D01*
X14351351Y-324393D01*
X14305390Y-330000D01*
X14002102Y-330000D01*
X13956151Y-324390D01*
X13930050Y-310582D01*
X13913996Y-288375D01*
X13908496Y-259658D01*
X13913998Y-230951D01*
X13930050Y-208794D01*
X13956157Y-194940D01*
X14002102Y-189316D01*
X14143518Y-189316D01*
X14143518Y-44724D01*
X14011017Y-44724D01*
X13930741Y-39117D01*
X13874729Y-24635D01*
X13824526Y-102D01*
X13773613Y35388D01*
X13729702Y77265D01*
X13702904Y116232D01*
X13681884Y172575D01*
X13674877Y232309D01*
X13675205Y235667D01*
X13814951Y235667D01*
X13820672Y199779D01*
X13837926Y167316D01*
X13868562Y136993D01*
X13906387Y115091D01*
X13953929Y101051D01*
X14013703Y95960D01*
X14143518Y95960D01*
X14143518Y357788D01*
X13982318Y357788D01*
X13929741Y353163D01*
X13889321Y340574D01*
X13858365Y321152D01*
X13833602Y294456D01*
X13819590Y266300D01*
X13814951Y235667D01*
X13675205Y235667D01*
X13680137Y286163D01*
X13695528Y334855D01*
X13721137Y379535D01*
X13757920Y420986D01*
X13801427Y453881D01*
X13852411Y477955D01*
X13912311Y493108D01*
X13982990Y498472D01*
X14305390Y498472D01*
X14351344Y492850D01*
G37*
G36*
X13223028Y69460D02*
G01*
X13352782Y-330000D01*
X13509891Y-330000D01*
X13593239Y357788D01*
X13622274Y362725D01*
X13641782Y376229D01*
X13653795Y397188D01*
X13658147Y426176D01*
X13652690Y455060D01*
X13636653Y478017D01*
X13610389Y492601D01*
X13564541Y498472D01*
X13378061Y498472D01*
X13332117Y492847D01*
X13306010Y478994D01*
X13290006Y456842D01*
X13284516Y428130D01*
X13290004Y399408D01*
X13306010Y377206D01*
X13332110Y363397D01*
X13378061Y357788D01*
X13451151Y357788D01*
X13404745Y-32145D01*
X13294713Y295262D01*
X13149206Y295262D01*
X13039907Y-32145D01*
X12993501Y357788D01*
X13066591Y357788D01*
X13112541Y363397D01*
X13138642Y377206D01*
X13154648Y399408D01*
X13160136Y428130D01*
X13154646Y456842D01*
X13138642Y478994D01*
X13112535Y492847D01*
X13066591Y498472D01*
X12880783Y498472D01*
X12834839Y492847D01*
X12808731Y478994D01*
X12792679Y456837D01*
X12787177Y428130D01*
X12791667Y399044D01*
X12804274Y377206D01*
X12824376Y362926D01*
X12853428Y357788D01*
X12934028Y-330000D01*
X13088450Y-330000D01*
X13223028Y69460D01*
G37*
G36*
X12736472Y492850D02*
G01*
X12762630Y478994D01*
X12778634Y456842D01*
X12784124Y428130D01*
X12778636Y399408D01*
X12762630Y377206D01*
X12736478Y363395D01*
X12690518Y357788D01*
X12668658Y357788D01*
X12668658Y-189316D01*
X12690518Y-189316D01*
X12735927Y-194907D01*
X12762264Y-208794D01*
X12778554Y-230977D01*
X12784124Y-259658D01*
X12778636Y-288380D01*
X12762630Y-310582D01*
X12736478Y-324393D01*
X12690518Y-330000D01*
X12478087Y-330000D01*
X12432137Y-324390D01*
X12406036Y-310582D01*
X12389982Y-288375D01*
X12384481Y-259658D01*
X12389984Y-230951D01*
X12406036Y-208794D01*
X12432143Y-194940D01*
X12478087Y-189316D01*
X12528585Y-189316D01*
X12528585Y-13461D01*
X12389916Y-13461D01*
X12341405Y-44243D01*
X12280382Y-100697D01*
X12203649Y-192238D01*
X12107815Y-330000D01*
X12027887Y-330000D01*
X11981985Y-324379D01*
X11956140Y-310582D01*
X11940372Y-288406D01*
X11934952Y-259658D01*
X11942158Y-230583D01*
X11965727Y-202566D01*
X11987754Y-193475D01*
X12036069Y-189316D01*
X12120821Y-67805D01*
X12171659Y-10608D01*
X12215771Y31846D01*
X12166421Y62541D01*
X12128517Y94312D01*
X12100305Y127162D01*
X12078963Y164396D01*
X12066297Y203850D01*
X12062020Y246353D01*
X12062489Y250993D01*
X12202093Y250993D01*
X12207250Y225294D01*
X12224319Y197260D01*
X12253207Y173084D01*
X12310720Y145602D01*
X12360607Y132017D01*
X12419286Y127223D01*
X12528585Y127223D01*
X12528585Y357788D01*
X12368056Y357788D01*
X12314774Y353453D01*
X12274558Y341788D01*
X12244469Y324083D01*
X12219735Y299480D01*
X12206355Y275429D01*
X12202093Y250993D01*
X12062489Y250993D01*
X12067150Y297106D01*
X12082201Y343122D01*
X12107348Y385512D01*
X12143658Y425016D01*
X12186204Y455770D01*
X12237464Y478638D01*
X12299183Y493243D01*
X12373551Y498472D01*
X12690518Y498472D01*
X12736472Y492850D01*
G37*
G36*
X10849476Y13894D02*
G01*
X10849476Y-189316D01*
X10492210Y-189316D01*
X10492210Y-115066D01*
X10486580Y-68960D01*
X10472732Y-42831D01*
X10450533Y-26774D01*
X10421868Y-21277D01*
X10393739Y-26749D01*
X10371676Y-42831D01*
X10357828Y-68960D01*
X10352198Y-115066D01*
X10352198Y-330000D01*
X11011409Y-330000D01*
X11057360Y-324390D01*
X11083461Y-310582D01*
X11099467Y-288380D01*
X11104954Y-259658D01*
X11099385Y-230977D01*
X11083094Y-208794D01*
X11056765Y-194905D01*
X11011409Y-189316D01*
X10989549Y-189316D01*
X10989549Y357788D01*
X11011409Y357788D01*
X11057360Y363397D01*
X11083461Y377206D01*
X11099467Y399408D01*
X11104954Y428130D01*
X11099465Y456842D01*
X11083461Y478994D01*
X11057353Y492847D01*
X11011409Y498472D01*
X10382911Y497801D01*
X10382911Y283539D01*
X10388460Y237390D01*
X10402084Y211243D01*
X10423977Y195246D01*
X10452581Y189749D01*
X10481304Y195237D01*
X10503506Y211243D01*
X10517357Y237423D01*
X10522984Y283539D01*
X10522984Y357788D01*
X10849476Y357788D01*
X10849476Y154578D01*
X10726500Y154578D01*
X10723150Y200485D01*
X10716242Y219058D01*
X10700263Y235278D01*
X10680631Y244966D01*
X10656158Y248368D01*
X10628071Y242900D01*
X10605966Y226813D01*
X10592118Y200684D01*
X10586488Y154578D01*
X10586488Y13894D01*
X10590026Y-32008D01*
X10597418Y-51013D01*
X10613748Y-67122D01*
X10633000Y-76613D01*
X10656158Y-79895D01*
X10680631Y-76494D01*
X10700263Y-66806D01*
X10716242Y-50586D01*
X10723150Y-32012D01*
X10726500Y13894D01*
X10849476Y13894D01*
G37*
G36*
X10071074Y-294829D02*
G01*
X10100811Y-323710D01*
X10128471Y-330000D01*
X10157715Y-324471D01*
X10180006Y-308445D01*
X10193878Y-282351D01*
X10199485Y-236882D01*
X10199485Y-142421D01*
X10193859Y-96359D01*
X10180006Y-70186D01*
X10157706Y-54163D01*
X10128410Y-48632D01*
X10105442Y-52034D01*
X10087133Y-61760D01*
X10073067Y-78072D01*
X10061549Y-105540D01*
X10051517Y-133377D01*
X10043047Y-147245D01*
X10018492Y-166961D01*
X9972705Y-190720D01*
X9920337Y-207135D01*
X9862002Y-212763D01*
X9801007Y-207473D01*
X9750449Y-192613D01*
X9708312Y-168982D01*
X9686392Y-149020D01*
X9674144Y-127445D01*
X9670088Y-103342D01*
X9674554Y-78542D01*
X9688529Y-54494D01*
X9711176Y-34543D01*
X9748613Y-16514D01*
X9784421Y-6347D01*
X9870917Y11513D01*
X9978042Y36855D01*
X10044391Y62804D01*
X10081034Y85773D01*
X10111830Y113936D01*
X10137325Y147678D01*
X10156363Y185376D01*
X10167661Y224644D01*
X10171458Y266136D01*
X10166326Y314344D01*
X10151087Y359165D01*
X10125255Y401612D01*
X10087438Y442357D01*
X10043473Y474745D01*
X9993226Y498240D01*
X9935523Y512878D01*
X9868841Y518012D01*
X9816038Y515018D01*
X9768763Y506410D01*
X9724458Y491672D01*
X9685109Y471117D01*
X9656550Y492245D01*
X9630460Y498472D01*
X9602378Y492992D01*
X9580268Y476857D01*
X9566397Y450697D01*
X9560790Y405110D01*
X9560790Y299414D01*
X9566417Y253235D01*
X9580268Y226996D01*
X9602378Y210861D01*
X9630460Y205381D01*
X9654857Y209322D01*
X9675584Y220951D01*
X9687766Y236292D01*
X9698115Y266930D01*
X9707453Y298604D01*
X9717227Y316389D01*
X9740869Y339254D01*
X9776639Y359681D01*
X9818308Y372715D01*
X9868169Y377328D01*
X9917600Y372967D01*
X9956867Y360930D01*
X9988093Y342096D01*
X10014034Y316435D01*
X10027809Y292287D01*
X10032117Y268640D01*
X10027771Y243540D01*
X10014043Y218326D01*
X9992447Y197235D01*
X9961104Y180407D01*
X9927537Y170508D01*
X9830312Y149632D01*
X9729318Y125743D01*
X9664959Y103104D01*
X9628845Y83144D01*
X9597004Y56857D01*
X9569033Y23664D01*
X9548045Y-13980D01*
X9535204Y-56474D01*
X9530748Y-104991D01*
X9535572Y-155693D01*
X9549408Y-199473D01*
X9571965Y-237707D01*
X9603838Y-271320D01*
X9654345Y-306503D01*
X9711530Y-332026D01*
X9776609Y-347898D01*
X9851133Y-353447D01*
X9908573Y-349766D01*
X9964218Y-338792D01*
X10018107Y-320598D01*
X10071074Y-294829D01*
G37*
G36*
X8807606Y459393D02*
G01*
X8793555Y476968D01*
X8779274Y488703D01*
X8763239Y496045D01*
X8746118Y498472D01*
X8717996Y493099D01*
X8695926Y477345D01*
X8682085Y451553D01*
X8676448Y405721D01*
X8676448Y287080D01*
X8682069Y241244D01*
X8695926Y215151D01*
X8718026Y199111D01*
X8746118Y193657D01*
X8771981Y197717D01*
X8791242Y209106D01*
X8805032Y228948D01*
X8816521Y266991D01*
X8824064Y292920D01*
X8835633Y310711D01*
X8867930Y337156D01*
X8913913Y359132D01*
X8964529Y372839D01*
X9014663Y377328D01*
X9075352Y370392D01*
X9130129Y349973D01*
X9162714Y328810D01*
X9193617Y299598D01*
X9223002Y261068D01*
X9245021Y218405D01*
X9258581Y170062D01*
X9263302Y114767D01*
X9263302Y23847D01*
X9258588Y-25295D01*
X9244875Y-69156D01*
X9222208Y-108842D01*
X9189846Y-145108D01*
X9151436Y-173606D01*
X9105673Y-194648D01*
X9051110Y-208003D01*
X8985903Y-212763D01*
X8911516Y-207005D01*
X8854073Y-191392D01*
X8823430Y-174261D01*
X8787151Y-142421D01*
X8753018Y-113845D01*
X8724930Y-107250D01*
X8698887Y-112479D01*
X8675776Y-128560D01*
X8659831Y-151892D01*
X8654588Y-178752D01*
X8660994Y-206971D01*
X8683286Y-240668D01*
X8730178Y-283118D01*
X8790509Y-316322D01*
X8850315Y-336679D01*
X8914962Y-349163D01*
X8985232Y-353447D01*
X9066847Y-347523D01*
X9141145Y-330285D01*
X9209324Y-302095D01*
X9259313Y-270273D01*
X9304982Y-227531D01*
X9346650Y-172402D01*
X9378221Y-111277D01*
X9396990Y-47172D01*
X9403314Y21039D01*
X9403314Y116171D01*
X9397604Y187919D01*
X9380690Y255715D01*
X9352451Y320480D01*
X9313760Y379342D01*
X9266938Y427733D01*
X9211339Y466660D01*
X9149583Y495341D01*
X9086113Y512327D01*
X9020036Y518012D01*
X8960524Y514303D01*
X8906341Y503540D01*
X8855154Y485253D01*
X8807606Y459393D01*
G37*
G36*
X7800348Y-752051D02*
G01*
X8569530Y-752051D01*
X8615501Y-746489D01*
X8641582Y-732817D01*
X8657620Y-710844D01*
X8663136Y-682076D01*
X8657634Y-653231D01*
X8641582Y-630907D01*
X8615468Y-617008D01*
X8569530Y-611367D01*
X7800348Y-611367D01*
X7755057Y-616986D01*
X7729030Y-630907D01*
X7712977Y-653231D01*
X7707475Y-682076D01*
X7712866Y-710308D01*
X7728663Y-732451D01*
X7754520Y-746385D01*
X7800348Y-752051D01*
G37*
G36*
X7553419Y-294829D02*
G01*
X7583155Y-323710D01*
X7610816Y-330000D01*
X7640059Y-324471D01*
X7662351Y-308445D01*
X7676223Y-282351D01*
X7681830Y-236882D01*
X7681830Y-142421D01*
X7676204Y-96359D01*
X7662351Y-70186D01*
X7640051Y-54163D01*
X7610755Y-48632D01*
X7587787Y-52034D01*
X7569478Y-61760D01*
X7555412Y-78072D01*
X7543893Y-105540D01*
X7533861Y-133377D01*
X7525392Y-147245D01*
X7500836Y-166961D01*
X7455050Y-190720D01*
X7402682Y-207135D01*
X7344347Y-212763D01*
X7283352Y-207473D01*
X7232794Y-192613D01*
X7190657Y-168982D01*
X7168737Y-149020D01*
X7156489Y-127445D01*
X7152433Y-103342D01*
X7156898Y-78542D01*
X7170874Y-54494D01*
X7193521Y-34543D01*
X7230957Y-16514D01*
X7266765Y-6347D01*
X7353262Y11513D01*
X7460387Y36855D01*
X7526735Y62804D01*
X7563378Y85773D01*
X7594174Y113936D01*
X7619670Y147678D01*
X7638708Y185376D01*
X7650005Y224644D01*
X7653803Y266136D01*
X7648671Y314344D01*
X7633432Y359165D01*
X7607600Y401612D01*
X7569783Y442357D01*
X7525818Y474745D01*
X7475571Y498240D01*
X7417868Y512878D01*
X7351186Y518012D01*
X7298383Y515018D01*
X7251107Y506410D01*
X7206803Y491672D01*
X7167454Y471117D01*
X7138894Y492245D01*
X7112805Y498472D01*
X7084723Y492992D01*
X7062613Y476857D01*
X7048742Y450697D01*
X7043135Y405110D01*
X7043135Y299414D01*
X7048762Y253235D01*
X7062613Y226996D01*
X7084723Y210861D01*
X7112805Y205381D01*
X7137202Y209322D01*
X7157929Y220951D01*
X7170111Y236292D01*
X7180460Y266930D01*
X7189797Y298604D01*
X7199572Y316389D01*
X7223214Y339254D01*
X7258984Y359681D01*
X7300653Y372715D01*
X7350514Y377328D01*
X7399945Y372967D01*
X7439212Y360930D01*
X7470437Y342096D01*
X7496378Y316435D01*
X7510154Y292287D01*
X7514462Y268640D01*
X7510116Y243540D01*
X7496388Y218326D01*
X7474792Y197235D01*
X7443449Y180407D01*
X7409882Y170508D01*
X7312657Y149632D01*
X7211663Y125743D01*
X7147304Y103104D01*
X7111189Y83144D01*
X7079349Y56857D01*
X7051378Y23664D01*
X7030390Y-13980D01*
X7017549Y-56474D01*
X7013093Y-104991D01*
X7017916Y-155693D01*
X7031753Y-199473D01*
X7054309Y-237707D01*
X7086182Y-271320D01*
X7136690Y-306503D01*
X7193875Y-332026D01*
X7258954Y-347898D01*
X7333478Y-353447D01*
X7390917Y-349766D01*
X7446563Y-338792D01*
X7500452Y-320598D01*
X7553419Y-294829D01*
G37*
G36*
X6863286Y492850D02*
G01*
X6889445Y478994D01*
X6905449Y456842D01*
X6910938Y428130D01*
X6905451Y399408D01*
X6889445Y377206D01*
X6863293Y363395D01*
X6817332Y357788D01*
X6795472Y357788D01*
X6795472Y-189316D01*
X6817332Y-189316D01*
X6862742Y-194907D01*
X6889078Y-208794D01*
X6905369Y-230977D01*
X6910938Y-259658D01*
X6905451Y-288380D01*
X6889445Y-310582D01*
X6863293Y-324393D01*
X6817332Y-330000D01*
X6406088Y-330000D01*
X6333763Y-325062D01*
X6279754Y-311926D01*
X6232199Y-290635D01*
X6194391Y-265092D01*
X6170905Y-241570D01*
X6150671Y-209771D01*
X6132763Y-162295D01*
X6126735Y-110730D01*
X6126814Y-109815D01*
X6266748Y-109815D01*
X6273543Y-141362D01*
X6293370Y-164159D01*
X6318215Y-176769D01*
X6356618Y-185770D01*
X6413599Y-189316D01*
X6655460Y-189316D01*
X6655460Y13894D01*
X6470324Y13894D01*
X6405833Y8680D01*
X6356640Y-5415D01*
X6319382Y-26894D01*
X6288060Y-56740D01*
X6271755Y-83952D01*
X6266748Y-109815D01*
X6126814Y-109815D01*
X6130526Y-67038D01*
X6141600Y-27327D01*
X6159891Y9193D01*
X6184654Y41918D01*
X6217365Y72748D01*
X6259237Y101761D01*
X6227233Y137996D01*
X6205259Y176194D01*
X6191974Y217655D01*
X6187491Y262228D01*
X6187848Y265709D01*
X6327564Y265709D01*
X6331573Y239768D01*
X6343514Y216906D01*
X6364445Y196161D01*
X6402821Y173571D01*
X6448038Y159532D01*
X6501770Y154578D01*
X6655460Y154578D01*
X6655460Y357788D01*
X6473072Y357788D01*
X6422995Y354073D01*
X6387305Y344357D01*
X6362430Y330128D01*
X6342428Y309860D01*
X6331242Y288654D01*
X6327564Y265709D01*
X6187848Y265709D01*
X6192240Y308575D01*
X6206251Y351139D01*
X6229806Y390897D01*
X6264000Y428497D01*
X6304071Y458362D01*
X6350301Y480096D01*
X6403853Y493688D01*
X6466233Y498472D01*
X6817332Y498472D01*
X6863286Y492850D01*
G37*
G36*
X16784822Y2205171D02*
G01*
X16814558Y2176290D01*
X16842219Y2170000D01*
X16871462Y2175529D01*
X16893754Y2191555D01*
X16907626Y2217649D01*
X16913232Y2263118D01*
X16913232Y2357579D01*
X16907606Y2403641D01*
X16893754Y2429814D01*
X16871453Y2445837D01*
X16842158Y2451368D01*
X16819190Y2447966D01*
X16800881Y2438240D01*
X16786814Y2421928D01*
X16775296Y2394460D01*
X16765264Y2366623D01*
X16756795Y2352755D01*
X16732239Y2333039D01*
X16686453Y2309280D01*
X16634085Y2292865D01*
X16575750Y2287237D01*
X16514755Y2292527D01*
X16464197Y2307387D01*
X16422060Y2331018D01*
X16400140Y2350980D01*
X16387891Y2372555D01*
X16383836Y2396658D01*
X16388301Y2421458D01*
X16402276Y2445506D01*
X16424924Y2465457D01*
X16462360Y2483486D01*
X16498168Y2493653D01*
X16584665Y2511513D01*
X16691789Y2536855D01*
X16758138Y2562804D01*
X16794781Y2585773D01*
X16825577Y2613936D01*
X16851072Y2647678D01*
X16870111Y2685376D01*
X16881408Y2724644D01*
X16885205Y2766136D01*
X16880074Y2814344D01*
X16864834Y2859165D01*
X16839003Y2901612D01*
X16801186Y2942357D01*
X16757220Y2974745D01*
X16706974Y2998240D01*
X16649271Y3012878D01*
X16582588Y3018012D01*
X16529786Y3015018D01*
X16482510Y3006410D01*
X16438205Y2991672D01*
X16398857Y2971117D01*
X16370297Y2992245D01*
X16344207Y2998472D01*
X16316126Y2992992D01*
X16294016Y2976857D01*
X16280145Y2950697D01*
X16274537Y2905110D01*
X16274537Y2799414D01*
X16280164Y2753235D01*
X16294016Y2726996D01*
X16316126Y2710861D01*
X16344207Y2705381D01*
X16368605Y2709322D01*
X16389331Y2720951D01*
X16401513Y2736292D01*
X16411863Y2766930D01*
X16421200Y2798604D01*
X16430975Y2816389D01*
X16454617Y2839254D01*
X16490387Y2859681D01*
X16532056Y2872715D01*
X16581917Y2877328D01*
X16631348Y2872967D01*
X16670615Y2860930D01*
X16701840Y2842096D01*
X16727781Y2816435D01*
X16741557Y2792287D01*
X16745865Y2768640D01*
X16741519Y2743540D01*
X16727791Y2718326D01*
X16706194Y2697235D01*
X16674851Y2680407D01*
X16641284Y2670508D01*
X16544059Y2649632D01*
X16443066Y2625743D01*
X16378707Y2603104D01*
X16342592Y2583144D01*
X16310751Y2556857D01*
X16282780Y2523664D01*
X16261792Y2486020D01*
X16248951Y2443526D01*
X16244495Y2395009D01*
X16249319Y2344307D01*
X16263155Y2300527D01*
X16285712Y2262293D01*
X16317585Y2228680D01*
X16368093Y2193497D01*
X16425277Y2167974D01*
X16490356Y2152102D01*
X16564881Y2146553D01*
X16622320Y2150234D01*
X16677965Y2161208D01*
X16731855Y2179402D01*
X16784822Y2205171D01*
G37*
G36*
X16094689Y2992850D02*
G01*
X16120847Y2978994D01*
X16136851Y2956842D01*
X16142341Y2928130D01*
X16136853Y2899408D01*
X16120847Y2877206D01*
X16094695Y2863395D01*
X16048735Y2857788D01*
X16026875Y2857788D01*
X16026875Y2310684D01*
X16048735Y2310684D01*
X16094144Y2305093D01*
X16120481Y2291206D01*
X16136771Y2269023D01*
X16142341Y2240342D01*
X16136853Y2211620D01*
X16120847Y2189418D01*
X16094695Y2175607D01*
X16048735Y2170000D01*
X15637491Y2170000D01*
X15565166Y2174938D01*
X15511156Y2188074D01*
X15463602Y2209365D01*
X15425793Y2234908D01*
X15402307Y2258430D01*
X15382074Y2290229D01*
X15364166Y2337705D01*
X15358138Y2389270D01*
X15358217Y2390185D01*
X15498150Y2390185D01*
X15504946Y2358638D01*
X15524773Y2335841D01*
X15549618Y2323231D01*
X15588021Y2314230D01*
X15645001Y2310684D01*
X15886863Y2310684D01*
X15886863Y2513894D01*
X15701727Y2513894D01*
X15637235Y2508680D01*
X15588043Y2494585D01*
X15550785Y2473106D01*
X15519462Y2443260D01*
X15503158Y2416048D01*
X15498150Y2390185D01*
X15358217Y2390185D01*
X15361929Y2432962D01*
X15373002Y2472673D01*
X15391294Y2509193D01*
X15416056Y2541918D01*
X15448768Y2572748D01*
X15490640Y2601761D01*
X15458635Y2637996D01*
X15436662Y2676194D01*
X15423376Y2717655D01*
X15418893Y2762228D01*
X15419250Y2765709D01*
X15558967Y2765709D01*
X15562976Y2739768D01*
X15574917Y2716906D01*
X15595847Y2696161D01*
X15634223Y2673571D01*
X15679441Y2659532D01*
X15733173Y2654578D01*
X15886863Y2654578D01*
X15886863Y2857788D01*
X15704474Y2857788D01*
X15654398Y2854073D01*
X15618707Y2844357D01*
X15593832Y2830128D01*
X15573831Y2809860D01*
X15562645Y2788654D01*
X15558967Y2765709D01*
X15419250Y2765709D01*
X15423642Y2808575D01*
X15437654Y2851139D01*
X15461208Y2890897D01*
X15495403Y2928497D01*
X15535473Y2958362D01*
X15581704Y2980096D01*
X15635255Y2993688D01*
X15697636Y2998472D01*
X16048735Y2998472D01*
X16094689Y2992850D01*
G37*
G36*
X14514096Y1747949D02*
G01*
X15283278Y1747949D01*
X15329248Y1753511D01*
X15355329Y1767183D01*
X15371367Y1789156D01*
X15376884Y1817924D01*
X15371382Y1846769D01*
X15355329Y1869093D01*
X15329215Y1882992D01*
X15283278Y1888633D01*
X14514096Y1888633D01*
X14468805Y1883014D01*
X14442777Y1869093D01*
X14426725Y1846769D01*
X14421222Y1817924D01*
X14426613Y1789692D01*
X14442411Y1767549D01*
X14468267Y1753615D01*
X14514096Y1747949D01*
G37*
G36*
X14351344Y2992850D02*
G01*
X14377503Y2978994D01*
X14393507Y2956842D01*
X14398996Y2928130D01*
X14393509Y2899408D01*
X14377503Y2877206D01*
X14351351Y2863395D01*
X14305390Y2857788D01*
X14283531Y2857788D01*
X14283531Y2310684D01*
X14305390Y2310684D01*
X14350800Y2305093D01*
X14377137Y2291206D01*
X14393427Y2269023D01*
X14398996Y2240342D01*
X14393509Y2211620D01*
X14377503Y2189418D01*
X14351351Y2175607D01*
X14305390Y2170000D01*
X14002102Y2170000D01*
X13956151Y2175610D01*
X13930050Y2189418D01*
X13913996Y2211625D01*
X13908496Y2240342D01*
X13913998Y2269049D01*
X13930050Y2291206D01*
X13956157Y2305060D01*
X14002102Y2310684D01*
X14143518Y2310684D01*
X14143518Y2455276D01*
X14011017Y2455276D01*
X13930741Y2460883D01*
X13874729Y2475365D01*
X13824526Y2499898D01*
X13773613Y2535388D01*
X13729702Y2577265D01*
X13702904Y2616232D01*
X13681884Y2672575D01*
X13674877Y2732309D01*
X13675205Y2735667D01*
X13814951Y2735667D01*
X13820672Y2699779D01*
X13837926Y2667316D01*
X13868562Y2636993D01*
X13906387Y2615091D01*
X13953929Y2601051D01*
X14013703Y2595960D01*
X14143518Y2595960D01*
X14143518Y2857788D01*
X13982318Y2857788D01*
X13929741Y2853163D01*
X13889321Y2840574D01*
X13858365Y2821152D01*
X13833602Y2794456D01*
X13819590Y2766300D01*
X13814951Y2735667D01*
X13675205Y2735667D01*
X13680137Y2786163D01*
X13695528Y2834855D01*
X13721137Y2879535D01*
X13757920Y2920986D01*
X13801427Y2953881D01*
X13852411Y2977955D01*
X13912311Y2993108D01*
X13982990Y2998472D01*
X14305390Y2998472D01*
X14351344Y2992850D01*
G37*
G36*
X13223028Y2569460D02*
G01*
X13352782Y2170000D01*
X13509891Y2170000D01*
X13593239Y2857788D01*
X13622274Y2862725D01*
X13641782Y2876229D01*
X13653795Y2897188D01*
X13658147Y2926176D01*
X13652690Y2955060D01*
X13636653Y2978017D01*
X13610389Y2992601D01*
X13564541Y2998472D01*
X13378061Y2998472D01*
X13332117Y2992847D01*
X13306010Y2978994D01*
X13290006Y2956842D01*
X13284516Y2928130D01*
X13290004Y2899408D01*
X13306010Y2877206D01*
X13332110Y2863397D01*
X13378061Y2857788D01*
X13451151Y2857788D01*
X13404745Y2467855D01*
X13294713Y2795262D01*
X13149206Y2795262D01*
X13039907Y2467855D01*
X12993501Y2857788D01*
X13066591Y2857788D01*
X13112541Y2863397D01*
X13138642Y2877206D01*
X13154648Y2899408D01*
X13160136Y2928130D01*
X13154646Y2956842D01*
X13138642Y2978994D01*
X13112535Y2992847D01*
X13066591Y2998472D01*
X12880783Y2998472D01*
X12834839Y2992847D01*
X12808731Y2978994D01*
X12792679Y2956837D01*
X12787177Y2928130D01*
X12791667Y2899044D01*
X12804274Y2877206D01*
X12824376Y2862926D01*
X12853428Y2857788D01*
X12934028Y2170000D01*
X13088450Y2170000D01*
X13223028Y2569460D01*
G37*
G36*
X12736472Y2992850D02*
G01*
X12762630Y2978994D01*
X12778634Y2956842D01*
X12784124Y2928130D01*
X12778636Y2899408D01*
X12762630Y2877206D01*
X12736478Y2863395D01*
X12690518Y2857788D01*
X12668658Y2857788D01*
X12668658Y2310684D01*
X12690518Y2310684D01*
X12735927Y2305093D01*
X12762264Y2291206D01*
X12778554Y2269023D01*
X12784124Y2240342D01*
X12778636Y2211620D01*
X12762630Y2189418D01*
X12736478Y2175607D01*
X12690518Y2170000D01*
X12478087Y2170000D01*
X12432137Y2175610D01*
X12406036Y2189418D01*
X12389982Y2211625D01*
X12384481Y2240342D01*
X12389984Y2269049D01*
X12406036Y2291206D01*
X12432143Y2305060D01*
X12478087Y2310684D01*
X12528585Y2310684D01*
X12528585Y2486539D01*
X12389916Y2486539D01*
X12341405Y2455757D01*
X12280382Y2399303D01*
X12203649Y2307762D01*
X12107815Y2170000D01*
X12027887Y2170000D01*
X11981985Y2175621D01*
X11956140Y2189418D01*
X11940372Y2211594D01*
X11934952Y2240342D01*
X11942158Y2269417D01*
X11965727Y2297434D01*
X11987754Y2306525D01*
X12036069Y2310684D01*
X12120821Y2432195D01*
X12171659Y2489392D01*
X12215771Y2531846D01*
X12166421Y2562541D01*
X12128517Y2594312D01*
X12100305Y2627162D01*
X12078963Y2664396D01*
X12066297Y2703850D01*
X12062020Y2746353D01*
X12062489Y2750993D01*
X12202093Y2750993D01*
X12207250Y2725294D01*
X12224319Y2697260D01*
X12253207Y2673084D01*
X12310720Y2645602D01*
X12360607Y2632017D01*
X12419286Y2627223D01*
X12528585Y2627223D01*
X12528585Y2857788D01*
X12368056Y2857788D01*
X12314774Y2853453D01*
X12274558Y2841788D01*
X12244469Y2824083D01*
X12219735Y2799480D01*
X12206355Y2775429D01*
X12202093Y2750993D01*
X12062489Y2750993D01*
X12067150Y2797106D01*
X12082201Y2843122D01*
X12107348Y2885512D01*
X12143658Y2925016D01*
X12186204Y2955770D01*
X12237464Y2978638D01*
X12299183Y2993243D01*
X12373551Y2998472D01*
X12690518Y2998472D01*
X12736472Y2992850D01*
G37*
D13*
X20027271Y12631801D02*
X20027271Y13631801D01*
X20027271Y13631801D02*
X18527271Y12631801D01*
X18527271Y12631801D02*
X18527271Y13631801D01*
D12*
G36*
X-6775995Y16513894D02*
G01*
X-6775995Y16310684D01*
X-7133261Y16310684D01*
X-7133261Y16384934D01*
X-7138891Y16431040D01*
X-7152740Y16457169D01*
X-7174938Y16473226D01*
X-7203603Y16478723D01*
X-7231732Y16473251D01*
X-7253795Y16457169D01*
X-7267643Y16431040D01*
X-7273273Y16384934D01*
X-7273273Y16170000D01*
X-6614062Y16170000D01*
X-6568111Y16175610D01*
X-6542010Y16189418D01*
X-6526004Y16211620D01*
X-6520517Y16240342D01*
X-6526086Y16269023D01*
X-6542377Y16291206D01*
X-6568706Y16305095D01*
X-6614062Y16310684D01*
X-6635922Y16310684D01*
X-6635922Y16857788D01*
X-6614062Y16857788D01*
X-6568111Y16863397D01*
X-6542010Y16877206D01*
X-6526004Y16899408D01*
X-6520517Y16928130D01*
X-6526006Y16956842D01*
X-6542010Y16978994D01*
X-6568118Y16992847D01*
X-6614062Y16998472D01*
X-7242560Y16997801D01*
X-7242560Y16783539D01*
X-7237011Y16737390D01*
X-7223387Y16711243D01*
X-7201495Y16695246D01*
X-7172890Y16689749D01*
X-7144167Y16695237D01*
X-7121965Y16711243D01*
X-7108114Y16737423D01*
X-7102487Y16783539D01*
X-7102487Y16857788D01*
X-6775995Y16857788D01*
X-6775995Y16654578D01*
X-6898971Y16654578D01*
X-6902321Y16700485D01*
X-6909229Y16719058D01*
X-6925208Y16735278D01*
X-6944840Y16744966D01*
X-6969313Y16748368D01*
X-6997400Y16742900D01*
X-7019505Y16726813D01*
X-7033353Y16700684D01*
X-7038983Y16654578D01*
X-7038983Y16513894D01*
X-7035445Y16467992D01*
X-7028054Y16448987D01*
X-7011723Y16432878D01*
X-6992471Y16423387D01*
X-6969313Y16420105D01*
X-6944840Y16423506D01*
X-6925208Y16433194D01*
X-6909229Y16449414D01*
X-6902321Y16467988D01*
X-6898971Y16513894D01*
X-6775995Y16513894D01*
G37*
G36*
X-7583767Y16733957D02*
G01*
X-7583767Y16310684D01*
X-7634325Y16310684D01*
X-7680270Y16305060D01*
X-7706377Y16291206D01*
X-7722429Y16269049D01*
X-7727931Y16240342D01*
X-7722431Y16211625D01*
X-7706377Y16189418D01*
X-7680276Y16175610D01*
X-7634325Y16170000D01*
X-7450594Y16170000D01*
X-7404633Y16175607D01*
X-7378481Y16189418D01*
X-7362475Y16211620D01*
X-7356988Y16240342D01*
X-7362410Y16269080D01*
X-7378176Y16291206D01*
X-7403292Y16305237D01*
X-7443755Y16310684D01*
X-7443755Y16857788D01*
X-7421895Y16857788D01*
X-7375935Y16863395D01*
X-7349782Y16877206D01*
X-7333776Y16899408D01*
X-7328289Y16928130D01*
X-7333778Y16956842D01*
X-7349782Y16978994D01*
X-7375941Y16992850D01*
X-7421895Y16998472D01*
X-7583767Y16998472D01*
X-7941705Y16436592D01*
X-7941705Y16857788D01*
X-7891208Y16857788D01*
X-7845247Y16863395D01*
X-7819095Y16877206D01*
X-7803089Y16899408D01*
X-7797602Y16928130D01*
X-7803091Y16956842D01*
X-7819095Y16978994D01*
X-7845254Y16992850D01*
X-7891208Y16998472D01*
X-8074939Y16998472D01*
X-8120884Y16992847D01*
X-8146991Y16978994D01*
X-8163043Y16956837D01*
X-8168546Y16928130D01*
X-8163125Y16899382D01*
X-8147357Y16877206D01*
X-8122328Y16863199D01*
X-8082450Y16857788D01*
X-8082450Y16170000D01*
X-7943781Y16170000D01*
X-7583767Y16733957D01*
G37*
G36*
X-12272602Y11424013D02*
G01*
X-12272602Y11235641D01*
X-12180060Y11190364D01*
X-12111035Y11165421D01*
X-12042739Y11151397D01*
X-11967237Y11146553D01*
X-11896318Y11150254D01*
X-11830263Y11161074D01*
X-11768484Y11178732D01*
X-11702108Y11207878D01*
X-11655400Y11241014D01*
X-11617569Y11284934D01*
X-11579196Y11352267D01*
X-11560118Y11402380D01*
X-11548417Y11456986D01*
X-11544392Y11516886D01*
X-11544392Y11618247D01*
X-11549812Y11687050D01*
X-11565767Y11751142D01*
X-11592233Y11811468D01*
X-11629755Y11868779D01*
X-11679354Y11922845D01*
X-11734426Y11964056D01*
X-11795692Y11993565D01*
X-11864344Y12011715D01*
X-11941958Y12018012D01*
X-11998440Y12015021D01*
X-12050890Y12006288D01*
X-12101301Y11991599D01*
X-12148954Y11971117D01*
X-12178030Y11992317D01*
X-12203603Y11998472D01*
X-12231630Y11993006D01*
X-12253429Y11976979D01*
X-12267035Y11950819D01*
X-12272602Y11904194D01*
X-12272602Y11812054D01*
X-12266970Y11765405D01*
X-12253123Y11738903D01*
X-12230998Y11722625D01*
X-12202931Y11717104D01*
X-12179897Y11720955D01*
X-12160555Y11732309D01*
X-12149178Y11746646D01*
X-12137658Y11778165D01*
X-12126773Y11810370D01*
X-12116836Y11826220D01*
X-12093841Y11843702D01*
X-12051562Y11861757D01*
X-12003049Y11873275D01*
X-11946782Y11877328D01*
X-11892091Y11873292D01*
X-11844182Y11861735D01*
X-11801946Y11843134D01*
X-11775257Y11823627D01*
X-11748437Y11794906D01*
X-11721346Y11754901D01*
X-11700848Y11711736D01*
X-11688600Y11666401D01*
X-11684465Y11618186D01*
X-11684465Y11517009D01*
X-11689055Y11460960D01*
X-11701878Y11414901D01*
X-11722093Y11376936D01*
X-11749678Y11345672D01*
X-11783461Y11322050D01*
X-11827534Y11303795D01*
X-11884385Y11291698D01*
X-11957040Y11287237D01*
X-12020436Y11291393D01*
X-12078696Y11303514D01*
X-12132589Y11323324D01*
X-12132589Y11424013D01*
X-11989768Y11424013D01*
X-11943862Y11429618D01*
X-11917717Y11443430D01*
X-11901711Y11465633D01*
X-11896223Y11494355D01*
X-11901713Y11523067D01*
X-11917717Y11545219D01*
X-11943868Y11559076D01*
X-11989768Y11564697D01*
X-12238469Y11564697D01*
X-12284413Y11559072D01*
X-12310520Y11545219D01*
X-12326524Y11523067D01*
X-12332014Y11494355D01*
X-12328091Y11465074D01*
X-12317298Y11443430D01*
X-12299426Y11429146D01*
X-12272602Y11424013D01*
G37*
G36*
X-12583767Y11733957D02*
G01*
X-12583767Y11310684D01*
X-12634325Y11310684D01*
X-12680270Y11305060D01*
X-12706377Y11291206D01*
X-12722429Y11269049D01*
X-12727931Y11240342D01*
X-12722431Y11211625D01*
X-12706377Y11189418D01*
X-12680276Y11175610D01*
X-12634325Y11170000D01*
X-12450594Y11170000D01*
X-12404633Y11175607D01*
X-12378481Y11189418D01*
X-12362475Y11211620D01*
X-12356988Y11240342D01*
X-12362410Y11269080D01*
X-12378176Y11291206D01*
X-12403292Y11305237D01*
X-12443755Y11310684D01*
X-12443755Y11857788D01*
X-12421895Y11857788D01*
X-12375935Y11863395D01*
X-12349782Y11877206D01*
X-12333776Y11899408D01*
X-12328289Y11928130D01*
X-12333778Y11956842D01*
X-12349782Y11978994D01*
X-12375941Y11992850D01*
X-12421895Y11998472D01*
X-12583767Y11998472D01*
X-12941705Y11436592D01*
X-12941705Y11857788D01*
X-12891208Y11857788D01*
X-12845247Y11863395D01*
X-12819095Y11877206D01*
X-12803089Y11899408D01*
X-12797602Y11928130D01*
X-12803091Y11956842D01*
X-12819095Y11978994D01*
X-12845254Y11992850D01*
X-12891208Y11998472D01*
X-13074939Y11998472D01*
X-13120884Y11992847D01*
X-13146991Y11978994D01*
X-13163043Y11956837D01*
X-13168546Y11928130D01*
X-13163125Y11899382D01*
X-13147357Y11877206D01*
X-13122328Y11863199D01*
X-13082450Y11857788D01*
X-13082450Y11170000D01*
X-12943781Y11170000D01*
X-12583767Y11733957D01*
G37*
G36*
X-13245873Y11992850D02*
G01*
X-13219714Y11978994D01*
X-13203710Y11956842D01*
X-13198221Y11928130D01*
X-13203641Y11899382D01*
X-13219409Y11877206D01*
X-13244520Y11863221D01*
X-13284988Y11857788D01*
X-13284988Y11310684D01*
X-13245057Y11305273D01*
X-13219714Y11291206D01*
X-13203710Y11269054D01*
X-13198221Y11240342D01*
X-13203708Y11211620D01*
X-13219714Y11189418D01*
X-13245867Y11175607D01*
X-13291827Y11170000D01*
X-13573256Y11170000D01*
X-13645331Y11174052D01*
X-13703518Y11185167D01*
X-13750210Y11202118D01*
X-13792790Y11226984D01*
X-13842045Y11265927D01*
X-13885523Y11314699D01*
X-13920936Y11377973D01*
X-13937301Y11424632D01*
X-13947491Y11476808D01*
X-13951039Y11535388D01*
X-13951039Y11602310D01*
X-13950798Y11606096D01*
X-13811026Y11606096D01*
X-13811026Y11539906D01*
X-13807540Y11489077D01*
X-13797906Y11447809D01*
X-13782999Y11414365D01*
X-13761776Y11384517D01*
X-13734269Y11357973D01*
X-13699652Y11334559D01*
X-13670315Y11322305D01*
X-13629519Y11313885D01*
X-13573989Y11310684D01*
X-13425062Y11310684D01*
X-13425062Y11857788D01*
X-13572645Y11857788D01*
X-13621565Y11854256D01*
X-13662415Y11844356D01*
X-13696599Y11828785D01*
X-13726345Y11806125D01*
X-13756029Y11771567D01*
X-13785747Y11722050D01*
X-13804437Y11669370D01*
X-13811026Y11606096D01*
X-13950798Y11606096D01*
X-13946581Y11672348D01*
X-13934613Y11725958D01*
X-13914623Y11775841D01*
X-13885765Y11827746D01*
X-13852423Y11875454D01*
X-13823300Y11908347D01*
X-13778802Y11942889D01*
X-13718397Y11972521D01*
X-13652217Y11991516D01*
X-13584857Y11997801D01*
X-13291827Y11998472D01*
X-13245873Y11992850D01*
G37*
G36*
X21727398Y-7075987D02*
G01*
X21727398Y-7264359D01*
X21819940Y-7309636D01*
X21888965Y-7334579D01*
X21957261Y-7348603D01*
X22032763Y-7353447D01*
X22103682Y-7349746D01*
X22169737Y-7338926D01*
X22231516Y-7321268D01*
X22297892Y-7292122D01*
X22344600Y-7258986D01*
X22382431Y-7215066D01*
X22420804Y-7147733D01*
X22439882Y-7097620D01*
X22451583Y-7043014D01*
X22455608Y-6983114D01*
X22455608Y-6881753D01*
X22450188Y-6812950D01*
X22434233Y-6748858D01*
X22407767Y-6688532D01*
X22370245Y-6631221D01*
X22320646Y-6577155D01*
X22265574Y-6535944D01*
X22204308Y-6506435D01*
X22135656Y-6488285D01*
X22058042Y-6481988D01*
X22001560Y-6484979D01*
X21949110Y-6493712D01*
X21898699Y-6508401D01*
X21851046Y-6528883D01*
X21821970Y-6507683D01*
X21796397Y-6501528D01*
X21768370Y-6506994D01*
X21746571Y-6523021D01*
X21732965Y-6549181D01*
X21727398Y-6595806D01*
X21727398Y-6687946D01*
X21733030Y-6734595D01*
X21746877Y-6761097D01*
X21769002Y-6777375D01*
X21797069Y-6782896D01*
X21820103Y-6779045D01*
X21839445Y-6767691D01*
X21850822Y-6753354D01*
X21862342Y-6721835D01*
X21873227Y-6689630D01*
X21883164Y-6673780D01*
X21906159Y-6656298D01*
X21948438Y-6638243D01*
X21996951Y-6626725D01*
X22053218Y-6622672D01*
X22107909Y-6626708D01*
X22155818Y-6638265D01*
X22198054Y-6656866D01*
X22224743Y-6676373D01*
X22251563Y-6705094D01*
X22278654Y-6745099D01*
X22299152Y-6788264D01*
X22311400Y-6833599D01*
X22315535Y-6881814D01*
X22315535Y-6982991D01*
X22310945Y-7039040D01*
X22298122Y-7085099D01*
X22277907Y-7123064D01*
X22250322Y-7154328D01*
X22216539Y-7177950D01*
X22172466Y-7196205D01*
X22115615Y-7208302D01*
X22042960Y-7212763D01*
X21979564Y-7208607D01*
X21921304Y-7196486D01*
X21867411Y-7176676D01*
X21867411Y-7075987D01*
X22010232Y-7075987D01*
X22056138Y-7070382D01*
X22082283Y-7056570D01*
X22098289Y-7034367D01*
X22103777Y-7005645D01*
X22098287Y-6976933D01*
X22082283Y-6954781D01*
X22056132Y-6940924D01*
X22010232Y-6935303D01*
X21761531Y-6935303D01*
X21715587Y-6940928D01*
X21689480Y-6954781D01*
X21673476Y-6976933D01*
X21667986Y-7005645D01*
X21671909Y-7034926D01*
X21682702Y-7056570D01*
X21700574Y-7070854D01*
X21727398Y-7075987D01*
G37*
G36*
X21416233Y-6766043D02*
G01*
X21416233Y-7189316D01*
X21365675Y-7189316D01*
X21319730Y-7194940D01*
X21293623Y-7208794D01*
X21277571Y-7230951D01*
X21272069Y-7259658D01*
X21277569Y-7288375D01*
X21293623Y-7310582D01*
X21319724Y-7324390D01*
X21365675Y-7330000D01*
X21549406Y-7330000D01*
X21595367Y-7324393D01*
X21621519Y-7310582D01*
X21637525Y-7288380D01*
X21643012Y-7259658D01*
X21637590Y-7230920D01*
X21621824Y-7208794D01*
X21596708Y-7194763D01*
X21556245Y-7189316D01*
X21556245Y-6642212D01*
X21578105Y-6642212D01*
X21624065Y-6636605D01*
X21650218Y-6622794D01*
X21666224Y-6600592D01*
X21671711Y-6571870D01*
X21666222Y-6543158D01*
X21650218Y-6521006D01*
X21624059Y-6507150D01*
X21578105Y-6501528D01*
X21416233Y-6501528D01*
X21058295Y-7063408D01*
X21058295Y-6642212D01*
X21108792Y-6642212D01*
X21154753Y-6636605D01*
X21180905Y-6622794D01*
X21196911Y-6600592D01*
X21202398Y-6571870D01*
X21196909Y-6543158D01*
X21180905Y-6521006D01*
X21154746Y-6507150D01*
X21108792Y-6501528D01*
X20925061Y-6501528D01*
X20879116Y-6507153D01*
X20853009Y-6521006D01*
X20836957Y-6543163D01*
X20831454Y-6571870D01*
X20836875Y-6600618D01*
X20852643Y-6622794D01*
X20877672Y-6636801D01*
X20917550Y-6642212D01*
X20917550Y-7330000D01*
X21056219Y-7330000D01*
X21416233Y-6766043D01*
G37*
G36*
X20754127Y-6507150D02*
G01*
X20780286Y-6521006D01*
X20796290Y-6543158D01*
X20801779Y-6571870D01*
X20796359Y-6600618D01*
X20780591Y-6622794D01*
X20755480Y-6636779D01*
X20715012Y-6642212D01*
X20715012Y-7189316D01*
X20754943Y-7194727D01*
X20780286Y-7208794D01*
X20796290Y-7230946D01*
X20801779Y-7259658D01*
X20796292Y-7288380D01*
X20780286Y-7310582D01*
X20754133Y-7324393D01*
X20708173Y-7330000D01*
X20426744Y-7330000D01*
X20354669Y-7325948D01*
X20296482Y-7314833D01*
X20249790Y-7297882D01*
X20207210Y-7273016D01*
X20157955Y-7234073D01*
X20114477Y-7185301D01*
X20079064Y-7122027D01*
X20062699Y-7075368D01*
X20052509Y-7023192D01*
X20048961Y-6964612D01*
X20048961Y-6897690D01*
X20049202Y-6893904D01*
X20188974Y-6893904D01*
X20188974Y-6960094D01*
X20192460Y-7010923D01*
X20202094Y-7052191D01*
X20217001Y-7085635D01*
X20238224Y-7115483D01*
X20265731Y-7142027D01*
X20300348Y-7165441D01*
X20329685Y-7177695D01*
X20370481Y-7186115D01*
X20426011Y-7189316D01*
X20574938Y-7189316D01*
X20574938Y-6642212D01*
X20427355Y-6642212D01*
X20378435Y-6645744D01*
X20337585Y-6655644D01*
X20303401Y-6671215D01*
X20273655Y-6693875D01*
X20243971Y-6728433D01*
X20214253Y-6777950D01*
X20195563Y-6830630D01*
X20188974Y-6893904D01*
X20049202Y-6893904D01*
X20053419Y-6827652D01*
X20065387Y-6774042D01*
X20085377Y-6724159D01*
X20114235Y-6672254D01*
X20147577Y-6624546D01*
X20176700Y-6591653D01*
X20221198Y-6557111D01*
X20281603Y-6527479D01*
X20347783Y-6508484D01*
X20415143Y-6502199D01*
X20708173Y-6501528D01*
X20754127Y-6507150D01*
G37*
G36*
X18653358Y-7001737D02*
G01*
X18653358Y-7236332D01*
X18658886Y-7282326D01*
X18672470Y-7308445D01*
X18694376Y-7324487D01*
X18723028Y-7330000D01*
X18751693Y-7324502D01*
X18773892Y-7308445D01*
X18787748Y-7282286D01*
X18793370Y-7236332D01*
X18793370Y-7001737D01*
X18993527Y-7001737D01*
X19039474Y-6996099D01*
X19065640Y-6982198D01*
X19081644Y-6959878D01*
X19087133Y-6931029D01*
X19081642Y-6902190D01*
X19065640Y-6879921D01*
X19039471Y-6866132D01*
X18993527Y-6861053D01*
X18793370Y-6861053D01*
X18793370Y-6626702D01*
X18787776Y-6581121D01*
X18773892Y-6554712D01*
X18751662Y-6538369D01*
X18723028Y-6532791D01*
X18694316Y-6538305D01*
X18672103Y-6554406D01*
X18658253Y-6580587D01*
X18652625Y-6626702D01*
X18653358Y-6861053D01*
X18453201Y-6861053D01*
X18407230Y-6866615D01*
X18381149Y-6880287D01*
X18365111Y-6902260D01*
X18359595Y-6931029D01*
X18365097Y-6959873D01*
X18381149Y-6982198D01*
X18407263Y-6996097D01*
X18453201Y-7001737D01*
X18653358Y-7001737D01*
G37*
G36*
X18001962Y-6587501D02*
G01*
X18001962Y-6759448D01*
X17925296Y-6738477D01*
X17860546Y-6732093D01*
X17797523Y-6737785D01*
X17741633Y-6754264D01*
X17691487Y-6781296D01*
X17646100Y-6819532D01*
X17609185Y-6865714D01*
X17582717Y-6917881D01*
X17566375Y-6977191D01*
X17560676Y-7045212D01*
X17566590Y-7115490D01*
X17583328Y-7174896D01*
X17610095Y-7225435D01*
X17647077Y-7268572D01*
X17692133Y-7301794D01*
X17749322Y-7327036D01*
X17821397Y-7343522D01*
X17911775Y-7349539D01*
X17991539Y-7345171D01*
X18058289Y-7332991D01*
X18114011Y-7314095D01*
X18160415Y-7289150D01*
X18191710Y-7263024D01*
X18208407Y-7236795D01*
X18213721Y-7209344D01*
X18208568Y-7182801D01*
X18192899Y-7159701D01*
X18169998Y-7143763D01*
X18143379Y-7138513D01*
X18119906Y-7143810D01*
X18091477Y-7162327D01*
X18062271Y-7182768D01*
X18032676Y-7195361D01*
X17985766Y-7205113D01*
X17920629Y-7208855D01*
X17835995Y-7203138D01*
X17781061Y-7188829D01*
X17747156Y-7168982D01*
X17722294Y-7139262D01*
X17706490Y-7099511D01*
X17700689Y-7046495D01*
X17706127Y-6994157D01*
X17721273Y-6952464D01*
X17745446Y-6919061D01*
X17777800Y-6893538D01*
X17815618Y-6878141D01*
X17860546Y-6872777D01*
X17910181Y-6877440D01*
X17967273Y-6892543D01*
X18033408Y-6920221D01*
X18054918Y-6928889D01*
X18071693Y-6931395D01*
X18099292Y-6925902D01*
X18121885Y-6909474D01*
X18136786Y-6884877D01*
X18142035Y-6852566D01*
X18142035Y-6446817D01*
X17713695Y-6446817D01*
X17667763Y-6452473D01*
X17641643Y-6466418D01*
X17625593Y-6488692D01*
X17620088Y-6517526D01*
X17625557Y-6545739D01*
X17641643Y-6567962D01*
X17667757Y-6581861D01*
X17713695Y-6587501D01*
X18001962Y-6587501D01*
G37*
G36*
X17045263Y-7125629D02*
G01*
X16842358Y-6642212D01*
X16874476Y-6642212D01*
X16920437Y-6636605D01*
X16946589Y-6622794D01*
X16962595Y-6600592D01*
X16968082Y-6571870D01*
X16962593Y-6543158D01*
X16946589Y-6521006D01*
X16920430Y-6507150D01*
X16874476Y-6501528D01*
X16686592Y-6501528D01*
X16640702Y-6507151D01*
X16614602Y-6521006D01*
X16598550Y-6543163D01*
X16593047Y-6571870D01*
X16600629Y-6600842D01*
X16625837Y-6629267D01*
X16646093Y-6638176D01*
X16690012Y-6642212D01*
X16977608Y-7330000D01*
X17112185Y-7330000D01*
X17399110Y-6642212D01*
X17443600Y-6638078D01*
X17464017Y-6628961D01*
X17483067Y-6610152D01*
X17493464Y-6591361D01*
X17496807Y-6571870D01*
X17491304Y-6543163D01*
X17475252Y-6521006D01*
X17449145Y-6507153D01*
X17403201Y-6501528D01*
X17213974Y-6501528D01*
X17168622Y-6507133D01*
X17142594Y-6521006D01*
X17126590Y-6543158D01*
X17121100Y-6571870D01*
X17126520Y-6600618D01*
X17142288Y-6622794D01*
X17168081Y-6636588D01*
X17213974Y-6642212D01*
X17246763Y-6642212D01*
X17045263Y-7125629D01*
G37*
D13*
X-4925111Y1529004D02*
X-4925111Y3029004D01*
X-4925111Y3029004D02*
X-5782254Y1529004D01*
X-5782254Y1529004D02*
X-5782254Y3029004D01*
X-6496540Y1529004D02*
X-6496540Y2529004D01*
X-6496540Y3029004D02*
X-6425112Y2957575D01*
X-6425112Y2957575D02*
X-6496540Y2886147D01*
X-6496540Y2886147D02*
X-6567969Y2957575D01*
X-6567969Y2957575D02*
X-6496540Y3029004D01*
X-6496540Y3029004D02*
X-6496540Y2886147D01*
X-7853683Y1600432D02*
X-7710826Y1529004D01*
X-7710826Y1529004D02*
X-7425112Y1529004D01*
X-7425112Y1529004D02*
X-7282255Y1600432D01*
X-7282255Y1600432D02*
X-7210826Y1671861D01*
X-7210826Y1671861D02*
X-7139398Y1814718D01*
X-7139398Y1814718D02*
X-7139398Y2243290D01*
X-7139398Y2243290D02*
X-7210826Y2386147D01*
X-7210826Y2386147D02*
X-7282255Y2457575D01*
X-7282255Y2457575D02*
X-7425112Y2529004D01*
X-7425112Y2529004D02*
X-7710826Y2529004D01*
X-7710826Y2529004D02*
X-7853683Y2457575D01*
X-8496540Y2314718D02*
X-8996540Y2314718D01*
X-9210826Y1529004D02*
X-8496540Y1529004D01*
X-8496540Y1529004D02*
X-8496540Y3029004D01*
X-8496540Y3029004D02*
X-9210826Y3029004D01*
X-10996540Y2314718D02*
X-11496540Y2314718D01*
X-11710826Y1529004D02*
X-10996540Y1529004D01*
X-10996540Y1529004D02*
X-10996540Y3029004D01*
X-10996540Y3029004D02*
X-11710826Y3029004D01*
X-12353683Y2529004D02*
X-12353683Y1529004D01*
X-12353683Y2386147D02*
X-12425112Y2457575D01*
X-12425112Y2457575D02*
X-12567969Y2529004D01*
X-12567969Y2529004D02*
X-12782255Y2529004D01*
X-12782255Y2529004D02*
X-12925112Y2457575D01*
X-12925112Y2457575D02*
X-12996540Y2314718D01*
X-12996540Y2314718D02*
X-12996540Y1529004D01*
X-14353683Y2529004D02*
X-14353683Y1314718D01*
X-14353683Y1314718D02*
X-14282255Y1171861D01*
X-14282255Y1171861D02*
X-14210826Y1100432D01*
X-14210826Y1100432D02*
X-14067969Y1029004D01*
X-14067969Y1029004D02*
X-13853683Y1029004D01*
X-13853683Y1029004D02*
X-13710826Y1100432D01*
X-14353683Y1600432D02*
X-14210826Y1529004D01*
X-14210826Y1529004D02*
X-13925112Y1529004D01*
X-13925112Y1529004D02*
X-13782255Y1600432D01*
X-13782255Y1600432D02*
X-13710826Y1671861D01*
X-13710826Y1671861D02*
X-13639398Y1814718D01*
X-13639398Y1814718D02*
X-13639398Y2243290D01*
X-13639398Y2243290D02*
X-13710826Y2386147D01*
X-13710826Y2386147D02*
X-13782255Y2457575D01*
X-13782255Y2457575D02*
X-13925112Y2529004D01*
X-13925112Y2529004D02*
X-14210826Y2529004D01*
X-14210826Y2529004D02*
X-14353683Y2457575D01*
X-15067969Y1529004D02*
X-15067969Y2529004D01*
X-15067969Y3029004D02*
X-14996541Y2957575D01*
X-14996541Y2957575D02*
X-15067969Y2886147D01*
X-15067969Y2886147D02*
X-15139398Y2957575D01*
X-15139398Y2957575D02*
X-15067969Y3029004D01*
X-15067969Y3029004D02*
X-15067969Y2886147D01*
X-15782255Y2529004D02*
X-15782255Y1529004D01*
X-15782255Y2386147D02*
X-15853684Y2457575D01*
X-15853684Y2457575D02*
X-15996541Y2529004D01*
X-15996541Y2529004D02*
X-16210827Y2529004D01*
X-16210827Y2529004D02*
X-16353684Y2457575D01*
X-16353684Y2457575D02*
X-16425112Y2314718D01*
X-16425112Y2314718D02*
X-16425112Y1529004D01*
X-17710827Y1600432D02*
X-17567970Y1529004D01*
X-17567970Y1529004D02*
X-17282255Y1529004D01*
X-17282255Y1529004D02*
X-17139398Y1600432D01*
X-17139398Y1600432D02*
X-17067970Y1743290D01*
X-17067970Y1743290D02*
X-17067970Y2314718D01*
X-17067970Y2314718D02*
X-17139398Y2457575D01*
X-17139398Y2457575D02*
X-17282255Y2529004D01*
X-17282255Y2529004D02*
X-17567970Y2529004D01*
X-17567970Y2529004D02*
X-17710827Y2457575D01*
X-17710827Y2457575D02*
X-17782255Y2314718D01*
X-17782255Y2314718D02*
X-17782255Y2171861D01*
X-17782255Y2171861D02*
X-17067970Y2029004D01*
X-18996541Y1600432D02*
X-18853684Y1529004D01*
X-18853684Y1529004D02*
X-18567969Y1529004D01*
X-18567969Y1529004D02*
X-18425112Y1600432D01*
X-18425112Y1600432D02*
X-18353684Y1743290D01*
X-18353684Y1743290D02*
X-18353684Y2314718D01*
X-18353684Y2314718D02*
X-18425112Y2457575D01*
X-18425112Y2457575D02*
X-18567969Y2529004D01*
X-18567969Y2529004D02*
X-18853684Y2529004D01*
X-18853684Y2529004D02*
X-18996541Y2457575D01*
X-18996541Y2457575D02*
X-19067969Y2314718D01*
X-19067969Y2314718D02*
X-19067969Y2171861D01*
X-19067969Y2171861D02*
X-18353684Y2029004D01*
X-19710826Y1529004D02*
X-19710826Y2529004D01*
X-19710826Y2243290D02*
X-19782255Y2386147D01*
X-19782255Y2386147D02*
X-19853683Y2457575D01*
X-19853683Y2457575D02*
X-19996541Y2529004D01*
X-19996541Y2529004D02*
X-20139398Y2529004D01*
X-20639397Y1529004D02*
X-20639397Y2529004D01*
X-20639397Y3029004D02*
X-20567969Y2957575D01*
X-20567969Y2957575D02*
X-20639397Y2886147D01*
X-20639397Y2886147D02*
X-20710826Y2957575D01*
X-20710826Y2957575D02*
X-20639397Y3029004D01*
X-20639397Y3029004D02*
X-20639397Y2886147D01*
X-21353683Y2529004D02*
X-21353683Y1529004D01*
X-21353683Y2386147D02*
X-21425112Y2457575D01*
X-21425112Y2457575D02*
X-21567969Y2529004D01*
X-21567969Y2529004D02*
X-21782255Y2529004D01*
X-21782255Y2529004D02*
X-21925112Y2457575D01*
X-21925112Y2457575D02*
X-21996540Y2314718D01*
X-21996540Y2314718D02*
X-21996540Y1529004D01*
X-23353683Y2529004D02*
X-23353683Y1314718D01*
X-23353683Y1314718D02*
X-23282255Y1171861D01*
X-23282255Y1171861D02*
X-23210826Y1100432D01*
X-23210826Y1100432D02*
X-23067969Y1029004D01*
X-23067969Y1029004D02*
X-22853683Y1029004D01*
X-22853683Y1029004D02*
X-22710826Y1100432D01*
X-23353683Y1600432D02*
X-23210826Y1529004D01*
X-23210826Y1529004D02*
X-22925112Y1529004D01*
X-22925112Y1529004D02*
X-22782255Y1600432D01*
X-22782255Y1600432D02*
X-22710826Y1671861D01*
X-22710826Y1671861D02*
X-22639398Y1814718D01*
X-22639398Y1814718D02*
X-22639398Y2243290D01*
X-22639398Y2243290D02*
X-22710826Y2386147D01*
X-22710826Y2386147D02*
X-22782255Y2457575D01*
X-22782255Y2457575D02*
X-22925112Y2529004D01*
X-22925112Y2529004D02*
X-23210826Y2529004D01*
X-23210826Y2529004D02*
X-23353683Y2457575D01*
X-5782254Y-885912D02*
X-5282254Y-171626D01*
X-4925111Y-885912D02*
X-4925111Y614088D01*
X-4925111Y614088D02*
X-5496540Y614088D01*
X-5496540Y614088D02*
X-5639397Y542659D01*
X-5639397Y542659D02*
X-5710826Y471231D01*
X-5710826Y471231D02*
X-5782254Y328374D01*
X-5782254Y328374D02*
X-5782254Y114088D01*
X-5782254Y114088D02*
X-5710826Y-28769D01*
X-5710826Y-28769D02*
X-5639397Y-100198D01*
X-5639397Y-100198D02*
X-5496540Y-171626D01*
X-5496540Y-171626D02*
X-4925111Y-171626D01*
X-6639397Y-885912D02*
X-6496540Y-814484D01*
X-6496540Y-814484D02*
X-6425111Y-743055D01*
X-6425111Y-743055D02*
X-6353683Y-600198D01*
X-6353683Y-600198D02*
X-6353683Y-171626D01*
X-6353683Y-171626D02*
X-6425111Y-28769D01*
X-6425111Y-28769D02*
X-6496540Y42659D01*
X-6496540Y42659D02*
X-6639397Y114088D01*
X-6639397Y114088D02*
X-6853683Y114088D01*
X-6853683Y114088D02*
X-6996540Y42659D01*
X-6996540Y42659D02*
X-7067968Y-28769D01*
X-7067968Y-28769D02*
X-7139397Y-171626D01*
X-7139397Y-171626D02*
X-7139397Y-600198D01*
X-7139397Y-600198D02*
X-7067968Y-743055D01*
X-7067968Y-743055D02*
X-6996540Y-814484D01*
X-6996540Y-814484D02*
X-6853683Y-885912D01*
X-6853683Y-885912D02*
X-6639397Y-885912D01*
X-7782254Y-885912D02*
X-7782254Y614088D01*
X-7782254Y42659D02*
X-7925111Y114088D01*
X-7925111Y114088D02*
X-8210826Y114088D01*
X-8210826Y114088D02*
X-8353683Y42659D01*
X-8353683Y42659D02*
X-8425111Y-28769D01*
X-8425111Y-28769D02*
X-8496540Y-171626D01*
X-8496540Y-171626D02*
X-8496540Y-600198D01*
X-8496540Y-600198D02*
X-8425111Y-743055D01*
X-8425111Y-743055D02*
X-8353683Y-814484D01*
X-8353683Y-814484D02*
X-8210826Y-885912D01*
X-8210826Y-885912D02*
X-7925111Y-885912D01*
X-7925111Y-885912D02*
X-7782254Y-814484D01*
X-9353683Y-885912D02*
X-9210826Y-814484D01*
X-9210826Y-814484D02*
X-9139397Y-743055D01*
X-9139397Y-743055D02*
X-9067969Y-600198D01*
X-9067969Y-600198D02*
X-9067969Y-171626D01*
X-9067969Y-171626D02*
X-9139397Y-28769D01*
X-9139397Y-28769D02*
X-9210826Y42659D01*
X-9210826Y42659D02*
X-9353683Y114088D01*
X-9353683Y114088D02*
X-9567969Y114088D01*
X-9567969Y114088D02*
X-9710826Y42659D01*
X-9710826Y42659D02*
X-9782254Y-28769D01*
X-9782254Y-28769D02*
X-9853683Y-171626D01*
X-9853683Y-171626D02*
X-9853683Y-600198D01*
X-9853683Y-600198D02*
X-9782254Y-743055D01*
X-9782254Y-743055D02*
X-9710826Y-814484D01*
X-9710826Y-814484D02*
X-9567969Y-885912D01*
X-9567969Y-885912D02*
X-9353683Y-885912D01*
X-10496540Y-885912D02*
X-10496540Y614088D01*
X-10496540Y42659D02*
X-10639397Y114088D01*
X-10639397Y114088D02*
X-10925112Y114088D01*
X-10925112Y114088D02*
X-11067969Y42659D01*
X-11067969Y42659D02*
X-11139397Y-28769D01*
X-11139397Y-28769D02*
X-11210826Y-171626D01*
X-11210826Y-171626D02*
X-11210826Y-600198D01*
X-11210826Y-600198D02*
X-11139397Y-743055D01*
X-11139397Y-743055D02*
X-11067969Y-814484D01*
X-11067969Y-814484D02*
X-10925112Y-885912D01*
X-10925112Y-885912D02*
X-10639397Y-885912D01*
X-10639397Y-885912D02*
X-10496540Y-814484D01*
X-12496540Y114088D02*
X-12496540Y-885912D01*
X-11853683Y114088D02*
X-11853683Y-671626D01*
X-11853683Y-671626D02*
X-11925112Y-814484D01*
X-11925112Y-814484D02*
X-12067969Y-885912D01*
X-12067969Y-885912D02*
X-12282255Y-885912D01*
X-12282255Y-885912D02*
X-12425112Y-814484D01*
X-12425112Y-814484D02*
X-12496540Y-743055D01*
X-13425112Y-885912D02*
X-13282255Y-814484D01*
X-13282255Y-814484D02*
X-13210826Y-743055D01*
X-13210826Y-743055D02*
X-13139398Y-600198D01*
X-13139398Y-600198D02*
X-13139398Y-171626D01*
X-13139398Y-171626D02*
X-13210826Y-28769D01*
X-13210826Y-28769D02*
X-13282255Y42659D01*
X-13282255Y42659D02*
X-13425112Y114088D01*
X-13425112Y114088D02*
X-13639398Y114088D01*
X-13639398Y114088D02*
X-13782255Y42659D01*
X-13782255Y42659D02*
X-13853683Y-28769D01*
X-13853683Y-28769D02*
X-13925112Y-171626D01*
X-13925112Y-171626D02*
X-13925112Y-600198D01*
X-13925112Y-600198D02*
X-13853683Y-743055D01*
X-13853683Y-743055D02*
X-13782255Y-814484D01*
X-13782255Y-814484D02*
X-13639398Y-885912D01*
X-13639398Y-885912D02*
X-13425112Y-885912D01*
X-14425112Y114088D02*
X-14782255Y-885912D01*
X-15139398Y114088D02*
X-14782255Y-885912D01*
X-14782255Y-885912D02*
X-14639398Y-1243055D01*
X-14639398Y-1243055D02*
X-14567969Y-1314484D01*
X-14567969Y-1314484D02*
X-14425112Y-1385912D01*
X-16782255Y471231D02*
X-16853683Y542659D01*
X-16853683Y542659D02*
X-16996540Y614088D01*
X-16996540Y614088D02*
X-17353683Y614088D01*
X-17353683Y614088D02*
X-17496540Y542659D01*
X-17496540Y542659D02*
X-17567969Y471231D01*
X-17567969Y471231D02*
X-17639398Y328374D01*
X-17639398Y328374D02*
X-17639398Y185516D01*
X-17639398Y185516D02*
X-17567969Y-28769D01*
X-17567969Y-28769D02*
X-16710826Y-885912D01*
X-16710826Y-885912D02*
X-17639398Y-885912D01*
X-18282254Y-743055D02*
X-18353683Y-814484D01*
X-18353683Y-814484D02*
X-18282254Y-885912D01*
X-18282254Y-885912D02*
X-18210826Y-814484D01*
X-18210826Y-814484D02*
X-18282254Y-743055D01*
X-18282254Y-743055D02*
X-18282254Y-885912D01*
X-19782255Y-885912D02*
X-18925112Y-885912D01*
X-19353683Y-885912D02*
X-19353683Y614088D01*
X-19353683Y614088D02*
X-19210826Y399802D01*
X-19210826Y399802D02*
X-19067969Y256945D01*
X-19067969Y256945D02*
X-18925112Y185516D01*
X-5782254Y-3157971D02*
X-5710826Y-3229400D01*
X-5710826Y-3229400D02*
X-5496540Y-3300828D01*
X-5496540Y-3300828D02*
X-5353683Y-3300828D01*
X-5353683Y-3300828D02*
X-5139397Y-3229400D01*
X-5139397Y-3229400D02*
X-4996540Y-3086542D01*
X-4996540Y-3086542D02*
X-4925111Y-2943685D01*
X-4925111Y-2943685D02*
X-4853683Y-2657971D01*
X-4853683Y-2657971D02*
X-4853683Y-2443685D01*
X-4853683Y-2443685D02*
X-4925111Y-2157971D01*
X-4925111Y-2157971D02*
X-4996540Y-2015114D01*
X-4996540Y-2015114D02*
X-5139397Y-1872257D01*
X-5139397Y-1872257D02*
X-5353683Y-1800828D01*
X-5353683Y-1800828D02*
X-5496540Y-1800828D01*
X-5496540Y-1800828D02*
X-5710826Y-1872257D01*
X-5710826Y-1872257D02*
X-5782254Y-1943685D01*
X-6425111Y-3300828D02*
X-6425111Y-1800828D01*
X-6425111Y-1800828D02*
X-6996540Y-1800828D01*
X-6996540Y-1800828D02*
X-7139397Y-1872257D01*
X-7139397Y-1872257D02*
X-7210826Y-1943685D01*
X-7210826Y-1943685D02*
X-7282254Y-2086542D01*
X-7282254Y-2086542D02*
X-7282254Y-2300828D01*
X-7282254Y-2300828D02*
X-7210826Y-2443685D01*
X-7210826Y-2443685D02*
X-7139397Y-2515114D01*
X-7139397Y-2515114D02*
X-6996540Y-2586542D01*
X-6996540Y-2586542D02*
X-6425111Y-2586542D01*
X-7925111Y-1800828D02*
X-7925111Y-3015114D01*
X-7925111Y-3015114D02*
X-7996540Y-3157971D01*
X-7996540Y-3157971D02*
X-8067968Y-3229400D01*
X-8067968Y-3229400D02*
X-8210826Y-3300828D01*
X-8210826Y-3300828D02*
X-8496540Y-3300828D01*
X-8496540Y-3300828D02*
X-8639397Y-3229400D01*
X-8639397Y-3229400D02*
X-8710826Y-3157971D01*
X-8710826Y-3157971D02*
X-8782254Y-3015114D01*
X-8782254Y-3015114D02*
X-8782254Y-1800828D01*
D12*
G36*
X16724005Y-2486106D02*
G01*
X16724005Y-2689316D01*
X16366739Y-2689316D01*
X16366739Y-2615066D01*
X16361109Y-2568960D01*
X16347260Y-2542831D01*
X16325062Y-2526774D01*
X16296397Y-2521277D01*
X16268268Y-2526749D01*
X16246205Y-2542831D01*
X16232357Y-2568960D01*
X16226727Y-2615066D01*
X16226727Y-2830000D01*
X16885938Y-2830000D01*
X16931889Y-2824390D01*
X16957990Y-2810582D01*
X16973996Y-2788380D01*
X16979483Y-2759658D01*
X16973914Y-2730977D01*
X16957623Y-2708794D01*
X16931294Y-2694905D01*
X16885938Y-2689316D01*
X16864078Y-2689316D01*
X16864078Y-2142212D01*
X16885938Y-2142212D01*
X16931889Y-2136603D01*
X16957990Y-2122794D01*
X16973996Y-2100592D01*
X16979483Y-2071870D01*
X16973994Y-2043158D01*
X16957990Y-2021006D01*
X16931882Y-2007153D01*
X16885938Y-2001528D01*
X16257440Y-2002199D01*
X16257440Y-2216461D01*
X16262989Y-2262610D01*
X16276613Y-2288757D01*
X16298505Y-2304754D01*
X16327110Y-2310251D01*
X16355833Y-2304763D01*
X16378035Y-2288757D01*
X16391886Y-2262577D01*
X16397513Y-2216461D01*
X16397513Y-2142212D01*
X16724005Y-2142212D01*
X16724005Y-2345422D01*
X16601029Y-2345422D01*
X16597679Y-2299515D01*
X16590771Y-2280942D01*
X16574792Y-2264722D01*
X16555160Y-2255034D01*
X16530687Y-2251632D01*
X16502600Y-2257100D01*
X16480495Y-2273187D01*
X16466647Y-2299316D01*
X16461017Y-2345422D01*
X16461017Y-2486106D01*
X16464555Y-2532008D01*
X16471946Y-2551013D01*
X16488277Y-2567122D01*
X16507529Y-2576613D01*
X16530687Y-2579895D01*
X16555160Y-2576494D01*
X16574792Y-2566806D01*
X16590771Y-2550586D01*
X16597679Y-2532012D01*
X16601029Y-2486106D01*
X16724005Y-2486106D01*
G37*
G36*
X15945603Y-2794829D02*
G01*
X15975340Y-2823710D01*
X16003000Y-2830000D01*
X16032243Y-2824471D01*
X16054535Y-2808445D01*
X16068407Y-2782351D01*
X16074014Y-2736882D01*
X16074014Y-2642421D01*
X16068388Y-2596359D01*
X16054535Y-2570186D01*
X16032235Y-2554163D01*
X16002939Y-2548632D01*
X15979971Y-2552034D01*
X15961662Y-2561760D01*
X15947596Y-2578072D01*
X15936078Y-2605540D01*
X15926046Y-2633377D01*
X15917576Y-2647245D01*
X15893021Y-2666961D01*
X15847234Y-2690720D01*
X15794866Y-2707135D01*
X15736531Y-2712763D01*
X15675536Y-2707473D01*
X15624978Y-2692613D01*
X15582841Y-2668982D01*
X15560921Y-2649020D01*
X15548673Y-2627445D01*
X15544617Y-2603342D01*
X15549083Y-2578542D01*
X15563058Y-2554494D01*
X15585705Y-2534543D01*
X15623142Y-2516514D01*
X15658950Y-2506347D01*
X15745446Y-2488487D01*
X15852571Y-2463145D01*
X15918920Y-2437196D01*
X15955563Y-2414227D01*
X15986359Y-2386064D01*
X16011854Y-2352322D01*
X16030892Y-2314624D01*
X16042190Y-2275356D01*
X16045987Y-2233864D01*
X16040855Y-2185656D01*
X16025616Y-2140835D01*
X15999784Y-2098388D01*
X15961967Y-2057643D01*
X15918002Y-2025255D01*
X15867755Y-2001760D01*
X15810052Y-1987122D01*
X15743370Y-1981988D01*
X15690567Y-1984982D01*
X15643292Y-1993590D01*
X15598987Y-2008328D01*
X15559638Y-2028883D01*
X15531079Y-2007755D01*
X15504989Y-2001528D01*
X15476907Y-2007008D01*
X15454797Y-2023143D01*
X15440926Y-2049303D01*
X15435319Y-2094890D01*
X15435319Y-2200586D01*
X15440946Y-2246765D01*
X15454797Y-2273004D01*
X15476907Y-2289139D01*
X15504989Y-2294619D01*
X15529386Y-2290678D01*
X15550113Y-2279049D01*
X15562295Y-2263708D01*
X15572644Y-2233070D01*
X15581982Y-2201396D01*
X15591756Y-2183611D01*
X15615398Y-2160746D01*
X15651168Y-2140319D01*
X15692837Y-2127285D01*
X15742698Y-2122672D01*
X15792129Y-2127033D01*
X15831396Y-2139070D01*
X15862622Y-2157904D01*
X15888563Y-2183565D01*
X15902338Y-2207713D01*
X15906646Y-2231360D01*
X15902300Y-2256460D01*
X15888572Y-2281674D01*
X15866976Y-2302765D01*
X15835633Y-2319593D01*
X15802066Y-2329492D01*
X15704841Y-2350368D01*
X15603847Y-2374257D01*
X15539488Y-2396896D01*
X15503374Y-2416856D01*
X15471533Y-2443143D01*
X15443562Y-2476336D01*
X15422574Y-2513980D01*
X15409733Y-2556474D01*
X15405277Y-2604991D01*
X15410100Y-2655693D01*
X15423937Y-2699473D01*
X15446494Y-2737707D01*
X15478367Y-2771320D01*
X15528874Y-2806503D01*
X15586059Y-2832026D01*
X15651138Y-2847898D01*
X15725662Y-2853447D01*
X15783102Y-2849766D01*
X15838747Y-2838792D01*
X15892636Y-2820598D01*
X15945603Y-2794829D01*
G37*
G36*
X14682135Y-2040607D02*
G01*
X14668084Y-2023032D01*
X14653803Y-2011297D01*
X14637768Y-2003955D01*
X14620647Y-2001528D01*
X14592525Y-2006901D01*
X14570455Y-2022655D01*
X14556614Y-2048447D01*
X14550976Y-2094279D01*
X14550976Y-2212920D01*
X14556598Y-2258756D01*
X14570455Y-2284849D01*
X14592555Y-2300889D01*
X14620647Y-2306343D01*
X14646510Y-2302283D01*
X14665771Y-2290894D01*
X14679561Y-2271052D01*
X14691050Y-2233009D01*
X14698593Y-2207080D01*
X14710162Y-2189289D01*
X14742459Y-2162844D01*
X14788442Y-2140868D01*
X14839058Y-2127161D01*
X14889192Y-2122672D01*
X14949881Y-2129608D01*
X15004658Y-2150027D01*
X15037243Y-2171190D01*
X15068146Y-2200402D01*
X15097531Y-2238932D01*
X15119550Y-2281595D01*
X15133110Y-2329938D01*
X15137831Y-2385233D01*
X15137831Y-2476153D01*
X15133117Y-2525295D01*
X15119404Y-2569156D01*
X15096737Y-2608842D01*
X15064375Y-2645108D01*
X15025965Y-2673606D01*
X14980202Y-2694648D01*
X14925639Y-2708003D01*
X14860432Y-2712763D01*
X14786045Y-2707005D01*
X14728602Y-2691392D01*
X14697959Y-2674261D01*
X14661680Y-2642421D01*
X14627547Y-2613845D01*
X14599459Y-2607250D01*
X14573416Y-2612479D01*
X14550305Y-2628560D01*
X14534360Y-2651892D01*
X14529117Y-2678752D01*
X14535523Y-2706971D01*
X14557815Y-2740668D01*
X14604707Y-2783118D01*
X14665038Y-2816322D01*
X14724844Y-2836679D01*
X14789491Y-2849163D01*
X14859760Y-2853447D01*
X14941376Y-2847523D01*
X15015674Y-2830285D01*
X15083853Y-2802095D01*
X15133842Y-2770273D01*
X15179511Y-2727531D01*
X15221179Y-2672402D01*
X15252750Y-2611277D01*
X15271519Y-2547172D01*
X15277843Y-2478961D01*
X15277843Y-2383829D01*
X15272133Y-2312081D01*
X15255219Y-2244285D01*
X15226980Y-2179520D01*
X15188289Y-2120658D01*
X15141467Y-2072267D01*
X15085868Y-2033340D01*
X15024112Y-2004659D01*
X14960642Y-1987673D01*
X14894565Y-1981988D01*
X14835053Y-1985697D01*
X14780870Y-1996460D01*
X14729683Y-2014747D01*
X14682135Y-2040607D01*
G37*
G36*
X13674877Y-3252051D02*
G01*
X14444059Y-3252051D01*
X14490030Y-3246489D01*
X14516111Y-3232817D01*
X14532149Y-3210844D01*
X14537665Y-3182076D01*
X14532163Y-3153231D01*
X14516111Y-3130907D01*
X14489997Y-3117008D01*
X14444059Y-3111367D01*
X13674877Y-3111367D01*
X13629586Y-3116986D01*
X13603558Y-3130907D01*
X13587506Y-3153231D01*
X13582004Y-3182076D01*
X13587395Y-3210308D01*
X13603192Y-3232451D01*
X13629049Y-3246385D01*
X13674877Y-3252051D01*
G37*
G36*
X13577033Y-2007150D02*
G01*
X13603192Y-2021006D01*
X13619196Y-2043158D01*
X13624685Y-2071870D01*
X13619198Y-2100592D01*
X13603192Y-2122794D01*
X13577040Y-2136605D01*
X13531079Y-2142212D01*
X13509220Y-2142212D01*
X13509220Y-2689316D01*
X13531079Y-2689316D01*
X13576489Y-2694907D01*
X13602826Y-2708794D01*
X13619116Y-2730977D01*
X13624685Y-2759658D01*
X13619198Y-2788380D01*
X13603192Y-2810582D01*
X13577040Y-2824393D01*
X13531079Y-2830000D01*
X13119836Y-2830000D01*
X13047511Y-2825062D01*
X12993501Y-2811926D01*
X12945946Y-2790635D01*
X12908138Y-2765092D01*
X12884652Y-2741570D01*
X12864419Y-2709771D01*
X12846511Y-2662295D01*
X12840483Y-2610730D01*
X12840562Y-2609815D01*
X12980495Y-2609815D01*
X12987291Y-2641362D01*
X13007117Y-2664159D01*
X13031963Y-2676769D01*
X13070366Y-2685770D01*
X13127346Y-2689316D01*
X13369207Y-2689316D01*
X13369207Y-2486106D01*
X13184071Y-2486106D01*
X13119580Y-2491320D01*
X13070388Y-2505415D01*
X13033129Y-2526894D01*
X13001807Y-2556740D01*
X12985502Y-2583952D01*
X12980495Y-2609815D01*
X12840562Y-2609815D01*
X12844274Y-2567038D01*
X12855347Y-2527327D01*
X12873639Y-2490807D01*
X12898401Y-2458082D01*
X12931112Y-2427252D01*
X12972984Y-2398239D01*
X12940980Y-2362004D01*
X12919007Y-2323806D01*
X12905721Y-2282345D01*
X12901238Y-2237772D01*
X12901595Y-2234291D01*
X13041311Y-2234291D01*
X13045321Y-2260232D01*
X13057262Y-2283094D01*
X13078192Y-2303839D01*
X13116568Y-2326429D01*
X13161786Y-2340468D01*
X13215518Y-2345422D01*
X13369207Y-2345422D01*
X13369207Y-2142212D01*
X13186819Y-2142212D01*
X13136742Y-2145927D01*
X13101052Y-2155643D01*
X13076177Y-2169872D01*
X13056176Y-2190140D01*
X13044989Y-2211346D01*
X13041311Y-2234291D01*
X12901595Y-2234291D01*
X12905987Y-2191425D01*
X12919998Y-2148861D01*
X12943553Y-2109103D01*
X12977747Y-2071503D01*
X13017818Y-2041638D01*
X13064049Y-2019904D01*
X13117600Y-2006312D01*
X13179980Y-2001528D01*
X13531079Y-2001528D01*
X13577033Y-2007150D01*
G37*
G36*
X12737815Y-2007150D02*
G01*
X12763974Y-2021006D01*
X12779978Y-2043158D01*
X12785467Y-2071870D01*
X12779980Y-2100592D01*
X12763974Y-2122794D01*
X12737822Y-2136605D01*
X12691861Y-2142212D01*
X12670001Y-2142212D01*
X12670001Y-2689316D01*
X12691861Y-2689316D01*
X12737271Y-2694907D01*
X12763607Y-2708794D01*
X12779898Y-2730977D01*
X12785467Y-2759658D01*
X12779980Y-2788380D01*
X12763974Y-2810582D01*
X12737822Y-2824393D01*
X12691861Y-2830000D01*
X12280617Y-2830000D01*
X12208292Y-2825062D01*
X12154282Y-2811926D01*
X12106728Y-2790635D01*
X12068920Y-2765092D01*
X12045433Y-2741570D01*
X12025200Y-2709771D01*
X12007292Y-2662295D01*
X12001264Y-2610730D01*
X12001343Y-2609815D01*
X12141277Y-2609815D01*
X12148072Y-2641362D01*
X12167899Y-2664159D01*
X12192744Y-2676769D01*
X12231147Y-2685770D01*
X12288128Y-2689316D01*
X12529989Y-2689316D01*
X12529989Y-2486106D01*
X12344853Y-2486106D01*
X12280362Y-2491320D01*
X12231169Y-2505415D01*
X12193911Y-2526894D01*
X12162588Y-2556740D01*
X12146284Y-2583952D01*
X12141277Y-2609815D01*
X12001343Y-2609815D01*
X12005055Y-2567038D01*
X12016129Y-2527327D01*
X12034420Y-2490807D01*
X12059183Y-2458082D01*
X12091894Y-2427252D01*
X12133766Y-2398239D01*
X12101762Y-2362004D01*
X12079788Y-2323806D01*
X12066503Y-2282345D01*
X12062020Y-2237772D01*
X12062377Y-2234291D01*
X12202093Y-2234291D01*
X12206102Y-2260232D01*
X12218043Y-2283094D01*
X12238974Y-2303839D01*
X12277350Y-2326429D01*
X12322567Y-2340468D01*
X12376299Y-2345422D01*
X12529989Y-2345422D01*
X12529989Y-2142212D01*
X12347601Y-2142212D01*
X12297524Y-2145927D01*
X12261834Y-2155643D01*
X12236959Y-2169872D01*
X12216957Y-2190140D01*
X12205771Y-2211346D01*
X12202093Y-2234291D01*
X12062377Y-2234291D01*
X12066769Y-2191425D01*
X12080780Y-2148861D01*
X12104335Y-2109103D01*
X12138529Y-2071503D01*
X12178600Y-2041638D01*
X12224830Y-2019904D01*
X12278382Y-2006312D01*
X12340762Y-2001528D01*
X12691861Y-2001528D01*
X12737815Y-2007150D01*
G37*
G36*
X10706045Y-2625629D02*
G01*
X10503140Y-2142212D01*
X10535258Y-2142212D01*
X10581218Y-2136605D01*
X10607370Y-2122794D01*
X10623377Y-2100592D01*
X10628864Y-2071870D01*
X10623374Y-2043158D01*
X10607370Y-2021006D01*
X10581212Y-2007150D01*
X10535258Y-2001528D01*
X10347374Y-2001528D01*
X10301484Y-2007151D01*
X10275383Y-2021006D01*
X10259332Y-2043163D01*
X10253829Y-2071870D01*
X10261411Y-2100842D01*
X10286618Y-2129267D01*
X10306874Y-2138176D01*
X10350793Y-2142212D01*
X10638389Y-2830000D01*
X10772967Y-2830000D01*
X11059891Y-2142212D01*
X11104381Y-2138078D01*
X11124799Y-2128961D01*
X11143848Y-2110152D01*
X11154245Y-2091361D01*
X11157588Y-2071870D01*
X11152086Y-2043163D01*
X11136034Y-2021006D01*
X11109927Y-2007153D01*
X11063982Y-2001528D01*
X10874755Y-2001528D01*
X10829404Y-2007133D01*
X10803375Y-2021006D01*
X10787371Y-2043158D01*
X10781882Y-2071870D01*
X10787302Y-2100618D01*
X10803070Y-2122794D01*
X10828863Y-2136588D01*
X10874755Y-2142212D01*
X10907545Y-2142212D01*
X10706045Y-2625629D01*
G37*
G36*
X10071074Y-2794829D02*
G01*
X10100811Y-2823710D01*
X10128471Y-2830000D01*
X10157715Y-2824471D01*
X10180006Y-2808445D01*
X10193878Y-2782351D01*
X10199485Y-2736882D01*
X10199485Y-2642421D01*
X10193859Y-2596359D01*
X10180006Y-2570186D01*
X10157706Y-2554163D01*
X10128410Y-2548632D01*
X10105442Y-2552034D01*
X10087133Y-2561760D01*
X10073067Y-2578072D01*
X10061549Y-2605540D01*
X10051517Y-2633377D01*
X10043047Y-2647245D01*
X10018492Y-2666961D01*
X9972705Y-2690720D01*
X9920337Y-2707135D01*
X9862002Y-2712763D01*
X9801007Y-2707473D01*
X9750449Y-2692613D01*
X9708312Y-2668982D01*
X9686392Y-2649020D01*
X9674144Y-2627445D01*
X9670088Y-2603342D01*
X9674554Y-2578542D01*
X9688529Y-2554494D01*
X9711176Y-2534543D01*
X9748613Y-2516514D01*
X9784421Y-2506347D01*
X9870917Y-2488487D01*
X9978042Y-2463145D01*
X10044391Y-2437196D01*
X10081034Y-2414227D01*
X10111830Y-2386064D01*
X10137325Y-2352322D01*
X10156363Y-2314624D01*
X10167661Y-2275356D01*
X10171458Y-2233864D01*
X10166326Y-2185656D01*
X10151087Y-2140835D01*
X10125255Y-2098388D01*
X10087438Y-2057643D01*
X10043473Y-2025255D01*
X9993226Y-2001760D01*
X9935523Y-1987122D01*
X9868841Y-1981988D01*
X9816038Y-1984982D01*
X9768763Y-1993590D01*
X9724458Y-2008328D01*
X9685109Y-2028883D01*
X9656550Y-2007755D01*
X9630460Y-2001528D01*
X9602378Y-2007008D01*
X9580268Y-2023143D01*
X9566397Y-2049303D01*
X9560790Y-2094890D01*
X9560790Y-2200586D01*
X9566417Y-2246765D01*
X9580268Y-2273004D01*
X9602378Y-2289139D01*
X9630460Y-2294619D01*
X9654857Y-2290678D01*
X9675584Y-2279049D01*
X9687766Y-2263708D01*
X9698115Y-2233070D01*
X9707453Y-2201396D01*
X9717227Y-2183611D01*
X9740869Y-2160746D01*
X9776639Y-2140319D01*
X9818308Y-2127285D01*
X9868169Y-2122672D01*
X9917600Y-2127033D01*
X9956867Y-2139070D01*
X9988093Y-2157904D01*
X10014034Y-2183565D01*
X10027809Y-2207713D01*
X10032117Y-2231360D01*
X10027771Y-2256460D01*
X10014043Y-2281674D01*
X9992447Y-2302765D01*
X9961104Y-2319593D01*
X9927537Y-2329492D01*
X9830312Y-2350368D01*
X9729318Y-2374257D01*
X9664959Y-2396896D01*
X9628845Y-2416856D01*
X9597004Y-2443143D01*
X9569033Y-2476336D01*
X9548045Y-2513980D01*
X9535204Y-2556474D01*
X9530748Y-2604991D01*
X9535572Y-2655693D01*
X9549408Y-2699473D01*
X9571965Y-2737707D01*
X9603838Y-2771320D01*
X9654345Y-2806503D01*
X9711530Y-2832026D01*
X9776609Y-2847898D01*
X9851133Y-2853447D01*
X9908573Y-2849766D01*
X9964218Y-2838792D01*
X10018107Y-2820598D01*
X10071074Y-2794829D01*
G37*
G36*
X9298988Y-2007153D02*
G01*
X9325095Y-2021006D01*
X9341100Y-2043158D01*
X9346589Y-2071870D01*
X9341102Y-2100592D01*
X9325095Y-2122794D01*
X9298995Y-2136603D01*
X9253044Y-2142212D01*
X9161514Y-2142212D01*
X9381454Y-2689316D01*
X9428749Y-2694939D01*
X9455887Y-2708794D01*
X9472751Y-2731038D01*
X9478480Y-2759658D01*
X9472979Y-2788375D01*
X9456926Y-2810582D01*
X9430825Y-2824390D01*
X9384874Y-2830000D01*
X9196318Y-2830000D01*
X9150368Y-2824390D01*
X9124267Y-2810582D01*
X9108213Y-2788375D01*
X9102712Y-2759658D01*
X9108215Y-2730951D01*
X9124267Y-2708794D01*
X9150374Y-2694940D01*
X9196318Y-2689316D01*
X9230512Y-2689316D01*
X9196318Y-2599434D01*
X8856149Y-2599434D01*
X8822688Y-2689316D01*
X8856821Y-2689316D01*
X8902775Y-2694938D01*
X8928934Y-2708794D01*
X8944938Y-2730946D01*
X8950427Y-2759658D01*
X8944940Y-2788380D01*
X8928934Y-2810582D01*
X8902781Y-2824393D01*
X8856821Y-2830000D01*
X8668265Y-2830000D01*
X8622373Y-2824376D01*
X8596580Y-2810582D01*
X8580812Y-2788406D01*
X8575392Y-2759658D01*
X8582711Y-2730538D01*
X8606838Y-2702016D01*
X8627145Y-2693294D01*
X8671685Y-2689316D01*
X8765127Y-2458750D01*
X8914218Y-2458750D01*
X9140326Y-2458750D01*
X9026936Y-2186481D01*
X8914218Y-2458750D01*
X8765127Y-2458750D01*
X8950427Y-2001528D01*
X9253044Y-2001528D01*
X9298988Y-2007153D01*
G37*
G36*
X8406987Y-2272393D02*
G01*
X8406987Y-2689316D01*
X8356428Y-2689316D01*
X8310484Y-2694940D01*
X8284377Y-2708794D01*
X8268325Y-2730951D01*
X8262822Y-2759658D01*
X8268323Y-2788375D01*
X8284377Y-2810582D01*
X8310477Y-2824390D01*
X8356428Y-2830000D01*
X8540160Y-2830000D01*
X8586111Y-2824390D01*
X8612212Y-2810582D01*
X8628265Y-2788375D01*
X8633766Y-2759658D01*
X8628344Y-2730920D01*
X8612578Y-2708794D01*
X8587461Y-2694763D01*
X8546999Y-2689316D01*
X8546999Y-2142212D01*
X8580497Y-2136950D01*
X8602686Y-2122794D01*
X8616607Y-2100816D01*
X8621493Y-2071870D01*
X8616004Y-2043158D01*
X8600000Y-2021006D01*
X8573841Y-2007150D01*
X8527887Y-2001528D01*
X8374197Y-2001528D01*
X8183627Y-2423579D01*
X7996414Y-2001528D01*
X7841381Y-2001528D01*
X7795437Y-2007153D01*
X7769330Y-2021006D01*
X7753278Y-2043163D01*
X7747775Y-2071870D01*
X7752730Y-2100790D01*
X7766887Y-2122794D01*
X7789243Y-2136987D01*
X7822208Y-2142212D01*
X7822208Y-2689316D01*
X7781756Y-2694766D01*
X7756690Y-2708794D01*
X7740924Y-2730920D01*
X7735502Y-2759658D01*
X7740989Y-2788380D01*
X7756995Y-2810582D01*
X7783096Y-2824390D01*
X7829047Y-2830000D01*
X8013511Y-2830000D01*
X8058869Y-2824410D01*
X8084891Y-2810582D01*
X8100897Y-2788380D01*
X8106385Y-2759658D01*
X8100895Y-2730946D01*
X8084891Y-2708794D01*
X8058863Y-2694921D01*
X8013511Y-2689316D01*
X7962281Y-2689316D01*
X7962281Y-2272393D01*
X8122810Y-2633262D01*
X8244382Y-2633262D01*
X8406987Y-2272393D01*
G37*
G36*
X7637597Y-2007150D02*
G01*
X7663756Y-2021006D01*
X7679760Y-2043158D01*
X7685249Y-2071870D01*
X7679762Y-2100592D01*
X7663756Y-2122794D01*
X7637603Y-2136605D01*
X7591643Y-2142212D01*
X7569783Y-2142212D01*
X7569783Y-2689316D01*
X7591643Y-2689316D01*
X7637053Y-2694907D01*
X7663389Y-2708794D01*
X7679679Y-2730977D01*
X7685249Y-2759658D01*
X7679762Y-2788380D01*
X7663756Y-2810582D01*
X7637603Y-2824393D01*
X7591643Y-2830000D01*
X7288354Y-2830000D01*
X7242404Y-2824390D01*
X7216303Y-2810582D01*
X7200249Y-2788375D01*
X7194748Y-2759658D01*
X7200251Y-2730951D01*
X7216303Y-2708794D01*
X7242410Y-2694940D01*
X7288354Y-2689316D01*
X7429771Y-2689316D01*
X7429771Y-2544724D01*
X7297269Y-2544724D01*
X7216993Y-2539117D01*
X7160982Y-2524635D01*
X7110778Y-2500102D01*
X7059865Y-2464612D01*
X7015954Y-2422735D01*
X6989157Y-2383768D01*
X6968137Y-2327425D01*
X6961130Y-2267691D01*
X6961458Y-2264333D01*
X7101203Y-2264333D01*
X7106925Y-2300221D01*
X7124178Y-2332684D01*
X7154815Y-2363007D01*
X7192639Y-2384909D01*
X7240181Y-2398949D01*
X7299956Y-2404040D01*
X7429771Y-2404040D01*
X7429771Y-2142212D01*
X7268571Y-2142212D01*
X7215994Y-2146837D01*
X7175574Y-2159426D01*
X7144617Y-2178848D01*
X7119854Y-2205544D01*
X7105843Y-2233700D01*
X7101203Y-2264333D01*
X6961458Y-2264333D01*
X6966390Y-2213837D01*
X6981781Y-2165145D01*
X7007390Y-2120465D01*
X7044173Y-2079014D01*
X7087680Y-2046119D01*
X7138663Y-2022045D01*
X7198563Y-2006892D01*
X7269242Y-2001528D01*
X7591643Y-2001528D01*
X7637597Y-2007150D01*
G37*
G36*
X-16567436Y14492850D02*
G01*
X-16541278Y14478994D01*
X-16525273Y14456842D01*
X-16519784Y14428130D01*
X-16525204Y14399382D01*
X-16540972Y14377206D01*
X-16566083Y14363221D01*
X-16606551Y14357788D01*
X-16606551Y13810684D01*
X-16566620Y13805273D01*
X-16541278Y13791206D01*
X-16525273Y13769054D01*
X-16519784Y13740342D01*
X-16525271Y13711620D01*
X-16541278Y13689418D01*
X-16567430Y13675607D01*
X-16613390Y13670000D01*
X-16894819Y13670000D01*
X-16966894Y13674052D01*
X-17025081Y13685167D01*
X-17071773Y13702118D01*
X-17114353Y13726984D01*
X-17163608Y13765927D01*
X-17207086Y13814699D01*
X-17242499Y13877973D01*
X-17258864Y13924632D01*
X-17269054Y13976808D01*
X-17272602Y14035388D01*
X-17272602Y14102310D01*
X-17272361Y14106096D01*
X-17132589Y14106096D01*
X-17132589Y14039906D01*
X-17129103Y13989077D01*
X-17119469Y13947809D01*
X-17104563Y13914365D01*
X-17083339Y13884517D01*
X-17055832Y13857973D01*
X-17021215Y13834559D01*
X-16991878Y13822305D01*
X-16951082Y13813885D01*
X-16895552Y13810684D01*
X-16746625Y13810684D01*
X-16746625Y14357788D01*
X-16894208Y14357788D01*
X-16943128Y14354256D01*
X-16983978Y14344356D01*
X-17018162Y14328785D01*
X-17047908Y14306125D01*
X-17077592Y14271567D01*
X-17107310Y14222050D01*
X-17126000Y14169370D01*
X-17132589Y14106096D01*
X-17272361Y14106096D01*
X-17268144Y14172348D01*
X-17256176Y14225958D01*
X-17236186Y14275841D01*
X-17207328Y14327746D01*
X-17173986Y14375454D01*
X-17144863Y14408347D01*
X-17100365Y14442889D01*
X-17039960Y14472521D01*
X-16973781Y14491516D01*
X-16906421Y14497801D01*
X-16613390Y14498472D01*
X-16567436Y14492850D01*
G37*
G36*
X-17406655Y14492850D02*
G01*
X-17380496Y14478994D01*
X-17364492Y14456842D01*
X-17359003Y14428130D01*
X-17364490Y14399408D01*
X-17380496Y14377206D01*
X-17406648Y14363395D01*
X-17452609Y14357788D01*
X-17474468Y14357788D01*
X-17474468Y13810684D01*
X-17452609Y13810684D01*
X-17407199Y13805093D01*
X-17380862Y13791206D01*
X-17364572Y13769023D01*
X-17359003Y13740342D01*
X-17364490Y13711620D01*
X-17380496Y13689418D01*
X-17406648Y13675607D01*
X-17452609Y13670000D01*
X-17665039Y13670000D01*
X-17710990Y13675610D01*
X-17737091Y13689418D01*
X-17753144Y13711625D01*
X-17758645Y13740342D01*
X-17753142Y13769049D01*
X-17737091Y13791206D01*
X-17710983Y13805060D01*
X-17665039Y13810684D01*
X-17614542Y13810684D01*
X-17614542Y13986539D01*
X-17753211Y13986539D01*
X-17801722Y13955757D01*
X-17862744Y13899303D01*
X-17939477Y13807762D01*
X-18035311Y13670000D01*
X-18115240Y13670000D01*
X-18161142Y13675621D01*
X-18186986Y13689418D01*
X-18202754Y13711594D01*
X-18208174Y13740342D01*
X-18200968Y13769417D01*
X-18177399Y13797434D01*
X-18155372Y13806525D01*
X-18107057Y13810684D01*
X-18022305Y13932195D01*
X-17971467Y13989392D01*
X-17927356Y14031846D01*
X-17976705Y14062541D01*
X-18014609Y14094312D01*
X-18042822Y14127162D01*
X-18064163Y14164396D01*
X-18076829Y14203850D01*
X-18081107Y14246353D01*
X-18080638Y14250993D01*
X-17941033Y14250993D01*
X-17935877Y14225294D01*
X-17918807Y14197260D01*
X-17889919Y14173084D01*
X-17832406Y14145602D01*
X-17782519Y14132017D01*
X-17723840Y14127223D01*
X-17614542Y14127223D01*
X-17614542Y14357788D01*
X-17775070Y14357788D01*
X-17828353Y14353453D01*
X-17868568Y14341788D01*
X-17898657Y14324083D01*
X-17923391Y14299480D01*
X-17936771Y14275429D01*
X-17941033Y14250993D01*
X-18080638Y14250993D01*
X-18075976Y14297106D01*
X-18060925Y14343122D01*
X-18035778Y14385512D01*
X-17999468Y14425016D01*
X-17956923Y14455770D01*
X-17905662Y14478638D01*
X-17843943Y14493243D01*
X-17769575Y14498472D01*
X-17452609Y14498472D01*
X-17406655Y14492850D01*
G37*
G36*
X-18540131Y14571421D02*
G01*
X-18490228Y14556422D01*
X-18446093Y14531932D01*
X-18406757Y14497384D01*
X-18371756Y14451394D01*
X-18336800Y14386802D01*
X-18312453Y14322133D01*
X-18298033Y14256842D01*
X-18293231Y14190299D01*
X-18293231Y14036792D01*
X-18299049Y13963406D01*
X-18316384Y13893029D01*
X-18345499Y13824789D01*
X-18384253Y13760489D01*
X-18421047Y13716224D01*
X-18456141Y13687647D01*
X-18496635Y13667502D01*
X-18543859Y13654904D01*
X-18599268Y13650461D01*
X-18656345Y13655656D01*
X-18706293Y13670615D01*
X-18750492Y13695040D01*
X-18789909Y13729489D01*
X-18825009Y13775330D01*
X-18860100Y13839770D01*
X-18884562Y13904445D01*
X-18899065Y13969907D01*
X-18903900Y14036792D01*
X-18903900Y14190116D01*
X-18763216Y14190116D01*
X-18763216Y14036975D01*
X-18756044Y13961876D01*
X-18735586Y13897913D01*
X-18702399Y13842863D01*
X-18672539Y13813779D01*
X-18638665Y13796895D01*
X-18599268Y13791145D01*
X-18557433Y13796669D01*
X-18524196Y13812281D01*
X-18497480Y13838101D01*
X-18462044Y13897177D01*
X-18440619Y13962871D01*
X-18433244Y14036975D01*
X-18433244Y14190116D01*
X-18440416Y14265215D01*
X-18460874Y14329178D01*
X-18494060Y14384228D01*
X-18523937Y14413269D01*
X-18558024Y14430174D01*
X-18597863Y14435946D01*
X-18639275Y14430457D01*
X-18672550Y14414871D01*
X-18699652Y14388990D01*
X-18734748Y14329547D01*
X-18755937Y14263827D01*
X-18763216Y14190116D01*
X-18903900Y14190116D01*
X-18903900Y14190299D01*
X-18898000Y14264099D01*
X-18880436Y14334670D01*
X-18850960Y14402912D01*
X-18811763Y14467251D01*
X-18774737Y14511393D01*
X-18739585Y14539749D01*
X-18699158Y14559742D01*
X-18652164Y14572231D01*
X-18597192Y14576630D01*
X-18540131Y14571421D01*
G37*
G36*
X-6775995Y14013894D02*
G01*
X-6775995Y13810684D01*
X-7133261Y13810684D01*
X-7133261Y13884934D01*
X-7138891Y13931040D01*
X-7152740Y13957169D01*
X-7174938Y13973226D01*
X-7203603Y13978723D01*
X-7231732Y13973251D01*
X-7253795Y13957169D01*
X-7267643Y13931040D01*
X-7273273Y13884934D01*
X-7273273Y13670000D01*
X-6614062Y13670000D01*
X-6568111Y13675610D01*
X-6542010Y13689418D01*
X-6526004Y13711620D01*
X-6520517Y13740342D01*
X-6526086Y13769023D01*
X-6542377Y13791206D01*
X-6568706Y13805095D01*
X-6614062Y13810684D01*
X-6635922Y13810684D01*
X-6635922Y14357788D01*
X-6614062Y14357788D01*
X-6568111Y14363397D01*
X-6542010Y14377206D01*
X-6526004Y14399408D01*
X-6520517Y14428130D01*
X-6526006Y14456842D01*
X-6542010Y14478994D01*
X-6568118Y14492847D01*
X-6614062Y14498472D01*
X-7242560Y14497801D01*
X-7242560Y14283539D01*
X-7237011Y14237390D01*
X-7223387Y14211243D01*
X-7201495Y14195246D01*
X-7172890Y14189749D01*
X-7144167Y14195237D01*
X-7121965Y14211243D01*
X-7108114Y14237423D01*
X-7102487Y14283539D01*
X-7102487Y14357788D01*
X-6775995Y14357788D01*
X-6775995Y14154578D01*
X-6898971Y14154578D01*
X-6902321Y14200485D01*
X-6909229Y14219058D01*
X-6925208Y14235278D01*
X-6944840Y14244966D01*
X-6969313Y14248368D01*
X-6997400Y14242900D01*
X-7019505Y14226813D01*
X-7033353Y14200684D01*
X-7038983Y14154578D01*
X-7038983Y14013894D01*
X-7035445Y13967992D01*
X-7028054Y13948987D01*
X-7011723Y13932878D01*
X-6992471Y13923387D01*
X-6969313Y13920105D01*
X-6944840Y13923506D01*
X-6925208Y13933194D01*
X-6909229Y13949414D01*
X-6902321Y13967988D01*
X-6898971Y14013894D01*
X-6775995Y14013894D01*
G37*
G36*
X-7583767Y14233957D02*
G01*
X-7583767Y13810684D01*
X-7634325Y13810684D01*
X-7680270Y13805060D01*
X-7706377Y13791206D01*
X-7722429Y13769049D01*
X-7727931Y13740342D01*
X-7722431Y13711625D01*
X-7706377Y13689418D01*
X-7680276Y13675610D01*
X-7634325Y13670000D01*
X-7450594Y13670000D01*
X-7404633Y13675607D01*
X-7378481Y13689418D01*
X-7362475Y13711620D01*
X-7356988Y13740342D01*
X-7362410Y13769080D01*
X-7378176Y13791206D01*
X-7403292Y13805237D01*
X-7443755Y13810684D01*
X-7443755Y14357788D01*
X-7421895Y14357788D01*
X-7375935Y14363395D01*
X-7349782Y14377206D01*
X-7333776Y14399408D01*
X-7328289Y14428130D01*
X-7333778Y14456842D01*
X-7349782Y14478994D01*
X-7375941Y14492850D01*
X-7421895Y14498472D01*
X-7583767Y14498472D01*
X-7941705Y13936592D01*
X-7941705Y14357788D01*
X-7891208Y14357788D01*
X-7845247Y14363395D01*
X-7819095Y14377206D01*
X-7803089Y14399408D01*
X-7797602Y14428130D01*
X-7803091Y14456842D01*
X-7819095Y14478994D01*
X-7845254Y14492850D01*
X-7891208Y14498472D01*
X-8074939Y14498472D01*
X-8120884Y14492847D01*
X-8146991Y14478994D01*
X-8163043Y14456837D01*
X-8168546Y14428130D01*
X-8163125Y14399382D01*
X-8147357Y14377206D01*
X-8122328Y14363199D01*
X-8082450Y14357788D01*
X-8082450Y13670000D01*
X-7943781Y13670000D01*
X-7583767Y14233957D01*
G37*
G36*
X-16567436Y16992850D02*
G01*
X-16541278Y16978994D01*
X-16525273Y16956842D01*
X-16519784Y16928130D01*
X-16525271Y16899408D01*
X-16541278Y16877206D01*
X-16567430Y16863395D01*
X-16613390Y16857788D01*
X-16635250Y16857788D01*
X-16635250Y16310684D01*
X-16613390Y16310684D01*
X-16567981Y16305093D01*
X-16541644Y16291206D01*
X-16525354Y16269023D01*
X-16519784Y16240342D01*
X-16525271Y16211620D01*
X-16541278Y16189418D01*
X-16567430Y16175607D01*
X-16613390Y16170000D01*
X-16825820Y16170000D01*
X-16871771Y16175610D01*
X-16897872Y16189418D01*
X-16913926Y16211625D01*
X-16919427Y16240342D01*
X-16913924Y16269049D01*
X-16897872Y16291206D01*
X-16871765Y16305060D01*
X-16825820Y16310684D01*
X-16775323Y16310684D01*
X-16775323Y16486539D01*
X-16913992Y16486539D01*
X-16962503Y16455757D01*
X-17023526Y16399303D01*
X-17100259Y16307762D01*
X-17196093Y16170000D01*
X-17276021Y16170000D01*
X-17321923Y16175621D01*
X-17347767Y16189418D01*
X-17363535Y16211594D01*
X-17368955Y16240342D01*
X-17361750Y16269417D01*
X-17338181Y16297434D01*
X-17316154Y16306525D01*
X-17267839Y16310684D01*
X-17183087Y16432195D01*
X-17132249Y16489392D01*
X-17088137Y16531846D01*
X-17137487Y16562541D01*
X-17175391Y16594312D01*
X-17203603Y16627162D01*
X-17224945Y16664396D01*
X-17237611Y16703850D01*
X-17241888Y16746353D01*
X-17241419Y16750993D01*
X-17101815Y16750993D01*
X-17096658Y16725294D01*
X-17079589Y16697260D01*
X-17050701Y16673084D01*
X-16993188Y16645602D01*
X-16943301Y16632017D01*
X-16884622Y16627223D01*
X-16775323Y16627223D01*
X-16775323Y16857788D01*
X-16935852Y16857788D01*
X-16989134Y16853453D01*
X-17029350Y16841788D01*
X-17059439Y16824083D01*
X-17084173Y16799480D01*
X-17097553Y16775429D01*
X-17101815Y16750993D01*
X-17241419Y16750993D01*
X-17236757Y16797106D01*
X-17221707Y16843122D01*
X-17196560Y16885512D01*
X-17160250Y16925016D01*
X-17117704Y16955770D01*
X-17066444Y16978638D01*
X-17004725Y16993243D01*
X-16930356Y16998472D01*
X-16613390Y16998472D01*
X-16567436Y16992850D01*
G37*
G36*
X-17851030Y16591930D02*
G01*
X-18084526Y16310684D01*
X-18122517Y16305314D01*
X-18146991Y16291206D01*
X-18162472Y16269110D01*
X-18167813Y16240342D01*
X-18162326Y16211620D01*
X-18146319Y16189418D01*
X-18120219Y16175610D01*
X-18074268Y16170000D01*
X-17916426Y16170000D01*
X-17871112Y16175586D01*
X-17845046Y16189418D01*
X-17829040Y16211620D01*
X-17823552Y16240342D01*
X-17828662Y16269197D01*
X-17843336Y16291206D01*
X-17866743Y16305347D01*
X-17902809Y16310684D01*
X-17760660Y16481899D01*
X-17619976Y16310684D01*
X-17655445Y16305369D01*
X-17678716Y16291206D01*
X-17693438Y16269192D01*
X-17698561Y16240342D01*
X-17693061Y16211625D01*
X-17677007Y16189418D01*
X-17650906Y16175610D01*
X-17604955Y16170000D01*
X-17447846Y16170000D01*
X-17401885Y16175607D01*
X-17375733Y16189418D01*
X-17359727Y16211620D01*
X-17354240Y16240342D01*
X-17359662Y16269080D01*
X-17375428Y16291206D01*
X-17400125Y16305351D01*
X-17437588Y16310684D01*
X-17669313Y16591869D01*
X-17448518Y16857788D01*
X-17411219Y16863146D01*
X-17387396Y16877206D01*
X-17372435Y16899296D01*
X-17367246Y16928130D01*
X-17372735Y16956842D01*
X-17388739Y16978994D01*
X-17414891Y16992852D01*
X-17460791Y16998472D01*
X-17589934Y16998472D01*
X-17635878Y16992847D01*
X-17661986Y16978994D01*
X-17678038Y16956837D01*
X-17683540Y16928130D01*
X-17680015Y16898072D01*
X-17669863Y16872504D01*
X-17657071Y16862089D01*
X-17630234Y16857788D01*
X-17759805Y16701717D01*
X-17888460Y16857788D01*
X-17861582Y16862094D01*
X-17848832Y16872504D01*
X-17838680Y16898072D01*
X-17835154Y16928130D01*
X-17840643Y16956842D01*
X-17856647Y16978994D01*
X-17882806Y16992850D01*
X-17928760Y16998472D01*
X-18057171Y16998472D01*
X-18103115Y16992847D01*
X-18129222Y16978994D01*
X-18145274Y16956837D01*
X-18150777Y16928130D01*
X-18145424Y16899357D01*
X-18129894Y16877206D01*
X-18105677Y16863074D01*
X-18069444Y16857788D01*
X-17851030Y16591930D01*
G37*
G36*
X10232Y14498263D02*
G01*
X10232Y14263668D01*
X15760Y14217674D01*
X29344Y14191555D01*
X51249Y14175513D01*
X79902Y14170000D01*
X108567Y14175498D01*
X130765Y14191555D01*
X144621Y14217714D01*
X150244Y14263668D01*
X150244Y14498263D01*
X350401Y14498263D01*
X396348Y14503901D01*
X422513Y14517802D01*
X438518Y14540122D01*
X444007Y14568971D01*
X438516Y14597810D01*
X422513Y14620079D01*
X396345Y14633868D01*
X350401Y14638947D01*
X150244Y14638947D01*
X150244Y14873298D01*
X144650Y14918879D01*
X130765Y14945288D01*
X108536Y14961631D01*
X79902Y14967209D01*
X51190Y14961695D01*
X28977Y14945594D01*
X15126Y14919413D01*
X9499Y14873298D01*
X10232Y14638947D01*
X-189925Y14638947D01*
X-235896Y14633385D01*
X-261977Y14619713D01*
X-278015Y14597740D01*
X-283532Y14568971D01*
X-278029Y14540127D01*
X-261977Y14517802D01*
X-235863Y14503903D01*
X-189925Y14498263D01*
X10232Y14498263D01*
G37*
G36*
X-641164Y14912499D02*
G01*
X-641164Y14740552D01*
X-717830Y14761523D01*
X-782581Y14767907D01*
X-845603Y14762215D01*
X-901493Y14745736D01*
X-951639Y14718704D01*
X-997026Y14680468D01*
X-1033942Y14634286D01*
X-1060410Y14582119D01*
X-1076751Y14522809D01*
X-1082450Y14454788D01*
X-1076536Y14384510D01*
X-1059798Y14325104D01*
X-1033032Y14274565D01*
X-996049Y14231428D01*
X-950994Y14198206D01*
X-893804Y14172964D01*
X-821729Y14156478D01*
X-731351Y14150461D01*
X-651588Y14154829D01*
X-584838Y14167009D01*
X-529115Y14185905D01*
X-482712Y14210850D01*
X-451416Y14236976D01*
X-434719Y14263205D01*
X-429406Y14290656D01*
X-434558Y14317199D01*
X-450227Y14340299D01*
X-473129Y14356237D01*
X-499748Y14361487D01*
X-523220Y14356190D01*
X-551649Y14337673D01*
X-580856Y14317232D01*
X-610451Y14304639D01*
X-657361Y14294887D01*
X-722497Y14291145D01*
X-807132Y14296862D01*
X-862065Y14311171D01*
X-895970Y14331018D01*
X-920832Y14360738D01*
X-936637Y14400489D01*
X-942438Y14453505D01*
X-936999Y14505843D01*
X-921853Y14547536D01*
X-897680Y14580939D01*
X-865327Y14606462D01*
X-827508Y14621859D01*
X-782581Y14627223D01*
X-732945Y14622560D01*
X-675854Y14607457D01*
X-609718Y14579779D01*
X-588208Y14571111D01*
X-571433Y14568605D01*
X-543835Y14574098D01*
X-521241Y14590526D01*
X-506340Y14615123D01*
X-501091Y14647434D01*
X-501091Y15053183D01*
X-929432Y15053183D01*
X-975363Y15047527D01*
X-1001483Y15033582D01*
X-1017534Y15011308D01*
X-1023038Y14982474D01*
X-1017569Y14954261D01*
X-1001483Y14932038D01*
X-975369Y14918139D01*
X-929432Y14912499D01*
X-641164Y14912499D01*
G37*
G36*
X-1597863Y14374371D02*
G01*
X-1800768Y14857788D01*
X-1768650Y14857788D01*
X-1722690Y14863395D01*
X-1696537Y14877206D01*
X-1680531Y14899408D01*
X-1675044Y14928130D01*
X-1680533Y14956842D01*
X-1696537Y14978994D01*
X-1722696Y14992850D01*
X-1768650Y14998472D01*
X-1956534Y14998472D01*
X-2002424Y14992849D01*
X-2028525Y14978994D01*
X-2044576Y14956837D01*
X-2050079Y14928130D01*
X-2042497Y14899158D01*
X-2017289Y14870733D01*
X-1997034Y14861824D01*
X-1953115Y14857788D01*
X-1665519Y14170000D01*
X-1530941Y14170000D01*
X-1244017Y14857788D01*
X-1199527Y14861922D01*
X-1179109Y14871039D01*
X-1160060Y14889848D01*
X-1149663Y14908639D01*
X-1146319Y14928130D01*
X-1151822Y14956837D01*
X-1167874Y14978994D01*
X-1193981Y14992847D01*
X-1239925Y14998472D01*
X-1429153Y14998472D01*
X-1474504Y14992867D01*
X-1500533Y14978994D01*
X-1516537Y14956842D01*
X-1522026Y14928130D01*
X-1516606Y14899382D01*
X-1500838Y14877206D01*
X-1475045Y14863412D01*
X-1429153Y14857788D01*
X-1396363Y14857788D01*
X-1597863Y14374371D01*
G37*
%LPC*%
D14*
%TO.C,H101*%
X0Y0D03*
%TD*%
D15*
%TO.C,J101*%
X-9577600Y16383000D03*
D16*
X-9577600Y13843000D03*
X-12117600Y16383000D03*
X-12117600Y13843000D03*
X-14657600Y16383000D03*
X-14657600Y13843000D03*
%TD*%
D17*
%TO.C,J108*%
X21004000Y-4953000D03*
D16*
X18464000Y-4953000D03*
X21004000Y-2413000D03*
X18464000Y-2413000D03*
X21004000Y127000D03*
X18464000Y127000D03*
X21004000Y2667000D03*
X18464000Y2667000D03*
X21004000Y5207000D03*
X18464000Y5207000D03*
%TD*%
D18*
%TO.C,J103*%
X-165000Y17212800D03*
D19*
X2335000Y17212800D03*
X4835000Y17212800D03*
%TD*%
D20*
%TO.C,SW101*%
X-22353800Y12110800D03*
D16*
X-22353800Y14650800D03*
%TD*%
D21*
%TO.C,BZ101*%
X2082800Y-16813600D03*
D16*
X2082800Y-10313600D03*
%TD*%
%LPD*%
M02*
