M48
<<<<<<< HEAD
; DRILL file {KiCad 9.0.2} date 2025-06-19T10:12:08+0200
; FORMAT={-:-/ absolute / inch / decimal}
; #@! TF.CreationDate,2025-06-19T10:12:08+02:00
=======
; DRILL file {KiCad 9.0.2} date 2025-06-17T18:03:46+0200
; FORMAT={-:-/ absolute / inch / decimal}
; #@! TF.CreationDate,2025-06-17T18:03:46+02:00
>>>>>>> 2e23f7f8cb64151a60ec3d004f8241720292418e
; #@! TF.GenerationSoftware,Kicad,Pcbnew,9.0.2
; #@! TF.FileFunction,Plated,1,4,PTH
FMAT,2
INCH
; #@! TA.AperFunction,Plated,PTH,ViaDrill
T1C0.0098
; #@! TA.AperFunction,Plated,PTH,ViaDrill
T2C0.0118
; #@! TA.AperFunction,Plated,PTH,ViaDrill
T3C0.0157
; #@! TA.AperFunction,Plated,PTH,ComponentDrill
T4C0.0315
; #@! TA.AperFunction,Plated,PTH,ComponentDrill
T5C0.0374
; #@! TA.AperFunction,Plated,PTH,ComponentDrill
T6C0.0394
%
G90
G05
T1
X-0.683Y-0.562
X-0.6159Y-0.0289
X-0.575Y-0.562
X-0.443Y-0.7098
X-0.34Y0.27
X-0.3035Y-0.4455
X-0.298Y0.242
X-0.248Y-0.22
X-0.162Y-0.22
X-0.1039Y0.4828
X-0.1039Y0.4301
X-0.084Y0.218
X-0.063Y-0.202
X-0.0456Y0.228
X-0.028Y0.456
X-0.028Y0.427
X-0.018Y0.362
X0.038Y0.31
X0.0541Y0.5201
X0.09Y0.21
X0.1Y-0.202
X0.15Y0.4
X0.158Y-0.36
X0.184Y-0.116
X0.244Y-0.396
X0.2515Y0.4625
X0.273Y0.447
X0.3Y0.35
X0.306Y0.424
X0.34Y0.264
X0.348Y0.146
X0.36Y0.478
X0.387Y-0.212
X0.389Y0.069
X0.42Y-0.102
X0.424Y0.326
X0.456Y-0.133
X0.463Y0.43
X0.463Y0.2294
X0.492Y0.176
X0.573Y0.53
X0.644Y0.018
X0.6545Y-0.1225
<<<<<<< HEAD
X0.692Y0.618
X0.728Y-0.533
=======
X0.663Y-0.53
X0.692Y0.618
>>>>>>> 2e23f7f8cb64151a60ec3d004f8241720292418e
T2
X-0.8326Y-0.446
X-0.4955Y-0.447
X0.3788Y-0.5272
X0.3802Y-0.6242
X0.4015Y-0.577
<<<<<<< HEAD
X0.5529Y0.7635
X0.5569Y0.63
X0.59Y-0.485
X0.657Y-0.443
=======
X0.537Y-0.521
X0.547Y-0.442
X0.5529Y0.7635
X0.5569Y0.63
>>>>>>> 2e23f7f8cb64151a60ec3d004f8241720292418e
X0.9269Y0.407
T3
X-0.9431Y-0.447
X-0.9431Y-0.507
X-0.9408Y-0.3752
X-0.917Y0.635
X-0.854Y-0.605
X-0.7735Y-0.446
X-0.722Y-0.415
<<<<<<< HEAD
X0.727Y-0.666
=======
X0.663Y-0.663
>>>>>>> 2e23f7f8cb64151a60ec3d004f8241720292418e
T4
X0.082Y-0.406
X0.082Y-0.662
T5
X-0.0065Y0.6777
X0.0919Y0.6777
X0.1904Y0.6777
T6
X-0.8801Y0.5768
X-0.8801Y0.4768
X-0.5771Y0.645
X-0.5771Y0.545
X-0.4771Y0.645
X-0.4771Y0.545
X-0.3771Y0.645
X-0.3771Y0.545
X0.7269Y0.205
X0.7269Y0.105
X0.7269Y0.005
X0.7269Y-0.095
X0.7269Y-0.195
X0.8269Y0.205
X0.8269Y0.105
X0.8269Y0.005
X0.8269Y-0.095
X0.8269Y-0.195
M30
