%TF.GenerationSoftware,KiCad,Pcbnew,9.0.2*%
%TF.CreationDate,2025-06-19T10:12:08+02:00*%
%TF.ProjectId,Robobuoy-Sub-CPU-v2_1,526f626f-6275-46f7-992d-5375622d4350,2.0*%
%TF.SameCoordinates,Original*%
%TF.FileFunction,Legend,Top*%
%TF.FilePolarity,Positive*%
%FSLAX46Y46*%
G04 Gerber Fmt 4.6, Leading zero omitted, Abs format (unit mm)*
G04 Created by KiCad (PCBNEW 9.0.2) date 2025-06-19 10:12:08*
%MOMM*%
%LPD*%
G01*
G04 APERTURE LIST*
G04 Aperture macros list*
%AMRoundRect*
0 Rectangle with rounded corners*
0 $1 Rounding radius*
0 $2 $3 $4 $5 $6 $7 $8 $9 X,Y pos of 4 corners*
0 Add a 4 corners polygon primitive as box body*
4,1,4,$2,$3,$4,$5,$6,$7,$8,$9,$2,$3,0*
0 Add four circle primitives for the rounded corners*
1,1,$1+$1,$2,$3*
1,1,$1+$1,$4,$5*
1,1,$1+$1,$6,$7*
1,1,$1+$1,$8,$9*
0 Add four rect primitives between the rounded corners*
20,1,$1+$1,$2,$3,$4,$5,0*
20,1,$1+$1,$4,$5,$6,$7,0*
20,1,$1+$1,$6,$7,$8,$9,0*
20,1,$1+$1,$8,$9,$2,$3,0*%
G04 Aperture macros list end*
%ADD10C,0.150000*%
%ADD11C,0.500000*%
%ADD12C,0.300000*%
%ADD13C,0.120000*%
%ADD14C,0.250000*%
%ADD15C,0.100000*%
%ADD16C,0.000000*%
%ADD17RoundRect,0.190000X0.140000X0.140000X-0.140000X0.140000X-0.140000X-0.140000X0.140000X-0.140000X0*%
%ADD18RoundRect,0.190000X0.140000X-0.140000X0.140000X0.140000X-0.140000X0.140000X-0.140000X-0.140000X0*%
%ADD19RoundRect,0.150000X0.150000X-0.512500X0.150000X0.512500X-0.150000X0.512500X-0.150000X-0.512500X0*%
%ADD20RoundRect,0.200000X-0.250000X0.200000X-0.250000X-0.200000X0.250000X-0.200000X0.250000X0.200000X0*%
%ADD21RoundRect,0.200000X-0.200000X-0.250000X0.200000X-0.250000X0.200000X0.250000X-0.200000X0.250000X0*%
%ADD22RoundRect,0.200000X0.200000X0.250000X-0.200000X0.250000X-0.200000X-0.250000X0.200000X-0.250000X0*%
%ADD23RoundRect,0.090000X0.660000X0.360000X-0.660000X0.360000X-0.660000X-0.360000X0.660000X-0.360000X0*%
%ADD24RoundRect,0.300000X-0.700000X-0.300000X0.700000X-0.300000X0.700000X0.300000X-0.700000X0.300000X0*%
%ADD25RoundRect,0.317500X-0.698500X-0.317500X0.698500X-0.317500X0.698500X0.317500X-0.698500X0.317500X0*%
%ADD26RoundRect,0.500000X-0.500000X-1.100000X0.500000X-1.100000X0.500000X1.100000X-0.500000X1.100000X0*%
%ADD27RoundRect,0.150000X-0.150000X0.587500X-0.150000X-0.587500X0.150000X-0.587500X0.150000X0.587500X0*%
%ADD28C,3.200000*%
%ADD29RoundRect,0.300000X-0.400000X0.300000X-0.400000X-0.300000X0.400000X-0.300000X0.400000X0.300000X0*%
%ADD30RoundRect,0.200000X0.250000X-0.200000X0.250000X0.200000X-0.250000X0.200000X-0.250000X-0.200000X0*%
%ADD31RoundRect,0.112500X0.112500X-0.187500X0.112500X0.187500X-0.112500X0.187500X-0.112500X-0.187500X0*%
%ADD32C,1.000000*%
%ADD33RoundRect,0.250000X-0.600000X0.600000X-0.600000X-0.600000X0.600000X-0.600000X0.600000X0.600000X0*%
%ADD34C,1.700000*%
%ADD35RoundRect,0.250000X0.600000X0.600000X-0.600000X0.600000X-0.600000X-0.600000X0.600000X-0.600000X0*%
%ADD36RoundRect,0.250000X1.100000X-0.325000X1.100000X0.325000X-1.100000X0.325000X-1.100000X-0.325000X0*%
%ADD37RoundRect,0.150000X0.587500X0.150000X-0.587500X0.150000X-0.587500X-0.150000X0.587500X-0.150000X0*%
%ADD38RoundRect,0.250000X-0.600000X-0.725000X0.600000X-0.725000X0.600000X0.725000X-0.600000X0.725000X0*%
%ADD39O,1.700000X1.950000*%
%ADD40RoundRect,0.275000X0.375000X-0.275000X0.375000X0.275000X-0.375000X0.275000X-0.375000X-0.275000X0*%
%ADD41RoundRect,0.250000X-1.100000X0.325000X-1.100000X-0.325000X1.100000X-0.325000X1.100000X0.325000X0*%
%ADD42R,1.700000X1.700000*%
%ADD43R,1.700000X1.000000*%
%ADD44RoundRect,0.250000X0.325000X1.100000X-0.325000X1.100000X-0.325000X-1.100000X0.325000X-1.100000X0*%
%ADD45RoundRect,0.150000X0.512500X0.150000X-0.512500X0.150000X-0.512500X-0.150000X0.512500X-0.150000X0*%
%ADD46RoundRect,0.225000X0.225000X-0.525000X0.225000X0.525000X-0.225000X0.525000X-0.225000X-0.525000X0*%
%ADD47RoundRect,0.225000X0.525000X0.225000X-0.525000X0.225000X-0.525000X-0.225000X0.525000X-0.225000X0*%
%ADD48RoundRect,0.250000X2.250000X-2.250000X2.250000X2.250000X-2.250000X2.250000X-2.250000X-2.250000X0*%
%ADD49R,1.650000X1.650000*%
%ADD50RoundRect,0.150000X-0.587500X-0.150000X0.587500X-0.150000X0.587500X0.150000X-0.587500X0.150000X0*%
G04 APERTURE END LIST*
D10*
X23523600Y14909800D02*
X23015600Y15417800D01*
X19205600Y19532600D02*
X19713600Y19024600D01*
D11*
X19151600Y14909800D02*
G75*
G02*
X18751600Y14909800I-200000J0D01*
G01*
X18751600Y14909800D02*
G75*
G02*
X19151600Y14909800I200000J0D01*
G01*
D10*
X19205600Y19532600D02*
X18697600Y19024600D01*
X23523600Y14909800D02*
X23015600Y14401800D01*
X19205600Y17957800D02*
X19205600Y19481800D01*
X21999600Y14909800D02*
X23523600Y14909800D01*
D12*
X-2550058Y-6197203D02*
X-3121486Y-6597203D01*
X-2550058Y-6882917D02*
X-3750058Y-6882917D01*
X-3750058Y-6882917D02*
X-3750058Y-6425774D01*
X-3750058Y-6425774D02*
X-3692915Y-6311489D01*
X-3692915Y-6311489D02*
X-3635772Y-6254346D01*
X-3635772Y-6254346D02*
X-3521486Y-6197203D01*
X-3521486Y-6197203D02*
X-3350058Y-6197203D01*
X-3350058Y-6197203D02*
X-3235772Y-6254346D01*
X-3235772Y-6254346D02*
X-3178629Y-6311489D01*
X-3178629Y-6311489D02*
X-3121486Y-6425774D01*
X-3121486Y-6425774D02*
X-3121486Y-6882917D01*
X-2550058Y-5511489D02*
X-2607200Y-5625774D01*
X-2607200Y-5625774D02*
X-2664343Y-5682917D01*
X-2664343Y-5682917D02*
X-2778629Y-5740060D01*
X-2778629Y-5740060D02*
X-3121486Y-5740060D01*
X-3121486Y-5740060D02*
X-3235772Y-5682917D01*
X-3235772Y-5682917D02*
X-3292915Y-5625774D01*
X-3292915Y-5625774D02*
X-3350058Y-5511489D01*
X-3350058Y-5511489D02*
X-3350058Y-5340060D01*
X-3350058Y-5340060D02*
X-3292915Y-5225774D01*
X-3292915Y-5225774D02*
X-3235772Y-5168632D01*
X-3235772Y-5168632D02*
X-3121486Y-5111489D01*
X-3121486Y-5111489D02*
X-2778629Y-5111489D01*
X-2778629Y-5111489D02*
X-2664343Y-5168632D01*
X-2664343Y-5168632D02*
X-2607200Y-5225774D01*
X-2607200Y-5225774D02*
X-2550058Y-5340060D01*
X-2550058Y-5340060D02*
X-2550058Y-5511489D01*
X-2550058Y-4597203D02*
X-3750058Y-4597203D01*
X-3292915Y-4597203D02*
X-3350058Y-4482918D01*
X-3350058Y-4482918D02*
X-3350058Y-4254346D01*
X-3350058Y-4254346D02*
X-3292915Y-4140060D01*
X-3292915Y-4140060D02*
X-3235772Y-4082918D01*
X-3235772Y-4082918D02*
X-3121486Y-4025775D01*
X-3121486Y-4025775D02*
X-2778629Y-4025775D01*
X-2778629Y-4025775D02*
X-2664343Y-4082918D01*
X-2664343Y-4082918D02*
X-2607200Y-4140060D01*
X-2607200Y-4140060D02*
X-2550058Y-4254346D01*
X-2550058Y-4254346D02*
X-2550058Y-4482918D01*
X-2550058Y-4482918D02*
X-2607200Y-4597203D01*
X-2550058Y-3340061D02*
X-2607200Y-3454346D01*
X-2607200Y-3454346D02*
X-2664343Y-3511489D01*
X-2664343Y-3511489D02*
X-2778629Y-3568632D01*
X-2778629Y-3568632D02*
X-3121486Y-3568632D01*
X-3121486Y-3568632D02*
X-3235772Y-3511489D01*
X-3235772Y-3511489D02*
X-3292915Y-3454346D01*
X-3292915Y-3454346D02*
X-3350058Y-3340061D01*
X-3350058Y-3340061D02*
X-3350058Y-3168632D01*
X-3350058Y-3168632D02*
X-3292915Y-3054346D01*
X-3292915Y-3054346D02*
X-3235772Y-2997204D01*
X-3235772Y-2997204D02*
X-3121486Y-2940061D01*
X-3121486Y-2940061D02*
X-2778629Y-2940061D01*
X-2778629Y-2940061D02*
X-2664343Y-2997204D01*
X-2664343Y-2997204D02*
X-2607200Y-3054346D01*
X-2607200Y-3054346D02*
X-2550058Y-3168632D01*
X-2550058Y-3168632D02*
X-2550058Y-3340061D01*
X-2550058Y-2425775D02*
X-3750058Y-2425775D01*
X-3292915Y-2425775D02*
X-3350058Y-2311490D01*
X-3350058Y-2311490D02*
X-3350058Y-2082918D01*
X-3350058Y-2082918D02*
X-3292915Y-1968632D01*
X-3292915Y-1968632D02*
X-3235772Y-1911490D01*
X-3235772Y-1911490D02*
X-3121486Y-1854347D01*
X-3121486Y-1854347D02*
X-2778629Y-1854347D01*
X-2778629Y-1854347D02*
X-2664343Y-1911490D01*
X-2664343Y-1911490D02*
X-2607200Y-1968632D01*
X-2607200Y-1968632D02*
X-2550058Y-2082918D01*
X-2550058Y-2082918D02*
X-2550058Y-2311490D01*
X-2550058Y-2311490D02*
X-2607200Y-2425775D01*
X-3350058Y-825776D02*
X-2550058Y-825776D01*
X-3350058Y-1340061D02*
X-2721486Y-1340061D01*
X-2721486Y-1340061D02*
X-2607200Y-1282918D01*
X-2607200Y-1282918D02*
X-2550058Y-1168633D01*
X-2550058Y-1168633D02*
X-2550058Y-997204D01*
X-2550058Y-997204D02*
X-2607200Y-882918D01*
X-2607200Y-882918D02*
X-2664343Y-825776D01*
X-2550058Y-82919D02*
X-2607200Y-197204D01*
X-2607200Y-197204D02*
X-2664343Y-254347D01*
X-2664343Y-254347D02*
X-2778629Y-311490D01*
X-2778629Y-311490D02*
X-3121486Y-311490D01*
X-3121486Y-311490D02*
X-3235772Y-254347D01*
X-3235772Y-254347D02*
X-3292915Y-197204D01*
X-3292915Y-197204D02*
X-3350058Y-82919D01*
X-3350058Y-82919D02*
X-3350058Y88510D01*
X-3350058Y88510D02*
X-3292915Y202796D01*
X-3292915Y202796D02*
X-3235772Y259938D01*
X-3235772Y259938D02*
X-3121486Y317081D01*
X-3121486Y317081D02*
X-2778629Y317081D01*
X-2778629Y317081D02*
X-2664343Y259938D01*
X-2664343Y259938D02*
X-2607200Y202796D01*
X-2607200Y202796D02*
X-2550058Y88510D01*
X-2550058Y88510D02*
X-2550058Y-82919D01*
X-3350058Y717081D02*
X-2550058Y1002795D01*
X-3350058Y1288510D02*
X-2550058Y1002795D01*
X-2550058Y1002795D02*
X-2264343Y888510D01*
X-2264343Y888510D02*
X-2207200Y831367D01*
X-2207200Y831367D02*
X-2150058Y717081D01*
X-3635772Y2602796D02*
X-3692915Y2659939D01*
X-3692915Y2659939D02*
X-3750058Y2774224D01*
X-3750058Y2774224D02*
X-3750058Y3059939D01*
X-3750058Y3059939D02*
X-3692915Y3174224D01*
X-3692915Y3174224D02*
X-3635772Y3231367D01*
X-3635772Y3231367D02*
X-3521486Y3288510D01*
X-3521486Y3288510D02*
X-3407200Y3288510D01*
X-3407200Y3288510D02*
X-3235772Y3231367D01*
X-3235772Y3231367D02*
X-2550058Y2545653D01*
X-2550058Y2545653D02*
X-2550058Y3288510D01*
X-2664343Y3802796D02*
X-2607200Y3859939D01*
X-2607200Y3859939D02*
X-2550058Y3802796D01*
X-2550058Y3802796D02*
X-2607200Y3745653D01*
X-2607200Y3745653D02*
X-2664343Y3802796D01*
X-2664343Y3802796D02*
X-2550058Y3802796D01*
X-2550058Y5002796D02*
X-2550058Y4317082D01*
X-2550058Y4659939D02*
X-3750058Y4659939D01*
X-3750058Y4659939D02*
X-3578629Y4545653D01*
X-3578629Y4545653D02*
X-3464343Y4431368D01*
X-3464343Y4431368D02*
X-3407200Y4317082D01*
X20944442Y14655801D02*
X21658728Y14655801D01*
X20158728Y14155801D02*
X20944442Y14655801D01*
X20944442Y14655801D02*
X20158728Y15155801D01*
D13*
X4455385Y-903379D02*
X5026813Y-903379D01*
X4741099Y-1903379D02*
X4741099Y-903379D01*
X5264909Y-903379D02*
X5931575Y-1903379D01*
X5931575Y-903379D02*
X5264909Y-1903379D01*
X6019270Y10918621D02*
X5685937Y11394812D01*
X5447842Y10918621D02*
X5447842Y11918621D01*
X5447842Y11918621D02*
X5828794Y11918621D01*
X5828794Y11918621D02*
X5924032Y11871002D01*
X5924032Y11871002D02*
X5971651Y11823383D01*
X5971651Y11823383D02*
X6019270Y11728145D01*
X6019270Y11728145D02*
X6019270Y11585288D01*
X6019270Y11585288D02*
X5971651Y11490050D01*
X5971651Y11490050D02*
X5924032Y11442431D01*
X5924032Y11442431D02*
X5828794Y11394812D01*
X5828794Y11394812D02*
X5447842Y11394812D01*
X6352604Y11918621D02*
X7019270Y10918621D01*
X7019270Y11918621D02*
X6352604Y10918621D01*
D14*
X-20597432Y5855269D02*
X-20597432Y6855269D01*
X-20597432Y6855269D02*
X-20026004Y5855269D01*
X-20026004Y5855269D02*
X-20026004Y6855269D01*
X-19549813Y5855269D02*
X-19549813Y6521936D01*
X-19549813Y6855269D02*
X-19597432Y6807650D01*
X-19597432Y6807650D02*
X-19549813Y6760031D01*
X-19549813Y6760031D02*
X-19502194Y6807650D01*
X-19502194Y6807650D02*
X-19549813Y6855269D01*
X-19549813Y6855269D02*
X-19549813Y6760031D01*
X-18645052Y5902888D02*
X-18740290Y5855269D01*
X-18740290Y5855269D02*
X-18930766Y5855269D01*
X-18930766Y5855269D02*
X-19026004Y5902888D01*
X-19026004Y5902888D02*
X-19073623Y5950508D01*
X-19073623Y5950508D02*
X-19121242Y6045746D01*
X-19121242Y6045746D02*
X-19121242Y6331460D01*
X-19121242Y6331460D02*
X-19073623Y6426698D01*
X-19073623Y6426698D02*
X-19026004Y6474317D01*
X-19026004Y6474317D02*
X-18930766Y6521936D01*
X-18930766Y6521936D02*
X-18740290Y6521936D01*
X-18740290Y6521936D02*
X-18645052Y6474317D01*
X-18216480Y6379079D02*
X-17883147Y6379079D01*
X-17740290Y5855269D02*
X-18216480Y5855269D01*
X-18216480Y5855269D02*
X-18216480Y6855269D01*
X-18216480Y6855269D02*
X-17740290Y6855269D01*
X-16549813Y6379079D02*
X-16216480Y6379079D01*
X-16073623Y5855269D02*
X-16549813Y5855269D01*
X-16549813Y5855269D02*
X-16549813Y6855269D01*
X-16549813Y6855269D02*
X-16073623Y6855269D01*
X-15645051Y6521936D02*
X-15645051Y5855269D01*
X-15645051Y6426698D02*
X-15597432Y6474317D01*
X-15597432Y6474317D02*
X-15502194Y6521936D01*
X-15502194Y6521936D02*
X-15359337Y6521936D01*
X-15359337Y6521936D02*
X-15264099Y6474317D01*
X-15264099Y6474317D02*
X-15216480Y6379079D01*
X-15216480Y6379079D02*
X-15216480Y5855269D01*
X-14311718Y6521936D02*
X-14311718Y5712412D01*
X-14311718Y5712412D02*
X-14359337Y5617174D01*
X-14359337Y5617174D02*
X-14406956Y5569555D01*
X-14406956Y5569555D02*
X-14502194Y5521936D01*
X-14502194Y5521936D02*
X-14645051Y5521936D01*
X-14645051Y5521936D02*
X-14740289Y5569555D01*
X-14311718Y5902888D02*
X-14406956Y5855269D01*
X-14406956Y5855269D02*
X-14597432Y5855269D01*
X-14597432Y5855269D02*
X-14692670Y5902888D01*
X-14692670Y5902888D02*
X-14740289Y5950508D01*
X-14740289Y5950508D02*
X-14787908Y6045746D01*
X-14787908Y6045746D02*
X-14787908Y6331460D01*
X-14787908Y6331460D02*
X-14740289Y6426698D01*
X-14740289Y6426698D02*
X-14692670Y6474317D01*
X-14692670Y6474317D02*
X-14597432Y6521936D01*
X-14597432Y6521936D02*
X-14406956Y6521936D01*
X-14406956Y6521936D02*
X-14311718Y6474317D01*
X-13835527Y5855269D02*
X-13835527Y6521936D01*
X-13835527Y6855269D02*
X-13883146Y6807650D01*
X-13883146Y6807650D02*
X-13835527Y6760031D01*
X-13835527Y6760031D02*
X-13787908Y6807650D01*
X-13787908Y6807650D02*
X-13835527Y6855269D01*
X-13835527Y6855269D02*
X-13835527Y6760031D01*
X-13359337Y6521936D02*
X-13359337Y5855269D01*
X-13359337Y6426698D02*
X-13311718Y6474317D01*
X-13311718Y6474317D02*
X-13216480Y6521936D01*
X-13216480Y6521936D02*
X-13073623Y6521936D01*
X-13073623Y6521936D02*
X-12978385Y6474317D01*
X-12978385Y6474317D02*
X-12930766Y6379079D01*
X-12930766Y6379079D02*
X-12930766Y5855269D01*
X-12073623Y5902888D02*
X-12168861Y5855269D01*
X-12168861Y5855269D02*
X-12359337Y5855269D01*
X-12359337Y5855269D02*
X-12454575Y5902888D01*
X-12454575Y5902888D02*
X-12502194Y5998127D01*
X-12502194Y5998127D02*
X-12502194Y6379079D01*
X-12502194Y6379079D02*
X-12454575Y6474317D01*
X-12454575Y6474317D02*
X-12359337Y6521936D01*
X-12359337Y6521936D02*
X-12168861Y6521936D01*
X-12168861Y6521936D02*
X-12073623Y6474317D01*
X-12073623Y6474317D02*
X-12026004Y6379079D01*
X-12026004Y6379079D02*
X-12026004Y6283841D01*
X-12026004Y6283841D02*
X-12502194Y6188603D01*
X-11216480Y5902888D02*
X-11311718Y5855269D01*
X-11311718Y5855269D02*
X-11502194Y5855269D01*
X-11502194Y5855269D02*
X-11597432Y5902888D01*
X-11597432Y5902888D02*
X-11645051Y5998127D01*
X-11645051Y5998127D02*
X-11645051Y6379079D01*
X-11645051Y6379079D02*
X-11597432Y6474317D01*
X-11597432Y6474317D02*
X-11502194Y6521936D01*
X-11502194Y6521936D02*
X-11311718Y6521936D01*
X-11311718Y6521936D02*
X-11216480Y6474317D01*
X-11216480Y6474317D02*
X-11168861Y6379079D01*
X-11168861Y6379079D02*
X-11168861Y6283841D01*
X-11168861Y6283841D02*
X-11645051Y6188603D01*
X-10740289Y5855269D02*
X-10740289Y6521936D01*
X-10740289Y6331460D02*
X-10692670Y6426698D01*
X-10692670Y6426698D02*
X-10645051Y6474317D01*
X-10645051Y6474317D02*
X-10549813Y6521936D01*
X-10549813Y6521936D02*
X-10454575Y6521936D01*
X-10121241Y5855269D02*
X-10121241Y6521936D01*
X-10121241Y6855269D02*
X-10168860Y6807650D01*
X-10168860Y6807650D02*
X-10121241Y6760031D01*
X-10121241Y6760031D02*
X-10073622Y6807650D01*
X-10073622Y6807650D02*
X-10121241Y6855269D01*
X-10121241Y6855269D02*
X-10121241Y6760031D01*
X-9645051Y6521936D02*
X-9645051Y5855269D01*
X-9645051Y6426698D02*
X-9597432Y6474317D01*
X-9597432Y6474317D02*
X-9502194Y6521936D01*
X-9502194Y6521936D02*
X-9359337Y6521936D01*
X-9359337Y6521936D02*
X-9264099Y6474317D01*
X-9264099Y6474317D02*
X-9216480Y6379079D01*
X-9216480Y6379079D02*
X-9216480Y5855269D01*
X-8311718Y6521936D02*
X-8311718Y5712412D01*
X-8311718Y5712412D02*
X-8359337Y5617174D01*
X-8359337Y5617174D02*
X-8406956Y5569555D01*
X-8406956Y5569555D02*
X-8502194Y5521936D01*
X-8502194Y5521936D02*
X-8645051Y5521936D01*
X-8645051Y5521936D02*
X-8740289Y5569555D01*
X-8311718Y5902888D02*
X-8406956Y5855269D01*
X-8406956Y5855269D02*
X-8597432Y5855269D01*
X-8597432Y5855269D02*
X-8692670Y5902888D01*
X-8692670Y5902888D02*
X-8740289Y5950508D01*
X-8740289Y5950508D02*
X-8787908Y6045746D01*
X-8787908Y6045746D02*
X-8787908Y6331460D01*
X-8787908Y6331460D02*
X-8740289Y6426698D01*
X-8740289Y6426698D02*
X-8692670Y6474317D01*
X-8692670Y6474317D02*
X-8597432Y6521936D01*
X-8597432Y6521936D02*
X-8406956Y6521936D01*
X-8406956Y6521936D02*
X-8311718Y6474317D01*
X-20026004Y4245325D02*
X-20359337Y4721516D01*
X-20597432Y4245325D02*
X-20597432Y5245325D01*
X-20597432Y5245325D02*
X-20216480Y5245325D01*
X-20216480Y5245325D02*
X-20121242Y5197706D01*
X-20121242Y5197706D02*
X-20073623Y5150087D01*
X-20073623Y5150087D02*
X-20026004Y5054849D01*
X-20026004Y5054849D02*
X-20026004Y4911992D01*
X-20026004Y4911992D02*
X-20073623Y4816754D01*
X-20073623Y4816754D02*
X-20121242Y4769135D01*
X-20121242Y4769135D02*
X-20216480Y4721516D01*
X-20216480Y4721516D02*
X-20597432Y4721516D01*
X-19454575Y4245325D02*
X-19549813Y4292944D01*
X-19549813Y4292944D02*
X-19597432Y4340564D01*
X-19597432Y4340564D02*
X-19645051Y4435802D01*
X-19645051Y4435802D02*
X-19645051Y4721516D01*
X-19645051Y4721516D02*
X-19597432Y4816754D01*
X-19597432Y4816754D02*
X-19549813Y4864373D01*
X-19549813Y4864373D02*
X-19454575Y4911992D01*
X-19454575Y4911992D02*
X-19311718Y4911992D01*
X-19311718Y4911992D02*
X-19216480Y4864373D01*
X-19216480Y4864373D02*
X-19168861Y4816754D01*
X-19168861Y4816754D02*
X-19121242Y4721516D01*
X-19121242Y4721516D02*
X-19121242Y4435802D01*
X-19121242Y4435802D02*
X-19168861Y4340564D01*
X-19168861Y4340564D02*
X-19216480Y4292944D01*
X-19216480Y4292944D02*
X-19311718Y4245325D01*
X-19311718Y4245325D02*
X-19454575Y4245325D01*
X-18692670Y4245325D02*
X-18692670Y5245325D01*
X-18692670Y4864373D02*
X-18597432Y4911992D01*
X-18597432Y4911992D02*
X-18406956Y4911992D01*
X-18406956Y4911992D02*
X-18311718Y4864373D01*
X-18311718Y4864373D02*
X-18264099Y4816754D01*
X-18264099Y4816754D02*
X-18216480Y4721516D01*
X-18216480Y4721516D02*
X-18216480Y4435802D01*
X-18216480Y4435802D02*
X-18264099Y4340564D01*
X-18264099Y4340564D02*
X-18311718Y4292944D01*
X-18311718Y4292944D02*
X-18406956Y4245325D01*
X-18406956Y4245325D02*
X-18597432Y4245325D01*
X-18597432Y4245325D02*
X-18692670Y4292944D01*
X-17645051Y4245325D02*
X-17740289Y4292944D01*
X-17740289Y4292944D02*
X-17787908Y4340564D01*
X-17787908Y4340564D02*
X-17835527Y4435802D01*
X-17835527Y4435802D02*
X-17835527Y4721516D01*
X-17835527Y4721516D02*
X-17787908Y4816754D01*
X-17787908Y4816754D02*
X-17740289Y4864373D01*
X-17740289Y4864373D02*
X-17645051Y4911992D01*
X-17645051Y4911992D02*
X-17502194Y4911992D01*
X-17502194Y4911992D02*
X-17406956Y4864373D01*
X-17406956Y4864373D02*
X-17359337Y4816754D01*
X-17359337Y4816754D02*
X-17311718Y4721516D01*
X-17311718Y4721516D02*
X-17311718Y4435802D01*
X-17311718Y4435802D02*
X-17359337Y4340564D01*
X-17359337Y4340564D02*
X-17406956Y4292944D01*
X-17406956Y4292944D02*
X-17502194Y4245325D01*
X-17502194Y4245325D02*
X-17645051Y4245325D01*
X-16883146Y4245325D02*
X-16883146Y5245325D01*
X-16883146Y4864373D02*
X-16787908Y4911992D01*
X-16787908Y4911992D02*
X-16597432Y4911992D01*
X-16597432Y4911992D02*
X-16502194Y4864373D01*
X-16502194Y4864373D02*
X-16454575Y4816754D01*
X-16454575Y4816754D02*
X-16406956Y4721516D01*
X-16406956Y4721516D02*
X-16406956Y4435802D01*
X-16406956Y4435802D02*
X-16454575Y4340564D01*
X-16454575Y4340564D02*
X-16502194Y4292944D01*
X-16502194Y4292944D02*
X-16597432Y4245325D01*
X-16597432Y4245325D02*
X-16787908Y4245325D01*
X-16787908Y4245325D02*
X-16883146Y4292944D01*
X-15549813Y4911992D02*
X-15549813Y4245325D01*
X-15978384Y4911992D02*
X-15978384Y4388183D01*
X-15978384Y4388183D02*
X-15930765Y4292944D01*
X-15930765Y4292944D02*
X-15835527Y4245325D01*
X-15835527Y4245325D02*
X-15692670Y4245325D01*
X-15692670Y4245325D02*
X-15597432Y4292944D01*
X-15597432Y4292944D02*
X-15549813Y4340564D01*
X-14930765Y4245325D02*
X-15026003Y4292944D01*
X-15026003Y4292944D02*
X-15073622Y4340564D01*
X-15073622Y4340564D02*
X-15121241Y4435802D01*
X-15121241Y4435802D02*
X-15121241Y4721516D01*
X-15121241Y4721516D02*
X-15073622Y4816754D01*
X-15073622Y4816754D02*
X-15026003Y4864373D01*
X-15026003Y4864373D02*
X-14930765Y4911992D01*
X-14930765Y4911992D02*
X-14787908Y4911992D01*
X-14787908Y4911992D02*
X-14692670Y4864373D01*
X-14692670Y4864373D02*
X-14645051Y4816754D01*
X-14645051Y4816754D02*
X-14597432Y4721516D01*
X-14597432Y4721516D02*
X-14597432Y4435802D01*
X-14597432Y4435802D02*
X-14645051Y4340564D01*
X-14645051Y4340564D02*
X-14692670Y4292944D01*
X-14692670Y4292944D02*
X-14787908Y4245325D01*
X-14787908Y4245325D02*
X-14930765Y4245325D01*
X-14264098Y4911992D02*
X-14026003Y4245325D01*
X-13787908Y4911992D02*
X-14026003Y4245325D01*
X-14026003Y4245325D02*
X-14121241Y4007230D01*
X-14121241Y4007230D02*
X-14168860Y3959611D01*
X-14168860Y3959611D02*
X-14264098Y3911992D01*
X-12692669Y5150087D02*
X-12645050Y5197706D01*
X-12645050Y5197706D02*
X-12549812Y5245325D01*
X-12549812Y5245325D02*
X-12311717Y5245325D01*
X-12311717Y5245325D02*
X-12216479Y5197706D01*
X-12216479Y5197706D02*
X-12168860Y5150087D01*
X-12168860Y5150087D02*
X-12121241Y5054849D01*
X-12121241Y5054849D02*
X-12121241Y4959611D01*
X-12121241Y4959611D02*
X-12168860Y4816754D01*
X-12168860Y4816754D02*
X-12740288Y4245325D01*
X-12740288Y4245325D02*
X-12121241Y4245325D01*
X-11692669Y4340564D02*
X-11645050Y4292944D01*
X-11645050Y4292944D02*
X-11692669Y4245325D01*
X-11692669Y4245325D02*
X-11740288Y4292944D01*
X-11740288Y4292944D02*
X-11692669Y4340564D01*
X-11692669Y4340564D02*
X-11692669Y4245325D01*
X-10692670Y4245325D02*
X-11264098Y4245325D01*
X-10978384Y4245325D02*
X-10978384Y5245325D01*
X-10978384Y5245325D02*
X-11073622Y5102468D01*
X-11073622Y5102468D02*
X-11168860Y5007230D01*
X-11168860Y5007230D02*
X-11264098Y4959611D01*
X-20597432Y2635381D02*
X-20597432Y3635381D01*
X-20597432Y3635381D02*
X-20216480Y3635381D01*
X-20216480Y3635381D02*
X-20121242Y3587762D01*
X-20121242Y3587762D02*
X-20073623Y3540143D01*
X-20073623Y3540143D02*
X-20026004Y3444905D01*
X-20026004Y3444905D02*
X-20026004Y3302048D01*
X-20026004Y3302048D02*
X-20073623Y3206810D01*
X-20073623Y3206810D02*
X-20121242Y3159191D01*
X-20121242Y3159191D02*
X-20216480Y3111572D01*
X-20216480Y3111572D02*
X-20597432Y3111572D01*
X-19645051Y2683000D02*
X-19502194Y2635381D01*
X-19502194Y2635381D02*
X-19264099Y2635381D01*
X-19264099Y2635381D02*
X-19168861Y2683000D01*
X-19168861Y2683000D02*
X-19121242Y2730620D01*
X-19121242Y2730620D02*
X-19073623Y2825858D01*
X-19073623Y2825858D02*
X-19073623Y2921096D01*
X-19073623Y2921096D02*
X-19121242Y3016334D01*
X-19121242Y3016334D02*
X-19168861Y3063953D01*
X-19168861Y3063953D02*
X-19264099Y3111572D01*
X-19264099Y3111572D02*
X-19454575Y3159191D01*
X-19454575Y3159191D02*
X-19549813Y3206810D01*
X-19549813Y3206810D02*
X-19597432Y3254429D01*
X-19597432Y3254429D02*
X-19645051Y3349667D01*
X-19645051Y3349667D02*
X-19645051Y3444905D01*
X-19645051Y3444905D02*
X-19597432Y3540143D01*
X-19597432Y3540143D02*
X-19549813Y3587762D01*
X-19549813Y3587762D02*
X-19454575Y3635381D01*
X-19454575Y3635381D02*
X-19216480Y3635381D01*
X-19216480Y3635381D02*
X-19073623Y3587762D01*
X-18645051Y3635381D02*
X-18645051Y2825858D01*
X-18645051Y2825858D02*
X-18597432Y2730620D01*
X-18597432Y2730620D02*
X-18549813Y2683000D01*
X-18549813Y2683000D02*
X-18454575Y2635381D01*
X-18454575Y2635381D02*
X-18264099Y2635381D01*
X-18264099Y2635381D02*
X-18168861Y2683000D01*
X-18168861Y2683000D02*
X-18121242Y2730620D01*
X-18121242Y2730620D02*
X-18073623Y2825858D01*
X-18073623Y2825858D02*
X-18073623Y3635381D01*
D12*
X-632343Y-6146403D02*
X-575200Y-6203546D01*
X-575200Y-6203546D02*
X-518058Y-6374974D01*
X-518058Y-6374974D02*
X-518058Y-6489260D01*
X-518058Y-6489260D02*
X-575200Y-6660689D01*
X-575200Y-6660689D02*
X-689486Y-6774974D01*
X-689486Y-6774974D02*
X-803772Y-6832117D01*
X-803772Y-6832117D02*
X-1032343Y-6889260D01*
X-1032343Y-6889260D02*
X-1203772Y-6889260D01*
X-1203772Y-6889260D02*
X-1432343Y-6832117D01*
X-1432343Y-6832117D02*
X-1546629Y-6774974D01*
X-1546629Y-6774974D02*
X-1660915Y-6660689D01*
X-1660915Y-6660689D02*
X-1718058Y-6489260D01*
X-1718058Y-6489260D02*
X-1718058Y-6374974D01*
X-1718058Y-6374974D02*
X-1660915Y-6203546D01*
X-1660915Y-6203546D02*
X-1603772Y-6146403D01*
X-518058Y-5632117D02*
X-1718058Y-5632117D01*
X-1718058Y-5632117D02*
X-1718058Y-5174974D01*
X-1718058Y-5174974D02*
X-1660915Y-5060689D01*
X-1660915Y-5060689D02*
X-1603772Y-5003546D01*
X-1603772Y-5003546D02*
X-1489486Y-4946403D01*
X-1489486Y-4946403D02*
X-1318058Y-4946403D01*
X-1318058Y-4946403D02*
X-1203772Y-5003546D01*
X-1203772Y-5003546D02*
X-1146629Y-5060689D01*
X-1146629Y-5060689D02*
X-1089486Y-5174974D01*
X-1089486Y-5174974D02*
X-1089486Y-5632117D01*
X-1718058Y-4432117D02*
X-746629Y-4432117D01*
X-746629Y-4432117D02*
X-632343Y-4374974D01*
X-632343Y-4374974D02*
X-575200Y-4317832D01*
X-575200Y-4317832D02*
X-518058Y-4203546D01*
X-518058Y-4203546D02*
X-518058Y-3974974D01*
X-518058Y-3974974D02*
X-575200Y-3860689D01*
X-575200Y-3860689D02*
X-632343Y-3803546D01*
X-632343Y-3803546D02*
X-746629Y-3746403D01*
X-746629Y-3746403D02*
X-1718058Y-3746403D01*
D10*
X14446286Y-18109128D02*
X13732000Y-18109128D01*
X13732000Y-18109128D02*
X13660572Y-18823414D01*
X13660572Y-18823414D02*
X13732000Y-18751985D01*
X13732000Y-18751985D02*
X13874858Y-18680557D01*
X13874858Y-18680557D02*
X14232000Y-18680557D01*
X14232000Y-18680557D02*
X14374858Y-18751985D01*
X14374858Y-18751985D02*
X14446286Y-18823414D01*
X14446286Y-18823414D02*
X14517715Y-18966271D01*
X14517715Y-18966271D02*
X14517715Y-19323414D01*
X14517715Y-19323414D02*
X14446286Y-19466271D01*
X14446286Y-19466271D02*
X14374858Y-19537700D01*
X14374858Y-19537700D02*
X14232000Y-19609128D01*
X14232000Y-19609128D02*
X13874858Y-19609128D01*
X13874858Y-19609128D02*
X13732000Y-19537700D01*
X13732000Y-19537700D02*
X13660572Y-19466271D01*
X14946286Y-18109128D02*
X15446286Y-19609128D01*
X15446286Y-19609128D02*
X15946286Y-18109128D01*
D12*
X19922471Y17187800D02*
X18422471Y16187800D01*
X19922471Y16187800D02*
X18422471Y17187800D01*
X20024071Y13631800D02*
X20024071Y12631800D01*
X20024071Y12631800D02*
X18524071Y13631800D01*
X18524071Y13631800D02*
X18524071Y12631800D01*
D10*
X19857019Y15938715D02*
X20666542Y15938715D01*
X20666542Y15938715D02*
X20761780Y15986334D01*
X20761780Y15986334D02*
X20809400Y16033953D01*
X20809400Y16033953D02*
X20857019Y16129191D01*
X20857019Y16129191D02*
X20857019Y16319667D01*
X20857019Y16319667D02*
X20809400Y16414905D01*
X20809400Y16414905D02*
X20761780Y16462524D01*
X20761780Y16462524D02*
X20666542Y16510143D01*
X20666542Y16510143D02*
X19857019Y16510143D01*
X20857019Y17510143D02*
X20857019Y16938715D01*
X20857019Y17224429D02*
X19857019Y17224429D01*
X19857019Y17224429D02*
X19999876Y17129191D01*
X19999876Y17129191D02*
X20095114Y17033953D01*
X20095114Y17033953D02*
X20142733Y16938715D01*
X19857019Y18129191D02*
X19857019Y18224429D01*
X19857019Y18224429D02*
X19904638Y18319667D01*
X19904638Y18319667D02*
X19952257Y18367286D01*
X19952257Y18367286D02*
X20047495Y18414905D01*
X20047495Y18414905D02*
X20237971Y18462524D01*
X20237971Y18462524D02*
X20476066Y18462524D01*
X20476066Y18462524D02*
X20666542Y18414905D01*
X20666542Y18414905D02*
X20761780Y18367286D01*
X20761780Y18367286D02*
X20809400Y18319667D01*
X20809400Y18319667D02*
X20857019Y18224429D01*
X20857019Y18224429D02*
X20857019Y18129191D01*
X20857019Y18129191D02*
X20809400Y18033953D01*
X20809400Y18033953D02*
X20761780Y17986334D01*
X20761780Y17986334D02*
X20666542Y17938715D01*
X20666542Y17938715D02*
X20476066Y17891096D01*
X20476066Y17891096D02*
X20237971Y17891096D01*
X20237971Y17891096D02*
X20047495Y17938715D01*
X20047495Y17938715D02*
X19952257Y17986334D01*
X19952257Y17986334D02*
X19904638Y18033953D01*
X19904638Y18033953D02*
X19857019Y18129191D01*
X19952257Y18843477D02*
X19904638Y18891096D01*
X19904638Y18891096D02*
X19857019Y18986334D01*
X19857019Y18986334D02*
X19857019Y19224429D01*
X19857019Y19224429D02*
X19904638Y19319667D01*
X19904638Y19319667D02*
X19952257Y19367286D01*
X19952257Y19367286D02*
X20047495Y19414905D01*
X20047495Y19414905D02*
X20142733Y19414905D01*
X20142733Y19414905D02*
X20285590Y19367286D01*
X20285590Y19367286D02*
X20857019Y18795858D01*
X20857019Y18795858D02*
X20857019Y19414905D01*
X14920228Y-1110704D02*
X15377371Y-1110704D01*
X15148799Y-1110704D02*
X15148799Y-1910704D01*
X15148799Y-1910704D02*
X15224990Y-1796419D01*
X15224990Y-1796419D02*
X15301180Y-1720228D01*
X15301180Y-1720228D02*
X15377371Y-1682133D01*
D15*
X-6438858Y-15211700D02*
X-5753143Y-15211700D01*
X-6096001Y-15554557D02*
X-6096001Y-14868842D01*
D10*
X3449534Y-6954819D02*
X2973344Y-6954819D01*
X2973344Y-6954819D02*
X2973344Y-5954819D01*
X3782868Y-6431009D02*
X4116201Y-6431009D01*
X4259058Y-6954819D02*
X3782868Y-6954819D01*
X3782868Y-6954819D02*
X3782868Y-5954819D01*
X3782868Y-5954819D02*
X4259058Y-5954819D01*
X4687630Y-6954819D02*
X4687630Y-5954819D01*
X4687630Y-5954819D02*
X4925725Y-5954819D01*
X4925725Y-5954819D02*
X5068582Y-6002438D01*
X5068582Y-6002438D02*
X5163820Y-6097676D01*
X5163820Y-6097676D02*
X5211439Y-6192914D01*
X5211439Y-6192914D02*
X5259058Y-6383390D01*
X5259058Y-6383390D02*
X5259058Y-6526247D01*
X5259058Y-6526247D02*
X5211439Y-6716723D01*
X5211439Y-6716723D02*
X5163820Y-6811961D01*
X5163820Y-6811961D02*
X5068582Y-6907200D01*
X5068582Y-6907200D02*
X4925725Y-6954819D01*
X4925725Y-6954819D02*
X4687630Y-6954819D01*
X5640011Y-6907200D02*
X5782868Y-6954819D01*
X5782868Y-6954819D02*
X6020963Y-6954819D01*
X6020963Y-6954819D02*
X6116201Y-6907200D01*
X6116201Y-6907200D02*
X6163820Y-6859580D01*
X6163820Y-6859580D02*
X6211439Y-6764342D01*
X6211439Y-6764342D02*
X6211439Y-6669104D01*
X6211439Y-6669104D02*
X6163820Y-6573866D01*
X6163820Y-6573866D02*
X6116201Y-6526247D01*
X6116201Y-6526247D02*
X6020963Y-6478628D01*
X6020963Y-6478628D02*
X5830487Y-6431009D01*
X5830487Y-6431009D02*
X5735249Y-6383390D01*
X5735249Y-6383390D02*
X5687630Y-6335771D01*
X5687630Y-6335771D02*
X5640011Y-6240533D01*
X5640011Y-6240533D02*
X5640011Y-6145295D01*
X5640011Y-6145295D02*
X5687630Y-6050057D01*
X5687630Y-6050057D02*
X5735249Y-6002438D01*
X5735249Y-6002438D02*
X5830487Y-5954819D01*
X5830487Y-5954819D02*
X6068582Y-5954819D01*
X6068582Y-5954819D02*
X6211439Y-6002438D01*
X14896628Y-8273504D02*
X15353771Y-8273504D01*
X15125199Y-8273504D02*
X15125199Y-9073504D01*
X15125199Y-9073504D02*
X15201390Y-8959219D01*
X15201390Y-8959219D02*
X15277580Y-8883028D01*
X15277580Y-8883028D02*
X15353771Y-8844933D01*
X14920228Y6001296D02*
X15377371Y6001296D01*
X15148799Y6001296D02*
X15148799Y5201296D01*
X15148799Y5201296D02*
X15224990Y5315581D01*
X15224990Y5315581D02*
X15301180Y5391772D01*
X15301180Y5391772D02*
X15377371Y5429867D01*
D13*
%TO.C,U102*%
X21377200Y16193000D02*
X21017200Y16553000D01*
X21377200Y16553000D01*
X21377200Y16193000D01*
G36*
X21377200Y16193000D02*
G01*
X21017200Y16553000D01*
X21377200Y16553000D01*
X21377200Y16193000D01*
G37*
X23577200Y18753000D02*
X23577200Y18253000D01*
X23077200Y18753000D02*
X23577200Y18753000D01*
X21877200Y18753000D02*
X21877200Y18753000D01*
X21377200Y18753000D02*
X21877200Y18753000D01*
X23577200Y18253000D02*
X23577200Y18253000D01*
X21377200Y18253000D02*
X21377200Y18753000D01*
X23577200Y17053000D02*
X23577200Y16553000D01*
X21377200Y17053000D02*
X21377200Y16753000D01*
X23577200Y16553000D02*
X23077200Y16553000D01*
X23077200Y16553000D02*
X23077200Y16553000D01*
X21877200Y16553000D02*
X21577200Y16553000D01*
X21377200Y16553000D02*
X21377200Y16553000D01*
%TO.C,U105*%
X-3668200Y8026400D02*
X-3668200Y8826400D01*
X-3668200Y8026400D02*
X-3668200Y7226400D01*
X-548200Y8026400D02*
X-548200Y8826400D01*
X-548200Y8026400D02*
X-548200Y7226400D01*
X-3618200Y6726400D02*
X-3948200Y6486400D01*
X-3948200Y6966400D01*
X-3618200Y6726400D01*
G36*
X-3618200Y6726400D02*
G01*
X-3948200Y6486400D01*
X-3948200Y6966400D01*
X-3618200Y6726400D01*
G37*
D15*
%TO.C,C124*%
X15604200Y17719000D02*
X15604200Y19619000D01*
X16004200Y17319000D02*
X16504200Y17319000D01*
X16504200Y20019000D02*
X16004200Y20019000D01*
X16904200Y19619000D02*
X16904200Y17719000D01*
X15604200Y19619000D02*
G75*
G02*
X16004200Y20019000I399999J1D01*
G01*
X16004200Y17319000D02*
G75*
G02*
X15604200Y17719000I0J400000D01*
G01*
X16504200Y20019000D02*
G75*
G02*
X16904200Y19619000I1J-399999D01*
G01*
X16904200Y17719000D02*
G75*
G02*
X16504200Y17319000I-400000J0D01*
G01*
%TO.C,C123*%
X15604200Y14962400D02*
X15604200Y16862400D01*
X16004200Y14562400D02*
X16504200Y14562400D01*
X16504200Y17262400D02*
X16004200Y17262400D01*
X16904200Y16862400D02*
X16904200Y14962400D01*
X15604200Y16862400D02*
G75*
G02*
X16004200Y17262400I399999J1D01*
G01*
X16004200Y14562400D02*
G75*
G02*
X15604200Y14962400I0J400000D01*
G01*
X16504200Y17262400D02*
G75*
G02*
X16904200Y16862400I1J-399999D01*
G01*
X16904200Y14962400D02*
G75*
G02*
X16504200Y14562400I-400000J0D01*
G01*
%TO.C,C112*%
X-14685000Y-11764200D02*
X-14685000Y-12264200D01*
X-14285000Y-11364200D02*
X-12385000Y-11364200D01*
X-12385000Y-12664200D02*
X-14285000Y-12664200D01*
X-11985000Y-12264200D02*
X-11985000Y-11764200D01*
X-14685000Y-11764200D02*
G75*
G02*
X-14285000Y-11364200I399999J1D01*
G01*
X-14285000Y-12664200D02*
G75*
G02*
X-14685000Y-12264200I-1J399999D01*
G01*
X-12385000Y-11364200D02*
G75*
G02*
X-11985000Y-11764200I0J-400000D01*
G01*
X-11985000Y-12264200D02*
G75*
G02*
X-12385000Y-12664200I-400000J0D01*
G01*
%TO.C,C107*%
X-21748000Y-11815000D02*
X-21748000Y-12315000D01*
X-21348000Y-11415000D02*
X-19448000Y-11415000D01*
X-19448000Y-12715000D02*
X-21348000Y-12715000D01*
X-19048000Y-12315000D02*
X-19048000Y-11815000D01*
X-21748000Y-11815000D02*
G75*
G02*
X-21348000Y-11415000I399999J1D01*
G01*
X-21348000Y-12715000D02*
G75*
G02*
X-21748000Y-12315000I-1J399999D01*
G01*
X-19448000Y-11415000D02*
G75*
G02*
X-19048000Y-11815000I0J-400000D01*
G01*
X-19048000Y-12315000D02*
G75*
G02*
X-19448000Y-12715000I-400000J0D01*
G01*
%TO.C,C101*%
X-23424400Y17522000D02*
X-23424400Y17022000D01*
X-23024400Y17922000D02*
X-21124400Y17922000D01*
X-21124400Y16622000D02*
X-23024400Y16622000D01*
X-20724400Y17022000D02*
X-20724400Y17522000D01*
X-23424400Y17522000D02*
G75*
G02*
X-23024400Y17922000I400000J0D01*
G01*
X-23024400Y16622000D02*
G75*
G02*
X-23424400Y17022000I0J400000D01*
G01*
X-21124400Y17922000D02*
G75*
G02*
X-20724400Y17522000I1J-399999D01*
G01*
X-20724400Y17022000D02*
G75*
G02*
X-21124400Y16622000I-399999J-1D01*
G01*
D13*
%TO.C,D102*%
X7648800Y2427000D02*
X7648800Y-2623000D01*
X8098800Y2877000D02*
X7648800Y2427000D01*
X8448800Y1027000D02*
X8448800Y-773000D01*
X13848800Y1027000D02*
X13848800Y-773000D01*
X14648800Y2877000D02*
X8098800Y2877000D01*
X14648800Y-2623000D02*
X7648800Y-2623000D01*
X14648800Y-2623000D02*
X14648800Y2877000D01*
D15*
%TO.C,R106*%
X3132400Y-4480800D02*
X3132400Y-5780800D01*
X3132400Y-4480800D02*
X5832400Y-4480800D01*
X5832400Y-5780800D02*
X3132400Y-5780800D01*
X5832400Y-5780800D02*
X5832400Y-4480800D01*
%TO.C,U104*%
X21511200Y-11251300D02*
X18011200Y-11251300D01*
X21511200Y-17951300D02*
X18011200Y-17951300D01*
D13*
%TO.C,Q101*%
X-7630600Y-11961100D02*
X-7630600Y-11311100D01*
X-7630600Y-11961100D02*
X-7630600Y-12611100D01*
X-4510600Y-11961100D02*
X-4510600Y-11311100D01*
X-4510600Y-11961100D02*
X-4510600Y-12611100D01*
X-4230600Y-11038600D02*
X-4560600Y-10798600D01*
X-4230600Y-10558600D01*
X-4230600Y-11038600D01*
G36*
X-4230600Y-11038600D02*
G01*
X-4560600Y-10798600D01*
X-4230600Y-10558600D01*
X-4230600Y-11038600D01*
G37*
D15*
%TO.C,C109*%
X11883400Y-3179000D02*
X11883400Y-3679000D01*
X12283400Y-2779000D02*
X14183400Y-2779000D01*
X14183400Y-4079000D02*
X12283400Y-4079000D01*
X14583400Y-3679000D02*
X14583400Y-3179000D01*
X11883400Y-3179000D02*
G75*
G02*
X12283400Y-2779000I400000J0D01*
G01*
X12283400Y-4079000D02*
G75*
G02*
X11883400Y-3679000I0J400000D01*
G01*
X14183400Y-2779000D02*
G75*
G02*
X14583400Y-3179000I1J-399999D01*
G01*
X14583400Y-3679000D02*
G75*
G02*
X14183400Y-4079000I-399999J-1D01*
G01*
%TO.C,D105*%
X4230800Y10390000D02*
X4622800Y10790000D01*
X4230800Y6990000D02*
X4230800Y10390000D01*
X4230800Y6990000D02*
X6030800Y6990000D01*
X5630800Y10790000D02*
X4630800Y10790000D01*
X6030800Y10390000D02*
X5630800Y10790000D01*
X6030800Y10390000D02*
X6030800Y6990000D01*
D16*
G36*
X5280800Y8890000D02*
G01*
X5580800Y8890000D01*
X5580800Y8590000D01*
X4680800Y8590000D01*
X4680800Y8890000D01*
X4980800Y8890000D01*
X4980800Y9190000D01*
X5280800Y9190000D01*
X5280800Y8890000D01*
G37*
D15*
%TO.C,C108*%
X-24604000Y-15301000D02*
X-24604000Y-13401000D01*
X-24204000Y-15701000D02*
X-23704000Y-15701000D01*
X-23704000Y-13001000D02*
X-24204000Y-13001000D01*
X-23304000Y-13401000D02*
X-23304000Y-15301000D01*
X-24604000Y-13401000D02*
G75*
G02*
X-24204000Y-13001000I400000J0D01*
G01*
X-24204000Y-15701000D02*
G75*
G02*
X-24604000Y-15301000I-1J399999D01*
G01*
X-23704000Y-13001000D02*
G75*
G02*
X-23304000Y-13401000I0J-400000D01*
G01*
X-23304000Y-15301000D02*
G75*
G02*
X-23704000Y-15701000I-399999J-1D01*
G01*
%TO.C,R107*%
X6208000Y-181600D02*
X6208000Y2518400D01*
X6208000Y-181600D02*
X7508000Y-181600D01*
X7508000Y2518400D02*
X6208000Y2518400D01*
X7508000Y2518400D02*
X7508000Y-181600D01*
%TO.C,R111*%
X-192800Y4238000D02*
X-192800Y6938000D01*
X-192800Y4238000D02*
X1107200Y4238000D01*
X1107200Y6938000D02*
X-192800Y6938000D01*
X1107200Y6938000D02*
X1107200Y4238000D01*
%TO.C,C125*%
X-17479000Y-10291000D02*
X-17479000Y-10791000D01*
X-17079000Y-9891000D02*
X-15179000Y-9891000D01*
X-15179000Y-11191000D02*
X-17079000Y-11191000D01*
X-14779000Y-10791000D02*
X-14779000Y-10291000D01*
X-17479000Y-10291000D02*
G75*
G02*
X-17079000Y-9891000I399999J1D01*
G01*
X-17079000Y-11191000D02*
G75*
G02*
X-17479000Y-10791000I-1J399999D01*
G01*
X-15179000Y-9891000D02*
G75*
G02*
X-14779000Y-10291000I0J-400000D01*
G01*
X-14779000Y-10791000D02*
G75*
G02*
X-15179000Y-11191000I-400000J0D01*
G01*
%TO.C,D104*%
X-6896000Y-17943400D02*
X-6896000Y-16143400D01*
X-6246000Y-18593400D02*
X-5946000Y-18593400D01*
X-5296000Y-17943400D02*
X-5296000Y-16143400D01*
X-6246000Y-18593400D02*
G75*
G02*
X-6896000Y-17943400I1J650001D01*
G01*
X-5296000Y-17943400D02*
G75*
G02*
X-5946000Y-18593400I-650001J1D01*
G01*
%TO.C,C115*%
X14181800Y17719000D02*
X14181800Y19619000D01*
X14581800Y17319000D02*
X15081800Y17319000D01*
X15081800Y20019000D02*
X14581800Y20019000D01*
X15481800Y19619000D02*
X15481800Y17719000D01*
X14181800Y19619000D02*
G75*
G02*
X14581800Y20019000I399999J1D01*
G01*
X14581800Y17319000D02*
G75*
G02*
X14181800Y17719000I0J400000D01*
G01*
X15081800Y20019000D02*
G75*
G02*
X15481800Y19619000I1J-399999D01*
G01*
X15481800Y17719000D02*
G75*
G02*
X15081800Y17319000I-400000J0D01*
G01*
%TO.C,C110*%
X11908800Y3958400D02*
X11908800Y3458400D01*
X12308800Y4358400D02*
X14208800Y4358400D01*
X14208800Y3058400D02*
X12308800Y3058400D01*
X14608800Y3458400D02*
X14608800Y3958400D01*
X11908800Y3958400D02*
G75*
G02*
X12308800Y4358400I400000J0D01*
G01*
X12308800Y3058400D02*
G75*
G02*
X11908800Y3458400I0J400000D01*
G01*
X14208800Y4358400D02*
G75*
G02*
X14608800Y3958400I1J-399999D01*
G01*
X14608800Y3458400D02*
G75*
G02*
X14208800Y3058400I-399999J-1D01*
G01*
%TO.C,R102*%
X-7547600Y-14005800D02*
X-7547600Y-15305800D01*
X-7547600Y-14005800D02*
X-4847600Y-14005800D01*
X-4847600Y-15305800D02*
X-7547600Y-15305800D01*
X-4847600Y-15305800D02*
X-4847600Y-14005800D01*
%TO.C,C116*%
X21432000Y12061000D02*
X21432000Y11561000D01*
X21832000Y12461000D02*
X23732000Y12461000D01*
X23732000Y11161000D02*
X21832000Y11161000D01*
X24132000Y11561000D02*
X24132000Y12061000D01*
X21432000Y12061000D02*
G75*
G02*
X21832000Y12461000I399999J1D01*
G01*
X21832000Y11161000D02*
G75*
G02*
X21432000Y11561000I-1J399999D01*
G01*
X23732000Y12461000D02*
G75*
G02*
X24132000Y12061000I0J-400000D01*
G01*
X24132000Y11561000D02*
G75*
G02*
X23732000Y11161000I-400000J0D01*
G01*
%TO.C,C120*%
X9597400Y-13716300D02*
X9597400Y-14216300D01*
X9997400Y-13316300D02*
X11897400Y-13316300D01*
X11897400Y-14616300D02*
X9997400Y-14616300D01*
X12297400Y-14216300D02*
X12297400Y-13716300D01*
X9597400Y-13716300D02*
G75*
G02*
X9997400Y-13316300I400000J0D01*
G01*
X9997400Y-14616300D02*
G75*
G02*
X9597400Y-14216300I0J400000D01*
G01*
X11897400Y-13316300D02*
G75*
G02*
X12297400Y-13716300I1J-399999D01*
G01*
X12297400Y-14216300D02*
G75*
G02*
X11897400Y-14616300I-399999J-1D01*
G01*
%TO.C,TP101*%
X7200600Y-7594600D02*
G75*
G02*
X5800600Y-7594600I-700000J0D01*
G01*
X5800600Y-7594600D02*
G75*
G02*
X7200600Y-7594600I700000J0D01*
G01*
D13*
%TO.C,J101*%
X-19867600Y19673000D02*
X-4367600Y19673000D01*
X-19867600Y10553000D02*
X-19867600Y19673000D01*
X-18567600Y18363000D02*
X-14167600Y18363000D01*
X-18567600Y11863000D02*
X-18567600Y18363000D01*
X-14167600Y18363000D02*
X-14167600Y19673000D01*
X-14167600Y18363000D02*
X-14167600Y18363000D01*
X-10077600Y21063000D02*
X-9577600Y20063000D01*
X-10067600Y19673000D02*
X-10067600Y18363000D01*
X-10067600Y18363000D02*
X-5667600Y18363000D01*
X-9577600Y20063000D02*
X-9077600Y21063000D01*
X-9077600Y21063000D02*
X-10077600Y21063000D01*
X-5667600Y18363000D02*
X-5667600Y11863000D01*
X-5667600Y11863000D02*
X-18567600Y11863000D01*
X-4367600Y19673000D02*
X-4367600Y10553000D01*
X-4367600Y10553000D02*
X-19867600Y10553000D01*
D15*
%TO.C,R110*%
X6157200Y7489200D02*
X6157200Y10189200D01*
X6157200Y7489200D02*
X7457200Y7489200D01*
X7457200Y10189200D02*
X6157200Y10189200D01*
X7457200Y10189200D02*
X7457200Y7489200D01*
D13*
%TO.C,D101*%
X7625200Y-4735800D02*
X7625200Y-9785800D01*
X8075200Y-4285800D02*
X7625200Y-4735800D01*
X8425200Y-6135800D02*
X8425200Y-7935800D01*
X13825200Y-6135800D02*
X13825200Y-7935800D01*
X14625200Y-4285800D02*
X8075200Y-4285800D01*
X14625200Y-9785800D02*
X7625200Y-9785800D01*
X14625200Y-9785800D02*
X14625200Y-4285800D01*
D15*
%TO.C,C103*%
X-21748000Y-10291000D02*
X-21748000Y-10791000D01*
X-21348000Y-9891000D02*
X-19448000Y-9891000D01*
X-19448000Y-11191000D02*
X-21348000Y-11191000D01*
X-19048000Y-10791000D02*
X-19048000Y-10291000D01*
X-21748000Y-10291000D02*
G75*
G02*
X-21348000Y-9891000I399999J1D01*
G01*
X-21348000Y-11191000D02*
G75*
G02*
X-21748000Y-10791000I-1J399999D01*
G01*
X-19448000Y-9891000D02*
G75*
G02*
X-19048000Y-10291000I0J-400000D01*
G01*
X-19048000Y-10791000D02*
G75*
G02*
X-19448000Y-11191000I-400000J0D01*
G01*
%TO.C,C102*%
X-24542000Y-10291000D02*
X-24542000Y-10791000D01*
X-24142000Y-9891000D02*
X-22242000Y-9891000D01*
X-22242000Y-11191000D02*
X-24142000Y-11191000D01*
X-21842000Y-10791000D02*
X-21842000Y-10291000D01*
X-24542000Y-10291000D02*
G75*
G02*
X-24142000Y-9891000I400000J0D01*
G01*
X-24142000Y-11191000D02*
G75*
G02*
X-24542000Y-10791000I0J400000D01*
G01*
X-22242000Y-9891000D02*
G75*
G02*
X-21842000Y-10291000I1J-399999D01*
G01*
X-21842000Y-10791000D02*
G75*
G02*
X-22242000Y-11191000I-399999J-1D01*
G01*
%TO.C,R105*%
X-14685000Y-9916400D02*
X-14685000Y-11216400D01*
X-14685000Y-9916400D02*
X-11985000Y-9916400D01*
X-11985000Y-11216400D02*
X-14685000Y-11216400D01*
X-11985000Y-11216400D02*
X-11985000Y-9916400D01*
%TO.C,D108*%
X4281200Y2770000D02*
X4673200Y3170000D01*
X4281200Y-630000D02*
X4281200Y2770000D01*
X4281200Y-630000D02*
X6081200Y-630000D01*
X5681200Y3170000D02*
X4681200Y3170000D01*
X6081200Y2770000D02*
X5681200Y3170000D01*
X6081200Y2770000D02*
X6081200Y-630000D01*
D16*
G36*
X5331200Y1270000D02*
G01*
X5631200Y1270000D01*
X5631200Y970000D01*
X4731200Y970000D01*
X4731200Y1270000D01*
X5031200Y1270000D01*
X5031200Y1570000D01*
X5331200Y1570000D01*
X5331200Y1270000D01*
G37*
D13*
%TO.C,J108*%
X15174000Y10417000D02*
X24294000Y10417000D01*
X15174000Y-10163000D02*
X15174000Y10417000D01*
X16484000Y9117000D02*
X22984000Y9117000D01*
X16484000Y-8863000D02*
X16484000Y9117000D01*
X22984000Y9117000D02*
X22984000Y2177000D01*
X22984000Y2177000D02*
X22984000Y2177000D01*
X22984000Y2177000D02*
X24294000Y2177000D01*
X22984000Y-1923000D02*
X22984000Y-8863000D01*
X22984000Y-8863000D02*
X16484000Y-8863000D01*
X24294000Y10417000D02*
X24294000Y-10163000D01*
X24294000Y-1923000D02*
X22984000Y-1923000D01*
X24294000Y-10163000D02*
X15174000Y-10163000D01*
X24684000Y-4953000D02*
X25684000Y-5453000D01*
X25684000Y-4453000D02*
X24684000Y-4953000D01*
X25684000Y-5453000D02*
X25684000Y-4453000D01*
%TO.C,C114*%
X9763400Y17017948D02*
X9763400Y18440452D01*
X12483400Y17017948D02*
X12483400Y18440452D01*
D15*
%TO.C,C104*%
X-24542000Y-11815000D02*
X-24542000Y-12315000D01*
X-24142000Y-11415000D02*
X-22242000Y-11415000D01*
X-22242000Y-12715000D02*
X-24142000Y-12715000D01*
X-21842000Y-12315000D02*
X-21842000Y-11815000D01*
X-24542000Y-11815000D02*
G75*
G02*
X-24142000Y-11415000I400000J0D01*
G01*
X-24142000Y-12715000D02*
G75*
G02*
X-24542000Y-12315000I0J400000D01*
G01*
X-22242000Y-11415000D02*
G75*
G02*
X-21842000Y-11815000I1J-399999D01*
G01*
X-21842000Y-12315000D02*
G75*
G02*
X-22242000Y-12715000I-399999J-1D01*
G01*
%TO.C,R108*%
X2371800Y13019800D02*
X2371800Y11719800D01*
X2371800Y13019800D02*
X5071800Y13019800D01*
X5071800Y11719800D02*
X2371800Y11719800D01*
X5071800Y11719800D02*
X5071800Y13019800D01*
%TO.C,R109*%
X5344400Y4136400D02*
X5344400Y6836400D01*
X5344400Y4136400D02*
X6644400Y4136400D01*
X6644400Y6836400D02*
X5344400Y6836400D01*
X6644400Y6836400D02*
X6644400Y4136400D01*
%TO.C,C113*%
X12810200Y17719000D02*
X12810200Y19619000D01*
X13210200Y17319000D02*
X13710200Y17319000D01*
X13710200Y20019000D02*
X13210200Y20019000D01*
X14110200Y19619000D02*
X14110200Y17719000D01*
X12810200Y19619000D02*
G75*
G02*
X13210200Y20019000I400000J0D01*
G01*
X13210200Y17319000D02*
G75*
G02*
X12810200Y17719000I-1J399999D01*
G01*
X13710200Y20019000D02*
G75*
G02*
X14110200Y19619000I0J-400000D01*
G01*
X14110200Y17719000D02*
G75*
G02*
X13710200Y17319000I-399999J-1D01*
G01*
D13*
%TO.C,Q102*%
X1676400Y10754800D02*
X1026400Y10754800D01*
X1676400Y10754800D02*
X2326400Y10754800D01*
X1676400Y7634800D02*
X1026400Y7634800D01*
X1676400Y7634800D02*
X2326400Y7634800D01*
X3078900Y7354800D02*
X2598900Y7354800D01*
X2838900Y7684800D01*
X3078900Y7354800D01*
G36*
X3078900Y7354800D02*
G01*
X2598900Y7354800D01*
X2838900Y7684800D01*
X3078900Y7354800D01*
G37*
D15*
%TO.C,R101*%
X-23424400Y19446000D02*
X-23424400Y18146000D01*
X-23424400Y19446000D02*
X-20724400Y19446000D01*
X-20724400Y18146000D02*
X-23424400Y18146000D01*
X-20724400Y18146000D02*
X-20724400Y19446000D01*
D13*
%TO.C,J103*%
X-3015000Y19962800D02*
X-3015000Y18712800D01*
X-2725000Y19672800D02*
X-2725000Y13702800D01*
X-2725000Y13702800D02*
X7395000Y13702800D01*
X-2715000Y19662800D02*
X-2715000Y18912800D01*
X-2715000Y18912800D02*
X-915000Y18912800D01*
X-2715000Y17412800D02*
X-1965000Y17412800D01*
X-1965000Y17412800D02*
X-1965000Y14462800D01*
X-1965000Y14462800D02*
X2335000Y14462800D01*
X-1765000Y19962800D02*
X-3015000Y19962800D01*
X-915000Y19662800D02*
X-2715000Y19662800D01*
X-915000Y18912800D02*
X-915000Y19662800D01*
X585000Y19662800D02*
X585000Y18912800D01*
X585000Y18912800D02*
X4085000Y18912800D01*
X4085000Y19662800D02*
X585000Y19662800D01*
X4085000Y18912800D02*
X4085000Y19662800D01*
X5585000Y19662800D02*
X5585000Y18912800D01*
X5585000Y18912800D02*
X7385000Y18912800D01*
X6635000Y17412800D02*
X6635000Y14462800D01*
X6635000Y14462800D02*
X2335000Y14462800D01*
X7385000Y19662800D02*
X5585000Y19662800D01*
X7385000Y18912800D02*
X7385000Y19662800D01*
X7385000Y17412800D02*
X6635000Y17412800D01*
X7395000Y19672800D02*
X-2725000Y19672800D01*
X7395000Y13702800D02*
X7395000Y19672800D01*
D15*
%TO.C,C122*%
X14181800Y14963800D02*
X14181800Y16863800D01*
X14581800Y14563800D02*
X15081800Y14563800D01*
X15081800Y17263800D02*
X14581800Y17263800D01*
X15481800Y16863800D02*
X15481800Y14963800D01*
X14181800Y16863800D02*
G75*
G02*
X14581800Y17263800I399999J1D01*
G01*
X14581800Y14563800D02*
G75*
G02*
X14181800Y14963800I0J400000D01*
G01*
X15081800Y17263800D02*
G75*
G02*
X15481800Y16863800I1J-399999D01*
G01*
X15481800Y14963800D02*
G75*
G02*
X15081800Y14563800I-400000J0D01*
G01*
D13*
%TO.C,D103*%
X7648800Y9539000D02*
X7648800Y4489000D01*
X8098800Y9989000D02*
X7648800Y9539000D01*
X8448800Y8139000D02*
X8448800Y6339000D01*
X13848800Y8139000D02*
X13848800Y6339000D01*
X14648800Y9989000D02*
X8098800Y9989000D01*
X14648800Y4489000D02*
X7648800Y4489000D01*
X14648800Y4489000D02*
X14648800Y9989000D01*
D15*
%TO.C,C118*%
X9597400Y-15062500D02*
X9597400Y-15562500D01*
X9997400Y-14662500D02*
X11897400Y-14662500D01*
X11897400Y-15962500D02*
X9997400Y-15962500D01*
X12297400Y-15562500D02*
X12297400Y-15062500D01*
X9597400Y-15062500D02*
G75*
G02*
X9997400Y-14662500I400000J0D01*
G01*
X9997400Y-15962500D02*
G75*
G02*
X9597400Y-15562500I0J400000D01*
G01*
X11897400Y-14662500D02*
G75*
G02*
X12297400Y-15062500I1J-399999D01*
G01*
X12297400Y-15562500D02*
G75*
G02*
X11897400Y-15962500I-399999J-1D01*
G01*
%TO.C,FB101*%
X9536800Y11662800D02*
X9536800Y15362800D01*
X11236800Y15362800D02*
X11236800Y11662800D01*
D13*
%TO.C,C106*%
X-10861400Y-15493948D02*
X-10861400Y-16916452D01*
X-8141400Y-15493948D02*
X-8141400Y-16916452D01*
D15*
%TO.C,C111*%
X-537200Y12619800D02*
X-537200Y12119800D01*
X-137200Y13019800D02*
X1762800Y13019800D01*
X1762800Y11719800D02*
X-137200Y11719800D01*
X2162800Y12119800D02*
X2162800Y12619800D01*
X-537200Y12619800D02*
G75*
G02*
X-137200Y13019800I399999J1D01*
G01*
X-137200Y11719800D02*
G75*
G02*
X-537200Y12119800I-1J399999D01*
G01*
X1762800Y13019800D02*
G75*
G02*
X2162800Y12619800I0J-400000D01*
G01*
X2162800Y12119800D02*
G75*
G02*
X1762800Y11719800I-400000J0D01*
G01*
D13*
%TO.C,SW101*%
X-23733800Y13380800D02*
X-23733800Y16030800D01*
X-20973800Y16030800D02*
X-23733800Y16030800D01*
X-20973800Y13380800D02*
X-23733800Y13380800D01*
X-20973800Y13380800D02*
X-20973800Y16030800D01*
X-20973800Y12110800D02*
X-20973800Y10730800D01*
X-20973800Y10730800D02*
X-22353800Y10730800D01*
D15*
%TO.C,C121*%
X12835600Y14950400D02*
X12835600Y16850400D01*
X13235600Y14550400D02*
X13735600Y14550400D01*
X13735600Y17250400D02*
X13235600Y17250400D01*
X14135600Y16850400D02*
X14135600Y14950400D01*
X12835600Y16850400D02*
G75*
G02*
X13235600Y17250400I400000J0D01*
G01*
X13235600Y14550400D02*
G75*
G02*
X12835600Y14950400I-1J399999D01*
G01*
X13735600Y17250400D02*
G75*
G02*
X14135600Y16850400I0J-400000D01*
G01*
X14135600Y14950400D02*
G75*
G02*
X13735600Y14550400I-399999J-1D01*
G01*
D13*
%TO.C,SW102*%
X-18372800Y-17129000D02*
X-18372800Y-15129000D01*
X-17322800Y-13829000D02*
X-16872800Y-13379000D01*
X-17322800Y-18429000D02*
X-16872800Y-18879000D01*
X-14372800Y-13379000D02*
X-16872800Y-13379000D01*
X-14372800Y-18879000D02*
X-16872800Y-18879000D01*
X-13922800Y-13829000D02*
X-14372800Y-13379000D01*
X-13922800Y-18429000D02*
X-14372800Y-18879000D01*
X-12872800Y-17129000D02*
X-12872800Y-15129000D01*
D15*
%TO.C,R104*%
X-3864600Y12918200D02*
X-3864600Y11618200D01*
X-3864600Y12918200D02*
X-1164600Y12918200D01*
X-1164600Y11618200D02*
X-3864600Y11618200D01*
X-1164600Y11618200D02*
X-1164600Y12918200D01*
D13*
%TO.C,C119*%
X11684052Y-10294900D02*
X10261548Y-10294900D01*
X11684052Y-13014900D02*
X10261548Y-13014900D01*
%TO.C,C117*%
X11658652Y-16314700D02*
X10236148Y-16314700D01*
X11658652Y-19034700D02*
X10236148Y-19034700D01*
D15*
%TO.C,R103*%
X-3864600Y11572000D02*
X-3864600Y10272000D01*
X-3864600Y11572000D02*
X-1164600Y11572000D01*
X-1164600Y10272000D02*
X-3864600Y10272000D01*
X-1164600Y10272000D02*
X-1164600Y11572000D01*
D13*
%TO.C,U103*%
X-9855200Y-10047800D02*
X-10655200Y-10047800D01*
X-9855200Y-10047800D02*
X-9055200Y-10047800D01*
X-9855200Y-13167800D02*
X-10655200Y-13167800D01*
X-9855200Y-13167800D02*
X-9055200Y-13167800D01*
X-8315200Y-13447800D02*
X-8795200Y-13447800D01*
X-8555200Y-13117800D01*
X-8315200Y-13447800D01*
G36*
X-8315200Y-13447800D02*
G01*
X-8795200Y-13447800D01*
X-8555200Y-13117800D01*
X-8315200Y-13447800D01*
G37*
D15*
%TO.C,U101*%
X-30573000Y9227000D02*
X-23988000Y9227000D01*
X-30573000Y-8973000D02*
X-30573000Y9227000D01*
X-30573000Y-8973000D02*
X-23988000Y-8973000D01*
X-5478000Y9227000D02*
X-4873000Y9227000D01*
X-5478000Y-8973000D02*
X-4873000Y-8973000D01*
X-4873000Y9227000D02*
X-4873000Y6842000D01*
X-4873000Y-8973000D02*
X-4873000Y-6588000D01*
%TO.C,BZ101*%
X232800Y-16063600D02*
X932800Y-16063600D01*
X582800Y-16413600D02*
X582800Y-15713600D01*
X8082800Y-13563600D02*
G75*
G02*
X-3917200Y-13563600I-6000000J0D01*
G01*
X-3917200Y-13563600D02*
G75*
G02*
X8082800Y-13563600I6000000J0D01*
G01*
D13*
%TO.C,C105*%
X-23028000Y-14401748D02*
X-23028000Y-15824252D01*
X-20308000Y-14401748D02*
X-20308000Y-15824252D01*
%TO.C,Q117*%
X3251200Y7162100D02*
X2601200Y7162100D01*
X3251200Y7162100D02*
X3901200Y7162100D01*
X3251200Y4042100D02*
X2601200Y4042100D01*
X3251200Y4042100D02*
X3901200Y4042100D01*
X2088700Y7112100D02*
X1848700Y7442100D01*
X2328700Y7442100D01*
X2088700Y7112100D01*
G36*
X2088700Y7112100D02*
G01*
X1848700Y7442100D01*
X2328700Y7442100D01*
X2088700Y7112100D01*
G37*
%TD*%
%LPC*%
D17*
%TO.C,U102*%
X21714700Y17403000D03*
X21714700Y17903000D03*
D18*
X21727200Y18415500D03*
X22227200Y18415500D03*
X22727200Y18415500D03*
X23227200Y18415500D03*
D17*
X23239700Y17903000D03*
X23239700Y17403000D03*
D18*
X23227200Y16890500D03*
X22727200Y16890500D03*
X22227200Y16890500D03*
X21727200Y16890500D03*
%TD*%
D19*
%TO.C,U105*%
X-3058200Y6888900D03*
X-2108200Y6888900D03*
X-1158200Y6888900D03*
X-1158200Y9163900D03*
X-2108200Y9163900D03*
X-3058200Y9163900D03*
%TD*%
D20*
%TO.C,C124*%
X16254200Y19419000D03*
X16254200Y17919000D03*
%TD*%
%TO.C,C123*%
X16254200Y16662400D03*
X16254200Y15162400D03*
%TD*%
D21*
%TO.C,C112*%
X-14085000Y-12014200D03*
X-12585000Y-12014200D03*
%TD*%
%TO.C,C107*%
X-21148000Y-12065000D03*
X-19648000Y-12065000D03*
%TD*%
D22*
%TO.C,C101*%
X-21324400Y17272000D03*
X-22824400Y17272000D03*
%TD*%
D23*
%TO.C,D102*%
X13598800Y-1523000D03*
X13598800Y1777000D03*
X8698800Y1777000D03*
X8698800Y-1523000D03*
%TD*%
D22*
%TO.C,R106*%
X5232400Y-5130800D03*
X3732400Y-5130800D03*
%TD*%
D24*
%TO.C,U104*%
X16713200Y-12301300D03*
D25*
X16713200Y-14601300D03*
D26*
X22761200Y-14601300D03*
D24*
X16713200Y-16901300D03*
%TD*%
D27*
%TO.C,Q101*%
X-5120600Y-11023600D03*
X-7020600Y-11023600D03*
X-6070600Y-12898600D03*
%TD*%
D22*
%TO.C,C109*%
X13983400Y-3429000D03*
X12483400Y-3429000D03*
%TD*%
D28*
%TO.C,H101*%
X0Y0D03*
%TD*%
D29*
%TO.C,D105*%
X5130800Y9890000D03*
X5130800Y7890000D03*
%TD*%
D30*
%TO.C,C108*%
X-23954000Y-15101000D03*
X-23954000Y-13601000D03*
%TD*%
%TO.C,R107*%
X6858000Y418400D03*
X6858000Y1918400D03*
%TD*%
D20*
%TO.C,R111*%
X457200Y6338000D03*
X457200Y4838000D03*
%TD*%
D21*
%TO.C,C125*%
X-16879000Y-10541000D03*
X-15379000Y-10541000D03*
%TD*%
D31*
%TO.C,D104*%
X-6096000Y-18093400D03*
X-6096000Y-15993400D03*
%TD*%
D20*
%TO.C,C115*%
X14831800Y19419000D03*
X14831800Y17919000D03*
%TD*%
D22*
%TO.C,C110*%
X14008800Y3708400D03*
X12508800Y3708400D03*
%TD*%
%TO.C,R102*%
X-5447600Y-14655800D03*
X-6947600Y-14655800D03*
%TD*%
D21*
%TO.C,C116*%
X22032000Y11811000D03*
X23532000Y11811000D03*
%TD*%
D22*
%TO.C,C120*%
X11697400Y-13966300D03*
X10197400Y-13966300D03*
%TD*%
D32*
%TO.C,TP101*%
X6500600Y-7594600D03*
%TD*%
D33*
%TO.C,J101*%
X-9577600Y16383000D03*
D34*
X-9577600Y13843000D03*
X-12117600Y16383000D03*
X-12117600Y13843000D03*
X-14657600Y16383000D03*
X-14657600Y13843000D03*
%TD*%
D30*
%TO.C,R110*%
X6807200Y8089200D03*
X6807200Y9589200D03*
%TD*%
D23*
%TO.C,D101*%
X13575200Y-8685800D03*
X13575200Y-5385800D03*
X8675200Y-5385800D03*
X8675200Y-8685800D03*
%TD*%
D21*
%TO.C,C103*%
X-21148000Y-10541000D03*
X-19648000Y-10541000D03*
%TD*%
D22*
%TO.C,C102*%
X-22442000Y-10541000D03*
X-23942000Y-10541000D03*
%TD*%
%TO.C,R105*%
X-12585000Y-10566400D03*
X-14085000Y-10566400D03*
%TD*%
D29*
%TO.C,D108*%
X5181200Y2270000D03*
X5181200Y270000D03*
%TD*%
D35*
%TO.C,J108*%
X21004000Y-4953000D03*
D34*
X18464000Y-4953000D03*
X21004000Y-2413000D03*
X18464000Y-2413000D03*
X21004000Y127000D03*
X18464000Y127000D03*
X21004000Y2667000D03*
X18464000Y2667000D03*
X21004000Y5207000D03*
X18464000Y5207000D03*
%TD*%
D36*
%TO.C,C114*%
X11123400Y16254200D03*
X11123400Y19204200D03*
%TD*%
D22*
%TO.C,C104*%
X-22442000Y-12065000D03*
X-23942000Y-12065000D03*
%TD*%
D21*
%TO.C,R108*%
X2971800Y12369800D03*
X4471800Y12369800D03*
%TD*%
D30*
%TO.C,R109*%
X5994400Y4736400D03*
X5994400Y6236400D03*
%TD*%
%TO.C,C113*%
X13460200Y17919000D03*
X13460200Y19419000D03*
%TD*%
D37*
%TO.C,Q102*%
X2613900Y8244800D03*
X2613900Y10144800D03*
X738900Y9194800D03*
%TD*%
D22*
%TO.C,R101*%
X-21324400Y18796000D03*
X-22824400Y18796000D03*
%TD*%
D38*
%TO.C,J103*%
X-165000Y17212800D03*
D39*
X2335000Y17212800D03*
X4835000Y17212800D03*
%TD*%
D20*
%TO.C,C122*%
X14831800Y16663800D03*
X14831800Y15163800D03*
%TD*%
D23*
%TO.C,D103*%
X13598800Y5589000D03*
X13598800Y8889000D03*
X8698800Y8889000D03*
X8698800Y5589000D03*
%TD*%
D22*
%TO.C,C118*%
X11697400Y-15312500D03*
X10197400Y-15312500D03*
%TD*%
D40*
%TO.C,FB101*%
X10386800Y12412800D03*
X10386800Y14612800D03*
%TD*%
D41*
%TO.C,C106*%
X-9501400Y-14730200D03*
X-9501400Y-17680200D03*
%TD*%
D21*
%TO.C,C111*%
X62800Y12369800D03*
X1562800Y12369800D03*
%TD*%
D42*
%TO.C,SW101*%
X-22353800Y12110800D03*
D34*
X-22353800Y14650800D03*
%TD*%
D30*
%TO.C,C121*%
X13485600Y15150400D03*
X13485600Y16650400D03*
%TD*%
D43*
%TO.C,SW102*%
X-12472800Y-18029000D03*
X-18772800Y-18029000D03*
X-12472800Y-14229000D03*
X-18772800Y-14229000D03*
%TD*%
D22*
%TO.C,R104*%
X-1764600Y12268200D03*
X-3264600Y12268200D03*
%TD*%
D44*
%TO.C,C119*%
X12447800Y-11654900D03*
X9497800Y-11654900D03*
%TD*%
%TO.C,C117*%
X12422400Y-17674700D03*
X9472400Y-17674700D03*
%TD*%
D22*
%TO.C,R103*%
X-1764600Y10922000D03*
X-3264600Y10922000D03*
%TD*%
D45*
%TO.C,U103*%
X-8717700Y-12557800D03*
X-8717700Y-11607800D03*
X-8717700Y-10657800D03*
X-10992700Y-10657800D03*
X-10992700Y-11607800D03*
X-10992700Y-12557800D03*
%TD*%
D46*
%TO.C,U101*%
X-22988000Y-8623000D03*
X-21718000Y-8623000D03*
X-20448000Y-8623000D03*
X-19178000Y-8623000D03*
X-17908000Y-8623000D03*
X-16638000Y-8623000D03*
X-15368000Y-8623000D03*
X-14098000Y-8623000D03*
X-12828000Y-8623000D03*
X-11558000Y-8623000D03*
X-10288000Y-8623000D03*
X-9018000Y-8623000D03*
X-7748000Y-8623000D03*
X-6478000Y-8623000D03*
D47*
X-5228000Y-5588000D03*
X-5228000Y-4318000D03*
X-5228000Y-3048000D03*
X-5228000Y-1778000D03*
X-5228000Y-508000D03*
X-5228000Y762000D03*
X-5228000Y2032000D03*
X-5228000Y3302000D03*
X-5228000Y4572000D03*
X-5228000Y5842000D03*
D46*
X-6478000Y8877000D03*
X-7748000Y8877000D03*
X-9018000Y8877000D03*
X-10288000Y8877000D03*
X-11558000Y8877000D03*
X-12828000Y8877000D03*
X-14098000Y8877000D03*
X-15368000Y8877000D03*
X-16638000Y8877000D03*
X-17908000Y8877000D03*
X-19178000Y8877000D03*
X-20448000Y8877000D03*
X-21718000Y8877000D03*
X-22988000Y8877000D03*
D48*
X-15643000Y-733000D03*
%TD*%
D49*
%TO.C,BZ101*%
X2082800Y-16813600D03*
D34*
X2082800Y-10313600D03*
%TD*%
D41*
%TO.C,C105*%
X-21668000Y-13638000D03*
X-21668000Y-16588000D03*
%TD*%
D50*
%TO.C,Q117*%
X2313700Y6552100D03*
X2313700Y4652100D03*
X4188700Y5602100D03*
%TD*%
%LPD*%
M02*
