%TF.GenerationSoftware,KiCad,Pcbnew,9.0.2*%
%TF.CreationDate,2025-06-19T10:12:08+02:00*%
%TF.ProjectId,Robobuoy-Sub-CPU-v2_1,526f626f-6275-46f7-992d-5375622d4350,2.0*%
%TF.SameCoordinates,Original*%
%TF.FileFunction,Soldermask,Top*%
%TF.FilePolarity,Negative*%
%FSLAX46Y46*%
G04 Gerber Fmt 4.6, Leading zero omitted, Abs format (unit mm)*
G04 Created by KiCad (PCBNEW 9.0.2) date 2025-06-19 10:12:08*
%MOMM*%
%LPD*%
G01*
G04 APERTURE LIST*
G04 Aperture macros list*
%AMRoundRect*
0 Rectangle with rounded corners*
0 $1 Rounding radius*
0 $2 $3 $4 $5 $6 $7 $8 $9 X,Y pos of 4 corners*
0 Add a 4 corners polygon primitive as box body*
4,1,4,$2,$3,$4,$5,$6,$7,$8,$9,$2,$3,0*
0 Add four circle primitives for the rounded corners*
1,1,$1+$1,$2,$3*
1,1,$1+$1,$4,$5*
1,1,$1+$1,$6,$7*
1,1,$1+$1,$8,$9*
0 Add four rect primitives between the rounded corners*
20,1,$1+$1,$2,$3,$4,$5,0*
20,1,$1+$1,$4,$5,$6,$7,0*
20,1,$1+$1,$6,$7,$8,$9,0*
20,1,$1+$1,$8,$9,$2,$3,0*%
G04 Aperture macros list end*
%ADD10RoundRect,0.190000X0.140000X0.140000X-0.140000X0.140000X-0.140000X-0.140000X0.140000X-0.140000X0*%
%ADD11RoundRect,0.190000X0.140000X-0.140000X0.140000X0.140000X-0.140000X0.140000X-0.140000X-0.140000X0*%
%ADD12RoundRect,0.150000X0.150000X-0.512500X0.150000X0.512500X-0.150000X0.512500X-0.150000X-0.512500X0*%
%ADD13RoundRect,0.200000X-0.250000X0.200000X-0.250000X-0.200000X0.250000X-0.200000X0.250000X0.200000X0*%
%ADD14RoundRect,0.200000X-0.200000X-0.250000X0.200000X-0.250000X0.200000X0.250000X-0.200000X0.250000X0*%
%ADD15RoundRect,0.200000X0.200000X0.250000X-0.200000X0.250000X-0.200000X-0.250000X0.200000X-0.250000X0*%
%ADD16RoundRect,0.090000X0.660000X0.360000X-0.660000X0.360000X-0.660000X-0.360000X0.660000X-0.360000X0*%
%ADD17RoundRect,0.300000X-0.700000X-0.300000X0.700000X-0.300000X0.700000X0.300000X-0.700000X0.300000X0*%
%ADD18RoundRect,0.317500X-0.698500X-0.317500X0.698500X-0.317500X0.698500X0.317500X-0.698500X0.317500X0*%
%ADD19RoundRect,0.500000X-0.500000X-1.100000X0.500000X-1.100000X0.500000X1.100000X-0.500000X1.100000X0*%
%ADD20RoundRect,0.150000X-0.150000X0.587500X-0.150000X-0.587500X0.150000X-0.587500X0.150000X0.587500X0*%
%ADD21RoundRect,0.300000X-0.400000X0.300000X-0.400000X-0.300000X0.400000X-0.300000X0.400000X0.300000X0*%
%ADD22RoundRect,0.200000X0.250000X-0.200000X0.250000X0.200000X-0.250000X0.200000X-0.250000X-0.200000X0*%
%ADD23RoundRect,0.112500X0.112500X-0.187500X0.112500X0.187500X-0.112500X0.187500X-0.112500X-0.187500X0*%
%ADD24C,1.000000*%
%ADD25RoundRect,0.250000X-0.600000X0.600000X-0.600000X-0.600000X0.600000X-0.600000X0.600000X0.600000X0*%
%ADD26C,1.700000*%
%ADD27RoundRect,0.250000X0.600000X0.600000X-0.600000X0.600000X-0.600000X-0.600000X0.600000X-0.600000X0*%
%ADD28RoundRect,0.250000X1.100000X-0.325000X1.100000X0.325000X-1.100000X0.325000X-1.100000X-0.325000X0*%
%ADD29RoundRect,0.150000X0.587500X0.150000X-0.587500X0.150000X-0.587500X-0.150000X0.587500X-0.150000X0*%
%ADD30RoundRect,0.250000X-0.600000X-0.725000X0.600000X-0.725000X0.600000X0.725000X-0.600000X0.725000X0*%
%ADD31O,1.700000X1.950000*%
%ADD32RoundRect,0.275000X0.375000X-0.275000X0.375000X0.275000X-0.375000X0.275000X-0.375000X-0.275000X0*%
%ADD33RoundRect,0.250000X-1.100000X0.325000X-1.100000X-0.325000X1.100000X-0.325000X1.100000X0.325000X0*%
%ADD34R,1.700000X1.700000*%
%ADD35R,1.700000X1.000000*%
%ADD36RoundRect,0.250000X0.325000X1.100000X-0.325000X1.100000X-0.325000X-1.100000X0.325000X-1.100000X0*%
%ADD37RoundRect,0.150000X0.512500X0.150000X-0.512500X0.150000X-0.512500X-0.150000X0.512500X-0.150000X0*%
%ADD38RoundRect,0.225000X0.225000X-0.525000X0.225000X0.525000X-0.225000X0.525000X-0.225000X-0.525000X0*%
%ADD39RoundRect,0.225000X0.525000X0.225000X-0.525000X0.225000X-0.525000X-0.225000X0.525000X-0.225000X0*%
%ADD40RoundRect,0.250000X2.250000X-2.250000X2.250000X2.250000X-2.250000X2.250000X-2.250000X-2.250000X0*%
%ADD41R,1.650000X1.650000*%
%ADD42RoundRect,0.150000X-0.587500X-0.150000X0.587500X-0.150000X0.587500X0.150000X-0.587500X0.150000X0*%
G04 APERTURE END LIST*
D10*
%TO.C,U102*%
X21714700Y17403000D03*
X21714700Y17903000D03*
D11*
X21727200Y18415500D03*
X22227200Y18415500D03*
X22727200Y18415500D03*
X23227200Y18415500D03*
D10*
X23239700Y17903000D03*
X23239700Y17403000D03*
D11*
X23227200Y16890500D03*
X22727200Y16890500D03*
X22227200Y16890500D03*
X21727200Y16890500D03*
%TD*%
D12*
%TO.C,U105*%
X-3058200Y6888900D03*
X-2108200Y6888900D03*
X-1158200Y6888900D03*
X-1158200Y9163900D03*
X-2108200Y9163900D03*
X-3058200Y9163900D03*
%TD*%
D13*
%TO.C,C124*%
X16254200Y19419000D03*
X16254200Y17919000D03*
%TD*%
%TO.C,C123*%
X16254200Y16662400D03*
X16254200Y15162400D03*
%TD*%
D14*
%TO.C,C112*%
X-14085000Y-12014200D03*
X-12585000Y-12014200D03*
%TD*%
%TO.C,C107*%
X-21148000Y-12065000D03*
X-19648000Y-12065000D03*
%TD*%
D15*
%TO.C,C101*%
X-21324400Y17272000D03*
X-22824400Y17272000D03*
%TD*%
D16*
%TO.C,D102*%
X13598800Y-1523000D03*
X13598800Y1777000D03*
X8698800Y1777000D03*
X8698800Y-1523000D03*
%TD*%
D15*
%TO.C,R106*%
X5232400Y-5130800D03*
X3732400Y-5130800D03*
%TD*%
D17*
%TO.C,U104*%
X16713200Y-12301300D03*
D18*
X16713200Y-14601300D03*
D19*
X22761200Y-14601300D03*
D17*
X16713200Y-16901300D03*
%TD*%
D20*
%TO.C,Q101*%
X-5120600Y-11023600D03*
X-7020600Y-11023600D03*
X-6070600Y-12898600D03*
%TD*%
D15*
%TO.C,C109*%
X13983400Y-3429000D03*
X12483400Y-3429000D03*
%TD*%
D21*
%TO.C,D105*%
X5130800Y9890000D03*
X5130800Y7890000D03*
%TD*%
D22*
%TO.C,C108*%
X-23954000Y-15101000D03*
X-23954000Y-13601000D03*
%TD*%
%TO.C,R107*%
X6858000Y418400D03*
X6858000Y1918400D03*
%TD*%
D13*
%TO.C,R111*%
X457200Y6338000D03*
X457200Y4838000D03*
%TD*%
D14*
%TO.C,C125*%
X-16879000Y-10541000D03*
X-15379000Y-10541000D03*
%TD*%
D23*
%TO.C,D104*%
X-6096000Y-18093400D03*
X-6096000Y-15993400D03*
%TD*%
D13*
%TO.C,C115*%
X14831800Y19419000D03*
X14831800Y17919000D03*
%TD*%
D15*
%TO.C,C110*%
X14008800Y3708400D03*
X12508800Y3708400D03*
%TD*%
%TO.C,R102*%
X-5447600Y-14655800D03*
X-6947600Y-14655800D03*
%TD*%
D14*
%TO.C,C116*%
X22032000Y11811000D03*
X23532000Y11811000D03*
%TD*%
D15*
%TO.C,C120*%
X11697400Y-13966300D03*
X10197400Y-13966300D03*
%TD*%
D24*
%TO.C,TP101*%
X6500600Y-7594600D03*
%TD*%
D25*
%TO.C,J101*%
X-9577600Y16383000D03*
D26*
X-9577600Y13843000D03*
X-12117600Y16383000D03*
X-12117600Y13843000D03*
X-14657600Y16383000D03*
X-14657600Y13843000D03*
%TD*%
D22*
%TO.C,R110*%
X6807200Y8089200D03*
X6807200Y9589200D03*
%TD*%
D16*
%TO.C,D101*%
X13575200Y-8685800D03*
X13575200Y-5385800D03*
X8675200Y-5385800D03*
X8675200Y-8685800D03*
%TD*%
D14*
%TO.C,C103*%
X-21148000Y-10541000D03*
X-19648000Y-10541000D03*
%TD*%
D15*
%TO.C,C102*%
X-22442000Y-10541000D03*
X-23942000Y-10541000D03*
%TD*%
%TO.C,R105*%
X-12585000Y-10566400D03*
X-14085000Y-10566400D03*
%TD*%
D21*
%TO.C,D108*%
X5181200Y2270000D03*
X5181200Y270000D03*
%TD*%
D27*
%TO.C,J108*%
X21004000Y-4953000D03*
D26*
X18464000Y-4953000D03*
X21004000Y-2413000D03*
X18464000Y-2413000D03*
X21004000Y127000D03*
X18464000Y127000D03*
X21004000Y2667000D03*
X18464000Y2667000D03*
X21004000Y5207000D03*
X18464000Y5207000D03*
%TD*%
D28*
%TO.C,C114*%
X11123400Y16254200D03*
X11123400Y19204200D03*
%TD*%
D15*
%TO.C,C104*%
X-22442000Y-12065000D03*
X-23942000Y-12065000D03*
%TD*%
D14*
%TO.C,R108*%
X2971800Y12369800D03*
X4471800Y12369800D03*
%TD*%
D22*
%TO.C,R109*%
X5994400Y4736400D03*
X5994400Y6236400D03*
%TD*%
%TO.C,C113*%
X13460200Y17919000D03*
X13460200Y19419000D03*
%TD*%
D29*
%TO.C,Q102*%
X2613900Y8244800D03*
X2613900Y10144800D03*
X738900Y9194800D03*
%TD*%
D15*
%TO.C,R101*%
X-21324400Y18796000D03*
X-22824400Y18796000D03*
%TD*%
D30*
%TO.C,J103*%
X-165000Y17212800D03*
D31*
X2335000Y17212800D03*
X4835000Y17212800D03*
%TD*%
D13*
%TO.C,C122*%
X14831800Y16663800D03*
X14831800Y15163800D03*
%TD*%
D16*
%TO.C,D103*%
X13598800Y5589000D03*
X13598800Y8889000D03*
X8698800Y8889000D03*
X8698800Y5589000D03*
%TD*%
D15*
%TO.C,C118*%
X11697400Y-15312500D03*
X10197400Y-15312500D03*
%TD*%
D32*
%TO.C,FB101*%
X10386800Y12412800D03*
X10386800Y14612800D03*
%TD*%
D33*
%TO.C,C106*%
X-9501400Y-14730200D03*
X-9501400Y-17680200D03*
%TD*%
D14*
%TO.C,C111*%
X62800Y12369800D03*
X1562800Y12369800D03*
%TD*%
D34*
%TO.C,SW101*%
X-22353800Y12110800D03*
D26*
X-22353800Y14650800D03*
%TD*%
D22*
%TO.C,C121*%
X13485600Y15150400D03*
X13485600Y16650400D03*
%TD*%
D35*
%TO.C,SW102*%
X-12472800Y-18029000D03*
X-18772800Y-18029000D03*
X-12472800Y-14229000D03*
X-18772800Y-14229000D03*
%TD*%
D15*
%TO.C,R104*%
X-1764600Y12268200D03*
X-3264600Y12268200D03*
%TD*%
D36*
%TO.C,C119*%
X12447800Y-11654900D03*
X9497800Y-11654900D03*
%TD*%
%TO.C,C117*%
X12422400Y-17674700D03*
X9472400Y-17674700D03*
%TD*%
D15*
%TO.C,R103*%
X-1764600Y10922000D03*
X-3264600Y10922000D03*
%TD*%
D37*
%TO.C,U103*%
X-8717700Y-12557800D03*
X-8717700Y-11607800D03*
X-8717700Y-10657800D03*
X-10992700Y-10657800D03*
X-10992700Y-11607800D03*
X-10992700Y-12557800D03*
%TD*%
D38*
%TO.C,U101*%
X-22988000Y-8623000D03*
X-21718000Y-8623000D03*
X-20448000Y-8623000D03*
X-19178000Y-8623000D03*
X-17908000Y-8623000D03*
X-16638000Y-8623000D03*
X-15368000Y-8623000D03*
X-14098000Y-8623000D03*
X-12828000Y-8623000D03*
X-11558000Y-8623000D03*
X-10288000Y-8623000D03*
X-9018000Y-8623000D03*
X-7748000Y-8623000D03*
X-6478000Y-8623000D03*
D39*
X-5228000Y-5588000D03*
X-5228000Y-4318000D03*
X-5228000Y-3048000D03*
X-5228000Y-1778000D03*
X-5228000Y-508000D03*
X-5228000Y762000D03*
X-5228000Y2032000D03*
X-5228000Y3302000D03*
X-5228000Y4572000D03*
X-5228000Y5842000D03*
D38*
X-6478000Y8877000D03*
X-7748000Y8877000D03*
X-9018000Y8877000D03*
X-10288000Y8877000D03*
X-11558000Y8877000D03*
X-12828000Y8877000D03*
X-14098000Y8877000D03*
X-15368000Y8877000D03*
X-16638000Y8877000D03*
X-17908000Y8877000D03*
X-19178000Y8877000D03*
X-20448000Y8877000D03*
X-21718000Y8877000D03*
X-22988000Y8877000D03*
D40*
X-15643000Y-733000D03*
%TD*%
D41*
%TO.C,BZ101*%
X2082800Y-16813600D03*
D26*
X2082800Y-10313600D03*
%TD*%
D33*
%TO.C,C105*%
X-21668000Y-13638000D03*
X-21668000Y-16588000D03*
%TD*%
D42*
%TO.C,Q117*%
X2313700Y6552100D03*
X2313700Y4652100D03*
X4188700Y5602100D03*
%TD*%
M02*
