%TF.GenerationSoftware,KiCad,Pcbnew,8.0.1*%
%TF.CreationDate,2024-06-06T23:30:18+02:00*%
%TF.ProjectId,Robuoy-Sub,526f6275-6f79-42d5-9375-622e6b696361,rev?*%
%TF.SameCoordinates,Original*%
%TF.FileFunction,Paste,Top*%
%TF.FilePolarity,Positive*%
%FSLAX46Y46*%
G04 Gerber Fmt 4.6, Leading zero omitted, Abs format (unit mm)*
G04 Created by KiCad (PCBNEW 8.0.1) date 2024-06-06 23:30:18*
%MOMM*%
%LPD*%
G01*
G04 APERTURE LIST*
G04 Aperture macros list*
%AMRoundRect*
0 Rectangle with rounded corners*
0 $1 Rounding radius*
0 $2 $3 $4 $5 $6 $7 $8 $9 X,Y pos of 4 corners*
0 Add a 4 corners polygon primitive as box body*
4,1,4,$2,$3,$4,$5,$6,$7,$8,$9,$2,$3,0*
0 Add four circle primitives for the rounded corners*
1,1,$1+$1,$2,$3*
1,1,$1+$1,$4,$5*
1,1,$1+$1,$6,$7*
1,1,$1+$1,$8,$9*
0 Add four rect primitives between the rounded corners*
20,1,$1+$1,$2,$3,$4,$5,0*
20,1,$1+$1,$4,$5,$6,$7,0*
20,1,$1+$1,$6,$7,$8,$9,0*
20,1,$1+$1,$8,$9,$2,$3,0*%
G04 Aperture macros list end*
%ADD10RoundRect,0.300000X-0.300000X-0.400000X0.300000X-0.400000X0.300000X0.400000X-0.300000X0.400000X0*%
%ADD11R,1.500000X0.900000*%
%ADD12RoundRect,0.150000X-0.150000X0.587500X-0.150000X-0.587500X0.150000X-0.587500X0.150000X0.587500X0*%
%ADD13RoundRect,0.200000X-0.200000X-0.250000X0.200000X-0.250000X0.200000X0.250000X-0.200000X0.250000X0*%
%ADD14RoundRect,0.375000X-0.375000X-0.475000X0.375000X-0.475000X0.375000X0.475000X-0.375000X0.475000X0*%
%ADD15RoundRect,0.250000X-0.325000X-1.100000X0.325000X-1.100000X0.325000X1.100000X-0.325000X1.100000X0*%
%ADD16RoundRect,0.250000X-1.000000X-0.650000X1.000000X-0.650000X1.000000X0.650000X-1.000000X0.650000X0*%
%ADD17RoundRect,0.100000X-0.100000X0.350000X-0.100000X-0.350000X0.100000X-0.350000X0.100000X0.350000X0*%
%ADD18RoundRect,0.150000X-0.512500X-0.150000X0.512500X-0.150000X0.512500X0.150000X-0.512500X0.150000X0*%
%ADD19RoundRect,0.200000X0.200000X0.250000X-0.200000X0.250000X-0.200000X-0.250000X0.200000X-0.250000X0*%
%ADD20RoundRect,0.225000X-0.225000X-0.375000X0.225000X-0.375000X0.225000X0.375000X-0.225000X0.375000X0*%
%ADD21RoundRect,0.218750X-0.218750X-0.256250X0.218750X-0.256250X0.218750X0.256250X-0.218750X0.256250X0*%
%ADD22RoundRect,0.230769X-0.969231X-1.519231X0.969231X-1.519231X0.969231X1.519231X-0.969231X1.519231X0*%
%ADD23RoundRect,0.099705X-0.622795X-0.622795X0.622795X-0.622795X0.622795X0.622795X-0.622795X0.622795X0*%
%ADD24RoundRect,0.225000X0.225000X-0.525000X0.225000X0.525000X-0.225000X0.525000X-0.225000X-0.525000X0*%
%ADD25RoundRect,0.225000X0.525000X0.225000X-0.525000X0.225000X-0.525000X-0.225000X0.525000X-0.225000X0*%
%ADD26RoundRect,0.091346X-0.383654X-0.958654X0.383654X-0.958654X0.383654X0.958654X-0.383654X0.958654X0*%
%ADD27RoundRect,0.242500X-0.242500X-0.402500X0.242500X-0.402500X0.242500X0.402500X-0.242500X0.402500X0*%
%ADD28RoundRect,0.150000X-0.650000X-0.150000X0.650000X-0.150000X0.650000X0.150000X-0.650000X0.150000X0*%
%ADD29RoundRect,0.150000X0.150000X-0.512500X0.150000X0.512500X-0.150000X0.512500X-0.150000X-0.512500X0*%
%ADD30RoundRect,0.150000X-0.587500X-0.150000X0.587500X-0.150000X0.587500X0.150000X-0.587500X0.150000X0*%
G04 APERTURE END LIST*
D10*
%TO.C,D206*%
X146320000Y-127310000D03*
X148320000Y-127310000D03*
%TD*%
D11*
%TO.C,D102*%
X159200000Y-104420000D03*
X159200000Y-107720000D03*
X164100000Y-107720000D03*
X164100000Y-104420000D03*
%TD*%
D12*
%TO.C,Q203*%
X77210000Y-68732500D03*
X75310000Y-68732500D03*
X76260000Y-70607500D03*
%TD*%
D13*
%TO.C,C101*%
X45810000Y-147290000D03*
X47310000Y-147290000D03*
%TD*%
D14*
%TO.C,C204*%
X124870000Y-128360000D03*
X128270000Y-128360000D03*
%TD*%
D13*
%TO.C,R206*%
X132120000Y-113560000D03*
X133620000Y-113560000D03*
%TD*%
%TO.C,R208*%
X135920000Y-103960000D03*
X137420000Y-103960000D03*
%TD*%
%TO.C,R205*%
X132120000Y-111160000D03*
X133620000Y-111160000D03*
%TD*%
%TO.C,R211*%
X135920000Y-111160000D03*
X137420000Y-111160000D03*
%TD*%
D15*
%TO.C,C212*%
X148070000Y-109135000D03*
X151020000Y-109135000D03*
%TD*%
D13*
%TO.C,R109*%
X38639000Y-84179000D03*
X40139000Y-84179000D03*
%TD*%
%TO.C,C106*%
X45810000Y-154490000D03*
X47310000Y-154490000D03*
%TD*%
D12*
%TO.C,Q204*%
X114040000Y-68732500D03*
X112140000Y-68732500D03*
X113090000Y-70607500D03*
%TD*%
D13*
%TO.C,R201*%
X128320000Y-115960000D03*
X129820000Y-115960000D03*
%TD*%
D16*
%TO.C,D202*%
X148790000Y-113535000D03*
X152790000Y-113535000D03*
%TD*%
D14*
%TO.C,C201*%
X124870000Y-118760000D03*
X128270000Y-118760000D03*
%TD*%
D12*
%TO.C,Q206*%
X119120000Y-68732500D03*
X117220000Y-68732500D03*
X118170000Y-70607500D03*
%TD*%
D13*
%TO.C,C110*%
X49610000Y-149690000D03*
X51110000Y-149690000D03*
%TD*%
D11*
%TO.C,D106*%
X159200000Y-117660000D03*
X159200000Y-120960000D03*
X164100000Y-120960000D03*
X164100000Y-117660000D03*
%TD*%
D13*
%TO.C,R111*%
X27510000Y-139290000D03*
X29010000Y-139290000D03*
%TD*%
D15*
%TO.C,C211*%
X148070000Y-104885000D03*
X151020000Y-104885000D03*
%TD*%
D14*
%TO.C,C203*%
X124870000Y-125160000D03*
X128270000Y-125160000D03*
%TD*%
D13*
%TO.C,R207*%
X132120000Y-115960000D03*
X133620000Y-115960000D03*
%TD*%
D17*
%TO.C,U103*%
X29158000Y-78730000D03*
X28508000Y-78730000D03*
X27858000Y-78730000D03*
X27858000Y-80930000D03*
X28508000Y-80930000D03*
X29158000Y-80930000D03*
%TD*%
D10*
%TO.C,D203*%
X146320000Y-118610000D03*
X148320000Y-118610000D03*
%TD*%
D18*
%TO.C,U102*%
X167297500Y-104210000D03*
X167297500Y-105160000D03*
X167297500Y-106110000D03*
X169572500Y-106110000D03*
X169572500Y-105160000D03*
X169572500Y-104210000D03*
%TD*%
D10*
%TO.C,D204*%
X146320000Y-121510000D03*
X148320000Y-121510000D03*
%TD*%
D13*
%TO.C,R112*%
X147270500Y-89294000D03*
X148770500Y-89294000D03*
%TD*%
%TO.C,C205*%
X124520000Y-103960000D03*
X126020000Y-103960000D03*
%TD*%
D19*
%TO.C,R106*%
X46260000Y-123390000D03*
X44760000Y-123390000D03*
%TD*%
D13*
%TO.C,C108*%
X45810000Y-159290000D03*
X47310000Y-159290000D03*
%TD*%
D18*
%TO.C,U202*%
X143007500Y-104210000D03*
X143007500Y-105160000D03*
X143007500Y-106110000D03*
X145282500Y-106110000D03*
X145282500Y-104210000D03*
%TD*%
D20*
%TO.C,D201*%
X150970000Y-118935000D03*
X154270000Y-118935000D03*
%TD*%
D12*
%TO.C,Q205*%
X72130000Y-68732500D03*
X70230000Y-68732500D03*
X71180000Y-70607500D03*
%TD*%
D21*
%TO.C,D105*%
X132490000Y-159652000D03*
X134065000Y-159652000D03*
%TD*%
D13*
%TO.C,C111*%
X49610000Y-152090000D03*
X51110000Y-152090000D03*
%TD*%
D18*
%TO.C,U203*%
X143007500Y-108835000D03*
X143007500Y-109785000D03*
X143007500Y-110735000D03*
X145282500Y-110735000D03*
X145282500Y-108835000D03*
%TD*%
D11*
%TO.C,D103*%
X159200000Y-111040000D03*
X159200000Y-114340000D03*
X164100000Y-114340000D03*
X164100000Y-111040000D03*
%TD*%
D15*
%TO.C,C103*%
X137015000Y-64590000D03*
X139965000Y-64590000D03*
%TD*%
D13*
%TO.C,R102*%
X54624000Y-140514000D03*
X56124000Y-140514000D03*
%TD*%
%TO.C,C113*%
X49610000Y-156890000D03*
X51110000Y-156890000D03*
%TD*%
D18*
%TO.C,U105*%
X132140000Y-152860000D03*
X132140000Y-153810000D03*
X132140000Y-154760000D03*
X134415000Y-154760000D03*
X134415000Y-152860000D03*
%TD*%
D12*
%TO.C,Q202*%
X108960000Y-68732500D03*
X107060000Y-68732500D03*
X108010000Y-70607500D03*
%TD*%
D13*
%TO.C,C217*%
X128320000Y-111160000D03*
X129820000Y-111160000D03*
%TD*%
D22*
%TO.C,L201*%
X131470000Y-129085000D03*
X137470000Y-129085000D03*
%TD*%
D14*
%TO.C,C214*%
X124870000Y-131560000D03*
X128270000Y-131560000D03*
%TD*%
D13*
%TO.C,C210*%
X124520000Y-115960000D03*
X126020000Y-115960000D03*
%TD*%
D12*
%TO.C,Q201*%
X67050000Y-68732500D03*
X65150000Y-68732500D03*
X66100000Y-70607500D03*
%TD*%
D13*
%TO.C,R107*%
X30060000Y-150090000D03*
X31560000Y-150090000D03*
%TD*%
D21*
%TO.C,D104*%
X147487000Y-92596000D03*
X149062000Y-92596000D03*
%TD*%
D14*
%TO.C,C218*%
X124870000Y-134760000D03*
X128270000Y-134760000D03*
%TD*%
D13*
%TO.C,C207*%
X124520000Y-108760000D03*
X126020000Y-108760000D03*
%TD*%
%TO.C,R204*%
X132120000Y-108760000D03*
X133620000Y-108760000D03*
%TD*%
D23*
%TO.C,U101*%
X29938000Y-114590000D03*
X29938000Y-116250000D03*
X29938000Y-117910000D03*
X31598000Y-114590000D03*
X31598000Y-116250000D03*
X31598000Y-117910000D03*
X33258000Y-114590000D03*
X33258000Y-116250000D03*
X33258000Y-117910000D03*
D24*
X24253000Y-124140000D03*
X25523000Y-124140000D03*
X26793000Y-124140000D03*
X28063000Y-124140000D03*
X29333000Y-124140000D03*
X30603000Y-124140000D03*
X31873000Y-124140000D03*
X33143000Y-124140000D03*
X34413000Y-124140000D03*
X35683000Y-124140000D03*
X36953000Y-124140000D03*
X38223000Y-124140000D03*
X39493000Y-124140000D03*
X40763000Y-124140000D03*
D25*
X42013000Y-121105000D03*
X42013000Y-119835000D03*
X42013000Y-118565000D03*
X42013000Y-117295000D03*
X42013000Y-116025000D03*
X42013000Y-114755000D03*
X42013000Y-113485000D03*
X42013000Y-112215000D03*
X42013000Y-110945000D03*
X42013000Y-109675000D03*
D24*
X40763000Y-106640000D03*
X39493000Y-106640000D03*
X38223000Y-106640000D03*
X36953000Y-106640000D03*
X35683000Y-106640000D03*
X34413000Y-106640000D03*
X33143000Y-106640000D03*
X31873000Y-106640000D03*
X30603000Y-106640000D03*
X29333000Y-106640000D03*
X28063000Y-106640000D03*
X26793000Y-106640000D03*
X25523000Y-106640000D03*
X24253000Y-106640000D03*
%TD*%
D13*
%TO.C,R203*%
X132120000Y-106360000D03*
X133620000Y-106360000D03*
%TD*%
%TO.C,C215*%
X128320000Y-106360000D03*
X129820000Y-106360000D03*
%TD*%
D19*
%TO.C,R104*%
X46060000Y-119790000D03*
X44560000Y-119790000D03*
%TD*%
D14*
%TO.C,C202*%
X124870000Y-121960000D03*
X128270000Y-121960000D03*
%TD*%
D13*
%TO.C,C109*%
X49610000Y-147290000D03*
X51110000Y-147290000D03*
%TD*%
%TO.C,R108*%
X57224000Y-143614000D03*
X58724000Y-143614000D03*
%TD*%
%TO.C,C206*%
X124520000Y-106360000D03*
X126020000Y-106360000D03*
%TD*%
%TO.C,C209*%
X124520000Y-113560000D03*
X126020000Y-113560000D03*
%TD*%
D26*
%TO.C,L202*%
X150745000Y-122260000D03*
X152395000Y-122260000D03*
%TD*%
D13*
%TO.C,R202*%
X132120000Y-103960000D03*
X133620000Y-103960000D03*
%TD*%
%TO.C,C219*%
X128320000Y-113560000D03*
X129820000Y-113560000D03*
%TD*%
D20*
%TO.C,D101*%
X45860000Y-162265000D03*
X49160000Y-162265000D03*
%TD*%
D13*
%TO.C,C107*%
X45810000Y-156890000D03*
X47310000Y-156890000D03*
%TD*%
D15*
%TO.C,C102*%
X137015000Y-60340000D03*
X139965000Y-60340000D03*
%TD*%
D13*
%TO.C,R210*%
X135920000Y-108760000D03*
X137420000Y-108760000D03*
%TD*%
%TO.C,C208*%
X124520000Y-111160000D03*
X126020000Y-111160000D03*
%TD*%
D19*
%TO.C,R105*%
X45760000Y-110990000D03*
X44260000Y-110990000D03*
%TD*%
D12*
%TO.C,Q207*%
X82290000Y-68732500D03*
X80390000Y-68732500D03*
X81340000Y-70607500D03*
%TD*%
D27*
%TO.C,U201*%
X148495000Y-131315000D03*
X148495000Y-132915000D03*
X149695000Y-131315000D03*
X149695000Y-132915000D03*
D28*
X146445000Y-130210000D03*
X146445000Y-131480000D03*
X146445000Y-132750000D03*
X146445000Y-134020000D03*
X151745000Y-134020000D03*
X151745000Y-132750000D03*
X151745000Y-131480000D03*
X151745000Y-130210000D03*
%TD*%
D29*
%TO.C,U204*%
X81860000Y-178927500D03*
X82810000Y-178927500D03*
X83760000Y-178927500D03*
X83760000Y-176652500D03*
X82810000Y-176652500D03*
X81860000Y-176652500D03*
%TD*%
D19*
%TO.C,R103*%
X46160000Y-125090000D03*
X44660000Y-125090000D03*
%TD*%
D13*
%TO.C,R110*%
X27610000Y-142690000D03*
X29110000Y-142690000D03*
%TD*%
%TO.C,C213*%
X128320000Y-103960000D03*
X129820000Y-103960000D03*
%TD*%
%TO.C,C105*%
X45810000Y-152090000D03*
X47310000Y-152090000D03*
%TD*%
%TO.C,R209*%
X135920000Y-106360000D03*
X137420000Y-106360000D03*
%TD*%
D30*
%TO.C,Q101*%
X167367500Y-108830000D03*
X167367500Y-110730000D03*
X169242500Y-109780000D03*
%TD*%
D13*
%TO.C,R101*%
X40289000Y-91279000D03*
X41789000Y-91279000D03*
%TD*%
%TO.C,C104*%
X45810000Y-149690000D03*
X47310000Y-149690000D03*
%TD*%
%TO.C,R113*%
X131511500Y-157112000D03*
X133011500Y-157112000D03*
%TD*%
%TO.C,C216*%
X128320000Y-108760000D03*
X129820000Y-108760000D03*
%TD*%
D12*
%TO.C,Q208*%
X124200000Y-68732500D03*
X122300000Y-68732500D03*
X123250000Y-70607500D03*
%TD*%
D18*
%TO.C,U104*%
X146375000Y-85550000D03*
X146375000Y-86500000D03*
X146375000Y-87450000D03*
X148650000Y-87450000D03*
X148650000Y-85550000D03*
%TD*%
D10*
%TO.C,D205*%
X146320000Y-124410000D03*
X148320000Y-124410000D03*
%TD*%
D13*
%TO.C,C112*%
X49610000Y-154490000D03*
X51110000Y-154490000D03*
%TD*%
M02*
