M48
; DRILL file {KiCad 8.0.1} date 2024-06-06T23:30:18+0200
; FORMAT={-:-/ absolute / inch / decimal}
; #@! TF.CreationDate,2024-06-06T23:30:18+02:00
; #@! TF.GenerationSoftware,Kicad,Pcbnew,8.0.1
; #@! TF.FileFunction,Plated,1,4,PTH
FMAT,2
INCH
; #@! TA.AperFunction,Plated,PTH,ComponentDrill
T1C0.0079
; #@! TA.AperFunction,Plated,PTH,ComponentDrill
T2C0.0354
; #@! TA.AperFunction,Plated,PTH,ComponentDrill
T3C0.0374
; #@! TA.AperFunction,Plated,PTH,ComponentDrill
T4C0.0394
; #@! TA.AperFunction,Plated,PTH,ComponentDrill
T5C0.1772
%
G90
G05
T1
X5.8325Y-5.1482
X5.8325Y-5.2014
X5.8325Y-5.2545
X5.9073Y-5.1482
X5.9073Y-5.2014
X5.9073Y-5.2545
T2
X3.3524Y-1.7929
X3.3524Y-1.8929
X3.3524Y-1.9929
X3.3524Y-2.0929
X3.4524Y-1.7929
X3.4524Y-1.8929
X3.4524Y-1.9929
X3.4524Y-2.0929
X3.5524Y-1.7929
X3.5524Y-1.8929
X3.5524Y-1.9929
X3.5524Y-2.0929
X3.6524Y-1.7929
X3.6524Y-1.8929
X3.6524Y-1.9929
X3.6524Y-2.0929
X4.3024Y-6.8929
X4.3024Y-6.9929
X4.3024Y-7.0929
X4.3024Y-7.1929
X4.4024Y-6.8929
X4.4024Y-6.9929
X4.4024Y-7.0929
X4.4024Y-7.1929
X4.5024Y-6.8929
X4.5024Y-6.9929
X4.5024Y-7.0929
X4.5024Y-7.1929
X4.6024Y-6.8929
X4.6024Y-6.9929
X4.6024Y-7.0929
X4.6024Y-7.1929
X5.5146Y-4.1047
X5.5146Y-4.2228
X5.5146Y-4.3409
X5.5146Y-4.4591
T3
X1.8539Y-2.5929
X1.9524Y-2.5929
X2.0508Y-2.5929
X2.1492Y-2.5929
X2.2139Y-5.1511
X2.3124Y-5.1511
X2.4108Y-5.1511
X3.2445Y-6.598
X3.2484Y-6.2742
X3.276Y-5.9642
X3.2917Y-5.6453
X3.3429Y-6.598
X3.3469Y-6.2742
X3.3744Y-5.9642
X3.3902Y-5.6453
X3.4413Y-6.598
X3.4453Y-6.2742
X3.4728Y-5.9642
X3.4886Y-5.6453
X3.5398Y-6.598
X3.5437Y-6.2742
X3.5713Y-5.9642
X3.587Y-5.6453
X3.6382Y-6.598
X3.6421Y-6.2742
X3.6697Y-5.9642
X3.6854Y-5.6453
X3.7366Y-6.598
X3.7406Y-6.2742
X3.7681Y-5.9642
X3.7839Y-5.6453
X3.835Y-6.598
X3.839Y-6.2742
X3.8665Y-5.9642
X3.8823Y-5.6453
X3.9807Y-5.6453
X4.0791Y-5.6453
X4.1776Y-5.6453
X5.5471Y-6.0061
X5.6456Y-6.0061
X5.744Y-6.0061
X6.1476Y-3.3061
X6.246Y-3.3061
X6.3444Y-3.3061
T4
X1.5916Y-3.0436
X1.6916Y-3.0436
X1.7916Y-3.0436
X1.8916Y-3.0436
X2.1024Y-3.3929
X2.1024Y-3.4929
X2.2248Y-4.3283
X2.2248Y-4.4283
X2.2248Y-4.5283
X2.2248Y-4.6283
X2.2248Y-4.7283
X2.2854Y-3.3929
X2.2854Y-3.4929
X2.3248Y-4.3283
X2.3248Y-4.4283
X2.3248Y-4.5283
X2.3248Y-4.6283
X2.3248Y-4.7283
X5.2213Y-4.772
X5.4063Y-4.772
X5.5913Y-4.772
T5
X2.9024Y-3.1012
X2.9024Y-3.3846
X3.4524Y-3.1012
X3.4524Y-3.3846
X4.0031Y-3.1012
X4.0031Y-3.3846
X4.5524Y-3.1012
X4.5524Y-3.3846
M30
