%TF.GenerationSoftware,KiCad,Pcbnew,8.0.1*%
%TF.CreationDate,2024-06-07T13:28:43+02:00*%
%TF.ProjectId,Robuoy-Sub,526f6275-6f79-42d5-9375-622e6b696361,rev?*%
%TF.SameCoordinates,Original*%
%TF.FileFunction,Copper,L1,Top*%
%TF.FilePolarity,Positive*%
%FSLAX46Y46*%
G04 Gerber Fmt 4.6, Leading zero omitted, Abs format (unit mm)*
G04 Created by KiCad (PCBNEW 8.0.1) date 2024-06-07 13:28:43*
%MOMM*%
%LPD*%
G01*
G04 APERTURE LIST*
G04 Aperture macros list*
%AMRoundRect*
0 Rectangle with rounded corners*
0 $1 Rounding radius*
0 $2 $3 $4 $5 $6 $7 $8 $9 X,Y pos of 4 corners*
0 Add a 4 corners polygon primitive as box body*
4,1,4,$2,$3,$4,$5,$6,$7,$8,$9,$2,$3,0*
0 Add four circle primitives for the rounded corners*
1,1,$1+$1,$2,$3*
1,1,$1+$1,$4,$5*
1,1,$1+$1,$6,$7*
1,1,$1+$1,$8,$9*
0 Add four rect primitives between the rounded corners*
20,1,$1+$1,$2,$3,$4,$5,0*
20,1,$1+$1,$4,$5,$6,$7,0*
20,1,$1+$1,$6,$7,$8,$9,0*
20,1,$1+$1,$8,$9,$2,$3,0*%
%AMFreePoly0*
4,1,19,0.550000,-0.750000,0.000000,-0.750000,0.000000,-0.744911,-0.071157,-0.744911,-0.207708,-0.704816,-0.327430,-0.627875,-0.420627,-0.520320,-0.479746,-0.390866,-0.500000,-0.250000,-0.500000,0.250000,-0.479746,0.390866,-0.420627,0.520320,-0.327430,0.627875,-0.207708,0.704816,-0.071157,0.744911,0.000000,0.744911,0.000000,0.750000,0.550000,0.750000,0.550000,-0.750000,0.550000,-0.750000,
$1*%
%AMFreePoly1*
4,1,19,0.000000,0.744911,0.071157,0.744911,0.207708,0.704816,0.327430,0.627875,0.420627,0.520320,0.479746,0.390866,0.500000,0.250000,0.500000,-0.250000,0.479746,-0.390866,0.420627,-0.520320,0.327430,-0.627875,0.207708,-0.704816,0.071157,-0.744911,0.000000,-0.744911,0.000000,-0.750000,-0.550000,-0.750000,-0.550000,0.750000,0.000000,0.750000,0.000000,0.744911,0.000000,0.744911,
$1*%
G04 Aperture macros list end*
%TA.AperFunction,EtchedComponent*%
%ADD10C,0.000000*%
%TD*%
%TA.AperFunction,SMDPad,CuDef*%
%ADD11C,2.000000*%
%TD*%
%TA.AperFunction,ComponentPad*%
%ADD12R,1.650000X1.650000*%
%TD*%
%TA.AperFunction,ComponentPad*%
%ADD13C,1.700000*%
%TD*%
%TA.AperFunction,SMDPad,CuDef*%
%ADD14RoundRect,0.300000X-0.300000X-0.400000X0.300000X-0.400000X0.300000X0.400000X-0.300000X0.400000X0*%
%TD*%
%TA.AperFunction,ComponentPad*%
%ADD15RoundRect,1.500000X-1.500000X1.500000X-1.500000X-1.500000X1.500000X-1.500000X1.500000X1.500000X0*%
%TD*%
%TA.AperFunction,ComponentPad*%
%ADD16C,6.000000*%
%TD*%
%TA.AperFunction,SMDPad,CuDef*%
%ADD17R,1.500000X0.900000*%
%TD*%
%TA.AperFunction,SMDPad,CuDef*%
%ADD18RoundRect,0.150000X-0.150000X0.587500X-0.150000X-0.587500X0.150000X-0.587500X0.150000X0.587500X0*%
%TD*%
%TA.AperFunction,ComponentPad*%
%ADD19RoundRect,0.250000X-0.600000X-0.600000X0.600000X-0.600000X0.600000X0.600000X-0.600000X0.600000X0*%
%TD*%
%TA.AperFunction,SMDPad,CuDef*%
%ADD20RoundRect,0.200000X-0.200000X-0.250000X0.200000X-0.250000X0.200000X0.250000X-0.200000X0.250000X0*%
%TD*%
%TA.AperFunction,SMDPad,CuDef*%
%ADD21RoundRect,0.375000X-0.375000X-0.475000X0.375000X-0.475000X0.375000X0.475000X-0.375000X0.475000X0*%
%TD*%
%TA.AperFunction,ComponentPad*%
%ADD22RoundRect,0.250000X-0.600000X-0.725000X0.600000X-0.725000X0.600000X0.725000X-0.600000X0.725000X0*%
%TD*%
%TA.AperFunction,ComponentPad*%
%ADD23O,1.700000X1.950000*%
%TD*%
%TA.AperFunction,SMDPad,CuDef*%
%ADD24RoundRect,0.250000X-0.325000X-1.100000X0.325000X-1.100000X0.325000X1.100000X-0.325000X1.100000X0*%
%TD*%
%TA.AperFunction,SMDPad,CuDef*%
%ADD25RoundRect,0.250000X-1.000000X-0.650000X1.000000X-0.650000X1.000000X0.650000X-1.000000X0.650000X0*%
%TD*%
%TA.AperFunction,ComponentPad*%
%ADD26R,1.700000X1.700000*%
%TD*%
%TA.AperFunction,ComponentPad*%
%ADD27O,1.700000X1.700000*%
%TD*%
%TA.AperFunction,ComponentPad*%
%ADD28C,3.000000*%
%TD*%
%TA.AperFunction,ComponentPad*%
%ADD29R,1.300000X1.300000*%
%TD*%
%TA.AperFunction,ComponentPad*%
%ADD30C,1.300000*%
%TD*%
%TA.AperFunction,SMDPad,CuDef*%
%ADD31RoundRect,0.100000X-0.100000X0.350000X-0.100000X-0.350000X0.100000X-0.350000X0.100000X0.350000X0*%
%TD*%
%TA.AperFunction,SMDPad,CuDef*%
%ADD32FreePoly0,0.000000*%
%TD*%
%TA.AperFunction,SMDPad,CuDef*%
%ADD33R,1.000000X1.500000*%
%TD*%
%TA.AperFunction,SMDPad,CuDef*%
%ADD34FreePoly1,0.000000*%
%TD*%
%TA.AperFunction,ComponentPad*%
%ADD35C,1.524000*%
%TD*%
%TA.AperFunction,SMDPad,CuDef*%
%ADD36RoundRect,0.150000X-0.512500X-0.150000X0.512500X-0.150000X0.512500X0.150000X-0.512500X0.150000X0*%
%TD*%
%TA.AperFunction,SMDPad,CuDef*%
%ADD37RoundRect,0.200000X0.200000X0.250000X-0.200000X0.250000X-0.200000X-0.250000X0.200000X-0.250000X0*%
%TD*%
%TA.AperFunction,SMDPad,CuDef*%
%ADD38RoundRect,0.225000X-0.225000X-0.375000X0.225000X-0.375000X0.225000X0.375000X-0.225000X0.375000X0*%
%TD*%
%TA.AperFunction,SMDPad,CuDef*%
%ADD39RoundRect,0.218750X-0.218750X-0.256250X0.218750X-0.256250X0.218750X0.256250X-0.218750X0.256250X0*%
%TD*%
%TA.AperFunction,ComponentPad*%
%ADD40C,3.500000*%
%TD*%
%TA.AperFunction,SMDPad,CuDef*%
%ADD41RoundRect,0.230769X-0.969231X-1.519231X0.969231X-1.519231X0.969231X1.519231X-0.969231X1.519231X0*%
%TD*%
%TA.AperFunction,SMDPad,CuDef*%
%ADD42RoundRect,0.225000X0.225000X-0.525000X0.225000X0.525000X-0.225000X0.525000X-0.225000X-0.525000X0*%
%TD*%
%TA.AperFunction,SMDPad,CuDef*%
%ADD43RoundRect,0.225000X0.525000X0.225000X-0.525000X0.225000X-0.525000X-0.225000X0.525000X-0.225000X0*%
%TD*%
%TA.AperFunction,SMDPad,CuDef*%
%ADD44RoundRect,0.250000X2.250000X-2.250000X2.250000X2.250000X-2.250000X2.250000X-2.250000X-2.250000X0*%
%TD*%
%TA.AperFunction,SMDPad,CuDef*%
%ADD45RoundRect,0.091346X-0.383654X-0.958654X0.383654X-0.958654X0.383654X0.958654X-0.383654X0.958654X0*%
%TD*%
%TA.AperFunction,SMDPad,CuDef*%
%ADD46RoundRect,0.150000X-0.650000X-0.150000X0.650000X-0.150000X0.650000X0.150000X-0.650000X0.150000X0*%
%TD*%
%TA.AperFunction,HeatsinkPad*%
%ADD47C,0.500000*%
%TD*%
%TA.AperFunction,HeatsinkPad*%
%ADD48R,2.400000X3.200000*%
%TD*%
%TA.AperFunction,SMDPad,CuDef*%
%ADD49RoundRect,0.150000X0.150000X-0.512500X0.150000X0.512500X-0.150000X0.512500X-0.150000X-0.512500X0*%
%TD*%
%TA.AperFunction,SMDPad,CuDef*%
%ADD50RoundRect,0.150000X-0.587500X-0.150000X0.587500X-0.150000X0.587500X0.150000X-0.587500X0.150000X0*%
%TD*%
%TA.AperFunction,Conductor*%
%ADD51C,0.800000*%
%TD*%
G04 APERTURE END LIST*
D10*
%TA.AperFunction,EtchedComponent*%
%TO.C,JP101*%
G36*
X52755000Y-162565000D02*
G01*
X52255000Y-162565000D01*
X52255000Y-161965000D01*
X52755000Y-161965000D01*
X52755000Y-162565000D01*
G37*
%TD.AperFunction*%
%TD*%
D11*
%TO.P,TP210,1,1*%
%TO.N,Net-(Q201-G)*%
X128330000Y-62050000D03*
%TD*%
%TO.P,TP209,1,1*%
%TO.N,Net-(Q202-G)*%
X128330000Y-56970000D03*
%TD*%
%TO.P,TP208,1,1*%
%TO.N,/CPU/PWR_ESC_SB*%
X128330000Y-59510000D03*
%TD*%
%TO.P,TP207,1,1*%
%TO.N,/CPU/PWR_ESC_BB*%
X115630000Y-44270000D03*
%TD*%
%TO.P,TP206,1,1*%
%TO.N,Net-(U201-Vsens)*%
X115630000Y-41730000D03*
%TD*%
%TO.P,TP205,1,1*%
%TO.N,+5V*%
X62290000Y-87450000D03*
%TD*%
%TO.P,TP204,1,1*%
%TO.N,Net-(U204-FB)*%
X140070000Y-113260000D03*
%TD*%
%TO.P,TP201,1,1*%
%TO.N,Vbatt*%
X140070000Y-104260000D03*
%TD*%
%TO.P,TP110,1,1*%
%TO.N,Net-(J105-Pin_2)*%
X105470000Y-56970000D03*
%TD*%
%TO.P,TP109,1,1*%
%TO.N,Net-(J105-Pin_1)*%
X105930000Y-53970000D03*
%TD*%
%TO.P,TP108,1,1*%
%TO.N,/CPU/SCL*%
X105930000Y-50970000D03*
%TD*%
%TO.P,TP107,1,1*%
%TO.N,/CPU/SDA*%
X105930000Y-47970000D03*
%TD*%
%TO.P,TP106,1,1*%
%TO.N,Net-(J104-Pin_1)*%
X115630000Y-39190000D03*
%TD*%
%TO.P,TP105,1,1*%
%TO.N,Net-(J103-Pin_1)*%
X95310000Y-59510000D03*
%TD*%
%TO.P,TP104,1,1*%
%TO.N,LEDS*%
X135950000Y-79830000D03*
%TD*%
%TO.P,TP103,1,1*%
%TO.N,ESC_SB*%
X105470000Y-62050000D03*
%TD*%
%TO.P,TP102,1,1*%
%TO.N,ESC_BB*%
X100390000Y-41730000D03*
%TD*%
%TO.P,TP101,1,1*%
%TO.N,BUZZER*%
X100390000Y-39190000D03*
%TD*%
D12*
%TO.P,BZ101,1,+*%
%TO.N,+5V*%
X67097500Y-46595000D03*
D13*
%TO.P,BZ101,2,-*%
%TO.N,Net-(BZ101--)*%
X73597500Y-46595000D03*
%TD*%
D14*
%TO.P,D206,1,K*%
%TO.N,Net-(D206-K)*%
X146320000Y-127310000D03*
%TO.P,D206,2,A*%
%TO.N,Net-(D206-A)*%
X148320000Y-127310000D03*
%TD*%
D15*
%TO.P,J207,1,Pin_1*%
%TO.N,Net-(D205-K)*%
X73720000Y-78770000D03*
D16*
%TO.P,J207,2,Pin_2*%
%TO.N,Vbatt*%
X73720000Y-85970000D03*
%TD*%
D17*
%TO.P,D102,1,VDD*%
%TO.N,+3.3V*%
X159200000Y-104420000D03*
%TO.P,D102,2,DOUT*%
%TO.N,Net-(D102-DOUT)*%
X159200000Y-107720000D03*
%TO.P,D102,3,VSS*%
%TO.N,GND*%
X164100000Y-107720000D03*
%TO.P,D102,4,DIN*%
%TO.N,LEDS*%
X164100000Y-104420000D03*
%TD*%
D18*
%TO.P,Q203,1,G*%
%TO.N,Net-(Q201-G)*%
X77210000Y-68732500D03*
%TO.P,Q203,2,S*%
%TO.N,GND*%
X75310000Y-68732500D03*
%TO.P,Q203,3,D*%
%TO.N,Net-(D205-K)*%
X76260000Y-70607500D03*
%TD*%
D19*
%TO.P,J101,1,Pin_1*%
%TO.N,EN*%
X55000000Y-104980000D03*
D13*
%TO.P,J101,2,Pin_2*%
%TO.N,+3.3V*%
X57540000Y-104980000D03*
%TO.P,J101,3,Pin_3*%
%TO.N,TX*%
X55000000Y-107520000D03*
%TO.P,J101,4,Pin_4*%
%TO.N,GND*%
X57540000Y-107520000D03*
%TO.P,J101,5,Pin_5*%
%TO.N,RX*%
X55000000Y-110060000D03*
%TO.P,J101,6,Pin_6*%
%TO.N,DR0*%
X57540000Y-110060000D03*
%TO.P,J101,7,Pin_7*%
%TO.N,Net-(J101-Pin_7)*%
X55000000Y-112600000D03*
%TO.P,J101,8,Pin_8*%
%TO.N,Net-(J101-Pin_8)*%
X57540000Y-112600000D03*
%TO.P,J101,9,Pin_9*%
%TO.N,Net-(J101-Pin_9)*%
X55000000Y-115140000D03*
%TO.P,J101,10,Pin_10*%
%TO.N,Net-(J101-Pin_10)*%
X57540000Y-115140000D03*
%TD*%
D20*
%TO.P,C101,1*%
%TO.N,EN*%
X45810000Y-147290000D03*
%TO.P,C101,2*%
%TO.N,GND*%
X47310000Y-147290000D03*
%TD*%
D21*
%TO.P,C204,1*%
%TO.N,+VSW*%
X124870000Y-128360000D03*
%TO.P,C204,2*%
%TO.N,GND*%
X128270000Y-128360000D03*
%TD*%
D22*
%TO.P,J103,1,Pin_1*%
%TO.N,Net-(J103-Pin_1)*%
X156148500Y-83975000D03*
D23*
%TO.P,J103,2,Pin_2*%
%TO.N,Net-(J103-Pin_2)*%
X158648500Y-83975000D03*
%TO.P,J103,3,Pin_3*%
%TO.N,Net-(J103-Pin_3)*%
X161148500Y-83975000D03*
%TD*%
D20*
%TO.P,R206,1*%
%TO.N,+5V*%
X132120000Y-113560000D03*
%TO.P,R206,2*%
%TO.N,Net-(D203-A)*%
X133620000Y-113560000D03*
%TD*%
%TO.P,R208,1*%
%TO.N,+5V*%
X135920000Y-103960000D03*
%TO.P,R208,2*%
%TO.N,Net-(D205-A)*%
X137420000Y-103960000D03*
%TD*%
%TO.P,R205,1*%
%TO.N,Net-(U201-Vsens)*%
X132120000Y-111160000D03*
%TO.P,R205,2*%
%TO.N,GND*%
X133620000Y-111160000D03*
%TD*%
%TO.P,R211,1*%
%TO.N,Net-(U204-FB)*%
X135920000Y-111160000D03*
%TO.P,R211,2*%
%TO.N,GND*%
X137420000Y-111160000D03*
%TD*%
D24*
%TO.P,C212,1*%
%TO.N,+3.3V*%
X148070000Y-109135000D03*
%TO.P,C212,2*%
%TO.N,GND*%
X151020000Y-109135000D03*
%TD*%
D20*
%TO.P,R109,1*%
%TO.N,+3.3V*%
X38639000Y-84179000D03*
%TO.P,R109,2*%
%TO.N,/CPU/SCL*%
X40139000Y-84179000D03*
%TD*%
%TO.P,C106,1*%
%TO.N,+3.3V*%
X45810000Y-154490000D03*
%TO.P,C106,2*%
%TO.N,GND*%
X47310000Y-154490000D03*
%TD*%
D18*
%TO.P,Q204,1,G*%
%TO.N,Net-(Q202-G)*%
X114040000Y-68732500D03*
%TO.P,Q204,2,S*%
%TO.N,GND*%
X112140000Y-68732500D03*
%TO.P,Q204,3,D*%
%TO.N,Net-(D206-K)*%
X113090000Y-70607500D03*
%TD*%
D20*
%TO.P,R201,1*%
%TO.N,Vbatt*%
X128320000Y-115960000D03*
%TO.P,R201,2*%
%TO.N,GND*%
X129820000Y-115960000D03*
%TD*%
D25*
%TO.P,D202,1,K*%
%TO.N,Net-(D202-K)*%
X148790000Y-113535000D03*
%TO.P,D202,2,A*%
%TO.N,GND*%
X152790000Y-113535000D03*
%TD*%
D21*
%TO.P,C201,1*%
%TO.N,+VSW*%
X124870000Y-118760000D03*
%TO.P,C201,2*%
%TO.N,GND*%
X128270000Y-118760000D03*
%TD*%
D26*
%TO.P,SW102,1,1*%
%TO.N,GND*%
X67370000Y-105230000D03*
D27*
%TO.P,SW102,2,2*%
%TO.N,EN*%
X64830000Y-105230000D03*
%TD*%
D18*
%TO.P,Q206,1,G*%
%TO.N,Net-(Q202-G)*%
X119120000Y-68732500D03*
%TO.P,Q206,2,S*%
%TO.N,GND*%
X117220000Y-68732500D03*
%TO.P,Q206,3,D*%
%TO.N,Net-(D206-K)*%
X118170000Y-70607500D03*
%TD*%
D28*
%TO.P,TP203,1,1*%
%TO.N,GND*%
X90738000Y-134440000D03*
%TD*%
D20*
%TO.P,C110,1*%
%TO.N,+5V*%
X49610000Y-149690000D03*
%TO.P,C110,2*%
%TO.N,GND*%
X51110000Y-149690000D03*
%TD*%
D17*
%TO.P,D106,1,VDD*%
%TO.N,+3.3V*%
X159200000Y-117660000D03*
%TO.P,D106,2,DOUT*%
%TO.N,unconnected-(D106-DOUT-Pad2)*%
X159200000Y-120960000D03*
%TO.P,D106,3,VSS*%
%TO.N,GND*%
X164100000Y-120960000D03*
%TO.P,D106,4,DIN*%
%TO.N,Net-(D103-DOUT)*%
X164100000Y-117660000D03*
%TD*%
D20*
%TO.P,R111,1*%
%TO.N,Net-(Q101-D)*%
X27510000Y-139290000D03*
%TO.P,R111,2*%
%TO.N,Net-(J102-Pin_1)*%
X29010000Y-139290000D03*
%TD*%
D29*
%TO.P,J204,1,Pin_1*%
%TO.N,Net-(J202-Pin_1)*%
X92770000Y-107770000D03*
D30*
%TO.P,J204,2,Pin_2*%
%TO.N,Net-(J202-Pin_2)*%
X89914000Y-107770000D03*
%TO.P,J204,3,Pin_3*%
%TO.N,Net-(J202-Pin_3)*%
X88670000Y-109167000D03*
%TO.P,J204,4,Pin_4*%
%TO.N,Net-(J202-Pin_4)*%
X88538000Y-111032000D03*
%TO.P,J204,5,Pin_5*%
%TO.N,Net-(J202-Pin_5)*%
X89572000Y-112591000D03*
%TO.P,J204,6,Pin_6*%
%TO.N,Net-(J202-Pin_6)*%
X91342000Y-113194000D03*
%TO.P,J204,7,Pin_7*%
%TO.N,Net-(J202-Pin_7)*%
X93112000Y-112591000D03*
%TO.P,J204,8,Pin_8*%
%TO.N,+VSW*%
X94146000Y-111032000D03*
%TO.P,J204,9,Pin_9*%
%TO.N,GND*%
X94014000Y-109167000D03*
%TO.P,J204,10,Pin_10*%
X91342000Y-109194000D03*
%TO.P,J204,11,Pin_11*%
%TO.N,Vbatt*%
X90389000Y-110844000D03*
%TO.P,J204,12,Pin_12*%
X92295000Y-110844000D03*
%TD*%
D24*
%TO.P,C211,1*%
%TO.N,+3.3V*%
X148070000Y-104885000D03*
%TO.P,C211,2*%
%TO.N,GND*%
X151020000Y-104885000D03*
%TD*%
D26*
%TO.P,J105,1,Pin_1*%
%TO.N,Net-(J105-Pin_1)*%
X44510000Y-59510000D03*
D27*
%TO.P,J105,2,Pin_2*%
%TO.N,Net-(J105-Pin_2)*%
X44510000Y-62050000D03*
%TO.P,J105,3,Pin_3*%
%TO.N,/CPU/Vext*%
X44510000Y-64590000D03*
%TO.P,J105,4,Pin_4*%
%TO.N,GND*%
X44510000Y-67130000D03*
%TD*%
D21*
%TO.P,C203,1*%
%TO.N,+VSW*%
X124870000Y-125160000D03*
%TO.P,C203,2*%
%TO.N,GND*%
X128270000Y-125160000D03*
%TD*%
D20*
%TO.P,R207,1*%
%TO.N,Net-(D204-A)*%
X132120000Y-115960000D03*
%TO.P,R207,2*%
%TO.N,+3.3V*%
X133620000Y-115960000D03*
%TD*%
D31*
%TO.P,U103,1,VCC*%
%TO.N,+3.3V*%
X29158000Y-78730000D03*
%TO.P,U103,2,GND*%
%TO.N,GND*%
X28508000Y-78730000D03*
%TO.P,U103,3,EN*%
%TO.N,+3.3V*%
X27858000Y-78730000D03*
%TO.P,U103,4,BUS2*%
%TO.N,/CPU/SCL*%
X27858000Y-80930000D03*
%TO.P,U103,5,GND*%
%TO.N,GND*%
X28508000Y-80930000D03*
%TO.P,U103,6,BUS1*%
%TO.N,/CPU/SDA*%
X29158000Y-80930000D03*
%TD*%
D22*
%TO.P,J202,1,Pin_1*%
%TO.N,Net-(J202-Pin_1)*%
X82410000Y-167590000D03*
D23*
%TO.P,J202,2,Pin_2*%
%TO.N,Net-(J202-Pin_2)*%
X84910000Y-167590000D03*
%TO.P,J202,3,Pin_3*%
%TO.N,Net-(J202-Pin_3)*%
X87410000Y-167590000D03*
%TO.P,J202,4,Pin_4*%
%TO.N,Net-(J202-Pin_4)*%
X89910000Y-167590000D03*
%TO.P,J202,5,Pin_5*%
%TO.N,Net-(J202-Pin_5)*%
X92410000Y-167590000D03*
%TO.P,J202,6,Pin_6*%
%TO.N,Net-(J202-Pin_6)*%
X94910000Y-167590000D03*
%TO.P,J202,7,Pin_7*%
%TO.N,Net-(J202-Pin_7)*%
X97410000Y-167590000D03*
%TD*%
D32*
%TO.P,JP101,1,A*%
%TO.N,+5V*%
X51855000Y-162265000D03*
D33*
%TO.P,JP101,2,C*%
%TO.N,/CPU/Vext*%
X53155000Y-162265000D03*
D34*
%TO.P,JP101,3,B*%
%TO.N,+3.3V*%
X54455000Y-162265000D03*
%TD*%
D35*
%TO.P,TP301,1,1*%
%TO.N,unconnected-(TP301-Pad1)*%
X85150000Y-45540000D03*
%TO.P,TP301,2*%
%TO.N,N/C*%
X87690000Y-45540000D03*
%TO.P,TP301,3*%
X90230000Y-45540000D03*
%TO.P,TP301,4*%
X92770000Y-45540000D03*
%TO.P,TP301,5*%
X85150000Y-48080000D03*
%TO.P,TP301,6*%
X87690000Y-48080000D03*
%TO.P,TP301,7*%
X90230000Y-48080000D03*
%TO.P,TP301,8*%
X92770000Y-48080000D03*
%TO.P,TP301,9*%
X85150000Y-50620000D03*
%TO.P,TP301,10*%
X87690000Y-50620000D03*
%TO.P,TP301,11*%
X90230000Y-50620000D03*
%TO.P,TP301,12*%
X92770000Y-50620000D03*
%TO.P,TP301,13*%
X85150000Y-53160000D03*
%TO.P,TP301,14*%
X87690000Y-53160000D03*
%TO.P,TP301,15*%
X90230000Y-53160000D03*
%TO.P,TP301,16*%
X92770000Y-53160000D03*
%TD*%
D22*
%TO.P,J206,1,Pin_1*%
%TO.N,Net-(J202-Pin_1)*%
X83210000Y-151490000D03*
D23*
%TO.P,J206,2,Pin_2*%
%TO.N,Net-(J202-Pin_2)*%
X85710000Y-151490000D03*
%TO.P,J206,3,Pin_3*%
%TO.N,Net-(J202-Pin_3)*%
X88210000Y-151490000D03*
%TO.P,J206,4,Pin_4*%
%TO.N,Net-(J202-Pin_4)*%
X90710000Y-151490000D03*
%TO.P,J206,5,Pin_5*%
%TO.N,Net-(J202-Pin_5)*%
X93210000Y-151490000D03*
%TO.P,J206,6,Pin_6*%
%TO.N,Net-(J202-Pin_6)*%
X95710000Y-151490000D03*
%TO.P,J206,7,Pin_7*%
%TO.N,Net-(J202-Pin_7)*%
X98210000Y-151490000D03*
%TD*%
D22*
%TO.P,J104,1,Pin_1*%
%TO.N,Net-(J104-Pin_1)*%
X140897500Y-152555000D03*
D23*
%TO.P,J104,2,Pin_2*%
%TO.N,Net-(J104-Pin_2)*%
X143397500Y-152555000D03*
%TO.P,J104,3,Pin_3*%
%TO.N,Net-(J104-Pin_3)*%
X145897500Y-152555000D03*
%TD*%
D14*
%TO.P,D203,1,K*%
%TO.N,GND*%
X146320000Y-118610000D03*
%TO.P,D203,2,A*%
%TO.N,Net-(D203-A)*%
X148320000Y-118610000D03*
%TD*%
D36*
%TO.P,U102,1,I/O1*%
%TO.N,Net-(J105-Pin_2)*%
X167297500Y-104210000D03*
%TO.P,U102,2,GND*%
%TO.N,GND*%
X167297500Y-105160000D03*
%TO.P,U102,3,I/O2*%
%TO.N,Net-(J105-Pin_1)*%
X167297500Y-106110000D03*
%TO.P,U102,4,I/O3*%
%TO.N,/CPU/SDA*%
X169572500Y-106110000D03*
%TO.P,U102,5,VBUS*%
%TO.N,+3.3V*%
X169572500Y-105160000D03*
%TO.P,U102,6,I/O4*%
%TO.N,/CPU/SCL*%
X169572500Y-104210000D03*
%TD*%
D14*
%TO.P,D204,1,K*%
%TO.N,GND*%
X146320000Y-121510000D03*
%TO.P,D204,2,A*%
%TO.N,Net-(D204-A)*%
X148320000Y-121510000D03*
%TD*%
D20*
%TO.P,R116,1*%
%TO.N,Net-(Q102-G)*%
X78522500Y-45570000D03*
%TO.P,R116,2*%
%TO.N,BUZZER*%
X80022500Y-45570000D03*
%TD*%
%TO.P,R112,1*%
%TO.N,Net-(D104-A)*%
X147270500Y-89294000D03*
%TO.P,R112,2*%
%TO.N,Net-(J103-Pin_2)*%
X148770500Y-89294000D03*
%TD*%
%TO.P,C205,1*%
%TO.N,+VSW*%
X124520000Y-103960000D03*
%TO.P,C205,2*%
%TO.N,GND*%
X126020000Y-103960000D03*
%TD*%
D37*
%TO.P,R106,1*%
%TO.N,Net-(J101-Pin_10)*%
X47800000Y-115390000D03*
%TO.P,R106,2*%
%TO.N,MTDI*%
X46300000Y-115390000D03*
%TD*%
D20*
%TO.P,C108,1*%
%TO.N,+3.3V*%
X45810000Y-159290000D03*
%TO.P,C108,2*%
%TO.N,GND*%
X47310000Y-159290000D03*
%TD*%
D36*
%TO.P,U202,1,NC*%
%TO.N,unconnected-(U202-NC-Pad1)*%
X143007500Y-104210000D03*
%TO.P,U202,2,A*%
%TO.N,/CPU/PWR_ESC_SB*%
X143007500Y-105160000D03*
%TO.P,U202,3,GND*%
%TO.N,GND*%
X143007500Y-106110000D03*
%TO.P,U202,4,Y*%
%TO.N,Net-(Q201-G)*%
X145282500Y-106110000D03*
%TO.P,U202,5,VCC*%
%TO.N,+5V*%
X145282500Y-104210000D03*
%TD*%
D38*
%TO.P,D201,1,K*%
%TO.N,+3.3V*%
X150970000Y-118935000D03*
%TO.P,D201,2,A*%
%TO.N,Vbatt*%
X154270000Y-118935000D03*
%TD*%
D18*
%TO.P,Q205,1,G*%
%TO.N,Net-(Q201-G)*%
X72130000Y-68732500D03*
%TO.P,Q205,2,S*%
%TO.N,GND*%
X70230000Y-68732500D03*
%TO.P,Q205,3,D*%
%TO.N,Net-(D205-K)*%
X71180000Y-70607500D03*
%TD*%
D39*
%TO.P,D105,1,K*%
%TO.N,GND*%
X132490000Y-159652000D03*
%TO.P,D105,2,A*%
%TO.N,Net-(D105-A)*%
X134065000Y-159652000D03*
%TD*%
D20*
%TO.P,C111,1*%
%TO.N,+5V*%
X49610000Y-152090000D03*
%TO.P,C111,2*%
%TO.N,GND*%
X51110000Y-152090000D03*
%TD*%
D36*
%TO.P,U203,1,NC*%
%TO.N,unconnected-(U203-NC-Pad1)*%
X143007500Y-108835000D03*
%TO.P,U203,2,A*%
%TO.N,/CPU/PWR_ESC_BB*%
X143007500Y-109785000D03*
%TO.P,U203,3,GND*%
%TO.N,GND*%
X143007500Y-110735000D03*
%TO.P,U203,4,Y*%
%TO.N,Net-(Q202-G)*%
X145282500Y-110735000D03*
%TO.P,U203,5,VCC*%
%TO.N,+5V*%
X145282500Y-108835000D03*
%TD*%
D17*
%TO.P,D103,1,VDD*%
%TO.N,+3.3V*%
X159200000Y-111040000D03*
%TO.P,D103,2,DOUT*%
%TO.N,Net-(D103-DOUT)*%
X159200000Y-114340000D03*
%TO.P,D103,3,VSS*%
%TO.N,GND*%
X164100000Y-114340000D03*
%TO.P,D103,4,DIN*%
%TO.N,Net-(D102-DOUT)*%
X164100000Y-111040000D03*
%TD*%
D24*
%TO.P,C103,1*%
%TO.N,+3.3V*%
X137015000Y-64590000D03*
%TO.P,C103,2*%
%TO.N,GND*%
X139965000Y-64590000D03*
%TD*%
D20*
%TO.P,R102,1*%
%TO.N,+3.3V*%
X54624000Y-140514000D03*
%TO.P,R102,2*%
%TO.N,EN*%
X56124000Y-140514000D03*
%TD*%
D40*
%TO.P,SW201,1,A*%
%TO.N,Vbatt*%
X132620000Y-121210000D03*
%TO.P,SW201,2,B*%
%TO.N,+VSW*%
X137320000Y-121210000D03*
%TO.P,SW201,3*%
%TO.N,N/C*%
X142020000Y-121210000D03*
%TD*%
D22*
%TO.P,J203,1,Pin_1*%
%TO.N,Net-(J202-Pin_1)*%
X82510000Y-159365000D03*
D23*
%TO.P,J203,2,Pin_2*%
%TO.N,Net-(J202-Pin_2)*%
X85010000Y-159365000D03*
%TO.P,J203,3,Pin_3*%
%TO.N,Net-(J202-Pin_3)*%
X87510000Y-159365000D03*
%TO.P,J203,4,Pin_4*%
%TO.N,Net-(J202-Pin_4)*%
X90010000Y-159365000D03*
%TO.P,J203,5,Pin_5*%
%TO.N,Net-(J202-Pin_5)*%
X92510000Y-159365000D03*
%TO.P,J203,6,Pin_6*%
%TO.N,Net-(J202-Pin_6)*%
X95010000Y-159365000D03*
%TO.P,J203,7,Pin_7*%
%TO.N,Net-(J202-Pin_7)*%
X97510000Y-159365000D03*
%TD*%
D20*
%TO.P,C113,1*%
%TO.N,+3.3V*%
X49610000Y-156890000D03*
%TO.P,C113,2*%
%TO.N,GND*%
X51110000Y-156890000D03*
%TD*%
D36*
%TO.P,U105,1,NC*%
%TO.N,unconnected-(U105-NC-Pad1)*%
X132140000Y-152860000D03*
%TO.P,U105,2,A*%
%TO.N,ESC_SB*%
X132140000Y-153810000D03*
%TO.P,U105,3,GND*%
%TO.N,GND*%
X132140000Y-154760000D03*
%TO.P,U105,4,Y*%
%TO.N,Net-(J104-Pin_1)*%
X134415000Y-154760000D03*
%TO.P,U105,5,VCC*%
%TO.N,+5V*%
X134415000Y-152860000D03*
%TD*%
D18*
%TO.P,Q202,1,G*%
%TO.N,Net-(Q202-G)*%
X108960000Y-68732500D03*
%TO.P,Q202,2,S*%
%TO.N,GND*%
X107060000Y-68732500D03*
%TO.P,Q202,3,D*%
%TO.N,Net-(D206-K)*%
X108010000Y-70607500D03*
%TD*%
D20*
%TO.P,C217,1*%
%TO.N,Net-(D206-K)*%
X128320000Y-111160000D03*
%TO.P,C217,2*%
%TO.N,GND*%
X129820000Y-111160000D03*
%TD*%
D41*
%TO.P,L201,1*%
%TO.N,Net-(D202-K)*%
X131470000Y-129085000D03*
%TO.P,L201,2*%
%TO.N,+3.3V*%
X137470000Y-129085000D03*
%TD*%
D21*
%TO.P,C214,1*%
%TO.N,+3.3V*%
X124870000Y-131560000D03*
%TO.P,C214,2*%
%TO.N,GND*%
X128270000Y-131560000D03*
%TD*%
D20*
%TO.P,C210,1*%
%TO.N,+5V*%
X124520000Y-115960000D03*
%TO.P,C210,2*%
%TO.N,GND*%
X126020000Y-115960000D03*
%TD*%
D18*
%TO.P,Q201,1,G*%
%TO.N,Net-(Q201-G)*%
X67050000Y-68732500D03*
%TO.P,Q201,2,S*%
%TO.N,GND*%
X65150000Y-68732500D03*
%TO.P,Q201,3,D*%
%TO.N,Net-(D205-K)*%
X66100000Y-70607500D03*
%TD*%
D20*
%TO.P,R107,1*%
%TO.N,BUTTON*%
X30060000Y-150090000D03*
%TO.P,R107,2*%
%TO.N,GND*%
X31560000Y-150090000D03*
%TD*%
D39*
%TO.P,D104,1,K*%
%TO.N,GND*%
X147487000Y-92596000D03*
%TO.P,D104,2,A*%
%TO.N,Net-(D104-A)*%
X149062000Y-92596000D03*
%TD*%
D21*
%TO.P,C218,1*%
%TO.N,+5V*%
X124870000Y-134760000D03*
%TO.P,C218,2*%
%TO.N,GND*%
X128270000Y-134760000D03*
%TD*%
D15*
%TO.P,J201,1,Pin_1*%
%TO.N,GND*%
X87690000Y-78770000D03*
D16*
%TO.P,J201,2,Pin_2*%
%TO.N,Vbatt*%
X87690000Y-85970000D03*
%TD*%
D20*
%TO.P,C207,1*%
%TO.N,Vbatt*%
X124520000Y-108760000D03*
%TO.P,C207,2*%
%TO.N,GND*%
X126020000Y-108760000D03*
%TD*%
D15*
%TO.P,J205,1,Pin_1*%
%TO.N,GND*%
X101680000Y-78770000D03*
D16*
%TO.P,J205,2,Pin_2*%
%TO.N,Vbatt*%
X101680000Y-85970000D03*
%TD*%
D20*
%TO.P,R204,1*%
%TO.N,+3.3V*%
X132120000Y-108760000D03*
%TO.P,R204,2*%
%TO.N,Net-(U201-Vsens)*%
X133620000Y-108760000D03*
%TD*%
D42*
%TO.P,U101,1,GND*%
%TO.N,GND*%
X24743000Y-118750000D03*
%TO.P,U101,2,VDD*%
%TO.N,+3.3V*%
X26013000Y-118750000D03*
%TO.P,U101,3,CHIP_PU/EN*%
%TO.N,EN*%
X27283000Y-118750000D03*
%TO.P,U101,4,GPIO36*%
%TO.N,unconnected-(U101-GPIO36-Pad4)*%
X28553000Y-118750000D03*
%TO.P,U101,5,GPIO39*%
%TO.N,unconnected-(U101-GPIO39-Pad5)*%
X29823000Y-118750000D03*
%TO.P,U101,6,GPIO34*%
%TO.N,unconnected-(U101-GPIO34-Pad6)*%
X31093000Y-118750000D03*
%TO.P,U101,7,GPIO35*%
%TO.N,Vbatt*%
X32363000Y-118750000D03*
%TO.P,U101,8,GPIO32*%
%TO.N,/CPU/PWR_ESC_BB*%
X33633000Y-118750000D03*
%TO.P,U101,9,GPIO33*%
%TO.N,/CPU/PWR_ESC_SB*%
X34903000Y-118750000D03*
%TO.P,U101,10,GPIO25*%
%TO.N,ESC_BB*%
X36173000Y-118750000D03*
%TO.P,U101,11,GPIO26*%
%TO.N,ESC_SB*%
X37443000Y-118750000D03*
%TO.P,U101,12,GPIO27*%
%TO.N,LEDS*%
X38713000Y-118750000D03*
%TO.P,U101,13,MTMS/SCK/CLK/GPIO14*%
%TO.N,MTMS*%
X39983000Y-118750000D03*
%TO.P,U101,14,MTDI/MISO/D2/GPIO12*%
%TO.N,MTDI*%
X41253000Y-118750000D03*
D43*
%TO.P,U101,15,GND*%
%TO.N,GND*%
X42503000Y-115715000D03*
%TO.P,U101,16,MTCK/MOSI/D3/GPIO13*%
%TO.N,MTCK*%
X42503000Y-114445000D03*
%TO.P,U101,17,NC*%
%TO.N,unconnected-(U101-NC-Pad17)*%
X42503000Y-113175000D03*
%TO.P,U101,18,NC*%
%TO.N,unconnected-(U101-NC-Pad18)*%
X42503000Y-111905000D03*
%TO.P,U101,19,NC*%
%TO.N,unconnected-(U101-NC-Pad19)*%
X42503000Y-110635000D03*
%TO.P,U101,20,NC*%
%TO.N,unconnected-(U101-NC-Pad20)*%
X42503000Y-109365000D03*
%TO.P,U101,21,NC*%
%TO.N,unconnected-(U101-NC-Pad21)*%
X42503000Y-108095000D03*
%TO.P,U101,22,NC*%
%TO.N,unconnected-(U101-NC-Pad22)*%
X42503000Y-106825000D03*
%TO.P,U101,23,MTDO/CS/CMD/GPIO15*%
%TO.N,MTDO*%
X42503000Y-105555000D03*
%TO.P,U101,24,D0/GPIO2*%
%TO.N,/CPU/RADIO_5*%
X42503000Y-104285000D03*
D42*
%TO.P,U101,25,BOOT/GPIO0*%
%TO.N,DR0*%
X41253000Y-101250000D03*
%TO.P,U101,26,D1/GPIO4*%
%TO.N,BUZZER*%
X39983000Y-101250000D03*
%TO.P,U101,27,RXD/GPIO16*%
%TO.N,Net-(J105-Pin_2)*%
X38713000Y-101250000D03*
%TO.P,U101,28,TXD/GPIO17*%
%TO.N,Net-(J105-Pin_1)*%
X37443000Y-101250000D03*
%TO.P,U101,29,CS/GPIO5*%
%TO.N,unconnected-(U101-CS{slash}GPIO5-Pad29)*%
X36173000Y-101250000D03*
%TO.P,U101,30,SCK/GPIO18*%
%TO.N,unconnected-(U101-SCK{slash}GPIO18-Pad30)*%
X34903000Y-101250000D03*
%TO.P,U101,31,MISO/GPIO19*%
%TO.N,unconnected-(U101-MISO{slash}GPIO19-Pad31)*%
X33633000Y-101250000D03*
%TO.P,U101,32,NC*%
%TO.N,unconnected-(U101-NC-Pad32)*%
X32363000Y-101250000D03*
%TO.P,U101,33,SDA/GPIO21*%
%TO.N,/CPU/SDA*%
X31093000Y-101250000D03*
%TO.P,U101,34,RXD/GPIO3*%
%TO.N,RX*%
X29823000Y-101250000D03*
%TO.P,U101,35,TXD/GPIO1*%
%TO.N,TX*%
X28553000Y-101250000D03*
%TO.P,U101,36,SCL/GPIO22*%
%TO.N,/CPU/SCL*%
X27283000Y-101250000D03*
%TO.P,U101,37,MOSI/GPIO23*%
%TO.N,unconnected-(U101-MOSI{slash}GPIO23-Pad37)*%
X26013000Y-101250000D03*
%TO.P,U101,38,GND*%
%TO.N,GND*%
X24743000Y-101250000D03*
D44*
%TO.P,U101,39,GND*%
X32088000Y-110860000D03*
%TD*%
D20*
%TO.P,R203,1*%
%TO.N,Vbatt*%
X132120000Y-106360000D03*
%TO.P,R203,2*%
%TO.N,GND*%
X133620000Y-106360000D03*
%TD*%
%TO.P,C215,1*%
%TO.N,+3.3V*%
X128320000Y-106360000D03*
%TO.P,C215,2*%
%TO.N,GND*%
X129820000Y-106360000D03*
%TD*%
D37*
%TO.P,R104,1*%
%TO.N,Net-(J101-Pin_8)*%
X47800000Y-112850000D03*
%TO.P,R104,2*%
%TO.N,MTCK*%
X46300000Y-112850000D03*
%TD*%
D22*
%TO.P,J106,1,Pin_1*%
%TO.N,GND*%
X44236000Y-77307000D03*
D23*
%TO.P,J106,2,Pin_2*%
%TO.N,+5V*%
X46736000Y-77307000D03*
%TO.P,J106,3,Pin_3*%
%TO.N,/CPU/SCL*%
X49236000Y-77307000D03*
%TO.P,J106,4,Pin_4*%
%TO.N,/CPU/SDA*%
X51736000Y-77307000D03*
%TD*%
D21*
%TO.P,C202,1*%
%TO.N,+VSW*%
X124870000Y-121960000D03*
%TO.P,C202,2*%
%TO.N,GND*%
X128270000Y-121960000D03*
%TD*%
D28*
%TO.P,TP202,1,1*%
%TO.N,GND*%
X107502000Y-133932000D03*
%TD*%
D20*
%TO.P,C109,1*%
%TO.N,+3.3V*%
X49610000Y-147290000D03*
%TO.P,C109,2*%
%TO.N,GND*%
X51110000Y-147290000D03*
%TD*%
%TO.P,R108,1*%
%TO.N,+3.3V*%
X57224000Y-143614000D03*
%TO.P,R108,2*%
%TO.N,/CPU/SDA*%
X58724000Y-143614000D03*
%TD*%
%TO.P,C206,1*%
%TO.N,+VSW*%
X124520000Y-106360000D03*
%TO.P,C206,2*%
%TO.N,GND*%
X126020000Y-106360000D03*
%TD*%
%TO.P,C209,1*%
%TO.N,+5V*%
X124520000Y-113560000D03*
%TO.P,C209,2*%
%TO.N,GND*%
X126020000Y-113560000D03*
%TD*%
D45*
%TO.P,L202,1*%
%TO.N,+3.3V*%
X150745000Y-122260000D03*
%TO.P,L202,2*%
%TO.N,Net-(U204-SW)*%
X152395000Y-122260000D03*
%TD*%
D20*
%TO.P,R202,1*%
%TO.N,+VSW*%
X132120000Y-103960000D03*
%TO.P,R202,2*%
%TO.N,Vbatt*%
X133620000Y-103960000D03*
%TD*%
%TO.P,C219,1*%
%TO.N,+5V*%
X128320000Y-113560000D03*
%TO.P,C219,2*%
%TO.N,GND*%
X129820000Y-113560000D03*
%TD*%
D38*
%TO.P,D101,1,K*%
%TO.N,+3.3V*%
X45860000Y-162265000D03*
%TO.P,D101,2,A*%
%TO.N,BUTTON*%
X49160000Y-162265000D03*
%TD*%
D20*
%TO.P,C107,1*%
%TO.N,+3.3V*%
X45810000Y-156890000D03*
%TO.P,C107,2*%
%TO.N,GND*%
X47310000Y-156890000D03*
%TD*%
D24*
%TO.P,C102,1*%
%TO.N,+3.3V*%
X137015000Y-60340000D03*
%TO.P,C102,2*%
%TO.N,GND*%
X139965000Y-60340000D03*
%TD*%
D20*
%TO.P,R210,1*%
%TO.N,+5V*%
X135920000Y-108760000D03*
%TO.P,R210,2*%
%TO.N,Net-(U204-FB)*%
X137420000Y-108760000D03*
%TD*%
%TO.P,R114,1*%
%TO.N,GND*%
X78522500Y-40770000D03*
%TO.P,R114,2*%
%TO.N,Net-(J103-Pin_3)*%
X80022500Y-40770000D03*
%TD*%
%TO.P,C208,1*%
%TO.N,Net-(D202-K)*%
X124520000Y-111160000D03*
%TO.P,C208,2*%
%TO.N,Net-(U201-BOOT)*%
X126020000Y-111160000D03*
%TD*%
D37*
%TO.P,R105,1*%
%TO.N,Net-(J101-Pin_9)*%
X47800000Y-105230000D03*
%TO.P,R105,2*%
%TO.N,MTDO*%
X46300000Y-105230000D03*
%TD*%
D18*
%TO.P,Q207,1,G*%
%TO.N,Net-(Q201-G)*%
X82290000Y-68732500D03*
%TO.P,Q207,2,S*%
%TO.N,GND*%
X80390000Y-68732500D03*
%TO.P,Q207,3,D*%
%TO.N,Net-(D205-K)*%
X81340000Y-70607500D03*
%TD*%
D46*
%TO.P,U201,1,BOOT*%
%TO.N,Net-(U201-BOOT)*%
X146445000Y-130210000D03*
%TO.P,U201,2,NC*%
%TO.N,unconnected-(U201-NC-Pad2)*%
X146445000Y-131480000D03*
%TO.P,U201,3,NC*%
%TO.N,unconnected-(U201-NC-Pad3)*%
X146445000Y-132750000D03*
%TO.P,U201,4,Vsens*%
%TO.N,Net-(U201-Vsens)*%
X146445000Y-134020000D03*
%TO.P,U201,5,ENA*%
%TO.N,unconnected-(U201-ENA-Pad5)*%
X151745000Y-134020000D03*
%TO.P,U201,6,GND*%
%TO.N,GND*%
X151745000Y-132750000D03*
%TO.P,U201,7,Vin*%
%TO.N,+VSW*%
X151745000Y-131480000D03*
%TO.P,U201,8,PH*%
%TO.N,Net-(D202-K)*%
X151745000Y-130210000D03*
D47*
%TO.P,U201,9,PAD*%
%TO.N,GND*%
X148145000Y-130765000D03*
X148145000Y-132115000D03*
X148145000Y-133465000D03*
D48*
X149095000Y-132115000D03*
D47*
X150045000Y-130765000D03*
X150045000Y-132115000D03*
X150045000Y-133465000D03*
%TD*%
D35*
%TO.P,TP302,1,1*%
%TO.N,unconnected-(TP302-Pad1)*%
X109280000Y-175080000D03*
%TO.P,TP302,2*%
%TO.N,N/C*%
X111820000Y-175080000D03*
%TO.P,TP302,3*%
X114360000Y-175080000D03*
%TO.P,TP302,4*%
X116900000Y-175080000D03*
%TO.P,TP302,5*%
X109280000Y-177620000D03*
%TO.P,TP302,6*%
X111820000Y-177620000D03*
%TO.P,TP302,7*%
X114360000Y-177620000D03*
%TO.P,TP302,8*%
X116900000Y-177620000D03*
%TO.P,TP302,9*%
X109280000Y-180160000D03*
%TO.P,TP302,10*%
X111820000Y-180160000D03*
%TO.P,TP302,11*%
X114360000Y-180160000D03*
%TO.P,TP302,12*%
X116900000Y-180160000D03*
%TO.P,TP302,13*%
X109280000Y-182700000D03*
%TO.P,TP302,14*%
X111820000Y-182700000D03*
%TO.P,TP302,15*%
X114360000Y-182700000D03*
%TO.P,TP302,16*%
X116900000Y-182700000D03*
%TD*%
D49*
%TO.P,U204,1,SW*%
%TO.N,Net-(U204-SW)*%
X81860000Y-178927500D03*
%TO.P,U204,2,GND*%
%TO.N,GND*%
X82810000Y-178927500D03*
%TO.P,U204,3,FB*%
%TO.N,Net-(U204-FB)*%
X83760000Y-178927500D03*
%TO.P,U204,4,EN*%
%TO.N,+3.3V*%
X83760000Y-176652500D03*
%TO.P,U204,5,VOUT*%
%TO.N,+5V*%
X82810000Y-176652500D03*
%TO.P,U204,6,VI*%
%TO.N,+3.3V*%
X81860000Y-176652500D03*
%TD*%
D37*
%TO.P,R103,1*%
%TO.N,Net-(J101-Pin_7)*%
X47800000Y-117930000D03*
%TO.P,R103,2*%
%TO.N,MTMS*%
X46300000Y-117930000D03*
%TD*%
D20*
%TO.P,R110,1*%
%TO.N,BUTTON*%
X27610000Y-142690000D03*
%TO.P,R110,2*%
%TO.N,Net-(J102-Pin_3)*%
X29110000Y-142690000D03*
%TD*%
D15*
%TO.P,J208,1,Pin_1*%
%TO.N,Net-(D206-K)*%
X115630000Y-78770000D03*
D16*
%TO.P,J208,2,Pin_2*%
%TO.N,Vbatt*%
X115630000Y-85970000D03*
%TD*%
D22*
%TO.P,J102,1,Pin_1*%
%TO.N,Net-(J102-Pin_1)*%
X56234000Y-130838000D03*
D23*
%TO.P,J102,2,Pin_2*%
%TO.N,+3.3V*%
X58734000Y-130838000D03*
%TO.P,J102,3,Pin_3*%
%TO.N,Net-(J102-Pin_3)*%
X61234000Y-130838000D03*
%TD*%
D20*
%TO.P,C213,1*%
%TO.N,+3.3V*%
X128320000Y-103960000D03*
%TO.P,C213,2*%
%TO.N,GND*%
X129820000Y-103960000D03*
%TD*%
%TO.P,C105,1*%
%TO.N,+3.3V*%
X45810000Y-152090000D03*
%TO.P,C105,2*%
%TO.N,GND*%
X47310000Y-152090000D03*
%TD*%
%TO.P,R209,1*%
%TO.N,+5V*%
X135920000Y-106360000D03*
%TO.P,R209,2*%
%TO.N,Net-(D206-A)*%
X137420000Y-106360000D03*
%TD*%
D50*
%TO.P,Q102,1,G*%
%TO.N,Net-(Q102-G)*%
X64830000Y-55070000D03*
%TO.P,Q102,2,S*%
%TO.N,GND*%
X64830000Y-56970000D03*
%TO.P,Q102,3,D*%
%TO.N,Net-(BZ101--)*%
X66705000Y-56020000D03*
%TD*%
%TO.P,Q101,1,G*%
%TO.N,BUTTON_LIGHT*%
X167367500Y-108830000D03*
%TO.P,Q101,2,S*%
%TO.N,GND*%
X167367500Y-110730000D03*
%TO.P,Q101,3,D*%
%TO.N,Net-(Q101-D)*%
X169242500Y-109780000D03*
%TD*%
D20*
%TO.P,R101,1*%
%TO.N,+3.3V*%
X40289000Y-91279000D03*
%TO.P,R101,2*%
%TO.N,DR0*%
X41789000Y-91279000D03*
%TD*%
%TO.P,C104,1*%
%TO.N,+3.3V*%
X45810000Y-149690000D03*
%TO.P,C104,2*%
%TO.N,GND*%
X47310000Y-149690000D03*
%TD*%
%TO.P,R113,1*%
%TO.N,Net-(D105-A)*%
X131511500Y-157112000D03*
%TO.P,R113,2*%
%TO.N,Net-(J104-Pin_2)*%
X133011500Y-157112000D03*
%TD*%
D26*
%TO.P,SW101,1,1*%
%TO.N,GND*%
X67370000Y-110310000D03*
D27*
%TO.P,SW101,2,2*%
%TO.N,DR0*%
X64830000Y-110310000D03*
%TD*%
D20*
%TO.P,C216,1*%
%TO.N,Net-(D205-K)*%
X128320000Y-108760000D03*
%TO.P,C216,2*%
%TO.N,GND*%
X129820000Y-108760000D03*
%TD*%
D18*
%TO.P,Q208,1,G*%
%TO.N,Net-(Q202-G)*%
X124200000Y-68732500D03*
%TO.P,Q208,2,S*%
%TO.N,GND*%
X122300000Y-68732500D03*
%TO.P,Q208,3,D*%
%TO.N,Net-(D206-K)*%
X123250000Y-70607500D03*
%TD*%
D36*
%TO.P,U104,1,NC*%
%TO.N,unconnected-(U104-NC-Pad1)*%
X146375000Y-85550000D03*
%TO.P,U104,2,A*%
%TO.N,ESC_BB*%
X146375000Y-86500000D03*
%TO.P,U104,3,GND*%
%TO.N,GND*%
X146375000Y-87450000D03*
%TO.P,U104,4,Y*%
%TO.N,Net-(J103-Pin_1)*%
X148650000Y-87450000D03*
%TO.P,U104,5,VCC*%
%TO.N,+5V*%
X148650000Y-85550000D03*
%TD*%
D14*
%TO.P,D205,1,K*%
%TO.N,Net-(D205-K)*%
X146320000Y-124410000D03*
%TO.P,D205,2,A*%
%TO.N,Net-(D205-A)*%
X148320000Y-124410000D03*
%TD*%
D20*
%TO.P,C112,1*%
%TO.N,GND*%
X49610000Y-154490000D03*
%TO.P,C112,2*%
%TO.N,BUTTON*%
X51110000Y-154490000D03*
%TD*%
%TO.P,R115,1*%
%TO.N,GND*%
X78522500Y-43170000D03*
%TO.P,R115,2*%
%TO.N,Net-(J104-Pin_3)*%
X80022500Y-43170000D03*
%TD*%
D51*
%TO.N,Net-(D205-K)*%
X76260000Y-74855000D02*
X73720000Y-77395000D01*
X81340000Y-74750000D02*
X77320000Y-78770000D01*
X77320000Y-78770000D02*
X73720000Y-78770000D01*
X66100000Y-70607500D02*
X66100000Y-74750000D01*
X73720000Y-77395000D02*
X73720000Y-78770000D01*
X71180000Y-74750000D02*
X72450000Y-76020000D01*
X81340000Y-70607500D02*
X81340000Y-74750000D01*
X70120000Y-78770000D02*
X73720000Y-78770000D01*
X76260000Y-70607500D02*
X76260000Y-74855000D01*
X72450000Y-77500000D02*
X73720000Y-78770000D01*
X66100000Y-74750000D02*
X70120000Y-78770000D01*
X72450000Y-76020000D02*
X72450000Y-77500000D01*
X71180000Y-70607500D02*
X71180000Y-74750000D01*
%TO.N,Net-(D206-K)*%
X119230000Y-78770000D02*
X115630000Y-78770000D01*
X112030000Y-78770000D02*
X115630000Y-78770000D01*
X113090000Y-70607500D02*
X113090000Y-74750000D01*
X123250000Y-70607500D02*
X123250000Y-74750000D01*
X118170000Y-70607500D02*
X118170000Y-74750000D01*
X115630000Y-77290000D02*
X115630000Y-78770000D01*
X123250000Y-74750000D02*
X119230000Y-78770000D01*
X108010000Y-74750000D02*
X112030000Y-78770000D01*
X118170000Y-74750000D02*
X115630000Y-77290000D01*
X108010000Y-70607500D02*
X108010000Y-74750000D01*
X113090000Y-74750000D02*
X115630000Y-77290000D01*
%TD*%
M02*
