%TF.GenerationSoftware,KiCad,Pcbnew,8.0.3*%
%TF.CreationDate,2024-07-03T22:49:40+02:00*%
%TF.ProjectId,Robuoy-Sub,526f6275-6f79-42d5-9375-622e6b696361,rev?*%
%TF.SameCoordinates,Original*%
%TF.FileFunction,Other,Comment*%
%FSLAX46Y46*%
G04 Gerber Fmt 4.6, Leading zero omitted, Abs format (unit mm)*
G04 Created by KiCad (PCBNEW 8.0.3) date 2024-07-03 22:49:40*
%MOMM*%
%LPD*%
G01*
G04 APERTURE LIST*
%ADD10C,0.100000*%
%ADD11C,0.150000*%
G04 APERTURE END LIST*
D10*
X136271904Y-146991109D02*
X136033809Y-146991109D01*
X136033809Y-146991109D02*
X136010000Y-147229204D01*
X136010000Y-147229204D02*
X136033809Y-147205395D01*
X136033809Y-147205395D02*
X136081428Y-147181585D01*
X136081428Y-147181585D02*
X136200476Y-147181585D01*
X136200476Y-147181585D02*
X136248095Y-147205395D01*
X136248095Y-147205395D02*
X136271904Y-147229204D01*
X136271904Y-147229204D02*
X136295714Y-147276823D01*
X136295714Y-147276823D02*
X136295714Y-147395871D01*
X136295714Y-147395871D02*
X136271904Y-147443490D01*
X136271904Y-147443490D02*
X136248095Y-147467300D01*
X136248095Y-147467300D02*
X136200476Y-147491109D01*
X136200476Y-147491109D02*
X136081428Y-147491109D01*
X136081428Y-147491109D02*
X136033809Y-147467300D01*
X136033809Y-147467300D02*
X136010000Y-147443490D01*
X136890951Y-147491109D02*
X136890951Y-147157776D01*
X136890951Y-147205395D02*
X136914761Y-147181585D01*
X136914761Y-147181585D02*
X136962380Y-147157776D01*
X136962380Y-147157776D02*
X137033808Y-147157776D01*
X137033808Y-147157776D02*
X137081427Y-147181585D01*
X137081427Y-147181585D02*
X137105237Y-147229204D01*
X137105237Y-147229204D02*
X137105237Y-147491109D01*
X137105237Y-147229204D02*
X137129046Y-147181585D01*
X137129046Y-147181585D02*
X137176665Y-147157776D01*
X137176665Y-147157776D02*
X137248094Y-147157776D01*
X137248094Y-147157776D02*
X137295713Y-147181585D01*
X137295713Y-147181585D02*
X137319523Y-147229204D01*
X137319523Y-147229204D02*
X137319523Y-147491109D01*
X137557618Y-147491109D02*
X137557618Y-147157776D01*
X137557618Y-147205395D02*
X137581428Y-147181585D01*
X137581428Y-147181585D02*
X137629047Y-147157776D01*
X137629047Y-147157776D02*
X137700475Y-147157776D01*
X137700475Y-147157776D02*
X137748094Y-147181585D01*
X137748094Y-147181585D02*
X137771904Y-147229204D01*
X137771904Y-147229204D02*
X137771904Y-147491109D01*
X137771904Y-147229204D02*
X137795713Y-147181585D01*
X137795713Y-147181585D02*
X137843332Y-147157776D01*
X137843332Y-147157776D02*
X137914761Y-147157776D01*
X137914761Y-147157776D02*
X137962380Y-147181585D01*
X137962380Y-147181585D02*
X137986190Y-147229204D01*
X137986190Y-147229204D02*
X137986190Y-147491109D01*
X117736109Y-152703095D02*
X117736109Y-152941190D01*
X117736109Y-152941190D02*
X117974204Y-152964999D01*
X117974204Y-152964999D02*
X117950395Y-152941190D01*
X117950395Y-152941190D02*
X117926585Y-152893571D01*
X117926585Y-152893571D02*
X117926585Y-152774523D01*
X117926585Y-152774523D02*
X117950395Y-152726904D01*
X117950395Y-152726904D02*
X117974204Y-152703095D01*
X117974204Y-152703095D02*
X118021823Y-152679285D01*
X118021823Y-152679285D02*
X118140871Y-152679285D01*
X118140871Y-152679285D02*
X118188490Y-152703095D01*
X118188490Y-152703095D02*
X118212300Y-152726904D01*
X118212300Y-152726904D02*
X118236109Y-152774523D01*
X118236109Y-152774523D02*
X118236109Y-152893571D01*
X118236109Y-152893571D02*
X118212300Y-152941190D01*
X118212300Y-152941190D02*
X118188490Y-152964999D01*
X118236109Y-152084048D02*
X117902776Y-152084048D01*
X117950395Y-152084048D02*
X117926585Y-152060238D01*
X117926585Y-152060238D02*
X117902776Y-152012619D01*
X117902776Y-152012619D02*
X117902776Y-151941191D01*
X117902776Y-151941191D02*
X117926585Y-151893572D01*
X117926585Y-151893572D02*
X117974204Y-151869762D01*
X117974204Y-151869762D02*
X118236109Y-151869762D01*
X117974204Y-151869762D02*
X117926585Y-151845953D01*
X117926585Y-151845953D02*
X117902776Y-151798334D01*
X117902776Y-151798334D02*
X117902776Y-151726905D01*
X117902776Y-151726905D02*
X117926585Y-151679286D01*
X117926585Y-151679286D02*
X117974204Y-151655476D01*
X117974204Y-151655476D02*
X118236109Y-151655476D01*
X118236109Y-151417381D02*
X117902776Y-151417381D01*
X117950395Y-151417381D02*
X117926585Y-151393571D01*
X117926585Y-151393571D02*
X117902776Y-151345952D01*
X117902776Y-151345952D02*
X117902776Y-151274524D01*
X117902776Y-151274524D02*
X117926585Y-151226905D01*
X117926585Y-151226905D02*
X117974204Y-151203095D01*
X117974204Y-151203095D02*
X118236109Y-151203095D01*
X117974204Y-151203095D02*
X117926585Y-151179286D01*
X117926585Y-151179286D02*
X117902776Y-151131667D01*
X117902776Y-151131667D02*
X117902776Y-151060238D01*
X117902776Y-151060238D02*
X117926585Y-151012619D01*
X117926585Y-151012619D02*
X117974204Y-150988809D01*
X117974204Y-150988809D02*
X118236109Y-150988809D01*
D11*
X119738571Y-152344819D02*
X119738571Y-151344819D01*
X120309999Y-152344819D02*
X119881428Y-151773390D01*
X120309999Y-151344819D02*
X119738571Y-151916247D01*
X120738571Y-151821009D02*
X121071904Y-151821009D01*
X121214761Y-152344819D02*
X120738571Y-152344819D01*
X120738571Y-152344819D02*
X120738571Y-151344819D01*
X120738571Y-151344819D02*
X121214761Y-151344819D01*
X121643333Y-151821009D02*
X121976666Y-151821009D01*
X122119523Y-152344819D02*
X121643333Y-152344819D01*
X121643333Y-152344819D02*
X121643333Y-151344819D01*
X121643333Y-151344819D02*
X122119523Y-151344819D01*
X122548095Y-152344819D02*
X122548095Y-151344819D01*
X122548095Y-151344819D02*
X122929047Y-151344819D01*
X122929047Y-151344819D02*
X123024285Y-151392438D01*
X123024285Y-151392438D02*
X123071904Y-151440057D01*
X123071904Y-151440057D02*
X123119523Y-151535295D01*
X123119523Y-151535295D02*
X123119523Y-151678152D01*
X123119523Y-151678152D02*
X123071904Y-151773390D01*
X123071904Y-151773390D02*
X123024285Y-151821009D01*
X123024285Y-151821009D02*
X122929047Y-151868628D01*
X122929047Y-151868628D02*
X122548095Y-151868628D01*
X123548095Y-151963866D02*
X124310000Y-151963866D01*
X124976666Y-151344819D02*
X125167142Y-151344819D01*
X125167142Y-151344819D02*
X125262380Y-151392438D01*
X125262380Y-151392438D02*
X125357618Y-151487676D01*
X125357618Y-151487676D02*
X125405237Y-151678152D01*
X125405237Y-151678152D02*
X125405237Y-152011485D01*
X125405237Y-152011485D02*
X125357618Y-152201961D01*
X125357618Y-152201961D02*
X125262380Y-152297200D01*
X125262380Y-152297200D02*
X125167142Y-152344819D01*
X125167142Y-152344819D02*
X124976666Y-152344819D01*
X124976666Y-152344819D02*
X124881428Y-152297200D01*
X124881428Y-152297200D02*
X124786190Y-152201961D01*
X124786190Y-152201961D02*
X124738571Y-152011485D01*
X124738571Y-152011485D02*
X124738571Y-151678152D01*
X124738571Y-151678152D02*
X124786190Y-151487676D01*
X124786190Y-151487676D02*
X124881428Y-151392438D01*
X124881428Y-151392438D02*
X124976666Y-151344819D01*
X125833809Y-151344819D02*
X125833809Y-152154342D01*
X125833809Y-152154342D02*
X125881428Y-152249580D01*
X125881428Y-152249580D02*
X125929047Y-152297200D01*
X125929047Y-152297200D02*
X126024285Y-152344819D01*
X126024285Y-152344819D02*
X126214761Y-152344819D01*
X126214761Y-152344819D02*
X126309999Y-152297200D01*
X126309999Y-152297200D02*
X126357618Y-152249580D01*
X126357618Y-152249580D02*
X126405237Y-152154342D01*
X126405237Y-152154342D02*
X126405237Y-151344819D01*
X126738571Y-151344819D02*
X127309999Y-151344819D01*
X127024285Y-152344819D02*
X127024285Y-151344819D01*
X128310000Y-151344819D02*
X128976666Y-151344819D01*
X128976666Y-151344819D02*
X128310000Y-152344819D01*
X128310000Y-152344819D02*
X128976666Y-152344819D01*
X129548095Y-151344819D02*
X129738571Y-151344819D01*
X129738571Y-151344819D02*
X129833809Y-151392438D01*
X129833809Y-151392438D02*
X129929047Y-151487676D01*
X129929047Y-151487676D02*
X129976666Y-151678152D01*
X129976666Y-151678152D02*
X129976666Y-152011485D01*
X129976666Y-152011485D02*
X129929047Y-152201961D01*
X129929047Y-152201961D02*
X129833809Y-152297200D01*
X129833809Y-152297200D02*
X129738571Y-152344819D01*
X129738571Y-152344819D02*
X129548095Y-152344819D01*
X129548095Y-152344819D02*
X129452857Y-152297200D01*
X129452857Y-152297200D02*
X129357619Y-152201961D01*
X129357619Y-152201961D02*
X129310000Y-152011485D01*
X129310000Y-152011485D02*
X129310000Y-151678152D01*
X129310000Y-151678152D02*
X129357619Y-151487676D01*
X129357619Y-151487676D02*
X129452857Y-151392438D01*
X129452857Y-151392438D02*
X129548095Y-151344819D01*
X130405238Y-152344819D02*
X130405238Y-151344819D01*
X130405238Y-151344819D02*
X130976666Y-152344819D01*
X130976666Y-152344819D02*
X130976666Y-151344819D01*
X131452857Y-151821009D02*
X131786190Y-151821009D01*
X131929047Y-152344819D02*
X131452857Y-152344819D01*
X131452857Y-152344819D02*
X131452857Y-151344819D01*
X131452857Y-151344819D02*
X131929047Y-151344819D01*
X123048095Y-146059104D02*
X123524285Y-146059104D01*
X122952857Y-146344819D02*
X123286190Y-145344819D01*
X123286190Y-145344819D02*
X123619523Y-146344819D01*
X123952857Y-145678152D02*
X123952857Y-146344819D01*
X123952857Y-145773390D02*
X124000476Y-145725771D01*
X124000476Y-145725771D02*
X124095714Y-145678152D01*
X124095714Y-145678152D02*
X124238571Y-145678152D01*
X124238571Y-145678152D02*
X124333809Y-145725771D01*
X124333809Y-145725771D02*
X124381428Y-145821009D01*
X124381428Y-145821009D02*
X124381428Y-146344819D01*
X124714762Y-145678152D02*
X125095714Y-145678152D01*
X124857619Y-145344819D02*
X124857619Y-146201961D01*
X124857619Y-146201961D02*
X124905238Y-146297200D01*
X124905238Y-146297200D02*
X125000476Y-146344819D01*
X125000476Y-146344819D02*
X125095714Y-146344819D01*
X125810000Y-146297200D02*
X125714762Y-146344819D01*
X125714762Y-146344819D02*
X125524286Y-146344819D01*
X125524286Y-146344819D02*
X125429048Y-146297200D01*
X125429048Y-146297200D02*
X125381429Y-146201961D01*
X125381429Y-146201961D02*
X125381429Y-145821009D01*
X125381429Y-145821009D02*
X125429048Y-145725771D01*
X125429048Y-145725771D02*
X125524286Y-145678152D01*
X125524286Y-145678152D02*
X125714762Y-145678152D01*
X125714762Y-145678152D02*
X125810000Y-145725771D01*
X125810000Y-145725771D02*
X125857619Y-145821009D01*
X125857619Y-145821009D02*
X125857619Y-145916247D01*
X125857619Y-145916247D02*
X125381429Y-146011485D01*
X126286191Y-145678152D02*
X126286191Y-146344819D01*
X126286191Y-145773390D02*
X126333810Y-145725771D01*
X126333810Y-145725771D02*
X126429048Y-145678152D01*
X126429048Y-145678152D02*
X126571905Y-145678152D01*
X126571905Y-145678152D02*
X126667143Y-145725771D01*
X126667143Y-145725771D02*
X126714762Y-145821009D01*
X126714762Y-145821009D02*
X126714762Y-146344819D01*
X127190953Y-145678152D02*
X127190953Y-146344819D01*
X127190953Y-145773390D02*
X127238572Y-145725771D01*
X127238572Y-145725771D02*
X127333810Y-145678152D01*
X127333810Y-145678152D02*
X127476667Y-145678152D01*
X127476667Y-145678152D02*
X127571905Y-145725771D01*
X127571905Y-145725771D02*
X127619524Y-145821009D01*
X127619524Y-145821009D02*
X127619524Y-146344819D01*
X128524286Y-146344819D02*
X128524286Y-145821009D01*
X128524286Y-145821009D02*
X128476667Y-145725771D01*
X128476667Y-145725771D02*
X128381429Y-145678152D01*
X128381429Y-145678152D02*
X128190953Y-145678152D01*
X128190953Y-145678152D02*
X128095715Y-145725771D01*
X128524286Y-146297200D02*
X128429048Y-146344819D01*
X128429048Y-146344819D02*
X128190953Y-146344819D01*
X128190953Y-146344819D02*
X128095715Y-146297200D01*
X128095715Y-146297200D02*
X128048096Y-146201961D01*
X128048096Y-146201961D02*
X128048096Y-146106723D01*
X128048096Y-146106723D02*
X128095715Y-146011485D01*
X128095715Y-146011485D02*
X128190953Y-145963866D01*
X128190953Y-145963866D02*
X128429048Y-145963866D01*
X128429048Y-145963866D02*
X128524286Y-145916247D01*
D10*
X113271904Y-146991109D02*
X113033809Y-146991109D01*
X113033809Y-146991109D02*
X113010000Y-147229204D01*
X113010000Y-147229204D02*
X113033809Y-147205395D01*
X113033809Y-147205395D02*
X113081428Y-147181585D01*
X113081428Y-147181585D02*
X113200476Y-147181585D01*
X113200476Y-147181585D02*
X113248095Y-147205395D01*
X113248095Y-147205395D02*
X113271904Y-147229204D01*
X113271904Y-147229204D02*
X113295714Y-147276823D01*
X113295714Y-147276823D02*
X113295714Y-147395871D01*
X113295714Y-147395871D02*
X113271904Y-147443490D01*
X113271904Y-147443490D02*
X113248095Y-147467300D01*
X113248095Y-147467300D02*
X113200476Y-147491109D01*
X113200476Y-147491109D02*
X113081428Y-147491109D01*
X113081428Y-147491109D02*
X113033809Y-147467300D01*
X113033809Y-147467300D02*
X113010000Y-147443490D01*
X113890951Y-147491109D02*
X113890951Y-147157776D01*
X113890951Y-147205395D02*
X113914761Y-147181585D01*
X113914761Y-147181585D02*
X113962380Y-147157776D01*
X113962380Y-147157776D02*
X114033808Y-147157776D01*
X114033808Y-147157776D02*
X114081427Y-147181585D01*
X114081427Y-147181585D02*
X114105237Y-147229204D01*
X114105237Y-147229204D02*
X114105237Y-147491109D01*
X114105237Y-147229204D02*
X114129046Y-147181585D01*
X114129046Y-147181585D02*
X114176665Y-147157776D01*
X114176665Y-147157776D02*
X114248094Y-147157776D01*
X114248094Y-147157776D02*
X114295713Y-147181585D01*
X114295713Y-147181585D02*
X114319523Y-147229204D01*
X114319523Y-147229204D02*
X114319523Y-147491109D01*
X114557618Y-147491109D02*
X114557618Y-147157776D01*
X114557618Y-147205395D02*
X114581428Y-147181585D01*
X114581428Y-147181585D02*
X114629047Y-147157776D01*
X114629047Y-147157776D02*
X114700475Y-147157776D01*
X114700475Y-147157776D02*
X114748094Y-147181585D01*
X114748094Y-147181585D02*
X114771904Y-147229204D01*
X114771904Y-147229204D02*
X114771904Y-147491109D01*
X114771904Y-147229204D02*
X114795713Y-147181585D01*
X114795713Y-147181585D02*
X114843332Y-147157776D01*
X114843332Y-147157776D02*
X114914761Y-147157776D01*
X114914761Y-147157776D02*
X114962380Y-147181585D01*
X114962380Y-147181585D02*
X114986190Y-147229204D01*
X114986190Y-147229204D02*
X114986190Y-147491109D01*
%TO.C,U101*%
X112010000Y-146765000D02*
X112210000Y-146565000D01*
X112010000Y-146765000D02*
X112210000Y-146965000D01*
X116610000Y-146765000D02*
X112010000Y-146765000D01*
X116610000Y-146765000D02*
X116410000Y-146565000D01*
X116610000Y-146765000D02*
X116410000Y-146965000D01*
X117410000Y-148890000D02*
X117210000Y-149090000D01*
X117410000Y-148890000D02*
X117410000Y-153490000D01*
X117410000Y-148890000D02*
X117610000Y-149090000D01*
X117410000Y-153490000D02*
X117210000Y-153290000D01*
X117410000Y-153490000D02*
X117610000Y-153290000D01*
X135010000Y-146765000D02*
X135210000Y-146565000D01*
X135010000Y-146765000D02*
X135210000Y-146965000D01*
X139610000Y-146765000D02*
X135010000Y-146765000D01*
X139610000Y-146765000D02*
X139410000Y-146565000D01*
X139610000Y-146765000D02*
X139410000Y-146965000D01*
%TD*%
M02*
