M48
; DRILL file {KiCad 8.0.1} date 2024-06-22T00:40:19+0200
; FORMAT={-:-/ absolute / inch / decimal}
; #@! TF.CreationDate,2024-06-22T00:40:19+02:00
; #@! TF.GenerationSoftware,Kicad,Pcbnew,8.0.1
; #@! TF.FileFunction,Plated,1,4,PTH
FMAT,2
INCH
; #@! TA.AperFunction,Plated,PTH,ComponentDrill
T1C0.0079
; #@! TA.AperFunction,Plated,PTH,ViaDrill
T2C0.0098
; #@! TA.AperFunction,Plated,PTH,ViaDrill
T3C0.0118
; #@! TA.AperFunction,Plated,PTH,ViaDrill
T4C0.0157
; #@! TA.AperFunction,Plated,PTH,ComponentDrill
T5C0.0315
; #@! TA.AperFunction,Plated,PTH,ComponentDrill
T6C0.0354
; #@! TA.AperFunction,Plated,PTH,ComponentDrill
T7C0.0374
; #@! TA.AperFunction,Plated,PTH,ComponentDrill
T8C0.0394
; #@! TA.AperFunction,Plated,PTH,ComponentDrill
T9C0.0591
; #@! TA.AperFunction,Plated,PTH,ComponentDrill
T10C0.0709
; #@! TA.AperFunction,Plated,PTH,ComponentDrill
T11C0.1772
%
G90
G05
T1
X6.02Y-4.0829
X6.02Y-4.1577
X6.0731Y-4.0829
X6.0731Y-4.1577
X6.1263Y-4.0829
X6.1263Y-4.1577
T2
X3.5122Y-5.2398
X3.5201Y-3.7949
X3.5555Y-4.2988
X3.5949Y-3.3815
X3.6031Y-4.5439
X3.6264Y-3.2634
X3.6697Y-3.7988
X3.6697Y-4.6539
X3.7287Y-3.2988
X3.7327Y-3.3815
X3.7362Y-3.263
X3.8666Y-4.1902
X3.9098Y-4.1768
X3.9217Y-3.2988
X4.0319Y-4.6098
X4.0319Y-4.7634
X4.0594Y-4.3382
X4.1146Y-4.4563
X4.1736Y-4.7909
X4.2051Y-4.5547
X4.2801Y-4.8302
X4.3626Y-4.9051
X4.3961Y-5.039
X4.398Y-4.9602
X4.402Y-5.102
X4.402Y-5.165
X4.465Y-4.5705
X4.5358Y-5.1965
X4.5361Y-4.2555
X4.6421Y-3.0311
X4.6421Y-3.2161
X4.6539Y-3.1531
X4.8311Y-4.2043
X4.9217Y-1.7319
X4.9827Y-1.7299
X5.1579Y-3.0232
X5.1815Y-4.2004
X5.461Y-4.6728
X5.4689Y-4.3421
X5.4689Y-4.976
X5.5161Y-5.535
X5.524Y-4.2634
X5.5319Y-5.165
X5.5988Y-4.7201
X5.6079Y-5.0378
X5.6303Y-3.3776
X5.6343Y-4.724
X5.7524Y-2.9859
X5.7602Y-4.4081
X5.8154Y-5.0429
X5.8193Y-4.7122
X5.8311Y-4.4917
X5.8311Y-4.5429
X5.8508Y-4.3382
X5.8783Y-4.9327
X5.9217Y-4.413
X5.9413Y-4.2988
X6.0031Y-3.5039
X6.0437Y-3.9012
X6.1031Y-3.5339
X6.1224Y-4.4169
T3
X5.4728Y-3.0902
X5.8114Y-2.9839
X5.965Y-4.535
X5.965Y-4.6256
X5.965Y-4.7122
X6.0634Y-3.8146
X6.0791Y-3.8382
X6.1461Y-4.7201
X6.3508Y-3.5035
X6.3508Y-3.6177
X6.4295Y-3.5508
T4
X3.65Y-2.5154
X3.7366Y-2.7358
X4.2012Y-3.3579
X4.3346Y-5.5701
X4.376Y-5.1358
X4.3783Y-4.998
X4.5476Y-5.5587
X4.6461Y-2.5626
X4.6697Y-5.5587
X4.8075Y-4.228
X4.8154Y-3.9681
X4.8626Y-4.1728
X4.8941Y-5.1768
X4.8941Y-5.3618
X4.9886Y-5.2673
X5.0476Y-2.5626
X5.0791Y-5.1768
X5.0791Y-5.3618
X5.1185Y-3.9799
X5.1539Y-4.1728
X5.1776Y-4.9287
X5.2051Y-4.224
X5.2311Y-5.5579
X5.524Y-5.1256
X5.5319Y-5.0272
X5.5331Y-5.0739
X5.5476Y-5.2083
X5.5516Y-5.4445
X5.6031Y-5.2639
X5.8931Y-5.0547
X6.2931Y-3.8339
X6.3131Y-3.7439
X6.3631Y-3.8439
X6.3941Y-2.5114
X6.4331Y-3.7339
X6.4331Y-3.8339
X6.4492Y-2.6846
T5
X4.8428Y-3.8249
X4.848Y-3.8983
X4.8835Y-3.7635
X4.8969Y-3.9533
X4.9156Y-3.8323
X4.9531Y-3.7398
X4.9531Y-3.8972
X4.9907Y-3.8323
X5.0094Y-3.9533
X5.0228Y-3.7635
X5.0583Y-3.8983
X5.0635Y-3.8249
X6.1825Y-3.026
X6.1825Y-3.2819
T6
X5.3531Y-2.3539
X5.3531Y-2.4539
X5.3531Y-2.5539
X5.3531Y-2.6539
X5.4531Y-2.3539
X5.4531Y-2.4539
X5.4531Y-2.5539
X5.4531Y-2.6539
X5.5531Y-2.3539
X5.5531Y-2.4539
X5.5531Y-2.5539
X5.5531Y-2.6539
X5.6531Y-2.3539
X5.6531Y-2.4539
X5.6531Y-2.5539
X5.6531Y-2.6539
X5.7531Y-2.3539
X5.7531Y-2.4539
X5.7531Y-2.5539
X5.7531Y-2.6539
X5.8531Y-2.3539
X5.8531Y-2.4539
X5.8531Y-2.5539
X5.8531Y-2.6539
X5.9531Y-2.3539
X5.9531Y-2.4539
X5.9531Y-2.5539
X5.9531Y-2.6539
X6.0531Y-2.3539
X6.0531Y-2.4539
X6.0531Y-2.5539
X6.0531Y-2.6539
T7
X3.8114Y-3.6271
X3.8114Y-3.7255
X3.8114Y-3.8239
X3.8114Y-3.9224
X4.3783Y-4.3933
X4.3783Y-4.4917
X4.3783Y-4.5902
X4.3823Y-3.539
X4.3823Y-3.6374
X4.3823Y-3.7358
X4.3823Y-3.8343
X4.3823Y-3.9327
X4.3823Y-4.0311
X4.3823Y-4.1295
X4.8547Y-3.1839
X4.9531Y-3.1839
X5.0516Y-3.1839
X5.4846Y-3.539
X5.4846Y-3.6374
X5.4846Y-3.7358
X5.4846Y-3.8343
X5.4846Y-3.9327
X5.4846Y-4.0311
X5.4846Y-4.1295
X5.5447Y-4.3854
X5.5447Y-4.4839
X5.5447Y-4.5823
T8
X3.8547Y-4.3832
X3.8547Y-4.5232
X3.9547Y-4.3832
X3.9547Y-4.5232
X4.2258Y-2.9327
X4.2258Y-3.0327
X4.2258Y-3.1327
X4.2258Y-3.2327
X4.7531Y-4.4725
X4.7531Y-4.5725
X4.8531Y-4.4725
X4.8531Y-4.5725
X4.9531Y-4.4725
X4.9531Y-4.5725
X5.0531Y-4.4725
X5.0531Y-4.5725
X5.1531Y-4.4725
X5.1531Y-4.5725
T9
X4.9531Y-2.6728
T10
X6.3831Y-4.3989
X6.3831Y-4.5839
X6.3831Y-4.769
T11
X3.5673Y-5.035
X3.8508Y-5.035
X3.9059Y-5.4287
X4.1894Y-5.4287
X5.7169Y-5.4287
X6.0004Y-5.4287
X6.0555Y-5.035
X6.339Y-5.035
M30
