%TF.GenerationSoftware,KiCad,Pcbnew,8.0.1*%
%TF.CreationDate,2024-07-04T14:23:12+02:00*%
%TF.ProjectId,Robuoy-Sub,526f6275-6f79-42d5-9375-622e6b696361,rev?*%
%TF.SameCoordinates,Original*%
%TF.FileFunction,Copper,L4,Bot*%
%TF.FilePolarity,Positive*%
%FSLAX46Y46*%
G04 Gerber Fmt 4.6, Leading zero omitted, Abs format (unit mm)*
G04 Created by KiCad (PCBNEW 8.0.1) date 2024-07-04 14:23:12*
%MOMM*%
%LPD*%
G01*
G04 APERTURE LIST*
G04 Aperture macros list*
%AMRoundRect*
0 Rectangle with rounded corners*
0 $1 Rounding radius*
0 $2 $3 $4 $5 $6 $7 $8 $9 X,Y pos of 4 corners*
0 Add a 4 corners polygon primitive as box body*
4,1,4,$2,$3,$4,$5,$6,$7,$8,$9,$2,$3,0*
0 Add four circle primitives for the rounded corners*
1,1,$1+$1,$2,$3*
1,1,$1+$1,$4,$5*
1,1,$1+$1,$6,$7*
1,1,$1+$1,$8,$9*
0 Add four rect primitives between the rounded corners*
20,1,$1+$1,$2,$3,$4,$5,0*
20,1,$1+$1,$4,$5,$6,$7,0*
20,1,$1+$1,$6,$7,$8,$9,0*
20,1,$1+$1,$8,$9,$2,$3,0*%
G04 Aperture macros list end*
%TA.AperFunction,ComponentPad*%
%ADD10RoundRect,1.500000X1.500000X1.500000X-1.500000X1.500000X-1.500000X-1.500000X1.500000X-1.500000X0*%
%TD*%
%TA.AperFunction,ComponentPad*%
%ADD11C,6.000000*%
%TD*%
%TA.AperFunction,ComponentPad*%
%ADD12RoundRect,0.250000X0.600000X-0.600000X0.600000X0.600000X-0.600000X0.600000X-0.600000X-0.600000X0*%
%TD*%
%TA.AperFunction,ComponentPad*%
%ADD13C,1.700000*%
%TD*%
%TA.AperFunction,ComponentPad*%
%ADD14RoundRect,0.250000X0.725000X-0.600000X0.725000X0.600000X-0.725000X0.600000X-0.725000X-0.600000X0*%
%TD*%
%TA.AperFunction,ComponentPad*%
%ADD15O,1.950000X1.700000*%
%TD*%
%TA.AperFunction,ComponentPad*%
%ADD16R,1.700000X1.700000*%
%TD*%
%TA.AperFunction,ComponentPad*%
%ADD17O,1.700000X1.700000*%
%TD*%
%TA.AperFunction,ComponentPad*%
%ADD18C,3.000000*%
%TD*%
%TA.AperFunction,ComponentPad*%
%ADD19R,1.300000X1.300000*%
%TD*%
%TA.AperFunction,ComponentPad*%
%ADD20C,1.300000*%
%TD*%
%TA.AperFunction,ComponentPad*%
%ADD21C,1.524000*%
%TD*%
%TA.AperFunction,ComponentPad*%
%ADD22RoundRect,1.500000X-1.500000X-1.500000X1.500000X-1.500000X1.500000X1.500000X-1.500000X1.500000X0*%
%TD*%
%TA.AperFunction,ComponentPad*%
%ADD23RoundRect,0.250000X-0.725000X0.600000X-0.725000X-0.600000X0.725000X-0.600000X0.725000X0.600000X0*%
%TD*%
%TA.AperFunction,ComponentPad*%
%ADD24C,3.500000*%
%TD*%
%TA.AperFunction,ComponentPad*%
%ADD25R,1.650000X1.650000*%
%TD*%
%TA.AperFunction,HeatsinkPad*%
%ADD26C,0.500000*%
%TD*%
%TA.AperFunction,HeatsinkPad*%
%ADD27R,3.200000X2.400000*%
%TD*%
%TA.AperFunction,ComponentPad*%
%ADD28RoundRect,0.250000X-0.600000X-0.725000X0.600000X-0.725000X0.600000X0.725000X-0.600000X0.725000X0*%
%TD*%
%TA.AperFunction,ComponentPad*%
%ADD29O,1.700000X1.950000*%
%TD*%
%TA.AperFunction,ViaPad*%
%ADD30C,0.450000*%
%TD*%
%TA.AperFunction,ViaPad*%
%ADD31C,0.900000*%
%TD*%
%TA.AperFunction,ViaPad*%
%ADD32C,0.600000*%
%TD*%
%TA.AperFunction,ViaPad*%
%ADD33C,0.800000*%
%TD*%
%TA.AperFunction,Conductor*%
%ADD34C,0.200000*%
%TD*%
%TA.AperFunction,Conductor*%
%ADD35C,0.600000*%
%TD*%
%TA.AperFunction,Conductor*%
%ADD36C,0.800000*%
%TD*%
%TA.AperFunction,Conductor*%
%ADD37C,0.250000*%
%TD*%
%TA.AperFunction,Conductor*%
%ADD38C,0.127000*%
%TD*%
%TA.AperFunction,Conductor*%
%ADD39C,0.400000*%
%TD*%
G04 APERTURE END LIST*
D10*
%TO.P,J206,1,Pin_1*%
%TO.N,Net-(D205-K)*%
X106410000Y-137890000D03*
D11*
%TO.P,J206,2,Pin_2*%
%TO.N,Vbatt*%
X99210000Y-137890000D03*
%TD*%
D12*
%TO.P,J101,1,Pin_1*%
%TO.N,EN*%
X120730000Y-116142500D03*
D13*
%TO.P,J101,2,Pin_2*%
%TO.N,+3.3V*%
X120730000Y-113602500D03*
%TO.P,J101,3,Pin_3*%
%TO.N,TX*%
X123270000Y-116142500D03*
%TO.P,J101,4,Pin_4*%
%TO.N,GND*%
X123270000Y-113602500D03*
%TO.P,J101,5,Pin_5*%
%TO.N,RX*%
X125810000Y-116142500D03*
%TO.P,J101,6,Pin_6*%
%TO.N,DR0*%
X125810000Y-113602500D03*
%TO.P,J101,7,Pin_7*%
%TO.N,MTMS*%
X128350000Y-116142500D03*
%TO.P,J101,8,Pin_8*%
%TO.N,MTCK*%
X128350000Y-113602500D03*
%TO.P,J101,9,Pin_9*%
%TO.N,MTDO*%
X130890000Y-116142500D03*
%TO.P,J101,10,Pin_10*%
%TO.N,MTDI*%
X130890000Y-113602500D03*
%TD*%
D14*
%TO.P,J104,1,Pin_1*%
%TO.N,Net-(J104-Pin_1)*%
X111210000Y-116590000D03*
D15*
%TO.P,J104,2,Pin_2*%
%TO.N,Net-(J104-Pin_2)*%
X111210000Y-114090000D03*
%TO.P,J104,3,Pin_3*%
%TO.N,Net-(J104-Pin_3)*%
X111210000Y-111590000D03*
%TD*%
D16*
%TO.P,SW102,1,1*%
%TO.N,GND*%
X97910000Y-115162000D03*
D17*
%TO.P,SW102,2,2*%
%TO.N,EN*%
X100450000Y-115162000D03*
%TD*%
D18*
%TO.P,TP206,1,1*%
%TO.N,GND*%
X125810000Y-67890000D03*
%TD*%
D19*
%TO.P,J204,1,Pin_1*%
%TO.N,GND*%
X124382000Y-100414000D03*
D20*
%TO.P,J204,2,Pin_2*%
%TO.N,Vbatt*%
X127238000Y-100414000D03*
%TO.P,J204,3,Pin_3*%
%TO.N,Net-(J202-Pin_7)*%
X128482000Y-99017000D03*
%TO.P,J204,4,Pin_4*%
%TO.N,Net-(J202-Pin_6)*%
X128614000Y-97152000D03*
%TO.P,J204,5,Pin_5*%
%TO.N,Net-(J202-Pin_5)*%
X127580000Y-95593000D03*
%TO.P,J204,6,Pin_6*%
%TO.N,Net-(J202-Pin_4)*%
X125810000Y-94990000D03*
%TO.P,J204,7,Pin_7*%
%TO.N,Net-(J202-Pin_3)*%
X124040000Y-95593000D03*
%TO.P,J204,8,Pin_8*%
%TO.N,Net-(J202-Pin_2)*%
X123006000Y-97152000D03*
%TO.P,J204,9,Pin_9*%
%TO.N,Net-(J202-Pin_1)*%
X123138000Y-99017000D03*
%TO.P,J204,10,Pin_10*%
%TO.N,+VSW*%
X125810000Y-98990000D03*
%TO.P,J204,11,Pin_11*%
%TO.N,Vbatt*%
X126763000Y-97340000D03*
%TO.P,J204,12,Pin_12*%
%TO.N,GND*%
X124857000Y-97340000D03*
%TD*%
D16*
%TO.P,J103,1,Pin_1*%
%TO.N,Net-(J103-Pin_1)*%
X107335000Y-74490000D03*
D17*
%TO.P,J103,2,Pin_2*%
%TO.N,Net-(J103-Pin_2)*%
X107335000Y-77030000D03*
%TO.P,J103,3,Pin_3*%
%TO.N,/CPU/Vext*%
X107335000Y-79570000D03*
%TO.P,J103,4,Pin_4*%
%TO.N,GND*%
X107335000Y-82110000D03*
%TD*%
D14*
%TO.P,J202,1,Pin_1*%
%TO.N,Net-(J202-Pin_1)*%
X111310000Y-104890000D03*
D15*
%TO.P,J202,2,Pin_2*%
%TO.N,Net-(J202-Pin_2)*%
X111310000Y-102390000D03*
%TO.P,J202,3,Pin_3*%
%TO.N,Net-(J202-Pin_3)*%
X111310000Y-99890000D03*
%TO.P,J202,4,Pin_4*%
%TO.N,Net-(J202-Pin_4)*%
X111310000Y-97390000D03*
%TO.P,J202,5,Pin_5*%
%TO.N,Net-(J202-Pin_5)*%
X111310000Y-94890000D03*
%TO.P,J202,6,Pin_6*%
%TO.N,Net-(J202-Pin_6)*%
X111310000Y-92390000D03*
%TO.P,J202,7,Pin_7*%
%TO.N,Net-(J202-Pin_7)*%
X111310000Y-89890000D03*
%TD*%
D21*
%TO.P,TP301,1,1*%
%TO.N,unconnected-(TP301-Pad1)*%
X135970000Y-59790000D03*
%TO.P,TP301,2*%
%TO.N,N/C*%
X138510000Y-59790000D03*
%TO.P,TP301,3*%
X141050000Y-59790000D03*
%TO.P,TP301,4*%
X143590000Y-59790000D03*
%TO.P,TP301,5*%
X135970000Y-62330000D03*
%TO.P,TP301,6*%
X138510000Y-62330000D03*
%TO.P,TP301,7*%
X141050000Y-62330000D03*
%TO.P,TP301,8*%
X143590000Y-62330000D03*
%TO.P,TP301,9*%
X135970000Y-64870000D03*
%TO.P,TP301,10*%
X138510000Y-64870000D03*
%TO.P,TP301,11*%
X141050000Y-64870000D03*
%TO.P,TP301,12*%
X143590000Y-64870000D03*
%TO.P,TP301,13*%
X135970000Y-67410000D03*
%TO.P,TP301,14*%
X138510000Y-67410000D03*
%TO.P,TP301,15*%
X141050000Y-67410000D03*
%TO.P,TP301,16*%
X143590000Y-67410000D03*
%TD*%
D22*
%TO.P,J205,1,Pin_1*%
%TO.N,GND*%
X153810000Y-127890000D03*
D11*
%TO.P,J205,2,Pin_2*%
%TO.N,Vbatt*%
X161010000Y-127890000D03*
%TD*%
D23*
%TO.P,J105,1,Pin_1*%
%TO.N,Net-(J105-Pin_1)*%
X140835000Y-111390000D03*
D15*
%TO.P,J105,2,Pin_2*%
%TO.N,Net-(J105-Pin_2)*%
X140835000Y-113890000D03*
%TO.P,J105,3,Pin_3*%
%TO.N,Net-(J105-Pin_3)*%
X140835000Y-116390000D03*
%TD*%
D24*
%TO.P,SW201,1*%
%TO.N,Vbatt*%
X162132000Y-120878000D03*
%TO.P,SW201,2*%
%TO.N,+VSW*%
X162132000Y-116178000D03*
%TO.P,SW201,3*%
%TO.N,unconnected-(SW201-Pad3)*%
X162132000Y-111478000D03*
%TD*%
D14*
%TO.P,J203,1,Pin_1*%
%TO.N,Net-(J202-Pin_1)*%
X139310000Y-104890000D03*
D15*
%TO.P,J203,2,Pin_2*%
%TO.N,Net-(J202-Pin_2)*%
X139310000Y-102390000D03*
%TO.P,J203,3,Pin_3*%
%TO.N,Net-(J202-Pin_3)*%
X139310000Y-99890000D03*
%TO.P,J203,4,Pin_4*%
%TO.N,Net-(J202-Pin_4)*%
X139310000Y-97390000D03*
%TO.P,J203,5,Pin_5*%
%TO.N,Net-(J202-Pin_5)*%
X139310000Y-94890000D03*
%TO.P,J203,6,Pin_6*%
%TO.N,Net-(J202-Pin_6)*%
X139310000Y-92390000D03*
%TO.P,J203,7,Pin_7*%
%TO.N,Net-(J202-Pin_7)*%
X139310000Y-89890000D03*
%TD*%
D10*
%TO.P,J201,1,Pin_1*%
%TO.N,GND*%
X97810000Y-127890000D03*
D11*
%TO.P,J201,2,Pin_2*%
%TO.N,Vbatt*%
X90610000Y-127890000D03*
%TD*%
D23*
%TO.P,J106,1,Pin_1*%
%TO.N,GND*%
X96810000Y-92128000D03*
D15*
%TO.P,J106,2,Pin_2*%
%TO.N,+5V*%
X96810000Y-94628000D03*
%TO.P,J106,3,Pin_3*%
%TO.N,/CPU/SCL*%
X96810000Y-97128000D03*
%TO.P,J106,4,Pin_4*%
%TO.N,/CPU/SDA*%
X96810000Y-99628000D03*
%TD*%
D25*
%TO.P,BZ101,1,+*%
%TO.N,+5V*%
X157036000Y-83360000D03*
D13*
%TO.P,BZ101,2,-*%
%TO.N,Net-(BZ101--)*%
X157036000Y-76860000D03*
%TD*%
D26*
%TO.P,U201,9,PAD*%
%TO.N,GND*%
X155608000Y-103706000D03*
X154258000Y-103706000D03*
X152908000Y-103706000D03*
D27*
X154258000Y-104656000D03*
D26*
X155608000Y-105606000D03*
X154258000Y-105606000D03*
X152908000Y-105606000D03*
%TD*%
D21*
%TO.P,TP302,1,1*%
%TO.N,unconnected-(TP302-Pad1)*%
X146130000Y-59790000D03*
%TO.P,TP302,2*%
%TO.N,N/C*%
X148670000Y-59790000D03*
%TO.P,TP302,3*%
X151210000Y-59790000D03*
%TO.P,TP302,4*%
X153750000Y-59790000D03*
%TO.P,TP302,5*%
X146130000Y-62330000D03*
%TO.P,TP302,6*%
X148670000Y-62330000D03*
%TO.P,TP302,7*%
X151210000Y-62330000D03*
%TO.P,TP302,8*%
X153750000Y-62330000D03*
%TO.P,TP302,9*%
X146130000Y-64870000D03*
%TO.P,TP302,10*%
X148670000Y-64870000D03*
%TO.P,TP302,11*%
X151210000Y-64870000D03*
%TO.P,TP302,12*%
X153750000Y-64870000D03*
%TO.P,TP302,13*%
X146130000Y-67410000D03*
%TO.P,TP302,14*%
X148670000Y-67410000D03*
%TO.P,TP302,15*%
X151210000Y-67410000D03*
%TO.P,TP302,16*%
X153750000Y-67410000D03*
%TD*%
D22*
%TO.P,J207,1,Pin_1*%
%TO.N,Net-(D206-K)*%
X145210000Y-137890000D03*
D11*
%TO.P,J207,2,Pin_2*%
%TO.N,Vbatt*%
X152410000Y-137890000D03*
%TD*%
D28*
%TO.P,J102,1,Pin_1*%
%TO.N,Net-(J102-Pin_1)*%
X123310000Y-80872000D03*
D29*
%TO.P,J102,2,Pin_2*%
%TO.N,+3.3V*%
X125810000Y-80872000D03*
%TO.P,J102,3,Pin_3*%
%TO.N,Net-(J102-Pin_3)*%
X128310000Y-80872000D03*
%TD*%
D16*
%TO.P,SW101,1,1*%
%TO.N,GND*%
X97910000Y-111334000D03*
D17*
%TO.P,SW101,2,2*%
%TO.N,DR0*%
X100450000Y-111334000D03*
%TD*%
D30*
%TO.N,+3.3V*%
X94568000Y-83666000D03*
X99310000Y-106090000D03*
D31*
X161624000Y-97636000D03*
D30*
X90610000Y-109230000D03*
X114790002Y-109230000D03*
%TO.N,GND*%
X147810000Y-119690000D03*
X138285000Y-119115000D03*
X164560000Y-140890000D03*
D32*
X154010000Y-96890000D03*
D30*
X127588000Y-43788000D03*
X111659999Y-127990630D03*
D32*
X156110000Y-119890000D03*
D31*
X160354000Y-95096000D03*
X163402000Y-97382000D03*
D30*
X118210000Y-80090000D03*
D31*
X92710000Y-63890000D03*
X149560000Y-130640000D03*
D30*
X140510000Y-131190000D03*
X138002000Y-124560000D03*
X142210000Y-119890000D03*
D32*
X151510000Y-117490000D03*
X151510000Y-115190000D03*
X161310000Y-88990000D03*
D30*
X156810000Y-96390000D03*
X152060000Y-104640000D03*
D32*
X163310000Y-90190000D03*
D31*
X140542000Y-128878000D03*
X130010000Y-101090000D03*
D32*
X154410000Y-97490000D03*
D31*
X140910000Y-132290000D03*
D30*
X148610000Y-110190000D03*
D31*
X118610000Y-141190000D03*
X124310000Y-131490000D03*
D30*
X93210000Y-96490000D03*
D31*
X115510000Y-141190000D03*
D32*
X151510000Y-119690000D03*
X139010000Y-78490000D03*
D31*
X141010000Y-138290000D03*
D30*
X153510000Y-99090000D03*
X106810000Y-115690000D03*
D31*
X122311041Y-100788959D03*
D30*
X86810000Y-120140000D03*
D31*
X111150000Y-130450000D03*
D30*
X155510000Y-112190000D03*
D31*
X113560000Y-139640000D03*
X162893997Y-71220003D03*
D32*
X161310000Y-91890000D03*
D30*
X126318000Y-43026000D03*
X89410000Y-96390000D03*
X148110000Y-115390000D03*
X91520000Y-115416000D03*
D32*
X147610000Y-75790000D03*
D30*
X152480000Y-89000000D03*
D31*
X149560000Y-126890000D03*
D30*
X156560000Y-104640000D03*
D31*
X142320000Y-133704000D03*
D30*
X159810000Y-93890000D03*
D31*
X140510000Y-127690000D03*
D30*
X149310000Y-134390000D03*
X98212322Y-106432223D03*
D31*
X124310000Y-136190000D03*
D30*
X117910000Y-76990000D03*
X122310000Y-128640000D03*
D31*
X149686000Y-128390000D03*
D33*
X102560000Y-128890000D03*
D30*
X159310000Y-106640000D03*
X148110000Y-114090000D03*
D31*
X129010000Y-131490000D03*
X140310000Y-130190000D03*
D30*
X104510000Y-113190000D03*
X99610000Y-84100000D03*
D31*
X126710000Y-133790000D03*
D30*
X143110000Y-119990000D03*
X111810000Y-129590000D03*
X93210000Y-118210000D03*
D31*
X129010000Y-136190000D03*
D30*
X111710000Y-125990000D03*
X163810000Y-118640000D03*
X86810000Y-140640000D03*
X140110000Y-140590000D03*
X157060000Y-113140000D03*
D31*
X132871200Y-141171600D03*
X163402000Y-94842000D03*
D30*
X158810000Y-114890000D03*
X111810000Y-131190000D03*
D33*
X102310000Y-132390000D03*
D30*
X150410000Y-112090000D03*
X123524000Y-46328000D03*
X131310000Y-128390000D03*
D31*
X111210000Y-126950000D03*
X94910000Y-69490000D03*
D30*
X111220000Y-124530000D03*
X131560000Y-140390000D03*
X163810000Y-124390000D03*
X131010000Y-76790000D03*
X158560000Y-108640000D03*
X159310000Y-102890000D03*
X155020000Y-89762000D03*
X103110000Y-110190000D03*
D31*
X159846000Y-97382000D03*
X131510000Y-125190000D03*
D30*
X121560000Y-140140000D03*
D31*
%TO.N,+5V*%
X106710000Y-85290000D03*
D30*
X102310000Y-117090000D03*
X102310000Y-120470000D03*
X150910000Y-109190000D03*
X146310000Y-111965000D03*
%TO.N,EN*%
X113410000Y-116090012D03*
D31*
%TO.N,Vbatt*%
X132210000Y-107290000D03*
X122110000Y-107390000D03*
D30*
X131610000Y-106690000D03*
D31*
X123510000Y-105990000D03*
D30*
X122710000Y-106790000D03*
D31*
X130910000Y-105990000D03*
D30*
%TO.N,LEDS*%
X115210000Y-131990000D03*
X110310000Y-141390000D03*
D31*
%TO.N,Net-(D104-DOUT)*%
X118010000Y-65090000D03*
X128210000Y-65090000D03*
D30*
%TO.N,/CPU/SCL*%
X94810000Y-85890000D03*
X91310010Y-85890000D03*
X123270000Y-61314000D03*
%TO.N,/CPU/SDA*%
X123778000Y-62076000D03*
X94899430Y-82879430D03*
X92110000Y-82890000D03*
%TO.N,Net-(Q202-G)*%
X142439724Y-127960276D03*
X147710000Y-128090000D03*
%TO.N,BUZZER*%
X143010000Y-85790000D03*
X146110000Y-75842800D03*
X140700002Y-108430000D03*
X138910000Y-110290000D03*
%TO.N,/CPU/Vsamp*%
X149310000Y-125290000D03*
X138910000Y-125390000D03*
%TD*%
D34*
%TO.N,+3.3V*%
X108010000Y-83390000D02*
X111310000Y-86690000D01*
X105680000Y-83390000D02*
X108010000Y-83390000D01*
X97410000Y-83390000D02*
X105680000Y-83390000D01*
X97010000Y-83790000D02*
X97410000Y-83390000D01*
X94692000Y-83790000D02*
X97010000Y-83790000D01*
X94568000Y-83666000D02*
X94692000Y-83790000D01*
D35*
X108510000Y-89490000D02*
X108510000Y-105290000D01*
X125810000Y-83890000D02*
X123010000Y-86690000D01*
X108510000Y-105290000D02*
X108510000Y-109230000D01*
X108510000Y-109230000D02*
X100050000Y-109230000D01*
X120730000Y-113602500D02*
X116357500Y-109230000D01*
X108510000Y-109230000D02*
X114790002Y-109230000D01*
X116357500Y-109230000D02*
X114790002Y-109230000D01*
X111310000Y-86690000D02*
X108510000Y-89490000D01*
X125810000Y-80872000D02*
X125810000Y-83890000D01*
X99970000Y-109230000D02*
X90610000Y-109230000D01*
X123010000Y-86690000D02*
X111310000Y-86690000D01*
X99310000Y-109190000D02*
X99310000Y-106090000D01*
D36*
%TO.N,GND*%
X124382000Y-100414000D02*
X125958000Y-101990000D01*
X124857000Y-97340000D02*
X124388000Y-97809000D01*
D37*
X123524000Y-45820000D02*
X123524000Y-46328000D01*
D35*
X122312082Y-100790000D02*
X122311041Y-100788959D01*
D36*
X124388000Y-100408000D02*
X124382000Y-100414000D01*
X125958000Y-101990000D02*
X129110000Y-101990000D01*
D35*
X124006000Y-100790000D02*
X122312082Y-100790000D01*
X124382000Y-100414000D02*
X124006000Y-100790000D01*
D36*
X129110000Y-101990000D02*
X130010000Y-101090000D01*
D37*
X126318000Y-43026000D02*
X123524000Y-45820000D01*
D38*
X124857000Y-97340000D02*
X124495115Y-97340000D01*
D36*
X124388000Y-97809000D02*
X124388000Y-100408000D01*
D39*
%TO.N,+5V*%
X99610000Y-86590000D02*
X99610000Y-91828000D01*
X146310000Y-110113280D02*
X146310000Y-111965000D01*
X147233280Y-109190000D02*
X146310000Y-110113280D01*
X99610000Y-91828000D02*
X96810000Y-94628000D01*
X102310000Y-117090000D02*
X108510000Y-117090000D01*
X100910000Y-85290000D02*
X99610000Y-86590000D01*
X109560000Y-118140000D02*
X142560000Y-118140000D01*
X106710000Y-85290000D02*
X100910000Y-85290000D01*
X108510000Y-117090000D02*
X109560000Y-118140000D01*
X150910000Y-109190000D02*
X147233280Y-109190000D01*
X142560000Y-118140000D02*
X146310000Y-114390000D01*
X146310000Y-114390000D02*
X146310000Y-111965000D01*
X102310000Y-117090000D02*
X102310000Y-120470000D01*
D34*
%TO.N,EN*%
X113462488Y-116142500D02*
X113410000Y-116090012D01*
X120730000Y-116142500D02*
X113462488Y-116142500D01*
D35*
%TO.N,Vbatt*%
X127238000Y-97815000D02*
X127238000Y-100414000D01*
X126763000Y-97340000D02*
X127238000Y-97815000D01*
D34*
%TO.N,LEDS*%
X113310000Y-138390000D02*
X113310000Y-133890000D01*
X110310000Y-141390000D02*
X113310000Y-138390000D01*
X113310000Y-133890000D02*
X115210000Y-131990000D01*
%TO.N,Net-(D104-DOUT)*%
X118010000Y-65090000D02*
X128210000Y-65090000D01*
%TO.N,/CPU/SCL*%
X91310000Y-77690000D02*
X91310000Y-85889990D01*
X91310000Y-85889990D02*
X91310010Y-85890000D01*
X94810000Y-85890000D02*
X91310010Y-85890000D01*
X123270000Y-61314000D02*
X107686000Y-61314000D01*
X107686000Y-61314000D02*
X91310000Y-77690000D01*
%TO.N,/CPU/SDA*%
X92110000Y-82890000D02*
X94888860Y-82890000D01*
X94888860Y-82890000D02*
X94899430Y-82879430D01*
X123778000Y-62076000D02*
X107776000Y-62076000D01*
X92110000Y-77742000D02*
X92110000Y-82890000D01*
X107776000Y-62076000D02*
X92110000Y-77742000D01*
%TO.N,Net-(Q202-G)*%
X142569448Y-128090000D02*
X142439724Y-127960276D01*
X147710000Y-128090000D02*
X142569448Y-128090000D01*
D39*
%TO.N,Net-(J202-Pin_5)*%
X136910000Y-92490000D02*
X139310000Y-94890000D01*
X111310000Y-94890000D02*
X113710000Y-92490000D01*
X113710000Y-92490000D02*
X136910000Y-92490000D01*
%TO.N,Net-(J202-Pin_3)*%
X121110000Y-101490000D02*
X122610000Y-102990000D01*
X137510000Y-99890000D02*
X139310000Y-99890000D01*
X121110000Y-96790000D02*
X121110000Y-101490000D01*
X124040000Y-95593000D02*
X122307000Y-95593000D01*
X134410000Y-102990000D02*
X137510000Y-99890000D01*
X122307000Y-95593000D02*
X121110000Y-96790000D01*
X122610000Y-102990000D02*
X134410000Y-102990000D01*
%TO.N,Net-(J202-Pin_2)*%
X111310000Y-102390000D02*
X113010000Y-102390000D01*
X136610000Y-102390000D02*
X139310000Y-102390000D01*
X135110000Y-103890000D02*
X136610000Y-102390000D01*
X113010000Y-102390000D02*
X114510000Y-103890000D01*
X114510000Y-103890000D02*
X135110000Y-103890000D01*
%TO.N,Net-(J202-Pin_1)*%
X111310000Y-104890000D02*
X139310000Y-104890000D01*
%TO.N,Net-(J202-Pin_6)*%
X137910000Y-90990000D02*
X112710000Y-90990000D01*
X112710000Y-90990000D02*
X111310000Y-92390000D01*
X139310000Y-92390000D02*
X137910000Y-90990000D01*
%TO.N,Net-(J202-Pin_4)*%
X135710000Y-93790000D02*
X139310000Y-97390000D01*
X127010000Y-93790000D02*
X125810000Y-94990000D01*
X135710000Y-93790000D02*
X127010000Y-93790000D01*
D34*
%TO.N,BUZZER*%
X143010000Y-78942800D02*
X146110000Y-75842800D01*
X143010000Y-85790000D02*
X143010000Y-78942800D01*
X138910000Y-110290000D02*
X140700002Y-108499998D01*
X140700002Y-108499998D02*
X140700002Y-108430000D01*
%TO.N,/CPU/Vsamp*%
X139010000Y-125290000D02*
X149310000Y-125290000D01*
X138910000Y-125390000D02*
X139010000Y-125290000D01*
%TD*%
%TA.AperFunction,Conductor*%
%TO.N,GND*%
G36*
X101802539Y-117909685D02*
G01*
X101848294Y-117962489D01*
X101859500Y-118014000D01*
X101859500Y-120284841D01*
X101850578Y-120325856D01*
X101851568Y-120326147D01*
X101849068Y-120334658D01*
X101829610Y-120470000D01*
X101849068Y-120605337D01*
X101849070Y-120605345D01*
X101905867Y-120729714D01*
X101905872Y-120729721D01*
X101995409Y-120833053D01*
X101995413Y-120833057D01*
X102055979Y-120871979D01*
X102110439Y-120906978D01*
X102176036Y-120926239D01*
X102241632Y-120945500D01*
X102241633Y-120945500D01*
X102378367Y-120945500D01*
X102509561Y-120906978D01*
X102554651Y-120878001D01*
X160126390Y-120878001D01*
X160146804Y-121163433D01*
X160207628Y-121443037D01*
X160307635Y-121711166D01*
X160444770Y-121962309D01*
X160444775Y-121962317D01*
X160616254Y-122191387D01*
X160616270Y-122191405D01*
X160818594Y-122393729D01*
X160818612Y-122393745D01*
X161047682Y-122565224D01*
X161047690Y-122565229D01*
X161298833Y-122702364D01*
X161298832Y-122702364D01*
X161298836Y-122702365D01*
X161298839Y-122702367D01*
X161566954Y-122802369D01*
X161566960Y-122802370D01*
X161566962Y-122802371D01*
X161846566Y-122863195D01*
X161846568Y-122863195D01*
X161846572Y-122863196D01*
X162100220Y-122881337D01*
X162131999Y-122883610D01*
X162132000Y-122883610D01*
X162132001Y-122883610D01*
X162160595Y-122881564D01*
X162417428Y-122863196D01*
X162697046Y-122802369D01*
X162965161Y-122702367D01*
X163216315Y-122565226D01*
X163445395Y-122393739D01*
X163647739Y-122191395D01*
X163819226Y-121962315D01*
X163956367Y-121711161D01*
X164056369Y-121443046D01*
X164117196Y-121163428D01*
X164137610Y-120878000D01*
X164117196Y-120592572D01*
X164061090Y-120334658D01*
X164056371Y-120312962D01*
X164056370Y-120312960D01*
X164056369Y-120312954D01*
X163956367Y-120044839D01*
X163819226Y-119793685D01*
X163819224Y-119793682D01*
X163647745Y-119564612D01*
X163647729Y-119564594D01*
X163445405Y-119362270D01*
X163445387Y-119362254D01*
X163216317Y-119190775D01*
X163216309Y-119190770D01*
X162965166Y-119053635D01*
X162965167Y-119053635D01*
X162857915Y-119013632D01*
X162697046Y-118953631D01*
X162697043Y-118953630D01*
X162697037Y-118953628D01*
X162417433Y-118892804D01*
X162132001Y-118872390D01*
X162131999Y-118872390D01*
X161846566Y-118892804D01*
X161566962Y-118953628D01*
X161298833Y-119053635D01*
X161047690Y-119190770D01*
X161047682Y-119190775D01*
X160818612Y-119362254D01*
X160818594Y-119362270D01*
X160616270Y-119564594D01*
X160616254Y-119564612D01*
X160444775Y-119793682D01*
X160444770Y-119793690D01*
X160307635Y-120044833D01*
X160207628Y-120312962D01*
X160146804Y-120592566D01*
X160126390Y-120877998D01*
X160126390Y-120878001D01*
X102554651Y-120878001D01*
X102624589Y-120833055D01*
X102714130Y-120729718D01*
X102770931Y-120605342D01*
X102790390Y-120470000D01*
X102770931Y-120334658D01*
X102768432Y-120326147D01*
X102769421Y-120325856D01*
X102760500Y-120284841D01*
X102760500Y-118014000D01*
X102780185Y-117946961D01*
X102832989Y-117901206D01*
X102884500Y-117890000D01*
X108621535Y-117890000D01*
X108688574Y-117909685D01*
X108709216Y-117926319D01*
X109283386Y-118500489D01*
X109386113Y-118559799D01*
X109410321Y-118566284D01*
X109410324Y-118566286D01*
X109410325Y-118566286D01*
X109440447Y-118574357D01*
X109500691Y-118590500D01*
X109500693Y-118590500D01*
X142619308Y-118590500D01*
X142619309Y-118590500D01*
X142709673Y-118566286D01*
X142733887Y-118559799D01*
X142836614Y-118500489D01*
X143410784Y-117926318D01*
X143472107Y-117892834D01*
X143498465Y-117890000D01*
X150956000Y-117890000D01*
X159846000Y-117890000D01*
X161061406Y-117890000D01*
X161120833Y-117905168D01*
X161298833Y-118002364D01*
X161298832Y-118002364D01*
X161298836Y-118002365D01*
X161298839Y-118002367D01*
X161566954Y-118102369D01*
X161566960Y-118102370D01*
X161566962Y-118102371D01*
X161846566Y-118163195D01*
X161846568Y-118163195D01*
X161846572Y-118163196D01*
X162100220Y-118181337D01*
X162131999Y-118183610D01*
X162132000Y-118183610D01*
X162132001Y-118183610D01*
X162160595Y-118181564D01*
X162417428Y-118163196D01*
X162697046Y-118102369D01*
X162965161Y-118002367D01*
X163143167Y-117905168D01*
X163202594Y-117890000D01*
X165675500Y-117890000D01*
X165742539Y-117909685D01*
X165788294Y-117962489D01*
X165799500Y-118014000D01*
X165799500Y-118387422D01*
X165799472Y-118390032D01*
X165314028Y-141448711D01*
X165312556Y-141518610D01*
X165291464Y-141585220D01*
X165237709Y-141629854D01*
X165188583Y-141640000D01*
X110897549Y-141640000D01*
X110830510Y-141620315D01*
X110784755Y-141567511D01*
X110774811Y-141498355D01*
X110774811Y-141498353D01*
X110781948Y-141448709D01*
X110810972Y-141385155D01*
X110816991Y-141378689D01*
X112718292Y-139477389D01*
X141959500Y-139477389D01*
X141965630Y-139586541D01*
X141965631Y-139586554D01*
X142014403Y-139844322D01*
X142014404Y-139844327D01*
X142014405Y-139844332D01*
X142014406Y-139844333D01*
X142101059Y-140091974D01*
X142223654Y-140323933D01*
X142379450Y-140535031D01*
X142564969Y-140720550D01*
X142776067Y-140876346D01*
X143008026Y-140998941D01*
X143255667Y-141085594D01*
X143255671Y-141085594D01*
X143255672Y-141085595D01*
X143255677Y-141085596D01*
X143513445Y-141134368D01*
X143513447Y-141134368D01*
X143513457Y-141134370D01*
X143622608Y-141140500D01*
X143622625Y-141140500D01*
X146797375Y-141140500D01*
X146797392Y-141140500D01*
X146906543Y-141134370D01*
X147164333Y-141085594D01*
X147411974Y-140998941D01*
X147643933Y-140876346D01*
X147855031Y-140720550D01*
X148040550Y-140535031D01*
X148196346Y-140323933D01*
X148318941Y-140091974D01*
X148405594Y-139844333D01*
X148454370Y-139586543D01*
X148460500Y-139477392D01*
X148460500Y-137890002D01*
X149154726Y-137890002D01*
X149173808Y-138241954D01*
X149230833Y-138589793D01*
X149230834Y-138589796D01*
X149325126Y-138929408D01*
X149325127Y-138929410D01*
X149455588Y-139256844D01*
X149455597Y-139256862D01*
X149620695Y-139568269D01*
X149818498Y-139860006D01*
X149818505Y-139860016D01*
X150015533Y-140091974D01*
X150046686Y-140128650D01*
X150302580Y-140371046D01*
X150583182Y-140584354D01*
X150885202Y-140766074D01*
X150885206Y-140766075D01*
X150885210Y-140766078D01*
X151205088Y-140914070D01*
X151205092Y-140914070D01*
X151205099Y-140914074D01*
X151539122Y-141026619D01*
X151883355Y-141102391D01*
X152233763Y-141140500D01*
X152233769Y-141140500D01*
X152586231Y-141140500D01*
X152586237Y-141140500D01*
X152936645Y-141102391D01*
X153280878Y-141026619D01*
X153614901Y-140914074D01*
X153614908Y-140914070D01*
X153614911Y-140914070D01*
X153934789Y-140766078D01*
X153934798Y-140766074D01*
X154236818Y-140584354D01*
X154517420Y-140371046D01*
X154773314Y-140128650D01*
X155001501Y-139860008D01*
X155199305Y-139568269D01*
X155364407Y-139256854D01*
X155494871Y-138929414D01*
X155497404Y-138920293D01*
X155523180Y-138827453D01*
X155589168Y-138589788D01*
X155646191Y-138241957D01*
X155658698Y-138011288D01*
X158959500Y-138011288D01*
X158989867Y-138241957D01*
X158991162Y-138251789D01*
X159022554Y-138368944D01*
X159053947Y-138486104D01*
X159103284Y-138605213D01*
X159146776Y-138710212D01*
X159268064Y-138920289D01*
X159268066Y-138920292D01*
X159268067Y-138920293D01*
X159415733Y-139112736D01*
X159415739Y-139112743D01*
X159587256Y-139284260D01*
X159587262Y-139284265D01*
X159779711Y-139431936D01*
X159989788Y-139553224D01*
X160213900Y-139646054D01*
X160448211Y-139708838D01*
X160628586Y-139732584D01*
X160688711Y-139740500D01*
X160688712Y-139740500D01*
X160931289Y-139740500D01*
X160979388Y-139734167D01*
X161171789Y-139708838D01*
X161406100Y-139646054D01*
X161630212Y-139553224D01*
X161840289Y-139431936D01*
X162032738Y-139284265D01*
X162204265Y-139112738D01*
X162351936Y-138920289D01*
X162473224Y-138710212D01*
X162566054Y-138486100D01*
X162628838Y-138251789D01*
X162660500Y-138011288D01*
X162660500Y-137768712D01*
X162628838Y-137528211D01*
X162566054Y-137293900D01*
X162473224Y-137069788D01*
X162351936Y-136859711D01*
X162204265Y-136667262D01*
X162204260Y-136667256D01*
X162032743Y-136495739D01*
X162032736Y-136495733D01*
X161840293Y-136348067D01*
X161840292Y-136348066D01*
X161840289Y-136348064D01*
X161630212Y-136226776D01*
X161630205Y-136226773D01*
X161406104Y-136133947D01*
X161171785Y-136071161D01*
X160931289Y-136039500D01*
X160931288Y-136039500D01*
X160688712Y-136039500D01*
X160688711Y-136039500D01*
X160448214Y-136071161D01*
X160213895Y-136133947D01*
X159989794Y-136226773D01*
X159989785Y-136226777D01*
X159779706Y-136348067D01*
X159587263Y-136495733D01*
X159587256Y-136495739D01*
X159415739Y-136667256D01*
X159415733Y-136667263D01*
X159268067Y-136859706D01*
X159146777Y-137069785D01*
X159146773Y-137069794D01*
X159053947Y-137293895D01*
X158991161Y-137528214D01*
X158959500Y-137768711D01*
X158959500Y-138011288D01*
X155658698Y-138011288D01*
X155665274Y-137890000D01*
X155646191Y-137538043D01*
X155589168Y-137190212D01*
X155497405Y-136859711D01*
X155494873Y-136850591D01*
X155494872Y-136850589D01*
X155364411Y-136523155D01*
X155364402Y-136523137D01*
X155199305Y-136211731D01*
X155001501Y-135919992D01*
X155001497Y-135919987D01*
X155001494Y-135919983D01*
X154773314Y-135651350D01*
X154517420Y-135408954D01*
X154517413Y-135408948D01*
X154517410Y-135408946D01*
X154236815Y-135195644D01*
X153934802Y-135013928D01*
X153934789Y-135013921D01*
X153614911Y-134865929D01*
X153614906Y-134865928D01*
X153614903Y-134865927D01*
X153614901Y-134865926D01*
X153508432Y-134830052D01*
X153280880Y-134753381D01*
X152936643Y-134677608D01*
X152586238Y-134639500D01*
X152586237Y-134639500D01*
X152233763Y-134639500D01*
X152233761Y-134639500D01*
X151883356Y-134677608D01*
X151539119Y-134753381D01*
X151205093Y-134865928D01*
X151205088Y-134865929D01*
X150885210Y-135013921D01*
X150885197Y-135013928D01*
X150583184Y-135195644D01*
X150302589Y-135408946D01*
X150302580Y-135408954D01*
X150046685Y-135651350D01*
X149818505Y-135919983D01*
X149818498Y-135919993D01*
X149620695Y-136211730D01*
X149455597Y-136523137D01*
X149455588Y-136523155D01*
X149325127Y-136850589D01*
X149325126Y-136850591D01*
X149230834Y-137190203D01*
X149230833Y-137190206D01*
X149173808Y-137538045D01*
X149154726Y-137889997D01*
X149154726Y-137890002D01*
X148460500Y-137890002D01*
X148460500Y-136302608D01*
X148454370Y-136193457D01*
X148405594Y-135935667D01*
X148318941Y-135688026D01*
X148196346Y-135456067D01*
X148040550Y-135244969D01*
X147855031Y-135059450D01*
X147643933Y-134903654D01*
X147643929Y-134903652D01*
X147643928Y-134903651D01*
X147411978Y-134781061D01*
X147411977Y-134781060D01*
X147411974Y-134781059D01*
X147164333Y-134694406D01*
X147164332Y-134694405D01*
X147164327Y-134694404D01*
X147164322Y-134694403D01*
X146906554Y-134645631D01*
X146906544Y-134645630D01*
X146906543Y-134645630D01*
X146797392Y-134639500D01*
X143622608Y-134639500D01*
X143513457Y-134645630D01*
X143513456Y-134645630D01*
X143513445Y-134645631D01*
X143255677Y-134694403D01*
X143255672Y-134694404D01*
X143131846Y-134737732D01*
X143008026Y-134781059D01*
X143008024Y-134781059D01*
X143008021Y-134781061D01*
X142776071Y-134903651D01*
X142564968Y-135059450D01*
X142379450Y-135244968D01*
X142223651Y-135456071D01*
X142101061Y-135688021D01*
X142014404Y-135935672D01*
X142014403Y-135935677D01*
X141965631Y-136193445D01*
X141965630Y-136193458D01*
X141959500Y-136302610D01*
X141959500Y-139477389D01*
X112718292Y-139477389D01*
X113590470Y-138605212D01*
X113636614Y-138525288D01*
X113660500Y-138436143D01*
X113660500Y-138343856D01*
X113660500Y-134086544D01*
X113680185Y-134019505D01*
X113696819Y-133998863D01*
X115193863Y-132501819D01*
X115255186Y-132468334D01*
X115269593Y-132466784D01*
X115269590Y-132466762D01*
X115278367Y-132465500D01*
X115409561Y-132426978D01*
X115524589Y-132353055D01*
X115614130Y-132249718D01*
X115670931Y-132125342D01*
X115690390Y-131990000D01*
X115670931Y-131854658D01*
X115658677Y-131827827D01*
X115614132Y-131730285D01*
X115614127Y-131730278D01*
X115524590Y-131626946D01*
X115524586Y-131626942D01*
X115409559Y-131553021D01*
X115278368Y-131514500D01*
X115278367Y-131514500D01*
X115141633Y-131514500D01*
X115141632Y-131514500D01*
X115010440Y-131553021D01*
X114895413Y-131626942D01*
X114895409Y-131626946D01*
X114805872Y-131730278D01*
X114805869Y-131730283D01*
X114749069Y-131854656D01*
X114749068Y-131854661D01*
X114738050Y-131931290D01*
X114709024Y-131994846D01*
X114702993Y-132001323D01*
X113029531Y-133674786D01*
X113029527Y-133674791D01*
X112983387Y-133754709D01*
X112983386Y-133754712D01*
X112959500Y-133843856D01*
X112959500Y-138193456D01*
X112939815Y-138260495D01*
X112923181Y-138281137D01*
X110326137Y-140878181D01*
X110264814Y-140911666D01*
X110250406Y-140913215D01*
X110250410Y-140913238D01*
X110241632Y-140914499D01*
X110110440Y-140953021D01*
X109995413Y-141026942D01*
X109995409Y-141026946D01*
X109905872Y-141130278D01*
X109905867Y-141130285D01*
X109849070Y-141254654D01*
X109849068Y-141254662D01*
X109829610Y-141389999D01*
X109829610Y-141390000D01*
X109838051Y-141448711D01*
X109845189Y-141498353D01*
X109835245Y-141567511D01*
X109789491Y-141620315D01*
X109722451Y-141640000D01*
X85944500Y-141640000D01*
X85877461Y-141620315D01*
X85831706Y-141567511D01*
X85820500Y-141516000D01*
X85820500Y-138011288D01*
X88959500Y-138011288D01*
X88989867Y-138241957D01*
X88991162Y-138251789D01*
X89022554Y-138368944D01*
X89053947Y-138486104D01*
X89103284Y-138605213D01*
X89146776Y-138710212D01*
X89268064Y-138920289D01*
X89268066Y-138920292D01*
X89268067Y-138920293D01*
X89415733Y-139112736D01*
X89415739Y-139112743D01*
X89587256Y-139284260D01*
X89587262Y-139284265D01*
X89779711Y-139431936D01*
X89989788Y-139553224D01*
X90213900Y-139646054D01*
X90448211Y-139708838D01*
X90628586Y-139732584D01*
X90688711Y-139740500D01*
X90688712Y-139740500D01*
X90931289Y-139740500D01*
X90979388Y-139734167D01*
X91171789Y-139708838D01*
X91406100Y-139646054D01*
X91630212Y-139553224D01*
X91840289Y-139431936D01*
X92032738Y-139284265D01*
X92204265Y-139112738D01*
X92351936Y-138920289D01*
X92473224Y-138710212D01*
X92566054Y-138486100D01*
X92628838Y-138251789D01*
X92660500Y-138011288D01*
X92660500Y-137890002D01*
X95954726Y-137890002D01*
X95973808Y-138241954D01*
X96030833Y-138589793D01*
X96030834Y-138589796D01*
X96125126Y-138929408D01*
X96125127Y-138929410D01*
X96255588Y-139256844D01*
X96255597Y-139256862D01*
X96420695Y-139568269D01*
X96618498Y-139860006D01*
X96618505Y-139860016D01*
X96815533Y-140091974D01*
X96846686Y-140128650D01*
X97102580Y-140371046D01*
X97383182Y-140584354D01*
X97685202Y-140766074D01*
X97685206Y-140766075D01*
X97685210Y-140766078D01*
X98005088Y-140914070D01*
X98005092Y-140914070D01*
X98005099Y-140914074D01*
X98339122Y-141026619D01*
X98683355Y-141102391D01*
X99033763Y-141140500D01*
X99033769Y-141140500D01*
X99386231Y-141140500D01*
X99386237Y-141140500D01*
X99736645Y-141102391D01*
X100080878Y-141026619D01*
X100414901Y-140914074D01*
X100414908Y-140914070D01*
X100414911Y-140914070D01*
X100734789Y-140766078D01*
X100734798Y-140766074D01*
X101036818Y-140584354D01*
X101317420Y-140371046D01*
X101573314Y-140128650D01*
X101801501Y-139860008D01*
X101999305Y-139568269D01*
X102047487Y-139477389D01*
X103159500Y-139477389D01*
X103165630Y-139586541D01*
X103165631Y-139586554D01*
X103214403Y-139844322D01*
X103214404Y-139844327D01*
X103214405Y-139844332D01*
X103214406Y-139844333D01*
X103301059Y-140091974D01*
X103423654Y-140323933D01*
X103579450Y-140535031D01*
X103764969Y-140720550D01*
X103976067Y-140876346D01*
X104208026Y-140998941D01*
X104455667Y-141085594D01*
X104455671Y-141085594D01*
X104455672Y-141085595D01*
X104455677Y-141085596D01*
X104713445Y-141134368D01*
X104713447Y-141134368D01*
X104713457Y-141134370D01*
X104822608Y-141140500D01*
X104822625Y-141140500D01*
X107997375Y-141140500D01*
X107997392Y-141140500D01*
X108106543Y-141134370D01*
X108364333Y-141085594D01*
X108611974Y-140998941D01*
X108843933Y-140876346D01*
X109055031Y-140720550D01*
X109240550Y-140535031D01*
X109396346Y-140323933D01*
X109518941Y-140091974D01*
X109605594Y-139844333D01*
X109654370Y-139586543D01*
X109660500Y-139477392D01*
X109660500Y-136302608D01*
X109654370Y-136193457D01*
X109605594Y-135935667D01*
X109518941Y-135688026D01*
X109396346Y-135456067D01*
X109240550Y-135244969D01*
X109055031Y-135059450D01*
X108843933Y-134903654D01*
X108843929Y-134903652D01*
X108843928Y-134903651D01*
X108611978Y-134781061D01*
X108611977Y-134781060D01*
X108611974Y-134781059D01*
X108364333Y-134694406D01*
X108364332Y-134694405D01*
X108364327Y-134694404D01*
X108364322Y-134694403D01*
X108106554Y-134645631D01*
X108106544Y-134645630D01*
X108106543Y-134645630D01*
X107997392Y-134639500D01*
X104822608Y-134639500D01*
X104713457Y-134645630D01*
X104713456Y-134645630D01*
X104713445Y-134645631D01*
X104455677Y-134694403D01*
X104455672Y-134694404D01*
X104331846Y-134737732D01*
X104208026Y-134781059D01*
X104208024Y-134781059D01*
X104208021Y-134781061D01*
X103976071Y-134903651D01*
X103764968Y-135059450D01*
X103579450Y-135244968D01*
X103423651Y-135456071D01*
X103301061Y-135688021D01*
X103214404Y-135935672D01*
X103214403Y-135935677D01*
X103165631Y-136193445D01*
X103165630Y-136193458D01*
X103159500Y-136302610D01*
X103159500Y-139477389D01*
X102047487Y-139477389D01*
X102164407Y-139256854D01*
X102294871Y-138929414D01*
X102297404Y-138920293D01*
X102323180Y-138827453D01*
X102389168Y-138589788D01*
X102446191Y-138241957D01*
X102465274Y-137890000D01*
X102446191Y-137538043D01*
X102389168Y-137190212D01*
X102297405Y-136859711D01*
X102294873Y-136850591D01*
X102294872Y-136850589D01*
X102164411Y-136523155D01*
X102164402Y-136523137D01*
X101999305Y-136211731D01*
X101801501Y-135919992D01*
X101801497Y-135919987D01*
X101801494Y-135919983D01*
X101573314Y-135651350D01*
X101317420Y-135408954D01*
X101317413Y-135408948D01*
X101317410Y-135408946D01*
X101036815Y-135195644D01*
X100734802Y-135013928D01*
X100734789Y-135013921D01*
X100414911Y-134865929D01*
X100414906Y-134865928D01*
X100414903Y-134865927D01*
X100414901Y-134865926D01*
X100308432Y-134830052D01*
X100080880Y-134753381D01*
X99736643Y-134677608D01*
X99386238Y-134639500D01*
X99386237Y-134639500D01*
X99033763Y-134639500D01*
X99033761Y-134639500D01*
X98683356Y-134677608D01*
X98339119Y-134753381D01*
X98005093Y-134865928D01*
X98005088Y-134865929D01*
X97685210Y-135013921D01*
X97685197Y-135013928D01*
X97383184Y-135195644D01*
X97102589Y-135408946D01*
X97102580Y-135408954D01*
X96846685Y-135651350D01*
X96618505Y-135919983D01*
X96618498Y-135919993D01*
X96420695Y-136211730D01*
X96255597Y-136523137D01*
X96255588Y-136523155D01*
X96125127Y-136850589D01*
X96125126Y-136850591D01*
X96030834Y-137190203D01*
X96030833Y-137190206D01*
X95973808Y-137538045D01*
X95954726Y-137889997D01*
X95954726Y-137890002D01*
X92660500Y-137890002D01*
X92660500Y-137768712D01*
X92628838Y-137528211D01*
X92566054Y-137293900D01*
X92473224Y-137069788D01*
X92351936Y-136859711D01*
X92204265Y-136667262D01*
X92204260Y-136667256D01*
X92032743Y-136495739D01*
X92032736Y-136495733D01*
X91840293Y-136348067D01*
X91840292Y-136348066D01*
X91840289Y-136348064D01*
X91630212Y-136226776D01*
X91630205Y-136226773D01*
X91406104Y-136133947D01*
X91171785Y-136071161D01*
X90931289Y-136039500D01*
X90931288Y-136039500D01*
X90688712Y-136039500D01*
X90688711Y-136039500D01*
X90448214Y-136071161D01*
X90213895Y-136133947D01*
X89989794Y-136226773D01*
X89989785Y-136226777D01*
X89779706Y-136348067D01*
X89587263Y-136495733D01*
X89587256Y-136495739D01*
X89415739Y-136667256D01*
X89415733Y-136667263D01*
X89268067Y-136859706D01*
X89146777Y-137069785D01*
X89146773Y-137069794D01*
X89053947Y-137293895D01*
X88991161Y-137528214D01*
X88959500Y-137768711D01*
X88959500Y-138011288D01*
X85820500Y-138011288D01*
X85820500Y-127890002D01*
X87354726Y-127890002D01*
X87373808Y-128241954D01*
X87430833Y-128589793D01*
X87430834Y-128589796D01*
X87525126Y-128929408D01*
X87525127Y-128929410D01*
X87655588Y-129256844D01*
X87655597Y-129256862D01*
X87820695Y-129568269D01*
X88018498Y-129860006D01*
X88018505Y-129860016D01*
X88223626Y-130101502D01*
X88246686Y-130128650D01*
X88502580Y-130371046D01*
X88783182Y-130584354D01*
X89085202Y-130766074D01*
X89085206Y-130766075D01*
X89085210Y-130766078D01*
X89405088Y-130914070D01*
X89405092Y-130914070D01*
X89405099Y-130914074D01*
X89739122Y-131026619D01*
X90083355Y-131102391D01*
X90433763Y-131140500D01*
X90433769Y-131140500D01*
X90786231Y-131140500D01*
X90786237Y-131140500D01*
X91136645Y-131102391D01*
X91480878Y-131026619D01*
X91814901Y-130914074D01*
X91814908Y-130914070D01*
X91814911Y-130914070D01*
X92134789Y-130766078D01*
X92134798Y-130766074D01*
X92436818Y-130584354D01*
X92717420Y-130371046D01*
X92973314Y-130128650D01*
X93201501Y-129860008D01*
X93399305Y-129568269D01*
X93455944Y-129461436D01*
X94310000Y-129461436D01*
X94325300Y-129675362D01*
X94386109Y-129954895D01*
X94486091Y-130222958D01*
X94623191Y-130474038D01*
X94623192Y-130474039D01*
X94794639Y-130703065D01*
X94794649Y-130703077D01*
X94996922Y-130905350D01*
X94996934Y-130905360D01*
X95225960Y-131076807D01*
X95225961Y-131076808D01*
X95477042Y-131213908D01*
X95477041Y-131213908D01*
X95745104Y-131313890D01*
X96024637Y-131374699D01*
X96238563Y-131389999D01*
X96238566Y-131390000D01*
X97310000Y-131390000D01*
X97310000Y-130085397D01*
X97370105Y-130101502D01*
X97662527Y-130140000D01*
X97957473Y-130140000D01*
X98249895Y-130101502D01*
X98310000Y-130085397D01*
X98310000Y-131390000D01*
X99381434Y-131390000D01*
X99381436Y-131389999D01*
X99595362Y-131374699D01*
X99874895Y-131313890D01*
X100142958Y-131213908D01*
X100394038Y-131076808D01*
X100394039Y-131076807D01*
X100623065Y-130905360D01*
X100623077Y-130905350D01*
X100825350Y-130703077D01*
X100825360Y-130703065D01*
X100996807Y-130474039D01*
X100996808Y-130474038D01*
X101133908Y-130222958D01*
X101233890Y-129954895D01*
X101294699Y-129675362D01*
X101309999Y-129461436D01*
X150310000Y-129461436D01*
X150325300Y-129675362D01*
X150386109Y-129954895D01*
X150486091Y-130222958D01*
X150623191Y-130474038D01*
X150623192Y-130474039D01*
X150794639Y-130703065D01*
X150794649Y-130703077D01*
X150996922Y-130905350D01*
X150996934Y-130905360D01*
X151225960Y-131076807D01*
X151225961Y-131076808D01*
X151477042Y-131213908D01*
X151477041Y-131213908D01*
X151745104Y-131313890D01*
X152024637Y-131374699D01*
X152238563Y-131389999D01*
X152238566Y-131390000D01*
X153310000Y-131390000D01*
X153310000Y-130085397D01*
X153370105Y-130101502D01*
X153662527Y-130140000D01*
X153957473Y-130140000D01*
X154249895Y-130101502D01*
X154310000Y-130085397D01*
X154310000Y-131390000D01*
X155381434Y-131390000D01*
X155381436Y-131389999D01*
X155595362Y-131374699D01*
X155874895Y-131313890D01*
X156142958Y-131213908D01*
X156394038Y-131076808D01*
X156394039Y-131076807D01*
X156623065Y-130905360D01*
X156623077Y-130905350D01*
X156825350Y-130703077D01*
X156825360Y-130703065D01*
X156996807Y-130474039D01*
X156996808Y-130474038D01*
X157133908Y-130222958D01*
X157233890Y-129954895D01*
X157294699Y-129675362D01*
X157309999Y-129461436D01*
X157310000Y-129461434D01*
X157310000Y-128390000D01*
X156005397Y-128390000D01*
X156021502Y-128329895D01*
X156060000Y-128037473D01*
X156060000Y-127890002D01*
X157754726Y-127890002D01*
X157773808Y-128241954D01*
X157830833Y-128589793D01*
X157830834Y-128589796D01*
X157925126Y-128929408D01*
X157925127Y-128929410D01*
X158055588Y-129256844D01*
X158055597Y-129256862D01*
X158220695Y-129568269D01*
X158418498Y-129860006D01*
X158418505Y-129860016D01*
X158623626Y-130101502D01*
X158646686Y-130128650D01*
X158902580Y-130371046D01*
X159183182Y-130584354D01*
X159485202Y-130766074D01*
X159485206Y-130766075D01*
X159485210Y-130766078D01*
X159805088Y-130914070D01*
X159805092Y-130914070D01*
X159805099Y-130914074D01*
X160139122Y-131026619D01*
X160483355Y-131102391D01*
X160833763Y-131140500D01*
X160833769Y-131140500D01*
X161186231Y-131140500D01*
X161186237Y-131140500D01*
X161536645Y-131102391D01*
X161880878Y-131026619D01*
X162214901Y-130914074D01*
X162214908Y-130914070D01*
X162214911Y-130914070D01*
X162534789Y-130766078D01*
X162534798Y-130766074D01*
X162836818Y-130584354D01*
X163117420Y-130371046D01*
X163373314Y-130128650D01*
X163601501Y-129860008D01*
X163799305Y-129568269D01*
X163964407Y-129256854D01*
X164094871Y-128929414D01*
X164189168Y-128589788D01*
X164246191Y-128241957D01*
X164261768Y-127954658D01*
X164265274Y-127890002D01*
X164265274Y-127889997D01*
X164246191Y-127538045D01*
X164246191Y-127538043D01*
X164189168Y-127190212D01*
X164146704Y-127037271D01*
X164094873Y-126850591D01*
X164094872Y-126850589D01*
X163964411Y-126523155D01*
X163964402Y-126523137D01*
X163799305Y-126211731D01*
X163601501Y-125919992D01*
X163601497Y-125919987D01*
X163601494Y-125919983D01*
X163373314Y-125651350D01*
X163371587Y-125649714D01*
X163117420Y-125408954D01*
X163117413Y-125408948D01*
X163117410Y-125408946D01*
X162836815Y-125195644D01*
X162534802Y-125013928D01*
X162534789Y-125013921D01*
X162214911Y-124865929D01*
X162214906Y-124865928D01*
X162214903Y-124865927D01*
X162214901Y-124865926D01*
X162108432Y-124830052D01*
X161880880Y-124753381D01*
X161536643Y-124677608D01*
X161186238Y-124639500D01*
X161186237Y-124639500D01*
X160833763Y-124639500D01*
X160833761Y-124639500D01*
X160483356Y-124677608D01*
X160139119Y-124753381D01*
X159805093Y-124865928D01*
X159805088Y-124865929D01*
X159485210Y-125013921D01*
X159485197Y-125013928D01*
X159183184Y-125195644D01*
X158902589Y-125408946D01*
X158902580Y-125408954D01*
X158646685Y-125651350D01*
X158418505Y-125919983D01*
X158418498Y-125919993D01*
X158220695Y-126211730D01*
X158055597Y-126523137D01*
X158055588Y-126523155D01*
X157925127Y-126850589D01*
X157925126Y-126850591D01*
X157830834Y-127190203D01*
X157830833Y-127190206D01*
X157773808Y-127538045D01*
X157754726Y-127889997D01*
X157754726Y-127890002D01*
X156060000Y-127890002D01*
X156060000Y-127742527D01*
X156021502Y-127450105D01*
X156005397Y-127390000D01*
X157310000Y-127390000D01*
X157310000Y-126318566D01*
X157309999Y-126318563D01*
X157294699Y-126104637D01*
X157233890Y-125825104D01*
X157133908Y-125557041D01*
X156996808Y-125305961D01*
X156996807Y-125305960D01*
X156825360Y-125076934D01*
X156825350Y-125076922D01*
X156623077Y-124874649D01*
X156623065Y-124874639D01*
X156394039Y-124703192D01*
X156394038Y-124703191D01*
X156142957Y-124566091D01*
X156142958Y-124566091D01*
X155874895Y-124466109D01*
X155595362Y-124405300D01*
X155381436Y-124390000D01*
X154310000Y-124390000D01*
X154310000Y-125694602D01*
X154249895Y-125678498D01*
X153957473Y-125640000D01*
X153662527Y-125640000D01*
X153370105Y-125678498D01*
X153310000Y-125694602D01*
X153310000Y-124390000D01*
X152238563Y-124390000D01*
X152024637Y-124405300D01*
X151745104Y-124466109D01*
X151477041Y-124566091D01*
X151225961Y-124703191D01*
X151225960Y-124703192D01*
X150996934Y-124874639D01*
X150996922Y-124874649D01*
X150794649Y-125076922D01*
X150794639Y-125076934D01*
X150623192Y-125305960D01*
X150623191Y-125305961D01*
X150486091Y-125557041D01*
X150386109Y-125825104D01*
X150325300Y-126104637D01*
X150310000Y-126318563D01*
X150310000Y-127390000D01*
X151614603Y-127390000D01*
X151598498Y-127450105D01*
X151560000Y-127742527D01*
X151560000Y-128037473D01*
X151598498Y-128329895D01*
X151614603Y-128390000D01*
X150310000Y-128390000D01*
X150310000Y-129461436D01*
X101309999Y-129461436D01*
X101310000Y-129461434D01*
X101310000Y-128390000D01*
X100005397Y-128390000D01*
X100021502Y-128329895D01*
X100060000Y-128037473D01*
X100060000Y-127960276D01*
X141959334Y-127960276D01*
X141978792Y-128095613D01*
X141978794Y-128095621D01*
X142035591Y-128219990D01*
X142035596Y-128219997D01*
X142125133Y-128323329D01*
X142125137Y-128323333D01*
X142166199Y-128349721D01*
X142240163Y-128397254D01*
X142305760Y-128416515D01*
X142371356Y-128435776D01*
X142371357Y-128435776D01*
X142489349Y-128435776D01*
X142521437Y-128439999D01*
X142523304Y-128440500D01*
X147339466Y-128440500D01*
X147406503Y-128460183D01*
X147510439Y-128526978D01*
X147510441Y-128526978D01*
X147510442Y-128526979D01*
X147641632Y-128565500D01*
X147641633Y-128565500D01*
X147778367Y-128565500D01*
X147909561Y-128526978D01*
X148024589Y-128453055D01*
X148114130Y-128349718D01*
X148170931Y-128225342D01*
X148190390Y-128090000D01*
X148170931Y-127954658D01*
X148158677Y-127927827D01*
X148114132Y-127830285D01*
X148114127Y-127830278D01*
X148024590Y-127726946D01*
X148024586Y-127726942D01*
X147909559Y-127653021D01*
X147778368Y-127614500D01*
X147778367Y-127614500D01*
X147641633Y-127614500D01*
X147641632Y-127614500D01*
X147510442Y-127653020D01*
X147510439Y-127653022D01*
X147406503Y-127719816D01*
X147339466Y-127739500D01*
X142934226Y-127739500D01*
X142867187Y-127719815D01*
X142840513Y-127696702D01*
X142754314Y-127597222D01*
X142754310Y-127597218D01*
X142639283Y-127523297D01*
X142508092Y-127484776D01*
X142508091Y-127484776D01*
X142371357Y-127484776D01*
X142371356Y-127484776D01*
X142240164Y-127523297D01*
X142125137Y-127597218D01*
X142125133Y-127597222D01*
X142035596Y-127700554D01*
X142035591Y-127700561D01*
X141978794Y-127824930D01*
X141978792Y-127824938D01*
X141959334Y-127960276D01*
X100060000Y-127960276D01*
X100060000Y-127742527D01*
X100021502Y-127450105D01*
X100005397Y-127390000D01*
X101310000Y-127390000D01*
X101310000Y-126318566D01*
X101309999Y-126318563D01*
X101294699Y-126104637D01*
X101233890Y-125825104D01*
X101133908Y-125557041D01*
X101042697Y-125390000D01*
X138429610Y-125390000D01*
X138449068Y-125525337D01*
X138449070Y-125525345D01*
X138505867Y-125649714D01*
X138505872Y-125649721D01*
X138595409Y-125753053D01*
X138595413Y-125753057D01*
X138655979Y-125791979D01*
X138710439Y-125826978D01*
X138776036Y-125846239D01*
X138841632Y-125865500D01*
X138841633Y-125865500D01*
X138978367Y-125865500D01*
X139109561Y-125826978D01*
X139224589Y-125753055D01*
X139285034Y-125683296D01*
X139343810Y-125645523D01*
X139378746Y-125640500D01*
X148939466Y-125640500D01*
X149006503Y-125660183D01*
X149110439Y-125726978D01*
X149110441Y-125726978D01*
X149110442Y-125726979D01*
X149241632Y-125765500D01*
X149241633Y-125765500D01*
X149378367Y-125765500D01*
X149509561Y-125726978D01*
X149624589Y-125653055D01*
X149714130Y-125549718D01*
X149770931Y-125425342D01*
X149790390Y-125290000D01*
X149770931Y-125154658D01*
X149758677Y-125127827D01*
X149714132Y-125030285D01*
X149714127Y-125030278D01*
X149624590Y-124926946D01*
X149624586Y-124926942D01*
X149509559Y-124853021D01*
X149378368Y-124814500D01*
X149378367Y-124814500D01*
X149241633Y-124814500D01*
X149241632Y-124814500D01*
X149110442Y-124853020D01*
X149110439Y-124853022D01*
X149006503Y-124919816D01*
X148939466Y-124939500D01*
X139081337Y-124939500D01*
X139046402Y-124934477D01*
X138978368Y-124914500D01*
X138978367Y-124914500D01*
X138841633Y-124914500D01*
X138841632Y-124914500D01*
X138710440Y-124953021D01*
X138595413Y-125026942D01*
X138595409Y-125026946D01*
X138505872Y-125130278D01*
X138505867Y-125130285D01*
X138449070Y-125254654D01*
X138449068Y-125254662D01*
X138429610Y-125390000D01*
X101042697Y-125390000D01*
X100996808Y-125305961D01*
X100996807Y-125305960D01*
X100825360Y-125076934D01*
X100825350Y-125076922D01*
X100623077Y-124874649D01*
X100623065Y-124874639D01*
X100394039Y-124703192D01*
X100394038Y-124703191D01*
X100142957Y-124566091D01*
X100142958Y-124566091D01*
X99874895Y-124466109D01*
X99595362Y-124405300D01*
X99381436Y-124390000D01*
X98310000Y-124390000D01*
X98310000Y-125694602D01*
X98249895Y-125678498D01*
X97957473Y-125640000D01*
X97662527Y-125640000D01*
X97370105Y-125678498D01*
X97310000Y-125694602D01*
X97310000Y-124390000D01*
X96238563Y-124390000D01*
X96024637Y-124405300D01*
X95745104Y-124466109D01*
X95477041Y-124566091D01*
X95225961Y-124703191D01*
X95225960Y-124703192D01*
X94996934Y-124874639D01*
X94996922Y-124874649D01*
X94794649Y-125076922D01*
X94794639Y-125076934D01*
X94623192Y-125305960D01*
X94623191Y-125305961D01*
X94486091Y-125557041D01*
X94386109Y-125825104D01*
X94325300Y-126104637D01*
X94310000Y-126318563D01*
X94310000Y-127390000D01*
X95614603Y-127390000D01*
X95598498Y-127450105D01*
X95560000Y-127742527D01*
X95560000Y-128037473D01*
X95598498Y-128329895D01*
X95614603Y-128390000D01*
X94310000Y-128390000D01*
X94310000Y-129461436D01*
X93455944Y-129461436D01*
X93564407Y-129256854D01*
X93694871Y-128929414D01*
X93789168Y-128589788D01*
X93846191Y-128241957D01*
X93861768Y-127954658D01*
X93865274Y-127890002D01*
X93865274Y-127889997D01*
X93846191Y-127538045D01*
X93846191Y-127538043D01*
X93789168Y-127190212D01*
X93746704Y-127037271D01*
X93694873Y-126850591D01*
X93694872Y-126850589D01*
X93564411Y-126523155D01*
X93564402Y-126523137D01*
X93399305Y-126211731D01*
X93201501Y-125919992D01*
X93201497Y-125919987D01*
X93201494Y-125919983D01*
X92973314Y-125651350D01*
X92971587Y-125649714D01*
X92717420Y-125408954D01*
X92717413Y-125408948D01*
X92717410Y-125408946D01*
X92436815Y-125195644D01*
X92134802Y-125013928D01*
X92134789Y-125013921D01*
X91814911Y-124865929D01*
X91814906Y-124865928D01*
X91814903Y-124865927D01*
X91814901Y-124865926D01*
X91708432Y-124830052D01*
X91480880Y-124753381D01*
X91136643Y-124677608D01*
X90786238Y-124639500D01*
X90786237Y-124639500D01*
X90433763Y-124639500D01*
X90433761Y-124639500D01*
X90083356Y-124677608D01*
X89739119Y-124753381D01*
X89405093Y-124865928D01*
X89405088Y-124865929D01*
X89085210Y-125013921D01*
X89085197Y-125013928D01*
X88783184Y-125195644D01*
X88502589Y-125408946D01*
X88502580Y-125408954D01*
X88246685Y-125651350D01*
X88018505Y-125919983D01*
X88018498Y-125919993D01*
X87820695Y-126211730D01*
X87655597Y-126523137D01*
X87655588Y-126523155D01*
X87525127Y-126850589D01*
X87525126Y-126850591D01*
X87430834Y-127190203D01*
X87430833Y-127190206D01*
X87373808Y-127538045D01*
X87354726Y-127889997D01*
X87354726Y-127890002D01*
X85820500Y-127890002D01*
X85820500Y-118014000D01*
X85840185Y-117946961D01*
X85892989Y-117901206D01*
X85944500Y-117890000D01*
X101735500Y-117890000D01*
X101802539Y-117909685D01*
G37*
%TD.AperFunction*%
%TD*%
%TA.AperFunction,Conductor*%
%TO.N,GND*%
G36*
X159789039Y-93591685D02*
G01*
X159834794Y-93644489D01*
X159846000Y-93696000D01*
X159846000Y-117890000D01*
X150956000Y-117890000D01*
X150956000Y-109764893D01*
X150975685Y-109697854D01*
X151028489Y-109652099D01*
X151045065Y-109645916D01*
X151066012Y-109639765D01*
X151109561Y-109626978D01*
X151224589Y-109553055D01*
X151314130Y-109449718D01*
X151370931Y-109325342D01*
X151390390Y-109190000D01*
X151370931Y-109054658D01*
X151358677Y-109027827D01*
X151314132Y-108930285D01*
X151314127Y-108930278D01*
X151224590Y-108826946D01*
X151224586Y-108826942D01*
X151109559Y-108753021D01*
X151045064Y-108734083D01*
X150986286Y-108696308D01*
X150957262Y-108632752D01*
X150956000Y-108615106D01*
X150956000Y-93696000D01*
X150975685Y-93628961D01*
X151028489Y-93583206D01*
X151080000Y-93572000D01*
X159722000Y-93572000D01*
X159789039Y-93591685D01*
G37*
%TD.AperFunction*%
%TD*%
M02*
