%TF.GenerationSoftware,KiCad,Pcbnew,8.0.1*%
%TF.CreationDate,2024-06-22T00:40:19+02:00*%
%TF.ProjectId,Robuoy-Sub,526f6275-6f79-42d5-9375-622e6b696361,rev?*%
%TF.SameCoordinates,Original*%
%TF.FileFunction,Paste,Top*%
%TF.FilePolarity,Positive*%
%FSLAX46Y46*%
G04 Gerber Fmt 4.6, Leading zero omitted, Abs format (unit mm)*
G04 Created by KiCad (PCBNEW 8.0.1) date 2024-06-22 00:40:19*
%MOMM*%
%LPD*%
G01*
G04 APERTURE LIST*
G04 Aperture macros list*
%AMRoundRect*
0 Rectangle with rounded corners*
0 $1 Rounding radius*
0 $2 $3 $4 $5 $6 $7 $8 $9 X,Y pos of 4 corners*
0 Add a 4 corners polygon primitive as box body*
4,1,4,$2,$3,$4,$5,$6,$7,$8,$9,$2,$3,0*
0 Add four circle primitives for the rounded corners*
1,1,$1+$1,$2,$3*
1,1,$1+$1,$4,$5*
1,1,$1+$1,$6,$7*
1,1,$1+$1,$8,$9*
0 Add four rect primitives between the rounded corners*
20,1,$1+$1,$2,$3,$4,$5,0*
20,1,$1+$1,$4,$5,$6,$7,0*
20,1,$1+$1,$6,$7,$8,$9,0*
20,1,$1+$1,$8,$9,$2,$3,0*%
G04 Aperture macros list end*
%ADD10R,0.350000X0.375000*%
%ADD11R,0.375000X0.350000*%
%ADD12RoundRect,0.300000X-0.300000X-0.400000X0.300000X-0.400000X0.300000X0.400000X-0.300000X0.400000X0*%
%ADD13R,1.500000X0.900000*%
%ADD14RoundRect,0.150000X-0.587500X-0.150000X0.587500X-0.150000X0.587500X0.150000X-0.587500X0.150000X0*%
%ADD15RoundRect,0.200000X0.250000X-0.200000X0.250000X0.200000X-0.250000X0.200000X-0.250000X-0.200000X0*%
%ADD16RoundRect,0.375000X0.375000X0.475000X-0.375000X0.475000X-0.375000X-0.475000X0.375000X-0.475000X0*%
%ADD17RoundRect,0.200000X-0.200000X-0.250000X0.200000X-0.250000X0.200000X0.250000X-0.200000X0.250000X0*%
%ADD18RoundRect,0.200000X0.200000X0.250000X-0.200000X0.250000X-0.200000X-0.250000X0.200000X-0.250000X0*%
%ADD19RoundRect,0.200000X-0.250000X0.200000X-0.250000X-0.200000X0.250000X-0.200000X0.250000X0.200000X0*%
%ADD20RoundRect,0.250000X-1.100000X0.325000X-1.100000X-0.325000X1.100000X-0.325000X1.100000X0.325000X0*%
%ADD21RoundRect,0.250000X1.100000X-0.325000X1.100000X0.325000X-1.100000X0.325000X-1.100000X-0.325000X0*%
%ADD22RoundRect,0.250000X1.000000X0.650000X-1.000000X0.650000X-1.000000X-0.650000X1.000000X-0.650000X0*%
%ADD23RoundRect,0.150000X0.587500X0.150000X-0.587500X0.150000X-0.587500X-0.150000X0.587500X-0.150000X0*%
%ADD24RoundRect,0.100000X-0.350000X-0.100000X0.350000X-0.100000X0.350000X0.100000X-0.350000X0.100000X0*%
%ADD25RoundRect,0.150000X0.512500X0.150000X-0.512500X0.150000X-0.512500X-0.150000X0.512500X-0.150000X0*%
%ADD26RoundRect,0.150000X-0.150000X0.512500X-0.150000X-0.512500X0.150000X-0.512500X0.150000X0.512500X0*%
%ADD27RoundRect,0.112500X-0.187500X-0.112500X0.187500X-0.112500X0.187500X0.112500X-0.187500X0.112500X0*%
%ADD28RoundRect,0.218750X0.218750X0.256250X-0.218750X0.256250X-0.218750X-0.256250X0.218750X-0.256250X0*%
%ADD29RoundRect,0.250000X-0.325000X-1.100000X0.325000X-1.100000X0.325000X1.100000X-0.325000X1.100000X0*%
%ADD30RoundRect,0.112500X0.112500X-0.187500X0.112500X0.187500X-0.112500X0.187500X-0.112500X-0.187500X0*%
%ADD31RoundRect,0.230769X1.519231X-0.969231X1.519231X0.969231X-1.519231X0.969231X-1.519231X-0.969231X0*%
%ADD32RoundRect,0.375000X0.475000X-0.375000X0.475000X0.375000X-0.475000X0.375000X-0.475000X-0.375000X0*%
%ADD33RoundRect,0.218750X-0.218750X-0.256250X0.218750X-0.256250X0.218750X0.256250X-0.218750X0.256250X0*%
%ADD34RoundRect,0.375000X-0.375000X-0.475000X0.375000X-0.475000X0.375000X0.475000X-0.375000X0.475000X0*%
%ADD35RoundRect,0.099705X0.622795X-0.622795X0.622795X0.622795X-0.622795X0.622795X-0.622795X-0.622795X0*%
%ADD36RoundRect,0.225000X0.525000X0.225000X-0.525000X0.225000X-0.525000X-0.225000X0.525000X-0.225000X0*%
%ADD37RoundRect,0.225000X-0.225000X0.525000X-0.225000X-0.525000X0.225000X-0.525000X0.225000X0.525000X0*%
%ADD38RoundRect,0.091346X0.958654X-0.383654X0.958654X0.383654X-0.958654X0.383654X-0.958654X-0.383654X0*%
%ADD39RoundRect,0.275000X0.375000X-0.275000X0.375000X0.275000X-0.375000X0.275000X-0.375000X-0.275000X0*%
%ADD40RoundRect,0.242500X-0.402500X0.242500X-0.402500X-0.242500X0.402500X-0.242500X0.402500X0.242500X0*%
%ADD41RoundRect,0.150000X-0.150000X0.650000X-0.150000X-0.650000X0.150000X-0.650000X0.150000X0.650000X0*%
%ADD42RoundRect,0.150000X-0.150000X0.587500X-0.150000X-0.587500X0.150000X-0.587500X0.150000X0.587500X0*%
%ADD43RoundRect,0.150000X-0.512500X-0.150000X0.512500X-0.150000X0.512500X0.150000X-0.512500X0.150000X0*%
%ADD44RoundRect,0.300000X0.400000X-0.300000X0.400000X0.300000X-0.400000X0.300000X-0.400000X-0.300000X0*%
G04 APERTURE END LIST*
D10*
%TO.C,U103*%
X125060000Y-43026500D03*
X125560000Y-43026500D03*
X126060000Y-43026500D03*
X126560000Y-43026500D03*
D11*
X126572500Y-42514000D03*
X126572500Y-42014000D03*
D10*
X126560000Y-41501500D03*
X126060000Y-41501500D03*
X125560000Y-41501500D03*
X125060000Y-41501500D03*
D11*
X125047500Y-42014000D03*
X125047500Y-42514000D03*
%TD*%
D12*
%TO.C,D206*%
X143810000Y-124890000D03*
X145810000Y-124890000D03*
%TD*%
D13*
%TO.C,D103*%
X88360000Y-116240000D03*
X88360000Y-119540000D03*
X93260000Y-119540000D03*
X93260000Y-116240000D03*
%TD*%
D14*
%TO.C,Q203*%
X103935000Y-130440000D03*
X103935000Y-132340000D03*
X105810000Y-131390000D03*
%TD*%
D15*
%TO.C,C101*%
X97810000Y-107240000D03*
X97810000Y-108740000D03*
%TD*%
D16*
%TO.C,C204*%
X153672000Y-119734000D03*
X150272000Y-119734000D03*
%TD*%
D17*
%TO.C,C119*%
X90008000Y-113638000D03*
X91508000Y-113638000D03*
%TD*%
D18*
%TO.C,R206*%
X144324000Y-80364000D03*
X142824000Y-80364000D03*
%TD*%
D19*
%TO.C,R208*%
X112040000Y-133690000D03*
X112040000Y-135190000D03*
%TD*%
D18*
%TO.C,R205*%
X154160000Y-99922000D03*
X152660000Y-99922000D03*
%TD*%
D20*
%TO.C,C113*%
X120110000Y-40615000D03*
X120110000Y-43565000D03*
%TD*%
D15*
%TO.C,R213*%
X152480000Y-91395500D03*
X152480000Y-89895500D03*
%TD*%
D21*
%TO.C,C212*%
X159846000Y-99224000D03*
X159846000Y-96274000D03*
%TD*%
D17*
%TO.C,R105*%
X90560000Y-98769000D03*
X92060000Y-98769000D03*
%TD*%
D19*
%TO.C,C106*%
X122610000Y-41540000D03*
X122610000Y-43040000D03*
%TD*%
D14*
%TO.C,Q204*%
X141872500Y-126940000D03*
X141872500Y-128840000D03*
X143747500Y-127890000D03*
%TD*%
D17*
%TO.C,R201*%
X155360000Y-122490000D03*
X156860000Y-122490000D03*
%TD*%
D22*
%TO.C,D202*%
X156766000Y-110336000D03*
X152766000Y-110336000D03*
%TD*%
D16*
%TO.C,C201*%
X153672000Y-122020000D03*
X150272000Y-122020000D03*
%TD*%
D15*
%TO.C,C116*%
X128604000Y-43014000D03*
X128604000Y-41514000D03*
%TD*%
D23*
%TO.C,Q206*%
X147747500Y-128840000D03*
X147747500Y-126940000D03*
X145872500Y-127890000D03*
%TD*%
D17*
%TO.C,C110*%
X145560000Y-113890000D03*
X147060000Y-113890000D03*
%TD*%
D13*
%TO.C,D107*%
X158360000Y-66240000D03*
X158360000Y-69540000D03*
X163260000Y-69540000D03*
X163260000Y-66240000D03*
%TD*%
D19*
%TO.C,R107*%
X123270000Y-75296000D03*
X123270000Y-76796000D03*
%TD*%
D21*
%TO.C,C211*%
X163402000Y-99273000D03*
X163402000Y-96323000D03*
%TD*%
D16*
%TO.C,C203*%
X153672000Y-117448000D03*
X150272000Y-117448000D03*
%TD*%
D17*
%TO.C,R207*%
X142824000Y-77062000D03*
X144324000Y-77062000D03*
%TD*%
D24*
%TO.C,U104*%
X90210000Y-95833000D03*
X90210000Y-96483000D03*
X90210000Y-97133000D03*
X92410000Y-97133000D03*
X92410000Y-96483000D03*
X92410000Y-95833000D03*
%TD*%
D17*
%TO.C,C114*%
X125060000Y-39890000D03*
X126560000Y-39890000D03*
%TD*%
%TO.C,C117*%
X90008000Y-63854000D03*
X91508000Y-63854000D03*
%TD*%
D12*
%TO.C,D203*%
X139018000Y-80364000D03*
X141018000Y-80364000D03*
%TD*%
D25*
%TO.C,U102*%
X98247500Y-84740000D03*
X98247500Y-83790000D03*
X98247500Y-82840000D03*
X95972500Y-82840000D03*
X95972500Y-83790000D03*
X95972500Y-84740000D03*
%TD*%
D12*
%TO.C,D204*%
X139018000Y-77062000D03*
X141018000Y-77062000D03*
%TD*%
D18*
%TO.C,R108*%
X149560000Y-72090000D03*
X148060000Y-72090000D03*
%TD*%
D17*
%TO.C,R109*%
X106160000Y-111090000D03*
X107660000Y-111090000D03*
%TD*%
%TO.C,C205*%
X153762000Y-113130000D03*
X155262000Y-113130000D03*
%TD*%
%TO.C,C118*%
X159858000Y-63854000D03*
X161358000Y-63854000D03*
%TD*%
D15*
%TO.C,C108*%
X119410000Y-81640000D03*
X119410000Y-80140000D03*
%TD*%
D26*
%TO.C,U202*%
X107960000Y-122770000D03*
X107010000Y-122770000D03*
X106060000Y-122770000D03*
X106060000Y-125045000D03*
X107960000Y-125045000D03*
%TD*%
D27*
%TO.C,D201*%
X137260000Y-131090000D03*
X139360000Y-131090000D03*
%TD*%
D23*
%TO.C,Q205*%
X109810000Y-128840000D03*
X109810000Y-126940000D03*
X107935000Y-127890000D03*
%TD*%
D28*
%TO.C,D106*%
X147097500Y-115390000D03*
X145522500Y-115390000D03*
%TD*%
D18*
%TO.C,C111*%
X106960000Y-113190000D03*
X105460000Y-113190000D03*
%TD*%
D26*
%TO.C,U203*%
X145760000Y-120252500D03*
X144810000Y-120252500D03*
X143860000Y-120252500D03*
X143860000Y-122527500D03*
X145760000Y-122527500D03*
%TD*%
D13*
%TO.C,D104*%
X88360000Y-66240000D03*
X88360000Y-69540000D03*
X93260000Y-69540000D03*
X93260000Y-66240000D03*
%TD*%
D29*
%TO.C,C103*%
X136735000Y-138290000D03*
X139685000Y-138290000D03*
%TD*%
D19*
%TO.C,R102*%
X99334000Y-108740000D03*
X99334000Y-107240000D03*
%TD*%
D30*
%TO.C,D101*%
X125810000Y-77096000D03*
X125810000Y-74996000D03*
%TD*%
D15*
%TO.C,C115*%
X88770000Y-97233000D03*
X88770000Y-95733000D03*
%TD*%
%TO.C,R211*%
X141810000Y-125140000D03*
X141810000Y-123640000D03*
%TD*%
D25*
%TO.C,U106*%
X147447500Y-112340000D03*
X147447500Y-111390000D03*
X147447500Y-110440000D03*
X145172500Y-110440000D03*
X145172500Y-112340000D03*
%TD*%
D14*
%TO.C,Q202*%
X141872500Y-130440000D03*
X141872500Y-132340000D03*
X143747500Y-131390000D03*
%TD*%
D15*
%TO.C,C217*%
X141812000Y-122008000D03*
X141812000Y-120508000D03*
%TD*%
D31*
%TO.C,L201*%
X162132000Y-107748000D03*
X162132000Y-101748000D03*
%TD*%
D32*
%TO.C,C214*%
X161304000Y-93748000D03*
X161304000Y-90348000D03*
%TD*%
D15*
%TO.C,C210*%
X109710000Y-124657500D03*
X109710000Y-123157500D03*
%TD*%
D23*
%TO.C,Q201*%
X109747500Y-132340000D03*
X109747500Y-130440000D03*
X107872500Y-131390000D03*
%TD*%
D19*
%TO.C,R103*%
X131906000Y-75296000D03*
X131906000Y-76796000D03*
%TD*%
D33*
%TO.C,D105*%
X103122500Y-111090000D03*
X104697500Y-111090000D03*
%TD*%
D34*
%TO.C,C218*%
X152558000Y-97890000D03*
X155958000Y-97890000D03*
%TD*%
D17*
%TO.C,C207*%
X137460000Y-129390000D03*
X138960000Y-129390000D03*
%TD*%
D18*
%TO.C,R204*%
X157294000Y-99922000D03*
X155794000Y-99922000D03*
%TD*%
D35*
%TO.C,U101*%
X125010000Y-135462000D03*
X126670000Y-135462000D03*
X128330000Y-135462000D03*
X125010000Y-133802000D03*
X126670000Y-133802000D03*
X128330000Y-133802000D03*
X125010000Y-132142000D03*
X126670000Y-132142000D03*
X128330000Y-132142000D03*
D36*
X134560000Y-141147000D03*
X134560000Y-139877000D03*
X134560000Y-138607000D03*
X134560000Y-137337000D03*
X134560000Y-136067000D03*
X134560000Y-134797000D03*
X134560000Y-133527000D03*
X134560000Y-132257000D03*
X134560000Y-130987000D03*
X134560000Y-129717000D03*
X134560000Y-128447000D03*
X134560000Y-127177000D03*
X134560000Y-125907000D03*
X134560000Y-124637000D03*
D37*
X131525000Y-123387000D03*
X130255000Y-123387000D03*
X128985000Y-123387000D03*
X127715000Y-123387000D03*
X126445000Y-123387000D03*
X125175000Y-123387000D03*
X123905000Y-123387000D03*
X122635000Y-123387000D03*
X121365000Y-123387000D03*
X120095000Y-123387000D03*
D36*
X117060000Y-124637000D03*
X117060000Y-125907000D03*
X117060000Y-127177000D03*
X117060000Y-128447000D03*
X117060000Y-129717000D03*
X117060000Y-130987000D03*
X117060000Y-132257000D03*
X117060000Y-133527000D03*
X117060000Y-134797000D03*
X117060000Y-136067000D03*
X117060000Y-137337000D03*
X117060000Y-138607000D03*
X117060000Y-139877000D03*
X117060000Y-141147000D03*
%TD*%
D17*
%TO.C,R203*%
X155360000Y-120990000D03*
X156860000Y-120990000D03*
%TD*%
%TO.C,C215*%
X157760000Y-94588000D03*
X159260000Y-94588000D03*
%TD*%
D16*
%TO.C,C202*%
X153672000Y-115162000D03*
X150272000Y-115162000D03*
%TD*%
D30*
%TO.C,D102*%
X148654000Y-80398000D03*
X148654000Y-78298000D03*
%TD*%
D17*
%TO.C,C109*%
X119360000Y-46690000D03*
X120860000Y-46690000D03*
%TD*%
%TO.C,R104*%
X90560000Y-94197000D03*
X92060000Y-94197000D03*
%TD*%
D18*
%TO.C,C206*%
X151452000Y-113130000D03*
X149952000Y-113130000D03*
%TD*%
D15*
%TO.C,C209*%
X147810000Y-122140000D03*
X147810000Y-120640000D03*
%TD*%
D38*
%TO.C,L202*%
X158256000Y-92994500D03*
X158256000Y-91344500D03*
%TD*%
D18*
%TO.C,R202*%
X156860000Y-117490000D03*
X155360000Y-117490000D03*
%TD*%
D17*
%TO.C,C219*%
X152492000Y-95858000D03*
X153992000Y-95858000D03*
%TD*%
D15*
%TO.C,R209*%
X103966000Y-125310000D03*
X103966000Y-123810000D03*
%TD*%
D17*
%TO.C,C107*%
X119360000Y-45190000D03*
X120860000Y-45190000D03*
%TD*%
D29*
%TO.C,C102*%
X136735000Y-135090000D03*
X139685000Y-135090000D03*
%TD*%
D15*
%TO.C,R212*%
X152480000Y-94189500D03*
X152480000Y-92689500D03*
%TD*%
D17*
%TO.C,R111*%
X106160000Y-109590000D03*
X107660000Y-109590000D03*
%TD*%
D15*
%TO.C,C208*%
X157814000Y-105498000D03*
X157814000Y-103998000D03*
%TD*%
D14*
%TO.C,Q207*%
X103935000Y-126940000D03*
X103935000Y-128840000D03*
X105810000Y-127890000D03*
%TD*%
D39*
%TO.C,FB101*%
X116910000Y-43190000D03*
X116910000Y-40990000D03*
%TD*%
D40*
%TO.C,U201*%
X155058000Y-104056000D03*
X153458000Y-104056000D03*
X155058000Y-105256000D03*
X153458000Y-105256000D03*
D41*
X156163000Y-102006000D03*
X154893000Y-102006000D03*
X153623000Y-102006000D03*
X152353000Y-102006000D03*
X152353000Y-107306000D03*
X153623000Y-107306000D03*
X154893000Y-107306000D03*
X156163000Y-107306000D03*
%TD*%
D26*
%TO.C,U204*%
X155904000Y-90910500D03*
X154954000Y-90910500D03*
X154004000Y-90910500D03*
X154004000Y-93185500D03*
X154954000Y-93185500D03*
X155904000Y-93185500D03*
%TD*%
D19*
%TO.C,R106*%
X128350000Y-75296000D03*
X128350000Y-76796000D03*
%TD*%
D15*
%TO.C,C213*%
X163336000Y-92798000D03*
X163336000Y-91298000D03*
%TD*%
D17*
%TO.C,C105*%
X137360000Y-140590000D03*
X138860000Y-140590000D03*
%TD*%
D19*
%TO.C,R210*%
X147810000Y-123640000D03*
X147810000Y-125140000D03*
%TD*%
D42*
%TO.C,Q102*%
X149604000Y-74152500D03*
X147704000Y-74152500D03*
X148654000Y-76027500D03*
%TD*%
D14*
%TO.C,Q101*%
X119538500Y-75096000D03*
X119538500Y-76996000D03*
X121413500Y-76046000D03*
%TD*%
D19*
%TO.C,R101*%
X115110000Y-120440000D03*
X115110000Y-121940000D03*
%TD*%
D17*
%TO.C,C104*%
X137460000Y-132690000D03*
X138960000Y-132690000D03*
%TD*%
D18*
%TO.C,R110*%
X147060000Y-116890000D03*
X145560000Y-116890000D03*
%TD*%
D17*
%TO.C,C216*%
X111980000Y-141140000D03*
X113480000Y-141140000D03*
%TD*%
D23*
%TO.C,Q208*%
X147747500Y-132340000D03*
X147747500Y-130440000D03*
X145872500Y-131390000D03*
%TD*%
D43*
%TO.C,U105*%
X105172500Y-114740000D03*
X105172500Y-115690000D03*
X105172500Y-116640000D03*
X107447500Y-116640000D03*
X107447500Y-114740000D03*
%TD*%
D44*
%TO.C,D205*%
X112010000Y-139030000D03*
X112010000Y-137030000D03*
%TD*%
D15*
%TO.C,C112*%
X130128000Y-76784000D03*
X130128000Y-75284000D03*
%TD*%
D17*
%TO.C,R112*%
X137960000Y-119990000D03*
X139460000Y-119990000D03*
%TD*%
M02*
