%TF.GenerationSoftware,KiCad,Pcbnew,8.0.3*%
%TF.CreationDate,2024-07-03T22:49:40+02:00*%
%TF.ProjectId,Robuoy-Sub,526f6275-6f79-42d5-9375-622e6b696361,rev?*%
%TF.SameCoordinates,Original*%
%TF.FileFunction,Copper,L3,Inr*%
%TF.FilePolarity,Positive*%
%FSLAX46Y46*%
G04 Gerber Fmt 4.6, Leading zero omitted, Abs format (unit mm)*
G04 Created by KiCad (PCBNEW 8.0.3) date 2024-07-03 22:49:40*
%MOMM*%
%LPD*%
G01*
G04 APERTURE LIST*
G04 Aperture macros list*
%AMRoundRect*
0 Rectangle with rounded corners*
0 $1 Rounding radius*
0 $2 $3 $4 $5 $6 $7 $8 $9 X,Y pos of 4 corners*
0 Add a 4 corners polygon primitive as box body*
4,1,4,$2,$3,$4,$5,$6,$7,$8,$9,$2,$3,0*
0 Add four circle primitives for the rounded corners*
1,1,$1+$1,$2,$3*
1,1,$1+$1,$4,$5*
1,1,$1+$1,$6,$7*
1,1,$1+$1,$8,$9*
0 Add four rect primitives between the rounded corners*
20,1,$1+$1,$2,$3,$4,$5,0*
20,1,$1+$1,$4,$5,$6,$7,0*
20,1,$1+$1,$6,$7,$8,$9,0*
20,1,$1+$1,$8,$9,$2,$3,0*%
G04 Aperture macros list end*
%TA.AperFunction,ComponentPad*%
%ADD10RoundRect,1.500000X1.500000X1.500000X-1.500000X1.500000X-1.500000X-1.500000X1.500000X-1.500000X0*%
%TD*%
%TA.AperFunction,ComponentPad*%
%ADD11C,6.000000*%
%TD*%
%TA.AperFunction,ComponentPad*%
%ADD12RoundRect,0.250000X0.600000X-0.600000X0.600000X0.600000X-0.600000X0.600000X-0.600000X-0.600000X0*%
%TD*%
%TA.AperFunction,ComponentPad*%
%ADD13C,1.700000*%
%TD*%
%TA.AperFunction,ComponentPad*%
%ADD14RoundRect,0.250000X0.725000X-0.600000X0.725000X0.600000X-0.725000X0.600000X-0.725000X-0.600000X0*%
%TD*%
%TA.AperFunction,ComponentPad*%
%ADD15O,1.950000X1.700000*%
%TD*%
%TA.AperFunction,ComponentPad*%
%ADD16R,1.700000X1.700000*%
%TD*%
%TA.AperFunction,ComponentPad*%
%ADD17O,1.700000X1.700000*%
%TD*%
%TA.AperFunction,ComponentPad*%
%ADD18C,3.000000*%
%TD*%
%TA.AperFunction,ComponentPad*%
%ADD19R,1.300000X1.300000*%
%TD*%
%TA.AperFunction,ComponentPad*%
%ADD20C,1.300000*%
%TD*%
%TA.AperFunction,ComponentPad*%
%ADD21C,1.524000*%
%TD*%
%TA.AperFunction,ComponentPad*%
%ADD22RoundRect,1.500000X-1.500000X-1.500000X1.500000X-1.500000X1.500000X1.500000X-1.500000X1.500000X0*%
%TD*%
%TA.AperFunction,ComponentPad*%
%ADD23RoundRect,0.250000X-0.725000X0.600000X-0.725000X-0.600000X0.725000X-0.600000X0.725000X0.600000X0*%
%TD*%
%TA.AperFunction,ComponentPad*%
%ADD24C,3.500000*%
%TD*%
%TA.AperFunction,ComponentPad*%
%ADD25R,1.650000X1.650000*%
%TD*%
%TA.AperFunction,HeatsinkPad*%
%ADD26C,0.500000*%
%TD*%
%TA.AperFunction,ComponentPad*%
%ADD27RoundRect,0.250000X-0.600000X-0.725000X0.600000X-0.725000X0.600000X0.725000X-0.600000X0.725000X0*%
%TD*%
%TA.AperFunction,ComponentPad*%
%ADD28O,1.700000X1.950000*%
%TD*%
%TA.AperFunction,ViaPad*%
%ADD29C,0.450000*%
%TD*%
%TA.AperFunction,ViaPad*%
%ADD30C,0.800000*%
%TD*%
%TA.AperFunction,ViaPad*%
%ADD31C,0.900000*%
%TD*%
%TA.AperFunction,ViaPad*%
%ADD32C,0.600000*%
%TD*%
%TA.AperFunction,Conductor*%
%ADD33C,3.000000*%
%TD*%
%TA.AperFunction,Conductor*%
%ADD34C,2.000000*%
%TD*%
%TA.AperFunction,Conductor*%
%ADD35C,0.600000*%
%TD*%
G04 APERTURE END LIST*
D10*
%TO.N,Net-(D205-K)*%
%TO.C,J206*%
X106410000Y-137890000D03*
D11*
%TO.N,Vbatt*%
X99210000Y-137890000D03*
%TD*%
D12*
%TO.N,EN*%
%TO.C,J101*%
X120730000Y-116142500D03*
D13*
%TO.N,+3.3V*%
X120730000Y-113602500D03*
%TO.N,TX*%
X123270000Y-116142500D03*
%TO.N,GND*%
X123270000Y-113602500D03*
%TO.N,RX*%
X125810000Y-116142500D03*
%TO.N,DR0*%
X125810000Y-113602500D03*
%TO.N,MTMS*%
X128350000Y-116142500D03*
%TO.N,MTCK*%
X128350000Y-113602500D03*
%TO.N,MTDO*%
X130890000Y-116142500D03*
%TO.N,MTDI*%
X130890000Y-113602500D03*
%TD*%
D14*
%TO.N,Net-(J104-Pin_1)*%
%TO.C,J104*%
X111210000Y-116590000D03*
D15*
%TO.N,Net-(J104-Pin_2)*%
X111210000Y-114090000D03*
%TO.N,Net-(J104-Pin_3)*%
X111210000Y-111590000D03*
%TD*%
D16*
%TO.N,GND*%
%TO.C,SW102*%
X97910000Y-115162000D03*
D17*
%TO.N,EN*%
X100450000Y-115162000D03*
%TD*%
D18*
%TO.N,GND*%
%TO.C,TP206*%
X125810000Y-67890000D03*
%TD*%
D19*
%TO.N,GND*%
%TO.C,J204*%
X124382000Y-100414000D03*
D20*
%TO.N,Vbatt*%
X127238000Y-100414000D03*
%TO.N,Net-(J202-Pin_7)*%
X128482000Y-99017000D03*
%TO.N,Net-(J202-Pin_6)*%
X128614000Y-97152000D03*
%TO.N,Net-(J202-Pin_5)*%
X127580000Y-95593000D03*
%TO.N,Net-(J202-Pin_4)*%
X125810000Y-94990000D03*
%TO.N,Net-(J202-Pin_3)*%
X124040000Y-95593000D03*
%TO.N,Net-(J202-Pin_2)*%
X123006000Y-97152000D03*
%TO.N,Net-(J202-Pin_1)*%
X123138000Y-99017000D03*
%TO.N,+VSW*%
X125810000Y-98990000D03*
%TO.N,Vbatt*%
X126763000Y-97340000D03*
%TO.N,GND*%
X124857000Y-97340000D03*
%TD*%
D16*
%TO.N,Net-(J103-Pin_1)*%
%TO.C,J103*%
X107335000Y-74490000D03*
D17*
%TO.N,Net-(J103-Pin_2)*%
X107335000Y-77030000D03*
%TO.N,/CPU/Vext*%
X107335000Y-79570000D03*
%TO.N,GND*%
X107335000Y-82110000D03*
%TD*%
D14*
%TO.N,Net-(J202-Pin_1)*%
%TO.C,J202*%
X111310000Y-104890000D03*
D15*
%TO.N,Net-(J202-Pin_2)*%
X111310000Y-102390000D03*
%TO.N,Net-(J202-Pin_3)*%
X111310000Y-99890000D03*
%TO.N,Net-(J202-Pin_4)*%
X111310000Y-97390000D03*
%TO.N,Net-(J202-Pin_5)*%
X111310000Y-94890000D03*
%TO.N,Net-(J202-Pin_6)*%
X111310000Y-92390000D03*
%TO.N,Net-(J202-Pin_7)*%
X111310000Y-89890000D03*
%TD*%
D21*
%TO.N,unconnected-(TP301-Pad1)*%
%TO.C,TP301*%
X135970000Y-59790000D03*
%TO.N,N/C*%
X138510000Y-59790000D03*
X141050000Y-59790000D03*
X143590000Y-59790000D03*
X135970000Y-62330000D03*
X138510000Y-62330000D03*
X141050000Y-62330000D03*
X143590000Y-62330000D03*
X135970000Y-64870000D03*
X138510000Y-64870000D03*
X141050000Y-64870000D03*
X143590000Y-64870000D03*
X135970000Y-67410000D03*
X138510000Y-67410000D03*
X141050000Y-67410000D03*
X143590000Y-67410000D03*
%TD*%
D22*
%TO.N,GND*%
%TO.C,J205*%
X153810000Y-127890000D03*
D11*
%TO.N,Vbatt*%
X161010000Y-127890000D03*
%TD*%
D23*
%TO.N,Net-(J105-Pin_1)*%
%TO.C,J105*%
X140835000Y-111390000D03*
D15*
%TO.N,Net-(J105-Pin_2)*%
X140835000Y-113890000D03*
%TO.N,Net-(J105-Pin_3)*%
X140835000Y-116390000D03*
%TD*%
D24*
%TO.N,Vbatt*%
%TO.C,SW201*%
X162132000Y-120878000D03*
%TO.N,+VSW*%
X162132000Y-116178000D03*
%TO.N,unconnected-(SW201-Pad3)*%
X162132000Y-111478000D03*
%TD*%
D14*
%TO.N,Net-(J202-Pin_1)*%
%TO.C,J203*%
X139310000Y-104890000D03*
D15*
%TO.N,Net-(J202-Pin_2)*%
X139310000Y-102390000D03*
%TO.N,Net-(J202-Pin_3)*%
X139310000Y-99890000D03*
%TO.N,Net-(J202-Pin_4)*%
X139310000Y-97390000D03*
%TO.N,Net-(J202-Pin_5)*%
X139310000Y-94890000D03*
%TO.N,Net-(J202-Pin_6)*%
X139310000Y-92390000D03*
%TO.N,Net-(J202-Pin_7)*%
X139310000Y-89890000D03*
%TD*%
D10*
%TO.N,GND*%
%TO.C,J201*%
X97810000Y-127890000D03*
D11*
%TO.N,Vbatt*%
X90610000Y-127890000D03*
%TD*%
D23*
%TO.N,GND*%
%TO.C,J106*%
X96810000Y-92128000D03*
D15*
%TO.N,+5V*%
X96810000Y-94628000D03*
%TO.N,/CPU/SCL*%
X96810000Y-97128000D03*
%TO.N,/CPU/SDA*%
X96810000Y-99628000D03*
%TD*%
D25*
%TO.N,+5V*%
%TO.C,BZ101*%
X157036000Y-83360000D03*
D13*
%TO.N,Net-(BZ101--)*%
X157036000Y-76860000D03*
%TD*%
D26*
%TO.N,GND*%
%TO.C,U201*%
X155608000Y-103706000D03*
X154258000Y-103706000D03*
X152908000Y-103706000D03*
X155608000Y-105606000D03*
X154258000Y-105606000D03*
X152908000Y-105606000D03*
%TD*%
D21*
%TO.N,unconnected-(TP302-Pad1)*%
%TO.C,TP302*%
X146130000Y-59790000D03*
%TO.N,N/C*%
X148670000Y-59790000D03*
X151210000Y-59790000D03*
X153750000Y-59790000D03*
X146130000Y-62330000D03*
X148670000Y-62330000D03*
X151210000Y-62330000D03*
X153750000Y-62330000D03*
X146130000Y-64870000D03*
X148670000Y-64870000D03*
X151210000Y-64870000D03*
X153750000Y-64870000D03*
X146130000Y-67410000D03*
X148670000Y-67410000D03*
X151210000Y-67410000D03*
X153750000Y-67410000D03*
%TD*%
D22*
%TO.N,Net-(D206-K)*%
%TO.C,J207*%
X145210000Y-137890000D03*
D11*
%TO.N,Vbatt*%
X152410000Y-137890000D03*
%TD*%
D27*
%TO.N,Net-(J102-Pin_1)*%
%TO.C,J102*%
X123310000Y-80872000D03*
D28*
%TO.N,+3.3V*%
X125810000Y-80872000D03*
%TO.N,Net-(J102-Pin_3)*%
X128310000Y-80872000D03*
%TD*%
D16*
%TO.N,GND*%
%TO.C,SW101*%
X97910000Y-111334000D03*
D17*
%TO.N,DR0*%
X100450000Y-111334000D03*
%TD*%
D29*
%TO.N,GND*%
X111220000Y-124530000D03*
%TO.N,+5V*%
X102310000Y-120470000D03*
%TO.N,GND*%
X159810000Y-93890000D03*
X156810000Y-96390000D03*
X159310000Y-102890000D03*
X152060000Y-104640000D03*
X156560000Y-104640000D03*
X157060000Y-113140000D03*
X158560000Y-108640000D03*
X159310000Y-106640000D03*
X158810000Y-114890000D03*
X163810000Y-124390000D03*
X163810000Y-118640000D03*
X164560000Y-140890000D03*
X149310000Y-134390000D03*
X140060000Y-123140000D03*
X131560000Y-140390000D03*
X121560000Y-140140000D03*
X131310000Y-128390000D03*
X122310000Y-128640000D03*
X86810000Y-120140000D03*
X86810000Y-140640000D03*
%TO.N,LEDS*%
X110310000Y-141390000D03*
D30*
%TO.N,GND*%
X102310000Y-132390000D03*
X102560000Y-128890000D03*
D31*
X149560000Y-126890000D03*
X149560000Y-130640000D03*
D29*
%TO.N,+3.3V*%
X117910000Y-81690000D03*
X99310000Y-106090000D03*
D31*
X161624000Y-97636000D03*
D29*
X90610000Y-109230000D03*
X114790002Y-109230000D03*
%TO.N,GND*%
X147810000Y-119690000D03*
X138285000Y-119115000D03*
D32*
X154010000Y-96890000D03*
D29*
X127588000Y-43788000D03*
X111659999Y-127990630D03*
D32*
X156110000Y-119890000D03*
D31*
X160354000Y-95096000D03*
X163402000Y-97382000D03*
D29*
X118210000Y-80090000D03*
D31*
X92710000Y-63890000D03*
D29*
X140510000Y-131190000D03*
X142210000Y-119890000D03*
D32*
X151510000Y-117490000D03*
X151510000Y-115190000D03*
X161310000Y-88990000D03*
X163310000Y-90190000D03*
D31*
X140542000Y-128878000D03*
X130010000Y-101090000D03*
D32*
X154410000Y-97490000D03*
D31*
X140910000Y-132290000D03*
D29*
X148610000Y-110190000D03*
D31*
X118610000Y-141190000D03*
X124310000Y-131490000D03*
D29*
X93210000Y-96490000D03*
D31*
X115510000Y-141190000D03*
D32*
X151510000Y-119690000D03*
X139010000Y-78490000D03*
D31*
X141010000Y-138290000D03*
D29*
X153510000Y-99090000D03*
X106810000Y-115690000D03*
D31*
X122311041Y-100788959D03*
X111150000Y-130450000D03*
D29*
X155510000Y-112190000D03*
D31*
X113560000Y-139640000D03*
X162893997Y-71220003D03*
D32*
X161310000Y-91890000D03*
D29*
X126318000Y-43026000D03*
X89410000Y-96390000D03*
X148110000Y-115390000D03*
X91520000Y-115416000D03*
D32*
X147610000Y-75790000D03*
D29*
X152480000Y-89000000D03*
D31*
X142320000Y-133704000D03*
X140510000Y-127690000D03*
D29*
X98212322Y-106432223D03*
D31*
X124310000Y-136190000D03*
D29*
X117910000Y-76990000D03*
D31*
X149686000Y-128390000D03*
D29*
X148110000Y-114090000D03*
D31*
X129010000Y-131490000D03*
X140310000Y-130190000D03*
D29*
X104510000Y-113190000D03*
X99610000Y-83790000D03*
D31*
X126710000Y-133790000D03*
D29*
X143110000Y-119990000D03*
X111810000Y-129590000D03*
X93210000Y-118210000D03*
D31*
X129010000Y-136190000D03*
D29*
X111710000Y-125990000D03*
X140110000Y-140590000D03*
D31*
X132871200Y-141171600D03*
X163402000Y-94842000D03*
D29*
X111810000Y-131190000D03*
X150410000Y-112090000D03*
X123524000Y-46328000D03*
D31*
X111210000Y-126950000D03*
X94910000Y-69490000D03*
D29*
X131010000Y-76790000D03*
X155020000Y-89762000D03*
X103110000Y-110190000D03*
D31*
X159846000Y-97382000D03*
X131510000Y-125190000D03*
%TO.N,+5V*%
X106710000Y-85290000D03*
D29*
X102310000Y-117090000D03*
X150910000Y-109190000D03*
X146310000Y-111965000D03*
%TO.N,EN*%
X113410000Y-116090012D03*
D31*
%TO.N,Vbatt*%
X132210000Y-107290000D03*
X122110000Y-107390000D03*
D29*
X131610000Y-106690000D03*
D31*
X123510000Y-105990000D03*
D29*
X122710000Y-106790000D03*
D31*
X130910000Y-105990000D03*
D29*
%TO.N,LEDS*%
X115210000Y-131990000D03*
D31*
%TO.N,Net-(D104-DOUT)*%
X118010000Y-65090000D03*
X128210000Y-65090000D03*
D29*
%TO.N,/CPU/SCL*%
X94810000Y-85890000D03*
X91310010Y-85890000D03*
X123270000Y-61314000D03*
%TO.N,/CPU/SDA*%
X123778000Y-62076000D03*
X94899430Y-82879430D03*
X92110000Y-82890000D03*
%TO.N,Net-(Q202-G)*%
X142439724Y-127960276D03*
X147710000Y-128090000D03*
%TO.N,BUZZER*%
X143010000Y-85790000D03*
X146110000Y-75842800D03*
X140700002Y-108430000D03*
X138910000Y-110290000D03*
%TO.N,/CPU/Vsamp*%
X149310000Y-125290000D03*
X138910000Y-125390000D03*
%TD*%
D33*
%TO.N,Vbatt*%
X94263072Y-122530000D02*
X116810000Y-122530000D01*
X90610000Y-126183072D02*
X94263072Y-122530000D01*
X90610000Y-127890000D02*
X90610000Y-126183072D01*
X161010000Y-127400000D02*
X156140000Y-122530000D01*
D34*
X132210000Y-107290000D02*
X136610000Y-111690000D01*
X127238000Y-102318000D02*
X132210000Y-107290000D01*
X127238000Y-102262000D02*
X127238000Y-102318000D01*
D35*
X127238000Y-97815000D02*
X126763000Y-97340000D01*
D33*
X136610000Y-122530000D02*
X116810000Y-122530000D01*
D34*
X117185000Y-112315000D02*
X117185000Y-122155000D01*
X122110000Y-107390000D02*
X117185000Y-112315000D01*
X127238000Y-100414000D02*
X127238000Y-102262000D01*
X117185000Y-122155000D02*
X116810000Y-122530000D01*
X127238000Y-102262000D02*
X122110000Y-107390000D01*
X136610000Y-111690000D02*
X136610000Y-122530000D01*
D33*
X161010000Y-127890000D02*
X161010000Y-127400000D01*
X156140000Y-122530000D02*
X136610000Y-122530000D01*
D35*
X127238000Y-100414000D02*
X127238000Y-97815000D01*
%TD*%
M02*
