%TF.GenerationSoftware,KiCad,Pcbnew,8.0.3*%
%TF.CreationDate,2024-07-03T22:49:40+02:00*%
%TF.ProjectId,Robuoy-Sub,526f6275-6f79-42d5-9375-622e6b696361,rev?*%
%TF.SameCoordinates,Original*%
%TF.FileFunction,Copper,L1,Top*%
%TF.FilePolarity,Positive*%
%FSLAX46Y46*%
G04 Gerber Fmt 4.6, Leading zero omitted, Abs format (unit mm)*
G04 Created by KiCad (PCBNEW 8.0.3) date 2024-07-03 22:49:40*
%MOMM*%
%LPD*%
G01*
G04 APERTURE LIST*
G04 Aperture macros list*
%AMRoundRect*
0 Rectangle with rounded corners*
0 $1 Rounding radius*
0 $2 $3 $4 $5 $6 $7 $8 $9 X,Y pos of 4 corners*
0 Add a 4 corners polygon primitive as box body*
4,1,4,$2,$3,$4,$5,$6,$7,$8,$9,$2,$3,0*
0 Add four circle primitives for the rounded corners*
1,1,$1+$1,$2,$3*
1,1,$1+$1,$4,$5*
1,1,$1+$1,$6,$7*
1,1,$1+$1,$8,$9*
0 Add four rect primitives between the rounded corners*
20,1,$1+$1,$2,$3,$4,$5,0*
20,1,$1+$1,$4,$5,$6,$7,0*
20,1,$1+$1,$6,$7,$8,$9,0*
20,1,$1+$1,$8,$9,$2,$3,0*%
%AMFreePoly0*
4,1,19,0.550000,-0.750000,0.000000,-0.750000,0.000000,-0.744911,-0.071157,-0.744911,-0.207708,-0.704816,-0.327430,-0.627875,-0.420627,-0.520320,-0.479746,-0.390866,-0.500000,-0.250000,-0.500000,0.250000,-0.479746,0.390866,-0.420627,0.520320,-0.327430,0.627875,-0.207708,0.704816,-0.071157,0.744911,0.000000,0.744911,0.000000,0.750000,0.550000,0.750000,0.550000,-0.750000,0.550000,-0.750000,
$1*%
%AMFreePoly1*
4,1,19,0.000000,0.744911,0.071157,0.744911,0.207708,0.704816,0.327430,0.627875,0.420627,0.520320,0.479746,0.390866,0.500000,0.250000,0.500000,-0.250000,0.479746,-0.390866,0.420627,-0.520320,0.327430,-0.627875,0.207708,-0.704816,0.071157,-0.744911,0.000000,-0.744911,0.000000,-0.750000,-0.550000,-0.750000,-0.550000,0.750000,0.000000,0.750000,0.000000,0.744911,0.000000,0.744911,
$1*%
G04 Aperture macros list end*
%TA.AperFunction,EtchedComponent*%
%ADD10C,0.000000*%
%TD*%
%TA.AperFunction,SMDPad,CuDef*%
%ADD11RoundRect,0.200000X-0.250000X0.200000X-0.250000X-0.200000X0.250000X-0.200000X0.250000X0.200000X0*%
%TD*%
%TA.AperFunction,SMDPad,CuDef*%
%ADD12RoundRect,0.300000X-0.300000X-0.400000X0.300000X-0.400000X0.300000X0.400000X-0.300000X0.400000X0*%
%TD*%
%TA.AperFunction,SMDPad,CuDef*%
%ADD13C,1.000000*%
%TD*%
%TA.AperFunction,ComponentPad*%
%ADD14RoundRect,1.500000X1.500000X1.500000X-1.500000X1.500000X-1.500000X-1.500000X1.500000X-1.500000X0*%
%TD*%
%TA.AperFunction,ComponentPad*%
%ADD15C,6.000000*%
%TD*%
%TA.AperFunction,SMDPad,CuDef*%
%ADD16R,1.500000X0.900000*%
%TD*%
%TA.AperFunction,SMDPad,CuDef*%
%ADD17RoundRect,0.150000X-0.587500X-0.150000X0.587500X-0.150000X0.587500X0.150000X-0.587500X0.150000X0*%
%TD*%
%TA.AperFunction,ComponentPad*%
%ADD18RoundRect,0.250000X0.600000X-0.600000X0.600000X0.600000X-0.600000X0.600000X-0.600000X-0.600000X0*%
%TD*%
%TA.AperFunction,ComponentPad*%
%ADD19C,1.700000*%
%TD*%
%TA.AperFunction,SMDPad,CuDef*%
%ADD20RoundRect,0.200000X0.250000X-0.200000X0.250000X0.200000X-0.250000X0.200000X-0.250000X-0.200000X0*%
%TD*%
%TA.AperFunction,SMDPad,CuDef*%
%ADD21RoundRect,0.375000X0.375000X0.475000X-0.375000X0.475000X-0.375000X-0.475000X0.375000X-0.475000X0*%
%TD*%
%TA.AperFunction,SMDPad,CuDef*%
%ADD22RoundRect,0.200000X-0.200000X-0.250000X0.200000X-0.250000X0.200000X0.250000X-0.200000X0.250000X0*%
%TD*%
%TA.AperFunction,ComponentPad*%
%ADD23RoundRect,0.250000X0.725000X-0.600000X0.725000X0.600000X-0.725000X0.600000X-0.725000X-0.600000X0*%
%TD*%
%TA.AperFunction,ComponentPad*%
%ADD24O,1.950000X1.700000*%
%TD*%
%TA.AperFunction,SMDPad,CuDef*%
%ADD25RoundRect,0.200000X0.200000X0.250000X-0.200000X0.250000X-0.200000X-0.250000X0.200000X-0.250000X0*%
%TD*%
%TA.AperFunction,SMDPad,CuDef*%
%ADD26RoundRect,0.250000X-0.325000X-1.100000X0.325000X-1.100000X0.325000X1.100000X-0.325000X1.100000X0*%
%TD*%
%TA.AperFunction,SMDPad,CuDef*%
%ADD27RoundRect,0.250000X1.100000X-0.325000X1.100000X0.325000X-1.100000X0.325000X-1.100000X-0.325000X0*%
%TD*%
%TA.AperFunction,SMDPad,CuDef*%
%ADD28RoundRect,0.250000X1.000000X0.650000X-1.000000X0.650000X-1.000000X-0.650000X1.000000X-0.650000X0*%
%TD*%
%TA.AperFunction,ComponentPad*%
%ADD29R,1.700000X1.700000*%
%TD*%
%TA.AperFunction,ComponentPad*%
%ADD30O,1.700000X1.700000*%
%TD*%
%TA.AperFunction,SMDPad,CuDef*%
%ADD31RoundRect,0.150000X0.587500X0.150000X-0.587500X0.150000X-0.587500X-0.150000X0.587500X-0.150000X0*%
%TD*%
%TA.AperFunction,ComponentPad*%
%ADD32C,3.000000*%
%TD*%
%TA.AperFunction,ComponentPad*%
%ADD33R,1.300000X1.300000*%
%TD*%
%TA.AperFunction,ComponentPad*%
%ADD34C,1.300000*%
%TD*%
%TA.AperFunction,SMDPad,CuDef*%
%ADD35RoundRect,0.100000X-0.350000X-0.100000X0.350000X-0.100000X0.350000X0.100000X-0.350000X0.100000X0*%
%TD*%
%TA.AperFunction,SMDPad,CuDef*%
%ADD36FreePoly0,90.000000*%
%TD*%
%TA.AperFunction,SMDPad,CuDef*%
%ADD37R,1.500000X1.000000*%
%TD*%
%TA.AperFunction,SMDPad,CuDef*%
%ADD38FreePoly1,90.000000*%
%TD*%
%TA.AperFunction,ComponentPad*%
%ADD39C,1.524000*%
%TD*%
%TA.AperFunction,ComponentPad*%
%ADD40RoundRect,1.500000X-1.500000X-1.500000X1.500000X-1.500000X1.500000X1.500000X-1.500000X1.500000X0*%
%TD*%
%TA.AperFunction,ComponentPad*%
%ADD41RoundRect,0.250000X-0.725000X0.600000X-0.725000X-0.600000X0.725000X-0.600000X0.725000X0.600000X0*%
%TD*%
%TA.AperFunction,SMDPad,CuDef*%
%ADD42RoundRect,0.150000X0.512500X0.150000X-0.512500X0.150000X-0.512500X-0.150000X0.512500X-0.150000X0*%
%TD*%
%TA.AperFunction,SMDPad,CuDef*%
%ADD43RoundRect,0.150000X-0.150000X0.512500X-0.150000X-0.512500X0.150000X-0.512500X0.150000X0.512500X0*%
%TD*%
%TA.AperFunction,SMDPad,CuDef*%
%ADD44R,0.350000X0.375000*%
%TD*%
%TA.AperFunction,SMDPad,CuDef*%
%ADD45R,0.375000X0.350000*%
%TD*%
%TA.AperFunction,SMDPad,CuDef*%
%ADD46RoundRect,0.112500X-0.187500X-0.112500X0.187500X-0.112500X0.187500X0.112500X-0.187500X0.112500X0*%
%TD*%
%TA.AperFunction,SMDPad,CuDef*%
%ADD47RoundRect,0.218750X0.218750X0.256250X-0.218750X0.256250X-0.218750X-0.256250X0.218750X-0.256250X0*%
%TD*%
%TA.AperFunction,SMDPad,CuDef*%
%ADD48RoundRect,0.112500X0.112500X-0.187500X0.112500X0.187500X-0.112500X0.187500X-0.112500X-0.187500X0*%
%TD*%
%TA.AperFunction,ComponentPad*%
%ADD49C,3.500000*%
%TD*%
%TA.AperFunction,SMDPad,CuDef*%
%ADD50RoundRect,0.230769X1.519231X-0.969231X1.519231X0.969231X-1.519231X0.969231X-1.519231X-0.969231X0*%
%TD*%
%TA.AperFunction,SMDPad,CuDef*%
%ADD51RoundRect,0.375000X0.475000X-0.375000X0.475000X0.375000X-0.475000X0.375000X-0.475000X-0.375000X0*%
%TD*%
%TA.AperFunction,SMDPad,CuDef*%
%ADD52RoundRect,0.218750X-0.218750X-0.256250X0.218750X-0.256250X0.218750X0.256250X-0.218750X0.256250X0*%
%TD*%
%TA.AperFunction,SMDPad,CuDef*%
%ADD53R,1.000000X1.700000*%
%TD*%
%TA.AperFunction,SMDPad,CuDef*%
%ADD54RoundRect,0.375000X-0.375000X-0.475000X0.375000X-0.475000X0.375000X0.475000X-0.375000X0.475000X0*%
%TD*%
%TA.AperFunction,SMDPad,CuDef*%
%ADD55RoundRect,0.225000X0.525000X0.225000X-0.525000X0.225000X-0.525000X-0.225000X0.525000X-0.225000X0*%
%TD*%
%TA.AperFunction,SMDPad,CuDef*%
%ADD56RoundRect,0.225000X-0.225000X0.525000X-0.225000X-0.525000X0.225000X-0.525000X0.225000X0.525000X0*%
%TD*%
%TA.AperFunction,SMDPad,CuDef*%
%ADD57RoundRect,0.250000X2.250000X2.250000X-2.250000X2.250000X-2.250000X-2.250000X2.250000X-2.250000X0*%
%TD*%
%TA.AperFunction,ComponentPad*%
%ADD58R,1.650000X1.650000*%
%TD*%
%TA.AperFunction,SMDPad,CuDef*%
%ADD59RoundRect,0.091346X0.958654X-0.383654X0.958654X0.383654X-0.958654X0.383654X-0.958654X-0.383654X0*%
%TD*%
%TA.AperFunction,SMDPad,CuDef*%
%ADD60RoundRect,0.275000X0.275000X0.375000X-0.275000X0.375000X-0.275000X-0.375000X0.275000X-0.375000X0*%
%TD*%
%TA.AperFunction,SMDPad,CuDef*%
%ADD61RoundRect,0.150000X-0.150000X0.650000X-0.150000X-0.650000X0.150000X-0.650000X0.150000X0.650000X0*%
%TD*%
%TA.AperFunction,HeatsinkPad*%
%ADD62C,0.500000*%
%TD*%
%TA.AperFunction,HeatsinkPad*%
%ADD63R,3.200000X2.400000*%
%TD*%
%TA.AperFunction,ComponentPad*%
%ADD64RoundRect,0.250000X-0.600000X-0.725000X0.600000X-0.725000X0.600000X0.725000X-0.600000X0.725000X0*%
%TD*%
%TA.AperFunction,ComponentPad*%
%ADD65O,1.700000X1.950000*%
%TD*%
%TA.AperFunction,SMDPad,CuDef*%
%ADD66RoundRect,0.150000X-0.150000X0.587500X-0.150000X-0.587500X0.150000X-0.587500X0.150000X0.587500X0*%
%TD*%
%TA.AperFunction,SMDPad,CuDef*%
%ADD67RoundRect,0.150000X-0.512500X-0.150000X0.512500X-0.150000X0.512500X0.150000X-0.512500X0.150000X0*%
%TD*%
%TA.AperFunction,SMDPad,CuDef*%
%ADD68RoundRect,0.300000X0.400000X-0.300000X0.400000X0.300000X-0.400000X0.300000X-0.400000X-0.300000X0*%
%TD*%
%TA.AperFunction,ViaPad*%
%ADD69C,0.450000*%
%TD*%
%TA.AperFunction,ViaPad*%
%ADD70C,0.800000*%
%TD*%
%TA.AperFunction,ViaPad*%
%ADD71C,0.900000*%
%TD*%
%TA.AperFunction,ViaPad*%
%ADD72C,0.600000*%
%TD*%
%TA.AperFunction,Conductor*%
%ADD73C,0.200000*%
%TD*%
%TA.AperFunction,Conductor*%
%ADD74C,1.000000*%
%TD*%
%TA.AperFunction,Conductor*%
%ADD75C,0.400000*%
%TD*%
%TA.AperFunction,Conductor*%
%ADD76C,0.600000*%
%TD*%
%TA.AperFunction,Conductor*%
%ADD77C,0.250000*%
%TD*%
%TA.AperFunction,Conductor*%
%ADD78C,0.127000*%
%TD*%
%TA.AperFunction,Conductor*%
%ADD79C,0.800000*%
%TD*%
%TA.AperFunction,Conductor*%
%ADD80C,3.000000*%
%TD*%
G04 APERTURE END LIST*
D10*
%TA.AperFunction,EtchedComponent*%
%TO.C,JP101*%
G36*
X111910000Y-80290000D02*
G01*
X111310000Y-80290000D01*
X111310000Y-79790000D01*
X111910000Y-79790000D01*
X111910000Y-80290000D01*
G37*
%TD.AperFunction*%
%TD*%
D11*
%TO.P,R113,1*%
%TO.N,BUTTON*%
X131906000Y-75296000D03*
%TO.P,R113,2*%
%TO.N,GND*%
X131906000Y-76796000D03*
%TD*%
D12*
%TO.P,D206,1,K*%
%TO.N,Net-(D206-K)*%
X143810000Y-124890000D03*
%TO.P,D206,2,A*%
%TO.N,Net-(D206-A)*%
X145810000Y-124890000D03*
%TD*%
D13*
%TO.P,TP202,1,1*%
%TO.N,Net-(U201-Vsens)*%
X158068000Y-101446000D03*
%TD*%
D14*
%TO.P,J206,1,Pin_1*%
%TO.N,Net-(D205-K)*%
X106410000Y-137890000D03*
D15*
%TO.P,J206,2,Pin_2*%
%TO.N,Vbatt*%
X99210000Y-137890000D03*
%TD*%
D16*
%TO.P,D103,1,VDD*%
%TO.N,+3.3V*%
X88360000Y-116240000D03*
%TO.P,D103,2,DOUT*%
%TO.N,Net-(D103-DOUT)*%
X88360000Y-119540000D03*
%TO.P,D103,3,VSS*%
%TO.N,GND*%
X93260000Y-119540000D03*
%TO.P,D103,4,DIN*%
%TO.N,LEDS*%
X93260000Y-116240000D03*
%TD*%
D17*
%TO.P,Q203,1,G*%
%TO.N,Net-(Q201-G)*%
X103935000Y-130440000D03*
%TO.P,Q203,2,S*%
%TO.N,GND*%
X103935000Y-132340000D03*
%TO.P,Q203,3,D*%
%TO.N,Net-(D205-K)*%
X105810000Y-131390000D03*
%TD*%
D18*
%TO.P,J101,1,Pin_1*%
%TO.N,EN*%
X120730000Y-116142500D03*
D19*
%TO.P,J101,2,Pin_2*%
%TO.N,+3.3V*%
X120730000Y-113602500D03*
%TO.P,J101,3,Pin_3*%
%TO.N,TX*%
X123270000Y-116142500D03*
%TO.P,J101,4,Pin_4*%
%TO.N,GND*%
X123270000Y-113602500D03*
%TO.P,J101,5,Pin_5*%
%TO.N,RX*%
X125810000Y-116142500D03*
%TO.P,J101,6,Pin_6*%
%TO.N,DR0*%
X125810000Y-113602500D03*
%TO.P,J101,7,Pin_7*%
%TO.N,MTMS*%
X128350000Y-116142500D03*
%TO.P,J101,8,Pin_8*%
%TO.N,MTCK*%
X128350000Y-113602500D03*
%TO.P,J101,9,Pin_9*%
%TO.N,MTDO*%
X130890000Y-116142500D03*
%TO.P,J101,10,Pin_10*%
%TO.N,MTDI*%
X130890000Y-113602500D03*
%TD*%
D20*
%TO.P,C101,1*%
%TO.N,EN*%
X97810000Y-108740000D03*
%TO.P,C101,2*%
%TO.N,GND*%
X97810000Y-107240000D03*
%TD*%
D21*
%TO.P,C204,1*%
%TO.N,+VSW*%
X153672000Y-119734000D03*
%TO.P,C204,2*%
%TO.N,GND*%
X150272000Y-119734000D03*
%TD*%
D22*
%TO.P,C119,1*%
%TO.N,+3.3V*%
X90008000Y-113638000D03*
%TO.P,C119,2*%
%TO.N,GND*%
X91508000Y-113638000D03*
%TD*%
D23*
%TO.P,J104,1,Pin_1*%
%TO.N,Net-(J104-Pin_1)*%
X111210000Y-116590000D03*
D24*
%TO.P,J104,2,Pin_2*%
%TO.N,Net-(J104-Pin_2)*%
X111210000Y-114090000D03*
%TO.P,J104,3,Pin_3*%
%TO.N,Net-(J104-Pin_3)*%
X111210000Y-111590000D03*
%TD*%
D25*
%TO.P,R206,1*%
%TO.N,+5V*%
X144324000Y-80364000D03*
%TO.P,R206,2*%
%TO.N,Net-(D203-A)*%
X142824000Y-80364000D03*
%TD*%
D11*
%TO.P,R208,1*%
%TO.N,+5V*%
X112040000Y-133690000D03*
%TO.P,R208,2*%
%TO.N,Net-(D205-A)*%
X112040000Y-135190000D03*
%TD*%
D13*
%TO.P,TP103,1,1*%
%TO.N,Net-(J103-Pin_2)*%
X104710000Y-77090000D03*
%TD*%
D25*
%TO.P,R205,1*%
%TO.N,Net-(U201-Vsens)*%
X154160000Y-99922000D03*
%TO.P,R205,2*%
%TO.N,GND*%
X152660000Y-99922000D03*
%TD*%
D13*
%TO.P,TP105,1,1*%
%TO.N,/CPU/SDA*%
X92110000Y-92521000D03*
%TD*%
D26*
%TO.P,C113,1*%
%TO.N,Net-(U103-CS_MAG)*%
X117985000Y-56488000D03*
%TO.P,C113,2*%
%TO.N,GND*%
X120935000Y-56488000D03*
%TD*%
D20*
%TO.P,R213,1*%
%TO.N,Net-(U204-FB)*%
X152480000Y-91395500D03*
%TO.P,R213,2*%
%TO.N,GND*%
X152480000Y-89895500D03*
%TD*%
D27*
%TO.P,C212,1*%
%TO.N,+3.3V*%
X159846000Y-99224000D03*
%TO.P,C212,2*%
%TO.N,GND*%
X159846000Y-96274000D03*
%TD*%
D22*
%TO.P,R105,1*%
%TO.N,+3.3V*%
X90560000Y-98769000D03*
%TO.P,R105,2*%
%TO.N,/CPU/SCL*%
X92060000Y-98769000D03*
%TD*%
D11*
%TO.P,C106,1*%
%TO.N,+3.3V*%
X123524000Y-43800000D03*
%TO.P,C106,2*%
%TO.N,GND*%
X123524000Y-45300000D03*
%TD*%
D17*
%TO.P,Q204,1,G*%
%TO.N,Net-(Q202-G)*%
X141872500Y-126940000D03*
%TO.P,Q204,2,S*%
%TO.N,GND*%
X141872500Y-128840000D03*
%TO.P,Q204,3,D*%
%TO.N,Net-(D206-K)*%
X143747500Y-127890000D03*
%TD*%
D22*
%TO.P,R201,1*%
%TO.N,/CPU/Vsamp*%
X155360000Y-122490000D03*
%TO.P,R201,2*%
%TO.N,GND*%
X156860000Y-122490000D03*
%TD*%
D28*
%TO.P,D202,1,K*%
%TO.N,Net-(D202-K)*%
X156766000Y-110336000D03*
%TO.P,D202,2,A*%
%TO.N,GND*%
X152766000Y-110336000D03*
%TD*%
D21*
%TO.P,C201,1*%
%TO.N,+VSW*%
X153672000Y-122020000D03*
%TO.P,C201,2*%
%TO.N,GND*%
X150272000Y-122020000D03*
%TD*%
D29*
%TO.P,SW102,1,1*%
%TO.N,GND*%
X97910000Y-115162000D03*
D30*
%TO.P,SW102,2,2*%
%TO.N,EN*%
X100450000Y-115162000D03*
%TD*%
D20*
%TO.P,C116,1*%
%TO.N,Net-(U103-C1)*%
X128604000Y-45300000D03*
%TO.P,C116,2*%
%TO.N,GND*%
X128604000Y-43800000D03*
%TD*%
D31*
%TO.P,Q206,1,G*%
%TO.N,Net-(Q202-G)*%
X147747500Y-128840000D03*
%TO.P,Q206,2,S*%
%TO.N,GND*%
X147747500Y-126940000D03*
%TO.P,Q206,3,D*%
%TO.N,Net-(D206-K)*%
X145872500Y-127890000D03*
%TD*%
D32*
%TO.P,TP206,1,1*%
%TO.N,GND*%
X125810000Y-67890000D03*
%TD*%
D22*
%TO.P,C110,1*%
%TO.N,+5V*%
X145560000Y-113890000D03*
%TO.P,C110,2*%
%TO.N,GND*%
X147060000Y-113890000D03*
%TD*%
D16*
%TO.P,D107,1,VDD*%
%TO.N,+3.3V*%
X158360000Y-66240000D03*
%TO.P,D107,2,DOUT*%
%TO.N,unconnected-(D107-DOUT-Pad2)*%
X158360000Y-69540000D03*
%TO.P,D107,3,VSS*%
%TO.N,GND*%
X163260000Y-69540000D03*
%TO.P,D107,4,DIN*%
%TO.N,Net-(D104-DOUT)*%
X163260000Y-66240000D03*
%TD*%
D11*
%TO.P,R107,1*%
%TO.N,Net-(Q101-D)*%
X123270000Y-75296000D03*
%TO.P,R107,2*%
%TO.N,Net-(J102-Pin_1)*%
X123270000Y-76796000D03*
%TD*%
D13*
%TO.P,TP108,1,1*%
%TO.N,ESC_SB*%
X149110000Y-111390000D03*
%TD*%
D33*
%TO.P,J204,1,Pin_1*%
%TO.N,GND*%
X124382000Y-100414000D03*
D34*
%TO.P,J204,2,Pin_2*%
%TO.N,Vbatt*%
X127238000Y-100414000D03*
%TO.P,J204,3,Pin_3*%
%TO.N,Net-(J202-Pin_7)*%
X128482000Y-99017000D03*
%TO.P,J204,4,Pin_4*%
%TO.N,Net-(J202-Pin_6)*%
X128614000Y-97152000D03*
%TO.P,J204,5,Pin_5*%
%TO.N,Net-(J202-Pin_5)*%
X127580000Y-95593000D03*
%TO.P,J204,6,Pin_6*%
%TO.N,Net-(J202-Pin_4)*%
X125810000Y-94990000D03*
%TO.P,J204,7,Pin_7*%
%TO.N,Net-(J202-Pin_3)*%
X124040000Y-95593000D03*
%TO.P,J204,8,Pin_8*%
%TO.N,Net-(J202-Pin_2)*%
X123006000Y-97152000D03*
%TO.P,J204,9,Pin_9*%
%TO.N,Net-(J202-Pin_1)*%
X123138000Y-99017000D03*
%TO.P,J204,10,Pin_10*%
%TO.N,+VSW*%
X125810000Y-98990000D03*
%TO.P,J204,11,Pin_11*%
%TO.N,Vbatt*%
X126763000Y-97340000D03*
%TO.P,J204,12,Pin_12*%
%TO.N,GND*%
X124857000Y-97340000D03*
%TD*%
D27*
%TO.P,C211,1*%
%TO.N,+3.3V*%
X163402000Y-99273000D03*
%TO.P,C211,2*%
%TO.N,GND*%
X163402000Y-96323000D03*
%TD*%
D29*
%TO.P,J103,1,Pin_1*%
%TO.N,Net-(J103-Pin_1)*%
X107335000Y-74490000D03*
D30*
%TO.P,J103,2,Pin_2*%
%TO.N,Net-(J103-Pin_2)*%
X107335000Y-77030000D03*
%TO.P,J103,3,Pin_3*%
%TO.N,/CPU/Vext*%
X107335000Y-79570000D03*
%TO.P,J103,4,Pin_4*%
%TO.N,GND*%
X107335000Y-82110000D03*
%TD*%
D21*
%TO.P,C203,1*%
%TO.N,+VSW*%
X153672000Y-117448000D03*
%TO.P,C203,2*%
%TO.N,GND*%
X150272000Y-117448000D03*
%TD*%
D22*
%TO.P,R207,1*%
%TO.N,Net-(D204-A)*%
X142824000Y-77062000D03*
%TO.P,R207,2*%
%TO.N,+3.3V*%
X144324000Y-77062000D03*
%TD*%
D35*
%TO.P,U104,1,VCC*%
%TO.N,+3.3V*%
X90210000Y-95833000D03*
%TO.P,U104,2,GND*%
%TO.N,GND*%
X90210000Y-96483000D03*
%TO.P,U104,3,EN*%
%TO.N,+3.3V*%
X90210000Y-97133000D03*
%TO.P,U104,4,BUS2*%
%TO.N,/CPU/SCL*%
X92410000Y-97133000D03*
%TO.P,U104,5,GND*%
%TO.N,GND*%
X92410000Y-96483000D03*
%TO.P,U104,6,BUS1*%
%TO.N,/CPU/SDA*%
X92410000Y-95833000D03*
%TD*%
D23*
%TO.P,J202,1,Pin_1*%
%TO.N,Net-(J202-Pin_1)*%
X111310000Y-104890000D03*
D24*
%TO.P,J202,2,Pin_2*%
%TO.N,Net-(J202-Pin_2)*%
X111310000Y-102390000D03*
%TO.P,J202,3,Pin_3*%
%TO.N,Net-(J202-Pin_3)*%
X111310000Y-99890000D03*
%TO.P,J202,4,Pin_4*%
%TO.N,Net-(J202-Pin_4)*%
X111310000Y-97390000D03*
%TO.P,J202,5,Pin_5*%
%TO.N,Net-(J202-Pin_5)*%
X111310000Y-94890000D03*
%TO.P,J202,6,Pin_6*%
%TO.N,Net-(J202-Pin_6)*%
X111310000Y-92390000D03*
%TO.P,J202,7,Pin_7*%
%TO.N,Net-(J202-Pin_7)*%
X111310000Y-89890000D03*
%TD*%
D36*
%TO.P,JP101,1,A*%
%TO.N,+5V*%
X111610000Y-80690000D03*
D37*
%TO.P,JP101,2,C*%
%TO.N,/CPU/Vext*%
X111610000Y-79390000D03*
D38*
%TO.P,JP101,3,B*%
%TO.N,+3.3V*%
X111610000Y-78090000D03*
%TD*%
D13*
%TO.P,TP203,1,1*%
%TO.N,/CPU/PWR_ESC_SB*%
X107010000Y-120990000D03*
%TD*%
D22*
%TO.P,C114,1*%
%TO.N,Net-(U103-CS_MAG)*%
X125060000Y-42176000D03*
%TO.P,C114,2*%
%TO.N,GND*%
X126560000Y-42176000D03*
%TD*%
D39*
%TO.P,TP301,1,1*%
%TO.N,unconnected-(TP301-Pad1)*%
X135970000Y-59790000D03*
%TO.P,TP301,2*%
%TO.N,N/C*%
X138510000Y-59790000D03*
%TO.P,TP301,3*%
X141050000Y-59790000D03*
%TO.P,TP301,4*%
X143590000Y-59790000D03*
%TO.P,TP301,5*%
X135970000Y-62330000D03*
%TO.P,TP301,6*%
X138510000Y-62330000D03*
%TO.P,TP301,7*%
X141050000Y-62330000D03*
%TO.P,TP301,8*%
X143590000Y-62330000D03*
%TO.P,TP301,9*%
X135970000Y-64870000D03*
%TO.P,TP301,10*%
X138510000Y-64870000D03*
%TO.P,TP301,11*%
X141050000Y-64870000D03*
%TO.P,TP301,12*%
X143590000Y-64870000D03*
%TO.P,TP301,13*%
X135970000Y-67410000D03*
%TO.P,TP301,14*%
X138510000Y-67410000D03*
%TO.P,TP301,15*%
X141050000Y-67410000D03*
%TO.P,TP301,16*%
X143590000Y-67410000D03*
%TD*%
D40*
%TO.P,J205,1,Pin_1*%
%TO.N,GND*%
X153810000Y-127890000D03*
D15*
%TO.P,J205,2,Pin_2*%
%TO.N,Vbatt*%
X161010000Y-127890000D03*
%TD*%
D41*
%TO.P,J105,1,Pin_1*%
%TO.N,Net-(J105-Pin_1)*%
X140835000Y-111390000D03*
D24*
%TO.P,J105,2,Pin_2*%
%TO.N,Net-(J105-Pin_2)*%
X140835000Y-113890000D03*
%TO.P,J105,3,Pin_3*%
%TO.N,Net-(J105-Pin_3)*%
X140835000Y-116390000D03*
%TD*%
D22*
%TO.P,C117,1*%
%TO.N,+3.3V*%
X90008000Y-63854000D03*
%TO.P,C117,2*%
%TO.N,GND*%
X91508000Y-63854000D03*
%TD*%
D12*
%TO.P,D203,1,K*%
%TO.N,GND*%
X139018000Y-80364000D03*
%TO.P,D203,2,A*%
%TO.N,Net-(D203-A)*%
X141018000Y-80364000D03*
%TD*%
D42*
%TO.P,U102,1,I/O1*%
%TO.N,Net-(J103-Pin_2)*%
X98247500Y-84740000D03*
%TO.P,U102,2,GND*%
%TO.N,GND*%
X98247500Y-83790000D03*
%TO.P,U102,3,I/O2*%
%TO.N,Net-(J103-Pin_1)*%
X98247500Y-82840000D03*
%TO.P,U102,4,I/O3*%
%TO.N,/CPU/SDA*%
X95972500Y-82840000D03*
%TO.P,U102,5,VBUS*%
%TO.N,+3.3V*%
X95972500Y-83790000D03*
%TO.P,U102,6,I/O4*%
%TO.N,/CPU/SCL*%
X95972500Y-84740000D03*
%TD*%
D12*
%TO.P,D204,1,K*%
%TO.N,GND*%
X139018000Y-77062000D03*
%TO.P,D204,2,A*%
%TO.N,Net-(D204-A)*%
X141018000Y-77062000D03*
%TD*%
D25*
%TO.P,R108,1*%
%TO.N,Net-(Q102-G)*%
X149560000Y-72090000D03*
%TO.P,R108,2*%
%TO.N,BUZZER*%
X148060000Y-72090000D03*
%TD*%
D22*
%TO.P,R109,1*%
%TO.N,Net-(D105-A)*%
X106160000Y-111090000D03*
%TO.P,R109,2*%
%TO.N,Net-(J104-Pin_2)*%
X107660000Y-111090000D03*
%TD*%
%TO.P,C205,1*%
%TO.N,+VSW*%
X153762000Y-113130000D03*
%TO.P,C205,2*%
%TO.N,GND*%
X155262000Y-113130000D03*
%TD*%
D13*
%TO.P,TP209,1,1*%
%TO.N,Net-(U204-FB)*%
X154004000Y-88238000D03*
%TD*%
D22*
%TO.P,C118,1*%
%TO.N,+3.3V*%
X159858000Y-71728000D03*
%TO.P,C118,2*%
%TO.N,GND*%
X161358000Y-71728000D03*
%TD*%
D20*
%TO.P,C108,1*%
%TO.N,+3.3V*%
X119410000Y-81640000D03*
%TO.P,C108,2*%
%TO.N,GND*%
X119410000Y-80140000D03*
%TD*%
D43*
%TO.P,U202,1,NC*%
%TO.N,unconnected-(U202-NC-Pad1)*%
X107960000Y-122770000D03*
%TO.P,U202,2,A*%
%TO.N,/CPU/PWR_ESC_SB*%
X107010000Y-122770000D03*
%TO.P,U202,3,GND*%
%TO.N,GND*%
X106060000Y-122770000D03*
%TO.P,U202,4,Y*%
%TO.N,Net-(U202-Y)*%
X106060000Y-125045000D03*
%TO.P,U202,5,VCC*%
%TO.N,+5V*%
X107960000Y-125045000D03*
%TD*%
D44*
%TO.P,U103,1,SCL/SPC*%
%TO.N,/CPU/SCL*%
X125060000Y-45312500D03*
%TO.P,U103,2,CS_XL*%
%TO.N,Net-(U103-CS_MAG)*%
X125560000Y-45312500D03*
%TO.P,U103,3,CS_MAG*%
X126060000Y-45312500D03*
%TO.P,U103,4,SDA/SDI/SDO*%
%TO.N,/CPU/SDA*%
X126560000Y-45312500D03*
D45*
%TO.P,U103,5,C1*%
%TO.N,Net-(U103-C1)*%
X126572500Y-44800000D03*
%TO.P,U103,6,GND*%
%TO.N,GND*%
X126572500Y-44300000D03*
D44*
%TO.P,U103,7,INT_MAG*%
%TO.N,unconnected-(U103-INT_MAG-Pad7)*%
X126560000Y-43787500D03*
%TO.P,U103,8,GND*%
%TO.N,GND*%
X126060000Y-43787500D03*
%TO.P,U103,9,VDD*%
%TO.N,Net-(U103-CS_MAG)*%
X125560000Y-43787500D03*
%TO.P,U103,10,VDDIO*%
%TO.N,+3.3V*%
X125060000Y-43787500D03*
D45*
%TO.P,U103,11,DRDY_MAG*%
%TO.N,unconnected-(U103-DRDY_MAG-Pad11)*%
X125047500Y-44300000D03*
%TO.P,U103,12,INT_XL*%
%TO.N,unconnected-(U103-INT_XL-Pad12)*%
X125047500Y-44800000D03*
%TD*%
D46*
%TO.P,D201,1,K*%
%TO.N,+3.3V*%
X137260000Y-130656000D03*
%TO.P,D201,2,A*%
%TO.N,/CPU/Vsamp*%
X139360000Y-130656000D03*
%TD*%
D31*
%TO.P,Q205,1,G*%
%TO.N,Net-(Q201-G)*%
X109810000Y-128840000D03*
%TO.P,Q205,2,S*%
%TO.N,GND*%
X109810000Y-126940000D03*
%TO.P,Q205,3,D*%
%TO.N,Net-(D205-K)*%
X107935000Y-127890000D03*
%TD*%
D47*
%TO.P,D106,1,K*%
%TO.N,GND*%
X147097500Y-115390000D03*
%TO.P,D106,2,A*%
%TO.N,Net-(D106-A)*%
X145522500Y-115390000D03*
%TD*%
D25*
%TO.P,C111,1*%
%TO.N,+5V*%
X106960000Y-113190000D03*
%TO.P,C111,2*%
%TO.N,GND*%
X105460000Y-113190000D03*
%TD*%
D43*
%TO.P,U203,1,NC*%
%TO.N,unconnected-(U203-NC-Pad1)*%
X145760000Y-120252500D03*
%TO.P,U203,2,A*%
%TO.N,/CPU/PWR_ESC_BB*%
X144810000Y-120252500D03*
%TO.P,U203,3,GND*%
%TO.N,GND*%
X143860000Y-120252500D03*
%TO.P,U203,4,Y*%
%TO.N,Net-(U203-Y)*%
X143860000Y-122527500D03*
%TO.P,U203,5,VCC*%
%TO.N,+5V*%
X145760000Y-122527500D03*
%TD*%
D16*
%TO.P,D104,1,VDD*%
%TO.N,+3.3V*%
X88360000Y-66240000D03*
%TO.P,D104,2,DOUT*%
%TO.N,Net-(D104-DOUT)*%
X88360000Y-69540000D03*
%TO.P,D104,3,VSS*%
%TO.N,GND*%
X93260000Y-69540000D03*
%TO.P,D104,4,DIN*%
%TO.N,Net-(D103-DOUT)*%
X93260000Y-66240000D03*
%TD*%
D26*
%TO.P,C103,1*%
%TO.N,+3.3V*%
X136735000Y-138290000D03*
%TO.P,C103,2*%
%TO.N,GND*%
X139685000Y-138290000D03*
%TD*%
D13*
%TO.P,TP204,1,1*%
%TO.N,/CPU/PWR_ESC_BB*%
X144810000Y-118390000D03*
%TD*%
D11*
%TO.P,R102,1*%
%TO.N,+3.3V*%
X99334000Y-107240000D03*
%TO.P,R102,2*%
%TO.N,EN*%
X99334000Y-108740000D03*
%TD*%
D48*
%TO.P,D101,1,K*%
%TO.N,+3.3V*%
X125810000Y-77096000D03*
%TO.P,D101,2,A*%
%TO.N,BUTTON*%
X125810000Y-74996000D03*
%TD*%
D49*
%TO.P,SW201,1*%
%TO.N,Vbatt*%
X162132000Y-120878000D03*
%TO.P,SW201,2*%
%TO.N,+VSW*%
X162132000Y-116178000D03*
%TO.P,SW201,3*%
%TO.N,unconnected-(SW201-Pad3)*%
X162132000Y-111478000D03*
%TD*%
D23*
%TO.P,J203,1,Pin_1*%
%TO.N,Net-(J202-Pin_1)*%
X139310000Y-104890000D03*
D24*
%TO.P,J203,2,Pin_2*%
%TO.N,Net-(J202-Pin_2)*%
X139310000Y-102390000D03*
%TO.P,J203,3,Pin_3*%
%TO.N,Net-(J202-Pin_3)*%
X139310000Y-99890000D03*
%TO.P,J203,4,Pin_4*%
%TO.N,Net-(J202-Pin_4)*%
X139310000Y-97390000D03*
%TO.P,J203,5,Pin_5*%
%TO.N,Net-(J202-Pin_5)*%
X139310000Y-94890000D03*
%TO.P,J203,6,Pin_6*%
%TO.N,Net-(J202-Pin_6)*%
X139310000Y-92390000D03*
%TO.P,J203,7,Pin_7*%
%TO.N,Net-(J202-Pin_7)*%
X139310000Y-89890000D03*
%TD*%
D20*
%TO.P,C115,1*%
%TO.N,+3.3V*%
X88770000Y-97233000D03*
%TO.P,C115,2*%
%TO.N,GND*%
X88770000Y-95733000D03*
%TD*%
%TO.P,R211,1*%
%TO.N,Net-(Q202-G)*%
X141810000Y-125140000D03*
%TO.P,R211,2*%
%TO.N,Net-(U203-Y)*%
X141810000Y-123640000D03*
%TD*%
D13*
%TO.P,TP208,1,1*%
%TO.N,Net-(Q202-G)*%
X140310000Y-125090000D03*
%TD*%
D42*
%TO.P,U106,1,NC*%
%TO.N,unconnected-(U106-NC-Pad1)*%
X147447500Y-112340000D03*
%TO.P,U106,2,A*%
%TO.N,ESC_SB*%
X147447500Y-111390000D03*
%TO.P,U106,3,GND*%
%TO.N,GND*%
X147447500Y-110440000D03*
%TO.P,U106,4,Y*%
%TO.N,Net-(J105-Pin_1)*%
X145172500Y-110440000D03*
%TO.P,U106,5,VCC*%
%TO.N,+5V*%
X145172500Y-112340000D03*
%TD*%
D17*
%TO.P,Q202,1,G*%
%TO.N,Net-(Q202-G)*%
X141872500Y-130440000D03*
%TO.P,Q202,2,S*%
%TO.N,GND*%
X141872500Y-132340000D03*
%TO.P,Q202,3,D*%
%TO.N,Net-(D206-K)*%
X143747500Y-131390000D03*
%TD*%
D13*
%TO.P,TP210,1,1*%
%TO.N,+5V*%
X155528000Y-95858000D03*
%TD*%
D20*
%TO.P,C217,1*%
%TO.N,Net-(D206-K)*%
X141812000Y-122008000D03*
%TO.P,C217,2*%
%TO.N,GND*%
X141812000Y-120508000D03*
%TD*%
D50*
%TO.P,L201,1*%
%TO.N,Net-(D202-K)*%
X162135643Y-107538081D03*
%TO.P,L201,2*%
%TO.N,+3.3V*%
X162135643Y-101538081D03*
%TD*%
D51*
%TO.P,C214,1*%
%TO.N,+3.3V*%
X161304000Y-93748000D03*
%TO.P,C214,2*%
%TO.N,GND*%
X161304000Y-90348000D03*
%TD*%
D20*
%TO.P,C210,1*%
%TO.N,+5V*%
X109710000Y-124657500D03*
%TO.P,C210,2*%
%TO.N,GND*%
X109710000Y-123157500D03*
%TD*%
D31*
%TO.P,Q201,1,G*%
%TO.N,Net-(Q201-G)*%
X109747500Y-132340000D03*
%TO.P,Q201,2,S*%
%TO.N,GND*%
X109747500Y-130440000D03*
%TO.P,Q201,3,D*%
%TO.N,Net-(D205-K)*%
X107872500Y-131390000D03*
%TD*%
D13*
%TO.P,TP104,1,1*%
%TO.N,/CPU/SCL*%
X92010000Y-100421000D03*
%TD*%
D52*
%TO.P,D105,1,K*%
%TO.N,GND*%
X103122500Y-111090000D03*
%TO.P,D105,2,A*%
%TO.N,Net-(D105-A)*%
X104697500Y-111090000D03*
%TD*%
D53*
%TO.P,SW103,1,1*%
%TO.N,BUTTON*%
X88858000Y-79450000D03*
X88858000Y-73150000D03*
%TO.P,SW103,2,2*%
%TO.N,+3.3V*%
X92658000Y-79450000D03*
X92658000Y-73150000D03*
%TD*%
D54*
%TO.P,C218,1*%
%TO.N,+5V*%
X152558000Y-97890000D03*
%TO.P,C218,2*%
%TO.N,GND*%
X155958000Y-97890000D03*
%TD*%
D14*
%TO.P,J201,1,Pin_1*%
%TO.N,GND*%
X97810000Y-127890000D03*
D15*
%TO.P,J201,2,Pin_2*%
%TO.N,Vbatt*%
X90610000Y-127890000D03*
%TD*%
D22*
%TO.P,C207,1*%
%TO.N,/CPU/Vsamp*%
X137460000Y-128370000D03*
%TO.P,C207,2*%
%TO.N,GND*%
X138960000Y-128370000D03*
%TD*%
D25*
%TO.P,R204,1*%
%TO.N,+3.3V*%
X157294000Y-99922000D03*
%TO.P,R204,2*%
%TO.N,Net-(U201-Vsens)*%
X155794000Y-99922000D03*
%TD*%
D55*
%TO.P,U101,1,GND*%
%TO.N,GND*%
X134560000Y-141147000D03*
%TO.P,U101,2,VDD*%
%TO.N,+3.3V*%
X134560000Y-139877000D03*
%TO.P,U101,3,CHIP_PU/EN*%
%TO.N,EN*%
X134560000Y-138607000D03*
%TO.P,U101,4,GPIO36*%
%TO.N,unconnected-(U101-GPIO36-Pad4)*%
X134560000Y-137337000D03*
%TO.P,U101,5,GPIO39*%
%TO.N,unconnected-(U101-GPIO39-Pad5)*%
X134560000Y-136067000D03*
%TO.P,U101,6,GPIO34*%
%TO.N,unconnected-(U101-GPIO34-Pad6)*%
X134560000Y-134797000D03*
%TO.P,U101,7,GPIO35*%
%TO.N,/CPU/Vsamp*%
X134560000Y-133527000D03*
%TO.P,U101,8,GPIO32*%
%TO.N,/CPU/PWR_ESC_BB*%
X134560000Y-132257000D03*
%TO.P,U101,9,GPIO33*%
%TO.N,unconnected-(U101-GPIO33-Pad9)*%
X134560000Y-130987000D03*
%TO.P,U101,10,GPIO25*%
%TO.N,unconnected-(U101-GPIO25-Pad10)*%
X134560000Y-129717000D03*
%TO.P,U101,11,GPIO26*%
%TO.N,ESC_SB*%
X134560000Y-128447000D03*
%TO.P,U101,12,GPIO27*%
%TO.N,BUZZER*%
X134560000Y-127177000D03*
%TO.P,U101,13,MTMS/SCK/CLK/GPIO14*%
%TO.N,MTMS*%
X134560000Y-125907000D03*
%TO.P,U101,14,MTDI/MISO/D2/GPIO12*%
%TO.N,MTDI*%
X134560000Y-124637000D03*
D56*
%TO.P,U101,15,GND*%
%TO.N,GND*%
X131525000Y-123387000D03*
%TO.P,U101,16,MTCK/MOSI/D3/GPIO13*%
%TO.N,MTCK*%
X130255000Y-123387000D03*
%TO.P,U101,17,NC*%
%TO.N,unconnected-(U101-NC-Pad17)*%
X128985000Y-123387000D03*
%TO.P,U101,18,NC*%
%TO.N,unconnected-(U101-NC-Pad18)*%
X127715000Y-123387000D03*
%TO.P,U101,19,NC*%
%TO.N,unconnected-(U101-NC-Pad19)*%
X126445000Y-123387000D03*
%TO.P,U101,20,NC*%
%TO.N,unconnected-(U101-NC-Pad20)*%
X125175000Y-123387000D03*
%TO.P,U101,21,NC*%
%TO.N,unconnected-(U101-NC-Pad21)*%
X123905000Y-123387000D03*
%TO.P,U101,22,NC*%
%TO.N,unconnected-(U101-NC-Pad22)*%
X122635000Y-123387000D03*
%TO.P,U101,23,MTDO/CS/CMD/GPIO15*%
%TO.N,MTDO*%
X121365000Y-123387000D03*
%TO.P,U101,24,D0/GPIO2*%
%TO.N,unconnected-(U101-D0{slash}GPIO2-Pad24)*%
X120095000Y-123387000D03*
D55*
%TO.P,U101,25,BOOT/GPIO0*%
%TO.N,DR0*%
X117060000Y-124637000D03*
%TO.P,U101,26,D1/GPIO4*%
%TO.N,ESC_BB*%
X117060000Y-125907000D03*
%TO.P,U101,27,RXD/GPIO16*%
%TO.N,Net-(J103-Pin_2)*%
X117060000Y-127177000D03*
%TO.P,U101,28,TXD/GPIO17*%
%TO.N,Net-(J103-Pin_1)*%
X117060000Y-128447000D03*
%TO.P,U101,29,CS/GPIO5*%
%TO.N,BUTTON_LIGHT*%
X117060000Y-129717000D03*
%TO.P,U101,30,SCK/GPIO18*%
%TO.N,LEDS*%
X117060000Y-130987000D03*
%TO.P,U101,31,MISO/GPIO19*%
%TO.N,BUTTON*%
X117060000Y-132257000D03*
%TO.P,U101,32,NC*%
%TO.N,unconnected-(U101-NC-Pad32)*%
X117060000Y-133527000D03*
%TO.P,U101,33,SDA/GPIO21*%
%TO.N,/CPU/SDA*%
X117060000Y-134797000D03*
%TO.P,U101,34,RXD/GPIO3*%
%TO.N,RX*%
X117060000Y-136067000D03*
%TO.P,U101,35,TXD/GPIO1*%
%TO.N,TX*%
X117060000Y-137337000D03*
%TO.P,U101,36,SCL/GPIO22*%
%TO.N,/CPU/SCL*%
X117060000Y-138607000D03*
%TO.P,U101,37,MOSI/GPIO23*%
%TO.N,/CPU/PWR_ESC_SB*%
X117060000Y-139877000D03*
%TO.P,U101,38,GND*%
%TO.N,GND*%
X117060000Y-141147000D03*
D57*
%TO.P,U101,39,GND*%
X126670000Y-133802000D03*
%TD*%
D22*
%TO.P,R203,1*%
%TO.N,/CPU/Vsamp*%
X155360000Y-120990000D03*
%TO.P,R203,2*%
%TO.N,GND*%
X156860000Y-120990000D03*
%TD*%
%TO.P,C215,1*%
%TO.N,+3.3V*%
X157760000Y-94588000D03*
%TO.P,C215,2*%
%TO.N,GND*%
X159260000Y-94588000D03*
%TD*%
D41*
%TO.P,J106,1,Pin_1*%
%TO.N,GND*%
X96810000Y-92128000D03*
D24*
%TO.P,J106,2,Pin_2*%
%TO.N,+5V*%
X96810000Y-94628000D03*
%TO.P,J106,3,Pin_3*%
%TO.N,/CPU/SCL*%
X96810000Y-97128000D03*
%TO.P,J106,4,Pin_4*%
%TO.N,/CPU/SDA*%
X96810000Y-99628000D03*
%TD*%
D21*
%TO.P,C202,1*%
%TO.N,+VSW*%
X153672000Y-115162000D03*
%TO.P,C202,2*%
%TO.N,GND*%
X150272000Y-115162000D03*
%TD*%
D48*
%TO.P,D102,1,K*%
%TO.N,+5V*%
X148654000Y-80398000D03*
%TO.P,D102,2,A*%
%TO.N,Net-(BZ101--)*%
X148654000Y-78298000D03*
%TD*%
D58*
%TO.P,BZ101,1,+*%
%TO.N,+5V*%
X157036000Y-83360000D03*
D19*
%TO.P,BZ101,2,-*%
%TO.N,Net-(BZ101--)*%
X157036000Y-76860000D03*
%TD*%
D25*
%TO.P,C109,1*%
%TO.N,Net-(U103-CS_MAG)*%
X125798000Y-47344000D03*
%TO.P,C109,2*%
%TO.N,GND*%
X124298000Y-47344000D03*
%TD*%
D22*
%TO.P,R104,1*%
%TO.N,+3.3V*%
X90560000Y-94197000D03*
%TO.P,R104,2*%
%TO.N,/CPU/SDA*%
X92060000Y-94197000D03*
%TD*%
D25*
%TO.P,C206,1*%
%TO.N,+VSW*%
X151452000Y-113130000D03*
%TO.P,C206,2*%
%TO.N,GND*%
X149952000Y-113130000D03*
%TD*%
D20*
%TO.P,C209,1*%
%TO.N,+5V*%
X147810000Y-122140000D03*
%TO.P,C209,2*%
%TO.N,GND*%
X147810000Y-120640000D03*
%TD*%
D59*
%TO.P,L202,1*%
%TO.N,+3.3V*%
X158256000Y-92994500D03*
%TO.P,L202,2*%
%TO.N,Net-(U204-SW)*%
X158256000Y-91344500D03*
%TD*%
D25*
%TO.P,R202,1*%
%TO.N,+VSW*%
X156860000Y-117490000D03*
%TO.P,R202,2*%
%TO.N,/CPU/Vsamp*%
X155360000Y-117490000D03*
%TD*%
D22*
%TO.P,C219,1*%
%TO.N,+5V*%
X152492000Y-95858000D03*
%TO.P,C219,2*%
%TO.N,GND*%
X153992000Y-95858000D03*
%TD*%
D20*
%TO.P,R209,1*%
%TO.N,Net-(Q201-G)*%
X103966000Y-125310000D03*
%TO.P,R209,2*%
%TO.N,Net-(U202-Y)*%
X103966000Y-123810000D03*
%TD*%
%TO.P,C107,1*%
%TO.N,+3.3V*%
X122762000Y-70192000D03*
%TO.P,C107,2*%
%TO.N,GND*%
X122762000Y-68692000D03*
%TD*%
D13*
%TO.P,TP201,1,1*%
%TO.N,/CPU/Vsamp*%
X150010000Y-123990000D03*
%TD*%
D26*
%TO.P,C102,1*%
%TO.N,+3.3V*%
X136735000Y-135090000D03*
%TO.P,C102,2*%
%TO.N,GND*%
X139685000Y-135090000D03*
%TD*%
D20*
%TO.P,R212,1*%
%TO.N,+5V*%
X152480000Y-94189500D03*
%TO.P,R212,2*%
%TO.N,Net-(U204-FB)*%
X152480000Y-92689500D03*
%TD*%
D22*
%TO.P,R111,1*%
%TO.N,GND*%
X106160000Y-109590000D03*
%TO.P,R111,2*%
%TO.N,Net-(J104-Pin_3)*%
X107660000Y-109590000D03*
%TD*%
D20*
%TO.P,C208,1*%
%TO.N,Net-(D202-K)*%
X157814000Y-105498000D03*
%TO.P,C208,2*%
%TO.N,Net-(U201-BOOT)*%
X157814000Y-103998000D03*
%TD*%
D13*
%TO.P,TP106,1,1*%
%TO.N,LEDS*%
X89210000Y-121890000D03*
%TD*%
D17*
%TO.P,Q207,1,G*%
%TO.N,Net-(Q201-G)*%
X103935000Y-126940000D03*
%TO.P,Q207,2,S*%
%TO.N,GND*%
X103935000Y-128840000D03*
%TO.P,Q207,3,D*%
%TO.N,Net-(D205-K)*%
X105810000Y-127890000D03*
%TD*%
D60*
%TO.P,FB101,1*%
%TO.N,+3.3V*%
X119290000Y-60298000D03*
%TO.P,FB101,2*%
%TO.N,Net-(U103-CS_MAG)*%
X117090000Y-60298000D03*
%TD*%
D61*
%TO.P,U201,1,BOOT*%
%TO.N,Net-(U201-BOOT)*%
X156163000Y-102006000D03*
%TO.P,U201,2,NC*%
%TO.N,unconnected-(U201-NC-Pad2)*%
X154893000Y-102006000D03*
%TO.P,U201,3,NC*%
%TO.N,unconnected-(U201-NC-Pad3)*%
X153623000Y-102006000D03*
%TO.P,U201,4,Vsens*%
%TO.N,Net-(U201-Vsens)*%
X152353000Y-102006000D03*
%TO.P,U201,5,ENA*%
%TO.N,unconnected-(U201-ENA-Pad5)*%
X152353000Y-107306000D03*
%TO.P,U201,6,GND*%
%TO.N,GND*%
X153623000Y-107306000D03*
%TO.P,U201,7,Vin*%
%TO.N,+VSW*%
X154893000Y-107306000D03*
%TO.P,U201,8,PH*%
%TO.N,Net-(D202-K)*%
X156163000Y-107306000D03*
D62*
%TO.P,U201,9,PAD*%
%TO.N,GND*%
X155608000Y-103706000D03*
X154258000Y-103706000D03*
X152908000Y-103706000D03*
D63*
X154258000Y-104656000D03*
D62*
X155608000Y-105606000D03*
X154258000Y-105606000D03*
X152908000Y-105606000D03*
%TD*%
D13*
%TO.P,TP207,1,1*%
%TO.N,Net-(Q201-G)*%
X102310000Y-124780000D03*
%TD*%
D39*
%TO.P,TP302,1,1*%
%TO.N,unconnected-(TP302-Pad1)*%
X146130000Y-59790000D03*
%TO.P,TP302,2*%
%TO.N,N/C*%
X148670000Y-59790000D03*
%TO.P,TP302,3*%
X151210000Y-59790000D03*
%TO.P,TP302,4*%
X153750000Y-59790000D03*
%TO.P,TP302,5*%
X146130000Y-62330000D03*
%TO.P,TP302,6*%
X148670000Y-62330000D03*
%TO.P,TP302,7*%
X151210000Y-62330000D03*
%TO.P,TP302,8*%
X153750000Y-62330000D03*
%TO.P,TP302,9*%
X146130000Y-64870000D03*
%TO.P,TP302,10*%
X148670000Y-64870000D03*
%TO.P,TP302,11*%
X151210000Y-64870000D03*
%TO.P,TP302,12*%
X153750000Y-64870000D03*
%TO.P,TP302,13*%
X146130000Y-67410000D03*
%TO.P,TP302,14*%
X148670000Y-67410000D03*
%TO.P,TP302,15*%
X151210000Y-67410000D03*
%TO.P,TP302,16*%
X153750000Y-67410000D03*
%TD*%
D13*
%TO.P,TP101,1,1*%
%TO.N,BUZZER*%
X146110000Y-72190000D03*
%TD*%
D43*
%TO.P,U204,1,SW*%
%TO.N,Net-(U204-SW)*%
X155904000Y-90910500D03*
%TO.P,U204,2,GND*%
%TO.N,GND*%
X154954000Y-90910500D03*
%TO.P,U204,3,FB*%
%TO.N,Net-(U204-FB)*%
X154004000Y-90910500D03*
%TO.P,U204,4,EN*%
%TO.N,+3.3V*%
X154004000Y-93185500D03*
%TO.P,U204,5,VOUT*%
%TO.N,+5V*%
X154954000Y-93185500D03*
%TO.P,U204,6,VI*%
%TO.N,+3.3V*%
X155904000Y-93185500D03*
%TD*%
D13*
%TO.P,TP102,1,1*%
%TO.N,Net-(J103-Pin_1)*%
X104710000Y-74490000D03*
%TD*%
D11*
%TO.P,R106,1*%
%TO.N,BUTTON*%
X128350000Y-75296000D03*
%TO.P,R106,2*%
%TO.N,Net-(J102-Pin_3)*%
X128350000Y-76796000D03*
%TD*%
D40*
%TO.P,J207,1,Pin_1*%
%TO.N,Net-(D206-K)*%
X145210000Y-137890000D03*
D15*
%TO.P,J207,2,Pin_2*%
%TO.N,Vbatt*%
X152410000Y-137890000D03*
%TD*%
D64*
%TO.P,J102,1,Pin_1*%
%TO.N,Net-(J102-Pin_1)*%
X123310000Y-80872000D03*
D65*
%TO.P,J102,2,Pin_2*%
%TO.N,+3.3V*%
X125810000Y-80872000D03*
%TO.P,J102,3,Pin_3*%
%TO.N,Net-(J102-Pin_3)*%
X128310000Y-80872000D03*
%TD*%
D13*
%TO.P,TP107,1,1*%
%TO.N,ESC_BB*%
X103410000Y-115690000D03*
%TD*%
D20*
%TO.P,C213,1*%
%TO.N,+3.3V*%
X163336000Y-92798000D03*
%TO.P,C213,2*%
%TO.N,GND*%
X163336000Y-91298000D03*
%TD*%
D22*
%TO.P,C105,1*%
%TO.N,+3.3V*%
X137360000Y-140590000D03*
%TO.P,C105,2*%
%TO.N,GND*%
X138860000Y-140590000D03*
%TD*%
D11*
%TO.P,R210,1*%
%TO.N,+5V*%
X147810000Y-123640000D03*
%TO.P,R210,2*%
%TO.N,Net-(D206-A)*%
X147810000Y-125140000D03*
%TD*%
D66*
%TO.P,Q102,1,G*%
%TO.N,Net-(Q102-G)*%
X149604000Y-74152500D03*
%TO.P,Q102,2,S*%
%TO.N,GND*%
X147704000Y-74152500D03*
%TO.P,Q102,3,D*%
%TO.N,Net-(BZ101--)*%
X148654000Y-76027500D03*
%TD*%
D17*
%TO.P,Q101,1,G*%
%TO.N,BUTTON_LIGHT*%
X119538500Y-75096000D03*
%TO.P,Q101,2,S*%
%TO.N,GND*%
X119538500Y-76996000D03*
%TO.P,Q101,3,D*%
%TO.N,Net-(Q101-D)*%
X121413500Y-76046000D03*
%TD*%
D11*
%TO.P,R101,1*%
%TO.N,+3.3V*%
X115110000Y-120440000D03*
%TO.P,R101,2*%
%TO.N,DR0*%
X115110000Y-121940000D03*
%TD*%
D22*
%TO.P,C104,1*%
%TO.N,+3.3V*%
X137460000Y-132690000D03*
%TO.P,C104,2*%
%TO.N,GND*%
X138960000Y-132690000D03*
%TD*%
D25*
%TO.P,R110,1*%
%TO.N,Net-(D106-A)*%
X147060000Y-116890000D03*
%TO.P,R110,2*%
%TO.N,Net-(J105-Pin_2)*%
X145560000Y-116890000D03*
%TD*%
D29*
%TO.P,SW101,1,1*%
%TO.N,GND*%
X97910000Y-111334000D03*
D30*
%TO.P,SW101,2,2*%
%TO.N,DR0*%
X100450000Y-111334000D03*
%TD*%
D22*
%TO.P,C216,1*%
%TO.N,Net-(D205-K)*%
X111980000Y-141140000D03*
%TO.P,C216,2*%
%TO.N,GND*%
X113480000Y-141140000D03*
%TD*%
D31*
%TO.P,Q208,1,G*%
%TO.N,Net-(Q202-G)*%
X147747500Y-132340000D03*
%TO.P,Q208,2,S*%
%TO.N,GND*%
X147747500Y-130440000D03*
%TO.P,Q208,3,D*%
%TO.N,Net-(D206-K)*%
X145872500Y-131390000D03*
%TD*%
D67*
%TO.P,U105,1,NC*%
%TO.N,unconnected-(U105-NC-Pad1)*%
X105172500Y-114740000D03*
%TO.P,U105,2,A*%
%TO.N,ESC_BB*%
X105172500Y-115690000D03*
%TO.P,U105,3,GND*%
%TO.N,GND*%
X105172500Y-116640000D03*
%TO.P,U105,4,Y*%
%TO.N,Net-(J104-Pin_1)*%
X107447500Y-116640000D03*
%TO.P,U105,5,VCC*%
%TO.N,+5V*%
X107447500Y-114740000D03*
%TD*%
D68*
%TO.P,D205,1,K*%
%TO.N,Net-(D205-K)*%
X112010000Y-139030000D03*
%TO.P,D205,2,A*%
%TO.N,Net-(D205-A)*%
X112010000Y-137030000D03*
%TD*%
D20*
%TO.P,C112,1*%
%TO.N,GND*%
X130128000Y-76784000D03*
%TO.P,C112,2*%
%TO.N,BUTTON*%
X130128000Y-75284000D03*
%TD*%
D22*
%TO.P,R112,1*%
%TO.N,GND*%
X137960000Y-119990000D03*
%TO.P,R112,2*%
%TO.N,Net-(J105-Pin_3)*%
X139460000Y-119990000D03*
%TD*%
D69*
%TO.N,GND*%
X111220000Y-124530000D03*
%TO.N,+5V*%
X102310000Y-120470000D03*
%TO.N,GND*%
X159810000Y-93890000D03*
X156810000Y-96390000D03*
X159310000Y-102890000D03*
X152060000Y-104640000D03*
X156560000Y-104640000D03*
X157060000Y-113140000D03*
X158560000Y-108640000D03*
X159310000Y-106640000D03*
X158810000Y-114890000D03*
X163810000Y-124390000D03*
X163810000Y-118640000D03*
X164560000Y-140890000D03*
X149310000Y-134390000D03*
X140060000Y-123140000D03*
X131560000Y-140390000D03*
X121560000Y-140140000D03*
X131310000Y-128390000D03*
X122310000Y-128640000D03*
X86810000Y-120140000D03*
X86810000Y-140640000D03*
%TO.N,LEDS*%
X110310000Y-141390000D03*
D70*
%TO.N,GND*%
X102310000Y-132390000D03*
X102560000Y-128890000D03*
D71*
X149560000Y-126890000D03*
X149560000Y-130640000D03*
D69*
%TO.N,+3.3V*%
X117910000Y-81690000D03*
X99310000Y-106090000D03*
D71*
X161624000Y-97636000D03*
D69*
X90610000Y-109230000D03*
X114790002Y-109230000D03*
%TO.N,GND*%
X147810000Y-119690000D03*
X138285000Y-119115000D03*
D72*
X154010000Y-96890000D03*
D69*
X127588000Y-43788000D03*
X111659999Y-127990630D03*
D72*
X156110000Y-119890000D03*
D71*
X160354000Y-95096000D03*
X163402000Y-97382000D03*
D69*
X118210000Y-80090000D03*
D71*
X92710000Y-63890000D03*
D69*
X140510000Y-131190000D03*
X142210000Y-119890000D03*
D72*
X151510000Y-117490000D03*
X151510000Y-115190000D03*
X161310000Y-88990000D03*
X163310000Y-90190000D03*
D71*
X140542000Y-128878000D03*
X130010000Y-101090000D03*
D72*
X154410000Y-97490000D03*
D71*
X140910000Y-132290000D03*
D69*
X148610000Y-110190000D03*
D71*
X118610000Y-141190000D03*
X124310000Y-131490000D03*
D69*
X93210000Y-96490000D03*
D71*
X115510000Y-141190000D03*
D72*
X151510000Y-119690000D03*
X139010000Y-78490000D03*
D71*
X141010000Y-138290000D03*
D69*
X153510000Y-99090000D03*
X106810000Y-115690000D03*
D71*
X122311041Y-100788959D03*
X111150000Y-130450000D03*
D69*
X155510000Y-112190000D03*
D71*
X113560000Y-139640000D03*
X162893997Y-71220003D03*
D72*
X161310000Y-91890000D03*
D69*
X126318000Y-43026000D03*
X89410000Y-96390000D03*
X148110000Y-115390000D03*
X91520000Y-115416000D03*
D72*
X147610000Y-75790000D03*
D69*
X152480000Y-89000000D03*
D71*
X142320000Y-133704000D03*
X140510000Y-127690000D03*
D69*
X98212322Y-106432223D03*
D71*
X124310000Y-136190000D03*
D69*
X117910000Y-76990000D03*
D71*
X149686000Y-128390000D03*
D69*
X148110000Y-114090000D03*
D71*
X129010000Y-131490000D03*
X140310000Y-130190000D03*
D69*
X104510000Y-113190000D03*
X99610000Y-83790000D03*
D71*
X126710000Y-133790000D03*
D69*
X143110000Y-119990000D03*
X111810000Y-129590000D03*
X93210000Y-118210000D03*
D71*
X129010000Y-136190000D03*
D69*
X111710000Y-125990000D03*
X140110000Y-140590000D03*
D71*
X132871200Y-141171600D03*
X163402000Y-94842000D03*
D69*
X111810000Y-131190000D03*
X150410000Y-112090000D03*
X123524000Y-46328000D03*
D71*
X111210000Y-126950000D03*
X94910000Y-69490000D03*
D69*
X131010000Y-76790000D03*
X155020000Y-89762000D03*
X103110000Y-110190000D03*
D71*
X159846000Y-97382000D03*
X131510000Y-125190000D03*
%TO.N,+5V*%
X106710000Y-85290000D03*
D69*
X102310000Y-117090000D03*
X150910000Y-109190000D03*
X146310000Y-111965000D03*
%TO.N,EN*%
X113410000Y-116090012D03*
D71*
%TO.N,Vbatt*%
X132210000Y-107290000D03*
X122110000Y-107390000D03*
D69*
X131610000Y-106690000D03*
D71*
X123510000Y-105990000D03*
D69*
X122710000Y-106790000D03*
D71*
X130910000Y-105990000D03*
D69*
%TO.N,LEDS*%
X115210000Y-131990000D03*
D71*
%TO.N,Net-(D104-DOUT)*%
X118010000Y-65090000D03*
X128210000Y-65090000D03*
D69*
%TO.N,/CPU/SCL*%
X94810000Y-85890000D03*
X91310010Y-85890000D03*
X123270000Y-61314000D03*
%TO.N,/CPU/SDA*%
X123778000Y-62076000D03*
X94899430Y-82879430D03*
X92110000Y-82890000D03*
%TO.N,Net-(Q202-G)*%
X142439724Y-127960276D03*
X147710000Y-128090000D03*
%TO.N,BUZZER*%
X143010000Y-85790000D03*
X146110000Y-75842800D03*
X140700002Y-108430000D03*
X138910000Y-110290000D03*
%TO.N,/CPU/Vsamp*%
X149310000Y-125290000D03*
X138910000Y-125390000D03*
%TD*%
D73*
%TO.N,+3.3V*%
X90610000Y-113000000D02*
X90610000Y-109230000D01*
X90008000Y-113602000D02*
X90610000Y-113000000D01*
X90008000Y-113638000D02*
X90008000Y-113602000D01*
X90560000Y-109180000D02*
X90610000Y-109230000D01*
X90560000Y-98769000D02*
X90560000Y-109180000D01*
X115110000Y-109549998D02*
X114790002Y-109230000D01*
X115110000Y-120440000D02*
X115110000Y-109549998D01*
%TO.N,BUZZER*%
X142990000Y-85810000D02*
X142990000Y-106140002D01*
X143010000Y-85790000D02*
X142990000Y-85810000D01*
X142990000Y-106140002D02*
X140700002Y-108430000D01*
%TO.N,+5V*%
X102310000Y-120740000D02*
X102310000Y-120470000D01*
X107416262Y-125045000D02*
X106453762Y-124082500D01*
X105652500Y-124082500D02*
X102310000Y-120740000D01*
X107960000Y-125045000D02*
X107416262Y-125045000D01*
X106453762Y-124082500D02*
X105652500Y-124082500D01*
%TO.N,GND*%
X109710000Y-123157500D02*
X109847500Y-123157500D01*
X109847500Y-123157500D02*
X111220000Y-124530000D01*
%TO.N,+5V*%
X112610000Y-133120000D02*
X112040000Y-133690000D01*
X112610000Y-125518430D02*
X112610000Y-133120000D01*
X112221570Y-125130000D02*
X112610000Y-125518430D01*
X110182500Y-125130000D02*
X112221570Y-125130000D01*
X109710000Y-124657500D02*
X110182500Y-125130000D01*
%TO.N,GND*%
X109117500Y-123750000D02*
X109710000Y-123157500D01*
X106686948Y-123750000D02*
X109117500Y-123750000D01*
X106060000Y-123123052D02*
X106686948Y-123750000D01*
X106060000Y-122770000D02*
X106060000Y-123123052D01*
%TO.N,/CPU/SCL*%
X113410000Y-136490000D02*
X115527000Y-138607000D01*
X113410000Y-124987056D02*
X113410000Y-136490000D01*
X108362944Y-119940000D02*
X113410000Y-124987056D01*
X97562944Y-119940000D02*
X108362944Y-119940000D01*
X94710000Y-97133000D02*
X94710000Y-117087056D01*
X94310000Y-97133000D02*
X94710000Y-97133000D01*
X94710000Y-117087056D02*
X97562944Y-119940000D01*
%TO.N,BUTTON*%
X90946000Y-81888000D02*
X88858000Y-79800000D01*
X92536000Y-81888000D02*
X90946000Y-81888000D01*
X93110000Y-85689999D02*
X93110000Y-82462000D01*
X98910000Y-100490000D02*
X98910000Y-91490000D01*
X98910000Y-91490000D02*
X93110000Y-85689999D01*
X95510000Y-116755684D02*
X95510000Y-103890000D01*
X108694316Y-119140000D02*
X97894316Y-119140000D01*
%TO.N,/CPU/SCL*%
X115527000Y-138607000D02*
X117060000Y-138607000D01*
%TO.N,BUTTON*%
X93110000Y-82462000D02*
X92536000Y-81888000D01*
X114210000Y-124655684D02*
X108694316Y-119140000D01*
X114210000Y-131790000D02*
X114210000Y-124655684D01*
X115127000Y-132707000D02*
X114210000Y-131790000D01*
X116610000Y-132707000D02*
X115127000Y-132707000D01*
X117060000Y-132257000D02*
X116610000Y-132707000D01*
%TO.N,/CPU/SDA*%
X115117000Y-134797000D02*
X117060000Y-134797000D01*
%TO.N,BUTTON*%
X97894316Y-119140000D02*
X95510000Y-116755684D01*
%TO.N,/CPU/SDA*%
X113810000Y-133490000D02*
X115117000Y-134797000D01*
X108528630Y-119540000D02*
X113810000Y-124821370D01*
%TO.N,BUTTON*%
X95510000Y-103890000D02*
X98910000Y-100490000D01*
%TO.N,/CPU/SDA*%
X97728629Y-119540000D02*
X108528630Y-119540000D01*
X113810000Y-124821370D02*
X113810000Y-133490000D01*
X95110000Y-101328000D02*
X95110000Y-116921370D01*
X95110000Y-116921370D02*
X97728629Y-119540000D01*
X96810000Y-99628000D02*
X95110000Y-101328000D01*
%TO.N,BUTTON*%
X88858000Y-79800000D02*
X88858000Y-79450000D01*
%TO.N,BUTTON_LIGHT*%
X115637000Y-129717000D02*
X117060000Y-129717000D01*
X114746500Y-124626500D02*
X114746500Y-128826500D01*
X114746500Y-128826500D02*
X115637000Y-129717000D01*
X108850000Y-118730000D02*
X114746500Y-124626500D01*
X95910000Y-116521371D02*
X98118629Y-118730000D01*
X99310000Y-100690000D02*
X95910000Y-104090000D01*
X95910000Y-104090000D02*
X95910000Y-116521371D01*
X99310000Y-91324315D02*
X99310000Y-100690000D01*
X93510000Y-85524314D02*
X99310000Y-91324315D01*
X93510000Y-81846000D02*
X93510000Y-85524314D01*
X98118629Y-118730000D02*
X108850000Y-118730000D01*
X91520000Y-81126000D02*
X92790000Y-81126000D01*
X90758000Y-80364000D02*
X91520000Y-81126000D01*
X90758000Y-72490000D02*
X90758000Y-80364000D01*
X91520000Y-71728000D02*
X90758000Y-72490000D01*
X92790000Y-81126000D02*
X93510000Y-81846000D01*
X116170500Y-71728000D02*
X91520000Y-71728000D01*
X119538500Y-75096000D02*
X116170500Y-71728000D01*
%TO.N,Net-(J103-Pin_1)*%
X97110000Y-83190000D02*
X97460000Y-82840000D01*
X97110000Y-85190000D02*
X97110000Y-83190000D01*
X97460000Y-82840000D02*
X98247500Y-82840000D01*
X97510000Y-85590000D02*
X97110000Y-85190000D01*
X99210000Y-85590000D02*
X97510000Y-85590000D01*
X99710000Y-86090000D02*
X99210000Y-85590000D01*
X96310000Y-116355685D02*
X96310000Y-104355685D01*
X98244315Y-118290000D02*
X96310000Y-116355685D01*
X96310000Y-104355685D02*
X99710000Y-100955685D01*
X108975685Y-118290000D02*
X98244315Y-118290000D01*
X115146500Y-124460815D02*
X108975685Y-118290000D01*
X115146500Y-127926500D02*
X115146500Y-124460815D01*
X117060000Y-128447000D02*
X115667000Y-128447000D01*
X115667000Y-128447000D02*
X115146500Y-127926500D01*
X99710000Y-100955685D02*
X99710000Y-86090000D01*
%TO.N,Net-(J103-Pin_2)*%
X115797000Y-127177000D02*
X117060000Y-127177000D01*
X115546499Y-124195127D02*
X115546499Y-126926499D01*
X96710000Y-116190000D02*
X98410000Y-117890000D01*
X98410000Y-117890000D02*
X109241372Y-117890000D01*
X100110000Y-101190000D02*
X96710000Y-104590000D01*
X96710000Y-104590000D02*
X96710000Y-116190000D01*
X109241372Y-117890000D02*
X115546499Y-124195127D01*
X100110000Y-84740000D02*
X100110000Y-101190000D01*
X98247500Y-84740000D02*
X100110000Y-84740000D01*
X115546499Y-126926499D02*
X115797000Y-127177000D01*
%TO.N,ESC_BB*%
X115946499Y-125726499D02*
X116127000Y-125907000D01*
X109397352Y-117390000D02*
X115946499Y-123939147D01*
X103410000Y-116397106D02*
X104402894Y-117390000D01*
X115946499Y-123939147D02*
X115946499Y-125726499D01*
X116127000Y-125907000D02*
X117060000Y-125907000D01*
X103410000Y-115690000D02*
X103410000Y-116397106D01*
X104402894Y-117390000D02*
X109397352Y-117390000D01*
%TO.N,GND*%
X137960000Y-119440000D02*
X137960000Y-119990000D01*
X138285000Y-119115000D02*
X137960000Y-119440000D01*
%TO.N,+5V*%
X104310000Y-112390000D02*
X106160000Y-112390000D01*
X102310000Y-114390000D02*
X104310000Y-112390000D01*
X102310000Y-117090000D02*
X102310000Y-114390000D01*
X106160000Y-112390000D02*
X106960000Y-113190000D01*
%TO.N,LEDS*%
X110060000Y-141640000D02*
X110310000Y-141390000D01*
X94310000Y-139640000D02*
X96310000Y-141640000D01*
X94310000Y-136640000D02*
X94310000Y-139640000D01*
X96310000Y-141640000D02*
X110060000Y-141640000D01*
X86910000Y-129240000D02*
X94310000Y-136640000D01*
X86910000Y-123990000D02*
X86910000Y-129240000D01*
X89110000Y-121790000D02*
X86910000Y-123990000D01*
%TO.N,GND*%
X113560000Y-139640000D02*
X113560000Y-141060000D01*
X113560000Y-141060000D02*
X113480000Y-141140000D01*
%TO.N,/CPU/PWR_ESC_SB*%
X113010000Y-125152742D02*
X113010000Y-137340000D01*
X113010000Y-137340000D02*
X115547000Y-139877000D01*
X115547000Y-139877000D02*
X117060000Y-139877000D01*
X108847258Y-120990000D02*
X113010000Y-125152742D01*
X107010000Y-120990000D02*
X108847258Y-120990000D01*
%TO.N,/CPU/Vsamp*%
X138910000Y-125390000D02*
X137460000Y-126840000D01*
X137460000Y-126840000D02*
X137460000Y-128370000D01*
%TO.N,/CPU/PWR_ESC_BB*%
X140810000Y-120640000D02*
X140810000Y-119890000D01*
X136810000Y-124640000D02*
X140810000Y-120640000D01*
X135710000Y-128390000D02*
X136810000Y-127290000D01*
X140810000Y-119890000D02*
X141410000Y-119290000D01*
X135710000Y-131390000D02*
X135710000Y-128390000D01*
X134843000Y-132257000D02*
X135710000Y-131390000D01*
X136810000Y-127290000D02*
X136810000Y-124640000D01*
X141410000Y-119290000D02*
X144810000Y-119290000D01*
X134560000Y-132257000D02*
X134843000Y-132257000D01*
D74*
%TO.N,GND*%
X102310000Y-132390000D02*
X102260000Y-132340000D01*
X102510000Y-128840000D02*
X98760000Y-128840000D01*
X102560000Y-128890000D02*
X102510000Y-128840000D01*
X102610000Y-128840000D02*
X102560000Y-128890000D01*
D73*
%TO.N,+3.3V*%
X119260000Y-62790000D02*
X119360000Y-62890000D01*
X88770000Y-97233000D02*
X88222000Y-97233000D01*
D75*
X157760000Y-94588000D02*
X157760000Y-96312000D01*
D76*
X136647000Y-139877000D02*
X134560000Y-139877000D01*
D73*
X90210000Y-95833000D02*
X90210000Y-95290000D01*
D77*
X123536500Y-43787500D02*
X123524000Y-43800000D01*
D73*
X90410000Y-62790000D02*
X119260000Y-62790000D01*
D76*
X163402000Y-99273000D02*
X164727000Y-99273000D01*
D73*
X89346000Y-63854000D02*
X88360000Y-64840000D01*
D76*
X158386000Y-99224000D02*
X157996000Y-98834000D01*
X157996000Y-98834000D02*
X157996000Y-96548000D01*
X159910000Y-79190000D02*
X146452000Y-79190000D01*
D73*
X92658000Y-79450000D02*
X92658000Y-80232000D01*
D76*
X125810000Y-83090000D02*
X125810000Y-80872000D01*
X165252000Y-98748000D02*
X165252000Y-84532000D01*
X136735000Y-135090000D02*
X136735000Y-133865000D01*
D77*
X125060000Y-43787500D02*
X123536500Y-43787500D01*
D73*
X88222000Y-97233000D02*
X87910000Y-96921000D01*
D75*
X155904000Y-93185500D02*
X158065000Y-93185500D01*
D73*
X94314000Y-81888000D02*
X94314000Y-83412000D01*
D76*
X136647000Y-139877000D02*
X136735000Y-139789000D01*
X127010000Y-83090000D02*
X125810000Y-83090000D01*
X137460000Y-133140000D02*
X137460000Y-132690000D01*
D75*
X157760000Y-96312000D02*
X157996000Y-96548000D01*
D73*
X90210000Y-98419000D02*
X90560000Y-98769000D01*
D76*
X121480000Y-43800000D02*
X123524000Y-43800000D01*
D73*
X111610000Y-78090000D02*
X114310000Y-78090000D01*
D76*
X162132000Y-99224000D02*
X163353000Y-99224000D01*
D73*
X117860000Y-81640000D02*
X119410000Y-81640000D01*
D76*
X163402000Y-99273000D02*
X163402000Y-99160000D01*
X129602800Y-70390000D02*
X120662000Y-70390000D01*
D73*
X90560000Y-94940000D02*
X90560000Y-94197000D01*
D76*
X119360000Y-62890000D02*
X119360000Y-45920000D01*
D73*
X159910000Y-68790000D02*
X159910000Y-79190000D01*
D75*
X160550500Y-92994500D02*
X161304000Y-93748000D01*
D73*
X157294000Y-99922000D02*
X157814000Y-99922000D01*
D75*
X158065000Y-93185500D02*
X158256000Y-92994500D01*
D76*
X161434000Y-97636000D02*
X161624000Y-97636000D01*
D73*
X137260000Y-130656000D02*
X137260000Y-131340000D01*
D75*
X154512000Y-92048000D02*
X155274000Y-92048000D01*
D73*
X89660000Y-116240000D02*
X88360000Y-116240000D01*
D75*
X158256000Y-92994500D02*
X160550500Y-92994500D01*
X162254000Y-92798000D02*
X161304000Y-93748000D01*
D76*
X162132000Y-101748000D02*
X162132000Y-99224000D01*
D73*
X114310000Y-78090000D02*
X117860000Y-81640000D01*
X157814000Y-99922000D02*
X159640000Y-101748000D01*
X90008000Y-63854000D02*
X89346000Y-63854000D01*
X115110000Y-120440000D02*
X115110000Y-119190000D01*
D76*
X136735000Y-139789000D02*
X136735000Y-138290000D01*
X146452000Y-79190000D02*
X144324000Y-77062000D01*
D75*
X154004000Y-92556000D02*
X154512000Y-92048000D01*
D76*
X134402800Y-76813388D02*
X128126188Y-83090000D01*
D73*
X90008000Y-63854000D02*
X90008000Y-63192000D01*
X99310000Y-106090000D02*
X99310000Y-107216000D01*
X90008000Y-113638000D02*
X90008000Y-115892000D01*
D76*
X119360000Y-69088000D02*
X119360000Y-62890000D01*
X138660000Y-141890000D02*
X137360000Y-140590000D01*
X136735000Y-133865000D02*
X137460000Y-133140000D01*
D75*
X163336000Y-92798000D02*
X162254000Y-92798000D01*
D73*
X137260000Y-131340000D02*
X137460000Y-131540000D01*
D76*
X143610000Y-75190000D02*
X137910000Y-75190000D01*
D73*
X90008000Y-63192000D02*
X90410000Y-62790000D01*
D76*
X137910000Y-75190000D02*
X134402800Y-75190000D01*
X165252000Y-98748000D02*
X164970000Y-99030000D01*
X119360000Y-45920000D02*
X121480000Y-43800000D01*
X120860000Y-83090000D02*
X119410000Y-81640000D01*
X134402800Y-75190000D02*
X134402800Y-76813388D01*
X144324000Y-75904000D02*
X143610000Y-75190000D01*
D73*
X92658000Y-80232000D02*
X94314000Y-81888000D01*
D76*
X137360000Y-140590000D02*
X136647000Y-139877000D01*
X161878000Y-97636000D02*
X161624000Y-97636000D01*
X128126188Y-83090000D02*
X127010000Y-83090000D01*
D73*
X90210000Y-97133000D02*
X90210000Y-98419000D01*
X125810000Y-77096000D02*
X125810000Y-80872000D01*
D76*
X163402000Y-99160000D02*
X161878000Y-97636000D01*
X159846000Y-99224000D02*
X161434000Y-97636000D01*
D73*
X158360000Y-66240000D02*
X158360000Y-67240000D01*
D76*
X144324000Y-77062000D02*
X144324000Y-75904000D01*
X120662000Y-70390000D02*
X119360000Y-69088000D01*
D73*
X88534000Y-94197000D02*
X90560000Y-94197000D01*
X87910000Y-94821000D02*
X88534000Y-94197000D01*
D76*
X163353000Y-99224000D02*
X163402000Y-99273000D01*
X127010000Y-83090000D02*
X120860000Y-83090000D01*
X159846000Y-99224000D02*
X158386000Y-99224000D01*
D73*
X88360000Y-64840000D02*
X88360000Y-66240000D01*
X137460000Y-131540000D02*
X137460000Y-132690000D01*
D76*
X157996000Y-96548000D02*
X155904000Y-94456000D01*
D73*
X87910000Y-94821000D02*
X87910000Y-96921000D01*
D76*
X164970000Y-99030000D02*
X164970000Y-139030000D01*
D73*
X94314000Y-83412000D02*
X94332000Y-83412000D01*
D78*
X99310000Y-107216000D02*
X99334000Y-107240000D01*
D73*
X94332000Y-83412000D02*
X94710000Y-83790000D01*
X90210000Y-97133000D02*
X88870000Y-97133000D01*
X94710000Y-83790000D02*
X95972500Y-83790000D01*
X159640000Y-101748000D02*
X162132000Y-101748000D01*
X88870000Y-97133000D02*
X88770000Y-97233000D01*
X92658000Y-73150000D02*
X92658000Y-79450000D01*
X90210000Y-95290000D02*
X90560000Y-94940000D01*
D75*
X154004000Y-93185500D02*
X154004000Y-92556000D01*
D76*
X164727000Y-99273000D02*
X165252000Y-98748000D01*
D75*
X155274000Y-92048000D02*
X155904000Y-92678000D01*
D76*
X155904000Y-94456000D02*
X155904000Y-93185500D01*
X164970000Y-139030000D02*
X162110000Y-141890000D01*
X159846000Y-99224000D02*
X162132000Y-99224000D01*
X165252000Y-84532000D02*
X159910000Y-79190000D01*
D73*
X158360000Y-67240000D02*
X159910000Y-68790000D01*
D75*
X155904000Y-92678000D02*
X155904000Y-93185500D01*
D76*
X134402800Y-75190000D02*
X129602800Y-70390000D01*
X162110000Y-141890000D02*
X138660000Y-141890000D01*
X136735000Y-139789000D02*
X136735000Y-135090000D01*
D73*
X90008000Y-115892000D02*
X89660000Y-116240000D01*
D79*
%TO.N,GND*%
X140542000Y-127722000D02*
X140510000Y-127690000D01*
D76*
X153623000Y-107306000D02*
X153623000Y-108431000D01*
D79*
X153310000Y-128390000D02*
X153810000Y-127890000D01*
D74*
X98760000Y-128840000D02*
X97810000Y-127890000D01*
D75*
X154954000Y-89828000D02*
X155020000Y-89762000D01*
X131010000Y-76790000D02*
X131016000Y-76784000D01*
D73*
X106060000Y-122770000D02*
X106060000Y-121740000D01*
D79*
X140535000Y-131165000D02*
X140510000Y-131190000D01*
D73*
X127588000Y-43788000D02*
X127698000Y-43788000D01*
D74*
X111210000Y-126950000D02*
X111210000Y-126490000D01*
D75*
X130128000Y-76784000D02*
X131004000Y-76784000D01*
D76*
X124857000Y-97340000D02*
X124382000Y-97815000D01*
X153623000Y-105291000D02*
X154258000Y-104656000D01*
D75*
X154410000Y-97490000D02*
X154810000Y-97890000D01*
D74*
X140910000Y-132290000D02*
X140910000Y-132192400D01*
X152004000Y-126084000D02*
X153810000Y-127890000D01*
D73*
X126572500Y-44300000D02*
X127186000Y-44300000D01*
D74*
X111140000Y-130440000D02*
X111150000Y-130450000D01*
D73*
X147447500Y-110440000D02*
X148360000Y-110440000D01*
X89520000Y-96483000D02*
X89427000Y-96390000D01*
X94860000Y-69540000D02*
X94910000Y-69490000D01*
D76*
X131525000Y-125175000D02*
X131510000Y-125190000D01*
D73*
X139018000Y-78482000D02*
X139010000Y-78490000D01*
X127698000Y-43788000D02*
X127686000Y-43800000D01*
X117916000Y-76996000D02*
X117910000Y-76990000D01*
D79*
X140535000Y-130415000D02*
X140535000Y-131165000D01*
D76*
X140934000Y-135090000D02*
X142320000Y-133704000D01*
D73*
X138960000Y-132690000D02*
X140510000Y-132690000D01*
D74*
X141872500Y-132340000D02*
X141872500Y-133256500D01*
D75*
X118260000Y-80140000D02*
X118210000Y-80090000D01*
D73*
X128604000Y-42670000D02*
X128604000Y-43800000D01*
X127686000Y-43800000D02*
X128604000Y-43800000D01*
D76*
X131525000Y-123387000D02*
X131525000Y-125175000D01*
D73*
X92410000Y-96483000D02*
X93203000Y-96483000D01*
D74*
X109810000Y-126940000D02*
X111200000Y-126940000D01*
D73*
X155262000Y-112438000D02*
X155510000Y-112190000D01*
D75*
X153992000Y-97072000D02*
X154410000Y-97490000D01*
D73*
X91508000Y-113638000D02*
X91508000Y-115404000D01*
D74*
X103935000Y-128840000D02*
X102610000Y-128840000D01*
D75*
X159846000Y-95604000D02*
X160354000Y-95096000D01*
D79*
X151260000Y-130440000D02*
X153810000Y-127890000D01*
D74*
X111150000Y-130250000D02*
X111810000Y-129590000D01*
D79*
X140535000Y-128885000D02*
X140535000Y-129965000D01*
D74*
X141872500Y-133256500D02*
X142320000Y-133704000D01*
X141007600Y-132290000D02*
X140910000Y-132290000D01*
D73*
X89410000Y-96390000D02*
X89410000Y-96373000D01*
D79*
X149686000Y-128390000D02*
X149686000Y-130440000D01*
X147747500Y-130440000D02*
X149686000Y-130440000D01*
D74*
X111210000Y-126490000D02*
X111710000Y-125990000D01*
D79*
X149686000Y-128390000D02*
X153310000Y-128390000D01*
D75*
X159846000Y-96274000D02*
X159846000Y-95604000D01*
D73*
X143110000Y-120252500D02*
X143110000Y-119990000D01*
X103710000Y-109590000D02*
X103110000Y-110190000D01*
X119538500Y-76996000D02*
X117916000Y-76996000D01*
D75*
X163402000Y-96323000D02*
X159895000Y-96323000D01*
D73*
X147097500Y-115390000D02*
X148110000Y-115390000D01*
D76*
X120860000Y-62940000D02*
X120860000Y-46452000D01*
D73*
X103122500Y-111090000D02*
X103122500Y-110202500D01*
D75*
X154810000Y-97890000D02*
X155958000Y-97890000D01*
D73*
X150272000Y-117448000D02*
X151468000Y-117448000D01*
D74*
X141872500Y-128840000D02*
X140580000Y-128840000D01*
D73*
X142067500Y-120252500D02*
X143110000Y-120252500D01*
D75*
X131004000Y-76784000D02*
X131010000Y-76790000D01*
D79*
X140535000Y-131817400D02*
X140948400Y-132230800D01*
X140310000Y-130190000D02*
X140535000Y-130415000D01*
D73*
X139468000Y-128878000D02*
X140542000Y-128878000D01*
D74*
X141057600Y-132340000D02*
X141007600Y-132290000D01*
D73*
X98247500Y-83790000D02*
X99610000Y-83790000D01*
X140510000Y-132690000D02*
X140910000Y-132290000D01*
D74*
X111200000Y-126940000D02*
X111210000Y-126950000D01*
D76*
X152766000Y-109288000D02*
X152766000Y-110336000D01*
D73*
X126318000Y-43026000D02*
X126826000Y-43026000D01*
X106060000Y-121740000D02*
X106010000Y-121690000D01*
X138960000Y-128370000D02*
X139468000Y-128878000D01*
D74*
X111210000Y-127540631D02*
X111659999Y-127990630D01*
D76*
X139685000Y-138290000D02*
X141010000Y-138290000D01*
D74*
X109747500Y-130440000D02*
X111140000Y-130440000D01*
X111150000Y-130530000D02*
X111810000Y-131190000D01*
D73*
X141812000Y-120288000D02*
X142210000Y-119890000D01*
D75*
X153992000Y-96872000D02*
X154010000Y-96890000D01*
D79*
X140535000Y-131215000D02*
X140535000Y-131817400D01*
X140535000Y-129965000D02*
X140310000Y-130190000D01*
X149686000Y-130440000D02*
X151260000Y-130440000D01*
D73*
X156860000Y-120640000D02*
X156110000Y-119890000D01*
X161358000Y-71728000D02*
X162386000Y-71728000D01*
X105860000Y-116640000D02*
X106810000Y-115690000D01*
X126826000Y-43026000D02*
X127588000Y-43788000D01*
D76*
X150272000Y-115162000D02*
X150272000Y-122020000D01*
D75*
X124060000Y-66140000D02*
X125810000Y-67890000D01*
D74*
X111210000Y-126950000D02*
X111210000Y-127540631D01*
D73*
X149952000Y-113130000D02*
X149952000Y-112548000D01*
X150272000Y-119734000D02*
X151466000Y-119734000D01*
D75*
X161304000Y-88996000D02*
X161310000Y-88990000D01*
D73*
X127588000Y-43898000D02*
X127588000Y-43788000D01*
X93260000Y-119540000D02*
X93260000Y-118260000D01*
X152660000Y-99922000D02*
X152678000Y-99922000D01*
X93260000Y-69540000D02*
X94860000Y-69540000D01*
D76*
X115553000Y-141147000D02*
X115510000Y-141190000D01*
D73*
X138860000Y-140590000D02*
X140110000Y-140590000D01*
X139018000Y-78498000D02*
X139010000Y-78490000D01*
D75*
X154954000Y-90910500D02*
X154954000Y-89828000D01*
D73*
X103122500Y-110202500D02*
X103110000Y-110190000D01*
X92674000Y-63854000D02*
X92710000Y-63890000D01*
D74*
X111150000Y-130450000D02*
X111150000Y-130250000D01*
D73*
X97810000Y-107240000D02*
X97810000Y-106834545D01*
X148360000Y-110440000D02*
X148610000Y-110190000D01*
D76*
X153623000Y-108431000D02*
X152766000Y-109288000D01*
D74*
X134560000Y-141147000D02*
X132895800Y-141147000D01*
D76*
X118567000Y-141147000D02*
X118610000Y-141190000D01*
D79*
X140510000Y-131190000D02*
X140535000Y-131215000D01*
D73*
X151466000Y-119734000D02*
X151510000Y-119690000D01*
D75*
X153992000Y-95858000D02*
X153992000Y-96872000D01*
D79*
X149686000Y-126940000D02*
X149686000Y-128390000D01*
D73*
X97810000Y-106834545D02*
X98212322Y-106432223D01*
D76*
X153623000Y-107306000D02*
X153623000Y-105291000D01*
D79*
X140542000Y-128878000D02*
X140542000Y-127722000D01*
D75*
X163402000Y-96323000D02*
X163402000Y-97382000D01*
X119410000Y-80140000D02*
X118260000Y-80140000D01*
X159260000Y-95688000D02*
X159846000Y-96274000D01*
D73*
X89410000Y-96373000D02*
X88770000Y-95733000D01*
X113487000Y-141147000D02*
X113480000Y-141140000D01*
D75*
X161304000Y-90348000D02*
X161304000Y-91884000D01*
D73*
X155262000Y-113130000D02*
X155262000Y-112438000D01*
D75*
X159846000Y-96274000D02*
X159846000Y-97382000D01*
D73*
X93260000Y-118260000D02*
X93210000Y-118210000D01*
D75*
X163336000Y-91298000D02*
X163336000Y-90216000D01*
D73*
X156860000Y-120990000D02*
X156860000Y-120640000D01*
D75*
X159895000Y-96323000D02*
X159846000Y-96274000D01*
D73*
X90210000Y-96483000D02*
X89520000Y-96483000D01*
D74*
X111150000Y-130450000D02*
X111150000Y-130530000D01*
D77*
X123524000Y-46570000D02*
X124298000Y-47344000D01*
D75*
X154010000Y-96890000D02*
X153992000Y-96908000D01*
D77*
X123524000Y-46328000D02*
X123524000Y-45300000D01*
D74*
X140910000Y-132192400D02*
X140948400Y-132230800D01*
D73*
X93203000Y-96483000D02*
X93210000Y-96490000D01*
X147704000Y-75696000D02*
X147610000Y-75790000D01*
X128110000Y-42176000D02*
X128604000Y-42670000D01*
D74*
X102260000Y-132340000D02*
X97810000Y-127890000D01*
D73*
X143110000Y-120252500D02*
X143860000Y-120252500D01*
X89427000Y-96390000D02*
X89410000Y-96390000D01*
X127186000Y-44300000D02*
X127588000Y-43898000D01*
X105460000Y-113190000D02*
X104510000Y-113190000D01*
D74*
X103935000Y-132340000D02*
X102310000Y-132390000D01*
X140580000Y-128840000D02*
X140542000Y-128878000D01*
D73*
X91508000Y-115404000D02*
X91520000Y-115416000D01*
D77*
X123524000Y-46328000D02*
X123524000Y-46570000D01*
D75*
X163336000Y-90216000D02*
X163310000Y-90190000D01*
D73*
X162386000Y-71728000D02*
X162893997Y-71220003D01*
D75*
X123564000Y-67890000D02*
X122762000Y-68692000D01*
D73*
X147704000Y-74152500D02*
X147704000Y-75696000D01*
D74*
X132895800Y-141147000D02*
X132871200Y-141171600D01*
D76*
X117060000Y-141147000D02*
X118567000Y-141147000D01*
D73*
X149952000Y-112548000D02*
X150410000Y-112090000D01*
D76*
X125810000Y-67890000D02*
X120860000Y-62940000D01*
D73*
X151482000Y-115162000D02*
X151510000Y-115190000D01*
X163260000Y-70854000D02*
X162893997Y-71220003D01*
X163260000Y-69540000D02*
X163260000Y-70854000D01*
X147810000Y-120640000D02*
X147810000Y-119690000D01*
X141812000Y-120508000D02*
X142067500Y-120252500D01*
D75*
X161304000Y-91884000D02*
X161310000Y-91890000D01*
D76*
X124382000Y-97815000D02*
X124382000Y-100414000D01*
D73*
X126560000Y-42176000D02*
X126560000Y-42784000D01*
D76*
X122312082Y-100790000D02*
X122311041Y-100788959D01*
X124006000Y-100790000D02*
X122312082Y-100790000D01*
D75*
X125810000Y-67890000D02*
X123564000Y-67890000D01*
D77*
X126060000Y-43787500D02*
X126060000Y-43284000D01*
D79*
X147747500Y-126940000D02*
X149686000Y-126940000D01*
D76*
X117060000Y-141147000D02*
X115553000Y-141147000D01*
D79*
X152860000Y-126940000D02*
X153810000Y-127890000D01*
D77*
X126060000Y-43284000D02*
X126318000Y-43026000D01*
D74*
X141872500Y-132340000D02*
X141057600Y-132340000D01*
D73*
X152678000Y-99922000D02*
X153510000Y-99090000D01*
D75*
X161304000Y-90348000D02*
X161304000Y-88996000D01*
X159260000Y-94588000D02*
X159260000Y-95688000D01*
D73*
X115460000Y-141140000D02*
X115510000Y-141190000D01*
D75*
X131894000Y-76784000D02*
X131906000Y-76796000D01*
D73*
X156860000Y-122490000D02*
X156860000Y-120990000D01*
X151468000Y-117448000D02*
X151510000Y-117490000D01*
D75*
X131016000Y-76784000D02*
X131894000Y-76784000D01*
D73*
X147060000Y-113890000D02*
X147910000Y-113890000D01*
D76*
X122012000Y-45300000D02*
X123524000Y-45300000D01*
D73*
X126560000Y-42176000D02*
X128110000Y-42176000D01*
D75*
X153992000Y-96908000D02*
X153992000Y-97072000D01*
D73*
X91508000Y-63854000D02*
X92674000Y-63854000D01*
D76*
X124382000Y-100414000D02*
X124006000Y-100790000D01*
X139685000Y-135090000D02*
X140934000Y-135090000D01*
D73*
X147910000Y-113890000D02*
X148110000Y-114090000D01*
X150272000Y-115162000D02*
X151482000Y-115162000D01*
X139018000Y-80364000D02*
X139018000Y-78498000D01*
D76*
X139685000Y-135090000D02*
X139685000Y-138290000D01*
D73*
X113480000Y-141140000D02*
X115460000Y-141140000D01*
D79*
X149686000Y-126940000D02*
X152860000Y-126940000D01*
D73*
X141812000Y-120508000D02*
X141812000Y-120288000D01*
D75*
X163402000Y-96323000D02*
X163402000Y-94842000D01*
D79*
X140542000Y-128878000D02*
X140535000Y-128885000D01*
D76*
X120860000Y-46452000D02*
X122012000Y-45300000D01*
D73*
X152480000Y-89895500D02*
X152480000Y-89000000D01*
X105172500Y-116640000D02*
X105860000Y-116640000D01*
X106160000Y-109590000D02*
X103710000Y-109590000D01*
X126560000Y-42784000D02*
X126318000Y-43026000D01*
X139018000Y-77062000D02*
X139018000Y-78482000D01*
%TO.N,BUTTON*%
X126110000Y-75296000D02*
X125810000Y-74996000D01*
X123840000Y-71220000D02*
X90788000Y-71220000D01*
X125810000Y-74996000D02*
X125810000Y-73190000D01*
X131906000Y-75296000D02*
X126110000Y-75296000D01*
X125810000Y-73190000D02*
X123840000Y-71220000D01*
X90788000Y-71220000D02*
X88858000Y-73150000D01*
X88858000Y-79450000D02*
X88858000Y-73150000D01*
%TO.N,+5V*%
X146310000Y-113090000D02*
X145560000Y-112340000D01*
X111610000Y-84690000D02*
X111710000Y-84790000D01*
X145935000Y-112340000D02*
X146310000Y-111965000D01*
X145172500Y-112340000D02*
X145172500Y-112852500D01*
X147810000Y-122140000D02*
X147810000Y-123640000D01*
D75*
X152558000Y-97890000D02*
X152110000Y-97890000D01*
X151410000Y-84790000D02*
X111710000Y-84790000D01*
D73*
X145560000Y-112340000D02*
X145172500Y-112340000D01*
X148010000Y-113090000D02*
X146310000Y-113090000D01*
D75*
X152480000Y-94189500D02*
X152480000Y-97812000D01*
X148654000Y-81234000D02*
X148654000Y-80398000D01*
D73*
X109710000Y-124657500D02*
X109142500Y-124657500D01*
D75*
X108210000Y-84790000D02*
X107810000Y-84790000D01*
D73*
X147810000Y-122140000D02*
X147060000Y-122140000D01*
X145172500Y-112852500D02*
X145560000Y-113240000D01*
X146672500Y-122527500D02*
X145760000Y-122527500D01*
D75*
X151410000Y-97190000D02*
X151410000Y-84790000D01*
D73*
X145760000Y-122527500D02*
X145760000Y-121640000D01*
D75*
X107810000Y-84790000D02*
X107310000Y-85290000D01*
X152480000Y-97812000D02*
X152558000Y-97890000D01*
D73*
X145560000Y-113240000D02*
X145560000Y-113890000D01*
D75*
X154710000Y-94390000D02*
X152680500Y-94390000D01*
X152680500Y-94390000D02*
X152480000Y-94189500D01*
X110310000Y-84790000D02*
X108210000Y-84790000D01*
D73*
X146710000Y-119490000D02*
X148710000Y-117490000D01*
X145172500Y-112340000D02*
X145935000Y-112340000D01*
D75*
X151410000Y-84790000D02*
X151410000Y-83990000D01*
X154954000Y-93185500D02*
X154954000Y-94146000D01*
X155528000Y-95858000D02*
X154710000Y-95040000D01*
D73*
X111610000Y-80690000D02*
X111610000Y-84690000D01*
X148654000Y-80398000D02*
X144358000Y-80398000D01*
X153780000Y-83360000D02*
X157036000Y-83360000D01*
X108755000Y-125045000D02*
X107960000Y-125045000D01*
D75*
X152558000Y-97890000D02*
X151410000Y-99038000D01*
X96810000Y-94503000D02*
X96810000Y-94628000D01*
X151410000Y-99038000D02*
X151410000Y-108690000D01*
X151410000Y-108690000D02*
X150910000Y-109190000D01*
D73*
X144358000Y-80398000D02*
X144324000Y-80364000D01*
X148654000Y-80398000D02*
X150818000Y-80398000D01*
X148710000Y-117490000D02*
X148710000Y-113790000D01*
X146710000Y-120690000D02*
X146710000Y-119490000D01*
X150818000Y-80398000D02*
X153780000Y-83360000D01*
D75*
X107310000Y-85290000D02*
X106710000Y-85290000D01*
D73*
X107447500Y-113677500D02*
X106960000Y-113190000D01*
X109142500Y-124657500D02*
X108755000Y-125045000D01*
D75*
X152110000Y-97890000D02*
X151410000Y-97190000D01*
D73*
X145760000Y-121640000D02*
X146710000Y-120690000D01*
X148710000Y-113790000D02*
X148010000Y-113090000D01*
D75*
X154954000Y-94146000D02*
X154710000Y-94390000D01*
X154710000Y-95040000D02*
X154710000Y-94390000D01*
D73*
X147060000Y-122140000D02*
X146672500Y-122527500D01*
D75*
X111710000Y-84790000D02*
X110310000Y-84790000D01*
X151410000Y-83990000D02*
X148654000Y-81234000D01*
D73*
X107447500Y-114740000D02*
X107447500Y-113677500D01*
%TO.N,EN*%
X119345000Y-136225000D02*
X121727000Y-138607000D01*
X103350000Y-111990000D02*
X107358654Y-111990000D01*
X97810000Y-108740000D02*
X99334000Y-108740000D01*
X121727000Y-138607000D02*
X134560000Y-138607000D01*
X110758654Y-115390000D02*
X112709988Y-115390000D01*
X99300000Y-114012000D02*
X99300000Y-108774000D01*
X112709988Y-115390000D02*
X113410000Y-116090012D01*
X107358654Y-111990000D02*
X110758654Y-115390000D01*
X100450000Y-115162000D02*
X100450000Y-114890000D01*
X120730000Y-116142500D02*
X119345000Y-117527500D01*
X100450000Y-115162000D02*
X99300000Y-114012000D01*
X119345000Y-117527500D02*
X119345000Y-136225000D01*
X100450000Y-114890000D02*
X103350000Y-111990000D01*
X99300000Y-108774000D02*
X99334000Y-108740000D01*
%TO.N,Net-(U201-BOOT)*%
X157814000Y-102970000D02*
X157814000Y-103998000D01*
X156850000Y-102006000D02*
X157814000Y-102970000D01*
X156163000Y-102006000D02*
X156850000Y-102006000D01*
D76*
%TO.N,Net-(D202-K)*%
X156766000Y-110336000D02*
X158964000Y-110336000D01*
X157814000Y-107748000D02*
X162132000Y-107748000D01*
X158964000Y-110336000D02*
X161552000Y-107748000D01*
X161552000Y-107748000D02*
X162132000Y-107748000D01*
D73*
X157814000Y-105498000D02*
X157814000Y-107748000D01*
D76*
X156605000Y-107748000D02*
X157814000Y-107748000D01*
X156163000Y-107306000D02*
X156605000Y-107748000D01*
%TO.N,+VSW*%
X154893000Y-111479000D02*
X153672000Y-112700000D01*
X149010000Y-109390000D02*
X151452000Y-111832000D01*
X122010000Y-109390000D02*
X149010000Y-109390000D01*
X153672000Y-116432000D02*
X153672000Y-122020000D01*
X125810000Y-98990000D02*
X125810000Y-101890000D01*
X153672000Y-112700000D02*
X153672000Y-115162000D01*
X151452000Y-113130000D02*
X153762000Y-113130000D01*
X125810000Y-101890000D02*
X120610000Y-107090000D01*
D73*
X156860000Y-117490000D02*
X156860000Y-116482000D01*
X156960000Y-116482000D02*
X157010000Y-116432000D01*
D76*
X156810000Y-116432000D02*
X153672000Y-116432000D01*
X157010000Y-116432000D02*
X156810000Y-116432000D01*
X120610000Y-107990000D02*
X122010000Y-109390000D01*
X162132000Y-116432000D02*
X157010000Y-116432000D01*
D73*
X156860000Y-116482000D02*
X156810000Y-116432000D01*
D76*
X153672000Y-115162000D02*
X153672000Y-116432000D01*
X154893000Y-107306000D02*
X154893000Y-111479000D01*
X151452000Y-111832000D02*
X151452000Y-113130000D01*
X120610000Y-107090000D02*
X120610000Y-107990000D01*
D74*
%TO.N,Vbatt*%
X127238000Y-100414000D02*
X127238000Y-102318000D01*
X123510000Y-105990000D02*
X122110000Y-107390000D01*
X124110000Y-105390000D02*
X123510000Y-105990000D01*
X130210000Y-105290000D02*
X132210000Y-107290000D01*
X127238000Y-102262000D02*
X124110000Y-105390000D01*
X130210000Y-105290000D02*
X130910000Y-105990000D01*
D76*
X126763000Y-97340000D02*
X127238000Y-97815000D01*
D80*
X90610000Y-127890000D02*
X90610000Y-129290000D01*
D76*
X162132000Y-126768000D02*
X161010000Y-127890000D01*
D80*
X90610000Y-129290000D02*
X99210000Y-137890000D01*
D74*
X127238000Y-100414000D02*
X127238000Y-102262000D01*
D76*
X162132000Y-121132000D02*
X162132000Y-126768000D01*
X127238000Y-97815000D02*
X127238000Y-100414000D01*
D80*
X152410000Y-137890000D02*
X161010000Y-129290000D01*
D74*
X127238000Y-102318000D02*
X130210000Y-105290000D01*
D80*
X161010000Y-129290000D02*
X161010000Y-127890000D01*
%TO.N,Net-(D205-K)*%
X106410000Y-137890000D02*
X106410000Y-133546000D01*
X106760000Y-133196000D02*
X106772500Y-133183500D01*
X106772500Y-128087500D02*
X106790000Y-128070000D01*
D73*
X112010000Y-139030000D02*
X107550000Y-139030000D01*
D80*
X106410000Y-133546000D02*
X106760000Y-133196000D01*
D73*
X107550000Y-139030000D02*
X106410000Y-137890000D01*
X112010000Y-141110000D02*
X111980000Y-141140000D01*
D80*
X106772500Y-133183500D02*
X106772500Y-128087500D01*
D73*
X112010000Y-139030000D02*
X112010000Y-141110000D01*
D80*
%TO.N,Net-(D206-K)*%
X144860000Y-132434000D02*
X144860000Y-128370000D01*
X145210000Y-137890000D02*
X145210000Y-132784000D01*
D74*
X143810000Y-125288000D02*
X143810000Y-124890000D01*
D73*
X142430000Y-121390000D02*
X144210000Y-121390000D01*
X144710000Y-121890000D02*
X144710000Y-123990000D01*
D74*
X144860000Y-128370000D02*
X144860000Y-126338000D01*
D73*
X141812000Y-122008000D02*
X142430000Y-121390000D01*
X144210000Y-121390000D02*
X144710000Y-121890000D01*
X144710000Y-123990000D02*
X143810000Y-124890000D01*
D74*
X144860000Y-126338000D02*
X143810000Y-125288000D01*
D73*
%TO.N,Net-(D103-DOUT)*%
X93260000Y-66240000D02*
X92560000Y-66240000D01*
X86510000Y-118190000D02*
X87860000Y-119540000D01*
X91110000Y-67690000D02*
X91110000Y-69690000D01*
X87860000Y-119540000D02*
X88360000Y-119540000D01*
X91110000Y-69690000D02*
X89834000Y-70966000D01*
X92560000Y-66240000D02*
X91110000Y-67690000D01*
X88218000Y-70966000D02*
X86510000Y-72674000D01*
X89834000Y-70966000D02*
X88218000Y-70966000D01*
X86510000Y-72674000D02*
X86510000Y-118190000D01*
%TO.N,LEDS*%
X117060000Y-130987000D02*
X116213000Y-130987000D01*
X89210000Y-121890000D02*
X90758000Y-120342000D01*
X93260000Y-116240000D02*
X92474000Y-116240000D01*
X92474000Y-116240000D02*
X90758000Y-117956000D01*
X90758000Y-120342000D02*
X90758000Y-117956000D01*
X116213000Y-130987000D02*
X115210000Y-131990000D01*
D76*
%TO.N,Net-(U103-CS_MAG)*%
X117985000Y-44755000D02*
X120564000Y-42176000D01*
D73*
X125560000Y-42676000D02*
X125060000Y-42176000D01*
D76*
X117985000Y-56488000D02*
X117985000Y-58217000D01*
X117090000Y-59112000D02*
X117090000Y-60298000D01*
D73*
X125560000Y-43276000D02*
X125560000Y-42676000D01*
X125560000Y-43787500D02*
X125560000Y-43276000D01*
X125560000Y-45312500D02*
X125560000Y-47106000D01*
D76*
X117985000Y-56488000D02*
X117985000Y-44755000D01*
X117985000Y-58217000D02*
X117090000Y-59112000D01*
D73*
X125560000Y-43787500D02*
X125560000Y-45312500D01*
X125560000Y-47106000D02*
X125798000Y-47344000D01*
X126060000Y-45312500D02*
X125560000Y-45312500D01*
D76*
X120564000Y-42176000D02*
X125060000Y-42176000D01*
D73*
%TO.N,Net-(U103-C1)*%
X127234000Y-44800000D02*
X127734000Y-45300000D01*
X127734000Y-45300000D02*
X128604000Y-45300000D01*
X126572500Y-44800000D02*
X127234000Y-44800000D01*
%TO.N,Net-(D105-A)*%
X106160000Y-111090000D02*
X104697500Y-111090000D01*
%TO.N,Net-(D104-DOUT)*%
X157306000Y-65124000D02*
X156798000Y-65632000D01*
X88360000Y-69540000D02*
X88360000Y-68540000D01*
X156798000Y-65632000D02*
X156798000Y-69289600D01*
X163260000Y-66240000D02*
X161978000Y-66240000D01*
X88360000Y-68540000D02*
X91810000Y-65090000D01*
X160862000Y-65124000D02*
X157306000Y-65124000D01*
X133984400Y-70864400D02*
X128210000Y-65090000D01*
X155223200Y-70864400D02*
X133984400Y-70864400D01*
X156798000Y-69289600D02*
X155223200Y-70864400D01*
X161978000Y-66240000D02*
X160862000Y-65124000D01*
X91810000Y-65090000D02*
X118010000Y-65090000D01*
%TO.N,Net-(D203-A)*%
X142824000Y-80364000D02*
X141018000Y-80364000D01*
%TO.N,Net-(D205-A)*%
X112040000Y-137000000D02*
X112010000Y-137030000D01*
X112040000Y-135190000D02*
X112040000Y-137000000D01*
%TO.N,Net-(D206-A)*%
X145810000Y-124890000D02*
X146610000Y-124890000D01*
X147110000Y-125190000D02*
X147160000Y-125140000D01*
X146610000Y-124890000D02*
X146910000Y-125190000D01*
X146910000Y-125190000D02*
X147110000Y-125190000D01*
X147160000Y-125140000D02*
X147810000Y-125140000D01*
%TO.N,DR0*%
X103284000Y-108500000D02*
X100450000Y-111334000D01*
X114110000Y-111090000D02*
X111520000Y-108500000D01*
X114110000Y-120940000D02*
X114110000Y-111090000D01*
X115110000Y-121940000D02*
X117010000Y-121940000D01*
X125810000Y-112590000D02*
X125810000Y-113602500D01*
X117060000Y-121890000D02*
X117060000Y-112340000D01*
X111520000Y-108500000D02*
X103284000Y-108500000D01*
X124610000Y-111390000D02*
X125810000Y-112590000D01*
X117010000Y-121940000D02*
X117060000Y-121890000D01*
X118010000Y-111390000D02*
X124610000Y-111390000D01*
X115110000Y-121940000D02*
X114110000Y-120940000D01*
X117060000Y-124637000D02*
X117060000Y-121890000D01*
X117060000Y-112340000D02*
X118010000Y-111390000D01*
%TO.N,RX*%
X118510000Y-112790000D02*
X119410000Y-111890000D01*
X117810000Y-136067000D02*
X118510000Y-135367000D01*
X123710000Y-111890000D02*
X124510000Y-112690000D01*
X124510000Y-114842500D02*
X125810000Y-116142500D01*
X118510000Y-135367000D02*
X118510000Y-112790000D01*
X124510000Y-112690000D02*
X124510000Y-114842500D01*
X117060000Y-136067000D02*
X117810000Y-136067000D01*
X119410000Y-111890000D02*
X123710000Y-111890000D01*
%TO.N,TX*%
X117810000Y-137337000D02*
X117060000Y-137337000D01*
X118910000Y-115690000D02*
X118910000Y-136237000D01*
X121917500Y-114790000D02*
X119810000Y-114790000D01*
X118910000Y-136237000D02*
X117810000Y-137337000D01*
X123270000Y-116142500D02*
X121917500Y-114790000D01*
X119810000Y-114790000D02*
X118910000Y-115690000D01*
%TO.N,Net-(D204-A)*%
X141018000Y-77062000D02*
X142824000Y-77062000D01*
%TO.N,/CPU/Vext*%
X109330000Y-79570000D02*
X107335000Y-79570000D01*
X109510000Y-79390000D02*
X109330000Y-79570000D01*
X111610000Y-79390000D02*
X109510000Y-79390000D01*
%TO.N,Net-(J102-Pin_1)*%
X123310000Y-76836000D02*
X123270000Y-76796000D01*
X123310000Y-80872000D02*
X123310000Y-76836000D01*
%TO.N,/CPU/SCL*%
X95972500Y-84740000D02*
X94822500Y-85890000D01*
X94822500Y-85890000D02*
X94810000Y-85890000D01*
X96805000Y-97133000D02*
X96810000Y-97128000D01*
X91753000Y-97133000D02*
X91310010Y-96690010D01*
X125060000Y-59524000D02*
X123270000Y-61314000D01*
X92410000Y-97133000D02*
X92410000Y-98419000D01*
X125060000Y-45312500D02*
X125060000Y-59524000D01*
X92410000Y-97133000D02*
X91753000Y-97133000D01*
X92410000Y-97133000D02*
X94310000Y-97133000D01*
X91310010Y-96690010D02*
X91310010Y-85890000D01*
X92410000Y-98419000D02*
X92060000Y-98769000D01*
X92060000Y-98769000D02*
X92060000Y-100371000D01*
X94310000Y-97133000D02*
X96805000Y-97133000D01*
X92060000Y-100371000D02*
X92010000Y-100421000D01*
%TO.N,/CPU/SDA*%
X98310000Y-96290000D02*
X98310000Y-98190000D01*
X92110000Y-92521000D02*
X92110000Y-82890000D01*
X92410000Y-95833000D02*
X92410000Y-94547000D01*
X126560000Y-59294000D02*
X123778000Y-62076000D01*
X126560000Y-45312500D02*
X126560000Y-59294000D01*
X92410000Y-94547000D02*
X92060000Y-94197000D01*
X96872000Y-99628000D02*
X96810000Y-99628000D01*
X92060000Y-92571000D02*
X92110000Y-92521000D01*
X97853000Y-95833000D02*
X98310000Y-96290000D01*
X92060000Y-94197000D02*
X92060000Y-92571000D01*
X98310000Y-98190000D02*
X96872000Y-99628000D01*
X92410000Y-95833000D02*
X97853000Y-95833000D01*
X95972500Y-82840000D02*
X94938860Y-82840000D01*
X94938860Y-82840000D02*
X94899430Y-82879430D01*
%TO.N,Net-(Q101-D)*%
X122520000Y-76046000D02*
X123270000Y-75296000D01*
X121413500Y-76046000D02*
X122520000Y-76046000D01*
%TO.N,Net-(Q201-G)*%
X103966000Y-126909000D02*
X103935000Y-126940000D01*
X108710000Y-129940000D02*
X108710000Y-130849448D01*
X104430000Y-125310000D02*
X103966000Y-125310000D01*
X109810000Y-128318052D02*
X107761948Y-126270000D01*
X109810000Y-128840000D02*
X109810000Y-128318052D01*
X107761948Y-126270000D02*
X105390000Y-126270000D01*
X109810000Y-128840000D02*
X108710000Y-129940000D01*
X109747500Y-131886948D02*
X109747500Y-132340000D01*
X104240000Y-127245000D02*
X103935000Y-126940000D01*
X102840000Y-125310000D02*
X102310000Y-124780000D01*
X103966000Y-125310000D02*
X103966000Y-126909000D01*
X104972500Y-129402500D02*
X104972500Y-128442500D01*
X103966000Y-125310000D02*
X102840000Y-125310000D01*
X104240000Y-127710000D02*
X104240000Y-127245000D01*
X103935000Y-130440000D02*
X104972500Y-129402500D01*
X105390000Y-126270000D02*
X104430000Y-125310000D01*
X104972500Y-128442500D02*
X104240000Y-127710000D01*
X108710000Y-130849448D02*
X109747500Y-131886948D01*
%TO.N,Net-(J102-Pin_3)*%
X128310000Y-80872000D02*
X128310000Y-76836000D01*
X128310000Y-76836000D02*
X128350000Y-76796000D01*
%TO.N,Net-(J104-Pin_2)*%
X108210000Y-111090000D02*
X107660000Y-111090000D01*
X111210000Y-114090000D02*
X108210000Y-111090000D01*
%TO.N,Net-(J105-Pin_2)*%
X140835000Y-113890000D02*
X141910000Y-113890000D01*
X141910000Y-113890000D02*
X144910000Y-116890000D01*
X144910000Y-116890000D02*
X145560000Y-116890000D01*
%TO.N,Net-(J103-Pin_1)*%
X103510000Y-74490000D02*
X104710000Y-74490000D01*
X98247500Y-82840000D02*
X102260000Y-82840000D01*
X103110000Y-81990000D02*
X103110000Y-74890000D01*
X102260000Y-82840000D02*
X103110000Y-81990000D01*
X107335000Y-74490000D02*
X104710000Y-74490000D01*
X103110000Y-74890000D02*
X103510000Y-74490000D01*
%TO.N,Net-(J103-Pin_2)*%
X107335000Y-77030000D02*
X104770000Y-77030000D01*
X104710000Y-77090000D02*
X104710000Y-83190000D01*
X104710000Y-83190000D02*
X103160000Y-84740000D01*
X103160000Y-84740000D02*
X98247500Y-84740000D01*
X104770000Y-77030000D02*
X104710000Y-77090000D01*
%TO.N,MTDI*%
X134560000Y-116070419D02*
X132092081Y-113602500D01*
X134560000Y-124637000D02*
X134560000Y-116070419D01*
X132092081Y-113602500D02*
X130890000Y-113602500D01*
%TO.N,ESC_SB*%
X134960106Y-128447000D02*
X134560000Y-128447000D01*
X136210000Y-127197106D02*
X134960106Y-128447000D01*
X147447500Y-111390000D02*
X143810000Y-111390000D01*
X138910000Y-112690000D02*
X136210000Y-115390000D01*
X143810000Y-111390000D02*
X142510000Y-112690000D01*
X136210000Y-115390000D02*
X136210000Y-127197106D01*
X147447500Y-111390000D02*
X149110000Y-111390000D01*
X142510000Y-112690000D02*
X138910000Y-112690000D01*
%TO.N,ESC_BB*%
X105172500Y-115690000D02*
X103410000Y-115690000D01*
%TO.N,Net-(BZ101--)*%
X149902000Y-78298000D02*
X148654000Y-78298000D01*
X151340000Y-76860000D02*
X149902000Y-78298000D01*
X157036000Y-76860000D02*
X151340000Y-76860000D01*
X148654000Y-76027500D02*
X148654000Y-78298000D01*
%TO.N,MTDO*%
X122510000Y-126290000D02*
X121365000Y-125145000D01*
X121365000Y-125145000D02*
X121365000Y-123387000D01*
X132610000Y-126090000D02*
X132410000Y-126290000D01*
X132610000Y-117862500D02*
X132610000Y-126090000D01*
X130890000Y-116142500D02*
X132610000Y-117862500D01*
X132410000Y-126290000D02*
X122510000Y-126290000D01*
%TO.N,MTCK*%
X127110000Y-117190000D02*
X130255000Y-120335000D01*
X128350000Y-113602500D02*
X127110000Y-114842500D01*
X127110000Y-114842500D02*
X127110000Y-117190000D01*
X130255000Y-120335000D02*
X130255000Y-123387000D01*
%TO.N,MTMS*%
X133627000Y-125907000D02*
X133310000Y-125590000D01*
X134560000Y-125907000D02*
X133627000Y-125907000D01*
X129702500Y-114790000D02*
X128350000Y-116142500D01*
X131910000Y-114790000D02*
X129702500Y-114790000D01*
X133310000Y-125590000D02*
X133310000Y-116190000D01*
X133310000Y-116190000D02*
X131910000Y-114790000D01*
%TO.N,/CPU/PWR_ESC_SB*%
X107010000Y-122770000D02*
X107010000Y-120990000D01*
%TO.N,/CPU/PWR_ESC_BB*%
X144810000Y-119290000D02*
X144810000Y-120252500D01*
X144810000Y-118390000D02*
X144810000Y-119290000D01*
%TO.N,Net-(J104-Pin_1)*%
X111160000Y-116640000D02*
X111210000Y-116590000D01*
X107447500Y-116640000D02*
X111160000Y-116640000D01*
%TO.N,Net-(D106-A)*%
X145560000Y-115390000D02*
X147060000Y-116890000D01*
X145522500Y-115390000D02*
X145560000Y-115390000D01*
%TO.N,Net-(J105-Pin_1)*%
X142410000Y-111390000D02*
X143360000Y-110440000D01*
X143360000Y-110440000D02*
X145172500Y-110440000D01*
X140835000Y-111390000D02*
X142410000Y-111390000D01*
%TO.N,Net-(U204-FB)*%
X154004000Y-88238000D02*
X154004000Y-90910500D01*
X153363500Y-90910500D02*
X152878500Y-91395500D01*
X154004000Y-90910500D02*
X153363500Y-90910500D01*
X152878500Y-91395500D02*
X152480000Y-91395500D01*
X152480000Y-91395500D02*
X152480000Y-92689500D01*
D75*
%TO.N,Net-(U204-SW)*%
X157822000Y-90910500D02*
X158256000Y-91344500D01*
X155904000Y-90910500D02*
X157822000Y-90910500D01*
D73*
%TO.N,Net-(Q202-G)*%
X141810000Y-125140000D02*
X141810000Y-125790000D01*
X147747500Y-131790000D02*
X147719448Y-131790000D01*
X147747500Y-132340000D02*
X147747500Y-131790000D01*
X141872500Y-127393052D02*
X142439724Y-127960276D01*
X147719448Y-131790000D02*
X146710000Y-130780552D01*
X147729600Y-128090000D02*
X147710000Y-128090000D01*
X146710000Y-130780552D02*
X146710000Y-130090000D01*
X142910000Y-129402500D02*
X141872500Y-130440000D01*
X142910000Y-128430552D02*
X142910000Y-129402500D01*
X141872500Y-126940000D02*
X141872500Y-127393052D01*
X147747500Y-129152500D02*
X147410000Y-129490000D01*
X147710000Y-128070400D02*
X147730200Y-128090600D01*
X147710000Y-128090000D02*
X147710000Y-128070400D01*
X147747500Y-128107900D02*
X147729600Y-128090000D01*
X146710000Y-130090000D02*
X147310000Y-129490000D01*
X147747500Y-128840000D02*
X147747500Y-128107900D01*
X141872500Y-125852500D02*
X141872500Y-126940000D01*
X141862800Y-126930300D02*
X141872500Y-126940000D01*
X141862800Y-130430300D02*
X141872500Y-130440000D01*
X147747500Y-128840000D02*
X147747500Y-129152500D01*
X141810000Y-125790000D02*
X141872500Y-125852500D01*
X142439724Y-127960276D02*
X142910000Y-128430552D01*
X147310000Y-129490000D02*
X147410000Y-129490000D01*
X141810000Y-125140000D02*
X140360000Y-125140000D01*
X140360000Y-125140000D02*
X140310000Y-125090000D01*
%TO.N,Net-(U201-Vsens)*%
X157318000Y-101446000D02*
X158068000Y-101446000D01*
X154160000Y-99922000D02*
X153878000Y-99922000D01*
X152353000Y-101447000D02*
X152353000Y-102006000D01*
X153878000Y-99922000D02*
X152353000Y-101447000D01*
X155794000Y-99922000D02*
X157318000Y-101446000D01*
X154160000Y-99922000D02*
X155794000Y-99922000D01*
D75*
%TO.N,Net-(J202-Pin_5)*%
X113710000Y-92490000D02*
X111310000Y-94890000D01*
X127580000Y-93460000D02*
X126610000Y-92490000D01*
X126610000Y-92490000D02*
X113710000Y-92490000D01*
X127580000Y-95593000D02*
X127580000Y-93460000D01*
%TO.N,Net-(J202-Pin_3)*%
X124040000Y-95593000D02*
X115607000Y-95593000D01*
X115607000Y-95593000D02*
X111310000Y-99890000D01*
%TO.N,Net-(J202-Pin_2)*%
X116648000Y-97152000D02*
X111410000Y-102390000D01*
X123006000Y-97152000D02*
X116648000Y-97152000D01*
X111410000Y-102390000D02*
X111310000Y-102390000D01*
%TO.N,Net-(J202-Pin_1)*%
X111410000Y-104890000D02*
X111310000Y-104890000D01*
X117283000Y-99017000D02*
X111410000Y-104890000D01*
X123138000Y-99017000D02*
X117283000Y-99017000D01*
%TO.N,Net-(J202-Pin_7)*%
X128310000Y-89890000D02*
X139310000Y-89890000D01*
X130910000Y-89890000D02*
X128310000Y-89890000D01*
X128482000Y-99017000D02*
X129683000Y-99017000D01*
X129683000Y-99017000D02*
X130910000Y-97790000D01*
X128310000Y-89890000D02*
X111310000Y-89890000D01*
X130910000Y-97790000D02*
X130910000Y-89890000D01*
%TO.N,Net-(J202-Pin_6)*%
X112710000Y-90990000D02*
X111310000Y-92390000D01*
X129410000Y-96356000D02*
X129410000Y-93090000D01*
X129410000Y-93090000D02*
X127310000Y-90990000D01*
X128614000Y-97152000D02*
X129410000Y-96356000D01*
X127310000Y-90990000D02*
X112710000Y-90990000D01*
%TO.N,Net-(J202-Pin_4)*%
X125810000Y-94990000D02*
X124610000Y-93790000D01*
X114910000Y-93790000D02*
X111310000Y-97390000D01*
X124610000Y-93790000D02*
X114910000Y-93790000D01*
D73*
%TO.N,Net-(J104-Pin_3)*%
X111210000Y-111590000D02*
X109210000Y-109590000D01*
X109210000Y-109590000D02*
X107660000Y-109590000D01*
%TO.N,Net-(Q102-G)*%
X149604000Y-72134000D02*
X149560000Y-72090000D01*
X149604000Y-74152500D02*
X149604000Y-72134000D01*
%TO.N,BUZZER*%
X135810000Y-126990000D02*
X135810000Y-113390000D01*
X148060000Y-72090000D02*
X146210000Y-72090000D01*
X134560000Y-127177000D02*
X135623000Y-127177000D01*
X135810000Y-113390000D02*
X138910000Y-110290000D01*
X146110000Y-72190000D02*
X146110000Y-75842800D01*
X135623000Y-127177000D02*
X135810000Y-126990000D01*
X146210000Y-72090000D02*
X146110000Y-72190000D01*
%TO.N,Net-(J105-Pin_3)*%
X140835000Y-117790000D02*
X140835000Y-117865000D01*
X140835000Y-117865000D02*
X139460000Y-119240000D01*
X140835000Y-116390000D02*
X140835000Y-117790000D01*
X139460000Y-119240000D02*
X139460000Y-119990000D01*
%TO.N,Net-(U202-Y)*%
X106060000Y-125045000D02*
X105665000Y-125045000D01*
X104430000Y-123810000D02*
X103966000Y-123810000D01*
X105665000Y-125045000D02*
X104430000Y-123810000D01*
%TO.N,Net-(U203-Y)*%
X143560000Y-123640000D02*
X143860000Y-123340000D01*
X141810000Y-123640000D02*
X143560000Y-123640000D01*
X143860000Y-123340000D02*
X143860000Y-122527500D01*
%TO.N,/CPU/Vsamp*%
X154310000Y-123990000D02*
X150010000Y-123990000D01*
X137460000Y-128370000D02*
X136986000Y-128370000D01*
X155360000Y-122490000D02*
X155360000Y-122940000D01*
X155360000Y-117490000D02*
X155410000Y-117540000D01*
X135973000Y-133527000D02*
X134560000Y-133527000D01*
X138576000Y-130656000D02*
X139360000Y-130656000D01*
X150010000Y-123990000D02*
X150010000Y-124590000D01*
X137460000Y-129540000D02*
X138576000Y-130656000D01*
X150010000Y-124590000D02*
X149310000Y-125290000D01*
X137460000Y-128370000D02*
X137460000Y-129540000D01*
X136986000Y-128370000D02*
X136210000Y-129146000D01*
X155410000Y-122440000D02*
X155360000Y-122490000D01*
X155360000Y-122940000D02*
X154310000Y-123990000D01*
X136210000Y-129146000D02*
X136210000Y-133290000D01*
X136210000Y-133290000D02*
X135973000Y-133527000D01*
X155410000Y-117540000D02*
X155410000Y-122440000D01*
%TD*%
M02*
