%TF.GenerationSoftware,KiCad,Pcbnew,8.0.1*%
%TF.CreationDate,2024-06-22T00:40:19+02:00*%
%TF.ProjectId,Robuoy-Sub,526f6275-6f79-42d5-9375-622e6b696361,rev?*%
%TF.SameCoordinates,Original*%
%TF.FileFunction,Copper,L4,Bot*%
%TF.FilePolarity,Positive*%
%FSLAX46Y46*%
G04 Gerber Fmt 4.6, Leading zero omitted, Abs format (unit mm)*
G04 Created by KiCad (PCBNEW 8.0.1) date 2024-06-22 00:40:19*
%MOMM*%
%LPD*%
G01*
G04 APERTURE LIST*
G04 Aperture macros list*
%AMRoundRect*
0 Rectangle with rounded corners*
0 $1 Rounding radius*
0 $2 $3 $4 $5 $6 $7 $8 $9 X,Y pos of 4 corners*
0 Add a 4 corners polygon primitive as box body*
4,1,4,$2,$3,$4,$5,$6,$7,$8,$9,$2,$3,0*
0 Add four circle primitives for the rounded corners*
1,1,$1+$1,$2,$3*
1,1,$1+$1,$4,$5*
1,1,$1+$1,$6,$7*
1,1,$1+$1,$8,$9*
0 Add four rect primitives between the rounded corners*
20,1,$1+$1,$2,$3,$4,$5,0*
20,1,$1+$1,$4,$5,$6,$7,0*
20,1,$1+$1,$6,$7,$8,$9,0*
20,1,$1+$1,$8,$9,$2,$3,0*%
G04 Aperture macros list end*
%TA.AperFunction,ComponentPad*%
%ADD10RoundRect,1.500000X1.500000X1.500000X-1.500000X1.500000X-1.500000X-1.500000X1.500000X-1.500000X0*%
%TD*%
%TA.AperFunction,ComponentPad*%
%ADD11C,6.000000*%
%TD*%
%TA.AperFunction,ComponentPad*%
%ADD12RoundRect,0.250000X0.600000X-0.600000X0.600000X0.600000X-0.600000X0.600000X-0.600000X-0.600000X0*%
%TD*%
%TA.AperFunction,ComponentPad*%
%ADD13C,1.700000*%
%TD*%
%TA.AperFunction,ComponentPad*%
%ADD14RoundRect,0.250000X0.725000X-0.600000X0.725000X0.600000X-0.725000X0.600000X-0.725000X-0.600000X0*%
%TD*%
%TA.AperFunction,ComponentPad*%
%ADD15O,1.950000X1.700000*%
%TD*%
%TA.AperFunction,ComponentPad*%
%ADD16O,1.700000X1.700000*%
%TD*%
%TA.AperFunction,ComponentPad*%
%ADD17R,1.700000X1.700000*%
%TD*%
%TA.AperFunction,ComponentPad*%
%ADD18C,3.000000*%
%TD*%
%TA.AperFunction,ComponentPad*%
%ADD19R,1.300000X1.300000*%
%TD*%
%TA.AperFunction,ComponentPad*%
%ADD20C,1.300000*%
%TD*%
%TA.AperFunction,ComponentPad*%
%ADD21C,1.524000*%
%TD*%
%TA.AperFunction,ComponentPad*%
%ADD22RoundRect,1.500000X-1.500000X-1.500000X1.500000X-1.500000X1.500000X1.500000X-1.500000X1.500000X0*%
%TD*%
%TA.AperFunction,ComponentPad*%
%ADD23RoundRect,0.250000X-0.725000X0.600000X-0.725000X-0.600000X0.725000X-0.600000X0.725000X0.600000X0*%
%TD*%
%TA.AperFunction,ComponentPad*%
%ADD24C,3.500000*%
%TD*%
%TA.AperFunction,ComponentPad*%
%ADD25R,1.650000X1.650000*%
%TD*%
%TA.AperFunction,HeatsinkPad*%
%ADD26C,0.500000*%
%TD*%
%TA.AperFunction,HeatsinkPad*%
%ADD27R,3.200000X2.400000*%
%TD*%
%TA.AperFunction,ComponentPad*%
%ADD28RoundRect,0.250000X-0.600000X-0.725000X0.600000X-0.725000X0.600000X0.725000X-0.600000X0.725000X0*%
%TD*%
%TA.AperFunction,ComponentPad*%
%ADD29O,1.700000X1.950000*%
%TD*%
%TA.AperFunction,ViaPad*%
%ADD30C,0.450000*%
%TD*%
%TA.AperFunction,ViaPad*%
%ADD31C,0.900000*%
%TD*%
%TA.AperFunction,ViaPad*%
%ADD32C,0.600000*%
%TD*%
%TA.AperFunction,Conductor*%
%ADD33C,0.200000*%
%TD*%
%TA.AperFunction,Conductor*%
%ADD34C,0.400000*%
%TD*%
%TA.AperFunction,Conductor*%
%ADD35C,0.600000*%
%TD*%
%TA.AperFunction,Conductor*%
%ADD36C,0.800000*%
%TD*%
%TA.AperFunction,Conductor*%
%ADD37C,0.127000*%
%TD*%
G04 APERTURE END LIST*
D10*
%TO.P,J206,1,Pin_1*%
%TO.N,Net-(D205-K)*%
X106410000Y-137890000D03*
D11*
%TO.P,J206,2,Pin_2*%
%TO.N,Vbatt*%
X99210000Y-137890000D03*
%TD*%
D12*
%TO.P,J101,1,Pin_1*%
%TO.N,EN*%
X120730000Y-116142500D03*
D13*
%TO.P,J101,2,Pin_2*%
%TO.N,+3.3V*%
X120730000Y-113602500D03*
%TO.P,J101,3,Pin_3*%
%TO.N,TX*%
X123270000Y-116142500D03*
%TO.P,J101,4,Pin_4*%
%TO.N,GND*%
X123270000Y-113602500D03*
%TO.P,J101,5,Pin_5*%
%TO.N,RX*%
X125810000Y-116142500D03*
%TO.P,J101,6,Pin_6*%
%TO.N,DR0*%
X125810000Y-113602500D03*
%TO.P,J101,7,Pin_7*%
%TO.N,MTMS*%
X128350000Y-116142500D03*
%TO.P,J101,8,Pin_8*%
%TO.N,MTCK*%
X128350000Y-113602500D03*
%TO.P,J101,9,Pin_9*%
%TO.N,MTDO*%
X130890000Y-116142500D03*
%TO.P,J101,10,Pin_10*%
%TO.N,MTDI*%
X130890000Y-113602500D03*
%TD*%
D14*
%TO.P,J104,1,Pin_1*%
%TO.N,Net-(J104-Pin_1)*%
X111210000Y-116590000D03*
D15*
%TO.P,J104,2,Pin_2*%
%TO.N,Net-(J104-Pin_2)*%
X111210000Y-114090000D03*
%TO.P,J104,3,Pin_3*%
%TO.N,Net-(J104-Pin_3)*%
X111210000Y-111590000D03*
%TD*%
D16*
%TO.P,SW102,2,2*%
%TO.N,EN*%
X100450000Y-114890000D03*
D17*
%TO.P,SW102,1,1*%
%TO.N,GND*%
X97910000Y-114890000D03*
%TD*%
D18*
%TO.P,TP206,1,1*%
%TO.N,GND*%
X125810000Y-67890000D03*
%TD*%
D19*
%TO.P,J204,1,Pin_1*%
%TO.N,GND*%
X124382000Y-100414000D03*
D20*
%TO.P,J204,2,Pin_2*%
%TO.N,Vbatt*%
X127238000Y-100414000D03*
%TO.P,J204,3,Pin_3*%
%TO.N,Net-(J202-Pin_7)*%
X128482000Y-99017000D03*
%TO.P,J204,4,Pin_4*%
%TO.N,Net-(J202-Pin_6)*%
X128614000Y-97152000D03*
%TO.P,J204,5,Pin_5*%
%TO.N,Net-(J202-Pin_5)*%
X127580000Y-95593000D03*
%TO.P,J204,6,Pin_6*%
%TO.N,Net-(J202-Pin_4)*%
X125810000Y-94990000D03*
%TO.P,J204,7,Pin_7*%
%TO.N,Net-(J202-Pin_3)*%
X124040000Y-95593000D03*
%TO.P,J204,8,Pin_8*%
%TO.N,Net-(J202-Pin_2)*%
X123006000Y-97152000D03*
%TO.P,J204,9,Pin_9*%
%TO.N,Net-(J202-Pin_1)*%
X123138000Y-99017000D03*
%TO.P,J204,10,Pin_10*%
%TO.N,+VSW*%
X125810000Y-98990000D03*
%TO.P,J204,11,Pin_11*%
%TO.N,Vbatt*%
X126763000Y-97340000D03*
%TO.P,J204,12,Pin_12*%
%TO.N,GND*%
X124857000Y-97340000D03*
%TD*%
D17*
%TO.P,J103,1,Pin_1*%
%TO.N,Net-(J103-Pin_1)*%
X107335000Y-74490000D03*
D16*
%TO.P,J103,2,Pin_2*%
%TO.N,Net-(J103-Pin_2)*%
X107335000Y-77030000D03*
%TO.P,J103,3,Pin_3*%
%TO.N,/CPU/Vext*%
X107335000Y-79570000D03*
%TO.P,J103,4,Pin_4*%
%TO.N,GND*%
X107335000Y-82110000D03*
%TD*%
D14*
%TO.P,J202,1,Pin_1*%
%TO.N,Net-(J202-Pin_1)*%
X111310000Y-104890000D03*
D15*
%TO.P,J202,2,Pin_2*%
%TO.N,Net-(J202-Pin_2)*%
X111310000Y-102390000D03*
%TO.P,J202,3,Pin_3*%
%TO.N,Net-(J202-Pin_3)*%
X111310000Y-99890000D03*
%TO.P,J202,4,Pin_4*%
%TO.N,Net-(J202-Pin_4)*%
X111310000Y-97390000D03*
%TO.P,J202,5,Pin_5*%
%TO.N,Net-(J202-Pin_5)*%
X111310000Y-94890000D03*
%TO.P,J202,6,Pin_6*%
%TO.N,Net-(J202-Pin_6)*%
X111310000Y-92390000D03*
%TO.P,J202,7,Pin_7*%
%TO.N,Net-(J202-Pin_7)*%
X111310000Y-89890000D03*
%TD*%
D21*
%TO.P,TP301,1,1*%
%TO.N,unconnected-(TP301-Pad1)*%
X135970000Y-59790000D03*
%TO.P,TP301,2*%
%TO.N,N/C*%
X138510000Y-59790000D03*
%TO.P,TP301,3*%
X141050000Y-59790000D03*
%TO.P,TP301,4*%
X143590000Y-59790000D03*
%TO.P,TP301,5*%
X135970000Y-62330000D03*
%TO.P,TP301,6*%
X138510000Y-62330000D03*
%TO.P,TP301,7*%
X141050000Y-62330000D03*
%TO.P,TP301,8*%
X143590000Y-62330000D03*
%TO.P,TP301,9*%
X135970000Y-64870000D03*
%TO.P,TP301,10*%
X138510000Y-64870000D03*
%TO.P,TP301,11*%
X141050000Y-64870000D03*
%TO.P,TP301,12*%
X143590000Y-64870000D03*
%TO.P,TP301,13*%
X135970000Y-67410000D03*
%TO.P,TP301,14*%
X138510000Y-67410000D03*
%TO.P,TP301,15*%
X141050000Y-67410000D03*
%TO.P,TP301,16*%
X143590000Y-67410000D03*
%TD*%
D22*
%TO.P,J205,1,Pin_1*%
%TO.N,GND*%
X153810000Y-127890000D03*
D11*
%TO.P,J205,2,Pin_2*%
%TO.N,Vbatt*%
X161010000Y-127890000D03*
%TD*%
D23*
%TO.P,J105,1,Pin_1*%
%TO.N,Net-(J105-Pin_1)*%
X140835000Y-111390000D03*
D15*
%TO.P,J105,2,Pin_2*%
%TO.N,Net-(J105-Pin_2)*%
X140835000Y-113890000D03*
%TO.P,J105,3,Pin_3*%
%TO.N,Net-(J105-Pin_3)*%
X140835000Y-116390000D03*
%TD*%
D24*
%TO.P,SW201,1*%
%TO.N,Vbatt*%
X162132000Y-121132000D03*
%TO.P,SW201,2*%
%TO.N,+VSW*%
X162132000Y-116432000D03*
%TO.P,SW201,3*%
%TO.N,unconnected-(SW201-Pad3)*%
X162132000Y-111732000D03*
%TD*%
D14*
%TO.P,J203,1,Pin_1*%
%TO.N,Net-(J202-Pin_1)*%
X139310000Y-104890000D03*
D15*
%TO.P,J203,2,Pin_2*%
%TO.N,Net-(J202-Pin_2)*%
X139310000Y-102390000D03*
%TO.P,J203,3,Pin_3*%
%TO.N,Net-(J202-Pin_3)*%
X139310000Y-99890000D03*
%TO.P,J203,4,Pin_4*%
%TO.N,Net-(J202-Pin_4)*%
X139310000Y-97390000D03*
%TO.P,J203,5,Pin_5*%
%TO.N,Net-(J202-Pin_5)*%
X139310000Y-94890000D03*
%TO.P,J203,6,Pin_6*%
%TO.N,Net-(J202-Pin_6)*%
X139310000Y-92390000D03*
%TO.P,J203,7,Pin_7*%
%TO.N,Net-(J202-Pin_7)*%
X139310000Y-89890000D03*
%TD*%
D10*
%TO.P,J201,1,Pin_1*%
%TO.N,GND*%
X97810000Y-127890000D03*
D11*
%TO.P,J201,2,Pin_2*%
%TO.N,Vbatt*%
X90610000Y-127890000D03*
%TD*%
D23*
%TO.P,J106,1,Pin_1*%
%TO.N,GND*%
X96810000Y-92128000D03*
D15*
%TO.P,J106,2,Pin_2*%
%TO.N,+5V*%
X96810000Y-94628000D03*
%TO.P,J106,3,Pin_3*%
%TO.N,/CPU/SCL*%
X96810000Y-97128000D03*
%TO.P,J106,4,Pin_4*%
%TO.N,/CPU/SDA*%
X96810000Y-99628000D03*
%TD*%
D25*
%TO.P,BZ101,1,+*%
%TO.N,+5V*%
X157036000Y-83360000D03*
D13*
%TO.P,BZ101,2,-*%
%TO.N,Net-(BZ101--)*%
X157036000Y-76860000D03*
%TD*%
D26*
%TO.P,U201,9,PAD*%
%TO.N,GND*%
X155608000Y-103706000D03*
X154258000Y-103706000D03*
X152908000Y-103706000D03*
D27*
X154258000Y-104656000D03*
D26*
X155608000Y-105606000D03*
X154258000Y-105606000D03*
X152908000Y-105606000D03*
%TD*%
D21*
%TO.P,TP302,1,1*%
%TO.N,unconnected-(TP302-Pad1)*%
X146130000Y-59790000D03*
%TO.P,TP302,2*%
%TO.N,N/C*%
X148670000Y-59790000D03*
%TO.P,TP302,3*%
X151210000Y-59790000D03*
%TO.P,TP302,4*%
X153750000Y-59790000D03*
%TO.P,TP302,5*%
X146130000Y-62330000D03*
%TO.P,TP302,6*%
X148670000Y-62330000D03*
%TO.P,TP302,7*%
X151210000Y-62330000D03*
%TO.P,TP302,8*%
X153750000Y-62330000D03*
%TO.P,TP302,9*%
X146130000Y-64870000D03*
%TO.P,TP302,10*%
X148670000Y-64870000D03*
%TO.P,TP302,11*%
X151210000Y-64870000D03*
%TO.P,TP302,12*%
X153750000Y-64870000D03*
%TO.P,TP302,13*%
X146130000Y-67410000D03*
%TO.P,TP302,14*%
X148670000Y-67410000D03*
%TO.P,TP302,15*%
X151210000Y-67410000D03*
%TO.P,TP302,16*%
X153750000Y-67410000D03*
%TD*%
D22*
%TO.P,J207,1,Pin_1*%
%TO.N,Net-(D206-K)*%
X145210000Y-137890000D03*
D11*
%TO.P,J207,2,Pin_2*%
%TO.N,Vbatt*%
X152410000Y-137890000D03*
%TD*%
D28*
%TO.P,J102,1,Pin_1*%
%TO.N,Net-(J102-Pin_1)*%
X123310000Y-80872000D03*
D29*
%TO.P,J102,2,Pin_2*%
%TO.N,+3.3V*%
X125810000Y-80872000D03*
%TO.P,J102,3,Pin_3*%
%TO.N,Net-(J102-Pin_3)*%
X128310000Y-80872000D03*
%TD*%
D17*
%TO.P,SW101,1,1*%
%TO.N,GND*%
X97910000Y-111334000D03*
D16*
%TO.P,SW101,2,2*%
%TO.N,DR0*%
X100450000Y-111334000D03*
%TD*%
D30*
%TO.N,GND*%
X91520000Y-115416000D03*
X147810000Y-119690000D03*
%TO.N,+5V*%
X110810000Y-124590000D03*
%TO.N,GND*%
X142210000Y-119890000D03*
X138710000Y-118690000D03*
X140110000Y-140590000D03*
%TO.N,/CPU/SDA*%
X126560000Y-43940000D03*
%TO.N,/CPU/SCL*%
X125010000Y-43990000D03*
%TO.N,/CPU/SDA*%
X94899430Y-82879430D03*
X92110000Y-82890000D03*
%TO.N,/CPU/SCL*%
X91310010Y-85890000D03*
X94810000Y-85890000D03*
%TO.N,GND*%
X89410000Y-96390000D03*
%TO.N,+5V*%
X102410000Y-120990000D03*
X102410000Y-117090000D03*
D31*
%TO.N,GND*%
X162410000Y-63790000D03*
X163810000Y-68190000D03*
%TO.N,Net-(D104-DOUT)*%
X128210000Y-65090000D03*
X118010000Y-65090000D03*
%TO.N,GND*%
X92710000Y-63890000D03*
X94910000Y-69490000D03*
%TO.N,+5V*%
X106710000Y-85290000D03*
D30*
%TO.N,+3.3V*%
X117910000Y-81690000D03*
X94710000Y-83790000D03*
%TO.N,GND*%
X99610000Y-83790000D03*
%TO.N,EN*%
X113410000Y-116090012D03*
%TO.N,LEDS*%
X115210000Y-131990000D03*
X89210000Y-133090000D03*
%TO.N,+3.3V*%
X90310000Y-109190000D03*
%TO.N,GND*%
X93210000Y-118210000D03*
%TO.N,BUZZER*%
X146110000Y-75842800D03*
X143010000Y-85790000D03*
X140310000Y-108290000D03*
X138910000Y-110290000D03*
%TO.N,GND*%
X131010000Y-76790000D03*
X118210000Y-80090000D03*
%TO.N,+3.3V*%
X99310000Y-106090000D03*
X115217500Y-108090000D03*
%TO.N,GND*%
X98212322Y-106432223D03*
X93210000Y-96490000D03*
D31*
X130010000Y-101090000D03*
X122311041Y-100788959D03*
D30*
X148110000Y-115390000D03*
X148110000Y-114090000D03*
X150410000Y-112090000D03*
D31*
X140510000Y-127690000D03*
X140310000Y-130190000D03*
X140910000Y-132290000D03*
X141010000Y-138290000D03*
D30*
X155510000Y-112190000D03*
X148610000Y-110190000D03*
X117910000Y-76990000D03*
%TO.N,+5V*%
X146310000Y-111965000D03*
X150910000Y-109190000D03*
%TO.N,GND*%
X153510000Y-99090000D03*
X143110000Y-119990000D03*
X140510000Y-131190000D03*
X111659999Y-127990630D03*
X111710000Y-125990000D03*
X111810000Y-131190000D03*
X111810000Y-129590000D03*
X104510000Y-113190000D03*
X106810000Y-115690000D03*
X103110000Y-110190000D03*
%TO.N,Net-(Q202-G)*%
X142439724Y-127960276D03*
X147710000Y-128090000D03*
%TO.N,/CPU/Vsamp*%
X138910000Y-126390000D03*
X149310000Y-125290000D03*
D32*
%TO.N,GND*%
X154010000Y-96890000D03*
X154410000Y-97490000D03*
X161310000Y-88990000D03*
X163310000Y-90190000D03*
X161310000Y-91890000D03*
X139010000Y-78490000D03*
X147610000Y-75790000D03*
X156110000Y-119890000D03*
X151510000Y-119690000D03*
X151510000Y-117490000D03*
X151510000Y-115190000D03*
D31*
%TO.N,Vbatt*%
X122110000Y-107390000D03*
X132210000Y-107290000D03*
X130910000Y-105990000D03*
X123510000Y-105990000D03*
D30*
X131610000Y-106690000D03*
X122710000Y-106790000D03*
%TO.N,GND*%
X108713464Y-122686536D03*
X106010000Y-121690000D03*
D31*
X126710000Y-133790000D03*
X124310000Y-136190000D03*
X129010000Y-136190000D03*
X129010000Y-131490000D03*
X124310000Y-131490000D03*
X115510000Y-141190000D03*
X118610000Y-141190000D03*
X131510000Y-125190000D03*
%TO.N,+3.3V*%
X161624000Y-97636000D03*
%TO.N,GND*%
X160354000Y-95096000D03*
X163402000Y-97382000D03*
X140542000Y-128878000D03*
X111150000Y-130450000D03*
X110100000Y-141480000D03*
D30*
X152480000Y-89000000D03*
D31*
X142320000Y-133704000D03*
X149686000Y-128390000D03*
X132871200Y-141171600D03*
X163402000Y-94842000D03*
X111210000Y-126950000D03*
D30*
X155020000Y-89762000D03*
D31*
X159846000Y-97382000D03*
%TD*%
D33*
%TO.N,BUZZER*%
X143010000Y-78942800D02*
X146110000Y-75842800D01*
X143010000Y-85790000D02*
X143010000Y-78942800D01*
%TO.N,/CPU/SCL*%
X91310000Y-77690000D02*
X91310000Y-85889990D01*
X91310000Y-85889990D02*
X91310010Y-85890000D01*
X125010000Y-43990000D02*
X91310000Y-77690000D01*
%TO.N,/CPU/SDA*%
X92110000Y-77455686D02*
X92110000Y-82890000D01*
X124875686Y-44690000D02*
X92110000Y-77455686D01*
X125810000Y-44690000D02*
X124875686Y-44690000D01*
X126560000Y-43940000D02*
X125810000Y-44690000D01*
%TO.N,+3.3V*%
X116210000Y-83390000D02*
X117910000Y-81690000D01*
X101010000Y-83390000D02*
X116210000Y-83390000D01*
X98510000Y-83190000D02*
X100810000Y-83190000D01*
X100810000Y-83190000D02*
X101010000Y-83390000D01*
X97910000Y-83790000D02*
X98510000Y-83190000D01*
X94710000Y-83790000D02*
X97910000Y-83790000D01*
D34*
%TO.N,+5V*%
X99610000Y-86590000D02*
X99610000Y-91828000D01*
X99610000Y-91828000D02*
X96810000Y-94628000D01*
X100910000Y-85290000D02*
X99610000Y-86590000D01*
X106710000Y-85290000D02*
X100910000Y-85290000D01*
D33*
%TO.N,BUZZER*%
X138910000Y-109690000D02*
X138910000Y-110290000D01*
X140310000Y-108290000D02*
X138910000Y-109690000D01*
D34*
%TO.N,+5V*%
X141110000Y-119590000D02*
X115810000Y-119590000D01*
X146310000Y-114390000D02*
X141110000Y-119590000D01*
X146310000Y-111965000D02*
X146310000Y-114390000D01*
X115810000Y-119590000D02*
X110810000Y-124590000D01*
D33*
%TO.N,/CPU/SCL*%
X94810000Y-85890000D02*
X91310010Y-85890000D01*
%TO.N,/CPU/SDA*%
X94888860Y-82890000D02*
X94899430Y-82879430D01*
X92110000Y-82890000D02*
X94888860Y-82890000D01*
%TO.N,+5V*%
X102410000Y-117090000D02*
X102410000Y-120990000D01*
D35*
%TO.N,+3.3V*%
X100010000Y-109190000D02*
X90310000Y-109190000D01*
X100010000Y-109190000D02*
X99710000Y-109190000D01*
X101310000Y-109190000D02*
X100010000Y-109190000D01*
D33*
%TO.N,Net-(D104-DOUT)*%
X118010000Y-65090000D02*
X128210000Y-65090000D01*
D35*
%TO.N,+3.3V*%
X108510000Y-105290000D02*
X108510000Y-107990000D01*
X108510000Y-107990000D02*
X108610000Y-108090000D01*
X108610000Y-108090000D02*
X115217500Y-108090000D01*
D33*
%TO.N,EN*%
X113462488Y-116142500D02*
X113410000Y-116090012D01*
X120730000Y-116142500D02*
X113462488Y-116142500D01*
%TO.N,LEDS*%
X114110000Y-133090000D02*
X115210000Y-131990000D01*
X89210000Y-133090000D02*
X114110000Y-133090000D01*
D35*
%TO.N,+3.3V*%
X107610000Y-109190000D02*
X101310000Y-109190000D01*
X99710000Y-109190000D02*
X99310000Y-108790000D01*
X99310000Y-108790000D02*
X99310000Y-106090000D01*
X108510000Y-105290000D02*
X108510000Y-108290000D01*
X108510000Y-108290000D02*
X107610000Y-109190000D01*
D34*
%TO.N,Net-(J202-Pin_2)*%
X136610000Y-102390000D02*
X139310000Y-102390000D01*
X114510000Y-103890000D02*
X135110000Y-103890000D01*
X113010000Y-102390000D02*
X114510000Y-103890000D01*
X111310000Y-102390000D02*
X113010000Y-102390000D01*
X135110000Y-103890000D02*
X136610000Y-102390000D01*
%TO.N,Net-(J202-Pin_3)*%
X134410000Y-102990000D02*
X137510000Y-99890000D01*
X121110000Y-96790000D02*
X121110000Y-101490000D01*
X122610000Y-102990000D02*
X134410000Y-102990000D01*
X122307000Y-95593000D02*
X121110000Y-96790000D01*
X121110000Y-101490000D02*
X122610000Y-102990000D01*
X124040000Y-95593000D02*
X122307000Y-95593000D01*
X137510000Y-99890000D02*
X139310000Y-99890000D01*
D36*
%TO.N,GND*%
X125958000Y-101990000D02*
X129110000Y-101990000D01*
X129110000Y-101990000D02*
X130010000Y-101090000D01*
X124382000Y-100414000D02*
X125958000Y-101990000D01*
D35*
X122312082Y-100790000D02*
X122311041Y-100788959D01*
X124006000Y-100790000D02*
X122312082Y-100790000D01*
X124382000Y-100414000D02*
X124006000Y-100790000D01*
%TO.N,+3.3V*%
X115217500Y-108090000D02*
X120730000Y-113602500D01*
X108510000Y-89490000D02*
X108510000Y-105290000D01*
X111310000Y-86690000D02*
X108510000Y-89490000D01*
X123010000Y-86690000D02*
X111310000Y-86690000D01*
X125810000Y-83890000D02*
X123010000Y-86690000D01*
X125810000Y-80872000D02*
X125810000Y-83890000D01*
D33*
%TO.N,/CPU/Vsamp*%
X140010000Y-125290000D02*
X138910000Y-126390000D01*
X149310000Y-125290000D02*
X140010000Y-125290000D01*
D34*
%TO.N,+5V*%
X146310000Y-110113280D02*
X146310000Y-111965000D01*
X147233280Y-109190000D02*
X146310000Y-110113280D01*
X150910000Y-109190000D02*
X147233280Y-109190000D01*
D33*
%TO.N,Net-(Q202-G)*%
X142569448Y-128090000D02*
X142439724Y-127960276D01*
X147710000Y-128090000D02*
X142569448Y-128090000D01*
D35*
%TO.N,Vbatt*%
X126763000Y-97340000D02*
X127238000Y-97815000D01*
X127238000Y-97815000D02*
X127238000Y-100414000D01*
D34*
%TO.N,Net-(J202-Pin_4)*%
X127010000Y-93790000D02*
X125810000Y-94990000D01*
X135710000Y-93790000D02*
X127010000Y-93790000D01*
X135710000Y-93790000D02*
X139310000Y-97390000D01*
%TO.N,Net-(J202-Pin_5)*%
X136910000Y-92490000D02*
X139310000Y-94890000D01*
X113710000Y-92490000D02*
X136910000Y-92490000D01*
X111310000Y-94890000D02*
X113710000Y-92490000D01*
%TO.N,Net-(J202-Pin_6)*%
X112710000Y-90990000D02*
X111310000Y-92390000D01*
X137910000Y-90990000D02*
X112710000Y-90990000D01*
X139310000Y-92390000D02*
X137910000Y-90990000D01*
D36*
%TO.N,GND*%
X124388000Y-100408000D02*
X124382000Y-100414000D01*
X124857000Y-97340000D02*
X124388000Y-97809000D01*
X124388000Y-97809000D02*
X124388000Y-100408000D01*
D34*
%TO.N,Net-(J202-Pin_1)*%
X111310000Y-104890000D02*
X139310000Y-104890000D01*
D37*
%TO.N,GND*%
X124857000Y-97340000D02*
X124495115Y-97340000D01*
%TD*%
%TA.AperFunction,Conductor*%
%TO.N,GND*%
G36*
X159789039Y-99941685D02*
G01*
X159834794Y-99994489D01*
X159846000Y-100046000D01*
X159846000Y-110469492D01*
X159826315Y-110536531D01*
X159773511Y-110582286D01*
X159725541Y-110593441D01*
X151083541Y-110840355D01*
X151015967Y-110822594D01*
X150968723Y-110771118D01*
X150956000Y-110716406D01*
X150956000Y-109764893D01*
X150975685Y-109697854D01*
X151028489Y-109652099D01*
X151045065Y-109645916D01*
X151066012Y-109639765D01*
X151109561Y-109626978D01*
X151224589Y-109553055D01*
X151314130Y-109449718D01*
X151370931Y-109325342D01*
X151390390Y-109190000D01*
X151370931Y-109054658D01*
X151358677Y-109027827D01*
X151314132Y-108930285D01*
X151314127Y-108930278D01*
X151224590Y-108826946D01*
X151224586Y-108826942D01*
X151109559Y-108753021D01*
X151045064Y-108734083D01*
X150986286Y-108696308D01*
X150957262Y-108632752D01*
X150956000Y-108615106D01*
X150956000Y-106286266D01*
X152581285Y-106286266D01*
X152740056Y-106341824D01*
X152907996Y-106360746D01*
X152908004Y-106360746D01*
X153075943Y-106341824D01*
X153234713Y-106286267D01*
X153234714Y-106286266D01*
X153931285Y-106286266D01*
X154090056Y-106341824D01*
X154257996Y-106360746D01*
X154258004Y-106360746D01*
X154425943Y-106341824D01*
X154584713Y-106286267D01*
X154584714Y-106286266D01*
X155281285Y-106286266D01*
X155440056Y-106341824D01*
X155607996Y-106360746D01*
X155608004Y-106360746D01*
X155775943Y-106341824D01*
X155934713Y-106286267D01*
X155934714Y-106286266D01*
X155608001Y-105959553D01*
X155608000Y-105959553D01*
X155281285Y-106286266D01*
X154584714Y-106286266D01*
X154258001Y-105959553D01*
X154258000Y-105959553D01*
X153931285Y-106286266D01*
X153234714Y-106286266D01*
X152908001Y-105959553D01*
X152908000Y-105959553D01*
X152581285Y-106286266D01*
X150956000Y-106286266D01*
X150956000Y-105606003D01*
X152153254Y-105606003D01*
X152172175Y-105773938D01*
X152172176Y-105773943D01*
X152227732Y-105932714D01*
X152534556Y-105625891D01*
X152808000Y-105625891D01*
X152823224Y-105662645D01*
X152851355Y-105690776D01*
X152888109Y-105706000D01*
X152927891Y-105706000D01*
X152964645Y-105690776D01*
X152992776Y-105662645D01*
X153008000Y-105625891D01*
X153008000Y-105606000D01*
X153261553Y-105606000D01*
X153583000Y-105927447D01*
X153884556Y-105625891D01*
X154158000Y-105625891D01*
X154173224Y-105662645D01*
X154201355Y-105690776D01*
X154238109Y-105706000D01*
X154277891Y-105706000D01*
X154314645Y-105690776D01*
X154342776Y-105662645D01*
X154358000Y-105625891D01*
X154358000Y-105606000D01*
X154611553Y-105606000D01*
X154933000Y-105927447D01*
X155234556Y-105625891D01*
X155508000Y-105625891D01*
X155523224Y-105662645D01*
X155551355Y-105690776D01*
X155588109Y-105706000D01*
X155627891Y-105706000D01*
X155664645Y-105690776D01*
X155692776Y-105662645D01*
X155708000Y-105625891D01*
X155708000Y-105606001D01*
X155961553Y-105606001D01*
X156288266Y-105932714D01*
X156288267Y-105932713D01*
X156343824Y-105773943D01*
X156362746Y-105606003D01*
X156362746Y-105605996D01*
X156343824Y-105438056D01*
X156288266Y-105279285D01*
X155961553Y-105605999D01*
X155961553Y-105606001D01*
X155708000Y-105606001D01*
X155708000Y-105586109D01*
X155692776Y-105549355D01*
X155664645Y-105521224D01*
X155627891Y-105506000D01*
X155588109Y-105506000D01*
X155551355Y-105521224D01*
X155523224Y-105549355D01*
X155508000Y-105586109D01*
X155508000Y-105625891D01*
X155234556Y-105625891D01*
X155254447Y-105606000D01*
X154933000Y-105284553D01*
X154611553Y-105606000D01*
X154358000Y-105606000D01*
X154358000Y-105586109D01*
X154342776Y-105549355D01*
X154314645Y-105521224D01*
X154277891Y-105506000D01*
X154238109Y-105506000D01*
X154201355Y-105521224D01*
X154173224Y-105549355D01*
X154158000Y-105586109D01*
X154158000Y-105625891D01*
X153884556Y-105625891D01*
X153904447Y-105606000D01*
X153583000Y-105284553D01*
X153261553Y-105606000D01*
X153008000Y-105606000D01*
X153008000Y-105586109D01*
X152992776Y-105549355D01*
X152964645Y-105521224D01*
X152927891Y-105506000D01*
X152888109Y-105506000D01*
X152851355Y-105521224D01*
X152823224Y-105549355D01*
X152808000Y-105586109D01*
X152808000Y-105625891D01*
X152534556Y-105625891D01*
X152554447Y-105606000D01*
X152227732Y-105279285D01*
X152172176Y-105438053D01*
X152172175Y-105438058D01*
X152153254Y-105605996D01*
X152153254Y-105606003D01*
X150956000Y-105606003D01*
X150956000Y-104925732D01*
X152581285Y-104925732D01*
X152908000Y-105252447D01*
X152908001Y-105252447D01*
X153234714Y-104925732D01*
X153931285Y-104925732D01*
X154258000Y-105252447D01*
X154258001Y-105252447D01*
X154584714Y-104925732D01*
X155281285Y-104925732D01*
X155608000Y-105252447D01*
X155608001Y-105252447D01*
X155934714Y-104925732D01*
X155775943Y-104870176D01*
X155775938Y-104870175D01*
X155608004Y-104851254D01*
X155607996Y-104851254D01*
X155440058Y-104870175D01*
X155440053Y-104870176D01*
X155281285Y-104925732D01*
X154584714Y-104925732D01*
X154425943Y-104870176D01*
X154425938Y-104870175D01*
X154258004Y-104851254D01*
X154257996Y-104851254D01*
X154090058Y-104870175D01*
X154090053Y-104870176D01*
X153931285Y-104925732D01*
X153234714Y-104925732D01*
X153075943Y-104870176D01*
X153075938Y-104870175D01*
X152908004Y-104851254D01*
X152907996Y-104851254D01*
X152740058Y-104870175D01*
X152740053Y-104870176D01*
X152581285Y-104925732D01*
X150956000Y-104925732D01*
X150956000Y-104386266D01*
X152581285Y-104386266D01*
X152740056Y-104441824D01*
X152907996Y-104460746D01*
X152908004Y-104460746D01*
X153075943Y-104441824D01*
X153234713Y-104386267D01*
X153234714Y-104386266D01*
X153931285Y-104386266D01*
X154090056Y-104441824D01*
X154257996Y-104460746D01*
X154258004Y-104460746D01*
X154425943Y-104441824D01*
X154584713Y-104386267D01*
X154584714Y-104386266D01*
X155281285Y-104386266D01*
X155440056Y-104441824D01*
X155607996Y-104460746D01*
X155608004Y-104460746D01*
X155775943Y-104441824D01*
X155934713Y-104386267D01*
X155934714Y-104386266D01*
X155608001Y-104059553D01*
X155608000Y-104059553D01*
X155281285Y-104386266D01*
X154584714Y-104386266D01*
X154258001Y-104059553D01*
X154258000Y-104059553D01*
X153931285Y-104386266D01*
X153234714Y-104386266D01*
X152908001Y-104059553D01*
X152908000Y-104059553D01*
X152581285Y-104386266D01*
X150956000Y-104386266D01*
X150956000Y-103706003D01*
X152153254Y-103706003D01*
X152172175Y-103873938D01*
X152172176Y-103873943D01*
X152227732Y-104032714D01*
X152534556Y-103725891D01*
X152808000Y-103725891D01*
X152823224Y-103762645D01*
X152851355Y-103790776D01*
X152888109Y-103806000D01*
X152927891Y-103806000D01*
X152964645Y-103790776D01*
X152992776Y-103762645D01*
X153008000Y-103725891D01*
X153008000Y-103706000D01*
X153261553Y-103706000D01*
X153583000Y-104027447D01*
X153884556Y-103725891D01*
X154158000Y-103725891D01*
X154173224Y-103762645D01*
X154201355Y-103790776D01*
X154238109Y-103806000D01*
X154277891Y-103806000D01*
X154314645Y-103790776D01*
X154342776Y-103762645D01*
X154358000Y-103725891D01*
X154358000Y-103706000D01*
X154611553Y-103706000D01*
X154933000Y-104027447D01*
X155234556Y-103725891D01*
X155508000Y-103725891D01*
X155523224Y-103762645D01*
X155551355Y-103790776D01*
X155588109Y-103806000D01*
X155627891Y-103806000D01*
X155664645Y-103790776D01*
X155692776Y-103762645D01*
X155708000Y-103725891D01*
X155708000Y-103706001D01*
X155961553Y-103706001D01*
X156288266Y-104032714D01*
X156288267Y-104032713D01*
X156343824Y-103873943D01*
X156362746Y-103706003D01*
X156362746Y-103705996D01*
X156343824Y-103538056D01*
X156288266Y-103379285D01*
X155961553Y-103705999D01*
X155961553Y-103706001D01*
X155708000Y-103706001D01*
X155708000Y-103686109D01*
X155692776Y-103649355D01*
X155664645Y-103621224D01*
X155627891Y-103606000D01*
X155588109Y-103606000D01*
X155551355Y-103621224D01*
X155523224Y-103649355D01*
X155508000Y-103686109D01*
X155508000Y-103725891D01*
X155234556Y-103725891D01*
X155254447Y-103706000D01*
X154933000Y-103384553D01*
X154611553Y-103706000D01*
X154358000Y-103706000D01*
X154358000Y-103686109D01*
X154342776Y-103649355D01*
X154314645Y-103621224D01*
X154277891Y-103606000D01*
X154238109Y-103606000D01*
X154201355Y-103621224D01*
X154173224Y-103649355D01*
X154158000Y-103686109D01*
X154158000Y-103725891D01*
X153884556Y-103725891D01*
X153904447Y-103706000D01*
X153583000Y-103384553D01*
X153261553Y-103706000D01*
X153008000Y-103706000D01*
X153008000Y-103686109D01*
X152992776Y-103649355D01*
X152964645Y-103621224D01*
X152927891Y-103606000D01*
X152888109Y-103606000D01*
X152851355Y-103621224D01*
X152823224Y-103649355D01*
X152808000Y-103686109D01*
X152808000Y-103725891D01*
X152534556Y-103725891D01*
X152554447Y-103706000D01*
X152227732Y-103379285D01*
X152172176Y-103538053D01*
X152172175Y-103538058D01*
X152153254Y-103705996D01*
X152153254Y-103706003D01*
X150956000Y-103706003D01*
X150956000Y-103025732D01*
X152581285Y-103025732D01*
X152908000Y-103352447D01*
X152908001Y-103352447D01*
X153234714Y-103025732D01*
X153931285Y-103025732D01*
X154258000Y-103352447D01*
X154258001Y-103352447D01*
X154584714Y-103025732D01*
X155281285Y-103025732D01*
X155608000Y-103352447D01*
X155608001Y-103352447D01*
X155934714Y-103025732D01*
X155775943Y-102970176D01*
X155775938Y-102970175D01*
X155608004Y-102951254D01*
X155607996Y-102951254D01*
X155440058Y-102970175D01*
X155440053Y-102970176D01*
X155281285Y-103025732D01*
X154584714Y-103025732D01*
X154425943Y-102970176D01*
X154425938Y-102970175D01*
X154258004Y-102951254D01*
X154257996Y-102951254D01*
X154090058Y-102970175D01*
X154090053Y-102970176D01*
X153931285Y-103025732D01*
X153234714Y-103025732D01*
X153075943Y-102970176D01*
X153075938Y-102970175D01*
X152908004Y-102951254D01*
X152907996Y-102951254D01*
X152740058Y-102970175D01*
X152740053Y-102970176D01*
X152581285Y-103025732D01*
X150956000Y-103025732D01*
X150956000Y-100046000D01*
X150975685Y-99978961D01*
X151028489Y-99933206D01*
X151080000Y-99922000D01*
X159722000Y-99922000D01*
X159789039Y-99941685D01*
G37*
%TD.AperFunction*%
%TD*%
M02*
