%TF.GenerationSoftware,KiCad,Pcbnew,8.0.1*%
%TF.CreationDate,2024-06-07T13:28:43+02:00*%
%TF.ProjectId,Robuoy-Sub,526f6275-6f79-42d5-9375-622e6b696361,rev?*%
%TF.SameCoordinates,Original*%
%TF.FileFunction,Soldermask,Bot*%
%TF.FilePolarity,Negative*%
%FSLAX46Y46*%
G04 Gerber Fmt 4.6, Leading zero omitted, Abs format (unit mm)*
G04 Created by KiCad (PCBNEW 8.0.1) date 2024-06-07 13:28:43*
%MOMM*%
%LPD*%
G01*
G04 APERTURE LIST*
G04 Aperture macros list*
%AMRoundRect*
0 Rectangle with rounded corners*
0 $1 Rounding radius*
0 $2 $3 $4 $5 $6 $7 $8 $9 X,Y pos of 4 corners*
0 Add a 4 corners polygon primitive as box body*
4,1,4,$2,$3,$4,$5,$6,$7,$8,$9,$2,$3,0*
0 Add four circle primitives for the rounded corners*
1,1,$1+$1,$2,$3*
1,1,$1+$1,$4,$5*
1,1,$1+$1,$6,$7*
1,1,$1+$1,$8,$9*
0 Add four rect primitives between the rounded corners*
20,1,$1+$1,$2,$3,$4,$5,0*
20,1,$1+$1,$4,$5,$6,$7,0*
20,1,$1+$1,$6,$7,$8,$9,0*
20,1,$1+$1,$8,$9,$2,$3,0*%
G04 Aperture macros list end*
%ADD10R,1.650000X1.650000*%
%ADD11C,1.700000*%
%ADD12RoundRect,1.500000X-1.500000X1.500000X-1.500000X-1.500000X1.500000X-1.500000X1.500000X1.500000X0*%
%ADD13C,6.000000*%
%ADD14RoundRect,0.250000X-0.600000X-0.600000X0.600000X-0.600000X0.600000X0.600000X-0.600000X0.600000X0*%
%ADD15RoundRect,0.250000X-0.600000X-0.725000X0.600000X-0.725000X0.600000X0.725000X-0.600000X0.725000X0*%
%ADD16O,1.700000X1.950000*%
%ADD17R,1.700000X1.700000*%
%ADD18O,1.700000X1.700000*%
%ADD19C,3.000000*%
%ADD20R,1.300000X1.300000*%
%ADD21C,1.300000*%
%ADD22C,1.524000*%
%ADD23C,3.200000*%
%ADD24C,3.500000*%
G04 APERTURE END LIST*
D10*
%TO.C,BZ101*%
X67097500Y-46595000D03*
D11*
X73597500Y-46595000D03*
%TD*%
D12*
%TO.C,J207*%
X73720000Y-78770000D03*
D13*
X73720000Y-85970000D03*
%TD*%
D14*
%TO.C,J101*%
X55000000Y-104980000D03*
D11*
X57540000Y-104980000D03*
X55000000Y-107520000D03*
X57540000Y-107520000D03*
X55000000Y-110060000D03*
X57540000Y-110060000D03*
X55000000Y-112600000D03*
X57540000Y-112600000D03*
X55000000Y-115140000D03*
X57540000Y-115140000D03*
%TD*%
D15*
%TO.C,J103*%
X156148500Y-83975000D03*
D16*
X158648500Y-83975000D03*
X161148500Y-83975000D03*
%TD*%
D17*
%TO.C,SW102*%
X67370000Y-105230000D03*
D18*
X64830000Y-105230000D03*
%TD*%
D19*
%TO.C,TP203*%
X90738000Y-134440000D03*
%TD*%
D20*
%TO.C,J204*%
X92770000Y-107770000D03*
D21*
X89914000Y-107770000D03*
X88670000Y-109167000D03*
X88538000Y-111032000D03*
X89572000Y-112591000D03*
X91342000Y-113194000D03*
X93112000Y-112591000D03*
X94146000Y-111032000D03*
X94014000Y-109167000D03*
X91342000Y-109194000D03*
X90389000Y-110844000D03*
X92295000Y-110844000D03*
%TD*%
D17*
%TO.C,J105*%
X44510000Y-59510000D03*
D18*
X44510000Y-62050000D03*
X44510000Y-64590000D03*
X44510000Y-67130000D03*
%TD*%
D15*
%TO.C,J202*%
X82410000Y-167590000D03*
D16*
X84910000Y-167590000D03*
X87410000Y-167590000D03*
X89910000Y-167590000D03*
X92410000Y-167590000D03*
X94910000Y-167590000D03*
X97410000Y-167590000D03*
%TD*%
D22*
%TO.C,TP301*%
X85150000Y-45540000D03*
X87690000Y-45540000D03*
X90230000Y-45540000D03*
X92770000Y-45540000D03*
X85150000Y-48080000D03*
X87690000Y-48080000D03*
X90230000Y-48080000D03*
X92770000Y-48080000D03*
X85150000Y-50620000D03*
X87690000Y-50620000D03*
X90230000Y-50620000D03*
X92770000Y-50620000D03*
X85150000Y-53160000D03*
X87690000Y-53160000D03*
X90230000Y-53160000D03*
X92770000Y-53160000D03*
%TD*%
D23*
%TO.C,H301*%
X132140000Y-175080000D03*
%TD*%
D15*
%TO.C,J206*%
X83210000Y-151490000D03*
D16*
X85710000Y-151490000D03*
X88210000Y-151490000D03*
X90710000Y-151490000D03*
X93210000Y-151490000D03*
X95710000Y-151490000D03*
X98210000Y-151490000D03*
%TD*%
D15*
%TO.C,J104*%
X140897500Y-152555000D03*
D16*
X143397500Y-152555000D03*
X145897500Y-152555000D03*
%TD*%
D23*
%TO.C,H304*%
X121980000Y-49350000D03*
%TD*%
D24*
%TO.C,SW201*%
X132620000Y-121210000D03*
X137320000Y-121210000D03*
X142020000Y-121210000D03*
%TD*%
D15*
%TO.C,J203*%
X82510000Y-159365000D03*
D16*
X85010000Y-159365000D03*
X87510000Y-159365000D03*
X90010000Y-159365000D03*
X92510000Y-159365000D03*
X95010000Y-159365000D03*
X97510000Y-159365000D03*
%TD*%
D23*
%TO.C,H303*%
X54670000Y-53160000D03*
%TD*%
D12*
%TO.C,J201*%
X87690000Y-78770000D03*
D13*
X87690000Y-85970000D03*
%TD*%
D12*
%TO.C,J205*%
X101680000Y-78770000D03*
D13*
X101680000Y-85970000D03*
%TD*%
D15*
%TO.C,J106*%
X44236000Y-77307000D03*
D16*
X46736000Y-77307000D03*
X49236000Y-77307000D03*
X51736000Y-77307000D03*
%TD*%
D19*
%TO.C,TP202*%
X107502000Y-133932000D03*
%TD*%
D22*
%TO.C,TP302*%
X109280000Y-175080000D03*
X111820000Y-175080000D03*
X114360000Y-175080000D03*
X116900000Y-175080000D03*
X109280000Y-177620000D03*
X111820000Y-177620000D03*
X114360000Y-177620000D03*
X116900000Y-177620000D03*
X109280000Y-180160000D03*
X111820000Y-180160000D03*
X114360000Y-180160000D03*
X116900000Y-180160000D03*
X109280000Y-182700000D03*
X111820000Y-182700000D03*
X114360000Y-182700000D03*
X116900000Y-182700000D03*
%TD*%
D12*
%TO.C,J208*%
X115630000Y-78770000D03*
D13*
X115630000Y-85970000D03*
%TD*%
D23*
%TO.C,H302*%
X64830000Y-175080000D03*
%TD*%
D15*
%TO.C,J102*%
X56234000Y-130838000D03*
D16*
X58734000Y-130838000D03*
X61234000Y-130838000D03*
%TD*%
D17*
%TO.C,SW101*%
X67370000Y-110310000D03*
D18*
X64830000Y-110310000D03*
%TD*%
M02*
