%TF.GenerationSoftware,KiCad,Pcbnew,8.0.1*%
%TF.CreationDate,2024-06-22T00:40:19+02:00*%
%TF.ProjectId,Robuoy-Sub,526f6275-6f79-42d5-9375-622e6b696361,rev?*%
%TF.SameCoordinates,Original*%
%TF.FileFunction,Legend,Bot*%
%TF.FilePolarity,Positive*%
%FSLAX46Y46*%
G04 Gerber Fmt 4.6, Leading zero omitted, Abs format (unit mm)*
G04 Created by KiCad (PCBNEW 8.0.1) date 2024-06-22 00:40:19*
%MOMM*%
%LPD*%
G01*
G04 APERTURE LIST*
G04 Aperture macros list*
%AMRoundRect*
0 Rectangle with rounded corners*
0 $1 Rounding radius*
0 $2 $3 $4 $5 $6 $7 $8 $9 X,Y pos of 4 corners*
0 Add a 4 corners polygon primitive as box body*
4,1,4,$2,$3,$4,$5,$6,$7,$8,$9,$2,$3,0*
0 Add four circle primitives for the rounded corners*
1,1,$1+$1,$2,$3*
1,1,$1+$1,$4,$5*
1,1,$1+$1,$6,$7*
1,1,$1+$1,$8,$9*
0 Add four rect primitives between the rounded corners*
20,1,$1+$1,$2,$3,$4,$5,0*
20,1,$1+$1,$4,$5,$6,$7,0*
20,1,$1+$1,$6,$7,$8,$9,0*
20,1,$1+$1,$8,$9,$2,$3,0*%
G04 Aperture macros list end*
%ADD10C,0.100000*%
%ADD11RoundRect,1.500000X1.500000X1.500000X-1.500000X1.500000X-1.500000X-1.500000X1.500000X-1.500000X0*%
%ADD12C,6.000000*%
%ADD13RoundRect,0.250000X0.600000X-0.600000X0.600000X0.600000X-0.600000X0.600000X-0.600000X-0.600000X0*%
%ADD14C,1.700000*%
%ADD15RoundRect,0.250000X0.725000X-0.600000X0.725000X0.600000X-0.725000X0.600000X-0.725000X-0.600000X0*%
%ADD16O,1.950000X1.700000*%
%ADD17O,1.700000X1.700000*%
%ADD18R,1.700000X1.700000*%
%ADD19C,3.000000*%
%ADD20R,1.300000X1.300000*%
%ADD21C,1.300000*%
%ADD22C,1.524000*%
%ADD23C,3.200000*%
%ADD24RoundRect,1.500000X-1.500000X-1.500000X1.500000X-1.500000X1.500000X1.500000X-1.500000X1.500000X0*%
%ADD25RoundRect,0.250000X-0.725000X0.600000X-0.725000X-0.600000X0.725000X-0.600000X0.725000X0.600000X0*%
%ADD26C,3.500000*%
%ADD27R,1.650000X1.650000*%
%ADD28RoundRect,0.250000X-0.600000X-0.725000X0.600000X-0.725000X0.600000X0.725000X-0.600000X0.725000X0*%
%ADD29O,1.700000X1.950000*%
G04 APERTURE END LIST*
D10*
%TO.C,H301*%
X163560000Y-137890000D02*
G75*
G02*
X158060000Y-137890000I-2750000J0D01*
G01*
X158060000Y-137890000D02*
G75*
G02*
X163560000Y-137890000I2750000J0D01*
G01*
%TO.C,H304*%
X163560000Y-57890000D02*
G75*
G02*
X158060000Y-57890000I-2750000J0D01*
G01*
X158060000Y-57890000D02*
G75*
G02*
X163560000Y-57890000I2750000J0D01*
G01*
%TO.C,H303*%
X93560000Y-57890000D02*
G75*
G02*
X88060000Y-57890000I-2750000J0D01*
G01*
X88060000Y-57890000D02*
G75*
G02*
X93560000Y-57890000I2750000J0D01*
G01*
%TO.C,H302*%
X93560000Y-137890000D02*
G75*
G02*
X88060000Y-137890000I-2750000J0D01*
G01*
X88060000Y-137890000D02*
G75*
G02*
X93560000Y-137890000I2750000J0D01*
G01*
%TD*%
%LPC*%
D11*
%TO.C,J206*%
X106410000Y-137890000D03*
D12*
X99210000Y-137890000D03*
%TD*%
D13*
%TO.C,J101*%
X120730000Y-116142500D03*
D14*
X120730000Y-113602500D03*
X123270000Y-116142500D03*
X123270000Y-113602500D03*
X125810000Y-116142500D03*
X125810000Y-113602500D03*
X128350000Y-116142500D03*
X128350000Y-113602500D03*
X130890000Y-116142500D03*
X130890000Y-113602500D03*
%TD*%
D15*
%TO.C,J104*%
X111210000Y-116590000D03*
D16*
X111210000Y-114090000D03*
X111210000Y-111590000D03*
%TD*%
D17*
%TO.C,SW102*%
X100450000Y-114890000D03*
D18*
X97910000Y-114890000D03*
%TD*%
D19*
%TO.C,TP206*%
X125810000Y-67890000D03*
%TD*%
D20*
%TO.C,J204*%
X124382000Y-100414000D03*
D21*
X127238000Y-100414000D03*
X128482000Y-99017000D03*
X128614000Y-97152000D03*
X127580000Y-95593000D03*
X125810000Y-94990000D03*
X124040000Y-95593000D03*
X123006000Y-97152000D03*
X123138000Y-99017000D03*
X125810000Y-98990000D03*
X126763000Y-97340000D03*
X124857000Y-97340000D03*
%TD*%
D18*
%TO.C,J103*%
X107335000Y-74490000D03*
D17*
X107335000Y-77030000D03*
X107335000Y-79570000D03*
X107335000Y-82110000D03*
%TD*%
D15*
%TO.C,J202*%
X111310000Y-104890000D03*
D16*
X111310000Y-102390000D03*
X111310000Y-99890000D03*
X111310000Y-97390000D03*
X111310000Y-94890000D03*
X111310000Y-92390000D03*
X111310000Y-89890000D03*
%TD*%
D22*
%TO.C,TP301*%
X135970000Y-59790000D03*
X138510000Y-59790000D03*
X141050000Y-59790000D03*
X143590000Y-59790000D03*
X135970000Y-62330000D03*
X138510000Y-62330000D03*
X141050000Y-62330000D03*
X143590000Y-62330000D03*
X135970000Y-64870000D03*
X138510000Y-64870000D03*
X141050000Y-64870000D03*
X143590000Y-64870000D03*
X135970000Y-67410000D03*
X138510000Y-67410000D03*
X141050000Y-67410000D03*
X143590000Y-67410000D03*
%TD*%
D23*
%TO.C,H301*%
X160810000Y-137890000D03*
%TD*%
D24*
%TO.C,J205*%
X153810000Y-127890000D03*
D12*
X161010000Y-127890000D03*
%TD*%
D25*
%TO.C,J105*%
X140835000Y-111390000D03*
D16*
X140835000Y-113890000D03*
X140835000Y-116390000D03*
%TD*%
D23*
%TO.C,H304*%
X160810000Y-57890000D03*
%TD*%
D26*
%TO.C,SW201*%
X162132000Y-121132000D03*
X162132000Y-116432000D03*
X162132000Y-111732000D03*
%TD*%
D15*
%TO.C,J203*%
X139310000Y-104890000D03*
D16*
X139310000Y-102390000D03*
X139310000Y-99890000D03*
X139310000Y-97390000D03*
X139310000Y-94890000D03*
X139310000Y-92390000D03*
X139310000Y-89890000D03*
%TD*%
D23*
%TO.C,H303*%
X90810000Y-57890000D03*
%TD*%
D11*
%TO.C,J201*%
X97810000Y-127890000D03*
D12*
X90610000Y-127890000D03*
%TD*%
D25*
%TO.C,J106*%
X96810000Y-92128000D03*
D16*
X96810000Y-94628000D03*
X96810000Y-97128000D03*
X96810000Y-99628000D03*
%TD*%
D27*
%TO.C,BZ101*%
X157036000Y-83360000D03*
D14*
X157036000Y-76860000D03*
%TD*%
D22*
%TO.C,TP302*%
X146130000Y-59790000D03*
X148670000Y-59790000D03*
X151210000Y-59790000D03*
X153750000Y-59790000D03*
X146130000Y-62330000D03*
X148670000Y-62330000D03*
X151210000Y-62330000D03*
X153750000Y-62330000D03*
X146130000Y-64870000D03*
X148670000Y-64870000D03*
X151210000Y-64870000D03*
X153750000Y-64870000D03*
X146130000Y-67410000D03*
X148670000Y-67410000D03*
X151210000Y-67410000D03*
X153750000Y-67410000D03*
%TD*%
D24*
%TO.C,J207*%
X145210000Y-137890000D03*
D12*
X152410000Y-137890000D03*
%TD*%
D23*
%TO.C,H302*%
X90810000Y-137890000D03*
%TD*%
D28*
%TO.C,J102*%
X123310000Y-80872000D03*
D29*
X125810000Y-80872000D03*
X128310000Y-80872000D03*
%TD*%
D18*
%TO.C,SW101*%
X97910000Y-111334000D03*
D17*
X100450000Y-111334000D03*
%TD*%
%LPD*%
M02*
