%TF.GenerationSoftware,KiCad,Pcbnew,8.0.1*%
%TF.CreationDate,2024-06-06T23:30:18+02:00*%
%TF.ProjectId,Robuoy-Sub,526f6275-6f79-42d5-9375-622e6b696361,rev?*%
%TF.SameCoordinates,Original*%
%TF.FileFunction,Soldermask,Bot*%
%TF.FilePolarity,Negative*%
%FSLAX46Y46*%
G04 Gerber Fmt 4.6, Leading zero omitted, Abs format (unit mm)*
G04 Created by KiCad (PCBNEW 8.0.1) date 2024-06-06 23:30:18*
%MOMM*%
%LPD*%
G01*
G04 APERTURE LIST*
G04 Aperture macros list*
%AMRoundRect*
0 Rectangle with rounded corners*
0 $1 Rounding radius*
0 $2 $3 $4 $5 $6 $7 $8 $9 X,Y pos of 4 corners*
0 Add a 4 corners polygon primitive as box body*
4,1,4,$2,$3,$4,$5,$6,$7,$8,$9,$2,$3,0*
0 Add four circle primitives for the rounded corners*
1,1,$1+$1,$2,$3*
1,1,$1+$1,$4,$5*
1,1,$1+$1,$6,$7*
1,1,$1+$1,$8,$9*
0 Add four rect primitives between the rounded corners*
20,1,$1+$1,$2,$3,$4,$5,0*
20,1,$1+$1,$4,$5,$6,$7,0*
20,1,$1+$1,$6,$7,$8,$9,0*
20,1,$1+$1,$8,$9,$2,$3,0*%
G04 Aperture macros list end*
%ADD10RoundRect,1.500000X-1.500000X1.500000X-1.500000X-1.500000X1.500000X-1.500000X1.500000X1.500000X0*%
%ADD11C,6.000000*%
%ADD12RoundRect,0.250000X-0.600000X-0.600000X0.600000X-0.600000X0.600000X0.600000X-0.600000X0.600000X0*%
%ADD13C,1.700000*%
%ADD14RoundRect,0.250000X-0.600000X-0.725000X0.600000X-0.725000X0.600000X0.725000X-0.600000X0.725000X0*%
%ADD15O,1.700000X1.950000*%
%ADD16R,1.700000X1.700000*%
%ADD17O,1.700000X1.700000*%
%ADD18C,1.500000*%
%ADD19C,1.524000*%
%ADD20C,3.200000*%
%ADD21C,3.000000*%
%ADD22RoundRect,0.206250X-0.618750X-0.618750X0.618750X-0.618750X0.618750X0.618750X-0.618750X0.618750X0*%
G04 APERTURE END LIST*
D10*
%TO.C,J207*%
X73720000Y-78770000D03*
D11*
X73720000Y-85970000D03*
%TD*%
D12*
%TO.C,J101*%
X56510000Y-109940000D03*
D13*
X59050000Y-109940000D03*
X56510000Y-112480000D03*
X59050000Y-112480000D03*
X56510000Y-115020000D03*
X59050000Y-115020000D03*
X56510000Y-117560000D03*
X59050000Y-117560000D03*
X56510000Y-120100000D03*
X59050000Y-120100000D03*
%TD*%
D14*
%TO.C,J103*%
X156148500Y-83975000D03*
D15*
X158648500Y-83975000D03*
X161148500Y-83975000D03*
%TD*%
D16*
%TO.C,SW102*%
X58050000Y-86180000D03*
D17*
X58050000Y-88720000D03*
%TD*%
D18*
%TO.C,TP203*%
X140070000Y-110260000D03*
%TD*%
D14*
%TO.C,J105*%
X47090000Y-65860000D03*
D15*
X49590000Y-65860000D03*
X52090000Y-65860000D03*
X54590000Y-65860000D03*
%TD*%
D14*
%TO.C,J202*%
X82410000Y-167590000D03*
D15*
X84910000Y-167590000D03*
X87410000Y-167590000D03*
X89910000Y-167590000D03*
X92410000Y-167590000D03*
X94910000Y-167590000D03*
X97410000Y-167590000D03*
%TD*%
D19*
%TO.C,TP301*%
X85150000Y-45540000D03*
X87690000Y-45540000D03*
X90230000Y-45540000D03*
X92770000Y-45540000D03*
X85150000Y-48080000D03*
X87690000Y-48080000D03*
X90230000Y-48080000D03*
X92770000Y-48080000D03*
X85150000Y-50620000D03*
X87690000Y-50620000D03*
X90230000Y-50620000D03*
X92770000Y-50620000D03*
X85150000Y-53160000D03*
X87690000Y-53160000D03*
X90230000Y-53160000D03*
X92770000Y-53160000D03*
%TD*%
D20*
%TO.C,H301*%
X132140000Y-175080000D03*
%TD*%
D14*
%TO.C,J206*%
X83210000Y-151490000D03*
D15*
X85710000Y-151490000D03*
X88210000Y-151490000D03*
X90710000Y-151490000D03*
X93210000Y-151490000D03*
X95710000Y-151490000D03*
X98210000Y-151490000D03*
%TD*%
D14*
%TO.C,J104*%
X140897500Y-152555000D03*
D15*
X143397500Y-152555000D03*
X145897500Y-152555000D03*
%TD*%
D18*
%TO.C,TP204*%
X140070000Y-113260000D03*
%TD*%
D20*
%TO.C,H304*%
X121980000Y-49350000D03*
%TD*%
D21*
%TO.C,SW201*%
X132620000Y-121210000D03*
X137320000Y-121210000D03*
X142020000Y-121210000D03*
%TD*%
D14*
%TO.C,J203*%
X82510000Y-159365000D03*
D15*
X85010000Y-159365000D03*
X87510000Y-159365000D03*
X90010000Y-159365000D03*
X92510000Y-159365000D03*
X95010000Y-159365000D03*
X97510000Y-159365000D03*
%TD*%
D20*
%TO.C,H303*%
X54670000Y-53160000D03*
%TD*%
D14*
%TO.C,J204*%
X83610000Y-143390000D03*
D15*
X86110000Y-143390000D03*
X88610000Y-143390000D03*
X91110000Y-143390000D03*
X93610000Y-143390000D03*
X96110000Y-143390000D03*
X98610000Y-143390000D03*
X101110000Y-143390000D03*
X103610000Y-143390000D03*
X106110000Y-143390000D03*
%TD*%
D10*
%TO.C,J201*%
X87690000Y-78770000D03*
D11*
X87690000Y-85970000D03*
%TD*%
D10*
%TO.C,J205*%
X101680000Y-78770000D03*
D11*
X101680000Y-85970000D03*
%TD*%
D22*
%TO.C,J106*%
X40426000Y-77307000D03*
D13*
X42966000Y-77307000D03*
X45506000Y-77307000D03*
X48046000Y-77307000D03*
%TD*%
D18*
%TO.C,TP202*%
X140070000Y-107260000D03*
%TD*%
%TO.C,TP201*%
X140070000Y-104260000D03*
%TD*%
D19*
%TO.C,TP302*%
X109280000Y-175080000D03*
X111820000Y-175080000D03*
X114360000Y-175080000D03*
X116900000Y-175080000D03*
X109280000Y-177620000D03*
X111820000Y-177620000D03*
X114360000Y-177620000D03*
X116900000Y-177620000D03*
X109280000Y-180160000D03*
X111820000Y-180160000D03*
X114360000Y-180160000D03*
X116900000Y-180160000D03*
X109280000Y-182700000D03*
X111820000Y-182700000D03*
X114360000Y-182700000D03*
X116900000Y-182700000D03*
%TD*%
D10*
%TO.C,J208*%
X115630000Y-78770000D03*
D11*
X115630000Y-85970000D03*
%TD*%
D20*
%TO.C,H302*%
X64830000Y-175080000D03*
%TD*%
D14*
%TO.C,J102*%
X56234000Y-130838000D03*
D15*
X58734000Y-130838000D03*
X61234000Y-130838000D03*
%TD*%
D16*
%TO.C,SW101*%
X53400000Y-86180000D03*
D17*
X53400000Y-88720000D03*
%TD*%
M02*
