%TF.GenerationSoftware,KiCad,Pcbnew,8.0.1*%
%TF.CreationDate,2024-06-08T15:58:27+02:00*%
%TF.ProjectId,Robuoy-Sub,526f6275-6f79-42d5-9375-622e6b696361,rev?*%
%TF.SameCoordinates,Original*%
%TF.FileFunction,Other,Comment*%
%FSLAX46Y46*%
G04 Gerber Fmt 4.6, Leading zero omitted, Abs format (unit mm)*
G04 Created by KiCad (PCBNEW 8.0.1) date 2024-06-08 15:58:27*
%MOMM*%
%LPD*%
G01*
G04 APERTURE LIST*
%ADD10C,0.100000*%
%ADD11C,0.150000*%
G04 APERTURE END LIST*
D10*
X18351109Y-121938095D02*
X18351109Y-122176190D01*
X18351109Y-122176190D02*
X18589204Y-122199999D01*
X18589204Y-122199999D02*
X18565395Y-122176190D01*
X18565395Y-122176190D02*
X18541585Y-122128571D01*
X18541585Y-122128571D02*
X18541585Y-122009523D01*
X18541585Y-122009523D02*
X18565395Y-121961904D01*
X18565395Y-121961904D02*
X18589204Y-121938095D01*
X18589204Y-121938095D02*
X18636823Y-121914285D01*
X18636823Y-121914285D02*
X18755871Y-121914285D01*
X18755871Y-121914285D02*
X18803490Y-121938095D01*
X18803490Y-121938095D02*
X18827300Y-121961904D01*
X18827300Y-121961904D02*
X18851109Y-122009523D01*
X18851109Y-122009523D02*
X18851109Y-122128571D01*
X18851109Y-122128571D02*
X18827300Y-122176190D01*
X18827300Y-122176190D02*
X18803490Y-122199999D01*
X18851109Y-121319048D02*
X18517776Y-121319048D01*
X18565395Y-121319048D02*
X18541585Y-121295238D01*
X18541585Y-121295238D02*
X18517776Y-121247619D01*
X18517776Y-121247619D02*
X18517776Y-121176191D01*
X18517776Y-121176191D02*
X18541585Y-121128572D01*
X18541585Y-121128572D02*
X18589204Y-121104762D01*
X18589204Y-121104762D02*
X18851109Y-121104762D01*
X18589204Y-121104762D02*
X18541585Y-121080953D01*
X18541585Y-121080953D02*
X18517776Y-121033334D01*
X18517776Y-121033334D02*
X18517776Y-120961905D01*
X18517776Y-120961905D02*
X18541585Y-120914286D01*
X18541585Y-120914286D02*
X18589204Y-120890476D01*
X18589204Y-120890476D02*
X18851109Y-120890476D01*
X18851109Y-120652381D02*
X18517776Y-120652381D01*
X18565395Y-120652381D02*
X18541585Y-120628571D01*
X18541585Y-120628571D02*
X18517776Y-120580952D01*
X18517776Y-120580952D02*
X18517776Y-120509524D01*
X18517776Y-120509524D02*
X18541585Y-120461905D01*
X18541585Y-120461905D02*
X18589204Y-120438095D01*
X18589204Y-120438095D02*
X18851109Y-120438095D01*
X18589204Y-120438095D02*
X18541585Y-120414286D01*
X18541585Y-120414286D02*
X18517776Y-120366667D01*
X18517776Y-120366667D02*
X18517776Y-120295238D01*
X18517776Y-120295238D02*
X18541585Y-120247619D01*
X18541585Y-120247619D02*
X18589204Y-120223809D01*
X18589204Y-120223809D02*
X18851109Y-120223809D01*
X13186904Y-101926109D02*
X12948809Y-101926109D01*
X12948809Y-101926109D02*
X12925000Y-102164204D01*
X12925000Y-102164204D02*
X12948809Y-102140395D01*
X12948809Y-102140395D02*
X12996428Y-102116585D01*
X12996428Y-102116585D02*
X13115476Y-102116585D01*
X13115476Y-102116585D02*
X13163095Y-102140395D01*
X13163095Y-102140395D02*
X13186904Y-102164204D01*
X13186904Y-102164204D02*
X13210714Y-102211823D01*
X13210714Y-102211823D02*
X13210714Y-102330871D01*
X13210714Y-102330871D02*
X13186904Y-102378490D01*
X13186904Y-102378490D02*
X13163095Y-102402300D01*
X13163095Y-102402300D02*
X13115476Y-102426109D01*
X13115476Y-102426109D02*
X12996428Y-102426109D01*
X12996428Y-102426109D02*
X12948809Y-102402300D01*
X12948809Y-102402300D02*
X12925000Y-102378490D01*
X13805951Y-102426109D02*
X13805951Y-102092776D01*
X13805951Y-102140395D02*
X13829761Y-102116585D01*
X13829761Y-102116585D02*
X13877380Y-102092776D01*
X13877380Y-102092776D02*
X13948808Y-102092776D01*
X13948808Y-102092776D02*
X13996427Y-102116585D01*
X13996427Y-102116585D02*
X14020237Y-102164204D01*
X14020237Y-102164204D02*
X14020237Y-102426109D01*
X14020237Y-102164204D02*
X14044046Y-102116585D01*
X14044046Y-102116585D02*
X14091665Y-102092776D01*
X14091665Y-102092776D02*
X14163094Y-102092776D01*
X14163094Y-102092776D02*
X14210713Y-102116585D01*
X14210713Y-102116585D02*
X14234523Y-102164204D01*
X14234523Y-102164204D02*
X14234523Y-102426109D01*
X14472618Y-102426109D02*
X14472618Y-102092776D01*
X14472618Y-102140395D02*
X14496428Y-102116585D01*
X14496428Y-102116585D02*
X14544047Y-102092776D01*
X14544047Y-102092776D02*
X14615475Y-102092776D01*
X14615475Y-102092776D02*
X14663094Y-102116585D01*
X14663094Y-102116585D02*
X14686904Y-102164204D01*
X14686904Y-102164204D02*
X14686904Y-102426109D01*
X14686904Y-102164204D02*
X14710713Y-102116585D01*
X14710713Y-102116585D02*
X14758332Y-102092776D01*
X14758332Y-102092776D02*
X14829761Y-102092776D01*
X14829761Y-102092776D02*
X14877380Y-102116585D01*
X14877380Y-102116585D02*
X14901190Y-102164204D01*
X14901190Y-102164204D02*
X14901190Y-102426109D01*
D11*
X14454819Y-116071428D02*
X13454819Y-116071428D01*
X14454819Y-115500000D02*
X13883390Y-115928571D01*
X13454819Y-115500000D02*
X14026247Y-116071428D01*
X13931009Y-115071428D02*
X13931009Y-114738095D01*
X14454819Y-114595238D02*
X14454819Y-115071428D01*
X14454819Y-115071428D02*
X13454819Y-115071428D01*
X13454819Y-115071428D02*
X13454819Y-114595238D01*
X13931009Y-114166666D02*
X13931009Y-113833333D01*
X14454819Y-113690476D02*
X14454819Y-114166666D01*
X14454819Y-114166666D02*
X13454819Y-114166666D01*
X13454819Y-114166666D02*
X13454819Y-113690476D01*
X14454819Y-113261904D02*
X13454819Y-113261904D01*
X13454819Y-113261904D02*
X13454819Y-112880952D01*
X13454819Y-112880952D02*
X13502438Y-112785714D01*
X13502438Y-112785714D02*
X13550057Y-112738095D01*
X13550057Y-112738095D02*
X13645295Y-112690476D01*
X13645295Y-112690476D02*
X13788152Y-112690476D01*
X13788152Y-112690476D02*
X13883390Y-112738095D01*
X13883390Y-112738095D02*
X13931009Y-112785714D01*
X13931009Y-112785714D02*
X13978628Y-112880952D01*
X13978628Y-112880952D02*
X13978628Y-113261904D01*
X14073866Y-112261904D02*
X14073866Y-111500000D01*
X13454819Y-110833333D02*
X13454819Y-110642857D01*
X13454819Y-110642857D02*
X13502438Y-110547619D01*
X13502438Y-110547619D02*
X13597676Y-110452381D01*
X13597676Y-110452381D02*
X13788152Y-110404762D01*
X13788152Y-110404762D02*
X14121485Y-110404762D01*
X14121485Y-110404762D02*
X14311961Y-110452381D01*
X14311961Y-110452381D02*
X14407200Y-110547619D01*
X14407200Y-110547619D02*
X14454819Y-110642857D01*
X14454819Y-110642857D02*
X14454819Y-110833333D01*
X14454819Y-110833333D02*
X14407200Y-110928571D01*
X14407200Y-110928571D02*
X14311961Y-111023809D01*
X14311961Y-111023809D02*
X14121485Y-111071428D01*
X14121485Y-111071428D02*
X13788152Y-111071428D01*
X13788152Y-111071428D02*
X13597676Y-111023809D01*
X13597676Y-111023809D02*
X13502438Y-110928571D01*
X13502438Y-110928571D02*
X13454819Y-110833333D01*
X13454819Y-109976190D02*
X14264342Y-109976190D01*
X14264342Y-109976190D02*
X14359580Y-109928571D01*
X14359580Y-109928571D02*
X14407200Y-109880952D01*
X14407200Y-109880952D02*
X14454819Y-109785714D01*
X14454819Y-109785714D02*
X14454819Y-109595238D01*
X14454819Y-109595238D02*
X14407200Y-109500000D01*
X14407200Y-109500000D02*
X14359580Y-109452381D01*
X14359580Y-109452381D02*
X14264342Y-109404762D01*
X14264342Y-109404762D02*
X13454819Y-109404762D01*
X13454819Y-109071428D02*
X13454819Y-108500000D01*
X14454819Y-108785714D02*
X13454819Y-108785714D01*
X13454819Y-107499999D02*
X13454819Y-106833333D01*
X13454819Y-106833333D02*
X14454819Y-107499999D01*
X14454819Y-107499999D02*
X14454819Y-106833333D01*
X13454819Y-106261904D02*
X13454819Y-106071428D01*
X13454819Y-106071428D02*
X13502438Y-105976190D01*
X13502438Y-105976190D02*
X13597676Y-105880952D01*
X13597676Y-105880952D02*
X13788152Y-105833333D01*
X13788152Y-105833333D02*
X14121485Y-105833333D01*
X14121485Y-105833333D02*
X14311961Y-105880952D01*
X14311961Y-105880952D02*
X14407200Y-105976190D01*
X14407200Y-105976190D02*
X14454819Y-106071428D01*
X14454819Y-106071428D02*
X14454819Y-106261904D01*
X14454819Y-106261904D02*
X14407200Y-106357142D01*
X14407200Y-106357142D02*
X14311961Y-106452380D01*
X14311961Y-106452380D02*
X14121485Y-106499999D01*
X14121485Y-106499999D02*
X13788152Y-106499999D01*
X13788152Y-106499999D02*
X13597676Y-106452380D01*
X13597676Y-106452380D02*
X13502438Y-106357142D01*
X13502438Y-106357142D02*
X13454819Y-106261904D01*
X14454819Y-105404761D02*
X13454819Y-105404761D01*
X13454819Y-105404761D02*
X14454819Y-104833333D01*
X14454819Y-104833333D02*
X13454819Y-104833333D01*
X13931009Y-104357142D02*
X13931009Y-104023809D01*
X14454819Y-103880952D02*
X14454819Y-104357142D01*
X14454819Y-104357142D02*
X13454819Y-104357142D01*
X13454819Y-104357142D02*
X13454819Y-103880952D01*
X20169104Y-112761904D02*
X20169104Y-112285714D01*
X20454819Y-112857142D02*
X19454819Y-112523809D01*
X19454819Y-112523809D02*
X20454819Y-112190476D01*
X19788152Y-111857142D02*
X20454819Y-111857142D01*
X19883390Y-111857142D02*
X19835771Y-111809523D01*
X19835771Y-111809523D02*
X19788152Y-111714285D01*
X19788152Y-111714285D02*
X19788152Y-111571428D01*
X19788152Y-111571428D02*
X19835771Y-111476190D01*
X19835771Y-111476190D02*
X19931009Y-111428571D01*
X19931009Y-111428571D02*
X20454819Y-111428571D01*
X19788152Y-111095237D02*
X19788152Y-110714285D01*
X19454819Y-110952380D02*
X20311961Y-110952380D01*
X20311961Y-110952380D02*
X20407200Y-110904761D01*
X20407200Y-110904761D02*
X20454819Y-110809523D01*
X20454819Y-110809523D02*
X20454819Y-110714285D01*
X20407200Y-109999999D02*
X20454819Y-110095237D01*
X20454819Y-110095237D02*
X20454819Y-110285713D01*
X20454819Y-110285713D02*
X20407200Y-110380951D01*
X20407200Y-110380951D02*
X20311961Y-110428570D01*
X20311961Y-110428570D02*
X19931009Y-110428570D01*
X19931009Y-110428570D02*
X19835771Y-110380951D01*
X19835771Y-110380951D02*
X19788152Y-110285713D01*
X19788152Y-110285713D02*
X19788152Y-110095237D01*
X19788152Y-110095237D02*
X19835771Y-109999999D01*
X19835771Y-109999999D02*
X19931009Y-109952380D01*
X19931009Y-109952380D02*
X20026247Y-109952380D01*
X20026247Y-109952380D02*
X20121485Y-110428570D01*
X19788152Y-109523808D02*
X20454819Y-109523808D01*
X19883390Y-109523808D02*
X19835771Y-109476189D01*
X19835771Y-109476189D02*
X19788152Y-109380951D01*
X19788152Y-109380951D02*
X19788152Y-109238094D01*
X19788152Y-109238094D02*
X19835771Y-109142856D01*
X19835771Y-109142856D02*
X19931009Y-109095237D01*
X19931009Y-109095237D02*
X20454819Y-109095237D01*
X19788152Y-108619046D02*
X20454819Y-108619046D01*
X19883390Y-108619046D02*
X19835771Y-108571427D01*
X19835771Y-108571427D02*
X19788152Y-108476189D01*
X19788152Y-108476189D02*
X19788152Y-108333332D01*
X19788152Y-108333332D02*
X19835771Y-108238094D01*
X19835771Y-108238094D02*
X19931009Y-108190475D01*
X19931009Y-108190475D02*
X20454819Y-108190475D01*
X20454819Y-107285713D02*
X19931009Y-107285713D01*
X19931009Y-107285713D02*
X19835771Y-107333332D01*
X19835771Y-107333332D02*
X19788152Y-107428570D01*
X19788152Y-107428570D02*
X19788152Y-107619046D01*
X19788152Y-107619046D02*
X19835771Y-107714284D01*
X20407200Y-107285713D02*
X20454819Y-107380951D01*
X20454819Y-107380951D02*
X20454819Y-107619046D01*
X20454819Y-107619046D02*
X20407200Y-107714284D01*
X20407200Y-107714284D02*
X20311961Y-107761903D01*
X20311961Y-107761903D02*
X20216723Y-107761903D01*
X20216723Y-107761903D02*
X20121485Y-107714284D01*
X20121485Y-107714284D02*
X20073866Y-107619046D01*
X20073866Y-107619046D02*
X20073866Y-107380951D01*
X20073866Y-107380951D02*
X20026247Y-107285713D01*
D10*
X18351109Y-98938095D02*
X18351109Y-99176190D01*
X18351109Y-99176190D02*
X18589204Y-99199999D01*
X18589204Y-99199999D02*
X18565395Y-99176190D01*
X18565395Y-99176190D02*
X18541585Y-99128571D01*
X18541585Y-99128571D02*
X18541585Y-99009523D01*
X18541585Y-99009523D02*
X18565395Y-98961904D01*
X18565395Y-98961904D02*
X18589204Y-98938095D01*
X18589204Y-98938095D02*
X18636823Y-98914285D01*
X18636823Y-98914285D02*
X18755871Y-98914285D01*
X18755871Y-98914285D02*
X18803490Y-98938095D01*
X18803490Y-98938095D02*
X18827300Y-98961904D01*
X18827300Y-98961904D02*
X18851109Y-99009523D01*
X18851109Y-99009523D02*
X18851109Y-99128571D01*
X18851109Y-99128571D02*
X18827300Y-99176190D01*
X18827300Y-99176190D02*
X18803490Y-99199999D01*
X18851109Y-98319048D02*
X18517776Y-98319048D01*
X18565395Y-98319048D02*
X18541585Y-98295238D01*
X18541585Y-98295238D02*
X18517776Y-98247619D01*
X18517776Y-98247619D02*
X18517776Y-98176191D01*
X18517776Y-98176191D02*
X18541585Y-98128572D01*
X18541585Y-98128572D02*
X18589204Y-98104762D01*
X18589204Y-98104762D02*
X18851109Y-98104762D01*
X18589204Y-98104762D02*
X18541585Y-98080953D01*
X18541585Y-98080953D02*
X18517776Y-98033334D01*
X18517776Y-98033334D02*
X18517776Y-97961905D01*
X18517776Y-97961905D02*
X18541585Y-97914286D01*
X18541585Y-97914286D02*
X18589204Y-97890476D01*
X18589204Y-97890476D02*
X18851109Y-97890476D01*
X18851109Y-97652381D02*
X18517776Y-97652381D01*
X18565395Y-97652381D02*
X18541585Y-97628571D01*
X18541585Y-97628571D02*
X18517776Y-97580952D01*
X18517776Y-97580952D02*
X18517776Y-97509524D01*
X18517776Y-97509524D02*
X18541585Y-97461905D01*
X18541585Y-97461905D02*
X18589204Y-97438095D01*
X18589204Y-97438095D02*
X18851109Y-97438095D01*
X18589204Y-97438095D02*
X18541585Y-97414286D01*
X18541585Y-97414286D02*
X18517776Y-97366667D01*
X18517776Y-97366667D02*
X18517776Y-97295238D01*
X18517776Y-97295238D02*
X18541585Y-97247619D01*
X18541585Y-97247619D02*
X18589204Y-97223809D01*
X18589204Y-97223809D02*
X18851109Y-97223809D01*
%TO.C,U101*%
X12400000Y-101600000D02*
X12600000Y-101400000D01*
X12400000Y-101600000D02*
X12600000Y-101800000D01*
X17000000Y-101600000D02*
X12400000Y-101600000D01*
X17000000Y-101600000D02*
X16800000Y-101400000D01*
X17000000Y-101600000D02*
X16800000Y-101800000D01*
X19125000Y-96200000D02*
X18925000Y-96400000D01*
X19125000Y-96200000D02*
X19325000Y-96400000D01*
X19125000Y-100800000D02*
X18925000Y-100600000D01*
X19125000Y-100800000D02*
X19125000Y-96200000D01*
X19125000Y-100800000D02*
X19325000Y-100600000D01*
X19125000Y-119200000D02*
X18925000Y-119400000D01*
X19125000Y-119200000D02*
X19325000Y-119400000D01*
X19125000Y-123800000D02*
X18925000Y-123600000D01*
X19125000Y-123800000D02*
X19125000Y-119200000D01*
X19125000Y-123800000D02*
X19325000Y-123600000D01*
%TD*%
M02*
