%TF.GenerationSoftware,KiCad,Pcbnew,8.0.1*%
%TF.CreationDate,2024-06-06T23:30:18+02:00*%
%TF.ProjectId,Robuoy-Sub,526f6275-6f79-42d5-9375-622e6b696361,rev?*%
%TF.SameCoordinates,Original*%
%TF.FileFunction,Copper,L4,Bot*%
%TF.FilePolarity,Positive*%
%FSLAX46Y46*%
G04 Gerber Fmt 4.6, Leading zero omitted, Abs format (unit mm)*
G04 Created by KiCad (PCBNEW 8.0.1) date 2024-06-06 23:30:18*
%MOMM*%
%LPD*%
G01*
G04 APERTURE LIST*
G04 Aperture macros list*
%AMRoundRect*
0 Rectangle with rounded corners*
0 $1 Rounding radius*
0 $2 $3 $4 $5 $6 $7 $8 $9 X,Y pos of 4 corners*
0 Add a 4 corners polygon primitive as box body*
4,1,4,$2,$3,$4,$5,$6,$7,$8,$9,$2,$3,0*
0 Add four circle primitives for the rounded corners*
1,1,$1+$1,$2,$3*
1,1,$1+$1,$4,$5*
1,1,$1+$1,$6,$7*
1,1,$1+$1,$8,$9*
0 Add four rect primitives between the rounded corners*
20,1,$1+$1,$2,$3,$4,$5,0*
20,1,$1+$1,$4,$5,$6,$7,0*
20,1,$1+$1,$6,$7,$8,$9,0*
20,1,$1+$1,$8,$9,$2,$3,0*%
G04 Aperture macros list end*
%TA.AperFunction,ComponentPad*%
%ADD10RoundRect,1.500000X-1.500000X1.500000X-1.500000X-1.500000X1.500000X-1.500000X1.500000X1.500000X0*%
%TD*%
%TA.AperFunction,ComponentPad*%
%ADD11C,6.000000*%
%TD*%
%TA.AperFunction,ComponentPad*%
%ADD12RoundRect,0.250000X-0.600000X-0.600000X0.600000X-0.600000X0.600000X0.600000X-0.600000X0.600000X0*%
%TD*%
%TA.AperFunction,ComponentPad*%
%ADD13C,1.700000*%
%TD*%
%TA.AperFunction,ComponentPad*%
%ADD14RoundRect,0.250000X-0.600000X-0.725000X0.600000X-0.725000X0.600000X0.725000X-0.600000X0.725000X0*%
%TD*%
%TA.AperFunction,ComponentPad*%
%ADD15O,1.700000X1.950000*%
%TD*%
%TA.AperFunction,ComponentPad*%
%ADD16R,1.700000X1.700000*%
%TD*%
%TA.AperFunction,ComponentPad*%
%ADD17O,1.700000X1.700000*%
%TD*%
%TA.AperFunction,ComponentPad*%
%ADD18C,1.500000*%
%TD*%
%TA.AperFunction,ComponentPad*%
%ADD19C,1.524000*%
%TD*%
%TA.AperFunction,ComponentPad*%
%ADD20C,3.000000*%
%TD*%
%TA.AperFunction,ComponentPad*%
%ADD21RoundRect,0.206250X-0.618750X-0.618750X0.618750X-0.618750X0.618750X0.618750X-0.618750X0.618750X0*%
%TD*%
%TA.AperFunction,HeatsinkPad*%
%ADD22C,0.500000*%
%TD*%
%TA.AperFunction,HeatsinkPad*%
%ADD23R,2.400000X3.200000*%
%TD*%
G04 APERTURE END LIST*
D10*
%TO.P,J207,1,Pin_1*%
%TO.N,Net-(D205-K)*%
X73720000Y-78770000D03*
D11*
%TO.P,J207,2,Pin_2*%
%TO.N,Vbatt*%
X73720000Y-85970000D03*
%TD*%
D12*
%TO.P,J101,1,Pin_1*%
%TO.N,EN*%
X56510000Y-109940000D03*
D13*
%TO.P,J101,2,Pin_2*%
%TO.N,+3.3V*%
X59050000Y-109940000D03*
%TO.P,J101,3,Pin_3*%
%TO.N,TX*%
X56510000Y-112480000D03*
%TO.P,J101,4,Pin_4*%
%TO.N,GND*%
X59050000Y-112480000D03*
%TO.P,J101,5,Pin_5*%
%TO.N,RX*%
X56510000Y-115020000D03*
%TO.P,J101,6,Pin_6*%
%TO.N,DR0*%
X59050000Y-115020000D03*
%TO.P,J101,7,Pin_7*%
%TO.N,Net-(J101-Pin_7)*%
X56510000Y-117560000D03*
%TO.P,J101,8,Pin_8*%
%TO.N,Net-(J101-Pin_8)*%
X59050000Y-117560000D03*
%TO.P,J101,9,Pin_9*%
%TO.N,Net-(J101-Pin_9)*%
X56510000Y-120100000D03*
%TO.P,J101,10,Pin_10*%
%TO.N,Net-(J101-Pin_10)*%
X59050000Y-120100000D03*
%TD*%
D14*
%TO.P,J103,1,Pin_1*%
%TO.N,Net-(J103-Pin_1)*%
X156148500Y-83975000D03*
D15*
%TO.P,J103,2,Pin_2*%
%TO.N,Net-(J103-Pin_2)*%
X158648500Y-83975000D03*
%TO.P,J103,3,Pin_3*%
%TO.N,GND*%
X161148500Y-83975000D03*
%TD*%
D16*
%TO.P,SW102,1,1*%
%TO.N,GND*%
X58050000Y-86180000D03*
D17*
%TO.P,SW102,2,2*%
%TO.N,EN*%
X58050000Y-88720000D03*
%TD*%
D18*
%TO.P,TP203,1,1*%
%TO.N,Net-(U204-FB)*%
X140070000Y-110260000D03*
%TD*%
D14*
%TO.P,J105,1,Pin_1*%
%TO.N,Net-(J105-Pin_1)*%
X47090000Y-65860000D03*
D15*
%TO.P,J105,2,Pin_2*%
%TO.N,Net-(J105-Pin_2)*%
X49590000Y-65860000D03*
%TO.P,J105,3,Pin_3*%
%TO.N,/CPU/Vext*%
X52090000Y-65860000D03*
%TO.P,J105,4,Pin_4*%
%TO.N,GND*%
X54590000Y-65860000D03*
%TD*%
D14*
%TO.P,J202,1,Pin_1*%
%TO.N,Net-(J202-Pin_1)*%
X82410000Y-167590000D03*
D15*
%TO.P,J202,2,Pin_2*%
%TO.N,Net-(J202-Pin_2)*%
X84910000Y-167590000D03*
%TO.P,J202,3,Pin_3*%
%TO.N,Net-(J202-Pin_3)*%
X87410000Y-167590000D03*
%TO.P,J202,4,Pin_4*%
%TO.N,Net-(J202-Pin_4)*%
X89910000Y-167590000D03*
%TO.P,J202,5,Pin_5*%
%TO.N,Net-(J202-Pin_5)*%
X92410000Y-167590000D03*
%TO.P,J202,6,Pin_6*%
%TO.N,Net-(J202-Pin_6)*%
X94910000Y-167590000D03*
%TO.P,J202,7,Pin_7*%
%TO.N,Net-(J202-Pin_7)*%
X97410000Y-167590000D03*
%TD*%
D19*
%TO.P,TP301,1,1*%
%TO.N,unconnected-(TP301-Pad1)*%
X85150000Y-45540000D03*
%TO.P,TP301,2*%
%TO.N,N/C*%
X87690000Y-45540000D03*
%TO.P,TP301,3*%
X90230000Y-45540000D03*
%TO.P,TP301,4*%
X92770000Y-45540000D03*
%TO.P,TP301,5*%
X85150000Y-48080000D03*
%TO.P,TP301,6*%
X87690000Y-48080000D03*
%TO.P,TP301,7*%
X90230000Y-48080000D03*
%TO.P,TP301,8*%
X92770000Y-48080000D03*
%TO.P,TP301,9*%
X85150000Y-50620000D03*
%TO.P,TP301,10*%
X87690000Y-50620000D03*
%TO.P,TP301,11*%
X90230000Y-50620000D03*
%TO.P,TP301,12*%
X92770000Y-50620000D03*
%TO.P,TP301,13*%
X85150000Y-53160000D03*
%TO.P,TP301,14*%
X87690000Y-53160000D03*
%TO.P,TP301,15*%
X90230000Y-53160000D03*
%TO.P,TP301,16*%
X92770000Y-53160000D03*
%TD*%
D14*
%TO.P,J206,1,Pin_1*%
%TO.N,Net-(J202-Pin_1)*%
X83210000Y-151490000D03*
D15*
%TO.P,J206,2,Pin_2*%
%TO.N,Net-(J202-Pin_2)*%
X85710000Y-151490000D03*
%TO.P,J206,3,Pin_3*%
%TO.N,Net-(J202-Pin_3)*%
X88210000Y-151490000D03*
%TO.P,J206,4,Pin_4*%
%TO.N,Net-(J202-Pin_4)*%
X90710000Y-151490000D03*
%TO.P,J206,5,Pin_5*%
%TO.N,Net-(J202-Pin_5)*%
X93210000Y-151490000D03*
%TO.P,J206,6,Pin_6*%
%TO.N,Net-(J202-Pin_6)*%
X95710000Y-151490000D03*
%TO.P,J206,7,Pin_7*%
%TO.N,Net-(J202-Pin_7)*%
X98210000Y-151490000D03*
%TD*%
D14*
%TO.P,J104,1,Pin_1*%
%TO.N,Net-(J104-Pin_1)*%
X140897500Y-152555000D03*
D15*
%TO.P,J104,2,Pin_2*%
%TO.N,Net-(J104-Pin_2)*%
X143397500Y-152555000D03*
%TO.P,J104,3,Pin_3*%
%TO.N,GND*%
X145897500Y-152555000D03*
%TD*%
D18*
%TO.P,TP204,1,1*%
%TO.N,+5V*%
X140070000Y-113260000D03*
%TD*%
D20*
%TO.P,SW201,1,A*%
%TO.N,Vbatt*%
X132620000Y-121210000D03*
%TO.P,SW201,2,B*%
%TO.N,+VSW*%
X137320000Y-121210000D03*
%TO.P,SW201,3*%
%TO.N,N/C*%
X142020000Y-121210000D03*
%TD*%
D14*
%TO.P,J203,1,Pin_1*%
%TO.N,Net-(J202-Pin_1)*%
X82510000Y-159365000D03*
D15*
%TO.P,J203,2,Pin_2*%
%TO.N,Net-(J202-Pin_2)*%
X85010000Y-159365000D03*
%TO.P,J203,3,Pin_3*%
%TO.N,Net-(J202-Pin_3)*%
X87510000Y-159365000D03*
%TO.P,J203,4,Pin_4*%
%TO.N,Net-(J202-Pin_4)*%
X90010000Y-159365000D03*
%TO.P,J203,5,Pin_5*%
%TO.N,Net-(J202-Pin_5)*%
X92510000Y-159365000D03*
%TO.P,J203,6,Pin_6*%
%TO.N,Net-(J202-Pin_6)*%
X95010000Y-159365000D03*
%TO.P,J203,7,Pin_7*%
%TO.N,Net-(J202-Pin_7)*%
X97510000Y-159365000D03*
%TD*%
D14*
%TO.P,J204,1,Pin_1*%
%TO.N,Net-(J202-Pin_1)*%
X83610000Y-143390000D03*
D15*
%TO.P,J204,2,Pin_2*%
%TO.N,Net-(J202-Pin_2)*%
X86110000Y-143390000D03*
%TO.P,J204,3,Pin_3*%
%TO.N,Net-(J202-Pin_3)*%
X88610000Y-143390000D03*
%TO.P,J204,4,Pin_4*%
%TO.N,Net-(J202-Pin_4)*%
X91110000Y-143390000D03*
%TO.P,J204,5,Pin_5*%
%TO.N,Net-(J202-Pin_5)*%
X93610000Y-143390000D03*
%TO.P,J204,6,Pin_6*%
%TO.N,Net-(J202-Pin_6)*%
X96110000Y-143390000D03*
%TO.P,J204,7,Pin_7*%
%TO.N,Net-(J202-Pin_7)*%
X98610000Y-143390000D03*
%TO.P,J204,8,Pin_8*%
%TO.N,+VSW*%
X101110000Y-143390000D03*
%TO.P,J204,9,Pin_9*%
%TO.N,GND*%
X103610000Y-143390000D03*
%TO.P,J204,10,Pin_10*%
%TO.N,Vbatt*%
X106110000Y-143390000D03*
%TD*%
D10*
%TO.P,J201,1,Pin_1*%
%TO.N,GND*%
X87690000Y-78770000D03*
D11*
%TO.P,J201,2,Pin_2*%
%TO.N,Vbatt*%
X87690000Y-85970000D03*
%TD*%
D10*
%TO.P,J205,1,Pin_1*%
%TO.N,GND*%
X101680000Y-78770000D03*
D11*
%TO.P,J205,2,Pin_2*%
%TO.N,Vbatt*%
X101680000Y-85970000D03*
%TD*%
D21*
%TO.P,J106,1,Pin_1*%
%TO.N,GND*%
X40426000Y-77307000D03*
D13*
%TO.P,J106,2,Pin_2*%
%TO.N,+5V*%
X42966000Y-77307000D03*
%TO.P,J106,3,Pin_3*%
%TO.N,/CPU/SCL*%
X45506000Y-77307000D03*
%TO.P,J106,4,Pin_4*%
%TO.N,/CPU/SDA*%
X48046000Y-77307000D03*
%TD*%
D18*
%TO.P,TP202,1,1*%
%TO.N,GND*%
X140070000Y-107260000D03*
%TD*%
%TO.P,TP201,1,1*%
%TO.N,Vbatt*%
X140070000Y-104260000D03*
%TD*%
D22*
%TO.P,U201,9,PAD*%
%TO.N,GND*%
X148145000Y-130765000D03*
X148145000Y-132115000D03*
X148145000Y-133465000D03*
D23*
X149095000Y-132115000D03*
D22*
X150045000Y-130765000D03*
X150045000Y-132115000D03*
X150045000Y-133465000D03*
%TD*%
D19*
%TO.P,TP302,1,1*%
%TO.N,unconnected-(TP302-Pad1)*%
X109280000Y-175080000D03*
%TO.P,TP302,2*%
%TO.N,N/C*%
X111820000Y-175080000D03*
%TO.P,TP302,3*%
X114360000Y-175080000D03*
%TO.P,TP302,4*%
X116900000Y-175080000D03*
%TO.P,TP302,5*%
X109280000Y-177620000D03*
%TO.P,TP302,6*%
X111820000Y-177620000D03*
%TO.P,TP302,7*%
X114360000Y-177620000D03*
%TO.P,TP302,8*%
X116900000Y-177620000D03*
%TO.P,TP302,9*%
X109280000Y-180160000D03*
%TO.P,TP302,10*%
X111820000Y-180160000D03*
%TO.P,TP302,11*%
X114360000Y-180160000D03*
%TO.P,TP302,12*%
X116900000Y-180160000D03*
%TO.P,TP302,13*%
X109280000Y-182700000D03*
%TO.P,TP302,14*%
X111820000Y-182700000D03*
%TO.P,TP302,15*%
X114360000Y-182700000D03*
%TO.P,TP302,16*%
X116900000Y-182700000D03*
%TD*%
D10*
%TO.P,J208,1,Pin_1*%
%TO.N,Net-(D206-K)*%
X115630000Y-78770000D03*
D11*
%TO.P,J208,2,Pin_2*%
%TO.N,Vbatt*%
X115630000Y-85970000D03*
%TD*%
D14*
%TO.P,J102,1,Pin_1*%
%TO.N,Net-(J102-Pin_1)*%
X56234000Y-130838000D03*
D15*
%TO.P,J102,2,Pin_2*%
%TO.N,+3.3V*%
X58734000Y-130838000D03*
%TO.P,J102,3,Pin_3*%
%TO.N,Net-(J102-Pin_3)*%
X61234000Y-130838000D03*
%TD*%
D16*
%TO.P,SW101,1,1*%
%TO.N,GND*%
X53400000Y-86180000D03*
D17*
%TO.P,SW101,2,2*%
%TO.N,DR0*%
X53400000Y-88720000D03*
%TD*%
M02*
