%TF.GenerationSoftware,KiCad,Pcbnew,8.0.1*%
%TF.CreationDate,2024-06-08T15:58:27+02:00*%
%TF.ProjectId,Robuoy-Sub,526f6275-6f79-42d5-9375-622e6b696361,rev?*%
%TF.SameCoordinates,Original*%
%TF.FileFunction,Copper,L2,Inr*%
%TF.FilePolarity,Positive*%
%FSLAX46Y46*%
G04 Gerber Fmt 4.6, Leading zero omitted, Abs format (unit mm)*
G04 Created by KiCad (PCBNEW 8.0.1) date 2024-06-08 15:58:27*
%MOMM*%
%LPD*%
G01*
G04 APERTURE LIST*
G04 Aperture macros list*
%AMRoundRect*
0 Rectangle with rounded corners*
0 $1 Rounding radius*
0 $2 $3 $4 $5 $6 $7 $8 $9 X,Y pos of 4 corners*
0 Add a 4 corners polygon primitive as box body*
4,1,4,$2,$3,$4,$5,$6,$7,$8,$9,$2,$3,0*
0 Add four circle primitives for the rounded corners*
1,1,$1+$1,$2,$3*
1,1,$1+$1,$4,$5*
1,1,$1+$1,$6,$7*
1,1,$1+$1,$8,$9*
0 Add four rect primitives between the rounded corners*
20,1,$1+$1,$2,$3,$4,$5,0*
20,1,$1+$1,$4,$5,$6,$7,0*
20,1,$1+$1,$6,$7,$8,$9,0*
20,1,$1+$1,$8,$9,$2,$3,0*%
G04 Aperture macros list end*
%TA.AperFunction,ComponentPad*%
%ADD10RoundRect,1.500000X-1.500000X1.500000X-1.500000X-1.500000X1.500000X-1.500000X1.500000X1.500000X0*%
%TD*%
%TA.AperFunction,ComponentPad*%
%ADD11C,6.000000*%
%TD*%
%TA.AperFunction,ComponentPad*%
%ADD12RoundRect,0.250000X-0.600000X-0.600000X0.600000X-0.600000X0.600000X0.600000X-0.600000X0.600000X0*%
%TD*%
%TA.AperFunction,ComponentPad*%
%ADD13C,1.700000*%
%TD*%
%TA.AperFunction,ComponentPad*%
%ADD14RoundRect,0.250000X-0.600000X-0.725000X0.600000X-0.725000X0.600000X0.725000X-0.600000X0.725000X0*%
%TD*%
%TA.AperFunction,ComponentPad*%
%ADD15O,1.700000X1.950000*%
%TD*%
%TA.AperFunction,ComponentPad*%
%ADD16R,1.700000X1.700000*%
%TD*%
%TA.AperFunction,ComponentPad*%
%ADD17O,1.700000X1.700000*%
%TD*%
%TA.AperFunction,ComponentPad*%
%ADD18C,3.000000*%
%TD*%
%TA.AperFunction,ComponentPad*%
%ADD19R,1.300000X1.300000*%
%TD*%
%TA.AperFunction,ComponentPad*%
%ADD20C,1.300000*%
%TD*%
%TA.AperFunction,ComponentPad*%
%ADD21C,1.524000*%
%TD*%
%TA.AperFunction,ComponentPad*%
%ADD22C,3.500000*%
%TD*%
%TA.AperFunction,ComponentPad*%
%ADD23R,1.650000X1.650000*%
%TD*%
%TA.AperFunction,HeatsinkPad*%
%ADD24C,0.500000*%
%TD*%
G04 APERTURE END LIST*
D10*
%TO.N,Net-(D205-K)*%
%TO.C,J207*%
X73720000Y-78770000D03*
D11*
%TO.N,Vbatt*%
X73720000Y-85970000D03*
%TD*%
D12*
%TO.N,EN*%
%TO.C,J101*%
X55000000Y-104980000D03*
D13*
%TO.N,+3.3V*%
X57540000Y-104980000D03*
%TO.N,TX*%
X55000000Y-107520000D03*
%TO.N,GND*%
X57540000Y-107520000D03*
%TO.N,RX*%
X55000000Y-110060000D03*
%TO.N,DR0*%
X57540000Y-110060000D03*
%TO.N,Net-(J101-Pin_7)*%
X55000000Y-112600000D03*
%TO.N,Net-(J101-Pin_8)*%
X57540000Y-112600000D03*
%TO.N,Net-(J101-Pin_9)*%
X55000000Y-115140000D03*
%TO.N,Net-(J101-Pin_10)*%
X57540000Y-115140000D03*
%TD*%
D14*
%TO.N,Net-(J103-Pin_1)*%
%TO.C,J103*%
X156148500Y-83975000D03*
D15*
%TO.N,Net-(J103-Pin_2)*%
X158648500Y-83975000D03*
%TO.N,Net-(J103-Pin_3)*%
X161148500Y-83975000D03*
%TD*%
D16*
%TO.N,GND*%
%TO.C,SW102*%
X67370000Y-105230000D03*
D17*
%TO.N,EN*%
X64830000Y-105230000D03*
%TD*%
D18*
%TO.N,GND*%
%TO.C,TP203*%
X90738000Y-134440000D03*
%TD*%
D19*
%TO.N,Net-(J202-Pin_1)*%
%TO.C,J204*%
X92770000Y-107770000D03*
D20*
%TO.N,Net-(J202-Pin_2)*%
X89914000Y-107770000D03*
%TO.N,Net-(J202-Pin_3)*%
X88670000Y-109167000D03*
%TO.N,Net-(J202-Pin_4)*%
X88538000Y-111032000D03*
%TO.N,Net-(J202-Pin_5)*%
X89572000Y-112591000D03*
%TO.N,Net-(J202-Pin_6)*%
X91342000Y-113194000D03*
%TO.N,Net-(J202-Pin_7)*%
X93112000Y-112591000D03*
%TO.N,+VSW*%
X94146000Y-111032000D03*
%TO.N,GND*%
X94014000Y-109167000D03*
X91342000Y-109194000D03*
%TO.N,Vbatt*%
X90389000Y-110844000D03*
X92295000Y-110844000D03*
%TD*%
D16*
%TO.N,Net-(J105-Pin_1)*%
%TO.C,J105*%
X44510000Y-59510000D03*
D17*
%TO.N,Net-(J105-Pin_2)*%
X44510000Y-62050000D03*
%TO.N,/CPU/Vext*%
X44510000Y-64590000D03*
%TO.N,GND*%
X44510000Y-67130000D03*
%TD*%
D14*
%TO.N,Net-(J202-Pin_1)*%
%TO.C,J202*%
X82410000Y-167590000D03*
D15*
%TO.N,Net-(J202-Pin_2)*%
X84910000Y-167590000D03*
%TO.N,Net-(J202-Pin_3)*%
X87410000Y-167590000D03*
%TO.N,Net-(J202-Pin_4)*%
X89910000Y-167590000D03*
%TO.N,Net-(J202-Pin_5)*%
X92410000Y-167590000D03*
%TO.N,Net-(J202-Pin_6)*%
X94910000Y-167590000D03*
%TO.N,Net-(J202-Pin_7)*%
X97410000Y-167590000D03*
%TD*%
D21*
%TO.N,unconnected-(TP301-Pad1)*%
%TO.C,TP301*%
X85150000Y-45540000D03*
%TO.N,N/C*%
X87690000Y-45540000D03*
X90230000Y-45540000D03*
X92770000Y-45540000D03*
X85150000Y-48080000D03*
X87690000Y-48080000D03*
X90230000Y-48080000D03*
X92770000Y-48080000D03*
X85150000Y-50620000D03*
X87690000Y-50620000D03*
X90230000Y-50620000D03*
X92770000Y-50620000D03*
X85150000Y-53160000D03*
X87690000Y-53160000D03*
X90230000Y-53160000D03*
X92770000Y-53160000D03*
%TD*%
D14*
%TO.N,Net-(J202-Pin_1)*%
%TO.C,J206*%
X83210000Y-151490000D03*
D15*
%TO.N,Net-(J202-Pin_2)*%
X85710000Y-151490000D03*
%TO.N,Net-(J202-Pin_3)*%
X88210000Y-151490000D03*
%TO.N,Net-(J202-Pin_4)*%
X90710000Y-151490000D03*
%TO.N,Net-(J202-Pin_5)*%
X93210000Y-151490000D03*
%TO.N,Net-(J202-Pin_6)*%
X95710000Y-151490000D03*
%TO.N,Net-(J202-Pin_7)*%
X98210000Y-151490000D03*
%TD*%
D14*
%TO.N,Net-(J104-Pin_1)*%
%TO.C,J104*%
X140897500Y-152555000D03*
D15*
%TO.N,Net-(J104-Pin_2)*%
X143397500Y-152555000D03*
%TO.N,Net-(J104-Pin_3)*%
X145897500Y-152555000D03*
%TD*%
D22*
%TO.N,Vbatt*%
%TO.C,SW201*%
X132620000Y-121210000D03*
%TO.N,+VSW*%
X137320000Y-121210000D03*
%TO.N,N/C*%
X142020000Y-121210000D03*
%TD*%
D14*
%TO.N,Net-(J202-Pin_1)*%
%TO.C,J203*%
X82510000Y-159365000D03*
D15*
%TO.N,Net-(J202-Pin_2)*%
X85010000Y-159365000D03*
%TO.N,Net-(J202-Pin_3)*%
X87510000Y-159365000D03*
%TO.N,Net-(J202-Pin_4)*%
X90010000Y-159365000D03*
%TO.N,Net-(J202-Pin_5)*%
X92510000Y-159365000D03*
%TO.N,Net-(J202-Pin_6)*%
X95010000Y-159365000D03*
%TO.N,Net-(J202-Pin_7)*%
X97510000Y-159365000D03*
%TD*%
D10*
%TO.N,GND*%
%TO.C,J201*%
X87690000Y-78770000D03*
D11*
%TO.N,Vbatt*%
X87690000Y-85970000D03*
%TD*%
D10*
%TO.N,GND*%
%TO.C,J205*%
X101680000Y-78770000D03*
D11*
%TO.N,Vbatt*%
X101680000Y-85970000D03*
%TD*%
D14*
%TO.N,GND*%
%TO.C,J106*%
X44236000Y-77307000D03*
D15*
%TO.N,+5V*%
X46736000Y-77307000D03*
%TO.N,/CPU/SCL*%
X49236000Y-77307000D03*
%TO.N,/CPU/SDA*%
X51736000Y-77307000D03*
%TD*%
D18*
%TO.N,GND*%
%TO.C,TP202*%
X107502000Y-133932000D03*
%TD*%
D23*
%TO.N,+5V*%
%TO.C,BZ101*%
X67097500Y-46595000D03*
D13*
%TO.N,Net-(BZ101--)*%
X73597500Y-46595000D03*
%TD*%
D24*
%TO.N,GND*%
%TO.C,U201*%
X148145000Y-130765000D03*
X148145000Y-132115000D03*
X148145000Y-133465000D03*
X150045000Y-130765000D03*
X150045000Y-132115000D03*
X150045000Y-133465000D03*
%TD*%
D21*
%TO.N,unconnected-(TP302-Pad1)*%
%TO.C,TP302*%
X109280000Y-175080000D03*
%TO.N,N/C*%
X111820000Y-175080000D03*
X114360000Y-175080000D03*
X116900000Y-175080000D03*
X109280000Y-177620000D03*
X111820000Y-177620000D03*
X114360000Y-177620000D03*
X116900000Y-177620000D03*
X109280000Y-180160000D03*
X111820000Y-180160000D03*
X114360000Y-180160000D03*
X116900000Y-180160000D03*
X109280000Y-182700000D03*
X111820000Y-182700000D03*
X114360000Y-182700000D03*
X116900000Y-182700000D03*
%TD*%
D10*
%TO.N,Net-(D206-K)*%
%TO.C,J208*%
X115630000Y-78770000D03*
D11*
%TO.N,Vbatt*%
X115630000Y-85970000D03*
%TD*%
D14*
%TO.N,Net-(J102-Pin_1)*%
%TO.C,J102*%
X56234000Y-130838000D03*
D15*
%TO.N,+3.3V*%
X58734000Y-130838000D03*
%TO.N,Net-(J102-Pin_3)*%
X61234000Y-130838000D03*
%TD*%
D16*
%TO.N,GND*%
%TO.C,SW101*%
X67370000Y-110310000D03*
D17*
%TO.N,DR0*%
X64830000Y-110310000D03*
%TD*%
M02*
