%TF.GenerationSoftware,KiCad,Pcbnew,8.0.1*%
%TF.CreationDate,2024-06-06T23:30:18+02:00*%
%TF.ProjectId,Robuoy-Sub,526f6275-6f79-42d5-9375-622e6b696361,rev?*%
%TF.SameCoordinates,Original*%
%TF.FileFunction,Other,Comment*%
%FSLAX46Y46*%
G04 Gerber Fmt 4.6, Leading zero omitted, Abs format (unit mm)*
G04 Created by KiCad (PCBNEW 8.0.1) date 2024-06-06 23:30:18*
%MOMM*%
%LPD*%
G01*
G04 APERTURE LIST*
%ADD10C,0.150000*%
%ADD11C,0.100000*%
G04 APERTURE END LIST*
D10*
X92418207Y-114164580D02*
X92370588Y-114212200D01*
X92370588Y-114212200D02*
X92227731Y-114259819D01*
X92227731Y-114259819D02*
X92132493Y-114259819D01*
X92132493Y-114259819D02*
X91989636Y-114212200D01*
X91989636Y-114212200D02*
X91894398Y-114116961D01*
X91894398Y-114116961D02*
X91846779Y-114021723D01*
X91846779Y-114021723D02*
X91799160Y-113831247D01*
X91799160Y-113831247D02*
X91799160Y-113688390D01*
X91799160Y-113688390D02*
X91846779Y-113497914D01*
X91846779Y-113497914D02*
X91894398Y-113402676D01*
X91894398Y-113402676D02*
X91989636Y-113307438D01*
X91989636Y-113307438D02*
X92132493Y-113259819D01*
X92132493Y-113259819D02*
X92227731Y-113259819D01*
X92227731Y-113259819D02*
X92370588Y-113307438D01*
X92370588Y-113307438D02*
X92418207Y-113355057D01*
X92846779Y-113259819D02*
X92846779Y-114069342D01*
X92846779Y-114069342D02*
X92894398Y-114164580D01*
X92894398Y-114164580D02*
X92942017Y-114212200D01*
X92942017Y-114212200D02*
X93037255Y-114259819D01*
X93037255Y-114259819D02*
X93227731Y-114259819D01*
X93227731Y-114259819D02*
X93322969Y-114212200D01*
X93322969Y-114212200D02*
X93370588Y-114164580D01*
X93370588Y-114164580D02*
X93418207Y-114069342D01*
X93418207Y-114069342D02*
X93418207Y-113259819D01*
X93751541Y-113259819D02*
X94322969Y-113259819D01*
X94037255Y-114259819D02*
X94037255Y-113259819D01*
X94846779Y-113259819D02*
X95037255Y-113259819D01*
X95037255Y-113259819D02*
X95132493Y-113307438D01*
X95132493Y-113307438D02*
X95227731Y-113402676D01*
X95227731Y-113402676D02*
X95275350Y-113593152D01*
X95275350Y-113593152D02*
X95275350Y-113926485D01*
X95275350Y-113926485D02*
X95227731Y-114116961D01*
X95227731Y-114116961D02*
X95132493Y-114212200D01*
X95132493Y-114212200D02*
X95037255Y-114259819D01*
X95037255Y-114259819D02*
X94846779Y-114259819D01*
X94846779Y-114259819D02*
X94751541Y-114212200D01*
X94751541Y-114212200D02*
X94656303Y-114116961D01*
X94656303Y-114116961D02*
X94608684Y-113926485D01*
X94608684Y-113926485D02*
X94608684Y-113593152D01*
X94608684Y-113593152D02*
X94656303Y-113402676D01*
X94656303Y-113402676D02*
X94751541Y-113307438D01*
X94751541Y-113307438D02*
X94846779Y-113259819D01*
X95703922Y-113259819D02*
X95703922Y-114069342D01*
X95703922Y-114069342D02*
X95751541Y-114164580D01*
X95751541Y-114164580D02*
X95799160Y-114212200D01*
X95799160Y-114212200D02*
X95894398Y-114259819D01*
X95894398Y-114259819D02*
X96084874Y-114259819D01*
X96084874Y-114259819D02*
X96180112Y-114212200D01*
X96180112Y-114212200D02*
X96227731Y-114164580D01*
X96227731Y-114164580D02*
X96275350Y-114069342D01*
X96275350Y-114069342D02*
X96275350Y-113259819D01*
X96608684Y-113259819D02*
X97180112Y-113259819D01*
X96894398Y-114259819D02*
X96894398Y-113259819D01*
D11*
X17861109Y-127328095D02*
X17861109Y-127566190D01*
X17861109Y-127566190D02*
X18099204Y-127589999D01*
X18099204Y-127589999D02*
X18075395Y-127566190D01*
X18075395Y-127566190D02*
X18051585Y-127518571D01*
X18051585Y-127518571D02*
X18051585Y-127399523D01*
X18051585Y-127399523D02*
X18075395Y-127351904D01*
X18075395Y-127351904D02*
X18099204Y-127328095D01*
X18099204Y-127328095D02*
X18146823Y-127304285D01*
X18146823Y-127304285D02*
X18265871Y-127304285D01*
X18265871Y-127304285D02*
X18313490Y-127328095D01*
X18313490Y-127328095D02*
X18337300Y-127351904D01*
X18337300Y-127351904D02*
X18361109Y-127399523D01*
X18361109Y-127399523D02*
X18361109Y-127518571D01*
X18361109Y-127518571D02*
X18337300Y-127566190D01*
X18337300Y-127566190D02*
X18313490Y-127589999D01*
X18361109Y-126709048D02*
X18027776Y-126709048D01*
X18075395Y-126709048D02*
X18051585Y-126685238D01*
X18051585Y-126685238D02*
X18027776Y-126637619D01*
X18027776Y-126637619D02*
X18027776Y-126566191D01*
X18027776Y-126566191D02*
X18051585Y-126518572D01*
X18051585Y-126518572D02*
X18099204Y-126494762D01*
X18099204Y-126494762D02*
X18361109Y-126494762D01*
X18099204Y-126494762D02*
X18051585Y-126470953D01*
X18051585Y-126470953D02*
X18027776Y-126423334D01*
X18027776Y-126423334D02*
X18027776Y-126351905D01*
X18027776Y-126351905D02*
X18051585Y-126304286D01*
X18051585Y-126304286D02*
X18099204Y-126280476D01*
X18099204Y-126280476D02*
X18361109Y-126280476D01*
X18361109Y-126042381D02*
X18027776Y-126042381D01*
X18075395Y-126042381D02*
X18051585Y-126018571D01*
X18051585Y-126018571D02*
X18027776Y-125970952D01*
X18027776Y-125970952D02*
X18027776Y-125899524D01*
X18027776Y-125899524D02*
X18051585Y-125851905D01*
X18051585Y-125851905D02*
X18099204Y-125828095D01*
X18099204Y-125828095D02*
X18361109Y-125828095D01*
X18099204Y-125828095D02*
X18051585Y-125804286D01*
X18051585Y-125804286D02*
X18027776Y-125756667D01*
X18027776Y-125756667D02*
X18027776Y-125685238D01*
X18027776Y-125685238D02*
X18051585Y-125637619D01*
X18051585Y-125637619D02*
X18099204Y-125613809D01*
X18099204Y-125613809D02*
X18361109Y-125613809D01*
X12696904Y-107316109D02*
X12458809Y-107316109D01*
X12458809Y-107316109D02*
X12435000Y-107554204D01*
X12435000Y-107554204D02*
X12458809Y-107530395D01*
X12458809Y-107530395D02*
X12506428Y-107506585D01*
X12506428Y-107506585D02*
X12625476Y-107506585D01*
X12625476Y-107506585D02*
X12673095Y-107530395D01*
X12673095Y-107530395D02*
X12696904Y-107554204D01*
X12696904Y-107554204D02*
X12720714Y-107601823D01*
X12720714Y-107601823D02*
X12720714Y-107720871D01*
X12720714Y-107720871D02*
X12696904Y-107768490D01*
X12696904Y-107768490D02*
X12673095Y-107792300D01*
X12673095Y-107792300D02*
X12625476Y-107816109D01*
X12625476Y-107816109D02*
X12506428Y-107816109D01*
X12506428Y-107816109D02*
X12458809Y-107792300D01*
X12458809Y-107792300D02*
X12435000Y-107768490D01*
X13315951Y-107816109D02*
X13315951Y-107482776D01*
X13315951Y-107530395D02*
X13339761Y-107506585D01*
X13339761Y-107506585D02*
X13387380Y-107482776D01*
X13387380Y-107482776D02*
X13458808Y-107482776D01*
X13458808Y-107482776D02*
X13506427Y-107506585D01*
X13506427Y-107506585D02*
X13530237Y-107554204D01*
X13530237Y-107554204D02*
X13530237Y-107816109D01*
X13530237Y-107554204D02*
X13554046Y-107506585D01*
X13554046Y-107506585D02*
X13601665Y-107482776D01*
X13601665Y-107482776D02*
X13673094Y-107482776D01*
X13673094Y-107482776D02*
X13720713Y-107506585D01*
X13720713Y-107506585D02*
X13744523Y-107554204D01*
X13744523Y-107554204D02*
X13744523Y-107816109D01*
X13982618Y-107816109D02*
X13982618Y-107482776D01*
X13982618Y-107530395D02*
X14006428Y-107506585D01*
X14006428Y-107506585D02*
X14054047Y-107482776D01*
X14054047Y-107482776D02*
X14125475Y-107482776D01*
X14125475Y-107482776D02*
X14173094Y-107506585D01*
X14173094Y-107506585D02*
X14196904Y-107554204D01*
X14196904Y-107554204D02*
X14196904Y-107816109D01*
X14196904Y-107554204D02*
X14220713Y-107506585D01*
X14220713Y-107506585D02*
X14268332Y-107482776D01*
X14268332Y-107482776D02*
X14339761Y-107482776D01*
X14339761Y-107482776D02*
X14387380Y-107506585D01*
X14387380Y-107506585D02*
X14411190Y-107554204D01*
X14411190Y-107554204D02*
X14411190Y-107816109D01*
D10*
X13964819Y-121461428D02*
X12964819Y-121461428D01*
X13964819Y-120890000D02*
X13393390Y-121318571D01*
X12964819Y-120890000D02*
X13536247Y-121461428D01*
X13441009Y-120461428D02*
X13441009Y-120128095D01*
X13964819Y-119985238D02*
X13964819Y-120461428D01*
X13964819Y-120461428D02*
X12964819Y-120461428D01*
X12964819Y-120461428D02*
X12964819Y-119985238D01*
X13441009Y-119556666D02*
X13441009Y-119223333D01*
X13964819Y-119080476D02*
X13964819Y-119556666D01*
X13964819Y-119556666D02*
X12964819Y-119556666D01*
X12964819Y-119556666D02*
X12964819Y-119080476D01*
X13964819Y-118651904D02*
X12964819Y-118651904D01*
X12964819Y-118651904D02*
X12964819Y-118270952D01*
X12964819Y-118270952D02*
X13012438Y-118175714D01*
X13012438Y-118175714D02*
X13060057Y-118128095D01*
X13060057Y-118128095D02*
X13155295Y-118080476D01*
X13155295Y-118080476D02*
X13298152Y-118080476D01*
X13298152Y-118080476D02*
X13393390Y-118128095D01*
X13393390Y-118128095D02*
X13441009Y-118175714D01*
X13441009Y-118175714D02*
X13488628Y-118270952D01*
X13488628Y-118270952D02*
X13488628Y-118651904D01*
X13583866Y-117651904D02*
X13583866Y-116890000D01*
X12964819Y-116223333D02*
X12964819Y-116032857D01*
X12964819Y-116032857D02*
X13012438Y-115937619D01*
X13012438Y-115937619D02*
X13107676Y-115842381D01*
X13107676Y-115842381D02*
X13298152Y-115794762D01*
X13298152Y-115794762D02*
X13631485Y-115794762D01*
X13631485Y-115794762D02*
X13821961Y-115842381D01*
X13821961Y-115842381D02*
X13917200Y-115937619D01*
X13917200Y-115937619D02*
X13964819Y-116032857D01*
X13964819Y-116032857D02*
X13964819Y-116223333D01*
X13964819Y-116223333D02*
X13917200Y-116318571D01*
X13917200Y-116318571D02*
X13821961Y-116413809D01*
X13821961Y-116413809D02*
X13631485Y-116461428D01*
X13631485Y-116461428D02*
X13298152Y-116461428D01*
X13298152Y-116461428D02*
X13107676Y-116413809D01*
X13107676Y-116413809D02*
X13012438Y-116318571D01*
X13012438Y-116318571D02*
X12964819Y-116223333D01*
X12964819Y-115366190D02*
X13774342Y-115366190D01*
X13774342Y-115366190D02*
X13869580Y-115318571D01*
X13869580Y-115318571D02*
X13917200Y-115270952D01*
X13917200Y-115270952D02*
X13964819Y-115175714D01*
X13964819Y-115175714D02*
X13964819Y-114985238D01*
X13964819Y-114985238D02*
X13917200Y-114890000D01*
X13917200Y-114890000D02*
X13869580Y-114842381D01*
X13869580Y-114842381D02*
X13774342Y-114794762D01*
X13774342Y-114794762D02*
X12964819Y-114794762D01*
X12964819Y-114461428D02*
X12964819Y-113890000D01*
X13964819Y-114175714D02*
X12964819Y-114175714D01*
X12964819Y-112889999D02*
X12964819Y-112223333D01*
X12964819Y-112223333D02*
X13964819Y-112889999D01*
X13964819Y-112889999D02*
X13964819Y-112223333D01*
X12964819Y-111651904D02*
X12964819Y-111461428D01*
X12964819Y-111461428D02*
X13012438Y-111366190D01*
X13012438Y-111366190D02*
X13107676Y-111270952D01*
X13107676Y-111270952D02*
X13298152Y-111223333D01*
X13298152Y-111223333D02*
X13631485Y-111223333D01*
X13631485Y-111223333D02*
X13821961Y-111270952D01*
X13821961Y-111270952D02*
X13917200Y-111366190D01*
X13917200Y-111366190D02*
X13964819Y-111461428D01*
X13964819Y-111461428D02*
X13964819Y-111651904D01*
X13964819Y-111651904D02*
X13917200Y-111747142D01*
X13917200Y-111747142D02*
X13821961Y-111842380D01*
X13821961Y-111842380D02*
X13631485Y-111889999D01*
X13631485Y-111889999D02*
X13298152Y-111889999D01*
X13298152Y-111889999D02*
X13107676Y-111842380D01*
X13107676Y-111842380D02*
X13012438Y-111747142D01*
X13012438Y-111747142D02*
X12964819Y-111651904D01*
X13964819Y-110794761D02*
X12964819Y-110794761D01*
X12964819Y-110794761D02*
X13964819Y-110223333D01*
X13964819Y-110223333D02*
X12964819Y-110223333D01*
X13441009Y-109747142D02*
X13441009Y-109413809D01*
X13964819Y-109270952D02*
X13964819Y-109747142D01*
X13964819Y-109747142D02*
X12964819Y-109747142D01*
X12964819Y-109747142D02*
X12964819Y-109270952D01*
X19679104Y-118151904D02*
X19679104Y-117675714D01*
X19964819Y-118247142D02*
X18964819Y-117913809D01*
X18964819Y-117913809D02*
X19964819Y-117580476D01*
X19298152Y-117247142D02*
X19964819Y-117247142D01*
X19393390Y-117247142D02*
X19345771Y-117199523D01*
X19345771Y-117199523D02*
X19298152Y-117104285D01*
X19298152Y-117104285D02*
X19298152Y-116961428D01*
X19298152Y-116961428D02*
X19345771Y-116866190D01*
X19345771Y-116866190D02*
X19441009Y-116818571D01*
X19441009Y-116818571D02*
X19964819Y-116818571D01*
X19298152Y-116485237D02*
X19298152Y-116104285D01*
X18964819Y-116342380D02*
X19821961Y-116342380D01*
X19821961Y-116342380D02*
X19917200Y-116294761D01*
X19917200Y-116294761D02*
X19964819Y-116199523D01*
X19964819Y-116199523D02*
X19964819Y-116104285D01*
X19917200Y-115389999D02*
X19964819Y-115485237D01*
X19964819Y-115485237D02*
X19964819Y-115675713D01*
X19964819Y-115675713D02*
X19917200Y-115770951D01*
X19917200Y-115770951D02*
X19821961Y-115818570D01*
X19821961Y-115818570D02*
X19441009Y-115818570D01*
X19441009Y-115818570D02*
X19345771Y-115770951D01*
X19345771Y-115770951D02*
X19298152Y-115675713D01*
X19298152Y-115675713D02*
X19298152Y-115485237D01*
X19298152Y-115485237D02*
X19345771Y-115389999D01*
X19345771Y-115389999D02*
X19441009Y-115342380D01*
X19441009Y-115342380D02*
X19536247Y-115342380D01*
X19536247Y-115342380D02*
X19631485Y-115818570D01*
X19298152Y-114913808D02*
X19964819Y-114913808D01*
X19393390Y-114913808D02*
X19345771Y-114866189D01*
X19345771Y-114866189D02*
X19298152Y-114770951D01*
X19298152Y-114770951D02*
X19298152Y-114628094D01*
X19298152Y-114628094D02*
X19345771Y-114532856D01*
X19345771Y-114532856D02*
X19441009Y-114485237D01*
X19441009Y-114485237D02*
X19964819Y-114485237D01*
X19298152Y-114009046D02*
X19964819Y-114009046D01*
X19393390Y-114009046D02*
X19345771Y-113961427D01*
X19345771Y-113961427D02*
X19298152Y-113866189D01*
X19298152Y-113866189D02*
X19298152Y-113723332D01*
X19298152Y-113723332D02*
X19345771Y-113628094D01*
X19345771Y-113628094D02*
X19441009Y-113580475D01*
X19441009Y-113580475D02*
X19964819Y-113580475D01*
X19964819Y-112675713D02*
X19441009Y-112675713D01*
X19441009Y-112675713D02*
X19345771Y-112723332D01*
X19345771Y-112723332D02*
X19298152Y-112818570D01*
X19298152Y-112818570D02*
X19298152Y-113009046D01*
X19298152Y-113009046D02*
X19345771Y-113104284D01*
X19917200Y-112675713D02*
X19964819Y-112770951D01*
X19964819Y-112770951D02*
X19964819Y-113009046D01*
X19964819Y-113009046D02*
X19917200Y-113104284D01*
X19917200Y-113104284D02*
X19821961Y-113151903D01*
X19821961Y-113151903D02*
X19726723Y-113151903D01*
X19726723Y-113151903D02*
X19631485Y-113104284D01*
X19631485Y-113104284D02*
X19583866Y-113009046D01*
X19583866Y-113009046D02*
X19583866Y-112770951D01*
X19583866Y-112770951D02*
X19536247Y-112675713D01*
D11*
X17861109Y-104328095D02*
X17861109Y-104566190D01*
X17861109Y-104566190D02*
X18099204Y-104589999D01*
X18099204Y-104589999D02*
X18075395Y-104566190D01*
X18075395Y-104566190D02*
X18051585Y-104518571D01*
X18051585Y-104518571D02*
X18051585Y-104399523D01*
X18051585Y-104399523D02*
X18075395Y-104351904D01*
X18075395Y-104351904D02*
X18099204Y-104328095D01*
X18099204Y-104328095D02*
X18146823Y-104304285D01*
X18146823Y-104304285D02*
X18265871Y-104304285D01*
X18265871Y-104304285D02*
X18313490Y-104328095D01*
X18313490Y-104328095D02*
X18337300Y-104351904D01*
X18337300Y-104351904D02*
X18361109Y-104399523D01*
X18361109Y-104399523D02*
X18361109Y-104518571D01*
X18361109Y-104518571D02*
X18337300Y-104566190D01*
X18337300Y-104566190D02*
X18313490Y-104589999D01*
X18361109Y-103709048D02*
X18027776Y-103709048D01*
X18075395Y-103709048D02*
X18051585Y-103685238D01*
X18051585Y-103685238D02*
X18027776Y-103637619D01*
X18027776Y-103637619D02*
X18027776Y-103566191D01*
X18027776Y-103566191D02*
X18051585Y-103518572D01*
X18051585Y-103518572D02*
X18099204Y-103494762D01*
X18099204Y-103494762D02*
X18361109Y-103494762D01*
X18099204Y-103494762D02*
X18051585Y-103470953D01*
X18051585Y-103470953D02*
X18027776Y-103423334D01*
X18027776Y-103423334D02*
X18027776Y-103351905D01*
X18027776Y-103351905D02*
X18051585Y-103304286D01*
X18051585Y-103304286D02*
X18099204Y-103280476D01*
X18099204Y-103280476D02*
X18361109Y-103280476D01*
X18361109Y-103042381D02*
X18027776Y-103042381D01*
X18075395Y-103042381D02*
X18051585Y-103018571D01*
X18051585Y-103018571D02*
X18027776Y-102970952D01*
X18027776Y-102970952D02*
X18027776Y-102899524D01*
X18027776Y-102899524D02*
X18051585Y-102851905D01*
X18051585Y-102851905D02*
X18099204Y-102828095D01*
X18099204Y-102828095D02*
X18361109Y-102828095D01*
X18099204Y-102828095D02*
X18051585Y-102804286D01*
X18051585Y-102804286D02*
X18027776Y-102756667D01*
X18027776Y-102756667D02*
X18027776Y-102685238D01*
X18027776Y-102685238D02*
X18051585Y-102637619D01*
X18051585Y-102637619D02*
X18099204Y-102613809D01*
X18099204Y-102613809D02*
X18361109Y-102613809D01*
%TO.C,U101*%
X11910000Y-106990000D02*
X12110000Y-106790000D01*
X11910000Y-106990000D02*
X12110000Y-107190000D01*
X16510000Y-106990000D02*
X11910000Y-106990000D01*
X16510000Y-106990000D02*
X16310000Y-106790000D01*
X16510000Y-106990000D02*
X16310000Y-107190000D01*
X18635000Y-101590000D02*
X18435000Y-101790000D01*
X18635000Y-101590000D02*
X18835000Y-101790000D01*
X18635000Y-106190000D02*
X18435000Y-105990000D01*
X18635000Y-106190000D02*
X18635000Y-101590000D01*
X18635000Y-106190000D02*
X18835000Y-105990000D01*
X18635000Y-124590000D02*
X18435000Y-124790000D01*
X18635000Y-124590000D02*
X18835000Y-124790000D01*
X18635000Y-129190000D02*
X18435000Y-128990000D01*
X18635000Y-129190000D02*
X18635000Y-124590000D01*
X18635000Y-129190000D02*
X18835000Y-128990000D01*
%TD*%
M02*
