%TF.GenerationSoftware,KiCad,Pcbnew,7.0.6*%
%TF.CreationDate,2023-08-13T13:48:50+02:00*%
%TF.ProjectId,Nice-Buoy-V1_0,4e696365-2d42-4756-9f79-2d56315f302e,rev?*%
%TF.SameCoordinates,Original*%
%TF.FileFunction,Copper,L1,Top*%
%TF.FilePolarity,Positive*%
%FSLAX46Y46*%
G04 Gerber Fmt 4.6, Leading zero omitted, Abs format (unit mm)*
G04 Created by KiCad (PCBNEW 7.0.6) date 2023-08-13 13:48:50*
%MOMM*%
%LPD*%
G01*
G04 APERTURE LIST*
G04 Aperture macros list*
%AMRoundRect*
0 Rectangle with rounded corners*
0 $1 Rounding radius*
0 $2 $3 $4 $5 $6 $7 $8 $9 X,Y pos of 4 corners*
0 Add a 4 corners polygon primitive as box body*
4,1,4,$2,$3,$4,$5,$6,$7,$8,$9,$2,$3,0*
0 Add four circle primitives for the rounded corners*
1,1,$1+$1,$2,$3*
1,1,$1+$1,$4,$5*
1,1,$1+$1,$6,$7*
1,1,$1+$1,$8,$9*
0 Add four rect primitives between the rounded corners*
20,1,$1+$1,$2,$3,$4,$5,0*
20,1,$1+$1,$4,$5,$6,$7,0*
20,1,$1+$1,$6,$7,$8,$9,0*
20,1,$1+$1,$8,$9,$2,$3,0*%
%AMFreePoly0*
4,1,19,0.500000,-0.750000,0.000000,-0.750000,0.000000,-0.744911,-0.071157,-0.744911,-0.207708,-0.704816,-0.327430,-0.627875,-0.420627,-0.520320,-0.479746,-0.390866,-0.500000,-0.250000,-0.500000,0.250000,-0.479746,0.390866,-0.420627,0.520320,-0.327430,0.627875,-0.207708,0.704816,-0.071157,0.744911,0.000000,0.744911,0.000000,0.750000,0.500000,0.750000,0.500000,-0.750000,0.500000,-0.750000,
$1*%
%AMFreePoly1*
4,1,19,0.000000,0.744911,0.071157,0.744911,0.207708,0.704816,0.327430,0.627875,0.420627,0.520320,0.479746,0.390866,0.500000,0.250000,0.500000,-0.250000,0.479746,-0.390866,0.420627,-0.520320,0.327430,-0.627875,0.207708,-0.704816,0.071157,-0.744911,0.000000,-0.744911,0.000000,-0.750000,-0.500000,-0.750000,-0.500000,0.750000,0.000000,0.750000,0.000000,0.744911,0.000000,0.744911,
$1*%
%AMFreePoly2*
4,1,19,0.550000,-0.750000,0.000000,-0.750000,0.000000,-0.744911,-0.071157,-0.744911,-0.207708,-0.704816,-0.327430,-0.627875,-0.420627,-0.520320,-0.479746,-0.390866,-0.500000,-0.250000,-0.500000,0.250000,-0.479746,0.390866,-0.420627,0.520320,-0.327430,0.627875,-0.207708,0.704816,-0.071157,0.744911,0.000000,0.744911,0.000000,0.750000,0.550000,0.750000,0.550000,-0.750000,0.550000,-0.750000,
$1*%
%AMFreePoly3*
4,1,19,0.000000,0.744911,0.071157,0.744911,0.207708,0.704816,0.327430,0.627875,0.420627,0.520320,0.479746,0.390866,0.500000,0.250000,0.500000,-0.250000,0.479746,-0.390866,0.420627,-0.520320,0.327430,-0.627875,0.207708,-0.704816,0.071157,-0.744911,0.000000,-0.744911,0.000000,-0.750000,-0.550000,-0.750000,-0.550000,0.750000,0.000000,0.750000,0.000000,0.744911,0.000000,0.744911,
$1*%
G04 Aperture macros list end*
%TA.AperFunction,SMDPad,CuDef*%
%ADD10RoundRect,0.200000X-0.200000X-0.250000X0.200000X-0.250000X0.200000X0.250000X-0.200000X0.250000X0*%
%TD*%
%TA.AperFunction,SMDPad,CuDef*%
%ADD11RoundRect,0.200000X-0.250000X0.200000X-0.250000X-0.200000X0.250000X-0.200000X0.250000X0.200000X0*%
%TD*%
%TA.AperFunction,ComponentPad*%
%ADD12O,1.950000X1.700000*%
%TD*%
%TA.AperFunction,ComponentPad*%
%ADD13RoundRect,0.250000X-0.725000X0.600000X-0.725000X-0.600000X0.725000X-0.600000X0.725000X0.600000X0*%
%TD*%
%TA.AperFunction,SMDPad,CuDef*%
%ADD14RoundRect,0.200000X0.200000X0.250000X-0.200000X0.250000X-0.200000X-0.250000X0.200000X-0.250000X0*%
%TD*%
%TA.AperFunction,ComponentPad*%
%ADD15C,0.700000*%
%TD*%
%TA.AperFunction,SMDPad,CuDef*%
%ADD16RoundRect,0.225000X-0.375000X0.225000X-0.375000X-0.225000X0.375000X-0.225000X0.375000X0.225000X0*%
%TD*%
%TA.AperFunction,SMDPad,CuDef*%
%ADD17RoundRect,0.250000X1.800000X0.800000X-1.800000X0.800000X-1.800000X-0.800000X1.800000X-0.800000X0*%
%TD*%
%TA.AperFunction,SMDPad,CuDef*%
%ADD18FreePoly0,270.000000*%
%TD*%
%TA.AperFunction,SMDPad,CuDef*%
%ADD19FreePoly1,270.000000*%
%TD*%
%TA.AperFunction,ComponentPad*%
%ADD20C,1.000000*%
%TD*%
%TA.AperFunction,ComponentPad*%
%ADD21RoundRect,1.500000X1.500000X-1.500000X1.500000X1.500000X-1.500000X1.500000X-1.500000X-1.500000X0*%
%TD*%
%TA.AperFunction,ComponentPad*%
%ADD22C,6.000000*%
%TD*%
%TA.AperFunction,ComponentPad*%
%ADD23R,1.700000X1.700000*%
%TD*%
%TA.AperFunction,ComponentPad*%
%ADD24O,1.700000X1.700000*%
%TD*%
%TA.AperFunction,SMDPad,CuDef*%
%ADD25RoundRect,0.200000X0.250000X-0.200000X0.250000X0.200000X-0.250000X0.200000X-0.250000X-0.200000X0*%
%TD*%
%TA.AperFunction,SMDPad,CuDef*%
%ADD26RoundRect,0.250000X-0.325000X-1.100000X0.325000X-1.100000X0.325000X1.100000X-0.325000X1.100000X0*%
%TD*%
%TA.AperFunction,SMDPad,CuDef*%
%ADD27R,0.900000X1.500000*%
%TD*%
%TA.AperFunction,ComponentPad*%
%ADD28RoundRect,0.250000X0.725000X-0.600000X0.725000X0.600000X-0.725000X0.600000X-0.725000X-0.600000X0*%
%TD*%
%TA.AperFunction,SMDPad,CuDef*%
%ADD29RoundRect,0.250000X0.800000X-1.800000X0.800000X1.800000X-0.800000X1.800000X-0.800000X-1.800000X0*%
%TD*%
%TA.AperFunction,SMDPad,CuDef*%
%ADD30R,2.000000X1.500000*%
%TD*%
%TA.AperFunction,ComponentPad*%
%ADD31C,1.524000*%
%TD*%
%TA.AperFunction,ComponentPad*%
%ADD32RoundRect,0.206250X0.618750X-0.618750X0.618750X0.618750X-0.618750X0.618750X-0.618750X-0.618750X0*%
%TD*%
%TA.AperFunction,ComponentPad*%
%ADD33C,1.700000*%
%TD*%
%TA.AperFunction,SMDPad,CuDef*%
%ADD34RoundRect,0.210000X-0.840000X-1.340000X0.840000X-1.340000X0.840000X1.340000X-0.840000X1.340000X0*%
%TD*%
%TA.AperFunction,SMDPad,CuDef*%
%ADD35RoundRect,0.210000X-0.840000X-1.390000X0.840000X-1.390000X0.840000X1.390000X-0.840000X1.390000X0*%
%TD*%
%TA.AperFunction,SMDPad,CuDef*%
%ADD36RoundRect,0.150000X0.587500X0.150000X-0.587500X0.150000X-0.587500X-0.150000X0.587500X-0.150000X0*%
%TD*%
%TA.AperFunction,ComponentPad*%
%ADD37RoundRect,1.500000X-1.500000X-1.500000X1.500000X-1.500000X1.500000X1.500000X-1.500000X1.500000X0*%
%TD*%
%TA.AperFunction,SMDPad,CuDef*%
%ADD38RoundRect,0.150000X-0.150000X0.512500X-0.150000X-0.512500X0.150000X-0.512500X0.150000X0.512500X0*%
%TD*%
%TA.AperFunction,ComponentPad*%
%ADD39RoundRect,1.500000X-1.500000X1.500000X-1.500000X-1.500000X1.500000X-1.500000X1.500000X1.500000X0*%
%TD*%
%TA.AperFunction,ComponentPad*%
%ADD40C,1.500000*%
%TD*%
%TA.AperFunction,SMDPad,CuDef*%
%ADD41RoundRect,0.218750X-0.256250X0.218750X-0.256250X-0.218750X0.256250X-0.218750X0.256250X0.218750X0*%
%TD*%
%TA.AperFunction,SMDPad,CuDef*%
%ADD42RoundRect,0.250000X-1.100000X0.325000X-1.100000X-0.325000X1.100000X-0.325000X1.100000X0.325000X0*%
%TD*%
%TA.AperFunction,SMDPad,CuDef*%
%ADD43RoundRect,0.250000X0.350000X-0.850000X0.350000X0.850000X-0.350000X0.850000X-0.350000X-0.850000X0*%
%TD*%
%TA.AperFunction,SMDPad,CuDef*%
%ADD44RoundRect,0.250000X1.125000X-1.275000X1.125000X1.275000X-1.125000X1.275000X-1.125000X-1.275000X0*%
%TD*%
%TA.AperFunction,SMDPad,CuDef*%
%ADD45RoundRect,0.249997X2.650003X-2.950003X2.650003X2.950003X-2.650003X2.950003X-2.650003X-2.950003X0*%
%TD*%
%TA.AperFunction,ComponentPad*%
%ADD46C,3.000000*%
%TD*%
%TA.AperFunction,SMDPad,CuDef*%
%ADD47R,1.500000X0.900000*%
%TD*%
%TA.AperFunction,SMDPad,CuDef*%
%ADD48RoundRect,0.225000X0.375000X-0.225000X0.375000X0.225000X-0.375000X0.225000X-0.375000X-0.225000X0*%
%TD*%
%TA.AperFunction,SMDPad,CuDef*%
%ADD49RoundRect,0.250000X0.325000X1.100000X-0.325000X1.100000X-0.325000X-1.100000X0.325000X-1.100000X0*%
%TD*%
%TA.AperFunction,SMDPad,CuDef*%
%ADD50RoundRect,0.250000X-0.350000X0.850000X-0.350000X-0.850000X0.350000X-0.850000X0.350000X0.850000X0*%
%TD*%
%TA.AperFunction,SMDPad,CuDef*%
%ADD51RoundRect,0.250000X-1.125000X1.275000X-1.125000X-1.275000X1.125000X-1.275000X1.125000X1.275000X0*%
%TD*%
%TA.AperFunction,SMDPad,CuDef*%
%ADD52RoundRect,0.249997X-2.650003X2.950003X-2.650003X-2.950003X2.650003X-2.950003X2.650003X2.950003X0*%
%TD*%
%TA.AperFunction,SMDPad,CuDef*%
%ADD53RoundRect,0.250000X-0.400000X-0.550000X0.400000X-0.550000X0.400000X0.550000X-0.400000X0.550000X0*%
%TD*%
%TA.AperFunction,ComponentPad*%
%ADD54RoundRect,0.250000X0.600000X0.725000X-0.600000X0.725000X-0.600000X-0.725000X0.600000X-0.725000X0*%
%TD*%
%TA.AperFunction,ComponentPad*%
%ADD55O,1.700000X1.950000*%
%TD*%
%TA.AperFunction,SMDPad,CuDef*%
%ADD56RoundRect,0.250000X0.925000X-0.400000X0.925000X0.400000X-0.925000X0.400000X-0.925000X-0.400000X0*%
%TD*%
%TA.AperFunction,SMDPad,CuDef*%
%ADD57RoundRect,0.062500X0.062500X-0.350000X0.062500X0.350000X-0.062500X0.350000X-0.062500X-0.350000X0*%
%TD*%
%TA.AperFunction,SMDPad,CuDef*%
%ADD58RoundRect,0.062500X0.350000X-0.062500X0.350000X0.062500X-0.350000X0.062500X-0.350000X-0.062500X0*%
%TD*%
%TA.AperFunction,SMDPad,CuDef*%
%ADD59R,2.600000X2.600000*%
%TD*%
%TA.AperFunction,SMDPad,CuDef*%
%ADD60RoundRect,0.175000X0.325000X0.175000X-0.325000X0.175000X-0.325000X-0.175000X0.325000X-0.175000X0*%
%TD*%
%TA.AperFunction,SMDPad,CuDef*%
%ADD61RoundRect,0.150000X-0.150000X0.587500X-0.150000X-0.587500X0.150000X-0.587500X0.150000X0.587500X0*%
%TD*%
%TA.AperFunction,SMDPad,CuDef*%
%ADD62RoundRect,0.625000X0.625000X1.025000X-0.625000X1.025000X-0.625000X-1.025000X0.625000X-1.025000X0*%
%TD*%
%TA.AperFunction,ComponentPad*%
%ADD63RoundRect,0.206250X-0.618750X-0.618750X0.618750X-0.618750X0.618750X0.618750X-0.618750X0.618750X0*%
%TD*%
%TA.AperFunction,SMDPad,CuDef*%
%ADD64R,1.750000X0.450000*%
%TD*%
%TA.AperFunction,ComponentPad*%
%ADD65R,2.400000X2.400000*%
%TD*%
%TA.AperFunction,ComponentPad*%
%ADD66C,2.400000*%
%TD*%
%TA.AperFunction,SMDPad,CuDef*%
%ADD67R,0.350000X0.375000*%
%TD*%
%TA.AperFunction,SMDPad,CuDef*%
%ADD68R,0.375000X0.350000*%
%TD*%
%TA.AperFunction,SMDPad,CuDef*%
%ADD69FreePoly2,0.000000*%
%TD*%
%TA.AperFunction,SMDPad,CuDef*%
%ADD70R,1.000000X1.500000*%
%TD*%
%TA.AperFunction,SMDPad,CuDef*%
%ADD71FreePoly3,0.000000*%
%TD*%
%TA.AperFunction,SMDPad,CuDef*%
%ADD72R,1.050000X1.000000*%
%TD*%
%TA.AperFunction,SMDPad,CuDef*%
%ADD73R,2.200000X1.050000*%
%TD*%
%TA.AperFunction,SMDPad,CuDef*%
%ADD74R,0.450000X1.500000*%
%TD*%
%TA.AperFunction,ComponentPad*%
%ADD75O,1.800000X1.100000*%
%TD*%
%TA.AperFunction,ComponentPad*%
%ADD76O,2.200000X1.100000*%
%TD*%
%TA.AperFunction,SMDPad,CuDef*%
%ADD77RoundRect,0.150000X0.825000X0.150000X-0.825000X0.150000X-0.825000X-0.150000X0.825000X-0.150000X0*%
%TD*%
%TA.AperFunction,ComponentPad*%
%ADD78RoundRect,0.250000X-0.600000X-0.750000X0.600000X-0.750000X0.600000X0.750000X-0.600000X0.750000X0*%
%TD*%
%TA.AperFunction,ComponentPad*%
%ADD79O,1.700000X2.000000*%
%TD*%
%TA.AperFunction,SMDPad,CuDef*%
%ADD80RoundRect,0.250000X-0.312500X-1.450000X0.312500X-1.450000X0.312500X1.450000X-0.312500X1.450000X0*%
%TD*%
%TA.AperFunction,SMDPad,CuDef*%
%ADD81RoundRect,0.250000X1.100000X-0.325000X1.100000X0.325000X-1.100000X0.325000X-1.100000X-0.325000X0*%
%TD*%
%TA.AperFunction,SMDPad,CuDef*%
%ADD82RoundRect,0.250000X2.250000X2.250000X-2.250000X2.250000X-2.250000X-2.250000X2.250000X-2.250000X0*%
%TD*%
%TA.AperFunction,SMDPad,CuDef*%
%ADD83RoundRect,0.225000X0.525000X0.225000X-0.525000X0.225000X-0.525000X-0.225000X0.525000X-0.225000X0*%
%TD*%
%TA.AperFunction,SMDPad,CuDef*%
%ADD84RoundRect,0.225000X-0.225000X0.525000X-0.225000X-0.525000X0.225000X-0.525000X0.225000X0.525000X0*%
%TD*%
%TA.AperFunction,ViaPad*%
%ADD85C,0.800000*%
%TD*%
%TA.AperFunction,ViaPad*%
%ADD86C,0.450000*%
%TD*%
%TA.AperFunction,ViaPad*%
%ADD87C,0.600000*%
%TD*%
%TA.AperFunction,Conductor*%
%ADD88C,0.200000*%
%TD*%
%TA.AperFunction,Conductor*%
%ADD89C,0.400000*%
%TD*%
%TA.AperFunction,Conductor*%
%ADD90C,0.800000*%
%TD*%
%TA.AperFunction,Conductor*%
%ADD91C,1.000000*%
%TD*%
%TA.AperFunction,Conductor*%
%ADD92C,1.500000*%
%TD*%
%TA.AperFunction,Conductor*%
%ADD93C,0.250000*%
%TD*%
%TA.AperFunction,Conductor*%
%ADD94C,0.600000*%
%TD*%
%TA.AperFunction,Conductor*%
%ADD95C,6.200000*%
%TD*%
%TA.AperFunction,Conductor*%
%ADD96C,2.500000*%
%TD*%
%TA.AperFunction,Conductor*%
%ADD97C,3.000000*%
%TD*%
G04 APERTURE END LIST*
%TA.AperFunction,EtchedComponent*%
%TO.C,JP501*%
G36*
X108723000Y-54603000D02*
G01*
X108223000Y-54603000D01*
X108223000Y-54003000D01*
X108723000Y-54003000D01*
X108723000Y-54603000D01*
G37*
%TD.AperFunction*%
%TA.AperFunction,EtchedComponent*%
%TO.C,JP601*%
G36*
X108704000Y-71632000D02*
G01*
X108104000Y-71632000D01*
X108104000Y-71132000D01*
X108704000Y-71132000D01*
X108704000Y-71632000D01*
G37*
%TD.AperFunction*%
%TD*%
D10*
%TO.P,R114,1*%
%TO.N,Net-(U103-GPIO39)*%
X126806000Y-90498000D03*
%TO.P,R114,2*%
%TO.N,Net-(J105-Pin_2)*%
X128306000Y-90498000D03*
%TD*%
%TO.P,R113,1*%
%TO.N,Net-(U103-GPIO36)*%
X126818000Y-81608000D03*
%TO.P,R113,2*%
%TO.N,Net-(J104-Pin_2)*%
X128318000Y-81608000D03*
%TD*%
D11*
%TO.P,C114,1*%
%TO.N,Net-(U103-GPIO39)*%
X125028000Y-90510000D03*
%TO.P,C114,2*%
%TO.N,GND*%
X125028000Y-92010000D03*
%TD*%
%TO.P,C113,1*%
%TO.N,Net-(U103-GPIO36)*%
X125282000Y-81620000D03*
%TO.P,C113,2*%
%TO.N,GND*%
X125282000Y-83120000D03*
%TD*%
D12*
%TO.P,J105,3,Pin_3*%
%TO.N,Net-(J104-Pin_3)*%
X134680000Y-92958000D03*
%TO.P,J105,2,Pin_2*%
%TO.N,Net-(J105-Pin_2)*%
X134680000Y-90458000D03*
D13*
%TO.P,J105,1,Pin_1*%
%TO.N,Net-(J104-Pin_1)*%
X134680000Y-87958000D03*
%TD*%
D12*
%TO.P,J104,3,Pin_3*%
%TO.N,Net-(J104-Pin_3)*%
X134680000Y-81782000D03*
%TO.P,J104,2,Pin_2*%
%TO.N,Net-(J104-Pin_2)*%
X134680000Y-79282000D03*
D13*
%TO.P,J104,1,Pin_1*%
%TO.N,Net-(J104-Pin_1)*%
X134680000Y-76782000D03*
%TD*%
D10*
%TO.P,R120,1*%
%TO.N,GND*%
X126818000Y-92022000D03*
%TO.P,R120,2*%
%TO.N,Net-(J104-Pin_3)*%
X128318000Y-92022000D03*
%TD*%
D14*
%TO.P,R119,1*%
%TO.N,Net-(J104-Pin_1)*%
X128318000Y-85926000D03*
%TO.P,R119,2*%
%TO.N,+3.3V*%
X126818000Y-85926000D03*
%TD*%
D11*
%TO.P,C803,1*%
%TO.N,+3.3V*%
X126552000Y-78523000D03*
%TO.P,C803,2*%
%TO.N,GND*%
X126552000Y-80023000D03*
%TD*%
D15*
%TO.P,TP702,1,1*%
%TO.N,Net-(U701-GPB4)*%
X68538400Y-88466000D03*
%TD*%
D11*
%TO.P,C108,1*%
%TO.N,+3.3V*%
X116392000Y-112608000D03*
%TO.P,C108,2*%
%TO.N,GND*%
X116392000Y-114108000D03*
%TD*%
D16*
%TO.P,D101,1,K*%
%TO.N,+5V*%
X130970000Y-104850000D03*
%TO.P,D101,2,A*%
%TO.N,Net-(D101-A)*%
X130970000Y-108150000D03*
%TD*%
D17*
%TO.P,C201,1*%
%TO.N,Net-(D201-K)*%
X79186000Y-57536000D03*
%TO.P,C201,2*%
%TO.N,GND*%
X70586000Y-57536000D03*
%TD*%
D18*
%TO.P,JP604,1,A*%
%TO.N,/CPU/RADIO_6*%
X115904000Y-70732000D03*
D19*
%TO.P,JP604,2,B*%
%TO.N,Net-(JP604-B)*%
X115904000Y-72032000D03*
%TD*%
D20*
%TO.P,TP701,1,1*%
%TO.N,/Accumonitor/Vbatt*%
X83010000Y-75390000D03*
%TD*%
D21*
%TO.P,J202,1,Pin_1*%
%TO.N,GND*%
X50510000Y-58990000D03*
D22*
%TO.P,J202,2,Pin_2*%
%TO.N,Net-(J202-Pin_2)*%
X50510000Y-51790000D03*
%TD*%
D23*
%TO.P,J708,1,Pin_1*%
%TO.N,Net-(J708-Pin_1)*%
X72510000Y-111390000D03*
D24*
%TO.P,J708,2,Pin_2*%
%TO.N,Net-(J708-Pin_2)*%
X72510000Y-108850000D03*
%TD*%
D10*
%TO.P,R111,1*%
%TO.N,+3.3V*%
X93036000Y-99642000D03*
%TO.P,R111,2*%
%TO.N,/CPU/SDA_DISP*%
X94536000Y-99642000D03*
%TD*%
D25*
%TO.P,R104,1*%
%TO.N,+3.3V*%
X123250000Y-113092000D03*
%TO.P,R104,2*%
%TO.N,EN*%
X123250000Y-111592000D03*
%TD*%
D10*
%TO.P,R110,1*%
%TO.N,+3.3V*%
X93036000Y-111173600D03*
%TO.P,R110,2*%
%TO.N,/CPU/SCL*%
X94536000Y-111173600D03*
%TD*%
%TO.P,C303,1*%
%TO.N,Net-(U301-C1)*%
X141247000Y-57935200D03*
%TO.P,C303,2*%
%TO.N,GND*%
X142747000Y-57935200D03*
%TD*%
D26*
%TO.P,C802,1*%
%TO.N,+3.3V*%
X125077000Y-76020000D03*
%TO.P,C802,2*%
%TO.N,GND*%
X128027000Y-76020000D03*
%TD*%
D27*
%TO.P,D103,1,VDD*%
%TO.N,+3.3V*%
X86660000Y-77940000D03*
%TO.P,D103,2,DOUT*%
%TO.N,Net-(D103-DOUT)*%
X83360000Y-77940000D03*
%TO.P,D103,3,VSS*%
%TO.N,GND*%
X83360000Y-82840000D03*
%TO.P,D103,4,DIN*%
%TO.N,/CPU/LEDS*%
X86660000Y-82840000D03*
%TD*%
D28*
%TO.P,J402,1,Pin_1*%
%TO.N,Net-(J402-Pin_1)*%
X92245000Y-83814000D03*
D12*
%TO.P,J402,2,Pin_2*%
%TO.N,GND*%
X92245000Y-81314000D03*
%TO.P,J402,3,Pin_3*%
%TO.N,unconnected-(J402-Pin_3-Pad3)*%
X92245000Y-78814000D03*
%TD*%
D29*
%TO.P,C202,1*%
%TO.N,Net-(D201-K)*%
X73969000Y-49196000D03*
%TO.P,C202,2*%
%TO.N,GND*%
X73969000Y-40596000D03*
%TD*%
D26*
%TO.P,C602,1*%
%TO.N,+3.3V*%
X119743000Y-83640000D03*
%TO.P,C602,2*%
%TO.N,GND*%
X122693000Y-83640000D03*
%TD*%
D10*
%TO.P,R109,1*%
%TO.N,+3.3V*%
X93036000Y-107389000D03*
%TO.P,R109,2*%
%TO.N,/CPU/SDA*%
X94536000Y-107389000D03*
%TD*%
%TO.P,R705,1*%
%TO.N,LED3*%
X80760000Y-91590000D03*
%TO.P,R705,2*%
%TO.N,Net-(J703-Pin_2)*%
X82260000Y-91590000D03*
%TD*%
D30*
%TO.P,U601,1,ANT*%
%TO.N,Net-(J601-In)*%
X117154000Y-89482000D03*
%TO.P,U601,2,GND*%
%TO.N,GND*%
X117154000Y-87482000D03*
%TO.P,U601,3,VDD*%
%TO.N,+3.3V*%
X117154000Y-85482000D03*
%TO.P,U601,4,~{RESET}*%
%TO.N,/CPU/RADIO_5*%
X117154000Y-83482000D03*
%TO.P,U601,5,DIO0*%
%TO.N,Net-(JP601-B)*%
X117154000Y-81482000D03*
%TO.P,U601,6,DIO1*%
%TO.N,Net-(JP602-B)*%
X117154000Y-79482000D03*
%TO.P,U601,7,DIO2*%
%TO.N,Net-(JP603-B)*%
X117154000Y-77482000D03*
%TO.P,U601,8,DIO3*%
%TO.N,Net-(JP604-B)*%
X117154000Y-75482000D03*
%TO.P,U601,9,GND*%
%TO.N,GND*%
X101154000Y-75482000D03*
%TO.P,U601,10,DIO4*%
%TO.N,Net-(JP605-B)*%
X101154000Y-77482000D03*
%TO.P,U601,11,DIO5*%
%TO.N,Net-(JP606-B)*%
X101154000Y-79482000D03*
%TO.P,U601,12,SCK*%
%TO.N,/CPU/RADIO_3*%
X101154000Y-81482000D03*
%TO.P,U601,13,MISO*%
%TO.N,/CPU/RADIO_2*%
X101154000Y-83482000D03*
%TO.P,U601,14,MOSI*%
%TO.N,/CPU/RADIO_1*%
X101154000Y-85482000D03*
%TO.P,U601,15,~{NSS}*%
%TO.N,/CPU/RADIO_4*%
X101154000Y-87482000D03*
%TO.P,U601,16,GND*%
%TO.N,GND*%
X101154000Y-89482000D03*
%TD*%
D31*
%TO.P,TP1,1,1*%
%TO.N,unconnected-(TP1-Pad1)*%
X121450000Y-52080000D03*
%TO.P,TP1,2*%
%TO.N,N/C*%
X123990000Y-52080000D03*
%TO.P,TP1,3*%
X126530000Y-52080000D03*
%TO.P,TP1,4*%
X129070000Y-52080000D03*
%TO.P,TP1,5*%
X121450000Y-54620000D03*
%TO.P,TP1,6*%
X123990000Y-54620000D03*
%TO.P,TP1,7*%
X126530000Y-54620000D03*
%TO.P,TP1,8*%
X129070000Y-54620000D03*
%TO.P,TP1,9*%
X121450000Y-57160000D03*
%TO.P,TP1,10*%
X123990000Y-57160000D03*
%TO.P,TP1,11*%
X126530000Y-57160000D03*
%TO.P,TP1,12*%
X129070000Y-57160000D03*
%TO.P,TP1,13*%
X121450000Y-59700000D03*
%TO.P,TP1,14*%
X123990000Y-59700000D03*
%TO.P,TP1,15*%
X126530000Y-59700000D03*
%TO.P,TP1,16*%
X129070000Y-59700000D03*
%TD*%
D32*
%TO.P,J901,1,Pin_1*%
%TO.N,GND*%
X93786000Y-97356000D03*
D33*
%TO.P,J901,2,Pin_2*%
%TO.N,+3.3V*%
X93786000Y-94816000D03*
%TO.P,J901,3,Pin_3*%
%TO.N,/CPU/SCL_DISP*%
X93786000Y-92276000D03*
%TO.P,J901,4,Pin_4*%
%TO.N,/CPU/SDA_DISP*%
X93786000Y-89736000D03*
%TD*%
D10*
%TO.P,R701,1*%
%TO.N,Net-(U701-GPA6)*%
X80760000Y-90190000D03*
%TO.P,R701,2*%
%TO.N,Net-(D701-K)*%
X82260000Y-90190000D03*
%TD*%
%TO.P,R112,1*%
%TO.N,+3.3V*%
X93036000Y-101166000D03*
%TO.P,R112,2*%
%TO.N,/CPU/SCL_DISP*%
X94536000Y-101166000D03*
%TD*%
D28*
%TO.P,J709,1,Pin_1*%
%TO.N,/Accumonitor/GREEN*%
X74760000Y-78012000D03*
D12*
%TO.P,J709,2,Pin_2*%
%TO.N,+28V*%
X74760000Y-75512000D03*
%TO.P,J709,3,Pin_3*%
%TO.N,/Accumonitor/RED*%
X74760000Y-73012000D03*
%TD*%
D34*
%TO.P,L201,1*%
%TO.N,Net-(D204-K)*%
X90139000Y-41656000D03*
D35*
%TO.P,L201,2*%
%TO.N,+5V*%
X101639000Y-41656000D03*
%TD*%
D25*
%TO.P,C801,1*%
%TO.N,+3.3V*%
X129854000Y-77024000D03*
%TO.P,C801,2*%
%TO.N,GND*%
X129854000Y-75524000D03*
%TD*%
D10*
%TO.P,R118,2*%
%TO.N,Net-(J104-Pin_2)*%
X128306000Y-82878000D03*
%TO.P,R118,1*%
%TO.N,GND*%
X126806000Y-82878000D03*
%TD*%
D36*
%TO.P,Q702,1,B*%
%TO.N,Net-(Q702-B)*%
X74325000Y-85352000D03*
%TO.P,Q702,2,E*%
%TO.N,GND*%
X74325000Y-83452000D03*
%TO.P,Q702,3,C*%
%TO.N,Net-(Q702-C)*%
X72450000Y-84402000D03*
%TD*%
D11*
%TO.P,R121,1*%
%TO.N,Net-(J103-Pin_1)*%
X97088000Y-65110000D03*
%TO.P,R121,2*%
%TO.N,Net-(D105-DOUT)*%
X97088000Y-66610000D03*
%TD*%
D37*
%TO.P,J201,1,Pin_1*%
%TO.N,GND*%
X50510000Y-75390000D03*
D22*
%TO.P,J201,2,Pin_2*%
%TO.N,/PSU/ACC*%
X57710000Y-75390000D03*
%TD*%
D38*
%TO.P,U101,1,IO1*%
%TO.N,Net-(J101-D-)*%
X128618000Y-105362500D03*
%TO.P,U101,2,VN*%
%TO.N,GND*%
X127668000Y-105362500D03*
%TO.P,U101,3,IO2*%
%TO.N,Net-(J101-D+)*%
X126718000Y-105362500D03*
%TO.P,U101,4,IO3*%
X126718000Y-107637500D03*
%TO.P,U101,5,VP*%
%TO.N,Net-(D101-A)*%
X127668000Y-107637500D03*
%TO.P,U101,6,IO4*%
%TO.N,Net-(J101-D-)*%
X128618000Y-107637500D03*
%TD*%
D18*
%TO.P,JP602,1,A*%
%TO.N,/CPU/RADIO_6*%
X110904000Y-70732000D03*
D19*
%TO.P,JP602,2,B*%
%TO.N,Net-(JP602-B)*%
X110904000Y-72032000D03*
%TD*%
D39*
%TO.P,J203,1,Pin_1*%
%TO.N,GND*%
X50510000Y-91790000D03*
D22*
%TO.P,J203,2,Pin_2*%
%TO.N,Net-(J203-Pin_2)*%
X50510000Y-98990000D03*
%TD*%
D40*
%TO.P,TP202,1,1*%
%TO.N,+3.3V*%
X112582000Y-53795000D03*
%TD*%
D36*
%TO.P,Q703,1,B*%
%TO.N,Net-(Q703-B)*%
X78467500Y-85352000D03*
%TO.P,Q703,2,E*%
%TO.N,GND*%
X78467500Y-83452000D03*
%TO.P,Q703,3,C*%
%TO.N,Net-(Q703-C)*%
X76592500Y-84402000D03*
%TD*%
D10*
%TO.P,D702,1,K*%
%TO.N,Net-(D702-K)*%
X83560000Y-88790000D03*
%TO.P,D702,2,A*%
%TO.N,+3.3V*%
X85060000Y-88790000D03*
%TD*%
D41*
%TO.P,D202,1,K*%
%TO.N,GND*%
X104729000Y-45018500D03*
%TO.P,D202,2,A*%
%TO.N,Net-(D202-A)*%
X104729000Y-46593500D03*
%TD*%
D10*
%TO.P,C603,1*%
%TO.N,+3.3V*%
X113864000Y-92784000D03*
%TO.P,C603,2*%
%TO.N,GND*%
X115364000Y-92784000D03*
%TD*%
D42*
%TO.P,C208,1*%
%TO.N,+5V*%
X101089000Y-48436000D03*
%TO.P,C208,2*%
%TO.N,GND*%
X101089000Y-51386000D03*
%TD*%
D14*
%TO.P,C702,1*%
%TO.N,+3.3V*%
X121714000Y-86180000D03*
%TO.P,C702,2*%
%TO.N,GND*%
X120214000Y-86180000D03*
%TD*%
D43*
%TO.P,U201,1,VI*%
%TO.N,+5V*%
X111503000Y-48641000D03*
D44*
%TO.P,U201,2,GND*%
%TO.N,GND*%
X112258000Y-44016000D03*
X115308000Y-44016000D03*
D45*
X113783000Y-42341000D03*
D44*
X112258000Y-40666000D03*
X115308000Y-40666000D03*
D43*
%TO.P,U201,3,VO*%
%TO.N,+3.3V*%
X116063000Y-48641000D03*
%TD*%
D46*
%TO.P,F201,1*%
%TO.N,Net-(J202-Pin_2)*%
X62510000Y-39390000D03*
%TO.P,F201,2*%
%TO.N,/PSU/POWER*%
X62510000Y-61890000D03*
%TD*%
D25*
%TO.P,R401,1*%
%TO.N,/CPU/ESC_BB*%
X97088000Y-74242000D03*
%TO.P,R401,2*%
%TO.N,Net-(J401-Pin_1)*%
X97088000Y-72742000D03*
%TD*%
D47*
%TO.P,D105,1,VDD*%
%TO.N,+3.3V*%
X99083000Y-64083000D03*
%TO.P,D105,2,DOUT*%
%TO.N,Net-(D105-DOUT)*%
X99083000Y-67383000D03*
%TO.P,D105,3,VSS*%
%TO.N,GND*%
X103983000Y-67383000D03*
%TO.P,D105,4,DIN*%
%TO.N,Net-(D104-DOUT)*%
X103983000Y-64083000D03*
%TD*%
D11*
%TO.P,C112,1*%
%TO.N,+3.3V*%
X88510000Y-79640000D03*
%TO.P,C112,2*%
%TO.N,GND*%
X88510000Y-81140000D03*
%TD*%
D48*
%TO.P,D703,1,K*%
%TO.N,+3.3V*%
X80510000Y-78040000D03*
%TO.P,D703,2,A*%
%TO.N,/Accumonitor/Vbatt*%
X80510000Y-74740000D03*
%TD*%
D23*
%TO.P,SW101,1,1*%
%TO.N,GND*%
X122615000Y-100785000D03*
D24*
%TO.P,SW101,2,2*%
%TO.N,DR0*%
X122615000Y-103325000D03*
%TD*%
D18*
%TO.P,JP603,1,A*%
%TO.N,/CPU/RADIO_6*%
X113404000Y-70732000D03*
D19*
%TO.P,JP603,2,B*%
%TO.N,Net-(JP603-B)*%
X113404000Y-72032000D03*
%TD*%
D11*
%TO.P,R711,1*%
%TO.N,+28V*%
X69510000Y-109640000D03*
%TO.P,R711,2*%
%TO.N,Net-(J708-Pin_2)*%
X69510000Y-111140000D03*
%TD*%
D14*
%TO.P,R716,1*%
%TO.N,/Accumonitor/Vbatt*%
X81260000Y-71390000D03*
%TO.P,R716,2*%
%TO.N,GND*%
X79760000Y-71390000D03*
%TD*%
D49*
%TO.P,C302,1*%
%TO.N,+3.3V*%
X137172800Y-55852400D03*
%TO.P,C302,2*%
%TO.N,GND*%
X134222800Y-55852400D03*
%TD*%
D27*
%TO.P,D104,1,VDD*%
%TO.N,+3.3V*%
X86660000Y-67940000D03*
%TO.P,D104,2,DOUT*%
%TO.N,Net-(D104-DOUT)*%
X83360000Y-67940000D03*
%TO.P,D104,3,VSS*%
%TO.N,GND*%
X83360000Y-72840000D03*
%TO.P,D104,4,DIN*%
%TO.N,Net-(D103-DOUT)*%
X86660000Y-72840000D03*
%TD*%
D14*
%TO.P,R706,1*%
%TO.N,Net-(U701-GPB2)*%
X73708000Y-101928000D03*
%TO.P,R706,2*%
%TO.N,Net-(Q701-B)*%
X72208000Y-101928000D03*
%TD*%
D25*
%TO.P,R203,1*%
%TO.N,Net-(D203-A)*%
X108479000Y-46556000D03*
%TO.P,R203,2*%
%TO.N,+3.3V*%
X108479000Y-45056000D03*
%TD*%
D26*
%TO.P,C601,1*%
%TO.N,+3.3V*%
X119743000Y-80140000D03*
%TO.P,C601,2*%
%TO.N,GND*%
X122693000Y-80140000D03*
%TD*%
D11*
%TO.P,C211,1*%
%TO.N,+5V*%
X103629000Y-49161000D03*
%TO.P,C211,2*%
%TO.N,GND*%
X103629000Y-50661000D03*
%TD*%
%TO.P,R103,1*%
%TO.N,+3.3V*%
X99755000Y-92288000D03*
%TO.P,R103,2*%
%TO.N,DR0*%
X99755000Y-93788000D03*
%TD*%
D50*
%TO.P,Q201,1,G*%
%TO.N,Net-(D201-A)*%
X87540000Y-56356000D03*
D51*
%TO.P,Q201,2,D*%
%TO.N,+28V*%
X86785000Y-60981000D03*
X83735000Y-60981000D03*
D52*
X85260000Y-62656000D03*
D51*
X86785000Y-64331000D03*
X83735000Y-64331000D03*
D50*
%TO.P,Q201,3,S*%
%TO.N,Net-(D201-K)*%
X82980000Y-56356000D03*
%TD*%
D23*
%TO.P,J702,1,Pin_1*%
%TO.N,GND*%
X86445000Y-97390000D03*
D24*
%TO.P,J702,2,Pin_2*%
%TO.N,Net-(J702-Pin_2)*%
X88985000Y-97390000D03*
%TD*%
D14*
%TO.P,R115,1*%
%TO.N,Net-(J105-Pin_2)*%
X128306000Y-87414000D03*
%TO.P,R115,2*%
%TO.N,+3.3V*%
X126806000Y-87414000D03*
%TD*%
D40*
%TO.P,TP201,1,1*%
%TO.N,GND*%
X97723000Y-53414000D03*
%TD*%
D14*
%TO.P,D102,1,K*%
%TO.N,Net-(D102-K)*%
X117760000Y-101390000D03*
%TO.P,D102,2,A*%
%TO.N,+3.3V*%
X116260000Y-101390000D03*
%TD*%
D53*
%TO.P,D201,1,K*%
%TO.N,Net-(D201-K)*%
X83610000Y-53390000D03*
%TO.P,D201,2,A*%
%TO.N,Net-(D201-A)*%
X87110000Y-53390000D03*
%TD*%
D40*
%TO.P,TP203,1,1*%
%TO.N,+5V*%
X105724000Y-53795000D03*
%TD*%
D23*
%TO.P,J706,1,Pin_1*%
%TO.N,GND*%
X80510000Y-111390000D03*
D24*
%TO.P,J706,2,Pin_2*%
%TO.N,SW2*%
X80510000Y-108850000D03*
%TD*%
D18*
%TO.P,JP606,1,A*%
%TO.N,/CPU/RADIO_6*%
X105904000Y-70732000D03*
D19*
%TO.P,JP606,2,B*%
%TO.N,Net-(JP606-B)*%
X105904000Y-72032000D03*
%TD*%
D54*
%TO.P,J103,1,Pin_1*%
%TO.N,Net-(J103-Pin_1)*%
X99588000Y-59527000D03*
D55*
%TO.P,J103,2,Pin_2*%
%TO.N,+5V*%
X97088000Y-59527000D03*
%TO.P,J103,3,Pin_3*%
%TO.N,GND*%
X94588000Y-59527000D03*
%TD*%
D10*
%TO.P,R703,1*%
%TO.N,LED1*%
X80760000Y-94390000D03*
%TO.P,R703,2*%
%TO.N,Net-(J701-Pin_2)*%
X82260000Y-94390000D03*
%TD*%
%TO.P,R108,1*%
%TO.N,Net-(U103-GPIO25)*%
X116260000Y-102890000D03*
%TO.P,R108,2*%
%TO.N,Net-(D102-K)*%
X117760000Y-102890000D03*
%TD*%
D14*
%TO.P,C205,1*%
%TO.N,+3.3V*%
X116063000Y-51181000D03*
%TO.P,C205,2*%
%TO.N,GND*%
X114563000Y-51181000D03*
%TD*%
D28*
%TO.P,J401,1,Pin_1*%
%TO.N,Net-(J401-Pin_1)*%
X92245000Y-71956000D03*
D12*
%TO.P,J401,2,Pin_2*%
%TO.N,GND*%
X92245000Y-69456000D03*
%TO.P,J401,3,Pin_3*%
%TO.N,unconnected-(J401-Pin_3-Pad3)*%
X92245000Y-66956000D03*
%TD*%
D42*
%TO.P,C207,1*%
%TO.N,+5V*%
X91564000Y-48436000D03*
%TO.P,C207,2*%
%TO.N,GND*%
X91564000Y-51386000D03*
%TD*%
D14*
%TO.P,R714,1*%
%TO.N,/Accumonitor/Vbatt*%
X81260000Y-69890000D03*
%TO.P,R714,2*%
%TO.N,GND*%
X79760000Y-69890000D03*
%TD*%
D18*
%TO.P,JP605,1,A*%
%TO.N,/CPU/RADIO_6*%
X103404000Y-70732000D03*
D19*
%TO.P,JP605,2,B*%
%TO.N,Net-(JP605-B)*%
X103404000Y-72032000D03*
%TD*%
D56*
%TO.P,C206,1*%
%TO.N,+3.3V*%
X119758000Y-48921000D03*
%TO.P,C206,2*%
%TO.N,GND*%
X119758000Y-45821000D03*
%TD*%
D14*
%TO.P,R713,1*%
%TO.N,Net-(Q703-C)*%
X78280000Y-81862000D03*
%TO.P,R713,2*%
%TO.N,/Accumonitor/RED*%
X76780000Y-81862000D03*
%TD*%
D23*
%TO.P,J705,1,Pin_1*%
%TO.N,GND*%
X76510000Y-111390000D03*
D24*
%TO.P,J705,2,Pin_2*%
%TO.N,SW3*%
X76510000Y-108850000D03*
%TD*%
D11*
%TO.P,C304,1*%
%TO.N,+3.3V*%
X139408000Y-55841200D03*
%TO.P,C304,2*%
%TO.N,GND*%
X139408000Y-57341200D03*
%TD*%
D57*
%TO.P,U102,1,RI/CLK*%
%TO.N,unconnected-(U102-RI{slash}CLK-Pad1)*%
X126306000Y-99039500D03*
%TO.P,U102,2,GND*%
%TO.N,GND*%
X126806000Y-99039500D03*
%TO.P,U102,3,D+*%
%TO.N,Net-(J101-D+)*%
X127306000Y-99039500D03*
%TO.P,U102,4,D-*%
%TO.N,Net-(J101-D-)*%
X127806000Y-99039500D03*
%TO.P,U102,5,VIO*%
%TO.N,Net-(U102-VDD)*%
X128306000Y-99039500D03*
%TO.P,U102,6,VDD*%
X128806000Y-99039500D03*
D58*
%TO.P,U102,7,REGIN*%
%TO.N,+5V*%
X129493500Y-98352000D03*
%TO.P,U102,8,VBUS*%
X129493500Y-97852000D03*
%TO.P,U102,9,~{RSTb}*%
%TO.N,Net-(U102-~{RSTb})*%
X129493500Y-97352000D03*
%TO.P,U102,10,NC*%
%TO.N,unconnected-(U102-NC-Pad10)*%
X129493500Y-96852000D03*
%TO.P,U102,11,GPIO.3*%
%TO.N,unconnected-(U102-GPIO.3-Pad11)*%
X129493500Y-96352000D03*
%TO.P,U102,12,GPIO.2*%
%TO.N,unconnected-(U102-GPIO.2-Pad12)*%
X129493500Y-95852000D03*
D57*
%TO.P,U102,13,GPIO.1*%
%TO.N,unconnected-(U102-GPIO.1-Pad13)*%
X128806000Y-95164500D03*
%TO.P,U102,14,GPIO.0*%
%TO.N,unconnected-(U102-GPIO.0-Pad14)*%
X128306000Y-95164500D03*
%TO.P,U102,15,~{SUSPENDb}*%
%TO.N,unconnected-(U102-~{SUSPENDb}-Pad15)*%
X127806000Y-95164500D03*
%TO.P,U102,16,VPP*%
%TO.N,Net-(U102-VPP)*%
X127306000Y-95164500D03*
%TO.P,U102,17,SUSPEND*%
%TO.N,unconnected-(U102-SUSPEND-Pad17)*%
X126806000Y-95164500D03*
%TO.P,U102,18,CTS*%
%TO.N,unconnected-(U102-CTS-Pad18)*%
X126306000Y-95164500D03*
D58*
%TO.P,U102,19,RTS*%
%TO.N,RTS*%
X125618500Y-95852000D03*
%TO.P,U102,20,RXD*%
%TO.N,Net-(U102-RXD)*%
X125618500Y-96352000D03*
%TO.P,U102,21,TXD*%
%TO.N,Net-(U102-TXD)*%
X125618500Y-96852000D03*
%TO.P,U102,22,DSR*%
%TO.N,unconnected-(U102-DSR-Pad22)*%
X125618500Y-97352000D03*
%TO.P,U102,23,DTR*%
%TO.N,DTR*%
X125618500Y-97852000D03*
%TO.P,U102,24,DCD*%
%TO.N,unconnected-(U102-DCD-Pad24)*%
X125618500Y-98352000D03*
D59*
%TO.P,U102,25,GND*%
%TO.N,GND*%
X127556000Y-97102000D03*
%TD*%
D10*
%TO.P,R710,1*%
%TO.N,Net-(U701-GPB3)*%
X68652000Y-101928000D03*
%TO.P,R710,2*%
%TO.N,Net-(Q704-B)*%
X70152000Y-101928000D03*
%TD*%
D41*
%TO.P,D203,1,K*%
%TO.N,GND*%
X106729000Y-45018500D03*
%TO.P,D203,2,A*%
%TO.N,Net-(D203-A)*%
X106729000Y-46593500D03*
%TD*%
D60*
%TO.P,Q102,1,B*%
%TO.N,Net-(Q102-B)*%
X119778000Y-99576000D03*
%TO.P,Q102,2,E*%
%TO.N,DTR*%
X119778000Y-97676000D03*
%TO.P,Q102,3,C*%
%TO.N,DR0*%
X117578000Y-98626000D03*
%TD*%
D14*
%TO.P,R201,1*%
%TO.N,GND*%
X90760000Y-53556000D03*
%TO.P,R201,2*%
%TO.N,Net-(D201-A)*%
X89260000Y-53556000D03*
%TD*%
D61*
%TO.P,Q701,1,B*%
%TO.N,Net-(Q701-B)*%
X73908000Y-103784500D03*
%TO.P,Q701,2,E*%
%TO.N,GND*%
X72008000Y-103784500D03*
%TO.P,Q701,3,C*%
%TO.N,Net-(J707-Pin_1)*%
X72958000Y-105659500D03*
%TD*%
D25*
%TO.P,C102,1*%
%TO.N,GND*%
X128938000Y-101916000D03*
%TO.P,C102,2*%
%TO.N,Net-(U102-VDD)*%
X128938000Y-100416000D03*
%TD*%
D11*
%TO.P,R402,1*%
%TO.N,/CPU/ESC_SB*%
X97088000Y-76540000D03*
%TO.P,R402,2*%
%TO.N,Net-(J402-Pin_1)*%
X97088000Y-78040000D03*
%TD*%
D10*
%TO.P,R116,1*%
%TO.N,GND*%
X126806000Y-88938000D03*
%TO.P,R116,2*%
%TO.N,Net-(J105-Pin_2)*%
X128306000Y-88938000D03*
%TD*%
%TO.P,R707,1*%
%TO.N,Net-(U701-GPB0)*%
X71966000Y-86942000D03*
%TO.P,R707,2*%
%TO.N,Net-(Q702-B)*%
X73466000Y-86942000D03*
%TD*%
D62*
%TO.P,D204,1,K*%
%TO.N,Net-(D204-K)*%
X87979000Y-48196000D03*
%TO.P,D204,2,A*%
%TO.N,GND*%
X81179000Y-48196000D03*
%TD*%
D10*
%TO.P,R702,1*%
%TO.N,Net-(U701-GPA7)*%
X80760000Y-88790000D03*
%TO.P,R702,2*%
%TO.N,Net-(D702-K)*%
X82260000Y-88790000D03*
%TD*%
D63*
%TO.P,J102,1,Pin_1*%
%TO.N,GND*%
X134273600Y-68400000D03*
D33*
%TO.P,J102,2,Pin_2*%
%TO.N,+3.3V*%
X136813600Y-68400000D03*
%TO.P,J102,3,Pin_3*%
%TO.N,/CPU/SCL*%
X139353600Y-68400000D03*
%TO.P,J102,4,Pin_4*%
%TO.N,/CPU/SDA*%
X141893600Y-68400000D03*
%TD*%
D64*
%TO.P,U701,1,GPB0*%
%TO.N,Net-(U701-GPB0)*%
X70910000Y-90540000D03*
%TO.P,U701,2,GPB1*%
%TO.N,Net-(U701-GPB1)*%
X70910000Y-91190000D03*
%TO.P,U701,3,GPB2*%
%TO.N,Net-(U701-GPB2)*%
X70910000Y-91840000D03*
%TO.P,U701,4,GPB3*%
%TO.N,Net-(U701-GPB3)*%
X70910000Y-92490000D03*
%TO.P,U701,5,GPB4*%
%TO.N,Net-(U701-GPB4)*%
X70910000Y-93140000D03*
%TO.P,U701,6,GPB5*%
%TO.N,Net-(U701-GPB5)*%
X70910000Y-93790000D03*
%TO.P,U701,7,GPB6*%
%TO.N,unconnected-(U701-GPB6-Pad7)*%
X70910000Y-94440000D03*
%TO.P,U701,8,GPB7*%
%TO.N,unconnected-(U701-GPB7-Pad8)*%
X70910000Y-95090000D03*
%TO.P,U701,9,VDD*%
%TO.N,+3.3V*%
X70910000Y-95740000D03*
%TO.P,U701,10,VSS*%
%TO.N,GND*%
X70910000Y-96390000D03*
%TO.P,U701,11,NC*%
%TO.N,unconnected-(U701-NC-Pad11)*%
X70910000Y-97040000D03*
%TO.P,U701,12,SCK*%
%TO.N,/CPU/SCL*%
X70910000Y-97690000D03*
%TO.P,U701,13,SDA*%
%TO.N,/CPU/SDA*%
X70910000Y-98340000D03*
%TO.P,U701,14,NC*%
%TO.N,unconnected-(U701-NC-Pad14)*%
X70910000Y-98990000D03*
%TO.P,U701,15,A0*%
%TO.N,GND*%
X78110000Y-98990000D03*
%TO.P,U701,16,A1*%
X78110000Y-98340000D03*
%TO.P,U701,17,A2*%
X78110000Y-97690000D03*
%TO.P,U701,18,~{RESET}*%
%TO.N,+3.3V*%
X78110000Y-97040000D03*
%TO.P,U701,19,INTB*%
%TO.N,unconnected-(U701-INTB-Pad19)*%
X78110000Y-96390000D03*
%TO.P,U701,20,INTA*%
%TO.N,unconnected-(U701-INTA-Pad20)*%
X78110000Y-95740000D03*
%TO.P,U701,21,GPA0*%
%TO.N,SW3*%
X78110000Y-95090000D03*
%TO.P,U701,22,GPA1*%
%TO.N,SW2*%
X78110000Y-94440000D03*
%TO.P,U701,23,GPA2*%
%TO.N,SW1*%
X78110000Y-93790000D03*
%TO.P,U701,24,GPA3*%
%TO.N,LED1*%
X78110000Y-93140000D03*
%TO.P,U701,25,GPA4*%
%TO.N,LED2*%
X78110000Y-92490000D03*
%TO.P,U701,26,GPA5*%
%TO.N,LED3*%
X78110000Y-91840000D03*
%TO.P,U701,27,GPA6*%
%TO.N,Net-(U701-GPA6)*%
X78110000Y-91190000D03*
%TO.P,U701,28,GPA7*%
%TO.N,Net-(U701-GPA7)*%
X78110000Y-90540000D03*
%TD*%
D42*
%TO.P,C209,1*%
%TO.N,+5V*%
X97914000Y-48436000D03*
%TO.P,C209,2*%
%TO.N,GND*%
X97914000Y-51386000D03*
%TD*%
D65*
%TO.P,SW201,1,A*%
%TO.N,/PSU/ACC*%
X65260000Y-75390000D03*
D66*
%TO.P,SW201,2,B*%
%TO.N,/PSU/POWER*%
X68760000Y-75390000D03*
%TD*%
D14*
%TO.P,C502,1*%
%TO.N,/GPS/Vext*%
X109510000Y-66233500D03*
%TO.P,C502,2*%
%TO.N,GND*%
X108010000Y-66233500D03*
%TD*%
D67*
%TO.P,U801,12,INT1*%
%TO.N,unconnected-(U801-INT1-Pad12)*%
X128842000Y-78510500D03*
%TO.P,U801,11,INT2*%
%TO.N,unconnected-(U801-INT2-Pad11)*%
X129342000Y-78510500D03*
D68*
%TO.P,U801,10,Vdd_IO*%
%TO.N,+3.3V*%
X129854500Y-78523000D03*
%TO.P,U801,9,Vdd*%
X129854500Y-79023000D03*
%TO.P,U801,8,GND*%
%TO.N,GND*%
X129854500Y-79523000D03*
%TO.P,U801,7,GND*%
X129854500Y-80023000D03*
D67*
%TO.P,U801,6,GND*%
X129342000Y-80035500D03*
%TO.P,U801,5,RES*%
X128842000Y-80035500D03*
D68*
%TO.P,U801,4,SDA/SDI*%
%TO.N,/CPU/SDA*%
X128329500Y-80023000D03*
%TO.P,U801,3,SA0/SDO*%
%TO.N,unconnected-(U801-SA0{slash}SDO-Pad3)*%
X128329500Y-79523000D03*
%TO.P,U801,2,~{CS}*%
%TO.N,+3.3V*%
X128329500Y-79023000D03*
%TO.P,U801,1,SCL/SPC*%
%TO.N,/CPU/SCL*%
X128329500Y-78523000D03*
%TD*%
D23*
%TO.P,SW102,1,1*%
%TO.N,GND*%
X122615000Y-105865000D03*
D24*
%TO.P,SW102,2,2*%
%TO.N,EN*%
X122615000Y-108405000D03*
%TD*%
D14*
%TO.P,R117,1*%
%TO.N,Net-(J104-Pin_2)*%
X128306000Y-84402000D03*
%TO.P,R117,2*%
%TO.N,+3.3V*%
X126806000Y-84402000D03*
%TD*%
D11*
%TO.P,C701,1*%
%TO.N,+3.3V*%
X68510000Y-94840000D03*
%TO.P,C701,2*%
%TO.N,GND*%
X68510000Y-96340000D03*
%TD*%
D10*
%TO.P,C301,1*%
%TO.N,+3.3V*%
X141489000Y-53312400D03*
%TO.P,C301,2*%
%TO.N,GND*%
X142989000Y-53312400D03*
%TD*%
D11*
%TO.P,R101,1*%
%TO.N,Net-(Q101-B)*%
X116900000Y-95844000D03*
%TO.P,R101,2*%
%TO.N,DTR*%
X116900000Y-97344000D03*
%TD*%
D46*
%TO.P,F202,1*%
%TO.N,Net-(J203-Pin_2)*%
X62510000Y-111390000D03*
%TO.P,F202,2*%
%TO.N,/PSU/POWER*%
X62510000Y-88890000D03*
%TD*%
D60*
%TO.P,Q101,1,B*%
%TO.N,Net-(Q101-B)*%
X119778000Y-95512000D03*
%TO.P,Q101,2,E*%
%TO.N,RTS*%
X119778000Y-93612000D03*
%TO.P,Q101,3,C*%
%TO.N,EN*%
X117578000Y-94562000D03*
%TD*%
D69*
%TO.P,JP501,1,A*%
%TO.N,+5V*%
X107823000Y-54303000D03*
D70*
%TO.P,JP501,2,C*%
%TO.N,/GPS/Vext*%
X109123000Y-54303000D03*
D71*
%TO.P,JP501,3,B*%
%TO.N,+3.3V*%
X110423000Y-54303000D03*
%TD*%
D25*
%TO.P,R708,1*%
%TO.N,+3.3V*%
X79308000Y-104456000D03*
%TO.P,R708,2*%
%TO.N,Net-(J707-Pin_2)*%
X79308000Y-102956000D03*
%TD*%
D10*
%TO.P,D701,1,K*%
%TO.N,Net-(D701-K)*%
X83560000Y-90190000D03*
%TO.P,D701,2,A*%
%TO.N,+3.3V*%
X85060000Y-90190000D03*
%TD*%
D14*
%TO.P,C105,1*%
%TO.N,GND*%
X128306000Y-93546000D03*
%TO.P,C105,2*%
%TO.N,Net-(U102-VPP)*%
X126806000Y-93546000D03*
%TD*%
D11*
%TO.P,C901,1*%
%TO.N,+3.3V*%
X106010000Y-64640000D03*
%TO.P,C901,2*%
%TO.N,GND*%
X106010000Y-66140000D03*
%TD*%
D14*
%TO.P,C703,1*%
%TO.N,/Accumonitor/Vbatt*%
X81260000Y-72890000D03*
%TO.P,C703,2*%
%TO.N,GND*%
X79760000Y-72890000D03*
%TD*%
%TO.P,R712,1*%
%TO.N,/Accumonitor/GREEN*%
X73708000Y-81862000D03*
%TO.P,R712,2*%
%TO.N,Net-(Q702-C)*%
X72208000Y-81862000D03*
%TD*%
D11*
%TO.P,C115,1*%
%TO.N,+3.3V*%
X88510000Y-69640000D03*
%TO.P,C115,2*%
%TO.N,GND*%
X88510000Y-71140000D03*
%TD*%
D10*
%TO.P,R704,1*%
%TO.N,LED2*%
X80760000Y-92990000D03*
%TO.P,R704,2*%
%TO.N,Net-(J702-Pin_2)*%
X82260000Y-92990000D03*
%TD*%
D14*
%TO.P,C101,1*%
%TO.N,GND*%
X132736000Y-98118000D03*
%TO.P,C101,2*%
%TO.N,+5V*%
X131236000Y-98118000D03*
%TD*%
D23*
%TO.P,J703,1,Pin_1*%
%TO.N,GND*%
X86510000Y-93390000D03*
D24*
%TO.P,J703,2,Pin_2*%
%TO.N,Net-(J703-Pin_2)*%
X89050000Y-93390000D03*
%TD*%
D72*
%TO.P,J601,1,In*%
%TO.N,Net-(J601-In)*%
X119660000Y-89482000D03*
D73*
%TO.P,J601,2,Ext*%
%TO.N,GND*%
X121185000Y-88007000D03*
X121185000Y-90957000D03*
%TD*%
D10*
%TO.P,R709,1*%
%TO.N,Net-(U701-GPB1)*%
X76272000Y-86942000D03*
%TO.P,R709,2*%
%TO.N,Net-(Q703-B)*%
X77772000Y-86942000D03*
%TD*%
D23*
%TO.P,J707,1,Pin_1*%
%TO.N,Net-(J707-Pin_1)*%
X76514000Y-104976000D03*
D24*
%TO.P,J707,2,Pin_2*%
%TO.N,Net-(J707-Pin_2)*%
X76514000Y-102436000D03*
%TD*%
D10*
%TO.P,C203,1*%
%TO.N,+5V*%
X111388000Y-51181000D03*
%TO.P,C203,2*%
%TO.N,GND*%
X112888000Y-51181000D03*
%TD*%
D14*
%TO.P,C501,1*%
%TO.N,/GPS/Vext*%
X109510000Y-64582500D03*
%TO.P,C501,2*%
%TO.N,GND*%
X108010000Y-64582500D03*
%TD*%
D74*
%TO.P,J101,1,VBUS*%
%TO.N,Net-(D101-A)*%
X127910000Y-111140000D03*
%TO.P,J101,2,D-*%
%TO.N,Net-(J101-D-)*%
X128560000Y-111140000D03*
%TO.P,J101,3,D+*%
%TO.N,Net-(J101-D+)*%
X129210000Y-111140000D03*
%TO.P,J101,4,ID*%
%TO.N,unconnected-(J101-ID-Pad4)*%
X129860000Y-111140000D03*
%TO.P,J101,5,GND*%
%TO.N,GND*%
X130510000Y-111140000D03*
D75*
%TO.P,J101,6,Shield*%
%TO.N,unconnected-(J101-Shield-Pad6)*%
X126410000Y-110890000D03*
D76*
X129210000Y-113040000D03*
D75*
X132010000Y-110890000D03*
%TD*%
D25*
%TO.P,C104,1*%
%TO.N,GND*%
X130462000Y-101916000D03*
%TO.P,C104,2*%
%TO.N,Net-(U102-VDD)*%
X130462000Y-100416000D03*
%TD*%
D11*
%TO.P,C109,1*%
%TO.N,+3.3V*%
X121726000Y-111592000D03*
%TO.P,C109,2*%
%TO.N,GND*%
X121726000Y-113092000D03*
%TD*%
D25*
%TO.P,R202,1*%
%TO.N,+5V*%
X102979000Y-46556000D03*
%TO.P,R202,2*%
%TO.N,Net-(D202-A)*%
X102979000Y-45056000D03*
%TD*%
D77*
%TO.P,U202,1,VIN*%
%TO.N,Net-(D201-K)*%
X86419000Y-41656000D03*
%TO.P,U202,2,OUT*%
%TO.N,Net-(D204-K)*%
X86419000Y-40386000D03*
%TO.P,U202,3,FB*%
%TO.N,+5V*%
X86419000Y-39116000D03*
%TO.P,U202,4,~{EN}*%
%TO.N,GND*%
X86419000Y-37846000D03*
%TO.P,U202,5,GND*%
X81469000Y-37846000D03*
%TO.P,U202,6,GND*%
X81469000Y-39116000D03*
%TO.P,U202,7,GND*%
X81469000Y-40386000D03*
%TO.P,U202,8,GND*%
X81469000Y-41656000D03*
%TD*%
D31*
%TO.P,TP2,1,1*%
%TO.N,unconnected-(TP2-Pad1)*%
X121450000Y-62224000D03*
%TO.P,TP2,2*%
%TO.N,N/C*%
X123990000Y-62224000D03*
%TO.P,TP2,3*%
X126530000Y-62224000D03*
%TO.P,TP2,4*%
X129070000Y-62224000D03*
%TO.P,TP2,5*%
X121450000Y-64764000D03*
%TO.P,TP2,6*%
X123990000Y-64764000D03*
%TO.P,TP2,7*%
X126530000Y-64764000D03*
%TO.P,TP2,8*%
X129070000Y-64764000D03*
%TO.P,TP2,9*%
X121450000Y-67304000D03*
%TO.P,TP2,10*%
X123990000Y-67304000D03*
%TO.P,TP2,11*%
X126530000Y-67304000D03*
%TO.P,TP2,12*%
X129070000Y-67304000D03*
%TO.P,TP2,13*%
X121450000Y-69844000D03*
%TO.P,TP2,14*%
X123990000Y-69844000D03*
%TO.P,TP2,15*%
X126530000Y-69844000D03*
%TO.P,TP2,16*%
X129070000Y-69844000D03*
%TD*%
D25*
%TO.P,R106,1*%
%TO.N,TX*%
X122742000Y-98360000D03*
%TO.P,R106,2*%
%TO.N,Net-(U102-RXD)*%
X122742000Y-96860000D03*
%TD*%
D61*
%TO.P,Q704,1,B*%
%TO.N,Net-(Q704-B)*%
X70352000Y-103784500D03*
%TO.P,Q704,2,E*%
%TO.N,GND*%
X68452000Y-103784500D03*
%TO.P,Q704,3,C*%
%TO.N,Net-(J708-Pin_1)*%
X69402000Y-105659500D03*
%TD*%
D78*
%TO.P,J701,1,Pin_1*%
%TO.N,GND*%
X86010000Y-102390000D03*
D79*
%TO.P,J701,2,Pin_2*%
%TO.N,Net-(J701-Pin_2)*%
X88510000Y-102390000D03*
%TD*%
D42*
%TO.P,C107,1*%
%TO.N,+3.3V*%
X118932000Y-111121000D03*
%TO.P,C107,2*%
%TO.N,GND*%
X118932000Y-114071000D03*
%TD*%
%TO.P,C210,1*%
%TO.N,+5V*%
X94739000Y-48436000D03*
%TO.P,C210,2*%
%TO.N,GND*%
X94739000Y-51386000D03*
%TD*%
D25*
%TO.P,R102,1*%
%TO.N,Net-(Q102-B)*%
X121218000Y-97344000D03*
%TO.P,R102,2*%
%TO.N,RTS*%
X121218000Y-95844000D03*
%TD*%
D80*
%TO.P,F203,1*%
%TO.N,/PSU/POWER*%
X76122500Y-65390000D03*
%TO.P,F203,2*%
%TO.N,+28V*%
X80397500Y-65390000D03*
%TD*%
D81*
%TO.P,C106,1*%
%TO.N,+3.3V*%
X118932000Y-109196000D03*
%TO.P,C106,2*%
%TO.N,GND*%
X118932000Y-106246000D03*
%TD*%
D25*
%TO.P,R105,1*%
%TO.N,Net-(U102-VDD)*%
X131986000Y-101916000D03*
%TO.P,R105,2*%
%TO.N,Net-(U102-~{RSTb})*%
X131986000Y-100416000D03*
%TD*%
D15*
%TO.P,TP703,1,1*%
%TO.N,Net-(U701-GPB5)*%
X68538400Y-91006000D03*
%TD*%
D68*
%TO.P,U301,1,SCL/SPC*%
%TO.N,/CPU/SCL*%
X141234500Y-55083200D03*
%TO.P,U301,2,CS_XL*%
%TO.N,+3.3V*%
X141234500Y-55583200D03*
%TO.P,U301,3,CS_MAG*%
X141234500Y-56083200D03*
%TO.P,U301,4,SDA/SDI/SDO*%
%TO.N,/CPU/SDA*%
X141234500Y-56583200D03*
D67*
%TO.P,U301,5,C1*%
%TO.N,Net-(U301-C1)*%
X141747000Y-56595700D03*
%TO.P,U301,6,GND*%
%TO.N,GND*%
X142247000Y-56595700D03*
D68*
%TO.P,U301,7,INT_MAG*%
%TO.N,unconnected-(U301-INT_MAG-Pad7)*%
X142759500Y-56583200D03*
%TO.P,U301,8,GND*%
%TO.N,GND*%
X142759500Y-56083200D03*
%TO.P,U301,9,VDD*%
%TO.N,+3.3V*%
X142759500Y-55583200D03*
%TO.P,U301,10,VDDIO*%
X142759500Y-55083200D03*
D67*
%TO.P,U301,11,DRDY_MAG*%
%TO.N,unconnected-(U301-DRDY_MAG-Pad11)*%
X142247000Y-55070700D03*
%TO.P,U301,12,INT_XL*%
%TO.N,unconnected-(U301-INT_XL-Pad12)*%
X141747000Y-55070700D03*
%TD*%
D10*
%TO.P,R715,1*%
%TO.N,+28V*%
X79760000Y-68390000D03*
%TO.P,R715,2*%
%TO.N,/Accumonitor/Vbatt*%
X81260000Y-68390000D03*
%TD*%
%TO.P,C111,1*%
%TO.N,+3.3V*%
X141489000Y-51739400D03*
%TO.P,C111,2*%
%TO.N,GND*%
X142989000Y-51739400D03*
%TD*%
D11*
%TO.P,C110,1*%
%TO.N,+3.3V*%
X124520000Y-78523000D03*
%TO.P,C110,2*%
%TO.N,GND*%
X124520000Y-80023000D03*
%TD*%
D18*
%TO.P,JP601,1,A*%
%TO.N,/CPU/RADIO_6*%
X108404000Y-70732000D03*
D19*
%TO.P,JP601,2,B*%
%TO.N,Net-(JP601-B)*%
X108404000Y-72032000D03*
%TD*%
D54*
%TO.P,J501,1,Pin_1*%
%TO.N,/CPU/GPSRX*%
X114808000Y-59527000D03*
D55*
%TO.P,J501,2,Pin_2*%
%TO.N,/CPU/GPSTX*%
X112308000Y-59527000D03*
%TO.P,J501,3,Pin_3*%
%TO.N,/GPS/Vext*%
X109808000Y-59527000D03*
%TO.P,J501,4,Pin_4*%
%TO.N,GND*%
X107308000Y-59527000D03*
%TD*%
D14*
%TO.P,C204,1*%
%TO.N,Net-(D201-K)*%
X84694000Y-43561000D03*
%TO.P,C204,2*%
%TO.N,GND*%
X83194000Y-43561000D03*
%TD*%
D78*
%TO.P,J704,1,Pin_1*%
%TO.N,GND*%
X86010000Y-109390000D03*
D79*
%TO.P,J704,2,Pin_2*%
%TO.N,SW1*%
X88510000Y-109390000D03*
%TD*%
D14*
%TO.P,C103,1*%
%TO.N,EN*%
X123226000Y-114374000D03*
%TO.P,C103,2*%
%TO.N,GND*%
X121726000Y-114374000D03*
%TD*%
D25*
%TO.P,R107,1*%
%TO.N,RX*%
X124266000Y-98360000D03*
%TO.P,R107,2*%
%TO.N,Net-(U102-TXD)*%
X124266000Y-96860000D03*
%TD*%
D82*
%TO.P,U103,39,GND*%
%TO.N,GND*%
X106320000Y-106378000D03*
D83*
%TO.P,U103,38,GND*%
X96710000Y-113723000D03*
%TO.P,U103,37,MOSI/GPIO23*%
%TO.N,/CPU/RADIO_1*%
X96710000Y-112453000D03*
%TO.P,U103,36,SCL/GPIO22*%
%TO.N,/CPU/SCL*%
X96710000Y-111183000D03*
%TO.P,U103,35,TXD/GPIO1*%
%TO.N,TX*%
X96710000Y-109913000D03*
%TO.P,U103,34,RXD/GPIO3*%
%TO.N,RX*%
X96710000Y-108643000D03*
%TO.P,U103,33,SDA/GPIO21*%
%TO.N,/CPU/SDA*%
X96710000Y-107373000D03*
%TO.P,U103,32,NC*%
%TO.N,unconnected-(U103-NC-Pad32)*%
X96710000Y-106103000D03*
%TO.P,U103,31,MISO/GPIO19*%
%TO.N,/CPU/RADIO_2*%
X96710000Y-104833000D03*
%TO.P,U103,30,SCK/GPIO18*%
%TO.N,/CPU/RADIO_3*%
X96710000Y-103563000D03*
%TO.P,U103,29,CS/GPIO5*%
%TO.N,/CPU/RADIO_4*%
X96710000Y-102293000D03*
%TO.P,U103,28,TXD/GPIO17*%
%TO.N,/CPU/SCL_DISP*%
X96710000Y-101023000D03*
%TO.P,U103,27,RXD/GPIO16*%
%TO.N,/CPU/SDA_DISP*%
X96710000Y-99753000D03*
%TO.P,U103,26,D1/GPIO4*%
%TO.N,unconnected-(U103-D1{slash}GPIO4-Pad26)*%
X96710000Y-98483000D03*
%TO.P,U103,25,BOOT/GPIO0*%
%TO.N,unconnected-(U103-BOOT{slash}GPIO0-Pad25)*%
X96710000Y-97213000D03*
D84*
%TO.P,U103,24,D0/GPIO2*%
%TO.N,DR0*%
X99745000Y-95963000D03*
%TO.P,U103,23,MTDO/CS/CMD/GPIO15*%
%TO.N,/CPU/RADIO_5*%
X101015000Y-95963000D03*
%TO.P,U103,22,NC*%
%TO.N,unconnected-(U103-NC-Pad22)*%
X102285000Y-95963000D03*
%TO.P,U103,21,NC*%
%TO.N,unconnected-(U103-NC-Pad21)*%
X103555000Y-95963000D03*
%TO.P,U103,20,NC*%
%TO.N,unconnected-(U103-NC-Pad20)*%
X104825000Y-95963000D03*
%TO.P,U103,19,NC*%
%TO.N,unconnected-(U103-NC-Pad19)*%
X106095000Y-95963000D03*
%TO.P,U103,18,NC*%
%TO.N,unconnected-(U103-NC-Pad18)*%
X107365000Y-95963000D03*
%TO.P,U103,17,NC*%
%TO.N,unconnected-(U103-NC-Pad17)*%
X108635000Y-95963000D03*
%TO.P,U103,16,MTCK/MOSI/D3/GPIO13*%
%TO.N,unconnected-(U103-MTCK{slash}MOSI{slash}D3{slash}GPIO13-Pad16)*%
X109905000Y-95963000D03*
%TO.P,U103,15,GND*%
%TO.N,GND*%
X111175000Y-95963000D03*
D83*
%TO.P,U103,14,MTDI/MISO/D2/GPIO12*%
%TO.N,/CPU/ESC_BB*%
X114210000Y-97213000D03*
%TO.P,U103,13,MTMS/SCK/CLK/GPIO14*%
%TO.N,/CPU/ESC_SB*%
X114210000Y-98483000D03*
%TO.P,U103,12,GPIO27*%
%TO.N,/CPU/RADIO_6*%
X114210000Y-99753000D03*
%TO.P,U103,11,GPIO26*%
%TO.N,/CPU/LEDS*%
X114210000Y-101023000D03*
%TO.P,U103,10,GPIO25*%
%TO.N,Net-(U103-GPIO25)*%
X114210000Y-102293000D03*
%TO.P,U103,9,GPIO33*%
%TO.N,/CPU/GPSTX*%
X114210000Y-103563000D03*
%TO.P,U103,8,GPIO32*%
%TO.N,/CPU/GPSRX*%
X114210000Y-104833000D03*
%TO.P,U103,7,GPIO35*%
%TO.N,/Accumonitor/Vbatt*%
X114210000Y-106103000D03*
%TO.P,U103,6,GPIO34*%
%TO.N,unconnected-(U103-GPIO34-Pad6)*%
X114210000Y-107373000D03*
%TO.P,U103,5,GPIO39*%
%TO.N,Net-(U103-GPIO39)*%
X114210000Y-108643000D03*
%TO.P,U103,4,GPIO36*%
%TO.N,Net-(U103-GPIO36)*%
X114210000Y-109913000D03*
%TO.P,U103,3,CHIP_PU/EN*%
%TO.N,EN*%
X114210000Y-111183000D03*
%TO.P,U103,2,VDD*%
%TO.N,+3.3V*%
X114210000Y-112453000D03*
%TO.P,U103,1,GND*%
%TO.N,GND*%
X114210000Y-113723000D03*
%TD*%
D85*
%TO.N,GND*%
X106359000Y-103071000D03*
X106359000Y-109294000D03*
X109407000Y-106373000D03*
X103311000Y-106373000D03*
%TO.N,Net-(U103-GPIO36)*%
X116900000Y-104214000D03*
X122742000Y-92022000D03*
%TO.N,Net-(U103-GPIO39)*%
X115884000Y-104468000D03*
X121726000Y-93038000D03*
%TO.N,+3.3V*%
X125790000Y-85926000D03*
%TO.N,GND*%
X129346000Y-93546000D03*
X130870000Y-79523000D03*
%TO.N,+5V*%
X110931000Y-56335000D03*
%TO.N,GND*%
X132063800Y-112469000D03*
X81510000Y-37390000D03*
X122693000Y-81862000D03*
D86*
X79507000Y-98372000D03*
D85*
X74990000Y-82370000D03*
X127510000Y-42390000D03*
X71688000Y-105230000D03*
X66510000Y-49390000D03*
X106510000Y-41390000D03*
D87*
X79880000Y-40386000D03*
X70550000Y-59105000D03*
X91564000Y-50292000D03*
D85*
X67370000Y-103960000D03*
X108510000Y-39390000D03*
X129383500Y-74242000D03*
X123510000Y-42390000D03*
X119510000Y-40390000D03*
X103311000Y-109294000D03*
X128510000Y-37390000D03*
X123510000Y-44390000D03*
D87*
X79880000Y-41656000D03*
X113729000Y-50556000D03*
D85*
X121510000Y-44390000D03*
X129600000Y-80846000D03*
X119510000Y-42390000D03*
X119465400Y-90929800D03*
X123510000Y-46390000D03*
X119510000Y-38390000D03*
X70510000Y-40390000D03*
D87*
X104729000Y-44056000D03*
D85*
X72510000Y-44390000D03*
X71510000Y-49390000D03*
D87*
X70550000Y-56057000D03*
X110360000Y-42291000D03*
X81531000Y-43561000D03*
X87760000Y-37140000D03*
X117091000Y-45847000D03*
D85*
X78510000Y-39390000D03*
X126510000Y-37390000D03*
X79562000Y-82370000D03*
D87*
X73911000Y-43307000D03*
D85*
X80510000Y-44390000D03*
X76510000Y-44390000D03*
X83510000Y-37390000D03*
X129510000Y-42390000D03*
X76510000Y-37390000D03*
X118950097Y-104989539D03*
D86*
X112951000Y-113727000D03*
D85*
X134018000Y-98118000D03*
D87*
X72260000Y-40640000D03*
D85*
X72510000Y-37390000D03*
X129510000Y-40390000D03*
X70510000Y-42390000D03*
X129510000Y-38390000D03*
X118510000Y-37390000D03*
D87*
X117218000Y-38735000D03*
D85*
X109407000Y-103071000D03*
X129510000Y-46390000D03*
X124510000Y-37390000D03*
X84510000Y-82390000D03*
X137441945Y-58918205D03*
X70510000Y-37390000D03*
X116510000Y-37390000D03*
X127510000Y-40390000D03*
X78510000Y-46390000D03*
D87*
X94739000Y-50292000D03*
D85*
X77510000Y-47390000D03*
X120510000Y-37390000D03*
D87*
X101089000Y-50292000D03*
X113789000Y-38481000D03*
D85*
X118932000Y-87958000D03*
D87*
X79880000Y-39116000D03*
D85*
X108510000Y-43390000D03*
X101154000Y-92530000D03*
X103311000Y-103071000D03*
X74510000Y-37390000D03*
X115376000Y-89482000D03*
X83905400Y-39850400D03*
X123510000Y-38390000D03*
X125510000Y-38390000D03*
X126298000Y-100658000D03*
D87*
X97914000Y-50292000D03*
D85*
X135647000Y-55852400D03*
X121510000Y-38390000D03*
D87*
X73090000Y-57581000D03*
D85*
X108510000Y-41390000D03*
D87*
X110487000Y-45847000D03*
X81531000Y-45847000D03*
D85*
X88510000Y-82390000D03*
X79510000Y-49390000D03*
X110804000Y-94308000D03*
X70510000Y-44390000D03*
D87*
X75689000Y-40767000D03*
D85*
X127822000Y-97102000D03*
X125510000Y-48390000D03*
X122742000Y-78052000D03*
X74510000Y-44390000D03*
X125510000Y-44390000D03*
X109280000Y-109167000D03*
X79993800Y-45616200D03*
X110550000Y-97610000D03*
X78510000Y-42390000D03*
X127510000Y-38390000D03*
X106510000Y-39390000D03*
D87*
X83182000Y-48133000D03*
X84510000Y-37890000D03*
D85*
X84510000Y-72390000D03*
X127510000Y-46390000D03*
X121510000Y-42390000D03*
X110510000Y-37390000D03*
X78510000Y-71390000D03*
X122510000Y-37390000D03*
X129510000Y-44390000D03*
X108510000Y-37390000D03*
X112510000Y-37390000D03*
X105597000Y-67384000D03*
D86*
X98002404Y-113727000D03*
D85*
X120964000Y-114120000D03*
X77504600Y-49400800D03*
D87*
X83182000Y-40513000D03*
D85*
X106510000Y-37390000D03*
X83067200Y-42517400D03*
X130514400Y-109675000D03*
X68132000Y-97356000D03*
X127668000Y-103960000D03*
D87*
X79245000Y-48133000D03*
D85*
X123510000Y-48390000D03*
X123510000Y-40390000D03*
X125536000Y-80289000D03*
X99122000Y-75512000D03*
X127510000Y-48390000D03*
D87*
X113783000Y-46355000D03*
X83182000Y-39243000D03*
D85*
X66510000Y-37390000D03*
X83510000Y-49390000D03*
X121510000Y-40390000D03*
X142808000Y-49604000D03*
X130462000Y-103198000D03*
X129510000Y-48390000D03*
X125510000Y-40390000D03*
X106510000Y-43390000D03*
X122996000Y-87958000D03*
X121510000Y-46390000D03*
X125510000Y-42390000D03*
X83372000Y-46657600D03*
X114510000Y-37390000D03*
D87*
X68010000Y-57581000D03*
D85*
X127510000Y-44390000D03*
X101154000Y-72718000D03*
D87*
X106729000Y-44056000D03*
D85*
X99670000Y-89367913D03*
X125510000Y-46390000D03*
X76285400Y-48384800D03*
D87*
X110487000Y-38735000D03*
X83055000Y-41656000D03*
D85*
X78510000Y-44390000D03*
X142808000Y-62558000D03*
D87*
X117218000Y-42341000D03*
D85*
X83510000Y-45390000D03*
D86*
X95448995Y-113727005D03*
%TO.N,+3.3V*%
X79507000Y-97102000D03*
D85*
X113852000Y-89482000D03*
X93024000Y-102436000D03*
X119694000Y-84402000D03*
X117662000Y-48842000D03*
X137220010Y-51890000D03*
X119694000Y-50366000D03*
X88510000Y-68390000D03*
X119694000Y-78052000D03*
X99954580Y-91203531D03*
X93023992Y-105738000D03*
X79308000Y-105738000D03*
X80510000Y-79390000D03*
X131632000Y-77036000D03*
X115376000Y-85418000D03*
X118932000Y-107770000D03*
X115946000Y-99890000D03*
X137220014Y-53312400D03*
X93024000Y-109725800D03*
X125536000Y-78257000D03*
X117916000Y-112596000D03*
X100644000Y-64209000D03*
X68483025Y-93616975D03*
X86142254Y-89512204D03*
X88510000Y-78390000D03*
%TO.N,+28V*%
X67370000Y-108278000D03*
X64830000Y-108278000D03*
%TO.N,/CPU/GPSRX*%
X111010000Y-68890000D03*
X111010000Y-103390000D03*
%TO.N,/CPU/GPSTX*%
X112510000Y-68890000D03*
X112510000Y-103390000D03*
%TO.N,/CPU/ESC_BB*%
X98993000Y-80211000D03*
X104327000Y-85545000D03*
%TO.N,/CPU/ESC_SB*%
X104327000Y-86815000D03*
X97977000Y-80465000D03*
%TO.N,/CPU/LEDS*%
X100510000Y-103390000D03*
X94510000Y-103390000D03*
%TO.N,DR0*%
X106613000Y-112088000D03*
%TO.N,EN*%
X116138000Y-111326000D03*
%TO.N,/CPU/RADIO_6*%
X113210000Y-84402000D03*
X113210000Y-78306014D03*
%TO.N,/CPU/RADIO_4*%
X99710000Y-87481995D03*
X97010000Y-87890004D03*
%TO.N,RX*%
X98332600Y-108608200D03*
X120710000Y-101674000D03*
%TO.N,TX*%
X99664600Y-109776923D03*
X120202000Y-100658000D03*
%TO.N,Net-(D101-A)*%
X127668000Y-109116200D03*
X129752400Y-108151000D03*
D87*
%TO.N,Net-(U102-~{RSTb})*%
X131224000Y-99388000D03*
X130970000Y-96594000D03*
D85*
%TO.N,/Accumonitor/Vbatt*%
X94010000Y-114390000D03*
X90510000Y-112390000D03*
%TO.N,/CPU/SCL*%
X140473000Y-54379190D03*
X94536000Y-109725800D03*
X127598549Y-78254368D03*
%TO.N,/CPU/SDA*%
X95309996Y-105230004D03*
X127630000Y-80018435D03*
X127314000Y-71956000D03*
%TD*%
D88*
%TO.N,DR0*%
X101787000Y-110818000D02*
X103057000Y-112088000D01*
X101787000Y-107516000D02*
X101787000Y-110818000D01*
X103057000Y-112088000D02*
X106613000Y-112088000D01*
X99755000Y-105484000D02*
X101787000Y-107516000D01*
X99755000Y-93788000D02*
X99755000Y-105484000D01*
%TO.N,/CPU/RADIO_1*%
X100364600Y-111757800D02*
X99665400Y-112457000D01*
X98970000Y-86466000D02*
X98970000Y-106153686D01*
X99665400Y-112457000D02*
X96720000Y-112457000D01*
X98970000Y-106153686D02*
X100364600Y-107548286D01*
X99954000Y-85482000D02*
X98970000Y-86466000D01*
X101154000Y-85482000D02*
X99954000Y-85482000D01*
X100364600Y-107548286D02*
X100364600Y-111757800D01*
D89*
%TO.N,+5V*%
X132379000Y-96975000D02*
X131236000Y-98118000D01*
X137982000Y-92149000D02*
X133156000Y-96975000D01*
X137982000Y-74750000D02*
X137982000Y-92149000D01*
X136204000Y-72972000D02*
X137982000Y-74750000D01*
X122234000Y-72972000D02*
X136204000Y-72972000D01*
X133156000Y-96975000D02*
X132379000Y-96975000D01*
X118424000Y-69162000D02*
X122234000Y-72972000D01*
X118424000Y-69162000D02*
X118424000Y-57351000D01*
D88*
%TO.N,/CPU/SDA*%
X138337600Y-71956000D02*
X127314000Y-71956000D01*
X141893600Y-68400000D02*
X138337600Y-71956000D01*
X141893600Y-65199600D02*
X141893600Y-68400000D01*
X137220000Y-63320000D02*
X140014000Y-63320000D01*
X140014000Y-63320000D02*
X141893600Y-65199600D01*
X136000800Y-59205200D02*
X136000800Y-62100800D01*
X136000800Y-62100800D02*
X137220000Y-63320000D01*
X127634565Y-80023000D02*
X127630000Y-80018435D01*
X128329500Y-80023000D02*
X127634565Y-80023000D01*
%TO.N,Net-(U103-GPIO36)*%
X114503000Y-109913000D02*
X116900000Y-107516000D01*
X116900000Y-104214000D02*
X116900000Y-107516000D01*
X122742000Y-91456314D02*
X124532000Y-89666314D01*
X122742000Y-91456314D02*
X122742000Y-92022000D01*
%TO.N,Net-(U103-GPIO39)*%
X121726000Y-93038000D02*
X122996000Y-93038000D01*
X123504000Y-92530000D02*
X122996000Y-93038000D01*
X123504000Y-91260000D02*
X123504000Y-92530000D01*
X125028000Y-90510000D02*
X124254000Y-90510000D01*
X124254000Y-90510000D02*
X123504000Y-91260000D01*
%TO.N,Net-(U103-GPIO36)*%
X124532000Y-82370000D02*
X124532000Y-89666314D01*
X125282000Y-81620000D02*
X124532000Y-82370000D01*
%TO.N,Net-(U103-GPIO39)*%
X115884000Y-104468000D02*
X115884000Y-107191462D01*
X115884000Y-107191462D02*
X114432462Y-108643000D01*
X114432462Y-108643000D02*
X114210000Y-108643000D01*
%TO.N,Net-(U103-GPIO36)*%
X114210000Y-109913000D02*
X114503000Y-109913000D01*
%TO.N,+3.3V*%
X131632000Y-77036000D02*
X129866000Y-77036000D01*
X129866000Y-77036000D02*
X129854000Y-77024000D01*
%TO.N,Net-(J104-Pin_1)*%
X136712000Y-87450000D02*
X136204000Y-87958000D01*
X135950000Y-76782000D02*
X136712000Y-77544000D01*
X136712000Y-77544000D02*
X136712000Y-87450000D01*
X134680000Y-76782000D02*
X135950000Y-76782000D01*
X136204000Y-87958000D02*
X134680000Y-87958000D01*
%TO.N,Net-(J104-Pin_3)*%
X133744000Y-92022000D02*
X134680000Y-92958000D01*
X128318000Y-92022000D02*
X133744000Y-92022000D01*
%TO.N,GND*%
X127506000Y-89638000D02*
X127506000Y-91334000D01*
X126806000Y-88938000D02*
X127506000Y-89638000D01*
X127506000Y-91334000D02*
X126818000Y-92022000D01*
X125040000Y-92022000D02*
X125028000Y-92010000D01*
X126818000Y-92022000D02*
X125040000Y-92022000D01*
%TO.N,Net-(U103-GPIO39)*%
X125040000Y-90498000D02*
X125028000Y-90510000D01*
X126806000Y-90498000D02*
X125040000Y-90498000D01*
%TO.N,Net-(J105-Pin_2)*%
X128346000Y-90458000D02*
X128306000Y-90498000D01*
X134680000Y-90458000D02*
X128346000Y-90458000D01*
X128306000Y-87414000D02*
X128306000Y-90498000D01*
%TO.N,Net-(J104-Pin_1)*%
X134680000Y-87958000D02*
X132648000Y-85926000D01*
X132648000Y-85926000D02*
X128318000Y-85926000D01*
%TO.N,Net-(J104-Pin_2)*%
X128318000Y-81608000D02*
X132354000Y-81608000D01*
X132354000Y-81608000D02*
X134680000Y-79282000D01*
%TO.N,GND*%
X129342000Y-80588000D02*
X129342000Y-80035500D01*
X129600000Y-80846000D02*
X129342000Y-80588000D01*
%TO.N,+3.3V*%
X126818000Y-85926000D02*
X125790000Y-85926000D01*
X126806000Y-84402000D02*
X126806000Y-87414000D01*
%TO.N,GND*%
X127568000Y-81100000D02*
X127568000Y-82116000D01*
X127822000Y-80846000D02*
X127568000Y-81100000D01*
X127568000Y-82116000D02*
X126806000Y-82878000D01*
X128842000Y-80334000D02*
X128330000Y-80846000D01*
X128330000Y-80846000D02*
X127822000Y-80846000D01*
X128842000Y-80035500D02*
X128842000Y-80334000D01*
X126564000Y-83120000D02*
X126806000Y-82878000D01*
X125282000Y-83120000D02*
X126564000Y-83120000D01*
%TO.N,Net-(U103-GPIO36)*%
X125294000Y-81608000D02*
X125282000Y-81620000D01*
X126818000Y-81608000D02*
X125294000Y-81608000D01*
%TO.N,Net-(J104-Pin_2)*%
X128318000Y-84390000D02*
X128306000Y-84402000D01*
X128318000Y-81608000D02*
X128318000Y-84390000D01*
%TO.N,GND*%
X128306000Y-93546000D02*
X129346000Y-93546000D01*
X130870000Y-79523000D02*
X129854500Y-79523000D01*
X129854000Y-74712500D02*
X129383500Y-74242000D01*
X129854000Y-75524000D02*
X129854000Y-74712500D01*
%TO.N,+3.3V*%
X129854500Y-77024500D02*
X129854000Y-77024000D01*
X129854500Y-78523000D02*
X129854500Y-77024500D01*
%TO.N,GND*%
X128027000Y-75598500D02*
X129383500Y-74242000D01*
X128027000Y-76020000D02*
X128027000Y-75598500D01*
%TO.N,+3.3V*%
X125536000Y-76479000D02*
X125077000Y-76020000D01*
X125536000Y-78257000D02*
X125536000Y-76479000D01*
%TO.N,/CPU/SDA*%
X138622800Y-56583200D02*
X141234500Y-56583200D01*
X137725617Y-57502400D02*
X138047800Y-57180217D01*
X136000800Y-59205200D02*
X137703600Y-57502400D01*
X138047800Y-57180217D02*
X138047800Y-57158200D01*
X138047800Y-57158200D02*
X138622800Y-56583200D01*
X137703600Y-57502400D02*
X137725617Y-57502400D01*
%TO.N,+5V*%
X129493500Y-97852000D02*
X130970000Y-97852000D01*
D90*
X103248000Y-48436000D02*
X105479000Y-48436000D01*
D89*
X105724000Y-48690000D02*
X105978000Y-48436000D01*
D88*
X132620000Y-104850000D02*
X130970000Y-104850000D01*
X133256000Y-100150000D02*
X133256000Y-104214000D01*
D91*
X101639000Y-41656000D02*
X101639000Y-47886000D01*
D89*
X100898000Y-53795000D02*
X97088000Y-57605000D01*
X110931000Y-56462000D02*
X110931000Y-56335000D01*
D90*
X101089000Y-48436000D02*
X102904000Y-48436000D01*
D89*
X97088000Y-57605000D02*
X97088000Y-59527000D01*
X105724000Y-53795000D02*
X105724000Y-48681000D01*
X107823000Y-54303000D02*
X107315000Y-53795000D01*
D88*
X133256000Y-104214000D02*
X132620000Y-104850000D01*
X129493500Y-98352000D02*
X131002000Y-98352000D01*
X101260000Y-36140000D02*
X89510000Y-36140000D01*
X89510000Y-36140000D02*
X89010000Y-36640000D01*
D89*
X107315000Y-53795000D02*
X105724000Y-53795000D01*
D88*
X102564000Y-48436000D02*
X101089000Y-48436000D01*
D91*
X101639000Y-47886000D02*
X101089000Y-48436000D01*
D90*
X111503000Y-51066000D02*
X111388000Y-51181000D01*
D88*
X131236000Y-98118000D02*
X131236000Y-98130000D01*
D89*
X105724000Y-53795000D02*
X105724000Y-48690000D01*
X105724000Y-48681000D02*
X105479000Y-48436000D01*
D90*
X105479000Y-48436000D02*
X105978000Y-48436000D01*
X111503000Y-48641000D02*
X111503000Y-51066000D01*
D88*
X101639000Y-36519000D02*
X101260000Y-36140000D01*
X87784000Y-39116000D02*
X86419000Y-39116000D01*
D90*
X105978000Y-48436000D02*
X111298000Y-48436000D01*
D88*
X102994000Y-46851000D02*
X102994000Y-48006000D01*
X102994000Y-48006000D02*
X102564000Y-48436000D01*
X130970000Y-97852000D02*
X131236000Y-98118000D01*
D90*
X102904000Y-48436000D02*
X103629000Y-49161000D01*
D88*
X89010000Y-37890000D02*
X87784000Y-39116000D01*
X131236000Y-98130000D02*
X133256000Y-100150000D01*
D89*
X105724000Y-53795000D02*
X100898000Y-53795000D01*
X117535000Y-56462000D02*
X110931000Y-56462000D01*
D90*
X111298000Y-48436000D02*
X111503000Y-48641000D01*
D88*
X131002000Y-98352000D02*
X131236000Y-98118000D01*
D91*
X91564000Y-48436000D02*
X101089000Y-48436000D01*
D89*
X118424000Y-57351000D02*
X117535000Y-56462000D01*
D88*
X89010000Y-36640000D02*
X89010000Y-37890000D01*
X101639000Y-41656000D02*
X101639000Y-36519000D01*
D90*
%TO.N,GND*%
X87054000Y-37846000D02*
X87760000Y-37140000D01*
D88*
X90760000Y-53556000D02*
X90760000Y-51801000D01*
D91*
X114220000Y-113727000D02*
X114983000Y-113727000D01*
D88*
X79378000Y-98372000D02*
X79507000Y-98372000D01*
X88510000Y-81140000D02*
X88510000Y-82390000D01*
D90*
X113783000Y-42170000D02*
X117218000Y-38735000D01*
D88*
X121185000Y-88007000D02*
X122947000Y-88007000D01*
X84060000Y-82840000D02*
X84510000Y-82390000D01*
D91*
X81469000Y-37846000D02*
X81469000Y-43434000D01*
D90*
X119758000Y-43942000D02*
X118157000Y-42341000D01*
D88*
X142297000Y-56083200D02*
X142247000Y-56133200D01*
X142759500Y-56083200D02*
X142297000Y-56083200D01*
D91*
X81596000Y-43561000D02*
X81531000Y-43561000D01*
X101089000Y-51386000D02*
X102904000Y-51386000D01*
D88*
X78110000Y-97690000D02*
X78760000Y-97690000D01*
X127822000Y-97102000D02*
X127556000Y-97102000D01*
D91*
X81531000Y-43496000D02*
X81469000Y-43434000D01*
D88*
X126806000Y-100150000D02*
X126298000Y-100658000D01*
D91*
X118932000Y-87958000D02*
X118981000Y-88007000D01*
D88*
X128938000Y-101916000D02*
X130462000Y-101916000D01*
D90*
X113783000Y-42341000D02*
X110410000Y-42341000D01*
X83510000Y-37390000D02*
X83966000Y-37846000D01*
X113783000Y-42031000D02*
X110487000Y-38735000D01*
D88*
X132736000Y-98118000D02*
X134018000Y-98118000D01*
D90*
X121726000Y-113092000D02*
X121726000Y-113358000D01*
D92*
X73090000Y-57581000D02*
X68010000Y-57581000D01*
D90*
X119758000Y-45821000D02*
X119758000Y-43942000D01*
D91*
X74038000Y-43180000D02*
X73911000Y-43307000D01*
D90*
X79880000Y-40386000D02*
X83055000Y-40386000D01*
X99152000Y-75482000D02*
X99122000Y-75512000D01*
D91*
X91564000Y-51386000D02*
X91564000Y-50292000D01*
D90*
X101154000Y-75482000D02*
X101154000Y-72718000D01*
D88*
X142989000Y-51739400D02*
X142989000Y-53312400D01*
X126806000Y-97852000D02*
X127822000Y-97102000D01*
X130462000Y-101916000D02*
X130462000Y-103198000D01*
D90*
X118932000Y-106246000D02*
X118932000Y-105007636D01*
D89*
X121185000Y-90957000D02*
X119492600Y-90957000D01*
D88*
X128842000Y-80035500D02*
X129342000Y-80035500D01*
D90*
X83055000Y-39116000D02*
X83182000Y-39243000D01*
D88*
X83360000Y-82840000D02*
X84060000Y-82840000D01*
D91*
X81469000Y-43434000D02*
X81469000Y-45785000D01*
D88*
X143368600Y-55852400D02*
X143368600Y-53692000D01*
D91*
X79499000Y-40767000D02*
X79880000Y-40386000D01*
D89*
X130510000Y-109679400D02*
X130514400Y-109675000D01*
D91*
X72260000Y-40640000D02*
X75562000Y-40640000D01*
X118981000Y-88007000D02*
X121185000Y-88007000D01*
D90*
X101154000Y-89482000D02*
X99784087Y-89482000D01*
X81469000Y-37846000D02*
X81510000Y-37390000D01*
D88*
X129842000Y-80035500D02*
X129854500Y-80023000D01*
D89*
X130510000Y-111140000D02*
X130510000Y-111753400D01*
D88*
X78760000Y-98990000D02*
X79378000Y-98372000D01*
D93*
X67545500Y-103784500D02*
X67370000Y-103960000D01*
D89*
X127668000Y-105362500D02*
X127668000Y-103960000D01*
D90*
X99784087Y-89482000D02*
X99670000Y-89367913D01*
D88*
X78760000Y-97690000D02*
X79442000Y-98372000D01*
D90*
X101154000Y-89482000D02*
X101154000Y-92530000D01*
D88*
X72008000Y-103784500D02*
X72008000Y-104910000D01*
D89*
X107308000Y-61688000D02*
X107308000Y-59527000D01*
D88*
X79475000Y-98340000D02*
X79507000Y-98372000D01*
D91*
X118727000Y-88007000D02*
X118883000Y-88007000D01*
D88*
X78110000Y-98340000D02*
X79475000Y-98340000D01*
D90*
X79880000Y-39116000D02*
X83055000Y-39116000D01*
D88*
X139408000Y-57341200D02*
X137830995Y-58918205D01*
D90*
X84466000Y-37846000D02*
X84510000Y-37890000D01*
X101154000Y-75482000D02*
X99152000Y-75482000D01*
D88*
X125536000Y-80289000D02*
X125270000Y-80023000D01*
X142247000Y-56595700D02*
X142247000Y-57435200D01*
D91*
X81469000Y-45785000D02*
X81531000Y-45847000D01*
D88*
X84510000Y-72390000D02*
X84060000Y-72840000D01*
D91*
X81469000Y-45909000D02*
X81469000Y-47906000D01*
D89*
X130510000Y-111140000D02*
X130510000Y-109679400D01*
D88*
X143368600Y-53692000D02*
X142989000Y-53312400D01*
D94*
X111185000Y-96975000D02*
X110550000Y-97610000D01*
D95*
X50510000Y-91790000D02*
X50510000Y-75390000D01*
D90*
X113783000Y-38487000D02*
X113789000Y-38481000D01*
D88*
X78467500Y-83452000D02*
X78480000Y-83452000D01*
D90*
X84510000Y-37890000D02*
X84554000Y-37846000D01*
D88*
X78110000Y-98990000D02*
X78760000Y-98990000D01*
D90*
X122107000Y-106246000D02*
X122615000Y-105738000D01*
D93*
X106729000Y-44056000D02*
X106729000Y-45018500D01*
D90*
X113783000Y-42341000D02*
X113783000Y-38487000D01*
D88*
X142989000Y-51739400D02*
X142989000Y-49785000D01*
D90*
X116429000Y-114071000D02*
X116392000Y-114108000D01*
D89*
X119948000Y-86180000D02*
X118424000Y-87704000D01*
X120214000Y-86180000D02*
X119948000Y-86180000D01*
D90*
X118932000Y-114071000D02*
X120915000Y-114071000D01*
X118932000Y-106246000D02*
X122107000Y-106246000D01*
D88*
X142247000Y-56133200D02*
X142247000Y-56595700D01*
D89*
X131225600Y-112469000D02*
X132063800Y-112469000D01*
D90*
X114563000Y-51181000D02*
X113662000Y-51181000D01*
D89*
X108010000Y-62390000D02*
X107308000Y-61688000D01*
D91*
X73911000Y-43307000D02*
X73911000Y-37989000D01*
D92*
X70550000Y-59105000D02*
X70550000Y-56057000D01*
D88*
X74325000Y-83035000D02*
X74990000Y-82370000D01*
D89*
X122693000Y-80140000D02*
X122693000Y-78101000D01*
D91*
X81531000Y-43561000D02*
X81531000Y-43496000D01*
D93*
X104729000Y-44056000D02*
X104729000Y-45018500D01*
X68452000Y-103784500D02*
X67545500Y-103784500D01*
D91*
X81277000Y-43307000D02*
X81531000Y-43561000D01*
X118424000Y-87704000D02*
X118727000Y-88007000D01*
X118202000Y-87482000D02*
X118424000Y-87704000D01*
D90*
X86419000Y-37846000D02*
X87054000Y-37846000D01*
D91*
X114220000Y-113727000D02*
X112951000Y-113727000D01*
D89*
X122693000Y-83640000D02*
X122693000Y-80140000D01*
D92*
X83182000Y-48133000D02*
X79245000Y-48133000D01*
D88*
X142747000Y-57935200D02*
X142747000Y-62497000D01*
D95*
X50510000Y-58990000D02*
X50510000Y-75390000D01*
D91*
X75689000Y-40767000D02*
X79499000Y-40767000D01*
D90*
X118932000Y-105007636D02*
X118950097Y-104989539D01*
D88*
X83360000Y-72840000D02*
X84060000Y-72840000D01*
D90*
X83055000Y-40386000D02*
X83182000Y-40513000D01*
D91*
X83194000Y-43561000D02*
X81596000Y-43561000D01*
D88*
X74325000Y-83452000D02*
X74325000Y-83035000D01*
X143137800Y-56083200D02*
X143368600Y-55852400D01*
X72008000Y-104910000D02*
X71688000Y-105230000D01*
D90*
X118932000Y-114071000D02*
X116429000Y-114071000D01*
D88*
X137830995Y-58918205D02*
X137441945Y-58918205D01*
X125802000Y-80023000D02*
X125536000Y-80289000D01*
D90*
X113783000Y-42341000D02*
X113783000Y-46355000D01*
X110410000Y-42341000D02*
X110360000Y-42291000D01*
D88*
X142989000Y-49785000D02*
X142808000Y-49604000D01*
D90*
X120915000Y-114071000D02*
X120964000Y-114120000D01*
D88*
X129854500Y-79523000D02*
X129854500Y-80023000D01*
D94*
X111185000Y-95967000D02*
X111185000Y-94689000D01*
D89*
X68510000Y-96978000D02*
X68132000Y-97356000D01*
D90*
X84554000Y-37846000D02*
X86419000Y-37846000D01*
X113729000Y-50556000D02*
X113662000Y-51181000D01*
D91*
X115364000Y-114108000D02*
X116392000Y-114108000D01*
D88*
X142747000Y-62497000D02*
X142808000Y-62558000D01*
D89*
X108010000Y-66233500D02*
X108010000Y-64582500D01*
D90*
X83966000Y-37846000D02*
X84466000Y-37846000D01*
X118157000Y-42341000D02*
X117218000Y-42341000D01*
D88*
X126552000Y-80023000D02*
X125802000Y-80023000D01*
D91*
X115852000Y-87482000D02*
X115376000Y-87958000D01*
D89*
X68560000Y-96390000D02*
X68510000Y-96340000D01*
D91*
X114983000Y-113727000D02*
X115364000Y-114108000D01*
D90*
X113783000Y-42551000D02*
X110487000Y-45847000D01*
D94*
X111185000Y-94689000D02*
X110804000Y-94308000D01*
D91*
X75562000Y-40640000D02*
X75689000Y-40767000D01*
X115376000Y-92772000D02*
X115364000Y-92784000D01*
X118883000Y-88007000D02*
X118932000Y-87958000D01*
D88*
X129342000Y-80035500D02*
X129842000Y-80035500D01*
X79760000Y-71390000D02*
X78510000Y-71390000D01*
D91*
X73911000Y-37989000D02*
X74510000Y-37390000D01*
D88*
X122947000Y-88007000D02*
X122996000Y-87958000D01*
X79760000Y-69890000D02*
X79760000Y-72890000D01*
D91*
X95449000Y-113727000D02*
X95448995Y-113727005D01*
D89*
X119492600Y-90957000D02*
X119465400Y-90929800D01*
D90*
X83510000Y-37390000D02*
X72510000Y-37390000D01*
D89*
X103983000Y-67383000D02*
X105596000Y-67383000D01*
D88*
X106010000Y-66140000D02*
X106010000Y-66971000D01*
D94*
X111185000Y-95967000D02*
X111185000Y-96975000D01*
D90*
X79880000Y-41656000D02*
X83055000Y-41656000D01*
D88*
X126806000Y-99039500D02*
X126806000Y-97852000D01*
D91*
X101089000Y-51386000D02*
X91564000Y-51386000D01*
D90*
X113783000Y-51060000D02*
X113729000Y-50556000D01*
D91*
X102904000Y-51386000D02*
X103629000Y-50661000D01*
X96720000Y-113727000D02*
X98002404Y-113727000D01*
X115376000Y-89482000D02*
X115376000Y-92772000D01*
D90*
X94739000Y-51386000D02*
X94739000Y-50292000D01*
D88*
X126806000Y-99039500D02*
X126806000Y-100150000D01*
X142247000Y-57435200D02*
X142747000Y-57935200D01*
D89*
X108010000Y-64582500D02*
X108010000Y-62390000D01*
D90*
X113783000Y-42539000D02*
X117091000Y-45847000D01*
D89*
X68510000Y-96340000D02*
X68510000Y-96978000D01*
D91*
X96720000Y-113727000D02*
X95449000Y-113727000D01*
X117154000Y-87482000D02*
X118202000Y-87482000D01*
D90*
X101089000Y-51386000D02*
X101089000Y-50292000D01*
D91*
X115376000Y-87958000D02*
X115376000Y-89482000D01*
D88*
X142759500Y-56083200D02*
X143137800Y-56083200D01*
D91*
X73911000Y-43307000D02*
X81277000Y-43307000D01*
D88*
X125270000Y-80023000D02*
X124520000Y-80023000D01*
D89*
X70910000Y-96390000D02*
X68560000Y-96390000D01*
D90*
X97914000Y-51386000D02*
X97914000Y-50292000D01*
X113662000Y-51181000D02*
X112888000Y-51181000D01*
X121726000Y-113358000D02*
X120964000Y-114120000D01*
D88*
X106010000Y-66971000D02*
X105597000Y-67384000D01*
X78480000Y-83452000D02*
X79562000Y-82370000D01*
D91*
X81531000Y-45847000D02*
X81469000Y-45909000D01*
D89*
X122693000Y-78101000D02*
X122742000Y-78052000D01*
X105596000Y-67383000D02*
X105597000Y-67384000D01*
X130510000Y-111753400D02*
X131225600Y-112469000D01*
D90*
X113783000Y-42341000D02*
X117218000Y-42341000D01*
D88*
X134222800Y-55852400D02*
X135647000Y-55852400D01*
X79442000Y-98372000D02*
X79507000Y-98372000D01*
D91*
X117154000Y-87482000D02*
X115852000Y-87482000D01*
D90*
%TO.N,+3.3V*%
X118932000Y-109196000D02*
X118932000Y-111121000D01*
X115440000Y-85482000D02*
X117154000Y-85482000D01*
D88*
X141489000Y-53312400D02*
X137220000Y-53312400D01*
D89*
X114995000Y-53795000D02*
X116063000Y-52727000D01*
D88*
X93036000Y-100404000D02*
X93036000Y-101166000D01*
D90*
X121255000Y-111121000D02*
X121726000Y-111592000D01*
D89*
X116063000Y-52727000D02*
X116063000Y-51181000D01*
D88*
X85060000Y-89482000D02*
X86112050Y-89482000D01*
X137220000Y-53312400D02*
X137220014Y-53312400D01*
D90*
X117904000Y-112608000D02*
X116392000Y-112608000D01*
D89*
X119743000Y-78101000D02*
X119694000Y-78052000D01*
D88*
X86660000Y-67940000D02*
X88060000Y-67940000D01*
X116260000Y-100204000D02*
X115946000Y-99890000D01*
D90*
X114804000Y-85482000D02*
X113864000Y-86422000D01*
X115312000Y-85482000D02*
X114804000Y-85482000D01*
D89*
X99083000Y-64083000D02*
X100518000Y-64083000D01*
D88*
X127052000Y-79023000D02*
X126552000Y-78523000D01*
X93036000Y-107389000D02*
X93036000Y-105750008D01*
X93036000Y-105750008D02*
X93023992Y-105738000D01*
X125270000Y-78523000D02*
X125536000Y-78257000D01*
D93*
X108479000Y-45056000D02*
X110229000Y-46806000D01*
D88*
X93036000Y-111173600D02*
X93036000Y-109737800D01*
D93*
X112729000Y-46806000D02*
X114564000Y-48641000D01*
D88*
X129854500Y-78523000D02*
X129854500Y-79023000D01*
X88060000Y-77940000D02*
X88510000Y-78390000D01*
D90*
X116241000Y-112457000D02*
X116392000Y-112608000D01*
D88*
X86660000Y-77940000D02*
X88060000Y-77940000D01*
D90*
X113864000Y-89494000D02*
X113864000Y-92784000D01*
X117662000Y-48842000D02*
X117583000Y-48921000D01*
D88*
X99755000Y-91403111D02*
X99954580Y-91203531D01*
X93036000Y-99642000D02*
X93036000Y-100404000D01*
X125802000Y-78523000D02*
X126552000Y-78523000D01*
X101963000Y-62890000D02*
X100644000Y-64209000D01*
X93036000Y-109737800D02*
X93024000Y-109725800D01*
D90*
X114220000Y-112457000D02*
X116241000Y-112457000D01*
D88*
X93036000Y-100404000D02*
X93024000Y-102436000D01*
X106010000Y-64640000D02*
X106010000Y-63390000D01*
D89*
X119743000Y-83640000D02*
X119743000Y-80140000D01*
D90*
X116063000Y-48641000D02*
X116063000Y-51181000D01*
D88*
X139666000Y-55583200D02*
X139408000Y-55841200D01*
X128329500Y-79023000D02*
X127052000Y-79023000D01*
X142759500Y-55583200D02*
X142759500Y-54582900D01*
X123250000Y-113092000D02*
X123226000Y-113092000D01*
X79445000Y-97040000D02*
X79507000Y-97102000D01*
D89*
X110931000Y-53795000D02*
X112582000Y-53795000D01*
D88*
X124520000Y-78523000D02*
X125270000Y-78523000D01*
D90*
X119758000Y-50302000D02*
X119694000Y-50366000D01*
D88*
X86112050Y-89482000D02*
X86142254Y-89512204D01*
X88060000Y-67940000D02*
X88510000Y-68390000D01*
X85060000Y-90190000D02*
X85060000Y-89482000D01*
X116260000Y-101390000D02*
X116260000Y-100204000D01*
D90*
X115376000Y-85418000D02*
X115312000Y-85482000D01*
D88*
X138390200Y-55852400D02*
X137172800Y-55852400D01*
D90*
X116343000Y-48921000D02*
X116063000Y-48641000D01*
X119758000Y-48921000D02*
X117741000Y-48921000D01*
D88*
X141489000Y-51739400D02*
X141489000Y-53312400D01*
X79308000Y-104456000D02*
X79308000Y-105738000D01*
D93*
X114564000Y-48641000D02*
X116063000Y-48641000D01*
D89*
X68510000Y-94840000D02*
X68510000Y-93643950D01*
D90*
X118932000Y-111121000D02*
X118932000Y-111580000D01*
D93*
X110229000Y-46806000D02*
X112729000Y-46806000D01*
D88*
X137172800Y-55852400D02*
X137220000Y-55805200D01*
D90*
X118932000Y-111121000D02*
X121255000Y-111121000D01*
D88*
X99755000Y-92288000D02*
X99755000Y-91403111D01*
D89*
X70910000Y-95740000D02*
X69410000Y-95740000D01*
D88*
X141489000Y-51739400D02*
X137370610Y-51739400D01*
D90*
X117583000Y-48921000D02*
X116343000Y-48921000D01*
D88*
X123226000Y-113092000D02*
X121726000Y-111592000D01*
X139650000Y-56083200D02*
X139408000Y-55841200D01*
D89*
X112582000Y-53795000D02*
X114995000Y-53795000D01*
D90*
X115440000Y-85482000D02*
X115376000Y-85418000D01*
D89*
X68510000Y-93643950D02*
X68483025Y-93616975D01*
D88*
X105510000Y-62890000D02*
X101963000Y-62890000D01*
D90*
X113852000Y-89482000D02*
X113864000Y-89494000D01*
D89*
X100518000Y-64083000D02*
X100644000Y-64209000D01*
D90*
X118932000Y-111580000D02*
X117916000Y-112596000D01*
D88*
X106010000Y-63390000D02*
X105510000Y-62890000D01*
D90*
X117741000Y-48921000D02*
X117662000Y-48842000D01*
X113864000Y-86422000D02*
X113864000Y-89470000D01*
D88*
X137370610Y-51739400D02*
X137220010Y-51890000D01*
X78110000Y-97040000D02*
X79445000Y-97040000D01*
X85060000Y-89482000D02*
X85060000Y-88790000D01*
D90*
X118932000Y-109196000D02*
X118932000Y-107770000D01*
D88*
X88510000Y-68390000D02*
X88510000Y-69640000D01*
X137220000Y-55805200D02*
X137220000Y-53312400D01*
X125536000Y-78257000D02*
X125802000Y-78523000D01*
D89*
X110423000Y-54303000D02*
X110931000Y-53795000D01*
D88*
X128329500Y-79023000D02*
X129854500Y-79023000D01*
X139408000Y-55841200D02*
X137995000Y-55841200D01*
X80510000Y-78040000D02*
X80510000Y-79390000D01*
X141234500Y-56083200D02*
X139650000Y-56083200D01*
D90*
X119758000Y-48921000D02*
X119758000Y-50302000D01*
D88*
X142759500Y-54582900D02*
X141489000Y-53312400D01*
X142759500Y-55583200D02*
X139666000Y-55583200D01*
D90*
X117916000Y-112596000D02*
X117904000Y-112608000D01*
D88*
X88510000Y-78390000D02*
X88510000Y-79640000D01*
D90*
X113864000Y-89470000D02*
X113852000Y-89482000D01*
D89*
X69410000Y-95740000D02*
X68510000Y-94840000D01*
X119743000Y-80140000D02*
X119743000Y-78101000D01*
%TO.N,/GPS/Vext*%
X109522000Y-62931500D02*
X109522000Y-66221500D01*
X109123000Y-57194000D02*
X109123000Y-54303000D01*
X109522000Y-66221500D02*
X109510000Y-66233500D01*
X109808000Y-59527000D02*
X109808000Y-62645500D01*
X109808000Y-59527000D02*
X109808000Y-57879000D01*
X109808000Y-57879000D02*
X109123000Y-57194000D01*
X109808000Y-62645500D02*
X109522000Y-62931500D01*
D91*
%TO.N,/PSU/POWER*%
X76122500Y-65390000D02*
X71510000Y-65390000D01*
D96*
X68760000Y-82640000D02*
X62510000Y-88890000D01*
X68760000Y-75390000D02*
X68760000Y-68140000D01*
X68760000Y-75390000D02*
X68760000Y-82640000D01*
X68760000Y-68140000D02*
X62510000Y-61890000D01*
D91*
X71510000Y-65390000D02*
X68760000Y-68140000D01*
D88*
%TO.N,+28V*%
X69510000Y-109640000D02*
X68148000Y-108278000D01*
X72510000Y-69990000D02*
X72510000Y-75512000D01*
D92*
X80397500Y-65390000D02*
X82526000Y-65390000D01*
D88*
X72510000Y-75512000D02*
X74760000Y-75512000D01*
X80397500Y-67502500D02*
X79510000Y-68390000D01*
X80397500Y-65390000D02*
X80397500Y-67502500D01*
X71434000Y-83894000D02*
X64830000Y-90498000D01*
X74110000Y-68390000D02*
X72510000Y-69990000D01*
X64830000Y-90498000D02*
X64830000Y-108278000D01*
X79510000Y-68390000D02*
X74110000Y-68390000D01*
D93*
X82634000Y-65498000D02*
X82526000Y-65390000D01*
D88*
X68148000Y-108278000D02*
X67370000Y-108278000D01*
X71434000Y-76588000D02*
X71434000Y-83894000D01*
D92*
X82526000Y-65390000D02*
X85260000Y-62656000D01*
D88*
X72510000Y-75512000D02*
X71434000Y-76588000D01*
%TO.N,/CPU/GPSRX*%
X111010000Y-58390000D02*
X111010000Y-68890000D01*
X111510000Y-57890000D02*
X111010000Y-58390000D01*
X113510000Y-57890000D02*
X111510000Y-57890000D01*
X114808000Y-59188000D02*
X113510000Y-57890000D01*
X112457000Y-104837000D02*
X111010000Y-103390000D01*
X114220000Y-104837000D02*
X112457000Y-104837000D01*
X114808000Y-59527000D02*
X114808000Y-59188000D01*
%TO.N,/CPU/GPSTX*%
X112308000Y-68688000D02*
X112510000Y-68890000D01*
X112308000Y-59527000D02*
X112308000Y-68688000D01*
X114220000Y-103567000D02*
X112687000Y-103567000D01*
X112687000Y-103567000D02*
X112510000Y-103390000D01*
%TO.N,SW1*%
X80832000Y-95630628D02*
X80832000Y-101712000D01*
X78110000Y-93790000D02*
X78991372Y-93790000D01*
X80832000Y-101712000D02*
X88510000Y-109390000D01*
X78991372Y-93790000D02*
X80832000Y-95630628D01*
%TO.N,SW2*%
X79075685Y-94440000D02*
X80432000Y-95796315D01*
X80432000Y-95796315D02*
X80432000Y-101877686D01*
X80510000Y-101955685D02*
X80510000Y-108850000D01*
X78110000Y-94440000D02*
X79075685Y-94440000D01*
X80432000Y-101877686D02*
X80510000Y-101955685D01*
%TO.N,SW3*%
X80032001Y-102043375D02*
X80110000Y-102121373D01*
X80110000Y-107222000D02*
X78482000Y-108850000D01*
X78482000Y-108850000D02*
X76510000Y-108850000D01*
X80110000Y-102121373D02*
X80110000Y-107222000D01*
X78110000Y-95090000D02*
X79160000Y-95090000D01*
X80032000Y-95962000D02*
X80032001Y-102043375D01*
X79160000Y-95090000D02*
X80032000Y-95962000D01*
%TO.N,/Accumonitor/GREEN*%
X73974000Y-81862000D02*
X74760000Y-81076000D01*
X74760000Y-81076000D02*
X74760000Y-78012000D01*
X73708000Y-81862000D02*
X73974000Y-81862000D01*
%TO.N,/Accumonitor/RED*%
X76780000Y-75032000D02*
X76780000Y-81862000D01*
X74760000Y-73012000D02*
X76780000Y-75032000D01*
%TO.N,/CPU/ESC_BB*%
X98866000Y-80084000D02*
X98993000Y-80211000D01*
X98866000Y-76401000D02*
X98866000Y-80084000D01*
X97088000Y-74242000D02*
X97088000Y-74623000D01*
X114220000Y-97217000D02*
X114220000Y-95438000D01*
X97088000Y-74623000D02*
X98866000Y-76401000D01*
X114220000Y-95438000D02*
X104327000Y-85545000D01*
%TO.N,/CPU/ESC_SB*%
X112709000Y-95197000D02*
X112709000Y-98245000D01*
X97088000Y-76540000D02*
X97481000Y-76540000D01*
X112975000Y-98487000D02*
X114220000Y-98487000D01*
X97481000Y-76540000D02*
X97977000Y-77036000D01*
X104327000Y-86815000D02*
X112709000Y-95197000D01*
X97977000Y-77036000D02*
X97977000Y-80465000D01*
X112709000Y-98245000D02*
X112963000Y-98499000D01*
X112963000Y-98499000D02*
X112975000Y-98487000D01*
%TO.N,LED1*%
X78110000Y-93140000D02*
X79510000Y-93140000D01*
X79510000Y-93140000D02*
X80760000Y-94390000D01*
%TO.N,LED2*%
X80022000Y-92990000D02*
X80760000Y-92990000D01*
X78110000Y-92490000D02*
X79522000Y-92490000D01*
X79522000Y-92490000D02*
X80022000Y-92990000D01*
%TO.N,LED3*%
X80760000Y-91590000D02*
X79994000Y-91590000D01*
X79744000Y-91840000D02*
X78110000Y-91840000D01*
X79994000Y-91590000D02*
X79744000Y-91840000D01*
D96*
%TO.N,/PSU/ACC*%
X65260000Y-75390000D02*
X57710000Y-75390000D01*
D88*
%TO.N,/CPU/LEDS*%
X91754000Y-91768000D02*
X91754000Y-102690000D01*
X100510000Y-103390000D02*
X102873000Y-101027000D01*
X86660000Y-82840000D02*
X86660000Y-86674000D01*
X92454000Y-103390000D02*
X94510000Y-103390000D01*
X102873000Y-101027000D02*
X114220000Y-101027000D01*
X91754000Y-102690000D02*
X92454000Y-103390000D01*
X86660000Y-86674000D02*
X91754000Y-91768000D01*
%TO.N,DR0*%
X117578000Y-99392314D02*
X119186000Y-101000314D01*
X119186000Y-102690000D02*
X119821000Y-103325000D01*
X117578000Y-98626000D02*
X117578000Y-99392314D01*
X119821000Y-103325000D02*
X122615000Y-103325000D01*
X119186000Y-101000314D02*
X119186000Y-102690000D01*
%TO.N,EN*%
X123226000Y-114374000D02*
X123250000Y-114374000D01*
X123250000Y-114374000D02*
X124266000Y-113358000D01*
X124266000Y-105223000D02*
X124266000Y-106754000D01*
X123758000Y-104715000D02*
X124266000Y-105223000D01*
X124266000Y-112608000D02*
X123250000Y-111592000D01*
X116138000Y-95070000D02*
X116138000Y-98518000D01*
X122615000Y-108405000D02*
X123250000Y-109040000D01*
X114220000Y-111187000D02*
X115999000Y-111187000D01*
X117578000Y-94562000D02*
X116646000Y-94562000D01*
X123250000Y-109040000D02*
X123250000Y-111592000D01*
X116138000Y-98518000D02*
X118678000Y-101058000D01*
X116646000Y-94562000D02*
X116138000Y-95070000D01*
X118678000Y-101058000D02*
X118678000Y-103198000D01*
X120195000Y-104715000D02*
X123758000Y-104715000D01*
X118678000Y-103198000D02*
X120195000Y-104715000D01*
X124266000Y-113358000D02*
X124266000Y-112608000D01*
X115999000Y-111187000D02*
X116138000Y-111326000D01*
X124266000Y-106754000D02*
X122615000Y-108405000D01*
%TO.N,/CPU/SDA_DISP*%
X95310000Y-91260000D02*
X93786000Y-89736000D01*
X95310000Y-98868000D02*
X95310000Y-91260000D01*
X96720000Y-99757000D02*
X94651000Y-99757000D01*
X94651000Y-99757000D02*
X94536000Y-99642000D01*
X94536000Y-99642000D02*
X95310000Y-98868000D01*
%TO.N,/CPU/SCL_DISP*%
X93177107Y-98626000D02*
X92770000Y-98626000D01*
X93736000Y-99184893D02*
X93177107Y-98626000D01*
X92516000Y-93546000D02*
X93786000Y-92276000D01*
X92516000Y-98372000D02*
X92770000Y-98626000D01*
X92516000Y-98372000D02*
X92516000Y-93546000D01*
X94536000Y-101166000D02*
X94536000Y-101154000D01*
X94675000Y-101027000D02*
X94536000Y-101166000D01*
X93736000Y-100354000D02*
X93736000Y-99184893D01*
X94536000Y-101154000D02*
X93736000Y-100354000D01*
X96720000Y-101027000D02*
X94675000Y-101027000D01*
%TO.N,RTS*%
X124882000Y-95686000D02*
X123307950Y-95686000D01*
X121336000Y-95962000D02*
X121218000Y-95844000D01*
X121218000Y-95052000D02*
X119778000Y-93612000D01*
X125048000Y-95852000D02*
X124882000Y-95686000D01*
X123307950Y-95686000D02*
X123031950Y-95962000D01*
X121218000Y-95844000D02*
X121218000Y-95052000D01*
X123031950Y-95962000D02*
X121336000Y-95962000D01*
X125618500Y-95852000D02*
X125048000Y-95852000D01*
%TO.N,DTR*%
X119778000Y-97626893D02*
X120810893Y-96594000D01*
X120810893Y-96594000D02*
X121625107Y-96594000D01*
X119778000Y-97676000D02*
X117232000Y-97676000D01*
X119778000Y-97676000D02*
X119778000Y-97626893D01*
X121968000Y-96936893D02*
X121968000Y-97243107D01*
X121625107Y-96594000D02*
X121968000Y-96936893D01*
X121968000Y-97243107D02*
X122334893Y-97610000D01*
X117232000Y-97676000D02*
X116900000Y-97344000D01*
X122334893Y-97610000D02*
X124951348Y-97610000D01*
X124951348Y-97610000D02*
X125193348Y-97852000D01*
X125193348Y-97852000D02*
X125618500Y-97852000D01*
%TO.N,/CPU/RADIO_6*%
X114220000Y-99757000D02*
X114753000Y-99757000D01*
X113404000Y-70732000D02*
X112074000Y-70732000D01*
X115376000Y-95705000D02*
X113090000Y-93419000D01*
X115904000Y-70732000D02*
X103404000Y-70732000D01*
X113090000Y-84522000D02*
X113210000Y-84402000D01*
X113090000Y-93419000D02*
X113090000Y-84522000D01*
X115376000Y-99134000D02*
X115376000Y-95705000D01*
X112074000Y-70732000D02*
X112074000Y-77170014D01*
X114753000Y-99757000D02*
X115376000Y-99134000D01*
X112074000Y-77170014D02*
X113210000Y-78306014D01*
%TO.N,/CPU/RADIO_5*%
X103438000Y-92276000D02*
X101025000Y-94689000D01*
X104612000Y-83482000D02*
X103438000Y-84656000D01*
X103438000Y-84656000D02*
X103438000Y-92276000D01*
X117154000Y-83482000D02*
X104612000Y-83482000D01*
X101025000Y-94689000D02*
X101025000Y-95967000D01*
%TO.N,/CPU/RADIO_4*%
X96720000Y-102297000D02*
X97603000Y-102297000D01*
X97770000Y-102130000D02*
X97770000Y-88650004D01*
X97603000Y-102297000D02*
X97770000Y-102130000D01*
X99710005Y-87482000D02*
X99710000Y-87481995D01*
X97770000Y-88650004D02*
X97010000Y-87890004D01*
X101154000Y-87482000D02*
X99710005Y-87482000D01*
%TO.N,/CPU/RADIO_3*%
X96720000Y-103567000D02*
X97833000Y-103567000D01*
X98918000Y-81482000D02*
X101154000Y-81482000D01*
X97833000Y-103567000D02*
X98170000Y-103230000D01*
X98170000Y-82230000D02*
X98918000Y-81482000D01*
X98170000Y-103230000D02*
X98170000Y-82230000D01*
%TO.N,/CPU/RADIO_2*%
X98570000Y-104330000D02*
X98063000Y-104837000D01*
X98063000Y-104837000D02*
X96720000Y-104837000D01*
X98570000Y-84573000D02*
X98570000Y-104330000D01*
X99661000Y-83482000D02*
X98570000Y-84573000D01*
X101154000Y-83482000D02*
X99661000Y-83482000D01*
%TO.N,RX*%
X121218000Y-101166000D02*
X120710000Y-101674000D01*
X123758000Y-99134000D02*
X121726000Y-99134000D01*
X124266000Y-98626000D02*
X123758000Y-99134000D01*
X121726000Y-99134000D02*
X121218000Y-99642000D01*
X124266000Y-98360000D02*
X124266000Y-98626000D01*
X96720000Y-108647000D02*
X98293800Y-108647000D01*
X98293800Y-108647000D02*
X98332600Y-108608200D01*
X121218000Y-99642000D02*
X121218000Y-101166000D01*
%TO.N,TX*%
X121484000Y-98360000D02*
X120710000Y-99134000D01*
X120710000Y-99134000D02*
X120710000Y-100150000D01*
X122742000Y-98360000D02*
X121484000Y-98360000D01*
X120710000Y-100150000D02*
X120202000Y-100658000D01*
X96720000Y-109917000D02*
X99524523Y-109917000D01*
X99524523Y-109917000D02*
X99664600Y-109776923D01*
%TO.N,Net-(U102-VDD)*%
X128806000Y-99039500D02*
X128806000Y-100284000D01*
X130486000Y-100416000D02*
X131986000Y-101916000D01*
X130462000Y-100416000D02*
X128938000Y-100416000D01*
X128306000Y-99039500D02*
X128306000Y-99784000D01*
X130462000Y-100416000D02*
X130486000Y-100416000D01*
X128306000Y-99784000D02*
X128938000Y-100416000D01*
X128806000Y-100284000D02*
X128938000Y-100416000D01*
%TO.N,Net-(U102-VPP)*%
X127306000Y-94046000D02*
X126806000Y-93546000D01*
X127306000Y-95164500D02*
X127306000Y-94046000D01*
D91*
%TO.N,Net-(D201-K)*%
X83010000Y-56326000D02*
X82980000Y-56356000D01*
X73969000Y-50157800D02*
X75246200Y-51435000D01*
X84960000Y-50038000D02*
X84960000Y-43827000D01*
X85214000Y-41656000D02*
X84960000Y-41910000D01*
X84960000Y-43827000D02*
X84694000Y-43561000D01*
X83010000Y-54640000D02*
X83010000Y-56326000D01*
X83510000Y-53556000D02*
X83510000Y-54140000D01*
X83563000Y-53503000D02*
X83510000Y-53556000D01*
X82364000Y-57536000D02*
X79186000Y-57536000D01*
X86419000Y-41656000D02*
X85214000Y-41656000D01*
X83510000Y-54140000D02*
X83010000Y-54640000D01*
X73969000Y-49196000D02*
X73969000Y-50157800D01*
X84960000Y-41910000D02*
X84960000Y-43827000D01*
X82980000Y-56356000D02*
X82980000Y-56920000D01*
X83563000Y-51435000D02*
X84960000Y-50038000D01*
X75246200Y-51435000D02*
X83563000Y-51435000D01*
X83563000Y-51435000D02*
X83563000Y-53503000D01*
X82980000Y-56920000D02*
X82364000Y-57536000D01*
D88*
%TO.N,Net-(U301-C1)*%
X141747000Y-56595700D02*
X141747000Y-57435200D01*
X141747000Y-57435200D02*
X141247000Y-57935200D01*
D89*
%TO.N,Net-(D101-A)*%
X127910000Y-111140000D02*
X127910000Y-109890000D01*
X127668000Y-109648000D02*
X127668000Y-107637500D01*
X127910000Y-109890000D02*
X127668000Y-109648000D01*
X129752400Y-108151000D02*
X130969000Y-108151000D01*
X130969000Y-108151000D02*
X130970000Y-108150000D01*
D88*
%TO.N,Net-(D102-K)*%
X117760000Y-101390000D02*
X117760000Y-102890000D01*
%TO.N,Net-(D103-DOUT)*%
X86660000Y-75240000D02*
X86660000Y-72840000D01*
X83360000Y-77940000D02*
X83960000Y-77940000D01*
X83960000Y-77940000D02*
X86660000Y-75240000D01*
%TO.N,Net-(D104-DOUT)*%
X89510000Y-66890000D02*
X91010000Y-65390000D01*
X102176000Y-65890000D02*
X103983000Y-64083000D01*
X96010000Y-65890000D02*
X102176000Y-65890000D01*
X95510000Y-65390000D02*
X96010000Y-65890000D01*
X83960000Y-67940000D02*
X85010000Y-66890000D01*
X85010000Y-66890000D02*
X89510000Y-66890000D01*
X83360000Y-67940000D02*
X83960000Y-67940000D01*
X91010000Y-65390000D02*
X95510000Y-65390000D01*
%TO.N,Net-(D105-DOUT)*%
X99083000Y-67383000D02*
X97861000Y-67383000D01*
X97861000Y-67383000D02*
X97088000Y-66610000D01*
%TO.N,Net-(J101-D-)*%
X128560000Y-107695500D02*
X128560000Y-111140000D01*
X128618000Y-105362500D02*
X128618000Y-107637500D01*
X128618000Y-103386000D02*
X128618000Y-105362500D01*
X127806000Y-99039500D02*
X127806000Y-102574000D01*
X128618000Y-107637500D02*
X128560000Y-107695500D01*
X127806000Y-102574000D02*
X128618000Y-103386000D01*
%TO.N,Net-(J101-D+)*%
X125586800Y-112189600D02*
X125078800Y-111681600D01*
X129210000Y-112090000D02*
X129110400Y-112189600D01*
X126718000Y-105362500D02*
X126718000Y-107637500D01*
X125078800Y-111681600D02*
X125078800Y-110284600D01*
X127306000Y-102798000D02*
X126718000Y-103386000D01*
X129210000Y-111140000D02*
X129210000Y-112090000D01*
X127306000Y-99039500D02*
X127306000Y-102798000D01*
X126718000Y-108645400D02*
X126718000Y-107637500D01*
X129110400Y-112189600D02*
X125586800Y-112189600D01*
X126718000Y-103386000D02*
X126718000Y-105362500D01*
X125078800Y-110284600D02*
X126718000Y-108645400D01*
%TO.N,Net-(D201-A)*%
X87010000Y-54556000D02*
X87010000Y-53556000D01*
X89260000Y-53556000D02*
X87010000Y-53556000D01*
X87540000Y-56356000D02*
X87540000Y-55086000D01*
X87540000Y-55086000D02*
X87010000Y-54556000D01*
%TO.N,Net-(D202-A)*%
X103361500Y-45351000D02*
X104899000Y-46888500D01*
X102994000Y-45351000D02*
X103361500Y-45351000D01*
D93*
%TO.N,Net-(D203-A)*%
X108479000Y-46556000D02*
X106766500Y-46556000D01*
D91*
%TO.N,Net-(D204-K)*%
X88869000Y-40386000D02*
X86419000Y-40386000D01*
X90139000Y-41656000D02*
X88869000Y-40386000D01*
X90139000Y-41656000D02*
X90139000Y-43843000D01*
X87979000Y-46003000D02*
X87979000Y-48196000D01*
X90139000Y-43843000D02*
X87979000Y-46003000D01*
D88*
%TO.N,Net-(D701-K)*%
X82260000Y-90190000D02*
X83560000Y-90190000D01*
%TO.N,Net-(D702-K)*%
X82260000Y-88790000D02*
X83560000Y-88790000D01*
D97*
%TO.N,Net-(J202-Pin_2)*%
X50510000Y-51390000D02*
X62510000Y-39390000D01*
X50510000Y-51790000D02*
X50510000Y-51390000D01*
D88*
%TO.N,Net-(J103-Pin_1)*%
X99588000Y-59527000D02*
X99588000Y-61455000D01*
X99588000Y-61455000D02*
X97088000Y-63955000D01*
X97088000Y-63955000D02*
X97088000Y-65110000D01*
D93*
%TO.N,Net-(J401-Pin_1)*%
X96302000Y-71956000D02*
X97088000Y-72742000D01*
X92245000Y-71956000D02*
X96302000Y-71956000D01*
%TO.N,Net-(J402-Pin_1)*%
X92245000Y-83814000D02*
X94040000Y-82019000D01*
X94040000Y-82019000D02*
X94040000Y-78814000D01*
X94814000Y-78040000D02*
X97088000Y-78040000D01*
X94040000Y-78814000D02*
X94814000Y-78040000D01*
D89*
%TO.N,Net-(J601-In)*%
X117154000Y-89482000D02*
X119660000Y-89482000D01*
D88*
%TO.N,Net-(J707-Pin_2)*%
X76514000Y-102436000D02*
X78788000Y-102436000D01*
X78788000Y-102436000D02*
X79308000Y-102956000D01*
%TO.N,Net-(JP601-B)*%
X108404000Y-72032000D02*
X108404000Y-79970000D01*
X108404000Y-79970000D02*
X109916000Y-81482000D01*
X109916000Y-81482000D02*
X117154000Y-81482000D01*
%TO.N,Net-(JP602-B)*%
X110904000Y-78152000D02*
X112234000Y-79482000D01*
X112234000Y-79482000D02*
X117154000Y-79482000D01*
X110904000Y-72032000D02*
X110904000Y-78152000D01*
%TO.N,Net-(JP603-B)*%
X113404000Y-72032000D02*
X113404000Y-76080000D01*
X113404000Y-76080000D02*
X114806000Y-77482000D01*
X114806000Y-77482000D02*
X117154000Y-77482000D01*
%TO.N,Net-(JP604-B)*%
X117154000Y-73282000D02*
X117154000Y-75482000D01*
X115904000Y-72032000D02*
X117154000Y-73282000D01*
%TO.N,Net-(JP605-B)*%
X102230000Y-77482000D02*
X101154000Y-77482000D01*
X103404000Y-76308000D02*
X102230000Y-77482000D01*
X103404000Y-72032000D02*
X103404000Y-76308000D01*
%TO.N,Net-(JP606-B)*%
X105904000Y-72032000D02*
X105904000Y-78126000D01*
X105904000Y-78126000D02*
X104548000Y-79482000D01*
X104548000Y-79482000D02*
X101154000Y-79482000D01*
%TO.N,Net-(Q101-B)*%
X117904000Y-95844000D02*
X116900000Y-95844000D01*
X119778000Y-95512000D02*
X118236000Y-95512000D01*
X118236000Y-95512000D02*
X117904000Y-95844000D01*
%TO.N,Net-(Q102-B)*%
X120202000Y-99152000D02*
X119778000Y-99576000D01*
X121218000Y-97610000D02*
X120202000Y-98626000D01*
X121218000Y-97344000D02*
X121218000Y-97610000D01*
X120202000Y-98626000D02*
X120202000Y-99152000D01*
%TO.N,Net-(J701-Pin_2)*%
X88510000Y-102390000D02*
X88510000Y-102240000D01*
X88510000Y-102240000D02*
X82260000Y-95990000D01*
X82260000Y-95990000D02*
X82260000Y-94390000D01*
%TO.N,Net-(J702-Pin_2)*%
X82260000Y-92990000D02*
X83070000Y-92990000D01*
X85658000Y-95578000D02*
X87173000Y-95578000D01*
X83070000Y-92990000D02*
X85658000Y-95578000D01*
X87173000Y-95578000D02*
X88985000Y-97390000D01*
%TO.N,Net-(J703-Pin_2)*%
X87250000Y-91590000D02*
X89050000Y-93390000D01*
X82260000Y-91590000D02*
X87250000Y-91590000D01*
%TO.N,Net-(J707-Pin_1)*%
X73544500Y-105659500D02*
X74228000Y-104976000D01*
X72958000Y-105659500D02*
X73544500Y-105659500D01*
X74228000Y-104976000D02*
X76514000Y-104976000D01*
%TO.N,Net-(U701-GPB4)*%
X69630600Y-89558200D02*
X68538400Y-88466000D01*
X69630600Y-92935600D02*
X69630600Y-89558200D01*
X69835000Y-93140000D02*
X69630600Y-92935600D01*
X70910000Y-93140000D02*
X69835000Y-93140000D01*
%TO.N,Net-(U701-GPA6)*%
X78110000Y-91190000D02*
X79378000Y-91190000D01*
X80378000Y-90190000D02*
X80760000Y-90190000D01*
X79378000Y-91190000D02*
X80378000Y-90190000D01*
%TO.N,Net-(U701-GPA7)*%
X78110000Y-90540000D02*
X79266000Y-90540000D01*
X79266000Y-90540000D02*
X79562000Y-90244000D01*
X79562000Y-89228000D02*
X80000000Y-88790000D01*
X79562000Y-90244000D02*
X79562000Y-89228000D01*
X80000000Y-88790000D02*
X80760000Y-88790000D01*
D93*
%TO.N,Net-(J708-Pin_1)*%
X73974000Y-109926000D02*
X73974000Y-107770000D01*
X72510000Y-111390000D02*
X73974000Y-109926000D01*
X73974000Y-107770000D02*
X73466000Y-107262000D01*
X69402000Y-107008000D02*
X69402000Y-105659500D01*
X73466000Y-107262000D02*
X69656000Y-107262000D01*
X69656000Y-107262000D02*
X69402000Y-107008000D01*
%TO.N,Net-(J708-Pin_2)*%
X72510000Y-108850000D02*
X70220000Y-111140000D01*
X70220000Y-111140000D02*
X69510000Y-111140000D01*
D88*
%TO.N,Net-(Q701-B)*%
X73290500Y-103784500D02*
X72958000Y-103452000D01*
X72958000Y-103452000D02*
X72958000Y-102678000D01*
X73908000Y-103784500D02*
X73290500Y-103784500D01*
X72958000Y-102678000D02*
X72208000Y-101928000D01*
%TO.N,Net-(Q702-B)*%
X74325000Y-85352000D02*
X74325000Y-86083000D01*
X74325000Y-86083000D02*
X73466000Y-86942000D01*
%TO.N,Net-(Q702-C)*%
X72208000Y-83144000D02*
X72450000Y-83386000D01*
X72450000Y-83386000D02*
X72450000Y-84402000D01*
X72208000Y-81862000D02*
X72208000Y-83144000D01*
%TO.N,Net-(Q703-B)*%
X78467500Y-85352000D02*
X78467500Y-86246500D01*
X78467500Y-86246500D02*
X77772000Y-86942000D01*
%TO.N,Net-(Q703-C)*%
X76592500Y-83549500D02*
X76592500Y-84402000D01*
X78280000Y-81862000D02*
X76592500Y-83549500D01*
D93*
%TO.N,Net-(Q704-B)*%
X70352000Y-102128000D02*
X70152000Y-101928000D01*
X70352000Y-103784500D02*
X70352000Y-102128000D01*
D88*
%TO.N,Net-(U102-~{RSTb})*%
X131986000Y-100150000D02*
X131224000Y-99388000D01*
X130212000Y-97352000D02*
X130970000Y-96594000D01*
X129493500Y-97352000D02*
X130212000Y-97352000D01*
X131986000Y-100416000D02*
X131986000Y-100150000D01*
%TO.N,Net-(U102-RXD)*%
X123516000Y-96086000D02*
X122742000Y-96860000D01*
X124915107Y-96352000D02*
X124649107Y-96086000D01*
X125618500Y-96352000D02*
X124915107Y-96352000D01*
X124649107Y-96086000D02*
X123516000Y-96086000D01*
%TO.N,Net-(U102-TXD)*%
X124274000Y-96852000D02*
X124266000Y-96860000D01*
X125618500Y-96852000D02*
X124274000Y-96852000D01*
%TO.N,/Accumonitor/Vbatt*%
X106822800Y-114577200D02*
X94197200Y-114577200D01*
X83010000Y-75390000D02*
X82102000Y-76298000D01*
X90738000Y-112162000D02*
X90510000Y-112390000D01*
X80520000Y-74750000D02*
X80510000Y-74740000D01*
X114220000Y-106107000D02*
X111293000Y-106107000D01*
X80510000Y-74740000D02*
X80510000Y-73640000D01*
X90738000Y-92530000D02*
X90738000Y-112162000D01*
X111293000Y-106107000D02*
X110510000Y-106890000D01*
X81260000Y-68390000D02*
X81260000Y-72890000D01*
X110510000Y-110890000D02*
X106822800Y-114577200D01*
X110510000Y-106890000D02*
X110510000Y-110890000D01*
X82102000Y-83894000D02*
X90738000Y-92530000D01*
X94197200Y-114577200D02*
X94010000Y-114390000D01*
X83010000Y-75390000D02*
X82370000Y-74750000D01*
X82102000Y-76298000D02*
X82102000Y-83894000D01*
X82370000Y-74750000D02*
X80520000Y-74750000D01*
X80510000Y-73640000D02*
X81260000Y-72890000D01*
%TO.N,Net-(U103-GPIO25)*%
X115667000Y-102297000D02*
X116260000Y-102890000D01*
X114220000Y-102297000D02*
X115667000Y-102297000D01*
%TO.N,Net-(U701-GPB0)*%
X70910000Y-87998000D02*
X71966000Y-86942000D01*
X70910000Y-90540000D02*
X70910000Y-87998000D01*
%TO.N,Net-(U701-GPB1)*%
X76272000Y-86942000D02*
X76272000Y-87692000D01*
X76272000Y-87692000D02*
X72774000Y-91190000D01*
X72774000Y-91190000D02*
X70910000Y-91190000D01*
%TO.N,Net-(U701-GPB2)*%
X73720000Y-101916000D02*
X73708000Y-101928000D01*
X73720000Y-92784000D02*
X73720000Y-101916000D01*
X70910000Y-91840000D02*
X72776000Y-91840000D01*
X72776000Y-91840000D02*
X73720000Y-92784000D01*
%TO.N,Net-(U701-GPB3)*%
X69148000Y-100658000D02*
X68652000Y-101154000D01*
X72410000Y-92490000D02*
X72958000Y-93038000D01*
X70910000Y-92490000D02*
X72410000Y-92490000D01*
X72958000Y-93038000D02*
X72958000Y-100404000D01*
X72704000Y-100658000D02*
X69148000Y-100658000D01*
X72958000Y-100404000D02*
X72704000Y-100658000D01*
X68652000Y-101154000D02*
X68652000Y-101928000D01*
D97*
%TO.N,Net-(J203-Pin_2)*%
X50510000Y-98990000D02*
X50510000Y-99390000D01*
X50510000Y-99390000D02*
X62510000Y-111390000D01*
D88*
%TO.N,Net-(U701-GPB5)*%
X69646000Y-93790000D02*
X68538400Y-92682400D01*
X68538400Y-92682400D02*
X68538400Y-91006000D01*
X70910000Y-93790000D02*
X69646000Y-93790000D01*
%TO.N,/CPU/SCL*%
X95957000Y-111187000D02*
X95943600Y-111173600D01*
X65846000Y-110818000D02*
X65846000Y-100658000D01*
X95943600Y-111173600D02*
X94536000Y-111173600D01*
X128329500Y-78523000D02*
X127834000Y-78523000D01*
X127568000Y-78257000D02*
X127570632Y-78254368D01*
X93532000Y-113866000D02*
X68894000Y-113866000D01*
X127834000Y-78523000D02*
X127568000Y-78257000D01*
X96720000Y-111187000D02*
X95957000Y-111187000D01*
X68814000Y-97690000D02*
X70910000Y-97690000D01*
X68894000Y-113866000D02*
X65846000Y-110818000D01*
X127570632Y-78254368D02*
X127598549Y-78254368D01*
X65846000Y-100658000D02*
X68814000Y-97690000D01*
X141234500Y-55083200D02*
X141177010Y-55083200D01*
X94536000Y-112862000D02*
X93532000Y-113866000D01*
X141177010Y-55083200D02*
X140473000Y-54379190D01*
X94536000Y-111173600D02*
X94536000Y-112862000D01*
X94536000Y-111173600D02*
X94536000Y-109725800D01*
%TO.N,/CPU/SDA*%
X69059686Y-113466000D02*
X66246000Y-110652314D01*
X66246000Y-110652314D02*
X66246000Y-100823686D01*
X92998600Y-108379600D02*
X92160400Y-109217800D01*
X94536000Y-106004000D02*
X95309996Y-105230004D01*
X66246000Y-100823686D02*
X68729686Y-98340000D01*
X96720000Y-107377000D02*
X95679000Y-107377000D01*
X92160400Y-109217800D02*
X92160400Y-112348400D01*
X91042800Y-113466000D02*
X69059686Y-113466000D01*
X92160400Y-112348400D02*
X91042800Y-113466000D01*
X68729686Y-98340000D02*
X70910000Y-98340000D01*
X94536000Y-107389000D02*
X93545400Y-108379600D01*
X95679000Y-107377000D02*
X95667000Y-107389000D01*
X94536000Y-107389000D02*
X94536000Y-106004000D01*
X93545400Y-108379600D02*
X92998600Y-108379600D01*
X95667000Y-107389000D02*
X94536000Y-107389000D01*
%TD*%
%TA.AperFunction,Conductor*%
%TO.N,GND*%
G36*
X130453039Y-36409685D02*
G01*
X130498794Y-36462489D01*
X130510000Y-36514000D01*
X130510000Y-49266000D01*
X130490315Y-49333039D01*
X130437511Y-49378794D01*
X130386000Y-49390000D01*
X121557500Y-49390000D01*
X121490461Y-49370315D01*
X121444706Y-49317511D01*
X121433500Y-49266000D01*
X121433499Y-48470998D01*
X121433498Y-48470980D01*
X121422999Y-48368203D01*
X121422998Y-48368200D01*
X121414102Y-48341354D01*
X121367814Y-48201666D01*
X121275712Y-48052344D01*
X121151656Y-47928288D01*
X121048159Y-47864451D01*
X121002336Y-47836187D01*
X121002331Y-47836185D01*
X120984055Y-47830129D01*
X120835797Y-47781001D01*
X120835795Y-47781000D01*
X120733010Y-47770500D01*
X118782998Y-47770500D01*
X118782981Y-47770501D01*
X118680203Y-47781000D01*
X118680200Y-47781001D01*
X118513668Y-47836185D01*
X118513663Y-47836187D01*
X118364342Y-47928289D01*
X118308451Y-47984181D01*
X118247128Y-48017666D01*
X118220770Y-48020500D01*
X118063007Y-48020500D01*
X118006713Y-48006985D01*
X118001771Y-48004467D01*
X117986488Y-47996680D01*
X117972942Y-47993050D01*
X117954610Y-47986558D01*
X117941803Y-47980856D01*
X117941801Y-47980855D01*
X117941798Y-47980854D01*
X117928076Y-47977937D01*
X117909430Y-47972413D01*
X117896358Y-47967395D01*
X117896343Y-47967391D01*
X117852707Y-47960480D01*
X117846355Y-47959130D01*
X117803646Y-47947686D01*
X117789638Y-47946952D01*
X117770357Y-47944413D01*
X117756650Y-47941500D01*
X117756646Y-47941500D01*
X117742627Y-47941500D01*
X117723228Y-47939973D01*
X117721344Y-47939674D01*
X117709387Y-47937780D01*
X117666429Y-47940031D01*
X117665244Y-47940094D01*
X117658756Y-47940094D01*
X117653291Y-47939807D01*
X117614611Y-47937780D01*
X117602193Y-47939747D01*
X117600771Y-47939973D01*
X117581373Y-47941500D01*
X117567351Y-47941500D01*
X117553639Y-47944414D01*
X117534362Y-47946952D01*
X117520352Y-47947686D01*
X117520351Y-47947687D01*
X117477654Y-47959127D01*
X117471305Y-47960477D01*
X117427652Y-47967392D01*
X117414553Y-47972419D01*
X117395920Y-47977938D01*
X117382197Y-47980856D01*
X117382195Y-47980856D01*
X117369386Y-47986559D01*
X117351060Y-47993049D01*
X117337512Y-47996680D01*
X117331935Y-47998821D01*
X117262294Y-48004467D01*
X117200655Y-47971567D01*
X117166589Y-47910565D01*
X117163499Y-47883056D01*
X117163499Y-47740998D01*
X117163498Y-47740981D01*
X117152999Y-47638203D01*
X117152998Y-47638200D01*
X117123879Y-47550326D01*
X117097814Y-47471666D01*
X117005712Y-47322344D01*
X116881656Y-47198288D01*
X116732334Y-47106186D01*
X116565797Y-47051001D01*
X116565795Y-47051000D01*
X116463010Y-47040500D01*
X115662998Y-47040500D01*
X115662980Y-47040501D01*
X115560203Y-47051000D01*
X115560200Y-47051001D01*
X115393668Y-47106185D01*
X115393663Y-47106187D01*
X115244342Y-47198289D01*
X115120289Y-47322342D01*
X115028187Y-47471663D01*
X115028185Y-47471668D01*
X115007138Y-47535184D01*
X114973001Y-47638203D01*
X114973001Y-47638204D01*
X114973000Y-47638204D01*
X114962500Y-47740983D01*
X114962500Y-47855547D01*
X114942815Y-47922586D01*
X114890011Y-47968341D01*
X114820853Y-47978285D01*
X114757297Y-47949260D01*
X114750819Y-47943228D01*
X113229803Y-46422212D01*
X113219980Y-46409950D01*
X113219759Y-46410134D01*
X113214786Y-46404123D01*
X113214786Y-46404122D01*
X113164364Y-46356773D01*
X113153919Y-46346328D01*
X113143475Y-46335883D01*
X113137986Y-46331625D01*
X113133561Y-46327847D01*
X113099582Y-46295938D01*
X113099580Y-46295936D01*
X113099577Y-46295935D01*
X113082029Y-46286288D01*
X113065763Y-46275604D01*
X113049933Y-46263325D01*
X113007168Y-46244818D01*
X113001922Y-46242248D01*
X112961093Y-46219803D01*
X112961092Y-46219802D01*
X112941693Y-46214822D01*
X112923281Y-46208518D01*
X112904898Y-46200562D01*
X112904892Y-46200560D01*
X112858874Y-46193272D01*
X112853152Y-46192087D01*
X112808021Y-46180500D01*
X112808019Y-46180500D01*
X112787984Y-46180500D01*
X112768586Y-46178973D01*
X112761162Y-46177797D01*
X112748805Y-46175840D01*
X112748804Y-46175840D01*
X112702416Y-46180225D01*
X112696578Y-46180500D01*
X110539452Y-46180500D01*
X110472413Y-46160815D01*
X110451771Y-46144181D01*
X109465819Y-45158228D01*
X109432334Y-45096905D01*
X109429500Y-45070547D01*
X109429500Y-44799386D01*
X109423086Y-44728807D01*
X109423086Y-44728804D01*
X109372478Y-44566394D01*
X109284472Y-44420815D01*
X109284470Y-44420813D01*
X109284469Y-44420811D01*
X109164188Y-44300530D01*
X109018606Y-44212522D01*
X109018605Y-44212522D01*
X108856196Y-44161914D01*
X108856194Y-44161913D01*
X108856192Y-44161913D01*
X108806778Y-44157423D01*
X108785616Y-44155500D01*
X108172384Y-44155500D01*
X108153145Y-44157248D01*
X108101807Y-44161913D01*
X107939393Y-44212522D01*
X107793811Y-44300530D01*
X107673530Y-44420811D01*
X107585522Y-44566393D01*
X107534913Y-44728807D01*
X107528500Y-44799386D01*
X107528500Y-45312613D01*
X107534913Y-45383192D01*
X107534913Y-45383194D01*
X107534914Y-45383196D01*
X107585522Y-45545606D01*
X107658039Y-45665564D01*
X107673530Y-45691188D01*
X107700661Y-45718319D01*
X107734146Y-45779642D01*
X107729162Y-45849334D01*
X107700661Y-45893681D01*
X107700161Y-45894181D01*
X107638838Y-45927666D01*
X107612480Y-45930500D01*
X107609534Y-45930500D01*
X107542495Y-45910815D01*
X107521853Y-45894181D01*
X107434391Y-45806719D01*
X107434387Y-45806716D01*
X107291295Y-45718455D01*
X107291289Y-45718452D01*
X107291287Y-45718451D01*
X107131685Y-45665564D01*
X107131683Y-45665563D01*
X107033181Y-45655500D01*
X107033174Y-45655500D01*
X106424826Y-45655500D01*
X106424818Y-45655500D01*
X106326316Y-45665563D01*
X106326315Y-45665564D01*
X106248996Y-45691185D01*
X106166715Y-45718450D01*
X106166704Y-45718455D01*
X106023612Y-45806716D01*
X106023608Y-45806719D01*
X105904719Y-45925608D01*
X105904716Y-45925612D01*
X105834538Y-46039388D01*
X105782590Y-46086113D01*
X105713627Y-46097334D01*
X105649545Y-46069491D01*
X105623462Y-46039388D01*
X105553283Y-45925612D01*
X105553280Y-45925608D01*
X105546319Y-45918647D01*
X105512834Y-45857324D01*
X105510000Y-45830966D01*
X105510000Y-36514000D01*
X105529685Y-36446961D01*
X105582489Y-36401206D01*
X105634000Y-36390000D01*
X130386000Y-36390000D01*
X130453039Y-36409685D01*
G37*
%TD.AperFunction*%
%TD*%
%TA.AperFunction,Conductor*%
%TO.N,GND*%
G36*
X84453039Y-36409685D02*
G01*
X84498794Y-36462489D01*
X84510000Y-36514000D01*
X84510000Y-40888587D01*
X84490315Y-40955626D01*
X84484053Y-40964492D01*
X84464076Y-40990299D01*
X84458884Y-40996193D01*
X84261529Y-41193550D01*
X84196949Y-41254938D01*
X84196946Y-41254942D01*
X84161899Y-41305294D01*
X84159062Y-41309056D01*
X84120302Y-41356592D01*
X84120299Y-41356597D01*
X84104392Y-41387047D01*
X84100324Y-41393761D01*
X84080702Y-41421954D01*
X84056509Y-41478330D01*
X84054488Y-41482584D01*
X84026091Y-41536951D01*
X84026090Y-41536952D01*
X84016640Y-41569975D01*
X84014007Y-41577371D01*
X84000459Y-41608943D01*
X83988113Y-41669019D01*
X83986990Y-41673595D01*
X83970113Y-41732577D01*
X83970113Y-41732579D01*
X83967503Y-41766841D01*
X83966414Y-41774608D01*
X83960980Y-41801052D01*
X83959500Y-41808258D01*
X83959500Y-41869597D01*
X83959321Y-41874306D01*
X83954662Y-41935474D01*
X83956707Y-41951527D01*
X83959003Y-41969560D01*
X83959500Y-41977388D01*
X83959500Y-42806556D01*
X83941616Y-42870707D01*
X83859199Y-43007039D01*
X83856114Y-43011660D01*
X83827354Y-43050827D01*
X83827346Y-43050840D01*
X83742397Y-43235725D01*
X83742393Y-43235737D01*
X83696396Y-43433945D01*
X83691242Y-43637358D01*
X83727140Y-43837648D01*
X83727142Y-43837654D01*
X83802622Y-44026615D01*
X83802626Y-44026622D01*
X83843197Y-44088181D01*
X83846535Y-44094251D01*
X83846642Y-44094187D01*
X83850521Y-44100604D01*
X83850522Y-44100606D01*
X83938528Y-44246185D01*
X83938530Y-44246187D01*
X83941617Y-44251293D01*
X83959500Y-44315443D01*
X83959500Y-49572217D01*
X83939815Y-49639256D01*
X83923180Y-49659898D01*
X83405837Y-50177243D01*
X83229399Y-50353681D01*
X83168076Y-50387166D01*
X83141718Y-50390000D01*
X75667482Y-50390000D01*
X75600443Y-50370315D01*
X75579801Y-50353681D01*
X75555818Y-50329698D01*
X75522333Y-50268375D01*
X75519499Y-50242017D01*
X75519499Y-47345998D01*
X75519498Y-47345981D01*
X75508999Y-47243203D01*
X75508998Y-47243200D01*
X75453814Y-47076666D01*
X75361712Y-46927344D01*
X75237656Y-46803288D01*
X75088334Y-46711186D01*
X74921797Y-46656001D01*
X74921795Y-46656000D01*
X74819010Y-46645500D01*
X73118998Y-46645500D01*
X73118981Y-46645501D01*
X73016203Y-46656000D01*
X73016200Y-46656001D01*
X72849668Y-46711185D01*
X72849663Y-46711187D01*
X72700342Y-46803289D01*
X72576289Y-46927342D01*
X72484187Y-47076663D01*
X72484185Y-47076666D01*
X72484186Y-47076666D01*
X72429001Y-47243203D01*
X72429001Y-47243204D01*
X72429000Y-47243204D01*
X72418500Y-47345983D01*
X72418500Y-47345996D01*
X72418501Y-50266000D01*
X72398816Y-50333039D01*
X72346013Y-50378794D01*
X72294501Y-50390000D01*
X65634000Y-50390000D01*
X65566961Y-50370315D01*
X65521206Y-50317511D01*
X65510000Y-50266000D01*
X65510000Y-36514000D01*
X65529685Y-36446961D01*
X65582489Y-36401206D01*
X65634000Y-36390000D01*
X84386000Y-36390000D01*
X84453039Y-36409685D01*
G37*
%TD.AperFunction*%
%TD*%
%TA.AperFunction,Conductor*%
%TO.N,GND*%
G36*
X109731039Y-102709685D02*
G01*
X109776794Y-102762489D01*
X109788000Y-102814000D01*
X109788000Y-109551000D01*
X109768315Y-109618039D01*
X109715511Y-109663794D01*
X109664000Y-109675000D01*
X103054000Y-109675000D01*
X102986961Y-109655315D01*
X102941206Y-109602511D01*
X102930000Y-109551000D01*
X102930000Y-102814000D01*
X102949685Y-102746961D01*
X103002489Y-102701206D01*
X103054000Y-102690000D01*
X109664000Y-102690000D01*
X109731039Y-102709685D01*
G37*
%TD.AperFunction*%
%TD*%
M02*
