%TF.GenerationSoftware,KiCad,Pcbnew,7.0.6*%
%TF.CreationDate,2023-08-13T13:48:50+02:00*%
%TF.ProjectId,Nice-Buoy-V1_0,4e696365-2d42-4756-9f79-2d56315f302e,rev?*%
%TF.SameCoordinates,Original*%
%TF.FileFunction,Paste,Top*%
%TF.FilePolarity,Positive*%
%FSLAX46Y46*%
G04 Gerber Fmt 4.6, Leading zero omitted, Abs format (unit mm)*
G04 Created by KiCad (PCBNEW 7.0.6) date 2023-08-13 13:48:50*
%MOMM*%
%LPD*%
G01*
G04 APERTURE LIST*
G04 Aperture macros list*
%AMRoundRect*
0 Rectangle with rounded corners*
0 $1 Rounding radius*
0 $2 $3 $4 $5 $6 $7 $8 $9 X,Y pos of 4 corners*
0 Add a 4 corners polygon primitive as box body*
4,1,4,$2,$3,$4,$5,$6,$7,$8,$9,$2,$3,0*
0 Add four circle primitives for the rounded corners*
1,1,$1+$1,$2,$3*
1,1,$1+$1,$4,$5*
1,1,$1+$1,$6,$7*
1,1,$1+$1,$8,$9*
0 Add four rect primitives between the rounded corners*
20,1,$1+$1,$2,$3,$4,$5,0*
20,1,$1+$1,$4,$5,$6,$7,0*
20,1,$1+$1,$6,$7,$8,$9,0*
20,1,$1+$1,$8,$9,$2,$3,0*%
G04 Aperture macros list end*
%ADD10RoundRect,0.200000X-0.200000X-0.250000X0.200000X-0.250000X0.200000X0.250000X-0.200000X0.250000X0*%
%ADD11RoundRect,0.200000X-0.250000X0.200000X-0.250000X-0.200000X0.250000X-0.200000X0.250000X0.200000X0*%
%ADD12RoundRect,0.200000X0.200000X0.250000X-0.200000X0.250000X-0.200000X-0.250000X0.200000X-0.250000X0*%
%ADD13RoundRect,0.225000X-0.375000X0.225000X-0.375000X-0.225000X0.375000X-0.225000X0.375000X0.225000X0*%
%ADD14RoundRect,0.250000X1.800000X0.800000X-1.800000X0.800000X-1.800000X-0.800000X1.800000X-0.800000X0*%
%ADD15RoundRect,0.200000X0.250000X-0.200000X0.250000X0.200000X-0.250000X0.200000X-0.250000X-0.200000X0*%
%ADD16RoundRect,0.250000X-0.325000X-1.100000X0.325000X-1.100000X0.325000X1.100000X-0.325000X1.100000X0*%
%ADD17R,0.900000X1.500000*%
%ADD18RoundRect,0.250000X0.800000X-1.800000X0.800000X1.800000X-0.800000X1.800000X-0.800000X-1.800000X0*%
%ADD19R,2.000000X1.500000*%
%ADD20RoundRect,0.210000X-0.840000X-1.340000X0.840000X-1.340000X0.840000X1.340000X-0.840000X1.340000X0*%
%ADD21RoundRect,0.210000X-0.840000X-1.390000X0.840000X-1.390000X0.840000X1.390000X-0.840000X1.390000X0*%
%ADD22RoundRect,0.150000X0.587500X0.150000X-0.587500X0.150000X-0.587500X-0.150000X0.587500X-0.150000X0*%
%ADD23RoundRect,0.150000X-0.150000X0.512500X-0.150000X-0.512500X0.150000X-0.512500X0.150000X0.512500X0*%
%ADD24RoundRect,0.218750X-0.256250X0.218750X-0.256250X-0.218750X0.256250X-0.218750X0.256250X0.218750X0*%
%ADD25RoundRect,0.250000X-1.100000X0.325000X-1.100000X-0.325000X1.100000X-0.325000X1.100000X0.325000X0*%
%ADD26RoundRect,0.250000X0.350000X-0.850000X0.350000X0.850000X-0.350000X0.850000X-0.350000X-0.850000X0*%
%ADD27RoundRect,0.250000X1.125000X-1.275000X1.125000X1.275000X-1.125000X1.275000X-1.125000X-1.275000X0*%
%ADD28R,1.500000X0.900000*%
%ADD29RoundRect,0.225000X0.375000X-0.225000X0.375000X0.225000X-0.375000X0.225000X-0.375000X-0.225000X0*%
%ADD30RoundRect,0.250000X0.325000X1.100000X-0.325000X1.100000X-0.325000X-1.100000X0.325000X-1.100000X0*%
%ADD31RoundRect,0.250000X-0.350000X0.850000X-0.350000X-0.850000X0.350000X-0.850000X0.350000X0.850000X0*%
%ADD32RoundRect,0.250000X-1.125000X1.275000X-1.125000X-1.275000X1.125000X-1.275000X1.125000X1.275000X0*%
%ADD33RoundRect,0.250000X-0.400000X-0.550000X0.400000X-0.550000X0.400000X0.550000X-0.400000X0.550000X0*%
%ADD34RoundRect,0.250000X0.925000X-0.400000X0.925000X0.400000X-0.925000X0.400000X-0.925000X-0.400000X0*%
%ADD35RoundRect,0.250000X0.275000X-0.275000X0.275000X0.275000X-0.275000X0.275000X-0.275000X-0.275000X0*%
%ADD36RoundRect,0.062500X0.062500X-0.350000X0.062500X0.350000X-0.062500X0.350000X-0.062500X-0.350000X0*%
%ADD37RoundRect,0.062500X0.350000X-0.062500X0.350000X0.062500X-0.350000X0.062500X-0.350000X-0.062500X0*%
%ADD38RoundRect,0.175000X0.325000X0.175000X-0.325000X0.175000X-0.325000X-0.175000X0.325000X-0.175000X0*%
%ADD39RoundRect,0.150000X-0.150000X0.587500X-0.150000X-0.587500X0.150000X-0.587500X0.150000X0.587500X0*%
%ADD40RoundRect,0.625000X0.625000X1.025000X-0.625000X1.025000X-0.625000X-1.025000X0.625000X-1.025000X0*%
%ADD41R,1.750000X0.450000*%
%ADD42R,0.350000X0.375000*%
%ADD43R,0.375000X0.350000*%
%ADD44R,1.050000X1.000000*%
%ADD45R,2.200000X1.050000*%
%ADD46R,0.450000X1.500000*%
%ADD47RoundRect,0.150000X0.825000X0.150000X-0.825000X0.150000X-0.825000X-0.150000X0.825000X-0.150000X0*%
%ADD48RoundRect,0.250000X-0.312500X-1.450000X0.312500X-1.450000X0.312500X1.450000X-0.312500X1.450000X0*%
%ADD49RoundRect,0.250000X1.100000X-0.325000X1.100000X0.325000X-1.100000X0.325000X-1.100000X-0.325000X0*%
%ADD50RoundRect,0.225000X0.525000X0.225000X-0.525000X0.225000X-0.525000X-0.225000X0.525000X-0.225000X0*%
%ADD51RoundRect,0.225000X-0.225000X0.525000X-0.225000X-0.525000X0.225000X-0.525000X0.225000X0.525000X0*%
%ADD52RoundRect,0.099705X0.622795X-0.622795X0.622795X0.622795X-0.622795X0.622795X-0.622795X-0.622795X0*%
G04 APERTURE END LIST*
D10*
%TO.C,R114*%
X126806000Y-90498000D03*
X128306000Y-90498000D03*
%TD*%
%TO.C,R113*%
X126818000Y-81608000D03*
X128318000Y-81608000D03*
%TD*%
D11*
%TO.C,C114*%
X125028000Y-90510000D03*
X125028000Y-92010000D03*
%TD*%
%TO.C,C113*%
X125282000Y-81620000D03*
X125282000Y-83120000D03*
%TD*%
D10*
%TO.C,R120*%
X126818000Y-92022000D03*
X128318000Y-92022000D03*
%TD*%
D12*
%TO.C,R119*%
X128318000Y-85926000D03*
X126818000Y-85926000D03*
%TD*%
D11*
%TO.C,C803*%
X126552000Y-78523000D03*
X126552000Y-80023000D03*
%TD*%
%TO.C,C108*%
X116392000Y-112608000D03*
X116392000Y-114108000D03*
%TD*%
D13*
%TO.C,D101*%
X130970000Y-104850000D03*
X130970000Y-108150000D03*
%TD*%
D14*
%TO.C,C201*%
X79186000Y-57536000D03*
X70586000Y-57536000D03*
%TD*%
D10*
%TO.C,R111*%
X93036000Y-99642000D03*
X94536000Y-99642000D03*
%TD*%
D15*
%TO.C,R104*%
X123250000Y-113092000D03*
X123250000Y-111592000D03*
%TD*%
D10*
%TO.C,R110*%
X93036000Y-111173600D03*
X94536000Y-111173600D03*
%TD*%
%TO.C,C303*%
X141247000Y-57935200D03*
X142747000Y-57935200D03*
%TD*%
D16*
%TO.C,C802*%
X125077000Y-76020000D03*
X128027000Y-76020000D03*
%TD*%
D17*
%TO.C,D103*%
X86660000Y-77940000D03*
X83360000Y-77940000D03*
X83360000Y-82840000D03*
X86660000Y-82840000D03*
%TD*%
D18*
%TO.C,C202*%
X73969000Y-49196000D03*
X73969000Y-40596000D03*
%TD*%
D16*
%TO.C,C602*%
X119743000Y-83640000D03*
X122693000Y-83640000D03*
%TD*%
D10*
%TO.C,R109*%
X93036000Y-107389000D03*
X94536000Y-107389000D03*
%TD*%
%TO.C,R705*%
X80760000Y-91590000D03*
X82260000Y-91590000D03*
%TD*%
D19*
%TO.C,U601*%
X117154000Y-89482000D03*
X117154000Y-87482000D03*
X117154000Y-85482000D03*
X117154000Y-83482000D03*
X117154000Y-81482000D03*
X117154000Y-79482000D03*
X117154000Y-77482000D03*
X117154000Y-75482000D03*
X101154000Y-75482000D03*
X101154000Y-77482000D03*
X101154000Y-79482000D03*
X101154000Y-81482000D03*
X101154000Y-83482000D03*
X101154000Y-85482000D03*
X101154000Y-87482000D03*
X101154000Y-89482000D03*
%TD*%
D10*
%TO.C,R701*%
X80760000Y-90190000D03*
X82260000Y-90190000D03*
%TD*%
%TO.C,R112*%
X93036000Y-101166000D03*
X94536000Y-101166000D03*
%TD*%
D20*
%TO.C,L201*%
X90139000Y-41656000D03*
D21*
X101639000Y-41656000D03*
%TD*%
D15*
%TO.C,C801*%
X129854000Y-77024000D03*
X129854000Y-75524000D03*
%TD*%
D10*
%TO.C,R118*%
X128306000Y-82878000D03*
X126806000Y-82878000D03*
%TD*%
D22*
%TO.C,Q702*%
X74325000Y-85352000D03*
X74325000Y-83452000D03*
X72450000Y-84402000D03*
%TD*%
D11*
%TO.C,R121*%
X97088000Y-65110000D03*
X97088000Y-66610000D03*
%TD*%
D23*
%TO.C,U101*%
X128618000Y-105362500D03*
X127668000Y-105362500D03*
X126718000Y-105362500D03*
X126718000Y-107637500D03*
X127668000Y-107637500D03*
X128618000Y-107637500D03*
%TD*%
D22*
%TO.C,Q703*%
X78467500Y-85352000D03*
X78467500Y-83452000D03*
X76592500Y-84402000D03*
%TD*%
D10*
%TO.C,D702*%
X83560000Y-88790000D03*
X85060000Y-88790000D03*
%TD*%
D24*
%TO.C,D202*%
X104729000Y-45018500D03*
X104729000Y-46593500D03*
%TD*%
D10*
%TO.C,C603*%
X113864000Y-92784000D03*
X115364000Y-92784000D03*
%TD*%
D25*
%TO.C,C208*%
X101089000Y-48436000D03*
X101089000Y-51386000D03*
%TD*%
D12*
%TO.C,C702*%
X121714000Y-86180000D03*
X120214000Y-86180000D03*
%TD*%
D26*
%TO.C,U201*%
X111503000Y-48641000D03*
D27*
X112258000Y-44016000D03*
X115308000Y-44016000D03*
X112258000Y-40666000D03*
X115308000Y-40666000D03*
D26*
X116063000Y-48641000D03*
%TD*%
D15*
%TO.C,R401*%
X97088000Y-74242000D03*
X97088000Y-72742000D03*
%TD*%
D28*
%TO.C,D105*%
X99083000Y-64083000D03*
X99083000Y-67383000D03*
X103983000Y-67383000D03*
X103983000Y-64083000D03*
%TD*%
D11*
%TO.C,C112*%
X88510000Y-79640000D03*
X88510000Y-81140000D03*
%TD*%
D29*
%TO.C,D703*%
X80510000Y-78040000D03*
X80510000Y-74740000D03*
%TD*%
D11*
%TO.C,R711*%
X69510000Y-109640000D03*
X69510000Y-111140000D03*
%TD*%
D12*
%TO.C,R716*%
X81260000Y-71390000D03*
X79760000Y-71390000D03*
%TD*%
D30*
%TO.C,C302*%
X137172800Y-55852400D03*
X134222800Y-55852400D03*
%TD*%
D17*
%TO.C,D104*%
X86660000Y-67940000D03*
X83360000Y-67940000D03*
X83360000Y-72840000D03*
X86660000Y-72840000D03*
%TD*%
D12*
%TO.C,R706*%
X73708000Y-101928000D03*
X72208000Y-101928000D03*
%TD*%
D15*
%TO.C,R203*%
X108479000Y-46556000D03*
X108479000Y-45056000D03*
%TD*%
D16*
%TO.C,C601*%
X119743000Y-80140000D03*
X122693000Y-80140000D03*
%TD*%
D11*
%TO.C,C211*%
X103629000Y-49161000D03*
X103629000Y-50661000D03*
%TD*%
%TO.C,R103*%
X99755000Y-92288000D03*
X99755000Y-93788000D03*
%TD*%
D31*
%TO.C,Q201*%
X87540000Y-56356000D03*
D32*
X86785000Y-60981000D03*
X83735000Y-60981000D03*
X86785000Y-64331000D03*
X83735000Y-64331000D03*
D31*
X82980000Y-56356000D03*
%TD*%
D12*
%TO.C,R115*%
X128306000Y-87414000D03*
X126806000Y-87414000D03*
%TD*%
%TO.C,D102*%
X117760000Y-101390000D03*
X116260000Y-101390000D03*
%TD*%
D33*
%TO.C,D201*%
X83610000Y-53390000D03*
X87110000Y-53390000D03*
%TD*%
D10*
%TO.C,R703*%
X80760000Y-94390000D03*
X82260000Y-94390000D03*
%TD*%
%TO.C,R108*%
X116260000Y-102890000D03*
X117760000Y-102890000D03*
%TD*%
D12*
%TO.C,C205*%
X116063000Y-51181000D03*
X114563000Y-51181000D03*
%TD*%
D25*
%TO.C,C207*%
X91564000Y-48436000D03*
X91564000Y-51386000D03*
%TD*%
D12*
%TO.C,R714*%
X81260000Y-69890000D03*
X79760000Y-69890000D03*
%TD*%
D34*
%TO.C,C206*%
X119758000Y-48921000D03*
X119758000Y-45821000D03*
%TD*%
D12*
%TO.C,R713*%
X78280000Y-81862000D03*
X76780000Y-81862000D03*
%TD*%
D11*
%TO.C,C304*%
X139408000Y-55841200D03*
X139408000Y-57341200D03*
%TD*%
D35*
%TO.C,U102*%
X126906000Y-97752000D03*
X128206000Y-97752000D03*
X126906000Y-96452000D03*
X128206000Y-96452000D03*
D36*
X126306000Y-99039500D03*
X126806000Y-99039500D03*
X127306000Y-99039500D03*
X127806000Y-99039500D03*
X128306000Y-99039500D03*
X128806000Y-99039500D03*
D37*
X129493500Y-98352000D03*
X129493500Y-97852000D03*
X129493500Y-97352000D03*
X129493500Y-96852000D03*
X129493500Y-96352000D03*
X129493500Y-95852000D03*
D36*
X128806000Y-95164500D03*
X128306000Y-95164500D03*
X127806000Y-95164500D03*
X127306000Y-95164500D03*
X126806000Y-95164500D03*
X126306000Y-95164500D03*
D37*
X125618500Y-95852000D03*
X125618500Y-96352000D03*
X125618500Y-96852000D03*
X125618500Y-97352000D03*
X125618500Y-97852000D03*
X125618500Y-98352000D03*
%TD*%
D10*
%TO.C,R710*%
X68652000Y-101928000D03*
X70152000Y-101928000D03*
%TD*%
D24*
%TO.C,D203*%
X106729000Y-45018500D03*
X106729000Y-46593500D03*
%TD*%
D38*
%TO.C,Q102*%
X119778000Y-99576000D03*
X119778000Y-97676000D03*
X117578000Y-98626000D03*
%TD*%
D12*
%TO.C,R201*%
X90760000Y-53556000D03*
X89260000Y-53556000D03*
%TD*%
D39*
%TO.C,Q701*%
X73908000Y-103784500D03*
X72008000Y-103784500D03*
X72958000Y-105659500D03*
%TD*%
D15*
%TO.C,C102*%
X128938000Y-101916000D03*
X128938000Y-100416000D03*
%TD*%
D11*
%TO.C,R402*%
X97088000Y-76540000D03*
X97088000Y-78040000D03*
%TD*%
D10*
%TO.C,R116*%
X126806000Y-88938000D03*
X128306000Y-88938000D03*
%TD*%
%TO.C,R707*%
X71966000Y-86942000D03*
X73466000Y-86942000D03*
%TD*%
D40*
%TO.C,D204*%
X87979000Y-48196000D03*
X81179000Y-48196000D03*
%TD*%
D10*
%TO.C,R702*%
X80760000Y-88790000D03*
X82260000Y-88790000D03*
%TD*%
D41*
%TO.C,U701*%
X70910000Y-90540000D03*
X70910000Y-91190000D03*
X70910000Y-91840000D03*
X70910000Y-92490000D03*
X70910000Y-93140000D03*
X70910000Y-93790000D03*
X70910000Y-94440000D03*
X70910000Y-95090000D03*
X70910000Y-95740000D03*
X70910000Y-96390000D03*
X70910000Y-97040000D03*
X70910000Y-97690000D03*
X70910000Y-98340000D03*
X70910000Y-98990000D03*
X78110000Y-98990000D03*
X78110000Y-98340000D03*
X78110000Y-97690000D03*
X78110000Y-97040000D03*
X78110000Y-96390000D03*
X78110000Y-95740000D03*
X78110000Y-95090000D03*
X78110000Y-94440000D03*
X78110000Y-93790000D03*
X78110000Y-93140000D03*
X78110000Y-92490000D03*
X78110000Y-91840000D03*
X78110000Y-91190000D03*
X78110000Y-90540000D03*
%TD*%
D25*
%TO.C,C209*%
X97914000Y-48436000D03*
X97914000Y-51386000D03*
%TD*%
D12*
%TO.C,C502*%
X109510000Y-66233500D03*
X108010000Y-66233500D03*
%TD*%
D42*
%TO.C,U801*%
X128842000Y-78510500D03*
X129342000Y-78510500D03*
D43*
X129854500Y-78523000D03*
X129854500Y-79023000D03*
X129854500Y-79523000D03*
X129854500Y-80023000D03*
D42*
X129342000Y-80035500D03*
X128842000Y-80035500D03*
D43*
X128329500Y-80023000D03*
X128329500Y-79523000D03*
X128329500Y-79023000D03*
X128329500Y-78523000D03*
%TD*%
D12*
%TO.C,R117*%
X128306000Y-84402000D03*
X126806000Y-84402000D03*
%TD*%
D11*
%TO.C,C701*%
X68510000Y-94840000D03*
X68510000Y-96340000D03*
%TD*%
D10*
%TO.C,C301*%
X141489000Y-53312400D03*
X142989000Y-53312400D03*
%TD*%
D11*
%TO.C,R101*%
X116900000Y-95844000D03*
X116900000Y-97344000D03*
%TD*%
D38*
%TO.C,Q101*%
X119778000Y-95512000D03*
X119778000Y-93612000D03*
X117578000Y-94562000D03*
%TD*%
D15*
%TO.C,R708*%
X79308000Y-104456000D03*
X79308000Y-102956000D03*
%TD*%
D10*
%TO.C,D701*%
X83560000Y-90190000D03*
X85060000Y-90190000D03*
%TD*%
D12*
%TO.C,C105*%
X128306000Y-93546000D03*
X126806000Y-93546000D03*
%TD*%
D11*
%TO.C,C901*%
X106010000Y-64640000D03*
X106010000Y-66140000D03*
%TD*%
D12*
%TO.C,C703*%
X81260000Y-72890000D03*
X79760000Y-72890000D03*
%TD*%
%TO.C,R712*%
X73708000Y-81862000D03*
X72208000Y-81862000D03*
%TD*%
D11*
%TO.C,C115*%
X88510000Y-69640000D03*
X88510000Y-71140000D03*
%TD*%
D10*
%TO.C,R704*%
X80760000Y-92990000D03*
X82260000Y-92990000D03*
%TD*%
D12*
%TO.C,C101*%
X132736000Y-98118000D03*
X131236000Y-98118000D03*
%TD*%
D44*
%TO.C,J601*%
X119660000Y-89482000D03*
D45*
X121185000Y-88007000D03*
X121185000Y-90957000D03*
%TD*%
D10*
%TO.C,R709*%
X76272000Y-86942000D03*
X77772000Y-86942000D03*
%TD*%
%TO.C,C203*%
X111388000Y-51181000D03*
X112888000Y-51181000D03*
%TD*%
D12*
%TO.C,C501*%
X109510000Y-64582500D03*
X108010000Y-64582500D03*
%TD*%
D46*
%TO.C,J101*%
X127910000Y-111140000D03*
X128560000Y-111140000D03*
X129210000Y-111140000D03*
X129860000Y-111140000D03*
X130510000Y-111140000D03*
%TD*%
D15*
%TO.C,C104*%
X130462000Y-101916000D03*
X130462000Y-100416000D03*
%TD*%
D11*
%TO.C,C109*%
X121726000Y-111592000D03*
X121726000Y-113092000D03*
%TD*%
D15*
%TO.C,R202*%
X102979000Y-46556000D03*
X102979000Y-45056000D03*
%TD*%
D47*
%TO.C,U202*%
X86419000Y-41656000D03*
X86419000Y-40386000D03*
X86419000Y-39116000D03*
X86419000Y-37846000D03*
X81469000Y-37846000D03*
X81469000Y-39116000D03*
X81469000Y-40386000D03*
X81469000Y-41656000D03*
%TD*%
D15*
%TO.C,R106*%
X122742000Y-98360000D03*
X122742000Y-96860000D03*
%TD*%
D39*
%TO.C,Q704*%
X70352000Y-103784500D03*
X68452000Y-103784500D03*
X69402000Y-105659500D03*
%TD*%
D25*
%TO.C,C107*%
X118932000Y-111121000D03*
X118932000Y-114071000D03*
%TD*%
%TO.C,C210*%
X94739000Y-48436000D03*
X94739000Y-51386000D03*
%TD*%
D15*
%TO.C,R102*%
X121218000Y-97344000D03*
X121218000Y-95844000D03*
%TD*%
D48*
%TO.C,F203*%
X76122500Y-65390000D03*
X80397500Y-65390000D03*
%TD*%
D49*
%TO.C,C106*%
X118932000Y-109196000D03*
X118932000Y-106246000D03*
%TD*%
D15*
%TO.C,R105*%
X131986000Y-101916000D03*
X131986000Y-100416000D03*
%TD*%
D43*
%TO.C,U301*%
X141234500Y-55083200D03*
X141234500Y-55583200D03*
X141234500Y-56083200D03*
X141234500Y-56583200D03*
D42*
X141747000Y-56595700D03*
X142247000Y-56595700D03*
D43*
X142759500Y-56583200D03*
X142759500Y-56083200D03*
X142759500Y-55583200D03*
X142759500Y-55083200D03*
D42*
X142247000Y-55070700D03*
X141747000Y-55070700D03*
%TD*%
D10*
%TO.C,R715*%
X79760000Y-68390000D03*
X81260000Y-68390000D03*
%TD*%
%TO.C,C111*%
X141489000Y-51739400D03*
X142989000Y-51739400D03*
%TD*%
D11*
%TO.C,C110*%
X124520000Y-78523000D03*
X124520000Y-80023000D03*
%TD*%
D12*
%TO.C,C204*%
X84694000Y-43561000D03*
X83194000Y-43561000D03*
%TD*%
%TO.C,C103*%
X123226000Y-114374000D03*
X121726000Y-114374000D03*
%TD*%
D15*
%TO.C,R107*%
X124266000Y-98360000D03*
X124266000Y-96860000D03*
%TD*%
D50*
%TO.C,U103*%
X96710000Y-113723000D03*
X96710000Y-112453000D03*
X96710000Y-111183000D03*
X96710000Y-109913000D03*
X96710000Y-108643000D03*
X96710000Y-107373000D03*
X96710000Y-106103000D03*
X96710000Y-104833000D03*
X96710000Y-103563000D03*
X96710000Y-102293000D03*
X96710000Y-101023000D03*
X96710000Y-99753000D03*
X96710000Y-98483000D03*
X96710000Y-97213000D03*
D51*
X99745000Y-95963000D03*
X101015000Y-95963000D03*
X102285000Y-95963000D03*
X103555000Y-95963000D03*
X104825000Y-95963000D03*
X106095000Y-95963000D03*
X107365000Y-95963000D03*
X108635000Y-95963000D03*
X109905000Y-95963000D03*
X111175000Y-95963000D03*
D50*
X114210000Y-97213000D03*
X114210000Y-98483000D03*
X114210000Y-99753000D03*
X114210000Y-101023000D03*
X114210000Y-102293000D03*
X114210000Y-103563000D03*
X114210000Y-104833000D03*
X114210000Y-106103000D03*
X114210000Y-107373000D03*
X114210000Y-108643000D03*
X114210000Y-109913000D03*
X114210000Y-111183000D03*
X114210000Y-112453000D03*
X114210000Y-113723000D03*
D52*
X104660000Y-104718000D03*
X104660000Y-106378000D03*
X104660000Y-108038000D03*
X106320000Y-104718000D03*
X106320000Y-106378000D03*
X106320000Y-108038000D03*
X107980000Y-104718000D03*
X107980000Y-106378000D03*
X107980000Y-108038000D03*
%TD*%
M02*
