%TF.GenerationSoftware,KiCad,Pcbnew,7.0.6*%
%TF.CreationDate,2023-08-13T13:48:50+02:00*%
%TF.ProjectId,Nice-Buoy-V1_0,4e696365-2d42-4756-9f79-2d56315f302e,rev?*%
%TF.SameCoordinates,Original*%
%TF.FileFunction,Soldermask,Bot*%
%TF.FilePolarity,Negative*%
%FSLAX46Y46*%
G04 Gerber Fmt 4.6, Leading zero omitted, Abs format (unit mm)*
G04 Created by KiCad (PCBNEW 7.0.6) date 2023-08-13 13:48:50*
%MOMM*%
%LPD*%
G01*
G04 APERTURE LIST*
G04 Aperture macros list*
%AMRoundRect*
0 Rectangle with rounded corners*
0 $1 Rounding radius*
0 $2 $3 $4 $5 $6 $7 $8 $9 X,Y pos of 4 corners*
0 Add a 4 corners polygon primitive as box body*
4,1,4,$2,$3,$4,$5,$6,$7,$8,$9,$2,$3,0*
0 Add four circle primitives for the rounded corners*
1,1,$1+$1,$2,$3*
1,1,$1+$1,$4,$5*
1,1,$1+$1,$6,$7*
1,1,$1+$1,$8,$9*
0 Add four rect primitives between the rounded corners*
20,1,$1+$1,$2,$3,$4,$5,0*
20,1,$1+$1,$4,$5,$6,$7,0*
20,1,$1+$1,$6,$7,$8,$9,0*
20,1,$1+$1,$8,$9,$2,$3,0*%
G04 Aperture macros list end*
%ADD10O,1.950000X1.700000*%
%ADD11RoundRect,0.250000X-0.725000X0.600000X-0.725000X-0.600000X0.725000X-0.600000X0.725000X0.600000X0*%
%ADD12C,0.700000*%
%ADD13C,1.000000*%
%ADD14RoundRect,1.500000X1.500000X-1.500000X1.500000X1.500000X-1.500000X1.500000X-1.500000X-1.500000X0*%
%ADD15C,6.000000*%
%ADD16R,1.700000X1.700000*%
%ADD17O,1.700000X1.700000*%
%ADD18RoundRect,0.250000X0.725000X-0.600000X0.725000X0.600000X-0.725000X0.600000X-0.725000X-0.600000X0*%
%ADD19C,1.524000*%
%ADD20RoundRect,0.206250X0.618750X-0.618750X0.618750X0.618750X-0.618750X0.618750X-0.618750X-0.618750X0*%
%ADD21C,1.700000*%
%ADD22RoundRect,1.500000X-1.500000X-1.500000X1.500000X-1.500000X1.500000X1.500000X-1.500000X1.500000X0*%
%ADD23C,3.200000*%
%ADD24RoundRect,1.500000X-1.500000X1.500000X-1.500000X-1.500000X1.500000X-1.500000X1.500000X1.500000X0*%
%ADD25C,1.500000*%
%ADD26C,2.700000*%
%ADD27C,3.000000*%
%ADD28RoundRect,0.250000X0.600000X0.725000X-0.600000X0.725000X-0.600000X-0.725000X0.600000X-0.725000X0*%
%ADD29O,1.700000X1.950000*%
%ADD30RoundRect,0.206250X-0.618750X-0.618750X0.618750X-0.618750X0.618750X0.618750X-0.618750X0.618750X0*%
%ADD31R,2.400000X2.400000*%
%ADD32C,2.400000*%
%ADD33O,1.800000X1.100000*%
%ADD34O,2.200000X1.100000*%
%ADD35RoundRect,0.250000X-0.600000X-0.750000X0.600000X-0.750000X0.600000X0.750000X-0.600000X0.750000X0*%
%ADD36O,1.700000X2.000000*%
G04 APERTURE END LIST*
D10*
%TO.C,J105*%
X134680000Y-92958000D03*
X134680000Y-90458000D03*
D11*
X134680000Y-87958000D03*
%TD*%
D10*
%TO.C,J104*%
X134680000Y-81782000D03*
X134680000Y-79282000D03*
D11*
X134680000Y-76782000D03*
%TD*%
D12*
%TO.C,TP702*%
X68538400Y-88466000D03*
%TD*%
D13*
%TO.C,TP701*%
X83010000Y-75390000D03*
%TD*%
D14*
%TO.C,J202*%
X50510000Y-58990000D03*
D15*
X50510000Y-51790000D03*
%TD*%
D16*
%TO.C,J708*%
X72510000Y-111390000D03*
D17*
X72510000Y-108850000D03*
%TD*%
D18*
%TO.C,J402*%
X92245000Y-83814000D03*
D10*
X92245000Y-81314000D03*
X92245000Y-78814000D03*
%TD*%
D19*
%TO.C,TP1*%
X121450000Y-52080000D03*
X123990000Y-52080000D03*
X126530000Y-52080000D03*
X129070000Y-52080000D03*
X121450000Y-54620000D03*
X123990000Y-54620000D03*
X126530000Y-54620000D03*
X129070000Y-54620000D03*
X121450000Y-57160000D03*
X123990000Y-57160000D03*
X126530000Y-57160000D03*
X129070000Y-57160000D03*
X121450000Y-59700000D03*
X123990000Y-59700000D03*
X126530000Y-59700000D03*
X129070000Y-59700000D03*
%TD*%
D20*
%TO.C,J901*%
X93786000Y-97356000D03*
D21*
X93786000Y-94816000D03*
X93786000Y-92276000D03*
X93786000Y-89736000D03*
%TD*%
D18*
%TO.C,J709*%
X74760000Y-78012000D03*
D10*
X74760000Y-75512000D03*
X74760000Y-73012000D03*
%TD*%
D22*
%TO.C,J201*%
X50510000Y-75390000D03*
D15*
X57710000Y-75390000D03*
%TD*%
D23*
%TO.C,H1003*%
X49510000Y-110390000D03*
%TD*%
D24*
%TO.C,J203*%
X50510000Y-91790000D03*
D15*
X50510000Y-98990000D03*
%TD*%
D25*
%TO.C,TP202*%
X112582000Y-53795000D03*
%TD*%
D23*
%TO.C,H1001*%
X49510000Y-40390000D03*
%TD*%
D26*
%TO.C,F201*%
X62510000Y-50640000D03*
D27*
X62510000Y-39390000D03*
X62510000Y-61890000D03*
%TD*%
D16*
%TO.C,SW101*%
X122615000Y-100785000D03*
D17*
X122615000Y-103325000D03*
%TD*%
D16*
%TO.C,J702*%
X86445000Y-97390000D03*
D17*
X88985000Y-97390000D03*
%TD*%
D25*
%TO.C,TP201*%
X97723000Y-53414000D03*
%TD*%
%TO.C,TP203*%
X105724000Y-53795000D03*
%TD*%
D23*
%TO.C,H1002*%
X139510000Y-40390000D03*
%TD*%
D16*
%TO.C,J706*%
X80510000Y-111390000D03*
D17*
X80510000Y-108850000D03*
%TD*%
D28*
%TO.C,J103*%
X99588000Y-59527000D03*
D29*
X97088000Y-59527000D03*
X94588000Y-59527000D03*
%TD*%
D18*
%TO.C,J401*%
X92245000Y-71956000D03*
D10*
X92245000Y-69456000D03*
X92245000Y-66956000D03*
%TD*%
D16*
%TO.C,J705*%
X76510000Y-111390000D03*
D17*
X76510000Y-108850000D03*
%TD*%
D30*
%TO.C,J102*%
X134273600Y-68400000D03*
D21*
X136813600Y-68400000D03*
X139353600Y-68400000D03*
X141893600Y-68400000D03*
%TD*%
D31*
%TO.C,SW201*%
X65260000Y-75390000D03*
D32*
X68760000Y-75390000D03*
%TD*%
D16*
%TO.C,SW102*%
X122615000Y-105865000D03*
D17*
X122615000Y-108405000D03*
%TD*%
D26*
%TO.C,F202*%
X62510000Y-100140000D03*
D27*
X62510000Y-111390000D03*
X62510000Y-88890000D03*
%TD*%
D16*
%TO.C,J703*%
X86510000Y-93390000D03*
D17*
X89050000Y-93390000D03*
%TD*%
D16*
%TO.C,J707*%
X76514000Y-104976000D03*
D17*
X76514000Y-102436000D03*
%TD*%
D33*
%TO.C,J101*%
X126410000Y-110890000D03*
D34*
X129210000Y-113040000D03*
D33*
X132010000Y-110890000D03*
%TD*%
D19*
%TO.C,TP2*%
X121450000Y-62224000D03*
X123990000Y-62224000D03*
X126530000Y-62224000D03*
X129070000Y-62224000D03*
X121450000Y-64764000D03*
X123990000Y-64764000D03*
X126530000Y-64764000D03*
X129070000Y-64764000D03*
X121450000Y-67304000D03*
X123990000Y-67304000D03*
X126530000Y-67304000D03*
X129070000Y-67304000D03*
X121450000Y-69844000D03*
X123990000Y-69844000D03*
X126530000Y-69844000D03*
X129070000Y-69844000D03*
%TD*%
D35*
%TO.C,J701*%
X86010000Y-102390000D03*
D36*
X88510000Y-102390000D03*
%TD*%
D12*
%TO.C,TP703*%
X68538400Y-91006000D03*
%TD*%
D23*
%TO.C,H1004*%
X139510000Y-110390000D03*
%TD*%
D28*
%TO.C,J501*%
X114808000Y-59527000D03*
D29*
X112308000Y-59527000D03*
X109808000Y-59527000D03*
X107308000Y-59527000D03*
%TD*%
D35*
%TO.C,J704*%
X86010000Y-109390000D03*
D36*
X88510000Y-109390000D03*
%TD*%
M02*
