M48
; DRILL file {KiCad 7.0.6} date Sun Aug 13 13:48:50 2023
; FORMAT={-:-/ absolute / inch / decimal}
; #@! TF.CreationDate,2023-08-13T13:48:50+02:00
; #@! TF.GenerationSoftware,Kicad,Pcbnew,7.0.6
; #@! TF.FileFunction,Plated,1,4,PTH
FMAT,2
INCH
; #@! TA.AperFunction,Plated,PTH,ViaDrill
T1C0.0098
; #@! TA.AperFunction,Plated,PTH,ViaDrill
T2C0.0118
; #@! TA.AperFunction,Plated,PTH,ViaDrill
T3C0.0157
; #@! TA.AperFunction,Plated,PTH,ComponentDrill
T4C0.0157
; #@! TA.AperFunction,Plated,PTH,ComponentDrill
T5C0.0197
; #@! TA.AperFunction,Plated,PTH,ComponentDrill
T6C0.0236
; #@! TA.AperFunction,Plated,PTH,ComponentDrill
T7C0.0354
; #@! TA.AperFunction,Plated,PTH,ComponentDrill
T8C0.0374
; #@! TA.AperFunction,Plated,PTH,ComponentDrill
T9C0.0394
; #@! TA.AperFunction,Plated,PTH,ComponentDrill
T10C0.0472
; #@! TA.AperFunction,Plated,PTH,ComponentDrill
T11C0.0512
; #@! TA.AperFunction,Plated,PTH,ComponentDrill
T12C0.1772
%
G90
G05
T1
X3.1302Y-3.8229
X3.1302Y-3.8729
X3.7578Y-4.4774
X3.8584Y-4.4774
X4.4469Y-4.4774
T2
X2.6776Y-2.267
X2.7776Y-2.207
X2.7776Y-2.327
X2.8449Y-1.6
X2.8776Y-2.267
X2.9099Y-1.705
X2.9799Y-1.605
X3.1199Y-1.895
X3.1449Y-1.54
X3.1449Y-1.59
X3.1449Y-1.64
X3.2099Y-1.715
X3.2099Y-1.805
X3.2699Y-1.64
X3.2749Y-1.545
X3.2749Y-1.595
X3.2749Y-1.895
X3.3272Y-1.4917
X3.4551Y-1.4622
X3.6049Y-1.98
X3.7299Y-1.98
X3.8549Y-1.98
X3.9799Y-1.98
X4.1232Y-1.7345
X4.2019Y-1.7345
X4.3449Y-1.665
X4.3499Y-1.525
X4.3499Y-1.805
X4.4775Y-1.9904
X4.4796Y-1.825
X4.4799Y-1.515
X4.6099Y-1.805
X4.6149Y-1.525
X4.6149Y-1.667
X5.1563Y-3.8029
X5.1663Y-3.9129
T3
X2.5524Y-4.2629
X2.6185Y-1.472
X2.6185Y-1.9445
X2.6524Y-4.0929
X2.6524Y-4.2629
X2.6824Y-3.8329
X2.6962Y-3.6857
X2.776Y-1.472
X2.776Y-1.5902
X2.776Y-1.6689
X2.776Y-1.7476
X2.8154Y-1.9445
X2.8224Y-4.1429
X2.8547Y-1.472
X2.8547Y-1.7476
X2.9335Y-1.472
X2.9335Y-1.7476
X2.9524Y-3.2429
X3.0034Y-1.9049
X3.0122Y-1.472
X3.0122Y-1.7476
X3.0514Y-1.9449
X3.0516Y-1.8657
X3.0909Y-1.5508
X3.0909Y-1.6689
X3.0909Y-1.7476
X3.0909Y-1.8264
X3.0909Y-2.8106
X3.1224Y-4.1629
X3.1303Y-1.9445
X3.1324Y-3.2429
X3.1494Y-1.7959
X3.1697Y-1.7476
X3.1697Y-3.1256
X3.2091Y-1.472
X3.2704Y-1.6739
X3.2824Y-1.8369
X3.2878Y-1.472
X3.2878Y-1.787
X3.2878Y-1.9445
X3.3034Y-1.5689
X3.3272Y-2.85
X3.3272Y-3.2437
X3.3914Y-3.5241
X3.4846Y-2.6925
X3.4846Y-3.0862
X3.4846Y-3.2437
X3.5634Y-4.4248
X3.6624Y-4.1629
X3.6624Y-4.0329
X3.6624Y-4.3199
X3.7012Y-4.5035
X3.7209Y-4.0705
X3.7219Y-4.3199
X3.7524Y-4.1429
X3.8193Y-3.4602
X3.8574Y-3.1679
X3.8714Y-4.2759
X3.8974Y-3.1579
X3.9024Y-2.9729
X3.9238Y-4.3219
X3.924Y-3.5184
X3.9256Y-3.4442
X3.9352Y-3.5907
X3.9571Y-4.0705
X3.9624Y-2.5279
X3.9824Y-2.8629
X3.9824Y-3.6429
X4.0674Y-4.0579
X4.0674Y-4.1879
X4.0674Y-4.3029
X4.1074Y-3.3679
X4.1074Y-3.4179
X4.1574Y-2.6529
X4.1874Y-4.0579
X4.1874Y-4.3029
X4.1933Y-1.472
X4.1933Y-1.5508
X4.1933Y-1.6295
X4.1933Y-1.7083
X4.1974Y-4.4129
X4.272Y-1.472
X4.272Y-1.5508
X4.272Y-1.6295
X4.272Y-1.7083
X4.3024Y-4.2979
X4.3074Y-4.0579
X4.3074Y-4.1879
X4.3508Y-1.472
X4.3524Y-3.8429
X4.3624Y-3.7129
X4.3674Y-2.2179
X4.3705Y-2.7122
X4.3705Y-4.0705
X4.4295Y-1.472
X4.4295Y-2.7122
X4.4295Y-4.0705
X4.4571Y-3.0829
X4.4571Y-3.3229
X4.4824Y-3.5229
X4.5083Y-1.472
X4.5424Y-3.3629
X4.5424Y-3.5229
X4.5624Y-4.1129
X4.5648Y-3.9327
X4.5724Y-4.3829
X4.587Y-1.472
X4.6024Y-4.1029
X4.6324Y-1.9229
X4.6424Y-4.4329
X4.6657Y-1.472
X4.6824Y-3.4629
X4.6824Y-4.2429
X4.6831Y-4.1334
X4.7034Y-3.5799
X4.7051Y-1.5114
X4.7051Y-1.5902
X4.7051Y-1.6689
X4.7124Y-1.9829
X4.7124Y-3.0729
X4.7124Y-3.3229
X4.7324Y-3.9629
X4.7445Y-1.472
X4.7524Y-4.0029
X4.7624Y-4.4929
X4.7839Y-1.5114
X4.7839Y-1.5902
X4.7839Y-1.6689
X4.7839Y-1.7476
X4.7839Y-1.8264
X4.7924Y-3.6629
X4.8232Y-1.472
X4.8304Y-3.2229
X4.8324Y-3.0729
X4.8324Y-3.6229
X4.8424Y-3.4629
X4.8626Y-1.5114
X4.8626Y-1.5902
X4.8626Y-1.6689
X4.8626Y-1.7476
X4.8626Y-1.8264
X4.8626Y-1.9051
X4.902Y-1.472
X4.9413Y-1.5114
X4.9413Y-1.5902
X4.9413Y-1.6689
X4.9413Y-1.7476
X4.9413Y-1.8264
X4.9413Y-1.9051
X4.9424Y-3.081
X4.9424Y-3.161
X4.9524Y-3.3829
X4.9724Y-3.9629
X4.9807Y-1.472
X5.0124Y-2.8329
X5.0201Y-1.5114
X5.0201Y-1.5902
X5.0201Y-1.6689
X5.0201Y-1.7476
X5.0201Y-1.8264
X5.0201Y-1.9051
X5.0236Y-3.0809
X5.0248Y-3.1503
X5.0263Y-4.0929
X5.0263Y-4.2959
X5.0324Y-3.8229
X5.0594Y-1.472
X5.0924Y-3.6829
X5.0938Y-2.9229
X5.0988Y-1.5114
X5.0988Y-1.5902
X5.0988Y-1.6689
X5.0988Y-1.7476
X5.0988Y-1.8264
X5.0988Y-1.9051
X5.1024Y-3.1829
X5.1084Y-4.2579
X5.1363Y-4.0629
X5.1384Y-4.3179
X5.1524Y-3.1308
X5.1824Y-3.0329
X5.1994Y-4.4279
X5.2763Y-3.8629
X5.3404Y-2.1989
X5.4024Y-2.0429
X5.4024Y-2.0989
X5.4111Y-2.3196
X5.5304Y-2.1409
X5.6224Y-1.9529
X5.6224Y-2.4629
T4
X2.6984Y-3.4829
X2.6984Y-3.5829
T6
X3.2681Y-2.9681
T7
X3.8474Y-2.1029
X4.1624Y-2.1179
X4.4324Y-2.1179
X4.7815Y-2.0504
X4.7815Y-2.1504
X4.7815Y-2.2504
X4.7815Y-2.3504
X4.7815Y-2.4498
X4.7815Y-2.5498
X4.7815Y-2.6498
X4.7815Y-2.7498
X4.8815Y-2.0504
X4.8815Y-2.1504
X4.8815Y-2.2504
X4.8815Y-2.3504
X4.8815Y-2.4498
X4.8815Y-2.5498
X4.8815Y-2.6498
X4.8815Y-2.7498
X4.9815Y-2.0504
X4.9815Y-2.1504
X4.9815Y-2.2504
X4.9815Y-2.3504
X4.9815Y-2.4498
X4.9815Y-2.5498
X4.9815Y-2.6498
X4.9815Y-2.7498
X5.0815Y-2.0504
X5.0815Y-2.1504
X5.0815Y-2.2504
X5.0815Y-2.3504
X5.0815Y-2.4498
X5.0815Y-2.5498
X5.0815Y-2.6498
X5.0815Y-2.7498
T8
X2.9433Y-2.8745
X2.9433Y-2.9729
X2.9433Y-3.0713
X3.6317Y-2.6361
X3.6317Y-2.7345
X3.6317Y-2.8329
X3.6317Y-3.1029
X3.6317Y-3.2013
X3.6317Y-3.2998
X3.7239Y-2.3436
X3.8224Y-2.3436
X3.9208Y-2.3436
X4.2247Y-2.3436
X4.3231Y-2.3436
X4.4216Y-2.3436
X4.52Y-2.3436
X5.3024Y-3.0229
X5.3024Y-3.1213
X5.3024Y-3.2198
X5.3024Y-3.4629
X5.3024Y-3.5613
X5.3024Y-3.6598
T9
X2.8547Y-4.2854
X2.8547Y-4.3854
X3.0122Y-4.2854
X3.0122Y-4.3854
X3.0124Y-4.0329
X3.0124Y-4.1329
X3.1697Y-4.2854
X3.1697Y-4.3854
X3.3862Y-4.0311
X3.3862Y-4.3067
X3.4033Y-3.8343
X3.4059Y-3.6768
X3.4846Y-4.0311
X3.4846Y-4.3067
X3.5033Y-3.8343
X3.5059Y-3.6768
X3.6924Y-3.5329
X3.6924Y-3.6329
X3.6924Y-3.7329
X3.6924Y-3.8329
X4.8274Y-3.9679
X4.8274Y-4.0679
X4.8274Y-4.1679
X4.8274Y-4.2679
X5.2864Y-2.6929
X5.3864Y-2.6929
X5.4864Y-2.6929
X5.5864Y-2.6929
T10
X2.5693Y-2.9681
X2.7071Y-2.9681
T11
X2.461Y-1.5508
X2.461Y-2.4366
X2.461Y-3.4996
X2.461Y-4.3854
T12
X1.9886Y-2.039
X1.9886Y-2.3224
X1.9886Y-2.9681
X1.9886Y-3.6138
X1.9886Y-3.8972
X2.272Y-2.9681
T5
G00X4.963Y-4.3657
M15
G01X4.9906Y-4.3657
M16
G05
G00X5.0654Y-4.4504
M15
G01X5.1087Y-4.4504
M16
G05
G00X5.1835Y-4.3657
M15
G01X5.211Y-4.3657
M16
G05
T0
M30
