%TF.GenerationSoftware,KiCad,Pcbnew,9.0.0-rc1*%
%TF.CreationDate,2025-03-28T12:21:10+01:00*%
%TF.ProjectId,Robobuoy-Top-Round-v2_0,526f626f-6275-46f7-992d-546f702d526f,rev?*%
%TF.SameCoordinates,Original*%
%TF.FileFunction,Copper,L2,Inr*%
%TF.FilePolarity,Positive*%
%FSLAX46Y46*%
G04 Gerber Fmt 4.6, Leading zero omitted, Abs format (unit mm)*
G04 Created by KiCad (PCBNEW 9.0.0-rc1) date 2025-03-28 12:21:10*
%MOMM*%
%LPD*%
G01*
G04 APERTURE LIST*
G04 Aperture macros list*
%AMRoundRect*
0 Rectangle with rounded corners*
0 $1 Rounding radius*
0 $2 $3 $4 $5 $6 $7 $8 $9 X,Y pos of 4 corners*
0 Add a 4 corners polygon primitive as box body*
4,1,4,$2,$3,$4,$5,$6,$7,$8,$9,$2,$3,0*
0 Add four circle primitives for the rounded corners*
1,1,$1+$1,$2,$3*
1,1,$1+$1,$4,$5*
1,1,$1+$1,$6,$7*
1,1,$1+$1,$8,$9*
0 Add four rect primitives between the rounded corners*
20,1,$1+$1,$2,$3,$4,$5,0*
20,1,$1+$1,$4,$5,$6,$7,0*
20,1,$1+$1,$6,$7,$8,$9,0*
20,1,$1+$1,$8,$9,$2,$3,0*%
G04 Aperture macros list end*
%TA.AperFunction,ComponentPad*%
%ADD10RoundRect,0.250000X0.600000X-0.600000X0.600000X0.600000X-0.600000X0.600000X-0.600000X-0.600000X0*%
%TD*%
%TA.AperFunction,ComponentPad*%
%ADD11C,1.700000*%
%TD*%
%TA.AperFunction,ComponentPad*%
%ADD12C,3.000000*%
%TD*%
%TA.AperFunction,ComponentPad*%
%ADD13R,1.700000X1.700000*%
%TD*%
%TA.AperFunction,ComponentPad*%
%ADD14O,1.700000X1.700000*%
%TD*%
%TA.AperFunction,ComponentPad*%
%ADD15R,1.650000X1.650000*%
%TD*%
%TA.AperFunction,ComponentPad*%
%ADD16RoundRect,0.250000X-0.600000X-0.725000X0.600000X-0.725000X0.600000X0.725000X-0.600000X0.725000X0*%
%TD*%
%TA.AperFunction,ComponentPad*%
%ADD17O,1.700000X1.950000*%
%TD*%
%TA.AperFunction,ComponentPad*%
%ADD18RoundRect,0.250000X0.725000X-0.600000X0.725000X0.600000X-0.725000X0.600000X-0.725000X-0.600000X0*%
%TD*%
%TA.AperFunction,ComponentPad*%
%ADD19O,1.950000X1.700000*%
%TD*%
%TA.AperFunction,ComponentPad*%
%ADD20RoundRect,0.250000X0.600000X0.725000X-0.600000X0.725000X-0.600000X-0.725000X0.600000X-0.725000X0*%
%TD*%
%TA.AperFunction,ComponentPad*%
%ADD21RoundRect,0.206250X0.618750X-0.618750X0.618750X0.618750X-0.618750X0.618750X-0.618750X-0.618750X0*%
%TD*%
%TA.AperFunction,HeatsinkPad*%
%ADD22C,0.500000*%
%TD*%
%TA.AperFunction,ViaPad*%
%ADD23C,0.450000*%
%TD*%
%TA.AperFunction,ViaPad*%
%ADD24C,0.900000*%
%TD*%
%TA.AperFunction,ViaPad*%
%ADD25C,0.600000*%
%TD*%
G04 APERTURE END LIST*
D10*
%TO.N,EN*%
%TO.C,J101*%
X-13467000Y17535500D03*
D11*
%TO.N,+3.3V*%
X-13467000Y20075500D03*
%TO.N,TX*%
X-10927000Y17535500D03*
%TO.N,GND*%
X-10927000Y20075500D03*
%TO.N,RX*%
X-8387000Y17535500D03*
%TO.N,DR0*%
X-8387000Y20075500D03*
%TD*%
D12*
%TO.N,GND*%
%TO.C,TP203*%
X-11049000Y-18491200D03*
%TD*%
D13*
%TO.N,GND*%
%TO.C,SW101*%
X-8382000Y11938000D03*
D14*
%TO.N,DR0*%
X-5842000Y11938000D03*
%TD*%
D13*
%TO.N,GND*%
%TO.C,SW102*%
X-16007000Y11938000D03*
D14*
%TO.N,EN*%
X-13467000Y11938000D03*
%TD*%
D15*
%TO.N,+3.3V*%
%TO.C,BZ101*%
X9038000Y-20828000D03*
D11*
%TO.N,Net-(BZ101--)*%
X15538000Y-20828000D03*
%TD*%
D16*
%TO.N,Net-(J103-Pin_1)*%
%TO.C,J103*%
X-18502000Y-23622000D03*
D17*
%TO.N,Net-(J103-Pin_2)*%
X-16002000Y-23622000D03*
%TO.N,+3.3V*%
X-13502000Y-23622000D03*
%TO.N,GND*%
X-11002000Y-23622000D03*
%TO.N,/CPU/ON*%
X-8502000Y-23622000D03*
%TO.N,Net-(J103-Pin_6)*%
X-6002000Y-23622000D03*
%TD*%
D18*
%TO.N,Vbatt*%
%TO.C,J201*%
X34000000Y-2500000D03*
D19*
%TO.N,/CPU/COM*%
X34000000Y0D03*
%TO.N,GND*%
X34000000Y2500000D03*
%TD*%
D20*
%TO.N,/CPU/TX_GPS*%
%TO.C,J104*%
X9338000Y19795000D03*
D17*
%TO.N,/CPU/RX_GPS*%
X6838000Y19795000D03*
%TO.N,+3.3V*%
X4338000Y19795000D03*
%TO.N,GND*%
X1838000Y19795000D03*
%TD*%
D21*
%TO.N,Vbatt*%
%TO.C,SW201*%
X20924000Y2794000D03*
D11*
%TO.N,Net-(R205-Pad1)*%
X20924000Y5334000D03*
%TO.N,unconnected-(SW201-Pad3)*%
X20924000Y7874000D03*
%TD*%
D22*
%TO.N,GND*%
%TO.C,U201*%
X27300000Y-2912000D03*
X27300000Y-1562000D03*
X27300000Y-212000D03*
X25400000Y-2912000D03*
X25400000Y-1562000D03*
X25400000Y-212000D03*
%TD*%
D20*
%TO.N,Net-(D201-A)*%
%TO.C,J202*%
X21082000Y19812000D03*
D17*
%TO.N,Net-(D203-A)*%
X18582000Y19812000D03*
%TO.N,GND*%
X16082000Y19812000D03*
%TD*%
D23*
%TO.N,/CPU/COM*%
X-10033000Y-15367000D03*
X31750000Y-11049000D03*
%TO.N,+3.3V*%
X14705468Y14143068D03*
D24*
X21488400Y-14224000D03*
D23*
X14706600Y15245000D03*
D24*
X26350000Y19166800D03*
X-15036800Y-11252200D03*
X35915600Y-4622800D03*
%TO.N,GND*%
X-15341600Y-3276600D03*
X-10464800Y-3302000D03*
D23*
X-14605000Y-18491200D03*
X-20066000Y14097000D03*
D25*
X18288000Y6731000D03*
X20955000Y-7239000D03*
D24*
X-20243800Y-7340600D03*
D23*
X-10896600Y-13436600D03*
D24*
X-15341600Y1600200D03*
D25*
X970000Y-6604000D03*
X970000Y-9448800D03*
D24*
X-1016000Y-5715000D03*
D25*
X32004000Y-5207000D03*
X2970000Y-6654800D03*
X18999200Y-14173200D03*
D24*
X-20243000Y7493800D03*
D23*
X28600400Y22479000D03*
X29032200Y-18872200D03*
D25*
X25654000Y-15113000D03*
X16002000Y-13208000D03*
D24*
X-3962400Y-5715000D03*
D25*
X5715000Y-12319000D03*
X-20447000Y-13639800D03*
X12446000Y-13159000D03*
X-17043400Y-13106400D03*
D23*
X-18846800Y-18567400D03*
D25*
X22860000Y-8382000D03*
D24*
X-20243000Y10006800D03*
X-12898000Y-860000D03*
D25*
X19177000Y-286000D03*
X18161000Y-6096000D03*
X14986000Y9779000D03*
X14986000Y6350000D03*
D24*
X-10490200Y1625600D03*
D25*
X9144000Y-13159000D03*
D24*
X-20612100Y-9944100D03*
D25*
X1524000Y-15748000D03*
D23*
X6121400Y15519400D03*
D25*
X1016000Y9652000D03*
D23*
X2743200Y-21564600D03*
%TO.N,EN*%
X-13411200Y5359400D03*
%TO.N,/CPU/Vsamp*%
X10325100Y10147300D03*
X-4038600Y-1066800D03*
%TO.N,Net-(D105-DOUT)*%
X36017200Y-13030200D03*
X37084000Y7391400D03*
%TO.N,/CPU/TX_GPS*%
X-7518400Y9931400D03*
%TO.N,/CPU/RX_GPS*%
X-6070600Y10109200D03*
%TO.N,/CPU/VbatEn*%
X-5410200Y-2413000D03*
X6680200Y10668000D03*
%TO.N,/CPU/RADIO_1*%
X-3784600Y5943600D03*
X4622800Y9474200D03*
%TO.N,/CPU/RADIO_2*%
X3048000Y5816600D03*
X6756400Y9525000D03*
%TO.N,/CPU/ON*%
X31623000Y-4241800D03*
%TO.N,Net-(J103-Pin_6)*%
X32562800Y-12522200D03*
%TD*%
%TA.AperFunction,Conductor*%
%TO.N,GND*%
G36*
X-9811730Y19313783D02*
G01*
X-9811730Y19313784D01*
X-9772378Y19367945D01*
X-9767768Y19376993D01*
X-9719795Y19427791D01*
X-9651975Y19444588D01*
X-9585839Y19422053D01*
X-9546796Y19376996D01*
X-9542051Y19367683D01*
X-9417110Y19195714D01*
X-9266787Y19045391D01*
X-9094818Y18920450D01*
X-9086054Y18915984D01*
X-9035258Y18868009D01*
X-9018464Y18800188D01*
X-9041002Y18734053D01*
X-9086054Y18695016D01*
X-9094818Y18690551D01*
X-9266787Y18565610D01*
X-9417110Y18415287D01*
X-9542051Y18243318D01*
X-9546516Y18234554D01*
X-9594491Y18183758D01*
X-9662312Y18166964D01*
X-9728447Y18189502D01*
X-9767484Y18234554D01*
X-9771950Y18243318D01*
X-9896891Y18415287D01*
X-10047214Y18565610D01*
X-10219183Y18690551D01*
X-10228496Y18695296D01*
X-10279293Y18743270D01*
X-10296088Y18811091D01*
X-10273551Y18877226D01*
X-10228493Y18916268D01*
X-10219445Y18920878D01*
X-10165284Y18960230D01*
X-10165283Y18960230D01*
X-10797592Y19592538D01*
X-10734007Y19609575D01*
X-10619993Y19675401D01*
X-10526901Y19768493D01*
X-10461075Y19882507D01*
X-10444038Y19946092D01*
X-9811730Y19313783D01*
G37*
%TD.AperFunction*%
%TA.AperFunction,Conductor*%
G36*
X-11392925Y19882507D02*
G01*
X-11327099Y19768493D01*
X-11234007Y19675401D01*
X-11119993Y19609575D01*
X-11056410Y19592538D01*
X-11688718Y18960231D01*
X-11688718Y18960230D01*
X-11634548Y18920874D01*
X-11634549Y18920874D01*
X-11625505Y18916266D01*
X-11574708Y18868292D01*
X-11557913Y18800471D01*
X-11580450Y18734336D01*
X-11625501Y18695298D01*
X-11634818Y18690551D01*
X-11806787Y18565610D01*
X-11957106Y18415291D01*
X-11957115Y18415281D01*
X-11960670Y18410387D01*
X-12016003Y18367725D01*
X-12085617Y18361752D01*
X-12147409Y18394363D01*
X-12178688Y18444277D01*
X-12182185Y18454830D01*
X-12182186Y18454834D01*
X-12274288Y18604156D01*
X-12398344Y18728212D01*
X-12515495Y18800471D01*
X-12547664Y18820313D01*
X-12547675Y18820318D01*
X-12558227Y18823814D01*
X-12615672Y18863587D01*
X-12642494Y18928103D01*
X-12630178Y18996879D01*
X-12592097Y19041844D01*
X-12587212Y19045393D01*
X-12587212Y19045394D01*
X-12587208Y19045396D01*
X-12436896Y19195708D01*
X-12436894Y19195712D01*
X-12436891Y19195714D01*
X-12351110Y19313783D01*
X-12311949Y19367684D01*
X-12307207Y19376992D01*
X-12259237Y19427789D01*
X-12191417Y19444589D01*
X-12125281Y19422055D01*
X-12086237Y19377000D01*
X-12081627Y19367953D01*
X-12042272Y19313784D01*
X-11409963Y19946092D01*
X-11392925Y19882507D01*
G37*
%TD.AperFunction*%
%TA.AperFunction,Conductor*%
G36*
X35003243Y23989331D02*
G01*
X35306001Y23973463D01*
X35318909Y23972106D01*
X35615133Y23925189D01*
X35627817Y23922494D01*
X35917536Y23844864D01*
X35929874Y23840854D01*
X36209875Y23733372D01*
X36221718Y23728100D01*
X36488977Y23591925D01*
X36500183Y23585455D01*
X36751741Y23422091D01*
X36762231Y23414469D01*
X36995319Y23225718D01*
X37004964Y23217033D01*
X37217032Y23004965D01*
X37225717Y22995320D01*
X37414468Y22762232D01*
X37422093Y22751738D01*
X37585450Y22500190D01*
X37591927Y22488971D01*
X37727577Y22222744D01*
X37728094Y22221729D01*
X37733373Y22209871D01*
X37840853Y21929874D01*
X37844864Y21917531D01*
X37922491Y21627824D01*
X37925189Y21615128D01*
X37972105Y21318910D01*
X37973462Y21306002D01*
X37989330Y21003244D01*
X37989500Y20996754D01*
X37989500Y7724541D01*
X37969815Y7657502D01*
X37917011Y7611747D01*
X37847853Y7601803D01*
X37784297Y7630828D01*
X37750939Y7677088D01*
X37726930Y7735051D01*
X37726925Y7735060D01*
X37647532Y7853879D01*
X37647529Y7853883D01*
X37546482Y7954930D01*
X37546478Y7954933D01*
X37427659Y8034326D01*
X37427650Y8034331D01*
X37295620Y8089019D01*
X37295614Y8089021D01*
X37155457Y8116900D01*
X37155455Y8116900D01*
X37012545Y8116900D01*
X37012543Y8116900D01*
X36872385Y8089021D01*
X36872379Y8089019D01*
X36740349Y8034331D01*
X36740340Y8034326D01*
X36621521Y7954933D01*
X36621517Y7954930D01*
X36520470Y7853883D01*
X36520467Y7853879D01*
X36441074Y7735060D01*
X36441069Y7735051D01*
X36386381Y7603021D01*
X36386379Y7603015D01*
X36358500Y7462858D01*
X36358500Y7462855D01*
X36358500Y7319945D01*
X36358500Y7319943D01*
X36358499Y7319943D01*
X36386379Y7179786D01*
X36386381Y7179780D01*
X36441069Y7047750D01*
X36441074Y7047741D01*
X36520467Y6928922D01*
X36520470Y6928918D01*
X36621517Y6827871D01*
X36621521Y6827868D01*
X36740340Y6748475D01*
X36740346Y6748472D01*
X36740347Y6748471D01*
X36872380Y6693781D01*
X36872384Y6693781D01*
X36872385Y6693780D01*
X37012542Y6665900D01*
X37012545Y6665900D01*
X37155457Y6665900D01*
X37249751Y6684658D01*
X37295620Y6693781D01*
X37427653Y6748471D01*
X37546479Y6827868D01*
X37647532Y6928921D01*
X37726929Y7047747D01*
X37750939Y7105712D01*
X37794779Y7160116D01*
X37861073Y7182181D01*
X37928773Y7164902D01*
X37976384Y7113765D01*
X37989500Y7058260D01*
X37989500Y-24996753D01*
X37989330Y-25003243D01*
X37973462Y-25306001D01*
X37972105Y-25318909D01*
X37925189Y-25615127D01*
X37922491Y-25627823D01*
X37844864Y-25917530D01*
X37840853Y-25929873D01*
X37733373Y-26209870D01*
X37728094Y-26221728D01*
X37591931Y-26488964D01*
X37585445Y-26500197D01*
X37479573Y-26663226D01*
X37422097Y-26751731D01*
X37414468Y-26762231D01*
X37225717Y-26995319D01*
X37217032Y-27004964D01*
X37004964Y-27217032D01*
X36995319Y-27225717D01*
X36762231Y-27414468D01*
X36751731Y-27422097D01*
X36500197Y-27585445D01*
X36488964Y-27591931D01*
X36221728Y-27728094D01*
X36209870Y-27733373D01*
X35929873Y-27840853D01*
X35917530Y-27844864D01*
X35627823Y-27922491D01*
X35615127Y-27925189D01*
X35318909Y-27972105D01*
X35306001Y-27973462D01*
X35003244Y-27989330D01*
X34996754Y-27989500D01*
X-24996754Y-27989500D01*
X-25003244Y-27989330D01*
X-25306002Y-27973462D01*
X-25318910Y-27972105D01*
X-25615128Y-27925189D01*
X-25627824Y-27922491D01*
X-25917531Y-27844864D01*
X-25929874Y-27840853D01*
X-26209871Y-27733373D01*
X-26221729Y-27728094D01*
X-26488971Y-27591927D01*
X-26500190Y-27585450D01*
X-26751738Y-27422093D01*
X-26762232Y-27414468D01*
X-26995320Y-27225717D01*
X-27004965Y-27217032D01*
X-27217033Y-27004964D01*
X-27225718Y-26995319D01*
X-27414469Y-26762231D01*
X-27422091Y-26751741D01*
X-27585455Y-26500183D01*
X-27591925Y-26488977D01*
X-27728100Y-26221718D01*
X-27733374Y-26209870D01*
X-27840854Y-25929873D01*
X-27844865Y-25917530D01*
X-27870941Y-25820214D01*
X-27922494Y-25627817D01*
X-27925190Y-25615127D01*
X-27928204Y-25596100D01*
X-27972106Y-25318909D01*
X-27973463Y-25306001D01*
X-27989330Y-25003243D01*
X-27989500Y-24996753D01*
X-27989500Y-24878711D01*
X-26850500Y-24878711D01*
X-26850500Y-25121288D01*
X-26818839Y-25361785D01*
X-26756053Y-25596104D01*
X-26679779Y-25780244D01*
X-26663224Y-25820212D01*
X-26541936Y-26030289D01*
X-26541934Y-26030292D01*
X-26541933Y-26030293D01*
X-26394267Y-26222736D01*
X-26394261Y-26222743D01*
X-26222744Y-26394260D01*
X-26222738Y-26394265D01*
X-26030289Y-26541936D01*
X-25820212Y-26663224D01*
X-25596100Y-26756054D01*
X-25361789Y-26818838D01*
X-25181414Y-26842584D01*
X-25121289Y-26850500D01*
X-25121288Y-26850500D01*
X-24878711Y-26850500D01*
X-24830612Y-26844167D01*
X-24638211Y-26818838D01*
X-24403900Y-26756054D01*
X-24179788Y-26663224D01*
X-23969711Y-26541936D01*
X-23777262Y-26394265D01*
X-23605735Y-26222738D01*
X-23458064Y-26030289D01*
X-23336776Y-25820212D01*
X-23243946Y-25596100D01*
X-23181162Y-25361789D01*
X-23149500Y-25121288D01*
X-23149500Y-24878712D01*
X-23181162Y-24638211D01*
X-23243946Y-24403900D01*
X-23336776Y-24179788D01*
X-23458064Y-23969711D01*
X-23605735Y-23777262D01*
X-23605740Y-23777256D01*
X-23777257Y-23605739D01*
X-23777264Y-23605733D01*
X-23969707Y-23458067D01*
X-23969708Y-23458066D01*
X-23969711Y-23458064D01*
X-24179788Y-23336776D01*
X-24179795Y-23336773D01*
X-24403896Y-23243947D01*
X-24638215Y-23181161D01*
X-24878711Y-23149500D01*
X-24878712Y-23149500D01*
X-25121288Y-23149500D01*
X-25121289Y-23149500D01*
X-25361786Y-23181161D01*
X-25596105Y-23243947D01*
X-25820206Y-23336773D01*
X-25820215Y-23336777D01*
X-26030294Y-23458067D01*
X-26222737Y-23605733D01*
X-26222744Y-23605739D01*
X-26394261Y-23777256D01*
X-26394267Y-23777263D01*
X-26541933Y-23969706D01*
X-26663223Y-24179785D01*
X-26663227Y-24179794D01*
X-26756053Y-24403895D01*
X-26818839Y-24638214D01*
X-26850500Y-24878711D01*
X-27989500Y-24878711D01*
X-27989500Y-22846983D01*
X-19852500Y-22846983D01*
X-19852500Y-24397001D01*
X-19852499Y-24397018D01*
X-19842000Y-24499796D01*
X-19841999Y-24499799D01*
X-19796133Y-24638211D01*
X-19786814Y-24666334D01*
X-19694712Y-24815656D01*
X-19570656Y-24939712D01*
X-19421334Y-25031814D01*
X-19254797Y-25086999D01*
X-19152009Y-25097500D01*
X-17851992Y-25097499D01*
X-17749203Y-25086999D01*
X-17582666Y-25031814D01*
X-17433344Y-24939712D01*
X-17309288Y-24815656D01*
X-17217186Y-24666334D01*
X-17217186Y-24666331D01*
X-17213822Y-24660879D01*
X-17161874Y-24614154D01*
X-17092912Y-24602931D01*
X-17028830Y-24630774D01*
X-17020602Y-24638294D01*
X-16881787Y-24777109D01*
X-16709821Y-24902048D01*
X-16709819Y-24902049D01*
X-16709816Y-24902051D01*
X-16520412Y-24998557D01*
X-16318243Y-25064246D01*
X-16108287Y-25097500D01*
X-16108286Y-25097500D01*
X-15895714Y-25097500D01*
X-15895713Y-25097500D01*
X-15685757Y-25064246D01*
X-15483588Y-24998557D01*
X-15294184Y-24902051D01*
X-15262059Y-24878711D01*
X-15122214Y-24777109D01*
X-15122212Y-24777106D01*
X-15122208Y-24777104D01*
X-14971896Y-24626792D01*
X-14852317Y-24462204D01*
X-14796989Y-24419540D01*
X-14727376Y-24413561D01*
X-14665580Y-24446166D01*
X-14651687Y-24462199D01*
X-14549440Y-24602931D01*
X-14532104Y-24626792D01*
X-14381787Y-24777109D01*
X-14209821Y-24902048D01*
X-14209819Y-24902049D01*
X-14209816Y-24902051D01*
X-14020412Y-24998557D01*
X-13818243Y-25064246D01*
X-13608287Y-25097500D01*
X-13608286Y-25097500D01*
X-13395714Y-25097500D01*
X-13395713Y-25097500D01*
X-13185757Y-25064246D01*
X-12983588Y-24998557D01*
X-12794184Y-24902051D01*
X-12762059Y-24878711D01*
X-12622214Y-24777109D01*
X-12622212Y-24777106D01*
X-12622208Y-24777104D01*
X-12471896Y-24626792D01*
X-12352009Y-24461779D01*
X-12296680Y-24419115D01*
X-12227067Y-24413136D01*
X-12165271Y-24445741D01*
X-12151373Y-24461781D01*
X-12031728Y-24626459D01*
X-12031724Y-24626464D01*
X-11881465Y-24776723D01*
X-11881460Y-24776727D01*
X-11709558Y-24901620D01*
X-11520218Y-24998095D01*
X-11318129Y-25063757D01*
X-11252000Y-25074231D01*
X-11252000Y-24026145D01*
X-11185343Y-24064630D01*
X-11064535Y-24097000D01*
X-10939465Y-24097000D01*
X-10818657Y-24064630D01*
X-10752000Y-24026145D01*
X-10752000Y-25074230D01*
X-10685874Y-25063757D01*
X-10685871Y-25063757D01*
X-10483783Y-24998095D01*
X-10294443Y-24901620D01*
X-10122541Y-24776727D01*
X-10122536Y-24776723D01*
X-9972279Y-24626466D01*
X-9852629Y-24461781D01*
X-9797299Y-24419115D01*
X-9727686Y-24413136D01*
X-9665890Y-24445741D01*
X-9651992Y-24461781D01*
X-9532110Y-24626785D01*
X-9532106Y-24626790D01*
X-9381787Y-24777109D01*
X-9209821Y-24902048D01*
X-9209819Y-24902049D01*
X-9209816Y-24902051D01*
X-9020412Y-24998557D01*
X-8818243Y-25064246D01*
X-8608287Y-25097500D01*
X-8608286Y-25097500D01*
X-8395714Y-25097500D01*
X-8395713Y-25097500D01*
X-8185757Y-25064246D01*
X-7983588Y-24998557D01*
X-7794184Y-24902051D01*
X-7762059Y-24878711D01*
X-7622214Y-24777109D01*
X-7622212Y-24777106D01*
X-7622208Y-24777104D01*
X-7471896Y-24626792D01*
X-7352317Y-24462204D01*
X-7296989Y-24419540D01*
X-7227376Y-24413561D01*
X-7165580Y-24446166D01*
X-7151687Y-24462199D01*
X-7049440Y-24602931D01*
X-7032104Y-24626792D01*
X-6881787Y-24777109D01*
X-6709821Y-24902048D01*
X-6709819Y-24902049D01*
X-6709816Y-24902051D01*
X-6520412Y-24998557D01*
X-6318243Y-25064246D01*
X-6108287Y-25097500D01*
X-6108286Y-25097500D01*
X-5895714Y-25097500D01*
X-5895713Y-25097500D01*
X-5685757Y-25064246D01*
X-5483588Y-24998557D01*
X-5294184Y-24902051D01*
X-5262059Y-24878711D01*
X33149500Y-24878711D01*
X33149500Y-25121288D01*
X33181161Y-25361785D01*
X33243947Y-25596104D01*
X33320221Y-25780244D01*
X33336776Y-25820212D01*
X33458064Y-26030289D01*
X33458066Y-26030292D01*
X33458067Y-26030293D01*
X33605733Y-26222736D01*
X33605739Y-26222743D01*
X33777256Y-26394260D01*
X33777262Y-26394265D01*
X33969711Y-26541936D01*
X34179788Y-26663224D01*
X34403900Y-26756054D01*
X34638211Y-26818838D01*
X34818586Y-26842584D01*
X34878711Y-26850500D01*
X34878712Y-26850500D01*
X35121289Y-26850500D01*
X35169388Y-26844167D01*
X35361789Y-26818838D01*
X35596100Y-26756054D01*
X35820212Y-26663224D01*
X36030289Y-26541936D01*
X36222738Y-26394265D01*
X36394265Y-26222738D01*
X36541936Y-26030289D01*
X36663224Y-25820212D01*
X36756054Y-25596100D01*
X36818838Y-25361789D01*
X36850500Y-25121288D01*
X36850500Y-24878712D01*
X36818838Y-24638211D01*
X36756054Y-24403900D01*
X36663224Y-24179788D01*
X36541936Y-23969711D01*
X36394265Y-23777262D01*
X36394260Y-23777256D01*
X36222743Y-23605739D01*
X36222736Y-23605733D01*
X36030293Y-23458067D01*
X36030292Y-23458066D01*
X36030289Y-23458064D01*
X35820212Y-23336776D01*
X35820205Y-23336773D01*
X35596104Y-23243947D01*
X35361785Y-23181161D01*
X35121289Y-23149500D01*
X35121288Y-23149500D01*
X34878712Y-23149500D01*
X34878711Y-23149500D01*
X34638214Y-23181161D01*
X34403895Y-23243947D01*
X34179794Y-23336773D01*
X34179785Y-23336777D01*
X33969706Y-23458067D01*
X33777263Y-23605733D01*
X33777256Y-23605739D01*
X33605739Y-23777256D01*
X33605733Y-23777263D01*
X33458067Y-23969706D01*
X33336777Y-24179785D01*
X33336773Y-24179794D01*
X33243947Y-24403895D01*
X33181161Y-24638214D01*
X33149500Y-24878711D01*
X-5262059Y-24878711D01*
X-5122208Y-24777104D01*
X-4971896Y-24626792D01*
X-4971894Y-24626788D01*
X-4971891Y-24626786D01*
X-4846952Y-24454820D01*
X-4846953Y-24454820D01*
X-4846949Y-24454816D01*
X-4750443Y-24265412D01*
X-4684754Y-24063243D01*
X-4651500Y-23853287D01*
X-4651500Y-23390713D01*
X-4684754Y-23180757D01*
X-4750443Y-22978588D01*
X-4846949Y-22789184D01*
X-4846951Y-22789181D01*
X-4846952Y-22789179D01*
X-4971891Y-22617213D01*
X-5122214Y-22466890D01*
X-5294180Y-22341951D01*
X-5483586Y-22245444D01*
X-5483587Y-22245443D01*
X-5483588Y-22245443D01*
X-5685757Y-22179754D01*
X-5685759Y-22179753D01*
X-5685760Y-22179753D01*
X-5851530Y-22153498D01*
X-5895713Y-22146500D01*
X-6108287Y-22146500D01*
X-6152470Y-22153498D01*
X-6318240Y-22179753D01*
X-6520415Y-22245444D01*
X-6709821Y-22341951D01*
X-6881787Y-22466890D01*
X-7032106Y-22617209D01*
X-7032110Y-22617214D01*
X-7151682Y-22781793D01*
X-7207011Y-22824459D01*
X-7276625Y-22830438D01*
X-7338420Y-22797833D01*
X-7352318Y-22781793D01*
X-7471891Y-22617214D01*
X-7471895Y-22617209D01*
X-7622214Y-22466890D01*
X-7794180Y-22341951D01*
X-7983586Y-22245444D01*
X-7983587Y-22245443D01*
X-7983588Y-22245443D01*
X-8185757Y-22179754D01*
X-8185759Y-22179753D01*
X-8185760Y-22179753D01*
X-8351530Y-22153498D01*
X-8395713Y-22146500D01*
X-8608287Y-22146500D01*
X-8652470Y-22153498D01*
X-8818240Y-22179753D01*
X-9020415Y-22245444D01*
X-9209821Y-22341951D01*
X-9381787Y-22466890D01*
X-9532106Y-22617209D01*
X-9532110Y-22617214D01*
X-9651992Y-22782218D01*
X-9707322Y-22824884D01*
X-9776935Y-22830863D01*
X-9838730Y-22798257D01*
X-9852628Y-22782218D01*
X-9972273Y-22617540D01*
X-9972277Y-22617535D01*
X-10122536Y-22467276D01*
X-10122541Y-22467272D01*
X-10294443Y-22342379D01*
X-10483785Y-22245903D01*
X-10685876Y-22180241D01*
X-10752000Y-22169768D01*
X-10752000Y-23217854D01*
X-10818657Y-23179370D01*
X-10939465Y-23147000D01*
X-11064535Y-23147000D01*
X-11185343Y-23179370D01*
X-11252000Y-23217854D01*
X-11252000Y-22169768D01*
X-11252001Y-22169768D01*
X-11318125Y-22180241D01*
X-11520216Y-22245903D01*
X-11709558Y-22342379D01*
X-11881460Y-22467272D01*
X-11881465Y-22467276D01*
X-12031724Y-22617535D01*
X-12031728Y-22617540D01*
X-12151373Y-22782218D01*
X-12206703Y-22824884D01*
X-12276316Y-22830863D01*
X-12338111Y-22798257D01*
X-12352009Y-22782218D01*
X-12471891Y-22617214D01*
X-12471895Y-22617209D01*
X-12622214Y-22466890D01*
X-12794180Y-22341951D01*
X-12983586Y-22245444D01*
X-12983587Y-22245443D01*
X-12983588Y-22245443D01*
X-13185757Y-22179754D01*
X-13185759Y-22179753D01*
X-13185760Y-22179753D01*
X-13351530Y-22153498D01*
X-13395713Y-22146500D01*
X-13608287Y-22146500D01*
X-13652470Y-22153498D01*
X-13818240Y-22179753D01*
X-14020415Y-22245444D01*
X-14209821Y-22341951D01*
X-14381787Y-22466890D01*
X-14532106Y-22617209D01*
X-14532110Y-22617214D01*
X-14651682Y-22781793D01*
X-14707011Y-22824459D01*
X-14776625Y-22830438D01*
X-14838420Y-22797833D01*
X-14852318Y-22781793D01*
X-14971891Y-22617214D01*
X-14971895Y-22617209D01*
X-15122214Y-22466890D01*
X-15294180Y-22341951D01*
X-15483586Y-22245444D01*
X-15483587Y-22245443D01*
X-15483588Y-22245443D01*
X-15685757Y-22179754D01*
X-15685759Y-22179753D01*
X-15685760Y-22179753D01*
X-15851530Y-22153498D01*
X-15895713Y-22146500D01*
X-16108287Y-22146500D01*
X-16152470Y-22153498D01*
X-16318240Y-22179753D01*
X-16520415Y-22245444D01*
X-16709821Y-22341951D01*
X-16881785Y-22466889D01*
X-17020602Y-22605706D01*
X-17081925Y-22639190D01*
X-17151617Y-22634206D01*
X-17207550Y-22592334D01*
X-17213822Y-22583120D01*
X-17309288Y-22428344D01*
X-17433343Y-22304289D01*
X-17433344Y-22304288D01*
X-17582666Y-22212186D01*
X-17749203Y-22157001D01*
X-17749205Y-22157000D01*
X-17851990Y-22146500D01*
X-19152002Y-22146500D01*
X-19152019Y-22146501D01*
X-19254797Y-22157000D01*
X-19254800Y-22157001D01*
X-19421332Y-22212185D01*
X-19421337Y-22212187D01*
X-19570658Y-22304289D01*
X-19694711Y-22428342D01*
X-19786813Y-22577663D01*
X-19786815Y-22577668D01*
X-19791675Y-22592334D01*
X-19841999Y-22744203D01*
X-19841999Y-22744204D01*
X-19842000Y-22744204D01*
X-19852500Y-22846983D01*
X-27989500Y-22846983D01*
X-27989500Y-21005412D01*
X-27989028Y-20994605D01*
X-27975413Y-20838983D01*
X-27971662Y-20817704D01*
X-27932633Y-20672044D01*
X-27925241Y-20651738D01*
X-27861518Y-20515084D01*
X-27850711Y-20496366D01*
X-27764221Y-20372845D01*
X-27750333Y-20356293D01*
X-27643707Y-20249667D01*
X-27627155Y-20235779D01*
X-27503634Y-20149289D01*
X-27484919Y-20138483D01*
X-27348260Y-20074758D01*
X-27327956Y-20067367D01*
X-27182296Y-20028338D01*
X-27161022Y-20024587D01*
X-27005395Y-20010971D01*
X-26994588Y-20010500D01*
X-22911597Y-20010500D01*
X-22911593Y-20010500D01*
X-22737464Y-19979797D01*
X-22571313Y-19919322D01*
X-22418187Y-19830915D01*
X-22282739Y-19717261D01*
X-22169085Y-19581813D01*
X-22080678Y-19428687D01*
X-22020203Y-19262536D01*
X-21989500Y-19088407D01*
X-21989500Y-19000000D01*
X-21989500Y-18996588D01*
X-21989500Y-18360105D01*
X-13049000Y-18360105D01*
X-13049000Y-18622294D01*
X-13014780Y-18882209D01*
X-13014778Y-18882220D01*
X-12946925Y-19135455D01*
X-12846596Y-19377671D01*
X-12846591Y-19377682D01*
X-12715512Y-19604716D01*
X-12715506Y-19604724D01*
X-12628920Y-19717565D01*
X-11726579Y-18815224D01*
X-11713641Y-18846458D01*
X-11631563Y-18969297D01*
X-11527097Y-19073763D01*
X-11404258Y-19155841D01*
X-11373026Y-19168777D01*
X-12275367Y-20071117D01*
X-12275367Y-20071118D01*
X-12162525Y-20157705D01*
X-12162517Y-20157711D01*
X-11935483Y-20288790D01*
X-11935472Y-20288795D01*
X-11693256Y-20389124D01*
X-11440021Y-20456977D01*
X-11440010Y-20456979D01*
X-11180095Y-20491199D01*
X-11180080Y-20491200D01*
X-10917920Y-20491200D01*
X-10917906Y-20491199D01*
X-10657991Y-20456979D01*
X-10657980Y-20456977D01*
X-10404745Y-20389124D01*
X-10162529Y-20288795D01*
X-10162518Y-20288790D01*
X-9935484Y-20157711D01*
X-9935466Y-20157699D01*
X-9822635Y-20071119D01*
X-9822635Y-20071117D01*
X-9854265Y-20039487D01*
X-9938617Y-19955135D01*
X7712500Y-19955135D01*
X7712500Y-21700870D01*
X7712501Y-21700876D01*
X7718908Y-21760483D01*
X7769202Y-21895328D01*
X7769206Y-21895335D01*
X7855452Y-22010544D01*
X7855455Y-22010547D01*
X7970664Y-22096793D01*
X7970671Y-22096797D01*
X8105517Y-22147091D01*
X8105516Y-22147091D01*
X8112444Y-22147835D01*
X8165127Y-22153500D01*
X9910872Y-22153499D01*
X9970483Y-22147091D01*
X10105331Y-22096796D01*
X10220546Y-22010546D01*
X10306796Y-21895331D01*
X10357091Y-21760483D01*
X10363500Y-21700873D01*
X10363499Y-20721713D01*
X14187500Y-20721713D01*
X14187500Y-20934286D01*
X14220753Y-21144239D01*
X14286444Y-21346414D01*
X14382951Y-21535820D01*
X14507890Y-21707786D01*
X14658213Y-21858109D01*
X14830179Y-21983048D01*
X14830181Y-21983049D01*
X14830184Y-21983051D01*
X15019588Y-22079557D01*
X15221757Y-22145246D01*
X15431713Y-22178500D01*
X15431714Y-22178500D01*
X15644286Y-22178500D01*
X15644287Y-22178500D01*
X15854243Y-22145246D01*
X16056412Y-22079557D01*
X16245816Y-21983051D01*
X16366548Y-21895335D01*
X16417786Y-21858109D01*
X16417788Y-21858106D01*
X16417792Y-21858104D01*
X16568104Y-21707792D01*
X16568106Y-21707788D01*
X16568109Y-21707786D01*
X16693048Y-21535820D01*
X16693047Y-21535820D01*
X16693051Y-21535816D01*
X16789557Y-21346412D01*
X16855246Y-21144243D01*
X16888500Y-20934287D01*
X16888500Y-20721713D01*
X16855246Y-20511757D01*
X16789557Y-20309588D01*
X16693051Y-20120184D01*
X16693049Y-20120181D01*
X16693048Y-20120179D01*
X16568109Y-19948213D01*
X16417786Y-19797890D01*
X16245820Y-19672951D01*
X16056414Y-19576444D01*
X16056413Y-19576443D01*
X16056412Y-19576443D01*
X15854243Y-19510754D01*
X15854241Y-19510753D01*
X15854240Y-19510753D01*
X15692957Y-19485208D01*
X15644287Y-19477500D01*
X15431713Y-19477500D01*
X15383042Y-19485208D01*
X15221760Y-19510753D01*
X15019585Y-19576444D01*
X14830179Y-19672951D01*
X14658213Y-19797890D01*
X14507890Y-19948213D01*
X14382951Y-20120179D01*
X14286444Y-20309585D01*
X14220753Y-20511760D01*
X14187500Y-20721713D01*
X10363499Y-20721713D01*
X10363499Y-19955128D01*
X10357091Y-19895517D01*
X10332995Y-19830913D01*
X10306797Y-19760671D01*
X10306793Y-19760664D01*
X10220547Y-19645455D01*
X10220544Y-19645452D01*
X10105335Y-19559206D01*
X10105328Y-19559202D01*
X9970482Y-19508908D01*
X9970483Y-19508908D01*
X9910883Y-19502501D01*
X9910881Y-19502500D01*
X9910873Y-19502500D01*
X9910864Y-19502500D01*
X8165129Y-19502500D01*
X8165123Y-19502501D01*
X8105516Y-19508908D01*
X7970671Y-19559202D01*
X7970664Y-19559206D01*
X7855455Y-19645452D01*
X7855452Y-19645455D01*
X7769206Y-19760664D01*
X7769202Y-19760671D01*
X7718908Y-19895517D01*
X7715220Y-19929826D01*
X7712501Y-19955123D01*
X7712500Y-19955135D01*
X-9938617Y-19955135D01*
X-10724975Y-19168778D01*
X-10693742Y-19155841D01*
X-10570903Y-19073763D01*
X-10466437Y-18969297D01*
X-10384359Y-18846458D01*
X-10371423Y-18815225D01*
X-9469083Y-19717565D01*
X-9469081Y-19717565D01*
X-9382501Y-19604734D01*
X-9382489Y-19604716D01*
X-9251410Y-19377682D01*
X-9251405Y-19377671D01*
X-9151076Y-19135455D01*
X-9083223Y-18882220D01*
X-9083221Y-18882209D01*
X-9049001Y-18622294D01*
X-9049000Y-18622280D01*
X-9049000Y-18360119D01*
X-9049001Y-18360105D01*
X-9083221Y-18100190D01*
X-9083223Y-18100179D01*
X-9151076Y-17846944D01*
X-9251405Y-17604728D01*
X-9251410Y-17604717D01*
X-9382489Y-17377683D01*
X-9382495Y-17377675D01*
X-9469082Y-17264833D01*
X-9469083Y-17264833D01*
X-10371423Y-18167173D01*
X-10384359Y-18135942D01*
X-10466437Y-18013103D01*
X-10570903Y-17908637D01*
X-10693742Y-17826559D01*
X-10724977Y-17813621D01*
X-9822635Y-16911280D01*
X-9935476Y-16824694D01*
X-9935484Y-16824688D01*
X-10162518Y-16693609D01*
X-10162529Y-16693604D01*
X-10404745Y-16593275D01*
X-10657980Y-16525422D01*
X-10657991Y-16525420D01*
X-10917906Y-16491200D01*
X-11180095Y-16491200D01*
X-11440010Y-16525420D01*
X-11440021Y-16525422D01*
X-11693256Y-16593275D01*
X-11935472Y-16693604D01*
X-11935483Y-16693609D01*
X-12162529Y-16824696D01*
X-12275367Y-16911279D01*
X-12275367Y-16911280D01*
X-11373026Y-17813621D01*
X-11404258Y-17826559D01*
X-11527097Y-17908637D01*
X-11631563Y-18013103D01*
X-11713641Y-18135942D01*
X-11726579Y-18167174D01*
X-12628920Y-17264833D01*
X-12628921Y-17264833D01*
X-12715504Y-17377671D01*
X-12846591Y-17604717D01*
X-12846596Y-17604728D01*
X-12946925Y-17846944D01*
X-13014778Y-18100179D01*
X-13014780Y-18100190D01*
X-13049000Y-18360105D01*
X-21989500Y-18360105D01*
X-21989500Y-15438457D01*
X-10758501Y-15438457D01*
X-10730621Y-15578614D01*
X-10730619Y-15578620D01*
X-10675931Y-15710650D01*
X-10675926Y-15710659D01*
X-10596533Y-15829478D01*
X-10596530Y-15829482D01*
X-10495483Y-15930529D01*
X-10495479Y-15930532D01*
X-10376660Y-16009925D01*
X-10376654Y-16009928D01*
X-10376653Y-16009929D01*
X-10244620Y-16064619D01*
X-10244616Y-16064619D01*
X-10244615Y-16064620D01*
X-10104458Y-16092500D01*
X-10104455Y-16092500D01*
X-9961543Y-16092500D01*
X-9867249Y-16073742D01*
X-9821380Y-16064619D01*
X-9689347Y-16009929D01*
X-9570521Y-15930532D01*
X-9469468Y-15829479D01*
X-9390071Y-15710653D01*
X-9335381Y-15578620D01*
X-9307500Y-15438455D01*
X-9307500Y-15295545D01*
X-9307500Y-15295542D01*
X-9335380Y-15155385D01*
X-9335381Y-15155384D01*
X-9335381Y-15155380D01*
X-9390071Y-15023347D01*
X-9390072Y-15023346D01*
X-9390075Y-15023340D01*
X-9469468Y-14904521D01*
X-9469471Y-14904517D01*
X-9570518Y-14803470D01*
X-9570522Y-14803467D01*
X-9689341Y-14724074D01*
X-9689350Y-14724069D01*
X-9821380Y-14669381D01*
X-9821386Y-14669379D01*
X-9961543Y-14641500D01*
X-9961545Y-14641500D01*
X-10104455Y-14641500D01*
X-10104457Y-14641500D01*
X-10244615Y-14669379D01*
X-10244621Y-14669381D01*
X-10376651Y-14724069D01*
X-10376660Y-14724074D01*
X-10495479Y-14803467D01*
X-10495483Y-14803470D01*
X-10596530Y-14904517D01*
X-10596533Y-14904521D01*
X-10675926Y-15023340D01*
X-10675931Y-15023349D01*
X-10730619Y-15155379D01*
X-10730621Y-15155385D01*
X-10758500Y-15295542D01*
X-10758500Y-15295545D01*
X-10758500Y-15438455D01*
X-10758500Y-15438457D01*
X-10758501Y-15438457D01*
X-21989500Y-15438457D01*
X-21989500Y-14130379D01*
X20537900Y-14130379D01*
X20537900Y-14317620D01*
X20574425Y-14501243D01*
X20574427Y-14501251D01*
X20646076Y-14674228D01*
X20646081Y-14674237D01*
X20750097Y-14829907D01*
X20750100Y-14829911D01*
X20882488Y-14962299D01*
X20882492Y-14962302D01*
X21038162Y-15066318D01*
X21038168Y-15066321D01*
X21038169Y-15066322D01*
X21211149Y-15137973D01*
X21394779Y-15174499D01*
X21394783Y-15174500D01*
X21394784Y-15174500D01*
X21582017Y-15174500D01*
X21582018Y-15174499D01*
X21765651Y-15137973D01*
X21938631Y-15066322D01*
X22094308Y-14962302D01*
X22226702Y-14829908D01*
X22330722Y-14674231D01*
X22402373Y-14501251D01*
X22438900Y-14317616D01*
X22438900Y-14130384D01*
X22402373Y-13946749D01*
X22330722Y-13773769D01*
X22330721Y-13773768D01*
X22330718Y-13773762D01*
X22226702Y-13618092D01*
X22226699Y-13618088D01*
X22094311Y-13485700D01*
X22094307Y-13485697D01*
X21938637Y-13381681D01*
X21938628Y-13381676D01*
X21765651Y-13310027D01*
X21765643Y-13310025D01*
X21582020Y-13273500D01*
X21582016Y-13273500D01*
X21394784Y-13273500D01*
X21394779Y-13273500D01*
X21211156Y-13310025D01*
X21211148Y-13310027D01*
X21038171Y-13381676D01*
X21038162Y-13381681D01*
X20882492Y-13485697D01*
X20882488Y-13485700D01*
X20750100Y-13618088D01*
X20750097Y-13618092D01*
X20646081Y-13773762D01*
X20646076Y-13773771D01*
X20574427Y-13946748D01*
X20574425Y-13946756D01*
X20537900Y-14130379D01*
X-21989500Y-14130379D01*
X-21989500Y-11158579D01*
X-15987300Y-11158579D01*
X-15987300Y-11345820D01*
X-15950775Y-11529443D01*
X-15950773Y-11529451D01*
X-15879124Y-11702428D01*
X-15879119Y-11702437D01*
X-15775103Y-11858107D01*
X-15775100Y-11858111D01*
X-15642712Y-11990499D01*
X-15642708Y-11990502D01*
X-15487038Y-12094518D01*
X-15487032Y-12094521D01*
X-15487031Y-12094522D01*
X-15314051Y-12166173D01*
X-15130421Y-12202699D01*
X-15130417Y-12202700D01*
X-15130416Y-12202700D01*
X-14943183Y-12202700D01*
X-14943182Y-12202699D01*
X-14759549Y-12166173D01*
X-14586569Y-12094522D01*
X-14430892Y-11990502D01*
X-14298498Y-11858108D01*
X-14194478Y-11702431D01*
X-14122827Y-11529451D01*
X-14086300Y-11345816D01*
X-14086300Y-11158584D01*
X-14093884Y-11120457D01*
X31024499Y-11120457D01*
X31052379Y-11260614D01*
X31052381Y-11260620D01*
X31107069Y-11392650D01*
X31107074Y-11392659D01*
X31186467Y-11511478D01*
X31186470Y-11511482D01*
X31287517Y-11612529D01*
X31287521Y-11612532D01*
X31406340Y-11691925D01*
X31406346Y-11691928D01*
X31406347Y-11691929D01*
X31538380Y-11746619D01*
X31538384Y-11746619D01*
X31538385Y-11746620D01*
X31678542Y-11774500D01*
X31678545Y-11774500D01*
X31821457Y-11774500D01*
X31918401Y-11755216D01*
X31961620Y-11746619D01*
X31998336Y-11731410D01*
X32067803Y-11723942D01*
X32130282Y-11755216D01*
X32165935Y-11815305D01*
X32163442Y-11885130D01*
X32123594Y-11942523D01*
X32114680Y-11949073D01*
X32100319Y-11958668D01*
X31999270Y-12059717D01*
X31999267Y-12059721D01*
X31919874Y-12178540D01*
X31919869Y-12178549D01*
X31865181Y-12310579D01*
X31865179Y-12310585D01*
X31837300Y-12450742D01*
X31837300Y-12450745D01*
X31837300Y-12593655D01*
X31837300Y-12593657D01*
X31837299Y-12593657D01*
X31865179Y-12733814D01*
X31865181Y-12733820D01*
X31919869Y-12865850D01*
X31919874Y-12865859D01*
X31999267Y-12984678D01*
X31999270Y-12984682D01*
X32100317Y-13085729D01*
X32100321Y-13085732D01*
X32219140Y-13165125D01*
X32219146Y-13165128D01*
X32219147Y-13165129D01*
X32351180Y-13219819D01*
X32351184Y-13219819D01*
X32351185Y-13219820D01*
X32491342Y-13247700D01*
X32491345Y-13247700D01*
X32634257Y-13247700D01*
X32728551Y-13228942D01*
X32774420Y-13219819D01*
X32906453Y-13165129D01*
X33001446Y-13101657D01*
X35291699Y-13101657D01*
X35319579Y-13241814D01*
X35319581Y-13241820D01*
X35374269Y-13373850D01*
X35374274Y-13373859D01*
X35453667Y-13492678D01*
X35453670Y-13492682D01*
X35554717Y-13593729D01*
X35554721Y-13593732D01*
X35673540Y-13673125D01*
X35673546Y-13673128D01*
X35673547Y-13673129D01*
X35805580Y-13727819D01*
X35805584Y-13727819D01*
X35805585Y-13727820D01*
X35945742Y-13755700D01*
X35945745Y-13755700D01*
X36088657Y-13755700D01*
X36182951Y-13736942D01*
X36228820Y-13727819D01*
X36360853Y-13673129D01*
X36479679Y-13593732D01*
X36580732Y-13492679D01*
X36660129Y-13373853D01*
X36714819Y-13241820D01*
X36742700Y-13101655D01*
X36742700Y-12958745D01*
X36742700Y-12958742D01*
X36714820Y-12818585D01*
X36714819Y-12818584D01*
X36714819Y-12818580D01*
X36660129Y-12686547D01*
X36660128Y-12686546D01*
X36660125Y-12686540D01*
X36580732Y-12567721D01*
X36580729Y-12567717D01*
X36479682Y-12466670D01*
X36479678Y-12466667D01*
X36360859Y-12387274D01*
X36360850Y-12387269D01*
X36228820Y-12332581D01*
X36228814Y-12332579D01*
X36088657Y-12304700D01*
X36088655Y-12304700D01*
X35945745Y-12304700D01*
X35945743Y-12304700D01*
X35805585Y-12332579D01*
X35805579Y-12332581D01*
X35673549Y-12387269D01*
X35673540Y-12387274D01*
X35554721Y-12466667D01*
X35554717Y-12466670D01*
X35453670Y-12567717D01*
X35453667Y-12567721D01*
X35374274Y-12686540D01*
X35374269Y-12686549D01*
X35319581Y-12818579D01*
X35319579Y-12818585D01*
X35291700Y-12958742D01*
X35291700Y-12958745D01*
X35291700Y-13101655D01*
X35291700Y-13101657D01*
X35291699Y-13101657D01*
X33001446Y-13101657D01*
X33025279Y-13085732D01*
X33126332Y-12984679D01*
X33205729Y-12865853D01*
X33260419Y-12733820D01*
X33288300Y-12593655D01*
X33288300Y-12450745D01*
X33288300Y-12450742D01*
X33260420Y-12310585D01*
X33260419Y-12310584D01*
X33260419Y-12310580D01*
X33205729Y-12178547D01*
X33205728Y-12178546D01*
X33205725Y-12178540D01*
X33126332Y-12059721D01*
X33126329Y-12059717D01*
X33025282Y-11958670D01*
X33025278Y-11958667D01*
X32906459Y-11879274D01*
X32906450Y-11879269D01*
X32774420Y-11824581D01*
X32774414Y-11824579D01*
X32634257Y-11796700D01*
X32634255Y-11796700D01*
X32491345Y-11796700D01*
X32491343Y-11796700D01*
X32351185Y-11824579D01*
X32351175Y-11824582D01*
X32314462Y-11839789D01*
X32244993Y-11847256D01*
X32182514Y-11815980D01*
X32146863Y-11755890D01*
X32149358Y-11686065D01*
X32189208Y-11628674D01*
X32198109Y-11622133D01*
X32212479Y-11612532D01*
X32313532Y-11511479D01*
X32392929Y-11392653D01*
X32447619Y-11260620D01*
X32475500Y-11120455D01*
X32475500Y-10977545D01*
X32475500Y-10977542D01*
X32447620Y-10837385D01*
X32447619Y-10837384D01*
X32447619Y-10837380D01*
X32392929Y-10705347D01*
X32392928Y-10705346D01*
X32392925Y-10705340D01*
X32313532Y-10586521D01*
X32313529Y-10586517D01*
X32212482Y-10485470D01*
X32212478Y-10485467D01*
X32093659Y-10406074D01*
X32093650Y-10406069D01*
X31961620Y-10351381D01*
X31961614Y-10351379D01*
X31821457Y-10323500D01*
X31821455Y-10323500D01*
X31678545Y-10323500D01*
X31678543Y-10323500D01*
X31538385Y-10351379D01*
X31538379Y-10351381D01*
X31406349Y-10406069D01*
X31406340Y-10406074D01*
X31287521Y-10485467D01*
X31287517Y-10485470D01*
X31186470Y-10586517D01*
X31186467Y-10586521D01*
X31107074Y-10705340D01*
X31107069Y-10705349D01*
X31052381Y-10837379D01*
X31052379Y-10837385D01*
X31024500Y-10977542D01*
X31024500Y-10977545D01*
X31024500Y-11120455D01*
X31024500Y-11120457D01*
X31024499Y-11120457D01*
X-14093884Y-11120457D01*
X-14093884Y-11120455D01*
X-14118710Y-10995644D01*
X-14122311Y-10977545D01*
X-14122827Y-10974949D01*
X-14194478Y-10801969D01*
X-14194479Y-10801968D01*
X-14194482Y-10801962D01*
X-14298498Y-10646292D01*
X-14298501Y-10646288D01*
X-14430889Y-10513900D01*
X-14430893Y-10513897D01*
X-14586563Y-10409881D01*
X-14586572Y-10409876D01*
X-14759549Y-10338227D01*
X-14759557Y-10338225D01*
X-14943180Y-10301700D01*
X-14943184Y-10301700D01*
X-15130416Y-10301700D01*
X-15130421Y-10301700D01*
X-15314044Y-10338225D01*
X-15314052Y-10338227D01*
X-15487029Y-10409876D01*
X-15487038Y-10409881D01*
X-15642708Y-10513897D01*
X-15642712Y-10513900D01*
X-15775100Y-10646288D01*
X-15775103Y-10646292D01*
X-15879119Y-10801962D01*
X-15879124Y-10801971D01*
X-15950773Y-10974948D01*
X-15950775Y-10974956D01*
X-15987300Y-11158579D01*
X-21989500Y-11158579D01*
X-21989500Y-4313257D01*
X30897499Y-4313257D01*
X30925379Y-4453414D01*
X30925381Y-4453420D01*
X30980069Y-4585450D01*
X30980074Y-4585459D01*
X31059467Y-4704278D01*
X31059470Y-4704282D01*
X31160517Y-4805329D01*
X31160521Y-4805332D01*
X31279340Y-4884725D01*
X31279346Y-4884728D01*
X31279347Y-4884729D01*
X31411380Y-4939419D01*
X31411384Y-4939419D01*
X31411385Y-4939420D01*
X31551542Y-4967300D01*
X31551545Y-4967300D01*
X31694457Y-4967300D01*
X31788751Y-4948542D01*
X31834620Y-4939419D01*
X31966653Y-4884729D01*
X32085479Y-4805332D01*
X32186532Y-4704279D01*
X32265929Y-4585453D01*
X32320619Y-4453420D01*
X32342076Y-4345549D01*
X32348500Y-4313257D01*
X32348500Y-4170342D01*
X32320620Y-4030185D01*
X32320619Y-4030184D01*
X32320619Y-4030180D01*
X32265929Y-3898147D01*
X32265928Y-3898146D01*
X32265925Y-3898140D01*
X32186532Y-3779321D01*
X32186529Y-3779317D01*
X32085482Y-3678270D01*
X32085478Y-3678267D01*
X31966659Y-3598874D01*
X31966650Y-3598869D01*
X31834620Y-3544181D01*
X31834614Y-3544179D01*
X31694457Y-3516300D01*
X31694455Y-3516300D01*
X31551545Y-3516300D01*
X31551543Y-3516300D01*
X31411385Y-3544179D01*
X31411379Y-3544181D01*
X31279349Y-3598869D01*
X31279340Y-3598874D01*
X31160521Y-3678267D01*
X31160517Y-3678270D01*
X31059470Y-3779317D01*
X31059467Y-3779321D01*
X30980074Y-3898140D01*
X30980069Y-3898149D01*
X30925381Y-4030179D01*
X30925379Y-4030185D01*
X30897500Y-4170342D01*
X30897500Y-4170345D01*
X30897500Y-4313255D01*
X30897500Y-4313257D01*
X30897499Y-4313257D01*
X-21989500Y-4313257D01*
X-21989500Y-3589577D01*
X25075975Y-3589577D01*
X25181236Y-3633178D01*
X25181240Y-3633179D01*
X25326126Y-3661999D01*
X25326129Y-3662000D01*
X25473871Y-3662000D01*
X25473873Y-3661999D01*
X25618760Y-3633179D01*
X25618775Y-3633175D01*
X25724024Y-3589578D01*
X25724024Y-3589577D01*
X26975975Y-3589577D01*
X27081236Y-3633178D01*
X27081240Y-3633179D01*
X27226126Y-3661999D01*
X27226129Y-3662000D01*
X27373871Y-3662000D01*
X27373873Y-3661999D01*
X27518760Y-3633179D01*
X27518775Y-3633175D01*
X27624024Y-3589578D01*
X27624024Y-3589577D01*
X27300001Y-3265554D01*
X27300000Y-3265554D01*
X26975975Y-3589577D01*
X25724024Y-3589577D01*
X25400001Y-3265554D01*
X25400000Y-3265554D01*
X25075975Y-3589577D01*
X-21989500Y-3589577D01*
X-21989500Y-2484457D01*
X-6135701Y-2484457D01*
X-6107821Y-2624614D01*
X-6107819Y-2624620D01*
X-6053131Y-2756650D01*
X-6053126Y-2756659D01*
X-5973733Y-2875478D01*
X-5973730Y-2875482D01*
X-5872683Y-2976529D01*
X-5872679Y-2976532D01*
X-5753860Y-3055925D01*
X-5753854Y-3055928D01*
X-5753853Y-3055929D01*
X-5621820Y-3110619D01*
X-5621816Y-3110619D01*
X-5621815Y-3110620D01*
X-5481658Y-3138500D01*
X-5481655Y-3138500D01*
X-5338743Y-3138500D01*
X-5244449Y-3119742D01*
X-5198580Y-3110619D01*
X-5066547Y-3055929D01*
X-4947721Y-2976532D01*
X-4846668Y-2875479D01*
X-4821710Y-2838126D01*
X24650000Y-2838126D01*
X24650000Y-2985873D01*
X24678820Y-3130759D01*
X24678822Y-3130767D01*
X24722421Y-3236024D01*
X25046446Y-2912000D01*
X25046446Y-2911999D01*
X25026556Y-2892109D01*
X25300000Y-2892109D01*
X25300000Y-2931891D01*
X25315224Y-2968645D01*
X25343355Y-2996776D01*
X25380109Y-3012000D01*
X25419891Y-3012000D01*
X25456645Y-2996776D01*
X25484776Y-2968645D01*
X25500000Y-2931891D01*
X25500000Y-2911999D01*
X25753554Y-2911999D01*
X25753554Y-2912001D01*
X26077577Y-3236024D01*
X26077578Y-3236024D01*
X26121175Y-3130775D01*
X26121179Y-3130760D01*
X26149999Y-2985873D01*
X26150000Y-2985871D01*
X26150000Y-2838128D01*
X26149999Y-2838126D01*
X26550000Y-2838126D01*
X26550000Y-2985873D01*
X26578820Y-3130759D01*
X26578822Y-3130767D01*
X26622421Y-3236024D01*
X26946446Y-2912000D01*
X26946446Y-2911999D01*
X26926556Y-2892109D01*
X27200000Y-2892109D01*
X27200000Y-2931891D01*
X27215224Y-2968645D01*
X27243355Y-2996776D01*
X27280109Y-3012000D01*
X27319891Y-3012000D01*
X27356645Y-2996776D01*
X27384776Y-2968645D01*
X27400000Y-2931891D01*
X27400000Y-2911999D01*
X27653554Y-2911999D01*
X27653554Y-2912001D01*
X27977577Y-3236024D01*
X27977578Y-3236024D01*
X28021175Y-3130775D01*
X28021179Y-3130760D01*
X28049999Y-2985873D01*
X28050000Y-2985871D01*
X28050000Y-2838128D01*
X28049999Y-2838126D01*
X28021179Y-2693240D01*
X28021178Y-2693236D01*
X27977577Y-2587975D01*
X27653554Y-2911999D01*
X27400000Y-2911999D01*
X27400000Y-2892109D01*
X27384776Y-2855355D01*
X27356645Y-2827224D01*
X27319891Y-2812000D01*
X27280109Y-2812000D01*
X27243355Y-2827224D01*
X27215224Y-2855355D01*
X27200000Y-2892109D01*
X26926556Y-2892109D01*
X26622421Y-2587974D01*
X26622420Y-2587974D01*
X26578823Y-2693228D01*
X26578820Y-2693240D01*
X26550000Y-2838126D01*
X26149999Y-2838126D01*
X26121179Y-2693240D01*
X26121178Y-2693236D01*
X26077577Y-2587975D01*
X25753554Y-2911999D01*
X25500000Y-2911999D01*
X25500000Y-2892109D01*
X25484776Y-2855355D01*
X25456645Y-2827224D01*
X25419891Y-2812000D01*
X25380109Y-2812000D01*
X25343355Y-2827224D01*
X25315224Y-2855355D01*
X25300000Y-2892109D01*
X25026556Y-2892109D01*
X24722421Y-2587974D01*
X24722420Y-2587974D01*
X24678823Y-2693228D01*
X24678820Y-2693240D01*
X24650000Y-2838126D01*
X-4821710Y-2838126D01*
X-4804253Y-2812000D01*
X-4771610Y-2763148D01*
X-4767274Y-2756657D01*
X-4767271Y-2756653D01*
X-4712581Y-2624620D01*
X-4684700Y-2484455D01*
X-4684700Y-2341545D01*
X-4684700Y-2341542D01*
X-4705495Y-2237000D01*
X25078554Y-2237000D01*
X25400000Y-2558446D01*
X25721446Y-2237000D01*
X26978554Y-2237000D01*
X27300000Y-2558446D01*
X27621446Y-2237000D01*
X27300000Y-1915554D01*
X26978554Y-2237000D01*
X25721446Y-2237000D01*
X25400000Y-1915554D01*
X25078554Y-2237000D01*
X-4705495Y-2237000D01*
X-4710900Y-2209830D01*
X-4710901Y-2209828D01*
X-4712581Y-2201380D01*
X-4767271Y-2069347D01*
X-4767272Y-2069346D01*
X-4767275Y-2069340D01*
X-4846668Y-1950521D01*
X-4846671Y-1950517D01*
X-4947718Y-1849470D01*
X-4947722Y-1849467D01*
X-5066541Y-1770074D01*
X-5066550Y-1770069D01*
X-5198580Y-1715381D01*
X-5198586Y-1715379D01*
X-5338743Y-1687500D01*
X-5338745Y-1687500D01*
X-5481655Y-1687500D01*
X-5481657Y-1687500D01*
X-5621815Y-1715379D01*
X-5621821Y-1715381D01*
X-5753851Y-1770069D01*
X-5753860Y-1770074D01*
X-5872679Y-1849467D01*
X-5872683Y-1849470D01*
X-5973730Y-1950517D01*
X-5973733Y-1950521D01*
X-6053126Y-2069340D01*
X-6053131Y-2069349D01*
X-6107819Y-2201379D01*
X-6107821Y-2201385D01*
X-6135700Y-2341542D01*
X-6135700Y-2341545D01*
X-6135700Y-2484455D01*
X-6135700Y-2484457D01*
X-6135701Y-2484457D01*
X-21989500Y-2484457D01*
X-21989500Y-1138257D01*
X-4764101Y-1138257D01*
X-4736221Y-1278414D01*
X-4736219Y-1278420D01*
X-4681531Y-1410450D01*
X-4681526Y-1410459D01*
X-4602133Y-1529278D01*
X-4602130Y-1529282D01*
X-4501083Y-1630329D01*
X-4501079Y-1630332D01*
X-4382260Y-1709725D01*
X-4382254Y-1709728D01*
X-4382253Y-1709729D01*
X-4250220Y-1764419D01*
X-4250216Y-1764419D01*
X-4250215Y-1764420D01*
X-4110058Y-1792300D01*
X-4110055Y-1792300D01*
X-3967143Y-1792300D01*
X-3872849Y-1773542D01*
X-3826980Y-1764419D01*
X-3694947Y-1709729D01*
X-3576121Y-1630332D01*
X-3475068Y-1529279D01*
X-3447571Y-1488126D01*
X24650000Y-1488126D01*
X24650000Y-1635873D01*
X24678820Y-1780759D01*
X24678822Y-1780767D01*
X24722421Y-1886024D01*
X25046446Y-1562000D01*
X25046446Y-1561999D01*
X25026556Y-1542109D01*
X25300000Y-1542109D01*
X25300000Y-1581891D01*
X25315224Y-1618645D01*
X25343355Y-1646776D01*
X25380109Y-1662000D01*
X25419891Y-1662000D01*
X25456645Y-1646776D01*
X25484776Y-1618645D01*
X25500000Y-1581891D01*
X25500000Y-1561999D01*
X25753554Y-1561999D01*
X25753554Y-1562001D01*
X26077577Y-1886024D01*
X26077578Y-1886024D01*
X26121175Y-1780775D01*
X26121179Y-1780760D01*
X26149999Y-1635873D01*
X26150000Y-1635871D01*
X26150000Y-1488128D01*
X26149999Y-1488126D01*
X26550000Y-1488126D01*
X26550000Y-1635873D01*
X26578820Y-1780759D01*
X26578822Y-1780767D01*
X26622421Y-1886024D01*
X26946446Y-1562000D01*
X26946446Y-1561999D01*
X26926556Y-1542109D01*
X27200000Y-1542109D01*
X27200000Y-1581891D01*
X27215224Y-1618645D01*
X27243355Y-1646776D01*
X27280109Y-1662000D01*
X27319891Y-1662000D01*
X27356645Y-1646776D01*
X27384776Y-1618645D01*
X27400000Y-1581891D01*
X27400000Y-1561999D01*
X27653554Y-1561999D01*
X27653554Y-1562001D01*
X27977577Y-1886024D01*
X27977578Y-1886024D01*
X28021175Y-1780775D01*
X28021179Y-1780760D01*
X28049999Y-1635873D01*
X28050000Y-1635871D01*
X28050000Y-1488128D01*
X28049999Y-1488126D01*
X28021179Y-1343240D01*
X28021178Y-1343236D01*
X27977577Y-1237975D01*
X27653554Y-1561999D01*
X27400000Y-1561999D01*
X27400000Y-1542109D01*
X27384776Y-1505355D01*
X27356645Y-1477224D01*
X27319891Y-1462000D01*
X27280109Y-1462000D01*
X27243355Y-1477224D01*
X27215224Y-1505355D01*
X27200000Y-1542109D01*
X26926556Y-1542109D01*
X26622421Y-1237974D01*
X26622420Y-1237974D01*
X26578823Y-1343228D01*
X26578820Y-1343240D01*
X26550000Y-1488126D01*
X26149999Y-1488126D01*
X26121179Y-1343240D01*
X26121178Y-1343236D01*
X26077577Y-1237975D01*
X25753554Y-1561999D01*
X25500000Y-1561999D01*
X25500000Y-1542109D01*
X25484776Y-1505355D01*
X25456645Y-1477224D01*
X25419891Y-1462000D01*
X25380109Y-1462000D01*
X25343355Y-1477224D01*
X25315224Y-1505355D01*
X25300000Y-1542109D01*
X25026556Y-1542109D01*
X24722421Y-1237974D01*
X24722420Y-1237974D01*
X24678823Y-1343228D01*
X24678820Y-1343240D01*
X24650000Y-1488126D01*
X-3447571Y-1488126D01*
X-3438289Y-1474234D01*
X-3397471Y-1413148D01*
X-3395674Y-1410457D01*
X-3395671Y-1410453D01*
X-3340981Y-1278420D01*
X-3326486Y-1205549D01*
X-3313100Y-1138257D01*
X-3313100Y-995342D01*
X-3334651Y-887000D01*
X25078554Y-887000D01*
X25400000Y-1208446D01*
X25721446Y-887000D01*
X26978554Y-887000D01*
X27300000Y-1208446D01*
X27621446Y-887000D01*
X27300000Y-565554D01*
X26978554Y-887000D01*
X25721446Y-887000D01*
X25400000Y-565554D01*
X25078554Y-887000D01*
X-3334651Y-887000D01*
X-3340056Y-859830D01*
X-3340057Y-859827D01*
X-3340981Y-855180D01*
X-3395671Y-723147D01*
X-3395672Y-723146D01*
X-3395675Y-723140D01*
X-3475068Y-604321D01*
X-3475071Y-604317D01*
X-3576118Y-503270D01*
X-3576122Y-503267D01*
X-3694941Y-423874D01*
X-3694950Y-423869D01*
X-3826980Y-369181D01*
X-3826986Y-369179D01*
X-3967143Y-341300D01*
X-3967145Y-341300D01*
X-4110055Y-341300D01*
X-4110057Y-341300D01*
X-4250215Y-369179D01*
X-4250221Y-369181D01*
X-4382251Y-423869D01*
X-4382260Y-423874D01*
X-4501079Y-503267D01*
X-4501083Y-503270D01*
X-4602130Y-604317D01*
X-4602133Y-604321D01*
X-4681526Y-723140D01*
X-4681531Y-723149D01*
X-4736219Y-855179D01*
X-4736221Y-855185D01*
X-4764100Y-995342D01*
X-4764100Y-995345D01*
X-4764100Y-1138255D01*
X-4764100Y-1138257D01*
X-4764101Y-1138257D01*
X-21989500Y-1138257D01*
X-21989500Y-138126D01*
X24650000Y-138126D01*
X24650000Y-285873D01*
X24678820Y-430759D01*
X24678822Y-430767D01*
X24722421Y-536024D01*
X25046446Y-212000D01*
X25046446Y-211999D01*
X25026556Y-192109D01*
X25300000Y-192109D01*
X25300000Y-231891D01*
X25315224Y-268645D01*
X25343355Y-296776D01*
X25380109Y-312000D01*
X25419891Y-312000D01*
X25456645Y-296776D01*
X25484776Y-268645D01*
X25500000Y-231891D01*
X25500000Y-211999D01*
X25753554Y-211999D01*
X25753554Y-212001D01*
X26077577Y-536024D01*
X26077578Y-536024D01*
X26121175Y-430775D01*
X26121179Y-430760D01*
X26149999Y-285873D01*
X26150000Y-285871D01*
X26150000Y-138128D01*
X26149999Y-138126D01*
X26550000Y-138126D01*
X26550000Y-285873D01*
X26578820Y-430759D01*
X26578822Y-430767D01*
X26622421Y-536024D01*
X26946446Y-212000D01*
X26946446Y-211999D01*
X26926556Y-192109D01*
X27200000Y-192109D01*
X27200000Y-231891D01*
X27215224Y-268645D01*
X27243355Y-296776D01*
X27280109Y-312000D01*
X27319891Y-312000D01*
X27356645Y-296776D01*
X27384776Y-268645D01*
X27400000Y-231891D01*
X27400000Y-211999D01*
X27653554Y-211999D01*
X27653554Y-212001D01*
X27977577Y-536024D01*
X27977578Y-536024D01*
X28021175Y-430775D01*
X28021179Y-430760D01*
X28049999Y-285873D01*
X28050000Y-285871D01*
X28050000Y-138128D01*
X28049999Y-138126D01*
X28021179Y6760D01*
X28021176Y6773D01*
X27997604Y63679D01*
X27997592Y63706D01*
X27979954Y106287D01*
X32524500Y106287D01*
X32524500Y-106286D01*
X32554670Y-296776D01*
X32557754Y-316243D01*
X32618522Y-503268D01*
X32623444Y-518414D01*
X32719951Y-707820D01*
X32844890Y-879786D01*
X32983705Y-1018601D01*
X33017190Y-1079924D01*
X33012206Y-1149616D01*
X32970334Y-1205549D01*
X32961121Y-1211821D01*
X32806342Y-1307289D01*
X32682289Y-1431342D01*
X32590187Y-1580663D01*
X32590186Y-1580666D01*
X32535001Y-1747203D01*
X32535001Y-1747204D01*
X32535000Y-1747204D01*
X32524500Y-1849983D01*
X32524500Y-3150001D01*
X32524501Y-3150018D01*
X32535000Y-3252796D01*
X32535001Y-3252799D01*
X32539228Y-3265554D01*
X32590186Y-3419334D01*
X32682288Y-3568656D01*
X32806344Y-3692712D01*
X32955666Y-3784814D01*
X33122203Y-3839999D01*
X33224991Y-3850500D01*
X34775008Y-3850499D01*
X34877797Y-3839999D01*
X35044334Y-3784814D01*
X35094032Y-3754160D01*
X35161421Y-3735720D01*
X35228085Y-3756642D01*
X35272855Y-3810283D01*
X35281517Y-3879614D01*
X35251321Y-3942622D01*
X35246809Y-3947380D01*
X35177297Y-4016892D01*
X35073281Y-4172562D01*
X35073276Y-4172571D01*
X35001627Y-4345548D01*
X35001625Y-4345556D01*
X34965100Y-4529179D01*
X34965100Y-4716420D01*
X35001625Y-4900043D01*
X35001627Y-4900051D01*
X35073276Y-5073028D01*
X35073281Y-5073037D01*
X35177297Y-5228707D01*
X35177300Y-5228711D01*
X35309688Y-5361099D01*
X35309692Y-5361102D01*
X35465362Y-5465118D01*
X35465368Y-5465121D01*
X35465369Y-5465122D01*
X35638349Y-5536773D01*
X35821979Y-5573299D01*
X35821983Y-5573300D01*
X35821984Y-5573300D01*
X36009217Y-5573300D01*
X36009218Y-5573299D01*
X36192851Y-5536773D01*
X36365831Y-5465122D01*
X36521508Y-5361102D01*
X36653902Y-5228708D01*
X36757922Y-5073031D01*
X36829573Y-4900051D01*
X36866100Y-4716416D01*
X36866100Y-4529184D01*
X36829573Y-4345549D01*
X36757922Y-4172569D01*
X36757921Y-4172568D01*
X36757918Y-4172562D01*
X36653902Y-4016892D01*
X36653899Y-4016888D01*
X36521511Y-3884500D01*
X36521507Y-3884497D01*
X36365837Y-3780481D01*
X36365828Y-3780476D01*
X36192851Y-3708827D01*
X36192843Y-3708825D01*
X36009220Y-3672300D01*
X36009216Y-3672300D01*
X35821984Y-3672300D01*
X35821979Y-3672300D01*
X35638356Y-3708825D01*
X35638348Y-3708827D01*
X35465371Y-3780476D01*
X35465359Y-3780483D01*
X35428831Y-3804890D01*
X35362153Y-3825767D01*
X35294774Y-3807281D01*
X35248084Y-3755302D01*
X35236909Y-3686332D01*
X35264796Y-3622268D01*
X35272251Y-3614116D01*
X35317712Y-3568656D01*
X35409814Y-3419334D01*
X35464999Y-3252797D01*
X35475500Y-3150009D01*
X35475499Y-1849992D01*
X35475445Y-1849468D01*
X35464999Y-1747203D01*
X35464998Y-1747200D01*
X35454454Y-1715381D01*
X35409814Y-1580666D01*
X35317712Y-1431344D01*
X35193656Y-1307288D01*
X35044334Y-1215186D01*
X35044333Y-1215185D01*
X35038878Y-1211821D01*
X34992154Y-1159873D01*
X34980931Y-1090910D01*
X35008775Y-1026828D01*
X35016272Y-1018623D01*
X35155104Y-879792D01*
X35280051Y-707816D01*
X35376557Y-518412D01*
X35442246Y-316243D01*
X35475500Y-106287D01*
X35475500Y106287D01*
X35442246Y316243D01*
X35376557Y518412D01*
X35280051Y707816D01*
X35280049Y707819D01*
X35280048Y707821D01*
X35155109Y879787D01*
X35004790Y1030106D01*
X35004785Y1030110D01*
X34839781Y1149992D01*
X34797115Y1205322D01*
X34791136Y1274935D01*
X34823741Y1336730D01*
X34839781Y1350629D01*
X35004466Y1470279D01*
X35154723Y1620536D01*
X35154727Y1620541D01*
X35279620Y1792443D01*
X35376095Y1981783D01*
X35441757Y2183871D01*
X35441757Y2183874D01*
X35452231Y2250000D01*
X34404146Y2250000D01*
X34442630Y2316657D01*
X34475000Y2437465D01*
X34475000Y2562535D01*
X34442630Y2683343D01*
X34404146Y2750000D01*
X35452231Y2750000D01*
X35441757Y2816127D01*
X35441757Y2816130D01*
X35376095Y3018218D01*
X35279620Y3207558D01*
X35154727Y3379460D01*
X35154723Y3379465D01*
X35004464Y3529724D01*
X35004459Y3529728D01*
X34832557Y3654621D01*
X34643217Y3751096D01*
X34441128Y3816758D01*
X34250000Y3847031D01*
X34250000Y2904146D01*
X34183343Y2942630D01*
X34062535Y2975000D01*
X33937465Y2975000D01*
X33816657Y2942630D01*
X33750000Y2904146D01*
X33750000Y3847031D01*
X33558872Y3816758D01*
X33558869Y3816758D01*
X33356782Y3751096D01*
X33167442Y3654621D01*
X32995540Y3529728D01*
X32995535Y3529724D01*
X32845276Y3379465D01*
X32845272Y3379460D01*
X32720379Y3207558D01*
X32623904Y3018218D01*
X32558242Y2816130D01*
X32558242Y2816127D01*
X32547769Y2750000D01*
X33595854Y2750000D01*
X33557370Y2683343D01*
X33525000Y2562535D01*
X33525000Y2437465D01*
X33557370Y2316657D01*
X33595854Y2250000D01*
X32547769Y2250000D01*
X32558242Y2183874D01*
X32558242Y2183871D01*
X32623904Y1981783D01*
X32720379Y1792443D01*
X32845272Y1620541D01*
X32845276Y1620536D01*
X32995535Y1470277D01*
X32995540Y1470273D01*
X33160218Y1350628D01*
X33202884Y1295299D01*
X33208863Y1225685D01*
X33176258Y1163890D01*
X33160218Y1149992D01*
X32995214Y1030110D01*
X32995209Y1030106D01*
X32844890Y879787D01*
X32719951Y707821D01*
X32623444Y518415D01*
X32557753Y316240D01*
X32524500Y106287D01*
X27979954Y106287D01*
X27977577Y112026D01*
X27653554Y-211999D01*
X27400000Y-211999D01*
X27400000Y-192109D01*
X27384776Y-155355D01*
X27356645Y-127224D01*
X27319891Y-112000D01*
X27280109Y-112000D01*
X27243355Y-127224D01*
X27215224Y-155355D01*
X27200000Y-192109D01*
X26926556Y-192109D01*
X26622421Y112026D01*
X26622420Y112026D01*
X26578823Y6772D01*
X26578820Y6760D01*
X26550000Y-138126D01*
X26149999Y-138126D01*
X26121179Y6760D01*
X26121178Y6764D01*
X26077577Y112025D01*
X25753554Y-211999D01*
X25500000Y-211999D01*
X25500000Y-192109D01*
X25484776Y-155355D01*
X25456645Y-127224D01*
X25419891Y-112000D01*
X25380109Y-112000D01*
X25343355Y-127224D01*
X25315224Y-155355D01*
X25300000Y-192109D01*
X25026556Y-192109D01*
X24722421Y112026D01*
X24722420Y112026D01*
X24678823Y6772D01*
X24678820Y6760D01*
X24650000Y-138126D01*
X-21989500Y-138126D01*
X-21989500Y465580D01*
X25075974Y465580D01*
X25075974Y465579D01*
X25400000Y141554D01*
X25400001Y141554D01*
X25724024Y465579D01*
X25724022Y465580D01*
X26975974Y465580D01*
X26975974Y465579D01*
X27300000Y141554D01*
X27300001Y141554D01*
X27624024Y465579D01*
X27518767Y509178D01*
X27518759Y509180D01*
X27373872Y538000D01*
X27226128Y538000D01*
X27081240Y509180D01*
X27081228Y509177D01*
X26975974Y465580D01*
X25724022Y465580D01*
X25618767Y509178D01*
X25618759Y509180D01*
X25473872Y538000D01*
X25326128Y538000D01*
X25181240Y509180D01*
X25181228Y509177D01*
X25075974Y465580D01*
X-21989500Y465580D01*
X-21989500Y5287943D01*
X-14136701Y5287943D01*
X-14108821Y5147786D01*
X-14108819Y5147780D01*
X-14054131Y5015750D01*
X-14054126Y5015741D01*
X-13974733Y4896922D01*
X-13974730Y4896918D01*
X-13873683Y4795871D01*
X-13873679Y4795868D01*
X-13754860Y4716475D01*
X-13754854Y4716472D01*
X-13754853Y4716471D01*
X-13622820Y4661781D01*
X-13622816Y4661781D01*
X-13622815Y4661780D01*
X-13482658Y4633900D01*
X-13482655Y4633900D01*
X-13339743Y4633900D01*
X-13245449Y4652658D01*
X-13199580Y4661781D01*
X-13067547Y4716471D01*
X-12948721Y4795868D01*
X-12847668Y4896921D01*
X-12768271Y5015747D01*
X-12713581Y5147780D01*
X-12694047Y5245982D01*
X-12685700Y5287943D01*
X-12685700Y5430858D01*
X-12713580Y5571015D01*
X-12713581Y5571016D01*
X-12713581Y5571020D01*
X-12768271Y5703053D01*
X-12768272Y5703054D01*
X-12768275Y5703060D01*
X-12847668Y5821879D01*
X-12847671Y5821883D01*
X-12897931Y5872143D01*
X-4510101Y5872143D01*
X-4482221Y5731986D01*
X-4482219Y5731980D01*
X-4427531Y5599950D01*
X-4427526Y5599941D01*
X-4348133Y5481122D01*
X-4348130Y5481118D01*
X-4247083Y5380071D01*
X-4247079Y5380068D01*
X-4128260Y5300675D01*
X-4128254Y5300672D01*
X-4128253Y5300671D01*
X-3996220Y5245981D01*
X-3996216Y5245981D01*
X-3996215Y5245980D01*
X-3856058Y5218100D01*
X-3856055Y5218100D01*
X-3713143Y5218100D01*
X-3618849Y5236858D01*
X-3572980Y5245981D01*
X-3440947Y5300671D01*
X-3322121Y5380068D01*
X-3221068Y5481121D01*
X-3141671Y5599947D01*
X-3086981Y5731980D01*
X-3084363Y5745143D01*
X2322499Y5745143D01*
X2350379Y5604986D01*
X2350381Y5604980D01*
X2405069Y5472950D01*
X2405074Y5472941D01*
X2484467Y5354122D01*
X2484470Y5354118D01*
X2585517Y5253071D01*
X2585521Y5253068D01*
X2704340Y5173675D01*
X2704346Y5173672D01*
X2704347Y5173671D01*
X2836380Y5118981D01*
X2836384Y5118981D01*
X2836385Y5118980D01*
X2976542Y5091100D01*
X2976545Y5091100D01*
X3119457Y5091100D01*
X3213751Y5109858D01*
X3259620Y5118981D01*
X3391653Y5173671D01*
X3510479Y5253068D01*
X3611532Y5354121D01*
X3690929Y5472947D01*
X3745619Y5604980D01*
X3765129Y5703060D01*
X3773500Y5745143D01*
X3773500Y5888058D01*
X3745620Y6028215D01*
X3745619Y6028216D01*
X3745619Y6028220D01*
X3690929Y6160253D01*
X3690928Y6160254D01*
X3690925Y6160260D01*
X3611532Y6279079D01*
X3611529Y6279083D01*
X3510482Y6380130D01*
X3510478Y6380133D01*
X3391659Y6459526D01*
X3391650Y6459531D01*
X3259620Y6514219D01*
X3259614Y6514221D01*
X3119457Y6542100D01*
X3119455Y6542100D01*
X2976545Y6542100D01*
X2976543Y6542100D01*
X2836385Y6514221D01*
X2836379Y6514219D01*
X2704349Y6459531D01*
X2704340Y6459526D01*
X2585521Y6380133D01*
X2585517Y6380130D01*
X2484470Y6279083D01*
X2484467Y6279079D01*
X2405074Y6160260D01*
X2405069Y6160251D01*
X2350381Y6028221D01*
X2350379Y6028215D01*
X2322500Y5888058D01*
X2322500Y5888055D01*
X2322500Y5745145D01*
X2322500Y5745143D01*
X2322499Y5745143D01*
X-3084363Y5745143D01*
X-3063025Y5852412D01*
X-3059100Y5872143D01*
X-3059100Y6015058D01*
X-3086980Y6155215D01*
X-3086981Y6155216D01*
X-3086981Y6155220D01*
X-3141671Y6287253D01*
X-3141672Y6287254D01*
X-3141675Y6287260D01*
X-3221068Y6406079D01*
X-3221071Y6406083D01*
X-3322118Y6507130D01*
X-3322122Y6507133D01*
X-3440941Y6586526D01*
X-3440950Y6586531D01*
X-3572980Y6641219D01*
X-3572986Y6641221D01*
X-3713143Y6669100D01*
X-3713145Y6669100D01*
X-3856055Y6669100D01*
X-3856057Y6669100D01*
X-3996215Y6641221D01*
X-3996221Y6641219D01*
X-4128251Y6586531D01*
X-4128260Y6586526D01*
X-4247079Y6507133D01*
X-4247083Y6507130D01*
X-4348130Y6406083D01*
X-4348133Y6406079D01*
X-4427526Y6287260D01*
X-4427531Y6287251D01*
X-4482219Y6155221D01*
X-4482221Y6155215D01*
X-4510100Y6015058D01*
X-4510100Y6015055D01*
X-4510100Y5872145D01*
X-4510100Y5872143D01*
X-4510101Y5872143D01*
X-12897931Y5872143D01*
X-12948720Y5922932D01*
X-13067541Y6002326D01*
X-13067550Y6002331D01*
X-13199580Y6057019D01*
X-13199586Y6057021D01*
X-13339743Y6084900D01*
X-13339745Y6084900D01*
X-13482655Y6084900D01*
X-13482657Y6084900D01*
X-13622815Y6057021D01*
X-13622821Y6057019D01*
X-13754851Y6002331D01*
X-13754860Y6002326D01*
X-13873679Y5922933D01*
X-13873683Y5922930D01*
X-13974730Y5821883D01*
X-13974733Y5821879D01*
X-14054126Y5703060D01*
X-14054131Y5703051D01*
X-14108819Y5571021D01*
X-14108821Y5571015D01*
X-14136700Y5430858D01*
X-14136700Y5430855D01*
X-14136700Y5287945D01*
X-14136700Y5287943D01*
X-14136701Y5287943D01*
X-21989500Y5287943D01*
X-21989500Y7980287D01*
X19573500Y7980287D01*
X19573500Y7767714D01*
X19606753Y7557761D01*
X19672444Y7355586D01*
X19768951Y7166180D01*
X19893890Y6994214D01*
X20044213Y6843891D01*
X20216182Y6718950D01*
X20224946Y6714484D01*
X20275742Y6666509D01*
X20292536Y6598688D01*
X20269998Y6532553D01*
X20224946Y6493516D01*
X20216182Y6489051D01*
X20044213Y6364110D01*
X19893890Y6213787D01*
X19768951Y6041821D01*
X19672444Y5852415D01*
X19606753Y5650240D01*
X19573500Y5440287D01*
X19573500Y5227714D01*
X19595137Y5091100D01*
X19606754Y5017757D01*
X19646016Y4896921D01*
X19672444Y4815586D01*
X19768951Y4626180D01*
X19893890Y4454214D01*
X20044213Y4303891D01*
X20068032Y4286586D01*
X20110698Y4231257D01*
X20116677Y4161643D01*
X20084072Y4099848D01*
X20032038Y4067883D01*
X20013062Y4061970D01*
X19866179Y3973176D01*
X19744824Y3851821D01*
X19656031Y3704941D01*
X19604970Y3541078D01*
X19598500Y3469871D01*
X19598500Y2118120D01*
X19604969Y2046924D01*
X19604972Y2046913D01*
X19656029Y1883064D01*
X19656030Y1883062D01*
X19656031Y1883060D01*
X19744822Y1736183D01*
X19744824Y1736180D01*
X19866179Y1614825D01*
X19866181Y1614824D01*
X19866183Y1614822D01*
X20013060Y1526031D01*
X20176919Y1474971D01*
X20248127Y1468500D01*
X21599872Y1468501D01*
X21599879Y1468501D01*
X21671076Y1474970D01*
X21671079Y1474971D01*
X21671081Y1474971D01*
X21834940Y1526031D01*
X21981817Y1614822D01*
X22103178Y1736183D01*
X22191969Y1883060D01*
X22243029Y2046919D01*
X22249500Y2118127D01*
X22249499Y2816127D01*
X22249499Y3469881D01*
X22243030Y3541077D01*
X22243027Y3541088D01*
X22191970Y3704937D01*
X22191969Y3704938D01*
X22191969Y3704940D01*
X22103178Y3851817D01*
X22103176Y3851819D01*
X22103175Y3851821D01*
X21981820Y3973176D01*
X21981817Y3973178D01*
X21834940Y4061969D01*
X21815961Y4067883D01*
X21757815Y4106620D01*
X21729840Y4170645D01*
X21740921Y4239630D01*
X21779969Y4286588D01*
X21803792Y4303896D01*
X21954104Y4454208D01*
X21954106Y4454212D01*
X21954109Y4454214D01*
X22079048Y4626180D01*
X22079047Y4626180D01*
X22079051Y4626184D01*
X22175557Y4815588D01*
X22241246Y5017757D01*
X22274500Y5227713D01*
X22274500Y5440287D01*
X22241246Y5650243D01*
X22175557Y5852412D01*
X22079051Y6041816D01*
X22079049Y6041819D01*
X22079048Y6041821D01*
X21954109Y6213787D01*
X21803786Y6364110D01*
X21631820Y6489049D01*
X21631115Y6489409D01*
X21623054Y6493515D01*
X21572259Y6541488D01*
X21555463Y6609308D01*
X21577999Y6675444D01*
X21623054Y6714485D01*
X21631816Y6718949D01*
X21653789Y6734914D01*
X21803786Y6843891D01*
X21803788Y6843894D01*
X21803792Y6843896D01*
X21954104Y6994208D01*
X21954106Y6994212D01*
X21954109Y6994214D01*
X22074642Y7160116D01*
X22079051Y7166184D01*
X22175557Y7355588D01*
X22241246Y7557757D01*
X22274500Y7767713D01*
X22274500Y7980287D01*
X22241246Y8190243D01*
X22175557Y8392412D01*
X22079051Y8581816D01*
X22079049Y8581819D01*
X22079048Y8581821D01*
X21954109Y8753787D01*
X21803786Y8904110D01*
X21631820Y9029049D01*
X21442414Y9125556D01*
X21442413Y9125557D01*
X21442412Y9125557D01*
X21240243Y9191246D01*
X21240241Y9191247D01*
X21240240Y9191247D01*
X21078957Y9216792D01*
X21030287Y9224500D01*
X20817713Y9224500D01*
X20769042Y9216792D01*
X20607760Y9191247D01*
X20405585Y9125556D01*
X20216179Y9029049D01*
X20044213Y8904110D01*
X19893890Y8753787D01*
X19768951Y8581821D01*
X19672444Y8392415D01*
X19606753Y8190240D01*
X19573500Y7980287D01*
X-21989500Y7980287D01*
X-21989500Y12835845D01*
X-17357000Y12835845D01*
X-17357000Y12188000D01*
X-16440012Y12188000D01*
X-16472925Y12130993D01*
X-16507000Y12003826D01*
X-16507000Y11872174D01*
X-16472925Y11745007D01*
X-16440012Y11688000D01*
X-17357000Y11688000D01*
X-17357000Y11040156D01*
X-17350599Y10980628D01*
X-17350597Y10980621D01*
X-17300355Y10845914D01*
X-17300351Y10845907D01*
X-17214191Y10730813D01*
X-17214188Y10730810D01*
X-17099094Y10644650D01*
X-17099087Y10644646D01*
X-16964380Y10594404D01*
X-16964373Y10594402D01*
X-16904845Y10588001D01*
X-16904828Y10588000D01*
X-16257000Y10588000D01*
X-16257000Y11504988D01*
X-16199993Y11472075D01*
X-16072826Y11438000D01*
X-15941174Y11438000D01*
X-15814007Y11472075D01*
X-15757000Y11504988D01*
X-15757000Y10588000D01*
X-15109172Y10588000D01*
X-15109156Y10588001D01*
X-15049628Y10594402D01*
X-15049621Y10594404D01*
X-14914914Y10644646D01*
X-14914907Y10644650D01*
X-14799813Y10730810D01*
X-14799810Y10730813D01*
X-14713650Y10845907D01*
X-14713646Y10845914D01*
X-14664578Y10977471D01*
X-14622707Y11033405D01*
X-14557243Y11057822D01*
X-14488970Y11042970D01*
X-14460715Y11021819D01*
X-14346787Y10907891D01*
X-14174821Y10782952D01*
X-14174819Y10782951D01*
X-14174816Y10782949D01*
X-13985412Y10686443D01*
X-13783243Y10620754D01*
X-13573287Y10587500D01*
X-13573286Y10587500D01*
X-13360714Y10587500D01*
X-13360713Y10587500D01*
X-13150757Y10620754D01*
X-12948588Y10686443D01*
X-12759184Y10782949D01*
X-12672591Y10845862D01*
X-12587214Y10907891D01*
X-12587212Y10907894D01*
X-12587208Y10907896D01*
X-12436896Y11058208D01*
X-12436894Y11058212D01*
X-12436891Y11058214D01*
X-12311952Y11230180D01*
X-12311953Y11230180D01*
X-12311949Y11230184D01*
X-12215443Y11419588D01*
X-12149754Y11621757D01*
X-12116500Y11831713D01*
X-12116500Y12044287D01*
X-12149754Y12254243D01*
X-12215443Y12456412D01*
X-12311949Y12645816D01*
X-12311951Y12645819D01*
X-12311952Y12645821D01*
X-12399458Y12766264D01*
X-12436891Y12817786D01*
X-12436895Y12817791D01*
X-12454949Y12835845D01*
X-9732000Y12835845D01*
X-9732000Y12188000D01*
X-8815012Y12188000D01*
X-8847925Y12130993D01*
X-8882000Y12003826D01*
X-8882000Y11872174D01*
X-8847925Y11745007D01*
X-8815012Y11688000D01*
X-9732000Y11688000D01*
X-9732000Y11040156D01*
X-9725599Y10980628D01*
X-9725597Y10980621D01*
X-9675355Y10845914D01*
X-9675351Y10845907D01*
X-9589191Y10730813D01*
X-9589188Y10730810D01*
X-9474094Y10644650D01*
X-9474087Y10644646D01*
X-9339380Y10594404D01*
X-9339373Y10594402D01*
X-9279845Y10588001D01*
X-9279828Y10588000D01*
X-8632000Y10588000D01*
X-8632000Y11504988D01*
X-8574993Y11472075D01*
X-8447826Y11438000D01*
X-8316174Y11438000D01*
X-8189007Y11472075D01*
X-8132000Y11504988D01*
X-8132000Y10588000D01*
X-8096191Y10552191D01*
X-8062706Y10490868D01*
X-8067690Y10421176D01*
X-8080770Y10395619D01*
X-8161326Y10275060D01*
X-8161331Y10275051D01*
X-8216019Y10143021D01*
X-8216021Y10143015D01*
X-8243900Y10002858D01*
X-8243900Y10002855D01*
X-8243900Y9859945D01*
X-8243900Y9859943D01*
X-8243901Y9859943D01*
X-8216021Y9719786D01*
X-8216019Y9719780D01*
X-8161331Y9587750D01*
X-8161326Y9587741D01*
X-8081933Y9468922D01*
X-8081930Y9468918D01*
X-7980883Y9367871D01*
X-7980879Y9367868D01*
X-7862060Y9288475D01*
X-7862054Y9288472D01*
X-7862053Y9288471D01*
X-7730020Y9233781D01*
X-7730016Y9233781D01*
X-7730015Y9233780D01*
X-7589858Y9205900D01*
X-7589855Y9205900D01*
X-7446943Y9205900D01*
X-7352649Y9224658D01*
X-7306780Y9233781D01*
X-7174747Y9288471D01*
X-7055921Y9367868D01*
X-6954868Y9468921D01*
X-6875471Y9587747D01*
X-6856813Y9632791D01*
X-6812973Y9687195D01*
X-6746679Y9709260D01*
X-6678979Y9691981D01*
X-6639151Y9654232D01*
X-6634132Y9646720D01*
X-6533083Y9545671D01*
X-6533079Y9545668D01*
X-6414260Y9466275D01*
X-6414254Y9466272D01*
X-6414253Y9466271D01*
X-6282220Y9411581D01*
X-6282216Y9411581D01*
X-6282215Y9411580D01*
X-6142058Y9383700D01*
X-6142055Y9383700D01*
X-5999143Y9383700D01*
X-5903411Y9402743D01*
X3897299Y9402743D01*
X3925179Y9262586D01*
X3925181Y9262580D01*
X3979869Y9130550D01*
X3979874Y9130541D01*
X4059267Y9011722D01*
X4059270Y9011718D01*
X4160317Y8910671D01*
X4160321Y8910668D01*
X4279140Y8831275D01*
X4279149Y8831270D01*
X4309058Y8818882D01*
X4411180Y8776581D01*
X4411184Y8776581D01*
X4411185Y8776580D01*
X4551342Y8748700D01*
X4551345Y8748700D01*
X4694257Y8748700D01*
X4788551Y8767458D01*
X4834420Y8776581D01*
X4966453Y8831271D01*
X5085279Y8910668D01*
X5186332Y9011721D01*
X5265729Y9130547D01*
X5320419Y9262580D01*
X5330525Y9313386D01*
X5348300Y9402743D01*
X5348300Y9545658D01*
X5320420Y9685815D01*
X5320419Y9685816D01*
X5320419Y9685820D01*
X5265729Y9817853D01*
X5265728Y9817854D01*
X5265725Y9817860D01*
X5186332Y9936679D01*
X5186329Y9936683D01*
X5085282Y10037730D01*
X5085278Y10037733D01*
X4966459Y10117126D01*
X4966450Y10117131D01*
X4834420Y10171819D01*
X4834414Y10171821D01*
X4694257Y10199700D01*
X4694255Y10199700D01*
X4551345Y10199700D01*
X4551343Y10199700D01*
X4411185Y10171821D01*
X4411179Y10171819D01*
X4279149Y10117131D01*
X4279140Y10117126D01*
X4160321Y10037733D01*
X4160317Y10037730D01*
X4059270Y9936683D01*
X4059267Y9936679D01*
X3979874Y9817860D01*
X3979869Y9817851D01*
X3925181Y9685821D01*
X3925179Y9685815D01*
X3897300Y9545658D01*
X3897300Y9545655D01*
X3897300Y9402745D01*
X3897300Y9402743D01*
X3897299Y9402743D01*
X-5903411Y9402743D01*
X-5903401Y9402745D01*
X-5858980Y9411581D01*
X-5726947Y9466271D01*
X-5608121Y9545668D01*
X-5566035Y9587754D01*
X-5514360Y9639428D01*
X-5507071Y9646718D01*
X-5507069Y9646720D01*
X-5507068Y9646721D01*
X-5427671Y9765547D01*
X-5372981Y9897580D01*
X-5352040Y10002855D01*
X-5345100Y10037743D01*
X-5345100Y10180658D01*
X-5372980Y10320815D01*
X-5372981Y10320816D01*
X-5372981Y10320820D01*
X-5427671Y10452853D01*
X-5427672Y10452854D01*
X-5427675Y10452860D01*
X-5446336Y10480788D01*
X-5467214Y10547465D01*
X-5453751Y10596543D01*
X5954699Y10596543D01*
X5982579Y10456386D01*
X5982581Y10456380D01*
X6037269Y10324350D01*
X6037274Y10324341D01*
X6116667Y10205522D01*
X6116670Y10205518D01*
X6177723Y10144465D01*
X6211208Y10083142D01*
X6206224Y10013450D01*
X6193144Y9987893D01*
X6113474Y9868660D01*
X6113469Y9868651D01*
X6058781Y9736621D01*
X6058779Y9736615D01*
X6030900Y9596458D01*
X6030900Y9596455D01*
X6030900Y9453545D01*
X6030900Y9453543D01*
X6030899Y9453543D01*
X6058779Y9313386D01*
X6058781Y9313380D01*
X6113469Y9181350D01*
X6113474Y9181341D01*
X6192867Y9062522D01*
X6192870Y9062518D01*
X6293917Y8961471D01*
X6293921Y8961468D01*
X6412740Y8882075D01*
X6412746Y8882072D01*
X6412747Y8882071D01*
X6544780Y8827381D01*
X6544784Y8827381D01*
X6544785Y8827380D01*
X6684942Y8799500D01*
X6684945Y8799500D01*
X6827857Y8799500D01*
X6922151Y8818258D01*
X6968020Y8827381D01*
X7100053Y8882071D01*
X7218879Y8961468D01*
X7319932Y9062521D01*
X7399329Y9181347D01*
X7454019Y9313380D01*
X7473553Y9411582D01*
X7481900Y9453543D01*
X7481900Y9596458D01*
X7454020Y9736615D01*
X7454019Y9736616D01*
X7454019Y9736620D01*
X7399329Y9868653D01*
X7399328Y9868654D01*
X7399325Y9868660D01*
X7319932Y9987479D01*
X7319929Y9987483D01*
X7258876Y10048536D01*
X7243965Y10075843D01*
X9599599Y10075843D01*
X9627479Y9935686D01*
X9627481Y9935680D01*
X9682169Y9803650D01*
X9682174Y9803641D01*
X9761567Y9684822D01*
X9761570Y9684818D01*
X9862617Y9583771D01*
X9862621Y9583768D01*
X9981440Y9504375D01*
X9981446Y9504372D01*
X9981447Y9504371D01*
X10113480Y9449681D01*
X10113484Y9449681D01*
X10113485Y9449680D01*
X10253642Y9421800D01*
X10253645Y9421800D01*
X10396557Y9421800D01*
X10490851Y9440558D01*
X10536720Y9449681D01*
X10668753Y9504371D01*
X10787579Y9583768D01*
X10888632Y9684821D01*
X10968029Y9803647D01*
X11022719Y9935680D01*
X11038189Y10013450D01*
X11050600Y10075843D01*
X11050600Y10218758D01*
X11022720Y10358915D01*
X11022719Y10358916D01*
X11022719Y10358920D01*
X10980418Y10461042D01*
X10968030Y10490951D01*
X10968025Y10490960D01*
X10888632Y10609779D01*
X10888629Y10609783D01*
X10787582Y10710830D01*
X10787578Y10710833D01*
X10668759Y10790226D01*
X10668750Y10790231D01*
X10536720Y10844919D01*
X10536714Y10844921D01*
X10396557Y10872800D01*
X10396555Y10872800D01*
X10253645Y10872800D01*
X10253643Y10872800D01*
X10113485Y10844921D01*
X10113479Y10844919D01*
X9981449Y10790231D01*
X9981440Y10790226D01*
X9862621Y10710833D01*
X9862617Y10710830D01*
X9761570Y10609783D01*
X9761567Y10609779D01*
X9682174Y10490960D01*
X9682169Y10490951D01*
X9627481Y10358921D01*
X9627479Y10358915D01*
X9599600Y10218758D01*
X9599600Y10218755D01*
X9599600Y10075845D01*
X9599600Y10075843D01*
X9599599Y10075843D01*
X7243965Y10075843D01*
X7243660Y10076402D01*
X7226975Y10103413D01*
X7227036Y10106846D01*
X7225391Y10109859D01*
X7227655Y10141531D01*
X7228223Y10173271D01*
X7230225Y10177456D01*
X7230375Y10179551D01*
X7243455Y10205109D01*
X7243726Y10205516D01*
X7243732Y10205521D01*
X7323129Y10324347D01*
X7377819Y10456380D01*
X7395937Y10547465D01*
X7405700Y10596543D01*
X7405700Y10739458D01*
X7377820Y10879615D01*
X7377819Y10879616D01*
X7377819Y10879620D01*
X7323129Y11011653D01*
X7323128Y11011654D01*
X7323125Y11011660D01*
X7243732Y11130479D01*
X7243729Y11130483D01*
X7142682Y11231530D01*
X7142678Y11231533D01*
X7023859Y11310926D01*
X7023850Y11310931D01*
X6891820Y11365619D01*
X6891814Y11365621D01*
X6751657Y11393500D01*
X6751655Y11393500D01*
X6608745Y11393500D01*
X6608743Y11393500D01*
X6468585Y11365621D01*
X6468579Y11365619D01*
X6336549Y11310931D01*
X6336540Y11310926D01*
X6217721Y11231533D01*
X6217717Y11231530D01*
X6116670Y11130483D01*
X6116667Y11130479D01*
X6037274Y11011660D01*
X6037269Y11011651D01*
X5982581Y10879621D01*
X5982579Y10879615D01*
X5954700Y10739458D01*
X5954700Y10739455D01*
X5954700Y10596545D01*
X5954700Y10596543D01*
X5954699Y10596543D01*
X-5453751Y10596543D01*
X-5448730Y10614846D01*
X-5396751Y10661536D01*
X-5381562Y10667607D01*
X-5323588Y10686443D01*
X-5134184Y10782949D01*
X-4962208Y10907896D01*
X-4811896Y11058208D01*
X-4811894Y11058212D01*
X-4811891Y11058214D01*
X-4686952Y11230180D01*
X-4686953Y11230180D01*
X-4686949Y11230184D01*
X-4590443Y11419588D01*
X-4524754Y11621757D01*
X-4491500Y11831713D01*
X-4491500Y12044287D01*
X-4524754Y12254243D01*
X-4590443Y12456412D01*
X-4686949Y12645816D01*
X-4686951Y12645819D01*
X-4686952Y12645821D01*
X-4811891Y12817787D01*
X-4962214Y12968110D01*
X-5134180Y13093049D01*
X-5323586Y13189556D01*
X-5323587Y13189557D01*
X-5323588Y13189557D01*
X-5525757Y13255246D01*
X-5525759Y13255247D01*
X-5525760Y13255247D01*
X-5687043Y13280792D01*
X-5735713Y13288500D01*
X-5948287Y13288500D01*
X-5996958Y13280792D01*
X-6158240Y13255247D01*
X-6360415Y13189556D01*
X-6549821Y13093049D01*
X-6721785Y12968111D01*
X-6835715Y12854181D01*
X-6897038Y12820697D01*
X-6966730Y12825681D01*
X-7022663Y12867553D01*
X-7039578Y12898530D01*
X-7088646Y13030087D01*
X-7088650Y13030094D01*
X-7174810Y13145188D01*
X-7174813Y13145191D01*
X-7289907Y13231351D01*
X-7289914Y13231355D01*
X-7424621Y13281597D01*
X-7424628Y13281599D01*
X-7484156Y13288000D01*
X-8132000Y13288000D01*
X-8132000Y12371012D01*
X-8189007Y12403925D01*
X-8316174Y12438000D01*
X-8447826Y12438000D01*
X-8574993Y12403925D01*
X-8632000Y12371012D01*
X-8632000Y13288000D01*
X-9279845Y13288000D01*
X-9339373Y13281599D01*
X-9339380Y13281597D01*
X-9474087Y13231355D01*
X-9474094Y13231351D01*
X-9589188Y13145191D01*
X-9589191Y13145188D01*
X-9675351Y13030094D01*
X-9675355Y13030087D01*
X-9725597Y12895380D01*
X-9725599Y12895373D01*
X-9732000Y12835845D01*
X-12454949Y12835845D01*
X-12587214Y12968110D01*
X-12759180Y13093049D01*
X-12948586Y13189556D01*
X-12948587Y13189557D01*
X-12948588Y13189557D01*
X-13150757Y13255246D01*
X-13150759Y13255247D01*
X-13150760Y13255247D01*
X-13312043Y13280792D01*
X-13360713Y13288500D01*
X-13573287Y13288500D01*
X-13621958Y13280792D01*
X-13783240Y13255247D01*
X-13985415Y13189556D01*
X-14174821Y13093049D01*
X-14346785Y12968111D01*
X-14460715Y12854181D01*
X-14522038Y12820697D01*
X-14591730Y12825681D01*
X-14647663Y12867553D01*
X-14664578Y12898530D01*
X-14713646Y13030087D01*
X-14713650Y13030094D01*
X-14799810Y13145188D01*
X-14799813Y13145191D01*
X-14914907Y13231351D01*
X-14914914Y13231355D01*
X-15049621Y13281597D01*
X-15049628Y13281599D01*
X-15109156Y13288000D01*
X-15757000Y13288000D01*
X-15757000Y12371012D01*
X-15814007Y12403925D01*
X-15941174Y12438000D01*
X-16072826Y12438000D01*
X-16199993Y12403925D01*
X-16257000Y12371012D01*
X-16257000Y13288000D01*
X-16904845Y13288000D01*
X-16964373Y13281599D01*
X-16964380Y13281597D01*
X-17099087Y13231355D01*
X-17099094Y13231351D01*
X-17214188Y13145191D01*
X-17214191Y13145188D01*
X-17300351Y13030094D01*
X-17300355Y13030087D01*
X-17350597Y12895380D01*
X-17350599Y12895373D01*
X-17357000Y12835845D01*
X-21989500Y12835845D01*
X-21989500Y14071611D01*
X13979967Y14071611D01*
X14007847Y13931454D01*
X14007849Y13931448D01*
X14062537Y13799418D01*
X14062542Y13799409D01*
X14141935Y13680590D01*
X14141938Y13680586D01*
X14242985Y13579539D01*
X14242989Y13579536D01*
X14361808Y13500143D01*
X14361814Y13500140D01*
X14361815Y13500139D01*
X14493848Y13445449D01*
X14493852Y13445449D01*
X14493853Y13445448D01*
X14634010Y13417568D01*
X14634013Y13417568D01*
X14776925Y13417568D01*
X14871219Y13436326D01*
X14917088Y13445449D01*
X15049121Y13500139D01*
X15167947Y13579536D01*
X15269000Y13680589D01*
X15348397Y13799415D01*
X15403087Y13931448D01*
X15430968Y14071613D01*
X15430968Y14214523D01*
X15430968Y14214526D01*
X15403088Y14354683D01*
X15403087Y14354684D01*
X15403087Y14354688D01*
X15348397Y14486721D01*
X15348396Y14486722D01*
X15348393Y14486728D01*
X15269000Y14605547D01*
X15268997Y14605551D01*
X15268760Y14605788D01*
X15268675Y14605943D01*
X15265135Y14610257D01*
X15265953Y14610929D01*
X15235275Y14667111D01*
X15240259Y14736803D01*
X15266497Y14777623D01*
X15266267Y14777811D01*
X15267888Y14779787D01*
X15268771Y14781161D01*
X15270132Y14782521D01*
X15349529Y14901347D01*
X15404219Y15033380D01*
X15432100Y15173545D01*
X15432100Y15316455D01*
X15432100Y15316458D01*
X15404220Y15456615D01*
X15404219Y15456616D01*
X15404219Y15456620D01*
X15349529Y15588653D01*
X15349528Y15588654D01*
X15349525Y15588660D01*
X15270132Y15707479D01*
X15270129Y15707483D01*
X15169082Y15808530D01*
X15169078Y15808533D01*
X15050259Y15887926D01*
X15050250Y15887931D01*
X14918220Y15942619D01*
X14918214Y15942621D01*
X14778057Y15970500D01*
X14778055Y15970500D01*
X14635145Y15970500D01*
X14635143Y15970500D01*
X14494985Y15942621D01*
X14494979Y15942619D01*
X14362949Y15887931D01*
X14362940Y15887926D01*
X14244121Y15808533D01*
X14244117Y15808530D01*
X14143070Y15707483D01*
X14143067Y15707479D01*
X14063674Y15588660D01*
X14063669Y15588651D01*
X14008981Y15456621D01*
X14008979Y15456615D01*
X13981100Y15316458D01*
X13981100Y15316455D01*
X13981100Y15173545D01*
X13981100Y15173543D01*
X13981099Y15173543D01*
X14008979Y15033386D01*
X14008981Y15033380D01*
X14063669Y14901350D01*
X14063674Y14901341D01*
X14143067Y14782522D01*
X14143070Y14782518D01*
X14143307Y14782281D01*
X14143391Y14782127D01*
X14146933Y14777811D01*
X14146114Y14777140D01*
X14176792Y14720958D01*
X14171808Y14651266D01*
X14145572Y14610445D01*
X14145801Y14610257D01*
X14144193Y14608298D01*
X14143307Y14606919D01*
X14141938Y14605551D01*
X14141935Y14605547D01*
X14062542Y14486728D01*
X14062537Y14486719D01*
X14007849Y14354689D01*
X14007847Y14354683D01*
X13979968Y14214526D01*
X13979968Y14214523D01*
X13979968Y14071613D01*
X13979968Y14071611D01*
X13979967Y14071611D01*
X-21989500Y14071611D01*
X-21989500Y15004349D01*
X-21989500Y15088407D01*
X-22020203Y15262536D01*
X-22080678Y15428687D01*
X-22169085Y15581813D01*
X-22169086Y15581815D01*
X-22169087Y15581816D01*
X-22282739Y15717262D01*
X-22418185Y15830914D01*
X-22571309Y15919320D01*
X-22571312Y15919321D01*
X-22571313Y15919322D01*
X-22737464Y15979797D01*
X-22737465Y15979798D01*
X-22737470Y15979799D01*
X-22911591Y16010500D01*
X-22911593Y16010500D01*
X-22995651Y16010500D01*
X-26994588Y16010500D01*
X-27005394Y16010972D01*
X-27030416Y16013162D01*
X-27161018Y16024588D01*
X-27182304Y16028341D01*
X-27327951Y16067367D01*
X-27348262Y16074760D01*
X-27484916Y16138483D01*
X-27503634Y16149290D01*
X-27627155Y16235780D01*
X-27643713Y16249674D01*
X-27750327Y16356288D01*
X-27764221Y16372846D01*
X-27850711Y16496367D01*
X-27861518Y16515085D01*
X-27925241Y16651739D01*
X-27932634Y16672050D01*
X-27939769Y16698679D01*
X-27971662Y16817703D01*
X-27975413Y16838984D01*
X-27980340Y16895295D01*
X-27989028Y16994606D01*
X-27989500Y17005413D01*
X-27989500Y20996754D01*
X-27989330Y21003243D01*
X-27984676Y21092051D01*
X-27983144Y21121289D01*
X-26850500Y21121289D01*
X-26850500Y20878712D01*
X-26819632Y20644237D01*
X-26818838Y20638211D01*
X-26811042Y20609116D01*
X-26756053Y20403896D01*
X-26663227Y20179795D01*
X-26663223Y20179786D01*
X-26641026Y20141339D01*
X-26541936Y19969711D01*
X-26541934Y19969708D01*
X-26541933Y19969707D01*
X-26394267Y19777264D01*
X-26394261Y19777257D01*
X-26222744Y19605740D01*
X-26222737Y19605734D01*
X-26111453Y19520343D01*
X-26030289Y19458064D01*
X-25820212Y19336776D01*
X-25596100Y19243946D01*
X-25361789Y19181162D01*
X-25181414Y19157416D01*
X-25121289Y19149500D01*
X-25121288Y19149500D01*
X-24878711Y19149500D01*
X-24830612Y19155833D01*
X-24638211Y19181162D01*
X-24403900Y19243946D01*
X-24179788Y19336776D01*
X-23969711Y19458064D01*
X-23777262Y19605735D01*
X-23605735Y19777262D01*
X-23458064Y19969711D01*
X-23336776Y20179788D01*
X-23335948Y20181787D01*
X-14817500Y20181787D01*
X-14817500Y19969214D01*
X-14786377Y19772708D01*
X-14784246Y19759257D01*
X-14720710Y19563713D01*
X-14718556Y19557086D01*
X-14622049Y19367680D01*
X-14497110Y19195714D01*
X-14346791Y19045395D01*
X-14341894Y19041837D01*
X-14299229Y18986506D01*
X-14293250Y18916893D01*
X-14325856Y18855098D01*
X-14375771Y18823815D01*
X-14386327Y18820317D01*
X-14386337Y18820313D01*
X-14535658Y18728211D01*
X-14659711Y18604158D01*
X-14751813Y18454837D01*
X-14751815Y18454832D01*
X-14758239Y18435445D01*
X-14806999Y18288297D01*
X-14806999Y18288296D01*
X-14807000Y18288296D01*
X-14817500Y18185517D01*
X-14817500Y16885499D01*
X-14817499Y16885482D01*
X-14807000Y16782704D01*
X-14806999Y16782701D01*
X-14783237Y16710993D01*
X-14751814Y16616166D01*
X-14659712Y16466844D01*
X-14535656Y16342788D01*
X-14386334Y16250686D01*
X-14219797Y16195501D01*
X-14117009Y16185000D01*
X-12816992Y16185001D01*
X-12714203Y16195501D01*
X-12547666Y16250686D01*
X-12398344Y16342788D01*
X-12274288Y16466844D01*
X-12182186Y16616166D01*
X-12178688Y16626725D01*
X-12138918Y16684168D01*
X-12074402Y16710993D01*
X-12005626Y16698679D01*
X-11960666Y16660609D01*
X-11957110Y16655715D01*
X-11957106Y16655710D01*
X-11806787Y16505391D01*
X-11634821Y16380452D01*
X-11634819Y16380451D01*
X-11634816Y16380449D01*
X-11445412Y16283943D01*
X-11243243Y16218254D01*
X-11033287Y16185000D01*
X-11033286Y16185000D01*
X-10820714Y16185000D01*
X-10820713Y16185000D01*
X-10610757Y16218254D01*
X-10408588Y16283943D01*
X-10219184Y16380449D01*
X-10167242Y16418187D01*
X-10047214Y16505391D01*
X-10047212Y16505394D01*
X-10047208Y16505396D01*
X-9896896Y16655708D01*
X-9896894Y16655712D01*
X-9896891Y16655714D01*
X-9771952Y16827680D01*
X-9771953Y16827680D01*
X-9771949Y16827684D01*
X-9767486Y16836446D01*
X-9719512Y16887241D01*
X-9651692Y16904037D01*
X-9585556Y16881501D01*
X-9546514Y16836444D01*
X-9542049Y16827680D01*
X-9417110Y16655714D01*
X-9266787Y16505391D01*
X-9094821Y16380452D01*
X-9094819Y16380451D01*
X-9094816Y16380449D01*
X-8905412Y16283943D01*
X-8703243Y16218254D01*
X-8493287Y16185000D01*
X-8493286Y16185000D01*
X-8280714Y16185000D01*
X-8280713Y16185000D01*
X-8070757Y16218254D01*
X-7868588Y16283943D01*
X-7679184Y16380449D01*
X-7627242Y16418187D01*
X-7507214Y16505391D01*
X-7507212Y16505394D01*
X-7507208Y16505396D01*
X-7356896Y16655708D01*
X-7356894Y16655712D01*
X-7356891Y16655714D01*
X-7231952Y16827680D01*
X-7231953Y16827680D01*
X-7231949Y16827684D01*
X-7135443Y17017088D01*
X-7069754Y17219257D01*
X-7036500Y17429213D01*
X-7036500Y17641787D01*
X-7069754Y17851743D01*
X-7135443Y18053912D01*
X-7231949Y18243316D01*
X-7231951Y18243319D01*
X-7231952Y18243321D01*
X-7356891Y18415287D01*
X-7507214Y18565610D01*
X-7679180Y18690549D01*
X-7679885Y18690909D01*
X-7687946Y18695015D01*
X-7738741Y18742988D01*
X-7755537Y18810808D01*
X-7733001Y18876944D01*
X-7687946Y18915985D01*
X-7679184Y18920449D01*
X-7621384Y18962443D01*
X-7507214Y19045391D01*
X-7507212Y19045394D01*
X-7507208Y19045396D01*
X-7356896Y19195708D01*
X-7356894Y19195712D01*
X-7356891Y19195714D01*
X-7243075Y19352370D01*
X-7231949Y19367684D01*
X-7135443Y19557088D01*
X-7069754Y19759257D01*
X-7036500Y19969213D01*
X-7036500Y20045000D01*
X490970Y20045000D01*
X1433854Y20045000D01*
X1395370Y19978343D01*
X1363000Y19857535D01*
X1363000Y19732465D01*
X1395370Y19611657D01*
X1433854Y19545000D01*
X490970Y19545000D01*
X521242Y19353873D01*
X521242Y19353870D01*
X586904Y19151783D01*
X683379Y18962443D01*
X808272Y18790541D01*
X808276Y18790536D01*
X958535Y18640277D01*
X958540Y18640273D01*
X1130442Y18515380D01*
X1319782Y18418905D01*
X1521871Y18353243D01*
X1588000Y18342769D01*
X1588000Y19390855D01*
X1654657Y19352370D01*
X1775465Y19320000D01*
X1900535Y19320000D01*
X2021343Y19352370D01*
X2088000Y19390855D01*
X2088000Y18342770D01*
X2154126Y18353243D01*
X2154129Y18353243D01*
X2356217Y18418905D01*
X2545557Y18515380D01*
X2717459Y18640273D01*
X2717464Y18640277D01*
X2867721Y18790534D01*
X2987371Y18955219D01*
X3042701Y18997885D01*
X3112314Y19003864D01*
X3174110Y18971259D01*
X3188008Y18955219D01*
X3307890Y18790215D01*
X3307894Y18790210D01*
X3458213Y18639891D01*
X3630179Y18514952D01*
X3630181Y18514951D01*
X3630184Y18514949D01*
X3819588Y18418443D01*
X4021757Y18352754D01*
X4231713Y18319500D01*
X4231714Y18319500D01*
X4444286Y18319500D01*
X4444287Y18319500D01*
X4654243Y18352754D01*
X4856412Y18418443D01*
X5045816Y18514949D01*
X5069808Y18532380D01*
X5217786Y18639891D01*
X5217788Y18639894D01*
X5217792Y18639896D01*
X5368104Y18790208D01*
X5487683Y18954796D01*
X5543011Y18997460D01*
X5612624Y19003439D01*
X5674420Y18970834D01*
X5688313Y18954801D01*
X5807654Y18790541D01*
X5807896Y18790208D01*
X5958213Y18639891D01*
X6130179Y18514952D01*
X6130181Y18514951D01*
X6130184Y18514949D01*
X6319588Y18418443D01*
X6521757Y18352754D01*
X6731713Y18319500D01*
X6731714Y18319500D01*
X6944286Y18319500D01*
X6944287Y18319500D01*
X7154243Y18352754D01*
X7356412Y18418443D01*
X7545816Y18514949D01*
X7717792Y18639896D01*
X7856604Y18778709D01*
X7917923Y18812191D01*
X7987615Y18807207D01*
X8043549Y18765336D01*
X8049821Y18756122D01*
X8053185Y18750667D01*
X8053186Y18750666D01*
X8145288Y18601344D01*
X8269344Y18477288D01*
X8418666Y18385186D01*
X8585203Y18330001D01*
X8687991Y18319500D01*
X9988008Y18319501D01*
X10090797Y18330001D01*
X10257334Y18385186D01*
X10406656Y18477288D01*
X10530712Y18601344D01*
X10622814Y18750666D01*
X10677999Y18917203D01*
X10688500Y19019991D01*
X10688499Y20062000D01*
X14734970Y20062000D01*
X15677854Y20062000D01*
X15639370Y19995343D01*
X15607000Y19874535D01*
X15607000Y19749465D01*
X15639370Y19628657D01*
X15677854Y19562000D01*
X14734970Y19562000D01*
X14765242Y19370873D01*
X14765242Y19370870D01*
X14830904Y19168783D01*
X14927379Y18979443D01*
X15052272Y18807541D01*
X15052276Y18807536D01*
X15202535Y18657277D01*
X15202540Y18657273D01*
X15374442Y18532380D01*
X15563782Y18435905D01*
X15765871Y18370243D01*
X15832000Y18359769D01*
X15832000Y19407855D01*
X15898657Y19369370D01*
X16019465Y19337000D01*
X16144535Y19337000D01*
X16265343Y19369370D01*
X16332000Y19407855D01*
X16332000Y18359770D01*
X16398126Y18370243D01*
X16398129Y18370243D01*
X16600217Y18435905D01*
X16789557Y18532380D01*
X16961459Y18657273D01*
X16961464Y18657277D01*
X17111721Y18807534D01*
X17231371Y18972219D01*
X17286701Y19014885D01*
X17356314Y19020864D01*
X17418110Y18988259D01*
X17432008Y18972219D01*
X17551890Y18807215D01*
X17551894Y18807210D01*
X17702213Y18656891D01*
X17874179Y18531952D01*
X17874181Y18531951D01*
X17874184Y18531949D01*
X18063588Y18435443D01*
X18265757Y18369754D01*
X18475713Y18336500D01*
X18475714Y18336500D01*
X18688286Y18336500D01*
X18688287Y18336500D01*
X18898243Y18369754D01*
X19100412Y18435443D01*
X19289816Y18531949D01*
X19438385Y18639890D01*
X19461784Y18656890D01*
X19461784Y18656891D01*
X19461792Y18656896D01*
X19600604Y18795709D01*
X19661923Y18829191D01*
X19731615Y18824207D01*
X19787549Y18782336D01*
X19793821Y18773122D01*
X19797185Y18767667D01*
X19797186Y18767666D01*
X19889288Y18618344D01*
X20013344Y18494288D01*
X20162666Y18402186D01*
X20329203Y18347001D01*
X20431991Y18336500D01*
X21732008Y18336501D01*
X21834797Y18347001D01*
X22001334Y18402186D01*
X22150656Y18494288D01*
X22274712Y18618344D01*
X22366814Y18767666D01*
X22421999Y18934203D01*
X22432500Y19036991D01*
X22432500Y19260421D01*
X25399500Y19260421D01*
X25399500Y19073180D01*
X25436025Y18889557D01*
X25436027Y18889549D01*
X25507676Y18716572D01*
X25507681Y18716563D01*
X25611697Y18560893D01*
X25611700Y18560889D01*
X25744088Y18428501D01*
X25744092Y18428498D01*
X25899762Y18324482D01*
X25899768Y18324479D01*
X25899769Y18324478D01*
X26072749Y18252827D01*
X26256379Y18216301D01*
X26256383Y18216300D01*
X26256384Y18216300D01*
X26443617Y18216300D01*
X26443618Y18216301D01*
X26627251Y18252827D01*
X26800231Y18324478D01*
X26955908Y18428498D01*
X27088302Y18560892D01*
X27192322Y18716569D01*
X27263973Y18889549D01*
X27300500Y19073184D01*
X27300500Y19260416D01*
X27263973Y19444051D01*
X27207365Y19580713D01*
X27192323Y19617029D01*
X27192318Y19617038D01*
X27088302Y19772708D01*
X27088299Y19772712D01*
X26955911Y19905100D01*
X26955907Y19905103D01*
X26800237Y20009119D01*
X26800228Y20009124D01*
X26627251Y20080773D01*
X26627243Y20080775D01*
X26443620Y20117300D01*
X26443616Y20117300D01*
X26256384Y20117300D01*
X26256379Y20117300D01*
X26072756Y20080775D01*
X26072748Y20080773D01*
X25899771Y20009124D01*
X25899762Y20009119D01*
X25744092Y19905103D01*
X25744088Y19905100D01*
X25611700Y19772712D01*
X25611697Y19772708D01*
X25507681Y19617038D01*
X25507676Y19617029D01*
X25436027Y19444052D01*
X25436025Y19444044D01*
X25399500Y19260421D01*
X22432500Y19260421D01*
X22432499Y19857535D01*
X22432499Y20587002D01*
X22432498Y20587019D01*
X22421999Y20689797D01*
X22421998Y20689800D01*
X22409024Y20728952D01*
X22366814Y20856334D01*
X22274712Y21005656D01*
X22159079Y21121289D01*
X33149500Y21121289D01*
X33149500Y20878712D01*
X33180368Y20644237D01*
X33181162Y20638211D01*
X33188958Y20609116D01*
X33243947Y20403896D01*
X33336773Y20179795D01*
X33336777Y20179786D01*
X33358974Y20141339D01*
X33458064Y19969711D01*
X33458066Y19969708D01*
X33458067Y19969707D01*
X33605733Y19777264D01*
X33605739Y19777257D01*
X33777256Y19605740D01*
X33777263Y19605734D01*
X33888547Y19520343D01*
X33969711Y19458064D01*
X34179788Y19336776D01*
X34403900Y19243946D01*
X34638211Y19181162D01*
X34818586Y19157416D01*
X34878711Y19149500D01*
X34878712Y19149500D01*
X35121289Y19149500D01*
X35169388Y19155833D01*
X35361789Y19181162D01*
X35596100Y19243946D01*
X35820212Y19336776D01*
X36030289Y19458064D01*
X36222738Y19605735D01*
X36394265Y19777262D01*
X36541936Y19969711D01*
X36663224Y20179788D01*
X36756054Y20403900D01*
X36818838Y20638211D01*
X36850500Y20878712D01*
X36850500Y21121288D01*
X36818838Y21361789D01*
X36756054Y21596100D01*
X36663224Y21820212D01*
X36541936Y22030289D01*
X36394265Y22222738D01*
X36394260Y22222744D01*
X36222743Y22394261D01*
X36222736Y22394267D01*
X36030293Y22541933D01*
X36030292Y22541934D01*
X36030289Y22541936D01*
X35820212Y22663224D01*
X35820205Y22663227D01*
X35596104Y22756053D01*
X35361785Y22818839D01*
X35121289Y22850500D01*
X35121288Y22850500D01*
X34878712Y22850500D01*
X34878711Y22850500D01*
X34638214Y22818839D01*
X34403895Y22756053D01*
X34179794Y22663227D01*
X34179785Y22663223D01*
X33969706Y22541933D01*
X33777263Y22394267D01*
X33777256Y22394261D01*
X33605739Y22222744D01*
X33605733Y22222737D01*
X33458067Y22030294D01*
X33336777Y21820215D01*
X33336773Y21820206D01*
X33243947Y21596105D01*
X33181161Y21361786D01*
X33149500Y21121289D01*
X22159079Y21121289D01*
X22150656Y21129712D01*
X22001334Y21221814D01*
X21834797Y21276999D01*
X21834795Y21277000D01*
X21732010Y21287500D01*
X20431998Y21287500D01*
X20431981Y21287499D01*
X20329203Y21277000D01*
X20329200Y21276999D01*
X20162668Y21221815D01*
X20162663Y21221813D01*
X20013342Y21129711D01*
X19889289Y21005658D01*
X19793821Y20850879D01*
X19741873Y20804155D01*
X19672910Y20792932D01*
X19608828Y20820776D01*
X19600601Y20828295D01*
X19461786Y20967110D01*
X19289820Y21092049D01*
X19100414Y21188556D01*
X19100413Y21188557D01*
X19100412Y21188557D01*
X18898243Y21254246D01*
X18898241Y21254247D01*
X18898240Y21254247D01*
X18736957Y21279792D01*
X18688287Y21287500D01*
X18475713Y21287500D01*
X18427042Y21279792D01*
X18265760Y21254247D01*
X18063585Y21188556D01*
X17874179Y21092049D01*
X17702213Y20967110D01*
X17551894Y20816791D01*
X17551890Y20816786D01*
X17432008Y20651782D01*
X17376678Y20609116D01*
X17307065Y20603137D01*
X17245270Y20635743D01*
X17231372Y20651782D01*
X17111727Y20816460D01*
X17111723Y20816465D01*
X16961464Y20966724D01*
X16961459Y20966728D01*
X16789557Y21091621D01*
X16600215Y21188097D01*
X16398124Y21253759D01*
X16332000Y21264232D01*
X16332000Y20216146D01*
X16265343Y20254630D01*
X16144535Y20287000D01*
X16019465Y20287000D01*
X15898657Y20254630D01*
X15832000Y20216146D01*
X15832000Y21264232D01*
X15831999Y21264232D01*
X15765875Y21253759D01*
X15563784Y21188097D01*
X15374442Y21091621D01*
X15202540Y20966728D01*
X15202535Y20966724D01*
X15052276Y20816465D01*
X15052272Y20816460D01*
X14927379Y20644558D01*
X14830904Y20455218D01*
X14765242Y20253131D01*
X14765242Y20253128D01*
X14734970Y20062000D01*
X10688499Y20062000D01*
X10688499Y20570008D01*
X10686851Y20586137D01*
X10677999Y20672797D01*
X10677998Y20672800D01*
X10641461Y20783060D01*
X10622814Y20839334D01*
X10530712Y20988656D01*
X10406656Y21112712D01*
X10257334Y21204814D01*
X10090797Y21259999D01*
X10090795Y21260000D01*
X9988010Y21270500D01*
X8687998Y21270500D01*
X8687981Y21270499D01*
X8585203Y21260000D01*
X8585200Y21259999D01*
X8418668Y21204815D01*
X8418663Y21204813D01*
X8269342Y21112711D01*
X8145289Y20988658D01*
X8049821Y20833879D01*
X7997873Y20787155D01*
X7928910Y20775932D01*
X7864828Y20803776D01*
X7856601Y20811295D01*
X7717786Y20950110D01*
X7545820Y21075049D01*
X7356414Y21171556D01*
X7356413Y21171557D01*
X7356412Y21171557D01*
X7154243Y21237246D01*
X7154241Y21237247D01*
X7154240Y21237247D01*
X6983861Y21264232D01*
X6944287Y21270500D01*
X6731713Y21270500D01*
X6692139Y21264232D01*
X6521760Y21237247D01*
X6474265Y21221815D01*
X6378729Y21190773D01*
X6319585Y21171556D01*
X6130179Y21075049D01*
X5958213Y20950110D01*
X5807894Y20799791D01*
X5807890Y20799786D01*
X5688318Y20635207D01*
X5632989Y20592541D01*
X5563375Y20586562D01*
X5501580Y20619167D01*
X5487682Y20635207D01*
X5368109Y20799786D01*
X5368105Y20799791D01*
X5217786Y20950110D01*
X5045820Y21075049D01*
X4856414Y21171556D01*
X4856413Y21171557D01*
X4856412Y21171557D01*
X4654243Y21237246D01*
X4654241Y21237247D01*
X4654240Y21237247D01*
X4483861Y21264232D01*
X4444287Y21270500D01*
X4231713Y21270500D01*
X4192139Y21264232D01*
X4021760Y21237247D01*
X3974265Y21221815D01*
X3878729Y21190773D01*
X3819585Y21171556D01*
X3630179Y21075049D01*
X3458213Y20950110D01*
X3307894Y20799791D01*
X3307890Y20799786D01*
X3188008Y20634782D01*
X3132678Y20592116D01*
X3063065Y20586137D01*
X3001270Y20618743D01*
X2987372Y20634782D01*
X2867727Y20799460D01*
X2867723Y20799465D01*
X2717464Y20949724D01*
X2717459Y20949728D01*
X2545557Y21074621D01*
X2356215Y21171097D01*
X2154124Y21236759D01*
X2088000Y21247232D01*
X2088000Y20199146D01*
X2021343Y20237630D01*
X1900535Y20270000D01*
X1775465Y20270000D01*
X1654657Y20237630D01*
X1588000Y20199146D01*
X1588000Y21247232D01*
X1587999Y21247232D01*
X1521875Y21236759D01*
X1319784Y21171097D01*
X1130442Y21074621D01*
X958540Y20949728D01*
X958535Y20949724D01*
X808276Y20799465D01*
X808272Y20799460D01*
X683379Y20627558D01*
X586904Y20438218D01*
X521242Y20236131D01*
X521242Y20236128D01*
X490970Y20045000D01*
X-7036500Y20045000D01*
X-7036500Y20181787D01*
X-7069754Y20391743D01*
X-7135443Y20593912D01*
X-7231949Y20783316D01*
X-7231951Y20783319D01*
X-7231952Y20783321D01*
X-7356891Y20955287D01*
X-7507214Y21105610D01*
X-7679180Y21230549D01*
X-7868586Y21327056D01*
X-7868587Y21327057D01*
X-7868588Y21327057D01*
X-8070757Y21392746D01*
X-8070759Y21392747D01*
X-8070760Y21392747D01*
X-8232043Y21418292D01*
X-8280713Y21426000D01*
X-8493287Y21426000D01*
X-8541958Y21418292D01*
X-8703240Y21392747D01*
X-8905415Y21327056D01*
X-9094821Y21230549D01*
X-9266787Y21105610D01*
X-9417110Y20955287D01*
X-9542051Y20783318D01*
X-9546798Y20774001D01*
X-9594773Y20723207D01*
X-9662595Y20706413D01*
X-9728729Y20728952D01*
X-9767766Y20774005D01*
X-9772374Y20783048D01*
X-9811730Y20837218D01*
X-9811731Y20837218D01*
X-10444038Y20204910D01*
X-10461075Y20268493D01*
X-10526901Y20382507D01*
X-10619993Y20475599D01*
X-10734007Y20541425D01*
X-10797591Y20558463D01*
X-10165284Y21190772D01*
X-10219450Y21230125D01*
X-10408783Y21326596D01*
X-10610871Y21392258D01*
X-10820754Y21425500D01*
X-11033246Y21425500D01*
X-11243128Y21392258D01*
X-11243131Y21392258D01*
X-11445218Y21326596D01*
X-11634561Y21230120D01*
X-11688718Y21190773D01*
X-11688718Y21190772D01*
X-11056409Y20558463D01*
X-11119993Y20541425D01*
X-11234007Y20475599D01*
X-11327099Y20382507D01*
X-11392925Y20268493D01*
X-11409963Y20204909D01*
X-12042272Y20837218D01*
X-12042273Y20837218D01*
X-12081620Y20783060D01*
X-12081624Y20783054D01*
X-12086240Y20773995D01*
X-12134219Y20723203D01*
X-12202041Y20706413D01*
X-12268174Y20728957D01*
X-12307206Y20774007D01*
X-12311949Y20783316D01*
X-12311951Y20783319D01*
X-12311952Y20783321D01*
X-12436891Y20955287D01*
X-12587214Y21105610D01*
X-12759180Y21230549D01*
X-12948586Y21327056D01*
X-12948587Y21327057D01*
X-12948588Y21327057D01*
X-13150757Y21392746D01*
X-13150759Y21392747D01*
X-13150760Y21392747D01*
X-13312043Y21418292D01*
X-13360713Y21426000D01*
X-13573287Y21426000D01*
X-13621958Y21418292D01*
X-13783240Y21392747D01*
X-13985415Y21327056D01*
X-14174821Y21230549D01*
X-14346787Y21105610D01*
X-14497110Y20955287D01*
X-14622049Y20783321D01*
X-14718556Y20593915D01*
X-14784247Y20391740D01*
X-14817500Y20181787D01*
X-23335948Y20181787D01*
X-23313391Y20236243D01*
X-23280440Y20315797D01*
X-23243946Y20403900D01*
X-23181162Y20638211D01*
X-23149500Y20878712D01*
X-23149500Y21121288D01*
X-23181162Y21361789D01*
X-23243946Y21596100D01*
X-23336776Y21820212D01*
X-23458064Y22030289D01*
X-23605735Y22222738D01*
X-23605740Y22222744D01*
X-23777257Y22394261D01*
X-23777264Y22394267D01*
X-23969707Y22541933D01*
X-23969708Y22541934D01*
X-23969711Y22541936D01*
X-24179788Y22663224D01*
X-24179795Y22663227D01*
X-24403896Y22756053D01*
X-24638215Y22818839D01*
X-24878711Y22850500D01*
X-24878712Y22850500D01*
X-25121288Y22850500D01*
X-25121289Y22850500D01*
X-25361786Y22818839D01*
X-25596105Y22756053D01*
X-25820206Y22663227D01*
X-25820215Y22663223D01*
X-26030294Y22541933D01*
X-26222737Y22394267D01*
X-26222744Y22394261D01*
X-26394261Y22222744D01*
X-26394267Y22222737D01*
X-26541933Y22030294D01*
X-26663223Y21820215D01*
X-26663227Y21820206D01*
X-26756053Y21596105D01*
X-26818839Y21361786D01*
X-26850500Y21121289D01*
X-27983144Y21121289D01*
X-27973463Y21306004D01*
X-27972106Y21318910D01*
X-27970816Y21327056D01*
X-27925188Y21615138D01*
X-27922495Y21627814D01*
X-27844862Y21917542D01*
X-27840854Y21929874D01*
X-27733369Y22209883D01*
X-27728103Y22221712D01*
X-27591921Y22488986D01*
X-27585460Y22500176D01*
X-27422085Y22751751D01*
X-27414476Y22762223D01*
X-27225710Y22995330D01*
X-27217043Y23004955D01*
X-27004955Y23217043D01*
X-26995330Y23225710D01*
X-26762223Y23414476D01*
X-26751751Y23422085D01*
X-26500176Y23585460D01*
X-26488986Y23591921D01*
X-26221712Y23728103D01*
X-26209883Y23733369D01*
X-25929870Y23840856D01*
X-25917542Y23844862D01*
X-25627814Y23922495D01*
X-25615138Y23925188D01*
X-25318908Y23972107D01*
X-25306004Y23973463D01*
X-25003244Y23989331D01*
X-24996754Y23989500D01*
X-24996588Y23989500D01*
X34996588Y23989500D01*
X34996754Y23989500D01*
X35003243Y23989331D01*
G37*
%TD.AperFunction*%
%TD*%
M02*
