%TF.GenerationSoftware,KiCad,Pcbnew,9.0.0-rc1*%
%TF.CreationDate,2025-03-28T12:21:10+01:00*%
%TF.ProjectId,Robobuoy-Top-Round-v2_0,526f626f-6275-46f7-992d-546f702d526f,rev?*%
%TF.SameCoordinates,Original*%
%TF.FileFunction,Copper,L4,Bot*%
%TF.FilePolarity,Positive*%
%FSLAX46Y46*%
G04 Gerber Fmt 4.6, Leading zero omitted, Abs format (unit mm)*
G04 Created by KiCad (PCBNEW 9.0.0-rc1) date 2025-03-28 12:21:10*
%MOMM*%
%LPD*%
G01*
G04 APERTURE LIST*
G04 Aperture macros list*
%AMRoundRect*
0 Rectangle with rounded corners*
0 $1 Rounding radius*
0 $2 $3 $4 $5 $6 $7 $8 $9 X,Y pos of 4 corners*
0 Add a 4 corners polygon primitive as box body*
4,1,4,$2,$3,$4,$5,$6,$7,$8,$9,$2,$3,0*
0 Add four circle primitives for the rounded corners*
1,1,$1+$1,$2,$3*
1,1,$1+$1,$4,$5*
1,1,$1+$1,$6,$7*
1,1,$1+$1,$8,$9*
0 Add four rect primitives between the rounded corners*
20,1,$1+$1,$2,$3,$4,$5,0*
20,1,$1+$1,$4,$5,$6,$7,0*
20,1,$1+$1,$6,$7,$8,$9,0*
20,1,$1+$1,$8,$9,$2,$3,0*%
G04 Aperture macros list end*
%TA.AperFunction,ComponentPad*%
%ADD10RoundRect,0.250000X0.600000X-0.600000X0.600000X0.600000X-0.600000X0.600000X-0.600000X-0.600000X0*%
%TD*%
%TA.AperFunction,ComponentPad*%
%ADD11C,1.700000*%
%TD*%
%TA.AperFunction,ComponentPad*%
%ADD12C,3.000000*%
%TD*%
%TA.AperFunction,ComponentPad*%
%ADD13R,1.700000X1.700000*%
%TD*%
%TA.AperFunction,ComponentPad*%
%ADD14O,1.700000X1.700000*%
%TD*%
%TA.AperFunction,ComponentPad*%
%ADD15R,1.650000X1.650000*%
%TD*%
%TA.AperFunction,ComponentPad*%
%ADD16RoundRect,0.250000X-0.600000X-0.725000X0.600000X-0.725000X0.600000X0.725000X-0.600000X0.725000X0*%
%TD*%
%TA.AperFunction,ComponentPad*%
%ADD17O,1.700000X1.950000*%
%TD*%
%TA.AperFunction,ComponentPad*%
%ADD18RoundRect,0.250000X0.725000X-0.600000X0.725000X0.600000X-0.725000X0.600000X-0.725000X-0.600000X0*%
%TD*%
%TA.AperFunction,ComponentPad*%
%ADD19O,1.950000X1.700000*%
%TD*%
%TA.AperFunction,ComponentPad*%
%ADD20RoundRect,0.250000X0.600000X0.725000X-0.600000X0.725000X-0.600000X-0.725000X0.600000X-0.725000X0*%
%TD*%
%TA.AperFunction,ComponentPad*%
%ADD21RoundRect,0.206250X0.618750X-0.618750X0.618750X0.618750X-0.618750X0.618750X-0.618750X-0.618750X0*%
%TD*%
%TA.AperFunction,HeatsinkPad*%
%ADD22C,0.500000*%
%TD*%
%TA.AperFunction,HeatsinkPad*%
%ADD23R,2.400000X3.200000*%
%TD*%
%TA.AperFunction,ViaPad*%
%ADD24C,0.450000*%
%TD*%
%TA.AperFunction,ViaPad*%
%ADD25C,0.900000*%
%TD*%
%TA.AperFunction,ViaPad*%
%ADD26C,0.600000*%
%TD*%
%TA.AperFunction,Conductor*%
%ADD27C,0.200000*%
%TD*%
%TA.AperFunction,Conductor*%
%ADD28C,0.600000*%
%TD*%
G04 APERTURE END LIST*
D10*
%TO.P,J101,1,Pin_1*%
%TO.N,EN*%
X-13467000Y17535500D03*
D11*
%TO.P,J101,2,Pin_2*%
%TO.N,+3.3V*%
X-13467000Y20075500D03*
%TO.P,J101,3,Pin_3*%
%TO.N,TX*%
X-10927000Y17535500D03*
%TO.P,J101,4,Pin_4*%
%TO.N,GND*%
X-10927000Y20075500D03*
%TO.P,J101,5,Pin_5*%
%TO.N,RX*%
X-8387000Y17535500D03*
%TO.P,J101,6,Pin_6*%
%TO.N,DR0*%
X-8387000Y20075500D03*
%TD*%
D12*
%TO.P,TP203,1,1*%
%TO.N,GND*%
X-11049000Y-18491200D03*
%TD*%
D13*
%TO.P,SW101,1,1*%
%TO.N,GND*%
X-8382000Y11938000D03*
D14*
%TO.P,SW101,2,2*%
%TO.N,DR0*%
X-5842000Y11938000D03*
%TD*%
D13*
%TO.P,SW102,1,1*%
%TO.N,GND*%
X-16007000Y11938000D03*
D14*
%TO.P,SW102,2,2*%
%TO.N,EN*%
X-13467000Y11938000D03*
%TD*%
D15*
%TO.P,BZ101,1,+*%
%TO.N,+3.3V*%
X9038000Y-20828000D03*
D11*
%TO.P,BZ101,2,-*%
%TO.N,Net-(BZ101--)*%
X15538000Y-20828000D03*
%TD*%
D16*
%TO.P,J103,1,Pin_1*%
%TO.N,Net-(J103-Pin_1)*%
X-18502000Y-23622000D03*
D17*
%TO.P,J103,2,Pin_2*%
%TO.N,Net-(J103-Pin_2)*%
X-16002000Y-23622000D03*
%TO.P,J103,3,Pin_3*%
%TO.N,+3.3V*%
X-13502000Y-23622000D03*
%TO.P,J103,4,Pin_4*%
%TO.N,GND*%
X-11002000Y-23622000D03*
%TO.P,J103,5,Pin_5*%
%TO.N,/CPU/ON*%
X-8502000Y-23622000D03*
%TO.P,J103,6,Pin_6*%
%TO.N,Net-(J103-Pin_6)*%
X-6002000Y-23622000D03*
%TD*%
D18*
%TO.P,J201,1,Pin_1*%
%TO.N,Vbatt*%
X34000000Y-2500000D03*
D19*
%TO.P,J201,2,Pin_2*%
%TO.N,/CPU/COM*%
X34000000Y0D03*
%TO.P,J201,3,Pin_3*%
%TO.N,GND*%
X34000000Y2500000D03*
%TD*%
D20*
%TO.P,J104,1,Pin_1*%
%TO.N,/CPU/TX_GPS*%
X9338000Y19795000D03*
D17*
%TO.P,J104,2,Pin_2*%
%TO.N,/CPU/RX_GPS*%
X6838000Y19795000D03*
%TO.P,J104,3,Pin_3*%
%TO.N,+3.3V*%
X4338000Y19795000D03*
%TO.P,J104,4,Pin_4*%
%TO.N,GND*%
X1838000Y19795000D03*
%TD*%
D21*
%TO.P,SW201,1*%
%TO.N,Vbatt*%
X20924000Y2794000D03*
D11*
%TO.P,SW201,2*%
%TO.N,Net-(R205-Pad1)*%
X20924000Y5334000D03*
%TO.P,SW201,3*%
%TO.N,unconnected-(SW201-Pad3)*%
X20924000Y7874000D03*
%TD*%
D22*
%TO.P,U201,9,PAD*%
%TO.N,GND*%
X27300000Y-2912000D03*
X27300000Y-1562000D03*
X27300000Y-212000D03*
D23*
X26350000Y-1562000D03*
D22*
X25400000Y-2912000D03*
X25400000Y-1562000D03*
X25400000Y-212000D03*
%TD*%
D20*
%TO.P,J202,1,Pin_1*%
%TO.N,Net-(D201-A)*%
X21082000Y19812000D03*
D17*
%TO.P,J202,2,Pin_2*%
%TO.N,Net-(D203-A)*%
X18582000Y19812000D03*
%TO.P,J202,3,Pin_3*%
%TO.N,GND*%
X16082000Y19812000D03*
%TD*%
D24*
%TO.N,/CPU/COM*%
X-10033000Y-15367000D03*
X31750000Y-11049000D03*
%TO.N,+3.3V*%
X14705468Y14143068D03*
D25*
X21488400Y-14224000D03*
D24*
X14706600Y15245000D03*
D25*
X26350000Y19166800D03*
X-15036800Y-11252200D03*
X35915600Y-4622800D03*
%TO.N,GND*%
X-15341600Y-3276600D03*
X-10464800Y-3302000D03*
D24*
X-14605000Y-18491200D03*
X-20066000Y14097000D03*
D26*
X18288000Y6731000D03*
X20955000Y-7239000D03*
D25*
X-20243800Y-7340600D03*
D24*
X-10896600Y-13436600D03*
D25*
X-15341600Y1600200D03*
D26*
X970000Y-6604000D03*
X970000Y-9448800D03*
D25*
X-1016000Y-5715000D03*
D26*
X32004000Y-5207000D03*
X2970000Y-6654800D03*
X18999200Y-14173200D03*
D25*
X-20243000Y7493800D03*
D24*
X28600400Y22479000D03*
X29032200Y-18872200D03*
D26*
X25654000Y-15113000D03*
X16002000Y-13208000D03*
D25*
X-3962400Y-5715000D03*
D26*
X5715000Y-12319000D03*
X-20447000Y-13639800D03*
X12446000Y-13159000D03*
X-17043400Y-13106400D03*
D24*
X-18846800Y-18567400D03*
D26*
X22860000Y-8382000D03*
D25*
X-20243000Y10006800D03*
X-12898000Y-860000D03*
D26*
X19177000Y-286000D03*
X18161000Y-6096000D03*
X14986000Y9779000D03*
X14986000Y6350000D03*
D25*
X-10490200Y1625600D03*
D26*
X9144000Y-13159000D03*
D25*
X-20612100Y-9944100D03*
D26*
X1524000Y-15748000D03*
D24*
X6121400Y15519400D03*
D26*
X1016000Y9652000D03*
D24*
X2743200Y-21564600D03*
%TO.N,EN*%
X-13411200Y5359400D03*
%TO.N,/CPU/Vsamp*%
X10325100Y10147300D03*
X-4038600Y-1066800D03*
%TO.N,Net-(D105-DOUT)*%
X36017200Y-13030200D03*
X37084000Y7391400D03*
%TO.N,/CPU/TX_GPS*%
X-7518400Y9931400D03*
%TO.N,/CPU/RX_GPS*%
X-6070600Y10109200D03*
%TO.N,/CPU/VbatEn*%
X-5410200Y-2413000D03*
X6680200Y10668000D03*
%TO.N,/CPU/RADIO_1*%
X-3784600Y5943600D03*
X4622800Y9474200D03*
%TO.N,/CPU/RADIO_2*%
X3048000Y5816600D03*
X6756400Y9525000D03*
%TO.N,/CPU/ON*%
X31623000Y-4241800D03*
%TO.N,Net-(J103-Pin_6)*%
X32562800Y-12522200D03*
%TD*%
D27*
%TO.N,/CPU/COM*%
X-10033000Y-15367000D02*
X-9906000Y-15367000D01*
X1772943Y-16349000D02*
X-9051000Y-16349000D01*
X1865943Y-16256000D02*
X1772943Y-16349000D01*
X19939000Y-16256000D02*
X1865943Y-16256000D01*
X26543000Y-16256000D02*
X19939000Y-16256000D01*
X-9051000Y-16349000D02*
X-10033000Y-15367000D01*
X31750000Y-11049000D02*
X26543000Y-16256000D01*
%TO.N,/CPU/ON*%
X33274000Y-5207000D02*
X33274000Y-10744200D01*
X33274000Y-10744200D02*
X31089600Y-12928600D01*
X31623000Y-4241800D02*
X32308800Y-4241800D01*
X32308800Y-4241800D02*
X33274000Y-5207000D01*
D28*
%TO.N,+3.3V*%
X35915600Y-4622800D02*
X35915600Y9601200D01*
D27*
X14706600Y14144200D02*
X14705468Y14143068D01*
X14706600Y15245000D02*
X14706600Y14144200D01*
D28*
X35915600Y9601200D02*
X26350000Y19166800D01*
D27*
%TO.N,EN*%
X-13467000Y5415200D02*
X-13411200Y5359400D01*
X-13467000Y17535500D02*
X-13467000Y11938000D01*
X-13467000Y11938000D02*
X-13467000Y5415200D01*
%TO.N,/CPU/Vsamp*%
X-4038600Y-1066800D02*
X-2336800Y-1066800D01*
X8877300Y10147300D02*
X10325100Y10147300D01*
X-2336800Y-1066800D02*
X8877300Y10147300D01*
%TO.N,Net-(D105-DOUT)*%
X37084000Y7391400D02*
X37084000Y-11963400D01*
X37084000Y-11963400D02*
X36017200Y-13030200D01*
%TO.N,/CPU/TX_GPS*%
X-1574800Y17449800D02*
X-3860800Y15163800D01*
X-7086600Y9499600D02*
X-7518400Y9931400D01*
X-4927600Y9499600D02*
X-7086600Y9499600D01*
X-3860800Y10566400D02*
X-4927600Y9499600D01*
X-3860800Y15163800D02*
X-3860800Y10566400D01*
X9338000Y19795000D02*
X9338000Y19701200D01*
X9338000Y19701200D02*
X7086600Y17449800D01*
X7086600Y17449800D02*
X-1574800Y17449800D01*
%TO.N,/CPU/RX_GPS*%
X-6096000Y10134600D02*
X-6070600Y10109200D01*
X-6121400Y10134600D02*
X-6096000Y10134600D01*
X5102400Y18059400D02*
X-1803400Y18059400D01*
X-1803400Y18059400D02*
X-4343400Y15519400D01*
X-4343400Y15519400D02*
X-4343400Y10744200D01*
X-4343400Y10744200D02*
X-4953000Y10134600D01*
X-4953000Y10134600D02*
X-6121400Y10134600D01*
X6838000Y19795000D02*
X5102400Y18059400D01*
%TO.N,/CPU/VbatEn*%
X-5410200Y-1422400D02*
X6680200Y10668000D01*
X-5410200Y-2413000D02*
X-5410200Y-1422400D01*
%TO.N,/CPU/RADIO_1*%
X-3784600Y5943600D02*
X1092200Y5943600D01*
X4622800Y9474200D02*
X4724400Y9575800D01*
X1092200Y5943600D02*
X4622800Y9474200D01*
%TO.N,/CPU/RADIO_2*%
X3048000Y5816600D02*
X6756400Y9525000D01*
%TO.N,/CPU/ON*%
X-7061200Y-22021800D02*
X-3657600Y-22021800D01*
X-3657600Y-22021800D02*
X-2641600Y-23037800D01*
X20980400Y-23037800D02*
X31089600Y-12928600D01*
X-2641600Y-23037800D02*
X20980400Y-23037800D01*
X-8502000Y-23462600D02*
X-7061200Y-22021800D01*
X-8502000Y-23622000D02*
X-8502000Y-23462600D01*
%TO.N,Net-(J103-Pin_6)*%
X32562800Y-12522200D02*
X21463000Y-23622000D01*
X21463000Y-23622000D02*
X-6002000Y-23622000D01*
%TD*%
M02*
